<svg width="485" height="638" viewBox="0 0 485 638" fill="none" xmlns="http://www.w3.org/2000/svg">
<path d="M117.067 590.886L117.091 590.903L117.115 590.92C152.363 615.812 194.391 628.079 242.761 628.079C291.123 628.079 333.062 615.816 368.128 590.916C403.311 566.068 429.953 530.264 448.284 484.051C466.806 437.643 475.909 382.095 475.909 317.659C475.909 253.601 466.806 198.424 448.277 152.386C429.941 106.356 403.289 70.7388 368.095 46.0832C332.856 21.3957 290.935 9.22705 242.761 9.22705C194.587 9.22705 152.666 21.3957 117.427 46.0832L117.417 46.0901L117.407 46.097C82.4144 70.7509 55.7736 106.357 37.253 152.366L37.2493 152.375L37.2456 152.385C18.9085 198.227 9.80507 253.397 9.61332 317.632L9.61328 317.645V317.659C9.61328 381.906 18.6216 437.351 36.9471 483.749L36.9555 483.77L36.964 483.792C55.4785 529.98 82.1041 565.855 117.067 590.886ZM321.087 471.895L321.084 471.902L321.08 471.908C301.4 505.417 275.428 521.159 242.761 521.159C220.704 521.159 201.946 514.002 186.029 499.634C169.991 484.967 157.04 462.73 147.682 432.097C138.551 401.589 133.96 363.527 134.147 317.696L134.147 317.683C134.335 249.012 144.884 198.332 164.726 164.546L164.731 164.537L164.737 164.528C184.439 130.804 210.327 115.011 242.761 115.011C264.587 115.011 283.249 122.233 299.189 136.802L299.209 136.82L299.228 136.838C315.259 151.317 328.209 173.365 337.567 203.825C346.88 234.139 351.659 272.01 351.659 317.659C351.659 386.897 341.105 437.937 321.087 471.895Z" fill="#FFA403" stroke="#363A5A" stroke-width="18"/>
</svg>
