<svg width="1000" height="1000" viewBox="0 0 1000 1000" fill="none" xmlns="http://www.w3.org/2000/svg">
<path d="M200 513.391C200 347.697 324.832 207.334 500 261.7C693.289 197.267 800 347.697 800 513.391C800 679.086 667.114 860.581 500 813.408C332.886 860.581 200 679.086 200 513.391Z" fill="#F46A6A" stroke="#363A5A" stroke-width="16"/>
<path d="M299.884 575.026C311.587 625.394 338.405 662.198 321.075 666.225C303.745 670.252 280.208 632.686 268.505 582.317C256.802 531.949 261.364 487.853 278.694 483.826C296.024 479.799 288.181 524.658 299.884 575.026Z" fill="#F8C8C8" stroke="#413D51" stroke-width="4"/>
<path d="M406.428 222.248C397.918 222.702 389.489 224.144 381.312 226.547C381.238 229.431 381.243 232.332 381.397 235.263C382.267 251.805 386.871 267.936 394.864 282.444C402.858 296.953 414.032 309.463 427.55 319.036C441.067 328.611 456.578 334.999 472.916 337.723C489.255 340.446 505.998 339.435 521.89 334.765C521.964 331.881 521.961 328.979 521.806 326.048C520.269 296.983 507.251 269.718 485.613 250.252C463.976 230.785 435.492 220.712 406.428 222.248Z" fill="#98DA4F" stroke="#363A5A" stroke-width="6" stroke-linecap="round" stroke-linejoin="round"/>
<path d="M602.101 200.004C600.455 192.739 597.97 185.691 594.696 179C592.2 179.362 589.701 179.793 587.2 180.358C573.079 183.547 559.863 189.891 548.543 198.917C537.224 207.942 528.095 219.413 521.841 232.469C515.587 245.526 512.37 259.83 512.433 274.308C512.495 288.785 515.834 303.06 522.201 316.062C524.696 315.701 527.196 315.27 529.697 314.704C541.982 311.927 553.6 306.759 563.888 299.492C574.175 292.224 582.931 283.002 589.653 272.351C596.377 261.7 600.937 249.829 603.073 237.416C605.208 225.003 604.879 212.291 602.101 200.004Z" fill="#98DA4F" stroke="#363A5A" stroke-width="6" stroke-linecap="round" stroke-linejoin="round"/>
<mask id="mask0_215_5155" style="mask-type:alpha" maskUnits="userSpaceOnUse" x="509" y="176" width="99" height="144">
<path d="M602.101 200.004C600.455 192.739 597.97 185.691 594.696 179C592.2 179.362 589.701 179.793 587.2 180.358C573.079 183.547 559.863 189.891 548.543 198.917C537.224 207.942 528.095 219.413 521.841 232.469C515.587 245.526 512.37 259.83 512.433 274.308C512.495 288.785 515.834 303.06 522.201 316.062C524.696 315.701 527.196 315.27 529.697 314.704C541.982 311.927 553.6 306.759 563.888 299.492C574.175 292.224 582.931 283.002 589.653 272.351C596.377 261.7 600.937 249.829 603.073 237.416C605.208 225.003 604.879 212.291 602.101 200.004Z" fill="#98DA4F" stroke="#363A5A" stroke-width="6" stroke-linecap="round" stroke-linejoin="round"/>
</mask>
<g mask="url(#mask0_215_5155)">
<path d="M602.103 200.004C600.457 192.74 595.951 188.711 592.677 182.021C590.181 182.383 592.677 196.115 592.677 200.004C592.677 223.801 592.077 214.74 587.547 238.399C581.099 259.038 584.12 248.971 563.889 276.153C555.041 288.042 561.469 279.174 548.382 294.778C527.744 310.383 515.836 303.06 522.202 316.062C524.698 315.701 527.197 315.27 529.698 314.704C541.983 311.928 553.601 306.759 563.889 299.492C574.177 292.224 582.932 283.002 589.655 272.352C596.379 261.7 600.938 249.829 603.074 237.416C605.209 225.003 604.88 212.291 602.103 200.004Z" fill="#6DB023"/>
</g>
<path d="M566.227 231.494C566.227 231.494 543.618 260.69 522.2 316.063" stroke="#363A5A" stroke-width="6" stroke-linecap="round" stroke-linejoin="round"/>
<path d="M428.308 264.717C428.308 264.717 492.645 326.285 521.885 334.765" stroke="#363A5A" stroke-width="6" stroke-linecap="round" stroke-linejoin="round"/>
<mask id="mask1_215_5155" style="mask-type:alpha" maskUnits="userSpaceOnUse" x="380" y="222" width="135" height="117">
<path d="M386.025 252.04C384.451 244.53 383.735 236.879 383.889 229.24C386.318 228.557 388.78 227.937 391.3 227.443C405.527 224.649 420.265 225.196 434.408 229.043C448.551 232.89 461.731 239.937 472.96 249.655C484.19 259.373 493.177 271.511 499.248 285.158C505.318 298.804 511.884 318.693 511.581 333.538C509.152 334.222 503.12 334.052 500.6 334.545C488.222 336.973 474.709 335.651 462.252 333.035C449.794 330.418 438.636 322.262 427.997 315C417.357 307.737 408.175 298.44 400.973 287.637C393.772 276.835 388.692 264.74 386.025 252.04Z" fill="#98DA4F" stroke="#363A5A" stroke-width="6" stroke-linecap="round" stroke-linejoin="round"/>
</mask>
<g mask="url(#mask1_215_5155)">
<path d="M386.803 253.5C385.146 246.238 384.73 236.283 384.789 228.835C387.196 228.082 394.966 248.097 396.648 251.603C406.938 273.06 403.561 264.631 417.876 284.004C432.614 299.826 425.537 292.054 455.533 307.815C468.651 314.708 459.021 309.492 477.569 317.903C503.022 333.538 498.492 332.028 511.579 334.042C509.173 334.795 501.495 335.484 498.995 336.055C486.718 338.864 478.192 335.138 465.774 333.035C453.355 330.93 440.759 324.599 430.092 317.903C419.423 311.206 410.744 300.101 403.45 289.832C396.158 279.564 389.611 265.78 386.803 253.5Z" fill="#6DB023"/>
</g>
<path d="M428.523 346.626C503.129 377.154 544.044 376.699 614.765 331.021" stroke="#363A5A" stroke-width="9" stroke-linecap="round"/>
<path d="M499.785 230.657C497.787 218.355 507.284 207.189 519.748 207.189C531.78 207.189 541.151 217.63 539.855 229.592L531.292 308.646C530.904 312.232 531.207 315.859 532.184 319.33L536.421 334.374C539.362 344.819 531.513 355.184 520.662 355.184C508.944 355.184 501.02 343.235 505.58 332.441L510.554 320.666C512.373 316.359 512.941 311.626 512.191 307.012L499.785 230.657Z" fill="#363A5A"/>
</svg>
