<svg width="346" height="332" viewBox="0 0 346 332" fill="none" xmlns="http://www.w3.org/2000/svg">
<path d="M172.957 331.106C268.478 331.106 345.914 286.398 345.914 231.247C345.914 176.097 268.478 131.389 172.957 131.389C77.4354 131.389 0 176.097 0 231.247C0 286.398 77.4354 331.106 172.957 331.106Z" fill="#EED3CA"/>
<path opacity="0.3" d="M345.884 229.418C345.741 224.834 345.062 220.283 343.862 215.856C343.337 213.891 342.714 211.953 341.995 210.049C341.736 209.361 341.469 208.672 341.181 207.983C341.062 207.687 340.929 207.398 340.803 207.102C337.299 207.102 333.833 208.524 330.915 210.524C327.559 212.834 324.782 215.864 321.878 218.723C317.221 223.416 311.996 227.509 306.324 230.907C296.51 236.603 282.622 237.025 271.512 237.981C260.935 238.892 250.217 239.743 240.152 243.121C230.086 246.498 220.546 252.713 215.413 262.016C212.08 268.052 210.013 274.718 206.732 280.777C203.451 286.836 198.933 290.362 192.77 291.887C189.681 292.628 183.349 293.021 178.816 292.895C168.091 292.613 157.336 290.236 146.677 289.436C129.094 288.125 121.82 291.317 118.235 292.169C109.787 294.052 101.856 297.772 95.0074 303.064C91.6076 305.753 88.3857 308.686 84.6748 310.93C82.2874 312.345 79.7638 313.517 77.1421 314.426C79.8036 315.454 82.4972 316.441 85.2229 317.389C86.2673 317.745 87.3117 318.093 88.3634 318.434C88.9041 318.604 89.4374 318.782 89.9781 318.945C94.1852 320.278 98.4738 321.5 102.814 322.611C111.34 324.788 119.97 326.536 128.671 327.848C186.245 336.625 250.143 327.974 295.266 301.924C314.96 290.554 328.915 277.118 337.122 262.823C343.321 251.957 346.24 240.677 345.884 229.418Z" fill="#31BBD9"/>
<path opacity="0.5" d="M317.034 242.38C310.309 244.676 305.82 246.483 290.259 247.224C281.504 247.639 272.542 248.046 263.727 247.89C252.706 247.698 238.129 251.542 231.137 260.815L231.078 260.889C225.797 266.815 221.76 275.066 216.924 286.176C215.147 290.621 212.08 294.431 208.117 297.116C203.913 300.046 199.051 301.895 193.963 302.501C189.97 302.96 185.941 302.642 181.941 302.316L155.529 300.197C144.263 299.294 131.827 299.901 121.376 304.56C112.747 308.412 105.621 314.841 98.8367 321.477C100.162 321.84 101.481 322.218 102.814 322.551C111.34 324.728 119.97 326.476 128.671 327.788C186.245 336.565 250.143 327.914 295.266 301.864C314.96 290.494 328.915 277.058 337.122 262.763C343.329 251.964 346.247 240.684 345.884 229.433C345.821 227.368 345.648 225.309 345.365 223.263C337.099 232.751 331.87 237.291 317.034 242.38Z" fill="#31BBD9"/>
<path d="M128.664 327.788C186.237 336.565 250.136 327.914 295.258 301.864C314.953 290.494 328.907 277.058 337.114 262.763C338.995 259.515 340.607 256.119 341.936 252.608C337.501 254.647 332.835 256.139 328.041 257.052C325.619 257.534 323.167 257.904 320.73 258.171C309.85 259.378 298.851 258.852 287.918 259.489C279.133 260.002 270.408 261.266 261.839 263.267C253.691 265.163 247.432 270.014 241.581 275.747C236.285 280.932 234.063 288.739 231.174 295.361C227.308 304.249 221.279 311.996 214.176 313.967C205.339 316.433 196.022 315.226 187.096 313.907C179.09 312.722 170.89 311.182 162.928 310.611C146.04 309.389 131.397 312.967 119.02 322.507C117.877 323.381 116.853 324.402 115.976 325.543C120.163 326.393 124.393 327.141 128.664 327.788Z" fill="#31BBD9"/>
<path d="M221.923 253.639C211.109 262.038 210.221 278.933 200.444 287.251C192.17 294.287 179.371 292.717 145.389 289.31C145.389 289.31 170.179 292.976 183.66 293.561C194.029 294.013 199.444 292.554 205.814 284.962C212.635 276.829 212.561 263.971 221.923 253.639Z" fill="#FAFAFA"/>
<path d="M75.6682 313.825C76.5274 314.181 79.3716 315.262 80.2308 315.559C85.7489 313.381 89.756 309.396 92.8224 306.508C100.688 299.041 111.206 293.849 117.102 292.435C109.31 293.679 100.303 296.879 89.7708 306.026C85.7058 309.639 80.8889 312.303 75.6682 313.825Z" fill="#FAFAFA"/>
<path d="M249.373 269.088C249.373 269.088 257.913 261.682 273.653 259.008C289.111 256.401 317.775 259.948 329.774 256.689C329.774 256.689 321.345 260.8 299.406 260.8C272.764 260.8 266.779 259.415 249.373 269.088Z" fill="#FAFAFA"/>
<path d="M332.167 209.686C326.419 211.908 321.056 219.374 313.575 225.092C306.687 230.328 296.503 236.083 272.838 237.831C272.838 237.831 288.866 238.18 300.31 234.321C311.753 230.462 315.746 226.425 319.634 222.018C326.374 214.337 330.152 210.745 332.167 209.686Z" fill="#FAFAFA"/>
<path d="M159.772 300.537C157.225 300.33 146.485 298.434 136.967 299.797C127.449 301.16 119.776 303.619 111.917 310.063C111.917 310.063 121.22 304.3 131.434 302.167C140.75 300.244 150.297 299.695 159.772 300.537Z" fill="#FAFAFA"/>
<path d="M246.736 250.527C243.07 251.935 236.478 254.386 230.641 262.26C224.805 270.133 222.494 275.688 218.79 284.065C215.087 292.443 210.206 295.509 210.206 295.509C210.206 295.509 215.524 288.998 218.19 281.636C220.857 274.274 224.279 266.785 229.989 260.571C235.7 254.357 240.166 252.216 246.736 250.527Z" fill="#FAFAFA"/>
<path d="M345.707 226.366C345.573 224.781 345.381 223.196 345.114 221.618C343.094 223.331 341.228 225.217 339.537 227.255C335.596 231.884 320.76 243.387 296.414 246.816C296.414 246.816 304.169 247.253 317.894 243.305C331.619 239.358 338.3 232.973 341.292 229.973C342.658 228.647 344.135 227.44 345.707 226.366Z" fill="#FAFAFA"/>
<path d="M137.375 313.07C143.352 309.367 152.581 308.7 165.854 309.886C179.127 311.071 203.792 316.974 215.339 313.589C215.339 313.589 211.139 316.729 195.925 315.722C182.09 314.804 163.765 311.16 154.447 311.145C141.522 311.137 137.375 313.07 137.375 313.07Z" fill="#FAFAFA"/>
<path opacity="0.1" d="M201.361 197.058C211.065 197.058 218.93 192.515 218.93 186.911C218.93 181.307 211.065 176.764 201.361 176.764C191.658 176.764 183.792 181.307 183.792 186.911C183.792 192.515 191.658 197.058 201.361 197.058Z" fill="black"/>
<path d="M220.841 188.866L219.323 189.94C214.563 193.379 210.089 197.199 205.946 201.361C204.021 203.295 202.324 205.583 201.947 208.287C201.436 211.99 203.887 214.212 206.22 215.323C211.153 217.693 217.857 216.805 217.797 216.538C218.575 220.13 221.567 222.93 224.96 224.337C228.406 225.658 232.098 226.216 235.781 225.974C240.033 225.811 244.099 224.626 248.506 223.278C256.163 220.939 263.545 217.783 270.526 213.864C276.667 210.413 283.57 206.146 286.081 199.199C286.787 197.677 286.969 195.965 286.6 194.328C286.23 192.692 285.328 191.225 284.036 190.155C279.829 185.889 273.822 184.007 268.008 182.548C258.787 180.245 249.113 178.63 239.81 180.6C232.998 182.06 226.548 184.871 220.841 188.866Z" fill="#D7BEB6"/>
<path d="M80.2156 234.551C78.4601 234.551 75.9048 232.233 74.8012 231.004C72.194 228.107 69.5423 224.937 68.6979 223.915C67.2684 224.174 62.4022 225.093 57.2914 226.471L56.0693 226.804C54.7614 227.243 53.4067 227.529 52.0326 227.656C51.7233 227.694 51.4095 227.645 51.1267 227.514C50.8439 227.383 50.6035 227.176 50.4327 226.915C50.0253 226.174 50.2994 225.13 51.366 223.404C53.588 219.804 58.2988 217.079 60.6245 215.901C58.3642 214.702 56.0286 213.65 53.6325 212.753C52.5511 212.368 51.1067 211.716 51.129 210.531C51.129 209.953 51.5289 209.146 53.351 208.576C55.156 208.132 57.0106 207.923 58.8691 207.953C59.6098 207.953 60.3505 207.953 61.0911 208.05C66.75 208.568 69.6386 209.531 70.6682 209.909C71.9347 208.968 76.364 205.961 81.7784 205.465C82.6598 205.383 83.4672 205.339 84.1708 205.339C85.9855 205.339 86.978 205.613 87.4076 206.243C87.5213 206.416 87.5896 206.616 87.6064 206.823C87.6233 207.03 87.588 207.238 87.5039 207.428C87.1558 208.302 86.2447 208.998 85.0893 209.887C83.6119 210.958 82.2668 212.202 81.0822 213.59L82.1784 213.99C85.5095 215.112 88.7383 216.517 91.8295 218.19C94.3848 219.671 95.4366 220.864 95.1329 222.019C94.7552 223.434 92.5183 223.73 90.6888 223.73H90.3481C89.7926 223.73 89.1334 223.73 88.4223 223.73C85.6003 223.73 81.8895 223.804 80.1785 223.841C80.5118 225.174 81.1414 227.9 81.7858 231.574C81.9784 232.707 81.8673 233.507 81.4377 234.018C81.2869 234.193 81.0988 234.332 80.8873 234.424C80.6758 234.516 80.4462 234.56 80.2156 234.551Z" fill="#D7BEB6"/>
<path d="M76.2158 279.793C76.0845 279.792 75.9547 279.765 75.8347 279.711C75.7148 279.657 75.6075 279.579 75.5196 279.482C75.0826 279 74.9418 277.6 75.0974 275.334C71.3644 276.119 67.5701 276.578 63.7575 276.704C62.1624 276.806 60.5654 276.537 59.0912 275.919C58.4001 275.605 57.7884 275.14 57.3012 274.558C56.8141 273.976 56.4639 273.292 56.2766 272.556C55.8915 270.905 56.4025 268.897 57.6765 266.986C57.1506 266.061 56.4914 263.927 58.7505 260.668C59.4013 259.673 60.2933 258.858 61.3436 258.3C62.3938 257.742 63.5682 257.458 64.7574 257.476C65.1895 257.474 65.6208 257.511 66.0462 257.587C66.698 256.75 68.3868 255.165 71.9272 255.165C72.4746 255.164 73.0214 255.199 73.5641 255.269C74.2403 255.371 74.8879 255.612 75.4656 255.978C76.0432 256.344 76.5384 256.827 76.9194 257.395C79.1415 260.409 79.9266 266.209 79.46 270.571C80.3225 270.409 81.1971 270.32 82.0746 270.305C82.9578 270.235 83.8395 270.456 84.5855 270.934C84.7644 271.06 84.9034 271.234 84.9861 271.436C85.0688 271.638 85.0918 271.86 85.0521 272.075C84.8299 273.267 82.1635 274.297 79.8674 274.986C79.2304 276.215 77.6898 279.052 76.7491 279.637C76.5894 279.738 76.4046 279.792 76.2158 279.793Z" fill="#D7BEB6"/>
<path d="M167.749 256.083C182.68 256.083 194.784 250.28 194.784 243.121C194.784 235.962 182.68 230.159 167.749 230.159C152.818 230.159 140.714 235.962 140.714 243.121C140.714 250.28 152.818 256.083 167.749 256.083Z" fill="#D7BEB6"/>
<path d="M136.641 265.712C149.011 265.712 159.039 260.904 159.039 254.972C159.039 249.041 149.011 244.232 136.641 244.232C124.27 244.232 114.242 249.041 114.242 254.972C114.242 260.904 124.27 265.712 136.641 265.712Z" fill="#D7BEB6"/>
<path d="M129.027 150.284C129.027 136.952 134.871 103.688 163.187 77.7344L166.564 79.6824C166.564 79.6824 138.855 104.458 141.9 150.292C141.9 151.24 141.27 152.195 140.011 152.921C138.613 153.667 137.047 154.042 135.463 154.01C133.877 154.04 132.309 153.665 130.908 152.921C129.649 152.195 129.027 151.277 129.027 150.284Z" fill="#B16668"/>
<path d="M163.905 79.6822C163.905 79.6822 168.809 73.9641 182.956 78.9415C197.103 83.9189 200.436 104.754 198.036 116.05C196.509 112.462 194.355 109.177 191.673 106.347L189.829 94.5773L189.007 104.488C186.798 103.342 184.866 101.727 183.348 99.7547C183.348 99.7547 183.296 92.933 181.867 88.5629L180.711 97.0215C179.118 96.5818 177.669 95.7283 176.512 94.5477C174.341 92.4737 167.512 87.1927 163.905 79.6822Z" fill="#1C9F5C"/>
<path opacity="0.15" d="M163.905 79.6822C163.905 79.6822 168.809 73.9641 182.956 78.9415C197.103 83.9189 200.436 104.754 198.036 116.05C196.509 112.462 194.355 109.177 191.673 106.347L189.829 94.5773L189.007 104.488C186.798 103.342 184.866 101.727 183.348 99.7547C183.348 99.7547 183.296 92.933 181.867 88.5629L180.711 97.0215C179.118 96.5818 177.669 95.7283 176.512 94.5477C174.341 92.4737 167.512 87.1927 163.905 79.6822Z" fill="black"/>
<path d="M165.713 80.1709C165.713 80.1709 166.305 76.2379 161.691 68.3792C157.076 60.5206 146.425 57.4764 140.581 57.3875C134.737 57.2986 126.56 59.3577 118.805 66.0239C123.528 65.6778 128.261 66.5287 132.567 68.4977C135.218 66.1574 138.559 64.7431 142.085 64.4684C142.085 64.4684 137.011 68.083 135.678 69.8013C135.678 69.8013 140.596 73.127 146.085 72.8381C146.085 72.8381 150.425 69.5791 154.232 69.0903C154.232 69.0903 150.092 71.5049 148.692 74.2751C148.707 74.2454 159.795 80.4598 165.713 80.1709Z" fill="#1C9F5C"/>
<path d="M163.905 79.682C163.905 79.682 156.439 73.838 145.114 77.2081C133.789 80.5782 126.079 96.1992 124.99 103.688C124.99 103.688 129.53 99.1397 139.315 95.6659L143.085 87.1184L143.189 94.2068L149.64 91.444L153.025 82.5558V89.9627C153.025 89.9627 161.239 84.6149 163.905 79.682Z" fill="#1C9F5C"/>
<path opacity="0.15" d="M163.905 79.682C163.905 79.682 156.439 73.838 145.114 77.2081C133.789 80.5782 126.079 96.1992 124.99 103.688C124.99 103.688 129.53 99.1397 139.315 95.6659L143.085 87.1184L143.189 94.2068L149.64 91.444L153.025 82.5558V89.9627C153.025 89.9627 161.239 84.6149 163.905 79.682Z" fill="black"/>
<path d="M163.905 79.6816C162.439 82.5339 161.512 85.6326 161.172 88.8217C160.877 91.6037 161.256 94.4159 162.276 97.021L166.564 93.7768L163.224 102.524C163.293 105.598 163.95 108.63 165.157 111.457L170.068 103.687L166.935 115.605C166.935 115.605 169.986 125.863 170.068 130.352C170.068 130.352 178.541 117.493 177.778 104.08C177.015 90.666 173.082 81.563 163.905 79.6816Z" fill="#1C9F5C"/>
<path d="M119.235 152.468C119.235 130.558 109.606 75.9922 63.1649 33.3955L57.6172 36.5953C57.6172 36.5953 103.095 77.2587 98.1029 152.475C98.1029 154.038 99.1399 155.593 101.199 156.786C103.492 158.008 106.06 158.622 108.658 158.571C111.263 158.627 113.839 158.012 116.139 156.786C118.175 155.593 119.235 154.03 119.235 152.468Z" fill="#B16668"/>
<path d="M61.9576 36.5955C61.9576 36.5955 53.9138 27.2111 30.6934 35.329C7.47297 43.4469 2.00673 77.6886 5.91013 96.2279C5.91013 96.2279 9.61354 86.9916 16.3612 80.3032L19.3831 60.9936L20.7312 77.2886C24.3582 75.406 27.5287 72.7513 30.0194 69.5115C30.0194 69.5115 30.1008 58.3198 32.3969 51.15L34.3598 65.0896C36.9726 64.3614 39.3481 62.959 41.2481 61.0233C44.8256 57.5865 56.0469 48.9279 61.9576 36.5955Z" fill="#1C9F5C"/>
<path d="M58.9874 37.4031C58.9874 37.4031 58.0245 30.9517 65.5942 18.0491C73.2677 4.99083 90.6441 0.176389 100.236 0.00603182C109.828 -0.164325 123.249 3.24281 135.974 14.1827C128.235 13.6254 120.479 15.0211 113.42 18.2416C109.072 14.3986 103.592 12.0744 97.8065 11.6199C97.8065 11.6199 106.154 17.5454 108.28 20.3304C108.28 20.3304 100.214 25.7966 91.2071 25.3226C91.2071 25.3226 84.0817 19.9674 77.8081 19.1675C77.8081 19.1675 84.6002 23.1301 86.8963 27.715C86.8963 27.715 68.7125 37.8771 58.9874 37.4031Z" fill="#1C9F5C"/>
<path opacity="0.15" d="M58.9874 37.4031C58.9874 37.4031 58.0245 30.9517 65.5942 18.0491C73.2677 4.99083 90.6441 0.176389 100.236 0.00603182C109.828 -0.164325 123.249 3.24281 135.974 14.1827C128.235 13.6254 120.479 15.0211 113.42 18.2416C109.072 14.3986 103.592 12.0744 97.8065 11.6199C97.8065 11.6199 106.154 17.5454 108.28 20.3304C108.28 20.3304 100.214 25.7966 91.2071 25.3226C91.2071 25.3226 84.0817 19.9674 77.8081 19.1675C77.8081 19.1675 84.6002 23.1301 86.8963 27.715C86.8963 27.715 68.7125 37.8771 58.9874 37.4031Z" fill="black"/>
<path d="M61.9575 36.5964C61.9575 36.5964 74.2084 26.9675 92.7995 32.5301C111.391 38.0926 124.034 63.7054 125.827 75.9933C125.827 75.9933 118.375 68.5272 102.31 62.824L96.1252 48.7954L95.9623 60.4316L85.3631 55.8986L79.808 41.2923V53.4025C79.808 53.4025 66.335 44.7291 61.9575 36.5964Z" fill="#1C9F5C"/>
<path d="M61.9575 36.5957C64.3637 41.2766 65.8854 46.3614 66.4461 51.5945C67.1423 59.6754 64.6314 65.0601 64.6314 65.0601L57.5875 59.7272L63.076 74.0891C62.9619 79.1299 61.8859 84.1026 59.9058 88.7398L51.8324 75.9926L57.0172 95.554C57.0172 95.554 51.9805 112.382 51.8324 119.752C51.8324 119.752 37.9298 98.6501 39.1815 76.6444C40.4333 54.6387 46.8994 39.6843 61.9575 36.5957Z" fill="#1C9F5C"/>
<path opacity="0.15" d="M61.9575 36.5957C64.3637 41.2766 65.8854 46.3614 66.4461 51.5945C67.1423 59.6754 64.6314 65.0601 64.6314 65.0601L57.5875 59.7272L63.076 74.0891C62.9619 79.1299 61.8859 84.1026 59.9058 88.7398L51.8324 75.9926L57.0172 95.554C57.0172 95.554 51.9805 112.382 51.8324 119.752C51.8324 119.752 37.9298 98.6501 39.1815 76.6444C40.4333 54.6387 46.8994 39.6843 61.9575 36.5957Z" fill="black"/>
<path d="M188.488 237.116L185.77 206.829L184.955 209.792H179.23V213.414C178.989 213.834 178.706 214.228 178.386 214.591L175.638 213.006C173.826 214.017 171.858 214.718 169.816 215.08V218.85C167.302 219.33 164.729 219.424 162.187 219.132V215.362C159.518 215.097 156.931 214.296 154.58 213.006L151.825 214.606C151.242 213.959 150.791 213.204 150.499 212.384V209.792H144.862V209.273L144.455 206.837L141.737 237.101C141.737 237.353 141.737 237.604 141.737 237.841C141.737 241.3 144.018 244.759 148.588 247.396C157.728 252.677 172.549 252.677 181.689 247.396C186.585 244.604 188.859 240.826 188.488 237.116Z" fill="#F0997A"/>
<path opacity="0.12" d="M188.488 237.116L185.77 206.829L184.955 209.792H179.23V213.414C178.989 213.834 178.706 214.228 178.386 214.591L175.638 213.006C173.826 214.017 171.858 214.718 169.816 215.08V218.85C167.302 219.33 164.729 219.424 162.187 219.132V215.362C159.518 215.097 156.931 214.296 154.58 213.006L151.825 214.606C151.242 213.959 150.791 213.204 150.499 212.384V209.792H144.862V209.273L144.455 206.837L141.737 237.101C141.737 237.353 141.737 237.604 141.737 237.841C141.737 241.3 144.018 244.759 148.588 247.396C157.728 252.677 172.549 252.677 181.689 247.396C186.585 244.604 188.859 240.826 188.488 237.116Z" fill="white"/>
<path d="M168.053 198.919V202.274C165.508 201.989 162.934 202.084 160.417 202.555V199.126C162.947 198.779 165.508 198.709 168.053 198.919Z" fill="#F0997A"/>
<path d="M154.602 204.607C153.129 205.393 151.888 206.553 151.003 207.969L150.329 207.836L145.551 206.918C146.292 205.673 147.262 204.579 148.41 203.696C149.083 203.166 149.794 202.686 150.536 202.259L154.602 204.607Z" fill="#F0997A"/>
<path d="M185.371 208.377L179.756 209.029C179.733 208.956 179.706 208.884 179.675 208.814C178.855 207.01 177.448 205.538 175.682 204.637L179.749 202.289C180.995 202.984 182.137 203.852 183.141 204.867C184.128 205.85 184.887 207.038 185.363 208.348L185.371 208.377Z" fill="#F0997A"/>
<path d="M184.711 214.48C183.487 216.444 181.768 218.051 179.726 219.139L176.082 217.036L175.69 216.806C176.718 216.232 177.646 215.494 178.438 214.621C178.758 214.258 179.041 213.863 179.282 213.443L184.711 214.48Z" fill="#F0997A"/>
<path d="M171.653 222.013C168.169 222.671 164.606 222.801 161.083 222.398L162.209 219.147C164.752 219.439 167.324 219.344 169.838 218.865L171.653 222.013Z" fill="#F0997A"/>
<path d="M154.602 216.791L154.165 217.043L150.536 219.139C147.573 217.413 145.655 215.28 144.892 213.05L150.529 212.398C150.821 213.219 151.272 213.974 151.855 214.62C152.503 215.341 153.251 215.964 154.077 216.472C154.24 216.576 154.417 216.687 154.602 216.791Z" fill="#F0997A"/>
<g opacity="0.2">
<path d="M168.053 198.919V202.274C165.508 201.989 162.934 202.084 160.417 202.555V199.126C162.947 198.779 165.508 198.709 168.053 198.919Z" fill="white"/>
<path d="M154.603 204.608C153.129 205.394 151.888 206.554 151.003 207.97L150.329 207.837L145.552 206.919C146.292 205.674 147.263 204.58 148.411 203.697C149.083 203.167 149.794 202.687 150.536 202.26L154.603 204.608Z" fill="white"/>
<path d="M185.371 208.377L179.756 209.029C179.733 208.956 179.706 208.884 179.675 208.814C178.855 207.01 177.448 205.538 175.682 204.637L179.749 202.289C180.995 202.984 182.137 203.852 183.141 204.867C184.128 205.85 184.887 207.038 185.363 208.348L185.371 208.377Z" fill="white"/>
<path d="M184.711 214.48C183.487 216.444 181.768 218.051 179.726 219.139L176.082 217.036L175.69 216.806C176.718 216.232 177.646 215.494 178.438 214.621C178.758 214.258 179.041 213.863 179.282 213.443L184.711 214.48Z" fill="white"/>
<path d="M171.653 222.013C168.169 222.671 164.606 222.801 161.083 222.398L162.209 219.147C164.752 219.439 167.324 219.344 169.838 218.865L171.653 222.013Z" fill="white"/>
<path d="M154.602 216.791L154.165 217.043L150.536 219.139C147.573 217.413 145.655 215.28 144.892 213.05L150.529 212.398C150.821 213.219 151.272 213.974 151.855 214.62C152.503 215.341 153.251 215.964 154.077 216.472C154.24 216.576 154.417 216.687 154.602 216.791Z" fill="white"/>
</g>
<path d="M154.595 216.792C160.417 220.155 169.846 220.155 175.66 216.792C181.474 213.429 181.474 207.993 175.66 204.637C169.846 201.282 160.417 201.275 154.602 204.637C148.788 208 148.781 213.437 154.595 216.792Z" fill="#FFBDA7"/>
<path d="M161.083 222.398V218.635L150.536 215.376V219.139L161.083 222.398Z" fill="#F0997A"/>
<path d="M171.653 222.012V218.25L179.726 215.376V219.139L171.653 222.012Z" fill="#F0997A"/>
<path opacity="0.12" d="M161.083 222.398V218.635L150.536 215.376V219.139L161.083 222.398Z" fill="white"/>
<path opacity="0.12" d="M171.653 222.012V218.25L179.726 215.376V219.139L171.653 222.012Z" fill="white"/>
<path d="M171.653 218.243V222.013L169.838 218.865V215.095L171.653 218.243Z" fill="#F0997A"/>
<path d="M184.711 210.71V214.48L179.252 213.428V209.658L180.023 209.806L184.711 210.71Z" fill="#F0997A"/>
<path d="M179.726 198.519V202.289L175.66 204.637V200.867L179.726 198.519Z" fill="#F0997A"/>
<path d="M154.602 200.867V204.637L150.536 202.289V198.519L154.602 200.867Z" fill="#F0997A"/>
<path d="M150.529 208.629V212.399L144.892 213.051V209.281L150.529 208.629Z" fill="#F0997A"/>
<path d="M162.209 215.376V219.146L161.083 222.398V218.628L162.209 215.376Z" fill="#F0997A"/>
<g opacity="0.08">
<path d="M171.653 218.243V222.013L169.838 218.865V215.095L171.653 218.243Z" fill="black"/>
<path d="M184.711 210.711V214.481L179.252 213.429V209.659L180.023 209.807L184.711 210.711Z" fill="black"/>
<path d="M179.726 198.519V202.289L175.66 204.637V200.867L179.726 198.519Z" fill="black"/>
<path d="M154.602 200.867V204.637L150.536 202.289V198.519L154.602 200.867Z" fill="black"/>
<path d="M150.528 208.629V212.399L144.892 213.051V209.281L150.528 208.629Z" fill="black"/>
<path d="M162.209 215.377V219.147L161.083 222.399V218.629L162.209 215.377Z" fill="black"/>
</g>
<path d="M175.66 204.606V200.903C173.308 199.613 170.721 198.81 168.053 198.54V202.31C165.508 202.025 162.934 202.12 160.417 202.592V198.822C158.377 199.188 156.412 199.892 154.602 200.903V204.606C153.129 205.393 151.887 206.552 151.003 207.969V204.199C150.609 204.854 150.363 205.587 150.281 206.346C150.199 207.106 150.284 207.875 150.529 208.599V212.369C150.821 213.189 151.272 213.944 151.854 214.591L154.602 213.006C156.948 214.299 159.53 215.105 162.194 215.376V219.146C164.737 219.438 167.309 219.344 169.823 218.864V215.094C171.866 214.732 173.834 214.031 175.645 213.02L178.393 214.605C178.713 214.242 178.996 213.848 179.237 213.428V209.658C179.395 209.388 179.528 209.106 179.637 208.813C178.827 207 177.424 205.517 175.66 204.606Z" fill="#F0997A"/>
<path opacity="0.03" d="M175.66 204.606V200.903C173.308 199.613 170.721 198.81 168.053 198.54V202.31C165.508 202.025 162.934 202.12 160.417 202.592V198.822C158.377 199.188 156.412 199.892 154.602 200.903V204.606C153.129 205.393 151.887 206.552 151.003 207.969V204.199C150.609 204.854 150.363 205.587 150.281 206.346C150.199 207.106 150.284 207.875 150.529 208.599V212.369C150.821 213.189 151.272 213.944 151.854 214.591L154.602 213.006C156.948 214.299 159.53 215.105 162.194 215.376V219.146C164.737 219.438 167.309 219.344 169.823 218.864V215.094C171.866 214.732 173.834 214.031 175.645 213.02L178.393 214.605C178.713 214.242 178.996 213.848 179.237 213.428V209.658C179.395 209.388 179.528 209.106 179.637 208.813C178.827 207 177.424 205.517 175.66 204.606Z" fill="black"/>
<path d="M179.726 198.519L175.66 200.904C173.309 199.614 170.722 198.811 168.053 198.541L169.179 195.297C172.876 195.648 176.464 196.744 179.726 198.519Z" fill="#F0997A"/>
<path d="M160.417 198.785C158.377 199.152 156.412 199.855 154.602 200.866L150.536 198.518C153.051 197.123 155.779 196.152 158.61 195.645L160.417 198.785Z" fill="#F0997A"/>
<path d="M185.77 206.83C185.781 207.849 185.574 208.859 185.163 209.792C185.032 210.103 184.881 210.405 184.711 210.696L180.023 209.792L179.282 209.644C179.439 209.375 179.573 209.092 179.682 208.8C180.145 207.665 180.174 206.399 179.763 205.245L183.148 204.852L185.37 204.593C185.625 205.312 185.76 206.067 185.77 206.83Z" fill="#F0997A"/>
<path d="M179.726 215.369C178.565 216.036 177.345 216.594 176.082 217.036C174.635 217.555 173.149 217.958 171.638 218.243L169.823 215.095C171.866 214.733 173.834 214.032 175.645 213.021L178.393 214.607L179.726 215.369Z" fill="#F0997A"/>
<path d="M150.343 207.866C150.39 208.118 150.457 208.366 150.543 208.607L144.907 209.259C144.637 208.482 144.502 207.666 144.507 206.844C144.532 205.538 144.897 204.262 145.566 203.141L148.425 203.689L151.017 204.192C150.344 205.291 150.104 206.6 150.343 207.866Z" fill="#F0997A"/>
<path d="M162.194 215.376L161.069 218.628C158.71 218.365 156.389 217.833 154.151 217.043C152.893 216.595 151.678 216.034 150.521 215.369L151.84 214.628L154.588 213.043C156.94 214.325 159.528 215.119 162.194 215.376Z" fill="#F0997A"/>
<g opacity="0.2">
<path d="M179.726 198.518L175.66 200.903C173.309 199.613 170.722 198.81 168.053 198.54L169.179 195.296C172.876 195.648 176.464 196.743 179.726 198.518Z" fill="white"/>
<path d="M160.417 198.784C158.377 199.151 156.412 199.854 154.602 200.865L150.536 198.517C153.051 197.122 155.779 196.151 158.61 195.644L160.417 198.784Z" fill="white"/>
<path d="M185.77 206.828C185.781 207.847 185.574 208.857 185.163 209.79C185.032 210.101 184.881 210.403 184.711 210.694L180.023 209.79L179.282 209.642C179.439 209.373 179.573 209.09 179.682 208.798C180.145 207.663 180.174 206.397 179.763 205.243L183.148 204.85L185.37 204.591C185.625 205.31 185.76 206.065 185.77 206.828Z" fill="white"/>
<path d="M179.726 215.369C178.565 216.036 177.346 216.594 176.082 217.036C174.635 217.555 173.149 217.958 171.638 218.243L169.823 215.095C171.866 214.733 173.834 214.032 175.645 213.021L178.393 214.607L179.726 215.369Z" fill="white"/>
<path d="M150.344 207.865C150.39 208.117 150.457 208.365 150.544 208.606L144.907 209.258C144.637 208.481 144.502 207.665 144.507 206.843C144.532 205.538 144.897 204.261 145.566 203.14L148.425 203.688L151.018 204.191C150.344 205.29 150.104 206.599 150.344 207.865Z" fill="white"/>
<path d="M162.194 215.376L161.069 218.628C158.71 218.365 156.389 217.833 154.151 217.043C152.893 216.595 151.678 216.034 150.521 215.369L151.84 214.628L154.588 213.043C156.94 214.325 159.528 215.119 162.194 215.376Z" fill="white"/>
</g>
<path opacity="0.8" d="M154.239 227.894C153.921 223.731 149.425 220.635 144.492 218.887C144.44 214.643 144.233 209.658 144.233 209.658L143.574 217.028L141.766 237.115C141.766 237.367 141.766 237.619 141.766 237.856C141.766 241.315 144.048 244.774 148.618 247.411C154.173 250.625 161.831 251.855 169.038 251.188C164.614 251.156 160.238 250.268 156.15 248.574C156.15 248.574 154.713 234.019 154.239 227.894Z" fill="#F0997A"/>
<path opacity="0.07" d="M179.23 213.429V213.214C177.6 209.57 171.823 206.866 164.92 206.866C158.187 206.866 152.514 209.436 150.729 212.947C151.012 213.55 151.381 214.109 151.825 214.606L154.573 213.021C156.928 214.313 159.521 215.114 162.194 215.377V219.147C164.737 219.439 167.309 219.344 169.823 218.865V215.095C171.866 214.733 173.834 214.032 175.645 213.021L178.393 214.606C178.711 214.243 178.991 213.848 179.23 213.429Z" fill="white"/>
<path d="M169.838 238.856V251.107C173.667 250.699 177.391 249.602 180.83 247.87C180.452 243.663 180.089 237.5 179.808 235.797C179.334 232.575 169.838 235.271 169.838 238.856Z" fill="#F0997A"/>
<path opacity="0.1" d="M169.838 238.856V251.107C173.667 250.699 177.391 249.602 180.83 247.87C180.452 243.663 180.089 237.5 179.808 235.797C179.334 232.575 169.838 235.271 169.838 238.856Z" fill="black"/>
<path d="M177.749 235.798C177.638 235.057 177.008 234.613 176.141 234.442C173.29 234.85 169.816 236.664 169.816 238.886V251.137C172.869 250.795 175.86 250.032 178.704 248.871C178.386 244.538 178.015 237.45 177.749 235.798Z" fill="#F0997A"/>
<path d="M153.899 250.7L151.929 228.761L151.336 230.901H147.203V233.494C147.028 233.801 146.822 234.089 146.588 234.353L144.596 233.197C143.281 233.924 141.854 234.425 140.374 234.679V237.412C138.553 237.763 136.69 237.833 134.848 237.619V234.975C132.912 234.784 131.035 234.202 129.33 233.264L127.338 234.42C126.916 233.954 126.589 233.41 126.375 232.82V230.901H122.294V230.531L121.998 228.768L120.027 250.707C120.027 250.885 120.027 251.07 120.027 251.255C120.027 253.759 121.679 256.27 124.997 258.181C131.619 262.01 142.366 262.01 148.988 258.181C152.514 256.122 154.158 253.388 153.899 250.7Z" fill="#F0997A"/>
<path opacity="0.12" d="M153.899 250.7L151.929 228.761L151.336 230.901H147.203V233.494C147.028 233.801 146.822 234.089 146.588 234.353L144.596 233.197C143.281 233.924 141.854 234.425 140.374 234.679V237.412C138.553 237.763 136.69 237.833 134.848 237.619V234.975C132.912 234.784 131.035 234.202 129.33 233.264L127.338 234.42C126.916 233.954 126.589 233.41 126.375 232.82V230.901H122.294V230.531L121.998 228.768L120.027 250.707C120.027 250.885 120.027 251.07 120.027 251.255C120.027 253.759 121.679 256.27 124.997 258.181C131.619 262.01 142.366 262.01 148.988 258.181C152.514 256.122 154.158 253.388 153.899 250.7Z" fill="white"/>
<path d="M139.078 223.005V225.442C137.234 225.234 135.369 225.301 133.545 225.642V223.16C135.378 222.905 137.233 222.853 139.078 223.005Z" fill="#F0997A"/>
<path d="M129.33 227.154C128.264 227.726 127.366 228.566 126.723 229.591L126.234 229.494L122.768 228.828C123.307 227.927 124.01 227.135 124.842 226.495C125.328 226.108 125.843 225.759 126.382 225.45L129.33 227.154Z" fill="#F0997A"/>
<path d="M151.632 229.865L147.566 230.339C147.566 230.287 147.566 230.228 147.507 230.183C146.91 228.876 145.889 227.809 144.611 227.154L147.573 225.45C148.475 225.956 149.303 226.584 150.032 227.317C150.751 228.031 151.307 228.893 151.662 229.842L151.632 229.865Z" fill="#F0997A"/>
<path d="M151.158 234.286C150.272 235.711 149.025 236.876 147.544 237.664L144.899 236.138L144.618 235.975C145.362 235.559 146.035 235.027 146.61 234.397C146.844 234.133 147.051 233.845 147.225 233.538L151.158 234.286Z" fill="#F0997A"/>
<path d="M141.692 239.753C139.165 240.226 136.581 240.318 134.026 240.027L134.848 237.671C136.69 237.885 138.553 237.815 140.374 237.464L141.692 239.753Z" fill="#F0997A"/>
<path d="M129.33 235.96L129.012 236.145L126.383 237.664C124.205 236.412 122.842 234.871 122.294 233.22L126.375 232.753C126.59 233.343 126.917 233.887 127.338 234.353C127.805 234.88 128.343 235.339 128.938 235.716L129.33 235.96Z" fill="#F0997A"/>
<g opacity="0.2">
<path d="M139.077 223.006V225.443C137.233 225.235 135.369 225.302 133.544 225.643V223.161C135.377 222.906 137.233 222.854 139.077 223.006Z" fill="white"/>
<path d="M129.33 227.154C128.264 227.726 127.366 228.566 126.723 229.591L126.234 229.494L122.768 228.828C123.306 227.927 124.01 227.135 124.841 226.495C125.328 226.108 125.843 225.759 126.382 225.45L129.33 227.154Z" fill="white"/>
<path d="M151.632 229.865L147.566 230.339C147.566 230.287 147.566 230.228 147.507 230.183C146.91 228.876 145.889 227.809 144.611 227.154L147.573 225.45C148.475 225.956 149.303 226.584 150.032 227.317C150.751 228.031 151.307 228.893 151.662 229.842L151.632 229.865Z" fill="white"/>
<path d="M151.158 234.287C150.272 235.712 149.025 236.877 147.544 237.665L144.899 236.139L144.618 235.976C145.362 235.56 146.035 235.028 146.61 234.398C146.844 234.134 147.051 233.846 147.225 233.539L151.158 234.287Z" fill="white"/>
<path d="M141.692 239.753C139.165 240.226 136.581 240.318 134.026 240.027L134.848 237.671C136.69 237.885 138.553 237.815 140.374 237.464L141.692 239.753Z" fill="white"/>
<path d="M129.33 235.96L129.012 236.145L126.382 237.664C124.205 236.412 122.842 234.871 122.294 233.22L126.375 232.753C126.589 233.343 126.916 233.887 127.338 234.353C127.805 234.88 128.343 235.339 128.938 235.716L129.33 235.96Z" fill="white"/>
</g>
<path d="M129.331 235.967C133.545 238.397 140.382 238.397 144.596 235.967C148.81 233.538 148.81 229.582 144.596 227.153C140.382 224.724 133.545 224.716 129.331 227.153C125.116 229.59 125.116 233.53 129.331 235.967Z" fill="#FFBDA7"/>
<path d="M134.026 240.027V237.301L126.382 234.938V237.664L134.026 240.027Z" fill="#F0997A"/>
<path d="M141.692 239.745V237.02L147.544 234.938V237.664L141.692 239.745Z" fill="#F0997A"/>
<path opacity="0.12" d="M134.026 240.027V237.301L126.382 234.938V237.664L134.026 240.027Z" fill="white"/>
<path opacity="0.12" d="M141.692 239.745V237.02L147.544 234.938V237.664L141.692 239.745Z" fill="white"/>
<path d="M141.692 237.02V239.745L140.374 237.464V234.738L141.692 237.02Z" fill="#F0997A"/>
<path d="M151.158 231.553V234.286L147.203 233.523V230.79L147.758 230.901L151.158 231.553Z" fill="#F0997A"/>
<path d="M147.544 222.717V225.45L144.596 227.153V224.42L147.544 222.717Z" fill="#F0997A"/>
<path d="M129.33 224.42V227.153L126.382 225.45V222.717L129.33 224.42Z" fill="#F0997A"/>
<path d="M126.375 230.049V232.782L122.294 233.249V230.515L126.375 230.049Z" fill="#F0997A"/>
<path d="M134.841 234.938V237.672L134.026 240.027V237.294L134.841 234.938Z" fill="#F0997A"/>
<g opacity="0.08">
<path d="M141.692 237.019V239.744L140.374 237.463V234.737L141.692 237.019Z" fill="black"/>
<path d="M151.158 231.553V234.286L147.203 233.523V230.79L147.758 230.901L151.158 231.553Z" fill="black"/>
<path d="M147.544 222.716V225.449L144.596 227.153V224.419L147.544 222.716Z" fill="black"/>
<path d="M129.33 224.419V227.153L126.382 225.449V222.716L129.33 224.419Z" fill="black"/>
<path d="M126.375 230.048V232.781L122.294 233.248V230.514L126.375 230.048Z" fill="black"/>
<path d="M134.841 234.938V237.671L134.026 240.026V237.293L134.841 234.938Z" fill="black"/>
</g>
<path d="M144.596 227.153V224.42C142.891 223.484 141.014 222.902 139.078 222.709V225.442C137.234 225.234 135.369 225.301 133.545 225.642V222.909C132.068 223.165 130.643 223.666 129.33 224.39V227.123C128.265 227.696 127.366 228.536 126.723 229.56V226.827C126.438 227.303 126.259 227.834 126.199 228.385C126.139 228.936 126.199 229.494 126.375 230.02V232.753C126.59 233.343 126.917 233.886 127.338 234.353L129.33 233.197C131.035 234.135 132.912 234.717 134.849 234.908V237.641C136.69 237.854 138.554 237.785 140.374 237.434V234.701C141.854 234.447 143.281 233.946 144.596 233.219L146.588 234.375C146.822 234.11 147.029 233.822 147.203 233.516V230.782C147.314 230.587 147.411 230.384 147.492 230.175C146.894 228.871 145.873 227.806 144.596 227.153Z" fill="#F0997A"/>
<path opacity="0.03" d="M144.596 227.153V224.42C142.891 223.484 141.014 222.902 139.078 222.709V225.442C137.234 225.234 135.369 225.301 133.545 225.642V222.909C132.068 223.165 130.643 223.666 129.33 224.39V227.123C128.265 227.696 127.366 228.536 126.723 229.56V226.827C126.438 227.303 126.259 227.834 126.199 228.385C126.139 228.936 126.199 229.494 126.375 230.02V232.753C126.59 233.343 126.917 233.886 127.338 234.353L129.33 233.197C131.035 234.135 132.912 234.717 134.849 234.908V237.641C136.69 237.854 138.554 237.785 140.374 237.434V234.701C141.854 234.447 143.281 233.946 144.596 233.219L146.588 234.375C146.822 234.11 147.029 233.822 147.203 233.516V230.782C147.314 230.587 147.411 230.384 147.492 230.175C146.894 228.871 145.873 227.806 144.596 227.153Z" fill="black"/>
<path d="M147.544 222.717L144.581 224.421C142.875 223.485 140.999 222.903 139.063 222.71L139.885 220.354C142.571 220.617 145.176 221.421 147.544 222.717Z" fill="#F0997A"/>
<path d="M133.545 222.909C132.068 223.165 130.643 223.666 129.33 224.39L126.368 222.687C128.191 221.677 130.168 220.973 132.219 220.605L133.545 222.909Z" fill="#F0997A"/>
<path d="M151.921 228.76C151.933 229.497 151.784 230.228 151.484 230.901C151.389 231.125 151.28 231.342 151.158 231.553L147.758 230.901L147.203 230.79C147.314 230.595 147.411 230.392 147.492 230.182C147.826 229.359 147.847 228.442 147.551 227.605L150.003 227.316L151.632 227.131C151.822 227.653 151.92 228.205 151.921 228.76Z" fill="#F0997A"/>
<path d="M147.544 234.93C146.702 235.414 145.816 235.818 144.899 236.138C143.855 236.516 142.783 236.81 141.692 237.019L140.374 234.73C141.854 234.476 143.281 233.976 144.596 233.249L146.588 234.404L147.544 234.93Z" fill="#F0997A"/>
<path d="M126.234 229.493C126.267 229.682 126.314 229.868 126.375 230.049L122.294 230.516C122.097 229.954 121.999 229.363 122.005 228.768C122.017 227.827 122.272 226.906 122.746 226.094L124.82 226.494L126.701 226.857C126.225 227.648 126.059 228.587 126.234 229.493Z" fill="#F0997A"/>
<path d="M134.848 234.975L134.048 237.293C132.338 237.104 130.656 236.719 129.034 236.145C128.123 235.818 127.243 235.412 126.405 234.93L127.36 234.382L129.352 233.227C131.047 234.175 132.917 234.769 134.848 234.975Z" fill="#F0997A"/>
<g opacity="0.2">
<path d="M147.544 222.716L144.581 224.42C142.876 223.484 140.999 222.902 139.063 222.709L139.885 220.354C142.571 220.616 145.177 221.42 147.544 222.716Z" fill="white"/>
<path d="M133.545 222.909C132.067 223.165 130.643 223.666 129.33 224.39L126.367 222.687C128.19 221.677 130.167 220.973 132.219 220.605L133.545 222.909Z" fill="white"/>
<path d="M151.921 228.759C151.933 229.496 151.784 230.227 151.484 230.9C151.389 231.124 151.28 231.341 151.158 231.552L147.758 230.9L147.203 230.789C147.314 230.594 147.411 230.391 147.492 230.181C147.826 229.358 147.847 228.442 147.551 227.604L150.003 227.315L151.632 227.13C151.822 227.652 151.92 228.204 151.921 228.759Z" fill="white"/>
<path d="M147.544 234.93C146.702 235.414 145.816 235.818 144.899 236.138C143.855 236.516 142.783 236.81 141.692 237.019L140.374 234.73C141.854 234.476 143.281 233.976 144.596 233.249L146.588 234.404L147.544 234.93Z" fill="white"/>
<path d="M126.234 229.493C126.267 229.682 126.314 229.868 126.375 230.049L122.294 230.516C122.097 229.954 121.999 229.363 122.005 228.768C122.017 227.827 122.272 226.906 122.746 226.094L124.819 226.494L126.701 226.857C126.225 227.648 126.059 228.587 126.234 229.493Z" fill="white"/>
<path d="M134.848 234.975L134.048 237.293C132.338 237.104 130.656 236.719 129.034 236.145C128.123 235.818 127.243 235.412 126.405 234.93L127.36 234.382L129.352 233.227C131.047 234.175 132.917 234.769 134.848 234.975Z" fill="white"/>
</g>
<path opacity="0.5" d="M123.879 253.055C121.264 250.003 120.961 240.3 121.338 236.138L120.027 250.7C120.027 250.877 120.027 251.062 120.027 251.248C120.027 253.751 121.679 256.262 124.997 258.173C131.619 262.002 142.366 262.002 148.988 258.173C139.53 261.099 129.33 259.417 123.879 253.055Z" fill="#F0997A"/>
<path opacity="0.07" d="M147.203 233.493V233.338C146.018 230.694 141.826 228.738 136.833 228.738C131.952 228.738 127.842 230.605 126.545 233.145C126.754 233.583 127.024 233.99 127.345 234.353L129.338 233.197C131.042 234.135 132.92 234.718 134.856 234.908V237.641C136.697 237.855 138.561 237.785 140.381 237.434V234.701C141.862 234.447 143.289 233.946 144.603 233.219L146.596 234.375C146.829 234.103 147.032 233.808 147.203 233.493Z" fill="white"/>
<path d="M165.157 212.192C165.059 212.19 164.966 212.15 164.897 212.081C164.828 212.012 164.789 211.919 164.787 211.821V184.024C164.789 183.926 164.828 183.833 164.897 183.764C164.966 183.695 165.059 183.655 165.157 183.653C165.255 183.653 165.349 183.692 165.419 183.762C165.488 183.831 165.527 183.925 165.527 184.024V211.821C165.527 211.92 165.488 212.014 165.419 212.083C165.349 212.153 165.255 212.192 165.157 212.192Z" fill="#B16668"/>
<path d="M165.483 184.942L174.157 192.712L165.483 190.69V184.942Z" fill="#BA68C8"/>
<path d="M248.61 37.8647L253.054 40.4275C253.03 40.2333 253.018 40.0379 253.017 39.8423V38.5535C253.017 36.2648 254.624 35.3316 256.609 36.4796C257.462 37.004 258.193 37.7064 258.75 38.5387C259.076 35.6575 261.335 34.5835 264.083 36.1685C265.649 37.1866 266.953 38.5608 267.888 40.1788C268.822 41.7969 269.361 43.613 269.46 45.4789V47.4121C269.477 48.1772 269.323 48.9365 269.008 49.6341L272.712 51.7673C273.292 52.1448 273.775 52.6542 274.122 53.2541C274.468 53.854 274.668 54.5272 274.704 55.2189C274.704 56.4855 273.815 57.0039 272.712 56.3669L248.61 42.4643C248.031 42.0856 247.551 41.5756 247.207 40.9757C246.863 40.3759 246.666 39.7032 246.632 39.0128C246.632 37.7462 247.506 37.2129 248.61 37.8647Z" fill="#EBEBEB"/>
<path d="M277.993 26.0583L280.444 26.999V21.5994C280.444 17.3108 283.859 16.2887 287.57 18.4293C291.273 20.5698 294.288 25.7768 294.288 30.058V30.8431C294.81 30.6819 295.362 30.6414 295.902 30.7248C296.443 30.8082 296.957 31.0133 297.406 31.3246C298.812 32.2419 299.982 33.4778 300.821 34.932C301.66 36.3863 302.145 38.0178 302.235 39.6943V40.0498L305.657 42.0274C306.586 42.6298 307.359 43.4429 307.913 44.4005C308.468 45.3581 308.789 46.4331 308.85 47.5381C308.85 49.5676 307.427 50.3897 305.672 49.375L277.993 33.4059C277.067 32.8018 276.297 31.988 275.745 31.0306C275.193 30.0731 274.874 28.9989 274.815 27.8952C274.815 25.8657 276.26 25.0436 277.993 26.0583Z" fill="#EBEBEB"/>
<path d="M62.2614 213.703C59.5658 212.202 56.7663 210.895 53.8843 209.792C50.8401 208.711 51.6623 207.615 53.5658 207.022C55.9931 206.467 58.4934 206.302 60.9727 206.533C68.0906 207.178 70.72 208.496 70.72 208.496C70.72 208.496 75.653 204.511 81.7858 203.926C84.1486 203.704 87.2447 203.667 86.7632 204.882C86.1411 206.422 82.7117 207.711 79.8378 211.607C81.1637 212.252 86.504 213.755 91.4443 216.592C96.6291 219.555 94.2219 220.821 90.3555 220.747C86.8077 220.673 79.2453 220.866 79.2453 220.866C79.2453 220.866 80.1415 224.125 81.0674 229.443C81.8081 233.642 77.5714 230.732 75.3567 228.265C72.1866 224.747 68.9942 220.858 68.9942 220.858C68.9942 220.858 63.2614 221.843 57.0989 223.502C52.6548 224.695 49.2032 226.058 51.9956 221.532C54.788 217.007 62.2614 213.703 62.2614 213.703Z" fill="#F28F8F"/>
<path d="M75.5719 226.325C73.9275 224.436 69.7575 218.414 69.7575 218.414C69.7575 218.414 57.9584 221.703 55.0105 222.569C52.0626 223.436 51.196 223.095 51.5219 222.377C49.6702 225.902 53.0033 224.643 57.0992 223.532C63.2617 221.873 68.9946 220.888 68.9946 220.888C68.9946 220.888 72.1869 224.769 75.3571 228.295C77.0014 230.132 79.7567 232.198 80.764 231.42C79.0234 231.317 77.2236 228.213 75.5719 226.325Z" fill="#B16668"/>
<path d="M94.3777 219.695C93.3926 220.318 91.9853 220.081 88.3115 219.651C84.6377 219.221 78.6826 218.414 78.6826 218.414L79.2381 220.903C79.2381 220.903 86.8227 220.71 90.3484 220.784C92.4371 220.806 94.0518 220.466 94.3777 219.695Z" fill="#B16668"/>
<path d="M52.7957 207.341C51.5587 207.919 51.3143 208.896 53.8845 209.815C56.7659 210.91 59.5654 212.209 62.2616 213.703L64.691 212.481C64.691 212.481 61.2691 211 57.8397 209.926C54.7066 208.941 51.7513 208.244 52.7957 207.341Z" fill="#B16668"/>
<path d="M79.8604 211.629C82.7342 207.733 86.1636 206.444 86.7858 204.904C86.842 204.785 86.851 204.649 86.8112 204.524C86.7713 204.399 86.6855 204.294 86.571 204.229C86.571 204.229 87.0672 204.866 84.2971 206.052C82.2026 207.135 80.3028 208.559 78.6753 210.266C77.9939 211.118 79.8604 211.629 79.8604 211.629Z" fill="#B16668"/>
<path d="M76.6531 272.921C76.6531 272.921 63.9208 275.758 60.1729 273.788C56.4251 271.817 57.4472 268.084 59.3359 265.507C59.3359 265.507 57.3879 263.551 60.1137 259.581C60.8688 258.468 61.9489 257.614 63.2068 257.137C64.4647 256.66 65.8391 256.582 67.1427 256.915C67.1427 256.915 68.676 253.819 74.2237 254.5C78.8529 255.071 80.2676 264.403 79.3344 270.018C79.3344 270.018 83.5044 268.944 84.8895 270.018C86.2746 271.092 80.0899 272.862 80.0899 272.862C80.0899 272.862 78.016 276.928 77.0901 277.506C76.1642 278.084 76.6531 272.921 76.6531 272.921Z" fill="#BA68C8"/>
<path opacity="0.8" d="M76.6531 272.921C76.6531 272.921 63.9208 275.758 60.1729 273.788C56.4251 271.817 57.4472 268.084 59.3359 265.507C59.3359 265.507 57.3879 263.551 60.1137 259.581C60.8688 258.468 61.9489 257.614 63.2068 257.137C64.4647 256.66 65.8391 256.582 67.1427 256.915C67.1427 256.915 68.676 253.819 74.2237 254.5C78.8529 255.071 80.2676 264.403 79.3344 270.018C79.3344 270.018 83.5044 268.944 84.8895 270.018C86.2746 271.092 80.0899 272.862 80.0899 272.862C80.0899 272.862 78.016 276.928 77.0901 277.506C76.1642 278.084 76.6531 272.921 76.6531 272.921Z" fill="#FAFAFA"/>
<path opacity="0.1" d="M64.6836 273.143C59.8321 272.647 58.0693 270.699 57.7211 269.121C57.537 270.062 57.6797 271.037 58.1256 271.886C58.5714 272.734 59.2937 273.405 60.1728 273.787C63.9207 275.758 76.653 272.921 76.653 272.921C76.5597 273.945 76.5201 274.974 76.5345 276.002C76.6623 274.7 76.9586 273.42 77.4159 272.195C77.4159 272.195 70.2387 273.706 64.6836 273.143Z" fill="black"/>
<path opacity="0.1" d="M59.336 265.507C59.336 265.507 64.306 264.566 71.3647 268.47C68.9976 266.542 66.2367 265.156 63.2764 264.411C58.2472 263.107 60.1137 259.589 60.1137 259.589C57.388 263.552 59.336 265.507 59.336 265.507Z" fill="black"/>
<path opacity="0.1" d="M76.4902 266.292C73.6608 259.359 69.8241 257.33 70.4685 256.152C71.3647 254.426 74.2238 254.523 74.2238 254.523C68.676 253.841 67.1428 256.937 67.1428 256.937C73.3127 259.515 76.4902 266.292 76.4902 266.292Z" fill="black"/>
</svg>
