<svg width="1000" height="1000" viewBox="0 0 1000 1000" fill="none" xmlns="http://www.w3.org/2000/svg">
<path d="M573.875 107H426.111C386.869 107 355.056 138.814 355.056 178.056V239.26H397.043V178.056C397.043 162.068 410.124 148.987 426.111 148.987H573.875C589.862 148.987 602.943 162.068 602.943 178.056V239.26H644.93V178.056C644.93 138.814 613.117 107 573.875 107Z" fill="#31BBD9"/>
<path opacity="0.5" d="M398.495 184.031H355.377V205.025H398.495V184.031Z" fill="#72CAD7"/>
<path opacity="0.5" d="M644.931 184.031H601.813V205.025H644.931V184.031Z" fill="#72CAD7"/>
<path opacity="0.46" d="M573.875 107H426.111C386.869 107 355.056 138.814 355.056 178.056V193.074C355.056 153.832 386.869 122.019 426.111 122.019H573.875C613.117 122.019 644.93 153.832 644.93 193.074V178.056C644.93 138.814 613.117 107 573.875 107Z" fill="#438BBF"/>
<path d="M573.875 107H426.111C386.869 107 355.056 138.814 355.056 178.056V239.26H397.043V178.056C397.043 162.068 410.124 148.987 426.111 148.987H573.875C589.862 148.987 602.943 162.068 602.943 178.056V239.26H644.93V178.056C644.93 138.814 613.117 107 573.875 107Z" stroke="#013711" stroke-width="10" stroke-miterlimit="10" stroke-linecap="round" stroke-linejoin="round"/>
<path d="M281.093 817.394H240.074C207.776 817.394 180.807 792.363 178.708 760.227C172.894 671.73 182.261 602.613 201.64 549.16C212.136 520.253 253.316 520.253 263.813 549.16C287.229 613.594 295.95 700.799 281.093 817.394Z" fill="#31BBD9"/>
<path opacity="0.2" d="M267.044 549.159C258.808 526.227 231.194 521.544 214.883 534.947L219.566 722.276C220.212 748.114 208.585 771.369 190.014 786.549C200.672 805.12 220.697 817.555 243.467 817.555H284.485C299.181 700.798 290.46 613.593 267.044 549.159Z" fill="#31BBD9"/>
<path d="M281.093 817.394H240.074C207.776 817.394 180.807 792.363 178.708 760.227C172.894 671.73 182.261 602.613 201.64 549.16C212.136 520.253 253.316 520.253 263.813 549.16C287.229 613.594 295.95 700.799 281.093 817.394Z" stroke="#013711" stroke-width="10" stroke-miterlimit="10" stroke-linecap="round" stroke-linejoin="round"/>
<path d="M718.891 806.251H759.91C792.208 806.251 819.177 781.22 821.276 749.083C827.09 660.587 817.723 591.469 798.344 538.016C787.848 509.109 746.668 509.109 736.171 538.016C712.755 602.45 704.196 689.655 718.891 806.251Z" fill="#31BBD9"/>
<path opacity="0.2" d="M780.581 709.196L785.103 523.644C768.792 510.24 741.177 514.923 732.941 537.855C709.525 602.451 700.966 689.655 715.662 806.251H756.68C779.935 806.251 800.444 793.332 810.78 773.953C791.885 758.773 779.935 735.357 780.581 709.196Z" fill="#31BBD9"/>
<path d="M718.891 806.251H759.91C792.208 806.251 819.177 781.22 821.276 749.083C827.09 660.587 817.723 591.469 798.344 538.016C787.848 509.109 746.668 509.109 736.171 538.016C712.755 602.45 704.196 689.655 718.891 806.251Z" stroke="#013711" stroke-width="10" stroke-miterlimit="10" stroke-linecap="round" stroke-linejoin="round"/>
<path d="M676.419 893.455H323.725C284.968 893.455 252.67 863.903 249.117 825.307C237.167 696.276 237.167 566.277 249.117 437.246C252.67 398.65 284.968 369.098 323.725 369.098H676.419C715.177 369.098 747.475 398.65 751.028 437.246C762.978 566.277 762.978 696.276 751.028 825.307C747.313 863.903 715.177 893.455 676.419 893.455Z" fill="#72CAD7"/>
<path opacity="0.29" d="M751.028 802.86C747.475 841.456 715.177 871.009 676.419 871.009H323.725C284.968 871.009 252.67 841.456 249.117 802.86C243.465 741.979 240.558 681.097 240.235 620.054C239.912 688.525 242.819 756.997 249.117 825.307C252.67 863.903 284.968 893.456 323.725 893.456H676.419C715.177 893.456 747.475 863.903 751.028 825.307C757.326 756.997 760.394 688.525 759.91 620.054C759.587 680.935 756.68 741.979 751.028 802.86Z" fill="#31BBD9"/>
<path opacity="0.5" d="M500.073 769.593C529.238 769.593 552.88 755.06 552.88 737.133C552.88 719.206 529.238 704.674 500.073 704.674C470.908 704.674 447.266 719.206 447.266 737.133C447.266 755.06 470.908 769.593 500.073 769.593Z" stroke="#72CAD7" stroke-width="8" stroke-miterlimit="10"/>
<path opacity="0.5" d="M295.627 637.655C363.453 641.208 432.086 642.985 500.074 642.985C567.899 642.985 636.694 641.208 704.52 637.655C725.352 636.525 744.408 628.612 760.072 615.693C759.426 557.718 756.52 499.905 751.19 442.091C747.638 403.495 715.34 373.942 676.582 373.942H323.727C284.969 373.942 252.671 403.495 249.118 442.091C243.789 499.905 240.721 557.718 240.236 615.693C255.739 628.612 274.795 636.525 295.627 637.655Z" fill="#72CAD7"/>
<path d="M323.726 871.009C296.434 871.009 273.987 850.5 271.403 823.208C259.614 695.793 259.614 566.601 271.403 439.347C273.987 412.055 296.434 391.546 323.726 391.546H676.42C703.712 391.546 726.159 412.055 728.743 439.347C740.531 566.762 740.531 695.954 728.743 823.208C726.159 850.5 703.712 871.009 676.42 871.009H323.726Z" stroke="#013711" stroke-width="4" stroke-linecap="round" stroke-linejoin="round" stroke-dasharray="4.01 4.01"/>
<path d="M676.419 893.455H323.725C284.968 893.455 252.67 863.903 249.117 825.307C237.167 696.276 237.167 566.277 249.117 437.246C252.67 398.65 284.968 369.098 323.725 369.098H676.419C715.177 369.098 747.475 398.65 751.028 437.246C762.978 566.277 762.978 696.276 751.028 825.307C747.313 863.903 715.177 893.455 676.419 893.455Z" stroke="#013711" stroke-miterlimit="10"/>
<path d="M676.419 893.455H323.725C284.968 893.455 252.67 863.903 249.117 825.307C237.167 696.276 237.167 566.277 249.117 437.246C252.67 398.65 284.968 369.098 323.725 369.098H676.419C715.177 369.098 747.475 398.65 751.028 437.246C762.978 566.277 762.978 696.276 751.028 825.307C747.313 863.903 715.177 893.455 676.419 893.455Z" stroke="#013711" stroke-width="10" stroke-miterlimit="10" stroke-linecap="round" stroke-linejoin="round"/>
<path d="M703.549 616.661C567.898 623.605 432.085 623.605 296.433 616.661C249.601 614.239 213.912 569.991 214.396 516.053C215.042 441.929 217.788 369.259 222.632 297.88C226.024 247.657 262.843 207.607 307.415 205.347C435.799 199.049 564.345 199.049 692.73 205.347C737.301 207.446 774.121 247.657 777.512 297.88C782.357 369.259 785.102 441.768 785.748 516.053C786.071 569.991 750.382 614.239 703.549 616.661Z" fill="#438BBF"/>
<path opacity="0.41" d="M703.551 602.128C567.899 609.072 432.086 609.072 296.435 602.128C251.379 599.867 216.659 558.849 214.398 507.656C214.398 511.048 214.236 514.439 214.236 517.669C213.752 571.768 249.441 615.854 296.273 618.277C431.925 625.221 567.738 625.221 703.389 618.277C750.221 615.854 785.911 571.606 785.426 517.669C785.426 514.277 785.265 510.886 785.265 507.656C783.327 558.849 748.607 599.705 703.551 602.128Z" fill="#013711"/>
<path opacity="0.65" d="M225.057 529.457C225.703 455.979 228.287 384.116 232.97 313.545C236.2 263.806 271.727 224.08 314.522 221.98C438.062 215.844 561.763 215.844 685.303 221.98C728.098 224.08 763.626 263.806 766.855 313.545C771.539 384.278 774.123 456.141 774.768 529.457C774.93 548.352 770.731 566.115 763.141 581.134C777.191 563.209 785.588 539.147 785.427 512.824C784.781 438.7 782.036 366.029 777.191 294.651C773.8 244.428 736.98 204.378 692.409 202.117C564.024 195.819 435.478 195.819 307.094 202.117C262.522 204.217 225.703 244.428 222.311 294.651C217.467 366.029 214.721 438.538 214.076 512.824C213.914 539.147 222.311 563.209 236.361 581.134C229.094 565.954 224.895 548.352 225.057 529.457Z" fill="#438BBF"/>
<path opacity="0.41" d="M552.72 421.098C517.354 421.582 482.149 421.421 446.783 421.098C403.503 420.452 368.46 387.185 368.46 347.943C368.46 337.608 368.46 327.272 368.46 316.775C368.46 304.664 379.118 294.651 392.36 294.328C464.062 292.713 535.925 292.713 607.788 294.328C621.03 294.651 631.689 304.502 631.689 316.775V347.297C631.689 386.701 596.161 420.452 552.72 421.098Z" stroke="#013711" stroke-width="10" stroke-miterlimit="10" stroke-linecap="round" stroke-linejoin="round"/>
<path d="M703.549 616.661C567.898 623.605 432.085 623.605 296.433 616.661C249.601 614.239 213.912 569.991 214.396 516.053C215.042 441.929 217.788 369.259 222.632 297.88C226.024 247.657 262.843 207.607 307.415 205.347C435.799 199.049 564.345 199.049 692.73 205.347C737.301 207.446 774.121 247.657 777.512 297.88C782.357 369.259 785.102 441.768 785.748 516.053C786.071 569.991 750.382 614.239 703.549 616.661Z" stroke="#013711" stroke-width="10" stroke-miterlimit="10" stroke-linecap="round" stroke-linejoin="round"/>
<path d="M500.073 599.384C432.893 599.384 364.744 597.607 297.726 594.216C263.329 592.44 236.683 558.204 237.006 516.217C237.652 443.223 240.397 370.23 245.242 299.336C247.826 260.739 275.763 229.41 308.707 227.796C372.173 224.727 436.769 223.112 500.234 223.112C563.861 223.112 628.296 224.727 691.761 227.796C724.705 229.41 752.643 260.901 755.227 299.336C760.072 370.23 762.817 443.223 763.463 516.217C763.786 558.204 737.14 592.44 702.743 594.216C635.24 597.607 567.253 599.384 500.073 599.384Z" stroke="#013711" stroke-width="4" stroke-linecap="round" stroke-linejoin="round" stroke-dasharray="4 4"/>
<path d="M552.72 408.179C517.354 408.663 482.149 408.502 446.783 408.179C403.503 407.533 368.46 374.266 368.46 335.024C368.46 324.689 368.46 314.353 368.46 303.857C368.46 291.745 379.118 281.732 392.361 281.409C464.062 279.795 535.925 279.795 607.788 281.409C621.03 281.732 631.689 291.583 631.689 303.857V334.378C631.689 373.782 596.161 407.533 552.72 408.179Z" fill="#72CAD7"/>
<path opacity="0.43" d="M552.72 380.564C517.354 381.049 482.149 380.887 446.783 380.564C403.503 379.918 368.46 346.651 368.46 307.409C368.46 306.279 368.46 304.987 368.46 303.856C368.46 314.192 368.46 324.527 368.46 335.024C368.46 374.266 403.503 407.533 446.783 408.179C482.149 408.663 517.354 408.663 552.72 408.179C596.161 407.533 631.689 373.782 631.689 334.378V306.763C631.689 346.167 596.161 379.918 552.72 380.564Z" fill="#72CAD7"/>
<path opacity="0.7" d="M607.624 281.409C535.922 279.795 464.059 279.795 392.196 281.409C378.954 281.732 368.296 291.583 368.296 303.857C368.296 308.217 368.296 312.415 368.296 316.776C368.296 304.664 378.954 294.652 392.196 294.329C463.898 292.714 535.761 292.714 607.624 294.329C620.866 294.652 631.524 304.502 631.524 316.776V303.857C631.686 291.583 621.028 281.732 607.624 281.409Z" fill="#72CAD7"/>
<path d="M552.72 408.179C517.354 408.663 482.149 408.502 446.783 408.179C403.503 407.533 368.46 374.266 368.46 335.024C368.46 324.689 368.46 314.353 368.46 303.857C368.46 291.745 379.118 281.732 392.36 281.409C464.062 279.795 535.925 279.795 607.788 281.409C621.03 281.732 631.689 291.583 631.689 303.857V334.378C631.689 373.782 596.161 407.533 552.72 408.179Z" stroke="#013711" stroke-width="10" stroke-miterlimit="10" stroke-linecap="round" stroke-linejoin="round"/>
<path d="M552.72 408.179C517.354 408.663 482.149 408.502 446.783 408.179C403.503 407.533 368.46 374.266 368.46 335.024C368.46 324.689 368.46 314.353 368.46 303.857C368.46 291.745 379.118 281.732 392.36 281.409C464.062 279.795 535.925 279.795 607.788 281.409C621.03 281.732 631.689 291.583 631.689 303.857V334.378C631.689 373.782 596.161 407.533 552.72 408.179Z" stroke="#013711" stroke-width="10" stroke-miterlimit="10" stroke-linecap="round" stroke-linejoin="round"/>
<g opacity="0.41">
<path opacity="0.41" d="M398.174 603.743H322.112C319.205 603.743 316.46 602.128 315.007 599.544L291.429 555.619C275.603 526.389 281.74 492.153 307.094 468.414L341.007 436.762C351.342 427.073 368.783 427.234 379.118 436.762L413.031 468.576C438.385 492.315 444.522 526.389 428.696 555.619L405.28 599.544C403.826 602.128 401.081 603.743 398.174 603.743ZM326.957 587.594H393.329L414.646 548.029C426.919 525.582 421.913 499.097 402.05 480.526L368.137 448.713C364.1 444.998 356.187 444.837 352.149 448.713L318.236 480.365C298.373 498.936 293.367 525.582 305.64 548.029L326.957 587.594Z" fill="#013711"/>
</g>
<g opacity="0.41">
<path opacity="0.41" d="M359.414 805.766C342.619 805.766 328.893 792.04 328.893 775.245V514.923C328.893 510.401 332.445 506.849 336.967 506.849H381.861C386.383 506.849 389.936 510.401 389.936 514.923V775.245C389.936 792.04 376.209 805.766 359.414 805.766ZM345.042 522.998V775.245C345.042 783.158 351.501 789.617 359.414 789.617C367.327 789.617 373.787 783.158 373.787 775.245V522.998H345.042Z" fill="#013711"/>
</g>
<path d="M325.665 584.364H394.783L416.261 542.539C429.019 517.992 424.012 489.085 403.342 468.899L372.497 438.539C366.037 432.079 354.41 432.079 347.951 438.539L317.106 468.576C296.597 488.762 291.591 517.992 304.187 542.539L325.665 584.364Z" fill="#72CAD7"/>
<path d="M322.112 584.365H398.174L421.751 540.439C435.801 514.762 430.149 484.402 407.54 463.247L373.627 431.434C366.521 424.651 353.764 424.651 346.658 431.434L312.745 463.086C290.137 484.241 284.646 514.762 298.534 540.601L322.112 584.365Z" stroke="#013711" stroke-width="10" stroke-miterlimit="10" stroke-linecap="round" stroke-linejoin="round"/>
<path d="M334.22 568.216H331.797L330.667 566.116" stroke="#013711" stroke-width="3" stroke-linecap="round" stroke-linejoin="round"/>
<path d="M325.338 556.104L312.903 532.849C302.407 513.632 306.767 490.862 323.885 474.874L357.798 443.222C358.121 442.899 358.928 442.576 360.22 442.576C361.512 442.576 362.481 443.061 362.804 443.222L396.717 475.036C413.996 491.185 418.195 513.309 407.698 532.849L392.518 561.11" stroke="#013711" stroke-width="3" stroke-linecap="round" stroke-linejoin="round" stroke-dasharray="2.99 2.99"/>
<path d="M389.612 566.116L388.482 568.216H386.06" stroke="#013711" stroke-width="3" stroke-linecap="round" stroke-linejoin="round"/>
<path d="M376.209 568.215H339.228" stroke="#013711" stroke-width="3" stroke-linecap="round" stroke-linejoin="round" stroke-dasharray="2.6 2.6"/>
<path d="M359.576 787.681C347.141 787.681 337.129 777.669 337.129 765.234V504.912H382.023V765.234C382.185 777.669 372.011 787.681 359.576 787.681Z" fill="#F9941C"/>
<path opacity="0.37" d="M359.576 772.662C347.141 772.662 337.129 762.65 337.129 750.215V765.233C337.129 777.668 347.141 787.681 359.576 787.681C372.011 787.681 382.023 777.668 382.023 765.233V750.215C382.185 762.65 372.011 772.662 359.576 772.662Z" fill="#F9941C"/>
<path opacity="0.37" d="M382.023 639.109H337.129V675.445H382.023V639.109Z" fill="#F9941C"/>
<path d="M359.576 787.681C347.141 787.681 337.129 777.669 337.129 765.234V504.912H382.023V765.234C382.185 777.669 372.011 787.681 359.576 787.681Z" stroke="#013711" stroke-width="8" stroke-miterlimit="10" stroke-linecap="round" stroke-linejoin="round"/>
<path d="M337.129 672.216V639.111H382.024V672.216H400.756V629.421C400.756 624.415 396.719 620.378 391.713 620.378H327.44C322.434 620.378 318.396 624.415 318.396 629.421V672.216H337.129Z" fill="white"/>
<path d="M337.129 672.215V639.109H382.023V672.215H400.756V635.395C400.756 627.159 394.135 620.538 385.899 620.538H333.415C325.179 620.538 318.558 627.159 318.558 635.395V672.215H337.129Z" stroke="#013711" stroke-width="8" stroke-miterlimit="10" stroke-linecap="round" stroke-linejoin="round"/>
<path d="M367.005 522.676L352.148 537.533" stroke="#013711" stroke-width="4" stroke-miterlimit="10" stroke-linecap="round" stroke-linejoin="round"/>
<path d="M367.005 537.533L352.148 522.676" stroke="#013711" stroke-width="4" stroke-miterlimit="10" stroke-linecap="round" stroke-linejoin="round"/>
<path d="M359.416 678.674C363.518 678.674 366.844 675.349 366.844 671.246C366.844 667.144 363.518 663.817 359.416 663.817C355.312 663.817 351.987 667.144 351.987 671.246C351.987 675.349 355.312 678.674 359.416 678.674Z" fill="white"/>
<path d="M359.416 675.445C363.518 675.445 366.844 672.12 366.844 668.016C366.844 663.915 363.518 660.588 359.416 660.588C355.312 660.588 351.987 663.915 351.987 668.016C351.987 672.12 355.312 675.445 359.416 675.445Z" stroke="#013711" stroke-width="4" stroke-miterlimit="10" stroke-linecap="round" stroke-linejoin="round"/>
<path d="M359.416 704.512C363.518 704.512 366.844 701.187 366.844 697.084C366.844 692.982 363.518 689.655 359.416 689.655C355.312 689.655 351.987 692.982 351.987 697.084C351.987 701.187 355.312 704.512 359.416 704.512Z" fill="white"/>
<path d="M359.416 704.512C363.518 704.512 366.844 701.187 366.844 697.084C366.844 692.982 363.518 689.655 359.416 689.655C355.312 689.655 351.987 692.982 351.987 697.084C351.987 701.187 355.312 704.512 359.416 704.512Z" stroke="#013711" stroke-width="4" stroke-miterlimit="10" stroke-linecap="round" stroke-linejoin="round"/>
<path d="M359.416 737.295C363.518 737.295 366.844 733.97 366.844 729.866C366.844 725.764 363.518 722.438 359.416 722.438C355.312 722.438 351.987 725.764 351.987 729.866C351.987 733.97 355.312 737.295 359.416 737.295Z" fill="white"/>
<path d="M359.416 737.295C363.518 737.295 366.844 733.97 366.844 729.866C366.844 725.764 363.518 722.438 359.416 722.438C355.312 722.438 351.987 725.764 351.987 729.866C351.987 733.97 355.312 737.295 359.416 737.295Z" stroke="#013711" stroke-width="4" stroke-miterlimit="10" stroke-linecap="round" stroke-linejoin="round"/>
<path d="M359.415 672.215C356.346 672.215 353.924 669.793 353.924 666.725V619.247C353.924 616.178 356.346 613.756 359.415 613.756C362.483 613.756 364.905 616.178 364.905 619.247V666.725C364.905 669.793 362.483 672.215 359.415 672.215Z" fill="white"/>
<path d="M359.415 672.215C356.346 672.215 353.924 669.793 353.924 666.725V619.247C353.924 616.178 356.346 613.756 359.415 613.756C362.483 613.756 364.905 616.178 364.905 619.247V666.725C364.905 669.793 362.483 672.215 359.415 672.215Z" stroke="#013711" stroke-width="4" stroke-miterlimit="10" stroke-linecap="round" stroke-linejoin="round"/>
<g opacity="0.41">
<path opacity="0.41" d="M677.874 605.358H601.812C598.906 605.358 596.16 603.743 594.707 601.159L571.129 557.234C555.303 528.004 561.44 493.769 586.794 470.03L620.707 438.378C631.042 428.688 648.483 428.85 658.818 438.378L692.731 470.191C718.085 493.93 724.222 528.004 708.396 557.234L684.98 601.159C683.526 603.743 680.781 605.358 677.874 605.358ZM606.657 589.209H673.03L694.346 549.644C706.619 527.197 701.613 500.713 681.75 482.141L647.837 450.328C643.8 446.613 635.887 446.452 631.85 450.328L597.937 481.98C578.073 500.551 573.067 527.197 585.34 549.644L606.657 589.209Z" fill="#013711"/>
</g>
<path d="M605.205 584.364H674.323L695.801 542.539C708.559 517.992 703.552 489.085 682.882 468.899L652.037 438.539C645.578 432.079 633.95 432.079 627.491 438.539L596.646 468.738C576.137 488.924 571.131 518.154 583.727 542.7L605.205 584.364Z" fill="#72CAD7"/>
<path d="M601.813 584.365H677.875L701.452 540.439C715.502 514.762 709.85 484.402 687.241 463.247L653.328 431.434C646.223 424.651 633.465 424.651 626.359 431.434L592.446 463.086C569.838 484.241 564.347 514.762 578.235 540.601L601.813 584.365Z" stroke="#013711" stroke-width="10" stroke-miterlimit="10" stroke-linecap="round" stroke-linejoin="round"/>
<path d="M613.925 568.216H611.503L610.372 566.116" stroke="#013711" stroke-width="3" stroke-linecap="round" stroke-linejoin="round"/>
<path d="M605.043 556.104L592.609 532.849C582.112 513.632 586.472 490.862 603.59 474.874L637.503 443.222C637.826 442.899 638.633 442.576 639.925 442.576C641.217 442.576 642.186 443.061 642.509 443.222L676.422 475.036C693.701 491.185 697.9 513.309 687.403 532.849L672.223 561.11" stroke="#013711" stroke-width="3" stroke-linecap="round" stroke-linejoin="round" stroke-dasharray="2.99 2.99"/>
<path d="M669.317 566.116L668.187 568.216H665.765" stroke="#013711" stroke-width="3" stroke-linecap="round" stroke-linejoin="round"/>
<path d="M655.911 568.215H618.769" stroke="#013711" stroke-width="3" stroke-linecap="round" stroke-linejoin="round" stroke-dasharray="2.6 2.6"/>
<g opacity="0.41">
<path opacity="0.41" d="M639.276 805.445C622.481 805.445 608.754 791.719 608.754 774.924V514.602C608.754 510.08 612.307 506.527 616.828 506.527H661.723C666.244 506.527 669.797 510.08 669.797 514.602V774.924C669.797 791.719 656.07 805.445 639.276 805.445ZM624.903 522.676V774.924C624.903 782.837 631.363 789.296 639.276 789.296C647.189 789.296 653.648 782.837 653.648 774.924V522.676H624.903Z" fill="#013711"/>
</g>
<path d="M639.276 787.681C626.842 787.681 616.829 777.669 616.829 765.234V504.912H661.723V765.234C661.723 777.669 651.711 787.681 639.276 787.681Z" fill="#F9941C"/>
<path opacity="0.37" d="M639.276 772.178C626.842 772.178 616.829 762.165 616.829 749.73V766.848C616.829 779.283 626.842 789.296 639.276 789.296C651.711 789.296 661.723 779.283 661.723 766.848V749.73C661.723 762.004 651.711 772.178 639.276 772.178Z" fill="#F9941C"/>
<path opacity="0.37" d="M661.563 639.109H616.669V675.445H661.563V639.109Z" fill="#F9941C"/>
<path d="M639.276 787.681C626.842 787.681 616.829 777.669 616.829 765.234V504.912H661.723V765.234C661.723 777.669 651.711 787.681 639.276 787.681Z" stroke="#013711" stroke-width="8" stroke-miterlimit="10" stroke-linecap="round" stroke-linejoin="round"/>
<path d="M616.83 672.216V639.111H661.725V672.216H680.458V629.421C680.458 624.415 676.42 620.378 671.414 620.378H607.141C602.135 620.378 598.098 624.415 598.098 629.421V672.216H616.83Z" fill="white"/>
<path d="M616.829 672.215V639.109H661.723V672.215H680.456V635.395C680.456 627.159 673.835 620.538 665.599 620.538H613.115C604.879 620.538 598.258 627.159 598.258 635.395V672.215H616.829Z" stroke="#013711" stroke-width="8" stroke-miterlimit="10" stroke-linecap="round" stroke-linejoin="round"/>
<path d="M646.707 522.676L631.85 537.533" stroke="#013711" stroke-width="4" stroke-miterlimit="10" stroke-linecap="round" stroke-linejoin="round"/>
<path d="M646.707 537.533L631.85 522.676" stroke="#013711" stroke-width="4" stroke-miterlimit="10" stroke-linecap="round" stroke-linejoin="round"/>
<path d="M639.117 678.674C643.219 678.674 646.546 675.349 646.546 671.246C646.546 667.144 643.219 663.817 639.117 663.817C635.014 663.817 631.688 667.144 631.688 671.246C631.688 675.349 635.014 678.674 639.117 678.674Z" fill="white"/>
<path d="M639.117 675.445C643.219 675.445 646.546 672.12 646.546 668.016C646.546 663.915 643.219 660.588 639.117 660.588C635.014 660.588 631.688 663.915 631.688 668.016C631.688 672.12 635.014 675.445 639.117 675.445Z" stroke="#013711" stroke-width="4" stroke-miterlimit="10" stroke-linecap="round" stroke-linejoin="round"/>
<path d="M639.117 704.513C643.219 704.513 646.546 701.188 646.546 697.085C646.546 692.983 643.219 689.656 639.117 689.656C635.014 689.656 631.688 692.983 631.688 697.085C631.688 701.188 635.014 704.513 639.117 704.513Z" fill="white"/>
<path d="M639.117 704.513C643.219 704.513 646.546 701.188 646.546 697.085C646.546 692.983 643.219 689.656 639.117 689.656C635.014 689.656 631.688 692.983 631.688 697.085C631.688 701.188 635.014 704.513 639.117 704.513Z" stroke="#013711" stroke-width="4" stroke-miterlimit="10" stroke-linecap="round" stroke-linejoin="round"/>
<path d="M639.117 737.296C643.219 737.296 646.546 733.971 646.546 729.867C646.546 725.765 643.219 722.438 639.117 722.438C635.014 722.438 631.688 725.765 631.688 729.867C631.688 733.971 635.014 737.296 639.117 737.296Z" fill="white"/>
<path d="M639.117 737.296C643.219 737.296 646.546 733.971 646.546 729.867C646.546 725.765 643.219 722.438 639.117 722.438C635.014 722.438 631.688 725.765 631.688 729.867C631.688 733.971 635.014 737.296 639.117 737.296Z" stroke="#013711" stroke-width="4" stroke-miterlimit="10" stroke-linecap="round" stroke-linejoin="round"/>
<path d="M639.116 672.215C636.047 672.215 633.625 669.793 633.625 666.725V619.247C633.625 616.178 636.047 613.756 639.116 613.756C642.184 613.756 644.606 616.178 644.606 619.247V666.725C644.606 669.793 642.184 672.215 639.116 672.215Z" fill="white"/>
<path d="M639.116 672.215C636.047 672.215 633.625 669.793 633.625 666.725V619.247C633.625 616.178 636.047 613.756 639.116 613.756C642.184 613.756 644.606 616.178 644.606 619.247V666.725C644.606 669.793 642.184 672.215 639.116 672.215Z" stroke="#013711" stroke-width="4" stroke-miterlimit="10" stroke-linecap="round" stroke-linejoin="round"/>
<path d="M368.296 325.012H627.972" stroke="#013711" stroke-width="9" stroke-miterlimit="10" stroke-linejoin="round" stroke-dasharray="5 5"/>
</svg>
