<svg width="261" height="240" viewBox="0 0 261 240" fill="none" xmlns="http://www.w3.org/2000/svg">
<path d="M214.983 13.439C215.221 17.3437 215.054 21.2626 214.483 25.1326C213.925 29.9095 212.856 34.6127 211.293 39.1609C209.001 44.6846 192.534 48.6242 192.534 48.6242C194.488 40.8931 195.115 32.8862 194.389 24.9451C194.201 22.8606 193.93 20.943 193.555 19.0045C192.736 14.5865 191.334 10.2968 189.386 6.24772C187.302 2.18309 205.019 -1.152 212.523 6.60207C214.044 8.56416 214.905 10.9575 214.983 13.439Z" fill="#BF7335"/>
<path opacity="0.4" d="M214.983 13.439C215.221 17.3437 215.054 21.2626 214.483 25.1326C213.925 29.9095 212.856 34.6127 211.293 39.1609C209.001 44.6846 192.534 48.6242 192.534 48.6242C194.488 40.8931 195.115 32.8862 194.389 24.9451C194.201 22.8606 193.93 20.943 193.555 19.0045C192.736 14.5865 191.334 10.2968 189.386 6.24772C187.302 2.18309 205.019 -1.152 212.523 6.60207C214.044 8.56416 214.905 10.9575 214.983 13.439Z" fill="black"/>
<path opacity="0.2" d="M214.483 25.1342C213.926 29.9111 212.857 34.6142 211.294 39.1625C209.001 44.6862 192.534 48.6258 192.534 48.6258C194.489 40.8946 195.116 32.8878 194.389 24.9466C194.202 22.8622 193.931 20.9446 193.556 19.006C201.101 18.0055 208.167 20.882 214.483 25.1342Z" fill="black"/>
<path d="M42.9758 196.073C42.6423 196.553 42.4129 197.074 42.1002 197.533C41.6843 198.032 41.2239 198.492 40.7246 198.908C39.9827 199.554 39.2863 200.251 38.6401 200.993C38.5378 201.163 38.4964 201.363 38.523 201.56C38.5495 201.757 38.6423 201.939 38.7861 202.077C39.995 203.223 41.7876 202.181 42.6422 201.118C43.1079 200.497 43.4414 199.788 43.6219 199.033C43.9317 198.22 44.1009 197.36 44.1222 196.49C44.1401 196.35 44.1096 196.207 44.0357 196.086C43.9618 195.965 43.8489 195.872 43.7156 195.824C43.5822 195.775 43.4363 195.774 43.3019 195.819C43.1674 195.864 43.0525 195.954 42.9758 196.073Z" fill="#EBEBEB"/>
<path d="M40.2654 193.679C39.7704 194.45 39.1744 195.151 38.4936 195.764C37.8474 196.347 37.243 196.993 36.5759 197.535C36.4816 197.631 36.4103 197.747 36.3678 197.874C36.3253 198.001 36.3127 198.136 36.3308 198.269C36.3489 198.402 36.3974 198.529 36.4724 198.641C36.5474 198.752 36.647 198.844 36.7635 198.911C37.8682 199.578 39.3899 198.369 40.2028 197.681C40.7259 197.256 41.1593 196.731 41.4777 196.137C41.7962 195.543 41.9935 194.892 42.058 194.221C42.1414 193.158 40.7448 192.908 40.2654 193.679Z" fill="#EBEBEB"/>
<path d="M26.6961 60.5688L26.5822 60.7914L26.8026 60.9041L26.9175 60.6848L26.6961 60.5688ZM26.6961 60.5688C26.9175 60.6848 26.9176 60.6847 26.9177 60.6845L26.9183 60.6833L26.921 60.6783L26.9315 60.6581L26.9741 60.5778C26.9905 60.5469 27.0104 60.5095 27.0338 60.4657C27.0645 60.4083 27.1011 60.3399 27.1437 60.2608C27.294 59.9817 27.5182 59.5692 27.8135 59.0365C28.4041 57.9711 29.279 56.4249 30.4157 54.503C32.6891 50.6592 36.0091 45.3135 40.1946 39.3073C48.5678 27.2916 60.3951 12.6467 74.2266 2.09102L178.401 14.3987L178.362 14.6458C178.363 14.6458 178.363 14.6458 178.363 14.6458C179.298 14.791 180.737 15.3283 182.571 16.1974C184.398 17.0632 186.595 18.2476 189.038 19.6695C193.925 22.5131 199.788 26.3003 205.629 30.3725C211.47 34.4447 217.287 38.7995 222.084 42.7778C226.887 46.7621 230.645 50.3512 232.39 52.8937L232.39 52.8941C235.272 57.0751 238.34 64.1775 241.347 72.6922C244.351 81.2002 247.285 91.0959 249.905 100.848C255.147 120.355 259.125 139.263 259.883 145.311C260.639 151.339 259.743 161.262 258.35 169.957C257.654 174.3 256.835 178.326 256.041 181.395C255.643 182.929 255.253 184.219 254.889 185.188C254.707 185.672 254.532 186.072 254.369 186.379C254.203 186.692 254.059 186.889 253.944 186.988C253.835 187.081 253.602 187.194 253.219 187.312C252.846 187.426 252.361 187.536 251.776 187.641C250.607 187.851 249.06 188.036 247.262 188.191C243.668 188.502 239.085 188.692 234.537 188.733C229.99 188.773 225.484 188.663 222.043 188.373C220.321 188.228 218.874 188.038 217.824 187.803C217.298 187.684 216.882 187.557 216.584 187.422C216.272 187.281 216.143 187.156 216.107 187.076C215.841 186.475 215.902 185.867 216.176 185.244C216.453 184.613 216.941 183.984 217.5 183.363C217.779 183.055 218.071 182.752 218.36 182.456L218.45 182.364C218.707 182.1 218.959 181.84 219.19 181.589C219.696 181.04 220.139 180.489 220.288 179.971C220.339 179.793 220.313 179.553 220.258 179.3C220.201 179.034 220.101 178.707 219.965 178.329C219.691 177.571 219.263 176.585 218.705 175.432C217.588 173.125 215.945 170.133 213.968 166.923C210.017 160.51 204.712 153.204 199.575 148.78L199.414 148.642L199.252 148.777L199.412 148.969C199.252 148.777 199.252 148.778 199.252 148.778L199.251 148.778L199.248 148.78L199.238 148.789L199.197 148.823L199.037 148.956C198.896 149.073 198.687 149.246 198.417 149.468C197.878 149.912 197.095 150.553 196.121 151.343C194.173 152.922 191.46 155.094 188.401 157.464C182.281 162.206 174.789 167.73 169.272 170.889L169.271 170.89C169.158 170.955 169.058 171.069 168.969 171.192C168.875 171.321 168.775 171.486 168.669 171.681C168.457 172.073 168.212 172.605 167.941 173.254C167.397 174.555 166.736 176.346 166.006 178.469C164.544 182.715 162.794 188.303 161.121 193.975C159.447 199.646 157.849 205.405 156.69 209.995C156.111 212.29 155.64 214.294 155.325 215.851C155.167 216.629 155.048 217.298 154.973 217.836C154.899 218.368 154.866 218.791 154.889 219.069C155.055 221.035 155.79 223.571 156.487 225.977L156.535 226.142C156.892 227.376 157.237 228.573 157.492 229.652C157.749 230.734 157.911 231.679 157.911 232.409C157.911 232.416 157.908 232.452 157.842 232.521C157.775 232.59 157.664 232.67 157.497 232.759C157.164 232.936 156.661 233.118 156 233.302C154.683 233.668 152.79 234.023 150.507 234.352C145.943 235.008 139.847 235.552 133.735 235.859C127.621 236.167 121.5 236.236 116.881 235.947C114.57 235.802 112.648 235.567 111.294 235.232C110.615 235.064 110.096 234.874 109.744 234.666C109.386 234.455 109.255 234.258 109.238 234.093C109.013 231.866 109.411 229.816 109.929 227.937C110.102 227.308 110.287 226.703 110.467 226.116C110.556 225.823 110.645 225.534 110.73 225.249C110.983 224.399 111.203 223.585 111.321 222.817C111.356 222.587 111.327 222.241 111.259 221.822C111.189 221.393 111.072 220.858 110.914 220.234C110.598 218.986 110.114 217.367 109.498 215.497C108.265 211.757 106.498 207.004 104.475 202.195C102.452 197.386 100.171 192.517 97.9099 188.545C96.7792 186.559 95.651 184.793 94.56 183.371C93.4717 181.952 92.4084 180.858 91.4038 180.232C87.6029 177.866 81.2607 175.96 74.9313 174.059L74.4258 173.907C71.1692 172.929 67.9274 171.946 65.0314 170.897C62.1331 169.846 59.5972 168.734 57.7467 167.5L57.5361 167.36L57.3984 167.572L57.4311 167.594C57.3983 167.572 57.3982 167.573 57.3982 167.573L57.3976 167.574L57.3953 167.577L57.3861 167.591L57.3499 167.647L57.209 167.865C57.0855 168.056 56.9044 168.336 56.6738 168.693C56.2127 169.409 55.5537 170.433 54.7622 171.671C53.1794 174.148 51.0663 177.478 48.9459 180.894C46.8258 184.309 44.6972 187.812 43.0837 190.633C42.2772 192.043 41.5977 193.285 41.1121 194.263C40.8694 194.751 40.6734 195.177 40.534 195.525C40.3975 195.867 40.3052 196.158 40.2875 196.369C40.1678 197.794 40.9178 198.758 41.5546 199.576C41.5778 199.606 41.6008 199.636 41.6236 199.665C41.9565 200.094 42.2422 200.476 42.3992 200.883C42.5507 201.275 42.5828 201.693 42.3877 202.199C42.3556 202.283 42.274 202.392 42.1124 202.519C41.9534 202.644 41.7332 202.775 41.4515 202.905C40.8885 203.166 40.1073 203.415 39.1476 203.628C37.2302 204.054 34.6327 204.332 31.7178 204.29C25.8832 204.207 18.8233 202.848 13.4199 198.898C7.98604 194.926 4.66505 190.87 2.81071 186.322C0.955147 181.771 0.557967 176.702 1.01504 170.687C1.47236 164.669 3.51727 152.912 5.45127 142.645C6.41769 137.515 7.35548 132.761 8.05168 129.29C8.39977 127.555 8.68746 126.14 8.88811 125.159C8.98843 124.669 9.067 124.287 9.12048 124.028L9.18147 123.733L9.19707 123.657L9.20101 123.638L9.202 123.634L9.20225 123.632C9.2023 123.632 9.20233 123.632 8.95755 123.581L9.20233 123.632L9.21479 123.572L9.19811 123.513C7.74194 118.366 7.13248 113.016 7.39355 107.674C7.56313 105.835 8.30617 103.375 9.33829 100.705C10.3694 98.037 11.6811 95.1781 12.973 92.55C14.2646 89.9225 15.535 87.5287 16.4826 85.7916C16.9564 84.9231 17.3493 84.219 17.6238 83.7322C17.761 83.4888 17.8686 83.2997 17.9418 83.1715L18.0253 83.0259L18.0466 82.9888L18.0519 82.9796L18.0532 82.9773L18.0536 82.9767C18.0536 82.9766 18.0536 82.9766 18.023 82.9589L18.0537 82.9765L18.3439 82.4747L17.7797 82.6081L17.7796 82.6081L17.7787 82.6083L17.7745 82.6093L17.7568 82.6134C17.7409 82.617 17.7168 82.6223 17.6852 82.6291C17.6219 82.6427 17.5281 82.6621 17.4077 82.6851C17.1668 82.7311 16.8196 82.7912 16.3965 82.8472C15.5493 82.9592 14.403 83.054 13.2001 82.9874C10.7733 82.853 8.22976 82.0723 7.31605 79.5965L7.31589 79.596C5.93779 75.8834 5.76686 71.6456 6.69142 67.8109C7.61609 63.9757 9.63086 60.5646 12.6018 58.4814C13.5782 57.8131 14.9234 57.5993 16.4294 57.6791C17.9312 57.7587 19.5588 58.1285 21.0679 58.5905C22.5753 59.0521 23.9549 59.6027 24.9583 60.0383C25.4597 60.256 25.8666 60.4447 26.1477 60.5788C26.2882 60.6458 26.3973 60.6992 26.4711 60.7357C26.5079 60.754 26.5359 60.768 26.5546 60.7774L26.5756 60.788L26.5807 60.7906L26.582 60.7912L26.5822 60.7914L26.6961 60.5688Z" fill="#BF7335" stroke="#363A5A" stroke-width="0.5"/>
<g opacity="0.3">
<path d="M138.817 90.8574C135.024 84.6041 130.48 78.997 126.54 72.7854C126.207 72.2851 125.623 72.2643 125.936 72.7854C128.708 77.7463 131.314 82.8115 134.127 87.7516C136.941 92.6917 140.568 97.9028 141.069 103.802C142.028 115.454 133.169 123.395 125.498 130.337C125.039 130.607 125.081 130.733 125.498 130.337C134.44 125.521 143.466 116.788 143.862 106.032C144.049 100.508 141.569 95.464 138.817 90.8574Z" fill="black"/>
<path d="M133.899 46.6629C132.258 44.6683 129.989 43.2909 127.462 42.7568C124.936 42.2227 122.303 42.5637 119.996 43.7238C114.097 46.3711 111.387 52.0615 109.115 57.7937C108.969 58.1898 109.573 58.3982 109.782 58.0647C113.951 51.8114 123.226 39.1173 131.439 48.2054C134.082 51.2607 135.917 54.93 136.775 58.8776C137.651 65.652 129.688 67.0695 125.019 68.7787C124.917 68.8064 124.83 68.8735 124.777 68.9653C124.724 69.0572 124.71 69.1662 124.738 69.2685C124.765 69.3708 124.832 69.4579 124.924 69.5107C125.016 69.5635 125.125 69.5776 125.227 69.5499C129.834 68.7787 137.526 66.9652 139.256 61.9001C140.84 57.2935 136.754 50.0813 133.899 46.6629Z" fill="black"/>
<path d="M129.5 53.2931C126.79 51.8548 123.122 53.4807 121.162 55.3775C119.203 57.2743 117.264 60.401 118.598 63.0273C118.869 63.5484 119.536 63.2358 119.599 62.7772C119.599 62.7772 119.599 62.673 119.599 62.6313C121.015 61.9521 122.573 61.6232 124.143 61.6724C125.6 62.0025 126.967 62.6502 128.145 63.5693C128.222 63.6061 128.308 63.6186 128.392 63.6051C128.476 63.5916 128.553 63.5527 128.615 63.4937C128.676 63.4348 128.718 63.3585 128.734 63.2752C128.751 63.1918 128.742 63.1053 128.708 63.0273C127.145 59.7339 122.83 59.8382 119.932 61.2764C120.619 59.5791 121.664 58.0503 122.997 56.7949C124.823 55.3013 127.034 54.3547 129.375 54.0643C129.444 54.0305 129.503 53.9808 129.549 53.9193C129.594 53.8579 129.624 53.7864 129.636 53.7109C129.649 53.6354 129.643 53.5581 129.619 53.4854C129.595 53.4127 129.554 53.3468 129.5 53.2931Z" fill="black"/>
<path d="M50.417 145.714C37.7229 141.545 23.5695 139.46 14.3563 128.621C2.85026 114.989 14.3564 97.5634 18.2543 83.4102L21.6102 82.6389C22.1313 82.5139 22.0271 81.6176 21.4643 81.6801C17.5872 82.0136 11.9175 83.7645 8.74919 80.3877C5.10144 76.5524 7.4777 69.0276 9.41622 64.9213C11.8967 59.6685 15.6696 57.1047 21.2142 59.8353C24.2157 61.2735 26.9255 63.1912 30.0521 64.3793C30.3231 64.4835 30.5316 64.0667 30.3231 63.8791C26.8421 60.5023 21.4017 55.5413 16.2323 55.9374C10.7086 56.4168 8.1448 61.2735 6.37304 66.0469C4.60127 70.8202 3.01706 77.407 6.85241 81.3257C9.95821 84.4732 13.3558 84.3898 17.0036 83.6811C9.72892 96.5421 1.09936 115.719 11.1255 129.226C19.6925 140.795 36.8266 144.588 50.292 146.006C50.7922 146.026 50.8756 145.86 50.417 145.714Z" fill="black"/>
<path d="M26.6332 72.0545C24.5488 67.2603 16.0861 66.9893 13.1679 71.1165C12.8969 71.4709 13.418 72.0128 13.7932 71.7418C15.4024 70.6948 17.2904 70.1585 19.2097 70.2031C21.1291 70.2477 22.99 70.8712 24.5488 71.9919C23.4803 72.2185 22.4761 72.6815 21.6098 73.3469C20.2497 74.4477 19.2006 75.8848 18.5665 77.5157C18.3789 77.9326 18.9209 78.4745 19.2544 78.0576C20.1655 76.8928 21.2076 75.8368 22.3602 74.9102C23.5841 74.1364 24.9007 73.5201 26.2789 73.0759C26.2789 73.0759 26.2789 73.0758 26.404 72.9716C26.484 72.9311 26.5543 72.8739 26.6102 72.8038C26.6661 72.7337 26.7064 72.6524 26.7281 72.5655C26.7499 72.4785 26.7526 72.3878 26.7363 72.2996C26.7199 72.2115 26.6847 72.1278 26.6332 72.0545Z" fill="black"/>
<path d="M184.008 130.669C181.528 138.173 179.839 146.156 176.483 152.993C174.962 156.057 173.044 158.621 171.648 161.81C170.424 164.693 169.508 167.698 168.917 170.773C168.917 171.232 169.271 171.607 169.438 171.148C171.96 163.936 176.233 158.809 179.047 151.992C181.841 145.244 183.706 138.148 184.592 130.898C184.634 130.294 184.133 130.273 184.008 130.669Z" fill="black"/>
<path d="M221.632 92.7709C220.785 104.178 218.322 115.407 214.316 126.122C212.812 130.491 210.647 134.603 207.896 138.316C205.27 141.859 202.143 144.569 199.558 148.363C199.308 148.759 199.558 149.321 199.954 149.092C206.791 144.715 212.815 136.064 215.942 126.622C219.777 115.762 221.887 104.368 222.195 92.8543C222.32 92.1664 221.653 92.1455 221.632 92.7709Z" fill="black"/>
<path d="M75.6595 44.8053C67.1967 43.2837 56.2952 46.1394 50.7714 52.747C50.2712 53.3723 50.7714 53.2056 51.626 52.747C55.4145 50.6215 59.4006 48.8693 63.5281 47.5151C67.4602 46.2819 71.4911 45.3892 75.5762 44.847C76.0348 44.722 76.0347 44.8887 75.6595 44.8053Z" fill="black"/>
<path d="M97.8794 152.55C92.8977 153.551 86.1233 154.343 81.204 152.738C77.327 151.487 74.4505 148.861 70.3233 147.964C69.8648 147.86 69.5312 148.506 69.9898 148.756C73.8877 150.966 77.5355 154.676 82.0796 155.406C87.3323 156.281 93.127 154.489 98.1088 153.071C98.3798 152.988 98.2338 152.488 97.8794 152.55Z" fill="black"/>
<path d="M107.301 141.318C105.216 143.152 103.716 145.486 101.61 147.362C99.252 149.137 96.6087 150.497 93.7938 151.385C93.725 151.41 93.6679 151.459 93.6336 151.524C93.5994 151.588 93.5906 151.663 93.609 151.734C93.6273 151.804 93.6714 151.865 93.7326 151.905C93.7938 151.945 93.8678 151.96 93.9397 151.948C96.8953 151.855 99.7728 150.977 102.277 149.405C104.67 147.276 106.514 144.602 107.655 141.609C107.669 141.562 107.668 141.513 107.654 141.466C107.639 141.419 107.612 141.378 107.574 141.347C107.536 141.316 107.49 141.297 107.442 141.291C107.393 141.286 107.344 141.295 107.301 141.318Z" fill="black"/>
<path d="M89.6875 51.3359C84.0387 48.2927 76.8265 46.8753 70.9276 49.2515C70.3231 49.3557 70.3648 49.4808 70.9276 49.2515C77.5978 48.1259 83.2049 49.6892 89.6875 51.3359C90.4796 51.5444 90.4587 51.6903 89.6875 51.3359Z" fill="black"/>
<path d="M96.3985 180.927C88.9988 175.757 79.3479 173.777 70.8017 170.755C61.0883 167.336 52.1669 162.417 45.7885 154.85C45.3925 154.371 44.4753 154.955 44.8505 155.455C49.8588 162.622 56.8808 168.143 65.0278 171.317C75.2206 175.34 85.9764 176.925 95.8774 181.74C96.4402 182.156 96.878 181.385 96.3985 180.927Z" fill="black"/>
</g>
<path d="M117.723 230.948C117.653 230.718 117.513 230.516 117.322 230.37C117.131 230.224 116.9 230.142 116.66 230.135C115.055 230.135 113.971 231.761 113.762 233.178C113.64 234.802 114.018 236.424 114.846 237.826C114.915 237.941 115.017 238.033 115.137 238.091C115.258 238.149 115.393 238.171 115.526 238.153C115.659 238.135 115.784 238.079 115.885 237.992C115.987 237.904 116.06 237.788 116.097 237.66C116.257 237.071 116.375 236.472 116.451 235.867C116.624 235.259 116.847 234.666 117.118 234.095C117.673 233.146 117.887 232.035 117.723 230.948Z" fill="#E9E9E9"/>
<path d="M122.684 231.515C122.284 232.081 122.004 232.722 121.86 233.399C121.717 234.077 121.713 234.776 121.85 235.455C122.037 236.122 122.371 236.768 122.6 237.435C122.712 238.031 122.994 238.581 123.413 239.019C123.477 239.083 123.555 239.132 123.64 239.162C123.726 239.192 123.817 239.202 123.907 239.192C123.997 239.182 124.084 239.152 124.161 239.104C124.238 239.056 124.303 238.992 124.351 238.915C124.747 236.831 125.143 234.746 125.539 232.662C125.613 232.303 125.559 231.929 125.386 231.606C125.212 231.283 124.931 231.031 124.591 230.895C124.251 230.758 123.873 230.746 123.525 230.859C123.176 230.972 122.878 231.205 122.684 231.515Z" fill="#E9E9E9"/>
<path d="M136.984 234.765C137.095 233.644 136.877 232.514 136.358 231.514C136.221 231.295 136.023 231.12 135.79 231.01C135.556 230.899 135.295 230.858 135.039 230.891C134.783 230.924 134.541 231.029 134.343 231.195C134.144 231.361 133.998 231.58 133.92 231.826C133.725 232.398 133.649 233.003 133.696 233.605C133.742 234.207 133.911 234.793 134.191 235.328C134.532 236.482 135.084 237.563 135.816 238.517C135.897 238.598 135.997 238.656 136.107 238.686C136.217 238.716 136.333 238.716 136.443 238.686C136.553 238.656 136.653 238.598 136.734 238.517C136.814 238.436 136.871 238.336 136.9 238.225C137.085 237.081 137.113 235.917 136.984 234.765Z" fill="#E9E9E9"/>
<path d="M147.948 233.238C147.927 232.48 147.727 231.737 147.365 231.071C147.003 230.404 146.488 229.833 145.863 229.403C145.665 229.296 145.443 229.241 145.218 229.244C144.993 229.248 144.773 229.309 144.578 229.422C144.384 229.535 144.221 229.696 144.107 229.89C143.992 230.083 143.93 230.303 143.925 230.528C143.962 231.84 144.359 233.116 145.071 234.218C145.592 235.198 145.759 236.469 146.676 237.157C146.794 237.216 146.927 237.238 147.057 237.219C147.188 237.2 147.309 237.142 147.406 237.053C148.24 236.135 148.052 234.426 147.948 233.238Z" fill="#E9E9E9"/>
<path d="M220.59 183.988C219.172 183.592 217.692 185.176 217.088 186.281C216.383 187.551 216.196 189.045 216.567 190.45C216.817 191.012 217.588 190.846 217.859 190.45C218.118 189.949 218.348 189.434 218.547 188.907C218.839 188.386 219.214 187.927 219.548 187.448C220.131 186.614 221.111 185.739 221.194 184.697C221.176 184.532 221.108 184.376 221 184.25C220.893 184.124 220.75 184.032 220.59 183.988Z" fill="#E9E9E9"/>
<path d="M224.925 184.65C222.195 183.878 220.319 189.652 222.32 191.195C222.388 191.24 222.468 191.263 222.549 191.263C222.631 191.263 222.71 191.24 222.779 191.195C223.197 190.777 223.505 190.261 223.675 189.694C223.934 189.009 224.262 188.353 224.654 187.735C225.03 187.026 226.301 185.087 224.925 184.65Z" fill="#E9E9E9"/>
<path d="M228.656 184.672C228.147 185.071 227.73 185.576 227.435 186.151C227.139 186.727 226.973 187.361 226.947 188.007C226.787 189.154 227.038 190.321 227.656 191.301C227.695 191.349 227.744 191.387 227.8 191.414C227.856 191.44 227.917 191.454 227.979 191.454C228.041 191.454 228.102 191.44 228.158 191.414C228.214 191.387 228.263 191.349 228.302 191.301C228.48 190.945 228.606 190.566 228.677 190.175C228.853 189.625 229.069 189.088 229.323 188.57C229.781 187.659 230.091 186.681 230.241 185.673C230.254 185.481 230.216 185.289 230.129 185.117C230.042 184.946 229.91 184.801 229.748 184.698C229.585 184.596 229.398 184.539 229.206 184.534C229.014 184.53 228.824 184.577 228.656 184.672Z" fill="#E9E9E9"/>
<path d="M232.366 185.718C232.217 187.621 232.415 189.535 232.95 191.367C232.95 191.93 233.846 191.742 233.888 191.242C234.034 189.491 234.784 187.823 234.951 186.073C235.118 184.322 232.575 184.259 232.366 185.718Z" fill="#E9E9E9"/>
<path d="M71.5952 118.684C67.6556 125.646 76.6603 147.178 89.4379 145.365C101.444 143.656 105.53 119.685 100.423 115.328C92.7105 108.679 75.5347 111.639 71.5952 118.684Z" fill="#EBEBEB"/>
<path d="M94.7941 124.772C92.8556 129.296 84.7472 129.712 81.5581 127.253C79.6612 125.773 75.5757 120.291 77.5143 116.643C80.4741 111.953 93.2934 111.39 95.4612 115.538C96.8786 117.956 95.878 122.375 94.7941 124.772Z" fill="#263238"/>
<path d="M54.3562 113.888C53.2932 113.662 52.1842 113.861 51.2654 114.441C50.3465 115.021 49.6905 115.937 49.437 116.993C49.3433 117.454 49.3433 117.929 49.437 118.39C49.4125 119.351 49.7206 120.291 50.3094 121.05C50.8982 121.81 51.7313 122.343 52.6679 122.559C53.228 122.689 53.809 122.702 54.3743 122.596C54.9396 122.491 55.4769 122.27 55.9526 121.947C56.4284 121.624 56.8321 121.206 57.1385 120.719C57.4449 120.233 57.6473 119.688 57.733 119.12C57.9747 117.978 57.7553 116.788 57.1227 115.808C56.4901 114.828 55.4957 114.138 54.3562 113.888Z" fill="#263238"/>
<path d="M112.908 106.01C111.842 105.778 110.728 105.974 109.804 106.555C108.881 107.135 108.222 108.055 107.968 109.116C107.895 109.572 107.895 110.036 107.968 110.492C107.945 111.455 108.256 112.397 108.849 113.157C109.441 113.918 110.28 114.449 111.22 114.66C111.78 114.772 112.357 114.77 112.917 114.656C113.477 114.542 114.008 114.317 114.48 113.995C114.951 113.672 115.354 113.259 115.664 112.779C115.974 112.3 116.185 111.763 116.285 111.2C116.515 110.065 116.289 108.886 115.658 107.915C115.026 106.944 114.039 106.26 112.908 106.01Z" fill="#263238"/>
</svg>
