<svg width="215" height="208" viewBox="0 0 215 208" fill="none" xmlns="http://www.w3.org/2000/svg">
<path d="M73.1543 95.567C73.1543 95.567 58.0951 110.237 57.6826 120.935L62.0433 116.574C62.0433 116.574 60.0606 128.465 62.8398 138.378C65.619 148.291 73.1543 155.42 73.1543 155.42V189.899C73.1543 189.899 62.8398 192.672 62.8398 206.947H173.91C173.91 206.947 187.302 193.074 187.697 170.479C188.092 147.885 185.319 128.465 156.782 113.801L162.73 113.01C162.73 113.01 149.963 109.652 144.17 106.804C135.059 102.329 124.177 93.2979 124.177 93.2979L73.1543 95.567Z" fill="#D8D8D9"/>
<g opacity="0.6">
<path d="M69.1833 126.422C67.9685 119.328 71.4124 111.466 77.8131 108.16C84.2139 104.853 93.0843 106.945 96.7918 113.116C99.21 117.128 99.3304 122.101 100.803 126.554C103.874 135.871 112.584 142.369 116.206 151.486C118.739 157.858 118.567 164.935 118.361 171.783C118.217 176.482 117.965 181.524 115.146 185.266C112.395 188.934 107.697 190.636 103.112 191.123C97.8573 191.721 92.5408 190.805 87.7896 188.481C83.0475 186.129 79.2624 182.213 77.0739 177.393C74.0598 170.517 74.9308 162.683 74.885 155.177C74.8193 144.869 72.9277 134.654 69.2979 125.007" fill="white"/>
</g>
<path d="M63.7396 154.241C63.7396 154.241 63.8828 154.183 64.1464 154.212C64.521 154.271 64.8655 154.453 65.1263 154.728C65.33 154.931 65.4773 155.184 65.5537 155.461C65.63 155.738 65.6328 156.031 65.5618 156.309C65.4821 156.658 65.2983 156.974 65.0349 157.216C64.7715 157.458 64.4408 157.614 64.0866 157.664C63.7324 157.713 63.3715 157.654 63.0517 157.494C62.7319 157.334 62.4682 157.081 62.2956 156.768C62.1517 156.519 62.076 156.236 62.076 155.948C62.076 155.661 62.1517 155.378 62.2956 155.129C62.4717 154.793 62.7537 154.526 63.0978 154.367C63.2153 154.297 63.3513 154.265 63.4875 154.275C63.4875 154.275 63.3557 154.338 63.1494 154.47C62.8593 154.652 62.6284 154.915 62.4847 155.226C62.3752 155.446 62.3236 155.689 62.3346 155.934C62.3457 156.178 62.419 156.416 62.5477 156.625C62.696 156.887 62.92 157.099 63.1906 157.233C63.4611 157.366 63.7656 157.415 64.0644 157.373C64.3631 157.331 64.6423 157.2 64.8654 156.997C65.0886 156.794 65.2454 156.528 65.3154 156.235C65.3808 155.999 65.3851 155.749 65.328 155.511C65.2709 155.272 65.1541 155.052 64.9888 154.871C64.7657 154.61 64.4707 154.421 64.1407 154.327C64.0054 154.306 63.8714 154.278 63.7396 154.241Z" fill="white"/>
<path d="M99.0837 193.212C98.9509 193.251 98.8097 193.251 98.6768 193.212C98.3023 193.153 97.9578 192.972 97.697 192.696C97.4933 192.493 97.346 192.24 97.2696 191.963C97.1933 191.686 97.1905 191.393 97.2615 191.115C97.3412 190.766 97.5249 190.45 97.7884 190.208C98.0518 189.966 98.3825 189.81 98.7367 189.76C99.0908 189.711 99.4517 189.77 99.7716 189.93C100.091 190.09 100.355 190.343 100.528 190.656C100.672 190.905 100.747 191.188 100.747 191.476C100.747 191.763 100.672 192.046 100.528 192.295C100.353 192.633 100.07 192.903 99.7255 193.063C99.4848 193.166 99.3358 193.166 99.3358 193.149C99.3358 193.132 99.4676 193.086 99.6739 192.96C99.964 192.777 100.195 192.515 100.339 192.203C100.448 191.983 100.5 191.739 100.489 191.493C100.478 191.248 100.404 191.009 100.276 190.8C100.127 190.537 99.9032 190.325 99.6327 190.191C99.3622 190.058 99.0577 190.009 98.7589 190.051C98.4602 190.093 98.181 190.224 97.9578 190.427C97.7347 190.63 97.5779 190.896 97.5079 191.189C97.4425 191.426 97.4382 191.675 97.4953 191.913C97.5524 192.152 97.6691 192.372 97.8345 192.553C98.0587 192.812 98.3533 193.002 98.6826 193.097C98.9404 193.189 99.078 193.183 99.0837 193.212Z" fill="white"/>
<path d="M64.8513 185.189C64.8513 185.189 64.708 185.246 64.4444 185.189C64.0706 185.131 63.7262 184.952 63.4645 184.679C63.2609 184.476 63.1136 184.223 63.0372 183.946C62.9608 183.668 62.958 183.376 63.029 183.097C63.108 182.748 63.2911 182.431 63.5542 182.189C63.8173 181.946 64.1479 181.79 64.5022 181.739C64.8564 181.689 65.2176 181.747 65.5379 181.907C65.8581 182.067 66.1223 182.32 66.2953 182.633C66.4391 182.883 66.5148 183.167 66.5148 183.455C66.5148 183.744 66.4391 184.027 66.2953 184.278C66.1207 184.612 65.8408 184.88 65.4988 185.04C65.2524 185.143 65.1034 185.143 65.1034 185.126C65.1034 185.109 65.2352 185.068 65.4415 184.937C65.7336 184.757 65.9651 184.493 66.1062 184.18C66.2156 183.96 66.2672 183.716 66.2562 183.47C66.2451 183.225 66.1718 182.986 66.0432 182.776C65.886 182.523 65.6609 182.319 65.3934 182.187C65.126 182.056 64.827 182.002 64.5304 182.031C64.2354 182.087 63.9617 182.224 63.7401 182.426C63.5184 182.629 63.3575 182.889 63.2754 183.177C63.2101 183.415 63.2058 183.665 63.2629 183.904C63.32 184.144 63.4367 184.365 63.6021 184.547C63.8296 184.803 64.1229 184.991 64.4502 185.091C64.5859 185.115 64.7199 185.147 64.8513 185.189Z" fill="white"/>
<path d="M67.854 100.209H101.663C101.663 100.209 110.109 97.3951 124.188 93.2979C138.268 89.2007 139.546 73.5857 139.546 73.5857C139.436 71.5202 139.154 69.4673 138.703 67.4486C138.13 64.8528 123.312 44.8713 119.73 42.3156C116.149 39.7599 97.8463 37.6396 97.8463 37.6396L72.7362 54.3893L67.8654 76.6514L65.3269 94.0944L69.2292 90.0087L67.854 100.209Z" fill="#D8D8D9"/>
<g opacity="0.6">
<path d="M113.164 82.722C112.095 80.9495 111.709 78.8488 112.077 76.8124C112.445 74.7759 113.542 72.9432 115.163 71.6568C117.209 70.1383 120.074 69.4449 121.192 67.1585C122.223 65.067 121.278 62.5285 119.925 60.6317C117.536 57.2738 113.994 54.9645 110.883 52.2655C107.771 49.5666 104.895 46.0825 104.683 41.951C104.62 40.8393 104.964 39.4755 106.035 39.2062C106.528 39.0614 107.041 38.9976 107.554 39.0171C110.528 39.5558 111.038 39.5386 113.387 40.0829C115.106 40.4898 117.817 41.0571 119.249 41.9911C120.607 42.978 121.833 44.1333 122.899 45.4293C125.34 48.2944 128.125 51.8644 130.349 54.8556C132.985 58.3797 136.91 63.0671 138.457 66.9293C139.397 69.2615 139.477 70.6999 139.523 73.8343C139.523 75.6795 138.13 81.9656 136.423 82.659C135.093 83.1976 134.01 81.9255 133.34 80.533C132.727 79.238 132.692 77.8799 132.245 76.5218C132.601 81.7421 128.011 86.6587 122.842 87.4094C117.673 88.16 113.049 84.4468 111.88 79.3526" fill="white"/>
</g>
<path d="M107.382 67.9349C109.527 66.0657 109.751 62.8116 107.882 60.6666C106.012 58.5217 102.758 58.2981 100.613 60.1673C98.4684 62.0365 98.2449 65.2906 100.114 67.4355C101.983 69.5805 105.237 69.804 107.382 67.9349Z" fill="#455A64"/>
<path d="M113.003 69.805C112.911 69.8336 112.481 68.55 111.656 66.5559C111.18 65.3976 110.593 64.2883 109.903 63.2438C109.068 61.9779 107.934 60.9368 106.602 60.2125C105.239 59.5399 103.744 59.176 102.224 59.1466C100.969 59.1122 99.7137 59.2024 98.4765 59.4159C96.3506 59.777 95.0383 60.0807 95.0383 59.989C95.313 59.8266 95.6134 59.7123 95.9265 59.6509C96.4996 59.4732 97.3591 59.2326 98.4307 59.0091C99.6907 58.7272 100.979 58.5906 102.27 58.6022C103.878 58.6055 105.463 58.9759 106.906 59.6853C108.325 60.4558 109.525 61.5762 110.39 62.9401C111.09 64.0281 111.667 65.1909 112.109 66.4069C112.487 67.4383 112.733 68.2864 112.888 68.8709C112.975 69.1744 113.014 69.4895 113.003 69.805Z" fill="#263238"/>
<path d="M120.074 106.803C120.062 106.704 120.062 106.604 120.074 106.505L120.16 105.663C120.235 104.93 120.372 103.875 120.567 102.569C120.957 99.9672 121.616 96.38 122.596 92.4777C123.575 88.5754 124.681 85.1086 125.57 82.6273C126.011 81.3839 126.389 80.3868 126.67 79.7049L126.991 78.9256C127.028 78.8327 127.072 78.7427 127.122 78.6562C127.111 78.7548 127.086 78.8513 127.048 78.9428L126.779 79.745C126.532 80.4441 126.206 81.4641 125.77 82.6961C124.933 85.1888 123.862 88.6613 122.905 92.5522C121.948 96.4431 121.237 100.002 120.802 102.603C120.578 103.898 120.407 104.953 120.298 105.68C120.24 106.013 120.195 106.288 120.16 106.517C120.146 106.616 120.117 106.713 120.074 106.803Z" fill="#263238"/>
<path d="M109.192 98.5247C109.234 98.442 109.286 98.365 109.347 98.2954L109.823 97.688L111.622 95.4475C113.123 93.568 115.175 90.9549 117.352 87.9981C119.53 85.0413 121.438 82.3309 122.796 80.3482L124.406 77.9988L124.853 77.3627C124.956 77.2195 125.014 77.145 125.025 77.1507C124.995 77.2374 124.955 77.3201 124.905 77.3971L124.504 78.0618C124.154 78.6348 123.633 79.46 122.974 80.4628C121.656 82.4799 119.776 85.2247 117.593 88.1758C115.41 91.1269 113.324 93.7284 111.782 95.5736C111.009 96.4961 110.378 97.2353 109.926 97.7396L109.41 98.3126C109.267 98.4674 109.204 98.5304 109.192 98.5247Z" fill="#263238"/>
<path d="M82.6954 46.7793L81.6983 46.8652C76.3806 47.3409 50.9954 49.908 36.8531 56.3775C29.8564 59.575 4.62022 73.2417 0.574643 89.0917C0.321765 90.0749 0.46858 91.1182 0.982968 91.9934C1.49736 92.8686 2.33744 93.5045 3.31945 93.7619C10.3042 95.6014 17.4581 96.7246 24.6705 97.1141C32.6926 97.4905 40.6847 95.894 47.9466 92.4643C55.2084 89.0347 61.5185 83.8767 66.3239 77.442C68.9652 73.9272 71.8024 70.5639 74.8219 67.3682C82.1395 59.5979 84.6895 56.8359 84.6895 56.8359L82.6954 46.7793Z" fill="#D8D8D9"/>
<g opacity="0.3">
<path d="M67.6247 63.845C67.6247 63.845 40.7955 59.6447 29.3693 64.8306C21.1062 68.584 6.00692 83.8609 8.64286 87.9237C11.2788 91.9865 28.9281 93.4649 36.853 91.5624C44.778 89.66 49.1388 88.3764 53.6886 83.54C57.5107 79.4944 67.6247 63.845 67.6247 63.845Z" fill="black"/>
</g>
<path d="M98.9637 37.7778C98.9637 37.7778 88.0417 15.4755 75.8706 8.29546C63.6995 1.11542 33.117 -3.24533 31.8735 2.99495C30.63 9.23523 34.9965 16.1001 45.6262 25.4634C56.2559 34.8267 83.6352 50.0119 83.6352 50.0119L98.9637 37.7778Z" fill="#D8D8D9"/>
<path d="M211.844 180.297C208.034 174.957 200.149 172.791 194.396 175.931L198.722 169.868C194.133 170.827 190.005 173.316 187.015 176.928L179.829 196.124C181.228 202.479 188.024 206.479 194.522 206.771C201.02 207.063 207.828 204.124 211.575 198.749C215.323 193.374 215.649 185.632 211.844 180.297Z" fill="#D8D8D9"/>
<path d="M186.688 177.351C186.797 177.208 186.929 177.07 187.049 176.927L186.688 177.351Z" fill="#D8D8D9"/>
<path d="M133.202 68.2441C132.276 67.9243 131.285 67.8401 130.319 67.9992C129.353 68.1583 128.441 68.5556 127.667 69.1552C126.963 69.612 126.46 70.3185 126.257 71.1322C126.173 71.5382 126.245 71.9608 126.457 72.3171C126.669 72.6733 127.006 72.9374 127.403 73.0575C128.125 73.1951 128.87 72.7023 129.58 72.9028C129.88 73.0219 130.144 73.2173 130.345 73.4696C130.546 73.7219 130.677 74.0223 130.727 74.3411C130.814 74.9747 130.941 75.6024 131.105 76.2207C131.191 76.5302 131.373 76.8043 131.626 77.0031C131.878 77.202 132.187 77.3153 132.509 77.3266C133.368 77.2521 133.752 76.1805 133.775 75.3267C133.798 74.4729 133.723 73.4759 134.348 72.8627C134.617 72.5991 134.984 72.4501 135.276 72.2095C136.096 71.5333 136.05 70.4331 135.465 69.5506C134.881 68.6681 134.262 68.4733 133.225 68.2441" fill="#263238"/>
<path d="M112.682 81.8665C112.682 81.8665 112.9 82.1932 113.307 82.7662C113.886 83.5686 114.579 84.2827 115.364 84.8864C116.52 85.7884 117.845 86.4507 119.26 86.8347C120.991 87.3123 122.816 87.3301 124.555 86.8863C126.281 86.3914 127.847 85.4507 129.094 84.1586C130.121 83.112 130.929 81.8711 131.472 80.5084C131.842 79.5921 132.077 78.6271 132.171 77.6433C132.234 76.9442 132.222 76.5546 132.257 76.5488C132.275 76.6433 132.284 76.7392 132.285 76.8353C132.301 77.1064 132.301 77.378 132.285 77.649C132.232 78.6555 132.021 79.6475 131.661 80.5887C131.136 81.9944 130.328 83.2776 129.288 84.3592C128.03 85.7166 126.416 86.6935 124.63 87.1788C122.844 87.6641 120.958 87.6381 119.186 87.104C117.739 86.7024 116.391 86.0059 115.226 85.0583C114.44 84.427 113.758 83.6768 113.203 82.835C113.052 82.6096 112.916 82.3741 112.797 82.1301C112.746 82.0482 112.707 81.9594 112.682 81.8665Z" fill="#263238"/>
<path d="M137.763 81.6142C137.74 81.7503 137.683 81.8783 137.597 81.9866C137.345 82.3965 136.951 82.6984 136.489 82.8339C136.028 82.9694 135.532 82.9289 135.099 82.7201C134.49 82.3966 133.98 81.9157 133.62 81.3276C132.987 80.2876 132.552 79.1394 132.337 77.941C132.21 77.4553 132.169 76.951 132.216 76.4512C132.262 76.4512 132.325 77.0242 132.543 77.9009C132.814 79.0511 133.261 80.1527 133.867 81.1672C134.2 81.7088 134.665 82.1565 135.219 82.468C135.444 82.5811 135.691 82.6457 135.942 82.6575C136.194 82.6694 136.446 82.6282 136.68 82.5367C137.001 82.4001 137.284 82.1877 137.506 81.9179C137.666 81.723 137.74 81.6027 137.763 81.6142Z" fill="#263238"/>
<path d="M104.665 107.968C102.309 110.677 100.765 113.997 100.212 117.545C99.6583 121.093 100.117 124.725 101.537 128.024C91.6632 121.354 77.8131 121.188 67.7794 127.611C64.0662 129.995 60.6796 133.502 60.7025 138.172C60.7025 140.94 62.244 143.57 64.8455 144.51C68.7364 145.914 72.1172 142.888 75.5153 141.032C83.8529 136.476 94.8034 138.986 101.92 145.272C104.064 147.163 106.126 149.466 108.929 150.028C111.731 150.59 116.315 147.163 115.232 144.475L120.962 147.043C120.962 147.043 118.71 144.917 118.836 143.541L123.558 146.664C123.558 146.664 122.125 144.292 122.67 143.295C127.473 141.751 131.622 138.644 134.457 134.47C138.745 128.026 140.431 120.196 139.173 112.558" fill="#D8D8D9"/>
<path d="M139.219 112.575C139.219 112.575 139.27 112.821 139.351 113.314C139.431 113.807 139.523 114.529 139.614 115.486C139.811 118.274 139.618 121.077 139.041 123.812C138.139 128.113 136.33 132.173 133.735 135.719C132.076 137.879 130.027 139.71 127.695 141.117C126.434 141.888 125.104 142.542 123.724 143.071C123.552 143.14 123.369 143.198 123.191 143.266L122.922 143.358L122.784 143.41H122.75C122.75 143.41 122.87 143.312 122.807 143.364V143.421C122.704 143.767 122.704 144.135 122.807 144.481C123.015 145.222 123.321 145.931 123.718 146.59L123.976 147.037L123.547 146.756L118.825 143.639L119.02 143.541C119.064 144.194 119.311 144.817 119.724 145.323C120.132 145.905 120.597 146.444 121.111 146.934L121.633 147.449L120.962 147.151L115.232 144.59L115.415 144.412C115.544 144.788 115.592 145.187 115.554 145.582C115.517 145.977 115.395 146.36 115.198 146.704C114.825 147.399 114.319 148.012 113.708 148.509C113.098 149.013 112.418 149.426 111.691 149.736C110.95 150.069 110.142 150.226 109.33 150.194C107.713 149.928 106.204 149.213 104.975 148.131C103.691 147.123 102.562 145.925 101.284 144.894C98.6998 142.749 95.7329 141.111 92.54 140.069C90.9049 139.547 89.2242 139.18 87.5202 138.974C85.7896 138.8 84.0453 138.811 82.3171 139.009C80.4325 139.256 78.5933 139.773 76.8562 140.544C75.1371 141.284 73.5956 142.401 71.9625 143.324C70.3294 144.246 68.5645 145.043 66.662 144.985C65.7291 144.949 64.8171 144.699 63.9971 144.252C63.1771 143.806 62.4712 143.176 61.9345 142.412C60.8869 140.909 60.4206 139.076 60.6223 137.255C60.8008 135.497 61.4283 133.814 62.4445 132.367C64.4272 129.502 67.2981 127.577 70.1575 126.104C75.5811 123.393 81.6698 122.299 87.6979 122.952C90.3191 123.211 92.896 123.806 95.365 124.723C97.5598 125.554 99.6564 126.625 101.617 127.915L101.479 128.029C100.265 125.235 99.7512 122.186 99.9836 119.147C100.15 116.896 100.702 114.69 101.617 112.626C102.194 111.349 102.913 110.14 103.76 109.022C104.362 108.283 104.694 107.922 104.694 107.922L104.47 108.208C104.321 108.403 104.086 108.673 103.8 109.051C102.974 110.179 102.273 111.393 101.708 112.672C100.816 114.729 100.281 116.923 100.127 119.159C99.9136 122.171 100.437 125.19 101.651 127.955L101.777 128.241L101.514 128.07C99.5623 126.797 97.4774 125.742 95.2962 124.924C92.8396 124.028 90.2783 123.45 87.675 123.205C81.6812 122.579 75.6337 123.684 70.2492 126.391C67.4184 127.858 64.5819 129.777 62.6451 132.579C61.6607 133.986 61.053 135.621 60.8801 137.33C60.69 139.08 61.1376 140.84 62.1408 142.286C62.6571 142.997 63.3245 143.584 64.0948 144.005C64.8818 144.427 65.753 144.668 66.6448 144.71C68.4498 144.791 70.1861 143.994 71.8021 143.083C73.418 142.172 74.9537 141.049 76.7244 140.287C78.4887 139.508 80.3542 138.983 82.2656 138.728C84.0185 138.526 85.7882 138.517 87.5432 138.699C89.266 138.907 90.9657 139.276 92.6202 139.799C95.8431 140.874 98.8349 142.546 101.439 144.727C102.74 145.77 103.863 146.968 105.124 147.959C106.309 149.007 107.764 149.701 109.324 149.965C110.09 149.997 110.854 149.85 111.553 149.535C112.255 149.239 112.909 148.841 113.496 148.355C114.079 147.881 114.564 147.297 114.922 146.636C115.103 146.325 115.216 145.979 115.252 145.621C115.289 145.264 115.249 144.902 115.134 144.561L115.008 144.246L115.318 144.384L121.048 146.957L120.905 147.169C120.381 146.663 119.907 146.109 119.489 145.513C119.282 145.226 119.106 144.919 118.962 144.596C118.808 144.274 118.733 143.921 118.745 143.564V143.352L118.922 143.473L123.638 146.601L123.466 146.762C123.06 146.081 122.748 145.349 122.538 144.584C122.418 144.19 122.418 143.769 122.538 143.375L122.567 143.301C122.509 143.347 122.653 143.22 122.641 143.232H122.676L122.807 143.186L123.077 143.089L123.61 142.9C124.976 142.375 126.293 141.731 127.546 140.974C129.858 139.584 131.893 137.777 133.546 135.645C136.134 132.126 137.949 128.099 138.869 123.829C139.459 121.107 139.671 118.317 139.5 115.537C139.419 114.58 139.351 113.853 139.27 113.366C139.19 112.879 139.219 112.575 139.219 112.575Z" fill="#263238"/>
<path d="M140.462 151.256C140.462 151.256 109.433 162.493 123.655 185.896C123.655 185.896 93.938 182.102 97.3647 206.949H173.91C173.91 206.949 192.006 167.599 186.27 149.359L140.462 151.256Z" fill="#D8D8D9"/>
<g opacity="0.6">
<path d="M97.3762 206.943C95.7832 200.153 98.465 192.044 104.551 188.646C110.401 185.38 119.042 185.329 124.268 187.833C127.993 189.615 130.875 193.448 134.996 193.689C137.288 193.827 139.522 192.893 141.797 192.514C143.969 192.179 146.19 192.345 148.287 193.001C150.385 193.657 152.305 194.784 153.9 196.296C157.063 199.328 158.788 202.674 158.26 207.023L97.3762 206.943Z" fill="white"/>
</g>
<path d="M147.997 141.051L147.757 141.131L147.04 141.372C146.41 141.584 145.493 141.905 144.324 142.374C141.03 143.703 137.886 145.376 134.944 147.366C132.917 148.74 131.021 150.3 129.282 152.024C127.288 154.004 125.567 156.242 124.165 158.677C123.419 159.998 122.783 161.378 122.263 162.803C122.125 163.164 121.982 163.531 121.839 163.892C121.695 164.253 121.609 164.642 121.489 165.038C121.369 165.433 121.266 165.8 121.151 166.184L120.979 166.757L120.859 167.33C120.094 170.574 119.948 173.934 120.429 177.232C120.668 178.789 121.073 180.316 121.638 181.787C122.169 183.215 122.89 184.564 123.781 185.799L123.959 186.039H117.352C116.677 186.021 116.002 186.04 115.329 186.097C112.782 186.22 110.265 186.69 107.845 187.495C106.734 187.873 105.662 188.357 104.642 188.939C103.691 189.492 102.802 190.145 101.989 190.887C100.532 192.215 99.3721 193.836 98.5852 195.643C97.9383 197.118 97.5023 198.677 97.2901 200.273C97.1199 201.471 97.0528 202.68 97.0896 203.889C97.1086 204.656 97.1679 205.421 97.2672 206.181C97.3016 206.428 97.3303 206.622 97.3474 206.754C97.3541 206.821 97.3541 206.888 97.3474 206.955C97.324 206.892 97.3067 206.826 97.2959 206.76C97.2672 206.628 97.2271 206.433 97.187 206.187C97.065 205.428 96.9885 204.663 96.9578 203.895C96.9 202.68 96.9518 201.462 97.1125 200.256C97.3131 198.64 97.7394 197.06 98.3789 195.563C99.1718 193.725 100.343 192.075 101.817 190.721C102.637 189.963 103.536 189.294 104.499 188.727C105.534 188.136 106.622 187.641 107.748 187.248C110.188 186.428 112.729 185.946 115.3 185.816C115.975 185.759 116.652 185.74 117.329 185.758H123.632L123.518 185.999C122.608 184.736 121.871 183.356 121.329 181.896C120.758 180.406 120.347 178.86 120.102 177.283C119.61 173.949 119.76 170.551 120.544 167.273L120.664 166.7L120.836 166.127L121.18 164.98C121.3 164.602 121.386 164.213 121.535 163.834L121.965 162.734C122.491 161.297 123.135 159.905 123.89 158.574C125.31 156.121 127.054 153.872 129.076 151.887C130.835 150.156 132.753 148.596 134.806 147.228C137.768 145.246 140.939 143.596 144.261 142.306C145.442 141.847 146.37 141.538 147.006 141.349L147.728 141.137C147.815 141.099 147.905 141.07 147.997 141.051Z" fill="#263238"/>
<path d="M111.49 190.754C110.653 191.182 109.842 191.658 109.06 192.181C107.2 193.488 105.72 195.266 104.774 197.333C103.827 199.401 103.448 201.683 103.674 203.945C103.79 204.879 103.96 205.805 104.184 206.718C104.062 206.494 103.968 206.255 103.903 206.008C103.696 205.343 103.55 204.66 103.468 203.968C103.176 201.663 103.534 199.322 104.501 197.209C105.467 195.096 107.005 193.295 108.94 192.009C109.517 191.619 110.129 191.283 110.768 191.006C110.998 190.893 111.24 190.809 111.49 190.754Z" fill="#263238"/>
<path d="M119.908 192.861C119.908 192.913 119.077 193.308 117.919 194.26C116.419 195.508 115.24 197.098 114.481 198.895C113.745 200.71 113.462 202.677 113.656 204.626C113.799 206.121 114.131 207.004 114.074 207.021C113.964 206.829 113.881 206.623 113.828 206.408C113.648 205.834 113.52 205.245 113.444 204.649C113.179 202.666 113.442 200.648 114.205 198.799C114.969 196.95 116.206 195.335 117.793 194.116C118.267 193.746 118.773 193.42 119.306 193.142C119.493 193.022 119.695 192.927 119.908 192.861Z" fill="#263238"/>
<path d="M187.468 171.459C187.478 171.558 187.478 171.658 187.468 171.757C187.468 171.98 187.468 172.261 187.468 172.599C187.439 173.333 187.359 174.399 187.221 175.705C187.084 177.012 186.855 178.57 186.534 180.289C186.213 182.008 185.766 183.859 185.21 185.79C184.654 187.722 184.001 189.521 183.371 191.137C182.74 192.753 182.081 194.18 181.491 195.354C180.901 196.529 180.408 197.474 180.036 198.105C179.864 198.397 179.72 198.638 179.6 198.833C179.48 199.027 179.445 199.079 179.434 199.073C179.465 198.981 179.503 198.89 179.549 198.804L179.932 198.047C180.276 197.4 180.746 196.449 181.302 195.263C181.858 194.076 182.482 192.65 183.113 191.039C183.743 189.429 184.356 187.601 184.924 185.704C185.491 183.808 185.915 181.934 186.264 180.238C186.614 178.542 186.837 177 187.009 175.699C187.181 174.399 187.29 173.344 187.347 172.617L187.433 171.774C187.429 171.668 187.441 171.562 187.468 171.459Z" fill="#263238"/>
<path d="M67.6707 144.494C67.4729 144.48 67.279 144.432 67.0977 144.351C66.6146 144.171 66.1564 143.93 65.7339 143.635C64.3048 142.663 63.3036 141.179 62.9368 139.49C62.57 137.801 62.8656 136.035 63.7626 134.558C64.0219 134.114 64.3378 133.706 64.7024 133.343C64.9603 133.091 65.1265 132.971 65.1379 132.988C64.6934 133.511 64.2947 134.07 63.946 134.661C63.1281 136.107 62.8711 137.804 63.2241 139.427C63.5771 141.051 64.5154 142.487 65.8599 143.463C66.4335 143.857 67.0393 144.202 67.6707 144.494Z" fill="#263238"/>
<path d="M75.5212 141.559C75.3354 141.614 75.1417 141.637 74.9482 141.628C74.4246 141.637 73.9023 141.575 73.3953 141.444C72.5448 141.244 71.7438 140.873 71.0409 140.354C70.3379 139.835 69.7476 139.179 69.3056 138.425C68.8637 137.671 68.5793 136.836 68.4696 135.969C68.36 135.102 68.4274 134.222 68.6678 133.382C68.8008 132.875 69.0032 132.389 69.2695 131.938C69.3533 131.764 69.4678 131.607 69.6075 131.474C69.298 132.101 69.0505 132.758 68.8683 133.433C68.4553 135.076 68.7044 136.816 69.562 138.277C70.4195 139.738 71.8167 140.803 73.4526 141.244C74.131 141.412 74.8234 141.518 75.5212 141.559Z" fill="#263238"/>
<g opacity="0.3">
<path d="M66.2727 145.159C66.3816 145.021 66.5019 144.895 66.6108 144.758C66.4389 144.758 66.267 144.758 66.0951 144.758L66.2727 145.159Z" fill="black"/>
<path d="M96.3509 139.387C91.5915 136.502 85.9419 135.455 80.4649 136.444C74.9878 137.433 70.0609 140.389 66.6107 144.756C68.9028 144.825 71.1548 143.96 73.2005 142.894C75.3952 141.748 77.4868 140.35 79.8248 139.519C83.4979 138.212 87.5893 138.373 91.3197 139.519C95.0262 140.753 98.488 142.626 101.548 145.054C100.677 142.602 98.5914 140.745 96.3509 139.387Z" fill="black"/>
</g>
<g opacity="0.3">
<path d="M139.597 115.821C139.648 123.242 138.239 127.786 135.62 132.588C133.001 137.39 128.062 142.628 122.652 143.447C126.887 144.736 131.683 143.653 135.196 140.966C138.697 138.178 141.021 134.174 141.706 129.752C142.439 125.385 141.281 119.913 139.597 115.821Z" fill="black"/>
</g>
<g opacity="0.3">
<path d="M120.979 166.215C123.271 157.499 127.58 154.422 131.901 149.196C128.399 150.569 125.262 152.731 122.731 155.514C120.201 158.296 118.346 161.625 117.312 165.241C115.312 172.473 115.272 179.979 119.908 185.87H123.965C119.317 180.959 119.254 172.771 120.979 166.215Z" fill="black"/>
</g>
<g opacity="0.3">
<path d="M97.9492 191.325C95.9694 193.364 94.4682 195.818 93.5543 198.508C92.6405 201.199 92.337 204.06 92.6659 206.883H97.6111C96.8278 204.425 96.6438 201.815 97.0746 199.272C97.5054 196.728 98.5385 194.325 100.088 192.262C101.637 190.199 103.657 188.537 105.979 187.414C108.302 186.291 110.859 185.74 113.438 185.807C110.609 185.518 107.75 185.864 105.071 186.818C102.392 187.773 99.959 189.312 97.9492 191.325Z" fill="black"/>
</g>
<path d="M81.4748 46.8727C81.5717 46.7906 81.6774 46.7195 81.79 46.6607L82.7183 46.0877L86.1564 44.0935L91.2736 41.1654C93.3317 39.8847 95.565 38.9099 97.9035 38.2716C99.1311 37.9739 100.395 37.8542 101.657 37.9163C102.814 38.0026 103.963 38.175 105.095 38.432L110.888 39.5781L114.785 40.3574L115.839 40.5866C115.963 40.6115 116.086 40.644 116.206 40.684C116.079 40.6873 115.952 40.6738 115.828 40.6439L114.762 40.472L110.848 39.7844L105.066 38.7185C103.934 38.4717 102.785 38.307 101.628 38.2257C100.395 38.1666 99.1597 38.2863 97.9608 38.581C95.649 39.2203 93.4399 40.185 91.3996 41.4462L86.2424 44.3113L82.7584 46.2252L81.8243 46.7409C81.7124 46.7962 81.5953 46.8403 81.4748 46.8727Z" fill="#263238"/>
<path d="M68.5072 26.1104C68.3052 26.0363 68.1128 25.9382 67.9342 25.8182L66.3813 24.9644C65.0805 24.2423 63.2468 23.2911 61.1667 22.3743C59.0866 21.4574 57.1555 20.7526 55.723 20.2827L54.044 19.7097C53.8322 19.6549 53.6267 19.5781 53.4308 19.4805C53.6487 19.4915 53.8644 19.5301 54.0726 19.5951C54.4795 19.6868 55.0697 19.8415 55.7917 20.0535C59.5411 21.169 63.1369 22.7475 66.4959 24.7523C67.1377 25.142 67.642 25.4686 67.9915 25.7093C68.1781 25.8229 68.3512 25.9575 68.5072 26.1104Z" fill="#263238"/>
<path d="M73.2288 26.4794C72.6622 26.0666 72.1189 25.6228 71.6014 25.15C70.61 24.3134 69.229 23.1845 67.6532 21.9926C66.0774 20.8007 64.6047 19.7807 63.5331 19.053C62.9388 18.6832 62.3649 18.2815 61.814 17.8496C61.994 17.9066 62.1656 17.9876 62.324 18.0903C62.6449 18.2679 63.0976 18.5315 63.6477 18.8753C64.7537 19.5572 66.2493 20.5543 67.8308 21.7405C69.4124 22.9266 70.7819 24.1014 71.7389 24.9781C72.2202 25.4193 72.5984 25.7803 72.8849 26.0439C73.1714 26.3075 73.2288 26.4622 73.2288 26.4794Z" fill="#263238"/>
<path d="M78.1856 27.9518C77.0628 26.8948 76.0082 25.7675 75.0283 24.5767C73.9715 23.4501 72.9895 22.2557 72.0886 21.001C73.2134 22.0599 74.2699 23.1891 75.2517 24.3818C76.3053 25.5077 77.2852 26.7001 78.1856 27.9518Z" fill="#263238"/>
<path d="M80.3804 64.459C80.2948 64.5239 80.2002 64.576 80.0996 64.6137L79.2859 64.9976C78.8482 65.1873 78.4216 65.4016 78.008 65.6394L77.2345 66.0864C76.9419 66.2426 76.6605 66.4187 76.3921 66.6136C75.7542 67.0333 75.1419 67.4906 74.5584 67.9831C74.249 68.2524 73.8994 68.4988 73.59 68.814L72.6216 69.7538C71.2373 71.211 69.9527 72.7597 68.7766 74.3896C67.5102 76.1087 66.3526 77.8277 65.241 79.3004C64.1293 80.7731 63.0749 82.1025 62.1409 83.1626C61.403 83.995 60.6206 84.787 59.7972 85.535L59.121 86.1424C59.0428 86.2146 58.9585 86.2798 58.8689 86.3372C58.9292 86.2484 59.0005 86.1676 59.0809 86.0965L59.717 85.4547C60.29 84.9161 61.0579 84.0738 62.0091 83.0251C62.9603 81.9765 63.9688 80.6528 65.0461 79.14C66.1234 77.6272 67.2924 75.9482 68.5645 74.2119C69.7492 72.5704 71.0495 71.0155 72.4554 69.5589L73.441 68.6192C73.7619 68.3097 74.1115 68.0461 74.4324 67.7883C75.0278 67.3002 75.6537 66.8504 76.3061 66.4417C76.5815 66.2471 76.8707 66.0728 77.1714 65.9202L77.9622 65.4962C78.3814 65.2741 78.8162 65.0826 79.263 64.9231L80.1053 64.5851C80.1907 64.5304 80.2832 64.4879 80.3804 64.459Z" fill="#263238"/>
<path d="M78.7128 61.4443C78.6531 61.4783 78.5896 61.5053 78.5237 61.5246L77.9506 61.7194C77.4521 61.8913 76.7072 62.109 75.7388 62.3554C72.9929 63.0134 70.1885 63.3973 67.3668 63.5015C63.1831 63.6404 58.9949 63.5371 54.8232 63.1921C50.1187 62.8941 44.9328 62.4701 39.5119 62.8368C36.8072 63.0545 34.1369 63.3181 31.776 64.3152C29.4952 65.2375 27.3141 66.3895 25.2664 67.7534C23.4116 68.9829 21.632 70.3223 19.9372 71.7646C18.4687 73.0301 17.0649 74.3688 15.7312 75.7758C13.7935 77.8165 12.0193 80.0065 10.425 82.3255C9.85195 83.1392 9.46802 83.8154 9.17004 84.2509L8.84342 84.7494C8.76893 84.864 8.72881 84.9213 8.72308 84.9156C8.74948 84.8532 8.78211 84.7937 8.8205 84.7379L9.11847 84.2165C9.39926 83.7752 9.76026 83.0704 10.3276 82.2625C11.8957 79.9274 13.6532 77.7253 15.5822 75.6784C16.9111 74.2506 18.3131 72.8926 19.7825 71.6099C21.4788 70.1469 23.2623 68.7883 25.1232 67.5414C27.1816 66.1574 29.3786 64.9917 31.6786 64.0631C32.2516 63.7937 32.9049 63.6448 33.5295 63.427C33.8446 63.3353 34.1713 63.278 34.4922 63.1978C34.8131 63.1176 35.1454 63.0488 35.472 63.0087C36.79 62.791 38.1309 62.6592 39.4832 62.556C44.9385 62.1835 50.1358 62.6248 54.8347 62.9342C58.996 63.2942 63.1743 63.4186 67.3496 63.3067C70.1635 63.2154 72.9625 62.8605 75.7101 62.2466C76.6785 62.0174 77.4292 61.8168 77.9277 61.6735L78.5007 61.5074C78.57 61.482 78.6409 61.4609 78.7128 61.4443Z" fill="#263238"/>
<path d="M86.4889 95.3504C86.4152 95.4512 86.3285 95.5418 86.231 95.6197C86.0534 95.7917 85.7898 96.0381 85.4402 96.3418C84.7411 96.9549 83.7212 97.8202 82.3516 98.7886C80.7704 99.9245 79.1144 100.953 77.3949 101.866C77.1423 102.011 76.8702 102.119 76.587 102.187C76.431 102.228 76.2683 102.237 76.1087 102.213C75.9491 102.189 75.796 102.134 75.6587 102.049C75.3893 101.865 75.188 101.597 75.0856 101.287C74.991 100.996 74.9239 100.697 74.8851 100.393C74.6845 99.1662 74.6172 97.9212 74.6845 96.6799C74.6845 96.4048 74.7189 96.1068 74.7475 95.8547L74.9767 95.9922C73.1229 97.2493 71.4627 98.7705 70.0487 100.508L69.8997 100.691L69.8138 100.468C68.9041 98.0165 68.5555 95.3926 68.7938 92.789C68.8612 92.052 68.9799 91.3205 69.149 90.6C69.2063 90.3479 69.2694 90.1588 69.3038 90.027C69.3167 89.9608 69.3399 89.897 69.3725 89.8379C69.3438 90.0985 69.2978 90.3569 69.235 90.6115C69.1014 91.3333 69.0096 92.0623 68.9599 92.7947C68.7765 95.3706 69.1559 97.9556 70.0716 100.37L69.8367 100.33C71.2564 98.5622 72.933 97.0169 74.8106 95.7458L75.0684 95.5682L75.0398 95.8834C75.0398 96.1527 74.9939 96.422 74.9825 96.697C74.9174 97.917 74.9808 99.1405 75.1716 100.347C75.1745 100.62 75.2312 100.889 75.3384 101.14C75.4456 101.391 75.6011 101.618 75.7962 101.808C76.2202 102.095 76.7875 101.866 77.2459 101.625C78.9633 100.725 80.6226 99.7184 82.2141 98.611C83.5779 97.6712 84.6265 96.8346 85.3486 96.2558L86.1737 95.5796C86.2722 95.4946 86.3777 95.418 86.4889 95.3504Z" fill="#263238"/>
<path d="M167.263 182.845C167.217 182.845 167.584 182.06 168.025 180.783C169.184 177.435 169.528 173.86 169.028 170.353C168.839 169.013 168.627 168.199 168.672 168.182C168.767 168.362 168.835 168.555 168.873 168.755C169.024 169.273 169.146 169.799 169.24 170.33C169.854 173.857 169.503 177.484 168.225 180.828C168.032 181.334 167.812 181.83 167.566 182.313C167.491 182.503 167.388 182.683 167.263 182.845Z" fill="#263238"/>
<path d="M170.913 177.747C171.026 177.263 171.168 176.787 171.337 176.32C172.015 174.03 172.264 171.635 172.071 169.255C172.004 168.763 171.966 168.267 171.956 167.771C172.134 168.242 172.244 168.735 172.283 169.237C172.437 170.437 172.452 171.65 172.328 172.853C172.204 174.057 171.938 175.241 171.538 176.383C171.398 176.866 171.188 177.326 170.913 177.747Z" fill="#263238"/>
<path d="M174.804 170.835C174.968 170.336 175.159 169.847 175.377 169.368C176.281 167.018 176.764 164.528 176.804 162.011C176.78 161.489 176.792 160.966 176.838 160.446C176.967 160.957 177.027 161.484 177.016 162.011C177.057 163.285 176.953 164.559 176.706 165.81C176.462 167.062 176.077 168.282 175.56 169.449C175.373 169.944 175.119 170.41 174.804 170.835Z" fill="#263238"/>
<path d="M124.698 123.791C124.809 124.27 124.853 124.761 124.83 125.252C124.828 126.436 124.694 127.617 124.429 128.771C124.158 129.927 123.754 131.048 123.225 132.111C123.033 132.564 122.774 132.985 122.458 133.361C122.622 132.903 122.814 132.455 123.031 132.02C123.969 129.878 124.507 127.582 124.618 125.247C124.61 124.76 124.637 124.274 124.698 123.791Z" fill="#263238"/>
<path d="M126.733 123.791C126.782 124.884 126.73 125.979 126.578 127.063C126.522 128.155 126.371 129.241 126.125 130.306C126.076 129.213 126.128 128.118 126.28 127.034C126.332 125.942 126.484 124.856 126.733 123.791Z" fill="#263238"/>
<path d="M84.3572 81.6201C84.9074 80.5236 85.5456 79.4734 86.2654 78.4799C86.9019 77.4319 87.6225 76.4373 88.4199 75.5059C87.8697 76.6024 87.2315 77.6525 86.5118 78.6461C85.8735 79.6929 85.153 80.6874 84.3572 81.6201Z" fill="#263238"/>
<path d="M87.4227 83.0582C87.4525 82.6368 87.5553 82.2238 87.7264 81.8376C88.0735 80.8857 88.5518 79.9869 89.1475 79.1673C89.7429 78.3466 90.4487 77.6119 91.2448 76.9841C91.5583 76.7045 91.9166 76.4797 92.3049 76.3193C91.2308 77.2244 90.2533 78.2384 89.3882 79.3449C88.6039 80.5099 87.9451 81.7546 87.4227 83.0582Z" fill="#263238"/>
<path d="M107.61 66.3604C107.113 67.0725 106.416 67.6212 105.607 67.9371C104.799 68.253 103.914 68.3218 103.066 68.1349C102.218 67.948 101.445 67.5138 100.843 66.8872C100.242 66.2605 99.8405 65.4697 99.6889 64.6147C99.5373 63.7596 99.6427 62.8788 99.9918 62.0837C100.341 61.2886 100.918 60.6149 101.65 60.1479C102.382 59.6809 103.236 59.4415 104.104 59.46C104.973 59.4785 105.816 59.7541 106.527 60.252C107.479 60.9198 108.128 61.9376 108.331 63.0825C108.534 64.2274 108.275 65.4061 107.61 66.3604Z" fill="#263238"/>
<path d="M102.236 63.2846C101.966 63.5998 101.09 63.2846 100.133 62.7116C99.1756 62.1386 98.4765 61.5312 98.6255 61.1415C98.7745 60.7518 99.8174 60.7977 100.883 61.4223C101.949 62.0469 102.499 62.9752 102.236 63.2846Z" fill="white"/>
<path d="M155.642 85.6207C155.602 85.6894 151.539 83.6036 146.565 80.9562C141.591 78.3088 137.591 76.1026 137.632 76.0339C137.672 75.9651 141.734 78.0452 146.708 80.6926C151.682 83.34 155.676 85.5462 155.642 85.6207Z" fill="#263238"/>
<path d="M155.218 71.8159C154.985 71.8664 154.746 71.8876 154.507 71.8789L152.582 71.9477C150.955 72.005 148.708 72.0852 146.233 72.217C143.757 72.3488 141.511 72.5035 139.889 72.6238L137.964 72.7556C137.728 72.7841 137.49 72.7841 137.254 72.7556C137.482 72.6912 137.716 72.649 137.953 72.6296C138.405 72.5665 139.059 72.4863 139.872 72.4004C141.488 72.2285 143.734 72.0394 146.216 71.9076C148.697 71.7758 150.949 71.7242 152.582 71.7299C153.396 71.7299 154.055 71.7299 154.507 71.7299C154.746 71.7369 154.984 71.7656 155.218 71.8159Z" fill="#263238"/>
<path d="M102.723 81.1221C102.951 81.0648 103.186 81.0359 103.422 81.0362C103.874 81.0018 104.533 80.9445 105.336 80.8528C109.544 80.3868 113.645 79.225 117.472 77.4146C118.206 77.0708 118.796 76.7728 119.191 76.5665C119.395 76.4423 119.612 76.3423 119.839 76.2686C119.661 76.4177 119.469 76.55 119.266 76.6639C118.882 76.9103 118.303 77.237 117.576 77.6037C113.77 79.5384 109.625 80.7157 105.37 81.0705C104.556 81.1393 103.897 81.168 103.439 81.1622C103.199 81.1766 102.959 81.1631 102.723 81.1221Z" fill="#263238"/>
<g opacity="0.3">
<path d="M81.4748 46.873C87.2051 43.75 94.6544 38.8506 99.6111 38.0598C93.7204 35.6989 86.718 40.925 80.3803 41.2974C70.4784 41.8705 66.5589 37.6874 57.6655 33.275C56.5194 32.8281 52.1587 29.9916 52.3535 30.6506C56.995 33.9455 62.0377 37.3206 66.9485 40.2373L78.6612 47.1652L81.4748 46.873Z" fill="black"/>
</g>
<path d="M40.5662 80.8752C40.754 80.698 40.9594 80.5405 41.1794 80.4053L42.8984 79.1905C44.3482 78.1533 46.3366 76.6863 48.4282 74.9558C50.5197 73.2252 52.3477 71.5634 53.637 70.3314L55.1613 68.8702C55.3338 68.6789 55.5259 68.506 55.7343 68.3545C55.589 68.5611 55.424 68.753 55.2415 68.9275C54.9091 69.3 54.4106 69.8272 53.7803 70.4632C52.5196 71.7296 50.7203 73.4258 48.623 75.1621C46.5257 76.8983 44.5087 78.3481 43.0245 79.3394C42.2796 79.838 41.6722 80.2219 41.2424 80.4855C41.031 80.6383 40.8044 80.7689 40.5662 80.8752Z" fill="#263238"/>
<path d="M35.3345 72.0613C35.6045 71.9354 35.8868 71.8374 36.1768 71.7691C36.7498 71.5972 37.5177 71.3679 38.5033 71.0929C40.4745 70.5542 43.2136 69.8609 46.2679 69.2019C49.3221 68.5429 52.107 68.0558 54.1241 67.7349C55.1383 67.5802 55.9578 67.4656 56.5251 67.3969C56.8158 67.3405 57.1114 67.3136 57.4075 67.3166C57.1246 67.4038 56.8353 67.469 56.5423 67.5115L54.1642 67.947C52.1529 68.3137 49.3794 68.8409 46.3309 69.4941C43.2824 70.1474 40.5662 70.8064 38.5549 71.2992L36.2055 71.8722C35.9209 71.9594 35.6296 72.0226 35.3345 72.0613Z" fill="#263238"/>
<g opacity="0.3">
<path d="M180.288 197.67C183.898 195.103 187.027 191.699 188.585 187.556C190.144 183.413 189.531 180.577 187.027 176.927C185.451 184.949 184.196 190.754 180.288 197.67Z" fill="black"/>
</g>
<path d="M204.785 195.062C204.78 195.563 204.695 196.06 204.533 196.534C203.836 198.877 202.326 200.895 200.275 202.225C199.867 202.515 199.414 202.738 198.934 202.884C198.934 202.838 199.416 202.58 200.155 202.047C202.093 200.665 203.553 198.715 204.332 196.466C204.63 195.612 204.733 195.05 204.785 195.062Z" fill="#263238"/>
<path d="M207.472 192.667C207.583 193.011 207.629 193.372 207.61 193.733C207.617 194.608 207.493 195.479 207.243 196.317C206.992 197.154 206.62 197.949 206.137 198.678C205.956 198.993 205.717 199.272 205.432 199.497C206.051 198.464 206.562 197.369 206.957 196.231C207.252 195.064 207.425 193.87 207.472 192.667Z" fill="#263238"/>
</svg>
