<svg width="1000" height="1000" viewBox="0 0 1000 1000" fill="none" xmlns="http://www.w3.org/2000/svg">
<path d="M439.312 264.74C437.703 263.471 435.825 262 433.899 260.514C431.258 258.477 428.554 256.433 426.34 254.847C425.23 254.052 424.279 253.398 423.539 252.926C423.509 252.907 423.48 252.888 423.451 252.871C423.264 252.964 423.049 253.073 422.806 253.2C421.887 253.679 420.788 254.287 419.448 255.027C418.589 255.501 417.631 256.031 416.56 256.615C411.194 259.543 403.606 263.504 394.116 267.295C375.135 274.876 348.513 281.788 316.612 278.484L316.611 278.484C301.363 276.902 282.506 270.592 262.283 262.934C254.956 260.16 247.449 257.208 239.817 254.207C226.151 248.834 212.088 243.304 197.957 238.359C175.99 230.672 154.349 224.584 134.769 222.952C115.197 221.32 98.1381 224.177 84.8716 233.861C64.6356 248.653 59.3527 273.777 63.775 295.058C65.9798 305.668 70.5441 314.976 76.5113 321.276C82.4342 327.53 89.5539 330.678 97.2697 329.714L439.312 264.74ZM439.312 264.74C434.809 267.26 429.81 270.33 424.423 273.639C422.723 274.683 420.985 275.751 419.211 276.832C409.297 282.878 398.037 289.519 385.529 295.456C360.515 307.329 330.715 316.288 297.24 311.964M439.312 264.74L297.24 311.964M297.24 311.964C274.008 308.943 244.997 295.887 216.513 283.068C214.688 282.246 212.865 281.426 211.047 280.61C196.098 273.898 181.458 267.47 168.334 263.057C155.333 258.686 143.2 256.068 133.457 257.53C124.518 258.867 119.963 265.297 117.524 272.674C115.346 279.262 114.553 287.448 113.804 295.172C113.738 295.863 113.671 296.549 113.604 297.231C112.753 305.863 111.805 313.77 109.315 319.762C108.099 322.69 106.59 324.958 104.716 326.582C102.881 328.173 100.512 329.308 97.2703 329.714L297.24 311.964Z" fill="#CDCACA" stroke="#363A5A" stroke-width="8"/>
<path d="M424.697 631.564L424.671 631.437L424.636 631.312C424.38 630.386 423.874 629.534 423.503 628.955C423.074 628.286 422.537 627.548 421.94 626.774C420.744 625.224 419.145 623.32 417.312 621.192C415.893 619.543 414.335 617.76 412.677 615.864C409.973 612.771 407.004 609.374 403.937 605.758C399.028 599.97 394.045 593.823 389.954 587.998C385.808 582.096 382.804 576.837 381.574 572.781C381.012 570.928 380.47 566.919 380.046 560.877C379.631 554.978 379.348 547.51 379.182 539.003C378.851 521.995 378.989 500.978 379.455 480.34C379.922 459.701 380.714 439.489 381.687 424.092C382.173 416.385 382.702 409.935 383.251 405.257C383.527 402.909 383.799 401.08 384.06 399.79C384.131 399.436 384.197 399.145 384.256 398.911C384.278 398.908 384.301 398.906 384.326 398.904C385.007 398.836 386.133 398.912 387.788 399.304C391.077 400.084 395.552 401.887 400.926 404.626C411.615 410.075 425.091 418.828 438.333 428.92C451.573 439.008 464.42 450.313 473.904 460.806C478.65 466.056 482.472 471.015 485.082 475.443C487.743 479.956 488.897 483.509 488.885 486.054C488.854 492.645 486.607 502.683 483.03 514.493C479.49 526.18 474.78 539.189 470.081 551.55C467.356 558.719 464.694 565.519 462.261 571.735C460.455 576.348 458.775 580.64 457.289 584.521C455.578 588.991 454.151 592.848 453.185 595.791C452.704 597.256 452.312 598.571 452.058 599.659C451.931 600.202 451.822 600.756 451.76 601.284C451.706 601.74 451.645 602.495 451.807 603.301C452.363 606.058 453.767 614.557 454.833 622.885C455.366 627.043 455.805 631.086 456.014 634.307C456.118 635.923 456.161 637.265 456.138 638.279C456.116 639.205 456.042 639.552 456.052 639.554C456.052 639.554 456.053 639.554 456.053 639.554C455.749 640.259 454.624 642.287 452.741 645.366C450.869 648.426 448.44 652.219 445.849 656.09C440.554 664 434.935 671.702 431.993 674.493C430.972 675.462 429 676.522 426.109 677.482C423.315 678.409 420.046 679.119 416.806 679.611C413.574 680.101 410.473 680.359 408.047 680.415C407.13 680.436 406.341 680.428 405.699 680.397C405.696 680.352 405.694 680.305 405.692 680.257C405.631 678.736 405.791 676.621 406.122 674.319C406.449 672.046 406.918 669.761 407.406 667.95C407.651 667.041 407.885 666.308 408.088 665.781C408.199 665.494 408.274 665.338 408.304 665.277C409.777 663.533 412.498 660.963 415.41 658.214C415.91 657.743 416.415 657.266 416.92 656.787C418.602 655.193 420.262 653.596 421.546 652.235C422.185 651.558 422.794 650.874 423.284 650.232C423.656 649.746 424.386 648.759 424.67 647.573L424.685 647.513L424.697 647.453C425.786 642.212 425.786 636.804 424.697 631.564ZM383.886 398.986C383.876 398.991 383.87 398.993 383.869 398.993C383.869 398.993 383.874 398.99 383.886 398.986ZM384.457 398.251C384.457 398.251 384.451 398.265 384.44 398.29C384.451 398.262 384.456 398.25 384.457 398.251ZM405.851 681.601C405.851 681.599 405.85 681.598 405.85 681.596C405.884 681.676 405.879 681.691 405.851 681.601Z" fill="#CDCACA" stroke="#363A5A" stroke-width="8"/>
<path d="M431.833 666.757C433.391 663.427 435.53 660.409 438.145 657.843C436.403 660.777 434.856 663.788 433.387 666.835C432.008 669.194 431.192 671.823 430.983 674.517C430.696 671.913 430.98 669.263 431.833 666.757ZM439.752 655.908L439.752 655.908L439.752 655.908Z" fill="#263238" stroke="#363A5A"/>
<path d="M419.67 672.135C419.341 673.455 419.199 674.834 419.502 676.119C419.019 675.14 418.836 674.014 418.853 672.821C418.88 670.902 419.427 668.875 420.013 667.174C421.366 663.682 423.354 660.48 425.869 657.726C424.38 660.578 423.034 663.504 421.838 666.492C421.714 666.782 421.577 667.09 421.435 667.413C420.82 668.804 420.084 670.471 419.67 672.135Z" fill="#263238" stroke="#363A5A"/>
<path d="M575.705 630.341L575.669 630.469L575.642 630.6C574.554 635.847 574.554 641.261 575.642 646.508L575.655 646.569L575.669 646.629C575.842 647.348 576.158 647.927 576.36 648.266C576.59 648.652 576.853 649.021 577.108 649.353C577.619 650.017 578.259 650.741 578.938 651.468C580.304 652.93 582.063 654.648 583.823 656.333C584.681 657.155 585.511 657.943 586.314 658.705C587.226 659.57 588.103 660.402 588.943 661.21C590.531 662.738 591.635 663.85 592.132 664.448L592.14 664.458C593.49 666.075 595.198 669.839 596.179 673.626C596.567 675.124 596.784 676.418 596.848 677.39C596.02 677.443 594.976 677.471 593.754 677.468C590.877 677.461 587.224 677.283 583.519 676.924C579.8 676.563 576.14 676.03 573.214 675.339C571.748 674.993 570.557 674.628 569.673 674.265C568.917 673.955 568.602 673.733 568.53 673.682C568.51 673.668 568.509 673.667 568.523 673.682L568.502 673.66L568.481 673.638C565.6 670.632 559.913 662.824 554.597 654.987C551.979 651.127 549.516 647.358 547.619 644.318C545.695 641.236 544.578 639.251 544.293 638.583C544.294 638.583 544.294 638.583 544.294 638.583C544.304 638.581 544.23 638.229 544.21 637.291C544.189 636.272 544.233 634.926 544.339 633.308C544.551 630.083 544.991 626.036 545.524 621.876C546.59 613.547 547.989 605.041 548.536 602.275C548.694 601.472 548.632 600.718 548.577 600.264C548.514 599.738 548.404 599.185 548.277 598.642C548.021 597.555 547.628 596.241 547.146 594.776C546.177 591.833 544.748 587.976 543.035 583.505C541.575 579.696 539.924 575.478 538.149 570.945C535.688 564.661 532.991 557.771 530.239 550.528C525.542 538.165 520.837 525.154 517.307 513.465C513.741 501.654 511.51 491.618 511.5 485.032C511.496 482.483 512.66 478.927 515.325 474.416C517.941 469.988 521.766 465.032 526.512 459.785C535.996 449.299 548.836 438.002 562.064 427.919C575.296 417.833 588.758 409.083 599.436 403.629C604.805 400.887 609.276 399.08 612.565 398.295C614.218 397.9 615.345 397.82 616.028 397.886C616.049 397.887 616.069 397.89 616.087 397.892C616.146 398.123 616.21 398.409 616.28 398.755C616.541 400.046 616.813 401.875 617.089 404.223C617.638 408.901 618.166 415.352 618.653 423.059C619.625 438.458 620.418 458.674 620.884 479.319C621.351 499.965 621.489 520.993 621.158 538.017C620.992 546.532 620.709 554.009 620.294 559.92C619.87 565.971 619.328 569.996 618.764 571.867C617.533 575.949 614.529 581.22 610.385 587.123C606.295 592.948 601.314 599.087 596.405 604.864C593.305 608.512 590.3 611.94 587.569 615.054C585.948 616.904 584.423 618.644 583.032 620.253C581.199 622.375 579.6 624.272 578.404 625.816C577.808 626.586 577.27 627.321 576.841 627.988C576.47 628.564 575.962 629.415 575.705 630.341ZM616.486 397.973C616.485 397.974 616.48 397.971 616.469 397.966C616.481 397.971 616.486 397.973 616.486 397.973ZM615.883 397.216C615.883 397.216 615.889 397.228 615.9 397.256C615.888 397.231 615.883 397.217 615.883 397.216Z" fill="#CDCACA" stroke="#363A5A" stroke-width="8"/>
<g opacity="0.1">
<path d="M575.705 630.341L575.669 630.469L575.642 630.6C574.554 635.847 574.554 641.261 575.642 646.508L575.655 646.569L575.669 646.629C575.842 647.348 576.158 647.927 576.36 648.266C576.59 648.652 576.853 649.021 577.108 649.353C577.619 650.017 578.259 650.741 578.938 651.468C580.304 652.93 582.063 654.648 583.823 656.333C584.681 657.155 585.511 657.943 586.314 658.705C587.226 659.57 588.103 660.402 588.943 661.21C590.531 662.738 591.635 663.85 592.132 664.448L592.14 664.458C593.49 666.075 595.198 669.839 596.179 673.626C596.567 675.124 596.784 676.418 596.848 677.39C596.02 677.443 594.976 677.471 593.754 677.468C590.877 677.461 587.224 677.283 583.519 676.924C579.8 676.563 576.14 676.03 573.214 675.339C571.748 674.993 570.557 674.628 569.673 674.265C568.917 673.955 568.602 673.733 568.53 673.682C568.51 673.668 568.509 673.667 568.523 673.682L568.502 673.66L568.481 673.638C565.6 670.632 559.913 662.824 554.597 654.987C551.979 651.127 549.516 647.358 547.619 644.318C545.695 641.236 544.578 639.251 544.293 638.583C544.294 638.583 544.294 638.583 544.294 638.583C544.304 638.581 544.23 638.229 544.21 637.291C544.189 636.272 544.233 634.926 544.339 633.308C544.551 630.083 544.991 626.036 545.524 621.876C546.59 613.547 547.989 605.041 548.536 602.275C548.694 601.472 548.632 600.718 548.577 600.264C548.514 599.738 548.404 599.185 548.277 598.642C548.021 597.555 547.628 596.241 547.146 594.776C546.177 591.833 544.748 587.976 543.035 583.505C541.575 579.696 539.924 575.478 538.149 570.945C535.688 564.66 532.991 557.771 530.239 550.528C525.542 538.165 520.837 525.154 517.307 513.465C513.741 501.654 511.51 491.618 511.5 485.032C511.496 482.483 512.66 478.927 515.325 474.416C517.941 469.988 521.766 465.032 526.512 459.785C535.996 449.299 548.836 438.002 562.064 427.919C575.296 417.833 588.758 409.083 599.436 403.629C604.805 400.887 609.276 399.08 612.565 398.295C614.218 397.9 615.345 397.82 616.028 397.886C616.049 397.887 616.069 397.89 616.087 397.892C616.146 398.123 616.21 398.409 616.28 398.755C616.541 400.046 616.813 401.875 617.089 404.223C617.638 408.901 618.166 415.352 618.653 423.059C619.625 438.458 620.418 458.674 620.884 479.319C621.351 499.965 621.489 520.993 621.158 538.017C620.992 546.532 620.709 554.009 620.294 559.919C619.87 565.971 619.328 569.996 618.764 571.867C617.533 575.949 614.529 581.22 610.385 587.123C606.295 592.948 601.314 599.087 596.405 604.864C593.305 608.512 590.3 611.939 587.57 615.054C585.948 616.904 584.423 618.644 583.032 620.253C581.199 622.375 579.6 624.272 578.404 625.816C577.808 626.586 577.27 627.321 576.841 627.988C576.47 628.564 575.962 629.415 575.705 630.341ZM616.486 397.973C616.485 397.974 616.48 397.971 616.469 397.966C616.481 397.971 616.486 397.973 616.486 397.973ZM615.883 397.216C615.884 397.216 615.889 397.228 615.9 397.256C615.888 397.231 615.883 397.217 615.883 397.216Z" fill="black" stroke="#363A5A" stroke-width="8"/>
</g>
<mask id="path-7-inside-1_215_5136" fill="white">
<path d="M573.613 660.619C573.499 660.619 573.316 660.619 573.407 660.824C575.822 664.264 578.123 667.795 580.242 671.463C582.418 674.59 583.514 678.342 583.363 682.148C583.363 682.196 583.382 682.243 583.417 682.277C583.451 682.311 583.497 682.33 583.545 682.33C583.594 682.33 583.64 682.311 583.674 682.277C583.708 682.243 583.728 682.196 583.728 682.148C584.618 678.343 584.275 674.354 582.748 670.757C580.492 666.742 577.372 663.279 573.613 660.619Z"/>
</mask>
<path d="M573.613 660.619C573.499 660.619 573.316 660.619 573.407 660.824C575.822 664.264 578.123 667.795 580.242 671.463C582.418 674.59 583.514 678.342 583.363 682.148C583.363 682.196 583.382 682.243 583.417 682.277C583.451 682.311 583.497 682.33 583.545 682.33C583.594 682.33 583.64 682.311 583.674 682.277C583.708 682.243 583.728 682.196 583.728 682.148C584.618 678.343 584.275 674.354 582.748 670.757C580.492 666.742 577.372 663.279 573.613 660.619Z" fill="#263238"/>
<path d="M573.613 660.619L579.389 652.456L576.793 650.619H573.613V660.619ZM573.407 660.824L564.269 664.886L564.664 665.774L565.223 666.57L573.407 660.824ZM580.242 671.463L571.583 676.465L571.793 676.83L572.034 677.175L580.242 671.463ZM583.363 682.148L573.371 681.753L573.363 681.95V682.148H583.363ZM583.545 682.33V692.33V682.33ZM583.728 682.148L573.991 679.868L573.728 680.993V682.148H583.728ZM582.748 670.757L591.953 666.848L591.737 666.34L591.466 665.859L582.748 670.757ZM573.613 650.619C573.61 650.619 573.57 650.619 573.524 650.619C573.475 650.62 573.402 650.621 573.313 650.623C573.143 650.627 572.86 650.638 572.514 650.673C572.001 650.725 570.465 650.901 568.754 651.807C566.686 652.902 564.338 655.127 563.598 658.652C562.978 661.609 563.846 663.932 564.269 664.886L582.546 656.763C582.924 657.614 583.78 659.86 583.172 662.759C582.444 666.227 580.132 668.413 578.112 669.483C576.45 670.362 574.975 670.526 574.526 670.572C573.974 670.627 573.505 670.619 573.613 670.619V650.619ZM565.223 666.57C567.507 669.823 569.641 673.103 571.583 676.465L588.901 666.461C586.606 662.487 584.138 658.705 581.592 655.079L565.223 666.57ZM572.034 677.175C572.966 678.515 573.435 680.122 573.371 681.753L593.355 682.543C593.592 676.561 591.87 670.666 588.45 665.752L572.034 677.175ZM573.363 682.148C573.363 684.849 574.436 687.439 576.345 689.348L590.488 675.206C592.328 677.047 593.363 679.544 593.363 682.148H573.363ZM576.345 689.348C578.253 691.256 580.842 692.33 583.545 692.33V672.33C586.152 672.33 588.648 673.366 590.488 675.206L576.345 689.348ZM583.545 692.33C586.248 692.33 588.838 691.256 590.745 689.348L576.603 675.206C578.443 673.366 580.939 672.33 583.545 672.33V692.33ZM590.745 689.348C592.655 687.439 593.728 684.849 593.728 682.148H573.728C573.728 679.544 574.762 677.047 576.603 675.206L590.745 689.348ZM593.464 684.428C594.839 678.556 594.31 672.399 591.953 666.848L573.544 674.666C574.241 676.308 574.398 678.131 573.991 679.868L593.464 684.428ZM591.466 665.859C588.484 660.551 584.359 655.973 579.389 652.456L567.836 668.782C570.385 670.586 572.501 672.933 574.03 675.655L591.466 665.859Z" fill="#363A5A" mask="url(#path-7-inside-1_215_5136)"/>
<path d="M595.611 676.149C595.712 677.375 595.596 678.546 595.146 679.583C595.373 678.245 595.122 676.841 594.685 675.513C594.158 673.915 593.329 672.334 592.63 671.004C592.451 670.663 592.281 670.338 592.126 670.033C590.697 667.095 589.118 664.232 587.396 661.457C590.161 664.061 592.425 667.159 594.07 670.598C594.768 672.255 595.453 674.237 595.611 676.149Z" fill="#263238" stroke="#363A5A"/>
<path d="M618.634 650.27C616.068 648.61 613.824 647.154 612.004 645.971L717.095 576.624C717.323 577.824 717.581 579.177 717.865 580.655C719.021 586.668 720.608 594.761 722.334 603.07C724.057 611.372 725.926 619.927 727.645 626.851C728.503 630.308 729.335 633.405 730.103 635.879C730.817 638.183 731.614 640.426 732.501 641.803C733.27 642.996 735.222 645.234 737.658 647.916C740.215 650.73 743.615 654.361 747.563 658.513C755.461 666.821 765.608 677.273 775.719 687.575C785.832 697.878 795.92 708.044 803.705 715.781C807.596 719.647 810.92 722.917 813.388 725.297C814.62 726.485 815.654 727.465 816.444 728.193C817.101 728.797 817.889 729.512 818.457 729.881C819.48 730.546 820.845 730.965 821.911 731.255C823.13 731.586 824.605 731.909 826.21 732.227C828.643 732.708 831.561 733.214 834.616 733.744C835.583 733.911 836.563 734.082 837.546 734.254C841.682 734.979 845.919 735.755 849.68 736.61C853.51 737.481 856.564 738.374 858.47 739.264C860.238 740.089 862.444 741.712 864.817 743.919C867.145 746.086 869.449 748.641 871.418 751.122C872.698 752.736 873.797 754.269 874.652 755.597C873.99 755.589 873.273 755.574 872.506 755.553C868.408 755.444 863.098 755.18 857.705 754.864C846.904 754.229 835.97 753.396 834.08 753.21L834.08 753.21C834.089 753.211 834.084 753.211 834.064 753.207C834.04 753.204 833.996 753.196 833.928 753.183C833.807 753.159 833.643 753.122 833.431 753.067C833.004 752.958 832.449 752.797 831.76 752.579C830.382 752.141 828.586 751.512 826.408 750.706C822.059 749.097 816.33 746.833 809.659 744.119C796.323 738.692 779.342 731.511 762.351 724.263C754.186 720.78 746.007 717.276 738.236 713.947C729.864 710.36 721.967 706.977 715.073 704.042C708.417 701.209 702.664 698.779 698.281 696.969C694.008 695.205 690.793 693.927 689.392 693.51C688.713 693.307 686.915 692.469 683.922 690.834C681.071 689.278 677.462 687.184 673.348 684.724C665.126 679.806 655.006 673.495 645.151 667.255C635.301 661.017 625.737 654.864 618.634 650.27ZM879.059 755.484C879.06 755.484 879.04 755.488 878.996 755.495C879.035 755.486 879.057 755.483 879.059 755.484Z" fill="#CDCACA" stroke="#363A5A" stroke-width="8"/>
<path d="M852.131 743.26C854.26 745.785 856.319 748.385 858.254 751.071C860.072 753.18 861.365 755.672 862.049 758.341C861.869 755.658 861.089 753.035 859.75 750.671L852.131 743.26ZM852.131 743.26C855.15 745.35 857.977 747.552 859.75 750.671L852.131 743.26Z" fill="#263238" stroke="#363A5A"/>
<path d="M869.56 748.721C867.856 745.981 866.012 743.332 864.036 740.783C867.004 743.061 869.532 745.873 871.485 749.081C872.352 750.648 873.242 752.548 873.602 754.437C873.823 755.594 873.841 756.723 873.55 757.763C873.613 756.456 873.232 755.137 872.682 753.906C871.989 752.357 870.986 750.858 870.145 749.602C869.938 749.293 869.74 748.998 869.56 748.721Z" fill="#263238" stroke="#363A5A"/>
<path d="M438.608 602.849L438.605 602.842L438.601 602.836C435.908 597.714 434.415 589.588 433.894 579.754C433.381 570.052 433.834 559.201 434.682 548.985C435.529 538.785 436.762 529.305 437.785 522.37C438.296 518.904 438.754 516.08 439.083 514.126C439.129 513.855 439.172 513.601 439.213 513.364C439.742 513.352 440.414 513.369 441.241 513.431C444.165 513.648 448.292 514.356 453.296 515.521C463.263 517.841 476.19 521.849 488.874 526.794C501.589 531.752 513.843 537.568 522.572 543.445C526.953 546.394 530.24 549.223 532.273 551.806C534.331 554.42 534.705 556.247 534.471 557.472C532.422 568.198 524.365 585.359 516.364 601.09C514.014 605.71 511.741 610.072 509.659 614.067C508.205 616.856 506.845 619.466 505.616 621.861C504.149 624.722 502.887 627.245 501.957 629.261C501.492 630.268 501.09 631.192 500.781 631.995C500.497 632.732 500.196 633.608 500.068 634.434C499.898 635.539 499.841 637.622 499.822 640.033C499.802 642.581 499.825 645.864 499.881 649.612C499.991 657.112 500.231 666.551 500.513 675.858C500.796 685.168 501.121 694.361 501.403 701.373C501.543 704.877 501.674 707.846 501.783 710.015C501.837 711.098 501.887 711.994 501.931 712.665C501.964 713.17 502.009 713.848 502.088 714.293C502.247 715.189 502.659 715.848 502.825 716.104C503.046 716.444 503.29 716.748 503.498 716.991C503.918 717.481 504.437 718.006 504.958 718.51C505.702 719.232 506.637 720.089 507.596 720.97C507.972 721.315 508.352 721.663 508.726 722.009C510.101 723.28 511.469 724.573 512.618 725.784C513.825 727.054 514.552 727.99 514.856 728.551L514.885 728.604L514.915 728.657C514.911 728.65 514.914 728.66 514.924 728.689C514.971 728.836 515.179 729.477 515.359 730.808C515.547 732.194 515.649 733.879 515.639 735.537C515.63 737.009 515.532 738.333 515.37 739.335C514.301 739.259 512.879 739.072 511.169 738.779C507.609 738.169 503.123 737.159 498.656 736.004C494.192 734.849 489.834 733.572 486.533 732.447C484.872 731.88 483.553 731.377 482.644 730.969C482.472 730.892 482.325 730.823 482.203 730.763C482.19 730.731 482.177 730.698 482.163 730.663C481.999 730.253 481.812 729.727 481.609 729.092C481.202 727.823 480.769 726.25 480.342 724.544C479.488 721.133 478.704 717.374 478.253 714.832L478.251 714.824C475.303 698.418 467.759 674.988 459.841 653.535C451.918 632.065 443.476 612.188 438.608 602.849ZM516.75 739.354C516.772 739.349 516.784 739.348 516.784 739.348C516.783 739.349 516.773 739.351 516.75 739.354ZM481.695 730.479C481.697 730.478 481.726 730.496 481.773 730.532C481.716 730.497 481.693 730.479 481.695 730.479Z" fill="#CDCACA" stroke="#363A5A" stroke-width="8"/>
<path opacity="0.1" d="M605.71 645.878L719.698 570.735C719.774 571.152 719.881 571.735 720.016 572.466C720.309 574.049 720.732 576.323 721.254 579.087C722.3 584.615 723.744 592.104 725.339 599.945C726.934 607.786 728.681 615.982 730.332 622.926C731.884 629.454 733.359 634.913 734.551 637.919L636.569 665.84C628.112 660.453 620.265 655.375 614.519 651.636C611.625 649.753 609.264 648.209 607.627 647.136C606.808 646.6 606.17 646.181 605.737 645.896L605.71 645.878Z" fill="black" stroke="#363A5A"/>
<path d="M606.363 362.859C600.894 345.75 594.9 332.389 588.2 325.05C573.562 309.015 547.254 281.58 516.772 262.47C486.162 243.28 452.542 233.193 422.405 249.517C394.328 264.726 382.397 294.427 378.471 326.538C374.552 358.588 378.746 392.081 382.029 413.44L606.363 362.859ZM606.363 362.859C611.781 379.809 616.505 399.826 620.946 419.983M606.363 362.859L620.946 419.983M620.946 419.983C622.232 425.817 623.495 431.669 624.744 437.456M620.946 419.983L624.744 437.456M624.744 437.456C627.794 451.585 630.762 465.332 633.773 477.517M624.744 437.456L633.773 477.517M633.773 477.517C637.493 492.567 641.396 505.758 645.841 514.539M633.773 477.517L645.841 514.539M645.841 514.539C645.532 514.762 645.2 515.001 644.845 515.256C642.386 517.026 638.855 519.547 634.575 522.55C626.011 528.558 614.466 536.483 602.512 544.17C590.535 551.872 578.246 559.271 568.172 564.269C563.119 566.776 558.767 568.606 555.368 569.59C553.667 570.082 552.338 570.323 551.36 570.373C550.434 570.421 550.107 570.284 550.106 570.286C550.106 570.286 550.11 570.288 550.117 570.292C547.71 568.967 544.186 568.239 540.446 567.748C536.545 567.237 531.806 566.919 526.581 566.695C520.902 566.452 514.401 566.312 507.614 566.167C502.062 566.048 496.32 565.925 490.68 565.738C477.943 565.314 465.373 564.558 455.13 562.811C450.009 561.938 445.605 560.84 442.115 559.475C438.57 558.089 436.325 556.566 435.114 555.065C431.742 550.883 427.159 542.973 422.007 532.432C416.898 521.979 411.353 509.199 406.025 495.472C395.347 467.962 385.656 436.947 382.029 413.442L645.841 514.539Z" fill="#CDCACA" stroke="#363A5A" stroke-width="8"/>
<path d="M599.256 485.131C612.594 485.131 590.818 352.237 568.609 352.237C569.349 351.077 475.747 248.005 437.999 269C402.693 288.637 450.022 404.203 453.536 428.193C457.477 454.991 474.479 498.377 482.323 508.585C490.167 518.794 537.147 513.511 544.347 517.671C551.547 521.831 599.256 485.131 599.256 485.131Z" fill="#ADADAD"/>
<path d="M489.765 724.791C488.282 721.658 486.661 718.587 484.94 715.579C487.674 718.188 489.9 721.29 491.499 724.729C492.331 727.325 492.56 730.062 492.188 732.736C492.012 729.95 491.189 727.227 489.765 724.791Z" fill="#263238" stroke="#363A5A"/>
<path d="M501.312 724.564C500.139 721.556 498.814 718.61 497.342 715.738C499.84 718.53 501.806 721.765 503.133 725.283C503.696 726.974 504.227 729.001 504.238 730.919C504.245 732.116 504.05 733.246 503.552 734.224C503.874 732.937 503.747 731.555 503.43 730.228C503.033 728.563 502.313 726.894 501.71 725.496C501.569 725.17 501.434 724.858 501.312 724.564Z" fill="#263238" stroke="#363A5A"/>
<path d="M430.944 470.352C430.992 469.66 431.04 468.968 431.088 468.277C431.114 468.705 431.141 469.134 431.168 469.562C431.526 475.332 431.887 481.15 431.887 486.93C431.887 490.128 431.751 493.352 431.547 496.557L431.546 496.57L431.546 496.583C431.518 498.951 431.313 501.313 430.934 503.649C430.81 502.741 430.739 501.826 430.723 500.909L430.723 500.898L430.722 500.888C430.686 500.28 430.625 499.67 430.565 499.072C430.548 498.908 430.532 498.745 430.516 498.583C430.442 497.825 430.381 497.087 430.381 496.361V496.341L430.38 496.321C430.131 493.224 430.131 490.124 430.131 487C430.171 481.459 430.558 475.9 430.944 470.352Z" fill="#263238" stroke="#363A5A"/>
<path d="M714.805 409.376C719.966 416.305 724.262 427.195 727.641 440.348C731.37 454.86 733.844 471.555 735.288 487.405C736.732 503.251 737.136 518.129 736.764 528.974C736.577 534.421 736.198 538.721 735.692 541.578C735.63 541.932 735.567 542.25 735.506 542.535C734.423 542.121 733.104 541.503 731.558 540.675C728.387 538.977 724.509 536.527 720.15 533.521C711.447 527.52 701.11 519.498 691.189 511.367C681.277 503.243 671.842 495.06 664.954 488.762C661.504 485.606 658.731 482.959 656.866 481.044C656.533 480.703 656.237 480.392 655.977 480.114C656.328 479.624 656.74 479.057 657.209 478.418C658.919 476.093 661.334 472.898 664.235 469.131C670.035 461.602 677.734 451.846 685.524 442.306C693.324 432.753 701.171 423.473 707.281 416.867C710.353 413.545 712.89 411.005 714.716 409.452C714.746 409.426 714.776 409.401 714.805 409.376ZM734.963 544.389C734.963 544.389 734.966 544.383 734.972 544.372C734.966 544.384 734.963 544.39 734.963 544.389ZM654.682 482.016C654.681 482.017 654.69 482 654.712 481.963C654.694 481.997 654.684 482.015 654.682 482.016ZM716.484 408.144C716.484 408.145 716.474 408.15 716.455 408.158C716.475 408.148 716.484 408.144 716.484 408.144Z" fill="#CDCACA" stroke="#363A5A" stroke-width="8"/>
<path opacity="0.1" d="M716.602 425.249C722.181 431.508 726.504 442.195 729.743 454.784C732.981 467.368 735.118 481.78 736.363 495.404C737.609 509.028 737.962 521.847 737.639 531.24C737.477 535.94 737.146 539.765 736.676 542.401C736.441 543.723 736.176 544.716 735.894 545.364C735.752 545.69 735.619 545.897 735.507 546.014C735.453 546.071 735.413 546.097 735.39 546.109C735.37 546.118 735.361 546.118 735.358 546.118L716.602 425.249ZM716.602 425.249C716.593 425.249 716.579 425.249 716.559 425.251C716.457 425.26 716.286 425.311 716.032 425.44C715.529 425.697 714.845 426.19 713.993 426.915C712.298 428.356 710.036 430.628 707.395 433.482C702.116 439.184 695.371 447.159 688.7 455.326C682.031 463.49 675.443 471.84 670.482 478.288C668.001 481.512 665.928 484.259 664.456 486.27C663.719 487.275 663.135 488.093 662.726 488.693C662.521 488.994 662.363 489.235 662.253 489.416C662.201 489.501 662.165 489.564 662.141 489.608C662.149 489.622 662.158 489.639 662.169 489.658C662.249 489.795 662.388 489.989 662.593 490.243C663.001 490.747 663.63 491.434 664.458 492.282C666.112 493.976 668.53 496.279 671.495 498.988C677.423 504.403 685.518 511.42 694.012 518.38C702.508 525.342 711.395 532.241 718.909 537.424C722.667 540.016 726.072 542.173 728.909 543.693C730.327 544.453 731.595 545.05 732.688 545.463C733.788 545.877 734.681 546.094 735.358 546.118L716.602 425.249ZM662.108 489.536C662.105 489.527 662.106 489.528 662.108 489.536L662.108 489.536ZM716.614 425.25C716.616 425.25 716.617 425.251 716.617 425.251C716.617 425.251 716.616 425.251 716.614 425.25Z" fill="black" stroke="#363A5A"/>
<path d="M738.099 491.181L738.099 491.181L738.094 491.184C732.919 494.614 728.542 499.117 725.259 504.387C721.908 509.602 719.333 515.277 717.616 521.233C717.075 522.965 716.592 524.715 716.167 526.479C716.493 524.725 716.887 522.982 717.348 521.255L717.349 521.251C718.914 515.193 721.397 509.411 724.712 504.105C726.44 501.488 728.425 499.05 730.637 496.829L730.637 496.829L730.643 496.823C732.81 494.576 735.273 492.635 737.963 491.052L737.963 491.052L737.969 491.049C739.393 490.187 740.866 489.417 742.378 488.741C742.288 488.786 742.198 488.831 742.109 488.876C740.732 489.573 739.394 490.343 738.099 491.181Z" fill="#263238" stroke="#363A5A"/>
<path d="M719.439 485.608C715.673 493.663 713.05 502.206 711.647 510.987L711.155 510.9C711.155 510.902 711.154 510.903 711.154 510.904M719.439 485.608L711.154 510.904M719.439 485.608C721.318 481.589 723.528 477.733 726.045 474.08L719.439 485.608ZM711.154 510.904C712.565 502.078 715.201 493.493 718.986 485.396L718.986 485.396C720.877 481.352 723.101 477.472 725.634 473.796L725.636 473.792C728.206 470.139 731.065 466.698 734.185 463.502C734.185 463.502 734.185 463.502 734.185 463.502L734.543 463.851L734.185 463.502C735.689 461.956 737.258 460.476 738.887 459.065C737.225 460.408 735.618 461.82 734.069 463.3C730.834 466.422 727.895 469.837 725.292 473.503C722.714 477.18 720.442 481.064 718.501 485.114C714.723 493.277 712.158 501.948 710.889 510.852L710.889 510.857C710.421 513.936 710.107 517.033 709.947 520.136C710.216 517.043 710.619 513.963 711.154 510.904Z" fill="#263238" stroke="#363A5A"/>
<path d="M505.294 562.327C505.204 562.042 505.11 561.723 505.011 561.365C504.238 558.57 503.458 554.326 502.763 548.921C501.379 538.161 500.395 523.312 500.358 507.401C500.322 491.486 501.233 474.633 503.595 459.835C505.736 446.429 508.999 435.187 513.488 427.801C513.52 427.823 513.552 427.845 513.585 427.868C515.549 429.248 518.314 431.544 521.686 434.566C528.389 440.576 537.075 449.083 545.738 457.864C554.39 466.633 562.969 475.625 569.445 482.577C572.684 486.054 575.384 489.008 577.299 491.161C577.82 491.748 578.277 492.268 578.668 492.719C578.431 493.026 578.16 493.368 577.854 493.747C576.169 495.832 573.65 498.733 570.505 502.202C564.227 509.127 555.592 518.168 546.48 527.19C537.361 536.221 527.821 545.176 519.722 551.956C515.666 555.351 512.039 558.145 509.048 560.121C507.584 561.088 506.33 561.821 505.294 562.327ZM580.128 494.491C580.126 494.49 580.112 494.47 580.089 494.434C580.118 494.474 580.129 494.492 580.128 494.491ZM511.724 426.734C511.704 426.728 511.694 426.724 511.693 426.724C511.693 426.723 511.703 426.726 511.724 426.734ZM505.991 564.074C505.998 564.084 506.002 564.09 506.001 564.09C506.001 564.09 505.998 564.085 505.991 564.074Z" fill="#CDCACA" stroke="#363A5A" stroke-width="8"/>
<path opacity="0.1" d="M505.727 565.873L505.727 565.873C505.724 565.874 505.716 565.875 505.695 565.867C505.671 565.858 505.628 565.835 505.569 565.784C505.447 565.677 505.295 565.483 505.124 565.173C504.782 564.554 504.425 563.59 504.067 562.296C503.354 559.716 502.667 555.939 502.066 551.276C500.865 541.956 500.016 529.162 499.978 515.485C499.94 501.807 500.711 487.26 502.745 474.431C504.78 461.597 508.067 450.556 513.012 443.803C513.021 443.802 513.035 443.801 513.056 443.801C513.158 443.801 513.334 443.834 513.599 443.94C514.123 444.148 514.851 444.574 515.767 445.214C517.589 446.489 520.053 448.536 522.949 451.129C528.735 456.308 536.193 463.613 543.595 471.119C550.995 478.624 558.333 486.322 563.878 492.287C566.65 495.269 568.972 497.816 570.629 499.687C571.457 500.623 572.117 501.387 572.582 501.951C572.815 502.233 572.996 502.461 573.124 502.634C573.183 502.714 573.229 502.778 573.262 502.828C573.255 502.846 573.247 502.866 573.236 502.89C573.17 503.035 573.052 503.242 572.873 503.516C572.517 504.059 571.958 504.805 571.216 505.729C569.733 507.575 567.546 510.096 564.853 513.07C559.467 519.016 552.073 526.749 544.274 534.461C536.475 542.174 528.278 549.857 521.286 555.707C517.789 558.632 514.602 561.092 511.921 562.866C510.581 563.753 509.374 564.464 508.324 564.975C507.269 565.489 506.4 565.787 505.727 565.873ZM513.001 443.805C512.999 443.806 512.997 443.807 512.997 443.807C512.997 443.807 512.998 443.806 513.001 443.805Z" fill="black" stroke="#363A5A"/>
<mask id="path-26-inside-2_215_5136" fill="white">
<path d="M583.818 491.691C579.262 484.856 556.731 460.593 550.762 454.761C544.793 448.929 538.118 443.051 531.648 437.356C528.261 434.318 524.851 431.334 521.419 428.403L516.248 424.097C514.903 422.705 513.369 421.508 511.691 420.543C507.59 418.72 499.252 440.135 495.038 464.489C492.434 480.808 491.624 497.363 492.623 513.857C493.009 523.118 494.013 532.342 495.63 541.469C497.153 550.498 499.322 559.406 502.123 568.124C502.136 568.159 502.159 568.189 502.19 568.21C502.22 568.231 502.256 568.243 502.294 568.243C502.331 568.243 502.367 568.231 502.398 568.21C502.428 568.189 502.452 568.159 502.465 568.124C500.87 560.264 499.321 552.404 498.387 544.476C497.452 536.548 496.792 528.78 496.427 520.92C495.605 505.129 496.154 489.298 498.068 473.602C502.032 443.279 511.304 424.097 511.6 424.348L516.566 428.904C519.726 431.866 522.923 434.804 526.158 437.721C532.377 443.325 538.574 448.975 544.907 454.442C551.628 460.206 577.348 485.312 583.181 492.26C583.454 492.556 584.115 492.146 583.818 491.691Z"/>
</mask>
<path d="M583.818 491.691C579.262 484.856 556.731 460.593 550.762 454.761C544.793 448.929 538.118 443.051 531.648 437.356C528.261 434.318 524.851 431.334 521.419 428.403L516.248 424.097C514.903 422.705 513.369 421.508 511.691 420.543C507.59 418.72 499.252 440.135 495.038 464.489C492.434 480.808 491.624 497.363 492.623 513.857C493.009 523.118 494.013 532.342 495.63 541.469C497.153 550.498 499.322 559.406 502.123 568.124C502.136 568.159 502.159 568.189 502.19 568.21C502.22 568.231 502.256 568.243 502.294 568.243C502.331 568.243 502.367 568.231 502.398 568.21C502.428 568.189 502.452 568.159 502.465 568.124C500.87 560.264 499.321 552.404 498.387 544.476C497.452 536.548 496.792 528.78 496.427 520.92C495.605 505.129 496.154 489.298 498.068 473.602C502.032 443.279 511.304 424.097 511.6 424.348L516.566 428.904C519.726 431.866 522.923 434.804 526.158 437.721C532.377 443.325 538.574 448.975 544.907 454.442C551.628 460.206 577.348 485.312 583.181 492.26C583.454 492.556 584.115 492.146 583.818 491.691Z" fill="#263238"/>
<path d="M583.818 491.691L592.203 486.241L592.171 486.192L592.139 486.144L583.818 491.691ZM531.648 437.356L524.971 444.801L525.006 444.832L525.041 444.862L531.648 437.356ZM521.419 428.403L527.913 420.798L527.866 420.758L527.818 420.718L521.419 428.403ZM516.248 424.097L509.055 431.045L509.432 431.435L509.849 431.782L516.248 424.097ZM511.691 420.543L516.679 411.875L516.228 411.616L515.753 411.405L511.691 420.543ZM495.038 464.489L485.184 462.784L485.173 462.849L485.163 462.914L495.038 464.489ZM492.623 513.857L502.614 513.441L502.61 513.347L502.604 513.253L492.623 513.857ZM495.63 541.469L505.491 539.806L505.484 539.765L505.477 539.725L495.63 541.469ZM502.123 568.124L492.602 571.182L492.67 571.394L492.748 571.604L502.123 568.124ZM502.294 568.243V558.243V568.243ZM502.465 568.124L511.84 571.604L512.832 568.93L512.265 566.135L502.465 568.124ZM496.427 520.92L506.417 520.457L506.415 520.428L506.414 520.4L496.427 520.92ZM498.068 473.602L488.152 472.306L488.146 472.349L488.141 472.392L498.068 473.602ZM511.6 424.348L518.36 416.979L518.213 416.843L518.059 416.714L511.6 424.348ZM516.566 428.904L523.406 421.609L523.367 421.572L523.327 421.535L516.566 428.904ZM526.158 437.721L519.462 445.148L519.463 445.149L526.158 437.721ZM544.907 454.442L538.372 462.012L538.385 462.023L538.397 462.033L544.907 454.442ZM583.181 492.26L575.521 498.689L575.673 498.87L575.832 499.043L583.181 492.26ZM592.139 486.144C589.351 481.962 581.98 473.565 575.222 466.126C568.251 458.452 560.96 450.744 557.751 447.609L543.773 461.914C546.533 464.61 553.492 471.95 560.418 479.574C567.557 487.433 573.729 494.585 575.498 497.238L592.139 486.144ZM557.751 447.609C551.563 441.563 544.686 435.511 538.255 429.85L525.041 444.862C531.55 450.592 538.024 456.296 543.773 461.914L557.751 447.609ZM538.325 429.911C534.878 426.82 531.407 423.783 527.913 420.798L514.925 436.007C518.295 438.886 521.644 441.817 524.971 444.801L538.325 429.911ZM527.818 420.718L522.646 416.412L509.849 431.782L515.02 436.088L527.818 420.718ZM523.44 417.149C521.444 415.083 519.168 413.308 516.679 411.875L506.704 429.211C507.57 429.709 508.361 430.326 509.055 431.045L523.44 417.149ZM515.753 411.405C510.588 409.109 506.119 411.341 504.077 412.831C502.055 414.306 500.603 416.214 499.637 417.661C497.6 420.709 495.728 424.783 494.067 429.129C490.674 438 487.382 450.082 485.184 462.784L504.891 466.194C506.908 454.543 509.892 443.74 512.748 436.271C514.21 432.447 515.455 429.987 516.267 428.771C516.725 428.086 516.63 428.43 515.865 428.987C515.081 429.56 511.77 431.521 507.63 429.681L515.753 411.405ZM485.163 462.914C482.444 479.953 481.599 497.238 482.641 514.462L502.604 513.253C501.65 497.487 502.424 481.663 504.913 466.065L485.163 462.914ZM482.631 514.274C483.036 523.98 484.089 533.648 485.783 543.213L505.477 539.725C503.938 531.037 502.982 522.256 502.614 513.441L482.631 514.274ZM485.769 543.132C487.372 552.634 489.655 562.008 492.602 571.182L511.644 565.065C508.99 556.804 506.934 548.362 505.491 539.806L485.769 543.132ZM492.748 571.604C493.471 573.553 494.774 575.233 496.48 576.42L507.899 560C509.544 561.144 510.8 562.764 511.498 564.644L492.748 571.604ZM496.48 576.42C498.19 577.609 500.22 578.243 502.294 578.243V558.243C504.293 558.243 506.25 558.853 507.899 560L496.48 576.42ZM502.294 578.243C504.369 578.243 506.399 577.608 508.107 576.42L496.688 560C498.336 558.854 500.292 558.243 502.294 558.243V578.243ZM508.107 576.42C509.813 575.233 511.116 573.553 511.84 571.604L493.09 564.644C493.787 562.764 495.043 561.144 496.688 560L508.107 576.42ZM512.265 566.135C510.667 558.26 509.198 550.773 508.318 543.306L488.455 545.646C489.444 554.036 491.073 562.268 492.664 570.112L512.265 566.135ZM508.318 543.306C507.409 535.591 506.769 528.059 506.417 520.457L486.438 521.383C486.814 529.5 487.496 537.505 488.455 545.646L508.318 543.306ZM506.414 520.4C505.622 505.187 506.151 489.934 507.994 474.812L488.141 472.392C486.158 488.661 485.589 505.072 486.441 521.44L506.414 520.4ZM507.983 474.898C509.872 460.45 513.021 448.7 515.696 440.671C517.035 436.655 518.241 433.61 519.088 431.662C519.519 430.673 519.823 430.042 519.978 429.744C520.074 429.558 520.034 429.652 519.885 429.886C519.857 429.93 519.554 430.42 519.045 430.996C518.876 431.189 518.107 432.071 516.841 432.854C516.233 433.23 510.544 436.553 505.141 431.981L518.059 416.714C512.647 412.134 506.944 415.459 506.318 415.846C505.035 416.64 504.243 417.543 504.047 417.765C503.486 418.401 503.114 418.988 503 419.167C502.682 419.669 502.408 420.179 502.215 420.553C501.79 421.374 501.29 422.438 500.748 423.685C499.649 426.211 498.234 429.81 496.722 434.348C493.696 443.429 490.227 456.431 488.152 472.306L507.983 474.898ZM504.84 431.716L509.806 436.273L523.327 421.535L518.36 416.979L504.84 431.716ZM509.727 436.199C512.934 439.206 516.179 442.189 519.462 445.148L532.853 430.293C529.666 427.42 526.517 424.525 523.406 421.609L509.727 436.199ZM519.463 445.149C525.622 450.699 531.934 456.454 538.372 462.012L551.442 446.873C545.213 441.496 539.132 435.951 532.852 430.292L519.463 445.149ZM538.397 462.033C541.459 464.659 549.334 472.14 557.366 480.038C565.465 488.002 572.975 495.657 575.521 498.689L590.84 485.831C587.553 481.916 579.287 473.543 571.388 465.777C563.422 457.943 555.076 449.99 551.417 446.852L538.397 462.033ZM575.832 499.043C580.927 504.563 587.472 501.948 589.735 500.241C591.28 499.075 592.9 497.162 593.581 494.447C594.326 491.479 593.692 488.531 592.203 486.241L575.434 497.141C574.093 495.078 573.487 492.352 574.183 489.58C574.815 487.061 576.308 485.317 577.691 484.274C579.629 482.812 585.707 480.254 590.529 485.477L575.832 499.043Z" fill="#363A5A" mask="url(#path-26-inside-2_215_5136)"/>
<path d="M493.585 509.399C493.268 509.288 492.945 509.171 492.619 509.051C494.436 509.627 496.215 510.332 497.942 511.164L497.943 511.165C500.768 512.516 503.404 514.231 505.785 516.266L505.785 516.266L505.789 516.269C508.205 518.286 510.403 520.551 512.345 523.027C516.189 527.986 519.238 533.512 521.382 539.408L521.383 539.41C522.217 541.673 522.93 543.977 523.52 546.31C522.792 543.975 521.957 541.673 521.017 539.414C518.744 533.645 515.652 528.235 511.836 523.348C508.062 518.426 503.288 514.358 497.829 511.414C496.463 510.662 495.053 509.992 493.608 509.407L493.597 509.403L493.585 509.399Z" fill="#263238" stroke="#363A5A"/>
<path d="M508.659 492.966L508.659 492.966L508.655 492.961C505.751 489.572 502.587 486.415 499.191 483.519L499.19 483.519C497.277 481.891 495.285 480.359 493.222 478.929C495.333 480.287 497.379 481.749 499.352 483.311C502.856 486.118 506.097 489.238 509.035 492.632C511.96 496.052 514.594 499.709 516.912 503.565C521.456 511.332 524.823 519.731 526.903 528.486L526.904 528.489C527.581 531.247 528.133 534.03 528.558 536.832C528.03 534.051 527.391 531.291 526.642 528.56C524.386 519.899 520.925 511.598 516.361 503.899C514.094 500.052 511.519 496.396 508.659 492.966Z" fill="#263238" stroke="#363A5A"/>
<path d="M669.865 476.923L669.864 476.923C668.846 476.393 666.694 475.838 663.18 475.48C659.801 475.135 655.595 475.009 650.802 475.064C641.224 475.176 629.611 476.008 618.198 477.122C606.8 478.235 595.673 479.622 587.094 480.828C582.804 481.431 579.165 481.987 576.457 482.438C575.102 482.664 573.996 482.861 573.167 483.022C572.752 483.103 572.422 483.172 572.174 483.228C571.946 483.28 571.841 483.309 571.82 483.314C571.817 483.315 571.816 483.316 571.816 483.315M669.865 476.923L571.817 483.315C571.817 483.315 571.816 483.315 571.816 483.315M669.865 476.923C676.124 480.18 684.444 487.337 693.55 496.756C702.565 506.082 712.056 517.311 720.643 528.364C729.231 539.418 736.861 550.225 742.167 558.687C744.828 562.93 746.853 566.503 748.123 569.18C748.762 570.528 749.157 571.54 749.358 572.234C749.396 572.366 749.423 572.473 749.443 572.557C742.346 593.493 728.457 611.28 715.88 624.027C709.562 630.429 703.633 635.503 699.172 639.004C696.941 640.754 695.091 642.101 693.759 643.016C693.089 643.476 692.571 643.812 692.213 644.032C692.111 644.095 692.03 644.143 691.969 644.178C667.497 651.883 640.671 654.901 618.47 655.372C607.343 655.609 597.439 655.204 589.648 654.446C581.686 653.672 576.367 652.567 574.106 651.606L574.093 651.601L574.08 651.595C550.978 641.972 532.808 628.513 520.323 616.379C514.079 610.31 509.3 604.614 506.055 599.95C504.43 597.616 503.222 595.585 502.408 593.933C501.557 592.204 501.272 591.156 501.226 590.717L501.225 590.709C500.976 588.383 501.412 585.006 502.689 580.619C503.947 576.3 505.93 571.299 508.497 565.845C513.629 554.942 520.956 542.522 529.005 530.613C537.052 518.708 545.751 507.418 553.587 498.762C557.507 494.431 561.162 490.815 564.369 488.124C567.658 485.364 570.166 483.845 571.816 483.315M669.865 476.923L571.816 483.315M749.488 572.81C749.488 572.81 749.487 572.804 749.486 572.791C749.487 572.793 749.487 572.795 749.487 572.797C749.488 572.805 749.488 572.809 749.488 572.81Z" fill="#ADADAD" stroke="#363A5A" stroke-width="8"/>
<path d="M494.914 585.123L494.915 585.12C495.761 580.606 497.094 576.196 498.891 571.969C502.039 564.969 506.041 558.391 510.8 552.383C506.887 558.818 503.617 565.627 501.04 572.712C500.714 573.58 500.385 574.445 500.056 575.311C498.801 578.613 497.544 581.92 496.475 585.382C495.439 588.733 494.485 592.099 493.611 595.499C493.816 592.017 494.251 588.55 494.914 585.123Z" fill="#263238" stroke="#363A5A"/>
<path d="M499.16 594.66C499.204 592.695 499.343 590.734 499.577 588.784C499.827 593.989 501.331 599.083 503.993 603.621L503.998 603.63L504.004 603.64C506.953 608.195 510.31 612.471 514.033 616.415C509.208 613.078 504.645 609.438 501.81 604.313C500.206 601.338 499.3 598.037 499.16 594.66Z" fill="#263238" stroke="#363A5A"/>
<path d="M677.538 475.624L677.545 475.629L677.552 475.635C680.614 478.067 683.416 480.739 686.241 483.434C686.31 483.501 686.38 483.567 686.45 483.634C685.824 483.172 685.197 482.714 684.571 482.258C683.631 481.572 682.693 480.889 681.765 480.193C679.856 478.34 677.68 476.783 675.311 475.572L675.28 475.557L675.247 475.545C671.779 474.345 665.949 473.697 658.626 473.466C651.285 473.236 642.388 473.423 632.752 473.921C613.48 474.915 591.225 477.149 572.497 479.76C567.812 480.399 563.828 483.796 560.23 486.941C558.094 488.809 555.973 490.7 553.86 492.596C556.284 489.852 558.688 487.133 561.275 484.575L561.288 484.562L561.3 484.549C564.567 480.821 568.984 478.29 573.851 477.355C610.155 472.767 634.218 471.26 649.46 471.004C657.082 470.876 662.494 471.061 666.127 471.33C667.944 471.464 669.312 471.619 670.287 471.765C671.266 471.912 671.81 472.046 672.018 472.127C674.014 473.026 675.873 474.203 677.538 475.624Z" fill="#263238" stroke="#363A5A"/>
<path d="M750.007 559.069C753.228 565.112 755.435 571.632 756.549 578.369C755.34 574.555 753.74 570.873 751.772 567.381C751.477 566.83 751.185 566.283 750.895 565.738C748.79 561.787 746.759 557.974 744.145 553.932C741.593 549.988 739.008 546.43 736.167 542.52C735.699 541.878 735.225 541.225 734.743 540.56C732.863 537.966 730.96 535.395 728.989 532.885C729.12 533.015 729.251 533.146 729.383 533.277C731.023 534.911 732.657 536.539 734.25 538.214L734.25 538.214L734.256 538.22C740.4 544.447 745.696 551.457 750.007 559.069Z" fill="#263238" stroke="#363A5A"/>
<path d="M750.003 580.908C741.715 600.531 728.118 616.951 716.279 628.584C710.29 634.469 704.757 639.124 700.6 642.342C698.522 643.952 696.789 645.201 695.517 646.064C694.881 646.496 694.363 646.829 693.976 647.062C693.783 647.179 693.626 647.268 693.505 647.332C693.445 647.363 693.397 647.387 693.36 647.404C693.341 647.412 693.327 647.418 693.317 647.422C693.309 647.426 693.304 647.427 693.303 647.427C693.303 647.427 693.303 647.427 693.303 647.427L693.295 647.43C668.294 655.385 641.006 658.456 618.52 658.934C607.279 659.173 597.246 658.763 589.307 657.994C581.348 657.222 575.547 656.093 572.736 654.918L572.735 654.917C551.795 646.225 532.724 633.585 516.563 617.687C516.602 617.675 516.642 617.662 516.684 617.649C517.231 617.477 518.026 617.233 519.014 616.946C520.989 616.372 523.733 615.63 526.805 614.954C532.975 613.596 540.378 612.527 545.562 613.563C548.136 614.078 551.016 615.378 554.277 617.066C555.54 617.719 556.864 618.434 558.246 619.179C560.399 620.34 562.691 621.577 565.102 622.773C573.058 626.721 582.552 630.366 593.901 630.112C605.253 629.859 611.281 626.233 615.097 621.464C616.99 619.098 618.322 616.472 619.494 613.901C619.803 613.223 620.099 612.551 620.392 611.889C621.217 610.022 622.007 608.233 622.938 606.6L622.938 606.6L622.943 606.591C624.051 604.552 626.198 601.617 629.944 599.683C633.679 597.755 639.062 596.793 646.708 598.794L647.279 598.944L647.333 598.356L646.835 598.31C647.333 598.356 647.333 598.356 647.333 598.355L647.333 598.354L647.333 598.349L647.335 598.329L647.343 598.248C647.349 598.178 647.359 598.072 647.372 597.934C647.398 597.659 647.436 597.255 647.487 596.74C647.588 595.71 647.736 594.236 647.927 592.463C648.308 588.916 648.857 584.172 649.528 579.383C650.2 574.59 650.992 569.763 651.858 566.044C652.292 564.183 652.74 562.616 653.195 561.476C653.422 560.906 653.645 560.459 653.858 560.14C654.078 559.81 654.25 559.677 654.351 559.638C654.494 559.583 654.656 559.587 654.875 559.707C655.111 559.837 655.39 560.092 655.703 560.5C656.328 561.316 656.991 562.612 657.671 564.273C659.028 567.584 660.396 572.201 661.646 576.929C662.777 581.203 663.807 585.549 664.643 589.075C664.731 589.446 664.816 589.809 664.9 590.161C665.338 592.006 665.715 593.577 666.013 594.715C666.162 595.284 666.293 595.752 666.405 596.097C666.46 596.268 666.513 596.417 666.564 596.537C666.589 596.596 666.617 596.656 666.648 596.71C666.674 596.757 666.721 596.833 666.793 596.899C667.094 597.18 667.474 597.166 667.754 597.103C668.035 597.04 668.345 596.901 668.65 596.752C668.801 596.678 668.957 596.598 669.118 596.516C669.644 596.248 670.232 595.949 670.91 595.705C671.783 595.392 672.767 595.19 673.846 595.313C674.921 595.435 676.126 595.884 677.439 596.925C678.753 597.967 680.05 599.689 681.538 601.76C681.709 601.998 681.882 602.24 682.058 602.486C683.395 604.356 684.877 606.428 686.616 608.392C690.565 612.852 695.884 616.808 704.04 616.808C713.972 616.808 719.34 609.916 723.629 602.511C724.519 600.974 725.357 599.426 726.18 597.907C727.364 595.721 728.517 593.593 729.75 591.634C731.827 588.334 734.045 585.67 736.817 584.269C740.94 582.262 745.428 581.119 750.003 580.908Z" fill="white" stroke="#363A5A"/>
<path d="M698.825 552.811L698.829 552.811C706.071 552.035 711.898 555.056 716.165 560.428C720.446 565.816 723.151 573.57 724.067 582.188L724.067 582.188C724.809 589.131 723.374 596.363 720.008 602.034C716.647 607.697 711.375 611.787 704.418 612.53C697.493 613.27 691.412 609.783 686.86 604.417C682.307 599.05 679.339 591.86 678.655 585.364C677.969 578.85 679.04 571.085 682.282 564.762C685.517 558.452 690.889 553.611 698.825 552.811Z" fill="#263238" stroke="#363A5A"/>
<path d="M721.356 584.192L721.356 584.192C722.052 590.702 720.708 597.495 717.55 602.822C714.397 608.14 709.45 611.979 702.915 612.666C696.411 613.35 690.705 610.083 686.439 605.051C682.17 600.018 679.397 593.273 678.769 587.164C678.139 581.038 679.165 573.762 682.21 567.834C685.249 561.919 690.276 557.379 697.666 556.592C704.465 555.872 709.933 558.712 713.938 563.756C717.957 568.817 720.497 576.098 721.356 584.192Z" fill="white" stroke="#363A5A"/>
<path d="M701.244 568.12C706.528 567.56 710.771 569.746 713.883 573.661C717.01 577.594 718.993 583.274 719.67 589.637C720.206 594.712 719.153 600.001 716.692 604.155C714.236 608.301 710.393 611.298 705.325 611.87C700.294 612.437 695.889 609.908 692.57 605.975C689.249 602.041 687.072 596.757 686.513 591.987C685.954 587.211 686.762 581.544 689.16 576.92C691.552 572.309 695.503 568.769 701.244 568.12Z" fill="#263238" stroke="#363A5A"/>
<path d="M693.132 563.564L693.132 563.564C695.42 563.322 697.26 564.27 698.625 565.991C700.004 567.729 700.893 570.255 701.194 573.097L701.194 573.098C701.434 575.347 700.967 577.686 699.883 579.513C698.803 581.332 697.124 582.626 694.916 582.868C692.742 583.106 690.814 582.017 689.34 580.274C687.865 578.529 686.902 576.186 686.673 574.084C686.444 571.971 686.808 569.446 687.868 567.397C688.922 565.359 690.639 563.827 693.132 563.564Z" fill="white" stroke="#363A5A"/>
<path d="M593.139 566.729L593.139 566.729L593.148 566.73C597.137 567.191 600.994 568.443 604.494 570.412C607.994 572.38 611.066 575.026 613.532 578.196C615.998 581.365 617.808 584.993 618.857 588.87C619.905 592.746 620.171 596.792 619.638 600.772L619.638 600.773C618.778 607.225 614.989 614.237 609.118 619.33C603.256 624.416 595.342 627.569 586.232 626.36L586.223 626.359L586.214 626.358C582.423 625.99 578.743 624.872 575.388 623.068C572.034 621.265 569.071 618.812 566.673 615.854C564.274 612.895 562.488 609.489 561.418 605.833C560.349 602.179 560.017 598.35 560.44 594.566C561.58 585.998 565.031 578.405 570.542 573.277C576.042 568.159 583.631 565.46 593.139 566.729Z" fill="#263238" stroke="#363A5A"/>
<path d="M594.529 570.602L594.529 570.602L594.537 570.603C598.277 571.036 601.893 572.21 605.174 574.057C608.455 575.903 611.335 578.385 613.647 581.357C615.958 584.329 617.654 587.731 618.636 591.366C619.617 595.001 619.865 598.795 619.364 602.526L619.364 602.529C617.797 614.681 605.131 628.777 588.03 626.542L588.021 626.541L588.013 626.54C584.458 626.197 581.007 625.151 577.86 623.463C574.713 621.775 571.932 619.478 569.681 616.706C567.429 613.934 565.751 610.742 564.743 607.316C563.736 603.891 563.419 600.301 563.811 596.753C564.883 588.696 568.107 581.565 573.273 576.751C578.428 571.947 585.555 569.412 594.529 570.602Z" fill="white" stroke="#363A5A"/>
<path d="M597.263 582.039L597.263 582.039L597.274 582.041C600.198 582.362 603.027 583.265 605.597 584.696C608.166 586.127 610.423 588.058 612.235 590.374C614.047 592.691 615.378 595.346 616.148 598.185C616.919 601.022 617.114 603.986 616.722 606.9C615.384 616.372 605.561 627.388 592.223 625.632L592.214 625.631L592.206 625.63C589.434 625.361 586.744 624.544 584.291 623.227C581.838 621.91 579.671 620.119 577.915 617.958C576.16 615.797 574.851 613.308 574.065 610.637C573.279 607.968 573.031 605.17 573.335 602.404C574.178 596.125 576.707 590.572 580.734 586.825C584.751 583.088 590.295 581.112 597.263 582.039Z" fill="#263238" stroke="#363A5A"/>
<path d="M584.799 577.095L584.799 577.095L584.811 577.097C586.103 577.238 587.354 577.637 588.49 578.269C589.627 578.901 590.625 579.754 591.426 580.778C592.228 581.802 592.817 582.976 593.158 584.23C593.499 585.483 593.586 586.791 593.415 588.077C593.011 590.58 591.662 592.832 589.646 594.369C587.628 595.906 585.095 596.61 582.573 596.333L582.573 596.333L582.567 596.332C581.346 596.214 580.16 595.854 579.079 595.272C577.999 594.691 577.044 593.901 576.272 592.948C575.499 591.994 574.924 590.897 574.58 589.719C574.236 588.542 574.13 587.309 574.267 586.092C574.632 583.299 575.754 580.843 577.523 579.195C579.281 577.557 581.715 576.681 584.799 577.095Z" fill="white" stroke="#363A5A"/>
<path d="M657.517 604.279C657.437 604.31 657.395 604.321 657.381 604.325C657.366 604.322 657.322 604.315 657.24 604.291C657.129 604.259 656.982 604.208 656.802 604.137C656.441 603.995 655.974 603.784 655.432 603.52C654.35 602.993 652.999 602.267 651.669 601.49C650.339 600.711 649.042 599.887 648.064 599.164C647.573 598.801 647.175 598.472 646.895 598.194C646.755 598.055 646.653 597.937 646.586 597.841C646.544 597.782 646.523 597.741 646.513 597.718C646.526 597.697 646.558 597.659 646.627 597.603C646.79 597.47 647.071 597.321 647.473 597.165C648.27 596.857 649.403 596.579 650.645 596.341C653.123 595.867 655.926 595.573 657.068 595.506C658.204 595.439 661.039 595.439 663.562 595.656C664.827 595.765 665.985 595.927 666.805 596.152C667.22 596.266 667.509 596.387 667.678 596.5C667.742 596.543 667.774 596.573 667.789 596.591C667.78 596.616 667.762 596.661 667.722 596.728C667.66 596.832 667.566 596.962 667.435 597.116C667.174 597.424 666.797 597.795 666.332 598.208C665.405 599.033 664.165 599.993 662.889 600.909C661.615 601.824 660.315 602.689 659.27 603.326C658.747 603.645 658.294 603.903 657.944 604.081C657.768 604.17 657.626 604.236 657.517 604.279ZM646.506 597.731C646.505 597.736 646.504 597.738 646.503 597.738C646.503 597.738 646.503 597.736 646.506 597.731ZM667.802 596.611C667.801 596.611 667.799 596.609 667.797 596.603C667.801 596.608 667.802 596.611 667.802 596.611Z" fill="#263238" stroke="#363A5A"/>
<path d="M660.06 611.916C659.47 610.698 658.925 609.458 658.428 608.2C658.781 607.275 659.109 606.341 659.412 605.399C660.076 607.452 660.842 609.472 661.706 611.451L661.707 611.453C662.252 612.685 662.876 613.881 663.577 615.032C664.189 616.146 664.997 617.139 665.963 617.964L665.973 617.973L665.984 617.981C666.423 618.317 666.939 618.538 667.486 618.625L667.571 618.638L667.656 618.622C668.236 618.514 668.779 618.256 669.23 617.875L669.234 617.872C670.267 616.985 671.2 615.988 672.019 614.9L672.02 614.898C672.381 614.412 672.738 613.909 673.092 613.395C672.83 613.885 672.56 614.369 672.28 614.849L672.28 614.849L672.276 614.857C671.584 616.095 670.722 617.231 669.717 618.232L669.71 618.239L669.703 618.247C669.177 618.815 668.488 619.205 667.731 619.364C666.924 619.394 666.127 619.183 665.44 618.757C664.191 617.942 663.125 616.875 662.31 615.625L662.305 615.617L662.299 615.61C661.467 614.432 660.719 613.198 660.06 611.916ZM657.995 600.642L658.878 603.666H657.113L657.995 600.642ZM658.595 604.666C658.374 605.374 658.138 606.078 657.888 606.776C657.635 606.078 657.395 605.374 657.171 604.666H658.595ZM656.471 605.749C656.747 606.573 657.041 607.392 657.355 608.202C656.632 610.057 655.808 611.872 654.887 613.639L654.885 613.642C654.071 615.228 653.098 616.726 651.979 618.113L651.974 618.119L651.97 618.125C650.859 619.592 649.317 620.674 647.56 621.22C645.739 621.518 643.873 621.097 642.356 620.044L642.347 620.038L642.338 620.032C640.872 619.105 639.543 617.977 638.389 616.682L638.388 616.681C637.709 615.924 637.062 615.141 636.448 614.334C637.147 615.06 637.869 615.765 638.611 616.448L638.613 616.45C639.851 617.576 641.224 618.542 642.703 619.325L642.703 619.325L642.713 619.33C643.473 619.711 644.283 619.986 645.118 620.148C645.5 620.224 645.889 620.265 646.278 620.271V620.271H646.286H646.764H647.22H647.32L647.413 620.232C648.857 619.626 650.089 618.606 650.955 617.302C651.938 615.982 652.791 614.57 653.502 613.086C654.656 610.709 655.648 608.257 656.471 605.749Z" fill="#263238" stroke="#363A5A"/>
<path d="M803.892 591.792L803.896 591.793C806.281 591.979 808.667 592.213 811.054 592.475C808.661 592.31 806.267 592.171 803.868 592.071C799.788 591.843 795.683 591.66 791.601 591.546C787.517 591.432 783.434 591.432 779.337 591.432H779.334C771.164 591.318 762.953 591.592 754.795 591.957C752.333 592.067 749.872 592.195 747.41 592.344C749.871 592.096 752.334 591.871 754.787 591.679C762.957 591.064 771.12 590.678 779.325 590.769C787.545 590.86 795.732 591.088 803.892 591.792Z" fill="#263238" stroke="#363A5A"/>
<path d="M748.797 598.856C751.179 598.846 753.563 598.864 755.95 598.901C763.344 599.014 770.69 599.355 778.057 600.015C785.43 600.675 792.733 601.517 800.058 602.609C802.364 602.952 804.662 603.337 806.952 603.756L805.533 603.555L805.533 603.555L805.522 603.554L800.032 602.893L800.029 602.893L789.048 601.64L789.048 601.64L789.038 601.639C788.135 601.555 787.232 601.468 786.327 601.381C783.564 601.115 780.79 600.848 778.005 600.659C770.661 599.975 763.297 599.542 755.938 599.177C753.566 599.044 751.181 598.95 748.797 598.856Z" fill="#263238" stroke="#363A5A"/>
<path d="M750.121 605.906L750.119 605.905C748.454 605.62 746.769 605.358 745.097 605.098C744.652 605.029 744.207 604.96 743.764 604.891C745.955 605.112 748.135 605.367 750.29 605.641C756.365 606.415 762.458 607.347 768.48 608.552C774.515 609.759 780.539 611.032 786.469 612.622L786.469 612.622L786.478 612.624C788.385 613.101 790.274 613.615 792.159 614.137C790.251 613.713 788.343 613.293 786.431 612.881C780.413 611.581 774.463 610.373 768.355 609.188C763.656 608.276 758.983 607.459 754.321 606.643C752.92 606.398 751.52 606.153 750.121 605.906Z" fill="#263238" stroke="#363A5A"/>
<path d="M517.703 621.045L517.703 621.045L517.712 621.044C521.028 620.852 524.335 620.756 527.64 620.731C524.329 620.879 521.022 621.061 517.719 621.276C507.602 621.937 497.478 622.735 487.396 623.989C483.19 624.406 478.999 624.965 474.833 625.52C473.982 625.634 473.132 625.747 472.282 625.859C467.265 626.52 462.248 627.273 457.23 628.139C454.275 628.61 451.33 629.127 448.391 629.676C451.316 629.033 454.242 628.42 457.176 627.871L457.178 627.871C467.146 625.959 477.224 624.367 487.321 623.321C497.43 622.273 507.556 621.432 517.703 621.045ZM435.973 632.657C443.067 631.186 450.16 629.77 457.312 628.633C462.324 627.767 467.336 627.015 472.348 626.354C473.198 626.242 474.05 626.129 474.902 626.015C479.07 625.46 483.253 624.902 487.452 624.486L435.973 632.657Z" fill="#263238" stroke="#363A5A"/>
<path d="M456.831 642.749L456.831 642.749L456.82 642.752L456.749 642.771C458.973 642.123 461.202 641.497 463.434 640.893C472.26 638.505 481.271 636.457 490.192 634.682C499.114 632.906 508.216 631.336 517.316 630.131C520.717 629.68 524.116 629.261 527.515 628.89C524.128 629.383 520.741 629.904 517.353 630.463C508.306 631.898 499.279 633.471 490.318 635.318C485.828 636.139 481.311 637.028 476.86 638.055C475.56 638.355 474.264 638.652 472.968 638.948C469.84 639.664 466.706 640.381 463.483 641.155L456.831 642.749Z" fill="#263238" stroke="#363A5A"/>
<path d="M481.656 651.155L481.656 651.155L481.663 651.153C488.785 648.423 495.995 645.898 503.294 643.692L503.659 643.582C510.855 641.407 518.076 639.225 525.361 637.527C527.16 637.107 528.959 636.692 530.761 636.287C528.982 636.774 527.205 637.271 525.428 637.79C518.089 639.887 510.796 642.074 503.504 644.307C496.678 646.398 489.892 648.668 483.135 650.929C482.668 651.085 482.202 651.241 481.735 651.397C479.603 652.11 477.473 652.843 475.345 653.587C477.439 652.752 479.536 651.934 481.656 651.155Z" fill="#263238" stroke="#363A5A"/>
<path d="M709.8 701.325L709.804 701.281L709.8 701.236C709.684 700.015 709.926 698.785 710.495 697.698C711.065 696.611 711.939 695.713 713.009 695.113L713.756 694.694L713.025 694.25C712.006 693.63 711.211 692.702 710.756 691.6C710.303 690.502 710.21 689.289 710.49 688.135C711.064 686.29 712.477 685.453 713.813 685.071C714.484 684.879 715.122 684.808 715.594 684.785C715.829 684.773 716.021 684.774 716.152 684.778C716.218 684.779 716.268 684.782 716.301 684.784C716.317 684.785 716.329 684.785 716.337 684.786L716.344 684.787L716.345 684.787L716.345 684.787L716.345 684.787L716.346 684.787L717.897 684.918L716.711 683.908C715.811 683.14 715.212 682.077 715.022 680.909C714.833 679.741 715.064 678.543 715.676 677.53L715.688 677.511L715.697 677.491C716.458 675.931 718.011 675.523 719.528 675.55C720.277 675.564 720.98 675.685 721.498 675.805C721.757 675.864 721.967 675.923 722.111 675.966C722.183 675.987 722.238 676.005 722.275 676.017C722.293 676.023 722.307 676.028 722.315 676.031L722.324 676.034L722.326 676.034L722.326 676.034C722.326 676.034 722.326 676.034 722.326 676.033L722.857 675.221C721.897 674.199 721.311 672.881 721.196 671.484C721.081 670.086 721.444 668.691 722.225 667.526L722.232 667.514L722.24 667.502C722.713 666.7 723.749 666.294 724.858 666.066C725.309 665.973 725.738 665.915 726.111 665.865C726.183 665.855 726.253 665.846 726.321 665.837C726.522 665.809 726.715 665.78 726.869 665.745C726.946 665.727 727.031 665.704 727.11 665.671C727.174 665.644 727.304 665.583 727.402 665.454C731.68 659.902 738.252 651.565 749.249 645.953C760.235 640.348 775.693 637.435 797.781 642.855C831.148 651.085 841.684 683.308 840.277 711.556L840.276 711.569V711.581C840.276 711.867 840.464 712.046 840.55 712.119C840.649 712.204 840.774 712.28 840.875 712.34C840.894 712.352 840.914 712.364 840.934 712.376C841.141 712.499 841.364 712.633 841.589 712.826C842.051 713.223 842.554 713.907 842.554 715.294V715.317L842.556 715.34C842.615 715.986 842.486 716.635 842.183 717.208C841.88 717.782 841.418 718.255 840.851 718.571L840.224 718.921L840.77 719.388C841.397 719.924 841.819 720.661 841.964 721.474C842.11 722.286 841.97 723.124 841.569 723.845L841.562 723.859L841.555 723.873C841.179 724.661 840.548 725.299 839.764 725.684C838.981 726.068 838.09 726.177 837.237 725.992L836.196 725.766L836.687 726.711C836.841 727.006 837.113 727.329 837.375 727.641C837.421 727.696 837.468 727.75 837.513 727.804C837.835 728.192 838.173 728.621 838.444 729.128C838.971 730.113 839.274 731.44 838.535 733.357C838.104 734.402 837.331 735.27 836.343 735.818C835.354 736.368 834.207 736.564 833.091 736.376L831.865 736.169L832.606 737.167C833.203 737.972 833.539 738.94 833.569 739.942C833.598 740.944 833.32 741.93 832.771 742.769L832.763 742.781L832.756 742.793C832.75 742.804 832.713 742.854 832.593 742.927C832.478 742.997 832.32 743.069 832.118 743.14C831.715 743.284 831.202 743.405 830.661 743.515C830.392 743.57 830.122 743.621 829.86 743.67C829.599 743.72 829.344 743.768 829.113 743.815C828.883 743.863 828.666 743.912 828.483 743.964C828.312 744.013 828.122 744.077 827.976 744.171L827.247 744.639L828.017 745.036C846.323 754.475 869.69 759.04 889.874 761.818C897.131 762.816 903.99 763.585 910.057 764.266C912.429 764.532 914.679 764.784 916.786 765.031C920.537 765.472 923.829 765.896 926.539 766.351C929.258 766.807 931.359 767.29 932.744 767.839L932.745 767.839C942.079 771.526 946.169 776.475 946.772 781.534C947.378 786.624 944.487 792.059 939.323 796.775C928.999 806.203 909.981 812.383 893.931 806.793L893.929 806.792C893.762 806.734 893.698 806.663 893.67 806.615C893.639 806.562 893.614 806.473 893.634 806.322C893.676 806 893.902 805.545 894.303 805.06C894.694 804.586 895.208 804.136 895.743 803.818C896.285 803.495 896.793 803.338 897.188 803.366C915.613 805.049 929.219 799.209 935.455 792.05C938.572 788.473 939.892 784.504 938.914 780.975C937.933 777.435 934.693 774.523 929.1 772.952L929.099 772.952C925.483 771.941 919.265 771.233 911.515 770.441C910.352 770.322 909.154 770.201 907.923 770.077C900.929 769.371 892.894 768.561 884.425 767.411C864.494 764.704 842.233 760.122 825.577 750.65L825.576 750.65C824.783 750.2 824.022 750.128 823.324 750.316C822.644 750.5 822.067 750.919 821.595 751.379C821.121 751.841 820.724 752.372 820.412 752.821C820.309 752.968 820.211 753.113 820.124 753.243C820.08 753.307 820.039 753.368 820.001 753.423C819.887 753.591 819.805 753.705 819.746 753.774C811.188 762.37 797.89 767.954 783.839 769.783C769.785 771.612 755.051 769.675 743.65 763.315L743.65 763.315C714.501 747.068 711.879 721.063 712.603 706.822L712.619 706.525L712.364 706.37C711.51 705.85 710.818 705.103 710.365 704.212C709.912 703.321 709.717 702.321 709.8 701.325Z" fill="#FFA012" stroke="#363A5A"/>
<path d="M727.583 685.335L727.583 685.335L727.584 685.336C736.17 702.093 754.318 712.494 771.375 718.568L771.375 718.568C789.557 725.006 809.08 726.707 828.101 723.51L828.106 723.51C828.491 723.441 828.798 723.687 828.9 724.065C828.949 724.249 828.933 724.418 828.873 724.54C828.822 724.646 828.721 724.752 828.509 724.806C808.637 728.195 788.224 726.285 769.325 719.268C752.44 712.928 734.955 702.577 726.519 686.142C726.32 685.708 726.506 685.333 726.814 685.145C726.971 685.049 727.13 685.023 727.252 685.048C727.359 685.069 727.483 685.137 727.583 685.335Z" fill="#263238" stroke="#363A5A"/>
<path d="M820.686 743.267L820.69 743.266C820.915 743.242 821.026 743.31 821.088 743.375C821.163 743.454 821.221 743.594 821.22 743.778C821.218 744.154 820.987 744.496 820.578 744.551C802.119 746.383 783.487 743.848 766.189 737.149C748.888 730.45 733.406 719.774 720.995 705.984L720.995 705.984L720.988 705.977C720.73 705.701 720.778 705.351 721.038 705.093C721.166 704.966 721.316 704.9 721.446 704.892C721.56 704.886 721.699 704.921 721.848 705.083C734.162 718.767 749.528 729.356 766.701 735.991C783.874 742.625 802.369 745.118 820.686 743.267Z" fill="#263238" stroke="#363A5A"/>
<mask id="path-55-inside-3_215_5136" fill="white">
<path d="M725.09 666.359L725.796 670.163C726.069 671.599 728.234 670.984 728.074 669.571C727.937 668.91 727.824 668.25 727.71 667.612C727.825 667.505 727.924 667.382 728.006 667.247C737.711 649.409 757.622 643.509 776.691 643.03C775.723 643.886 774.872 644.867 774.162 645.946C773.998 645.843 773.809 645.787 773.615 645.787C764.558 645.254 755.559 647.551 747.865 652.359C740.17 657.167 734.162 664.249 730.671 672.624C730.671 672.464 730.466 672.35 730.375 672.214C729.532 671.029 727.573 672.214 728.416 673.353C752.793 707.138 794.483 725.751 835.491 713.927C835.793 713.849 836.051 713.653 836.209 713.384C836.367 713.115 836.412 712.794 836.333 712.492C836.255 712.19 836.06 711.931 835.79 711.773C835.521 711.615 835.2 711.571 834.898 711.649C829.261 713.273 823.476 714.334 817.63 714.816C826.742 708.276 834.003 699.484 838.703 689.3C839.318 687.979 837.359 686.84 836.766 688.161C831.955 698.669 824.34 707.647 814.759 714.11C814.609 714.211 814.486 714.346 814.398 714.505C814.311 714.663 814.263 714.84 814.258 715.021C812.162 715.021 810.112 715.021 808.038 715.021C809.77 713.631 811.456 712.196 813.096 710.738C813.326 710.644 813.519 710.475 813.643 710.259C821.419 703.253 828.121 695.139 833.531 686.179C833.541 686.142 833.541 686.102 833.531 686.065C834.032 685.222 834.556 684.379 835.035 683.514C835.151 683.257 835.168 682.966 835.082 682.697C834.996 682.429 834.813 682.201 834.569 682.06C834.326 681.918 834.038 681.872 833.762 681.93C833.486 681.988 833.242 682.146 833.076 682.374L832.871 682.762C826.606 662.509 814.645 645.103 792.296 641.322C792.11 641.285 791.918 641.297 791.738 641.357C791.559 641.417 791.398 641.522 791.271 641.663C791.181 641.644 791.088 641.644 790.998 641.663C790.984 641.516 790.937 641.375 790.858 641.25C790.78 641.125 790.672 641.02 790.546 640.945C790.419 640.869 790.276 640.825 790.129 640.815C789.982 640.805 789.835 640.831 789.699 640.889C786.595 642.035 783.901 644.079 781.962 646.761C780.023 649.442 778.925 652.64 778.809 655.948C778.809 655.948 778.809 656.13 778.809 656.221C777.164 656.346 775.528 656.575 773.911 656.904C773.922 656.844 773.922 656.782 773.911 656.722C773.363 653.606 773.96 650.398 775.593 647.688C777.227 644.979 779.785 642.952 782.796 641.982C784.163 641.527 783.571 639.34 782.204 639.818C781.073 640.199 779.989 640.703 778.969 641.322C778.886 641.141 778.75 640.989 778.579 640.888C778.408 640.786 778.21 640.739 778.012 640.752C758.146 640.98 737.164 646.926 726.639 665.015C726.442 664.947 726.232 664.932 726.028 664.972C725.824 665.011 725.634 665.104 725.477 665.24C725.32 665.376 725.201 665.551 725.133 665.748C725.065 665.944 725.05 666.155 725.09 666.359ZM827.13 691.897C827.13 672.282 812.207 654.808 796.01 644.557C815.625 649.751 825.808 666.45 831.321 685.564C829.977 687.683 828.633 689.824 827.13 691.897ZM820.295 700.577C820.383 690.389 818.226 680.306 813.977 671.046C809.729 661.785 803.493 653.573 795.713 646.994C811.843 657.474 826.401 675.221 824.851 695.041C823.302 696.932 821.799 698.777 820.204 700.577H820.295ZM787.626 644.397L788.15 644.101C797.672 650.477 805.408 659.178 810.627 669.38C815.845 679.582 818.373 690.947 817.971 702.4C817.964 702.584 818.012 702.766 818.108 702.924C816.741 704.359 815.374 705.771 813.916 707.138C814.471 695.384 812.399 683.654 807.851 672.801C803.304 661.948 796.394 652.245 787.626 644.397ZM797.582 714.292C798.884 693.273 793.389 672.394 781.908 654.74C781.755 654.49 781.509 654.31 781.224 654.239C781.427 652.921 781.818 651.64 782.386 650.434C795.613 666.403 802.527 686.666 801.819 707.389C801.819 707.691 801.939 707.981 802.153 708.194C802.366 708.408 802.656 708.528 802.958 708.528C803.26 708.528 803.55 708.408 803.764 708.194C803.977 707.981 804.097 707.691 804.097 707.389C804.824 685.931 797.604 664.96 783.821 648.498L783.548 648.293C784.202 647.34 784.966 646.468 785.826 645.696C794.722 653.572 801.673 663.4 806.136 674.412C810.598 685.424 812.45 697.319 811.547 709.166C809.679 710.829 807.765 712.469 805.76 713.996C805.617 714.105 805.501 714.247 805.422 714.409C805.343 714.571 805.303 714.749 805.305 714.93H804.006C804.006 713.813 804.006 712.651 804.006 711.558C804.006 710.464 801.728 710.123 801.728 711.558C801.728 712.629 801.728 713.699 801.614 714.747C800.293 714.633 799.017 714.497 797.536 714.292H797.582ZM794.119 692.444C794.301 693.583 794.46 694.722 794.62 695.884C787.769 693.824 781.364 690.502 775.734 686.088C775.676 685.94 775.58 685.809 775.457 685.709C775.333 685.609 775.185 685.543 775.028 685.518C768.387 680.136 763.02 673.352 759.308 665.653C760.618 664.674 761.996 663.791 763.432 663.01C770.088 675.956 780.87 686.313 794.073 692.444H794.119ZM765.505 661.985C767.88 660.849 770.37 659.97 772.932 659.365C770.901 662.043 769.705 665.26 769.492 668.614C767.998 666.499 766.651 664.284 765.459 661.985H765.505ZM755.731 668.819C756.324 668.227 756.939 667.635 757.599 667.065C758.101 668.136 758.67 669.184 759.24 670.186C759.093 670.281 758.974 670.415 758.898 670.573C757.254 673.391 756.532 676.652 756.834 679.9C757.137 683.148 758.448 686.22 760.584 688.685C759.577 689.715 758.435 690.604 757.189 691.328C755.108 688.104 753.875 684.407 753.605 680.58C753.334 676.753 754.034 672.919 755.64 669.434C755.719 669.247 755.75 669.044 755.731 668.842V668.819ZM760.538 672.328C761.995 674.674 763.608 676.92 765.368 679.048C765.201 679.197 765.089 679.398 765.049 679.618C764.637 682.254 763.615 684.758 762.065 686.931C760.406 684.934 759.372 682.492 759.093 679.912C758.813 677.331 759.3 674.725 760.493 672.419L760.538 672.328ZM792.091 683.012C792.683 685.291 793.23 687.455 793.686 689.687C791.507 688.593 789.393 687.376 787.353 686.042C787.446 685.955 787.517 685.845 787.558 685.723C787.916 684.851 788.547 684.119 789.355 683.634C790.164 683.15 791.108 682.94 792.046 683.035L792.091 683.012ZM785.53 684.835C783.283 683.28 781.144 681.575 779.128 679.732V679.595C779.705 677.538 780.848 675.685 782.427 674.247C784.006 672.809 785.957 671.844 788.059 671.462C789.323 674.503 790.433 677.605 791.385 680.757C790.111 680.798 788.875 681.207 787.828 681.935C786.781 682.663 785.967 683.678 785.484 684.858L785.53 684.835ZM775.164 675.722C775.588 673.169 776.775 670.804 778.568 668.938C780.361 667.071 782.677 665.791 785.211 665.265C785.872 666.609 786.532 667.954 787.148 669.343C784.89 669.826 782.793 670.88 781.058 672.403C779.323 673.927 778.008 675.869 777.237 678.046C776.531 677.317 775.825 676.565 775.119 675.791L775.164 675.722ZM786.555 711.877C790.261 710.59 793.402 708.052 795.44 704.701C795.562 707.738 795.562 710.776 795.44 713.813C792.425 713.346 789.437 712.722 786.487 711.945L786.555 711.877ZM775.848 708.255C778.344 706.798 780.423 704.723 781.884 702.229C783.344 699.734 784.137 696.906 784.186 694.016C787.436 695.671 790.829 697.029 794.324 698.071C794.531 698.141 794.755 698.141 794.962 698.071C795.076 699.051 795.144 700.03 795.235 701.01C795.077 701.033 794.928 701.098 794.804 701.198C794.679 701.298 794.584 701.43 794.529 701.58C793.628 703.723 792.235 705.625 790.461 707.129C788.688 708.633 786.585 709.698 784.323 710.237C784.126 710.272 783.946 710.368 783.808 710.511C783.669 710.654 783.578 710.837 783.548 711.034C780.791 710.282 778.308 709.348 775.779 708.323L775.848 708.255ZM762.999 702.035C766.124 701.208 768.953 699.517 771.161 697.156C773.369 694.794 774.867 691.859 775.483 688.685C777.51 690.203 779.633 691.588 781.839 692.831C782.018 695.743 781.325 698.643 779.848 701.159C778.37 703.675 776.177 705.693 773.547 706.956C773.417 707.015 773.3 707.1 773.205 707.207C769.705 705.684 766.297 703.957 762.999 702.035ZM757.372 698.481C764.366 697.274 768.079 690.986 770.836 684.812C771.701 685.587 772.567 686.338 773.478 687.09C773.088 690.31 771.669 693.317 769.432 695.665C767.194 698.013 764.259 699.576 761.062 700.122C760.829 700.159 760.619 700.28 760.47 700.463C759.422 699.894 758.397 699.187 757.372 698.504V698.481ZM753.043 695.406C756.516 694.605 759.684 692.818 762.165 690.26C764.647 687.701 766.337 684.481 767.031 680.985C767.715 681.737 768.398 682.488 769.127 683.263C766.576 689.05 763.204 695.861 756.119 696.454C755.93 696.47 755.749 696.536 755.593 696.644C755.437 696.752 755.312 696.898 755.23 697.069C754.478 696.499 753.772 695.952 753.043 695.428V695.406ZM747.872 680.165C749.032 677.726 750.404 675.393 751.972 673.193C751.187 676.435 751.06 679.801 751.6 683.092C752.14 686.383 753.336 689.533 755.116 692.353C753.903 692.864 752.633 693.231 751.334 693.446C749.975 691.717 748.988 689.726 748.435 687.597C747.882 685.468 747.776 683.248 748.122 681.076C748.151 680.918 748.143 680.757 748.1 680.603C748.057 680.449 747.978 680.307 747.872 680.187V680.165ZM744.454 688.252C744.887 687.136 745.32 685.974 745.776 684.926C745.892 686.888 746.347 688.815 747.12 690.621C746.209 689.87 745.32 689.095 744.454 688.366V688.252ZM737.916 681.623C738.111 681.487 738.249 681.284 738.303 681.053C740.529 673.499 744.842 666.727 750.747 661.516C756.651 656.305 763.907 652.866 771.679 651.596C771.348 653.488 771.348 655.423 771.679 657.314C766.59 658.628 761.817 660.953 757.645 664.149C749.99 669.958 746.003 677.955 742.632 686.657C741.037 685.017 739.465 683.331 737.916 681.645V681.623ZM772.909 647.997C772.727 648.407 772.544 648.817 772.385 649.227H772.157C763.894 650.406 756.137 653.914 749.795 659.34C743.453 664.767 738.787 671.887 736.344 679.868C734.886 678.16 733.473 676.406 732.107 674.629C732.158 674.569 732.197 674.499 732.22 674.424C735.378 666.312 741.005 659.398 748.307 654.66C755.608 649.922 764.215 647.599 772.909 648.019V647.997ZM776.486 658.659C778.116 658.426 779.76 658.297 781.406 658.271C782.386 659.889 783.32 661.552 784.209 663.215C781.624 663.837 779.251 665.135 777.333 666.977C775.416 668.819 774.022 671.137 773.296 673.695C772.749 673.057 772.248 672.419 771.747 671.758C771.45 669.369 771.725 666.944 772.549 664.683C773.373 662.421 774.722 660.388 776.486 658.75V658.659Z"/>
</mask>
<path d="M725.09 666.359L725.796 670.163C726.069 671.599 728.234 670.984 728.074 669.571C727.937 668.91 727.824 668.25 727.71 667.612C727.825 667.505 727.924 667.382 728.006 667.247C737.711 649.409 757.622 643.509 776.691 643.03C775.723 643.886 774.872 644.867 774.162 645.946C773.998 645.843 773.809 645.787 773.615 645.787C764.558 645.254 755.559 647.551 747.865 652.359C740.17 657.167 734.162 664.249 730.671 672.624C730.671 672.464 730.466 672.35 730.375 672.214C729.532 671.029 727.573 672.214 728.416 673.353C752.793 707.138 794.483 725.751 835.491 713.927C835.793 713.849 836.051 713.653 836.209 713.384C836.367 713.115 836.412 712.794 836.333 712.492C836.255 712.19 836.06 711.931 835.79 711.773C835.521 711.615 835.2 711.571 834.898 711.649C829.261 713.273 823.476 714.334 817.63 714.816C826.742 708.276 834.003 699.484 838.703 689.3C839.318 687.979 837.359 686.84 836.766 688.161C831.955 698.669 824.34 707.647 814.759 714.11C814.609 714.211 814.486 714.346 814.398 714.505C814.311 714.663 814.263 714.84 814.258 715.021C812.162 715.021 810.112 715.021 808.038 715.021C809.77 713.631 811.456 712.196 813.096 710.738C813.326 710.644 813.519 710.475 813.643 710.259C821.419 703.253 828.121 695.139 833.531 686.179C833.541 686.142 833.541 686.102 833.531 686.065C834.032 685.222 834.556 684.379 835.035 683.514C835.151 683.257 835.168 682.966 835.082 682.697C834.996 682.429 834.813 682.201 834.569 682.06C834.326 681.918 834.038 681.872 833.762 681.93C833.486 681.988 833.242 682.146 833.076 682.374L832.871 682.762C826.606 662.509 814.645 645.103 792.296 641.322C792.11 641.285 791.918 641.297 791.738 641.357C791.559 641.417 791.398 641.522 791.271 641.663C791.181 641.644 791.088 641.644 790.998 641.663C790.984 641.516 790.937 641.375 790.858 641.25C790.78 641.125 790.672 641.02 790.546 640.945C790.419 640.869 790.276 640.825 790.129 640.815C789.982 640.805 789.835 640.831 789.699 640.889C786.595 642.035 783.901 644.079 781.962 646.761C780.023 649.442 778.925 652.64 778.809 655.948C778.809 655.948 778.809 656.13 778.809 656.221C777.164 656.346 775.528 656.575 773.911 656.904C773.922 656.844 773.922 656.782 773.911 656.722C773.363 653.606 773.96 650.398 775.593 647.688C777.227 644.979 779.785 642.952 782.796 641.982C784.163 641.527 783.571 639.34 782.204 639.818C781.073 640.199 779.989 640.703 778.969 641.322C778.886 641.141 778.75 640.989 778.579 640.888C778.408 640.786 778.21 640.739 778.012 640.752C758.146 640.98 737.164 646.926 726.639 665.015C726.442 664.947 726.232 664.932 726.028 664.972C725.824 665.011 725.634 665.104 725.477 665.24C725.32 665.376 725.201 665.551 725.133 665.748C725.065 665.944 725.05 666.155 725.09 666.359ZM827.13 691.897C827.13 672.282 812.207 654.808 796.01 644.557C815.625 649.751 825.808 666.45 831.321 685.564C829.977 687.683 828.633 689.824 827.13 691.897ZM820.295 700.577C820.383 690.389 818.226 680.306 813.977 671.046C809.729 661.785 803.493 653.573 795.713 646.994C811.843 657.474 826.401 675.221 824.851 695.041C823.302 696.932 821.799 698.777 820.204 700.577H820.295ZM787.626 644.397L788.15 644.101C797.672 650.477 805.408 659.178 810.627 669.38C815.845 679.582 818.373 690.947 817.971 702.4C817.964 702.584 818.012 702.766 818.108 702.924C816.741 704.359 815.374 705.771 813.916 707.138C814.471 695.384 812.399 683.654 807.851 672.801C803.304 661.948 796.394 652.245 787.626 644.397ZM797.582 714.292C798.884 693.273 793.389 672.394 781.908 654.74C781.755 654.49 781.509 654.31 781.224 654.239C781.427 652.921 781.818 651.64 782.386 650.434C795.613 666.403 802.527 686.666 801.819 707.389C801.819 707.691 801.939 707.981 802.153 708.194C802.366 708.408 802.656 708.528 802.958 708.528C803.26 708.528 803.55 708.408 803.764 708.194C803.977 707.981 804.097 707.691 804.097 707.389C804.824 685.931 797.604 664.96 783.821 648.498L783.548 648.293C784.202 647.34 784.966 646.468 785.826 645.696C794.722 653.572 801.673 663.4 806.136 674.412C810.598 685.424 812.45 697.319 811.547 709.166C809.679 710.829 807.765 712.469 805.76 713.996C805.617 714.105 805.501 714.247 805.422 714.409C805.343 714.571 805.303 714.749 805.305 714.93H804.006C804.006 713.813 804.006 712.651 804.006 711.558C804.006 710.464 801.728 710.123 801.728 711.558C801.728 712.629 801.728 713.699 801.614 714.747C800.293 714.633 799.017 714.497 797.536 714.292H797.582ZM794.119 692.444C794.301 693.583 794.46 694.722 794.62 695.884C787.769 693.824 781.364 690.502 775.734 686.088C775.676 685.94 775.58 685.809 775.457 685.709C775.333 685.609 775.185 685.543 775.028 685.518C768.387 680.136 763.02 673.352 759.308 665.653C760.618 664.674 761.996 663.791 763.432 663.01C770.088 675.956 780.87 686.313 794.073 692.444H794.119ZM765.505 661.985C767.88 660.849 770.37 659.97 772.932 659.365C770.901 662.043 769.705 665.26 769.492 668.614C767.998 666.499 766.651 664.284 765.459 661.985H765.505ZM755.731 668.819C756.324 668.227 756.939 667.635 757.599 667.065C758.101 668.136 758.67 669.184 759.24 670.186C759.093 670.281 758.974 670.415 758.898 670.573C757.254 673.391 756.532 676.652 756.834 679.9C757.137 683.148 758.448 686.22 760.584 688.685C759.577 689.715 758.435 690.604 757.189 691.328C755.108 688.104 753.875 684.407 753.605 680.58C753.334 676.753 754.034 672.919 755.64 669.434C755.719 669.247 755.75 669.044 755.731 668.842V668.819ZM760.538 672.328C761.995 674.674 763.608 676.92 765.368 679.048C765.201 679.197 765.089 679.398 765.049 679.618C764.637 682.254 763.615 684.758 762.065 686.931C760.406 684.934 759.372 682.492 759.093 679.912C758.813 677.331 759.3 674.725 760.493 672.419L760.538 672.328ZM792.091 683.012C792.683 685.291 793.23 687.455 793.686 689.687C791.507 688.593 789.393 687.376 787.353 686.042C787.446 685.955 787.517 685.845 787.558 685.723C787.916 684.851 788.547 684.119 789.355 683.634C790.164 683.15 791.108 682.94 792.046 683.035L792.091 683.012ZM785.53 684.835C783.283 683.28 781.144 681.575 779.128 679.732V679.595C779.705 677.538 780.848 675.685 782.427 674.247C784.006 672.809 785.957 671.844 788.059 671.462C789.323 674.503 790.433 677.605 791.385 680.757C790.111 680.798 788.875 681.207 787.828 681.935C786.781 682.663 785.967 683.678 785.484 684.858L785.53 684.835ZM775.164 675.722C775.588 673.169 776.775 670.804 778.568 668.938C780.361 667.071 782.677 665.791 785.211 665.265C785.872 666.609 786.532 667.954 787.148 669.343C784.89 669.826 782.793 670.88 781.058 672.403C779.323 673.927 778.008 675.869 777.237 678.046C776.531 677.317 775.825 676.565 775.119 675.791L775.164 675.722ZM786.555 711.877C790.261 710.59 793.402 708.052 795.44 704.701C795.562 707.738 795.562 710.776 795.44 713.813C792.425 713.346 789.437 712.722 786.487 711.945L786.555 711.877ZM775.848 708.255C778.344 706.798 780.423 704.723 781.884 702.229C783.344 699.734 784.137 696.906 784.186 694.016C787.436 695.671 790.829 697.029 794.324 698.071C794.531 698.141 794.755 698.141 794.962 698.071C795.076 699.051 795.144 700.03 795.235 701.01C795.077 701.033 794.928 701.098 794.804 701.198C794.679 701.298 794.584 701.43 794.529 701.58C793.628 703.723 792.235 705.625 790.461 707.129C788.688 708.633 786.585 709.698 784.323 710.237C784.126 710.272 783.946 710.368 783.808 710.511C783.669 710.654 783.578 710.837 783.548 711.034C780.791 710.282 778.308 709.348 775.779 708.323L775.848 708.255ZM762.999 702.035C766.124 701.208 768.953 699.517 771.161 697.156C773.369 694.794 774.867 691.859 775.483 688.685C777.51 690.203 779.633 691.588 781.839 692.831C782.018 695.743 781.325 698.643 779.848 701.159C778.37 703.675 776.177 705.693 773.547 706.956C773.417 707.015 773.3 707.1 773.205 707.207C769.705 705.684 766.297 703.957 762.999 702.035ZM757.372 698.481C764.366 697.274 768.079 690.986 770.836 684.812C771.701 685.587 772.567 686.338 773.478 687.09C773.088 690.31 771.669 693.317 769.432 695.665C767.194 698.013 764.259 699.576 761.062 700.122C760.829 700.159 760.619 700.28 760.47 700.463C759.422 699.894 758.397 699.187 757.372 698.504V698.481ZM753.043 695.406C756.516 694.605 759.684 692.818 762.165 690.26C764.647 687.701 766.337 684.481 767.031 680.985C767.715 681.737 768.398 682.488 769.127 683.263C766.576 689.05 763.204 695.861 756.119 696.454C755.93 696.47 755.749 696.536 755.593 696.644C755.437 696.752 755.312 696.898 755.23 697.069C754.478 696.499 753.772 695.952 753.043 695.428V695.406ZM747.872 680.165C749.032 677.726 750.404 675.393 751.972 673.193C751.187 676.435 751.06 679.801 751.6 683.092C752.14 686.383 753.336 689.533 755.116 692.353C753.903 692.864 752.633 693.231 751.334 693.446C749.975 691.717 748.988 689.726 748.435 687.597C747.882 685.468 747.776 683.248 748.122 681.076C748.151 680.918 748.143 680.757 748.1 680.603C748.057 680.449 747.978 680.307 747.872 680.187V680.165ZM744.454 688.252C744.887 687.136 745.32 685.974 745.776 684.926C745.892 686.888 746.347 688.815 747.12 690.621C746.209 689.87 745.32 689.095 744.454 688.366V688.252ZM737.916 681.623C738.111 681.487 738.249 681.284 738.303 681.053C740.529 673.499 744.842 666.727 750.747 661.516C756.651 656.305 763.907 652.866 771.679 651.596C771.348 653.488 771.348 655.423 771.679 657.314C766.59 658.628 761.817 660.953 757.645 664.149C749.99 669.958 746.003 677.955 742.632 686.657C741.037 685.017 739.465 683.331 737.916 681.645V681.623ZM772.909 647.997C772.727 648.407 772.544 648.817 772.385 649.227H772.157C763.894 650.406 756.137 653.914 749.795 659.34C743.453 664.767 738.787 671.887 736.344 679.868C734.886 678.16 733.473 676.406 732.107 674.629C732.158 674.569 732.197 674.499 732.22 674.424C735.378 666.312 741.005 659.398 748.307 654.66C755.608 649.922 764.215 647.599 772.909 648.019V647.997ZM776.486 658.659C778.116 658.426 779.76 658.297 781.406 658.271C782.386 659.889 783.32 661.552 784.209 663.215C781.624 663.837 779.251 665.135 777.333 666.977C775.416 668.819 774.022 671.137 773.296 673.695C772.749 673.057 772.248 672.419 771.747 671.758C771.45 669.369 771.725 666.944 772.549 664.683C773.373 662.421 774.722 660.388 776.486 658.75V658.659Z" fill="#263238" stroke="#363A5A" stroke-width="2" mask="url(#path-55-inside-3_215_5136)"/>
<path d="M718.616 738.674L718.616 738.671C718.006 731.487 719.439 724.277 722.752 717.873C722.776 717.829 722.808 717.79 722.847 717.759L723.172 717.503L722.98 717.136C722.84 716.867 722.932 716.532 723.184 716.322C723.304 716.222 723.43 716.18 723.536 716.182C723.631 716.184 723.756 716.221 723.894 716.377L723.895 716.378C734.785 728.641 748.466 738.105 763.783 743.971C779.098 749.835 795.599 751.93 811.893 750.078C812.115 750.058 812.228 750.127 812.292 750.196C812.369 750.28 812.428 750.422 812.427 750.606C812.425 750.982 812.195 751.314 811.791 751.361C811.789 751.361 811.788 751.362 811.787 751.362L809.38 751.589L808.956 751.629L808.928 752.054C808.595 757.175 806.266 761.961 802.442 765.383C802.151 765.642 801.787 765.588 801.527 765.33C801.399 765.203 801.333 765.056 801.326 764.929C801.32 764.819 801.354 764.681 801.514 764.533C805.09 761.396 807.293 756.981 807.647 752.238L807.691 751.662L807.114 751.702C805.151 751.837 803.181 751.905 801.203 751.905H800.795L800.713 752.304C799.434 758.51 796.527 764.263 792.29 768.973C792.141 769.135 792.002 769.17 791.888 769.163C791.758 769.156 791.609 769.089 791.481 768.962C791.222 768.703 791.168 768.343 791.434 768.052L791.437 768.049C795.388 763.657 798.122 758.309 799.368 752.534L799.494 751.95L798.897 751.929L795.07 751.792L794.626 751.776L794.558 752.214C793.497 758.985 790.17 765.195 785.122 769.83L785.119 769.833C784.825 770.108 784.468 770.054 784.214 769.799C784.087 769.672 784.02 769.522 784.012 769.388C784.005 769.269 784.042 769.124 784.206 768.969C789 764.55 792.194 758.666 793.289 752.239L793.381 751.698L792.834 751.656L790.738 751.497L790.328 751.466L790.219 751.862C788.261 758.917 784.602 765.384 779.563 770.696C779.411 770.855 779.266 770.891 779.145 770.882C779.009 770.873 778.857 770.804 778.729 770.676C778.602 770.549 778.526 770.39 778.513 770.242C778.502 770.107 778.539 769.951 778.691 769.792L778.693 769.79C783.486 764.728 786.988 758.585 788.903 751.882L789.064 751.32L788.483 751.249C787.001 751.066 785.528 750.885 784.08 750.658L783.311 750.538L783.521 751.287C783.55 751.391 783.553 751.5 783.528 751.604C780.161 759.37 774.466 765.9 767.23 770.293C767.088 770.375 766.919 770.398 766.76 770.357C766.6 770.316 766.463 770.212 766.379 770.07C766.295 769.927 766.271 769.757 766.313 769.597C766.354 769.437 766.458 769.3 766.6 769.217L766.6 769.217L766.608 769.212C773.627 764.914 779.153 758.559 782.433 751.01L782.684 750.432L782.065 750.319C780.698 750.068 779.362 749.819 778.027 749.525L777.472 749.403L777.422 749.969C777.41 750.098 777.359 750.219 777.275 750.317C773.478 754.41 768.863 757.658 763.729 759.851C758.593 762.045 753.053 763.134 747.468 763.046L747.468 763.046H747.46C747.291 763.046 747.128 762.978 747.009 762.859C746.889 762.739 746.821 762.576 746.821 762.407C746.821 762.237 746.889 762.075 747.009 761.955C747.128 761.836 747.289 761.768 747.457 761.768C752.783 761.852 758.068 760.829 762.978 758.763C767.889 756.697 772.317 753.633 775.982 749.765L776.578 749.136L775.735 748.935C773.745 748.46 771.797 747.894 769.84 747.302L769.576 747.222L769.368 747.403C761.933 753.847 752.659 757.79 742.859 758.674L742.434 758.712L742.405 759.138C742.396 759.278 742.343 759.413 742.255 759.522C742.166 759.632 742.046 759.711 741.911 759.75C741.776 759.789 741.632 759.785 741.499 759.739C741.368 759.694 741.254 759.61 741.172 759.499C738.497 755.546 736.768 751.029 736.119 746.3C735.47 741.568 735.919 736.75 737.432 732.22L737.436 732.209L737.439 732.199C737.466 732.103 737.52 732.018 737.595 731.951C737.669 731.885 737.761 731.842 737.859 731.826L738.588 731.707L738.671 732.458C738.672 732.468 738.673 732.477 738.674 732.487L738.671 732.493C737.266 736.649 736.791 741.063 737.28 745.423C737.768 749.783 739.208 753.982 741.498 757.724L741.891 758.365L742.33 757.755C742.386 757.678 742.458 757.614 742.54 757.567C742.623 757.519 742.715 757.491 742.81 757.483L742.81 757.483L742.819 757.482C743.92 757.367 745.002 757.229 746.086 757.045L746.689 756.942L746.469 756.372C744.046 750.085 743.438 743.245 744.715 736.63C744.739 736.526 744.787 736.431 744.856 736.35L745.233 735.909L744.741 735.601C742.933 734.471 741.189 733.249 739.461 731.998L739.328 731.901L739.055 731.358L738.97 731.609L738.08 730.934C736.763 729.935 735.494 728.938 734.227 727.874L733.782 727.5L733.479 727.996C730.794 732.387 729.478 737.479 729.697 742.621C729.917 747.762 731.661 752.722 734.708 756.868C734.824 757.031 734.824 757.155 734.794 757.25C734.758 757.363 734.66 757.491 734.501 757.586C734.175 757.78 733.793 757.75 733.561 757.424L733.559 757.421C730.383 753.028 728.594 747.785 728.422 742.368C728.251 736.95 729.705 731.605 732.597 727.02L732.828 726.654L732.498 726.373C731.119 725.197 729.784 723.952 728.466 722.68L728.002 722.232L727.684 722.793C725.664 726.349 724.379 730.274 723.905 734.337C723.432 738.397 723.779 742.512 724.926 746.435C724.969 746.593 724.947 746.762 724.866 746.904C724.784 747.047 724.649 747.152 724.49 747.196C724.331 747.239 724.161 747.218 724.017 747.136C723.874 747.055 723.769 746.919 723.726 746.76L723.726 746.76L723.723 746.752C722.507 742.575 722.16 738.192 722.704 733.875C723.248 729.559 724.671 725.399 726.886 721.654L727.08 721.325L726.814 721.051C726.066 720.28 725.294 719.463 724.546 718.647L724.057 718.113L723.731 718.759C720.621 724.932 719.293 731.848 719.895 738.733C719.891 738.943 719.814 739.067 719.726 739.145C719.625 739.233 719.474 739.29 719.299 739.29C718.949 739.29 718.648 739.08 718.616 738.674ZM755.006 754.056L755.079 754.211L755.233 754.288L755.279 754.311L755.481 754.412L755.69 754.327C759.982 752.587 763.982 750.203 767.553 747.255L768.247 746.682L767.394 746.395C762.73 744.827 758.184 742.925 753.792 740.705L753.174 740.393L753.072 741.077C752.407 745.499 753.081 750.019 755.006 754.056ZM747.816 756.304L748.309 756.21L748.384 756.563C750.143 756.192 751.88 755.723 753.586 755.158L754.118 754.982L753.883 754.474C751.857 750.083 751.196 745.184 751.986 740.413L751.993 740.372V740.331V740.149V739.852L751.733 739.71C750.03 738.779 748.329 737.804 746.675 736.784L746.054 736.401L745.921 737.119C744.726 743.565 745.384 750.217 747.816 756.304Z" fill="#263238" stroke="#363A5A"/>
<path d="M770.381 730.274L770.389 730.278L770.397 730.282C789.811 739.347 811.339 737.638 831.913 735.795L831.915 735.794C832.14 735.773 832.254 735.842 832.319 735.912C832.396 735.996 832.455 736.138 832.454 736.322C832.452 736.697 832.222 737.03 831.818 737.077C810.731 738.969 789.246 740.473 769.681 731.335L769.68 731.335C769.483 731.243 769.428 731.132 769.411 731.043C769.39 730.931 769.416 730.773 769.517 730.608C769.733 730.255 770.091 730.126 770.381 730.274Z" fill="#263238" stroke="#363A5A"/>
<path d="M832.267 719.764L832.255 719.765L832.243 719.767C832.032 719.801 831.938 719.741 831.889 719.689C831.823 719.621 831.764 719.489 831.764 719.301C831.764 718.918 831.995 718.556 832.396 718.477L840.921 717.523C840.921 717.523 840.921 717.523 840.921 717.523C841.146 717.498 841.257 717.566 841.319 717.631C841.394 717.711 841.452 717.85 841.451 718.034C841.449 718.411 841.217 718.754 840.806 718.807L832.267 719.764Z" fill="#263238" stroke="#363A5A"/>
<path d="M756.57 723.459L756.574 723.46C756.95 723.607 757.084 723.985 756.985 724.347C756.937 724.523 756.844 724.642 756.751 724.698C756.676 724.744 756.556 724.779 756.352 724.696L756.347 724.694C737.98 717.433 723.197 703.251 715.18 685.202L715.176 685.193L715.172 685.184C714.994 684.823 715.152 684.469 715.465 684.281C715.618 684.189 715.766 684.168 715.87 684.192C715.956 684.211 716.067 684.269 716.157 684.469C724.006 702.254 738.515 716.252 756.57 723.459Z" fill="#263238" stroke="#363A5A"/>
<path d="M722.297 674.645L722.29 674.635L722.282 674.626C722.122 674.435 722.124 674.307 722.141 674.238C722.162 674.15 722.238 674.038 722.393 673.948C722.707 673.767 723.152 673.78 723.447 674.123C736.944 691.707 754.542 705.717 774.704 714.929C774.906 715.023 774.97 715.14 774.991 715.234C775.016 715.345 774.995 715.498 774.903 715.655C774.716 715.975 774.355 716.145 773.981 715.979C753.633 706.632 735.887 692.44 722.297 674.645Z" fill="#263238" stroke="#363A5A"/>
<path d="M778.627 716.387C778.797 716.387 778.959 716.454 779.079 716.574C779.199 716.694 779.266 716.856 779.266 717.026C779.266 717.195 779.199 717.358 779.079 717.478C778.96 717.598 778.797 717.665 778.627 717.665C778.458 717.665 778.295 717.598 778.175 717.478C778.056 717.358 777.988 717.195 777.988 717.026C777.988 716.856 778.056 716.694 778.175 716.574C778.295 716.454 778.458 716.387 778.627 716.387Z" fill="#263238" stroke="#363A5A"/>
<path d="M776.29 725.287L776.298 725.29L776.306 725.292C795.823 731.715 816.755 732.509 836.702 727.581C837.085 727.489 837.37 727.71 837.469 728.058C837.518 728.231 837.504 728.394 837.447 728.512C837.396 728.616 837.296 728.722 837.081 728.774L837.078 728.774C816.92 733.771 795.762 732.986 776.031 726.508C775.658 726.376 775.526 726.019 775.623 725.663C775.671 725.488 775.766 725.363 775.866 725.3C775.951 725.247 776.082 725.21 776.29 725.287Z" fill="#263238" stroke="#363A5A"/>
<path d="M765.094 728.12C765.264 728.12 765.426 728.187 765.546 728.307C765.666 728.427 765.733 728.59 765.733 728.759C765.733 728.929 765.666 729.091 765.546 729.211C765.426 729.331 765.264 729.398 765.094 729.398C764.925 729.398 764.762 729.331 764.642 729.211C764.522 729.091 764.455 728.929 764.455 728.759C764.455 728.59 764.522 728.427 764.642 728.307C764.762 728.187 764.925 728.12 765.094 728.12Z" fill="#263238" stroke="#363A5A"/>
<path d="M714.457 708.333L714.548 708.113L714.435 707.904C714.05 707.191 713.718 706.452 713.44 705.691L713.439 705.691C713.362 705.481 713.399 705.35 713.451 705.265C713.513 705.165 713.636 705.071 713.808 705.024C714.158 704.928 714.523 705.058 714.664 705.442C715.827 708.671 717.971 711.455 720.796 713.405C721.112 713.624 721.149 714.001 720.952 714.334C720.856 714.496 720.727 714.596 720.613 714.632C720.52 714.662 720.398 714.664 720.24 714.552L719.541 714.011L719.039 713.622L718.779 714.202C716.675 718.896 715.874 724.069 716.46 729.18C716.484 729.396 716.418 729.504 716.352 729.566C716.272 729.641 716.131 729.7 715.946 729.7C715.569 729.7 715.23 729.472 715.175 729.066C714.62 723.585 715.598 718.057 717.999 713.098L718.158 712.77L717.895 712.519C717.183 711.838 716.531 711.097 715.947 710.305L715.381 709.538L715.071 710.44C714.439 712.283 714.047 714.201 713.907 716.146C713.873 716.568 713.566 716.777 713.223 716.777C713.051 716.777 712.9 716.72 712.799 716.63C712.709 716.55 712.63 716.419 712.627 716.197C712.799 713.493 713.417 710.836 714.457 708.333Z" fill="#263238" stroke="#363A5A"/>
<path d="M816.082 749.438L816.082 749.438L816.085 749.438L821.888 748.573C821.993 748.56 822.1 748.572 822.2 748.606C822.302 748.641 822.394 748.698 822.47 748.774L823.021 749.321L823.291 748.594C823.663 747.598 824.253 746.698 825.02 745.962C825.786 745.225 826.708 744.67 827.718 744.338L827.72 744.337C827.924 744.269 828.056 744.307 828.148 744.367C828.253 744.436 828.351 744.57 828.4 744.754C828.498 745.125 828.365 745.511 827.979 745.672C826.953 746.021 826.047 746.655 825.369 747.501C824.687 748.351 824.263 749.379 824.148 750.462L824.148 750.462L824.148 750.468C824.11 750.866 823.79 751.092 823.412 751.092C823.228 751.092 823.081 751.033 822.992 750.952C822.917 750.884 822.849 750.77 822.866 750.555L822.915 749.93L822.295 750.02L816.558 750.856C816.157 750.823 815.825 750.488 815.721 750.085C815.669 749.886 815.692 749.729 815.742 749.634C815.781 749.558 815.864 749.469 816.082 749.438Z" fill="#263238" stroke="#363A5A"/>
</svg>
