<svg width="179" height="219" viewBox="0 0 179 219" fill="none" xmlns="http://www.w3.org/2000/svg">
<path d="M78.6882 195.522C74.8307 198.24 70.8235 200.917 66.276 202.173C61.7285 203.428 56.4743 203.004 52.8163 200.044C48.1274 196.22 47.2794 189.378 47.8281 183.342C48.884 171.055 54.08 158.875 51.7106 146.762C50.8164 142.39 48.9705 138.267 46.3037 134.688C43.637 131.109 40.2149 128.161 36.2806 126.053C32.3198 124.009 27.9577 122.861 23.5038 122.692C19.0498 122.522 14.6131 123.335 10.5084 125.072C5.41217 127.275 0.640172 131.499 0.0332794 137.011C1.696 142.132 9.31956 146.363 14.3825 148.159C19.4455 149.955 25.0738 151.917 27.6012 156.656C29.7959 160.771 28.9646 165.751 28.4325 170.39C27.5872 178.262 27.8897 186.215 29.3304 194C30.4112 199.82 32.2235 205.731 36.1392 210.187C42.258 217.154 52.4255 219.24 61.6453 218.251C70.8651 217.262 79.5694 213.695 88.4483 211.043L78.6882 195.522Z" fill="#BF7335"/>
<g opacity="0.5">
<path d="M50.9706 151.193C51.3512 150.178 51.6623 149.14 51.9018 148.083C51.8353 147.645 51.7604 147.205 51.6773 146.761C50.7832 142.389 48.9372 138.266 46.2705 134.687C43.6037 131.108 40.1817 128.16 36.2473 126.052C32.2865 124.008 27.9244 122.86 23.4705 122.691C19.0165 122.521 14.5798 123.334 10.4751 125.071C5.3789 127.274 0.606892 131.498 0 137.01C1.66272 142.131 9.28628 146.362 14.3493 148.158C19.4122 149.954 25.0405 151.916 27.5679 156.655C29.0477 159.431 29.1475 162.599 28.9064 165.8C29.8292 165.924 30.762 165.957 31.6914 165.899C40.1879 165.376 47.9445 159.19 50.9706 151.193Z" fill="white"/>
</g>
<path d="M141.896 207.675C144.391 206.087 150.027 205.672 152.954 205.339C155.88 205.007 159.064 205.838 161.009 208.049C162.955 210.261 163.287 213.944 161.3 216.114C159.031 218.608 153.885 218.558 150.493 218.558C141.348 218.558 136.002 218.383 127.622 218.558" fill="#BF7335"/>
<path d="M127.647 218.557C127.858 218.519 128.072 218.5 128.287 218.499L130.133 218.424C131.729 218.383 134.04 218.333 136.9 218.325H146.951C148.838 218.325 150.825 218.325 152.87 218.325C154.972 218.344 157.063 218.012 159.056 217.344C160.029 216.973 160.879 216.336 161.508 215.506C162.075 214.667 162.392 213.684 162.423 212.671C162.46 211.711 162.283 210.753 161.905 209.869C161.526 208.985 160.957 208.196 160.236 207.559C158.89 206.421 157.233 205.715 155.481 205.53C153.938 205.416 152.387 205.478 150.859 205.713C148.616 205.893 146.392 206.255 144.208 206.794C143.62 206.953 143.045 207.156 142.487 207.401C142.3 207.506 142.105 207.598 141.905 207.675C141.905 207.675 141.946 207.633 142.038 207.575C142.129 207.517 142.262 207.426 142.445 207.326C142.994 207.042 143.567 206.808 144.158 206.627C146.334 206.026 148.56 205.62 150.809 205.414C152.36 205.151 153.936 205.071 155.506 205.173C157.341 205.349 159.08 206.077 160.494 207.259C161.264 207.933 161.873 208.77 162.279 209.709C162.684 210.648 162.876 211.666 162.838 212.688C162.809 213.784 162.465 214.849 161.849 215.756C161.174 216.655 160.257 217.344 159.205 217.743C157.169 218.433 155.029 218.773 152.879 218.749C150.809 218.749 148.83 218.749 146.935 218.749L136.892 218.632H130.124H128.279C128.067 218.623 127.855 218.598 127.647 218.557Z" fill="#263238"/>
<path d="M107.029 86.1895C107.029 87.3036 100.378 103.465 83.9008 116.559C67.4232 129.653 53.7972 144.983 54.0799 165.327C54.3626 185.67 66.8995 207.967 66.8995 207.967L79.8604 218.168L127.647 218.559C127.647 218.559 149.661 213.263 152.446 195.148C155.231 177.032 149.661 168.394 149.661 168.394L150.493 150.279C150.493 150.279 163.587 126.037 164.426 118.238C165.266 110.44 158.016 82.0078 158.016 82.0078L107.029 86.1895Z" fill="#BF7335"/>
<path d="M133.782 138.78C133.385 140.547 133.292 142.369 133.508 144.167C133.79 146.111 134.373 147.999 135.237 149.763C136.289 151.928 137.592 153.962 139.12 155.823C140.741 157.818 142.445 159.614 143.9 161.277C145.355 162.94 146.702 164.486 147.699 165.858C148.504 166.928 149.229 168.056 149.869 169.233C150.102 169.649 150.243 169.99 150.351 170.214C150.459 170.438 150.501 170.563 150.484 170.571C150.202 170.17 149.947 169.751 149.72 169.316C149.031 168.181 148.276 167.087 147.458 166.041C146.436 164.702 145.114 163.197 143.609 161.551C142.104 159.905 140.417 158.109 138.779 156.097C137.235 154.205 135.923 152.134 134.871 149.929C134.014 148.124 133.453 146.192 133.209 144.209C133.048 142.87 133.104 141.514 133.375 140.194C133.442 139.835 133.537 139.482 133.658 139.138C133.684 139.014 133.726 138.894 133.782 138.78Z" fill="#263238"/>
<path d="M151.681 175.735C151.767 175.894 151.837 176.061 151.889 176.234C152.006 176.567 152.205 177.066 152.388 177.706C152.934 179.526 153.32 181.389 153.544 183.276C153.882 186.081 153.882 188.917 153.544 191.722C153.352 193.384 153.027 195.027 152.571 196.636C152.1 198.356 151.462 200.027 150.667 201.624C149.867 203.232 148.915 204.761 147.824 206.188C146.795 207.505 145.66 208.737 144.432 209.871C142.341 211.777 140.014 213.406 137.507 214.718C135.827 215.607 134.075 216.352 132.269 216.946C131.637 217.17 131.13 217.295 130.789 217.395C130.62 217.454 130.444 217.493 130.266 217.511C130.425 217.429 130.592 217.362 130.764 217.312C131.097 217.179 131.596 217.037 132.219 216.788C133.989 216.132 135.709 215.349 137.365 214.443C139.826 213.112 142.11 211.478 144.166 209.58C145.366 208.45 146.478 207.23 147.491 205.93C148.558 204.521 149.491 203.016 150.276 201.433C151.064 199.849 151.696 198.192 152.164 196.486C152.619 194.91 152.95 193.301 153.153 191.673C153.511 188.895 153.539 186.085 153.236 183.301C153.049 181.422 152.71 179.562 152.222 177.739C152.072 177.09 151.898 176.6 151.806 176.259C151.752 176.088 151.71 175.913 151.681 175.735Z" fill="#263238"/>
<path d="M80.6918 218.135C80.2767 217.996 79.8736 217.823 79.4863 217.619C79.017 217.408 78.5591 217.172 78.1146 216.913C77.5908 216.613 76.9756 216.297 76.3521 215.865C75.7285 215.433 75.0136 215.034 74.3069 214.46C73.6003 213.886 72.8604 213.313 72.0872 212.673C68.8092 209.789 66.08 206.336 64.0313 202.48C63.5824 201.582 63.1418 200.734 62.8092 199.903C62.4767 199.072 62.1608 198.307 61.9114 197.592C61.662 196.877 61.4791 196.212 61.3045 195.638C61.1574 195.143 61.0353 194.641 60.9387 194.133C60.8284 193.711 60.7533 193.28 60.7142 192.845C60.8827 193.25 61.0135 193.671 61.1049 194.1C61.2047 194.507 61.346 195.006 61.5372 195.572C61.7285 196.137 61.9114 196.794 62.2023 197.492C62.4933 198.19 62.7593 198.964 63.1418 199.762C63.5242 200.56 63.9731 201.424 64.3805 202.256C65.4254 204.143 66.615 205.947 67.9387 207.651C69.2849 209.333 70.7609 210.906 72.3532 212.357C73.1098 213.005 73.8081 213.637 74.5231 214.152C75.2381 214.668 75.8948 215.175 76.5183 215.599C77.1419 216.023 77.7238 216.364 78.2309 216.688C78.7381 217.012 79.187 217.253 79.5611 217.453C79.958 217.645 80.3365 217.873 80.6918 218.135Z" fill="#263238"/>
<path d="M102.906 160.736C102.611 160.578 102.333 160.391 102.074 160.179C101.567 159.797 100.844 159.207 99.971 158.425C97.6273 156.302 95.5478 153.904 93.7774 151.284L94.1515 151.109L95.7477 156.239L96.9531 160.08L97.1444 160.711L96.6206 160.312C93.8437 158.168 91.6861 155.325 90.3688 152.074C89.9887 151.128 89.6884 150.152 89.4709 149.156C89.3961 148.806 89.3628 148.532 89.3296 148.324C89.2963 148.116 89.3296 148.042 89.3296 148.033C89.4504 148.379 89.5503 148.731 89.6289 149.089C89.8987 150.062 90.2376 151.015 90.6431 151.941C92.0077 155.1 94.1603 157.857 96.895 159.947L96.5624 160.179C96.18 158.949 95.7837 157.671 95.3736 156.347C94.8166 154.551 94.2845 152.814 93.7857 151.217L93.37 149.846L94.1598 151.034C95.8962 153.643 97.9148 156.051 100.179 158.217C101.01 159.049 101.717 159.639 102.199 160.055C102.454 160.261 102.691 160.489 102.906 160.736Z" fill="#263238"/>
<g opacity="0.3">
<path d="M133.375 139.804C133.491 138.973 134.822 138.973 135.279 139.696C135.622 140.445 135.718 141.284 135.553 142.091C135.271 146.879 138.255 151.236 141.373 154.869C144.49 158.502 147.94 162.235 148.938 166.923C146.444 164.055 143.518 161.636 140.782 159.017C138.047 156.398 135.47 153.497 133.982 150.014C132.494 146.53 132.211 142.365 133.982 139.031" fill="black"/>
</g>
<g opacity="0.3">
<path d="M132.951 216.653C136.775 216.794 140.724 216.412 144.124 214.649C147.525 212.887 150.276 209.553 150.526 205.737L147.658 205.862C143.982 210.66 139 214.294 133.308 216.329" fill="black"/>
</g>
<path d="M139.178 21.126C139.178 21.126 118.394 24.3517 113.954 26.1141C109.515 27.8766 91.3248 37.2876 88.4649 46.2497C88.4649 46.2497 87.0433 56.3507 91.5077 68.7795C93.1289 73.3104 106.323 88.6407 109.457 90.3948C112.591 92.149 158.507 83.9934 158.507 83.9934C161.267 80.2523 169.207 67.2498 169.14 57.5063C169.057 45.277 164.676 31.5263 164.676 31.5263L139.178 21.126Z" fill="#BF7335"/>
<path d="M155.182 0.0103958C154.733 -0.0644266 149.212 0.0103895 145.014 9.51283C142.439 15.3104 139.464 20.9218 136.11 26.3063L164.792 32.9572C164.792 32.9572 163.188 17.4606 161.6 12.0485C160.012 6.63633 158.391 0.534152 155.182 0.0103958Z" fill="#BF7335"/>
<g opacity="0.6">
<path d="M146.319 58.9853C137.05 55.3523 126.367 56.9651 117.33 61.072C112.283 63.3583 107.353 66.6671 105.076 71.7301C101.393 80.0437 106.397 89.8787 113.389 95.6317C120.381 101.385 129.185 104.502 136.767 109.507C144.349 114.512 151.058 122.651 150.069 131.671L150.518 150.21C151.266 148.822 163.603 125.802 164.418 118.236C165.125 111.585 159.962 89.9285 158.432 83.7017C159.097 82.8703 160.145 81.1327 161.392 79.4867C161.533 70.4997 154.816 62.3274 146.319 58.9853Z" fill="white"/>
</g>
<path d="M136.725 55.4288C136.783 55.2208 136.795 55.0028 136.761 54.7897C136.726 54.5767 136.645 54.3737 136.524 54.195C136.403 54.0162 136.245 53.8659 136.06 53.7545C135.875 53.6431 135.668 53.5733 135.453 53.5499C133.098 53.2555 130.707 53.5852 128.52 54.5059C128.273 54.5762 128.045 54.6987 127.85 54.8651C127.655 55.0315 127.497 55.2379 127.389 55.4703C127.342 55.7311 127.36 55.9996 127.441 56.2519C127.522 56.5042 127.664 56.7326 127.855 56.9169C128.415 57.5906 129.136 58.1122 129.951 58.4336C130.766 58.7549 131.649 58.8656 132.518 58.7554C133.388 58.6452 134.215 58.3176 134.924 57.803C135.633 57.2884 136.201 56.6034 136.576 55.8112C136.634 55.6872 136.684 55.5595 136.725 55.4288Z" fill="#263238"/>
<path d="M137.457 65.7705C137.163 66.1795 136.792 66.5265 136.364 66.7918C135.936 67.0572 135.46 67.2356 134.963 67.3168C134.483 67.4717 133.976 67.5286 133.474 67.4844C132.971 67.4401 132.482 67.2955 132.036 67.0591C132.982 67.1049 133.929 67.0519 134.863 66.9012C135.764 66.614 136.633 66.2352 137.457 65.7705Z" fill="#263238"/>
<path d="M88.9887 48.1477C88.9887 48.1477 79.2036 14.2366 83.377 11.3767C87.5504 8.5168 91.3913 11.9004 91.3913 11.9004L112.998 28.2948L88.9887 48.1477Z" fill="#BF7335"/>
<g opacity="0.6">
<path d="M91.6907 41.2944C95.3846 36.1777 100.281 32.0491 105.949 29.2729L91.1088 17.6339C90.8109 17.3233 90.4495 17.0807 90.0491 16.9229C89.6487 16.765 89.219 16.6956 88.7893 16.7194C88.4018 16.8549 88.0574 17.0911 87.7915 17.4038C87.5256 17.7165 87.3477 18.0943 87.2762 18.4985C86.7275 20.552 87.2762 23.8857 87.7085 25.9808C88.9057 31.4594 90.2026 36.7136 91.6907 41.3277" fill="white"/>
</g>
<g opacity="0.6">
<path d="M159.879 28.5233C154.604 25.5028 148.67 23.8215 142.595 23.6266C145.399 18.256 148.198 12.8855 150.991 7.51488C151.374 6.77497 151.864 5.96023 152.654 5.79396C153.047 5.75889 153.441 5.82897 153.798 5.997C154.155 6.16502 154.46 6.42494 154.683 6.75003C155.988 8.33793 156.836 11.4721 157.268 13.484C158.391 18.7632 159.355 23.876 159.862 28.5233" fill="white"/>
</g>
<path d="M162.689 76.8857C162.637 77.0601 162.57 77.2298 162.489 77.3929C162.323 77.7587 162.107 78.2242 161.832 78.8145C160.98 80.54 159.943 82.1679 158.74 83.6696C156.906 85.8766 154.669 87.7135 152.147 89.0818C151.432 89.4476 150.676 89.7968 149.894 90.1127C149.08 90.438 148.247 90.7156 147.4 90.944C146.537 91.1688 145.663 91.3492 144.781 91.4844C143.866 91.606 142.944 91.6809 142.021 91.7089C140.383 91.7581 138.744 91.6327 137.133 91.3348L137.257 90.9274C139.54 91.9046 141.601 93.3326 143.318 95.1258L143.626 95.45H143.177C139.637 95.4681 136.118 94.9065 132.76 93.7873C131.816 93.4754 130.889 93.1146 129.983 92.7065C129.667 92.5652 129.426 92.4405 129.268 92.3656C129.185 92.3287 129.106 92.2812 129.035 92.2243C129.372 92.3286 129.703 92.4535 130.025 92.5984C130.665 92.8478 131.612 93.197 132.826 93.5711C136.179 94.5986 139.671 95.0951 143.177 95.0426L143.035 95.3669C141.348 93.6255 139.326 92.2428 137.091 91.3015L135.237 90.52L137.216 90.8942C138.798 91.1827 140.406 91.3025 142.013 91.2516C142.927 91.2516 143.833 91.1269 144.715 91.0355C145.583 90.9079 146.444 90.7302 147.292 90.5034C148.115 90.2948 148.925 90.0395 149.719 89.7386C150.484 89.431 151.233 89.0901 151.939 88.7326C154.427 87.4017 156.645 85.62 158.482 83.4784C159.692 82.0086 160.755 80.4243 161.658 78.748C161.957 78.1827 162.198 77.7254 162.381 77.3679C162.468 77.1978 162.571 77.0363 162.689 76.8857Z" fill="#263238"/>
<path d="M150.168 129.154C150.245 129.47 150.29 129.794 150.302 130.119C150.36 130.742 150.418 131.648 150.484 132.762C150.609 134.999 150.717 138.083 150.767 141.492C150.817 144.9 150.767 147.985 150.767 150.221C150.767 151.335 150.701 152.241 150.659 152.865C150.662 153.192 150.626 153.519 150.551 153.837C150.491 153.517 150.469 153.19 150.484 152.865C150.484 152.15 150.484 151.26 150.484 150.221C150.484 147.885 150.426 144.85 150.393 141.492C150.36 138.133 150.277 135.107 150.235 132.779C150.235 131.732 150.235 130.85 150.185 130.127C150.142 129.805 150.136 129.478 150.168 129.154Z" fill="#263238"/>
<path d="M118.502 53.4746C118.502 54.2181 118.281 54.945 117.868 55.5631C117.455 56.1812 116.867 56.6629 116.18 56.947C115.493 57.2312 114.737 57.3051 114.008 57.1595C113.279 57.0138 112.609 56.6551 112.084 56.1287C111.559 55.6024 111.202 54.932 111.058 54.2025C110.914 53.4731 110.989 52.7172 111.275 52.0307C111.561 51.3443 112.044 50.758 112.663 50.3461C113.282 49.9342 114.009 49.7152 114.753 49.7168C115.748 49.719 116.701 50.1159 117.404 50.8204C118.107 51.5248 118.502 52.4794 118.502 53.4746Z" fill="#263238"/>
<path d="M150.268 47.7309C150.27 48.4744 150.051 49.2018 149.639 49.8208C149.227 50.4399 148.641 50.9228 147.954 51.2085C147.268 51.4942 146.512 51.5698 145.782 51.4257C145.053 51.2817 144.383 50.9244 143.856 50.3992C143.33 49.8741 142.971 49.2045 142.826 48.4753C142.68 47.7462 142.754 46.9902 143.038 46.3031C143.322 45.616 143.804 45.0286 144.422 44.6153C145.04 44.202 145.767 43.9814 146.51 43.9814C147.506 43.9814 148.46 44.3762 149.165 45.0791C149.869 45.782 150.266 46.7357 150.268 47.7309Z" fill="#263238"/>
<path d="M144.05 56.3838C144.09 56.815 144.062 57.2499 143.967 57.6724C143.789 58.8449 143.391 59.9732 142.794 60.9978C142.596 61.3486 142.347 61.668 142.054 61.9456C141.726 62.2302 141.359 62.4679 140.965 62.6522C140.076 63.067 139.062 63.1264 138.13 62.8185C137.632 62.6738 137.16 62.4492 136.734 62.1534C136.285 61.8711 135.854 61.5601 135.445 61.2223C134.582 60.5136 133.803 59.7074 133.126 58.8197L133.508 58.7448L133.442 58.9693C133.173 60.0418 132.687 61.0477 132.013 61.9244C131.34 62.8011 130.493 63.5299 129.526 64.0655C128.653 64.5153 127.667 64.6975 126.691 64.5893C125.857 64.49 125.056 64.2059 124.346 63.7579C123.341 63.0869 122.516 62.1791 121.944 61.1142C121.793 60.8287 121.66 60.5344 121.545 60.233C121.47 60.0251 121.437 59.9087 121.453 59.9087C121.47 59.9087 121.661 60.3244 122.093 61.0311C122.69 62.0429 123.52 62.8979 124.513 63.5252C125.184 63.948 125.943 64.2124 126.732 64.2983C127.634 64.3822 128.541 64.2032 129.343 63.7829C130.253 63.2621 131.048 62.5629 131.681 61.7271C132.314 60.8914 132.771 59.9364 133.026 58.9194L133.084 58.7033L133.209 58.2876L133.466 58.6285C134.128 59.4832 134.881 60.2637 135.711 60.9563C136.105 61.2863 136.518 61.5917 136.95 61.8708C137.341 62.1518 137.777 62.3654 138.238 62.5026C139.03 62.7631 139.886 62.7471 140.667 62.4571C141.448 62.167 142.107 61.6203 142.537 60.9064C143.134 59.9237 143.561 58.8472 143.8 57.7223C143.983 56.841 144.016 56.3838 144.05 56.3838Z" fill="#263238"/>
<g opacity="0.6">
<path d="M127.547 23.0889L122.276 24.0865C122.647 26.283 123.422 28.3916 124.563 30.3051C124.962 30.9785 125.568 31.7101 126.35 31.6519C126.579 31.6234 126.799 31.5417 126.991 31.4132C127.183 31.2847 127.342 31.113 127.456 30.912C127.686 30.5096 127.835 30.0663 127.896 29.6067C128.276 27.4357 128.156 25.2069 127.547 23.0889Z" fill="white"/>
</g>
<path d="M176.124 61.9797C175.765 61.9474 175.41 61.8749 175.068 61.7635L172.233 61.0569C169.838 60.4666 166.513 59.7433 162.797 59.1447C159.081 58.5462 155.697 58.2219 153.236 58.039L150.326 57.8312C149.966 57.8245 149.607 57.7855 149.254 57.7148C149.608 57.6551 149.968 57.6356 150.326 57.6566C151.016 57.6566 151.989 57.6566 153.253 57.7314C159.696 58.0388 166.086 59.0536 172.308 60.7576C173.505 61.0901 174.461 61.3728 175.118 61.5889C175.466 61.6838 175.803 61.8147 176.124 61.9797Z" fill="#263238"/>
<path d="M179 55.1797C178.628 55.2326 178.252 55.2465 177.878 55.2212H174.835C172.258 55.2212 168.708 55.2213 164.784 55.2961C160.86 55.3709 157.302 55.6037 154.741 55.7616L151.706 55.9528C151.333 55.9858 150.958 55.9858 150.584 55.9528C150.944 55.847 151.315 55.7829 151.69 55.7616C152.405 55.6702 153.436 55.5538 154.724 55.4291C157.285 55.188 160.843 54.9469 164.775 54.8388C168.708 54.7308 172.258 54.7889 174.843 54.897C176.124 54.9469 177.171 55.0051 177.886 55.0633C178.26 55.0662 178.633 55.1052 179 55.1797Z" fill="#263238"/>
<path d="M178.676 71.6832C178.303 71.5261 177.944 71.3369 177.603 71.1179C176.93 70.7188 175.941 70.1618 174.727 69.4552C171.55 67.7011 168.28 66.1192 164.933 64.7164C161.575 63.3493 158.148 62.1588 154.666 61.1499C153.336 60.7591 152.247 60.4598 151.49 60.252C151.095 60.1682 150.708 60.0485 150.335 59.8945C150.739 59.9203 151.141 59.9872 151.532 60.094C152.297 60.2437 153.402 60.5014 154.749 60.8589C161.802 62.7389 168.569 65.5604 174.868 69.2473C176.074 69.954 177.038 70.5609 177.678 70.9932C178.031 71.1923 178.365 71.4233 178.676 71.6832Z" fill="#263238"/>
<path d="M113.106 66.8691C112.824 67.1039 112.518 67.3074 112.192 67.476L109.673 69.0307C107.511 70.3359 104.552 72.1815 101.359 74.3431C98.1669 76.5046 95.3569 78.5747 93.3451 80.0961L90.9175 81.9334C90.6379 82.1721 90.3342 82.3811 90.0113 82.5569C90.2614 82.2765 90.54 82.0229 90.8427 81.8003C91.3747 81.3348 92.1645 80.678 93.1455 79.8799C95.1158 78.292 97.9092 76.1804 101.11 74.0105C104.311 71.8407 107.304 70.0283 109.507 68.7896C110.612 68.1661 111.51 67.6756 112.142 67.3596C112.448 67.1668 112.771 67.0026 113.106 66.8691Z" fill="#263238"/>
<path d="M112.516 63.9336C112.409 64.0159 112.292 64.083 112.167 64.1331L111.128 64.6236L107.295 66.3612C104.061 67.8327 99.5968 69.8944 94.725 72.2638C89.8533 74.6332 85.472 76.8695 82.3128 78.499L78.5717 80.4361L77.5492 80.9515C77.4322 81.019 77.3063 81.0694 77.175 81.1012C77.2755 81.012 77.3873 80.9365 77.5076 80.8767L78.4886 80.2864C79.32 79.7876 80.6086 79.0809 82.1715 78.233C85.2891 76.5287 89.6538 74.2508 94.5338 71.8731C99.4139 69.4954 103.903 67.4835 107.17 66.0536C108.833 65.3469 110.138 64.7982 111.061 64.4324L112.125 64.0167C112.25 63.9681 112.382 63.94 112.516 63.9336Z" fill="#263238"/>
<path d="M107.902 62.6934C107.471 62.8624 107.026 62.9932 106.572 63.0841C105.741 63.3003 104.469 63.6245 102.939 64.0402C99.8795 64.8715 95.6728 66.1435 91.1419 67.8312C86.611 69.5188 82.5955 71.3229 79.7356 72.6946C78.3057 73.3847 77.1501 73.9583 76.3603 74.3573C75.9578 74.5816 75.538 74.7734 75.105 74.931C75.478 74.658 75.8729 74.4161 76.2855 74.2077C77.0504 73.7587 78.181 73.1519 79.6109 72.4203C87.0217 68.6686 94.8298 65.7601 102.889 63.7492C104.435 63.3668 105.691 63.0841 106.564 62.9178C107.004 62.8133 107.451 62.7383 107.902 62.6934Z" fill="#263238"/>
<path d="M152.505 12.8457C152.596 13.1148 152.655 13.3939 152.679 13.6771C152.754 14.2507 152.837 15.0738 152.887 16.1046C153.013 18.8256 152.818 21.5519 152.305 24.227L152.197 24.8007L151.906 24.2852C151.723 23.9693 151.532 23.6201 151.332 23.2793L148.364 18.0001L148.714 17.9502C148.345 19.4767 148.13 21.0365 148.073 22.6059C148.032 23.7448 148.073 24.4016 148.015 24.4099C147.965 24.2568 147.937 24.0972 147.932 23.936C147.879 23.4946 147.851 23.0505 147.849 22.6059C147.825 21.012 147.993 19.4211 148.348 17.8671L148.456 17.3932L148.697 17.8172L151.706 23.0631L152.28 24.0774L151.881 24.1439C152.387 21.4975 152.627 18.8071 152.596 16.113C152.571 14.1011 152.438 12.854 152.505 12.8457Z" fill="#263238"/>
<path d="M98.0339 31.3947C96.9865 29.8203 95.7833 28.3553 94.4425 27.0218L94.7667 26.9054C94.6171 28.3187 94.4425 29.8983 94.2596 31.5859C94.2596 31.8104 94.2097 32.0349 94.1848 32.2427L94.1016 33.0242L93.7774 32.3092C92.655 29.8151 91.6657 27.6037 90.9757 25.9909C90.5671 25.1382 90.2198 24.2575 89.9365 23.3555C90.4392 24.151 90.8784 24.9849 91.2501 25.8495C92.0066 27.4291 93.0375 29.6406 94.1681 32.118L93.7608 32.1845L93.8356 31.5194C94.0268 29.8567 94.218 28.2522 94.3843 26.8472V26.4564L94.6669 26.7308C95.6619 27.6996 96.5357 28.7855 97.2691 29.9648C97.5942 30.4005 97.852 30.8825 98.0339 31.3947Z" fill="#263238"/>
</svg>
