<svg width="223" height="209" viewBox="0 0 223 209" fill="none" xmlns="http://www.w3.org/2000/svg">
<path d="M182.183 10.8115C187.093 12.1151 191.509 14.8362 194.881 18.6351C198.253 22.434 200.43 27.1421 201.142 32.1713C203.354 44.9999 197.635 60.6091 197.161 70.6255C196.687 80.6419 200.099 87.7197 209.01 89.8683C203.291 90.7531 195.992 86.7086 194.98 74.8912C193.969 63.0737 198.835 46.7694 198.456 38.0169C198.045 28.5377 193.401 21.2703 189.451 23.6401C183.826 22.629 181.709 20.0696 182.183 10.8115Z" fill="#EBEBEB"/>
<path d="M198.898 81.778C200.281 81.2805 201.784 81.2197 203.202 81.604C204.621 81.9883 205.887 82.7991 206.829 83.9266C209.61 86.6756 211.506 89.9933 216.846 89.8353C218.019 89.9448 219.194 89.6463 220.173 88.9901C221.151 88.3339 221.873 87.3602 222.217 86.2332C222.504 88.2948 222.104 90.3933 221.08 92.2051C218.963 95.8072 212.77 98.5247 205.597 96.4076C198.425 94.2906 194.506 86.4228 197.255 83.0419C197.793 83.5158 199.214 82.5995 198.898 81.778Z" fill="#263238"/>
<path d="M63.2506 172.715C63.6286 173.765 63.7399 174.891 63.5744 175.995C63.4089 177.098 62.9719 178.142 62.3026 179.035C60.2034 182.062 57.1406 184.29 53.6133 185.354C50.1692 186.144 50.2008 185.354 50.264 184.027L50.5483 179.003C50.5483 179.003 48.9685 182.416 48.3681 183.585C47.7678 184.754 46.8199 183.774 46.3143 180.867C45.7797 177.867 46.1537 174.775 47.3886 171.988C48.9369 167.47 55.4144 166.143 58.1633 167.028C60.9123 167.912 61.6075 169.366 63.2506 172.715Z" fill="#263238"/>
<path d="M51.4825 106.571C51.4897 106.565 51.4999 106.556 51.5132 106.545C51.547 106.518 51.6001 106.477 51.6741 106.426C51.822 106.325 52.0532 106.181 52.3803 106.017C53.0345 105.688 54.0722 105.275 55.595 104.94C58.6348 104.271 63.6074 103.916 71.3189 105.17L70.1547 127.668C67.2826 127.56 65.1592 129.084 63.8129 131.169C62.4599 133.264 61.8884 135.93 62.1267 138.09L62.1265 138.09L62.1272 138.094C62.6819 140.997 62.4646 143.995 61.4971 146.789L61.497 146.789L61.4962 146.792C60.2153 151.38 60.0417 156.206 60.9895 160.874C61.4163 164.035 61.9142 166.296 62.333 168.117C62.3693 168.275 62.4049 168.429 62.4399 168.581C62.807 170.17 63.0971 171.426 63.1992 172.699C62.2855 173.82 60.1651 175.017 57.7604 175.613C55.3456 176.212 52.6601 176.201 50.6385 174.916C49.6254 174.272 49.0034 173.584 48.6628 172.809C48.3221 172.035 48.2605 171.168 48.3784 170.161C48.4964 169.155 48.7935 168.013 49.1668 166.69C49.2439 166.416 49.3244 166.135 49.4071 165.845C49.724 164.737 50.0749 163.509 50.407 162.143C52.2454 156.388 52.8488 150.309 52.178 144.304C51.9578 142.054 52.3587 140.252 52.844 138.508C52.9191 138.239 52.9962 137.97 53.0734 137.701C53.4948 136.235 53.9171 134.765 54.0109 133.063C54.0665 132.054 53.9137 130.622 53.6599 128.862C53.5237 127.917 53.358 126.875 53.1793 125.752C53.0253 124.784 52.8617 123.756 52.6991 122.677C51.997 118.018 51.311 112.405 51.4825 106.571Z" fill="#EBEBEB" stroke="#363A5A" stroke-width="0.1"/>
<path d="M50.5801 174.959C49.6528 174.437 48.9208 173.628 48.4946 172.653C50.4537 174.77 55.8885 173.632 58.1319 169.493C60.3753 165.354 59.5222 162.384 58.5742 157.36C57.6263 152.336 57.4051 151.04 58.5742 148.702C59.9645 145.795 62.1447 145.732 62.5239 141.719C62.5139 143.485 62.2041 145.238 61.6076 146.901C60.3287 151.482 60.1554 156.301 61.102 160.962C61.9551 167.281 63.0927 169.998 63.3138 172.811C61.418 174.991 54.6877 177.55 50.5801 174.959Z" fill="#E0E0E0"/>
<path d="M71.3712 105.127L70.2021 127.719C69.3195 127.654 68.4332 127.775 67.6004 128.075C66.7676 128.374 66.0069 128.845 65.3677 129.457C63.1762 128.27 61.0652 126.94 59.0482 125.476C52.002 120.42 51.4965 110.214 51.4965 106.517L54.9089 105.064C60.3431 103.96 65.9457 103.982 71.3712 105.127Z" fill="#E0E0E0"/>
<path d="M156.305 114.133C156.6 115.202 156.618 116.328 156.359 117.406C156.099 118.484 155.569 119.478 154.82 120.295C152.47 123.115 149.225 125.044 145.625 125.761C142.118 126.235 142.244 125.319 142.465 124.15C142.686 122.981 143.192 119.157 143.192 119.157C143.192 119.157 141.296 122.317 140.601 123.518C139.906 124.718 139.053 123.518 138.8 120.642C138.515 117.607 139.154 114.556 140.633 111.89C142.56 107.529 149.132 106.771 151.787 107.877C154.441 108.983 154.978 111.163 156.305 114.133Z" fill="#263238"/>
<path d="M160.685 75.6728L160.685 75.6722C160.571 75.4614 160.303 75.0496 159.921 74.4655L159.847 74.3515C159.477 73.7857 159.011 73.0737 158.484 72.242C157.36 70.4649 155.961 68.1411 154.633 65.5284C151.978 60.3058 149.602 53.9194 150.284 48.4371C150.284 48.4371 150.284 48.437 150.284 48.437L150.333 48.4432C150.761 44.9664 151.182 41.9072 151.564 39.1251C153.072 28.1527 153.988 21.491 152.45 10.5262L160.685 75.6728ZM160.685 75.6728C161.308 76.7948 161.311 78.1469 160.98 79.6189C160.65 81.0905 159.988 82.6739 159.293 84.2538C156.627 89.8623 155.202 95.9802 155.117 102.19L155.118 102.193C155.26 105.449 155.552 107.75 155.805 109.587C155.829 109.763 155.853 109.934 155.876 110.101C156.096 111.679 156.267 112.916 156.255 114.177C155.763 114.687 154.969 115.194 153.995 115.622C153.012 116.055 151.848 116.406 150.629 116.601C148.191 116.991 145.545 116.753 143.697 115.296C142.77 114.565 142.178 113.81 141.856 112.988C141.533 112.166 141.479 111.274 141.634 110.267C141.939 108.289 143.049 105.881 144.509 102.717L144.596 102.528L160.685 75.6728ZM140.627 15.7611C144.593 11.8524 148.643 9.62297 152.405 10.5664L144.596 102.527C148.403 94.3603 150.317 89.7508 151.112 86.645C151.51 85.0911 151.629 83.9117 151.563 82.8502C151.498 81.7896 151.25 80.8493 150.919 79.7747C150.425 77.6546 149.126 75.8094 147.298 74.6286C146.845 74.2565 146.023 73.8435 144.942 73.3833C143.857 72.9216 142.504 72.4101 140.987 71.8431C140.786 71.7677 140.581 71.6912 140.373 71.6138C137.462 70.5271 134.024 69.2435 130.72 67.7235C127.181 66.095 123.801 64.1968 121.393 61.9819C118.985 59.7672 117.556 57.2423 117.901 54.3578L117.906 54.3129L117.904 54.3125C117.909 54.2913 117.918 54.2622 117.93 54.2248C117.959 54.1341 118.006 53.9997 118.072 53.8242C118.204 53.4734 118.409 52.9608 118.679 52.3104C119.219 51.0097 120.024 49.159 121.045 46.9519C123.088 42.5377 125.996 36.6987 129.388 30.9834C132.78 25.2676 136.654 19.6782 140.627 15.7611Z" fill="#EBEBEB" stroke="#363A5A" stroke-width="0.1"/>
<path d="M141.675 113.09C142.855 114.239 144.437 114.881 146.083 114.881C147.73 114.881 149.311 114.239 150.491 113.09C152.703 110.341 152.292 106.581 151.597 99.0928C151.22 96.9005 151.279 94.6552 151.773 92.4861C152.266 90.317 153.184 88.2669 154.472 86.4538C156.116 83.7364 159.275 82.4409 160.95 79.9131C160.51 81.4316 159.972 82.9198 159.338 84.3683C156.675 89.9705 155.252 96.0816 155.168 102.284C155.452 108.793 156.337 111.479 156.305 114.291C154.314 116.377 147.395 118.367 143.666 115.429C142.804 114.843 142.116 114.035 141.675 113.09Z" fill="#E0E0E0"/>
<path d="M137.663 93.4375C148.216 109.015 170.24 102.348 175.959 87.7816C175.706 79.2502 159.465 71.5405 149.986 77.2596C144.112 81.0442 139.751 86.7691 137.663 93.4375Z" fill="#343030"/>
<path opacity="0.4" d="M137.663 93.4375C148.216 109.015 170.24 102.348 175.959 87.7816C175.706 79.2502 159.465 71.5405 149.986 77.2596C144.112 81.0442 139.751 86.7691 137.663 93.4375Z" fill="white"/>
<path d="M197.445 137.927C197.753 139.02 197.779 140.174 197.519 141.279C197.259 142.384 196.723 143.406 195.96 144.247C193.589 147.051 190.336 148.967 186.733 149.682C183.226 150.187 183.384 149.271 183.574 148.07L184.3 143.078C184.3 143.078 182.405 146.237 181.709 147.47C181.014 148.702 180.161 147.47 179.908 144.594C179.635 141.556 180.285 138.505 181.773 135.842C183.7 131.481 190.241 130.692 192.927 131.829C195.612 132.967 196.086 134.957 197.445 137.927Z" fill="#263238"/>
<path d="M103.853 195.718C104.249 196.765 104.37 197.895 104.204 199.001C104.038 200.108 103.591 201.153 102.906 202.038C100.823 205.081 97.7538 207.314 94.2163 208.357C90.7722 209.147 90.8354 208.357 90.8986 207.03C90.9618 205.703 91.1829 202.006 91.1829 202.006C91.1829 202.006 89.6031 205.418 89.0027 206.588C88.4024 207.757 87.4545 206.777 86.9489 203.87C86.3984 200.87 86.7731 197.773 88.0232 194.991C89.5715 190.473 96.049 189.146 98.7979 190.031C99.9955 190.566 101.065 191.35 101.937 192.331C102.809 193.311 103.462 194.466 103.853 195.718Z" fill="#263238"/>
<path d="M114.823 20.0076L114.823 20.0077C101.173 34.4785 97.2824 38.37 89.9453 42.8925C69.4958 55.5276 56.7324 54.8197 51.5957 53.4022L41.2326 94.9492C44.0308 94.2721 46.4976 94.2395 48.291 95.2982C50.1054 96.3692 51.2145 98.5468 51.2936 102.252C51.4515 109.641 53.3774 120.135 64.502 124.704C68.8535 126.492 72.0094 128.289 74.8932 129.932C75.7076 130.396 76.5004 130.848 77.2922 131.283C80.8874 133.26 84.4684 134.909 89.9909 135.887L90.0266 135.893L90.0317 135.929C90.6631 140.396 91.8707 144.588 92.8976 148.059C92.9508 148.239 93.0036 148.417 93.0558 148.593C93.5065 150.115 93.9134 151.488 94.2075 152.671C94.5354 153.99 94.7248 155.079 94.6769 155.877M114.823 20.0076L94.627 155.874M114.823 20.0076C121.015 13.42 126.232 8.48772 132.075 5.17396C137.916 1.86107 144.385 0.164269 153.083 0.0537662L153.082 0.00377026M114.823 20.0076L194.331 33.5674M94.6769 155.877L94.627 155.874M94.6769 155.877C94.6769 155.877 94.6769 155.877 94.6769 155.877L94.627 155.874M94.6769 155.877C94.5838 157.565 94.1672 159.026 93.7515 160.484C93.6715 160.764 93.5916 161.044 93.514 161.326C93.0327 163.074 92.6396 164.883 92.8757 167.149M94.627 155.874C94.5343 157.557 94.1194 159.011 93.7038 160.469C93.128 162.488 92.5507 164.512 92.8259 167.154M92.8757 167.149C92.8757 167.149 92.8756 167.149 92.8756 167.149L92.8259 167.154M92.8757 167.149C93.5288 173.144 92.9257 179.209 91.1047 184.957M92.8757 167.149L92.8259 167.154M92.8259 167.154L91.1047 184.957M91.1047 184.957C91.1048 184.957 91.1049 184.956 91.1051 184.955L91.0565 184.944L91.1041 184.959C91.1043 184.958 91.1045 184.958 91.1047 184.957ZM91.1047 184.957C90.7651 186.36 90.4047 187.614 90.0804 188.742C90.0047 189.006 89.931 189.262 89.8599 189.512C89.4841 190.835 89.1841 191.973 89.0642 192.975C88.9443 193.977 89.005 194.84 89.3471 195.614C89.6892 196.388 90.315 197.078 91.3362 197.73C93.3736 199.031 96.067 199.041 98.4817 198.439C99.6881 198.138 100.823 197.684 101.767 197.164C102.704 196.649 103.451 196.07 103.897 195.513M91.1047 184.957L103.948 195.529M103.897 195.513C103.897 195.52 103.898 195.526 103.898 195.533L103.948 195.529M103.897 195.513C103.901 195.508 103.905 195.503 103.909 195.498L103.948 195.529M103.897 195.513C103.796 194.255 103.512 193.014 103.154 191.452C103.115 191.282 103.075 191.109 103.035 190.931C102.62 189.11 102.13 186.849 101.719 183.688M103.948 195.529C103.849 194.26 103.562 193.011 103.203 191.441C102.765 189.532 102.219 187.148 101.768 183.68M101.719 183.688C101.719 183.689 101.719 183.689 101.719 183.69L101.768 183.68M101.719 183.688C100.737 179.023 100.911 174.188 102.225 169.605L102.226 169.603C103.194 166.809 103.411 163.811 102.856 160.907L102.856 160.904C102.649 159.029 103.173 155.497 104.536 151.041C105.9 146.582 108.105 141.191 111.267 135.596L111.275 135.582L111.289 135.575C116.51 133.055 121.303 129.731 125.495 125.726L125.496 125.725C132.775 119.181 137.444 112.019 141.526 105.757C142.793 103.814 144.003 101.958 145.217 100.234C147.779 96.5947 150.36 93.543 153.527 91.5144C156.695 89.4846 160.447 88.4813 165.347 88.9325L165.357 88.9334L165.366 88.9386C169.565 91.2743 174.719 93.1294 179.103 94.6343C179.637 94.8175 180.159 94.9955 180.667 95.1685C182.244 95.7061 183.681 96.1959 184.884 96.6447C185.679 96.9414 186.372 97.2205 186.936 97.484C187.498 97.7464 187.935 97.9947 188.217 98.2315M101.719 183.688C101.719 183.688 101.719 183.687 101.718 183.686L101.768 183.68M101.768 183.68L188.217 98.2315M188.217 98.2315C188.216 98.2309 188.215 98.2304 188.214 98.2298L188.187 98.2719M188.217 98.2315L102.274 169.619C103.244 166.817 103.462 163.81 102.906 160.898C102.495 157.17 104.991 146.806 111.31 135.62C116.536 133.097 121.334 129.771 125.529 125.762C132.813 119.213 137.488 112.044 141.571 105.781C148.185 95.6344 153.248 87.8686 165.342 88.9822C170.056 91.6053 175.974 93.6219 180.651 95.2161C184.313 96.4641 187.216 97.4533 188.187 98.2719M188.217 98.2315C190.043 99.3999 191.342 101.235 191.837 103.346C192.177 104.42 192.431 105.363 192.5 106.426C192.569 107.491 192.453 108.674 192.055 110.232C191.26 113.346 189.338 117.963 185.515 126.13C185.399 126.381 185.285 126.627 185.172 126.868C183.834 129.749 182.798 131.977 182.494 133.831C182.329 134.834 182.378 135.724 182.708 136.546C183.037 137.368 183.649 138.128 184.615 138.866C186.543 140.34 189.229 140.586 191.691 140.2C194.142 139.815 196.356 138.807 197.364 137.78C197.362 136.514 197.185 135.246 196.963 133.662C196.938 133.481 196.912 133.296 196.886 133.107C196.629 131.25 196.337 128.957 196.195 125.796L196.194 125.793C196.267 119.578 197.703 113.455 200.402 107.856C201.097 106.277 201.75 104.693 202.077 103.222C202.403 101.75 202.401 100.398 201.793 99.2754C201.676 99.0604 201.405 98.6456 201.019 98.0593L200.963 97.9741C200.587 97.4018 200.112 96.6783 199.575 95.8316C198.446 94.053 197.044 91.7302 195.714 89.1195C193.055 83.9008 190.679 77.5222 191.36 72.0399L191.41 72.0461L191.36 72.0398C191.942 67.4008 192.566 63.4582 193.128 59.903C194.642 50.327 195.712 43.5614 194.331 33.5674M188.217 98.2315C188.218 98.2322 188.218 98.233 188.219 98.2337L188.187 98.2719M188.187 98.2719C190.005 99.4336 191.297 101.259 191.789 103.359C193.148 107.656 193.116 109.773 185.47 126.109C185.353 126.361 185.238 126.608 185.126 126.85C182.339 132.846 180.85 136.051 184.585 138.906C188.471 141.876 195.391 139.886 197.414 137.8C197.414 136.524 197.235 135.247 197.013 133.655C196.74 131.702 196.401 129.275 196.244 125.793C196.317 119.586 197.751 113.47 200.447 107.878C201.837 104.718 203.069 101.526 201.837 99.2514L194.331 33.5674M153.082 0.00377026C172.262 -0.249009 186.544 12.2636 190.367 21.1109M153.082 0.00377026C135.672 0.224953 127.172 6.79725 114.786 19.9734L190.367 21.1109M153.082 0.00377026L153.083 0.0537659C162.662 -0.0724757 171.017 2.98886 177.456 7.18667C183.896 11.3851 188.415 16.7181 190.321 21.1307L190.323 21.1334C192.298 25.0439 193.651 29.2392 194.331 33.5674M190.367 21.1109C192.346 25.0262 193.7 29.2267 194.38 33.5603L190.367 21.1109Z" fill="#FAFAFA" stroke="#363A5A" stroke-width="0.1"/>
<path d="M95.7009 76.8172C95.1051 77.3722 94.6781 78.0841 94.4686 78.871C94.3106 79.5977 94.4686 80.3245 94.4686 81.0197C94.279 82.9471 92.4464 84.1794 90.7085 85.1273C88.8855 85.7857 87.2935 86.9605 86.1269 88.5083C85.691 89.5599 85.5665 90.7146 85.7681 91.8349C85.9698 92.9553 86.4891 93.9941 87.2643 94.8277C88.8916 96.4609 90.7175 97.8834 92.6991 99.0618C95.5148 100.859 97.77 103.409 99.2083 106.424C99.777 107.783 100.093 109.205 100.756 110.532C101.298 111.614 102.066 112.567 103.01 113.325C103.953 114.083 105.049 114.628 106.223 114.924C107.392 115.22 108.615 115.233 109.79 114.964C110.966 114.695 112.061 114.151 112.985 113.375C114.628 111.634 115.869 109.552 116.618 107.277C117.652 104.437 119.458 101.943 121.832 100.073C123.57 98.9038 125.782 98.2403 126.824 96.4076C127.301 95.3705 127.456 94.2144 127.271 93.0882C127.085 91.962 126.566 90.9172 125.782 90.0881C124.229 88.4914 122.513 87.0616 120.663 85.8224C118.769 84.586 117.414 82.6779 116.871 80.4825C116.682 79.187 116.871 77.8599 116.65 76.6276C114.659 68.2858 99.461 72.8675 95.7009 76.8172Z" fill="#37474F"/>
<path d="M107.045 51.4447C106.454 51.8585 105.991 52.4312 105.712 53.0966C105.432 53.762 105.347 54.4929 105.465 55.2049C105.694 55.68 106.03 56.0957 106.447 56.4192C106.863 56.7426 107.349 56.9651 107.867 57.0691C108.894 57.2936 109.898 57.6109 110.868 58.0171C113.807 59.5653 114.028 64.0838 116.872 65.8216C117.888 66.3009 119.019 66.4869 120.135 66.3585C121.252 66.2301 122.31 65.7924 123.191 65.0949C124.723 63.9959 125.783 62.3598 126.162 60.5132C126.336 59.5969 126.267 58.6511 125.962 57.7696C125.657 56.8882 125.127 56.1019 124.424 55.4892C123.539 54.7625 122.401 54.3833 121.517 53.625C120.566 52.6465 119.699 51.5895 118.926 50.4652C115.513 46.1048 110.458 48.3166 107.045 51.4447Z" fill="#37474F"/>
<path d="M114.786 20.1019C110.932 24.1779 107.898 27.3692 105.307 30.0234C108.246 30.8954 111.368 30.9378 114.329 30.146C117.29 29.3541 119.975 27.7589 122.085 25.5366C122.816 24.6007 123.642 23.743 124.55 22.9773C127.362 20.8918 131.249 21.6817 134.724 22.0293C137.057 22.2658 139.407 22.2658 141.739 22.0293C143.466 21.9588 145.13 21.3636 146.51 20.323C147.372 19.5385 147.933 18.4773 148.094 17.3231C148.256 16.1689 148.008 14.9945 147.395 14.0035C146.51 12.5816 144.867 11.5074 144.836 9.8327C144.836 8.632 145.657 7.62088 146.005 6.48338C146.188 5.66231 146.159 4.80804 145.922 4.00104C145.684 3.19403 145.245 2.46073 144.646 1.87008C144.308 1.53925 143.937 1.24289 143.54 0.985352C132.102 3.29197 124.676 9.61152 114.786 20.1019Z" fill="#37474F"/>
<path d="M168.565 32.5504C164.5 31.5339 160.227 31.7317 156.273 33.1191C154.328 33.7033 152.572 34.7937 151.186 36.2788C150.471 37.2388 149.957 38.3335 149.676 39.4971C149.395 40.6607 149.352 41.8691 149.55 43.0497C149.747 44.2303 150.182 45.3588 150.827 46.3672C151.472 47.3756 152.314 48.2432 153.303 48.9178C155.641 50.4977 158.706 50.9716 160.76 52.899C161.676 53.7522 162.34 54.8265 163.256 55.6796C167.301 59.5029 173.968 57.4491 178.202 61.1144C178.739 61.5568 179.276 62.1572 180.003 62.1572C182.025 62.1572 184.3 57.5123 185.216 56.0272C185.899 54.9886 186.461 53.8755 186.891 52.7095C188.124 48.7914 186.038 44.5258 186.67 40.4497C186.923 38.8067 187.586 37.2899 187.871 35.6468C188.275 33.3894 188.013 31.0629 187.115 28.9526C186.217 26.8423 184.722 25.0399 182.815 23.7663C176.496 20.101 168.881 25.8516 169.007 32.6767L168.565 32.5504Z" fill="#37474F"/>
<path d="M171.535 67.7819C171.788 68.2875 172.356 68.5718 172.672 69.0458C173.336 70.0569 172.672 71.4788 173.178 72.5847C173.428 72.9939 173.775 73.3349 174.188 73.5775C174.602 73.8201 175.069 73.9566 175.548 73.975C176.498 73.9899 177.447 74.0532 178.392 74.1646C178.915 74.3358 179.479 74.3358 180.003 74.1646C180.221 74.0424 180.41 73.8748 180.557 73.6731C180.704 73.4713 180.806 73.2402 180.856 72.9955C181.047 72.517 181.118 71.9991 181.063 71.487C181.008 70.9748 180.828 70.4839 180.54 70.0569C180.003 69.5198 179.15 69.3933 178.55 68.9194C177.159 67.8135 176.275 65.7596 174.347 65.2541C173.02 65.0645 170.713 66.1388 171.535 67.7819Z" fill="#37474F"/>
<path d="M89.5213 129.242L89.5211 129.242L89.5219 129.247C89.9275 131.486 90.0351 133.769 89.842 136.036C84.35 135.056 80.7806 133.412 77.1971 131.441C76.4053 131.006 75.6125 130.554 74.7981 130.091C71.9143 128.448 68.7583 126.65 64.4069 124.863C53.2822 120.293 51.2302 109.8 51.0722 102.411C51.0721 98.7053 49.955 96.5275 48.1167 95.4565C46.299 94.3975 43.7917 94.4306 41.006 95.1088L42.6576 86.2586L52.2679 87.6673C52.2847 89.0679 53.1166 90.1311 54.4691 91.0342C55.8346 91.946 57.7399 92.7012 59.8999 93.4811C60.4063 93.6639 60.9268 93.8482 61.4579 94.0362C65.4621 95.4535 70.0659 97.0832 73.7414 99.9232C78.2214 103.486 81.9303 107.922 84.643 112.962C87.3557 118.002 89.0154 123.541 89.5213 129.242Z" fill="#F0F0F0" stroke="black" stroke-width="0.1"/>
<path d="M75.5734 75.4591C75.8262 72.9313 75.5734 70.3403 76.0157 67.8125C76.2124 65.9579 76.986 64.2118 78.2276 62.8201C80.2464 61.3233 82.5462 60.2487 84.9895 59.6604C87.2961 58.7124 89.6659 56.6586 89.2235 54.194C88.7812 51.7294 86.8853 51.0343 85.021 50.1811C83.2549 49.4621 81.4246 48.912 79.5547 48.5381C65.0515 55.2999 55.7302 54.5731 51.5593 53.404L40.9426 95.1127C46.1878 93.8172 50.2323 94.8599 50.8958 100.927C51.8292 101.255 52.8346 101.32 53.8027 101.116C54.565 100.834 55.2492 100.375 55.7987 99.7759C56.3481 99.177 56.747 98.4558 56.9625 97.6721C57.3944 96.0632 57.4485 94.3762 57.1205 92.7429C56.644 91.2529 56.644 89.6513 57.1205 88.1612C57.7588 87.0879 58.7718 86.2887 59.9643 85.9178C64.0403 84.3696 69.1591 85.2227 72.382 82.3158C74.269 80.512 75.4082 78.0643 75.5734 75.4591Z" fill="#37474F"/>
<path d="M44.0394 94.7347H44.6714C45.092 94.702 45.5146 94.702 45.9352 94.7347H46.2829C46.6937 94.8382 47.0953 94.9756 47.4835 95.1454H47.6731C48.0714 95.3391 48.4431 95.5833 48.779 95.8721C49.1331 96.2094 49.4412 96.5919 49.6953 97.0097C49.96 97.517 50.1819 98.0454 50.3589 98.5896C50.5566 99.2498 50.6941 99.9266 50.7696 100.612C51.703 100.94 52.7086 101.005 53.6766 100.801C54.4389 100.519 55.1231 100.06 55.6725 99.461C56.222 98.8621 56.621 98.1409 56.8364 97.3572C57.2683 95.7483 57.3223 94.0613 56.9943 92.428C56.9943 92.27 56.9943 92.1437 56.9943 91.9857C54.119 90.7534 52.1283 89.3947 52.1283 87.2461L43.0282 85.9189L40.7533 94.7978L42.6807 94.4187L44.0394 94.7347Z" fill="#263238"/>
<path d="M156.495 86.2961C157.443 82.6308 155.073 79.1235 157.095 74.2891C157.233 77.2175 158.04 80.0754 159.453 82.644C160.866 85.2127 162.848 87.4239 165.247 89.1083C160.986 88.548 156.665 89.5467 153.082 91.9204C154.755 90.4276 155.943 88.469 156.495 86.2961Z" fill="#E0E0E0"/>
<path d="M91.2143 197.96C90.2795 197.448 89.5449 196.635 89.1289 195.654C91.0564 197.771 96.5227 196.665 98.6081 192.494C100.694 188.323 100.03 185.385 99.0821 180.361C98.1342 175.337 97.8814 174.041 99.0821 171.703C100.472 168.796 102.653 168.733 103 164.72C103.002 166.485 102.703 168.237 102.115 169.902C100.803 174.477 100.63 179.304 101.61 183.963C102.431 190.282 103.569 192.999 103.79 195.812C102.052 197.992 95.3219 200.583 91.2143 197.96Z" fill="#E0E0E0"/>
<path d="M182.815 136.886C183.994 138.025 185.569 138.661 187.207 138.661C188.846 138.661 190.421 138.025 191.6 136.886C193.811 134.105 193.432 130.377 192.705 122.888C192.326 120.696 192.385 118.45 192.878 116.281C193.372 114.111 194.29 112.061 195.581 110.249C197.255 107.532 200.384 106.236 202.058 103.677C201.635 105.207 201.107 106.706 200.478 108.164C197.783 113.756 196.348 119.872 196.276 126.079C196.56 132.399 197.445 135.243 197.445 138.086C195.423 140.172 188.503 142.163 184.617 139.192C183.822 138.597 183.2 137.801 182.815 136.886Z" fill="#E0E0E0"/>
<path d="M116.145 133.027C114.562 134.075 112.892 134.984 111.153 135.744C114.608 130.348 117.329 124.514 119.242 118.397C118.985 123.406 117.94 128.344 116.145 133.027Z" fill="#E0E0E0"/>
<path d="M27.0083 50.4978C22.2687 46.5165 23.8485 39.8179 21.9843 40.513C20.1544 42.0366 18.8174 44.0687 18.1425 46.3522C17.4676 48.6357 17.485 51.068 18.1926 53.3416C20.1832 58.2392 28.4618 54.5423 27.0083 50.4978Z" fill="#575757"/>
<path d="M24.2909 50.5294L24.5753 49.4551C22.9833 50.0597 21.3126 50.4321 19.6146 50.561C16.7392 50.7822 6.81754 51.6985 5.23767 67.3393L24.2909 50.5294Z" fill="#37474F"/>
<path d="M24.291 50.5273C22.0476 52.36 17.6555 52.4232 15.1909 53.4027C12.4017 54.6595 10.0484 56.716 8.42912 59.3115C6.56404 62.1521 5.42474 65.4071 5.11133 68.7908C5.11133 70.7182 6.65965 69.1383 7.92355 68.0956C9.18745 67.0529 15.4753 66.0733 17.5607 63.9879C21.8896 59.6274 20.7205 56.5625 23.0903 55.1406L24.291 50.5273Z" fill="#343030"/>
<path opacity="0.5" d="M24.291 50.5273C22.0476 52.36 17.6555 52.4232 15.1909 53.4027C12.4017 54.6595 10.0484 56.716 8.42912 59.3115C6.56404 62.1521 5.42474 65.4071 5.11133 68.7908C5.11133 70.7182 6.65965 69.1383 7.92355 68.0956C9.18745 67.0529 15.4753 66.0733 17.5607 63.9879C21.8896 59.6274 20.7205 56.5625 23.0903 55.1406L24.291 50.5273Z" fill="white"/>
<path opacity="0.2" d="M11.8728 57.9215C14.3652 56.025 17.3713 54.9239 20.4989 54.7617C18.9553 55.2508 17.4457 55.8419 15.9804 56.5312C14.6212 57.1306 13.3718 57.9529 12.2836 58.9641C10.454 60.5382 8.94187 62.4472 7.82833 64.5885C8.41745 63.6913 9.15468 62.9007 10.0086 62.2503C10.5422 61.8836 11.1144 61.5763 11.7149 61.3339C12.3202 61.0895 12.9596 60.9403 13.6106 60.8916C13.6106 60.8916 13.6106 60.8916 13.6106 61.0812C12.3665 61.5626 11.2046 62.234 10.1665 63.0718C9.5776 63.5441 9.04721 64.0851 8.58664 64.6833L8.30227 65.0309L9.12384 64.6833C10.0332 64.3783 10.9622 64.1355 11.9044 63.9565C12.7027 63.766 13.4845 63.5124 14.2426 63.1982C14.6097 63.0468 14.9593 62.8561 15.2853 62.6295C15.5697 62.4399 15.7592 62.1239 16.0752 61.9659C15.8049 62.7209 15.2797 63.3577 14.5901 63.7669C13.8464 64.2684 13.0241 64.6422 12.1572 64.8728C11.2408 65.1256 10.3246 65.2836 9.43983 65.5364C8.61512 65.7281 7.83303 66.0709 7.13318 66.5475C7.13318 66.5475 6.9752 66.5475 6.9436 66.5475C7.55493 63.1942 9.29414 60.1506 11.8728 57.9215Z" fill="#343030"/>
<path d="M36.0698 50.2297L36.0705 50.2298C37.1418 50.3673 38.3024 50.4568 39.5068 50.5497C39.6185 50.5583 39.7305 50.5669 39.8429 50.5757C41.1681 50.6783 42.5412 50.7908 43.9061 50.9802C46.6365 51.3589 49.3288 52.0448 51.5311 53.5706C53.2701 54.777 53.8977 56.3427 54.2914 58.0434C54.3899 58.4689 54.4737 58.9025 54.5566 59.3411C54.5668 59.3947 54.5769 59.4484 54.587 59.5022C54.6598 59.888 54.7332 60.2774 54.8165 60.6672C55.0063 61.5546 55.2479 62.4465 55.6523 63.3116C56.4224 65.6352 56.7534 68.0818 56.6284 70.5264L56.6283 70.5264V70.529C56.6283 75.8696 56.1848 82.8041 52.2789 87.655L52.2787 87.6549L52.276 87.6591C50.9986 89.6211 49.3336 91.3013 47.3831 92.5962C45.4326 93.8911 43.238 94.7734 40.934 95.189L40.934 95.1889L40.9315 95.1895C36.9312 96.1242 33.1487 97.8219 29.7917 100.19L29.7915 100.19L29.788 100.193C29.3846 100.538 28.9413 100.931 28.4639 101.354C27.2372 102.44 25.7851 103.726 24.2053 104.93C22.0113 106.604 19.5775 108.115 17.1708 108.713C14.9554 109.127 12.6756 109.042 10.4971 108.464C8.31918 107.887 6.29702 106.832 4.5774 105.377C2.13114 102.669 0.794041 99.1401 0.832419 95.4915L0.833335 95.4915L0.831619 95.482C0.594131 94.1725 0.833004 92.8213 1.50501 91.6726C2.17702 90.5239 3.23785 89.6534 4.4957 89.2187L4.50776 89.2146L4.51635 89.2051C8.20893 85.1458 11.0775 80.4077 12.9628 75.2541L12.963 75.2542L12.9642 75.2495C13.2339 74.2104 13.4021 72.8204 13.562 71.2241C13.6042 70.8032 13.6458 70.3678 13.6885 69.9206C13.808 68.6702 13.9364 67.3269 14.1109 65.9457C14.5847 62.1947 15.3974 58.1749 17.2876 55.0087C18.9904 52.1708 20.746 50.5427 22.4153 49.6237C24.0843 48.7047 25.671 48.4924 27.0399 48.4924C28.4075 48.4924 29.7767 48.7989 31.2499 49.1702C31.4567 49.2223 31.6655 49.2757 31.8766 49.3296C33.1683 49.6598 34.546 50.012 36.0698 50.2297Z" fill="#455A64" stroke="black" stroke-width="0.1"/>
<path d="M12.5366 95.2378C13.4198 95.1958 14.3004 95.3637 15.106 95.7279C15.9117 96.0921 16.6195 96.6421 17.1714 97.3328C17.7234 98.0235 18.1037 98.8353 18.2812 99.7014C18.4587 100.568 18.4284 101.463 18.1926 102.316C19.6145 101.62 19.6461 99.1559 19.2669 97.7024C18.5718 95.1746 17.4658 95.3641 19.2669 91.762C21.068 88.1599 25.1756 79.123 25.1756 79.123C25.1756 79.123 19.9305 87.6228 18.1926 90.3717C15.5384 94.4162 13.0106 93.6263 12.5366 95.2378Z" fill="#37474F"/>
<path d="M9.0927 97.578C10.5778 98.0204 11.273 97.2304 13.1056 97.578C13.8857 97.7681 14.5797 98.2134 15.0778 98.8431C15.5758 99.4729 15.8493 100.251 15.8546 101.054C15.8546 102.539 14.8435 102.76 14.1483 102.665C13.9271 101.37 12.9476 100.706 12.6001 101.37C12.2525 102.033 12.6 102.855 9.06107 103.234C7.55097 102.309 6.37708 100.925 5.71175 99.2843C5.26938 97.9256 4.00555 98.21 4.19513 99.2843C3.6587 98.9661 3.22844 98.4962 2.95854 97.9339C2.68864 97.3716 2.59115 96.7421 2.67842 96.1246C2.75394 95.8576 2.88277 95.6088 3.05709 95.3931C3.23141 95.1773 3.44766 94.999 3.69274 94.8691C3.93782 94.7391 4.20665 94.6602 4.48307 94.6371C4.75948 94.6139 5.03777 94.647 5.30106 94.7343C7.22851 95.619 7.67081 97.2936 9.0927 97.578Z" fill="#263238"/>
<path d="M33.612 73.435C34.4999 73.0407 35.4536 72.8157 36.4241 72.7714C36.9664 72.728 37.5121 72.7816 38.0356 72.9295C38.4965 73.0326 38.9284 73.2378 39.2995 73.5299C39.2995 73.5299 39.2995 73.7826 39.2995 73.751H37.6881C37.1413 73.7064 36.5918 73.7064 36.045 73.751C35.3096 73.8257 34.5931 74.0289 33.928 74.3513C33.229 74.7155 32.5896 75.1844 32.0321 75.7416C31.179 76.4368 31.0842 76.5947 30.4523 77.1003C30.6666 76.2898 31.0625 75.5387 31.6099 74.9037C32.1573 74.2687 32.8419 73.7664 33.612 73.435Z" fill="#263238"/>
<path d="M33.1065 75.8383C33.1003 76.2909 33.2292 76.7351 33.4767 77.114C33.7243 77.4929 34.0793 77.7894 34.4963 77.9655C34.9132 78.1416 35.3733 78.1893 35.8175 78.1026C36.2617 78.0158 36.6699 77.7984 36.99 77.4784C37.31 77.1583 37.5274 76.7501 37.6142 76.3059C37.7009 75.8617 37.6532 75.4016 37.4771 74.9847C37.301 74.5677 37.0046 74.2127 36.6257 73.9651C36.2467 73.7176 35.8025 73.5887 35.3499 73.5949C34.7549 73.5949 34.1843 73.8313 33.7636 74.252C33.3429 74.6727 33.1065 75.2433 33.1065 75.8383Z" fill="#263238"/>
<path opacity="0.1" d="M18.6985 52.7404C19.6215 51.3678 20.868 50.2434 22.3283 49.4664C23.7886 48.6894 25.4177 48.2837 27.0718 48.2852C29.8208 48.2852 32.5382 49.6755 36.0771 50.1179C40.7535 50.7182 47.1362 50.4022 51.5598 53.4672C52.4961 54.1734 53.2649 55.0778 53.8111 56.1156C54.3573 57.1534 54.6675 58.2991 54.7196 59.4707C52.5078 54.7627 49.8536 52.8984 38.9208 53.6568C32.4118 54.0991 31.4007 54.3203 28.0829 51.603C27.3946 51.0552 26.6043 50.6498 25.7579 50.4102C24.9115 50.1707 24.0259 50.1019 23.1527 50.2077C22.2794 50.3136 21.4359 50.592 20.6712 51.0268C19.9065 51.4616 19.236 52.0441 18.6985 52.7404Z" fill="white"/>
<path d="M47.6728 53.8139C53.8027 53.0556 56.2358 46.6412 57.3101 48.1579C58.0146 50.4478 58.0179 52.896 57.3197 55.1878C56.6214 57.4796 55.2536 59.51 53.3921 61.0181C49.1896 64.0199 44.2287 56.4997 47.6728 53.8139Z" fill="#575757"/>
<path d="M46.3775 56.6569C46.3775 56.6569 46.1247 54.7612 47.7046 55.8355C49.156 56.9024 50.8306 57.6262 52.6022 57.9524C54.75 58.2909 56.7887 59.1274 58.5554 60.3948C60.3221 61.6622 61.7677 63.3254 62.7765 65.2514C63.9069 67.6267 64.4751 70.2304 64.4367 72.8607C64.3984 75.4909 63.7546 78.077 62.5554 80.4183L46.3775 56.6569Z" fill="#37474F"/>
<path d="M46.3776 56.6602C47.7363 58.1136 55.3512 60.8943 58.0369 63.5485C60.605 66.3014 62.1644 69.8434 62.4607 73.5964C62.8694 75.8531 62.8694 78.1649 62.4607 80.4215C62.2711 81.717 60.2172 78.7468 57.6263 76.8194C55.0353 74.8919 49.9164 71.9533 49.1581 68.0353C48.3997 64.1172 48.6842 62.6321 46.9463 60.6731L46.3776 56.6602Z" fill="#343030"/>
<path d="M46.3776 56.6602C47.7363 58.1136 55.3512 60.8943 58.0369 63.5485C60.605 66.3014 62.1644 69.8434 62.4607 73.5964C62.8694 75.8531 62.8694 78.1649 62.4607 80.4215C62.2711 81.717 60.2172 78.7468 57.6263 76.8194C55.0353 74.8919 49.9164 71.9533 49.1581 68.0353C48.3997 64.1172 48.6842 62.6321 46.9463 60.6731L46.3776 56.6602Z" fill="#343030"/>
<path opacity="0.5" d="M46.3776 56.6602C47.7363 58.1136 55.3512 60.8943 58.0369 63.5485C60.605 66.3014 62.1644 69.8434 62.4607 73.5964C62.8694 75.8531 62.8694 78.1649 62.4607 80.4215C62.2711 81.717 60.2172 78.7468 57.6263 76.8194C55.0353 74.8919 49.9164 71.9533 49.1581 68.0353C48.3997 64.1172 48.6842 62.6321 46.9463 60.6731L46.3776 56.6602Z" fill="white"/>
<path opacity="0.2" d="M49.3792 60.8628C49.3792 60.8628 49.3792 60.6415 49.3792 60.7047C52.6499 61.7673 55.582 63.6748 57.8789 66.2343C58.6602 67.4178 59.2967 68.6908 59.7747 70.026C60.2416 71.3146 60.57 72.6492 60.7543 74.0073C60.7543 74.6709 60.7542 75.366 60.9122 76.0611C61.0702 76.7563 60.9122 77.9254 60.7543 77.8622C60.7034 77.8817 60.6472 77.8817 60.5963 77.8622C60.0659 77.0689 59.3905 76.3827 58.6057 75.8399C57.7525 75.3028 56.8362 74.892 56.0463 74.2917C55.2608 73.6954 54.5311 73.0291 53.866 72.301C53.5123 71.8982 53.195 71.4646 52.9181 71.0055C52.6442 70.6908 52.4977 70.2852 52.5073 69.8681C52.76 70.184 52.918 70.5948 53.2024 70.9107C53.4868 71.2267 53.9292 71.6375 54.3083 71.985C55.1044 72.6772 55.9732 73.2811 56.8994 73.7861C57.7984 74.2222 58.6552 74.7405 59.4587 75.3344C59.4587 75.1764 59.3007 75.0184 59.2375 74.892C58.7926 73.97 58.2968 73.0733 57.7525 72.2062C56.579 70.4154 55.2465 68.7339 53.7712 67.1822C55.7494 68.1084 57.3856 69.634 58.4476 71.5427C59.0237 72.4571 59.5205 73.4191 59.9327 74.4181V74.7025C59.4884 71.7057 58.3167 68.8633 56.5202 66.4239C54.3579 64.306 51.9622 62.4403 49.3792 60.8628Z" fill="#343030"/>
</svg>
