<svg width="325" height="302" viewBox="0 0 325 302" fill="none" xmlns="http://www.w3.org/2000/svg">
<path d="M144.488 192.812L142.839 179.353C142.793 178.992 142.605 178.664 142.318 178.441C142.03 178.219 141.666 178.119 141.305 178.165C140.944 178.211 140.616 178.399 140.393 178.686C140.171 178.974 140.071 179.338 140.117 179.699L141.767 193.142C141.897 194.139 141.7 195.152 141.206 196.028L130.303 212.902C128.809 212.824 127.319 213.137 125.982 213.809C124.992 214.316 124.138 215.052 123.489 215.956C122.841 216.859 122.418 217.904 122.254 219.005C122.215 219.255 122.274 219.511 122.418 219.72C122.562 219.929 122.781 220.074 123.029 220.126H123.211C123.435 220.122 123.65 220.042 123.822 219.897C123.993 219.753 124.109 219.554 124.151 219.334C124.259 218.523 124.561 217.75 125.032 217.081C125.503 216.412 126.129 215.867 126.856 215.491C127.312 215.263 127.794 215.091 128.291 214.98C127.997 215.236 127.727 215.517 127.483 215.821C126.721 216.779 126.159 217.879 125.83 219.058C125.501 220.236 125.413 221.469 125.57 222.683C125.602 222.909 125.715 223.115 125.887 223.264C126.06 223.412 126.282 223.493 126.51 223.491H126.642C126.895 223.45 127.122 223.311 127.273 223.105C127.424 222.898 127.488 222.639 127.45 222.386C127.332 221.435 127.404 220.47 127.661 219.547C127.919 218.624 128.357 217.761 128.951 217.009C129.17 216.751 129.407 216.508 129.66 216.283C129.13 218.763 129.432 221.348 130.518 223.639C130.607 223.773 130.727 223.883 130.868 223.96C131.008 224.038 131.165 224.08 131.326 224.085C131.515 224.086 131.699 224.028 131.854 223.92C132.065 223.781 132.214 223.565 132.266 223.318C132.319 223.071 132.271 222.813 132.134 222.6C131.304 220.683 131.102 218.553 131.557 216.514C131.672 215.988 131.963 215.517 132.382 215.178C132.863 215.165 133.333 215.329 133.701 215.64C133.817 215.738 133.908 215.862 133.965 216.003C134.023 216.144 134.045 216.297 134.031 216.448C134.017 216.701 134.102 216.949 134.269 217.14C134.435 217.331 134.669 217.449 134.922 217.471C135.164 217.471 135.398 217.379 135.576 217.214C135.753 217.049 135.862 216.822 135.878 216.58C135.914 216.143 135.848 215.704 135.685 215.298C135.522 214.891 135.266 214.528 134.938 214.238C134.441 213.79 133.831 213.488 133.173 213.364L143.449 197.447C144.295 196.058 144.66 194.429 144.488 192.812Z" fill="#F0997A"/>
<path d="M108.878 173.91L107.228 160.467C107.221 160.277 107.174 160.091 107.091 159.92C107.008 159.749 106.89 159.598 106.745 159.475C106.6 159.352 106.431 159.261 106.249 159.207C106.066 159.153 105.875 159.137 105.686 159.161C105.498 159.186 105.316 159.249 105.153 159.347C104.991 159.445 104.85 159.576 104.741 159.731C104.631 159.887 104.555 160.063 104.518 160.25C104.481 160.436 104.482 160.628 104.523 160.814L106.173 174.256C106.286 175.255 106.084 176.264 105.595 177.143L94.6927 194.016C93.1979 193.938 91.7086 194.251 90.3712 194.923C89.3838 195.431 88.5319 196.168 87.8864 197.072C87.241 197.975 86.8205 199.02 86.6601 200.119C86.6364 200.243 86.6378 200.37 86.6642 200.493C86.6906 200.616 86.7415 200.732 86.8138 200.836C86.8861 200.939 86.9784 201.026 87.0851 201.093C87.1919 201.16 87.311 201.204 87.4353 201.224H87.6002C87.8259 201.227 88.045 201.148 88.2176 201.003C88.3902 200.858 88.5048 200.655 88.5404 200.432C88.6513 199.622 88.9568 198.851 89.4308 198.184C89.9047 197.518 90.533 196.976 91.2619 196.606C91.7102 196.37 92.1869 196.192 92.6804 196.078C92.3904 196.338 92.1203 196.619 91.8722 196.919C91.1105 197.88 90.5487 198.983 90.2201 200.165C89.8915 201.346 89.8027 202.581 89.9589 203.797C89.9977 204.023 90.1149 204.228 90.2899 204.376C90.4649 204.523 90.6864 204.605 90.9155 204.605H91.0475C91.1731 204.589 91.2941 204.548 91.4034 204.484C91.5127 204.42 91.608 204.335 91.6834 204.233C91.7589 204.131 91.8131 204.016 91.8427 203.892C91.8723 203.769 91.8767 203.642 91.8557 203.517C91.6311 201.594 92.1766 199.661 93.3731 198.14C93.5825 197.873 93.8143 197.625 94.0659 197.397C93.5376 199.884 93.8449 202.476 94.9401 204.77C95.0282 204.904 95.1484 205.013 95.2896 205.088C95.4308 205.162 95.5884 205.201 95.7483 205.199C95.9289 205.196 96.1056 205.145 96.2596 205.051C96.3661 204.984 96.4581 204.896 96.5301 204.793C96.6021 204.69 96.6526 204.573 96.6788 204.45C96.7049 204.327 96.7061 204.2 96.6823 204.077C96.6585 203.953 96.61 203.836 96.54 203.731C95.712 201.807 95.5157 199.671 95.9792 197.628C96.0926 197.11 96.3773 196.645 96.7874 196.309C97.2754 196.287 97.7533 196.452 98.1234 196.771C98.2364 196.867 98.3241 196.989 98.3788 197.127C98.4334 197.265 98.4533 197.415 98.4368 197.562C98.4278 197.688 98.4438 197.814 98.4838 197.934C98.5237 198.053 98.5869 198.164 98.6696 198.259C98.7524 198.354 98.8531 198.432 98.966 198.488C99.0789 198.543 99.2018 198.577 99.3275 198.585C99.5691 198.582 99.8008 198.489 99.9776 198.324C100.154 198.16 100.264 197.935 100.284 197.694C100.318 197.257 100.253 196.817 100.093 196.409C99.9332 196 99.6826 195.633 99.3605 195.336C98.853 194.894 98.2389 194.593 97.5791 194.461L107.855 178.561C108.696 177.165 109.056 175.531 108.878 173.91Z" fill="#F0997A"/>
<path d="M134.559 183.904C135.561 185.528 137.112 186.739 138.93 187.319C139.722 187.484 140.777 187.22 140.843 186.428C141.453 187.451 143.202 189.496 144.488 188.49C144.808 188.197 145.061 187.84 145.232 187.442C145.402 187.044 145.486 186.614 145.478 186.181C145.54 186.389 145.643 186.583 145.781 186.751C145.918 186.92 146.087 187.059 146.279 187.162C146.471 187.265 146.681 187.328 146.897 187.35C147.113 187.371 147.332 187.349 147.54 187.286C147.958 187.15 148.341 186.925 148.663 186.626C148.985 186.326 149.238 185.961 149.403 185.554C149.725 184.742 149.974 183.903 150.146 183.047C151.25 179.737 152.967 176.665 155.209 173.991C150.261 171.996 144.076 172.342 138.93 172.705C136.509 172.795 134.099 173.076 131.722 173.546C129.578 174.008 127.268 173.711 125.124 174.156C128.378 176.56 131.262 179.428 133.685 182.667L134.559 183.904Z" fill="#37474F"/>
<path d="M101.241 175.691C101.241 175.922 101.241 176.153 101.241 176.384C101.241 177.225 101.405 178.214 102.148 178.577C102.89 178.94 103.797 178.379 104.49 177.835C104.538 178.655 104.751 179.458 105.117 180.194C105.301 180.563 105.586 180.872 105.94 181.085C106.293 181.298 106.7 181.407 107.112 181.398C108.267 181.282 109.009 179.633 109.653 178.808C109.85 179.6 110.213 180.458 111.021 180.623C111.83 180.787 112.176 180.161 112.572 179.649C114.089 177.637 115.178 175.196 117.273 173.778C117.784 173.431 118.427 173.035 118.427 172.408C118.381 172.061 118.225 171.738 117.982 171.485C116.581 170.06 114.954 168.879 113.166 167.988C111.274 166.824 109.294 165.809 107.244 164.953C104.776 163.772 102.156 162.939 99.4592 162.479C99.2684 162.438 99.0692 162.467 98.8984 162.562C98.6345 162.759 98.717 163.172 98.8159 163.469C100.132 167.425 100.947 171.531 101.241 175.691Z" fill="#263238"/>
<path d="M155.968 112.997C144.669 109.253 131.953 107.34 119.895 97.8888C107.838 88.4377 103.088 79.8938 93.1586 78.2444C83.2292 76.595 76.2852 78.8712 67.5599 84.6606C61.9519 88.3717 59.1974 93.9961 61.1437 98.1196C62.6447 101.319 70.6608 113.674 71.5515 114.185C72.4421 114.696 76.813 115.702 78.281 120.519C79.749 125.335 77.8522 139.074 85.1755 151.164C92.4989 163.255 102.181 168.929 119.681 174.058C134.375 178.429 150.113 177.732 164.363 172.079C176.387 167.51 190.045 155.585 190.045 155.585C190.045 155.585 198.292 156.591 206.885 157.35C215.478 158.108 219.173 157.597 221.119 156.063C242.908 158.405 249.934 157.185 252.458 154.414C254.982 151.643 247.081 148.459 247.081 148.459C247.081 148.459 259.814 148.888 270.601 148.839C281.389 148.789 288.382 143.066 265.043 139.206C241.704 135.347 205.219 129.97 205.219 129.97L155.968 112.997Z" fill="#455A64"/>
<path d="M146.666 110.392C130.815 106.268 112.704 119.579 117.174 137.97C121.924 157.416 137.231 161.87 148.249 164.014C159.267 166.158 174.771 164.014 172.281 160.715C193.723 159.231 196.098 156.146 198.275 153.194C218.068 150.423 219.899 143.924 214.951 142.176C231.247 139.487 237.762 134.259 225.21 132.939C242.232 130.036 251.337 121.064 237.845 121.69C219.701 122.548 197.797 122.977 176.817 118.392C158.673 114.219 157.717 113.278 146.666 110.392Z" fill="#37474F"/>
<path d="M222.307 132.524C212.99 132.947 203.655 132.744 194.366 131.914C183.654 131.082 173.016 129.483 162.533 127.13C157.293 125.97 152.14 124.449 147.111 122.578C147.111 122.578 146.995 122.71 147.111 122.743C156.507 126.416 166.308 128.957 176.305 130.314C186.816 132.001 197.43 132.965 208.073 133.2C212.824 133.361 217.581 133.185 222.307 132.672C222.307 132.672 222.406 132.524 222.307 132.524ZM175.81 141.282C164.015 140.083 152.326 137.999 140.843 135.048C135.485 133.703 130.209 132.051 125.042 130.099C125.042 130.099 124.943 130.231 125.042 130.264C134.873 134.176 145.082 137.062 155.506 138.874C167.744 141.246 180.157 142.609 192.618 142.948C199.23 143.17 205.85 142.85 212.411 141.992C200.236 142.864 188.008 142.626 175.876 141.282H175.81ZM173.023 151.822C164.233 151.133 155.496 149.888 146.863 148.094C143.026 147.334 139.249 146.292 135.565 144.977C135.565 144.977 135.466 145.109 135.565 145.142C142.674 148.16 150.541 149.496 158.145 150.651C166.952 151.992 175.83 152.807 184.734 153.092C188.641 153.254 192.555 153.128 196.444 152.713C188.648 152.876 180.85 152.579 173.089 151.822H173.023ZM152.422 158.205C147.513 157.487 142.678 156.333 137.973 154.758C135.718 153.992 133.515 153.083 131.375 152.036C131.375 152.036 131.276 152.152 131.375 152.185C135.277 154.336 139.448 155.955 143.779 157.001C149.021 158.303 154.352 159.212 159.729 159.723C163.293 160.132 166.878 160.336 170.466 160.333C164.578 159.508 158.459 159.162 152.488 158.205H152.422Z" fill="#263238"/>
<path d="M117.537 121.821C114.535 129.656 113.298 137.755 120.456 149.762C123.392 154.71 130.171 162.182 135.812 162.578C137.297 162.677 137.462 160.055 137.247 158.587C137.011 157.132 136.447 155.75 135.598 154.546C136.269 155.042 137.104 155.265 137.933 155.17C138.763 155.075 139.526 154.669 140.068 154.034C140.571 153.364 140.907 152.583 141.048 151.757C141.188 150.931 141.129 150.083 140.876 149.284C140.344 147.693 139.547 146.204 138.517 144.88C139.095 145.025 139.699 145.029 140.279 144.893C140.859 144.756 141.397 144.482 141.85 144.095C142.302 143.707 142.655 143.216 142.879 142.664C143.102 142.112 143.19 141.515 143.136 140.922C142.693 138.806 141.704 136.844 140.266 135.231C140.952 135.676 141.78 135.85 142.588 135.719C143.396 135.588 144.126 135.161 144.637 134.522C145.582 133.165 146.02 131.518 145.874 129.87C145.813 127.226 145.195 124.623 144.059 122.234C145.016 123.454 147.193 122.762 147.853 121.36C148.374 119.877 148.298 118.25 147.639 116.824C146.809 114.15 145.263 111.754 143.169 109.896C136.373 104.255 121.413 111.694 117.537 121.821Z" fill="#263238"/>
<path d="M49.697 116.379C52.1051 117.105 57.4162 116.99 64.5416 116.594C71.6671 116.198 74.2236 116.396 76.0875 113.608C77.5873 110.904 78.3708 107.86 78.3636 104.768C73.3919 104.763 68.4538 105.582 63.7499 107.192C58.4954 109.278 53.7157 112.403 49.697 116.379Z" fill="#343030"/>
<path d="M62.5293 97.5579C59.9892 98.465 49.7299 104.584 46.0352 109.632C42.3406 114.679 44.3858 122.827 46.596 125.482C47.5197 126.868 45.8538 123.487 50.4226 118.769C54.9915 114.052 59.9397 111.759 66.092 109.302C72.2442 106.844 82.1737 103.463 83.4932 102.869C85.7694 101.846 84.5488 99.999 80.0954 101.088C75.642 102.176 71.4195 102.968 69.0609 100.758C66.7022 98.5475 65.6137 96.3868 62.5293 97.5579Z" fill="#323030"/>
<path d="M81.25 94.5878C81.151 94.1755 81.4149 93.8786 81.5139 93.5157C81.6129 93.1529 81.6129 92.7075 81.6953 92.3117C81.805 91.8861 82.0038 91.4888 82.2786 91.1459C82.5534 90.803 82.898 90.5225 83.2894 90.3228C83.6809 90.1232 84.1103 90.0091 84.5492 89.988C84.9881 89.9668 85.4265 90.0393 85.8353 90.2004C86.3169 90.3731 86.7517 90.6555 87.1054 91.0251C87.4352 91.3715 87.5672 91.8498 87.8971 92.2127C88.227 92.5756 88.2764 92.5261 88.3424 92.757C88.3825 92.9931 88.3293 93.2356 88.194 93.4332C88.0403 93.7934 87.9081 94.1625 87.7981 94.5384C87.6479 95.0376 87.3668 95.4875 86.984 95.8414C86.6011 96.1953 86.1304 96.4402 85.6209 96.5506C85.0451 96.686 84.4453 96.6818 83.8715 96.5383C83.2977 96.3948 82.7665 96.1163 82.3221 95.7259C82.0932 95.4396 81.8332 95.1796 81.5469 94.9507C81.4428 94.9095 81.3517 94.8411 81.283 94.7528C81.263 94.7 81.2518 94.6443 81.25 94.5878Z" fill="white"/>
<path d="M84.9774 94.8533C85.8975 94.8533 86.6433 94.1074 86.6433 93.1874C86.6433 92.2673 85.8975 91.5215 84.9774 91.5215C84.0574 91.5215 83.3115 92.2673 83.3115 93.1874C83.3115 94.1074 84.0574 94.8533 84.9774 94.8533Z" fill="#37474F"/>
<path d="M86.4622 92.5758C86.4655 92.6587 86.4436 92.7406 86.3996 92.8109C86.3556 92.8812 86.2914 92.9366 86.2154 92.9698C86.1394 93.0031 86.0552 93.0126 85.9737 92.9972C85.8922 92.9818 85.8172 92.9422 85.7586 92.8836C85.6999 92.825 85.6604 92.75 85.645 92.6685C85.6296 92.587 85.6391 92.5027 85.6724 92.4268C85.7056 92.3508 85.761 92.2866 85.8313 92.2426C85.9015 92.1985 85.9835 92.1768 86.0663 92.18C86.17 92.1841 86.2684 92.2271 86.3417 92.3005C86.4151 92.3738 86.4581 92.4722 86.4622 92.5758Z" fill="white"/>
</svg>
