<svg width="1000" height="1000" viewBox="0 0 1000 1000" fill="none" xmlns="http://www.w3.org/2000/svg">
<path d="M311.41 647.225L312.022 647.6L312.697 647.359L312.698 647.359L312.698 647.358L312.705 647.356L312.736 647.345C312.764 647.335 312.808 647.32 312.866 647.3C312.982 647.261 313.156 647.202 313.384 647.128C313.839 646.98 314.505 646.771 315.339 646.531C317.009 646.051 319.344 645.449 322.002 644.963C327.383 643.978 333.825 643.516 338.772 645.254C341.225 646.117 344.443 648.057 347.966 650.588C351.46 653.098 355.147 656.11 358.521 659.02C361.892 661.928 364.933 664.721 367.133 666.789C367.443 667.08 367.737 667.357 368.012 667.618H283.941L250.214 558.496C251.001 558.176 252.135 557.715 253.566 557.134C256.51 555.939 260.713 554.234 265.753 552.194C275.833 548.113 289.258 542.692 302.643 537.33C316.028 531.967 329.368 526.664 339.277 522.819C344.234 520.896 348.322 519.341 351.126 518.327C351.754 518.1 352.314 517.901 352.801 517.733C352.8 517.738 352.799 517.744 352.798 517.75C352.709 518.304 352.611 518.944 352.502 519.657C352.482 519.789 352.461 519.924 352.44 520.062C352.306 520.941 352.154 521.926 351.978 523.008C351.275 527.334 350.191 533.21 348.334 539.914C344.617 553.334 337.824 570.009 324.879 584.175C311.576 598.734 305.132 612.465 303.511 623.566C301.899 634.61 305.064 643.34 311.41 647.225Z" fill="white" stroke="#363A5A" stroke-width="3"/>
<path d="M816.153 603.297L816.041 602.244L810.708 552.345L793.866 535.482L707.523 511.572L707.52 511.571C704.07 510.609 700.405 510.759 697.044 511.999L697.042 512L660.166 525.549L659.79 525.687L659.395 525.619L641.279 522.515L641.219 522.505L641.16 522.49L641.532 521.036C641.16 522.49 641.16 522.49 641.16 522.49L641.159 522.489L641.156 522.488L641.143 522.485L641.095 522.473L640.909 522.424C640.746 522.382 640.506 522.319 640.198 522.237C639.582 522.073 638.691 521.833 637.591 521.526C635.39 520.913 632.346 520.034 628.97 518.969C622.258 516.851 614.106 513.958 608.714 510.926C604.746 508.738 600.491 507.118 596.073 506.112L596.065 506.11L596.057 506.108C547.531 494.488 505.371 474.106 475.355 456.64C460.343 447.906 448.358 439.895 440.123 434.065C436.005 431.15 432.824 428.779 430.67 427.135C429.592 426.313 428.772 425.673 428.219 425.237C427.943 425.019 427.733 424.852 427.592 424.739C427.522 424.683 427.468 424.64 427.432 424.61L427.391 424.577L427.38 424.568L427.377 424.566C427.376 424.565 427.376 424.565 428.323 423.401L427.376 424.565L427.316 424.516L427.262 424.462C424.693 421.893 420.644 416.5 415.808 409.886C414.624 408.266 413.388 406.566 412.109 404.808C408.124 399.328 403.721 393.275 399.151 387.251C393.115 379.295 386.819 371.433 380.862 365.076C374.859 358.671 369.359 353.97 364.924 352.119C355.71 348.275 341.178 347.157 328.75 347.04C322.575 346.983 316.989 347.171 312.946 347.375C310.925 347.476 309.292 347.582 308.165 347.661C307.601 347.701 307.165 347.735 306.87 347.758C306.756 347.767 306.663 347.775 306.592 347.78L298.085 350.522L296.978 347.741L299.624 346.476C293.084 332.921 282.744 321.543 269.85 313.739C256.534 305.679 241.106 301.8 225.561 302.604C210.017 303.407 195.071 308.857 182.658 318.247C170.244 327.637 160.934 340.536 155.93 355.275C153.545 362.31 152.17 369.65 151.037 377.137C150.672 379.546 150.332 381.98 149.99 384.423C149.277 389.523 148.558 394.665 147.602 399.71L147.581 399.817L147.546 399.92C143.267 412.326 134.376 422.609 122.718 428.634C109.641 435.522 94.4365 437.223 79.8478 435.818C84.0009 439.639 88.7399 442.785 93.8926 445.13C100.343 448.067 107.313 449.691 114.398 449.909L118.58 450.037L115.268 452.595C101.315 463.373 84.373 471.086 67.4897 476.439C76.433 481.864 86.6794 484.819 97.1771 484.969C108.737 485.134 120.089 481.892 129.817 475.647L131.613 478.039L116.24 491.442C132.924 492.254 148.899 480.377 157.928 465.466C165.554 452.87 169.407 438.583 173.312 424.104C174.357 420.231 175.405 416.344 176.53 412.472C181.822 394.262 189.717 375.209 205.353 363.675L205.353 363.675C218.846 353.727 239.426 351.893 252.574 361.66L255.156 363.579L252.027 364.324C239.573 367.289 214.357 376.366 204.499 402.464C201.504 410.43 200.549 417.711 199.237 427.709C198.97 429.746 198.688 431.896 198.371 434.187C196.506 447.674 193.448 465.767 184.996 494.014C179.086 513.782 160.437 530.708 143.574 542.596C135.102 548.57 126.996 553.328 121.009 556.594C118.015 558.227 115.548 559.488 113.827 560.342C113.635 560.437 113.452 560.528 113.279 560.613C113.571 560.864 113.893 561.147 114.242 561.46C115.986 563.031 118.393 565.383 121.071 568.533C126.428 574.832 132.883 584.333 137.301 597.161L137.302 597.162C143.279 614.547 148.277 635.944 152.736 655.033C153.262 657.287 153.781 659.509 154.293 661.688C156.724 672.03 158.999 681.404 161.203 688.764C162.305 692.443 163.381 695.587 164.437 698.08C165.38 700.306 166.266 701.908 167.075 702.909C167.161 702.921 167.258 702.936 167.365 702.952C167.91 703.033 168.712 703.15 169.738 703.298C171.791 703.593 174.74 704.007 178.321 704.481C185.484 705.43 195.171 706.619 205.274 707.584C215.384 708.55 225.88 709.288 234.672 709.34C239.069 709.365 243.01 709.219 246.248 708.851C248.254 708.622 249.929 708.315 251.252 707.937C250.36 707.143 249.15 706.091 247.674 704.858C244.287 702.031 239.503 698.265 233.909 694.5C222.645 686.921 208.39 679.555 195.733 679.555H194.664L194.315 678.545L185.578 653.289L185.529 653.146L185.509 652.996C185.428 652.387 185.313 651.557 185.172 650.546C184.414 645.089 182.919 634.324 182.097 624.178C181.61 618.173 181.353 612.312 181.638 607.864C181.78 605.654 182.061 603.69 182.563 602.206C183.024 600.847 183.893 599.258 185.625 599.004C186.37 598.895 188.001 598.869 190.03 598.838L190.229 598.835L190.26 598.834C192.453 598.8 195.249 598.756 198.37 598.626C204.657 598.364 212.178 597.753 218.618 596.192L218.622 596.191C229.163 593.661 245.714 584.723 260.393 575.529C267.699 570.953 274.484 566.35 279.747 562.516C282.379 560.599 284.621 558.88 286.354 557.458C288.116 556.012 289.267 554.94 289.79 554.302L290.298 553.682L291.095 553.759L290.951 555.252C291.095 553.759 291.096 553.759 291.097 553.759L291.1 553.759L291.11 553.76L291.142 553.764C291.169 553.766 291.207 553.771 291.256 553.776C291.355 553.787 291.498 553.804 291.684 553.829C292.054 553.877 292.594 553.954 293.286 554.07C294.67 554.302 296.662 554.691 299.127 555.319C304.055 556.574 310.879 558.789 318.502 562.633C333.758 570.326 352.2 584.539 365.007 610.581M816.153 603.297L363.661 611.243M816.153 603.297L817.183 603.543L884.307 619.638C884.291 619.871 884.272 620.134 884.249 620.427C884.145 621.737 883.962 623.638 883.644 625.986C883.007 630.686 881.833 637.164 879.682 644.273C875.402 658.425 867.318 674.873 852.129 684.916L793.332 687.969L793.319 687.943L792.914 687.092L791.972 687.088L628.988 686.356L626.897 686.347L627.558 688.331C630.882 698.303 637.86 709.764 646.417 715.969C653.535 721.136 662.736 721.932 670.957 722.548L671.031 722.553L671.106 722.551L671.108 722.551L671.113 722.551L671.139 722.551L671.243 722.548L671.355 722.546C671.437 722.545 671.538 722.543 671.658 722.541C672.024 722.536 672.567 722.531 673.265 722.529C674.661 722.527 676.681 722.541 679.166 722.61C684.138 722.746 690.961 723.098 698.37 723.958C705.784 724.819 713.753 726.184 721.029 728.337C728.325 730.496 734.806 733.414 739.342 737.313L739.344 737.313C744.785 741.981 747.449 746.285 748.758 749.353C749.322 750.674 749.638 751.774 749.815 752.585M816.153 603.297L749.815 752.585M365.007 610.581L363.661 611.243M365.007 610.581C365.007 610.581 365.007 610.581 365.007 610.581L363.661 611.243M365.007 610.581C373.005 626.837 395.223 648.172 422.955 664.987C450.66 681.785 483.507 693.848 512.575 691.926L512.57 691.926L512.675 693.422C453.668 697.325 380.026 644.505 363.661 611.243M749.815 752.585C715.455 751.565 690.192 749.692 664.904 747.817L664.897 747.817C639.357 745.923 613.79 744.028 578.841 743.013C578.703 742.821 578.534 742.59 578.334 742.324C577.711 741.495 576.789 740.322 575.58 738.924C573.162 736.129 569.584 732.425 564.935 728.78C555.952 721.737 542.892 714.856 526.452 715.292L527.63 699.97C527.63 699.97 527.63 699.969 527.63 699.969L527.631 699.968L749.815 752.585Z" fill="white" stroke="#363A5A" stroke-width="3"/>
<path d="M232.719 713.979C232.542 714.112 230.923 711.983 227.752 709.122C219.408 701.641 208.624 697.455 197.417 697.348C193.16 697.348 190.521 697.813 190.477 697.592C191.049 697.32 191.664 697.147 192.295 697.082C193.98 696.725 195.695 696.524 197.417 696.483C199.967 696.367 202.522 696.501 205.045 696.882C208.141 697.387 211.179 698.197 214.115 699.299C217.03 700.491 219.816 701.977 222.43 703.734C224.561 705.143 226.544 706.762 228.351 708.568C229.589 709.757 230.717 711.056 231.721 712.449C232.431 713.358 232.786 713.934 232.719 713.979Z" fill="#263238"/>
<path d="M105.572 558.045C105.572 557.624 114.62 559.575 125.773 558.644C132.478 557.882 139.114 556.599 145.62 554.808C143.88 555.793 142.015 556.539 140.076 557.025C130.802 559.885 121.008 560.642 111.404 559.243C109.415 559.112 107.452 558.709 105.572 558.045Z" fill="#263238"/>
<path d="M105.682 563.146C112.37 564.869 119.242 565.777 126.149 565.851C137.657 565.696 146.416 561.97 146.527 562.392C144.757 563.447 142.846 564.246 140.851 564.764C131.284 567.681 121.094 567.873 111.425 565.319C109.411 564.89 107.475 564.157 105.682 563.146Z" fill="#263238"/>
<path d="M112.467 567.736C112.467 567.381 119.252 569.133 127.612 570.596C135.972 572.06 142.824 572.703 142.802 573.058C137.632 573.328 132.45 572.911 127.39 571.816C122.257 571.124 117.238 569.752 112.467 567.736Z" fill="#263238"/>
<path d="M317.826 483.827C318.066 485.025 318.192 486.242 318.203 487.464C318.314 488.895 318.351 490.331 318.314 491.766C318.314 493.429 318.314 495.358 318.07 497.442C317.928 499.739 317.661 502.026 317.272 504.294C316.962 506.756 316.318 509.35 315.698 512.055C314.187 517.926 312.13 523.642 309.555 529.13C306.897 534.577 303.75 539.773 300.153 544.652C298.424 546.87 296.827 548.954 295.097 550.75C293.583 552.483 291.976 554.134 290.285 555.695C288.927 557.02 287.498 558.271 286.006 559.443C284.93 560.384 283.797 561.258 282.613 562.059C281.654 562.821 280.63 563.496 279.553 564.077C279.398 563.856 283.722 560.928 289.665 555.074C291.15 553.589 292.769 551.97 294.321 550.085C295.873 548.2 297.559 546.16 299.244 543.965C302.74 539.112 305.819 533.971 308.446 528.598C310.977 523.176 313.032 517.545 314.589 511.767C315.232 509.084 315.897 506.556 316.252 504.117C316.607 501.678 316.984 499.438 317.205 497.465C318.026 489.06 317.56 483.849 317.826 483.827Z" fill="#263238"/>
<path d="M400.398 390.434C385.142 404.958 377.181 430.038 381.572 450.66C383.884 460.977 388.751 470.547 395.725 478.494C402.699 486.44 411.557 492.508 421.486 496.14C436.676 501.551 454.748 501.396 466.523 512.283C473.353 518.559 476.945 527.517 482.267 535.101C489.292 544.769 499.04 552.123 510.266 556.223C521.491 560.323 533.685 560.983 545.287 558.118C568.305 551.998 586.377 528.693 588.55 504.899C575.044 501.497 561.74 497.336 548.702 492.437C531.659 485.756 514.976 478.192 498.72 469.775C486.99 463.499 445.08 437.732 437.918 432.477C427.008 424.472 400.398 390.434 400.398 390.434Z" fill="#F7BF46"/>
<path d="M214.604 426.062C214.804 424.272 215.252 422.518 215.934 420.851C217.361 416.77 219.189 412.841 221.389 409.12C223.604 405.396 226.19 401.904 229.106 398.698C230.228 397.291 231.559 396.065 233.053 395.062C229.273 399.774 225.742 404.681 222.476 409.763C217.331 418.323 214.98 426.195 214.604 426.062Z" fill="#263238"/>
<path d="M222.742 431.828C222.836 430.024 223.202 428.245 223.829 426.55C226.38 418.191 230.862 410.55 236.912 404.243C238.084 402.866 239.46 401.677 240.992 400.717C241.28 401.005 235.182 406.571 230.126 415.241C225.071 423.911 223.141 431.939 222.742 431.828Z" fill="#263238"/>
<path d="M523.985 720.453C523.763 720.453 524.783 717.282 525.271 712.093C525.934 705.35 525.147 698.544 522.963 692.13C520.779 685.716 517.249 679.844 512.609 674.906C509.039 671.114 506.356 669.252 506.489 669.074C507.197 669.375 507.861 669.77 508.463 670.249C510.159 671.471 511.753 672.828 513.23 674.307C518.18 679.181 521.924 685.142 524.164 691.718C526.405 698.293 527.08 705.3 526.136 712.182C525.873 714.255 525.436 716.303 524.828 718.302C524.654 719.057 524.37 719.781 523.985 720.453Z" fill="#263238"/>
<path d="M530.949 712.071C531.195 709.092 531.617 706.13 532.213 703.201C532.397 700.228 532.737 697.268 533.233 694.331C534.3 700.333 533.527 706.516 531.016 712.071H530.949Z" fill="#263238"/>
<path d="M535.582 711.229C535.272 711.007 537.489 707.969 538.664 703.623C539.84 699.277 539.596 695.551 539.973 695.507C540.928 698.242 540.928 701.22 539.973 703.955C539.369 706.805 537.822 709.367 535.582 711.229Z" fill="#263238"/>
<path d="M717.748 753.072C717.548 753.072 717.105 751.32 715.53 748.903C713.379 745.78 710.462 743.26 707.059 741.586C703.603 739.946 699.941 738.782 696.172 738.126C694.573 737.928 692.999 737.571 691.471 737.062C693.089 736.866 694.728 736.926 696.327 737.24C700.24 737.656 704.056 738.728 707.614 740.41C711.218 742.162 714.232 744.929 716.284 748.371C717.213 749.765 717.721 751.397 717.748 753.072Z" fill="#263238"/>
<path d="M748.857 754.159C748.658 754.292 747.194 751.565 744.045 747.773C742.204 745.558 740.171 743.51 737.969 741.652C732.582 737.066 726.288 733.665 719.498 731.674C716.738 730.846 713.911 730.259 711.049 729.922C706.149 729.368 703.066 729.634 703.066 729.39C703.783 729.161 704.532 729.049 705.284 729.057C706.129 728.947 706.982 728.91 707.834 728.946C708.959 728.91 710.085 728.947 711.204 729.057C714.146 729.262 717.059 729.767 719.897 730.565C723.369 731.559 726.728 732.912 729.92 734.601C733.08 736.355 736.052 738.428 738.79 740.788C740.994 742.734 743.006 744.888 744.799 747.218C745.5 748.106 746.151 749.031 746.75 749.99C747.227 750.7 747.657 751.441 748.037 752.208C748.406 752.814 748.682 753.471 748.857 754.159Z" fill="#263238"/>
<path d="M593.494 586.684C593.879 588.233 594.182 589.801 594.401 591.381C594.941 594.408 595.787 598.772 597.013 604.141C600.239 618.093 604.457 631.798 609.633 645.151C612.674 652.995 615.076 660.649 617.626 667.486C619.765 673.538 622.427 679.393 625.58 684.984C627.708 688.749 627.601 689.528 630.654 692.591C632.83 694.74 626.813 691.619 631.41 695.941C631.044 695.749 631.729 694.799 631.41 694.536C630.417 693.857 630.872 693.965 630.005 693.131C626.786 690.158 627.056 689.18 624.818 685.413C621.528 679.823 618.761 673.941 616.555 667.842C613.937 661.026 611.513 653.394 608.473 645.506C603.265 632.101 599.143 618.3 596.147 604.235C595.032 598.846 594.319 594.44 593.935 591.372C593.699 589.837 593.611 588.638 593.538 587.838C593.473 587.457 593.459 587.069 593.494 586.684Z" fill="#363A5A"/>
<g opacity="0.4">
<path d="M304.699 360.603C304.521 359.849 308.779 357.92 316.207 356.767C320.551 356.119 324.946 355.881 329.335 356.057C334.73 356.283 340.091 357.025 345.345 358.275C350.575 359.614 355.667 361.44 360.557 363.73C364.529 365.582 368.316 367.81 371.866 370.382C377.897 374.817 380.736 378.542 380.248 379.141C379.76 379.74 375.813 377.411 369.537 374.107C365.865 372.175 362.098 370.429 358.251 368.874C353.551 367.036 348.745 365.481 343.859 364.217C338.942 363.055 333.958 362.196 328.936 361.645C324.301 361.202 320.066 361.002 316.518 361.024C309.422 361.224 304.898 361.512 304.699 360.603Z" fill="white"/>
</g>
<g opacity="0.4">
<path d="M156.172 386.769C155.773 386.769 155.152 384.862 154.753 381.247C154.297 376.062 154.558 370.839 155.529 365.725C156.929 358.106 159.613 350.78 163.468 344.06C168.132 335.702 174.537 328.442 182.25 322.773C189.962 317.103 198.802 313.156 208.172 311.198C215.734 309.53 223.526 309.163 231.211 310.111C236.35 310.689 241.381 311.988 246.157 313.969C249.505 315.433 251.169 316.608 251.013 316.963C250.659 317.961 243.23 314.967 230.857 314.479C223.669 314.182 216.476 314.929 209.502 316.697C201 318.779 192.991 322.518 185.936 327.701C178.882 332.883 172.919 339.407 168.391 346.899C164.586 353.014 161.702 359.657 159.831 366.612C156.594 378.742 157.215 386.724 156.172 386.769Z" fill="white"/>
</g>
<path d="M706.953 532.002C688.797 530.488 659.403 548.125 655.08 558.154C649.677 570.69 649.46 619.968 656.377 642.663C661.91 660.818 658.754 665.141 666.751 670.112C675.034 675.26 689.273 665.53 699.82 648.066C713.005 626.236 730.944 602.245 732.024 591.655" stroke="#363A5A" stroke-width="3" stroke-linecap="round"/>
<path d="M795.912 618.028C794.227 617.717 793.584 613.593 794.493 608.781C795.402 603.969 797.465 600.355 799.15 600.665C800.835 600.976 801.5 605.1 800.591 609.912C799.682 614.724 797.62 618.449 795.912 618.028Z" fill="#263238"/>
<path d="M803.807 573.168C803.03 573.634 801.589 572.658 799.549 572.17C796.846 571.509 794.012 571.616 791.366 572.481C788.431 573.69 785.617 575.175 782.962 576.916C780.634 578.224 778.904 578.889 778.306 578.246C777.707 577.603 778.306 575.918 780.035 573.612C782.4 570.444 785.648 568.044 789.371 566.715C791.406 565.977 793.591 565.747 795.736 566.044C797.881 566.342 799.92 567.158 801.678 568.423C802.752 569.215 803.563 570.312 804.006 571.572C804.294 572.37 804.139 572.946 803.807 573.168Z" fill="#263238"/>
<g opacity="0.3">
<path d="M668.342 673.732C678.986 674.441 690.051 675.085 699.918 671.071C713.223 665.66 722.093 652.444 725.907 638.585C729.721 624.726 729.566 612.242 729.034 597.895C715.463 631.999 700.806 658.587 668.342 673.732Z" fill="black"/>
</g>
<path d="M878.359 652.931C878.264 653.306 878.13 653.67 877.96 654.017C877.65 654.705 877.184 655.703 876.563 656.989C874.873 660.692 872.63 664.116 869.911 667.145C868.115 669.007 865.942 670.781 863.724 672.755C861.448 675.107 858.707 676.957 855.675 678.188C853.883 678.797 851.924 678.678 850.22 677.855C848.508 676.946 847.121 675.528 846.25 673.797C844.799 670.158 844.436 666.175 845.208 662.333C845.964 655.04 847.45 647.842 849.643 640.846C851.322 635.069 853.839 629.57 857.116 624.525C859.356 621.087 862.4 618.248 865.986 616.254C866.954 615.722 867.981 615.305 869.046 615.012C869.404 614.881 869.776 614.791 870.155 614.746C870.155 614.879 868.647 615.256 866.23 616.675C862.849 618.779 859.996 621.632 857.892 625.013C854.774 630.046 852.385 635.496 850.796 641.201C848.629 648.128 847.144 655.25 846.361 662.466C845.62 666.069 845.928 669.809 847.248 673.243C847.993 674.75 849.186 675.989 850.663 676.791C851.37 677.142 852.14 677.349 852.927 677.403C853.715 677.456 854.505 677.354 855.253 677.101C858.142 675.926 860.765 674.184 862.97 671.979C865.188 670.028 867.405 668.298 869.201 666.524C871.898 663.597 874.181 660.314 875.987 656.767C876.69 655.436 877.483 654.154 878.359 652.931Z" fill="#263238"/>
<path d="M758.068 526.707C762.296 536.738 757.72 541.62 776.872 554.697C783.68 552.829 776.327 545.406 773.339 540.084C776.98 545.282 779.542 550.688 787.196 552.829C788.047 553.447 789.096 553.732 790.144 553.629C790.521 553.479 790.864 553.257 791.153 552.974C791.443 552.692 792.492 552.151 792.65 551.779C792.808 551.407 793.079 550.67 793.082 550.266C793.085 549.862 792.803 549.667 792.65 549.293C791.952 547.801 792.494 547.876 791.153 546.916C789.809 545.927 787.196 543.241 785.973 541.885C788.974 545.073 792.123 548.222 796 550.266C797.32 551.145 799.846 552.081 801.403 551.779C802.415 551.299 803.486 551.308 803.889 550.266C804.292 549.223 803.445 546.119 803.019 545.086C802.072 543.047 800.527 541.345 798.587 540.204C793.623 533.948 776.548 531.246 762.283 527.788" fill="#F7BF46"/>
<path d="M873.258 633.972C874.943 634.194 876.252 634.948 876.163 635.68C876.074 636.412 874.611 636.766 872.903 636.545C871.196 636.323 869.91 635.569 869.998 634.837C870.087 634.105 871.551 633.817 873.258 633.972Z" fill="#263238"/>
<path d="M862.835 639.516C864.498 639.094 865.984 639.316 866.184 640.026C866.383 640.735 865.164 641.667 863.523 642.11C861.882 642.554 860.352 642.332 860.174 641.6C859.997 640.868 861.15 639.959 862.835 639.516Z" fill="#263238"/>
<path d="M872.726 642.131C874.322 641.488 875.786 641.355 875.963 641.821C876.141 642.287 875.01 643.218 873.413 643.839C871.817 644.46 870.375 644.615 870.198 644.149C870.021 643.684 871.151 642.841 872.726 642.131Z" fill="#263238"/>
<path d="M863.766 654.683C863.361 654.829 862.923 654.861 862.501 654.775C862.079 654.689 861.689 654.489 861.373 654.196C861.057 653.904 860.827 653.53 860.709 653.116C860.591 652.701 860.589 652.263 860.704 651.847C860.818 651.432 861.044 651.056 861.358 650.761C861.671 650.466 862.06 650.262 862.481 650.172C862.902 650.083 863.34 650.111 863.747 650.253C864.153 650.396 864.513 650.647 864.786 650.98C865.116 651.612 865.195 652.345 865.005 653.032C864.816 653.72 864.373 654.31 863.766 654.683Z" fill="#263238"/>
<g opacity="0.3">
<path d="M885.372 619.104C879.74 617.486 872.554 615.4 870.027 614.89C867.757 614.89 866.594 616.136 864.731 617.267C859.653 620.372 856.63 625.323 853.924 630.668C848.336 642.132 846.317 654.905 845.918 667.566C845.784 671.514 847.448 675.727 851.284 676.725C852.249 677.041 853.271 677.148 854.28 677.037C855.29 676.926 856.265 676.6 857.138 676.082C866.791 670.656 874.377 662.189 878.714 652C883.317 641.053 885.147 631.404 885.588 619.537" fill="black"/>
</g>
<path d="M880.796 616.232C880.375 615.766 879.599 616.099 879.111 616.498C876.907 618.646 875.295 621.327 874.432 624.281C874.014 625.2 873.752 626.182 873.656 627.186C873.621 627.689 873.71 628.192 873.915 628.652C874.12 629.112 874.434 629.515 874.831 629.825C875.348 630.118 875.933 630.273 876.527 630.273C877.122 630.273 877.706 630.118 878.224 629.825C879.266 629.293 880.175 628.494 881.239 627.984C881.616 627.807 882.149 627.696 882.393 627.984C882.636 628.273 882.392 628.761 882.193 629.093C881.319 630.564 880.802 632.22 880.685 633.927C880.576 634.736 880.699 635.559 881.04 636.3C881.215 636.669 881.496 636.978 881.848 637.188C882.199 637.397 882.605 637.497 883.013 637.475C883.013 637.475 889.023 620.556 885.12 617.961C881.217 615.367 880.796 616.232 880.796 616.232Z" fill="#263238"/>
<g opacity="0.4">
<path d="M661.579 638.274C660.758 638.274 659.361 632.088 658.031 621.776C656.201 608.209 656.283 594.453 658.275 580.909C658.917 577.012 659.805 573.161 660.936 569.378C661.949 565.807 663.262 562.328 664.861 558.978C667.525 553.001 671.821 547.898 677.256 544.254C680.96 541.826 685.314 540.581 689.741 540.684C692.845 540.861 694.375 541.77 694.287 542.125C694.198 542.48 692.579 542.546 689.852 543.101C686.138 543.868 682.658 545.502 679.696 547.868C675.378 551.471 672.044 556.109 670.005 561.35C668.686 564.507 667.589 567.753 666.723 571.063C665.729 574.645 664.937 578.28 664.351 581.951C661.845 597.052 662.311 611.221 662.355 621.488C662.399 631.755 662.466 638.186 661.579 638.274Z" fill="white"/>
</g>
<path d="M57.8965 421.406C58.1374 419.706 58.6939 418.067 59.5374 416.572C63.2346 409.047 69.5386 403.122 77.2772 399.897C78.8207 399.146 80.4897 398.688 82.1999 398.544C82.3773 398.921 74.6384 400.961 67.7864 407.414C60.9344 413.867 58.2735 421.583 57.8965 421.406Z" fill="#263238"/>
<path d="M49.0256 395.617C48.8925 395.617 49.2695 394.353 50.3782 392.712C51.8953 390.581 53.8649 388.812 56.1459 387.531C58.4269 386.251 60.9629 385.491 63.5721 385.305C64.6452 385.124 65.7472 385.231 66.7653 385.616C63.2795 386.001 59.8877 386.992 56.7423 388.543C51.62 391.404 49.3582 395.838 49.0256 395.617Z" fill="#263238"/>
<path d="M802.962 547.564C802.962 547.564 803.671 547.564 804.026 548.606C804.243 549.2 804.243 549.852 804.026 550.446C803.863 550.857 803.601 551.221 803.265 551.507C802.929 551.793 802.528 551.992 802.097 552.087C799.83 552.361 797.538 551.852 795.6 550.646C792.989 549.338 790.667 547.521 788.77 545.302L785.665 541.665L789.457 544.592C790.458 545.146 791.336 545.897 792.038 546.8C792.739 547.704 793.25 548.741 793.537 549.848C793.661 550.513 793.607 551.2 793.381 551.838C793.156 552.477 792.766 553.044 792.251 553.484C791.675 553.854 791.029 554.098 790.352 554.201C789.676 554.304 788.986 554.264 788.326 554.083C783.033 552.948 778.407 549.758 775.465 545.213C774.903 544.365 774.406 543.476 773.979 542.552L772.094 538.716L774.955 541.887C777.132 544.309 778.799 547.144 779.856 550.225C780.169 551.001 780.342 551.827 780.366 552.664C780.345 553.137 780.193 553.595 779.927 553.987C779.66 554.378 779.29 554.688 778.858 554.881C778.072 555.093 777.248 555.123 776.449 554.969C775.65 554.816 774.897 554.482 774.245 553.994C769.996 551.267 766.412 547.623 763.757 543.328C761.982 540.471 760.651 537.361 759.81 534.104C759.592 533.227 759.421 532.338 759.3 531.443C759.241 531.128 759.241 530.804 759.3 530.489C760.375 534.869 762.15 539.047 764.555 542.863C767.229 546.971 770.762 550.452 774.911 553.063C775.415 553.432 775.993 553.689 776.604 553.819C777.215 553.949 777.847 553.948 778.459 553.817C779.501 553.396 779.368 551.954 778.791 550.557C777.768 547.631 776.17 544.939 774.09 542.641L775.11 541.976C775.516 542.843 775.983 543.68 776.507 544.481C779.279 548.734 783.598 551.74 788.548 552.863C789.046 553.012 789.569 553.054 790.084 552.99C790.6 552.925 791.096 552.753 791.542 552.486C791.904 552.174 792.178 551.772 792.338 551.321C792.497 550.87 792.536 550.385 792.451 549.914C791.899 547.973 790.61 546.326 788.858 545.324L789.546 544.592C791.326 546.753 793.51 548.546 795.977 549.87C797.737 551.04 799.832 551.601 801.941 551.466C802.255 551.406 802.553 551.283 802.818 551.106C803.083 550.928 803.31 550.699 803.486 550.433C803.662 550.166 803.782 549.868 803.841 549.554C803.899 549.24 803.894 548.918 803.826 548.606C803.538 547.785 802.895 547.63 802.962 547.564Z" fill="#263238"/>
<path d="M910.785 755.512C913.205 756.642 915.786 757.39 918.436 757.729C919.764 757.885 921.109 757.738 922.373 757.301C923.636 756.863 924.784 756.145 925.731 755.201C926.773 754.048 927.372 752.518 928.436 751.365C929.687 750.267 931.218 749.539 932.859 749.261C934.499 748.983 936.185 749.166 937.727 749.791C939.959 750.534 941.979 751.802 943.619 753.488C945.259 755.174 946.471 757.23 947.152 759.481C947.774 761.752 947.79 764.147 947.199 766.427C946.607 768.707 945.429 770.792 943.781 772.475C942.082 774.106 939.954 775.221 937.645 775.688C935.336 776.155 932.942 775.956 930.743 775.114C930.743 775.114 946.265 780.746 942.007 792.166C937.75 803.586 923.159 805.028 917.992 795.249C917.992 795.249 915.775 788.086 913.557 787.243C911.34 786.401 903.689 783.075 903.689 783.075L890.518 777.731C888.093 776.612 885.514 775.864 882.867 775.513C881.539 775.357 880.194 775.504 878.93 775.942C877.667 776.379 876.519 777.097 875.572 778.041C874.53 779.216 873.931 780.724 872.867 781.877C871.625 782.99 870.094 783.73 868.451 784.012C866.807 784.294 865.118 784.108 863.575 783.474C861.341 782.73 859.318 781.459 857.677 779.768C856.037 778.078 854.828 776.018 854.151 773.761C853.529 771.493 853.512 769.101 854.104 766.825C854.695 764.549 855.874 762.467 857.522 760.789C859.215 759.155 861.339 758.039 863.645 757.571C865.951 757.104 868.343 757.305 870.538 758.15C870.538 758.15 855.016 752.496 859.274 741.076C863.531 729.656 878.144 728.237 883.311 737.994C883.311 737.994 885.528 745.178 887.746 746.021C889.963 746.863 897.591 750.19 897.591 750.19L910.785 755.512Z" fill="#6A6A6A"/>
<path d="M907.57 752.319C909.999 753.447 912.586 754.194 915.242 754.537C916.57 754.692 917.916 754.546 919.179 754.108C920.443 753.67 921.591 752.953 922.538 752.009C923.58 750.834 924.179 749.326 925.243 748.173C926.494 747.075 928.025 746.347 929.666 746.069C931.306 745.791 932.992 745.974 934.534 746.598C936.765 747.338 938.785 748.605 940.421 750.292C942.058 751.979 943.264 754.036 943.936 756.288C944.58 758.557 944.609 760.955 944.02 763.239C943.432 765.522 942.247 767.608 940.588 769.283C938.886 770.909 936.758 772.02 934.45 772.488C932.143 772.955 929.75 772.758 927.549 771.922C927.549 771.922 943.072 777.554 938.814 788.974C934.556 800.394 919.965 801.813 914.799 792.056C914.799 792.056 912.581 784.894 910.364 784.051C908.146 783.208 900.496 779.86 900.496 779.86L887.324 774.538C884.902 773.414 882.322 772.666 879.674 772.321C878.343 772.162 876.992 772.306 875.725 772.744C874.457 773.182 873.306 773.902 872.356 774.849C871.336 776.024 870.738 777.532 869.673 778.685C868.427 779.798 866.891 780.536 865.244 780.815C863.596 781.093 861.903 780.901 860.36 780.259C858.129 779.519 856.109 778.252 854.473 776.565C852.836 774.878 851.63 772.821 850.958 770.569C850.322 768.302 850.298 765.906 850.89 763.627C851.483 761.348 852.669 759.267 854.328 757.597C856.022 755.964 858.145 754.846 860.45 754.375C862.755 753.904 865.146 754.098 867.345 754.936C867.345 754.936 851.823 749.303 856.08 737.884C860.338 726.464 874.929 725.044 880.095 734.801C880.095 734.801 882.313 741.964 884.53 742.806C886.748 743.649 894.376 746.997 894.376 746.997L907.57 752.319Z" fill="#C0C0C0"/>
<path d="M919.412 682.646C921.296 682.522 923.151 682.111 924.911 681.426C925.796 681.084 926.591 680.544 927.236 679.849C927.882 679.153 928.36 678.32 928.636 677.412C928.88 676.326 928.747 675.195 929.035 674.108C929.442 673.003 930.15 672.033 931.078 671.308C932.007 670.583 933.119 670.132 934.291 670.006C935.935 669.72 937.624 669.835 939.214 670.34C940.805 670.846 942.25 671.728 943.427 672.911C944.573 674.119 945.382 675.607 945.771 677.226C946.16 678.846 946.116 680.539 945.644 682.136C945.14 683.724 944.191 685.134 942.91 686.199C941.628 687.264 940.069 687.939 938.415 688.145C938.415 688.145 950.013 686.46 951.166 695.019C952.319 703.579 943.693 709.366 937.196 704.998C937.196 704.998 933.47 701.228 931.807 701.45C930.144 701.672 924.268 702.159 924.268 702.159L914.245 703.246C912.361 703.362 910.507 703.766 908.746 704.443C907.865 704.793 907.074 705.335 906.429 706.029C905.785 706.723 905.303 707.553 905.02 708.457C904.776 709.544 905.02 710.675 904.621 711.761C904.213 712.868 903.506 713.84 902.578 714.568C901.65 715.297 900.538 715.753 899.366 715.886C897.722 716.166 896.034 716.049 894.445 715.543C892.855 715.038 891.41 714.159 890.23 712.981C889.089 711.769 888.285 710.281 887.896 708.663C887.507 707.045 887.547 705.354 888.012 703.756C888.531 702.17 889.487 700.763 890.77 699.697C892.052 698.63 893.61 697.946 895.263 697.724C895.263 697.724 883.666 699.432 882.513 690.85C881.36 682.269 889.964 676.525 896.461 680.872C896.461 680.872 900.208 684.641 901.849 684.42C903.49 684.198 909.411 683.732 909.411 683.732L919.412 682.646Z" fill="#6A6A6A"/>
<path d="M916.329 681.715C918.219 681.588 920.079 681.184 921.851 680.517C922.734 680.169 923.526 679.625 924.168 678.926C924.809 678.227 925.283 677.391 925.554 676.481C925.82 675.417 925.687 674.264 925.953 673.199C926.385 672.105 927.11 671.151 928.049 670.443C928.988 669.735 930.105 669.3 931.275 669.186C932.919 668.9 934.608 669.014 936.199 669.52C937.789 670.026 939.234 670.908 940.411 672.091C941.558 673.299 942.366 674.787 942.755 676.406C943.144 678.025 943.101 679.718 942.629 681.315C942.109 682.901 941.154 684.308 939.871 685.375C938.589 686.442 937.031 687.125 935.377 687.347C935.377 687.347 946.997 685.639 948.15 694.221C949.303 702.803 940.677 708.546 934.18 704.2C934.18 704.2 930.455 700.43 928.792 700.652C927.129 700.873 921.23 701.339 921.23 701.339L911.229 702.426C909.34 702.552 907.48 702.956 905.708 703.623C904.827 703.975 904.037 704.52 903.396 705.219C902.755 705.918 902.28 706.751 902.005 707.659C901.761 708.745 902.005 709.876 901.605 710.963C901.193 712.069 900.481 713.038 899.549 713.763C898.617 714.487 897.501 714.938 896.328 715.065C894.687 715.349 893.002 715.234 891.415 714.728C889.829 714.222 888.388 713.342 887.214 712.16C886.068 710.952 885.259 709.464 884.87 707.845C884.481 706.226 884.524 704.533 884.997 702.936C885.519 701.354 886.476 699.952 887.759 698.889C889.041 697.826 890.597 697.146 892.248 696.926C892.248 696.926 880.65 698.612 879.497 690.052C878.344 681.493 886.948 675.705 893.445 680.074C893.445 680.074 897.171 683.821 898.834 683.622C900.497 683.422 906.395 682.912 906.395 682.912L916.329 681.715Z" fill="#C0C0C0"/>
</svg>
