<svg width="343" height="562" viewBox="0 0 343 562" fill="none" xmlns="http://www.w3.org/2000/svg">
<path d="M214.758 401.304H180.186V492.447H214.758V401.304Z" fill="#9A4A4D"/>
<path d="M180.235 442.578C180.406 442.266 180.625 441.982 180.882 441.736C181.637 441.038 182.564 440.554 183.568 440.332C185.165 439.958 186.842 440.116 188.341 440.784C190.285 441.73 191.926 443.202 193.077 445.032C195.739 448.987 197.375 454.542 197.96 460.731C198.131 462.281 198.241 463.868 198.314 465.492C198.457 467.172 198.375 468.863 198.07 470.522C197.728 472.304 196.736 473.897 195.287 474.99C194.515 475.533 193.605 475.846 192.662 475.893C191.722 475.919 190.79 475.722 189.94 475.319C187.884 474.252 186.318 472.433 185.57 470.241C184.794 468.23 184.25 466.137 183.946 464.003C183.653 461.982 183.563 459.937 183.677 457.899C183.698 456.899 183.867 455.907 184.178 454.957C184.49 454.003 185.102 453.177 185.924 452.601C186.324 452.306 186.788 452.111 187.279 452.032C187.769 451.954 188.272 451.994 188.744 452.149C189.608 452.492 190.34 453.104 190.831 453.895C191.711 455.307 192.254 456.902 192.418 458.558C192.734 461.32 192.12 464.108 190.672 466.481L190.587 466.627L190.441 466.542C189.327 465.928 188.4 465.025 187.755 463.93C187.279 463.127 186.964 462.24 186.827 461.317C186.683 460.551 186.712 459.763 186.912 459.01C186.866 459.768 186.899 460.529 187.01 461.28C187.181 462.173 187.516 463.026 187.999 463.795C188.631 464.828 189.529 465.671 190.599 466.237L190.367 466.298C191.733 463.985 192.291 461.284 191.954 458.619C191.782 457.043 191.261 455.525 190.428 454.176C190.002 453.48 189.358 452.944 188.597 452.65C188.205 452.524 187.788 452.496 187.382 452.566C186.976 452.636 186.593 452.803 186.265 453.052C184.788 454.029 184.361 456.007 184.288 457.936C184.187 459.938 184.285 461.946 184.581 463.93C184.882 466.018 185.418 468.066 186.18 470.033C186.868 472.076 188.314 473.776 190.221 474.782C190.962 475.161 191.791 475.335 192.621 475.286C193.452 475.236 194.254 474.965 194.945 474.501C196.267 473.503 197.172 472.051 197.484 470.424C197.78 468.814 197.862 467.172 197.729 465.541C197.655 463.93 197.558 462.343 197.411 460.804C196.837 454.7 195.275 449.195 192.723 445.301C191.626 443.527 190.064 442.087 188.207 441.138C186.783 440.469 185.182 440.277 183.641 440.588C182.666 440.769 181.752 441.188 180.98 441.809C180.467 442.285 180.259 442.59 180.235 442.578Z" fill="#48B985"/>
<path d="M212.048 447.229C210.843 448.676 209.912 450.331 209.301 452.112C208.679 454.064 208.334 456.094 208.276 458.143C208.166 460.45 208.276 463.026 208.386 465.724C208.508 468.282 208.303 470.846 207.775 473.353C207.307 475.396 206.568 477.366 205.578 479.213C204.922 480.455 204.145 481.628 203.258 482.717C202.954 483.135 202.597 483.513 202.196 483.84C203.289 482.275 204.284 480.644 205.175 478.957C206.088 477.119 206.769 475.176 207.201 473.17C207.685 470.707 207.87 468.194 207.751 465.687C207.69 463.001 207.555 460.413 207.69 458.057C207.797 455.974 208.209 453.918 208.911 451.953C209.384 450.626 210.077 449.388 210.961 448.291C211.212 447.997 211.481 447.72 211.767 447.461C211.926 447.29 212.036 447.217 212.048 447.229Z" fill="#48B985"/>
<path d="M185.46 35.7314L116.877 158.749C116.087 160.163 115.743 161.784 115.889 163.397C116.036 165.011 116.666 166.543 117.698 167.792C118.729 169.042 120.114 169.951 121.671 170.4C123.228 170.849 124.884 170.817 126.423 170.309L146.138 163.803L83.8791 275.223C82.7323 277.273 82.2841 279.64 82.6021 281.967C82.9201 284.295 83.9872 286.455 85.6419 288.122C87.2967 289.79 89.4492 290.873 91.7741 291.208C94.0989 291.544 96.4698 291.113 98.5284 289.982L123.835 276.101L65.3478 376.437C55.6915 393.015 72.5747 412.401 90.3248 405.088L112.177 393.54C112.177 393.54 91.4235 446.692 118.219 450.745C145.015 454.798 172.8 412.388 172.8 412.388C172.8 412.388 194.176 459.413 228.663 452.015C261.233 445.02 244.142 404.197 244.142 404.197C244.142 404.197 271.573 443.359 298.942 419.518C312.957 407.31 290.788 372.323 290.788 372.323L321.624 383.493C323.545 384.343 325.695 384.524 327.73 384.008C329.766 383.492 331.57 382.309 332.853 380.647C334.137 378.985 334.827 376.941 334.811 374.841C334.796 372.741 334.078 370.707 332.77 369.063L259.182 276.468L284.257 280.411C286.939 280.833 289.686 280.465 292.163 279.352C294.639 278.239 296.738 276.428 298.203 274.142C299.667 271.855 300.434 269.191 300.409 266.476C300.384 263.761 299.569 261.112 298.064 258.852L227.613 154.134L248.83 161.337C250.408 161.876 252.116 161.911 253.715 161.436C255.315 160.961 256.727 160 257.755 158.686C258.783 157.372 259.376 155.77 259.453 154.104C259.529 152.437 259.085 150.788 258.181 149.385L185.46 35.7314Z" fill="#48B985"/>
<path d="M84.5748 314.641C79.1423 314.006 73.5146 317.022 69.9255 321.111C68.1196 323.182 66.8305 325.651 66.1642 328.317C65.4978 330.982 65.4732 333.767 66.0923 336.444C71.2195 334.979 76.3468 332.916 80.1556 329.181C83.9644 325.445 86.1862 319.732 84.6114 314.641" fill="#48B985"/>
<path d="M263.821 177.56C263.918 183.029 267.642 188.205 272.183 191.269C274.475 192.781 277.092 193.729 279.82 194.036C282.549 194.344 285.311 194.002 287.882 193.039C285.758 188.156 282.999 183.273 278.824 180.063C274.649 176.852 268.655 175.326 263.821 177.56Z" fill="#48B985"/>
<path d="M270.657 165.866C272.903 168.613 276.859 169.76 280.423 169.528C282.195 169.383 283.906 168.819 285.417 167.883C286.929 166.947 288.196 165.666 289.115 164.145C286.156 162.359 282.801 161.336 279.349 161.166C275.894 161.166 272.281 162.814 270.706 165.89" fill="#48B985"/>
<path d="M82.3898 301.836C79.9483 298.881 75.6878 297.648 71.8668 297.941C69.956 298.105 68.1111 298.719 66.4836 299.733C64.856 300.748 63.492 302.133 62.5034 303.777C65.7118 305.702 69.3495 306.797 73.0875 306.963C76.8109 306.963 80.7051 305.156 82.3898 301.836Z" fill="#48B985"/>
<path d="M180.821 0.768555L190.013 27.3814L214.648 24.3661L194.176 38.405L202.257 61.8194L184.971 45.7662L170.188 61.5752L175.12 39.2961L156.32 29.8229L178.245 27.9185L180.821 0.768555Z" fill="#FFC85E"/>
<g opacity="0.3">
<path d="M184.214 35.1704L180.784 0L190.013 27.3819L184.214 35.1704Z" fill="black"/>
</g>
<g opacity="0.3">
<path d="M184.971 45.7662L184.214 35.1699L202.257 61.8194L184.971 45.7662Z" fill="black"/>
</g>
<g opacity="0.3">
<path d="M194.176 38.4051L184.214 35.17L214.648 24.3662L194.176 38.4051Z" fill="black"/>
</g>
<g opacity="0.3">
<path d="M175.12 39.2961L170.188 61.5752L184.215 35.1699L175.12 39.2961Z" fill="black"/>
</g>
<g opacity="0.3">
<path d="M178.245 27.918L156.32 29.8224L184.214 35.1694L178.245 27.918Z" fill="black"/>
</g>
<path d="M248.769 483.719H148.922V495.804H248.769V483.719Z" fill="#FF725E"/>
<path d="M231.275 560.675H166.416L154.293 489.761H242.433L231.275 560.675Z" fill="#FF725E"/>
<path d="M247.426 495.804C247.426 495.975 225.452 496.121 198.363 496.121C171.274 496.121 149.312 495.975 149.312 495.804C149.312 495.633 171.286 495.486 198.363 495.486C225.44 495.486 247.426 495.682 247.426 495.804Z" fill="#9A4A4D"/>
<path d="M238.258 511.612C237.594 510.673 236.877 509.772 236.109 508.914C233.906 506.669 231.154 505.041 228.125 504.19C226.053 503.573 223.903 503.257 221.741 503.25C219.26 503.271 216.794 503.64 214.416 504.349C208.983 506.126 203.877 508.782 199.303 512.211C194.322 515.726 189.744 519.352 185.179 522.099C181.186 524.655 176.759 526.458 172.116 527.421C168.986 528.052 165.761 528.052 162.631 527.421C162.143 527.333 161.662 527.21 161.191 527.055C160.834 526.967 160.484 526.856 160.141 526.726C159.855 526.629 159.578 526.511 159.311 526.372C159.311 526.298 160.531 526.787 162.68 527.177C165.784 527.69 168.958 527.607 172.031 526.933C176.591 525.925 180.935 524.114 184.861 521.586C189.366 518.839 193.919 515.214 198.925 511.673C203.554 508.203 208.733 505.534 214.245 503.775C216.68 503.064 219.204 502.707 221.741 502.713C223.948 502.738 226.14 503.083 228.248 503.738C231.33 504.648 234.11 506.373 236.292 508.731C237.09 509.587 237.752 510.558 238.258 511.612Z" fill="white"/>
<path d="M234.754 542.73C234.203 541.878 233.556 541.092 232.826 540.387C230.682 538.615 227.976 537.667 225.196 537.713C223.292 537.68 221.397 537.973 219.593 538.58C217.536 539.334 215.58 540.338 213.769 541.571C209.863 544.098 206.054 547.675 201.171 550.116C196.58 552.423 191.547 553.718 186.412 553.913C182.235 554.105 178.055 553.597 174.045 552.411C171.352 551.617 168.765 550.498 166.342 549.078C165.476 548.59 164.865 548.114 164.426 547.858C164.198 547.727 163.989 547.567 163.803 547.382C164.046 547.486 164.279 547.613 164.499 547.76C164.963 548.004 165.586 548.444 166.464 548.895C168.91 550.216 171.493 551.264 174.168 552.02C178.139 553.119 182.26 553.577 186.375 553.376C188.799 553.232 191.205 552.877 193.566 552.313C196.092 551.652 198.545 550.74 200.89 549.591C205.664 547.15 209.436 543.622 213.452 541.046C215.316 539.805 217.325 538.796 219.434 538.043C221.301 537.437 223.259 537.165 225.22 537.237C228.089 537.221 230.862 538.264 233.009 540.167C233.33 540.475 233.624 540.81 233.888 541.168C234.095 541.417 234.275 541.687 234.425 541.974C234.566 542.211 234.677 542.465 234.754 542.73Z" fill="white"/>
<path d="M252.687 227.356C252.366 224.545 252.26 221.712 252.37 218.884C252.26 216.056 252.366 213.224 252.687 210.412C253.001 213.225 253.107 216.056 253.005 218.884C253.107 221.712 253.001 224.544 252.687 227.356Z" fill="#9A4A4D"/>
<path d="M262.971 248.35C268.768 242.553 268.768 233.154 262.971 227.357C257.173 221.56 247.774 221.56 241.977 227.357C236.18 233.154 236.18 242.553 241.977 248.35C247.774 254.147 257.173 254.147 262.971 248.35Z" fill="white"/>
<path d="M267.337 238.282C267.337 238.282 267.337 238.282 267.202 238.441C267.068 238.599 266.958 238.685 266.751 238.844C266.137 239.34 265.46 239.75 264.736 240.064C263.581 240.56 262.33 240.79 261.074 240.736C259.387 240.672 257.781 239.995 256.557 238.831C255.803 238.141 255.198 237.305 254.778 236.373C254.358 235.441 254.133 234.433 254.116 233.411C254.083 232.24 254.473 231.096 255.214 230.188C255.616 229.685 256.182 229.34 256.814 229.212C257.151 229.158 257.496 229.185 257.821 229.291C258.146 229.397 258.441 229.579 258.681 229.822C259.558 230.788 260.064 232.034 260.11 233.338C260.227 234.655 260.048 235.981 259.585 237.22C259.115 238.524 258.389 239.72 257.45 240.739C256.51 241.758 255.377 242.579 254.116 243.153C252.86 243.783 251.458 244.062 250.057 243.961C248.656 243.86 247.308 243.383 246.156 242.579C245.122 241.765 244.35 240.663 243.937 239.413C243.525 238.162 243.49 236.818 243.837 235.548C244.015 234.952 244.317 234.4 244.723 233.929C245.129 233.458 245.63 233.077 246.193 232.813C246.75 232.559 247.369 232.47 247.975 232.557C248.576 232.656 249.122 232.968 249.513 233.436C249.837 233.877 250.068 234.379 250.192 234.912C250.315 235.445 250.33 235.998 250.234 236.536C250.117 237.515 249.76 238.45 249.196 239.259C248.274 240.653 246.968 241.751 245.436 242.42C244.284 242.934 243.035 243.196 241.774 243.19C240.985 243.177 240.203 243.045 239.454 242.799C239.197 242.71 238.948 242.6 238.709 242.469C239.702 242.776 240.735 242.937 241.774 242.945C242.978 242.901 244.161 242.614 245.253 242.103C246.698 241.425 247.925 240.355 248.793 239.014C249.294 238.257 249.608 237.391 249.709 236.487C249.791 236.016 249.777 235.533 249.668 235.068C249.559 234.602 249.357 234.163 249.074 233.777C248.742 233.411 248.297 233.167 247.809 233.085C247.322 233.003 246.821 233.088 246.388 233.326C245.895 233.565 245.458 233.906 245.106 234.327C244.755 234.748 244.497 235.239 244.349 235.767C244.047 236.921 244.089 238.139 244.471 239.269C244.853 240.4 245.557 241.393 246.498 242.127C247.565 242.855 248.807 243.283 250.095 243.367C251.384 243.45 252.671 243.187 253.823 242.604C255.006 242.066 256.07 241.298 256.952 240.344C257.835 239.391 258.518 238.27 258.962 237.049C259.407 235.882 259.582 234.631 259.475 233.387C259.443 232.231 259.012 231.122 258.254 230.249C258.08 230.068 257.865 229.93 257.627 229.848C257.39 229.765 257.136 229.739 256.887 229.773C256.403 229.888 255.973 230.164 255.666 230.555C254.997 231.353 254.645 232.37 254.677 233.411C254.681 234.363 254.876 235.304 255.251 236.179C255.627 237.054 256.175 237.844 256.862 238.502C258 239.62 259.505 240.288 261.098 240.382C262.3 240.454 263.504 240.267 264.626 239.832C265.59 239.428 266.5 238.908 267.337 238.282Z" fill="#FF725E"/>
<path d="M191.527 92.4365C191.213 89.6241 191.107 86.7924 191.21 83.9643C191.107 81.1363 191.213 78.3046 191.527 75.4922C191.841 78.3046 191.947 81.1363 191.844 83.9643C191.947 86.7924 191.841 89.6241 191.527 92.4365Z" fill="#9A4A4D"/>
<path d="M191.368 117.779C199.566 117.779 206.213 111.133 206.213 102.934C206.213 94.736 199.566 88.0898 191.368 88.0898C183.17 88.0898 176.523 94.736 176.523 102.934C176.523 111.133 183.17 117.779 191.368 117.779Z" fill="white"/>
<path d="M197.338 295.157C197.025 291.912 196.919 288.65 197.02 285.391C196.919 282.132 197.025 278.87 197.338 275.625C197.658 278.87 197.764 282.132 197.655 285.391C197.764 288.65 197.657 291.912 197.338 295.157Z" fill="#9A4A4D"/>
<path d="M205.228 326.107C214.004 322.508 218.201 312.475 214.602 303.698C211.002 294.921 200.969 290.725 192.192 294.324C183.416 297.924 179.219 307.957 182.818 316.733C186.418 325.51 196.451 329.707 205.228 326.107Z" fill="#FF725E"/>
<g opacity="0.4">
<path d="M205.228 326.106C214.004 322.507 218.201 312.474 214.602 303.697C211.002 294.92 200.969 290.724 192.192 294.323C183.416 297.923 179.219 307.956 182.818 316.732C186.418 325.509 196.451 329.706 205.228 326.106Z" fill="black"/>
</g>
<path d="M201.33 312.749C201.83 312.896 202.331 313.054 202.819 313.225C203.612 313.494 204.369 313.811 205.163 314.055C205.578 315.068 206.054 316.057 204.968 316.765C203.881 317.473 203.307 316.765 202.782 316.131C202.622 315.892 202.495 315.634 202.404 315.361L201.33 312.749Z" fill="white"/>
<path d="M199.096 307.549L200.634 308.013C201.366 308.245 202.221 308.391 202.978 308.66C203.454 309.795 203.918 310.955 204.357 312.053C204.028 311.931 203.698 311.797 203.356 311.687C202.416 311.382 201.452 311.138 200.524 310.82C200.377 310.491 200.243 310.161 200.097 309.844C199.767 309.075 199.425 308.306 199.096 307.549Z" fill="white"/>
<path d="M197.228 303.813C197.557 303.577 197.931 303.411 198.327 303.324C199.069 303.202 199.829 303.252 200.549 303.471C201.098 304.472 201.635 305.595 202.16 306.767C201.937 306.719 201.717 306.658 201.501 306.584L198.302 305.644C198.112 305.141 197.87 304.658 197.582 304.203L197.228 303.813Z" fill="white"/>
<path d="M194.579 302.043C194.904 301.497 195.346 301.03 195.873 300.676C196.496 300.486 197.161 300.483 197.786 300.668C198.411 300.852 198.968 301.215 199.389 301.713C198.912 301.684 198.433 301.734 197.972 301.86C196.951 302.132 196.034 302.702 195.336 303.496C194.84 303.668 194.383 303.938 193.993 304.289C193.962 303.499 194.166 302.717 194.579 302.043Z" fill="white"/>
<path d="M190.319 305.595C190.522 304.665 190.933 303.794 191.52 303.045C192.108 302.297 192.857 301.691 193.712 301.273C193.54 301.51 193.393 301.763 193.273 302.03C192.772 303.166 192.43 304.643 193.151 305.571C193.151 305.925 193.395 306.303 193.248 306.669C193.092 307.06 192.794 307.377 192.413 307.556C192.032 307.735 191.598 307.763 191.197 307.634C190.837 307.449 190.553 307.144 190.392 306.772C190.232 306.4 190.206 305.984 190.319 305.595Z" fill="white"/>
<path d="M185.288 316.509C184.653 315.673 184.192 314.718 183.933 313.701C183.161 311.269 183.048 308.676 183.605 306.186C184.163 303.696 185.371 301.398 187.107 299.528C187.778 298.713 188.609 298.044 189.549 297.562C189.61 297.648 188.658 298.368 187.449 299.821C185.867 301.697 184.757 303.926 184.213 306.32C183.669 308.714 183.707 311.203 184.324 313.579C184.825 315.41 185.386 316.46 185.288 316.509Z" fill="white"/>
<path d="M191.002 322.515C191.002 322.686 190.049 322.625 189.231 321.88C188.414 321.136 188.267 320.232 188.426 320.196C188.584 320.159 188.975 320.806 189.647 321.417C190.318 322.027 191.038 322.332 191.002 322.515Z" fill="white"/>
<path d="M157.333 200.804C157.021 197.558 156.915 194.296 157.016 191.038C156.914 187.779 157.02 184.517 157.333 181.271C157.654 184.516 157.76 187.779 157.651 191.038C157.759 194.296 157.653 197.559 157.333 200.804Z" fill="#9A4A4D"/>
<path d="M170.763 226.538C177.471 219.83 177.471 208.955 170.763 202.247C164.055 195.539 153.18 195.539 146.472 202.247C139.764 208.955 139.764 219.83 146.472 226.538C153.18 233.246 164.055 233.246 170.763 226.538Z" fill="#FF725E"/>
<path d="M172.275 203.16C172.275 203.16 171.994 203.527 171.384 204.1C171.028 204.455 170.649 204.785 170.249 205.089C169.785 205.455 169.272 205.895 168.649 206.31C167.22 207.31 165.709 208.188 164.133 208.935C162.19 209.827 160.172 210.546 158.102 211.083C156.018 211.576 153.893 211.878 151.754 211.987C150.009 212.058 148.262 211.985 146.529 211.767C145.784 211.694 145.137 211.535 144.551 211.437C144.057 211.348 143.568 211.229 143.086 211.083C142.663 210.998 142.253 210.859 141.866 210.668C141.866 210.546 143.672 211.034 146.59 211.315C148.303 211.47 150.025 211.499 151.742 211.401C155.961 211.161 160.1 210.143 163.949 208.397C165.513 207.703 167.019 206.887 168.454 205.956C170.896 204.332 172.202 203.075 172.275 203.16Z" fill="white"/>
<path d="M174.729 215.381C174.539 215.767 174.301 216.128 174.021 216.455C173.736 216.864 173.422 217.251 173.081 217.615C172.678 218.042 172.251 218.567 171.702 219.055C170.449 220.25 169.083 221.321 167.624 222.253C164.016 224.529 159.938 225.953 155.697 226.416C153.976 226.586 152.242 226.586 150.521 226.416C149.857 226.368 149.197 226.278 148.544 226.148C148.047 226.083 147.557 225.977 147.079 225.83C146.658 225.749 146.248 225.618 145.858 225.44C145.858 225.318 147.652 225.806 150.546 225.965C152.244 226.059 153.948 226.002 155.636 225.794C159.772 225.28 163.751 223.89 167.307 221.716C168.756 220.829 170.125 219.816 171.396 218.689C173.557 216.784 174.632 215.307 174.729 215.381Z" fill="white"/>
<path d="M145.43 222.901C144.701 222.101 144.148 221.156 143.807 220.129C142.841 217.697 142.501 215.061 142.818 212.463C143.128 209.853 144.099 207.366 145.638 205.236C146.222 204.33 146.977 203.547 147.86 202.929C147.945 203.002 147.066 203.856 146.004 205.492C144.619 207.614 143.742 210.026 143.442 212.541C143.141 215.056 143.425 217.607 144.271 219.995C144.869 221.814 145.516 222.852 145.43 222.901Z" fill="white"/>
<path d="M152.829 199.938C152.89 200.097 152.291 200.499 151.498 200.841C150.704 201.183 149.984 201.329 149.911 201.171C149.838 201.012 150.436 200.597 151.241 200.255C152.047 199.913 152.755 199.767 152.829 199.938Z" fill="white"/>
<path d="M114.801 369.943C114.473 366.698 114.363 363.435 114.472 360.176C114.363 356.917 114.473 353.655 114.801 350.41C115.114 353.656 115.22 356.918 115.119 360.176C115.221 363.435 115.115 366.697 114.801 369.943Z" fill="#9A4A4D"/>
<path d="M122.598 399.362C131.375 395.763 135.571 385.73 131.972 376.953C128.372 368.176 118.339 363.979 109.563 367.579C100.786 371.179 96.5889 381.212 100.189 389.988C103.788 398.765 113.821 402.962 122.598 399.362Z" fill="#FF725E"/>
<path d="M102.886 392.013C102.186 391.197 101.651 390.251 101.312 389.23C100.32 386.798 99.9632 384.154 100.275 381.547C100.587 378.939 101.557 376.454 103.094 374.324C103.674 373.408 104.434 372.619 105.328 372.005C105.401 372.078 104.522 372.933 103.46 374.581C102.09 376.708 101.214 379.115 100.897 381.625C100.619 384.138 100.903 386.681 101.727 389.071C102.325 390.915 102.984 391.916 102.886 392.013Z" fill="white"/>
<path d="M110.285 369.039C110.285 369.197 109.76 369.612 108.954 369.954C108.148 370.296 107.44 370.442 107.367 370.272C107.294 370.101 107.892 369.71 108.698 369.368C109.503 369.026 110.211 368.88 110.285 369.039Z" fill="white"/>
<path d="M257.156 330.242C256.851 330.242 256.619 324.334 256.619 317.046C256.619 309.758 256.851 303.861 257.156 303.861C257.461 303.861 257.693 309.758 257.693 317.046C257.693 324.334 257.449 330.242 257.156 330.242Z" fill="#9A4A4D"/>
<path d="M268.008 317.449C268.008 317.742 262.979 317.803 256.801 317.596C250.624 317.388 245.619 316.973 245.631 316.68C245.644 316.387 250.661 316.314 256.838 316.522C263.015 316.729 268.02 317.132 268.008 317.449Z" fill="#9A4A4D"/>
<path d="M265.506 310.197C265.701 310.429 261.77 313.982 256.741 318.144C251.711 322.307 247.487 325.469 247.304 325.249C247.121 325.03 251.04 321.465 256.057 317.314C261.074 313.164 265.323 309.978 265.506 310.197Z" fill="#9A4A4D"/>
<path d="M265.042 327.117C263.982 326.347 263.04 325.426 262.246 324.383C260.647 322.601 258.523 320.037 256.338 317.058C254.153 314.08 252.309 311.345 251.064 309.282C250.299 308.223 249.691 307.059 249.257 305.827C250.205 306.725 251.026 307.748 251.699 308.867C253.103 310.808 255.032 313.494 257.205 316.423C259.378 319.353 261.392 321.966 262.832 323.882C263.704 324.862 264.447 325.949 265.042 327.117Z" fill="#9A4A4D"/>
<path d="M121.699 262.221C121.442 262.221 121.223 256.947 121.223 250.44C121.223 243.933 121.442 238.672 121.699 238.672C121.955 238.672 122.187 243.946 122.187 250.44C122.187 256.935 121.967 262.221 121.699 262.221Z" fill="#9A4A4D"/>
<path d="M131.392 250.783C131.392 251.051 126.899 251.113 121.394 250.929C115.888 250.746 111.408 250.368 111.42 250.111C111.432 249.855 115.912 249.782 121.418 249.965C126.924 250.148 131.404 250.527 131.392 250.783Z" fill="#9A4A4D"/>
<path d="M129.157 244.337C129.328 244.544 125.825 247.706 121.344 251.417C116.864 255.129 113.08 257.961 112.909 257.765C112.738 257.57 116.242 254.384 120.734 250.673C125.226 246.962 128.986 244.129 129.157 244.337Z" fill="#9A4A4D"/>
<path d="M128.742 259.426C127.814 258.735 126.992 257.913 126.301 256.984C124.873 255.397 122.98 253.102 121.027 250.478C119.074 247.853 117.438 245.375 116.327 243.544C115.639 242.6 115.096 241.559 114.716 240.455C115.553 241.262 116.284 242.172 116.889 243.165C118.11 244.899 119.855 247.291 121.772 249.904C123.688 252.516 125.507 254.86 126.801 256.557C127.566 257.429 128.218 258.392 128.742 259.426Z" fill="#9A4A4D"/>
<path d="M169.211 397.251C168.906 397.251 168.674 391.342 168.674 384.054C168.674 376.766 168.906 370.87 169.211 370.87C169.516 370.87 169.748 376.766 169.748 384.054C169.748 391.342 169.504 397.251 169.211 397.251Z" fill="#FAFAFA"/>
<path d="M180.064 384.433C180.064 384.739 175.034 384.8 168.857 384.592C162.68 384.384 157.675 383.969 157.687 383.676C157.699 383.383 162.717 383.31 168.894 383.518C175.071 383.725 180.076 384.14 180.064 384.433Z" fill="#FAFAFA"/>
<path d="M177.561 377.267C177.757 377.499 173.826 381.051 168.796 385.202C163.767 389.353 159.543 392.527 159.36 392.319C159.177 392.112 163.083 388.535 168.113 384.384C173.142 380.233 177.378 376.986 177.561 377.267Z" fill="#FAFAFA"/>
<path d="M177.097 394.125C176.04 393.351 175.099 392.43 174.302 391.391C172.702 389.596 170.578 387.045 168.393 384.066C166.208 381.087 164.364 378.353 163.119 376.29C162.355 375.231 161.746 374.067 161.312 372.835C162.26 373.733 163.081 374.756 163.754 375.875C165.158 377.816 167.087 380.501 169.26 383.431C171.433 386.361 173.447 388.974 174.887 390.89C175.76 391.869 176.502 392.957 177.097 394.125Z" fill="#FAFAFA"/>
<path d="M191.332 191.905C191.039 191.905 190.794 185.997 190.794 178.721C190.794 171.445 191.039 165.524 191.332 165.524C191.625 165.524 191.869 171.433 191.869 178.721C191.869 186.009 191.649 191.905 191.332 191.905Z" fill="#FAFAFA"/>
<path d="M202.196 179.099C202.196 179.392 197.167 179.465 190.977 179.245C184.788 179.025 179.795 178.635 179.807 178.33C179.819 178.024 184.837 177.963 191.014 178.183C197.191 178.403 202.196 178.793 202.196 179.099Z" fill="#FAFAFA"/>
<path d="M199.694 171.872C199.877 172.092 195.959 175.644 190.929 179.807C185.899 183.97 181.663 187.132 181.48 186.912C181.297 186.692 185.216 183.128 190.245 178.977C195.275 174.827 199.499 171.64 199.694 171.872Z" fill="#FAFAFA"/>
<path d="M199.218 188.78C198.159 188.011 197.221 187.09 196.434 186.045C194.823 184.263 192.711 181.699 190.514 178.72C188.316 175.742 186.497 173.007 185.24 170.956C184.476 169.894 183.871 168.726 183.445 167.489C184.386 168.393 185.207 169.415 185.887 170.529C187.291 172.47 189.22 175.156 191.393 178.086C193.566 181.015 195.58 183.64 197.033 185.544C197.9 186.522 198.634 187.61 199.218 188.78Z" fill="#FAFAFA"/>
<path d="M142.354 151.839C142.122 151.839 141.951 147.359 141.951 141.816C141.951 136.274 142.122 131.794 142.354 131.794C142.586 131.794 142.757 136.274 142.757 141.816C142.757 147.359 142.574 151.839 142.354 151.839Z" fill="#FF725E"/>
<path d="M150.607 142.109C150.607 142.329 146.786 142.378 142.061 142.219C137.337 142.06 133.516 141.755 133.577 141.523C133.638 141.291 137.398 141.254 142.122 141.413C146.847 141.572 150.619 141.877 150.607 142.109Z" fill="#FF725E"/>
<path d="M148.702 136.616C148.849 136.787 145.87 139.485 142.049 142.647C138.228 145.809 135.005 148.226 134.871 148.043C134.737 147.86 137.703 145.174 141.524 142.012C145.345 138.85 148.556 136.433 148.702 136.616Z" fill="#FF725E"/>
<path d="M148.348 149.471C147.547 148.881 146.832 148.183 146.224 147.395C145.003 146.028 143.404 144.087 141.731 141.841C140.059 139.595 138.679 137.495 137.727 135.932C137.141 135.132 136.68 134.247 136.36 133.308C137.074 133.992 137.694 134.768 138.203 135.615C139.278 137.092 140.742 139.131 142.39 141.352C144.039 143.574 145.577 145.576 146.675 147.029C147.34 147.764 147.902 148.585 148.348 149.471Z" fill="#FF725E"/>
<path d="M230.64 155.465C230.633 155.614 230.608 155.761 230.567 155.904L230.274 157.125C230.006 158.236 229.676 159.884 229.053 162.008C227.497 167.942 225.606 173.782 223.389 179.502C208.515 217.619 180.322 249.047 144.039 267.959C138.605 270.804 133.013 273.335 127.29 275.54C125.276 276.346 123.628 276.846 122.59 277.249L121.369 277.664L120.942 277.786C121.068 277.709 121.203 277.647 121.345 277.603L122.566 277.127C123.615 276.688 125.215 276.15 127.217 275.308C132.89 273.019 138.44 270.436 143.844 267.568C161.714 258.101 177.78 245.564 191.307 230.53C204.783 215.457 215.502 198.131 222.974 179.343C225.247 173.66 227.219 167.862 228.883 161.972C229.505 159.896 229.871 158.309 230.177 157.15L230.518 155.929C230.544 155.77 230.585 155.615 230.64 155.465Z" fill="#9A4A4D"/>
<path d="M229.725 154.842C229.39 154.804 229.06 154.739 228.736 154.646L225.94 153.963C224.72 153.682 223.255 153.291 221.546 152.742C219.837 152.193 217.883 151.729 215.759 151.033C213.635 150.337 211.303 149.617 208.837 148.713C206.371 147.81 203.735 146.821 200.988 145.735C195.045 143.318 189.245 140.563 183.616 137.482C178.01 134.373 172.629 130.873 167.514 127.008C165.256 125.104 162.997 123.407 161.117 121.563L158.334 118.963L155.893 116.412C154.318 114.825 153.06 113.226 151.937 111.858L150.399 109.917L149.178 108.208L147.543 105.84C147.339 105.574 147.163 105.287 147.018 104.985C147.247 105.231 147.459 105.492 147.652 105.767L149.374 108.062L150.594 109.734L152.181 111.614C153.329 112.969 154.623 114.532 156.198 116.094L158.639 118.609L161.435 121.161C163.315 122.98 165.573 124.652 167.844 126.532C172.951 130.367 178.31 133.854 183.885 136.97C189.493 140.039 195.263 142.802 201.171 145.246C203.906 146.333 206.494 147.407 208.972 148.262C211.45 149.116 213.745 149.959 215.869 150.703C217.993 151.448 219.91 151.924 221.607 152.498C223.304 153.072 224.769 153.45 225.977 153.719L228.736 154.512C229.076 154.588 229.407 154.698 229.725 154.842Z" fill="#9A4A4D"/>
<path d="M293.352 375.814C293.177 375.831 293.001 375.831 292.827 375.814H291.288L285.331 375.924L281.034 375.985C279.459 375.985 277.75 375.851 275.919 375.778C272.257 375.57 268.069 375.534 263.479 374.948L256.264 374.179C253.75 373.898 251.174 373.385 248.488 372.958L244.399 372.286C243.703 372.164 243.007 372.067 242.311 371.932L240.199 371.456L231.483 369.528C218.616 366.299 206.024 362.062 193.822 356.856C181.695 351.47 170.013 345.135 158.883 337.91L151.559 332.843L149.789 331.623C149.203 331.207 148.653 330.756 148.104 330.329L144.82 327.789C142.696 326.105 140.56 324.566 138.643 322.906L133.174 318.133C129.609 315.179 126.728 312.139 124.079 309.588C122.785 308.294 121.54 307.146 120.417 305.986L117.536 302.788L113.52 298.503L112.494 297.282C112.373 297.153 112.263 297.014 112.165 296.867C112.301 296.978 112.428 297.101 112.543 297.233L113.617 298.356L117.67 302.702L120.6 305.84C121.687 306.963 122.944 308.123 124.262 309.405C126.924 311.919 129.829 314.935 133.394 317.864L138.887 322.589C140.804 324.212 142.94 325.738 145.064 327.411L148.348 329.938C148.91 330.353 149.459 330.805 150.033 331.22L151.815 332.44L159.14 337.47C181.317 352.009 205.805 362.672 231.556 369.003L240.248 370.968L242.348 371.432C243.043 371.578 243.752 371.676 244.435 371.798L248.513 372.482C251.198 372.909 253.762 373.434 256.264 373.703L263.467 374.496C268.033 375.119 272.22 375.18 275.87 375.424C277.701 375.509 279.41 375.644 280.973 375.68H292.766C292.965 375.704 293.162 375.749 293.352 375.814Z" fill="#9A4A4D"/>
<path d="M143.16 272.647C142.705 272.064 142.114 271.603 141.438 271.304C141.206 271.235 140.961 271.222 140.722 271.265C140.484 271.308 140.259 271.407 140.065 271.553C139.872 271.699 139.715 271.888 139.608 272.106C139.501 272.323 139.446 272.563 139.449 272.805C139.362 278.2 141.251 283.441 144.759 287.54C145.178 288.043 145.692 288.458 146.273 288.761C146.562 288.915 146.885 288.995 147.213 288.995C147.541 288.995 147.863 288.915 148.153 288.761C148.53 288.408 148.808 287.96 148.956 287.465C149.104 286.969 149.117 286.443 148.995 285.941C148.499 281.005 146.457 276.352 143.16 272.647Z" fill="#FFC85E"/>
<path d="M141.438 269.096L137.853 270.851L139.167 273.537L142.753 271.783L141.438 269.096Z" fill="#9A4A4D"/>
<path d="M145.687 286.685C145.132 286.381 144.646 285.965 144.259 285.464C143.261 284.314 142.475 282.996 141.939 281.57C141.397 280.154 140.989 278.691 140.718 277.2C140.57 276.596 140.488 275.978 140.474 275.356C140.705 275.935 140.873 276.537 140.975 277.151C141.309 278.602 141.737 280.029 142.256 281.424C142.776 282.81 143.5 284.11 144.405 285.281C145.174 286.185 145.723 286.636 145.687 286.685Z" fill="white"/>
<path d="M202.868 222.766C202.213 222.438 201.489 222.27 200.756 222.278C200.512 222.307 200.279 222.393 200.075 222.53C199.871 222.666 199.703 222.85 199.584 223.064C199.465 223.279 199.398 223.518 199.39 223.764C199.381 224.009 199.431 224.253 199.535 224.475C201.718 229.398 205.626 233.354 210.522 235.596C211.115 235.883 211.757 236.053 212.414 236.097C212.743 236.112 213.07 236.046 213.366 235.903C213.663 235.76 213.919 235.545 214.111 235.279C214.307 234.803 214.371 234.283 214.296 233.773C214.221 233.264 214.009 232.785 213.684 232.386C211.182 228.12 207.396 224.753 202.868 222.766Z" fill="#72C8D6"/>
<path d="M199.841 220.331L197.329 223.434L199.654 225.315L202.165 222.213L199.841 220.331Z" fill="#9A4A4D"/>
<path d="M211.084 234.436C210.453 234.399 209.837 234.229 209.277 233.936C207.888 233.317 206.623 232.453 205.541 231.385C204.467 230.327 203.494 229.17 202.636 227.93C202.238 227.444 201.902 226.911 201.635 226.343C202.081 226.779 202.49 227.253 202.856 227.759C203.771 228.937 204.762 230.054 205.822 231.104C206.878 232.141 208.084 233.013 209.399 233.692C210.412 234.205 211.096 234.436 211.084 234.436Z" fill="white"/>
<path d="M221.888 189.841C221.326 189.67 220.731 189.637 220.154 189.744C219.968 189.801 219.798 189.902 219.658 190.039C219.519 190.176 219.415 190.344 219.354 190.529C219.293 190.714 219.277 190.911 219.308 191.104C219.339 191.297 219.415 191.479 219.531 191.636C221.936 195.219 225.565 197.801 229.737 198.9C230.244 199.049 230.776 199.09 231.3 199.022C231.559 198.99 231.807 198.894 232.02 198.743C232.233 198.591 232.405 198.389 232.52 198.155C232.608 197.751 232.587 197.331 232.458 196.938C232.329 196.545 232.098 196.194 231.788 195.921C229.215 192.897 225.748 190.769 221.888 189.841Z" fill="#F22F50"/>
<path d="M219.146 188.296L217.588 191.09L219.678 192.255L221.236 189.461L219.146 188.296Z" fill="#9A4A4D"/>
<path d="M229.957 197.911C229.453 197.986 228.94 197.944 228.455 197.789C227.271 197.497 226.15 196.992 225.147 196.299C224.157 195.604 223.234 194.82 222.388 193.956C222.011 193.625 221.679 193.248 221.399 192.832C221.509 192.71 223.096 194.383 225.366 195.982C226.34 196.649 227.405 197.171 228.528 197.532C229.395 197.813 229.969 197.813 229.957 197.911Z" fill="white"/>
<path d="M178.843 138.52C179.063 137.971 179.147 137.376 179.087 136.787C179.047 136.595 178.962 136.416 178.838 136.264C178.715 136.113 178.557 135.993 178.377 135.915C178.198 135.837 178.002 135.804 177.807 135.817C177.612 135.831 177.423 135.891 177.256 135.993C173.479 138.085 170.597 141.484 169.15 145.552C168.958 146.041 168.867 146.564 168.881 147.09C168.891 147.354 168.967 147.612 169.101 147.84C169.236 148.068 169.424 148.259 169.65 148.396C170.044 148.516 170.463 148.53 170.864 148.436C171.265 148.341 171.634 148.142 171.933 147.859C175.16 145.549 177.578 142.282 178.843 138.52Z" fill="#FF725E"/>
<path d="M180.558 135.964L177.91 134.171L176.569 136.152L179.217 137.945L180.558 135.964Z" fill="#9A4A4D"/>
<path d="M170.103 145.857C170.078 145.352 170.166 144.847 170.359 144.38C170.749 143.222 171.349 142.146 172.129 141.206C172.908 140.279 173.77 139.425 174.705 138.654C175.069 138.306 175.48 138.011 175.926 137.775C176.023 137.885 174.229 139.326 172.446 141.438C171.693 142.349 171.076 143.365 170.615 144.453C170.273 145.32 170.164 145.869 170.103 145.857Z" fill="white"/>
<path d="M156.32 119.879C156.548 119.509 156.686 119.091 156.723 118.658C156.713 118.51 156.669 118.367 156.594 118.239C156.518 118.111 156.415 118.002 156.29 117.922C156.166 117.841 156.024 117.79 155.876 117.774C155.729 117.758 155.58 117.777 155.441 117.828C152.339 118.906 149.736 121.076 148.116 123.932C147.916 124.283 147.783 124.668 147.725 125.067C147.701 125.267 147.726 125.469 147.798 125.657C147.871 125.844 147.988 126.011 148.141 126.142C148.421 126.284 148.735 126.347 149.048 126.326C149.362 126.304 149.664 126.199 149.923 126.02C152.652 124.702 154.891 122.552 156.32 119.879Z" fill="#FFC85E"/>
<path d="M157.968 118.143L156.208 116.469L154.946 117.796L156.707 119.47L157.968 118.143Z" fill="#9A4A4D"/>
<path d="M148.824 124.31C148.838 123.92 148.956 123.54 149.166 123.211C149.602 122.384 150.19 121.647 150.9 121.038C151.602 120.432 152.363 119.896 153.17 119.439C153.484 119.218 153.836 119.057 154.208 118.963C154.281 119.073 152.755 119.952 151.156 121.319C150.222 122.183 149.434 123.193 148.824 124.31Z" fill="white"/>
<path d="M203.454 148.751C203.521 148.307 203.475 147.853 203.32 147.432C203.254 147.299 203.158 147.183 203.038 147.094C202.919 147.005 202.781 146.946 202.634 146.921C202.488 146.896 202.337 146.906 202.195 146.95C202.054 146.994 201.924 147.072 201.818 147.176C199.39 149.402 197.865 152.444 197.533 155.721C197.472 156.13 197.501 156.546 197.619 156.942C197.673 157.135 197.773 157.312 197.912 157.456C198.05 157.601 198.222 157.71 198.412 157.772C199.022 157.919 199.633 157.43 200.011 156.954C202.001 154.655 203.207 151.782 203.454 148.751Z" fill="#72C8D6"/>
<path d="M204.247 146.536L201.97 145.688L201.331 147.405L203.608 148.252L204.247 146.536Z" fill="#9A4A4D"/>
<path d="M198.302 155.77C198.161 155.405 198.119 155.009 198.18 154.622C198.254 153.688 198.507 152.776 198.925 151.937C199.329 151.105 199.816 150.315 200.377 149.58C200.805 149.019 201.098 148.702 201.147 148.726C201.195 148.75 200.207 150.215 199.267 152.095C198.742 153.258 198.416 154.5 198.302 155.77Z" fill="white"/>
<path d="M175.926 249.709C175.508 249.298 174.997 248.996 174.436 248.83C174.245 248.796 174.049 248.809 173.863 248.867C173.678 248.924 173.509 249.026 173.37 249.162C173.232 249.298 173.128 249.465 173.067 249.649C173.006 249.833 172.99 250.03 173.02 250.221C173.529 254.497 175.582 258.439 178.794 261.306C179.176 261.662 179.624 261.94 180.113 262.124C180.36 262.215 180.625 262.242 180.885 262.204C181.146 262.165 181.392 262.062 181.602 261.904C181.864 261.588 182.036 261.207 182.101 260.801C182.165 260.395 182.119 259.979 181.968 259.597C181.054 255.743 178.938 252.28 175.926 249.709Z" fill="#FF725E"/>
<path d="M174.198 247.135L171.549 248.905L172.878 250.895L175.527 249.125L174.198 247.135Z" fill="#9A4A4D"/>
<path d="M179.441 260.537C178.96 260.377 178.522 260.11 178.159 259.755C177.242 258.95 176.477 257.987 175.901 256.911C175.336 255.851 174.874 254.739 174.521 253.59C174.334 253.125 174.21 252.636 174.155 252.138C174.29 252.138 174.949 254.286 176.243 256.728C176.794 257.77 177.502 258.721 178.343 259.548C178.977 260.183 179.441 260.488 179.441 260.537Z" fill="white"/>
<path d="M133.504 323.261C133.85 322.611 134.03 321.885 134.029 321.149C133.998 320.908 133.912 320.678 133.777 320.477C133.641 320.276 133.461 320.109 133.25 319.991C133.038 319.872 132.802 319.804 132.56 319.794C132.318 319.783 132.077 319.829 131.856 319.928C126.893 322.045 122.874 325.899 120.551 330.768C120.25 331.357 120.071 332.001 120.026 332.661C120.003 332.988 120.063 333.316 120.199 333.615C120.336 333.913 120.545 334.173 120.808 334.37C121.281 334.573 121.801 334.646 122.312 334.579C122.824 334.513 123.307 334.31 123.713 333.991C128.031 331.541 131.459 327.784 133.504 323.261Z" fill="#FF725E"/>
<path d="M136.043 320.259L132.983 317.695L131.062 319.988L134.122 322.552L136.043 320.259Z" fill="#9A4A4D"/>
<path d="M121.699 331.268C121.753 330.641 121.932 330.031 122.224 329.474C122.877 328.108 123.765 326.868 124.848 325.811C125.926 324.758 127.099 323.806 128.352 322.967C128.851 322.588 129.386 322.261 129.951 321.99C129.515 322.446 129.032 322.855 128.511 323.211C127.326 324.071 126.192 325.001 125.117 325.994C124.069 327.042 123.177 328.234 122.468 329.535C121.943 330.597 121.76 331.293 121.699 331.268Z" fill="white"/>
<path d="M167.294 345.588C167.446 345.085 167.471 344.552 167.368 344.038C167.312 343.873 167.219 343.724 167.096 343.603C166.972 343.481 166.822 343.39 166.657 343.336C166.492 343.283 166.317 343.269 166.146 343.295C165.975 343.322 165.812 343.388 165.671 343.488C162.504 345.666 160.236 348.92 159.286 352.644C159.153 353.095 159.115 353.569 159.176 354.036C159.207 354.269 159.296 354.49 159.434 354.68C159.573 354.87 159.757 355.022 159.97 355.122C160.641 355.403 161.386 354.939 161.948 354.463C164.62 352.142 166.492 349.036 167.294 345.588Z" fill="#72C8D6"/>
<path d="M168.596 343.163L166.1 341.799L165.075 343.673L167.571 345.038L168.596 343.163Z" fill="#9A4A4D"/>
<path d="M160.153 352.852C160.083 352.403 160.112 351.945 160.238 351.509C160.494 350.45 160.936 349.446 161.545 348.542C162.161 347.668 162.856 346.85 163.62 346.101C164.206 345.527 164.584 345.198 164.633 345.234C164.682 345.271 163.266 346.76 161.874 348.787C161.277 349.655 160.816 350.611 160.507 351.619C160.263 352.339 160.214 352.852 160.153 352.852Z" fill="white"/>
<path d="M211.401 367.184C211.506 366.468 211.43 365.738 211.181 365.06C211.07 364.847 210.91 364.664 210.716 364.523C210.522 364.383 210.297 364.289 210.061 364.25C209.824 364.211 209.582 364.228 209.352 364.298C209.123 364.369 208.913 364.491 208.74 364.657C204.799 368.345 202.341 373.346 201.83 378.72C201.75 379.37 201.8 380.03 201.976 380.661C202.073 380.977 202.244 381.266 202.476 381.502C202.707 381.738 202.993 381.914 203.307 382.016C204.308 382.248 205.236 381.442 205.907 380.661C209.118 376.863 211.041 372.144 211.401 367.184Z" fill="#FF725E"/>
<path d="M212.689 363.539L208.937 362.179L207.917 364.99L211.67 366.351L212.689 363.539Z" fill="#9A4A4D"/>
<path d="M203.051 378.769C202.893 378.155 202.856 377.517 202.941 376.889C203.082 375.374 203.495 373.898 204.162 372.531C204.811 371.166 205.588 369.867 206.482 368.649C206.817 368.122 207.206 367.631 207.641 367.184C207.384 367.752 207.069 368.292 206.701 368.795C205.887 370.045 205.153 371.346 204.504 372.689C203.884 374.031 203.472 375.459 203.283 376.925C203.063 378.048 203.112 378.757 203.051 378.769Z" fill="white"/>
<path d="M260.598 377.426C260.512 376.927 260.311 376.455 260.012 376.046C259.89 375.922 259.74 375.829 259.575 375.774C259.41 375.718 259.235 375.702 259.062 375.727C258.89 375.752 258.726 375.817 258.584 375.917C258.441 376.017 258.324 376.149 258.242 376.303C256.343 379.671 255.74 383.617 256.545 387.399C256.634 387.865 256.812 388.308 257.07 388.706C257.206 388.903 257.388 389.065 257.601 389.175C257.814 389.286 258.051 389.343 258.291 389.341C259.036 389.341 259.512 388.535 259.78 387.851C261.151 384.551 261.437 380.9 260.598 377.426Z" fill="#FFC85E"/>
<path d="M260.726 374.589L257.872 374.469L257.781 376.615L260.635 376.736L260.726 374.589Z" fill="#9A4A4D"/>
<path d="M257.387 387.143C257.12 386.782 256.94 386.364 256.863 385.922C256.618 384.857 256.572 383.756 256.728 382.675C256.877 381.599 257.131 380.54 257.485 379.513C257.597 379.082 257.774 378.67 258.01 378.292C258.144 378.292 257.461 380.27 257.107 382.736C256.951 383.78 256.951 384.841 257.107 385.885C257.253 386.63 257.436 387.118 257.387 387.143Z" fill="white"/>
<path d="M304.034 525.919C312.69 525.919 319.708 518.901 319.708 510.244C319.708 501.587 312.69 494.569 304.034 494.569C295.377 494.569 288.359 501.587 288.359 510.244C288.359 518.901 295.377 525.919 304.034 525.919Z" fill="#FF725E"/>
<g opacity="0.4">
<path d="M304.034 525.92C312.69 525.92 319.708 518.902 319.708 510.245C319.708 501.588 312.69 494.57 304.034 494.57C295.377 494.57 288.359 501.588 288.359 510.245C288.359 518.902 295.377 525.92 304.034 525.92Z" fill="black"/>
</g>
<path d="M308.099 491.579H300.09V496.523H308.099V491.579Z" fill="#FF725E"/>
<path d="M291.996 518.021C291.322 517.295 290.81 516.433 290.495 515.494C289.586 513.268 289.254 510.85 289.53 508.462C289.831 506.08 290.72 503.81 292.118 501.858C292.644 501.015 293.349 500.299 294.181 499.758C294.255 499.831 293.449 500.612 292.497 502.114C291.247 504.052 290.45 506.247 290.165 508.535C289.909 510.829 290.164 513.151 290.91 515.335C291.496 517.02 292.082 517.972 291.996 518.021Z" fill="white"/>
<path d="M298.747 497.048C298.821 497.206 298.284 497.585 297.527 497.902C296.77 498.22 296.147 498.33 296.074 498.171C296.001 498.012 296.55 497.621 297.295 497.316C298.039 497.011 298.686 496.901 298.747 497.048Z" fill="white"/>
<g opacity="0.4">
<path d="M308.099 491.579H300.09V496.523H308.099V491.579Z" fill="black"/>
</g>
<path d="M287.177 524.273C295.756 520.225 299.43 509.989 295.382 501.41C291.334 492.831 281.097 489.158 272.518 493.206C263.939 497.254 260.266 507.49 264.314 516.069C268.362 524.648 278.598 528.321 287.177 524.273Z" fill="#FF725E"/>
<path d="M266.653 517.276C265.935 516.463 265.383 515.518 265.029 514.493C264.038 512.061 263.681 509.417 263.993 506.809C264.305 504.202 265.275 501.716 266.812 499.587C267.392 498.671 268.152 497.882 269.046 497.268C269.119 497.341 268.24 498.195 267.178 499.831C265.793 501.952 264.916 504.365 264.616 506.88C264.315 509.395 264.599 511.946 265.445 514.334C266.116 516.177 266.751 517.215 266.653 517.276Z" fill="white"/>
<path d="M274.051 494.302C274.124 494.46 273.526 494.863 272.721 495.205C271.915 495.547 271.207 495.693 271.134 495.535C271.06 495.376 271.658 494.961 272.464 494.619C273.27 494.277 273.978 494.143 274.051 494.302Z" fill="white"/>
<path d="M284.281 488.319H275.516V493.727H284.281V488.319Z" fill="#FF725E"/>
<path d="M254.092 534.514C263.578 534.514 271.268 526.824 271.268 517.337C271.268 507.851 263.578 500.161 254.092 500.161C244.606 500.161 236.916 507.851 236.916 517.337C236.916 526.824 244.606 534.514 254.092 534.514Z" fill="#B9E3EA"/>
<path d="M240.907 525.858C240.19 525.046 239.643 524.1 239.295 523.075C238.298 520.646 237.937 518.003 238.246 515.396C238.567 512.789 239.536 510.305 241.066 508.169C241.65 507.256 242.409 506.468 243.3 505.85C243.385 505.923 242.494 506.777 241.444 508.413C240.077 510.546 239.201 512.956 238.88 515.469C238.592 517.982 238.875 520.528 239.711 522.916C240.345 524.759 241.005 525.797 240.907 525.858Z" fill="white"/>
<path d="M248.305 502.883C248.379 503.042 247.78 503.457 246.975 503.799C246.169 504.141 245.461 504.287 245.4 504.116C245.339 503.945 245.925 503.555 246.731 503.213C247.536 502.871 248.244 502.725 248.305 502.883Z" fill="white"/>
<path d="M258.535 496.902H249.77V502.31H258.535V496.902Z" fill="#B9E3EA"/>
<path d="M323.785 506.79H225.855V561.456H323.785V506.79Z" fill="#455A64"/>
<path d="M323.785 506.79H284.281V561.456H323.785V506.79Z" fill="#263238"/>
<path d="M227.21 506.79L207.116 521.976H268.912L284.281 506.79H225.855" fill="#263238"/>
<path d="M286.051 506.79L304.033 521.268H342.744L323.785 506.79H286.051Z" fill="#455A64"/>
<path d="M102.778 490.258L21.3564 489.434L20.6429 559.917L102.064 560.742L102.778 490.258Z" fill="#FFC85E"/>
<path d="M68.7426 560.41L0.44043 559.959L1.16069 489.239L69.4629 489.923L68.7426 560.41Z" fill="#FFC85E"/>
<path d="M28.0907 489.508C28.2249 489.618 22.1699 497.321 14.5767 506.721C6.98351 516.121 0.696535 523.641 0.56225 523.543C0.427965 523.445 6.48299 515.73 14.0884 506.33C21.6938 496.93 27.9442 489.398 28.0907 489.508Z" fill="#FAFAFA"/>
<path d="M47.6233 489.764C47.7576 489.862 37.2834 503.889 24.2211 521.077C11.1589 538.266 0.403868 552.121 0.257376 552.012C0.110883 551.902 10.5973 537.887 23.6718 520.699C36.7462 503.51 47.428 489.642 47.6233 489.764Z" fill="#FAFAFA"/>
<path d="M67.6563 489.911C67.7906 490.008 55.9857 505.781 41.2876 525.118C26.5895 544.455 14.5527 560.056 14.4306 559.959C14.3085 559.861 26.1012 544.089 40.7993 524.739C55.4974 505.39 67.5098 489.801 67.6563 489.911Z" fill="#FAFAFA"/>
<path d="M87.0178 490.106C87.1521 490.204 75.5913 505.976 61.1862 525.264C46.7811 544.552 34.9885 560.166 34.8542 560.068C34.7199 559.971 46.2806 544.198 60.6857 524.898C75.0908 505.598 86.8713 489.996 87.0178 490.106Z" fill="#FAFAFA"/>
<path d="M102.253 497.052C102.387 497.162 91.7054 511.445 78.3868 528.963C65.0682 546.481 54.1667 560.618 53.9714 560.508C53.776 560.398 64.5188 546.115 77.8375 528.585C91.1561 511.054 102.119 496.967 102.253 497.052Z" fill="#FAFAFA"/>
<path d="M101.985 525.044C102.119 525.154 95.8198 533.235 87.9336 543.099C80.0474 552.963 73.5163 560.874 73.382 560.764C73.2477 560.654 79.5469 552.572 87.4453 542.709C95.3437 532.845 101.85 525.044 101.985 525.044Z" fill="#FAFAFA"/>
<g opacity="0.3">
<path d="M102.787 490.258L69.4614 489.921L68.7479 560.405L102.073 560.742L102.787 490.258Z" fill="black"/>
</g>
<path d="M33.42 489.556L28.0854 489.502L27.3719 559.986L32.7064 560.04L33.42 489.556Z" fill="#263238"/>
<path d="M87.0156 490.111L82.6943 490.067L81.9808 560.551L86.3021 560.595L87.0156 490.111Z" fill="#263238"/>
<path d="M102.436 524.084L0.812012 523.056L0.783219 525.9L102.407 526.929L102.436 524.084Z" fill="#263238"/>
<path d="M44.022 488.421C44.0989 488.276 44.1931 488.141 44.3028 488.018C44.5931 487.626 44.8621 487.219 45.1085 486.798C45.7922 485.76 46.5857 484.088 47.6966 481.915C48.3145 480.734 49.0773 479.635 49.9672 478.643C51.014 477.401 52.4441 476.542 54.0324 476.201C54.9283 476.054 55.8458 476.108 56.7181 476.36C57.6631 476.629 58.4919 477.204 59.0742 477.996C59.6619 478.866 59.9015 479.924 59.7456 480.962C59.5796 482.034 59.1379 483.043 58.4638 483.892C56.8945 485.547 54.9524 486.803 52.7994 487.555C50.6158 488.674 48.2445 489.382 45.8044 489.642C44.4851 489.706 43.1688 489.464 41.9589 488.934C40.7355 488.383 39.7244 487.449 39.0779 486.273C38.4726 485.011 38.1556 483.631 38.1501 482.232C38.1448 480.82 38.2673 479.41 38.5164 478.02C38.7173 476.59 39.0734 475.186 39.5784 473.833C40.0439 472.351 41.0568 471.103 42.4106 470.342C43.1459 469.997 43.9747 469.907 44.7667 470.085C45.5536 470.256 46.2819 470.631 46.8787 471.172C48.0445 472.293 48.7239 473.827 48.7709 475.444C48.827 477.047 48.567 478.645 48.0057 480.146C47.4443 481.648 46.5926 483.025 45.4992 484.197C44.4093 485.446 43.0607 486.442 41.5471 487.117C40.0334 487.791 38.391 488.128 36.734 488.104C35.0736 487.987 33.4631 487.486 32.0306 486.638C30.598 485.79 29.3829 484.62 28.4816 483.221C27.5622 481.878 26.9992 480.324 26.8458 478.704C26.6479 477.078 27.0423 475.436 27.9567 474.077C28.4386 473.379 29.1748 472.897 30.0076 472.734C30.4297 472.652 30.864 472.658 31.2839 472.75C31.7038 472.843 32.1004 473.02 32.4491 473.271C33.6538 474.229 34.5775 475.495 35.1226 476.934C35.6977 478.3 36.1393 479.719 36.441 481.17C36.789 482.619 36.7041 484.139 36.1969 485.54C35.9094 486.244 35.4722 486.878 34.9157 487.396C34.3593 487.915 33.6968 488.306 32.9741 488.543C31.6407 488.959 30.2336 489.084 28.8479 488.91C27.5247 488.773 26.2144 488.532 24.9292 488.189C23.7084 487.872 22.4876 487.554 21.2669 487.2C20.0741 486.856 18.9005 486.449 17.751 485.98C16.6265 485.538 15.5605 484.96 14.577 484.258C13.6139 483.576 12.8101 482.693 12.2209 481.67C11.9414 481.165 11.767 480.608 11.7082 480.033C11.6495 479.458 11.7076 478.877 11.8791 478.325C12.25 477.293 12.9773 476.427 13.93 475.884C14.8122 475.356 15.8196 475.073 16.8477 475.066C18.675 475.139 20.4496 475.699 21.9871 476.69C24.4898 478.203 26.6514 480.219 28.3351 482.61C29.403 484.113 30.2575 485.756 30.8743 487.493C31.0956 488.095 31.2751 488.711 31.4115 489.337C31.339 489.188 31.2817 489.033 31.2406 488.873C31.1429 488.568 30.9842 488.128 30.7645 487.542C30.0939 485.845 29.2076 484.24 28.1276 482.769C26.4428 480.43 24.2892 478.468 21.804 477.007C20.3018 476.047 18.5682 475.512 16.7866 475.457C15.8129 475.445 14.8579 475.725 14.0443 476.26C13.2308 476.795 12.5958 477.561 12.2209 478.46C12.0738 478.956 12.0283 479.476 12.087 479.99C12.1457 480.504 12.3076 481.001 12.5628 481.451C13.1079 482.419 13.8628 483.253 14.7723 483.892C16.7783 485.19 18.9851 486.147 21.3035 486.724C22.5243 487.066 23.745 487.371 24.9658 487.677C26.2265 488.013 27.5126 488.246 28.8112 488.372C30.1198 488.53 31.4469 488.41 32.7055 488.018C33.33 487.812 33.9024 487.473 34.383 487.024C34.8635 486.575 35.2409 486.027 35.4888 485.418C35.9503 484.12 36.0224 482.716 35.6964 481.377C35.4008 479.971 34.9673 478.597 34.4024 477.276C33.9195 475.923 33.075 474.728 31.9608 473.821C31.6808 473.612 31.3606 473.462 31.0203 473.383C30.68 473.303 30.3269 473.294 29.9832 473.357C29.6394 473.42 29.3123 473.554 29.0224 473.749C28.7325 473.944 28.4861 474.197 28.2985 474.492C27.4799 475.73 27.1293 477.219 27.3097 478.692C27.4519 480.214 27.9861 481.673 28.8601 482.928C29.7118 484.239 30.8566 485.333 32.204 486.126C33.5515 486.918 35.0647 487.386 36.6242 487.493C38.1846 487.517 39.7316 487.202 41.1584 486.569C42.5853 485.937 43.858 485.003 44.8888 483.831C46.9861 481.586 48.1058 478.6 48.0018 475.53C48.0059 474.805 47.8668 474.087 47.5923 473.417C47.3179 472.747 46.9135 472.137 46.4025 471.623C45.9076 471.14 45.2815 470.813 44.6021 470.683C43.9228 470.553 43.2201 470.625 42.5815 470.891C41.3699 471.582 40.4665 472.708 40.0545 474.041C39.5647 475.359 39.2169 476.726 39.0169 478.118C38.553 480.84 38.321 483.697 39.493 486.016C40.0791 487.138 41.0188 488.035 42.1665 488.568C43.2971 489.072 44.5312 489.303 45.7678 489.239C48.1538 488.992 50.4724 488.301 52.6041 487.2C54.6901 486.496 56.5776 485.303 58.1097 483.721C58.7734 483.008 59.1926 482.101 59.3068 481.133C59.4209 480.165 59.224 479.186 58.7446 478.338C58.1958 477.661 57.4722 477.147 56.6523 476.853C55.8324 476.558 54.9475 476.493 54.0934 476.665C52.5753 476.967 51.2009 477.766 50.1869 478.936C49.3008 479.907 48.5344 480.981 47.9041 482.134C46.7688 484.222 45.9387 485.882 45.2184 486.92C44.8725 487.46 44.4716 487.963 44.022 488.421Z" fill="#263238"/>
<path d="M167.252 515.362L116.175 515.442L116.244 559.244L167.321 559.163L167.252 515.362Z" fill="#72C8D6"/>
<path d="M146.353 515.396L103.503 515.463L103.572 559.264L146.421 559.197L146.353 515.396Z" fill="#72C8D6"/>
<path d="M120.433 515.379C120.567 515.477 116.868 520.347 112.168 526.244C107.468 532.14 103.549 536.828 103.415 536.718C103.281 536.608 106.98 531.749 111.68 525.853C116.38 519.957 120.298 515.269 120.433 515.379Z" fill="#FAFAFA"/>
<path d="M132.653 515.391C132.799 515.488 126.366 524.315 118.309 535.082C110.251 545.849 103.586 554.529 103.452 554.419C103.317 554.309 109.739 545.495 117.808 534.715C125.877 523.936 132.518 515.281 132.653 515.391Z" fill="#FAFAFA"/>
<path d="M145.251 515.33C145.397 515.44 138.146 525.352 129.075 537.475C120.005 549.597 112.534 559.351 112.449 559.253C112.363 559.156 119.541 549.243 128.624 537.108C137.706 524.974 145.116 515.232 145.251 515.33Z" fill="#FAFAFA"/>
<path d="M157.398 515.317C157.544 515.415 150.451 525.315 141.528 537.425C132.604 549.536 125.328 559.277 125.181 559.167C125.035 559.058 132.14 549.169 141.051 537.059C149.963 524.949 157.263 515.207 157.398 515.317Z" fill="#FAFAFA"/>
<path d="M167.054 536.949C167.188 537.047 163.391 542.15 158.508 548.339C153.625 554.528 149.56 559.46 149.426 559.326C149.292 559.192 153.088 554.113 157.971 547.924C162.854 541.734 166.919 536.839 167.054 536.949Z" fill="#FAFAFA"/>
<path d="M167.017 519.516C167.152 519.626 160.596 528.611 152.368 539.598C144.14 550.585 137.377 559.411 137.23 559.301C137.084 559.192 143.639 550.219 151.88 539.232C160.12 528.245 166.871 519.419 167.017 519.516Z" fill="#FAFAFA"/>
<g opacity="0.3">
<path d="M167.252 515.364L146.352 515.396L146.421 559.198L167.32 559.165L167.252 515.364Z" fill="black"/>
</g>
<path d="M123.743 515.42L120.398 515.425L120.467 559.226L123.812 559.221L123.743 515.42Z" fill="#263238"/>
<path d="M157.457 515.245L154.747 515.25L154.824 559.051L157.534 559.047L157.457 515.245Z" fill="#263238"/>
<path d="M167.285 536.373L103.536 536.473L103.539 538.243L167.288 538.143L167.285 536.373Z" fill="#263238"/>
<path d="M132.689 515.781C132.621 515.572 132.58 515.354 132.567 515.134C132.487 514.507 132.454 513.874 132.47 513.242C132.517 510.89 133.079 508.577 134.118 506.467C134.481 505.77 134.889 505.097 135.338 504.452C135.784 503.688 136.403 503.04 137.145 502.56C137.388 502.443 137.659 502.394 137.929 502.42C138.198 502.446 138.454 502.545 138.671 502.707C139.06 503.059 139.307 503.541 139.367 504.062C139.452 505.046 139.344 506.037 139.049 506.979C138.514 508.989 137.557 510.862 136.242 512.473C135.549 513.328 134.758 514.098 133.886 514.768C133.644 514.983 133.358 515.143 133.048 515.236C132.738 515.329 132.411 515.352 132.091 515.305C131.512 515.127 130.981 514.818 130.541 514.402L125.401 510.239C123.79 508.908 122.056 507.541 121.373 505.551C121.199 505.058 121.132 504.534 121.177 504.013C121.193 503.74 121.27 503.474 121.403 503.235C121.536 502.996 121.722 502.79 121.947 502.633C122.173 502.495 122.425 502.404 122.687 502.367C122.949 502.329 123.217 502.345 123.472 502.414C123.931 502.53 124.368 502.72 124.766 502.975C126.102 503.917 127.302 505.038 128.331 506.308C129.811 508.115 130.933 510.186 131.639 512.412C131.829 513.016 131.98 513.632 132.091 514.255C132.132 514.473 132.157 514.693 132.164 514.914C132.164 514.914 131.957 514.023 131.42 512.473C130.633 510.306 129.472 508.293 127.989 506.528C126.971 505.315 125.792 504.248 124.486 503.354C124.178 503.102 123.808 502.938 123.414 502.88C123.021 502.822 122.619 502.872 122.252 503.024C121.962 503.32 121.773 503.701 121.714 504.112C121.655 504.522 121.728 504.941 121.922 505.307C122.52 507.065 124.168 508.395 125.792 509.714L130.883 513.901C131.256 514.253 131.702 514.52 132.189 514.682C132.42 514.714 132.655 514.693 132.877 514.621C133.099 514.55 133.302 514.429 133.471 514.267C134.305 513.628 135.063 512.895 135.729 512.082C137.005 510.545 137.934 508.75 138.451 506.821C138.738 505.956 138.855 505.044 138.793 504.135C138.75 503.748 138.578 503.387 138.305 503.11C138.168 503.003 138.002 502.938 137.829 502.923C137.656 502.908 137.482 502.943 137.328 503.024C136.661 503.449 136.105 504.027 135.705 504.709C135.247 505.323 134.839 505.972 134.484 506.65C133.431 508.694 132.815 510.935 132.677 513.23C132.616 514.878 132.75 515.781 132.689 515.781Z" fill="#263238"/>
</svg>
