<svg width="201" height="203" viewBox="0 0 201 203" fill="none" xmlns="http://www.w3.org/2000/svg">
<path d="M200.995 115.614C200.995 115.914 200.995 116.239 200.951 116.507C200.908 116.776 200.92 117.051 200.889 117.319C200.892 117.371 200.892 117.423 200.889 117.475C200.889 117.706 200.839 117.937 200.801 118.162C200.764 118.387 200.708 118.787 200.645 119.062C200.583 119.336 200.539 119.599 200.477 119.861C200.414 120.123 200.352 120.373 200.283 120.617C200.287 120.631 200.287 120.646 200.283 120.66C200.214 120.916 200.133 121.166 200.058 121.41C199.983 121.653 199.896 121.884 199.815 122.115C199.456 123.083 199.022 124.021 198.516 124.919C198.416 125.101 198.303 125.288 198.197 125.469C197.866 125.994 197.523 126.499 197.161 126.98C197.079 127.105 196.986 127.211 196.905 127.33C196.189 128.239 195.4 129.087 194.544 129.866L194.107 130.253C193.591 130.699 193.051 131.116 192.489 131.502L192.052 131.808C191.671 132.064 191.284 132.295 190.903 132.514C190.734 132.613 190.553 132.713 190.378 132.801C190.022 132.994 189.673 133.169 189.323 133.319L188.911 133.507L188.805 133.55C186.013 129.26 180.224 129.029 181.073 132.926C181.517 134.962 184.926 135.168 188.805 133.55L188.967 133.819C189.026 133.907 189.08 133.999 189.129 134.094C189.229 134.281 189.329 134.468 189.417 134.674C189.467 134.766 189.509 134.862 189.542 134.962C189.74 135.451 189.897 135.957 190.01 136.473C190.051 136.629 190.082 136.788 190.104 136.948C190.104 136.948 190.104 136.991 190.104 137.01C190.141 137.252 190.172 137.508 190.197 137.778C190.197 137.828 190.197 137.884 190.197 137.934C190.197 138.109 190.197 138.278 190.197 138.453C190.197 138.628 190.197 138.802 190.197 138.984C190.147 141.201 189.46 143.811 187.843 146.846C179.518 162.415 162.531 165.706 162.531 165.706C162.531 165.706 189.61 105.616 126.934 49.0599C126.934 49.0599 161.245 44.1637 175.334 63.8483C180.33 70.7929 181.947 77.3253 181.823 82.7274C181.823 82.9959 181.823 83.2582 181.785 83.5268C181.748 83.7953 181.785 84.0888 181.723 84.3573C181.66 84.6259 181.673 84.8382 181.648 85.0755C181.623 85.3129 181.585 85.5689 181.542 85.8187C181.498 86.0685 181.467 86.3058 181.417 86.5494C181.285 87.2465 181.119 87.9364 180.917 88.6165C180.855 88.8351 180.792 89.0537 180.723 89.241C180.58 89.6657 180.43 90.0716 180.274 90.4901C180.061 90.9959 179.849 91.4768 179.649 91.9264H179.281H178.906C178.706 91.9264 178.513 91.9264 178.313 91.9702C177.829 92.0072 177.347 92.0719 176.87 92.1638L176.533 92.2262L176.133 92.3199C175.94 92.3699 175.759 92.4136 175.59 92.4698C175.213 92.5838 174.844 92.7215 174.485 92.882L174.241 93.0006C173.749 93.2358 173.308 93.5646 172.942 93.9686C172.899 94.018 172.859 94.0701 172.823 94.1247C172.705 94.2844 172.612 94.4613 172.549 94.6493C172.531 94.6984 172.516 94.7485 172.505 94.7992C172.452 95.0515 172.453 95.3121 172.508 95.5639C172.563 95.8158 172.67 96.0532 172.823 96.2606C172.967 96.4949 173.168 96.6888 173.407 96.8243C173.646 96.9597 173.916 97.0322 174.191 97.035H174.491L174.778 96.985C174.856 96.9671 174.934 96.9442 175.009 96.9163C175.108 96.8877 175.204 96.85 175.296 96.8039C175.398 96.7672 175.497 96.7213 175.59 96.6665C175.696 96.6153 175.798 96.5569 175.896 96.4916C176.546 96.0719 177.132 95.5585 177.632 94.9678C177.718 94.8827 177.799 94.7931 177.876 94.6993L178.032 94.4682C178.269 94.1685 178.494 93.8437 178.725 93.5002C178.956 93.1567 179.068 92.9631 179.225 92.6759C179.325 92.512 179.416 92.3432 179.499 92.17C179.547 92.0964 179.589 92.0192 179.624 91.9389C182.833 91.9026 186.004 92.6213 188.884 94.0371C191.763 95.4528 194.269 97.5259 196.199 100.089C196.599 100.626 196.979 101.194 197.342 101.788C198.943 104.498 200.037 107.478 200.57 110.581C200.887 112.239 201.029 113.926 200.995 115.614Z" fill="#E08906"/>
<path opacity="0.1" d="M200.995 115.614C200.995 115.914 200.995 116.239 200.951 116.507C200.908 116.776 200.92 117.051 200.889 117.319C200.892 117.371 200.892 117.423 200.889 117.475C200.889 117.706 200.839 117.937 200.801 118.162C200.764 118.387 200.708 118.787 200.645 119.062C200.583 119.336 200.539 119.599 200.477 119.861C200.414 120.123 200.352 120.373 200.283 120.617C200.287 120.631 200.287 120.646 200.283 120.66C200.214 120.916 200.133 121.166 200.058 121.41C199.983 121.653 199.896 121.884 199.815 122.115C199.456 123.083 199.022 124.021 198.516 124.919C198.416 125.101 198.303 125.288 198.197 125.469C197.866 125.994 197.523 126.499 197.161 126.98C197.079 127.105 196.986 127.211 196.905 127.33C196.189 128.239 195.4 129.087 194.544 129.866L194.107 130.253C193.591 130.699 193.051 131.116 192.489 131.502L192.052 131.808C191.671 132.064 191.284 132.295 190.903 132.514C190.734 132.613 190.553 132.713 190.378 132.801C190.022 132.994 189.673 133.169 189.323 133.319L188.911 133.507L188.805 133.55C186.013 129.26 180.224 129.029 181.073 132.926C181.517 134.962 184.926 135.168 188.805 133.55L188.967 133.819C189.026 133.907 189.08 133.999 189.129 134.094C189.229 134.281 189.329 134.468 189.417 134.674C189.467 134.766 189.509 134.862 189.542 134.962C189.74 135.451 189.897 135.957 190.01 136.473C190.051 136.629 190.082 136.788 190.104 136.948C190.104 136.948 190.104 136.991 190.104 137.01C190.141 137.252 190.172 137.508 190.197 137.778C190.197 137.828 190.197 137.884 190.197 137.934C190.197 138.109 190.197 138.278 190.197 138.453C190.197 138.628 190.197 138.802 190.197 138.984C190.147 141.201 189.46 143.811 187.843 146.846C179.518 162.415 162.531 165.706 162.531 165.706C162.531 165.706 189.61 105.616 126.934 49.0599C126.934 49.0599 161.245 44.1637 175.334 63.8483C180.33 70.7929 181.947 77.3253 181.823 82.7274C181.823 82.9959 181.823 83.2582 181.785 83.5268C181.748 83.7953 181.785 84.0888 181.723 84.3573C181.66 84.6259 181.673 84.8382 181.648 85.0755C181.623 85.3129 181.585 85.5689 181.542 85.8187C181.498 86.0685 181.467 86.3058 181.417 86.5494C181.285 87.2465 181.119 87.9364 180.917 88.6165C180.855 88.8351 180.792 89.0537 180.723 89.241C180.58 89.6657 180.43 90.0716 180.274 90.4901C180.061 90.9959 179.849 91.4768 179.649 91.9264H179.281H178.906C178.706 91.9264 178.513 91.9264 178.313 91.9702C177.829 92.0072 177.347 92.0719 176.87 92.1638L176.533 92.2262L176.133 92.3199C175.94 92.3699 175.759 92.4136 175.59 92.4698C175.213 92.5838 174.844 92.7215 174.485 92.882L174.241 93.0006C173.749 93.2358 173.308 93.5646 172.942 93.9686C172.899 94.018 172.859 94.0701 172.823 94.1247C172.705 94.2844 172.612 94.4613 172.549 94.6493C172.531 94.6984 172.516 94.7485 172.505 94.7992C172.452 95.0515 172.453 95.3121 172.508 95.5639C172.563 95.8158 172.67 96.0532 172.823 96.2606C172.967 96.4949 173.168 96.6888 173.407 96.8243C173.646 96.9597 173.916 97.0322 174.191 97.035H174.491L174.778 96.985C174.856 96.9671 174.934 96.9442 175.009 96.9163C175.108 96.8877 175.204 96.85 175.296 96.8039C175.398 96.7672 175.497 96.7213 175.59 96.6665C175.696 96.6153 175.798 96.5569 175.896 96.4916C176.546 96.0719 177.132 95.5585 177.632 94.9678C177.718 94.8827 177.799 94.7931 177.876 94.6993L178.032 94.4682C178.269 94.1685 178.494 93.8437 178.725 93.5002C178.956 93.1567 179.068 92.9631 179.225 92.6759C179.325 92.512 179.416 92.3432 179.499 92.17C179.547 92.0964 179.589 92.0192 179.624 91.9389C182.833 91.9026 186.004 92.6213 188.884 94.0371C191.763 95.4528 194.269 97.5259 196.199 100.089C196.599 100.626 196.979 101.194 197.342 101.788C198.943 104.498 200.037 107.478 200.57 110.581C200.887 112.239 201.029 113.926 200.995 115.614Z" fill="black"/>
<path d="M113.882 116.228C83.9052 125.489 69.1542 141.027 74.3814 158.376C79.6085 175.725 110.709 184.762 110.984 185.854C111.259 186.947 108.367 193.767 108.086 194.061C107.805 194.354 104.339 196.852 103.765 197.533C103.19 198.214 102.147 201.424 102.578 201.855C103.009 202.285 120.346 201.855 124.436 201.855C127.209 201.855 138.444 184.712 137.401 182.201C136.614 180.328 134.422 178.229 134.422 178.229C134.422 178.229 146.912 171.516 154.35 164.022C160.639 157.676 143.365 107.103 113.882 116.228Z" fill="#E08906"/>
<path opacity="0.1" d="M113.882 116.228C83.9052 125.489 69.1542 141.027 74.3814 158.376C79.6085 175.725 110.709 184.762 110.984 185.854C111.259 186.947 108.367 193.767 108.086 194.061C107.805 194.354 104.339 196.852 103.765 197.533C103.19 198.214 102.147 201.424 102.578 201.855C103.009 202.285 120.346 201.855 124.436 201.855C127.209 201.855 138.444 184.712 137.401 182.201C136.614 180.328 134.422 178.229 134.422 178.229C134.422 178.229 146.912 171.516 154.35 164.022C160.639 157.676 143.365 107.103 113.882 116.228Z" fill="black"/>
<path d="M129.07 173.283C129.95 173.634 130.734 174.188 131.36 174.898C131.986 175.609 132.436 176.457 132.673 177.374C131.481 175.95 130.294 174.701 129.07 173.283Z" fill="#263238"/>
<path d="M137.401 182.2C134.335 178.865 130.794 176.374 126.947 173.944C131.368 174.619 135.846 177.96 137.401 182.2Z" fill="#263238"/>
<path d="M112.645 195.902C110.666 197.151 108.517 199.649 109.342 202.147C109.479 199.649 111.271 197.863 112.645 195.902Z" fill="#263238"/>
<path d="M108.748 195.673C106.769 196.922 104.62 199.42 105.445 201.918C105.576 199.42 107.368 197.634 108.748 195.673Z" fill="#263238"/>
<path d="M29.3227 127.568C28.5296 131.465 34.7935 159.899 40.5078 172.976C44.1112 181.207 46.4281 187.765 46.1284 188.252C45.3977 189.501 37.2978 196.639 36.411 197.551C35.8739 198.113 34.5374 201.722 35.6803 201.722C36.8231 201.722 67.0308 201.841 69.329 201.841C71.6272 201.841 72.87 155.534 73.4945 146.884C74.119 138.234 34.3376 103.018 29.3227 127.568Z" fill="#E08906"/>
<path opacity="0.1" d="M29.3227 127.568C28.5296 131.465 34.7935 159.899 40.5078 172.976C44.1112 181.207 46.4281 187.765 46.1284 188.252C45.3977 189.501 37.2978 196.639 36.411 197.551C35.8739 198.113 34.5374 201.722 35.6803 201.722C36.8231 201.722 67.0308 201.841 69.329 201.841C71.6272 201.841 72.87 155.534 73.4945 146.884C74.119 138.234 34.3376 103.018 29.3227 127.568Z" fill="black"/>
<path d="M46.297 195.902C44.3235 197.151 42.1752 199.649 42.9933 202.147C43.1307 199.649 44.923 197.863 46.297 195.902Z" fill="#263238"/>
<path d="M42.4001 195.673C40.4203 196.922 38.272 199.42 39.0964 201.918C39.2338 199.42 41.0261 197.634 42.4001 195.673Z" fill="#263238"/>
<path d="M72.2893 173.008C72.1207 163.897 72.4392 154.766 72.9138 145.673C72.9209 145.233 72.8832 144.794 72.8014 144.362C71.721 138.741 70.1597 133.183 68.9357 127.581C70.2534 131.191 71.4712 134.838 72.5329 138.535C73.1574 140.864 74.0192 143.269 74.1191 145.711C73.7694 154.816 73.276 163.946 72.3018 173.008H72.2893Z" fill="#263238"/>
<path d="M71.6148 129.392C72.2893 131.891 72.2893 134.524 71.6148 137.023C71.4306 134.483 71.4306 131.932 71.6148 129.392Z" fill="#263238"/>
<path d="M165.279 164.021C158.797 171.746 106.125 183.456 88.9888 177.598C71.8522 171.74 37.9911 148.964 30.9091 134.55C27.7865 128.255 29.3728 117.239 31.9895 106.235C31.3337 107.095 30.5118 107.815 29.5726 108.352C31.4462 105.929 32.2643 102.107 32.3142 101.882C31.2401 103.131 28.0676 104.486 27.8989 104.561C28.0176 104.392 29.9848 101.713 31.7085 98.9403C33.4321 96.1675 36.461 89.1605 37.3853 86.0192C37.3853 85.963 37.4228 85.9005 37.4353 85.8506C37.4371 85.8173 37.4371 85.7839 37.4353 85.7506C38.9466 80.0988 39.9333 75.6897 39.4399 73.7163C39.4399 73.7163 18.0691 70.881 7.75839 54.9809C-2.55232 39.0808 2.9434 18.2782 4.89188 15.6178C6.84036 12.9574 32.6265 18.8216 34.0192 17.9847C35.4118 17.1479 45.4478 0.435894 52.9731 0.0112253C60.4985 -0.413444 90.3128 11.3024 94.191 19.6584C98.0692 28.0144 98.6188 73.5039 98.6188 73.5039C101.117 77.6944 116.898 90.9466 126.922 96.9357C133.092 100.62 155.106 111.125 161.195 119.868C171.693 134.9 171.787 156.296 165.279 164.021Z" fill="#E08906"/>
<path d="M34.3501 127.568C33.557 131.465 42.5999 159.899 48.3142 172.976C51.9177 181.207 54.8279 187.765 54.5594 188.252C53.8287 189.501 45.7288 196.639 44.842 197.551C44.3049 198.113 42.9684 201.722 44.1113 201.722C45.2541 201.722 75.4618 201.841 77.76 201.841C80.0583 201.841 81.301 155.534 81.9255 146.884C82.5501 138.234 39.39 103.018 34.3501 127.568Z" fill="#E08906"/>
<path d="M54.6967 195.902C52.7232 197.151 50.5749 199.649 51.393 202.147C51.5304 199.649 53.3227 197.863 54.6967 195.902Z" fill="#263238"/>
<path d="M50.7997 195.673C48.82 196.922 46.6717 199.42 47.496 201.918C47.6334 199.42 49.4258 197.634 50.7997 195.673Z" fill="#263238"/>
<path d="M80.689 173.008C80.5204 163.897 80.8389 154.766 81.3135 145.673C81.3238 145.233 81.2861 144.794 81.2011 144.362C80.1207 138.741 78.5594 133.183 77.3354 127.581C78.6531 131.191 79.8709 134.838 80.9326 138.535C81.5571 140.864 82.4189 143.269 82.5188 145.711C82.1691 154.816 81.6758 163.946 80.7015 173.008H80.689Z" fill="#263238"/>
<path d="M80.0145 129.392C80.6889 131.891 80.6889 134.524 80.0145 137.023C79.8302 134.483 79.8302 131.932 80.0145 129.392Z" fill="#263238"/>
<path d="M38.372 145.154C36.5144 140.651 35.0069 136.012 33.863 131.277C33.2385 127.53 33.5507 123.658 33.8255 119.861C34.45 123.565 34.4125 127.355 35.0745 131.015C36.2549 135.705 37.6163 140.383 38.3907 145.154H38.372Z" fill="#263238"/>
<path d="M32.2892 122.091C33.0262 124.308 33.3634 126.462 34.1628 128.686C32.6202 126.918 32.1831 124.37 32.2892 122.091Z" fill="#263238"/>
<path d="M124.811 116.228C94.8341 125.489 80.0831 141.027 85.3103 158.376C90.5375 175.725 121.632 184.762 121.913 185.854C122.194 186.947 119.29 193.717 119.028 194.036C118.765 194.354 115.281 196.827 114.706 197.508C114.132 198.189 113.095 201.399 113.526 201.83C113.957 202.26 131.293 201.83 135.384 201.83C138.157 201.83 149.392 184.687 148.342 182.176C147.562 180.303 145.363 178.204 145.363 178.204C145.363 178.204 157.854 171.491 165.298 163.997C171.568 157.676 154.3 107.103 124.811 116.228Z" fill="#E08906"/>
<path d="M121.913 185.878C109.466 181.556 95.4337 175.342 87.2088 164.613C85.4514 162.244 84.2613 159.503 83.7303 156.601L83.5055 154.871L83.3931 153.128C83.112 132.52 105.476 122.434 121.926 116.22C105.894 123.302 82.9247 133.981 84.717 154.758C85.6288 169.815 109.498 180.926 121.926 185.878H121.913Z" fill="#263238"/>
<path d="M111.003 120.985C112.269 119.079 114.076 117.595 116.193 116.726C114.584 118.287 112.848 119.712 111.003 120.985Z" fill="#263238"/>
<path d="M139.999 173.283C140.878 173.635 141.662 174.189 142.288 174.899C142.914 175.61 143.364 176.457 143.602 177.374C142.41 175.95 141.223 174.701 139.999 173.283Z" fill="#263238"/>
<path d="M148.324 182.2C145.257 178.865 141.716 176.374 137.876 173.944C142.297 174.619 146.775 177.96 148.324 182.2Z" fill="#263238"/>
<path d="M123.574 195.902C121.595 197.151 119.446 199.649 120.271 202.147C120.408 199.649 122.2 197.863 123.574 195.902Z" fill="#263238"/>
<path d="M119.671 195.673C117.698 196.922 115.549 199.42 116.367 201.918C116.505 199.42 118.297 197.634 119.671 195.673Z" fill="#263238"/>
<path opacity="0.1" d="M148.68 131.87C142.859 137.872 146.538 155.114 154.044 154.59C160.189 154.159 163.893 147.37 164.661 142.818C165.429 138.265 163.918 132.051 159.484 130.121C155.693 128.485 150.784 129.672 148.68 131.87Z" fill="black"/>
<path opacity="0.1" d="M150.628 118.232C148.805 119.6 150.072 123.784 152.314 124.565C154.556 125.345 156.904 122.66 156.517 120.899C156.13 119.138 152.277 116.996 150.628 118.232Z" fill="black"/>
<path opacity="0.1" d="M141.467 126.569C138.594 127.862 136.377 135.019 137.888 137.305C139.399 139.59 143.858 136.468 144.933 133.557C146.007 130.647 144.065 125.401 141.467 126.569Z" fill="black"/>
<path d="M77.9536 7.92285C77.9536 7.92285 63.1401 53.5123 72.333 64.129C81.5258 74.7457 100.755 68.1696 105.632 59.8074C110.509 51.4452 102.047 22.3366 94.9403 14.7987C89.1386 8.63479 77.9536 7.92285 77.9536 7.92285Z" fill="#E08906"/>
<path opacity="0.4" d="M77.9536 7.92285C77.9536 7.92285 63.1401 53.5123 72.333 64.129C81.5258 74.7457 100.755 68.1696 105.632 59.8074C110.509 51.4452 102.047 22.3366 94.9403 14.7987C89.1386 8.63479 77.9536 7.92285 77.9536 7.92285Z" fill="black"/>
<path d="M0.207963 13.9998C-0.8662 15.6111 2.41249 24.1232 5.64123 25.3722C8.86996 26.6212 16.7825 18.7399 16.5765 16.0482C16.3704 13.3566 1.58189 11.9452 0.207963 13.9998Z" fill="#263238"/>
<path d="M5.66626 19.6777C6.59054 24.6176 7.92075 40.4365 13.3041 40.6551C17.9941 40.6926 22.5344 36.0899 26.1066 32.5802C22.7529 36.652 18.1378 41.6231 13.0543 41.6481C6.64675 41.3109 5.92856 25.3733 5.66626 19.6777Z" fill="#263238"/>
<path d="M4.07991 32.3553C4.63573 33.954 5.02917 36.0212 5.99717 37.3076C5.87851 37.2577 5.79108 37.3639 5.80981 37.3076C6.37188 32.3615 5.52878 27.3154 5.80981 22.3193C6.48636 25.8067 6.85624 29.3467 6.9152 32.8986C6.86524 34.5098 7.07133 36.1773 6.42184 37.7136C4.82933 39.4185 4.1611 33.2483 4.05493 32.3553H4.07991Z" fill="#263238"/>
<path opacity="0.1" d="M45.4477 15.0178C54.4157 9.90306 62.8466 14.2185 67.4306 22.2622C71.1464 28.7759 69.6101 38.4558 61.0043 43.3645C52.3985 48.2731 42.6187 43.4894 39.1464 37.3754C35.6741 31.2614 35.7053 20.5697 45.4477 15.0178Z" fill="black"/>
<path d="M45.1541 17.0794C50.5 16.1989 53.8973 19.8648 54.6592 24.661C54.8155 25.7295 54.7571 26.8185 54.4874 27.8641C54.2176 28.9098 53.742 29.8911 53.0883 30.7507C52.4346 31.6102 51.6161 32.3307 50.6805 32.87C49.7449 33.4093 48.7111 33.7565 47.6397 33.8913C42.5062 34.7344 38.5593 30.5939 37.9598 26.9467C37.7734 25.8252 37.8124 24.6777 38.0745 23.5714C38.3367 22.4651 38.8167 21.4222 39.4865 20.5035C40.1563 19.5848 41.0025 18.8088 41.9756 18.2209C42.9488 17.633 44.0293 17.245 45.1541 17.0794Z" fill="#263238"/>
<path d="M44.8044 18.1729C49.8005 17.3423 52.998 20.7896 53.735 25.2986C53.8781 26.3014 53.8205 27.3226 53.5655 28.303C53.3105 29.2833 52.8632 30.2032 52.2495 31.0092C51.6359 31.8151 50.8682 32.4911 49.9911 32.9978C49.1139 33.5044 48.1449 33.8317 47.1401 33.9606C42.3126 34.7537 38.6093 30.838 38.0472 27.4344C37.8715 26.3813 37.9077 25.3037 38.1537 24.2648C38.3997 23.2258 38.8506 22.2464 39.4799 21.3839C40.1092 20.5214 40.9042 19.7931 41.8185 19.2418C42.7328 18.6904 43.7479 18.327 44.8044 18.1729Z" fill="white"/>
<path d="M43.4555 18.5662C47.5586 17.8918 50.144 20.7021 50.7498 24.3805C50.8666 25.1993 50.8196 26.0332 50.6115 26.8337C50.4034 27.6343 50.0383 28.3855 49.5375 29.0438C49.0366 29.7021 48.41 30.2543 47.694 30.6684C46.978 31.0826 46.1869 31.3503 45.3665 31.4562C41.4258 32.0807 38.3969 28.9581 37.9411 26.1291C37.7982 25.2694 37.828 24.3899 38.029 23.542C38.2299 22.694 38.5978 21.8946 39.1112 21.1905C39.6246 20.4863 40.2733 19.8916 41.0192 19.441C41.7651 18.9904 42.5933 18.693 43.4555 18.5662Z" fill="#263238"/>
<path d="M39.4524 73.7219C51.9926 76.5135 80.1644 75.1271 98.5438 68.2949C98.5438 68.2949 99.5431 71.6611 99.6992 72.2856C99.8553 72.9101 100.068 74.5588 100.068 74.5588C90.4398 80.5123 79.4298 83.8609 68.1175 84.2762C49.6195 84.8008 37.8911 82.1654 37.8911 82.1654C37.9656 80.4472 38.1576 78.7363 38.4657 77.0444C38.8029 75.7891 39.4524 73.7219 39.4524 73.7219Z" fill="#3B4A52"/>
</svg>
