<svg width="299" height="265" viewBox="0 0 299 265" fill="none" xmlns="http://www.w3.org/2000/svg">
<path d="M198.853 154.213C198.853 154.213 188.236 204.678 186.552 210.272C184.868 215.866 183.545 233.234 186.552 236.873C189.56 240.513 202.402 253.415 202.402 253.415H183.755C183.755 253.415 186.221 245.024 179.53 240.543C172.838 236.061 175.019 230.452 175.635 225.415C176.252 220.377 176.748 184.257 176.748 184.257L179.53 154.183L198.853 154.213Z" fill="#8A8A8A"/>
<g opacity="0.3">
<path d="M198.853 154.213C198.853 154.213 188.236 204.678 186.552 210.272C184.868 215.866 183.545 233.234 186.552 236.873C189.56 240.513 202.402 253.415 202.402 253.415H183.755C183.755 253.415 186.221 245.024 179.53 240.543C172.838 236.061 175.019 230.452 175.635 225.415C176.252 220.377 176.748 184.257 176.748 184.257L179.53 154.183L198.853 154.213Z" fill="black"/>
</g>
<path d="M8.99072 241.913C8.99072 241.913 3.44191 196.349 5.35166 189.883C7.26142 183.417 8.55464 186.635 14.3741 175.192C20.1936 163.748 22.6297 158.049 22.374 150.365C22.1184 142.681 22.374 136.756 22.374 136.756L40.9453 154.891L17.0057 205.342C17.0057 205.342 17.6222 236.243 18.7049 237.747C19.7876 239.251 36.5393 253.521 36.5393 253.521H13.9831L13.5471 245.101L8.99072 241.913Z" fill="#8A8A8A"/>
<g opacity="0.3">
<path d="M8.99072 241.913C8.99072 241.913 3.44191 196.349 5.35166 189.883C7.26142 183.417 8.55464 186.635 14.3741 175.192C20.1936 163.748 22.6297 158.049 22.374 150.365C22.1184 142.681 22.374 136.756 22.374 136.756L40.9453 154.891L17.0057 205.342C17.0057 205.342 17.6222 236.243 18.7049 237.747C19.7876 239.251 36.5393 253.521 36.5393 253.521H13.9831L13.5471 245.101L8.99072 241.913Z" fill="black"/>
</g>
<path d="M13.9524 254.048L13.6216 247.507L25.6515 244.604C25.6515 244.604 35.2454 249.221 36.5988 254.048H13.9524Z" fill="#263238"/>
<path d="M188.612 90.8004L166.612 84.3644C166.612 84.6651 173.108 76.4246 177.905 73.7329C181.845 71.4923 186.928 70.1991 190.777 72.545C190.071 71.5525 189.364 70.545 188.642 69.5375L191.544 69.8232C191.341 69.4569 191.058 69.1402 190.718 68.8958C190.377 68.6514 189.987 68.4855 189.574 68.4097C194.836 59.5177 203.246 52.9269 213.138 49.9437L210.492 48.2746C214.221 47.4313 217.705 45.7382 220.672 43.3273C223.616 40.9126 226.825 38.8392 230.236 37.1469C231.954 36.315 233.838 35.8828 235.747 35.8828C237.656 35.8828 239.54 36.315 241.258 37.1469L239.754 46.3798L188.612 90.8004Z" fill="#263238"/>
<path d="M63.3953 73.9894C48.2584 72.4048 33.0535 76.2821 20.5236 84.9216C15.3207 88.5005 10.614 92.0494 9.99744 93.5681C8.4937 97.147 7.18544 116.485 11.7869 125.237C16.3883 133.989 20.8094 128.62 27.9221 154.214C35.0348 179.808 18.8996 197.717 19.471 204.364C20.0424 211.01 32.7942 252.784 32.7942 252.784C32.7942 252.784 44.1926 254.559 42.8241 264.814H65.9066C65.9066 264.814 44.3129 247.07 41.7565 234.273C39.2001 221.476 37.0047 214.063 37.2453 205.883C37.4859 197.702 68.1472 151.748 68.1472 151.748C68.1472 151.748 87.6056 173.312 109.605 173.312C131.605 173.312 169.755 163.597 169.755 163.597C169.755 163.597 202.837 158.981 208.401 150.289C213.965 141.598 211.98 138.259 219.394 130.831C226.807 123.402 242.942 97.5681 242.942 97.5681L251.649 99.6132C251.649 99.6132 261.874 106.53 267.002 107.297C270.111 107.771 273.129 108.719 275.949 110.109C276.863 112.575 278.632 114.629 280.934 115.899C283.236 117.169 285.918 117.569 288.491 117.027C288.491 117.027 298.22 118.816 298.22 105.508C298.22 92.1997 290.28 85.0269 285.679 79.1472C281.077 73.2676 275.152 61.2377 272.626 54.0648C270.1 46.892 253.438 39.4785 253.438 39.4785H236.732C236.732 39.4785 191.71 78.3804 185.815 79.4029C179.92 80.4254 158.251 82.8615 141.8 84.3652C125.35 85.869 92.5078 77.0119 63.3953 73.9894Z" fill="#8A8A8A"/>
<path d="M176.162 161.672C176.375 161.745 176.598 161.781 176.823 161.778C177.265 161.735 177.693 161.604 178.084 161.395C178.474 161.185 178.819 160.9 179.099 160.556C179.379 160.212 179.587 159.816 179.713 159.39C179.839 158.965 179.879 158.519 179.831 158.078C179.602 157.071 179.077 156.155 178.324 155.448C177.572 154.741 176.625 154.275 175.605 154.109C173.56 153.808 171.473 153.947 169.485 154.515C159.515 156.665 149.621 159.432 139.41 160.409C129.2 161.387 114.914 161.808 105.922 156.966C100.945 154.304 97.546 151.868 92.8093 148.8C88.0725 145.733 84.7642 143.176 79.1402 143.733C73.5162 144.289 68.7043 146.876 68.4336 152.515C68.4336 152.515 87.2454 170.244 101.516 172.529C115.786 174.815 140.944 170.83 154.342 167.191C167.741 163.552 176.162 161.672 176.162 161.672Z" fill="#E0E0E0"/>
<path d="M13.5466 104.741V90.6211C9.03377 93.7966 5.49332 98.1649 3.32111 103.237C1.80044 107.247 0.94212 111.478 0.779785 115.764C0.795045 125.044 2.13176 134.274 4.74966 143.177C5.09553 144.35 5.62184 145.703 6.79476 146.064C8.46391 146.59 9.93758 144.756 10.4037 143.057C11.0659 139.722 10.7365 136.266 9.45638 133.117C8.15889 129.984 7.10318 126.757 6.29852 123.463C5.72709 119.979 6.09781 116.407 7.37225 113.115C8.6467 109.823 10.7785 106.932 13.5466 104.741Z" fill="#8A8A8A"/>
<path d="M162.266 142.53C162.266 142.53 163.394 154.214 164.762 166.184C166.131 178.154 160.702 203.161 159.439 206.71C158.176 210.258 156.657 244.95 156.657 244.95C156.657 244.95 161.168 248.739 161.168 261.16H183.725C183.725 261.16 174.101 251.025 167.003 243.431C167.003 243.431 165.695 228.574 170.176 220.379C172.819 215.743 174.363 210.562 174.687 205.236C175.659 200.842 176.935 196.521 178.507 192.304C180.883 186.289 188.537 168.439 188.537 168.439L194.717 158.981L202.371 150.094L199.709 138.5L187.77 132.199L174.492 133.432L162.266 142.53Z" fill="#8A8A8A"/>
<path d="M257.89 42.8471C264.088 38.1017 268.956 31.8362 272.023 24.6573C275.089 17.4784 276.25 9.62934 275.393 1.87012C271.183 4.71219 269.198 9.82493 265.844 13.6294C262.13 17.8399 256.822 20.3661 253.168 24.6518C249.213 29.2833 247.694 35.4637 246.551 41.4486" fill="#8A8A8A"/>
<path d="M274.445 6.1709C274.551 6.27616 272.942 7.9754 270.957 11.0881C269.789 12.9138 268.749 14.8181 267.844 16.7873C267.333 17.885 266.806 19.073 266.34 20.3061C265.817 21.616 265.146 22.8621 264.34 24.0203C262.716 26.3962 260.987 28.5316 259.649 30.5165C258.428 32.2909 257.466 34.2302 256.791 36.2758C256.268 38.1952 256.035 40.1821 256.1 42.1705C255.941 41.6473 255.846 41.1072 255.814 40.5615C255.814 40.0352 255.814 39.3886 255.814 38.6367C255.892 37.7882 256.043 36.948 256.265 36.1254C256.88 33.9903 257.818 31.9619 259.047 30.1105C260.37 28.0052 262.055 25.885 263.694 23.5692C264.47 22.4514 265.121 21.2512 265.633 19.9903C266.16 18.7572 266.701 17.5693 267.242 16.4565C268.193 14.4722 269.299 12.5665 270.551 10.7573C271.393 9.54295 272.318 8.3874 273.318 7.29871C273.644 6.87662 274.023 6.49766 274.445 6.1709Z" fill="#263238"/>
<g opacity="0.6">
<path d="M261.905 60.0639C261.047 59.0968 259.954 58.3673 258.731 57.9459C257.509 57.5244 256.199 57.4252 254.927 57.6579C252.381 58.1605 250.029 59.3755 248.145 61.1617C246.836 62.1249 245.952 63.5591 245.679 65.1616C245.725 66.0005 245.944 66.8207 246.322 67.5711C246.7 68.3214 247.228 68.9858 247.875 69.5225C250.205 71.86 253.069 73.5943 256.22 74.575C257.808 75.158 259.528 75.2831 261.183 74.936C262.626 74.4186 263.867 73.4542 264.724 72.1831C265.581 70.9119 266.011 69.4004 265.95 67.8684C265.905 64.8158 263.874 62.3947 261.905 60.0639Z" fill="white"/>
</g>
<path d="M262.521 67.9299C262.355 68.0953 261.619 67.569 260.686 66.6066C260.22 66.1404 259.649 65.5089 259.077 65.0277C258.415 64.5419 257.638 64.2362 256.822 64.1404C255.253 64.0132 253.681 64.3588 252.31 65.1329C251.153 65.7194 250.431 66.1705 250.28 66.0051C250.13 65.8397 250.596 65.1028 251.709 64.2006C252.454 63.5871 253.314 63.1277 254.238 62.8489C255.162 62.5701 256.132 62.4775 257.092 62.5766C258.21 62.7176 259.259 63.1948 260.1 63.945C260.669 64.5472 261.173 65.2074 261.604 65.9149C262.28 67.0577 262.626 67.8246 262.521 67.9299Z" fill="#263238"/>
<path d="M260.371 66.2313C260.265 66.7026 260.053 67.1437 259.752 67.5212C259.451 67.8988 259.068 68.203 258.632 68.4109C258.196 68.6187 257.718 68.7248 257.235 68.721C256.752 68.7172 256.277 68.6038 255.844 68.3892C255.411 68.1746 255.033 67.8644 254.737 67.4822C254.442 67.1 254.238 66.6556 254.139 66.1827C254.041 65.7098 254.051 65.2208 254.169 64.7525C254.288 64.2842 254.511 63.8488 254.822 63.4794C255.494 63.219 256.213 63.1019 256.933 63.1355C257.653 63.1692 258.358 63.3529 259.002 63.6749C259.352 63.8181 259.658 64.0502 259.89 64.3483C260.122 64.6464 260.272 65.0001 260.326 65.3741L260.371 66.2313Z" fill="#263238"/>
<g opacity="0.6">
<path d="M290.355 85.0117L289.663 84.6057C288.715 84.4124 287.731 84.4852 286.821 84.8162C283.624 85.8762 280.765 87.765 278.536 90.2898C276.319 92.8107 274.526 95.675 273.228 98.7709C271.815 101.589 271.138 104.719 271.258 107.869L271.408 108.425C272.959 108.888 274.468 109.481 275.919 110.199C276.833 112.665 278.602 114.719 280.904 115.989C283.206 117.259 285.888 117.659 288.46 117.117C288.46 117.117 298.19 118.906 298.19 105.598C298.16 96.2747 294.205 89.974 290.355 85.0117Z" fill="white"/>
</g>
<path d="M288.431 117.117C288.115 117.358 285.874 115.403 282.882 113.148C279.89 110.892 277.664 108.636 277.965 108.336C278.265 108.035 280.807 109.614 283.844 111.914C286.882 114.215 288.807 116.832 288.431 117.117Z" fill="#263238"/>
<path d="M292.911 103.041C292.722 102.614 292.437 102.237 292.076 101.939C291.716 101.642 291.292 101.432 290.836 101.327C290.313 101.339 289.813 101.541 289.428 101.895C289.043 102.249 288.801 102.732 288.746 103.252C288.686 104.301 288.995 105.338 289.618 106.184C290.024 106.786 290.49 107.357 290.896 107.944C291.086 108.228 291.366 108.439 291.691 108.543C292.016 108.647 292.367 108.637 292.686 108.515C293.408 108.244 293.573 107.553 293.663 106.665C293.836 105.407 293.571 104.127 292.911 103.041Z" fill="#263238"/>
<path d="M234.266 69.9745C234.476 70.1249 233.379 71.6737 232.461 74.4857C231.197 78.1086 231.12 82.0404 232.242 85.7099C233.364 89.3794 235.627 92.5957 238.702 94.8915C241.033 96.7111 242.807 97.3727 242.717 97.6133C242.627 97.8539 240.717 97.493 238.055 95.7938C234.562 93.5526 231.978 90.1443 230.764 86.1759C229.55 82.2076 229.783 77.9369 231.424 74.1248C232.687 71.2076 234.145 69.8692 234.266 69.9745Z" fill="#263238"/>
<path d="M68.1025 151.838C68.1899 151.062 68.4032 150.305 68.734 149.597L69.6814 147.086C69.9822 146.049 70.2979 144.906 70.6588 143.673C72.5157 137.098 72.8551 130.187 71.6513 123.462C71.0027 119.792 69.7957 116.242 68.0724 112.936C66.7098 110.207 64.9176 107.714 62.7642 105.553L62.1025 104.861L61.4108 104.29L60.1326 103.252C59.2755 102.696 58.5086 102.245 57.877 101.854C57.141 101.623 56.4458 101.278 55.8169 100.831C56.6104 100.848 57.3946 101.005 58.1327 101.297C58.8093 101.613 59.6364 102.004 60.6138 102.515L62.0273 103.508L62.7943 104.064L63.5311 104.741C65.8824 106.896 67.8458 109.439 69.3355 112.259C71.1885 115.664 72.4783 119.345 73.155 123.162C74.437 130.108 73.9509 137.265 71.7415 143.973C71.2904 145.252 70.8994 146.394 70.5235 147.387L69.3205 149.838C68.6438 151.176 68.2077 151.883 68.1025 151.838Z" fill="#263238"/>
<path d="M234.897 46.5012C234.055 40.9224 236.296 35.3284 239.138 30.4563C241.98 25.5842 245.484 21.0579 247.589 15.8249C249.694 10.5919 250.401 4.77237 253.604 0.125809C256.446 -1.01704 256.867 5.91522 257.183 9.22346C257.626 15.6471 256.714 22.0921 254.506 28.1405C252.476 34.1555 249.724 40.0352 247.333 45.99" fill="#8A8A8A"/>
<g opacity="0.3">
<path d="M246.957 38.2603C245.874 26.4259 250.295 14.8771 254.626 3.80957C254.626 3.80957 255.498 14.1854 254.084 21.0425C252.671 27.8995 246.957 38.2603 246.957 38.2603Z" fill="black"/>
</g>
<path d="M254.416 0.00585938C254.416 0.00585938 254.551 0.00587956 254.777 0.261516C255.12 0.511268 255.42 0.81612 255.664 1.16375C256.592 2.41664 257.215 3.86859 257.484 5.40431C258.22 10.412 258.005 15.5134 256.852 20.4417C255.921 25.4095 254.407 30.25 252.341 34.8626C251.544 36.622 250.837 38.0205 250.281 38.9528C250.04 39.463 249.731 39.9385 249.363 40.3663C249.243 40.3663 250.371 38.2009 251.829 34.637C253.735 30.0108 255.171 25.2048 256.115 20.2914C257.242 15.4287 257.532 10.4095 256.972 5.44942C256.771 3.96571 256.258 2.54124 255.469 1.26902C255.259 0.922279 255.012 0.599556 254.732 0.306626C254.491 0.156252 254.401 0.0359342 254.416 0.00585938Z" fill="#263238"/>
<g opacity="0.3">
<path d="M256.386 38.2611C260.791 34.3618 264.556 29.795 267.544 24.7274C270.92 19.4138 272.982 13.3724 273.559 7.10352C271.651 9.32006 269.964 11.7174 268.521 14.2613C267.018 16.7726 266.206 19.4493 264.897 22.0808C263.215 24.9158 261.336 27.6292 259.273 30.201C257.434 32.4714 256.412 35.2944 256.371 38.216" fill="black"/>
</g>
<path d="M288.281 107.763C288.13 107.899 287.529 107.538 286.973 106.605C286.262 105.334 286.053 103.843 286.386 102.425C286.51 101.675 286.831 100.971 287.318 100.387C287.804 99.8031 288.438 99.3592 289.153 99.1017C290.341 98.8009 291.018 99.3273 290.927 99.5077C290.837 99.6882 290.251 99.7032 289.559 100.139C289.12 100.447 288.747 100.84 288.463 101.295C288.179 101.749 287.989 102.256 287.905 102.786C287.273 105.417 288.627 107.508 288.281 107.763Z" fill="#263238"/>
<g opacity="0.3">
<path d="M232.943 72.0645C230.446 75.0719 227.815 78.5306 227.544 82.4553C227.385 84.4146 227.62 86.3858 228.235 88.253C228.85 90.1201 229.832 91.8454 231.123 93.3273C232.44 94.7942 234.096 95.9152 235.947 96.5917C237.798 97.2682 239.788 97.4795 241.74 97.207C237.294 94.8507 233.88 90.9284 232.161 86.1996C230.61 81.5605 230.89 76.5043 232.943 72.0645Z" fill="black"/>
</g>
<path d="M206.536 116.681C206.717 116.681 207.394 119.072 207.709 123.117C208.093 128.407 207.616 133.724 206.296 138.861C205.533 141.685 204.527 144.437 203.288 147.086C202.283 149.243 201.096 151.311 199.739 153.267C197.409 156.605 195.529 158.289 195.409 158.169C195.288 158.049 196.762 156.079 198.807 152.68C199.984 150.684 201.043 148.62 201.98 146.5C205.138 139.131 206.701 131.178 206.566 123.162C206.582 119.192 206.281 116.726 206.536 116.681Z" fill="#263238"/>
<path d="M162.267 135.824C162.719 135.824 162.794 142.335 163.44 150.275C164.087 158.215 164.944 164.651 164.568 164.741C164.192 164.831 162.508 158.471 161.876 150.411C161.245 142.351 161.876 135.809 162.267 135.824Z" fill="#263238"/>
<g opacity="0.3">
<path d="M78.9737 131.599C78.2731 123.45 74.3685 115.911 68.1167 110.637C74.0565 123.373 73.4099 138.832 68.1167 151.839C71.59 149.765 74.4348 146.787 76.347 143.222C78.2592 139.657 79.1671 135.64 78.9737 131.599Z" fill="black"/>
</g>
<path d="M18.1633 91.2685C18.4941 91.6144 14.2535 95.4639 11.7122 101.795C9.17088 108.125 9.4566 113.825 8.9754 113.825C8.77991 113.825 8.41901 112.426 8.43405 110.095C8.56839 103.941 10.9669 98.0514 15.1708 93.5542C16.7949 91.885 18.043 91.1181 18.1633 91.2685Z" fill="#263238"/>
<path d="M161.214 261.162L160.507 253.403L173.304 250.109C173.304 250.109 183.199 255.974 183.83 261.162H161.214Z" fill="#263238"/>
<path d="M183.755 253.4C184.376 251.217 184.407 248.908 183.846 246.709L194.372 245.205C194.372 245.205 202.417 250.273 202.372 253.355L183.755 253.4Z" fill="#263238"/>
<path d="M42.8244 264.815L41.8921 258.665L56.0423 255.657C56.0423 255.657 67.3053 260.635 65.9069 264.815H42.8244Z" fill="#263238"/>
</svg>
