<svg width="1000" height="1000" viewBox="0 0 1000 1000" fill="none" xmlns="http://www.w3.org/2000/svg">
<path d="M813.393 442.226C811.62 524.567 777.486 602.896 718.384 660.255C659.282 717.615 579.966 749.388 497.609 748.697C415.252 748.005 336.481 714.905 278.35 656.562C220.218 598.219 187.405 519.328 187.014 436.969L813.393 442.226Z" fill="#848484"/>
<path d="M722.724 313.613C844.632 385.234 843.489 499.676 720.59 569.316C597.691 638.956 399.438 637.279 277.682 565.582C155.927 493.885 156.917 379.52 279.816 309.88C402.715 240.24 601.044 241.916 722.724 313.613Z" fill="#BCBCBC"/>
<path d="M691.713 335.557C796.554 394.758 795.716 489.313 689.96 546.763C584.205 604.212 413.533 602.84 308.997 543.639C204.461 484.437 204.994 389.882 310.75 332.433C416.505 274.984 586.948 276.355 691.713 335.557Z" fill="#37474F"/>
<mask id="path-4-inside-1_215_5133" fill="white">
<path d="M260.539 408.93V410.835C260.539 413.807 260.539 416.778 260.539 419.75C260.539 420.436 260.539 421.121 260.539 421.807C260.539 424.169 260.539 426.607 260.92 428.969C261.301 431.331 260.92 432.093 260.92 433.693C260.92 435.293 261.454 439.026 261.682 441.693C261.911 444.36 262.673 449.312 263.206 453.198L263.892 457.389C263.982 457.98 264.109 458.566 264.273 459.141C264.273 460.665 264.806 462.113 265.035 463.637C265.644 466.837 266.33 470.037 267.092 473.161C267.192 473.65 267.319 474.133 267.473 474.608C268.158 477.58 268.92 480.628 269.682 483.599C270.444 486.571 271.816 491.218 272.958 494.876C273.644 497.085 274.33 499.219 275.092 501.352C275.854 503.485 276.463 505.314 277.225 507.295L277.682 508.59C277.827 509.035 278.006 509.468 278.216 509.886C278.216 511.257 279.13 512.629 279.663 514C280.197 515.372 281.568 518.419 282.559 520.629C283.016 521.467 283.321 522.229 283.702 522.991C284.02 523.807 284.402 524.596 284.845 525.353L287.13 529.772L287.74 530.839C294.296 535.452 301.087 539.725 308.083 543.639C313.722 546.839 319.588 549.887 325.608 552.63C338.809 558.921 352.429 564.293 366.371 568.706C380.421 573.227 394.717 576.941 409.191 579.83C429.303 583.898 449.668 586.596 470.145 587.907L474.869 585.469L475.936 584.935L479.212 583.107L480.126 582.573C481.422 581.811 482.717 581.05 483.936 580.211L487.365 578.002L492.85 574.192L493.765 573.43L495.593 572.059L496.736 571.221L500.013 568.554L501.46 567.259C502.146 566.649 502.832 565.963 503.517 565.43L507.936 561.163L509.46 559.563C509.822 559.163 510.203 558.782 510.603 558.42L511.442 557.506C512.584 556.363 513.651 555.144 514.794 553.849L516.546 551.715C517.003 551.182 517.461 550.572 517.994 550.039L519.365 548.134L520.737 546.382C521.194 545.925 521.575 545.391 521.956 544.934L522.337 544.325L523.708 542.42C524.927 540.667 526.07 538.839 527.213 537.086C530.346 532.214 533.122 527.121 535.518 521.848C536.128 520.553 536.737 519.257 537.271 517.886C537.804 516.514 538.414 515.143 538.947 513.848C539.61 512.329 540.195 510.778 540.699 509.2C541.332 507.773 541.842 506.294 542.223 504.781C542.223 503.942 542.681 503.181 542.909 502.419C543.138 501.657 543.366 500.971 543.595 500.285C543.823 499.6 544.357 497.466 544.661 496.095V495.333C545.042 493.885 545.347 492.437 545.652 491.066C545.957 489.695 546.185 488.171 546.414 486.723C546.642 485.275 546.871 484.437 547.023 483.37C547.176 482.304 547.481 480.171 547.633 478.571C547.785 476.97 548.09 474.38 548.242 472.246C549.474 453.842 547.039 435.377 541.08 417.921C540.395 415.635 539.556 413.426 538.642 411.14C537.728 408.854 537.575 408.397 536.966 407.102L535.823 404.587C534.147 400.549 532.318 396.511 530.413 392.625C528.509 388.739 526.07 384.015 523.785 379.825C521.499 375.634 520.051 373.12 518.07 369.92C516.089 366.72 513.575 362.681 511.213 359.1C502.229 345.504 492.028 332.753 480.736 321.004C480.038 320.23 479.3 319.493 478.526 318.795L476.317 316.661C474.717 314.985 473.04 313.309 471.364 311.709C464.4 305.067 457.102 298.785 449.497 292.889C437.71 283.781 425.198 275.653 412.086 268.583L406.6 265.688C403.857 264.241 401.038 262.869 398.219 261.574L389.762 257.688C374.796 251.221 358.235 249.39 342.218 252.431L334.598 254.259C332.012 254.979 329.468 255.843 326.979 256.85C324.366 257.822 321.82 258.967 319.36 260.279C317.812 261.025 316.311 261.865 314.864 262.793C311.954 264.521 309.155 266.43 306.483 268.507L302.674 271.707L299.702 274.45C297.797 276.355 296.045 278.336 294.293 280.393L291.854 283.441C290.254 285.575 288.807 287.708 287.435 289.918C286.064 292.127 284.844 294.413 283.625 296.851C283.092 297.994 282.559 299.137 282.025 300.432C278.749 308.051 275.778 315.671 273.263 323.29C270.749 330.909 268.844 337.462 267.168 344.624C266.711 346.681 266.177 348.662 265.72 350.719L264.349 357.577L263.511 361.843C263.511 363.291 262.977 364.739 262.825 366.186C262.782 366.387 262.782 366.595 262.825 366.796V367.862C262.746 368.418 262.746 368.983 262.825 369.539C262.825 371.824 262.139 374.263 261.834 376.625C261.876 377.056 261.876 377.489 261.834 377.92V379.749V380.739V382.644C261.834 383.787 261.835 384.854 261.454 385.844V388.511C261.454 388.892 261.454 389.12 261.454 389.349C261.454 389.577 261.454 390.492 261.454 390.949C261.454 393.692 261.073 396.511 260.996 399.178C260.996 400.092 260.996 401.006 260.996 401.845C260.996 402.683 260.996 403.445 260.996 404.283V405.502C260.539 406.873 260.539 407.635 260.539 408.93Z"/>
</mask>
<path d="M260.539 408.93V410.835C260.539 413.807 260.539 416.778 260.539 419.75C260.539 420.436 260.539 421.121 260.539 421.807C260.539 424.169 260.539 426.607 260.92 428.969C261.301 431.331 260.92 432.093 260.92 433.693C260.92 435.293 261.454 439.026 261.682 441.693C261.911 444.36 262.673 449.312 263.206 453.198L263.892 457.389C263.982 457.98 264.109 458.566 264.273 459.141C264.273 460.665 264.806 462.113 265.035 463.637C265.644 466.837 266.33 470.037 267.092 473.161C267.192 473.65 267.319 474.133 267.473 474.608C268.158 477.58 268.92 480.628 269.682 483.599C270.444 486.571 271.816 491.218 272.958 494.876C273.644 497.085 274.33 499.219 275.092 501.352C275.854 503.485 276.463 505.314 277.225 507.295L277.682 508.59C277.827 509.035 278.006 509.468 278.216 509.886C278.216 511.257 279.13 512.629 279.663 514C280.197 515.372 281.568 518.419 282.559 520.629C283.016 521.467 283.321 522.229 283.702 522.991C284.02 523.807 284.402 524.596 284.845 525.353L287.13 529.772L287.74 530.839C294.296 535.452 301.087 539.725 308.083 543.639C313.722 546.839 319.588 549.887 325.608 552.63C338.809 558.921 352.429 564.293 366.371 568.706C380.421 573.227 394.717 576.941 409.191 579.83C429.303 583.898 449.668 586.596 470.145 587.907L474.869 585.469L475.936 584.935L479.212 583.107L480.126 582.573C481.422 581.811 482.717 581.05 483.936 580.211L487.365 578.002L492.85 574.192L493.765 573.43L495.593 572.059L496.736 571.221L500.013 568.554L501.46 567.259C502.146 566.649 502.832 565.963 503.517 565.43L507.936 561.163L509.46 559.563C509.822 559.163 510.203 558.782 510.603 558.42L511.442 557.506C512.584 556.363 513.651 555.144 514.794 553.849L516.546 551.715C517.003 551.182 517.461 550.572 517.994 550.039L519.365 548.134L520.737 546.382C521.194 545.925 521.575 545.391 521.956 544.934L522.337 544.325L523.708 542.42C524.927 540.667 526.07 538.839 527.213 537.086C530.346 532.214 533.122 527.121 535.518 521.848C536.128 520.553 536.737 519.257 537.271 517.886C537.804 516.514 538.414 515.143 538.947 513.848C539.61 512.329 540.195 510.778 540.699 509.2C541.332 507.773 541.842 506.294 542.223 504.781C542.223 503.942 542.681 503.181 542.909 502.419C543.138 501.657 543.366 500.971 543.595 500.285C543.823 499.6 544.357 497.466 544.661 496.095V495.333C545.042 493.885 545.347 492.437 545.652 491.066C545.957 489.695 546.185 488.171 546.414 486.723C546.642 485.275 546.871 484.437 547.023 483.37C547.176 482.304 547.481 480.171 547.633 478.571C547.785 476.97 548.09 474.38 548.242 472.246C549.474 453.842 547.039 435.377 541.08 417.921C540.395 415.635 539.556 413.426 538.642 411.14C537.728 408.854 537.575 408.397 536.966 407.102L535.823 404.587C534.147 400.549 532.318 396.511 530.413 392.625C528.509 388.739 526.07 384.015 523.785 379.825C521.499 375.634 520.051 373.12 518.07 369.92C516.089 366.72 513.575 362.681 511.213 359.1C502.229 345.504 492.028 332.753 480.736 321.004C480.038 320.23 479.3 319.493 478.526 318.795L476.317 316.661C474.717 314.985 473.04 313.309 471.364 311.709C464.4 305.067 457.102 298.785 449.497 292.889C437.71 283.781 425.198 275.653 412.086 268.583L406.6 265.688C403.857 264.241 401.038 262.869 398.219 261.574L389.762 257.688C374.796 251.221 358.235 249.39 342.218 252.431L334.598 254.259C332.012 254.979 329.468 255.843 326.979 256.85C324.366 257.822 321.82 258.967 319.36 260.279C317.812 261.025 316.311 261.865 314.864 262.793C311.954 264.521 309.155 266.43 306.483 268.507L302.674 271.707L299.702 274.45C297.797 276.355 296.045 278.336 294.293 280.393L291.854 283.441C290.254 285.575 288.807 287.708 287.435 289.918C286.064 292.127 284.844 294.413 283.625 296.851C283.092 297.994 282.559 299.137 282.025 300.432C278.749 308.051 275.778 315.671 273.263 323.29C270.749 330.909 268.844 337.462 267.168 344.624C266.711 346.681 266.177 348.662 265.72 350.719L264.349 357.577L263.511 361.843C263.511 363.291 262.977 364.739 262.825 366.186C262.782 366.387 262.782 366.595 262.825 366.796V367.862C262.746 368.418 262.746 368.983 262.825 369.539C262.825 371.824 262.139 374.263 261.834 376.625C261.876 377.056 261.876 377.489 261.834 377.92V379.749V380.739V382.644C261.834 383.787 261.835 384.854 261.454 385.844V388.511C261.454 388.892 261.454 389.12 261.454 389.349C261.454 389.577 261.454 390.492 261.454 390.949C261.454 393.692 261.073 396.511 260.996 399.178C260.996 400.092 260.996 401.006 260.996 401.845C260.996 402.683 260.996 403.445 260.996 404.283V405.502C260.539 406.873 260.539 407.635 260.539 408.93Z" fill="#FAFAFA" stroke="#363A5A" stroke-width="4" mask="url(#path-4-inside-1_215_5133)"/>
<path opacity="0.1" d="M260.615 408.93V405.121C260.615 404.283 260.615 403.444 260.615 402.682C260.615 401.92 260.615 400.93 260.615 400.016C260.615 397.349 260.615 394.53 261.072 391.787C261.072 391.33 261.072 390.72 261.072 390.187C261.072 389.654 261.072 389.73 261.072 389.349C261.072 387.368 261.072 385.463 261.606 383.482V381.577V380.587V378.758C261.648 378.327 261.648 377.893 261.606 377.463C261.606 375.101 262.292 372.663 262.596 370.377C262.596 369.386 262.596 368.472 263.13 367.558C263.086 367.357 263.086 367.149 263.13 366.948C263.13 365.5 263.511 364.053 263.739 362.681L264.577 358.415L265.949 351.557C266.406 349.5 266.939 347.519 267.396 345.462C266.6 351.55 266.218 357.685 266.253 363.824V364.739C266.346 376.945 267.416 389.124 269.454 401.159C271.722 415.113 274.981 428.888 279.206 442.379C282.673 453.369 286.821 464.133 291.626 474.608C296.943 486.215 303.186 497.375 310.293 507.981C312.655 511.486 315.245 514.914 317.912 518.267C324.349 526.609 331.626 534.268 339.627 541.124C349.522 549.723 360.773 556.623 372.923 561.544L375.742 562.687C390.817 568.589 406.74 572.036 422.906 572.897C386.181 487.942 468.011 383.863 509.384 356.815L511.213 359.405C513.575 362.986 515.861 366.491 518.07 370.225C520.28 373.958 521.956 376.777 523.785 380.129C525.613 383.482 528.356 388.587 530.413 392.93C532.47 397.273 534.147 400.549 535.823 404.892L536.966 407.406C537.575 408.702 538.109 410.073 538.642 411.445C539.175 412.816 540.395 415.94 541.08 418.226C547.039 435.682 549.474 454.147 548.242 472.551C548.242 474.685 547.861 476.742 547.633 478.875C547.404 481.008 547.633 482.075 547.023 483.675C546.414 485.275 546.642 485.961 546.414 487.028C546.185 488.094 545.88 489.923 545.652 491.371C545.423 492.818 545.042 494.19 544.661 495.637V496.399C544.661 497.771 543.976 499.142 543.595 500.59C543.214 502.038 543.595 502.038 542.909 502.723C542.223 503.409 542.528 504.247 542.223 505.085C541.842 506.599 541.332 508.078 540.699 509.505C540.195 511.083 539.61 512.634 538.947 514.152C538.413 515.447 537.88 516.819 537.271 518.19C536.661 519.562 536.128 520.857 535.518 522.152C533.122 527.426 530.346 532.519 527.213 537.391C526.07 539.143 524.927 540.972 523.708 542.724L522.337 544.629L521.956 545.239C521.575 545.696 521.194 546.229 520.737 546.686L519.365 548.439L517.994 550.344C517.461 550.877 517.003 551.487 516.546 552.02L514.794 554.153C513.651 555.449 512.584 556.668 511.441 557.811L510.603 558.725C510.203 559.087 509.822 559.468 509.46 559.868L507.936 561.468L503.517 565.735C502.832 566.268 502.146 566.954 501.46 567.563L500.013 568.858L496.736 571.525L495.593 572.363L493.765 573.735L492.85 574.497L487.365 578.307L483.936 580.516C482.717 581.354 481.421 582.116 480.126 582.878L479.212 583.411L475.936 585.24L474.869 585.773L470.145 588.211C463.592 587.754 457.116 587.145 450.64 586.459H447.973C441.649 585.697 435.401 584.859 429.153 583.945C422.525 582.878 415.972 581.735 409.496 580.44C395.022 577.551 380.725 573.836 366.675 569.316C352.733 564.903 339.113 559.531 325.912 553.239C319.893 550.496 314.026 547.448 308.388 544.248C301.391 540.334 294.601 536.062 288.045 531.448L287.435 530.381L285.149 525.962C284.707 525.206 284.325 524.416 284.006 523.6C283.549 522.838 283.244 522.076 282.787 521.238C281.797 519.105 280.883 516.819 279.968 514.609C279.054 512.4 278.902 511.866 278.521 510.495C278.31 510.077 278.132 509.644 277.987 509.2L277.53 507.904C276.768 505.923 276.082 503.942 275.397 501.961C274.711 499.98 273.949 497.695 273.263 495.485C272.12 491.752 271.054 487.866 269.987 484.209C268.92 480.551 268.463 478.189 267.777 475.218C267.624 474.743 267.497 474.259 267.396 473.77C266.635 470.646 265.949 467.446 265.339 464.246C265.339 462.722 264.806 461.275 264.577 459.751C264.541 459.116 264.541 458.48 264.577 457.846C264.577 456.475 264.12 455.179 263.815 453.808C263.282 449.998 262.749 446.188 262.291 442.303C261.834 438.417 261.758 436.969 261.53 434.302C261.301 431.636 261.53 431.178 261.53 429.578C261.53 427.978 261.53 424.778 261.149 422.416C261.149 421.731 261.149 421.045 261.149 420.359C261.149 417.388 261.149 414.416 261.149 411.445C260.903 410.622 260.725 409.781 260.615 408.93Z" fill="black"/>
<path d="M708.476 345.766C709.983 348.625 711.306 351.577 712.438 354.604C718.023 369.443 722.306 384.739 725.239 400.32C726.077 404.511 726.915 408.701 727.448 412.892C727.605 414.129 727.796 415.359 727.987 416.589C728.441 419.525 728.896 422.456 728.896 425.464V428.13C729.186 429.374 729.205 430.641 729.224 431.869C729.24 432.897 729.255 433.898 729.429 434.835C729.81 436.892 729.81 438.95 729.81 441.083V448.702V456.322C729.81 457.47 729.827 458.593 729.844 459.71C729.878 461.928 729.911 464.124 729.81 466.455C729.749 467.862 729.626 469.331 729.501 470.826C729.315 473.055 729.124 475.345 729.124 477.579L708.476 345.766ZM708.476 345.766C699.791 328.944 685.556 315.642 668.184 308.116M708.476 345.766L668.184 308.116M668.184 308.116C650.812 300.589 631.372 299.301 613.159 304.47L668.184 308.116ZM441.354 540.743V540.634L441.331 540.528C435.46 513.813 437.672 485.955 447.684 460.5C448.131 459.384 448.616 458.32 449.112 457.232L449.116 457.222C449.609 456.142 450.112 455.039 450.578 453.874C451.245 452.207 452.029 450.68 452.838 449.105C453.113 448.569 453.391 448.028 453.668 447.473L453.671 447.467L453.674 447.46C484.837 382.816 539.747 332.693 606.957 307.54L606.966 307.536C609.078 306.724 611.232 306.023 613.418 305.436L613.425 305.434L613.432 305.432C631.423 300.326 650.626 301.599 667.786 309.033C684.946 316.468 699.008 329.607 707.587 346.225L707.591 346.232C709.078 349.054 710.385 351.967 711.502 354.955L711.502 354.957C717.067 369.741 721.334 384.981 724.256 400.505L724.258 400.516C725.097 404.713 725.928 408.868 726.456 413.018C726.621 414.314 726.817 415.577 727.01 416.824C727.46 419.726 727.896 422.537 727.896 425.464V425.469V425.474V425.48V425.485V425.49V425.496V425.501V425.506V425.512V425.517V425.522V425.528V425.533V425.538V425.544V425.549V425.554V425.56V425.565V425.57V425.576V425.581V425.586V425.592V425.597V425.602V425.608V425.613V425.618V425.624V425.629V425.634V425.64V425.645V425.65V425.655V425.661V425.666V425.671V425.677V425.682V425.687V425.692V425.698V425.703V425.708V425.714V425.719V425.724V425.729V425.735V425.74V425.745V425.751V425.756V425.761V425.766V425.772V425.777V425.782V425.787V425.793V425.798V425.803V425.808V425.814V425.819V425.824V425.83V425.835V425.84V425.845V425.851V425.856V425.861V425.866V425.872V425.877V425.882V425.887V425.892V425.898V425.903V425.908V425.913V425.919V425.924V425.929V425.934V425.94V425.945V425.95V425.955V425.96V425.966V425.971V425.976V425.981V425.987V425.992V425.997V426.002V426.007V426.013V426.018V426.023V426.028V426.033V426.039V426.044V426.049V426.054V426.06V426.065V426.07V426.075V426.08V426.086V426.091V426.096V426.101V426.106V426.111V426.117V426.122V426.127V426.132V426.137V426.143V426.148V426.153V426.158V426.163V426.169V426.174V426.179V426.184V426.189V426.194V426.2V426.205V426.21V426.215V426.22V426.226V426.231V426.236V426.241V426.246V426.251V426.257V426.262V426.267V426.272V426.277V426.282V426.288V426.293V426.298V426.303V426.308V426.313V426.319V426.324V426.329V426.334V426.339V426.344V426.35V426.355V426.36V426.365V426.37V426.375V426.381V426.386V426.391V426.396V426.401V426.406V426.411V426.417V426.422V426.427V426.432V426.437V426.442V426.447V426.453V426.458V426.463V426.468V426.473V426.478V426.484V426.489V426.494V426.499V426.504V426.509V426.514V426.52V426.525V426.53V426.535V426.54V426.545V426.55V426.556V426.561V426.566V426.571V426.576V426.581V426.586V426.592V426.597V426.602V426.607V426.612V426.617V426.622V426.627V426.633V426.638V426.643V426.648V426.653V426.658V426.663V426.669V426.674V426.679V426.684V426.689V426.694V426.699V426.705V426.71V426.715V426.72V426.725V426.73V426.735V426.74V426.746V426.751V426.756V426.761V426.766V426.771V426.776V426.782V426.787V426.792V426.797V426.802V426.807V426.812V426.817V426.823V426.828V426.833V426.838V426.843V426.848V426.853V426.859V426.864V426.869V426.874V426.879V426.884V426.889V426.894V426.9V426.905V426.91V426.915V426.92V426.925V426.93V426.936V426.941V426.946V426.951V426.956V426.961V426.966V426.972V426.977V426.982V426.987V426.992V426.997V427.002V427.007V427.013V427.018V427.023V427.028V427.033V427.038V427.043V427.049V427.054V427.059V427.064V427.069V427.074V427.079V427.085V427.09V427.095V427.1V427.105V427.11V427.115V427.121V427.126V427.131V427.136V427.141V427.146V427.152V427.157V427.162V427.167V427.172V427.177V427.182V427.188V427.193V427.198V427.203V427.208V427.213V427.219V427.224V427.229V427.234V427.239V427.244V427.249V427.255V427.26V427.265V427.27V427.275V427.28V427.286V427.291V427.296V427.301V427.306V427.311V427.317V427.322V427.327V427.332V427.337V427.342V427.348V427.353V427.358V427.363V427.368V427.373V427.379V427.384V427.389V427.394V427.399V427.405V427.41V427.415V427.42V427.425V427.43V427.436V427.441V427.446V427.451V427.456V427.462V427.467V427.472V427.477V427.482V427.488V427.493V427.498V427.503V427.508V427.514V427.519V427.524V427.529V427.534V427.54V427.545V427.55V427.555V427.56V427.566V427.571V427.576V427.581V427.586V427.592V427.597V427.602V427.607V427.613V427.618V427.623V427.628V427.633V427.639V427.644V427.649V427.654V427.66V427.665V427.67V427.675V427.68V427.686V427.691V427.696V427.701V427.707V427.712V427.717V427.722V427.728V427.733V427.738V427.743V427.749V427.754V427.759V427.764V427.77V427.775V427.78V427.785V427.791V427.796V427.801V427.806V427.812V427.817V427.822V427.827V427.833V427.838V427.843V427.849V427.854V427.859V427.864V427.87V427.875V427.88V427.886V427.891V427.896V427.901V427.907V427.912V427.917V427.923V427.928V427.933V427.938V427.944V427.949V427.954V427.96V427.965V427.97V427.976V427.981V427.986V427.991V427.997V428.002V428.007V428.013V428.018V428.023V428.029V428.034V428.039V428.045V428.05V428.055V428.061V428.066V428.071V428.077V428.082V428.087V428.093V428.098V428.103V428.109V428.114V428.119V428.125V428.13V428.245L727.922 428.357C728.162 429.385 728.201 430.451 728.22 431.585C728.221 431.687 728.223 431.789 728.224 431.893C728.24 432.905 728.256 433.992 728.446 435.017C728.807 436.969 728.81 438.934 728.81 441.083V448.702V456.322C728.81 457.503 728.828 458.641 728.845 459.765C728.878 461.964 728.911 464.109 728.811 466.412C728.751 467.797 728.63 469.24 728.506 470.733C728.475 471.102 728.444 471.475 728.413 471.851C728.262 473.717 728.126 475.642 728.124 477.539C727.594 484.113 726.686 490.242 725.621 497.317C724.559 504.372 723.194 511.275 721.449 518.252L721.445 518.27L721.441 518.289C720.865 521.025 720.15 523.835 719.362 526.587C709.826 533.8 699.736 540.251 689.186 545.88L689.174 545.886L689.163 545.892C686.369 547.478 683.419 548.991 680.389 550.43L680.381 550.434L680.373 550.438C621.14 579.903 543.69 591.927 469.081 586.833C467.723 586.71 466.392 586.613 465.076 586.517C463.23 586.382 461.414 586.25 459.595 586.05C459.159 585.387 458.754 584.705 458.379 584.006L458.36 583.969L458.337 583.934C457.739 583.009 457.185 582.053 456.628 581.091C456.421 580.733 456.213 580.374 456.002 580.015C452.413 573.696 449.331 567.102 446.783 560.296C446.569 559.653 446.37 559.108 446.163 558.538L446.113 558.402C445.886 557.776 445.642 557.1 445.341 556.199C444.739 554.393 444.212 552.586 443.76 550.853L443.752 550.82L443.741 550.788C443.326 549.548 442.98 548.286 442.703 547.008L442.693 546.96L442.678 546.913C442.145 545.255 441.703 543.568 441.354 541.861V540.743Z" fill="#F5F5F5" stroke="#363A5A" stroke-width="2"/>
<path opacity="0.1" d="M680.895 551.334C683.942 549.887 686.914 548.363 689.733 546.763C700.391 541.076 710.582 534.554 720.21 527.257C721.048 524.362 721.81 521.391 722.496 518.495C724.172 511.485 725.62 504.476 726.686 497.466C727.753 490.456 728.591 484.209 729.201 477.58C730.688 460.156 730.535 442.631 728.743 425.235C728.743 420.969 727.829 416.854 727.296 412.664C726.762 408.473 725.924 404.282 725.086 400.092C728.286 437.35 714.038 502.038 680.895 551.334Z" fill="black"/>
<path opacity="0.1" d="M440.354 540.743C441.436 546.087 442.861 551.355 444.62 556.515C445.154 557.887 445.611 559.258 446.068 560.63C448.636 567.494 451.744 574.143 455.363 580.516C456.125 581.811 456.887 583.183 457.725 584.478C458.204 585.35 458.738 586.19 459.326 586.992C462.602 587.373 465.954 587.526 469.307 587.83C455.108 575.431 445.011 559.01 440.354 540.743Z" fill="black"/>
</svg>
