<svg width="227" height="226" viewBox="0 0 227 226" fill="none" xmlns="http://www.w3.org/2000/svg">
<path d="M168.682 92.255C171.211 57.1981 144.481 34.7999 111.899 32.4457C79.3176 30.0915 57.6189 54.3462 58.157 89.4703C58.5471 115.084 77.5822 115.743 82.0619 138.141C83.5955 145.836 66.1881 193.363 89.232 193.699C151.611 194.614 138.669 159.275 148.961 141.141C157.597 125.967 167.189 112.837 168.682 92.255Z" fill="#FADCBC"/>
<path d="M115.168 45.7109C99.8056 44.5943 85.6537 54.4818 77.3536 68.5127C76.5195 69.9117 78.4567 71.2973 79.5329 70.0597C88.6939 59.4861 101.81 52.9886 114.334 53.9034C136.705 55.5177 151.92 67.4768 150.185 91.5432C149.162 105.668 141.75 115.179 135.845 125.591C132.038 132.304 134.338 149.092 129.28 162.908C128.715 164.442 130.881 165.424 131.715 164.011C139.113 151.447 138.575 135.008 142.974 127.246C149.445 115.865 156.642 106.018 157.758 90.5746C159.655 64.2886 139.611 47.4731 115.168 45.7109Z" fill="#DBA689"/>
<path d="M80.8243 105.789C75.7258 119.093 92.3799 119.82 94.0883 124.945C95.2452 128.429 94.4784 137.388 93.8731 142.783C93.7251 144.128 95.4066 144.841 96.2676 143.805C100.976 138.115 109.424 125.981 106.612 114.936C102.779 99.8697 85.9227 92.4709 80.8243 105.789ZM99.0926 81.8166C110.124 86.5518 123.105 95.6725 123.092 112.286C123.092 113.941 125.446 114.143 125.742 112.515C128.029 99.9235 124.814 84.9241 99.9401 79.2875C98.3662 78.9243 97.5994 81.1708 99.0926 81.8166Z" fill="#DBA689"/>
</svg>
