<svg width="303" height="271" viewBox="0 0 303 271" fill="none" xmlns="http://www.w3.org/2000/svg">
<path d="M302.411 101.396C301.74 98.882 300.302 96.6397 298.297 94.9806C299.273 97.4098 300.007 99.9287 300.49 102.501C300.808 104.877 300.734 107.289 300.273 109.641C299.81 112.055 298.966 114.379 297.772 116.528C296.529 118.797 294.946 120.862 293.078 122.653L292.372 123.305C293.172 121.047 293.487 118.644 293.296 116.256C293.731 119.373 290.722 122.037 288.729 124.755C287.471 126.402 286.559 128.287 286.048 130.296C285.538 132.304 285.439 134.396 285.757 136.444C283.885 133.331 282.837 129.793 282.71 126.163C282.583 122.533 283.382 118.93 285.032 115.694C283.493 116.662 282.218 117.997 281.32 119.578C280.422 121.159 279.929 122.937 279.886 124.755C278.073 120.804 279.088 116.365 280.701 112.323C282.314 108.282 284.507 104.313 284.905 100.109C283.441 102.126 282.54 104.497 282.296 106.977C282.165 106.169 281.94 105.378 281.625 104.622C281.445 103.827 281.318 103.022 281.245 102.211C281.102 100.548 281.169 98.874 281.444 97.2278C282.015 93.8227 283.381 90.6003 285.431 87.8224C285.634 87.554 285.805 87.2619 285.938 86.9526C286.101 86.6828 286.302 86.4385 286.536 86.2277C287.132 85.5805 287.695 84.9031 288.222 84.1981C288.344 84.0353 288.448 83.859 288.53 83.6725C288.613 83.4103 288.741 83.1648 288.91 82.9477C289.381 82.3134 289.816 81.6791 290.251 81.1355C291.073 79.8675 291.823 78.5546 292.498 77.203C292.643 76.8949 292.788 76.6049 292.915 76.2969C293.386 78.8745 294.352 81.3363 295.76 83.5457C297.138 85.8834 298.732 88.1487 300.055 90.5226C300.273 90.9213 300.563 91.2838 300.762 91.6824C300.961 92.0811 301.052 92.353 301.179 92.6792C301.445 93.3499 301.657 94.0407 301.813 94.7451C302.124 96.14 302.318 97.5584 302.393 98.9856C302.393 99.9279 302.393 100.798 302.502 101.849C302.484 101.696 302.453 101.544 302.411 101.396Z" fill="#37474F"/>
<path d="M244.802 11.7835C246.17 10.7041 247.861 10.1168 249.604 10.1163C251.605 9.86263 253.627 9.80798 255.639 9.95319C259.153 10.2492 262.604 11.0677 265.877 12.3816C272.571 15.0748 278.404 19.5419 282.749 25.3025C292.553 38.296 294.546 55.2762 293.912 71.0605C293.713 76.2796 293.223 81.4806 292.77 86.6635C292.263 92.1001 291.574 97.7723 291.429 103.281C291.429 103.662 290.94 103.771 290.94 103.281C290.94 98.9321 290.741 94.6009 290.94 90.2335C291.139 85.8661 291.212 81.1726 291.303 76.6602C291.64 68.266 291.148 59.8589 289.835 51.5612C287.316 37.5711 280.774 23.5084 267.563 16.7489C264.349 15.0511 260.867 13.9171 257.269 13.3964C255.498 13.1611 253.706 13.1064 251.924 13.2333C249.695 13.3783 247.61 13.9763 245.363 13.94C243.823 13.9582 244.077 12.599 244.802 11.7835Z" fill="#E0E0E0"/>
<path opacity="0.1" d="M244.802 11.7835C246.17 10.7041 247.861 10.1168 249.604 10.1163C251.605 9.86263 253.627 9.80798 255.639 9.95319C259.153 10.2492 262.604 11.0677 265.877 12.3816C272.571 15.0748 278.404 19.5419 282.749 25.3025C292.553 38.296 294.546 55.2762 293.912 71.0605C293.713 76.2796 293.223 81.4806 292.77 86.6635C292.263 92.1001 291.574 97.7723 291.429 103.281C291.429 103.662 290.94 103.771 290.94 103.281C290.94 98.9321 290.741 94.6009 290.94 90.2335C291.139 85.8661 291.212 81.1726 291.303 76.6602C291.64 68.266 291.148 59.8589 289.835 51.5612C287.316 37.5711 280.774 23.5084 267.563 16.7489C264.349 15.0511 260.867 13.9171 257.269 13.3964C255.498 13.1611 253.706 13.1064 251.924 13.2333C249.695 13.3783 247.61 13.9763 245.363 13.94C243.823 13.9582 244.077 12.599 244.802 11.7835Z" fill="black"/>
<path d="M105.262 141.372C105.57 155.326 109.792 189.649 111.822 195.611C113.852 201.573 133.224 232.471 138.425 239.339C143.626 246.208 146.254 249.524 146.254 249.524C151.683 249.207 156.918 247.389 161.375 244.273C165.832 241.156 169.336 236.864 171.498 231.873L149.226 198.148L149.443 148.929L105.262 141.372Z" fill="#E0E0E0"/>
<path opacity="0.1" d="M105.262 141.372C105.57 155.326 109.792 189.649 111.822 195.611C113.852 201.573 133.224 232.471 138.425 239.339C143.626 246.208 146.254 249.524 146.254 249.524C151.683 249.207 156.918 247.389 161.375 244.273C165.832 241.156 169.336 236.864 171.498 231.873L149.226 198.148L149.443 148.929L105.262 141.372Z" fill="black"/>
<path d="M202.124 148.514C202.124 148.514 198.826 169.952 198.028 176.947C197.231 183.942 202.885 224.626 202.885 224.626C202.885 224.626 214.918 229.011 225.356 226.13C235.795 223.249 237.263 219.86 237.263 219.86L234.236 187.041L242.772 148.514H202.124Z" fill="#E0E0E0"/>
<path opacity="0.1" d="M202.124 148.514C202.124 148.514 198.826 169.952 198.028 176.947C197.231 183.942 202.885 224.626 202.885 224.626C202.885 224.626 214.918 229.011 225.356 226.13C235.795 223.249 237.263 219.86 237.263 219.86L234.236 187.041L242.772 148.514H202.124Z" fill="black"/>
<path d="M213.74 226.983C213.275 223.759 212.391 220.609 211.113 217.613C210.77 216.682 210.239 215.831 209.554 215.113C209.205 214.757 208.767 214.502 208.285 214.375C207.804 214.247 207.297 214.252 206.818 214.388C205.549 214.841 205.006 216.327 204.752 217.65C204.422 219.186 204.192 220.741 204.063 222.307C204.063 223.177 203.9 224.119 203.9 225.025C207.107 226.003 210.403 226.659 213.74 226.983Z" fill="#EBEBEB"/>
<path d="M221.442 218.538C220.997 217.668 220.381 216.898 219.63 216.272C219.231 215.972 218.759 215.782 218.263 215.721C217.766 215.661 217.263 215.732 216.803 215.928C216.253 216.348 215.82 216.901 215.544 217.535C215.268 218.17 215.159 218.864 215.226 219.552C215.127 221.115 215.127 222.683 215.226 224.246C215.26 225.236 215.357 226.223 215.516 227.2C218.729 227.404 221.955 227.123 225.085 226.366C224.181 223.623 222.958 220.996 221.442 218.538Z" fill="#EBEBEB"/>
<path d="M94.1167 44.0218C104.99 44.5111 112.964 39.6 127.769 30.6115C142.575 21.623 163.343 13.9212 188.985 6.47305C214.628 -0.975077 234.163 -3.3128 251.071 6.59992C267.979 16.5126 281.045 19.8471 285.938 35.7038C290.831 51.5605 292.987 78.1273 281.661 112.613C270.335 147.1 266.982 154.928 266.294 163.591C265.605 172.253 267.689 178.088 271.549 192.205C275.409 206.322 285.14 226.129 285.14 226.129C285.14 226.129 284.126 234.955 272.328 239.105C260.531 243.255 252.267 240.718 252.267 240.718C252.267 240.718 238.205 208.841 233.33 192.676C229.863 180.098 227.151 167.323 225.211 154.421C210.658 159.388 195.193 161.102 179.906 159.441C179.906 159.441 170.591 196.011 165.68 212.792C161.657 226.528 163.868 263.733 163.868 263.733C163.868 263.733 161.132 268.915 147.232 270.075C133.333 271.235 126.972 262.826 126.972 262.826C126.972 262.826 125.975 223.719 127.697 211.378C129.418 199.037 137.175 153.261 137.175 153.261C137.175 153.261 126.591 146.701 121.427 141.21C116.262 135.719 94.1167 44.0218 94.1167 44.0218Z" fill="#E0E0E0"/>
<path d="M13.1301 68.7765C16.2833 71.7122 19.8534 74.2131 22.0643 77.0582L30.7809 65.4058L23.4053 79.7946C24.1718 81.2807 24.6804 82.8862 24.9094 84.5426C25.5074 87.8589 32.9193 104.477 48.1236 106.289L74.9079 35.6132C74.9079 35.6132 79.8552 29.5424 72.6427 23.3447C65.4301 17.1469 50.0808 23.2178 36.6706 38.2047C28.1352 47.8461 20.27 58.0605 13.1301 68.7765Z" fill="#FFA8A7"/>
<path d="M84.8747 33.1114C83.1893 21.2052 71.1564 8.24803 51.041 23.398C30.9256 38.548 11.97 67.5431 11.97 67.5431L13.1298 68.7573C13.1298 68.7573 26.8662 48.0982 37.975 38.9829C49.0838 29.8675 60.4281 22.2925 69.4891 25.2827C75.9405 27.3848 74.9257 35.7209 74.9257 35.7209L84.8747 33.1114Z" fill="#E0E0E0"/>
<path opacity="0.1" d="M84.8747 33.1114C83.1893 21.2052 71.1564 8.24803 51.041 23.398C30.9256 38.548 11.97 67.5431 11.97 67.5431L13.1298 68.7573C13.1298 68.7573 26.8662 48.0982 37.975 38.9829C49.0838 29.8675 60.4281 22.2925 69.4891 25.2827C75.9405 27.3848 74.9257 35.7209 74.9257 35.7209L84.8747 33.1114Z" fill="black"/>
<path d="M122.297 48.353C116.099 38.8933 95.1138 26.0811 71.9902 36.8818C48.8665 47.6825 40.4942 66.2575 36.2717 79.5228C33.5677 88.7266 29.2746 97.3866 23.5864 105.111C9.95864 125.426 -0.479608 155.853 0.571466 181.223C1.62254 206.594 10.2486 221.653 23.7132 226.728C32.5568 230.062 42.9225 227.996 45.677 222.088C48.4316 216.181 51.4036 214.042 52.5996 211.831C53.7957 209.62 51.4761 205.942 46.2389 208.805C41.0016 211.668 40.0049 209.675 38.2833 210.617C36.5617 211.559 36.761 213.1 36.8879 214.894C37.0147 216.688 32.0493 217.703 28.5699 212.266C23.0065 203.604 25.3986 193.311 30.5271 179.937C39.5881 156.378 52.2735 147.317 58.3443 143.167C58.3443 143.167 62.6936 148.912 72.5519 147.462C83.6926 145.692 94.3014 141.47 103.613 135.103C114.613 127.854 125.359 119.464 132.246 102.483C139.984 83.3647 132.336 61.129 122.297 48.353Z" fill="#E0E0E0"/>
<path opacity="0.1" d="M134.946 92.3356L132.699 84.4163L107.165 78.5811C102.399 89.273 100.17 105.438 99.7712 116.402C99.3725 127.365 81.3049 140.667 70.7761 141.229C60.2472 141.79 71.5009 117.888 71.5009 117.888C71.5009 117.888 43.7562 132.621 31.8682 156.397C19.9802 180.173 17.0263 203.26 23.1878 212.792C29.3492 222.325 37.4679 220.639 38.8451 218.229C40.2224 215.819 39.1532 214.133 41.0923 212.901C43.0313 211.669 47.3444 211.596 48.9029 207.682C47.9861 207.866 47.1049 208.196 46.2933 208.661C41.0561 211.524 40.0593 209.53 38.3377 210.473C36.6161 211.415 36.8155 212.955 36.9423 214.75C37.0692 216.544 32.1038 217.558 28.6244 212.122C23.0609 203.46 25.453 193.166 30.5815 179.792C39.6425 156.234 52.3279 147.173 58.3988 143.023C58.3988 143.023 62.748 148.767 72.6064 147.318C83.7471 145.547 94.3559 141.326 103.667 134.959C114.667 127.71 125.414 119.319 132.3 102.339C133.581 99.123 134.469 95.7643 134.946 92.3356Z" fill="black"/>
<path d="M167.964 122.255L150.657 131.533L148.283 117.761L146.471 133.436C146.471 133.436 122.913 145.922 110.227 148.532C97.5418 151.141 100.622 143.258 102.217 134.379C106.222 111.925 101.782 106.29 107.201 78.6354C107.201 78.6354 114.993 55.0768 129.418 49.7671C143.843 44.4574 151.074 55.3668 155.17 67.3092C159.265 79.2516 167.964 122.255 167.964 122.255Z" fill="#FFA8A7"/>
<path d="M122.297 48.3533C133.442 41.6482 144.134 42.1012 151.292 53.8986C158.45 65.696 170.048 120.533 170.048 120.533L167.891 122.255C167.891 122.255 159.827 85.1409 155.405 73.561C150.984 61.9811 144.061 49.8212 134.003 57.2512C123.946 64.6812 121.535 79.0882 107.092 78.6533C107.165 78.6351 108.995 63.5939 122.297 48.3533Z" fill="#E0E0E0"/>
<path opacity="0.1" d="M122.297 48.3533C133.442 41.6482 144.134 42.1012 151.292 53.8986C158.45 65.696 170.048 120.533 170.048 120.533L167.891 122.255C167.891 122.255 159.827 85.1409 155.405 73.561C150.984 61.9811 144.061 49.8212 134.003 57.2512C123.946 64.6812 121.535 79.0882 107.092 78.6533C107.165 78.6351 108.995 63.5939 122.297 48.3533Z" fill="black"/>
<path d="M65.3395 131.225C62.2044 131.098 60.2292 134.052 55.9705 133.273C48.613 131.932 44.0644 123.251 47.9787 112.958C42.814 116.854 37.1055 130.065 44.7349 140.993C47.2904 144.728 51.0647 147.459 55.4118 148.719C59.7589 149.978 64.4086 149.688 68.5653 147.897C72.5883 145.958 70.5043 131.805 65.3395 131.225Z" fill="#FAFAFA"/>
<path opacity="0.1" d="M35.7282 125.57C34.1253 123.172 31.9684 121.196 29.4399 119.807C27.0346 118.258 24.4069 117.084 21.6475 116.328C20.7776 116.111 20.832 117.307 21.5025 117.578C23.9499 118.52 26.3192 119.653 28.5882 120.967C29.5667 121.583 30.5453 122.236 31.4877 122.943C32.7877 124.017 34.1491 125.016 35.5651 125.933C35.7463 126.023 35.7826 125.679 35.7282 125.57ZM26.2867 126.73C23.971 125.168 21.3637 124.089 18.6211 123.559C18.2043 123.559 18.3492 124.229 18.6211 124.356C20.9226 125.516 23.3147 126.422 25.5437 127.763C26.645 128.421 27.7042 129.147 28.715 129.938C29.6727 130.762 30.718 131.479 31.832 132.076C32.0313 132.076 32.0495 131.786 31.9951 131.695C30.5279 129.607 28.5669 127.913 26.2867 126.766V126.73ZM24.6195 135.102C25.4099 135.549 26.2663 135.867 27.1565 136.045C27.4465 136.045 27.4465 135.628 27.2653 135.501C25.7701 134.448 24.2016 133.503 22.5717 132.674C21.1219 131.822 19.7084 130.862 18.2043 130.083C17.8781 129.92 17.8418 130.481 18.0049 130.644C19.3656 131.907 20.8676 133.007 22.4811 133.924C23.1697 134.341 23.8765 134.74 24.6195 135.102ZM17.715 159.658C19.0314 160.171 20.4337 160.43 21.8468 160.419C22.1368 160.419 22.0461 159.857 21.8468 159.766C19.5223 158.814 17.1513 157.98 14.743 157.266C13.5288 156.794 12.3327 156.269 11.1186 155.743C9.9044 155.218 8.54527 154.439 7.22236 153.931C6.62434 153.696 6.64246 154.62 6.96866 154.873C9.14554 156.358 11.51 157.546 14 158.407C15.2323 158.842 16.4646 159.277 17.715 159.658ZM15.2866 166.635C16.2271 167.079 17.2548 167.308 18.2949 167.305C18.6392 167.305 18.458 166.707 18.2949 166.598C17.4194 166.191 16.5018 165.881 15.5585 165.674C14.5863 165.381 13.6306 165.036 12.6952 164.641C10.5931 163.771 8.59963 162.648 6.56997 161.615C6.22565 161.452 6.22565 162.05 6.42499 162.213C8.21654 163.549 10.1714 164.652 12.2422 165.493C13.3114 165.855 14.2356 166.236 15.2866 166.635ZM11.1911 172.76C11.237 172.721 11.2738 172.672 11.2991 172.617C11.3243 172.563 11.3374 172.503 11.3374 172.443C11.3374 172.382 11.3243 172.323 11.2991 172.268C11.2738 172.213 11.237 172.165 11.1911 172.126C10.831 171.955 10.4453 171.845 10.0494 171.799C9.71847 171.719 9.39186 171.623 9.07081 171.509C8.47279 171.31 7.89288 171.02 7.25861 170.785C6.62435 170.549 6.89617 171.219 7.11364 171.383C7.75522 171.856 8.47203 172.217 9.2339 172.452C9.54835 172.561 9.86908 172.652 10.1944 172.724C10.4843 172.742 10.9192 172.887 11.1911 172.705V172.76ZM15.5766 195.213C14.7837 194.802 13.9251 194.532 13.0395 194.416C12.2385 194.231 11.4278 194.092 10.6112 193.999C9.82329 193.908 9.03007 193.872 8.23719 193.89C7.33869 193.847 6.44167 194.002 5.60951 194.343C5.31956 194.506 5.41016 195.14 5.7726 195.14C6.60621 195.14 7.4217 195.14 8.23719 195.032C9.08576 195.023 9.93383 195.077 10.7743 195.195C11.5535 195.304 12.3509 195.43 13.1301 195.594C13.9167 195.861 14.7467 195.978 15.5766 195.938C15.8665 195.829 15.7578 195.285 15.5766 195.159V195.213ZM13.0033 199.508C12.6766 199.319 12.3108 199.207 11.9341 199.182L10.9917 199.055C10.359 198.991 9.72161 198.991 9.08892 199.055C8.81709 199.055 8.87146 199.635 9.08892 199.689C9.74131 199.816 10.43 199.852 11.0824 199.925L12.0428 200.07C12.3466 200.142 12.6632 200.142 12.967 200.07C13.0261 200.045 13.077 200.004 13.114 199.951C13.1511 199.899 13.1727 199.837 13.1764 199.773C13.1802 199.709 13.166 199.645 13.1354 199.588C13.1048 199.532 13.059 199.485 13.0033 199.454V199.508Z" fill="black"/>
<path d="M75.9229 104.333C75.3879 104.493 74.8186 104.499 74.2801 104.351C73.7417 104.203 73.2559 103.905 72.8786 103.494C72.5012 103.082 72.2476 102.572 72.1466 102.023C72.0457 101.474 72.1015 100.907 72.3078 100.388C72.5141 99.8688 72.8625 99.4185 73.313 99.0884C73.7635 98.7582 74.298 98.5618 74.855 98.5214C75.4121 98.4811 75.9692 98.5985 76.4625 98.8603C76.9559 99.122 77.3656 99.5175 77.6445 100.001C77.9753 100.806 77.9806 101.707 77.6594 102.515C77.3382 103.323 76.7155 103.975 75.9229 104.333Z" fill="black"/>
<path d="M263.721 241.15C262.544 237.924 260.928 234.875 258.918 232.089C258.383 231.253 257.68 230.537 256.852 229.987C256.436 229.714 255.954 229.558 255.456 229.536C254.959 229.514 254.465 229.626 254.025 229.86C253.526 230.31 253.146 230.876 252.918 231.509C252.69 232.141 252.623 232.82 252.721 233.485C252.735 235.055 252.851 236.623 253.065 238.178C253.192 239.084 253.301 239.991 253.518 240.987C256.891 241.555 260.331 241.61 263.721 241.15Z" fill="#FAFAFA"/>
<path d="M274.703 238.089C273.192 235.433 271.366 232.969 269.266 230.749C268.62 229.991 267.824 229.374 266.928 228.937C266.475 228.726 265.973 228.641 265.475 228.692C264.977 228.743 264.503 228.928 264.101 229.227C263.668 229.741 263.37 230.355 263.234 231.013C263.098 231.671 263.128 232.353 263.322 232.996C263.562 234.549 263.895 236.086 264.319 237.599C264.597 238.721 264.967 239.818 265.424 240.879C267.763 240.455 270.066 239.849 272.311 239.067C273.125 238.785 273.924 238.458 274.703 238.089Z" fill="#FAFAFA"/>
<path d="M147.505 261.611C147.137 260.687 146.574 259.853 145.855 259.165C145.491 258.823 145.042 258.585 144.555 258.474C144.068 258.362 143.56 258.382 143.083 258.53C142.508 258.884 142.031 259.377 141.696 259.962C141.36 260.548 141.177 261.208 141.162 261.883C140.895 263.43 140.72 264.991 140.636 266.559C140.555 267.669 140.555 268.783 140.636 269.893C142.816 270.195 145.022 270.256 147.215 270.074C148.302 269.984 149.28 269.857 150.241 269.73C149.644 266.928 148.726 264.203 147.505 261.611Z" fill="#FAFAFA"/>
<path d="M138.987 269.586C138.887 266.21 138.326 262.862 137.32 259.637C137.079 258.67 136.641 257.763 136.033 256.973C135.72 256.588 135.31 256.293 134.845 256.118C134.38 255.943 133.877 255.894 133.388 255.977C132.065 256.285 131.412 257.789 130.995 259.003C130.514 260.501 130.121 262.026 129.818 263.57C129.727 264.132 129.618 264.693 129.528 265.273C132.309 267.416 135.546 268.891 138.987 269.586Z" fill="#FAFAFA"/>
<path opacity="0.05" d="M244.294 111.853C244.294 111.853 240.416 132.892 226.697 141.681C212.979 150.47 189.185 147.245 189.185 147.245C189.638 141.192 185.415 128.978 185.415 128.978C184.297 139.232 182.449 149.394 179.888 159.386C195.175 161.047 210.64 159.334 225.193 154.367C231.856 149.606 237.135 143.161 240.491 135.692C243.846 128.222 245.159 119.995 244.294 111.853Z" fill="black"/>
</svg>
