<svg width="207" height="207" viewBox="0 0 207 207" fill="none" xmlns="http://www.w3.org/2000/svg">
<mask id="mask0_713_9141" style="mask-type:luminance" maskUnits="userSpaceOnUse" x="29" y="75" width="147" height="71">
<path d="M29.7944 129.448C29.7944 129.448 73.0493 74.5336 102.033 75.9833C131.017 77.433 175.671 128.204 175.671 128.204C175.671 128.204 101.92 165.506 29.7944 129.448Z" fill="white"/>
</mask>
<g mask="url(#mask0_713_9141)">
<path d="M29.7939 129.448C29.7939 129.448 73.0488 74.5336 102.033 75.9833C131.017 77.433 175.67 128.204 175.67 128.204C175.67 128.204 101.92 165.506 29.7939 129.448Z" fill="#363A5A"/>
<path opacity="0.9" d="M29.7939 129.448C29.7939 129.448 73.0488 74.5336 102.033 75.9833C131.017 77.433 175.67 128.204 175.67 128.204C175.67 128.204 101.92 165.506 29.7939 129.448Z" fill="#FAFAFA"/>
<path d="M34.6377 131.689C35.9744 132.224 37.5577 132.717 39.3056 133.375C40.1898 133.684 41.1152 134.033 42.1022 134.404L45.1867 135.339L48.6002 136.367L52.3222 137.303C54.8823 138.002 57.6789 138.506 60.6298 139.113C62.1 139.431 63.6423 139.616 65.2051 139.884C66.7679 140.151 68.3821 140.398 70.0478 140.573C85.6557 142.432 101.441 142.221 116.994 139.945C126.263 138.627 135.439 136.722 144.466 134.239C149.155 132.954 153.905 131.504 158.655 129.849C161.04 129.036 163.415 128.142 165.791 127.227L167.569 126.517H167.662H167.61L167.271 126.014C173.101 128.214 177.419 128.862 180.524 128.831L180.853 129.201C178.529 130.229 176.268 131.329 173.903 132.357L170.407 133.787L168.536 134.506C166.027 135.421 163.539 136.306 161.051 137.108C156.081 138.718 151.146 140.117 146.245 141.302C136.875 143.592 127.354 145.21 117.755 146.145C101.652 147.796 85.3959 147.104 69.4925 144.089C67.8064 143.801 66.1819 143.421 64.5985 143.061C63.0151 142.701 61.514 142.362 59.9923 141.93C57.0415 141.087 54.2551 140.357 51.7156 139.431L48.0245 138.177L44.6624 136.861L41.5779 135.637C40.6114 135.236 39.7066 134.794 38.8532 134.404C37.1465 133.612 35.6145 132.944 34.3293 132.285L31.1009 130.579L28.4585 129.17L31.2345 130.301L34.6377 131.689Z" fill="#363A5A"/>
<path d="M133.344 108.175C133.433 112.408 132.673 116.616 131.109 120.551C129.546 124.486 127.209 128.068 124.238 131.085C121.267 134.102 117.722 136.493 113.811 138.117C109.901 139.741 105.705 140.565 101.471 140.541C92.8485 140.503 84.5827 137.097 78.4362 131.05C72.2896 125.004 68.7489 116.795 68.5693 108.175C68.4773 103.947 69.2328 99.7429 70.7913 95.8116C72.3498 91.8802 74.6796 88.3007 77.6435 85.2841C80.6074 82.2675 84.1453 79.8749 88.0486 78.2474C91.9519 76.6199 96.1415 75.7904 100.37 75.8079C101.452 75.8058 102.533 75.8607 103.609 75.9724C111.641 76.7883 119.097 80.5125 124.574 86.4436C130.05 92.3747 133.169 100.104 133.344 108.175Z" fill="#363A5A"/>
<path opacity="0.3" d="M133.258 107.815V109.244C132.23 134.558 109.61 139.534 109.61 139.534C117.836 136.45 122.113 128.8 124.344 121.531C124.814 119.979 124.913 118.338 124.633 116.741C124.353 115.144 123.703 113.635 122.734 112.335C121.765 111.035 120.504 109.98 119.054 109.256C117.603 108.532 116.003 108.158 114.381 108.165H114.258C114.368 107.447 114.416 106.721 114.402 105.995C114.321 102.328 112.811 98.8384 110.192 96.27C107.574 93.7017 104.055 92.2586 100.388 92.2487C98.5923 92.2442 96.8141 92.5985 95.1574 93.2907C93.5008 93.983 91.9991 94.9992 90.7406 96.2797C89.4821 97.5602 88.4921 99.0793 87.8288 100.748C87.1654 102.416 86.842 104.2 86.8776 105.995C86.8977 106.724 86.9803 107.45 87.1244 108.165C85.5249 108.157 83.9454 108.52 82.5101 109.226C81.0747 109.932 79.8226 110.961 78.8521 112.232C77.8816 113.503 77.2192 114.983 76.9169 116.553C76.6146 118.124 76.6808 119.743 77.1101 121.284C79.1664 128.42 83.2791 135.833 91.1445 138.866C87.17 137.482 83.4779 135.392 80.246 132.697C74.6219 128.049 68.9361 120.359 68.5249 108.175C68.437 103.949 69.1959 99.7475 70.7569 95.8191C72.3179 91.8906 74.6493 88.3143 77.6139 85.3009C80.5785 82.2875 84.1162 79.8979 88.0186 78.2729C91.921 76.6479 96.1091 75.8204 100.336 75.8392C108.894 75.8769 117.104 79.2288 123.243 85.1911C129.381 91.1535 132.971 99.2623 133.258 107.815Z" fill="black"/>
<path opacity="0.7" d="M114.456 106.005C114.469 106.731 114.424 107.456 114.323 108.175C113.864 111.39 112.259 114.332 109.803 116.458C107.346 118.583 104.205 119.749 100.957 119.742C97.6733 119.729 94.4984 118.565 91.986 116.451C89.4737 114.337 87.7834 111.408 87.2101 108.175C87.0592 107.461 86.98 106.735 86.9736 106.005C86.9352 104.213 87.2554 102.431 87.9152 100.764C88.575 99.0972 89.5612 97.5789 90.8159 96.2983C92.0706 95.0178 93.5685 94.0008 95.2216 93.3071C96.8747 92.6134 98.6498 92.257 100.443 92.2588C104.11 92.2686 107.629 93.7118 110.247 96.2801C112.865 98.8485 114.376 102.339 114.456 106.005Z" fill="black"/>
<path opacity="0.7" d="M100.091 92.5157C100.124 93.9751 99.8648 95.4265 99.3287 96.7843C98.7925 98.1421 97.9902 99.3789 96.969 100.422C95.9478 101.465 94.7283 102.294 93.3823 102.859C92.0362 103.424 90.5908 103.714 89.131 103.712C86.1454 103.702 83.2819 102.526 81.1516 100.434C79.0214 98.3422 77.793 95.5006 77.7286 92.5157C77.697 91.0518 77.9588 89.5963 78.4986 88.2352C79.0383 86.8741 79.8451 85.6347 80.8713 84.5903C81.8976 83.5458 83.1225 82.7174 84.474 82.1538C85.8254 81.5902 87.276 81.3029 88.7403 81.3087C91.7187 81.3321 94.5706 82.5159 96.6901 84.6086C98.8097 86.7012 100.03 89.5378 100.091 92.5157Z" fill="#FAFAFA"/>
<path opacity="0.7" d="M34.6377 131.689C35.9744 132.224 37.5577 132.717 39.3056 133.375C40.1898 133.684 41.1152 134.033 42.1022 134.404L45.1867 135.339L48.6002 136.367L52.3222 137.303C54.8823 138.002 57.6789 138.506 60.6298 139.113C62.1 139.431 63.6423 139.616 65.2051 139.884C66.7679 140.151 68.3821 140.398 70.0478 140.573C85.6557 142.432 101.441 142.221 116.994 139.945C126.263 138.627 135.439 136.722 144.466 134.239C149.155 132.954 153.905 131.504 158.655 129.849C161.04 129.036 163.415 128.142 165.791 127.227L167.569 126.517H167.662H167.61L167.271 126.014C173.101 128.214 177.419 128.862 180.524 128.831L180.853 129.201C178.529 130.229 176.268 131.329 173.903 132.357L170.407 133.787L168.536 134.506C166.027 135.421 163.539 136.306 161.051 137.108C156.081 138.718 151.146 140.117 146.245 141.302C136.875 143.592 127.354 145.21 117.755 146.145C101.652 147.796 85.3959 147.104 69.4925 144.089C67.8064 143.801 66.1819 143.421 64.5985 143.061C63.0151 142.701 61.514 142.362 59.9923 141.93C57.0415 141.087 54.2551 140.357 51.7156 139.431L48.0245 138.177L44.6624 136.861L41.5779 135.637C40.6114 135.236 39.7066 134.794 38.8532 134.404C37.1465 133.612 35.6145 132.944 34.3293 132.285L31.1009 130.579L28.4585 129.17L31.2345 130.301L34.6377 131.689Z" fill="white"/>
</g>
<path d="M60.1003 68.2217C60.1003 68.2217 60.2442 68.7152 60.563 69.5686C61.0107 70.7702 61.5362 71.9413 62.1361 73.0746C63.0275 74.7865 64.1218 76.3848 65.3953 77.835C67.0517 79.7603 69.1022 81.3075 71.4081 82.3718C73.7141 83.4361 76.2218 83.9927 78.7615 84.004C80.8199 84.042 82.8671 83.6932 84.7968 82.9759C86.0949 82.5037 87.2814 81.7686 88.2823 80.8167C88.9814 80.097 89.1974 79.4904 89.002 79.0997C88.5702 78.2874 86.627 78.5445 83.8612 78.5342C80.4586 78.5942 77.0836 77.9136 73.9702 76.5395C70.687 74.908 67.5196 73.053 64.4905 70.9874C63.1951 70.1444 62.0949 69.4555 61.3135 68.9928C60.5321 68.5301 60.1003 68.2217 60.1003 68.2217Z" fill="#263238"/>
<path d="M36.0502 89.6475C36.0502 89.6475 36.225 90.069 36.626 90.8196C36.8678 91.2711 37.1428 91.7041 37.4485 92.1151C37.8395 92.6782 38.2726 93.2109 38.744 93.7087C39.3102 94.324 39.9295 94.8883 40.5947 95.3949C41.356 95.9951 42.1679 96.5283 43.0211 96.9886C44.9903 98.0263 47.1338 98.692 49.3444 98.9523C51.5628 99.1725 53.8018 99.0581 55.9863 98.6131C56.9325 98.4058 57.8607 98.1238 58.7624 97.77C59.5494 97.4761 60.3096 97.1149 61.0346 96.6904C63.7078 95.0967 64.7566 93.3694 64.3042 92.66C63.8518 91.9505 62.0319 92.1253 59.5232 92.4132C58.896 92.4749 58.2174 92.5674 57.4669 92.6086C56.7163 92.6497 55.976 92.6908 55.1843 92.7525C53.4686 92.7933 51.7519 92.7315 50.0435 92.5674C48.2339 92.3618 46.4963 92.1356 44.9027 91.8889C44.1007 91.7346 43.2987 91.6318 42.5688 91.457C41.8388 91.2822 41.1293 91.1383 40.5124 90.9738C39.8955 90.8093 39.2786 90.6345 38.7337 90.4803C38.2673 90.3601 37.8075 90.2159 37.3559 90.0484L36.0502 89.6475Z" fill="#263238"/>
<path d="M23.2538 115.733C23.2538 115.733 23.6137 115.97 24.282 116.34C25.2344 116.857 26.2414 117.267 27.2842 117.563C28.8339 118.021 30.4392 118.263 32.0549 118.283C34.0316 118.297 35.9974 117.988 37.8743 117.368C39.7383 116.726 41.5139 115.852 43.1591 114.767C44.5046 113.881 45.7253 112.82 46.7885 111.61C48.5775 109.554 49.0916 107.765 48.4747 107.168C47.8578 106.572 46.2333 107.066 44.0536 107.991L40.3316 109.585C38.9333 110.14 37.4219 110.736 35.8077 111.302C34.1935 111.867 32.6615 112.391 31.2221 112.936C29.7827 113.481 28.4358 113.965 27.2637 114.355C26.0915 114.746 25.0839 115.116 24.3745 115.383C23.6651 115.651 23.2538 115.733 23.2538 115.733Z" fill="#263238"/>
<path d="M139.856 67.5625C139.856 67.5625 139.353 67.7476 138.489 68.1383C137.625 68.529 136.433 69.1048 135.014 69.8245C132.186 71.2639 128.701 73.1866 125.411 74.6157C122.449 75.849 119.291 76.5453 116.085 76.672C113.412 76.8571 111.376 76.8366 110.78 77.8956C110.502 78.4097 110.656 79.1499 111.304 80.0033C112.235 81.1186 113.415 81.9991 114.749 82.5737C116.719 83.4606 118.849 83.9397 121.01 83.9823C123.716 84.0534 126.403 83.5195 128.876 82.4195C131.258 81.3545 133.368 79.7618 135.045 77.7619C136.316 76.2321 137.374 74.5374 138.191 72.7239C138.719 71.5204 139.159 70.2799 139.507 69.0122C139.754 68.0971 139.856 67.5625 139.856 67.5625Z" fill="#263238"/>
<path d="M164.183 86.5625L162.847 86.8298C162.435 86.9326 161.952 87.0354 161.376 87.128C160.801 87.2205 160.204 87.3542 159.515 87.4262C158.827 87.4981 158.148 87.6421 157.387 87.7038C156.626 87.7655 155.865 87.8477 155.074 87.9505C153.48 88.0739 151.825 88.2178 150.087 88.4132C148.35 88.6085 146.705 88.6497 145.162 88.6805C144.401 88.6805 143.651 88.6805 142.952 88.6805C142.253 88.6805 141.584 88.6805 140.957 88.6805C138.479 88.6085 136.567 88.6188 135.929 89.647C135.292 90.6752 136.238 92.5773 138.942 94.3766C139.669 94.8656 140.444 95.279 141.255 95.6103C142.178 96.0134 143.134 96.3334 144.114 96.5666C146.372 97.0804 148.698 97.2262 151.002 96.9984C153.301 96.7242 155.519 95.9824 157.521 94.8187C158.387 94.2995 159.203 93.7005 159.958 93.0297C160.639 92.4356 161.259 91.7742 161.808 91.0556C162.266 90.5048 162.673 89.9128 163.022 89.2871C163.311 88.8324 163.556 88.3503 163.752 87.8477C164.091 87.0252 164.183 86.5625 164.183 86.5625Z" fill="#263238"/>
<path d="M179.541 109.913C179.541 109.913 179.078 109.779 178.307 109.604C177.536 109.43 176.456 109.183 175.222 108.895C173.989 108.607 172.58 108.268 171.11 107.97C169.573 107.618 168.018 107.354 166.452 107.178C163.193 106.798 160.283 106.325 157.888 106.068C155.492 105.811 153.775 105.882 153.076 106.89C152.377 107.898 153.179 109.687 155.358 111.568C156.635 112.636 158.067 113.503 159.605 114.139C161.484 114.924 163.463 115.443 165.486 115.681C167.518 115.891 169.572 115.72 171.542 115.177C173.157 114.732 174.694 114.038 176.096 113.121C177.059 112.5 177.94 111.761 178.718 110.921C179.263 110.283 179.541 109.913 179.541 109.913Z" fill="#263238"/>
<path d="M99.4055 51.75C99.4055 51.75 99.3232 52.2538 99.241 53.0969C99.1587 53.94 99.0867 55.1532 98.9942 56.4898C98.7783 59.2659 98.5007 62.6588 98.1408 65.6508C98.1408 65.8461 98.1408 66.0415 98.1408 66.2163L98.0277 66.7509C97.9455 67.0902 97.9146 67.4604 97.8324 67.7791C97.666 68.4195 97.4669 69.0509 97.236 69.6709C97.0612 70.2981 96.7322 70.8225 96.5163 71.3982C96.3004 71.974 95.9714 72.4778 95.6732 72.9405C94.5422 74.9351 93.5038 76.3951 93.9048 77.5261C94.0796 78.0813 94.7479 78.4617 95.7246 78.5543C97.0683 78.5798 98.3948 78.2499 99.57 77.5981C100.394 77.1764 101.17 76.6662 101.883 76.0764C102.699 75.3551 103.427 74.5407 104.053 73.6499C104.761 72.6594 105.345 71.5855 105.79 70.4523C106.002 69.8562 106.181 69.2486 106.325 68.6325C106.407 68.3137 106.49 68.0053 106.561 67.6866C106.633 67.3678 106.644 67.0491 106.685 66.7304C106.747 66.0826 106.788 65.4452 106.798 64.8283C106.782 64.2251 106.724 63.6238 106.623 63.029C106.541 62.4532 106.438 61.8877 106.325 61.3428C106.212 60.7979 105.975 60.3146 105.79 59.8314C105.145 58.1365 104.236 56.5542 103.097 55.1429C102.318 54.2143 101.454 53.3607 100.516 52.5931C100.161 52.2927 99.7902 52.0113 99.4055 51.75Z" fill="#263238"/>
<path d="M36.1389 121.439C36.1389 121.439 33.5685 131.31 39.5935 132.842C45.6186 134.374 43.1201 135.32 43.1201 135.32L28.5408 129.336L36.1389 121.439Z" fill="#363A5A"/>
<path opacity="0.7" d="M36.1389 121.439C36.1389 121.439 33.5685 131.31 39.5935 132.842C45.6186 134.374 43.1201 135.32 43.1201 135.32L28.5408 129.336L36.1389 121.439Z" fill="white"/>
<path d="M28.537 129.171C28.9688 129.521 32.259 126.159 38.2018 120.185C41.1834 117.203 44.854 113.574 49.1929 109.492C53.5317 105.41 58.6006 100.876 64.4508 96.1979C67.3605 93.8846 70.4964 91.5712 73.838 89.3401C77.258 87.0203 80.8459 84.9582 84.572 83.1711C88.3522 81.2689 92.4141 79.9879 96.6016 79.3771L98.1541 79.2126C98.6785 79.2126 99.1823 79.2126 99.6963 79.2126C100.729 79.2267 101.759 79.3091 102.781 79.4594C104.992 79.8339 107.167 80.4016 109.279 81.1559C113.836 82.8464 118.211 84.9924 122.337 87.5614C126.762 90.2916 131.035 93.2605 135.137 96.455C143.857 103.292 152.149 110.657 159.967 118.509C162.024 120.565 163.967 122.54 165.89 124.534L167.267 126.015C173.097 128.215 177.415 128.863 180.52 128.832C185.404 128.832 187.286 127.063 187.286 127.063L183.091 126.837C180.214 126.683 177.513 125.401 175.575 123.27C174.763 122.375 173.93 121.481 173.107 120.586C172.624 120.062 172.079 119.558 171.647 119.034C169.684 116.977 167.658 114.921 165.591 112.865C157.535 104.763 148.948 97.206 139.887 90.2449C135.519 86.9033 130.964 83.8138 126.244 80.9914C121.619 78.2167 116.719 75.9288 111.623 74.1644C109.064 73.3075 106.431 72.688 103.758 72.3137C102.394 72.1365 101.02 72.0575 99.6449 72.0772C98.9458 72.0772 98.2569 72.0772 97.5886 72.1491L95.594 72.4062C90.679 73.2189 85.933 74.8414 81.5492 77.2077C77.6014 79.2724 73.82 81.6409 70.2394 84.2918C66.8156 86.7902 63.6591 89.3298 60.7597 91.8694C55.5852 96.4079 50.6501 101.212 45.9747 106.264C41.862 110.726 38.4896 114.715 35.837 118.046C30.583 124.791 28.1052 128.832 28.537 129.171Z" fill="#263238"/>
<path d="M91.901 155.904L91.9833 155.133C87.9529 154.701 84.0767 154.207 79.6453 153.519L79.5322 154.279C83.6963 154.927 87.8809 155.472 91.901 155.904Z" fill="#363A5A"/>
<path d="M113.227 156.572C157.058 156.572 181.137 142.26 181.394 142.105L180.993 141.447C180.736 141.601 154.868 156.962 107.922 155.728V156.5C109.69 156.551 111.489 156.572 113.227 156.572Z" fill="#363A5A"/>
</svg>
