<svg width="1000" height="1000" viewBox="0 0 1000 1000" fill="none" xmlns="http://www.w3.org/2000/svg">
<path d="M139.869 523.541C139.886 593.576 160.536 662.055 199.241 720.424C237.946 778.793 292.99 824.466 357.499 851.737C370.247 857.145 383.951 859.941 397.799 859.96H594.541C608.396 859.944 622.107 857.148 634.861 851.737C680.388 832.48 721.412 803.964 755.325 768C789.238 732.036 815.3 689.411 831.853 642.833C848.406 596.255 855.09 546.743 851.479 497.444C847.867 448.144 834.04 400.134 810.876 356.466H181.504C154.11 407.891 139.81 465.274 139.869 523.541Z" fill="#EAEAEA"/>
<path opacity="0.5" d="M139.869 523.541C139.886 593.576 160.536 662.055 199.241 720.424C237.946 778.793 292.99 824.466 357.499 851.737C370.247 857.145 383.951 859.941 397.799 859.96H594.541C608.396 859.944 622.107 857.148 634.861 851.737C680.388 832.48 721.412 803.964 755.325 768C789.238 732.036 815.3 689.411 831.853 642.833C848.406 596.255 855.09 546.743 851.479 497.444C847.867 448.144 834.04 400.134 810.876 356.466H181.504C154.11 407.891 139.81 465.274 139.869 523.541Z" fill="white"/>
<path d="M496.18 365.088C669.96 365.088 810.836 361.246 810.836 356.507C810.836 351.767 669.96 347.925 496.18 347.925C322.4 347.925 181.523 351.767 181.523 356.507C181.523 361.246 322.4 365.088 496.18 365.088Z" fill="#EFEDED"/>
<path opacity="0.1" d="M561.29 743.878C354.114 756.004 253.363 530.092 180.269 518.304C159.223 514.92 146.958 522.565 140.148 535.169C142.374 603.183 164.024 669.138 202.54 725.239C241.055 781.34 294.827 825.243 357.499 851.757C370.247 857.166 383.951 859.962 397.799 859.98H594.542C608.396 859.965 622.107 857.168 634.862 851.757C720.799 815.318 789.078 746.717 825.113 660.61C762.891 643.825 768.446 731.752 561.29 743.878Z" fill="#94D1FD"/>
<path opacity="0.2" d="M630.561 257.567H627.156C672.037 297.551 706.072 348.24 726.094 404.916C746.115 461.591 751.471 522.411 741.664 581.714C731.857 641.017 707.205 696.874 670.003 744.087C632.801 791.299 584.258 828.332 528.894 851.737C516.147 857.15 502.442 859.946 488.594 859.96H543.27C557.208 859.96 591.335 857.133 604.079 851.737C668.581 824.467 723.617 778.793 762.309 720.422C801.001 662.051 821.634 593.571 821.628 523.541C821.628 417.793 753.651 288.768 630.561 257.567Z" fill="white"/>
<path d="M733.222 257.567H259.336C214.452 297.544 180.411 348.226 160.383 404.897C140.354 461.567 134.989 522.384 144.786 581.685C154.583 640.987 179.225 696.847 216.416 744.064C253.608 791.281 302.141 828.321 357.498 851.737C370.246 857.146 383.95 859.942 397.798 859.96H594.541C608.396 859.945 622.106 857.148 634.861 851.737C690.228 828.338 738.776 791.311 775.985 744.104C813.194 696.896 837.855 641.042 847.672 581.74C857.489 522.438 852.143 461.617 832.132 404.937C812.121 348.257 778.095 297.561 733.222 257.567Z" stroke="#263238" stroke-width="1.03017" stroke-linecap="round" stroke-linejoin="round"/>
<path d="M359.451 847.134L359.446 847.132C304.866 824.045 257.014 787.525 220.344 740.97C183.675 694.415 159.379 639.34 149.719 580.87C140.06 522.401 145.35 462.438 165.097 406.563C184.634 351.284 217.692 301.784 261.247 262.567H731.31C774.854 301.801 807.898 351.314 827.417 406.601C847.147 462.486 852.418 522.454 842.739 580.924C833.06 639.393 808.745 694.463 772.058 741.009C735.371 787.554 687.505 824.061 632.915 847.131L632.908 847.134C620.77 852.284 607.721 854.945 594.535 854.96H397.805C384.626 854.943 371.584 852.281 359.451 847.134Z" stroke="#363A5A" stroke-width="10"/>
<path d="M328.626 653.72C328.626 653.72 334.599 625.605 329.94 624.59C325.281 623.574 322.792 656.01 322.792 656.01C322.792 656.01 318.949 625.187 313.852 626.661C308.754 628.134 318.232 657.563 318.232 657.563C318.232 657.563 306.703 629.687 302.661 630.483C298.62 631.28 312.756 659.454 312.756 659.454C312.756 659.454 297.266 635.561 293.881 637.671C290.496 639.782 306.405 662.819 306.405 662.819C306.405 662.819 290.994 641.176 288.166 643.326C285.339 645.477 298.48 663.237 299.834 664.99C298.54 663.217 286.474 647.069 284.104 649.319C281.735 651.569 294.418 667.737 295.493 669.091C294.518 667.857 283.706 654.317 281.297 655.791C278.888 657.264 289.719 670.764 289.719 670.764C289.719 670.764 281.635 660.37 279.206 662.122C276.777 663.875 284.841 672.197 284.841 672.197L281.337 673.372C274.806 658.094 268.998 642.516 263.914 626.641C285 623.077 318.71 613.201 320.223 587.615C322.214 555.1 314.768 592.772 314.768 592.772C314.768 592.772 313.015 563.164 309.531 564.1C306.046 565.035 310.546 600.796 310.546 600.796C310.546 600.796 301.766 563.323 298.839 564.677C296.35 565.832 302.522 593.688 304.434 602.01C302.562 594.046 296.33 568.679 293.463 569.934C290.078 571.407 299.436 606.311 299.436 606.311C299.436 606.311 290.257 576.445 287.907 576.863C285.558 577.281 294.637 608.94 294.637 608.94C294.637 608.94 282.053 574.672 278.708 576.206C275.363 577.739 289.958 612.802 289.958 612.802C289.958 612.802 273.671 581.621 271.182 582.736C268.693 583.851 282.73 609.776 284.801 613.659C282.949 610.194 271.66 589.486 269.231 590.82C267.459 591.796 273.074 602.488 276.976 609.457C273.412 603.484 268.195 595.221 267.021 596.555C265.288 598.645 276.438 616.566 276.438 616.566C276.438 616.566 265.766 600.736 263.695 602.369C261.625 604.002 272.257 617.72 272.257 617.72C272.257 617.72 263.038 607.944 261.266 609.756C259.494 611.568 269.231 620.05 269.231 620.05C269.231 620.05 264.711 618.059 260.848 616.665C255.651 599.422 251.311 581.94 247.786 564.338C269.191 563.164 304.274 556.951 308.456 531.266C313.752 498.771 302.482 535.846 302.482 535.846C302.482 535.846 303.856 505.979 300.272 506.497C296.688 507.014 297.445 543.452 297.445 543.452C297.445 543.452 290.615 504.744 289.58 505.919C287.27 508.547 287.37 515.875 288.266 524.217C286.852 516.631 285.199 510.14 283.686 510.618C280.162 511.733 285.896 547.812 285.896 547.812C285.896 547.812 279.923 516.731 277.514 516.99C275.104 517.249 280.859 549.923 280.859 549.923C280.859 549.923 271.919 514.083 268.394 515.317C264.87 516.552 275.762 553.288 275.762 553.288C275.762 553.288 262.799 520.215 260.231 521.052C257.662 521.888 268.892 549.604 270.545 553.586C269.071 549.943 259.992 527.881 257.443 528.956C255.572 529.733 260.052 541.082 263.198 548.509C260.271 542.078 255.95 533.257 254.695 534.472C252.704 536.463 261.963 555.578 261.963 555.578C261.963 555.578 253.003 538.534 250.753 539.947C248.503 541.361 257.682 556.294 257.682 556.294C257.682 556.294 248.085 545.562 246.134 547.255C244.182 548.947 254.337 558.325 254.337 558.325C254.337 558.325 249.578 555.498 245.755 553.746C242.848 537.817 240.618 521.729 239.025 505.74C259.673 508.249 283.089 503.41 295.135 484.495C313.852 455.046 289.799 486.088 289.799 486.088C289.799 486.088 298.56 457.615 294.02 456.221C289.48 454.827 283.766 488.079 283.766 488.079C283.766 488.079 283.029 455.862 277.792 456.957C272.556 458.053 279.047 489.253 279.047 489.253C279.047 489.253 270.385 459.387 266.284 460.004C262.182 460.621 273.412 490.767 273.412 490.767C273.412 490.767 260.41 464.882 256.826 466.873C253.242 468.864 266.782 493.793 266.782 493.793C266.782 493.793 253.62 470.298 250.594 472.329C247.567 474.36 258.937 493.594 260.052 495.525C258.976 493.674 248.543 476.112 245.974 478.262C243.406 480.413 254.377 497.915 255.333 499.408C254.457 498.034 245.058 483.479 242.53 484.753C240.001 486.028 249.439 500.682 249.439 500.682C249.439 500.682 240.997 489.632 238.408 491.284C235.82 492.937 244.381 501.837 244.381 501.837L238.607 503.41C238.466 502.508 237.994 501.691 237.284 501.117C236.574 500.543 235.676 500.254 234.764 500.304C233.732 500.489 232.814 501.073 232.21 501.931C231.606 502.788 231.365 503.849 231.539 504.884C231.549 504.95 231.549 505.017 231.539 505.083L228.014 504.247C228.014 504.247 237.074 496.581 236.576 494.291C236.079 492.001 224.371 502.255 224.371 502.255C224.371 502.255 232.952 490.966 230.782 489.572C228.612 488.178 220.827 500.802 220.827 500.802C220.827 500.802 227.776 483.937 225.386 482.782C222.997 481.627 216.486 500.862 216.486 500.862C216.486 500.862 223.017 479.377 220.866 477.625C219.592 476.57 216.884 485.192 214.754 492.24C216.884 483.997 219.433 472.727 217.621 472.15C215.411 471.413 210.612 489.034 208.561 497.079C210.871 487.68 216.347 464.544 214.256 464.006C211.628 463.349 202.508 501.061 202.508 501.061C204.26 487.959 206.909 458.67 205.794 458.471C205.794 458.471 198.207 486.167 196.933 498.293C196.933 498.293 199.183 461.079 196.774 460.999C194.365 460.92 191.617 496.84 191.617 496.84C191.935 483.519 191.358 454.25 190.323 454.15L185.863 496.282C185.863 496.282 185.166 449.132 184.329 449.053C184.329 449.053 179.59 493.933 179.571 493.933C179.551 493.933 179.232 454.548 173.597 450.287C172.184 449.212 173.597 485.789 173.597 485.789C173.597 485.789 158.604 441.984 167.126 481.169C173.358 509.702 208.94 510.459 231.917 507.054C233.351 521.443 235.342 535.839 237.89 550.241C234.764 551.695 229.627 561.451 229.627 561.451C229.627 561.451 236.895 545.244 234.087 544.188C231.28 543.133 225.088 557.768 223.793 560.794C225.227 557.449 232.574 539.848 229.926 538.056C227.278 536.264 219.731 554.502 218.437 557.708C219.771 554.343 227.696 534.153 224.769 532.52C221.842 530.888 211.389 557.31 211.389 557.31C211.389 557.31 221.802 529.056 218.099 527.443C214.395 525.83 204.38 555.319 204.38 555.319C204.38 555.319 212.344 521.35 208.223 521.012C204.101 520.673 198.586 554.582 198.586 554.582C198.586 554.582 201.851 519.299 196.595 518.364C191.338 517.428 193.628 553.865 193.628 553.865C193.628 553.865 184.688 516.333 180.248 518.304C175.807 520.275 187.396 552.69 187.396 552.69C187.396 552.69 160.535 520.116 181.88 551.655C194.564 570.372 220.807 571.268 240.459 564.737C243.963 582.418 248.304 599.999 253.461 617.342C251.591 620.289 249.914 623.356 248.443 626.521C248.443 626.521 251.609 609.617 249.081 608.82C246.552 608.024 244.143 627.118 244.143 627.118C244.143 627.118 247.687 605.555 245.337 604.141C243.904 603.285 242.311 611.986 241.236 619.035C242.231 610.791 243.227 599.601 241.355 599.263C239.045 598.845 236.696 616.486 235.74 624.49C236.756 615.172 239.065 592.115 236.915 591.856C234.207 591.537 230.284 629.05 230.284 629.05C230.284 616.227 232.753 591.557 227.756 587.555C226.362 586.44 224.371 627.099 224.371 627.099C224.371 627.099 221.543 590.9 219.154 591.099C216.765 591.298 218.915 626.362 218.915 626.362C217.442 613.499 212.942 585.285 211.827 585.325L213.081 626.541C213.081 626.541 206.013 581.104 205.117 581.144C205.117 581.144 206.51 624.948 206.49 624.948C206.471 624.948 200.796 586.997 194.683 583.533C193.09 582.637 199.402 617.8 199.402 617.8C199.402 617.8 178.515 577.261 192.354 614.097C202.309 640.32 235.621 637.592 257.921 631.738C261.81 643.565 266.085 655.253 270.744 666.801C269.649 670.566 268.916 674.426 268.554 678.33C268.554 678.33 269.131 660.41 266.204 660.748C263.576 660.967 263.118 676.956 263.058 680.301C263.058 676.598 263.237 657.463 260.191 657.005C257.145 656.547 257.085 676.419 257.105 679.903C257.105 676.259 256.726 654.437 253.481 654.257C249.937 654.058 250.634 682.73 250.634 682.73C250.634 682.73 249.519 652.446 245.576 652.605C241.634 652.764 243.585 684.025 243.585 684.025C243.585 684.025 238.109 649.598 234.287 651.171C230.464 652.744 238.149 686.016 238.149 686.016C238.149 686.016 227.915 652.525 222.838 654.158C217.76 655.791 233.629 687.748 233.629 687.748C233.629 687.748 211.608 657.881 208.382 661.863C205.156 665.846 227.636 689.58 227.636 689.58C227.636 689.58 191.438 672.974 222.36 691.232C240.041 701.686 261.545 691.949 276.12 679.684C287.98 707.004 302.358 733.161 319.068 757.815C319.526 758.556 320.23 759.111 321.057 759.384C321.883 759.658 322.779 759.631 323.588 759.309C323.816 759.203 324.03 759.069 324.225 758.911C325.012 758.263 325.521 757.339 325.647 756.328C325.773 755.316 325.506 754.296 324.902 753.475C308.486 729.219 294.362 703.489 282.711 676.618C302.502 677.036 323.887 670.485 333.763 651.689C349.592 621.623 328.626 653.72 328.626 653.72Z" fill="#EAEAEA"/>
<path opacity="0.3" d="M328.626 653.72C328.626 653.72 334.599 625.605 329.94 624.59C325.281 623.574 322.792 656.01 322.792 656.01C322.792 656.01 318.949 625.187 313.852 626.661C308.754 628.134 318.232 657.563 318.232 657.563C318.232 657.563 306.703 629.687 302.661 630.483C298.62 631.28 312.756 659.454 312.756 659.454C312.756 659.454 297.266 635.561 293.881 637.671C290.496 639.782 306.405 662.819 306.405 662.819C306.405 662.819 290.994 641.176 288.166 643.326C285.339 645.477 298.48 663.237 299.834 664.99C298.54 663.217 286.474 647.069 284.104 649.319C281.735 651.569 294.418 667.737 295.493 669.091C294.518 667.857 283.706 654.317 281.297 655.791C278.888 657.264 289.719 670.764 289.719 670.764C289.719 670.764 281.635 660.37 279.206 662.122C276.777 663.875 284.841 672.197 284.841 672.197L281.337 673.372C274.806 658.094 268.998 642.516 263.914 626.641C285 623.077 318.71 613.201 320.223 587.615C322.214 555.1 314.768 592.772 314.768 592.772C314.768 592.772 313.015 563.164 309.531 564.1C306.046 565.035 310.546 600.796 310.546 600.796C310.546 600.796 301.766 563.323 298.839 564.677C296.35 565.832 302.522 593.688 304.434 602.01C302.562 594.046 296.33 568.679 293.463 569.934C290.078 571.407 299.436 606.311 299.436 606.311C299.436 606.311 290.257 576.445 287.907 576.863C285.558 577.281 294.637 608.94 294.637 608.94C294.637 608.94 282.053 574.672 278.708 576.206C275.363 577.739 289.958 612.802 289.958 612.802C289.958 612.802 273.671 581.621 271.182 582.736C268.693 583.851 282.73 609.776 284.801 613.659C282.949 610.194 271.66 589.486 269.231 590.82C267.459 591.796 273.074 602.488 276.976 609.457C273.412 603.484 268.195 595.221 267.021 596.555C265.288 598.645 276.438 616.566 276.438 616.566C276.438 616.566 265.766 600.736 263.695 602.369C261.625 604.002 272.257 617.72 272.257 617.72C272.257 617.72 263.038 607.944 261.266 609.756C259.494 611.568 269.231 620.05 269.231 620.05C269.231 620.05 264.711 618.059 260.848 616.665C255.651 599.422 251.311 581.94 247.786 564.338C269.191 563.164 304.274 556.951 308.456 531.266C313.752 498.771 302.482 535.846 302.482 535.846C302.482 535.846 303.856 505.979 300.272 506.497C296.688 507.014 297.445 543.452 297.445 543.452C297.445 543.452 290.615 504.744 289.58 505.919C287.27 508.547 287.37 515.875 288.266 524.217C286.852 516.631 285.199 510.14 283.686 510.618C280.162 511.733 285.896 547.812 285.896 547.812C285.896 547.812 279.923 516.731 277.514 516.99C275.104 517.249 280.859 549.923 280.859 549.923C280.859 549.923 271.919 514.083 268.394 515.317C264.87 516.552 275.762 553.288 275.762 553.288C275.762 553.288 262.799 520.215 260.231 521.052C257.662 521.888 268.892 549.604 270.545 553.586C269.071 549.943 259.992 527.881 257.443 528.956C255.572 529.733 260.052 541.082 263.198 548.509C260.271 542.078 255.95 533.257 254.695 534.472C252.704 536.463 261.963 555.578 261.963 555.578C261.963 555.578 253.003 538.534 250.753 539.947C248.503 541.361 257.682 556.294 257.682 556.294C257.682 556.294 248.085 545.562 246.134 547.255C244.182 548.947 254.337 558.325 254.337 558.325C254.337 558.325 249.578 555.498 245.755 553.746C242.848 537.817 240.618 521.729 239.025 505.74C259.673 508.249 283.089 503.41 295.135 484.495C313.852 455.046 289.799 486.088 289.799 486.088C289.799 486.088 298.56 457.615 294.02 456.221C289.48 454.827 283.766 488.079 283.766 488.079C283.766 488.079 283.029 455.862 277.792 456.957C272.556 458.053 279.047 489.253 279.047 489.253C279.047 489.253 270.385 459.387 266.284 460.004C262.182 460.621 273.412 490.767 273.412 490.767C273.412 490.767 260.41 464.882 256.826 466.873C253.242 468.864 266.782 493.793 266.782 493.793C266.782 493.793 253.62 470.298 250.594 472.329C247.567 474.36 258.937 493.594 260.052 495.525C258.976 493.674 248.543 476.112 245.974 478.262C243.406 480.413 254.377 497.915 255.333 499.408C254.457 498.034 245.058 483.479 242.53 484.753C240.001 486.028 249.439 500.682 249.439 500.682C249.439 500.682 240.997 489.632 238.408 491.284C235.82 492.937 244.381 501.837 244.381 501.837L238.607 503.41C238.466 502.508 237.994 501.691 237.284 501.117C236.574 500.543 235.676 500.254 234.764 500.304C233.732 500.489 232.814 501.073 232.21 501.931C231.606 502.788 231.365 503.849 231.539 504.884C231.549 504.95 231.549 505.017 231.539 505.083L228.014 504.247C228.014 504.247 237.074 496.581 236.576 494.291C236.079 492.001 224.371 502.255 224.371 502.255C224.371 502.255 232.952 490.966 230.782 489.572C228.612 488.178 220.827 500.802 220.827 500.802C220.827 500.802 227.776 483.937 225.386 482.782C222.997 481.627 216.486 500.862 216.486 500.862C216.486 500.862 223.017 479.377 220.866 477.625C219.592 476.57 216.884 485.192 214.754 492.24C216.884 483.997 219.433 472.727 217.621 472.15C215.411 471.413 210.612 489.034 208.561 497.079C210.871 487.68 216.347 464.544 214.256 464.006C211.628 463.349 202.508 501.061 202.508 501.061C204.26 487.959 206.909 458.67 205.794 458.471C205.794 458.471 198.207 486.167 196.933 498.293C196.933 498.293 199.183 461.079 196.774 460.999C194.365 460.92 191.617 496.84 191.617 496.84C191.935 483.519 191.358 454.25 190.323 454.15L185.863 496.282C185.863 496.282 185.166 449.132 184.329 449.053C184.329 449.053 179.59 493.933 179.571 493.933C179.551 493.933 179.232 454.548 173.597 450.287C172.184 449.212 173.597 485.789 173.597 485.789C173.597 485.789 158.604 441.984 167.126 481.169C173.358 509.702 208.94 510.459 231.917 507.054C233.351 521.443 235.342 535.839 237.89 550.241C234.764 551.695 229.627 561.451 229.627 561.451C229.627 561.451 236.895 545.244 234.087 544.188C231.28 543.133 225.088 557.768 223.793 560.794C225.227 557.449 232.574 539.848 229.926 538.056C227.278 536.264 219.731 554.502 218.437 557.708C219.771 554.343 227.696 534.153 224.769 532.52C221.842 530.888 211.389 557.31 211.389 557.31C211.389 557.31 221.802 529.056 218.099 527.443C214.395 525.83 204.38 555.319 204.38 555.319C204.38 555.319 212.344 521.35 208.223 521.012C204.101 520.673 198.586 554.582 198.586 554.582C198.586 554.582 201.851 519.299 196.595 518.364C191.338 517.428 193.628 553.865 193.628 553.865C193.628 553.865 184.688 516.333 180.248 518.304C175.807 520.275 187.396 552.69 187.396 552.69C187.396 552.69 160.535 520.116 181.88 551.655C194.564 570.372 220.807 571.268 240.459 564.737C243.963 582.418 248.304 599.999 253.461 617.342C251.591 620.289 249.914 623.356 248.443 626.521C248.443 626.521 251.609 609.617 249.081 608.82C246.552 608.024 244.143 627.118 244.143 627.118C244.143 627.118 247.687 605.555 245.337 604.141C243.904 603.285 242.311 611.986 241.236 619.035C242.231 610.791 243.227 599.601 241.355 599.263C239.045 598.845 236.696 616.486 235.74 624.49C236.756 615.172 239.065 592.115 236.915 591.856C234.207 591.537 230.284 629.05 230.284 629.05C230.284 616.227 232.753 591.557 227.756 587.555C226.362 586.44 224.371 627.099 224.371 627.099C224.371 627.099 221.543 590.9 219.154 591.099C216.765 591.298 218.915 626.362 218.915 626.362C217.442 613.499 212.942 585.285 211.827 585.325L213.081 626.541C213.081 626.541 206.013 581.104 205.117 581.144C205.117 581.144 206.51 624.948 206.49 624.948C206.471 624.948 200.796 586.997 194.683 583.533C193.09 582.637 199.402 617.8 199.402 617.8C199.402 617.8 178.515 577.261 192.354 614.097C202.309 640.32 235.621 637.592 257.921 631.738C261.81 643.565 266.085 655.253 270.744 666.801C269.649 670.566 268.916 674.426 268.554 678.33C268.554 678.33 269.131 660.41 266.204 660.748C263.576 660.967 263.118 676.956 263.058 680.301C263.058 676.598 263.237 657.463 260.191 657.005C257.145 656.547 257.085 676.419 257.105 679.903C257.105 676.259 256.726 654.437 253.481 654.257C249.937 654.058 250.634 682.73 250.634 682.73C250.634 682.73 249.519 652.446 245.576 652.605C241.634 652.764 243.585 684.025 243.585 684.025C243.585 684.025 238.109 649.598 234.287 651.171C230.464 652.744 238.149 686.016 238.149 686.016C238.149 686.016 227.915 652.525 222.838 654.158C217.76 655.791 233.629 687.748 233.629 687.748C233.629 687.748 211.608 657.881 208.382 661.863C205.156 665.846 227.636 689.58 227.636 689.58C227.636 689.58 191.438 672.974 222.36 691.232C240.041 701.686 261.545 691.949 276.12 679.684C287.98 707.004 302.358 733.161 319.068 757.815C319.526 758.556 320.23 759.111 321.057 759.384C321.883 759.658 322.779 759.631 323.588 759.309C323.816 759.203 324.03 759.069 324.225 758.911C325.012 758.263 325.521 757.339 325.647 756.328C325.773 755.316 325.506 754.296 324.902 753.475C308.486 729.219 294.362 703.489 282.711 676.618C302.502 677.036 323.887 670.485 333.763 651.689C349.592 621.623 328.626 653.72 328.626 653.72Z" fill="#46E343"/>
<path d="M393.417 650.893C393.417 650.893 407.495 616.546 401.82 614.196C396.145 611.847 385.473 652.466 385.473 652.466C385.473 652.466 387.723 612.385 380.893 613.081C374.064 613.778 379.32 653.362 379.32 653.362C379.32 653.362 371.137 615.311 365.82 615.311C360.504 615.311 371.913 654.477 371.913 654.477C371.913 654.477 357.756 620.628 352.978 622.4C348.199 624.172 363.073 657.284 363.073 657.284C363.073 657.284 348.498 626.203 344.396 628.294C340.294 630.384 352.938 655.871 354.232 658.499C352.978 655.97 341.389 632.614 337.865 634.964C334.341 637.313 346.706 660.749 347.821 662.72C346.865 660.928 336.252 641.216 332.847 642.53C329.443 643.844 340.095 663.497 340.095 663.497C340.095 663.497 332.23 648.424 328.726 650.096C325.222 651.769 333.564 664.193 333.564 664.193L328.845 664.87C324.067 643.964 320.323 622.778 317.516 601.473C345.133 601.832 390.251 597.073 398.116 564.936C408.072 524.058 389.973 570.213 389.973 570.213C389.973 570.213 394.612 532.182 389.973 532.561C385.333 532.939 382.785 579.471 382.785 579.471C382.785 579.471 380.316 529.833 376.274 530.868C372.849 531.764 374.283 568.58 374.761 579.591C374.223 569.078 372.172 535.368 368.25 536.284C363.59 537.399 367.493 583.931 367.493 583.931C367.493 583.931 362.774 543.731 359.668 543.85C356.562 543.97 360.803 586.142 360.803 586.142C360.803 586.142 352.719 539.709 348.08 540.863C343.44 542.018 353.914 589.964 353.914 589.964C353.914 589.964 340.414 546.578 337.009 547.414C333.604 548.251 345.431 584.449 347.164 589.865C345.591 585.027 336.053 556.016 332.668 557.23C330.199 558.047 334.839 572.94 338.184 582.717C335.058 574.235 330.219 562.587 328.586 564.02C325.879 566.27 335.914 591.617 335.914 591.617C335.914 591.617 325.958 569.038 322.991 570.651C320.025 572.263 330.339 592.135 330.339 592.135C330.339 592.135 320.881 577.56 318.193 579.551C315.505 581.542 325.839 594.425 325.839 594.425C325.839 594.425 320.542 590.781 315.883 588.192C313.295 565.095 311.901 541.879 311.423 518.702C338.881 522.147 384.895 522.366 396.165 490.827C410.421 450.765 387.524 495.267 387.524 495.267C387.524 495.267 396.185 457.535 391.506 457.436C386.827 457.336 379.36 503.749 379.36 503.749C379.36 503.749 379.639 452.995 378.046 454.25C374.502 457.057 372.909 466.416 372.073 477.168C372.073 467.212 371.455 458.571 369.424 458.829C364.666 459.447 363.61 506.616 363.61 506.616C363.61 506.616 363.192 465.739 360.086 465.52C356.98 465.301 356.721 508.13 356.721 508.13C356.721 508.13 353.635 460.621 348.876 461.278C344.117 461.936 349.453 511.216 349.453 511.216C349.453 511.216 340.673 466.197 337.188 466.674C333.704 467.152 341.628 504.804 342.783 510.479C341.728 505.501 335.297 475.376 331.812 476.152C329.263 476.71 332.31 492.081 334.62 502.335C332.39 493.475 328.925 481.269 327.033 482.524C324.106 484.515 331.394 511.017 331.394 511.017C331.394 511.017 323.967 487.283 320.781 488.577C317.596 489.871 325.799 510.937 325.799 510.937C325.799 510.937 316.082 495.008 313.215 496.78C310.348 498.552 321.18 512.709 321.18 512.709C321.18 512.709 315.784 508.01 311.224 504.884C311.224 483.937 312.12 463.071 313.792 442.343C339.438 450.307 370.32 449.591 389.993 428.405C420.616 395.333 382.844 429.182 382.844 429.182C382.844 429.182 400.585 395.034 395.169 392.087C389.754 389.14 374.82 429.918 374.82 429.918C374.82 429.918 381.371 388.822 374.482 389.001C367.592 389.18 368.508 430.337 368.508 430.337C368.508 430.337 364.407 390.514 359.071 390.215C353.734 389.917 361.062 430.934 361.062 430.934C361.062 430.934 350.509 395.094 345.551 396.647C340.593 398.2 351.942 433.144 351.942 433.144C351.942 433.144 340.673 400.271 336.352 402.142C332.031 404.014 342.007 431.093 343.002 433.801C342.046 431.193 332.867 406.463 329.064 408.593C325.261 410.724 335.197 435.513 336.053 437.644C335.257 435.653 326.735 414.905 323.191 416.06C319.646 417.215 328.268 437.962 328.268 437.962C328.268 437.962 320.104 422.034 316.441 423.487C312.777 424.941 321.677 438.261 321.677 438.261L313.992 438.938C314.016 437.758 313.602 436.61 312.829 435.716C312.057 434.823 310.982 434.247 309.81 434.1C308.462 434.12 307.174 434.658 306.214 435.604C305.253 436.55 304.694 437.83 304.653 439.177C304.663 439.263 304.663 439.35 304.653 439.436L300.372 437.544C300.372 437.544 313.653 429.918 313.534 426.991C313.414 424.064 296.191 434.279 296.191 434.279C296.191 434.279 309.691 421.934 307.262 419.644C304.832 417.354 291.89 431.591 291.89 431.591C291.89 431.591 304.633 411.779 301.846 409.689C299.058 407.598 286.375 430.595 286.375 430.595C286.375 430.595 299.636 404.81 297.326 402.102C295.932 400.47 290.377 410.764 286.156 419.266C290.775 409.31 296.609 395.532 294.459 394.377C291.811 392.943 281.656 414.288 277.156 423.945C282.273 412.556 294.598 384.441 292.069 383.266C288.884 381.813 268.574 427.609 268.574 427.609C273.811 411.361 283.946 374.784 282.612 374.267C282.612 374.267 266.523 407.697 262.123 422.85C262.123 422.85 273.572 376.079 270.545 375.402C267.519 374.725 255.692 419.803 255.692 419.803C259.176 402.959 265.229 365.625 263.915 365.267L248.464 417.773C248.464 417.773 258.419 357.701 257.464 357.402C257.464 357.402 241.037 413.332 241.017 413.332C240.997 413.332 249.718 363.216 243.586 356.506C242.033 354.793 235.263 401.585 235.263 401.585C235.263 401.585 226.343 342.548 228.115 394.218C229.429 431.929 274.548 441.128 304.454 442.004C302.967 460.588 302.131 479.338 301.945 498.254C297.625 499.369 288.864 510.579 288.864 510.579C288.864 510.579 301.826 491.683 298.501 489.672C295.534 487.88 283.946 504.864 281.576 508.388C284.165 504.406 297.605 483.818 294.638 480.931C291.671 478.044 277.873 499.468 275.483 503.231C277.972 499.249 292.707 475.356 289.421 472.688C285.777 469.701 266.683 501.101 266.683 501.101C266.683 501.101 286.454 467.61 282.134 464.683C277.813 461.756 258.24 496.82 258.24 496.82C258.24 496.82 276.16 455.504 271.083 454.13C266.006 452.757 251.172 494.55 251.172 494.55C251.172 494.55 263.318 450.546 256.866 448.057C250.415 445.569 245.039 492.678 245.039 492.678C245.039 492.678 242.371 442.9 236.258 444.414C230.146 445.927 237.433 489.871 237.433 489.871C237.433 489.871 210.872 442.263 230.683 487.243C242.451 513.983 275.603 521.211 302.065 517.428C302.443 540.724 303.877 564.08 306.425 587.296C303.356 590.602 300.509 594.107 297.903 597.79C297.903 597.79 305.868 577.062 302.821 575.449C299.775 573.836 292.308 597.571 292.308 597.571C292.308 597.571 301.806 570.989 299.138 568.64C297.545 567.226 293.483 577.898 290.496 586.56C293.662 576.325 297.525 562.328 295.215 561.452C292.388 560.396 285.26 582.279 282.253 592.214C285.698 580.606 293.961 551.835 291.293 551.018C287.948 549.983 274.269 596.814 274.269 596.814C277.176 580.507 286.076 549.744 280.66 543.492C279.147 541.74 267.22 592.951 267.22 592.951C267.22 592.951 271.999 546.319 268.893 546.021C265.787 545.722 260.431 590.761 260.431 590.761C261.546 574.075 262.302 537.16 260.908 537.001L252.944 589.646C252.944 589.646 254.497 530.291 253.382 530.131C253.382 530.131 244.979 586.201 244.96 586.201C244.94 586.201 246.513 536.662 239.564 530.828C237.732 529.315 237.572 575.469 237.572 575.469C237.572 575.469 220.429 519.12 229.469 569.117C235.92 604.719 279.008 608.94 308.695 606.73C310.885 622.659 313.607 638.495 316.859 654.238C314.597 658.765 312.777 663.499 311.423 668.375C311.423 668.375 316.281 645.835 312.498 645.497C309.113 645.178 304.832 665.408 303.976 669.609C304.892 664.93 309.492 640.638 305.728 639.364C301.965 638.09 297.286 663.258 296.49 667.738C297.286 663.098 301.906 635.282 297.824 634.307C293.384 633.232 287.629 669.828 287.629 669.828C287.629 669.828 293.224 631.081 288.187 630.384C283.149 629.687 278.37 669.848 278.37 669.848C278.37 669.848 279.386 624.829 274.149 625.944C268.913 627.059 271.043 671.063 271.043 671.063C271.043 671.063 265.787 626.143 258.977 627.019C252.167 627.895 264.95 672.178 264.95 672.178C264.95 672.178 243.825 629.249 238.827 633.49C233.829 637.731 256.866 673.173 256.866 673.173C256.866 673.173 214.695 643.685 249.758 674.049C269.809 691.412 299.377 684.005 320.801 671.819C329.521 709.244 341.714 745.773 357.219 780.933C357.628 781.98 358.393 782.85 359.38 783.389C360.367 783.928 361.512 784.102 362.615 783.88C362.932 783.802 363.239 783.689 363.531 783.541C364.673 782.893 365.526 781.836 365.918 780.583C366.31 779.329 366.211 777.974 365.641 776.791C350.372 742.145 338.373 706.149 329.801 669.271C354.829 674.388 383.561 671.003 400.406 649.36C427.485 614.973 393.417 650.893 393.417 650.893Z" fill="#2EB865" stroke="#363A5A" stroke-width="2" stroke-miterlimit="10"/>
<path d="M335.256 762.236C335.256 762.236 347.083 747.92 367.114 757.258C367.114 757.258 394.492 752.898 409.445 771.574C409.445 771.574 427.484 764.108 439.312 777.169C439.312 777.169 454.384 779.698 455.5 784.636C455.5 784.636 474.813 774.681 480.408 784.636C480.408 784.636 509.658 775.935 518.379 788.997C527.1 802.058 504.063 815.777 504.063 815.777H461.015L393.775 809.545L358.89 788.997L335.256 762.236Z" fill="#858585" stroke="#263238" stroke-width="1.03017" stroke-linecap="round" stroke-linejoin="round"/>
<path d="M736.148 786.767C736.407 764.327 705.027 782.147 705.027 782.147C701.045 760.086 682.01 780.913 682.01 780.913C667.693 767.214 641.53 794.612 641.53 794.612C640.296 785.273 622.236 789.614 622.236 789.614C617.258 769.086 583.031 787.125 583.031 787.125C578.671 770.957 559.994 782.784 559.994 782.784C545.678 767.214 534.468 787.125 534.468 787.125C520.152 779.041 505.218 790.868 505.218 790.868C497.114 784.636 485.904 794.612 485.904 794.612C477.82 785.891 451.04 790.251 451.04 790.251C433 775.298 407.474 784.019 407.474 784.019C394.393 771.574 382.565 777.169 382.565 777.169C376.353 763.471 364.526 766.597 364.526 766.597C358.911 757.258 345.232 757.876 345.232 757.876C332.15 746.048 314.728 752.281 314.728 752.281C301.029 736.093 282.352 749.792 282.352 749.792C271.142 728.626 248.742 737.964 248.742 737.964C231.101 719.248 214.893 722.175 204.42 728.009C242.864 782.772 295.898 825.652 357.497 851.777C370.245 857.185 383.949 859.982 397.797 860H594.54C608.395 859.984 622.105 857.188 634.86 851.777C672.064 836.005 706.315 814.022 736.148 786.767Z" fill="#363A5A" stroke="#263238" stroke-width="0.772628" stroke-linecap="round" stroke-linejoin="round"/>
<path d="M275.801 761.34C274.129 766.457 267.259 758.533 256.726 755.088C246.193 751.643 235.959 753.953 237.632 748.816C239.304 743.679 249.22 742.345 259.773 745.79C270.326 749.234 277.494 756.203 275.801 761.34Z" fill="#858585" stroke="#263238" stroke-width="1.03017" stroke-linecap="round" stroke-linejoin="round"/>
<path d="M704.489 791.824C706.022 797.001 695.868 794.353 685.215 797.499C674.563 800.645 667.494 808.35 665.961 803.174C664.428 797.997 671.815 791.227 682.468 788.121C693.12 785.015 702.956 786.647 704.489 791.824Z" fill="#999999" stroke="#263238" stroke-width="1.03017" stroke-linecap="round" stroke-linejoin="round"/>
<path d="M307.897 780.973C306.782 785.154 300.928 779.121 292.307 776.811C283.685 774.501 275.621 776.811 276.736 772.67C277.851 768.528 285.736 766.935 294.338 769.245C302.94 771.555 309.112 776.791 307.897 780.973Z" fill="#999999" stroke="#263238" stroke-width="1.03017" stroke-linecap="round" stroke-linejoin="round"/>
<path d="M401.62 787.563C401.62 791.007 395.886 787.722 388.797 787.901C381.709 788.08 376.054 791.704 375.954 788.259C375.855 784.815 381.53 781.848 388.618 781.669C395.706 781.49 401.54 784.118 401.62 787.563Z" fill="#858585" stroke="#263238" stroke-width="1.03017" stroke-linecap="round" stroke-linejoin="round"/>
<path d="M355.286 783.919C355.286 787.444 349.432 784.019 342.184 784.118C334.936 784.218 329.142 787.822 329.082 784.298C329.023 780.773 334.857 777.846 342.104 777.747C349.352 777.647 355.246 780.415 355.286 783.919Z" fill="#858585" stroke="#263238" stroke-width="1.03017" stroke-linecap="round" stroke-linejoin="round"/>
<path d="M368.11 777.109C367.891 779.797 363.63 776.731 358.155 776.273C352.679 775.815 347.92 778.125 348.199 775.437C348.478 772.749 353.097 770.937 358.613 771.455C364.128 771.972 368.349 774.421 368.11 777.109Z" fill="#999999" stroke="#263238" stroke-width="1.03017" stroke-linecap="round" stroke-linejoin="round"/>
<path d="M613.753 792.083C613.514 794.771 609.273 791.724 603.797 791.246C598.322 790.768 593.563 793.098 593.842 790.41C594.12 787.722 598.74 785.93 604.255 786.428C609.771 786.926 613.912 789.395 613.753 792.083Z" fill="#858585" stroke="#263238" stroke-width="1.03017" stroke-linecap="round" stroke-linejoin="round"/>
<path d="M663.532 802.616C663.313 805.304 659.052 802.238 653.577 801.78C648.101 801.322 643.342 803.632 643.621 800.944C643.9 798.256 648.499 796.444 654.035 796.961C659.57 797.479 663.811 799.928 663.532 802.616Z" fill="#858585" stroke="#263238" stroke-width="1.03017" stroke-linecap="round" stroke-linejoin="round"/>
<path d="M555.872 791.824C556.27 794.492 551.432 792.462 545.916 793.258C540.401 794.054 536.379 797.38 535.961 794.712C535.542 792.043 539.704 789.216 545.199 788.42C550.695 787.623 555.493 789.156 555.872 791.824Z" fill="#858585" stroke="#263238" stroke-width="1.03017" stroke-linecap="round" stroke-linejoin="round"/>
<path d="M382.347 797.539C382.128 800.247 377.867 797.18 372.391 796.702C366.916 796.224 362.157 798.554 362.435 795.866C362.714 793.178 367.334 791.386 372.849 791.884C378.364 792.382 382.586 794.851 382.347 797.539Z" fill="#858585" stroke="#263238" stroke-width="1.03017" stroke-linecap="round" stroke-linejoin="round"/>
<path d="M427.743 797.539C427.524 800.247 423.263 797.18 417.788 796.702C412.312 796.224 407.553 798.554 407.832 795.866C408.111 793.178 412.73 791.386 418.246 791.884C423.761 792.382 427.982 794.851 427.743 797.539Z" fill="#999999" stroke="#263238" stroke-width="1.03017" stroke-linecap="round" stroke-linejoin="round"/>
<path d="M537.056 800.983C536.817 803.671 532.556 800.605 527.1 800.147C521.644 799.689 516.866 801.999 517.144 799.311C517.423 796.623 522.043 794.811 527.558 795.329C533.073 795.846 537.275 798.295 537.056 800.983Z" fill="#999999" stroke="#263238" stroke-width="1.03017" stroke-linecap="round" stroke-linejoin="round"/>
<path d="M317.077 758.214C316.858 762.196 310.407 757.855 302.203 757.417C294 756.979 287.21 760.663 287.31 756.68C287.409 752.698 294.358 749.791 302.582 750.229C310.805 750.667 317.276 754.211 317.077 758.214Z" fill="#858585" stroke="#263238" stroke-width="1.03017" stroke-linecap="round" stroke-linejoin="round"/>
<path d="M351.544 765.202C351.086 768.388 346.208 764.446 339.597 763.53C332.987 762.614 327.252 765.043 327.65 761.857C328.049 758.671 333.783 756.8 340.354 757.736C346.924 758.671 351.982 761.997 351.544 765.202Z" fill="#858585" stroke="#263238" stroke-width="1.03017" stroke-linecap="round" stroke-linejoin="round"/>
<path d="M335.256 771.076C335.057 775.058 328.586 770.738 320.382 770.3C312.179 769.862 305.289 773.525 305.489 769.523C305.688 765.521 312.537 762.634 320.76 763.052C328.984 763.47 335.475 767.094 335.256 771.076Z" fill="#858585" stroke="#263238" stroke-width="1.03017" stroke-linecap="round" stroke-linejoin="round"/>
<path d="M586.494 796.603C586.773 800.585 579.844 797.061 571.62 797.618C563.397 798.176 557.045 802.616 556.767 798.634C556.488 794.651 562.919 790.948 571.142 790.39C579.366 789.833 586.215 792.521 586.494 796.603Z" fill="#858585" stroke="#263238" stroke-width="1.03017" stroke-linecap="round" stroke-linejoin="round"/>
<path d="M698.695 743.878C707.734 743.878 715.062 736.55 715.062 727.511C715.062 718.471 707.734 711.144 698.695 711.144C689.656 711.144 682.328 718.471 682.328 727.511C682.328 736.55 689.656 743.878 698.695 743.878Z" fill="white" stroke="#363A5A" stroke-width="5" stroke-linecap="round" stroke-linejoin="round"/>
<path d="M708.95 731.374C708.571 732.406 708.033 733.373 707.357 734.241L708.95 731.374Z" fill="white"/>
<path d="M708.95 731.374C708.571 732.406 708.033 733.373 707.357 734.241" stroke="#263238" stroke-width="1.03017" stroke-linecap="round" stroke-linejoin="round"/>
<path d="M698.695 716.56C701.6 716.56 704.385 717.713 706.439 719.767C708.493 721.821 709.646 724.606 709.646 727.511" fill="white"/>
<path d="M698.695 716.56C701.6 716.56 704.385 717.713 706.439 719.767C708.493 721.821 709.646 724.606 709.646 727.511" stroke="#263238" stroke-width="1.03017" stroke-linecap="round" stroke-linejoin="round"/>
<path d="M745.009 558.723C745.009 561.059 744.317 563.341 743.019 565.283C741.722 567.225 739.878 568.738 737.72 569.632C735.563 570.526 733.189 570.759 730.898 570.304C728.608 569.848 726.504 568.724 724.853 567.072C723.202 565.421 722.077 563.317 721.621 561.027C721.166 558.736 721.4 556.362 722.293 554.205C723.187 552.047 724.7 550.203 726.642 548.906C728.584 547.609 730.867 546.916 733.202 546.916C734.752 546.916 736.288 547.221 737.72 547.815C739.153 548.408 740.454 549.278 741.551 550.374C742.647 551.471 743.517 552.772 744.11 554.205C744.704 555.637 745.009 557.173 745.009 558.723Z" fill="white" stroke="#363A5A" stroke-width="5" stroke-linecap="round" stroke-linejoin="round"/>
<path d="M740.608 561.551C740.324 562.268 739.935 562.939 739.453 563.542L740.608 561.551Z" fill="white"/>
<path d="M740.608 561.551C740.324 562.268 739.935 562.939 739.453 563.542" stroke="#263238" stroke-width="0.772628" stroke-linecap="round" stroke-linejoin="round"/>
<path d="M733.221 550.819C735.333 550.819 737.359 551.659 738.852 553.152C740.346 554.646 741.185 556.672 741.185 558.784" fill="white"/>
<path d="M733.221 550.819C735.333 550.819 737.359 551.659 738.852 553.152C740.346 554.646 741.185 556.672 741.185 558.784" stroke="#263238" stroke-width="0.772628" stroke-linecap="round" stroke-linejoin="round"/>
<path d="M704.609 446.066C704.613 448.402 703.924 450.687 702.629 452.631C701.334 454.575 699.491 456.092 697.334 456.989C695.177 457.885 692.802 458.122 690.51 457.669C688.218 457.215 686.113 456.092 684.459 454.442C682.806 452.791 681.68 450.687 681.222 448.396C680.765 446.106 680.998 443.73 681.891 441.572C682.784 439.413 684.297 437.568 686.24 436.27C688.182 434.971 690.465 434.278 692.801 434.278C694.351 434.276 695.886 434.579 697.318 435.17C698.751 435.761 700.053 436.629 701.149 437.724C702.246 438.819 703.116 440.119 703.71 441.55C704.303 442.982 704.609 444.516 704.609 446.066Z" fill="white" stroke="#363A5A" stroke-width="5" stroke-linecap="round" stroke-linejoin="round"/>
<path d="M700.21 448.914C699.93 449.634 699.541 450.305 699.055 450.905L700.21 448.914Z" fill="white"/>
<path d="M700.21 448.914C699.93 449.634 699.541 450.305 699.055 450.905" stroke="#263238" stroke-width="0.772628" stroke-linecap="round" stroke-linejoin="round"/>
<path d="M692.801 438.222C694.913 438.222 696.939 439.061 698.433 440.554C699.926 442.048 700.765 444.074 700.765 446.186" fill="white"/>
<path d="M692.801 438.222C694.913 438.222 696.939 439.061 698.433 440.554C699.926 442.048 700.765 444.074 700.765 446.186" stroke="#263238" stroke-width="0.772628" stroke-linecap="round" stroke-linejoin="round"/>
<path d="M735.83 706.744C744.869 706.744 752.197 699.416 752.197 690.377C752.197 681.338 744.869 674.01 735.83 674.01C726.791 674.01 719.463 681.338 719.463 690.377C719.463 699.416 726.791 706.744 735.83 706.744Z" fill="white" stroke="#363A5A" stroke-width="5" stroke-linecap="round" stroke-linejoin="round"/>
<path d="M742.32 681.536C743.707 682.556 744.835 683.887 745.613 685.423C746.392 686.958 746.798 688.655 746.8 690.377" fill="white"/>
<path d="M742.32 681.536C743.707 682.556 744.835 683.887 745.613 685.423C746.392 686.958 746.798 688.655 746.8 690.377" stroke="#263238" stroke-width="1.03017" stroke-linecap="round" stroke-linejoin="round"/>
<path d="M735.83 679.405C737.015 679.412 738.191 679.607 739.315 679.983L735.83 679.405Z" fill="white"/>
<path d="M735.83 679.405C737.015 679.412 738.191 679.607 739.315 679.983" stroke="#263238" stroke-width="1.03017" stroke-linecap="round" stroke-linejoin="round"/>
<path d="M746.265 437.48C755.892 427.854 755.892 412.246 746.265 402.62C736.639 392.993 721.031 392.993 711.405 402.62C701.778 412.246 701.778 427.854 711.405 437.48C721.031 447.106 736.639 447.107 746.265 437.48Z" fill="white" stroke="#363A5A" stroke-width="5" stroke-linecap="round" stroke-linejoin="round"/>
<path d="M738.617 406.742C740.704 408.28 742.4 410.287 743.569 412.601C744.738 414.914 745.347 417.47 745.347 420.063" fill="white"/>
<path d="M738.617 406.742C740.704 408.28 742.4 410.287 743.569 412.601C744.738 414.914 745.347 417.47 745.347 420.063" stroke="#263238" stroke-width="1.03017" stroke-linecap="round" stroke-linejoin="round"/>
<path d="M728.842 403.536C730.628 403.544 732.402 403.833 734.098 404.392L728.842 403.536Z" fill="white"/>
<path d="M728.842 403.536C730.628 403.544 732.402 403.833 734.098 404.392" stroke="#263238" stroke-width="1.03017" stroke-linecap="round" stroke-linejoin="round"/>
<path d="M737.762 652.445C750.309 652.445 760.48 642.274 760.48 629.726C760.48 617.179 750.309 607.008 737.762 607.008C725.214 607.008 715.043 617.179 715.043 629.726C715.043 642.274 725.214 652.445 737.762 652.445Z" fill="white" stroke="#363A5A" stroke-width="5" stroke-linecap="round" stroke-linejoin="round"/>
<path d="M746.781 617.462C748.706 618.876 750.271 620.723 751.35 622.854C752.429 624.984 752.992 627.339 752.994 629.727" fill="white"/>
<path d="M746.781 617.462C748.706 618.876 750.271 620.723 751.35 622.854C752.429 624.984 752.992 627.339 752.994 629.727" stroke="#263238" stroke-width="1.03017" stroke-linecap="round" stroke-linejoin="round"/>
<path d="M737.762 614.515C739.412 614.517 741.051 614.779 742.62 615.291L737.762 614.515Z" fill="white"/>
<path d="M737.762 614.515C739.412 614.517 741.051 614.779 742.62 615.291" stroke="#263238" stroke-width="1.03017" stroke-linecap="round" stroke-linejoin="round"/>
<path d="M683.183 573.338C689.451 573.338 694.533 568.257 694.533 561.989C694.533 555.721 689.451 550.64 683.183 550.64C676.915 550.64 671.834 555.721 671.834 561.989C671.834 568.257 676.915 573.338 683.183 573.338Z" fill="white" stroke="#363A5A" stroke-width="5" stroke-linecap="round" stroke-linejoin="round"/>
<path d="M687.684 555.856C688.646 556.563 689.429 557.486 689.969 558.552C690.509 559.617 690.79 560.795 690.79 561.989" fill="white"/>
<path d="M687.684 555.856C688.646 556.563 689.429 557.486 689.969 558.552C690.509 559.617 690.79 560.795 690.79 561.989" stroke="#263238" stroke-width="0.772628" stroke-linecap="round" stroke-linejoin="round"/>
<path d="M683.184 554.383C684.009 554.384 684.83 554.518 685.613 554.781L683.184 554.383Z" fill="white"/>
<path d="M683.184 554.383C684.009 554.384 684.83 554.518 685.613 554.781" stroke="#263238" stroke-width="0.772628" stroke-linecap="round" stroke-linejoin="round"/>
<path d="M518.181 631.021C514.457 638.985 513.501 653.839 518.181 675.303C522.86 696.768 535.941 724.066 544.324 704.374C552.707 684.681 557.187 689.938 561.487 673.352C565.788 656.766 566.565 642.131 562.264 631.021C557.963 619.91 549.083 640.518 529.689 628.293C527.081 626.7 521.406 623.992 518.181 631.021Z" fill="white"/>
<mask id="mask0_215_5132" style="mask-type:luminance" maskUnits="userSpaceOnUse" x="515" y="626" width="51" height="86">
<path d="M518.185 631.022C514.461 638.986 513.505 653.84 518.185 675.304C522.864 696.769 535.945 724.067 544.328 704.375C552.711 684.682 557.191 689.939 561.491 673.353C565.792 656.767 566.569 642.132 562.268 631.022C557.967 619.911 549.087 640.519 529.693 628.294C527.085 626.701 521.41 623.993 518.185 631.022Z" fill="white"/>
</mask>
<g mask="url(#mask0_215_5132)">
<path d="M544.286 632.157C539.083 632.664 533.872 631.294 529.591 628.294C527.082 626.701 521.408 623.993 518.083 631.022C514.996 637.573 513.822 648.942 516.191 664.871C520.293 671.7 528.038 678.191 539.965 664.074C550.339 651.909 549.044 640.798 544.286 632.157Z" fill="#F59338"/>
<path opacity="0.2" d="M544.286 632.157C539.083 632.664 533.872 631.294 529.591 628.294C527.082 626.701 521.408 623.993 518.083 631.022C514.996 637.573 513.822 648.942 516.191 664.871C520.293 671.7 528.038 678.191 539.965 664.074C550.339 651.909 549.044 640.798 544.286 632.157Z" fill="black"/>
</g>
<path d="M518.181 631.021C514.457 638.985 513.501 653.839 518.181 675.303C522.86 696.768 535.941 724.066 544.324 704.374C552.707 684.681 557.187 689.938 561.487 673.352C565.788 656.766 566.565 642.131 562.264 631.021C557.963 619.91 549.083 640.518 529.689 628.293C527.081 626.7 521.406 623.992 518.181 631.021Z" stroke="#263238" stroke-width="2" stroke-linecap="round" stroke-linejoin="round"/>
<path d="M535.205 687.19C536.292 689.146 537.495 691.034 538.809 692.845" stroke="#263238" stroke-width="2" stroke-linecap="round" stroke-linejoin="round"/>
<path d="M521.625 639.305C521.625 639.305 523.795 662.68 532.437 681.716" stroke="#263238" stroke-width="2" stroke-linecap="round" stroke-linejoin="round"/>
<path d="M532.119 650.455C535.882 658.977 541.577 669.57 549.064 677.355" stroke="#263238" stroke-width="2" stroke-linecap="round" stroke-linejoin="round"/>
<path d="M528.514 641.754C529.011 643.088 529.589 644.601 530.266 646.234" stroke="#263238" stroke-width="2" stroke-linecap="round" stroke-linejoin="round"/>
<path d="M534.906 639.305C540.063 644.521 548.565 651.411 555.733 648.962" stroke="#263238" stroke-width="2" stroke-linecap="round" stroke-linejoin="round"/>
<path d="M437.003 552.213C437.003 552.213 435.589 530.311 459.403 519.559C483.217 508.807 493.471 512.072 493.471 512.072C493.471 512.072 516.807 487.8 545.24 497.139C573.674 506.477 583.988 531.685 592.848 531.227C601.708 530.769 645.135 484.077 686.67 471.015C728.204 457.953 722.609 485.948 715.62 498.074C708.632 510.2 714.685 519.559 678.267 540.545C641.849 561.531 669.506 560.157 635.378 561.551C635.378 561.551 654.513 564.299 658.714 574.593C662.915 584.887 687.187 601.234 689.059 625.506C690.931 649.778 690.453 683.846 650.312 649.778C610.171 615.71 605.492 608.701 598.543 597.491C591.594 586.281 584.067 582.1 581.738 592.374C579.408 602.648 577.536 625.964 540.183 633.909C502.83 641.853 486.044 617.561 474.854 610.573C463.664 603.584 450.105 586.679 438.895 582.1C427.685 577.52 428.581 554.562 437.003 552.213Z" fill="white"/>
<mask id="mask1_215_5132" style="mask-type:luminance" maskUnits="userSpaceOnUse" x="430" y="467" width="291" height="198">
<path d="M437.005 552.213C437.005 552.213 435.591 530.311 459.405 519.559C483.219 508.807 493.473 512.072 493.473 512.072C493.473 512.072 516.809 487.8 545.242 497.139C573.675 506.477 583.989 531.685 592.85 531.227C601.71 530.769 645.137 484.077 686.671 471.015C728.206 457.953 722.611 485.948 715.622 498.074C708.634 510.2 714.686 519.559 678.269 540.545C641.851 561.531 669.508 560.157 635.38 561.551C635.38 561.551 654.515 564.299 658.716 574.593C662.917 584.887 687.189 601.234 689.061 625.506C690.932 649.778 690.455 683.846 650.314 649.778C610.173 615.71 605.494 608.701 598.545 597.491C591.596 586.281 584.069 582.1 581.74 592.374C579.41 602.648 577.538 625.964 540.185 633.909C502.831 641.853 486.046 617.561 474.856 610.573C463.666 603.584 450.107 586.679 438.897 582.1C427.687 577.52 428.583 554.562 437.005 552.213Z" fill="white"/>
</mask>
<g mask="url(#mask1_215_5132)">
<path d="M622.338 561.97C635.22 552.791 627.315 553.289 626.439 546.937C625.563 540.586 646.35 515.836 641.651 507.931C639.322 503.949 632.95 504.566 627.176 506.139C610.212 519.38 597.309 530.988 592.889 531.227C584.028 531.685 573.754 506.478 545.281 497.139C516.808 487.801 493.512 512.073 493.512 512.073C493.512 512.073 483.238 508.807 459.444 519.559C435.65 530.311 437.044 552.214 437.044 552.214C431.071 553.886 428.841 566.152 432.186 574.594C432.484 564.897 451.5 576.983 462.61 586.541C473.72 596.098 489.052 588.93 496.26 588.133C503.468 587.337 507.39 578.477 512.587 580.687C517.784 582.897 506.216 592.235 509.123 594.624C512.03 597.014 520.552 591.06 527.58 580.527C534.609 569.994 544.843 556.256 560.932 563.563C577.02 570.87 576.164 610.534 576.164 610.534C578.875 604.79 580.752 598.689 581.739 592.414C584.068 582.14 591.535 586.341 598.544 597.532C600.137 600.12 601.63 602.47 603.462 604.978C608.141 611.071 618.614 613.54 626.778 605.118C635.22 596.297 609.475 571.129 622.338 561.97ZM510.835 512.312C510.394 512.305 509.965 512.164 509.606 511.907C509.247 511.651 508.974 511.291 508.825 510.876C508.676 510.46 508.657 510.009 508.77 509.583C508.884 509.156 509.125 508.775 509.461 508.489C514.26 504.507 523.976 498.911 538.91 500.883C539.374 500.95 539.805 501.164 540.139 501.494C540.472 501.825 540.691 502.254 540.762 502.717C540.833 503.181 540.754 503.656 540.535 504.071C540.316 504.487 539.97 504.821 539.547 505.024C533.175 508.071 522.164 512.352 510.815 512.312H510.835ZM549.602 556.614C545.022 558.068 537.476 559.8 532.22 557.45C531.162 556.97 530.285 556.164 529.717 555.151C529.149 554.137 528.919 552.969 529.061 551.815C529.203 550.662 529.71 549.584 530.507 548.739C531.305 547.894 532.351 547.326 533.494 547.116C535.689 546.724 537.931 546.664 540.144 546.937C544.082 547.324 547.791 548.972 550.717 551.636C551.091 551.991 551.366 552.437 551.515 552.93C551.665 553.423 551.683 553.946 551.568 554.449C551.454 554.951 551.21 555.415 550.862 555.795C550.514 556.174 550.073 556.457 549.582 556.614H549.602ZM586.955 541.8C586.625 541.539 586.368 541.196 586.21 540.805C586.052 540.414 585.998 539.988 586.055 539.571C586.111 539.153 586.275 538.757 586.531 538.422C586.786 538.086 587.125 537.823 587.513 537.659C590.918 536.245 595.696 534.652 596.612 536.305C597.946 538.734 597.548 550.123 586.936 541.8H586.955Z" fill="#F59338"/>
<path opacity="0.2" d="M571.504 556.614C571.079 556.073 570.794 555.435 570.674 554.757C570.554 554.079 570.602 553.382 570.814 552.727C571.027 552.072 571.397 551.479 571.892 551.001C572.387 550.523 572.992 550.174 573.654 549.984C581.42 547.754 593.725 545.325 594.262 551.975C595.059 561.712 591.395 579.97 586.019 578.258C581.36 576.804 579.09 566.451 571.504 556.614Z" fill="black"/>
</g>
<path d="M437.003 552.213C437.003 552.213 435.589 530.311 459.403 519.559C483.217 508.807 493.471 512.072 493.471 512.072C493.471 512.072 516.807 487.8 545.24 497.139C573.674 506.477 583.988 531.685 592.848 531.227C601.708 530.769 645.135 484.077 686.67 471.015C728.204 457.953 722.609 485.948 715.62 498.074C708.632 510.2 714.685 519.559 678.267 540.545C641.849 561.531 669.506 560.157 635.378 561.551C635.378 561.551 654.513 564.299 658.714 574.593C662.915 584.887 687.187 601.234 689.059 625.506C690.931 649.778 690.453 683.846 650.312 649.778C610.171 615.71 605.492 608.701 598.543 597.491C591.594 586.281 584.067 582.1 581.738 592.374C579.408 602.648 577.536 625.964 540.183 633.909C502.83 641.853 486.044 617.561 474.854 610.573C463.664 603.584 450.105 586.679 438.895 582.1C427.685 577.52 428.581 554.562 437.003 552.213Z" stroke="#263238" stroke-width="2" stroke-linecap="round" stroke-linejoin="round"/>
<path d="M476.627 560.595C476.631 561.679 476.313 562.74 475.714 563.643C475.115 564.546 474.261 565.251 473.261 565.668C472.26 566.086 471.159 566.197 470.095 565.988C469.032 565.779 468.054 565.259 467.287 564.494C466.519 563.729 465.995 562.754 465.782 561.691C465.57 560.628 465.677 559.526 466.091 558.524C466.505 557.523 467.206 556.666 468.107 556.064C469.008 555.461 470.068 555.14 471.151 555.14C471.869 555.137 472.581 555.276 473.245 555.549C473.909 555.822 474.513 556.224 475.022 556.731C475.531 557.237 475.934 557.84 476.21 558.503C476.485 559.166 476.627 559.877 476.627 560.595Z" fill="#263238" stroke="#263238" stroke-width="2" stroke-linecap="round" stroke-linejoin="round"/>
<path d="M473.938 560.595C473.938 561.146 473.775 561.685 473.469 562.144C473.162 562.602 472.727 562.96 472.218 563.171C471.708 563.382 471.148 563.437 470.607 563.329C470.066 563.222 469.57 562.956 469.18 562.566C468.79 562.176 468.524 561.68 468.417 561.139C468.309 560.598 468.364 560.038 468.575 559.528C468.786 559.019 469.144 558.584 469.602 558.277C470.061 557.971 470.6 557.808 471.151 557.808C471.89 557.808 472.599 558.101 473.122 558.624C473.645 559.147 473.938 559.856 473.938 560.595Z" fill="white" stroke="#263238" stroke-width="2" stroke-linecap="round" stroke-linejoin="round"/>
<path d="M461.016 560.596C461.131 557.983 462.251 555.516 464.141 553.708C466.03 551.9 468.545 550.891 471.16 550.891C473.776 550.891 476.29 551.9 478.18 553.708C480.07 555.516 481.189 557.983 481.305 560.596" stroke="#263238" stroke-width="2" stroke-linecap="round" stroke-linejoin="round"/>
<path d="M430.83 569.396C430.83 569.396 432.343 564.299 443.653 570.73" stroke="#263238" stroke-width="2" stroke-linecap="round" stroke-linejoin="round"/>
<path d="M438.854 582.1C438.854 582.1 432.981 574.952 437.242 574.593C441.503 574.235 445.027 581.542 450.483 582.1C450.483 582.1 462.768 599.224 483.635 593.37C504.502 587.516 496.716 561.97 496.716 561.97" stroke="#263238" stroke-width="2" stroke-linecap="round" stroke-linejoin="round"/>
<path d="M494.566 513.765C494.566 513.765 501.595 522.346 502.372 530.53C503.148 538.713 521.287 535.03 523.438 556.673C525.588 578.317 501.794 586.918 501.794 586.918" stroke="#263238" stroke-width="2" stroke-linecap="round" stroke-linejoin="round"/>
<path d="M502.949 603.365C502.949 603.365 500.62 630.086 505.1 625.785C509.58 621.484 513.303 617.602 518.56 618.776C523.816 619.951 511.352 607.646 508.027 601.792C508.027 601.752 508.226 607.347 502.949 603.365Z" fill="#F59338" stroke="#263238" stroke-width="2" stroke-linecap="round" stroke-linejoin="round"/>
<path d="M556.211 546.937C556.211 546.937 572.399 557.27 580.781 585.365" stroke="#263238" stroke-width="2" stroke-linecap="round" stroke-linejoin="round"/>
<path d="M607.324 574.095C619.908 583.055 642.965 596.754 669.447 599.72" stroke="#263238" stroke-width="2" stroke-linecap="round" stroke-linejoin="round"/>
<path d="M597.148 566.15C597.148 566.15 598.642 567.504 601.37 569.655" stroke="#263238" stroke-width="2" stroke-linecap="round" stroke-linejoin="round"/>
<path d="M677.908 634.884C680.676 635.82 682.328 636.298 682.328 636.298" stroke="#263238" stroke-width="2" stroke-linecap="round" stroke-linejoin="round"/>
<path d="M593.664 574.593C593.664 574.593 612.938 597.949 633.307 612.922C647.484 623.355 665.723 630.603 675.459 634.048" stroke="#263238" stroke-width="2" stroke-linecap="round" stroke-linejoin="round"/>
<path d="M695.67 483.898C698.798 483.24 701.963 482.775 705.148 482.504" stroke="#263238" stroke-width="2" stroke-linecap="round" stroke-linejoin="round"/>
<path d="M605.432 538.654C605.432 538.654 644.338 499.906 685.196 486.646" stroke="#263238" stroke-width="2" stroke-linecap="round" stroke-linejoin="round"/>
<path d="M698.059 503.948C700.05 503.948 702.041 503.948 704.032 504.207" stroke="#263238" stroke-width="2" stroke-linecap="round" stroke-linejoin="round"/>
<path d="M604.197 546.936C604.197 546.936 649.754 507.373 692.802 504.167" stroke="#263238" stroke-width="2" stroke-linecap="round" stroke-linejoin="round"/>
<path d="M657.896 539.788C659.489 539.788 661.102 540.007 662.715 540.206" stroke="#263238" stroke-width="2" stroke-linecap="round" stroke-linejoin="round"/>
<path d="M604.197 554.164C619.068 545.007 636.117 539.995 653.577 539.648" stroke="#263238" stroke-width="2" stroke-linecap="round" stroke-linejoin="round"/>
<path d="M542.075 631.021C538.352 638.985 537.396 653.839 542.075 675.303C546.754 696.768 559.816 724.066 568.219 704.374C576.621 684.681 581.081 689.938 585.382 673.352C589.683 656.766 590.439 642.131 586.159 631.021C581.878 619.91 572.957 640.518 553.584 628.293C550.975 626.7 545.281 623.992 542.075 631.021Z" fill="white"/>
<mask id="mask2_215_5132" style="mask-type:luminance" maskUnits="userSpaceOnUse" x="538" y="626" width="52" height="86">
<path d="M542.075 631.022C538.352 638.986 537.396 653.84 542.075 675.304C546.754 696.769 559.816 724.067 568.219 704.375C576.621 684.682 581.081 689.939 585.382 673.353C589.683 656.767 590.439 642.132 586.159 631.022C581.878 619.911 572.957 640.519 553.584 628.294C550.975 626.701 545.281 623.993 542.075 631.022Z" fill="white"/>
</mask>
<g mask="url(#mask2_215_5132)">
<path d="M568.178 632.157C562.976 632.664 557.764 631.294 553.483 628.294C550.975 626.701 545.28 623.993 541.975 631.022C538.869 637.573 537.714 648.942 539.984 664.871C544.105 671.7 551.831 678.191 563.777 664.074C574.211 651.909 572.937 640.798 568.178 632.157Z" fill="#F59338"/>
</g>
<path d="M542.075 631.021C538.352 638.985 537.396 653.839 542.075 675.303C546.754 696.768 559.816 724.066 568.219 704.374C576.621 684.681 581.081 689.938 585.382 673.352C589.683 656.766 590.439 642.131 586.159 631.021C581.878 619.91 572.957 640.518 553.584 628.293C550.975 626.7 545.281 623.992 542.075 631.021Z" stroke="#263238" stroke-width="2" stroke-linecap="round" stroke-linejoin="round"/>
<path d="M559.875 688.564C560.771 690.058 561.707 691.491 562.682 692.845" stroke="#263238" stroke-width="2" stroke-linecap="round" stroke-linejoin="round"/>
<path d="M545.52 639.305C545.52 639.305 547.929 665.408 557.864 684.901" stroke="#263238" stroke-width="2" stroke-linecap="round" stroke-linejoin="round"/>
<path d="M569.711 673.771C570.726 675.005 571.702 676.22 572.877 677.355" stroke="#263238" stroke-width="2" stroke-linecap="round" stroke-linejoin="round"/>
<path d="M550.477 636.099C550.477 636.099 556.33 655.691 567.441 670.824" stroke="#263238" stroke-width="2" stroke-linecap="round" stroke-linejoin="round"/>
<path d="M576.719 649.479C577.707 649.446 578.686 649.271 579.626 648.961" stroke="#263238" stroke-width="2" stroke-linecap="round" stroke-linejoin="round"/>
<path d="M554.021 634.048C554.021 634.048 563.36 646.194 572.798 648.922" stroke="#263238" stroke-width="2" stroke-linecap="round" stroke-linejoin="round"/>
<path d="M629.166 631.42C608.08 612.544 604.018 606.312 598.502 597.571C591.494 586.381 584.027 582.179 581.697 592.453C593.365 601.832 590.737 615.391 594.839 633.53C598.94 651.669 593.963 678.888 604.197 685.04C614.431 691.193 613.854 670.704 616.781 666.005C619.708 661.306 624.964 659.873 624.088 647.289C623.471 638.349 626.637 635.063 629.166 631.42Z" fill="white"/>
<mask id="mask3_215_5132" style="mask-type:luminance" maskUnits="userSpaceOnUse" x="581" y="586" width="49" height="101">
<path d="M629.169 631.42C608.083 612.544 604.022 606.312 598.506 597.571C591.497 586.381 584.031 582.179 581.701 592.453C593.369 601.832 590.741 615.391 594.843 633.53C598.944 651.669 593.966 678.888 604.201 685.04C614.435 691.193 613.858 670.704 616.785 666.005C619.712 661.306 624.968 659.873 624.092 647.289C623.475 638.349 626.641 635.063 629.169 631.42Z" fill="white"/>
</mask>
<g mask="url(#mask3_215_5132)">
<path d="M598.506 597.492C591.497 586.301 584.031 582.1 581.701 592.374C586.694 596.492 589.98 602.318 590.92 608.721C596.731 611.915 603.342 613.36 609.955 612.883C605.615 608.164 601.778 603.005 598.506 597.492Z" fill="#F59338"/>
<path opacity="0.2" d="M598.506 597.492C591.497 586.301 584.031 582.1 581.701 592.374C586.694 596.492 589.98 602.318 590.92 608.721C596.731 611.915 603.342 613.36 609.955 612.883C605.615 608.164 601.778 603.005 598.506 597.492Z" fill="black"/>
</g>
<path d="M629.166 631.42C608.08 612.544 604.018 606.312 598.502 597.571C591.494 586.381 584.027 582.179 581.697 592.453C593.365 601.832 590.737 615.391 594.839 633.53C598.94 651.669 593.963 678.888 604.197 685.04C614.431 691.193 613.854 670.704 616.781 666.005C619.708 661.306 624.964 659.873 624.088 647.289C623.471 638.349 626.637 635.063 629.166 631.42Z" stroke="#263238" stroke-width="2" stroke-linecap="round" stroke-linejoin="round"/>
<path d="M595.834 606.312C598.075 613.758 600.871 621.026 604.197 628.055C609.891 638.986 616.143 649.479 616.143 649.479" stroke="#263238" stroke-width="2" stroke-linecap="round" stroke-linejoin="round"/>
<path d="M592.35 594.584C592.35 594.584 593.066 597.252 594.341 601.214" stroke="#263238" stroke-width="2" stroke-linecap="round" stroke-linejoin="round"/>
<path d="M504.959 503.231C514.497 497.417 529.052 491.822 545.279 497.138C566.445 504.087 577.535 519.777 585.5 527.184C588.805 524.636 593.026 522.864 605.411 518.165C620.105 512.609 594.818 490.946 588.088 478.959C581.358 466.973 582.234 464.623 556.23 457.595C530.226 450.566 531.063 433.701 526.961 431.85C522.859 429.998 515.552 443.557 515.552 443.557C502.689 456.719 505.317 488.318 505.317 488.318C503.545 490.07 504.421 498.93 504.959 503.231Z" fill="white"/>
<mask id="mask4_215_5132" style="mask-type:luminance" maskUnits="userSpaceOnUse" x="504" y="431" width="106" height="97">
<path d="M504.961 503.231C514.498 497.417 529.054 491.822 545.281 497.138C566.447 504.087 577.537 519.777 585.502 527.184C588.807 524.636 593.028 522.864 605.413 518.165C620.107 512.609 594.82 490.946 588.09 478.959C581.36 466.973 582.236 464.623 556.232 457.595C530.228 450.566 531.065 433.701 526.963 431.85C522.861 429.998 515.554 443.557 515.554 443.557C502.691 456.719 505.319 488.318 505.319 488.318C503.547 490.07 504.423 498.93 504.961 503.231Z" fill="white"/>
</mask>
<g mask="url(#mask4_215_5132)">
<path d="M592.351 523.361C591.794 515.974 584.785 505.441 568.458 490.07C549.801 472.429 518.919 469.561 505.738 469.163C505.007 475.521 504.847 481.931 505.26 488.318C503.508 490.07 504.384 498.93 504.921 503.231C514.459 497.417 529.014 491.822 545.242 497.138C566.407 504.087 577.498 519.777 585.462 527.184C587.585 525.62 589.901 524.335 592.351 523.361Z" fill="#F59338"/>
</g>
<path d="M504.959 503.231C514.497 497.417 529.052 491.822 545.279 497.138C566.445 504.087 577.535 519.777 585.5 527.184C588.805 524.636 593.026 522.864 605.411 518.165C620.105 512.609 594.818 490.946 588.088 478.959C581.358 466.973 582.234 464.623 556.23 457.595C530.226 450.566 531.063 433.701 526.961 431.85C522.859 429.998 515.552 443.557 515.552 443.557C502.689 456.719 505.317 488.318 505.317 488.318C503.545 490.07 504.421 498.93 504.959 503.231Z" stroke="#263238" stroke-width="2" stroke-linecap="round" stroke-linejoin="round"/>
<path d="M533.035 461.278C534.052 458.916 535.195 456.609 536.46 454.369" stroke="#263238" stroke-width="2" stroke-linecap="round" stroke-linejoin="round"/>
<path d="M524.713 490.07C526.099 481.533 528.354 473.16 531.443 465.081" stroke="#263238" stroke-width="2" stroke-linecap="round" stroke-linejoin="round"/>
<path d="M550.299 463.15L551.633 461.397" stroke="#263238" stroke-width="2" stroke-linecap="round" stroke-linejoin="round"/>
<path d="M536.459 490.07C539.163 481.41 543.193 473.222 548.406 465.798" stroke="#263238" stroke-width="2" stroke-linecap="round" stroke-linejoin="round"/>
<path d="M565.969 467.331C566.785 466.773 567.601 466.256 568.438 465.798" stroke="#263238" stroke-width="2" stroke-linecap="round" stroke-linejoin="round"/>
<path d="M546.555 491.862C546.555 491.862 553.026 477.785 563.638 469.163" stroke="#263238" stroke-width="2" stroke-linecap="round" stroke-linejoin="round"/>
<path d="M578.113 475.037C578.985 474.727 579.877 474.474 580.781 474.28" stroke="#263238" stroke-width="2" stroke-linecap="round" stroke-linejoin="round"/>
<path d="M556.211 493.595C556.211 493.595 564.574 481.27 575.565 476.093" stroke="#263238" stroke-width="2" stroke-linecap="round" stroke-linejoin="round"/>
<path d="M578.113 487.88C580.66 486.734 583.334 485.892 586.078 485.371" stroke="#263238" stroke-width="2" stroke-linecap="round" stroke-linejoin="round"/>
<path d="M562.941 498.572C566.362 495.117 570.241 492.149 574.47 489.751" stroke="#263238" stroke-width="2" stroke-linecap="round" stroke-linejoin="round"/>
<path d="M593.027 500.802C594.39 500.582 595.768 500.469 597.149 500.464" stroke="#263238" stroke-width="2" stroke-linecap="round" stroke-linejoin="round"/>
<path d="M575.564 507.931C579.854 505.237 584.48 503.121 589.323 501.639" stroke="#263238" stroke-width="2" stroke-linecap="round" stroke-linejoin="round"/>
<path d="M524.713 447.539C525.25 446.584 525.788 445.548 526.365 444.712" stroke="#263238" stroke-width="2" stroke-linecap="round" stroke-linejoin="round"/>
<path d="M514.657 493.594C514.657 493.594 513.482 471.174 522.86 451.203" stroke="#263238" stroke-width="2" stroke-linecap="round" stroke-linejoin="round"/>
</svg>
