<svg width="343" height="327" viewBox="0 0 343 327" fill="none" xmlns="http://www.w3.org/2000/svg">
<path d="M203.677 58.735C196.066 63.9031 185.19 63.4332 185.19 63.4332C185.19 63.4332 179.129 54.3892 179.599 45.169C180.022 37.5109 185.542 32.0962 191.028 33.3177C198.874 35.0796 194.011 47.7295 194.011 47.7295C194.011 47.7295 202.315 37.0176 207.894 42.8316C211.794 46.8838 210.02 54.3892 203.677 58.735Z" fill="#F80202" fill-opacity="0.48"/>
<path d="M181.185 10.2727C179.059 15.9811 172.963 19.8806 172.963 19.8806C172.963 19.8806 166.221 17.3318 162.967 12.199C160.242 7.90014 161.147 2.86131 164.565 1.42836C169.474 -0.638852 171.706 8.04109 171.706 8.04109C171.706 8.04109 172.082 -0.920744 177.309 0.0776246C181.009 0.77061 182.947 5.5158 181.185 10.2727Z" fill="#F80202" fill-opacity="0.48"/>
<path d="M297.947 207.422C260.761 282.405 172.329 326.885 172.329 326.885C172.329 326.885 83.8849 282.393 46.7809 207.41C15.8197 144.877 35.4347 77.2813 84.296 62.5289C154.346 41.387 172.329 121.679 172.329 121.679C172.329 121.679 190.299 41.34 260.42 62.5289C309.293 77.3048 328.908 144.888 297.947 207.422Z" fill="#FE4C4C"/>
<path opacity="0.5" d="M297.947 207.422C260.761 282.405 172.329 326.885 172.329 326.885C172.329 326.885 83.8849 282.393 46.7809 207.41C15.8197 144.877 35.4347 77.2813 84.296 62.5289C154.346 41.387 172.329 121.679 172.329 121.679C172.329 121.679 190.299 41.34 260.42 62.5289C309.293 77.3048 328.908 144.888 297.947 207.422Z" fill="#F80202" fill-opacity="0.48"/>
<path d="M20.1262 148.887C18.8929 154.842 13.49 159.611 13.49 159.611C13.49 159.611 6.4427 158.108 2.44923 153.515C-0.886501 149.674 -0.745555 144.565 2.44923 142.627C6.98299 139.843 10.4949 148.1 10.4949 148.1C10.4949 148.1 9.52002 139.174 14.8407 139.373C18.5288 139.514 21.1481 143.919 20.1262 148.887Z" fill="#F80202" fill-opacity="0.48"/>
<path d="M336.939 90.0055C328.001 98.7442 313.342 100.659 313.342 100.659C313.342 100.659 303.053 90.0877 301.515 77.6257C300.234 67.2779 306.33 58.7155 313.953 59.0443C324.877 59.5024 321.4 77.5905 321.4 77.5905C321.4 77.5905 329.951 61.276 338.795 67.7243C344.95 72.211 344.362 82.7115 336.939 90.0055Z" fill="#F80202" fill-opacity="0.48"/>
</svg>
