<svg width="114" height="175" viewBox="0 0 114 175" fill="none" xmlns="http://www.w3.org/2000/svg">
<path d="M62.062 173.125C61.9137 170.484 61.4729 139.401 62.3545 137.061C63.2361 134.72 63.2361 135.887 66.9026 131.05C70.5692 126.213 79.8137 116.816 85.2435 110.357C90.6732 103.897 90.0881 100.527 95.0731 92.004C100.058 83.4807 105.784 76.5964 109.747 71.6075C113.71 66.6185 113.414 65.1519 108.717 63.8295C104.021 62.5072 101.236 64.1261 97.5655 66.1777C93.895 68.2294 89.2026 73.5149 85.2395 79.0929C81.2764 84.6708 77.3173 87.3076 75.5581 88.0409C73.799 88.7742 72.6209 88.1891 72.6209 88.1891C72.6209 88.1891 67.9245 78.6521 67.0469 75.7148C66.1693 72.7776 65.5763 65.0036 65.7245 63.6933C65.8728 62.3829 66.7504 56.9412 67.7802 49.7523C68.81 42.5635 69.6876 29.5041 69.8319 25.1002C69.9761 20.6963 71.1542 10.8667 68.806 7.49268C66.4578 4.11864 61.4689 4.99621 60.2948 7.63694C59.1207 10.2777 57.8023 20.6963 57.4898 27.7409C57.1772 34.7855 52.7974 57.971 52.2083 58.9969C51.6193 60.0227 49.1268 58.8486 48.3935 58.1153C47.6602 57.382 48.3935 55.3103 48.5418 50.3374C48.69 45.3645 48.5418 34.1965 48.2452 27.7409C47.9487 21.2854 46.5061 11.007 45.7848 7.62892C45.0635 4.25087 43.7291 1.76242 41.3769 1.32163C39.0247 0.880841 35.5104 2.49573 35.5104 5.57725C35.5104 8.65876 35.0696 28.6145 35.0696 35.5108C35.0696 42.4072 35.5104 56.0556 35.3622 57.2257C35.2139 58.3958 33.603 58.5481 32.8657 58.1073C32.1284 57.6665 31.5473 54.1442 31.2628 48.1294C30.9783 42.1147 28.1533 30.9627 27.8688 20.544C27.5842 10.1254 26.6946 9.53634 23.1763 9.24381C19.658 8.95129 17.7466 10.7104 17.1656 14.9661C16.5845 19.2217 17.6064 32.7218 17.6064 40.9406C17.6064 49.1593 20.5396 62.952 20.5396 62.952L17.4621 64.7111C17.4621 64.7111 13.6433 50.6259 12.7657 45.9295C11.8881 41.2331 10.5618 29.7886 8.65435 27.5846C6.74694 25.3807 2.6436 26.8513 1.75801 30.2294C0.872425 33.6074 1.31721 37.4183 1.61375 46.222C1.91028 55.0258 5.71309 70.8741 5.71309 70.8741C5.71309 70.8741 4.11022 79.5336 5.86135 94.2039C7.61249 108.874 12.1687 126.926 14.8094 132.212C17.4501 137.497 19.3615 137.493 19.7983 140.723C20.2351 143.953 20.0948 173.859 20.0948 173.859" fill="#FBC8AE"/>
<mask id="mask0_761_2298" style="mask-type:luminance" maskUnits="userSpaceOnUse" x="1" y="1" width="112" height="173">
<path d="M62.0605 173.125C61.9122 170.484 61.4714 139.401 62.353 137.061C63.2346 134.72 63.2346 135.887 66.9012 131.05C70.5677 126.213 79.8123 116.816 85.242 110.357C90.6717 103.897 90.0867 100.527 95.0716 92.004C100.057 83.4807 105.783 76.5964 109.746 71.6075C113.709 66.6185 113.412 65.1519 108.716 63.8295C104.02 62.5072 101.235 64.1261 97.5641 66.1777C93.8935 68.2294 89.2011 73.5149 85.238 79.0929C81.2749 84.6708 77.3158 87.3076 75.5567 88.0409C73.7975 88.7742 72.6194 88.1891 72.6194 88.1891C72.6194 88.1891 67.923 78.6521 67.0454 75.7148C66.1679 72.7776 65.5748 65.0036 65.7231 63.6933C65.8713 62.3829 66.7489 56.9412 67.7787 49.7523C68.8086 42.5635 69.6861 29.5041 69.8304 25.1002C69.9747 20.6963 71.1528 10.8667 68.8046 7.49268C66.4564 4.11864 61.4674 4.99621 60.2933 7.63694C59.1192 10.2777 57.8009 20.6963 57.4883 27.7409C57.1758 34.7855 52.7959 57.971 52.2069 58.9969C51.6178 60.0227 49.1253 58.8486 48.392 58.1153C47.6587 57.382 48.392 55.3103 48.5403 50.3374C48.6886 45.3645 48.5403 34.1965 48.2438 27.7409C47.9472 21.2854 46.5047 11.007 45.7834 7.62892C45.0621 4.25087 43.7277 1.76242 41.3755 1.32163C39.0233 0.880841 35.509 2.49573 35.509 5.57725C35.509 8.65876 35.0682 28.6145 35.0682 35.5108C35.0682 42.4072 35.509 56.0556 35.3607 57.2257C35.2124 58.3958 33.6016 58.5481 32.8642 58.1073C32.1269 57.6665 31.5459 54.1442 31.2614 48.1294C30.9769 42.1147 28.1518 30.9627 27.8673 20.544C27.5828 10.1254 26.6932 9.53634 23.1749 9.24381C19.6566 8.95129 17.7452 10.7104 17.1641 14.9661C16.5831 19.2217 17.6049 32.7218 17.6049 40.9406C17.6049 49.1593 20.5382 62.952 20.5382 62.952L17.4607 64.7111C17.4607 64.7111 13.6418 50.6259 12.7643 45.9295C11.8867 41.2331 10.5603 29.7886 8.65289 27.5846C6.74547 25.3807 2.64213 26.8513 1.75655 30.2294C0.87096 33.6074 1.31575 37.4183 1.61228 46.222C1.90881 55.0258 5.71162 70.8741 5.71162 70.8741C5.71162 70.8741 4.10875 79.5336 5.85989 94.2039C7.61102 108.874 12.1672 126.926 14.8079 132.212C17.4486 137.497 19.3601 137.493 19.7968 140.723C20.2336 143.953 20.0934 173.859 20.0934 173.859" fill="white"/>
</mask>
<g mask="url(#mask0_761_2298)">
<path d="M18.8882 133.298C21.9857 134.537 29.7276 126.486 36.2352 125.861C42.7429 125.236 46.145 133.298 56.3673 130.509C66.5896 127.72 80.5265 109.744 85.1749 101.393C88.9456 94.5811 94.76 90.4657 96.7957 89.1514C96.2106 90.081 95.6296 91.0307 95.0605 92.0045C93.4025 94.8673 91.9612 97.8503 90.7488 100.928C89.2181 103.453 87.5431 106.082 85.792 108.514C79.5969 117.186 70.3042 124.002 66.5896 129.576C62.8749 135.15 56.9724 141.345 52.9652 141.657C48.958 141.97 45.5279 139.177 39.0242 137.009C32.5206 134.841 23.5365 139.489 20.439 137.318C17.3414 135.146 15.7906 132.056 18.8882 133.298Z" fill="#9E9E9F"/>
<path d="M5.08846 77.9688C5.44109 79.4754 6.58314 82.9016 9.89707 84.3802C14.2208 86.2716 19.8108 85.6184 16.7093 86.8567C13.6077 88.0949 10.2056 102.961 10.8227 110.098C11.2595 115.131 11.3877 119.539 10.991 120.717C8.70326 112.012 6.98587 103.167 5.84982 94.2379C5.1791 88.8424 4.92456 83.4033 5.08846 77.9688Z" fill="#9E9E9F"/>
<path d="M34.2351 58.2925C33.3696 60.8571 28.7974 60.9492 28.7974 59.2662C28.7974 57.4109 31.2458 48.1303 28.4888 43.4699C25.7319 38.8096 27.5592 39.4427 27.5592 36.0366C27.5592 32.6305 24.4616 23.3379 24.4616 23.3379C25.2583 20.9396 25.6761 18.4316 25.6998 15.9046C25.6902 13.7174 25.3525 11.544 24.698 9.45703C26.9661 9.99399 27.6233 11.8293 27.8677 20.5449C28.1642 30.9635 30.9492 42.1155 31.2458 48.1303C31.5423 54.145 32.1233 57.6673 32.8486 58.1081C33.2746 58.3311 33.7657 58.3964 34.2351 58.2925Z" fill="#9E9E9F"/>
<path d="M7.84889 26.9355C8.15162 27.1039 8.4228 27.3235 8.65032 27.5847C10.5577 29.7887 11.8801 41.2331 12.7617 45.9296C13.3788 49.2355 15.4705 57.2498 16.6406 61.6577C16.2399 67.5002 14.5248 68.1213 12.0724 67.3038C9.28746 66.3742 12.0724 65.757 12.0724 60.1791C12.0724 54.6011 9.7523 52.1647 8.97491 45.621C8.19752 39.0773 9.96868 40.6321 9.90457 38.1877C9.85247 36.1 8.28567 28.8991 7.84889 26.9355Z" fill="#9E9E9F"/>
<path d="M43.6694 9.088C43.6694 4.44369 40.5718 2.27581 40.5718 2.27581C40.8787 1.89999 41.27 1.60203 41.7139 1.40625C43.8497 2.01935 45.0759 4.42365 45.7732 7.62939C46.5065 11.0074 47.9731 21.2778 48.2656 27.7334C48.5581 34.1889 48.7064 45.3409 48.5621 50.3298C48.4179 55.3188 47.6806 57.3745 48.4139 58.1078C48.8154 58.4668 49.2729 58.7578 49.7683 58.9693C48.9388 62.4475 43.3568 61.4337 43.3568 61.4337C43.3568 61.4337 45.3845 58.8531 44.583 56.4809C43.7816 54.1086 43.6534 51.2154 45.5087 43.4696C47.364 35.7237 44.583 31.7005 44.583 31.7005C44.583 31.7005 45.2001 30.4623 45.8212 25.8139C46.4424 21.1656 43.6534 13.7363 43.6534 13.7363L43.6694 9.088Z" fill="#9E9E9F"/>
<path d="M100.439 64.6461C99.1402 65.7241 97.6736 67.0104 96.0306 68.5571C86.738 77.2327 84.8787 85.9042 76.5157 89.3103C68.1527 92.7164 62.2702 84.0449 56.3836 84.3574C50.4971 84.67 41.2045 100.787 41.2045 100.787C41.2045 100.787 43.0638 91.4942 44.9231 86.8499C46.7825 82.2056 56.6922 78.1784 56.6922 78.1784C56.6922 78.1784 44.9231 81.5845 39.9663 84.682C36.9144 86.5221 33.5938 87.8741 30.1246 88.6892C31.3268 88.0681 46.9107 77.5132 51.1182 75.71C55.454 73.8506 61.9376 72.6124 62.8873 68.8978C63.837 65.1831 61.6491 60.8433 61.6491 60.8433C61.6491 60.8433 64.4541 51.8593 65.3677 47.2189C66.2814 42.5786 65.0552 40.4068 65.0552 40.4068C65.0552 40.4068 66.6059 37.6218 66.6059 33.282C66.5301 30.2518 66.1148 27.2396 65.3677 24.3019C65.3677 24.3019 69.0824 21.8215 68.4653 16.2475C67.8482 10.6735 63.1958 10.6735 63.1958 10.6735C59.1887 12.2203 58.243 22.7511 58.243 22.7511L58.1348 19.87L58.2069 18.8442C58.239 18.5436 58.275 18.2471 58.3111 17.9465C58.3111 17.8985 58.3111 17.8504 58.3111 17.8023C58.3472 17.5138 58.3832 17.2253 58.4193 16.9447V16.8886C58.4634 16.5761 58.5034 16.2635 58.5435 15.955V15.9269C58.5836 15.6464 58.6197 15.3739 58.6597 15.1014L58.6838 14.9251L58.792 14.2038C58.792 14.1638 58.792 14.1237 58.792 14.0836C58.836 13.8031 58.8801 13.5266 58.9242 13.2582C58.9242 13.2582 58.9242 13.2221 58.9242 13.202C58.9643 12.9616 59.0043 12.7252 59.0444 12.4968C59.0444 12.4327 59.0444 12.3726 59.0765 12.3125C59.1085 12.1161 59.1446 11.9117 59.1807 11.7314C59.1807 11.6793 59.1807 11.6272 59.2087 11.5751C59.2528 11.3387 59.2969 11.1103 59.3449 10.8859V10.8258C59.385 10.6308 59.4251 10.4424 59.4652 10.2608L59.5012 10.0845C59.5333 9.9362 59.5693 9.79195 59.6014 9.65169L59.6375 9.49541C59.6856 9.31509 59.7296 9.13877 59.7737 8.97448C59.7737 8.97448 59.7737 8.97448 59.7737 8.94242C59.8138 8.79015 59.8579 8.6499 59.8979 8.51366C59.8979 8.46958 59.926 8.4255 59.938 8.38543C59.9701 8.28124 60.0021 8.18507 60.0342 8.0929C60.0662 8.00074 60.0622 8.01677 60.0743 7.9807C60.1183 7.86049 60.1624 7.74829 60.2065 7.64811C61.3806 5.00738 66.3695 4.1258 68.7177 7.50385C71.0659 10.8819 69.8918 20.7275 69.7436 25.1114C69.5953 29.4952 68.7177 42.5746 67.6919 49.7635C66.6661 56.9524 65.7845 62.3821 65.6362 63.7045C65.4879 65.0268 66.077 72.8007 66.9586 75.726C67.8402 78.6512 72.6327 88.1883 72.6327 88.1883C72.6327 88.1883 73.8068 88.7733 75.57 88.04C77.3332 87.3067 81.2922 84.666 85.2513 79.092C89.2104 73.518 93.9108 68.2326 97.5774 66.1769C98.5832 65.6159 99.5209 65.0909 100.447 64.6461H100.439Z" fill="#9E9E9F"/>
<g opacity="0.5">
<path d="M18.8894 133.298C21.9869 134.537 29.7288 126.486 36.2365 125.861C42.7441 125.236 46.1462 133.298 56.3685 130.509C66.5908 127.72 80.5277 109.744 85.1761 101.393C88.9468 94.5811 94.7612 90.4657 96.7969 89.1514C96.2118 90.081 95.6308 91.0307 95.0618 92.0045C93.4037 94.8673 91.9624 97.8503 90.7501 100.928C89.2193 103.453 87.5443 106.082 85.7932 108.514C79.5981 117.186 70.3054 124.002 66.5908 129.576C62.8761 135.15 56.9736 141.345 52.9664 141.657C48.9592 141.97 45.5291 139.177 39.0255 137.009C32.5218 134.841 23.5377 139.489 20.4402 137.318C17.3426 135.146 15.7919 132.056 18.8894 133.298Z" fill="#FBC8AE"/>
<path d="M5.08895 77.9688C5.44158 79.4754 6.58363 82.9016 9.89756 84.3802C14.2213 86.2716 19.8113 85.6184 16.7098 86.8567C13.6082 88.0949 10.2061 102.961 10.8232 110.098C11.26 115.131 11.3882 119.539 10.9915 120.717C8.70375 112.012 6.98636 103.167 5.85031 94.2379C5.17958 88.8424 4.92505 83.4033 5.08895 77.9688Z" fill="#FBC8AE"/>
<path d="M34.2363 58.2925C33.3708 60.8571 28.7986 60.9492 28.7986 59.2662C28.7986 57.4109 31.247 48.1303 28.49 43.4699C25.7331 38.8096 27.5604 39.4427 27.5604 36.0366C27.5604 32.6305 24.4628 23.3379 24.4628 23.3379C25.2595 20.9396 25.6773 18.4316 25.7011 15.9046C25.6915 13.7174 25.3538 11.544 24.6993 9.45703C26.9673 9.99399 27.6245 11.8293 27.8689 20.5449C28.1655 30.9635 30.9504 42.1155 31.247 48.1303C31.5435 54.145 32.1246 57.6673 32.8498 58.1081C33.2758 58.3311 33.7669 58.3964 34.2363 58.2925Z" fill="#FBC8AE"/>
<path d="M7.85035 26.9355C8.15309 27.1039 8.42427 27.3235 8.65178 27.5847C10.5592 29.7887 11.8816 41.2331 12.7631 45.9296C13.3803 49.2355 15.472 57.2498 16.6421 61.6577C16.2414 67.5002 14.5263 68.1213 12.0739 67.3038C9.28893 66.3742 12.0739 65.757 12.0739 60.1791C12.0739 54.6011 9.75377 52.1647 8.97638 45.621C8.19899 39.0773 9.97015 40.6321 9.90603 38.1877C9.85394 36.1 8.28713 28.8991 7.85035 26.9355Z" fill="#FBC8AE"/>
<path d="M43.6701 9.088C43.6701 4.44369 40.5726 2.27581 40.5726 2.27581C40.8794 1.89999 41.2707 1.60203 41.7146 1.40625C43.8504 2.01935 45.0766 4.42365 45.7739 7.62939C46.5072 11.0074 47.9738 21.2778 48.2664 27.7334C48.5589 34.1889 48.7071 45.3409 48.5629 50.3298C48.4186 55.3188 47.6813 57.3745 48.4146 58.1078C48.8162 58.4668 49.2737 58.7578 49.769 58.9693C48.9396 62.4475 43.3576 61.4337 43.3576 61.4337C43.3576 61.4337 45.3852 58.8531 44.5838 56.4809C43.7823 54.1086 43.6541 51.2154 45.5094 43.4696C47.3647 35.7237 44.5838 31.7005 44.5838 31.7005C44.5838 31.7005 45.2009 30.4623 45.822 25.8139C46.4431 21.1656 43.6541 13.7363 43.6541 13.7363L43.6701 9.088Z" fill="#FBC8AE"/>
<path d="M100.439 64.6461C99.1409 65.7241 97.6743 67.0104 96.0314 68.5571C86.7387 77.2327 84.8794 85.9042 76.5164 89.3103C68.1534 92.7164 62.2709 84.0449 56.3844 84.3574C50.4978 84.67 41.2052 100.787 41.2052 100.787C41.2052 100.787 43.0645 91.4942 44.9239 86.8499C46.7832 82.2056 56.6929 78.1784 56.6929 78.1784C56.6929 78.1784 44.9239 81.5845 39.967 84.682C36.9151 86.5221 33.5946 87.8741 30.1254 88.6892C31.3275 88.0681 46.9114 77.5132 51.119 75.71C55.4547 73.8506 61.9383 72.6124 62.888 68.8978C63.8377 65.1831 61.6498 60.8433 61.6498 60.8433C61.6498 60.8433 64.4548 51.8593 65.3685 47.2189C66.2821 42.5786 65.0559 40.4068 65.0559 40.4068C65.0559 40.4068 66.6067 37.6218 66.6067 33.282C66.5309 30.2518 66.1155 27.2396 65.3685 24.3019C65.3685 24.3019 69.0831 21.8215 68.466 16.2475C67.8489 10.6735 63.1966 10.6735 63.1966 10.6735C59.1894 12.2203 58.2437 22.7511 58.2437 22.7511L58.1355 19.87L58.2076 18.8442C58.2397 18.5436 58.2758 18.2471 58.3118 17.9465C58.3118 17.8985 58.3118 17.8504 58.3118 17.8023C58.3479 17.5138 58.384 17.2253 58.42 16.9447V16.8886C58.4641 16.5761 58.5042 16.2635 58.5442 15.955V15.9269C58.5843 15.6464 58.6204 15.3739 58.6605 15.1014L58.6845 14.9251L58.7927 14.2038C58.7927 14.1638 58.7927 14.1237 58.7927 14.0836C58.8368 13.8031 58.8808 13.5266 58.9249 13.2582C58.9249 13.2582 58.9249 13.2221 58.9249 13.202C58.965 12.9616 59.0051 12.7252 59.0451 12.4968C59.0451 12.4327 59.0451 12.3726 59.0772 12.3125C59.1093 12.1161 59.1453 11.9117 59.1814 11.7314C59.1814 11.6793 59.1814 11.6272 59.2094 11.5751C59.2535 11.3387 59.2976 11.1103 59.3457 10.8859V10.8258C59.3857 10.6308 59.4258 10.4424 59.4659 10.2608L59.502 10.0845C59.534 9.9362 59.5701 9.79195 59.6021 9.65169L59.6382 9.49541C59.6863 9.31509 59.7304 9.13877 59.7744 8.97448C59.7744 8.97448 59.7744 8.97448 59.7744 8.94242C59.8145 8.79015 59.8586 8.6499 59.8987 8.51366C59.8987 8.46958 59.9267 8.4255 59.9387 8.38543C59.9708 8.28124 60.0029 8.18507 60.0349 8.0929C60.067 8.00074 60.063 8.01677 60.075 7.9807C60.1191 7.86049 60.1631 7.74829 60.2072 7.64811C61.3813 5.00738 66.3703 4.1258 68.7185 7.50385C71.0667 10.8819 69.8926 20.7275 69.7443 25.1114C69.596 29.4952 68.7185 42.5746 67.6926 49.7635C66.6668 56.9524 65.7852 62.3821 65.6369 63.7045C65.4887 65.0268 66.0777 72.8007 66.9593 75.726C67.8409 78.6512 72.6335 88.1883 72.6335 88.1883C72.6335 88.1883 73.8076 88.7733 75.5707 88.04C77.3339 87.3067 81.293 84.666 85.2521 79.092C89.2112 73.518 93.9116 68.2326 97.5781 66.1769C98.5839 65.6159 99.5216 65.0909 100.447 64.6461H100.439Z" fill="#FBC8AE"/>
</g>
</g>
<path d="M62.062 173.125C61.9137 170.484 61.4729 139.401 62.3545 137.061C63.2361 134.72 63.2361 135.887 66.9026 131.05C70.5692 126.213 79.8137 116.816 85.2435 110.357C90.6732 103.897 90.0881 100.527 95.0731 92.004C100.058 83.4807 105.784 76.5964 109.747 71.6075C113.71 66.6185 113.414 65.1519 108.717 63.8295C104.021 62.5072 101.236 64.1261 97.5655 66.1777C93.895 68.2294 89.2026 73.5149 85.2395 79.0929C81.2764 84.6708 77.3173 87.3076 75.5581 88.0409C73.799 88.7742 72.6209 88.1891 72.6209 88.1891C72.6209 88.1891 67.9245 78.6521 67.0469 75.7148C66.1693 72.7776 65.5763 65.0036 65.7245 63.6933C65.8728 62.3829 66.7504 56.9412 67.7802 49.7523C68.81 42.5635 69.6876 29.5041 69.8319 25.1002C69.9761 20.6963 71.1542 10.8667 68.806 7.49268C66.4578 4.11864 61.4689 4.99621 60.2948 7.63694C59.1207 10.2777 57.8023 20.6963 57.4898 27.7409C57.1772 34.7855 52.7974 57.971 52.2083 58.9969C51.6193 60.0227 49.1268 58.8486 48.3935 58.1153C47.6602 57.382 48.3935 55.3103 48.5418 50.3374C48.69 45.3645 48.5418 34.1965 48.2452 27.7409C47.9487 21.2854 46.5061 11.007 45.7848 7.62892C45.0635 4.25087 43.7291 1.76242 41.3769 1.32163C39.0247 0.880841 35.5104 2.49573 35.5104 5.57725C35.5104 8.65876 35.0696 28.6145 35.0696 35.5108C35.0696 42.4072 35.5104 56.0556 35.3622 57.2257C35.2139 58.3958 33.603 58.5481 32.8657 58.1073C32.1284 57.6665 31.5473 54.1442 31.2628 48.1294C30.9783 42.1147 28.1533 30.9627 27.8688 20.544C27.5842 10.1254 26.6946 9.53634 23.1763 9.24381C19.658 8.95129 17.7466 10.7104 17.1656 14.9661C16.5845 19.2217 17.6064 32.7218 17.6064 40.9406C17.6064 49.1593 20.5396 62.952 20.5396 62.952L17.4621 64.7111C17.4621 64.7111 13.6433 50.6259 12.7657 45.9295C11.8881 41.2331 10.5618 29.7886 8.65435 27.5846C6.74694 25.3807 2.6436 26.8513 1.75801 30.2294C0.872425 33.6074 1.31721 37.4183 1.61375 46.222C1.91028 55.0258 5.71309 70.8741 5.71309 70.8741C5.71309 70.8741 4.11022 79.5336 5.86135 94.2039C7.61249 108.874 12.1687 126.926 14.8094 132.212C17.4501 137.497 19.3615 137.493 19.7983 140.723C20.2351 143.953 20.0948 173.859 20.0948 173.859" stroke="#343030" stroke-width="1.375" stroke-linecap="round" stroke-linejoin="round"/>
<path d="M30.1089 88.6621L30.0386 88.6952C30.0055 88.6952 30.0345 88.6828 30.1089 88.6621Z" fill="#343030" stroke="#9E9E9F" stroke-width="1.375" stroke-miterlimit="10"/>
<path d="M14.2277 86.2492C19.5732 85.5559 27.5595 84.2095 33.2978 81.8774C42.6906 78.0625 46.5215 73.3701 46.5215 73.3701" stroke="#343030" stroke-width="1.375" stroke-linecap="round" stroke-linejoin="round"/>
<path d="M8.5174 86.8666C8.5174 86.8666 9.35891 86.8025 10.7734 86.6582" stroke="#343030" stroke-width="1.375" stroke-linecap="round" stroke-linejoin="round"/>
<path d="M53.3984 138.089C51.1577 138.581 48.841 138.616 46.5862 138.194C40.9762 136.991 35.3662 134.587 32.5611 136.19C29.7561 137.793 26.5504 139.796 24.9475 139.796" stroke="#343030" stroke-width="1.375" stroke-linecap="round" stroke-linejoin="round"/>
<path d="M58.2078 136.591C57.4406 136.929 56.6538 137.221 55.8515 137.464" stroke="#343030" stroke-width="1.375" stroke-linecap="round" stroke-linejoin="round"/>
<path d="M38.8079 59.0693C33.4062 59.3859 26.1933 60.1593 23.3442 62.0587" stroke="#343030" stroke-width="1.375" stroke-linecap="round" stroke-linejoin="round"/>
<path d="M45.3835 58.8525C45.3835 58.8525 44.3056 58.8525 42.6146 58.9046" stroke="#343030" stroke-width="1.375" stroke-linecap="round" stroke-linejoin="round"/>
<path d="M29.2957 99.46C28.6705 100.181 28.1376 100.79 27.7248 101.247" stroke="#343030" stroke-width="1.375" stroke-linecap="round" stroke-linejoin="round"/>
<path d="M65.877 76.7432C65.877 76.7432 52.0843 77.184 45.773 82.1729C41.1286 85.8435 35.1299 92.6957 31.1187 97.3481" stroke="#343030" stroke-width="1.375" stroke-linecap="round" stroke-linejoin="round"/>
<path d="M54.2834 79.9717C54.2834 79.9717 46.0647 88.4829 42.3982 98.9016C41.4706 101.485 40.7275 104.131 40.1742 106.82" stroke="#343030" stroke-width="1.375" stroke-linecap="round" stroke-linejoin="round"/>
<path d="M27.0269 40.2686C27.6237 40.359 28.2041 40.5359 28.75 40.7935" stroke="#343030" stroke-width="1.375" stroke-linecap="round" stroke-linejoin="round"/>
<path d="M18.7733 41.9656C18.7733 41.9656 21.8428 40.3948 25.0405 40.1904" stroke="#343030" stroke-width="1.375" stroke-linecap="round" stroke-linejoin="round"/>
<path d="M17.7342 25.3835C17.7342 25.3835 22.2823 22.4502 26.0972 24.2094" stroke="#343030" stroke-width="1.375" stroke-linecap="round" stroke-linejoin="round"/>
<path d="M37.2607 15.6988C37.2607 15.6988 41.6686 13.7914 45.1829 15.5545" stroke="#343030" stroke-width="1.375" stroke-linecap="round" stroke-linejoin="round"/>
<path d="M36.8206 33.8966C36.8206 33.8966 44.5985 32.7225 47.2393 34.3374" stroke="#343030" stroke-width="1.375" stroke-linecap="round" stroke-linejoin="round"/>
<path d="M59.7136 23.7708C59.7136 23.7708 65.5801 23.1898 68.2249 25.6782" stroke="#343030" stroke-width="1.375" stroke-linecap="round" stroke-linejoin="round"/>
<path d="M60.427 39.8945C62.623 40.0789 65.2797 40.5116 66.6101 41.5254" stroke="#343030" stroke-width="1.375" stroke-linecap="round" stroke-linejoin="round"/>
<path d="M56.9245 39.7656C56.9245 39.7656 57.6859 39.7656 58.7959 39.7937" stroke="#343030" stroke-width="1.375" stroke-linecap="round" stroke-linejoin="round"/>
<path d="M2.90852 41.6748C2.90852 41.6748 7.16413 39.034 9.95312 40.6489" stroke="#343030" stroke-width="1.375" stroke-linecap="round" stroke-linejoin="round"/>
<path d="M9.75273 52.1977C10.4169 52.106 11.0934 52.1705 11.7283 52.3861" stroke="#343030" stroke-width="1.375" stroke-linecap="round" stroke-linejoin="round"/>
<path d="M2.90822 55.0264C4.3131 54.1188 5.81093 53.3638 7.37622 52.7744" stroke="#343030" stroke-width="1.375" stroke-linecap="round" stroke-linejoin="round"/>
<path d="M88.7651 76.7432C88.7651 76.7432 93.7541 80.7023 97.2764 81.2913" stroke="#343030" stroke-width="1.375" stroke-linecap="round" stroke-linejoin="round"/>
<path d="M9.67629 69.4092C9.67629 69.4092 13.6354 68.3794 14.9577 67.2093C16.2801 66.0392 17.0134 65.2979 17.0134 65.2979" stroke="#343030" stroke-width="1.375" stroke-linecap="round" stroke-linejoin="round"/>
<path d="M56.0433 59.8701C56.0433 59.8701 62.4988 61.3367 63.9695 62.9516" stroke="#343030" stroke-width="1.375" stroke-linecap="round" stroke-linejoin="round"/>
<path d="M72.6331 88.1892C72.6331 88.1892 70.5774 87.1634 67.4959 84.2261C64.4143 81.2889 63.5368 80.5596 63.5368 80.5596" stroke="#343030" stroke-width="1.375" stroke-linecap="round" stroke-linejoin="round"/>
<path d="M71.8918 88.3369C71.8918 88.3369 68.5178 87.0145 63.3806 84.8146C58.2434 82.6146 57.3699 82.1738 57.3699 82.1738" stroke="#343030" stroke-width="1.375" stroke-linecap="round" stroke-linejoin="round"/>
</svg>
