<svg width="325" height="302" viewBox="0 0 325 302" fill="none" xmlns="http://www.w3.org/2000/svg">
<path d="M145.637 144.123L153.821 285.488H160.346C160.346 285.488 156.197 240.168 156.985 233.177C157.773 226.185 159.309 217.897 159.309 217.897C159.309 217.897 155.636 212.607 155.419 200.833C155.201 189.06 152.805 148.874 152.805 148.874L145.637 144.123Z" fill="#FFBF9D"/>
<path d="M128.884 293.247C128.559 293.316 128.267 293.496 128.06 293.756C127.853 294.017 127.743 294.341 127.749 294.674C127.755 295.007 127.877 295.327 128.093 295.579C128.31 295.832 128.608 296.001 128.936 296.058H129.133C130.658 296.058 151.238 292.334 151.238 292.334C151.238 292.334 136.488 298.755 135.253 300.508C134.496 301.545 135.969 302.718 139.403 301.182C142.836 299.647 158.489 295.01 158.489 295.01C158.489 295.01 162.379 294.295 162.379 292.687C162.435 292.127 162.317 291.563 162.041 291.072C161.764 290.582 161.342 290.189 160.833 289.948L160.419 285.529H153.863L154.122 288.963L128.884 293.247Z" fill="#FFBF9D"/>
<path d="M154.371 226.091C157.488 226.091 160.014 223.564 160.014 220.448C160.014 217.331 157.488 214.805 154.371 214.805C151.254 214.805 148.728 217.331 148.728 220.448C148.728 223.564 151.254 226.091 154.371 226.091Z" fill="#FFBF9D"/>
<g opacity="0.8">
<path d="M128.885 293.245C128.559 293.314 128.268 293.494 128.06 293.755C127.853 294.015 127.743 294.339 127.749 294.672C127.755 295.005 127.877 295.325 128.094 295.578C128.311 295.83 128.609 296 128.937 296.056H129.134C130.658 296.056 151.239 292.332 151.239 292.332C151.239 292.332 136.488 298.753 135.254 300.506C134.497 301.544 135.969 302.716 139.403 301.181C142.837 299.645 158.49 295.009 158.49 295.009C158.49 295.009 162.38 294.293 162.38 292.685C162.436 292.125 162.318 291.561 162.041 291.071C161.764 290.58 161.343 290.188 160.834 289.947L159.236 272.717H153.085L154.06 288.961L128.885 293.245Z" fill="white"/>
</g>
<path d="M158.489 149.195L151.114 150.119C151.114 150.119 177.98 204.422 178.177 205.822C178.186 207.39 178.009 208.954 177.648 210.48L124.424 232.917C124.011 233.086 123.612 233.287 123.231 233.519C119.704 235.749 119.434 238.705 119.434 238.705L96.4888 249.939C96.1932 250.096 95.9617 250.35 95.8344 250.66C95.7071 250.969 95.692 251.313 95.7918 251.632C95.8916 251.951 96.1 252.225 96.3808 252.407C96.6615 252.588 96.997 252.666 97.329 252.626L97.5157 252.574C98.9887 252.149 117.671 242.761 117.671 242.761C117.671 242.761 105.379 253.134 104.642 255.095C104.206 256.298 105.949 257.014 108.791 254.586C111.634 252.159 125.388 243.269 125.388 243.269C125.388 243.269 128.915 241.485 128.5 239.95C128.395 239.407 128.13 238.908 127.738 238.517C127.345 238.127 126.845 237.864 126.301 237.761C129.071 236.631 183.354 214.484 185.252 211.756C187.15 209.028 158.489 149.195 158.489 149.195Z" fill="#FFBF9D"/>
<path d="M181.673 215.054C184.79 215.054 187.316 212.527 187.316 209.411C187.316 206.294 184.79 203.768 181.673 203.768C178.557 203.768 176.03 206.294 176.03 209.411C176.03 212.527 178.557 215.054 181.673 215.054Z" fill="#FFBF9D"/>
<path d="M179.817 214.805C179.299 215.129 178.758 215.413 178.198 215.655L173.686 217.782C169.879 219.556 164.589 221.931 158.707 224.555C152.826 227.18 147.452 229.358 143.531 230.883C141.571 231.64 139.973 232.232 138.863 232.626C138.293 232.852 137.707 233.036 137.11 233.176C137.646 232.878 138.204 232.625 138.78 232.418L143.386 230.52C147.266 228.912 152.608 226.63 158.489 224.047L173.53 217.429L178.105 215.458C178.658 215.198 179.23 214.979 179.817 214.805Z" fill="#263238"/>
<path d="M175.781 210.791C175.635 210.896 175.478 210.986 175.314 211.061L173.914 211.735C172.69 212.305 170.916 213.115 168.727 214.1C164.319 216.061 158.188 218.695 151.404 221.538L133.988 228.799L128.697 230.956L127.245 231.517C127.079 231.591 126.905 231.646 126.727 231.683C126.727 231.683 126.882 231.568 127.204 231.413L128.614 230.759L133.801 228.436C138.23 226.506 144.361 223.903 151.155 221.06L168.541 213.799L173.81 211.59L175.252 211.009C175.416 210.91 175.595 210.836 175.781 210.791Z" fill="#263238"/>
<path d="M153.209 146.735L145.637 145.584C145.386 148.663 145.627 151.762 146.352 154.764C146.715 154.038 147.068 153.312 147.39 152.576C147.763 153.613 148.137 154.65 148.52 155.687L149.672 152.389L151.487 154.754C151.414 154.048 151.352 153.343 151.28 152.679C151.262 152.599 151.263 152.517 151.283 152.438C151.303 152.358 151.341 152.285 151.394 152.223C151.467 152.183 151.549 152.162 151.632 152.162C151.716 152.162 151.798 152.183 151.871 152.223L154.734 153.54C153.825 151.381 153.309 149.076 153.209 146.735Z" fill="#FC75A1"/>
<g opacity="0.3">
<path d="M153.21 146.737L145.637 145.586C145.386 148.665 145.628 151.764 146.353 154.766C146.716 154.04 147.069 153.314 147.39 152.577C147.764 153.615 148.137 154.652 148.521 155.689L149.672 152.391L151.488 154.756C151.415 154.05 151.353 153.345 151.28 152.681C151.263 152.601 151.264 152.519 151.284 152.44C151.303 152.36 151.341 152.287 151.394 152.225C151.467 152.185 151.549 152.164 151.633 152.164C151.716 152.164 151.798 152.185 151.871 152.225L154.734 153.542C153.826 151.383 153.309 149.078 153.21 146.737Z" fill="black"/>
</g>
<path d="M119.528 136.342C119.528 136.342 91.2401 126.187 95.6695 97.0696C95.6695 97.0696 96.4889 84.9848 112.692 70.1512C128.895 55.3176 140.16 41.3243 141.529 32.8079C142.898 24.2915 140.16 19.0739 135.492 17.4245C130.824 15.7752 128.625 21.8227 124.777 25.3911C120.928 28.9595 110.254 34.7269 110.254 34.7269L99.8187 27.5902C99.8187 27.5902 102.288 8.91855 114.652 2.59093C127.017 -3.73669 143.604 2.68428 148.707 9.45795C153.313 15.5885 160.792 30.6088 148.707 46.8013C136.623 62.9938 115.866 81.9559 112.401 91.2917C109.289 99.7355 111.302 107.225 120.088 106.395C120.088 106.395 122.162 105.845 125.119 100.908C128.075 95.97 138.324 73.0764 163.759 72.9001C191.528 72.703 210.5 88.688 214.836 99.2687C221.06 114.299 231.226 115.482 229.545 121.488C228.394 125.637 221.153 126.187 221.153 126.187C221.153 126.187 226.651 129.206 223.902 131.125C221.153 133.044 210.137 131.425 210.137 131.425C210.137 131.425 193.115 144.05 179.381 144.33C165.647 144.61 163.448 144.33 163.448 144.33C163.448 144.33 161.373 149.309 159.06 150.46L151.913 150.367C151.913 150.367 145.844 151.881 141.986 142.016C142.006 141.996 125.077 141.29 119.528 136.342Z" fill="#FC75A1"/>
<g opacity="0.3">
<path d="M192.119 92.0074C198.27 96.7894 201.226 103.771 206.568 105.119C208.55 105.627 211.195 105.171 211.952 103.262C212.606 101.592 211.319 99.8184 210.054 98.5321C205.245 93.631 199.54 89.6977 193.249 86.9453" fill="black"/>
</g>
<g opacity="0.3">
<path d="M177.565 120.014C180.906 122.918 185.127 125.2 189.546 124.827C191.255 124.556 192.83 123.741 194.038 122.503C194.918 121.485 195.368 120.165 195.293 118.821C195.293 117.493 195.293 114.672 185.532 108.842" fill="black"/>
</g>
<g opacity="0.3">
<path d="M179.589 105.753C186.954 109.176 210.656 123.305 219.079 122.35C220.625 122.184 222.326 121.811 223.229 120.545C223.666 119.809 223.869 118.957 223.809 118.102C223.75 117.248 223.432 116.432 222.897 115.763C221.792 114.459 220.429 113.4 218.893 112.651C214.868 110.297 209.049 106.853 204.578 104.799" fill="black"/>
</g>
<path d="M109.611 18.7734L99.7565 27.5906C99.7565 27.5906 95.0679 34.0738 95.1716 36.8746C95.2753 39.6753 100.991 53.15 102.931 56.3761C104.87 59.6021 110.472 61.3345 110.897 59.82C111.323 58.3055 107.879 43.5549 107.879 41.5114C107.879 39.4679 112.028 33.7108 112.028 33.7108L110.182 34.7481C110.182 34.7481 108.107 27.9537 108.522 26.0139C109.229 23.7677 110.092 21.5736 111.105 19.4477L109.611 18.7734Z" fill="#E0E0E0"/>
<path d="M110.897 59.85C111.281 58.5222 108.636 46.8732 108.013 42.7447C107.941 43.0455 107.868 43.3878 107.795 43.782C107.505 45.2861 101.696 40.3589 101.696 40.3589C99.9015 36.4793 104.32 25.9609 104.32 25.9609C102.769 27.7088 101.451 29.6511 100.399 31.7388C98.1796 35.8258 98.5115 38.4295 97.9617 38.056C97.0079 37.1022 96.2223 35.994 95.6382 34.7781C95.3591 35.436 95.201 36.1388 95.1714 36.8527C95.2751 39.6535 100.991 53.1282 102.93 56.3543C104.87 59.5803 110.472 61.3334 110.897 59.85Z" fill="#263238"/>
<path d="M108.356 60.1612C108.048 59.6563 107.777 59.1293 107.547 58.5845L105.555 54.1967L102.692 47.6408C102.163 46.396 101.655 45.0994 101.053 43.7509C100.784 43.0559 100.493 42.392 100.255 41.6763C100.016 40.9605 99.9226 40.1722 99.7878 39.4045C99.7255 38.9792 99.6633 38.5643 99.6011 38.1805V38.0664C100.478 33.0529 102.529 28.318 105.586 24.2494C106.498 23.038 107.504 21.9004 108.595 20.847C108.978 20.4632 109.3 20.2039 109.507 20.0171C109.612 19.9187 109.727 19.8317 109.85 19.7578C109.514 20.1991 109.143 20.612 108.74 20.9922C107.722 22.095 106.773 23.259 105.898 24.4776C102.994 28.5462 101.041 33.2148 100.182 38.139V38.0664C100.244 38.4502 100.296 38.8548 100.358 39.2697C100.493 40.0269 100.638 40.7738 100.815 41.4999C100.991 42.226 101.323 42.8795 101.582 43.5745C102.142 44.9231 102.672 46.2301 103.19 47.4749C104.227 49.9333 105.151 52.1635 105.939 54.0722L107.775 58.5326C108.009 59.0603 108.203 59.6047 108.356 60.1612Z" fill="#455A64"/>
<g opacity="0.3">
<path d="M119.527 136.344C103.605 128.844 97.7437 110.764 97.5985 108.575C95.192 92.4445 105.513 80.1731 116.115 70.4535C123.268 63.7225 129.96 56.5176 136.145 48.8877C142.027 41.7095 146 32.0313 143.344 23.1519C142.11 19.0027 138.915 15.0401 134.641 14.8534C131.529 14.7082 128.666 16.6376 126.654 19.0027C124.641 21.3677 123.272 24.1892 121.467 26.7618C120.846 27.6579 120.153 28.501 119.392 29.2824C121.256 28.1321 123.025 26.8348 124.683 25.4029C128.531 21.8345 130.73 15.787 135.398 17.4363C140.066 19.0856 142.815 24.3033 141.435 32.8197C140.056 41.3361 128.801 55.3398 112.598 70.163C96.3952 84.9863 95.5757 97.0814 95.5757 97.0814C91.1775 126.188 119.434 136.354 119.434 136.354L119.527 136.344Z" fill="black"/>
<path d="M209.67 131.759C207.749 131.628 205.822 131.922 204.027 132.62C192.917 136.458 182.098 142.536 170.356 142.235C166.881 142.142 164.308 141.291 163.302 143.034C160.823 147.339 160.989 149.113 153.344 150.368L159.08 150.441C161.912 149.289 163.468 144.31 163.468 144.31C163.468 144.31 165.667 144.58 179.401 144.31C191.766 144.061 206.807 133.792 209.67 131.759Z" fill="black"/>
</g>
<path d="M113.055 14.0216C112.334 13.7812 111.563 13.7362 110.82 13.891C110.076 14.0459 109.387 14.3952 108.823 14.9033C108.268 15.4269 107.852 16.0804 107.613 16.8048C107.374 17.5291 107.319 18.3016 107.453 19.0525C107.599 19.7987 107.916 20.5006 108.381 21.1022C108.845 21.7037 109.444 22.1883 110.13 22.5172C110.835 22.8608 111.614 23.0246 112.398 22.9938C113.181 22.9631 113.945 22.7387 114.621 22.3408C115.294 21.9363 115.844 21.3549 116.21 20.6599C116.575 19.965 116.744 19.183 116.696 18.399C116.596 17.3933 116.198 16.4402 115.553 15.6621C114.908 14.884 114.045 14.3164 113.076 14.0319" fill="#263238"/>
<path d="M113.127 13.7623C112.149 13.4484 111.094 13.472 110.131 13.8294C109.168 14.1868 108.353 14.8572 107.816 15.7332C107.296 16.6186 107.065 17.6444 107.156 18.6673C107.247 19.6902 107.656 20.659 108.324 21.4384C109.031 22.2545 109.974 22.83 111.022 23.0848C112.071 23.3395 113.173 23.2608 114.175 22.8596C115.093 22.4652 115.856 21.7813 116.349 20.9122C116.842 20.043 117.036 19.0365 116.903 18.0464C116.733 17.0523 116.29 16.1252 115.623 15.3686C114.956 14.612 114.092 14.0558 113.127 13.7623C112.806 13.6586 112.66 14.1669 112.982 14.2706C113.749 14.5045 114.447 14.9227 115.015 15.4887C115.582 16.0547 116.003 16.7513 116.239 17.5174C116.481 18.323 116.465 19.1839 116.193 19.9799C115.922 20.7759 115.408 21.4672 114.725 21.9571C113.904 22.4985 112.931 22.7606 111.95 22.7046C110.969 22.6485 110.032 22.2772 109.279 21.6459C108.576 21.0662 108.069 20.2845 107.826 19.4068C107.583 18.5291 107.616 17.5979 107.92 16.7394C108.28 15.7525 109.008 14.9436 109.953 14.4831C110.897 14.0226 111.983 13.9464 112.982 14.2706C113.314 14.3847 113.449 13.8661 113.127 13.7623Z" fill="white"/>
<g opacity="0.3">
<path d="M112.878 15.4859C112.344 15.2351 111.756 15.121 111.167 15.154C110.86 15.1504 110.556 15.2189 110.281 15.354C110.005 15.4891 109.765 15.6871 109.58 15.932C109.214 16.4301 109.004 17.0259 108.978 17.6436C108.933 17.9545 108.98 18.2718 109.113 18.5564C109.182 18.6992 109.294 18.8163 109.434 18.8909C109.574 18.9655 109.734 18.9937 109.891 18.9713C110.254 18.8883 110.441 18.5045 110.565 18.1518C110.69 17.7992 110.835 17.405 111.177 17.2701C111.52 17.1353 112.152 17.5191 112.661 17.488C112.878 17.4535 113.077 17.3465 113.226 17.1846C113.374 17.0227 113.464 16.8152 113.48 16.5959C113.48 16.3755 113.425 16.1586 113.32 15.9648C113.215 15.7711 113.063 15.6065 112.878 15.4859Z" fill="white"/>
</g>
<path d="M185.532 93.978C191.684 98.7601 198.831 102.691 206.569 103.667C208.644 103.926 211.195 103.718 211.953 101.81C212.606 100.14 211.32 98.3659 210.054 97.0796C205.242 92.1793 199.539 88.2431 193.25 85.4824" fill="#FC75A1"/>
<path d="M193.25 85.4824C193.435 85.5271 193.616 85.5896 193.789 85.6692C194.132 85.804 194.64 86.0115 195.273 86.3123C197.081 87.1394 198.834 88.0819 200.521 89.1338C203.031 90.6865 205.405 92.4493 207.617 94.4033C208.249 94.9635 208.872 95.5444 209.494 96.146C210.158 96.7575 210.768 97.4237 211.32 98.1377C211.926 98.902 212.287 99.8309 212.357 100.804C212.366 101.329 212.232 101.847 211.969 102.302C211.706 102.757 211.324 103.132 210.863 103.386C208.996 104.351 206.963 104.03 205.21 103.739C203.486 103.435 201.787 103.001 200.127 102.443C197.331 101.483 194.643 100.231 192.109 98.7082C190.397 97.695 188.748 96.5796 187.171 95.368C186.611 94.9531 186.186 94.6004 185.906 94.3307C185.754 94.2174 185.615 94.0888 185.491 93.9469C186.113 94.3235 186.716 94.732 187.296 95.1709C188.447 95.9697 190.128 97.1004 192.306 98.3348C194.84 99.8016 197.516 101.008 200.293 101.934C201.928 102.469 203.599 102.885 205.293 103.179C206.182 103.352 207.085 103.442 207.99 103.449C208.892 103.478 209.787 103.282 210.594 102.878C210.964 102.674 211.273 102.374 211.487 102.008C211.7 101.643 211.811 101.227 211.807 100.804C211.729 99.9397 211.393 99.1193 210.843 98.4489C210.314 97.7576 209.727 97.1122 209.09 96.5195C208.478 95.9074 207.855 95.3266 207.243 94.7768C205.067 92.818 202.736 91.0384 200.272 89.4554C198.611 88.3813 196.898 87.3912 195.138 86.4886C194.489 86.1903 193.859 85.8544 193.25 85.4824Z" fill="#263238"/>
<path d="M177.565 118.521C180.906 121.416 185.127 123.708 189.546 123.335C191.257 123.065 192.834 122.246 194.038 121.001C194.916 119.985 195.366 118.669 195.293 117.329C195.293 116.001 195.293 113.179 185.532 107.35" fill="#FC75A1"/>
<path d="M185.532 107.35C185.986 107.518 186.418 107.741 186.818 108.013C187.967 108.669 189.082 109.382 190.158 110.15C191.802 111.257 193.262 112.615 194.484 114.175C195.213 115.151 195.58 116.35 195.521 117.567C195.548 118.888 195.082 120.171 194.214 121.167C193.312 122.077 192.227 122.784 191.03 123.241C190.454 123.467 189.843 123.59 189.225 123.604C188.647 123.629 188.068 123.612 187.492 123.552C185.517 123.326 183.606 122.709 181.87 121.737C180.701 121.108 179.599 120.36 178.582 119.507C178.215 119.21 177.946 118.971 177.773 118.791C177.6 118.611 177.517 118.518 177.524 118.511C178.971 119.563 180.482 120.526 182.047 121.395C183.758 122.289 185.624 122.849 187.544 123.044C188.65 123.194 189.775 123.088 190.833 122.733C191.954 122.299 192.971 121.634 193.82 120.783C194.591 119.883 195.004 118.731 194.982 117.546C195.042 116.429 194.704 115.326 194.028 114.434C192.852 112.9 191.454 111.55 189.878 110.43C188.55 109.393 187.43 108.677 186.663 108.159C186.261 107.925 185.882 107.654 185.532 107.35Z" fill="#263238"/>
<path d="M179.588 104.31C186.953 107.733 210.656 121.861 219.079 120.907C220.625 120.741 222.326 120.367 223.228 119.102C223.667 118.364 223.87 117.51 223.81 116.654C223.751 115.798 223.432 114.98 222.896 114.31C221.786 113.011 220.424 111.953 218.892 111.198C214.867 108.853 207.482 105.399 203.021 103.355" fill="#FC75A1"/>
<path d="M203.031 103.355C203.283 103.417 203.527 103.508 203.758 103.625L205.78 104.507C207.533 105.285 210.064 106.436 213.145 107.94C214.691 108.687 216.371 109.527 218.145 110.503C219.027 111 219.94 111.54 220.842 112.121C221.808 112.729 222.641 113.527 223.29 114.465C223.97 115.503 224.233 116.759 224.027 117.982C223.896 118.624 223.583 119.214 223.124 119.683C222.662 120.147 222.102 120.501 221.485 120.72C220.262 121.14 218.97 121.32 217.678 121.249C216.369 121.153 215.073 120.928 213.809 120.575C211.335 119.89 208.909 119.041 206.548 118.033C204.266 117.079 202.098 116.083 200.054 115.098C195.967 113.117 192.357 111.208 189.329 109.59L182.181 105.741L180.231 104.704C179.997 104.599 179.775 104.471 179.567 104.32C179.813 104.393 180.053 104.487 180.283 104.6C180.74 104.808 181.424 105.119 182.285 105.544C184.007 106.395 186.434 107.619 189.546 109.247C192.658 110.876 196.216 112.691 200.303 114.631C202.378 115.606 204.515 116.592 206.787 117.536C209.119 118.526 211.514 119.364 213.954 120.046C215.182 120.382 216.44 120.601 217.709 120.699C218.929 120.77 220.152 120.605 221.309 120.212C221.85 120.055 222.339 119.757 222.727 119.348C223.116 118.94 223.389 118.436 223.518 117.888C223.698 116.806 223.465 115.695 222.865 114.776C221.662 112.94 219.639 111.955 217.927 110.938C216.216 109.922 214.515 109.092 212.979 108.314C209.93 106.768 207.419 105.565 205.718 104.725L203.737 103.75C203.49 103.64 203.254 103.508 203.031 103.355Z" fill="#263238"/>
<g opacity="0.3">
<path d="M145.948 117.65C151.653 122.037 156.674 128.614 162.763 132.462C164.557 133.593 167.887 134.039 169.36 132.151C170.314 130.927 169.993 128.5 169.36 127.058C168.727 125.616 166.653 123.521 165.501 122.473C168.32 124.81 171.465 126.721 174.837 128.147C175.695 128.529 176.627 128.716 177.565 128.697C178.03 128.654 178.477 128.498 178.867 128.244C179.257 127.989 179.58 127.642 179.806 127.234C180.19 126.434 180.318 125.535 180.173 124.659C180.029 123.783 179.618 122.973 178.997 122.338C176.672 119.965 174.209 117.731 171.622 115.648C171.622 115.648 177.337 118.76 179.681 119.247C179.681 119.247 186.383 121.218 184.93 114.818C183.997 110.668 181.621 109.258 180.439 107.494C182.835 108.739 185.356 110.212 187.762 110.16C188.429 110.139 189.08 109.957 189.662 109.63C190.243 109.303 190.737 108.841 191.102 108.283C193.177 105.461 190.615 102.411 190.615 102.411C186.663 96.0631 180.169 91.7582 173.613 88.1691C180.563 88.7707 187.596 89.3828 194.463 88.221C195.873 88.0729 197.227 87.593 198.415 86.8206C198.996 86.4362 199.452 85.8913 199.728 85.2521C200.005 84.613 200.089 83.9074 199.971 83.2211C199.577 81.7066 198 80.8457 196.548 80.2855C190.855 78.2296 184.894 77.0068 178.852 76.6549C169.09 76.1466 160.408 75.6176 151.041 78.3354C141.674 81.0531 135.295 89.1857 129.745 97.2249" fill="black"/>
</g>
<path d="M140.741 113.615C146.446 118.002 155.751 125.43 161.84 129.278C163.634 130.409 166.964 130.844 168.437 128.967C169.402 127.733 169.08 125.316 168.437 123.874C167.794 122.432 165.73 120.326 164.578 119.278C167.394 121.621 170.54 123.536 173.914 124.963C174.776 125.343 175.71 125.531 176.652 125.513C177.116 125.468 177.562 125.312 177.953 125.057C178.343 124.802 178.666 124.457 178.893 124.05C179.278 123.247 179.406 122.345 179.259 121.467C179.113 120.589 178.698 119.778 178.074 119.144C175.752 116.774 173.293 114.543 170.709 112.463C170.709 112.463 176.424 115.575 178.769 116.063C178.769 116.063 185.47 118.034 184.017 111.633C183.084 107.484 180.708 106.073 179.526 104.31C181.912 105.555 184.432 107.028 186.839 106.976C187.507 106.95 188.16 106.765 188.742 106.437C189.325 106.108 189.821 105.646 190.189 105.088C192.212 102.266 189.692 99.2271 189.692 99.2271C185.739 92.8787 179.256 88.5739 172.7 84.9848C179.64 85.5864 186.673 86.1881 193.55 84.9848C194.935 84.8318 196.265 84.3634 197.44 83.6155C198.019 83.2298 198.473 82.6843 198.747 82.0453C199.022 81.4062 199.105 80.7013 198.986 80.0161C198.602 78.5016 197.025 77.6406 195.563 77.0804C189.874 75.0197 183.917 73.7967 177.876 73.4498C168.115 72.9415 159.433 72.4125 150.056 75.1303C140.678 77.8481 132.961 88.3664 127.411 96.4056" fill="#FC75A1"/>
<path d="M127.474 96.457C127.474 96.457 127.567 96.291 127.774 95.9798L128.698 94.6106C129.517 93.4177 130.772 91.6542 132.432 89.424C134.476 86.7253 136.723 84.1868 139.154 81.8309C140.683 80.3558 142.342 79.0226 144.112 77.8476C146.103 76.5036 148.295 75.4847 150.606 74.829C155.922 73.3907 161.417 72.72 166.923 72.8373C169.9 72.8373 172.97 72.9929 176.134 73.1485C179.405 73.2549 182.664 73.6016 185.885 74.1859C189.294 74.7892 192.641 75.7024 195.885 76.914C196.747 77.2326 197.548 77.6995 198.25 78.2936C198.624 78.6079 198.921 79.0046 199.117 79.4526C199.314 79.9007 199.404 80.388 199.38 80.8765C199.291 81.8557 198.844 82.7677 198.125 83.4387C197.412 84.0809 196.56 84.5496 195.636 84.8079C188.374 86.5506 180.563 85.8453 172.742 85.2125L172.898 84.7042C177.682 87.1689 182.085 90.3135 185.968 94.04C187.491 95.5673 188.841 97.258 189.993 99.0814C190.509 99.7095 190.887 100.44 191.1 101.226C191.312 102.011 191.356 102.832 191.227 103.635C191.041 104.425 190.658 105.155 190.114 105.757C189.57 106.359 188.882 106.814 188.115 107.079C187.727 107.208 187.321 107.275 186.912 107.276C186.522 107.281 186.133 107.25 185.75 107.183C184.988 107.058 184.243 106.845 183.53 106.55C182.156 105.962 180.812 105.304 179.505 104.579L179.848 104.185C180.688 105.378 181.922 106.394 182.711 107.691C183.56 108.943 184.146 110.355 184.433 111.84C184.599 112.594 184.62 113.372 184.495 114.133C184.435 114.529 184.29 114.908 184.07 115.243C183.85 115.578 183.559 115.861 183.219 116.073C182.538 116.439 181.772 116.618 180.999 116.591C180.257 116.589 179.518 116.491 178.8 116.301C177.345 115.881 175.932 115.329 174.578 114.651C173.25 114.019 171.943 113.355 170.667 112.67L170.947 112.255C173.219 114.122 175.398 115.99 177.4 117.981C177.912 118.472 178.38 119.007 178.8 119.579C179.206 120.179 179.481 120.857 179.609 121.57C179.755 122.282 179.682 123.022 179.401 123.692C179.12 124.361 178.643 124.931 178.032 125.325C177.403 125.68 176.673 125.815 175.958 125.709C175.291 125.627 174.639 125.456 174.018 125.201C172.822 124.735 171.66 124.184 170.543 123.552C168.391 122.367 166.359 120.977 164.475 119.402L164.755 119.081C166.026 120.212 167.171 121.478 168.167 122.857C168.624 123.558 168.935 124.345 169.08 125.17C169.251 125.964 169.283 126.782 169.174 127.587C169.113 127.991 168.98 128.382 168.78 128.738C168.569 129.084 168.295 129.387 167.97 129.63C167.326 130.072 166.572 130.327 165.792 130.367C164.334 130.469 162.881 130.106 161.643 129.33C157.027 126.332 153.292 123.417 150.232 121.031L143.199 115.533L141.384 114.081C140.969 113.749 140.772 113.573 140.772 113.573C140.772 113.573 141 113.718 141.415 114.029L143.272 115.429L150.378 120.844C153.49 123.168 157.234 126.031 161.84 129.018C163.015 129.772 164.398 130.135 165.792 130.056C166.507 130.02 167.198 129.782 167.784 129.371C168.071 129.158 168.312 128.887 168.491 128.577C168.669 128.266 168.782 127.922 168.821 127.566C168.921 126.805 168.886 126.033 168.717 125.284C168.583 124.51 168.29 123.771 167.856 123.116C166.874 121.769 165.747 120.535 164.495 119.434L164.775 119.122C166.64 120.662 168.648 122.021 170.771 123.178C171.871 123.797 173.015 124.335 174.194 124.786C175.366 125.222 176.725 125.585 177.794 124.931C178.323 124.588 178.736 124.091 178.977 123.508C179.218 122.924 179.275 122.281 179.142 121.664C179.022 121.018 178.772 120.404 178.406 119.859C177.999 119.311 177.544 118.801 177.047 118.334C175.076 116.373 172.898 114.506 170.636 112.649L170.906 112.235C172.172 112.919 173.479 113.573 174.796 114.195C176.124 114.863 177.514 115.402 178.945 115.803C180.254 116.232 181.675 116.166 182.939 115.616C183.219 115.446 183.458 115.215 183.637 114.94C183.817 114.666 183.933 114.354 183.976 114.029C184.085 113.339 184.06 112.635 183.904 111.954C183.638 110.523 183.084 109.161 182.275 107.95C181.476 106.716 180.325 105.751 179.402 104.465L178.748 103.552L179.785 104.071C181.076 104.787 182.402 105.438 183.758 106.021C184.425 106.296 185.121 106.495 185.833 106.612C186.192 106.676 186.557 106.704 186.922 106.695C187.275 106.698 187.625 106.642 187.959 106.529C188.638 106.294 189.247 105.893 189.731 105.362C190.214 104.831 190.558 104.187 190.729 103.49C190.839 102.768 190.795 102.03 190.601 101.326C190.406 100.621 190.064 99.9661 189.598 99.403C188.465 97.615 187.139 95.9558 185.646 94.455C181.795 90.7823 177.435 87.6835 172.701 85.254L171.57 84.6316L172.794 84.7457C176.725 85.088 180.595 85.4096 184.401 85.4511C188.126 85.5619 191.851 85.2135 195.49 84.4138C196.339 84.179 197.12 83.7492 197.772 83.1586C198.402 82.5837 198.797 81.7971 198.882 80.9491C198.898 80.538 198.82 80.1288 198.652 79.7529C198.485 79.377 198.234 79.0445 197.918 78.7811C197.263 78.2251 196.515 77.7896 195.708 77.4949C192.5 76.2859 189.187 75.3727 185.812 74.7667C182.613 74.1823 179.374 73.8356 176.124 73.7294C172.96 73.5635 169.9 73.4079 166.933 73.3975C161.466 73.2638 156.007 73.9065 150.72 75.3061C148.442 75.9404 146.278 76.9312 144.309 78.2418C142.544 79.3959 140.888 80.7084 139.361 82.1628C136.922 84.4907 134.665 87.0014 132.608 89.673C130.897 91.8513 129.642 93.594 128.791 94.7662L127.826 96.1043C127.598 96.3118 127.474 96.457 127.474 96.457Z" fill="#263238"/>
<g opacity="0.3">
<path d="M133.22 105.782C135.883 109.5 139.197 112.705 143.002 115.242C144.548 116.279 146.882 117.099 148.054 115.657C149.226 114.215 148.158 112.369 147.172 110.968L141.259 102.514C145.658 107.431 150.568 111.864 155.906 115.74C157.379 116.777 159.018 117.877 160.875 117.607C161.474 117.495 162.041 117.253 162.535 116.898C163.03 116.543 163.44 116.083 163.737 115.552C164.034 115.02 164.211 114.429 164.254 113.822C164.297 113.214 164.206 112.605 163.987 112.037C162.628 108.053 154.112 99.5266 154.112 99.5266C158.354 101.923 161.777 104.858 166.362 106.508C168.81 107.389 171.756 108.095 173.841 106.508C174.674 105.772 175.265 104.802 175.535 103.724C175.806 102.646 175.743 101.512 175.356 100.471C174.631 98.348 173.282 96.4934 171.487 95.1491C167.164 91.8945 162.483 89.145 157.535 86.9543C157.535 86.9543 165.138 86.5809 165.429 83.6246C165.719 80.6682 162.172 80.2014 153.043 80.8964" fill="black"/>
</g>
<path d="M131.747 103.616C134.412 107.329 137.721 110.533 141.519 113.076C143.075 114.113 145.409 114.933 146.581 113.48C147.753 112.028 146.684 110.203 145.699 108.802L139.786 100.338C144.177 105.262 149.088 109.697 154.433 113.563C155.896 114.601 157.597 115.711 159.391 115.441C159.99 115.329 160.557 115.087 161.052 114.732C161.546 114.377 161.957 113.917 162.254 113.386C162.551 112.854 162.727 112.263 162.77 111.656C162.813 111.048 162.722 110.439 162.503 109.871C161.145 105.887 152.628 97.3502 152.628 97.3502C156.871 99.7568 160.284 102.692 164.879 104.342C167.327 105.223 170.273 105.929 172.358 104.342C174.132 103.014 174.547 100.41 173.872 98.3045C173.147 96.182 171.799 94.3274 170.003 92.9831C165.679 89.7308 160.998 86.9816 156.051 84.7883C156.051 84.7883 163.655 84.4149 163.935 81.4585C164.215 78.5022 160.688 78.0354 151.56 78.7304" fill="#FC75A1"/>
<path d="M151.602 78.7515C151.735 78.7252 151.87 78.7079 152.006 78.6997L153.189 78.5856C154.226 78.5129 155.772 78.3781 157.774 78.3677C158.884 78.3438 159.995 78.4166 161.093 78.5856C161.738 78.6691 162.363 78.8658 162.939 79.1665C163.265 79.3348 163.545 79.581 163.753 79.8832C163.961 80.1853 164.091 80.5342 164.132 80.8988C164.143 81.0854 164.143 81.2723 164.132 81.4589C164.102 81.6523 164.057 81.843 163.997 82.0295C163.91 82.2092 163.809 82.3826 163.697 82.5481C163.566 82.7009 163.428 82.8463 163.282 82.9838C162.645 83.4753 161.924 83.8478 161.155 84.0833C159.516 84.5956 157.819 84.9022 156.103 84.9962L156.166 84.6331C159.473 86.079 162.664 87.7784 165.709 89.716C167.409 90.7868 169.053 91.9431 170.636 93.1806C172.328 94.5579 173.574 96.4062 174.215 98.4916C174.536 99.5967 174.558 100.767 174.277 101.884C174.006 103.056 173.297 104.08 172.296 104.747C171.256 105.376 170.041 105.653 168.831 105.535C167.641 105.43 166.47 105.172 165.346 104.767C163.049 103.964 160.858 102.884 158.821 101.552C156.747 100.255 154.672 98.8236 152.535 97.5892L152.867 97.1639C153.832 98.1389 154.848 99.2385 155.855 100.276C157.234 101.79 158.572 103.336 159.817 104.923C160.429 105.732 161.031 106.531 161.57 107.381C162.145 108.225 162.596 109.148 162.908 110.12C163.169 111.13 163.092 112.197 162.69 113.159C162.291 114.112 161.552 114.881 160.616 115.317C159.685 115.742 158.634 115.823 157.649 115.545C156.724 115.257 155.849 114.827 155.056 114.269C149.393 110.285 144.207 105.662 139.6 100.494L139.952 100.214L144.226 106.365C144.9 107.402 145.575 108.273 146.197 109.238C146.886 110.156 147.25 111.276 147.234 112.423C147.166 112.99 146.889 113.512 146.456 113.885C146.033 114.229 145.508 114.423 144.963 114.435C143.979 114.416 143.017 114.141 142.172 113.636C140.738 112.757 139.378 111.761 138.106 110.659C136.322 109.137 134.686 107.449 133.22 105.618C132.712 104.985 132.349 104.487 132.11 104.145C131.872 103.803 131.768 103.616 131.768 103.616C131.768 103.616 131.913 103.772 132.162 104.104C132.411 104.435 132.805 104.913 133.324 105.535C134.828 107.317 136.484 108.966 138.272 110.462C139.544 111.53 140.896 112.498 142.318 113.356C143.118 113.825 144.025 114.078 144.952 114.093C145.419 114.082 145.869 113.914 146.228 113.616C146.586 113.296 146.814 112.857 146.871 112.381C146.872 111.325 146.534 110.296 145.907 109.446C145.305 108.522 144.61 107.579 143.936 106.603L139.6 100.473L139.952 100.193C144.55 105.317 149.71 109.907 155.336 113.875C156.073 114.405 156.893 114.808 157.763 115.068C158.625 115.298 159.541 115.213 160.346 114.829C161.173 114.452 161.828 113.778 162.182 112.941C162.53 112.089 162.592 111.146 162.358 110.255C162.062 109.341 161.636 108.475 161.093 107.682C160.564 106.852 159.973 106.054 159.361 105.265C158.126 103.689 156.798 102.153 155.429 100.639C154.392 99.5497 153.417 98.4813 152.452 97.5269L151.01 96.1577L152.763 97.195C157.151 99.7157 160.979 102.9 165.47 104.352C166.554 104.743 167.684 104.99 168.831 105.089C169.916 105.195 171.007 104.951 171.943 104.394C172.835 103.795 173.465 102.879 173.707 101.832C173.98 100.812 173.98 99.7391 173.707 98.7198C173.093 96.7271 171.906 94.9592 170.294 93.637C168.732 92.4064 167.109 91.257 165.429 90.1931C162.415 88.2539 159.26 86.5445 155.989 85.0792L155.263 84.7576L156.052 84.7057C157.736 84.6171 159.404 84.3281 161.02 83.8448C161.751 83.6222 162.436 83.271 163.043 82.8074C163.319 82.6018 163.533 82.3254 163.665 82.0077C163.796 81.69 163.84 81.3427 163.79 81.0025C163.76 80.6839 163.65 80.3783 163.468 80.1149C163.286 79.8515 163.04 79.6392 162.753 79.4984C162.209 79.2066 161.62 79.0101 161.01 78.9175C159.926 78.7439 158.83 78.6607 157.732 78.6686C155.74 78.6686 154.195 78.7412 153.157 78.7827L151.965 78.8345L151.602 78.7515Z" fill="#263238"/>
<path d="M130.689 82.0293C130.866 82.1019 128.843 85.774 128.086 90.7842C127.705 93.8155 127.639 96.8781 127.889 99.923C127.586 99.0642 127.407 98.1664 127.36 97.2571C127.146 95.0726 127.209 92.87 127.546 90.7012C127.884 88.5319 128.501 86.4155 129.382 84.4048C129.704 83.5553 130.144 82.7556 130.689 82.0293Z" fill="#FC75A1"/>
<path d="M123.49 88.2832C124.53 90.1728 125.408 92.1474 126.115 94.1855C126.999 96.1568 127.71 98.201 128.241 100.295C127.203 98.3984 126.318 96.4211 125.596 94.3826C124.72 92.4139 124.015 90.3732 123.49 88.2832Z" fill="#FC75A1"/>
<path d="M142.006 127.328C141.545 127.199 141.097 127.025 140.668 126.809C139.828 126.436 138.594 125.876 137.173 125.067C133.368 123.01 129.957 120.295 127.1 117.048C125.526 115.238 124.274 113.172 123.397 110.939C122.651 109.088 122.563 107.037 123.148 105.13C123.567 103.866 124.386 102.774 125.482 102.018C125.78 101.814 126.104 101.654 126.447 101.54C126.675 101.468 126.799 101.437 126.81 101.457C126.396 101.681 125.994 101.927 125.607 102.194C124.609 102.991 123.884 104.079 123.532 105.306C123.023 107.132 123.147 109.078 123.885 110.824C124.768 112.981 125.998 114.978 127.526 116.737C130.35 119.936 133.679 122.651 137.38 124.776C138.78 125.627 139.963 126.239 140.772 126.675C141.205 126.849 141.619 127.068 142.006 127.328Z" fill="#263238"/>
<path d="M156.757 115.026C156.602 115.026 156.477 115.026 156.477 114.953C156.477 114.881 156.602 114.891 156.757 114.891C156.913 114.891 157.037 114.891 157.037 114.953C157.037 115.016 156.913 115.026 156.757 115.026Z" fill="#263238"/>
<g opacity="0.3">
<path d="M136.768 124.517C134.372 123.241 130.046 120.129 128.366 117.992C129.455 122.753 135.565 126.291 140.409 128.708C145.322 130.976 150.42 132.819 155.647 134.216C149.641 131.425 143.064 127.899 136.768 124.517Z" fill="black"/>
</g>
<path d="M146.405 22.3003C146.016 21.4817 145.67 20.6439 145.367 19.79C144.908 19.008 144.492 18.2011 144.123 17.373C144.934 17.8846 145.549 18.6561 145.865 19.5618C146.356 20.3849 146.546 21.3526 146.405 22.3003Z" fill="#263238"/>
<path d="M147.369 21.1079C147.214 21.1079 147.1 20.1743 146.737 19.1059C146.374 18.0375 145.928 17.2284 146.052 17.135C146.177 17.0416 146.882 17.7678 147.266 18.9399C147.581 19.6215 147.619 20.3993 147.369 21.1079Z" fill="#263238"/>
<path d="M138.262 52.3712C138.44 51.4456 138.792 50.5622 139.299 49.7676C139.672 48.8991 140.203 48.1076 140.865 47.4336C140.32 49.2386 139.421 50.917 138.22 52.3712H138.262Z" fill="#263238"/>
<path d="M100.98 101.146C100.689 100.164 100.664 99.1221 100.908 98.1273C100.958 97.1066 101.273 96.1165 101.821 95.2539C101.8 96.2497 101.675 97.2406 101.447 98.2103C101.399 99.2028 101.242 100.187 100.98 101.146Z" fill="#263238"/>
<path d="M102.536 103.917C101.776 101.841 101.861 99.5499 102.775 97.5371C102.77 98.6015 102.704 99.6648 102.578 100.722C102.627 101.787 102.613 102.853 102.536 103.917Z" fill="#263238"/>
<path d="M108.989 110.067C107.758 108.933 106.786 107.547 106.138 106.004C105.49 104.462 105.182 102.798 105.234 101.125C105.4 101.125 105.597 103.324 106.644 105.793C107.692 108.262 109.124 109.953 108.989 110.067Z" fill="#263238"/>
<path d="M183.924 272.677C183.924 272.822 170.439 272.946 153.842 272.946C137.245 272.946 123.76 272.822 123.76 272.677C123.76 272.531 137.245 272.396 153.842 272.396C170.439 272.396 183.924 272.5 183.924 272.677Z" fill="#263238"/>
<path d="M131.301 276.266C128.984 276.533 126.65 276.623 124.32 276.536C121.989 276.623 119.656 276.533 117.339 276.266C119.655 275.987 121.989 275.893 124.32 275.986C126.651 275.893 128.985 275.987 131.301 276.266Z" fill="#263238"/>
<path d="M150.16 149.859C150.754 150.501 151.181 151.28 151.402 152.127C151.623 152.974 151.631 153.863 151.425 154.713L153.645 152.048C154.05 153.24 154.465 154.423 154.869 155.616L156.581 151.85L158.956 154.174L158.583 151.622C159.773 152.184 161.064 152.502 162.379 152.556C160.417 150.874 159.112 148.551 158.697 146" fill="#FC75A1"/>
<path d="M151.083 150.43C150.293 150.402 149.512 150.248 148.77 149.974C146.886 149.469 145.212 148.379 143.988 146.862C142.803 145.345 141.999 143.566 141.643 141.675C141.444 140.906 141.415 140.102 141.56 139.32C141.654 139.32 141.685 140.212 142.027 141.602C142.469 143.402 143.286 145.088 144.423 146.55C145.59 147.989 147.14 149.068 148.894 149.662C149.642 149.862 150.374 150.118 151.083 150.43Z" fill="#263238"/>
<path d="M117.028 130.678C116.662 130.539 116.314 130.358 115.99 130.139C115.082 129.599 114.206 129.006 113.366 128.365C107.798 124.115 103.596 118.327 101.281 111.716C100.934 110.721 100.647 109.706 100.42 108.677C100.309 108.302 100.243 107.916 100.223 107.525C100.327 107.525 100.711 109.112 101.655 111.581C104.14 118.033 108.283 123.715 113.667 128.054C115.679 129.724 117.079 130.585 117.028 130.678Z" fill="white"/>
<path d="M134.091 118.779C132.934 118.229 131.925 117.411 131.145 116.394C130.232 115.495 129.552 114.388 129.164 113.168C129.299 113.085 130.201 114.495 131.56 116.031C132.453 116.901 133.297 117.818 134.091 118.779Z" fill="white"/>
<path d="M141.57 110.783C141.467 110.907 140.855 110.544 140.201 109.974C139.548 109.403 139.091 108.864 139.164 108.749C139.236 108.635 139.88 108.998 140.533 109.559C141.187 110.119 141.674 110.679 141.57 110.783Z" fill="white"/>
<path d="M150.917 108.604C150.834 108.729 150.377 108.604 149.879 108.241C149.381 107.878 149.101 107.546 149.184 107.422C149.267 107.297 149.724 107.422 150.222 107.785C150.72 108.148 151.01 108.449 150.917 108.604Z" fill="white"/>
<path d="M166.892 101.437C166.892 101.582 166.02 101.52 165.128 101.022C164.236 100.524 163.728 99.8393 163.832 99.7356C163.935 99.6319 164.568 100.088 165.398 100.534C166.228 100.98 166.933 101.343 166.892 101.437Z" fill="white"/>
<path d="M162.307 127.617C162.245 127.752 161.767 127.669 161.27 127.441C160.772 127.213 160.377 126.902 160.45 126.767C160.523 126.632 160.979 126.705 161.487 126.933C161.996 127.161 162.421 127.472 162.307 127.617Z" fill="white"/>
<path d="M172.669 122.514C172.597 122.649 171.839 122.327 170.999 121.819C170.159 121.311 169.537 120.782 169.609 120.647C169.682 120.512 170.439 120.823 171.29 121.342C172.14 121.86 172.794 122.389 172.669 122.514Z" fill="white"/>
<path d="M178.624 114.02C178.624 114.165 178.063 114.176 177.451 114.02C176.839 113.865 176.414 113.647 176.414 113.502C176.414 113.356 176.964 113.346 177.576 113.502C178.188 113.657 178.655 113.875 178.624 114.02Z" fill="white"/>
<path d="M196.964 109.796C196.912 109.942 196.258 109.796 195.511 109.558C194.764 109.319 194.184 108.935 194.246 108.79C194.308 108.645 194.951 108.79 195.698 109.039C196.445 109.288 197.015 109.641 196.964 109.796Z" fill="white"/>
<path d="M198.727 100.078C198.727 100.223 198.125 100.192 197.461 100.005C196.797 99.8186 196.31 99.5489 196.351 99.4037C196.393 99.2585 196.953 99.2896 197.617 99.4763C198.281 99.663 198.727 99.9327 198.727 100.078Z" fill="white"/>
</svg>
