<svg width="247" height="276" viewBox="0 0 247 276" fill="none" xmlns="http://www.w3.org/2000/svg">
<path d="M78.4418 189.291C59.6122 197.732 55.0239 191.715 45.1545 179.854C35.2852 167.994 19.7887 142.411 15.8496 141.286C11.9106 140.161 -1.46496 138.775 0.612793 131.417C2.56068 124.794 11.6076 122.11 21.7366 125.183C31.8656 128.257 42.6872 141.286 42.6872 141.286L78.4418 189.291Z" fill="#37474F"/>
<path d="M226.309 212.839C220.877 212.765 215.559 211.267 210.888 208.495C206.216 205.722 202.354 201.772 199.687 197.039L194.839 224.223L226.309 212.839Z" fill="#F9941C"/>
<path opacity="0.4" d="M226.309 212.839C220.877 212.765 215.559 211.267 210.888 208.495C206.216 205.722 202.354 201.772 199.687 197.039L194.839 224.223L226.309 212.839Z" fill="black"/>
<path d="M146.098 249.285C135.753 254.176 111.859 247.034 104.673 233.529C97.4875 220.023 99.7817 172.019 118.698 165.785C137.614 159.552 162.893 229.287 146.098 249.285Z" fill="#FAFAFA"/>
<path d="M151.336 237.643L143.717 209.204C144.986 206.347 146.711 203.716 148.825 201.413C148.392 199.941 147.959 198.469 147.483 197.084C143.629 200.081 140.432 203.838 138.09 208.122C129.433 224.008 134.844 244.915 134.844 244.915C125.848 243.704 117.578 239.331 111.512 232.579C106.711 227.26 103.109 220.971 100.95 214.139C100.833 220.805 102.101 227.423 104.673 233.574C111.859 247.08 135.753 254.222 146.098 249.331C148.774 245.922 150.572 241.909 151.336 237.643Z" fill="#EBEBEB"/>
<path d="M58.5727 85.0562C45.0674 102.804 38.055 135.571 46.669 157.518C55.283 179.464 77.2292 189.333 84.1983 197.601C91.1674 205.869 92.8556 242.576 87.7478 258.462C87.7478 258.462 71.6452 263.829 75.8007 270.842C79.9562 277.854 89.6524 275.647 95.3662 274.045C101.08 272.443 116.144 261.405 125.234 183.143C125.234 183.143 140.254 196.346 143.934 209.115C140.946 215.749 139.467 222.964 139.605 230.239C140.156 237.041 142.485 243.579 146.358 249.199C142.546 250.11 138.887 251.568 135.493 253.527C129.692 257.12 129.26 260.496 130.558 263.699C131.857 266.903 137.96 268.85 146.747 265.994C162.337 259.313 177.143 250.938 190.899 241.017C201.721 232.1 206.006 206.388 198.561 186.606C189.904 163.794 170.555 139.64 139.908 117.088C125.58 106.57 112.335 98.0854 114.585 77.2646L58.5727 85.0562Z" fill="#F9941C"/>
<path d="M146.098 249.287C142.286 250.198 138.627 251.656 135.233 253.616C129.432 257.209 129 260.585 130.298 263.788C131.597 266.991 137.7 268.939 146.487 266.082C155.31 262.332 163.871 257.994 172.113 253.096C161.205 255.001 150.21 253.356 146.098 249.287Z" fill="#263238"/>
<path d="M46.4536 157.561C55.1109 179.507 77.0139 189.376 83.983 197.644C84.8664 198.792 85.5807 200.06 86.1041 201.41C86.1041 200.934 85.6712 199.505 85.5413 198.726C81.6022 180.156 94.6315 162.625 93.0299 139.424C92.8036 130.865 90.6273 122.471 86.6668 114.88C90.5899 115.91 94.0793 118.171 96.6226 121.33L85.9309 81.4199L58.3574 85.0993C44.852 102.803 37.8396 135.571 46.4536 157.561Z" fill="#FAFAFA"/>
<g opacity="0.15">
<path d="M164.496 188.858C155.441 190.951 147.322 195.953 141.381 203.1C142.315 205.071 143.097 207.112 143.718 209.203C148.523 197.819 164.496 188.858 164.496 188.858Z" fill="black"/>
</g>
<path opacity="0.15" d="M129.692 187.863C128.957 168.601 121.035 159.121 121.035 159.121C123.833 166.799 125.169 174.933 124.974 183.102C126.679 184.553 128.257 186.145 129.692 187.863Z" fill="black"/>
<path d="M243.017 244.136C246.463 235.771 247.454 226.597 245.874 217.688C243.666 206.997 239.294 199.854 228.559 196.045C223.984 194.659 219.117 194.551 214.486 195.734C209.854 196.917 205.635 199.345 202.285 202.755C204.921 202.081 207.618 201.675 210.336 201.543C204.023 205.774 198.214 210.712 193.021 216.26C179.646 228.683 161.206 222.926 154.453 204.919C152.003 211.368 151.254 218.34 152.278 225.162C153.301 231.985 156.063 238.43 160.297 243.877C157.722 242.544 155.441 240.708 153.59 238.478C151.738 236.247 150.354 233.667 149.518 230.891C148.928 236.298 149.732 241.766 151.854 246.775C153.975 251.783 157.344 256.165 161.638 259.503C176.745 272.229 190.943 270.498 204.146 267.035C197.177 271.364 190.77 274.437 190.77 274.437C197.603 275.761 204.646 275.525 211.375 273.744C224.664 271.407 235.702 260.455 243.017 244.136Z" fill="#F9941C"/>
<path opacity="0.2" d="M243.017 244.136C246.463 235.771 247.454 226.597 245.874 217.688C243.666 206.997 239.294 199.854 228.559 196.045C223.984 194.659 219.117 194.551 214.486 195.734C209.854 196.917 205.635 199.345 202.285 202.755C204.921 202.081 207.618 201.675 210.336 201.543C204.023 205.774 198.214 210.712 193.021 216.26C179.646 228.683 161.206 222.926 154.453 204.919C152.003 211.368 151.254 218.34 152.278 225.162C153.301 231.985 156.063 238.43 160.297 243.877C157.722 242.544 155.441 240.708 153.59 238.478C151.738 236.247 150.354 233.667 149.518 230.891C148.928 236.298 149.732 241.766 151.854 246.775C153.975 251.783 157.344 256.165 161.638 259.503C176.745 272.229 190.943 270.498 204.146 267.035C197.177 271.364 190.77 274.437 190.77 274.437C197.603 275.761 204.646 275.525 211.375 273.744C224.664 271.407 235.702 260.455 243.017 244.136Z" fill="black"/>
<path d="M193.801 215.48L192.805 216.432C179.43 228.855 160.99 223.098 154.237 205.091C151.787 211.54 151.038 218.511 152.062 225.334C153.085 232.157 155.847 238.602 160.081 244.049C157.506 242.716 155.225 240.88 153.374 238.649C151.522 236.419 150.138 233.839 149.302 231.063C148.712 236.47 149.516 241.938 151.638 246.947C153.759 251.955 157.128 256.337 161.423 259.675C165.536 263.401 170.398 266.206 175.684 267.901C180.969 269.595 186.556 270.141 192.069 269.501C192.762 268.332 192.546 267.12 190.381 266.168C186.542 264.992 182.886 263.287 179.516 261.104C183.047 260.298 186.474 259.093 189.732 257.511C194.883 254.827 203.281 248.507 202.718 246.17C200.251 244.784 197.134 246.473 192.978 246.603C190.531 246.911 188.052 246.36 185.966 245.044C190.575 242.113 194.383 238.082 197.047 233.314C200.337 227.08 189.732 231.063 186.529 230.024C189.031 226.333 191.19 222.421 192.978 218.336C193.319 217.405 193.594 216.45 193.801 215.48Z" fill="#FAFAFA"/>
<path d="M47.8819 0.172852C45.4117 5.11607 44.3895 10.6569 44.9333 16.1561C45.4771 21.6554 47.5647 26.8888 50.9552 31.2525L57.0586 27.9627C58.2259 23.4192 58.2259 18.6544 57.0586 14.111C55.0674 6.3194 51.6045 1.25501 47.8819 0.172852Z" fill="#37474F"/>
<path d="M54.8078 14.7152C55.763 14.7504 56.672 15.1356 57.3617 15.7974C58.1851 19.8805 58.0815 24.0963 57.0586 28.1341L54.4182 29.2594L53.7256 28.1773C53.2928 27.4414 52.0375 24.6278 54.2018 25.407C53.0421 24.6045 52.2481 23.3746 51.9941 21.9873C51.9941 20.8186 53.3793 21.1649 54.0286 21.6843C53.3793 19.7797 51.1285 14.4555 54.8078 14.7152Z" fill="#E0E0E0"/>
<path d="M74.7187 26.6212C68.7381 23.6472 63.8352 18.8804 60.6939 12.9859C56.7982 6.7094 53.3352 0.952302 47.708 0C52.0367 3.89578 56.9713 11.7306 56.8847 27.7898L74.7187 26.6212Z" fill="#F9941C"/>
<path opacity="0.15" d="M74.7187 26.6212C68.7381 23.6472 63.8352 18.8804 60.6939 12.9859C56.7982 6.7094 53.3352 0.952302 47.708 0C52.0367 3.89578 56.9713 11.7306 56.8847 27.7898L74.7187 26.6212Z" fill="black"/>
<path d="M73.2038 24.2418C55.8892 23.1163 48.2708 30.2153 42.9032 38.8293C37.5357 47.4433 34.8086 50.5166 29.3978 49.9106C29.8794 51.2727 30.7699 52.4528 31.9476 53.2896C33.1253 54.1264 34.5327 54.5789 35.9774 54.5855C34.5512 55.3435 32.9608 55.7399 31.3458 55.7399C29.7307 55.7399 28.1403 55.3435 26.7141 54.5855C27.8828 60.3426 35.8908 65.1042 35.8908 65.1042C35.8908 65.1042 32.4279 68.8701 28.056 74.2376C26.5989 75.7257 25.6999 77.6708 25.5106 79.7448C25.3213 81.8189 25.8535 83.8947 27.0171 85.622C30.0031 89.3022 34.0802 91.9394 38.6611 93.1538C44.8092 94.614 51.2845 93.6203 56.7116 90.3835C60.3989 88.1419 64.2993 86.2714 68.3557 84.7995C75.8875 87.3534 88.354 100.556 95.15 117.091C102.563 109.911 108.124 101.04 111.359 91.2398C114.593 81.4393 115.403 71.0009 113.72 60.8188C112.589 53.9536 109.845 47.4548 105.714 41.8562C101.582 36.2577 96.1819 31.7192 89.9556 28.6136C84.7231 26.0431 79.0252 24.5561 73.2038 24.2418Z" fill="#F9941C"/>
<path opacity="0.2" d="M105.668 52.1592C107.357 61.4225 117.139 66.3139 120.256 67.2229C115.121 69.1087 109.533 69.3805 104.24 68.002C105.356 70.8347 107.303 73.264 109.824 74.9712C107.338 75.7166 104.706 75.8379 102.162 75.3245C99.6176 74.8111 97.239 73.6788 95.2363 72.0277C98.3239 73.1433 101.628 73.5285 104.889 73.1531C103.454 71.0073 102.577 68.5377 102.335 65.9676C105.699 67.117 109.327 67.2525 112.767 66.3571C110.656 64.6197 108.933 62.4581 107.71 60.0123C106.487 57.5664 105.791 54.8909 105.668 52.1592Z" fill="white"/>
<path d="M102.854 86.7458C102.441 84.3108 101.342 82.0441 99.6858 80.2117C98.0297 78.3792 95.8854 77.0571 93.5045 76.4003C95.0124 74.9627 97.0053 74.1439 99.0884 74.1061C101.326 73.7564 103.604 73.7564 105.841 74.1061C103.269 71.0157 100.064 68.5126 96.4424 66.7653C92.8209 65.0181 88.8671 64.0673 84.8472 63.9771C80.1708 63.6139 75.4664 63.9938 70.9089 65.1026C66.6587 66.2626 62.7236 68.3632 59.3947 71.2492C54.157 75.1883 49.6552 81.1185 43.8981 84.2351C43.2002 84.8064 42.3961 85.234 41.5322 85.4933C40.6683 85.7525 39.7617 85.8384 38.8645 85.7458C37.9673 85.6533 37.0973 85.3843 36.3046 84.9542C35.5118 84.524 34.8119 83.9412 34.2453 83.2395L28.0986 80.9021C27.4608 81.5719 26.7493 82.1673 25.9775 82.6769C26.3001 83.5926 26.6759 84.4887 27.103 85.3606C30.0889 89.0408 34.1661 91.6781 38.747 92.8924C44.8944 94.3715 51.3767 93.3767 56.7975 90.1222C64.2428 86.4428 68.4416 84.5382 68.4416 84.5382C75.9734 87.0921 85.7562 105.878 95.2359 116.83C95.3109 110.499 93.9337 104.235 91.2102 98.5196C89.0693 94.4046 88.4853 89.6553 89.5654 85.1441C91.5133 80.4692 100.084 84.3651 102.854 86.7458Z" fill="#FAFAFA"/>
<path d="M53.7689 91.7232C56.799 90.3814 63.9412 86.5288 68.443 84.7974C70.4864 83.8143 72.7411 83.3513 75.0066 83.4494C77.2721 83.5476 79.4782 84.204 81.429 85.3601C79.0228 84.9478 76.5573 85.0388 74.188 85.6274C71.8188 86.2159 69.5974 87.2892 67.6639 88.7797C62.8491 91.9197 57.5572 94.2586 51.9941 95.7055L53.7689 91.7232Z" fill="#E0E0E0"/>
<path d="M32.6011 77.6969C38.4015 79.5149 40.1762 81.5927 39.0508 84.1033C38.5321 85.0755 37.8121 85.9258 36.9388 86.5976C36.0654 87.2694 35.0589 87.7472 33.9863 87.9991C33.3363 88.1866 32.6545 88.2372 31.9839 88.1478C31.3133 88.0584 30.6686 87.8309 30.0905 87.4797C27.9021 85.8419 26.3677 83.4789 25.7618 80.8135C25.4588 78.7791 27.7097 76.1819 32.6011 77.6969Z" fill="#37474F"/>
<path d="M90.1299 38.2215L91.2986 38.7409L91.8614 39.0439C94.4199 40.468 96.6244 42.4506 98.311 44.8443V45.0608C98.7133 45.6711 99.0748 46.3074 99.3932 46.9654C103.866 46.022 108.042 44.0012 111.557 41.0784C119.695 31.9017 117.747 16.8812 115.626 9.78223C109.306 12.163 99.4798 16.3185 94.1988 24.846C91.5745 28.8157 90.1608 33.4628 90.1299 38.2215Z" fill="#F9941C"/>
<path opacity="0.15" d="M90.1299 38.2215L91.2986 38.7409L91.8614 39.0439C94.4199 40.468 96.6244 42.4506 98.311 44.8443V45.0608C98.7133 45.6711 99.0748 46.3074 99.3932 46.9654C103.866 46.022 108.042 44.0012 111.557 41.0784C119.695 31.9017 117.747 16.8812 115.626 9.78223C109.306 12.163 99.4798 16.3185 94.1988 24.846C91.5745 28.8157 90.1608 33.4628 90.1299 38.2215Z" fill="black"/>
<path d="M91.2983 38.7394L91.8611 39.0424C94.4196 40.4666 96.6241 42.4492 98.3107 44.8428V45.0593C100.998 44.3452 103.525 43.1258 105.756 41.4665C117.79 32.8092 113.851 12.5078 113.851 12.5078C108.44 14.4723 103.479 17.5047 99.263 21.4248C94.5958 26.0392 91.7651 32.1928 91.2983 38.7394Z" fill="#37474F"/>
<path d="M91.8608 39.0449C94.4194 40.469 96.6239 42.4516 98.3105 44.8453C99.1477 44.5025 99.958 44.0973 100.735 43.6333C101.687 43.0273 105.323 40.257 103.288 38.9584C102.809 38.7708 102.289 38.712 101.781 38.788C101.272 38.8639 100.792 39.072 100.388 39.3913C101.703 38.1469 102.57 36.5036 102.856 34.7163C103.245 32.8117 103.505 30.3876 100.735 30.1279C96.9254 30.1279 95.2805 35.2791 94.761 38.1793C94.5446 36.4045 92.7699 36.4477 91.9907 38.612L91.8608 39.0449Z" fill="#E0E0E0"/>
<path d="M67.7931 53.675C69.0215 53.3799 70.3035 53.3915 71.5263 53.7085C72.7491 54.0256 73.8753 54.6384 74.8055 55.4931C74.8055 55.4931 74.0264 59.8217 71.0829 61.0337C69.8858 61.3996 68.6141 61.4484 67.3925 61.1752C66.1708 60.902 65.0411 60.3163 64.1138 59.4753C64.1739 58.2731 64.5444 57.1069 65.1892 56.0904C65.834 55.0739 66.7311 54.2417 67.7931 53.675Z" fill="#263238"/>
<path d="M46.4967 49.346C46.0349 48.516 45.3333 47.8447 44.4838 47.42C43.6343 46.9952 42.6763 46.8367 41.7352 46.9653C40.8445 48.8243 40.6155 50.9317 41.0859 52.9387C41.4671 53.8165 42.1283 54.5433 42.9663 55.0054C43.8043 55.4675 44.7718 55.6389 45.7175 55.4927C46.2708 54.5799 46.626 53.561 46.7602 52.5021C46.8944 51.4432 46.8047 50.368 46.4967 49.346Z" fill="#263238"/>
<path d="M35.977 65.1027C35.977 65.1027 27.969 60.3411 26.8003 54.584C28.2265 55.3419 29.8168 55.7384 31.4319 55.7384C33.047 55.7384 34.6374 55.3419 36.0636 54.584C34.6189 54.5774 33.2115 54.1248 32.0338 53.2881C30.8561 52.4513 29.9656 51.2712 29.484 49.9091C30.7239 50.1177 31.9953 50.0346 33.1974 49.6664C34.3996 49.2983 35.4995 48.6552 36.4099 47.7881C38.1524 50.3589 39.0474 53.4101 38.9698 56.5147C38.8922 59.6194 37.8458 62.6222 35.977 65.1027Z" fill="#F0F0F0"/>
<path d="M103.201 216.391C97.4876 210.547 91.947 208.816 89.3065 214.703C91.4491 229.273 90.8471 244.116 87.5318 258.465C87.5318 258.465 71.4291 263.833 75.5846 270.845C79.7401 277.858 89.4363 275.65 95.1502 274.048C99.4788 272.923 108.136 266.82 116.317 234.355C112.995 227.667 108.56 221.592 103.201 216.391Z" fill="#455A64"/>
</svg>
