<svg width="1000" height="1000" viewBox="0 0 1000 1000" fill="none" xmlns="http://www.w3.org/2000/svg">
<g clip-path="url(#clip0_215_5134)">
<mask id="mask0_215_5134" style="mask-type:luminance" maskUnits="userSpaceOnUse" x="0" y="0" width="1000" height="1001">
<path d="M1000 0H0V1000.24H1000V0Z" fill="white"/>
</mask>
<g mask="url(#mask0_215_5134)">
<path d="M672.63 74.8149H512.13C506.881 74.8089 501.848 72.7208 498.136 69.0089C494.424 65.297 492.336 60.2644 492.33 55.0149V0.543945H482.33V55.0149C482.339 62.9157 485.481 70.4904 491.068 76.0771C496.655 81.6638 504.229 84.8062 512.13 84.8149H672.63C677.881 84.8149 682.918 86.901 686.631 90.6142C690.344 94.3274 692.43 99.3637 692.43 104.615C692.43 109.866 690.344 114.902 686.631 118.616C682.918 122.329 677.881 124.415 672.63 124.415H275.13C267.227 124.415 259.647 127.555 254.058 133.143C248.47 138.732 245.33 146.311 245.33 154.215C245.33 162.118 248.47 169.698 254.058 175.287C259.647 180.875 267.227 184.015 275.13 184.015H462.63C467.88 184.021 472.912 186.109 476.624 189.821C480.336 193.533 482.424 198.565 482.43 203.815V254.989H467.138V265.104H460.593V275.832H467.138V285.332H460.593V296.06H467.138V305.56H460.593V316.288H467.138V324.744H506.878V316.293H513.423V305.562H506.878V296.062H513.423V285.333H506.878V275.833H513.423V265.104H506.878V254.989H492.43V203.815C492.421 195.914 489.279 188.34 483.692 182.753C478.105 177.166 470.531 174.024 462.63 174.015H275.13C269.879 174.015 264.843 171.929 261.129 168.216C257.416 164.502 255.33 159.466 255.33 154.215C255.33 148.964 257.416 143.927 261.129 140.214C264.843 136.501 269.879 134.415 275.13 134.415H672.63C676.543 134.415 680.419 133.644 684.034 132.147C687.65 130.649 690.935 128.454 693.702 125.687C696.469 122.92 698.664 119.634 700.162 116.019C701.659 112.403 702.43 108.528 702.43 104.615C702.43 100.702 701.659 96.8265 700.162 93.211C698.664 89.5955 696.469 86.3103 693.702 83.5432C690.935 80.776 687.65 78.5809 684.034 77.0833C680.419 75.5857 676.543 74.8149 672.63 74.8149Z" fill="#05456B"/>
<path d="M824.968 517.431C775.523 424.866 630.999 383.379 499.999 383.378C369.005 383.378 224.478 424.866 175.033 517.431C128.889 603.817 184.802 724.993 255.194 768.669C299.548 796.189 334.543 784.326 353.939 737.399C370.843 696.495 436.869 673.854 499.999 673.854C563.129 673.854 629.155 696.495 646.062 737.399C665.462 784.326 700.453 796.189 744.807 768.669C815.199 724.993 871.112 603.817 824.968 517.431Z" fill="#363A5A"/>
<path d="M824.969 450.01C775.524 357.444 631 315.959 500 315.958C369 315.959 224.476 357.444 175.031 450.01C128.887 536.397 184.8 657.573 255.192 701.244C299.546 728.764 334.541 716.902 353.937 669.975C370.844 629.075 436.87 606.43 500 606.429C563.13 606.428 629.156 629.071 646.063 669.975C665.463 716.902 700.454 728.764 744.808 701.244C815.2 657.573 871.113 536.397 824.969 450.01Z" fill="#EF4923"/>
<path d="M824.969 450.01C775.524 357.444 631 315.959 500 315.958C369 315.959 224.476 357.444 175.031 450.01C128.887 536.397 184.8 657.573 255.192 701.244C299.546 728.764 334.541 716.902 353.937 669.975C370.844 629.075 436.87 606.43 500 606.429C563.13 606.428 629.156 629.071 646.063 669.975C665.463 716.902 700.454 728.764 744.808 701.244C815.2 657.573 871.113 536.397 824.969 450.01Z" fill="#EF4923"/>
<path d="M824.969 450.01C775.524 357.444 631 315.959 500 315.958C369 315.959 224.476 357.444 175.031 450.01C128.887 536.397 184.8 657.573 255.192 701.244C299.546 728.764 334.541 716.902 353.937 669.975C370.844 629.075 436.87 606.43 500 606.429C563.13 606.428 629.156 629.071 646.063 669.975C665.463 716.902 700.454 728.764 744.808 701.244C815.2 657.573 871.113 536.397 824.969 450.01Z" fill="#EF4923"/>
<path d="M824.969 450.01C775.524 357.444 631 315.959 500 315.958C369 315.959 224.476 357.444 175.031 450.01C128.887 536.397 184.8 657.573 255.192 701.244C299.546 728.764 334.541 716.902 353.937 669.975C370.844 629.075 436.87 606.43 500 606.429C563.13 606.428 629.156 629.071 646.063 669.975C665.463 716.902 700.454 728.764 744.808 701.244C815.2 657.573 871.113 536.397 824.969 450.01Z" fill="#EE4823" stroke="white" stroke-miterlimit="10"/>
<path d="M824.969 450.01C775.524 357.444 631 315.959 500 315.958C369 315.959 224.476 357.444 175.031 450.01C128.887 536.397 184.8 657.573 255.192 701.244C299.546 728.764 334.541 716.902 353.937 669.975C370.844 629.075 436.87 606.43 500 606.429C563.13 606.428 629.156 629.071 646.063 669.975C665.463 716.902 700.454 728.764 744.808 701.244C815.2 657.573 871.113 536.397 824.969 450.01Z" fill="#EE4823"/>
<path d="M658.51 388.477L609.194 408.198C601.602 411.234 597.909 419.849 600.945 427.441C603.981 435.033 612.596 438.726 620.188 435.69L669.504 415.969C677.096 412.933 680.79 404.317 677.754 396.726C674.718 389.134 666.102 385.441 658.51 388.477Z" fill="#FE4C4C"/>
<path d="M304.212 606.12C363.911 606.12 412.307 557.724 412.307 498.025C412.307 438.326 363.911 389.93 304.212 389.93C244.513 389.93 196.117 438.326 196.117 498.025C196.117 557.724 244.513 606.12 304.212 606.12Z" fill="#FE4C4C"/>
<path d="M500 338.179C624.152 338.179 759.719 373.179 825.152 450.379C825.088 450.257 825.029 450.134 824.965 450.013C775.524 357.444 631 315.959 500 315.958C369 315.959 224.476 357.444 175.031 450.01C174.967 450.131 174.908 450.254 174.844 450.376C240.277 373.179 375.844 338.181 500 338.179Z" fill="#F48551"/>
<path d="M826.291 452.591C829.412 484.245 834.285 521.8 778.005 550.284C736.256 571.413 705.005 578.436 681.425 593.114C627.948 626.414 599.464 610.678 559.6 561.3C542.742 561.3 419.148 562.452 396.816 561.3C352.823 642.621 257.984 630.9 217.579 588.906C174.379 544.006 169.266 480.906 173.707 452.591C130.011 538.794 185.499 658.005 255.191 701.244C299.545 728.764 334.54 716.902 353.936 669.975C370.843 629.075 436.869 606.43 499.999 606.429C563.129 606.428 629.155 629.071 646.062 669.975C665.462 716.902 700.453 728.764 744.807 701.244C814.499 658.005 869.987 538.794 826.291 452.591Z" fill="#FE4C4C"/>
<path d="M500 327.958C624.738 327.958 761.343 364.348 822.077 444.87C770.105 355.912 628.544 315.959 500 315.958C371.459 315.958 229.9 355.912 177.922 444.87C238.653 364.344 375.258 327.959 500 327.958Z" fill="#363A5A"/>
<path d="M824.969 450.01C775.524 357.444 631 315.959 500 315.958C369 315.959 224.476 357.444 175.031 450.01C128.887 536.397 184.8 657.573 255.192 701.244C299.546 728.764 334.541 716.902 353.937 669.975C370.844 629.075 436.87 606.43 500 606.429C563.13 606.428 629.156 629.071 646.063 669.975C665.463 716.902 700.454 728.764 744.808 701.244C815.2 657.573 871.113 536.397 824.969 450.01Z" stroke="#363A5A" stroke-width="6" stroke-miterlimit="10"/>
<path d="M303.058 613.571C361.991 613.571 409.766 565.796 409.766 506.863C409.766 447.93 361.991 400.155 303.058 400.155C244.125 400.155 196.35 447.93 196.35 506.863C196.35 565.796 244.125 613.571 303.058 613.571Z" fill="#FE4C4C"/>
<path d="M298.275 407.329C317.208 407.333 335.799 412.373 352.142 421.932C368.484 431.492 381.99 445.226 391.273 461.727C400.556 478.228 405.283 496.902 404.968 515.832C404.654 534.762 399.309 553.268 389.483 569.452C397.918 557.808 403.913 544.579 407.108 530.56C410.303 516.541 410.632 502.022 408.075 487.872C405.518 473.723 400.129 460.237 392.23 448.222C384.331 436.208 374.086 425.914 362.109 417.958C350.133 410.002 336.672 404.549 322.535 401.925C308.398 399.301 293.877 399.561 279.843 402.689C265.809 405.817 252.552 411.749 240.868 420.129C229.184 428.508 219.314 439.163 211.85 451.452C221.735 437.781 234.724 426.653 249.749 418.982C264.774 411.311 281.405 407.317 298.275 407.329Z" fill="#F48551"/>
<path d="M608.749 369.673C572.903 362.846 536.491 359.422 500.001 359.449C461.467 359.412 423.027 363.237 385.256 370.866" stroke="#FE4C4C" stroke-width="12" stroke-miterlimit="10" stroke-linecap="round"/>
<path d="M303.057 592.016C350.086 592.016 388.21 553.892 388.21 506.863C388.21 459.834 350.086 421.71 303.057 421.71C256.028 421.71 217.904 459.834 217.904 506.863C217.904 553.892 256.028 592.016 303.057 592.016Z" fill="#EE4823"/>
<path d="M303.056 572.552C339.335 572.552 368.745 543.142 368.745 506.863C368.745 470.584 339.335 441.174 303.056 441.174C266.777 441.174 237.367 470.584 237.367 506.863C237.367 543.142 266.777 572.552 303.056 572.552Z" fill="#363A5A"/>
<path d="M303.056 572.552C339.335 572.552 368.745 543.142 368.745 506.863C368.745 470.584 339.335 441.174 303.056 441.174C266.777 441.174 237.367 470.584 237.367 506.863C237.367 543.142 266.777 572.552 303.056 572.552Z" stroke="#363A5A" stroke-width="6" stroke-miterlimit="10"/>
<path d="M317.049 455.249C317.054 452.744 316.116 450.329 314.421 448.484C312.726 446.64 310.399 445.5 307.903 445.293C306.303 445.165 304.688 445.1 303.057 445.099C301.426 445.098 299.811 445.162 298.212 445.292C295.716 445.5 293.389 446.639 291.694 448.484C290 450.329 289.061 452.744 289.066 455.249V472.055C289.066 477.576 286.873 482.871 282.969 486.775C279.065 490.679 273.77 492.872 268.249 492.872H251.443C248.938 492.868 246.523 493.806 244.678 495.5C242.833 497.195 241.694 499.522 241.486 502.018C241.359 503.618 241.295 505.233 241.293 506.863C241.291 508.493 241.355 510.108 241.486 511.709C241.694 514.206 242.833 516.532 244.678 518.227C246.523 519.922 248.938 520.86 251.443 520.855H268.249C273.77 520.855 279.065 523.048 282.969 526.952C286.873 530.856 289.066 536.151 289.066 541.672V558.478C289.061 560.983 290 563.398 291.694 565.243C293.389 567.088 295.716 568.227 298.212 568.435C299.812 568.562 301.427 568.626 303.057 568.628C304.687 568.63 306.302 568.566 307.903 568.435C310.399 568.227 312.726 567.088 314.421 565.243C316.115 563.398 317.054 560.983 317.049 558.478V541.672C317.049 536.151 319.242 530.856 323.146 526.952C327.05 523.048 332.345 520.855 337.866 520.855H354.672C357.177 520.86 359.592 519.922 361.437 518.227C363.281 516.532 364.421 514.206 364.628 511.709C364.756 510.109 364.82 508.494 364.821 506.863C364.822 505.232 364.757 503.617 364.628 502.018C364.421 499.522 363.281 497.195 361.437 495.5C359.592 493.806 357.177 492.867 354.672 492.872H337.866C332.345 492.872 327.05 490.679 323.146 486.775C319.242 482.871 317.049 477.576 317.049 472.055V455.249Z" fill="#363A5A"/>
<path d="M303.058 613.571C361.991 613.571 409.766 565.796 409.766 506.863C409.766 447.93 361.991 400.155 303.058 400.155C244.125 400.155 196.35 447.93 196.35 506.863C196.35 565.796 244.125 613.571 303.058 613.571Z" stroke="#363A5A" stroke-width="6" stroke-miterlimit="10"/>
<path d="M303.056 527.689C314.558 527.689 323.882 518.365 323.882 506.863C323.882 495.361 314.558 486.037 303.056 486.037C291.554 486.037 282.23 495.361 282.23 506.863C282.23 518.365 291.554 527.689 303.056 527.689Z" fill="#EE4823"/>
<path d="M292.227 512.766C291.202 510.887 290.684 508.774 290.723 506.635C290.762 504.495 291.357 502.403 292.45 500.563C293.542 498.723 295.095 497.199 296.955 496.141C298.815 495.082 300.918 494.526 303.058 494.527" stroke="#363A5A" stroke-width="4" stroke-miterlimit="10" stroke-linecap="round"/>
<path d="M319.833 494.56C321.803 499.261 321.98 504.523 320.329 509.346C318.679 514.169 315.315 518.218 310.877 520.726C306.439 523.234 301.234 524.026 296.251 522.951C291.268 521.877 286.852 519.011 283.842 514.897C284.973 517.615 286.668 520.062 288.815 522.077C290.962 524.091 293.512 525.628 296.296 526.584C299.08 527.541 302.036 527.896 304.968 527.627C307.899 527.357 310.74 526.469 313.304 525.021C315.867 523.573 318.094 521.597 319.837 519.225C321.581 516.852 322.801 514.137 323.418 511.259C324.035 508.38 324.035 505.403 323.417 502.525C322.799 499.646 321.577 496.932 319.833 494.56Z" fill="#FE4C4C"/>
<path d="M370.047 442.016C371.227 442.016 372.184 441.059 372.184 439.879C372.184 438.699 371.227 437.742 370.047 437.742C368.867 437.742 367.91 438.699 367.91 439.879C367.91 441.059 368.867 442.016 370.047 442.016Z" fill="#F48551"/>
<path d="M236.067 575.997C237.247 575.997 238.204 575.04 238.204 573.86C238.204 572.68 237.247 571.723 236.067 571.723C234.887 571.723 233.93 572.68 233.93 573.86C233.93 575.04 234.887 575.997 236.067 575.997Z" fill="#F48551"/>
<path d="M370.047 575.997C371.227 575.997 372.184 575.04 372.184 573.86C372.184 572.68 371.227 571.723 370.047 571.723C368.867 571.723 367.91 572.68 367.91 573.86C367.91 575.04 368.867 575.997 370.047 575.997Z" fill="#F48551"/>
<path d="M236.067 442.016C237.247 442.016 238.204 441.059 238.204 439.879C238.204 438.699 237.247 437.742 236.067 437.742C234.887 437.742 233.93 438.699 233.93 439.879C233.93 441.059 234.887 442.016 236.067 442.016Z" fill="#F48551"/>
<path d="M809.369 514.482C829.389 487.159 819.487 440.81 784.069 427.846C746.036 413.923 691.929 429.47 660.305 444.916C629.605 459.91 571.273 489.503 560.523 532.189C551.34 568.652 580.117 602.689 613.866 605.573C645.766 608.299 661.019 585.705 720.859 560.773C748.238 549.372 790.444 540.311 809.369 514.482Z" fill="#FE4C4C"/>
<path d="M658.705 453.744C690.33 438.298 744.437 422.751 782.47 436.674C807.889 445.98 820.162 472.485 817.662 496.81C824.571 470.428 812.615 438.298 784.074 427.85C746.041 413.927 691.934 429.474 660.31 444.92C629.61 459.914 571.278 489.507 560.528 532.193C559.863 534.858 559.392 537.568 559.117 540.301C570.336 497.998 628.179 468.65 658.705 453.744Z" fill="#F48551"/>
<path d="M617.816 582.607C635.626 582.607 650.064 568.169 650.064 550.359C650.064 532.549 635.626 518.111 617.816 518.111C600.006 518.111 585.568 532.549 585.568 550.359C585.568 568.169 600.006 582.607 617.816 582.607Z" fill="#363A5A" stroke="#363A5A" stroke-width="6" stroke-miterlimit="10"/>
<path d="M597.048 558.332C594.941 552.823 595.105 546.702 597.504 541.314C599.904 535.925 604.343 531.708 609.848 529.589" fill="#363A5A"/>
<path d="M597.048 558.332C594.941 552.823 595.105 546.702 597.504 541.314C599.904 535.925 604.343 531.708 609.848 529.589" stroke="#363A5A" stroke-width="4" stroke-miterlimit="10" stroke-linecap="round"/>
<path d="M689.375 550.135C707.185 550.135 721.623 535.697 721.623 517.887C721.623 500.077 707.185 485.639 689.375 485.639C671.565 485.639 657.127 500.077 657.127 517.887C657.127 535.697 671.565 550.135 689.375 550.135Z" fill="#363A5A" stroke="#363A5A" stroke-miterlimit="10"/>
<path d="M689.375 550.135C707.185 550.135 721.623 535.697 721.623 517.887C721.623 500.077 707.185 485.639 689.375 485.639C671.565 485.639 657.127 500.077 657.127 517.887C657.127 535.697 671.565 550.135 689.375 550.135Z" fill="#363A5A" stroke="#363A5A" stroke-width="6" stroke-miterlimit="10"/>
<path d="M668.605 525.861C666.497 520.352 666.661 514.231 669.061 508.842C671.461 503.454 675.9 499.237 681.405 497.117" fill="#363A5A"/>
<path d="M668.605 525.861C666.497 520.352 666.661 514.231 669.061 508.842C671.461 503.454 675.9 499.237 681.405 497.117" stroke="#363A5A" stroke-width="4" stroke-miterlimit="10" stroke-linecap="round"/>
<path d="M760.332 517.663C778.142 517.663 792.58 503.225 792.58 485.415C792.58 467.605 778.142 453.167 760.332 453.167C742.522 453.167 728.084 467.605 728.084 485.415C728.084 503.225 742.522 517.663 760.332 517.663Z" fill="#363A5A" stroke="#363A5A" stroke-miterlimit="10"/>
<path d="M760.332 517.663C778.142 517.663 792.58 503.225 792.58 485.415C792.58 467.605 778.142 453.167 760.332 453.167C742.522 453.167 728.084 467.605 728.084 485.415C728.084 503.225 742.522 517.663 760.332 517.663Z" fill="#363A5A" stroke="#363A5A" stroke-width="6" stroke-miterlimit="10"/>
<path d="M739.562 493.389C737.454 487.879 737.618 481.759 740.018 476.37C742.418 470.981 746.857 466.765 752.362 464.645" fill="#363A5A"/>
<path d="M739.562 493.389C737.454 487.879 737.618 481.759 740.018 476.37C742.418 470.981 746.857 466.765 752.362 464.645" stroke="#363A5A" stroke-width="4" stroke-miterlimit="10" stroke-linecap="round"/>
<path d="M809.369 514.482C829.389 487.159 819.487 440.81 784.069 427.846C746.036 413.923 691.929 429.47 660.305 444.916C629.605 459.91 571.273 489.503 560.523 532.189C551.34 568.652 580.117 602.689 613.866 605.573C645.766 608.299 661.019 585.705 720.859 560.773C748.238 549.372 790.444 540.311 809.369 514.482Z" stroke="#363A5A" stroke-width="6" stroke-miterlimit="10"/>
<path d="M618.477 576.036C636.286 576.036 650.724 561.598 650.724 543.788C650.724 525.978 636.286 511.54 618.477 511.54C600.667 511.54 586.229 525.978 586.229 543.788C586.229 561.598 600.667 576.036 618.477 576.036Z" fill="#EE4823"/>
<path d="M648.58 532.231C646.619 527.104 643.376 522.566 639.161 519.051C643.262 525.551 644.907 533.302 643.799 540.907C642.691 548.513 638.903 555.472 633.118 560.532C627.333 565.592 619.93 568.419 612.245 568.504C604.56 568.589 597.097 565.927 591.201 560.997C595.473 567.768 602.11 572.708 609.823 574.856C617.535 577.004 625.771 576.206 632.928 572.618C640.085 569.03 645.651 562.909 648.544 555.444C651.437 547.979 651.45 539.705 648.58 532.231Z" fill="#FE4C4C"/>
<path d="M618.477 576.036C636.287 576.036 650.724 561.598 650.724 543.788C650.724 525.978 636.287 511.54 618.477 511.54C600.667 511.54 586.229 525.978 586.229 543.788C586.229 561.598 600.667 576.036 618.477 576.036Z" stroke="#363A5A" stroke-width="6" stroke-miterlimit="10"/>
<path d="M597.706 551.762C595.598 546.253 595.763 540.132 598.162 534.743C600.562 529.355 605.001 525.138 610.506 523.018" stroke="#363A5A" stroke-width="4" stroke-miterlimit="10" stroke-linecap="round"/>
<path d="M687.592 542.924C705.402 542.924 719.84 528.486 719.84 510.676C719.84 492.866 705.402 478.428 687.592 478.428C669.782 478.428 655.344 492.866 655.344 510.676C655.344 528.486 669.782 542.924 687.592 542.924Z" fill="#EE4823"/>
<path d="M717.7 499.119C715.739 493.992 712.496 489.455 708.281 485.939C712.383 492.439 714.028 500.191 712.92 507.796C711.812 515.402 708.024 522.362 702.238 527.422C696.453 532.482 689.05 535.309 681.365 535.394C673.679 535.479 666.216 532.816 660.32 527.885C664.592 534.655 671.23 539.593 678.942 541.741C686.653 543.888 694.888 543.09 702.045 539.503C709.201 535.915 714.767 529.794 717.66 522.33C720.554 514.866 720.568 506.593 717.7 499.119Z" fill="#FE4C4C"/>
<path d="M687.592 542.924C705.402 542.924 719.84 528.486 719.84 510.676C719.84 492.866 705.402 478.428 687.592 478.428C669.782 478.428 655.344 492.866 655.344 510.676C655.344 528.486 669.782 542.924 687.592 542.924Z" stroke="#363A5A" stroke-width="6" stroke-miterlimit="10"/>
<path d="M666.822 518.649C664.714 513.139 664.878 507.019 667.278 501.63C669.677 496.242 674.117 492.025 679.622 489.906" stroke="#363A5A" stroke-width="4" stroke-miterlimit="10" stroke-linecap="round"/>
<path d="M661.973 390.347L615.793 408.79C611.175 410.634 608.927 415.872 610.771 420.49C612.615 425.108 617.853 427.356 622.471 425.512L668.651 407.069C673.269 405.225 675.517 399.987 673.673 395.369C671.829 390.752 666.591 388.503 661.973 390.347Z" fill="#EE4823"/>
<path d="M661.973 390.347L615.793 408.79C611.175 410.634 608.927 415.872 610.771 420.49C612.615 425.108 617.853 427.356 622.471 425.512L668.651 407.069C673.269 405.225 675.517 399.987 673.673 395.369C671.829 390.752 666.591 388.503 661.973 390.347Z" stroke="#363A5A" stroke-width="6" stroke-miterlimit="10"/>
<path d="M612.324 394.713C610.776 395.332 609.302 395.098 608.842 393.948L610.201 393.405C610.47 393.916 611.087 394.167 611.966 393.816C612.845 393.465 613.197 392.857 612.977 392.305C612.349 390.734 608.648 393.397 607.691 391.005C607.234 389.864 608.029 388.722 609.61 388.089C611.091 387.497 612.4 387.733 612.957 388.801L611.558 389.362C611.338 388.941 610.72 388.721 609.91 389.023C609.168 389.298 608.719 389.823 608.97 390.451C609.557 391.919 613.29 389.364 614.24 391.739C614.625 392.71 614.051 394.023 612.324 394.713Z" fill="#F48551"/>
<path d="M614.594 386.193L619.994 384.033L620.341 384.902L618.281 385.726L620.532 391.355L619.263 391.863L617.012 386.234L614.941 387.062L614.594 386.193Z" fill="#F48551"/>
<path d="M629.126 386.379L625.885 387.679L625.86 389.23L624.535 389.76L624.705 382.143L626.175 381.555L631.55 386.955L630.214 387.49L629.126 386.379ZM625.955 383.134L625.894 386.662L628.422 385.651L625.955 383.134Z" fill="#F48551"/>
<path d="M633.945 378.454C635.782 377.719 637.039 378.247 637.462 379.303C637.634 379.787 637.621 380.316 637.428 380.792C637.235 381.267 636.874 381.655 636.414 381.881L639.406 383.808L637.891 384.414L635.07 382.527L634.102 382.914L635.141 385.514L633.871 386.021L631.271 379.521L633.945 378.454ZM634.294 379.323L632.893 379.885L633.764 382.063L635.164 381.502C636.155 381.102 636.417 380.47 636.164 379.824C635.911 379.178 635.285 378.927 634.294 379.323Z" fill="#F48551"/>
<path d="M639.027 376.421L644.427 374.262L644.775 375.131L642.715 375.955L644.966 381.584L643.696 382.092L641.445 376.463L639.374 377.291L639.027 376.421Z" fill="#F48551"/>
<path d="M499.999 315.958C451.599 315.958 401.359 321.629 354.744 333.44C362.844 336.264 371.644 338.824 381.015 341.09C420.137 332.829 460.015 328.683 499.999 328.72C534.097 328.709 568.129 331.711 601.699 337.69C610.142 335.284 618.443 332.407 626.563 329.072C584.948 320.297 542.529 315.902 499.999 315.958Z" fill="#EF4923"/>
<path d="M499.999 322.228C538.873 322.199 577.662 325.862 615.844 333.167C619.563 331.855 623.144 330.49 626.561 329.067C584.947 320.294 542.528 315.9 499.999 315.958C451.599 315.958 401.359 321.629 354.744 333.44C358.331 334.69 362.061 335.885 365.909 337.029C409.915 327.118 454.891 322.154 499.999 322.228Z" fill="#F48551"/>
<path d="M499.999 315.958C451.599 315.958 401.359 321.629 354.744 333.44C362.844 336.264 371.644 338.824 381.015 341.09C420.137 332.829 460.015 328.683 499.999 328.72C534.097 328.709 568.129 331.711 601.699 337.69C610.142 335.284 618.443 332.407 626.563 329.072C584.948 320.297 542.529 315.902 499.999 315.958Z" stroke="#363A5A" stroke-width="6" stroke-miterlimit="10"/>
<path d="M761.059 508.203C778.869 508.203 793.307 493.765 793.307 475.955C793.307 458.145 778.869 443.707 761.059 443.707C743.249 443.707 728.811 458.145 728.811 475.955C728.811 493.765 743.249 508.203 761.059 508.203Z" fill="#EE4823"/>
<path d="M791.164 464.398C789.203 459.272 785.961 454.734 781.746 451.218C785.848 457.718 787.493 465.469 786.385 473.075C785.277 480.681 781.489 487.641 775.704 492.701C769.918 497.761 762.516 500.588 754.83 500.673C747.144 500.758 739.681 498.095 733.785 493.164C738.057 499.935 744.694 504.875 752.407 507.023C760.119 509.171 768.355 508.373 775.512 504.785C782.669 501.197 788.235 495.076 791.128 487.611C794.021 480.146 794.034 471.872 791.164 464.398Z" fill="#FE4C4C"/>
<path d="M761.059 508.203C778.869 508.203 793.307 493.765 793.307 475.955C793.307 458.145 778.869 443.707 761.059 443.707C743.249 443.707 728.811 458.145 728.811 475.955C728.811 493.765 743.249 508.203 761.059 508.203Z" stroke="#363A5A" stroke-width="6" stroke-miterlimit="10"/>
<path d="M740.289 483.929C738.181 478.42 738.346 472.299 740.745 466.911C743.145 461.522 747.583 457.306 753.088 455.186" stroke="#363A5A" stroke-width="4" stroke-miterlimit="10" stroke-linecap="round"/>
<path d="M488.957 313.215H478.957V193.815C478.951 188.566 476.863 183.533 473.151 179.821C469.439 176.109 464.406 174.021 459.157 174.015H271.657C263.753 174.015 256.174 170.875 250.585 165.287C244.997 159.698 241.857 152.118 241.857 144.215C241.857 136.312 244.997 128.732 250.585 123.143C256.174 117.555 263.753 114.415 271.657 114.415H669.157C674.408 114.415 679.444 112.329 683.158 108.616C686.871 104.902 688.957 99.8663 688.957 94.615C688.957 89.3637 686.871 84.3275 683.158 80.6143C679.444 76.9011 674.408 74.815 669.157 74.815H508.657C500.756 74.806 493.182 71.6635 487.595 66.0768C482.008 60.4902 478.866 52.9157 478.857 45.015V0H488.857V45.015C488.863 50.2644 490.951 55.2971 494.663 59.009C498.375 62.7209 503.407 64.8089 508.657 64.815H669.157C677.06 64.815 684.64 67.9546 690.229 73.5432C695.817 79.1318 698.957 86.7116 698.957 94.615C698.957 102.518 695.817 110.098 690.229 115.687C684.64 121.275 677.06 124.415 669.157 124.415H271.657C266.406 124.415 261.369 126.501 257.656 130.214C253.943 133.928 251.857 138.964 251.857 144.215C251.857 149.466 253.943 154.502 257.656 158.216C261.369 161.929 266.406 164.015 271.657 164.015H459.157C467.058 164.024 474.632 167.166 480.219 172.753C485.806 178.34 488.948 185.914 488.957 193.815V313.215Z" fill="#363A5A"/>
<path d="M503.407 244.989H463.666V255.717H503.407V244.989Z" fill="#363A5A"/>
<path d="M509.95 255.104H457.121V265.832H509.95V255.104Z" fill="#302E2C"/>
<path d="M503.407 265.218H463.666V275.946H503.407V265.218Z" fill="#363A5A"/>
<path d="M509.95 275.333H457.121V286.061H509.95V275.333Z" fill="#302E2C"/>
<path d="M503.407 285.447H463.666V296.175H503.407V285.447Z" fill="#363A5A"/>
<path d="M503.407 304.013H463.666V314.741H503.407V304.013Z" fill="#363A5A"/>
<path d="M509.95 295.562H457.121V306.29H509.95V295.562Z" fill="#302E2C"/>
<path d="M308.774 417.079L303.86 408.065C303.785 407.916 303.67 407.791 303.528 407.703C303.386 407.616 303.223 407.569 303.056 407.569C302.889 407.569 302.726 407.616 302.584 407.703C302.442 407.791 302.327 407.916 302.252 408.065L297.337 417.079C297.254 417.226 297.209 417.393 297.207 417.562C297.204 417.732 297.245 417.899 297.325 418.049C297.405 418.198 297.521 418.325 297.663 418.418C297.805 418.511 297.968 418.566 298.137 418.579H308.054C308.217 418.556 308.372 418.493 308.505 418.396C308.637 418.298 308.744 418.17 308.815 418.021C308.887 417.873 308.92 417.709 308.913 417.545C308.906 417.381 308.858 417.22 308.774 417.079Z" fill="#F48551"/>
<path d="M297.34 596.644L302.254 605.659C302.329 605.808 302.444 605.933 302.586 606.021C302.728 606.108 302.891 606.155 303.058 606.155C303.225 606.155 303.388 606.108 303.53 606.021C303.672 605.933 303.787 605.808 303.862 605.659L308.777 596.644C308.861 596.496 308.906 596.329 308.908 596.16C308.909 595.99 308.868 595.822 308.788 595.672C308.708 595.523 308.591 595.396 308.448 595.303C308.305 595.211 308.142 595.156 307.972 595.144H298.054C297.892 595.169 297.739 595.234 297.608 595.332C297.477 595.429 297.372 595.558 297.301 595.706C297.231 595.853 297.198 596.016 297.204 596.18C297.211 596.343 297.258 596.503 297.34 596.644Z" fill="#F48551"/>
<path d="M392.848 512.581L401.862 507.667C402.011 507.592 402.136 507.477 402.224 507.335C402.311 507.193 402.358 507.03 402.358 506.863C402.358 506.696 402.311 506.533 402.224 506.391C402.136 506.249 402.011 506.134 401.862 506.059L392.848 501.145C392.701 501.061 392.534 501.016 392.365 501.014C392.195 501.012 392.028 501.052 391.878 501.132C391.728 501.212 391.601 501.328 391.509 501.47C391.416 501.612 391.361 501.776 391.348 501.945V511.863C391.372 512.026 391.435 512.18 391.532 512.313C391.629 512.445 391.758 512.552 391.906 512.623C392.055 512.694 392.218 512.727 392.382 512.72C392.547 512.713 392.707 512.665 392.848 512.581Z" fill="#F48551"/>
<path d="M213.278 501.144L204.263 506.058C204.114 506.133 203.989 506.248 203.901 506.39C203.814 506.532 203.768 506.695 203.768 506.862C203.768 507.029 203.814 507.192 203.901 507.334C203.989 507.476 204.114 507.591 204.263 507.666L213.278 512.581C213.426 512.665 213.593 512.709 213.763 512.711C213.933 512.713 214.1 512.672 214.25 512.592C214.4 512.511 214.527 512.394 214.619 512.252C214.711 512.109 214.766 511.946 214.778 511.776V501.859C214.754 501.697 214.691 501.542 214.593 501.41C214.496 501.278 214.367 501.172 214.219 501.101C214.071 501.031 213.907 500.997 213.743 501.005C213.579 501.012 213.419 501.06 213.278 501.144Z" fill="#F48551"/>
<path d="M636.891 480.284C636.891 480.284 657.823 464.411 702.623 450.867" stroke="#F48551" stroke-width="6" stroke-miterlimit="10" stroke-linecap="round"/>
</g>
</g>
<defs>
<clipPath id="clip0_215_5134">
<rect width="1000" height="1000" fill="white"/>
</clipPath>
</defs>
</svg>
