<svg width="241" height="328" viewBox="0 0 241 328" fill="none" xmlns="http://www.w3.org/2000/svg">
<path d="M199.62 21.1231C180.674 24.7773 167.102 29.972 147.898 43.9031C128.693 57.8342 118.001 79.2762 102.484 98.5032C86.9676 117.73 73.9922 114.784 73.9922 114.784C80.2375 111.39 85.8301 106.912 90.5094 101.561C97.9978 92.87 101.585 87.2931 108.365 76.3191C112.165 70.1462 116.719 62.7028 122.273 55.3493L126.647 57.9579L123.578 53.6515C126.64 49.6858 129.964 45.9294 133.528 42.4077L137.464 46.0732L134.54 41.4182C135.406 40.6086 136.306 39.7878 137.194 38.9895C140.397 36.1988 143.777 33.6185 147.313 31.265L151.395 34.537L149.697 29.9158L154.015 33.7836L151.856 28.3978C157.305 25.2106 163.029 22.5163 168.958 20.3472L171.51 25.2496L170.487 19.7963C173.68 18.6719 176.705 17.7612 179.482 17.0528C191.535 13.9945 196.168 14.4667 196.168 14.4667L199.62 21.1231Z" fill="#455A64"/>
<path d="M39.9907 147.56C43.1502 167.495 45.2753 177.761 46.4559 185.283C47.6365 192.805 41.9584 205.274 43.0828 211.211C45.6689 225.153 47.6478 229.943 49.2332 242.064C50.8185 254.185 48.1875 260.313 48.1875 260.313C48.1875 263.236 51.4594 262.202 50.9422 265.305C50.425 268.408 49.2219 274.424 49.2219 274.424C50.4281 275.961 52.0186 277.154 53.8328 277.88C55.6471 278.607 57.6209 278.842 59.555 278.562C66.4362 277.696 65.2331 273.389 65.2331 273.389C65.2331 273.389 62.9844 263.753 61.2753 260.83C59.5662 257.907 57.8459 255.916 57.3287 248.046C56.8115 240.175 57.1488 215.697 57.1488 215.697C64.0074 211.99 69.2239 205.842 71.7658 198.472C74.1423 191.546 76.0838 184.479 77.5789 177.311L39.9907 147.56Z" fill="#E8B761"/>
<path opacity="0.3" d="M39.9907 147.56C43.1502 167.495 45.2753 177.761 46.4559 185.283C47.6365 192.805 41.9584 205.274 43.0828 211.211C45.6689 225.153 47.6478 229.943 49.2332 242.064C50.8185 254.185 48.1875 260.313 48.1875 260.313C48.1875 263.236 51.4594 262.202 50.9422 265.305C50.425 268.408 49.2219 274.424 49.2219 274.424C50.4281 275.961 52.0186 277.154 53.8328 277.88C55.6471 278.607 57.6209 278.842 59.555 278.562C66.4362 277.696 65.2331 273.389 65.2331 273.389C65.2331 273.389 62.9844 263.753 61.2753 260.83C59.5662 257.907 57.8459 255.916 57.3287 248.046C56.8115 240.175 57.1488 215.697 57.1488 215.697C64.0074 211.99 69.2239 205.842 71.7658 198.472C74.1423 191.546 76.0838 184.479 77.5789 177.311L39.9907 147.56Z" fill="white"/>
<path opacity="0.6" d="M61.2866 260.83C59.5663 257.895 57.846 255.961 57.3288 248.068C56.9915 242.941 57.014 230.842 57.0814 222.983C53.2248 220.565 48.7048 218.789 45.0618 220.835C46.8337 227.832 48.2299 234.918 49.2445 242.064C50.8186 254.173 48.1988 260.312 48.1988 260.312C48.1988 263.236 51.4708 262.201 50.9535 265.305C50.4363 268.408 49.2332 274.423 49.2332 274.423C50.4394 275.961 52.0299 277.153 53.8442 277.88C55.6584 278.606 57.6322 278.841 59.5663 278.561C66.4475 277.695 65.2445 273.389 65.2445 273.389C65.2445 273.389 63.0069 263.787 61.2866 260.83Z" fill="white"/>
<path d="M64.0413 268.689C64.0413 268.689 62.9844 271.253 58.4194 271.399C55.5046 271.402 52.6692 270.45 50.3463 268.689C50.2901 268.971 50.2339 269.263 50.1889 269.544C50.0877 270.05 49.9977 270.556 49.8965 271.028C49.8965 271.264 49.8066 271.489 49.7729 271.714C49.6829 272.164 49.6042 272.569 49.5255 272.928C49.5255 273.108 49.458 273.277 49.4355 273.434C49.3119 274.053 49.2332 274.424 49.2332 274.424C49.952 275.364 50.8267 276.174 51.8192 276.819C53.4063 277.871 55.2384 278.494 57.1376 278.629C57.5199 278.629 57.9134 278.629 58.262 278.629C58.6105 278.629 59.0827 278.629 59.5213 278.539C60.2838 278.451 61.0366 278.293 61.77 278.067C62.9687 277.798 64.0374 277.123 64.7946 276.155C65.0558 275.76 65.2351 275.317 65.3221 274.852C65.409 274.386 65.4017 273.908 65.3006 273.446C65.3006 273.446 64.7946 271.253 64.0413 268.689Z" fill="#263238"/>
<path d="M51.2235 200.372C51.1951 199.946 51.0556 199.535 50.8187 199.18C50.8187 198.989 50.5264 198.607 50.4252 198.438C50.324 198.269 50.1666 197.943 50.0317 197.696C49.8509 197.218 49.5925 196.774 49.2671 196.38C47.9965 195.256 46.8721 199.045 46.6248 199.652C45.8308 201.424 45.2532 203.286 44.9045 205.196C44.803 205.51 44.803 205.848 44.9045 206.163C45.0461 206.411 45.252 206.617 45.5004 206.759C46.3178 207.303 47.2231 207.703 48.1764 207.939L50.9312 201.249C51.0787 200.976 51.1777 200.679 51.2235 200.372ZM56.6093 198.944L57.7337 199.619C58.0373 199.81 58.3408 200.181 58.7231 199.934C58.9421 199.756 59.1027 199.517 59.1841 199.248L59.4315 198.708C60.0154 197.468 60.7276 196.292 61.5566 195.2C61.6423 195.103 61.7039 194.988 61.7365 194.863C61.7432 194.723 61.7162 194.584 61.6578 194.458C61.1743 193.21 60.7021 191.962 60.2186 190.702C60.0724 190.32 59.9487 189.522 59.5439 189.331C59.4574 189.296 59.3666 189.274 59.2741 189.263C58.6444 189.094 58.0148 188.903 57.3739 188.746C55.8878 188.325 54.3533 188.098 52.8089 188.071C52.7861 190.087 52.8762 192.103 53.0787 194.109C53.1367 194.575 53.223 195.037 53.3373 195.492C53.5149 196.192 53.8804 196.829 54.3943 197.336C55.0648 197.96 55.8086 198.5 56.6093 198.944ZM52.6177 206.905C52.6168 206.837 52.6024 206.771 52.5754 206.709C52.5483 206.647 52.5092 206.591 52.4603 206.545C52.2951 206.444 52.1174 206.364 51.9319 206.309C51.747 206.27 51.5544 206.302 51.3922 206.399C51.1527 206.568 50.9563 206.792 50.8187 207.051C50.3305 207.749 49.9302 208.504 49.6269 209.3C49.4895 209.662 49.4895 210.062 49.6269 210.424C49.7481 210.826 49.9341 211.206 50.1778 211.548C50.3748 211.814 50.6097 212.049 50.8749 212.246C51.3128 212.459 51.7371 212.699 52.1455 212.965C52.2315 213.053 52.3442 213.109 52.4658 213.125C52.5873 213.141 52.7108 213.116 52.8167 213.054C52.9225 212.992 53.0046 212.897 53.0501 212.783C53.0955 212.669 53.1016 212.543 53.0675 212.425C53.0675 211.751 53.0675 211.087 53.0675 210.424C52.9907 209.243 52.8405 208.067 52.6177 206.905ZM69.7646 198.742C69.6072 198.112 68.8988 197.853 68.4266 197.494C67.9543 197.134 67.2122 196.617 66.5826 196.223C66.1553 195.953 65.728 195.695 65.2895 195.458C64.851 195.222 64.4125 194.705 64.0527 194.986C63.9069 195.168 63.7859 195.368 63.6929 195.582C63.4231 196.054 63.1757 196.527 62.9508 197.01C62.67 197.585 62.4186 198.175 62.1975 198.775C62.085 199.079 61.9838 199.394 61.8939 199.709C61.8039 200.023 62.1862 200.574 62.3774 200.945C62.5685 201.317 62.8834 201.867 63.1307 202.328C63.218 202.518 63.3445 202.686 63.5018 202.823C63.7018 202.926 63.9234 202.979 64.1483 202.979C64.3731 202.979 64.5947 202.926 64.7948 202.823C66.3304 202.29 67.7446 201.457 68.955 200.372C69.2187 200.193 69.4317 199.949 69.5735 199.663C69.7153 199.377 69.7811 199.06 69.7646 198.742ZM61.5566 202.43C61.2305 201.924 60.8595 201.373 60.1961 201.395C59.0717 201.395 58.1834 202.396 56.9803 202.115C56.0021 201.901 55.1026 200.878 54.0345 201.092C53.9757 201.84 53.9569 202.59 53.9782 203.34C53.9782 204.082 53.9782 204.836 53.9782 205.589C53.9513 206.065 53.993 206.542 54.1019 207.006C54.5179 208.456 56.1146 209.176 57.5425 209.704C57.7726 209.841 58.04 209.902 58.3065 209.877C58.573 209.853 58.8251 209.745 59.0267 209.57L62.3999 207.265C62.8159 206.983 63.2769 206.635 63.3219 206.14C63.3233 205.853 63.2496 205.57 63.1082 205.319C62.6542 204.324 62.1359 203.358 61.5566 202.43Z" fill="#E8B761"/>
<path opacity="0.2" d="M51.2235 200.372C51.1951 199.946 51.0556 199.535 50.8187 199.18C50.8187 198.989 50.5264 198.607 50.4252 198.438C50.324 198.269 50.1666 197.943 50.0317 197.696C49.8509 197.218 49.5925 196.774 49.2671 196.38C47.9965 195.256 46.8721 199.045 46.6248 199.652C45.8308 201.424 45.2532 203.286 44.9045 205.196C44.803 205.51 44.803 205.848 44.9045 206.163C45.0461 206.411 45.252 206.617 45.5004 206.759C46.3178 207.303 47.2231 207.703 48.1764 207.939L50.9312 201.249C51.0787 200.976 51.1777 200.679 51.2235 200.372ZM56.6093 198.944L57.7337 199.619C58.0373 199.81 58.3408 200.181 58.7231 199.934C58.9421 199.756 59.1027 199.517 59.1841 199.248L59.4315 198.708C60.0154 197.468 60.7276 196.292 61.5566 195.2C61.6423 195.103 61.7039 194.988 61.7365 194.863C61.7432 194.723 61.7162 194.584 61.6578 194.458C61.1743 193.21 60.7021 191.962 60.2186 190.702C60.0724 190.32 59.9487 189.522 59.5439 189.331C59.4574 189.296 59.3666 189.274 59.2741 189.263C58.6444 189.094 58.0148 188.903 57.3739 188.746C55.8878 188.325 54.3533 188.098 52.8089 188.071C52.7861 190.087 52.8762 192.103 53.0787 194.109C53.1367 194.575 53.223 195.037 53.3373 195.492C53.5149 196.192 53.8804 196.829 54.3943 197.336C55.0648 197.96 55.8086 198.5 56.6093 198.944ZM52.6177 206.905C52.6168 206.837 52.6024 206.771 52.5754 206.709C52.5483 206.647 52.5092 206.591 52.4603 206.545C52.2951 206.444 52.1174 206.364 51.9319 206.309C51.747 206.27 51.5544 206.302 51.3922 206.399C51.1527 206.568 50.9563 206.792 50.8187 207.051C50.3305 207.749 49.9302 208.504 49.6269 209.3C49.4895 209.662 49.4895 210.062 49.6269 210.424C49.7481 210.826 49.9341 211.206 50.1778 211.548C50.3748 211.814 50.6097 212.049 50.8749 212.246C51.3128 212.459 51.7371 212.699 52.1455 212.965C52.2315 213.053 52.3442 213.109 52.4658 213.125C52.5873 213.141 52.7108 213.116 52.8167 213.054C52.9225 212.992 53.0046 212.897 53.0501 212.783C53.0955 212.669 53.1016 212.543 53.0675 212.425C53.0675 211.751 53.0675 211.087 53.0675 210.424C52.9907 209.243 52.8405 208.067 52.6177 206.905ZM69.7646 198.742C69.6072 198.112 68.8988 197.853 68.4266 197.494C67.9543 197.134 67.2122 196.617 66.5826 196.223C66.1553 195.953 65.728 195.695 65.2895 195.458C64.851 195.222 64.4125 194.705 64.0527 194.986C63.9069 195.168 63.7859 195.368 63.6929 195.582C63.4231 196.054 63.1757 196.527 62.9508 197.01C62.67 197.585 62.4186 198.175 62.1975 198.775C62.085 199.079 61.9838 199.394 61.8939 199.709C61.8039 200.023 62.1862 200.574 62.3774 200.945C62.5685 201.317 62.8834 201.867 63.1307 202.328C63.218 202.518 63.3445 202.686 63.5018 202.823C63.7018 202.926 63.9234 202.979 64.1483 202.979C64.3731 202.979 64.5947 202.926 64.7948 202.823C66.3304 202.29 67.7446 201.457 68.955 200.372C69.2187 200.193 69.4317 199.949 69.5735 199.663C69.7153 199.377 69.7811 199.06 69.7646 198.742ZM61.5566 202.43C61.2305 201.924 60.8595 201.373 60.1961 201.395C59.0717 201.395 58.1834 202.396 56.9803 202.115C56.0021 201.901 55.1026 200.878 54.0345 201.092C53.9757 201.84 53.9569 202.59 53.9782 203.34C53.9782 204.082 53.9782 204.836 53.9782 205.589C53.9513 206.065 53.993 206.542 54.1019 207.006C54.5179 208.456 56.1146 209.176 57.5425 209.704C57.7726 209.841 58.04 209.902 58.3065 209.877C58.573 209.853 58.8251 209.745 59.0267 209.57L62.3999 207.265C62.8159 206.983 63.2769 206.635 63.3219 206.14C63.3233 205.853 63.2496 205.57 63.1082 205.319C62.6542 204.324 62.1359 203.358 61.5566 202.43Z" fill="black"/>
<path opacity="0.2" d="M77.6351 177.333L39.9907 147.56C43.1502 167.495 45.2753 177.761 46.4559 185.283C47.6365 192.805 41.9584 205.274 43.0828 211.211C43.1952 211.807 43.3077 212.335 43.4089 212.92C45.6276 206.317 47.456 199.589 48.8846 192.771C56.9802 193.277 59.3076 193.985 69.1235 200.259C69.6632 200.608 70.2479 200.923 70.7314 201.226C71.1362 200.361 71.5184 199.461 71.8558 198.494C74.2208 191.568 76.151 184.5 77.6351 177.333Z" fill="black"/>
<path d="M94.7373 103C84.0107 112.377 75.3529 116.29 59.5328 113.817C43.7128 111.343 35.01 113.03 25.9138 121.485C16.8175 129.94 9.29537 139.115 12.4212 159.051C15.5469 178.986 20.1232 190.005 21.3038 197.516C22.4844 205.027 16.0079 217.687 17.1098 223.635C19.6959 237.578 20.1344 241.479 21.7086 253.589C23.2827 265.698 20.6741 271.838 20.6741 271.838C20.6741 274.772 23.9461 273.738 23.4289 276.83C22.9117 279.922 21.7086 285.96 21.7086 285.96C22.9127 287.496 24.5016 288.687 26.3143 289.412C28.1269 290.136 30.0989 290.369 32.0304 290.086C38.9229 289.232 37.7198 284.925 37.7198 284.925C37.7198 284.925 35.471 275.289 33.762 272.355C32.0529 269.42 30.3101 267.497 29.7929 259.593C29.2757 251.689 29.6242 227.256 29.6242 227.256C36.4821 223.547 41.6984 217.4 44.2412 210.03C46.6245 203.106 48.5697 196.038 50.0655 188.869C58.1611 189.375 60.4886 190.084 70.3044 196.358C76.1292 200.112 82.8091 202.332 89.7225 202.812C89.7225 202.812 89.3402 215.067 89.7225 226.053C90.1048 237.038 90.9481 241.951 89.9249 244.605C88.9017 247.258 86.6417 251.16 89.1041 256.692C91.5665 262.224 91.9713 264.259 91.9713 274.502C91.9713 284.745 92.7921 296.641 91.3529 300.363C89.9137 304.085 91.1505 305.569 92.7921 307.008C94.4337 308.447 95.0409 308.234 94.4225 313.35C93.8041 318.466 93.1969 323.593 93.1969 323.593C94.688 325.189 96.5583 326.383 98.634 327.063C100.71 327.743 102.924 327.888 105.07 327.483C112.446 326.044 110.805 321.018 110.805 321.018C109.852 316.143 108.621 311.326 107.117 306.592C105.07 300.655 102.822 300.431 102.203 290.918C101.585 281.406 101.18 263.54 102.619 258.559C104.058 253.578 106.712 249.474 106.296 241.288C105.88 233.102 113.042 205.51 115.516 197.088L119.103 195.02C119.103 195.02 116.944 224.085 116.539 227.166C116.134 230.247 113.053 232.889 116.123 239.86C119.193 246.831 118.372 247.63 118.169 254.601C117.967 261.572 118.383 285.51 116.741 289.603C115.1 293.696 118.99 294.1 120.013 295.956C121.037 297.811 120.013 310.483 120.013 310.483C120.013 310.483 126.366 314.373 132.101 312.731C133.713 312.3 135.168 311.415 136.292 310.182C137.417 308.948 138.163 307.417 138.442 305.771C138.442 305.771 133.731 293.077 132.101 289.187C130.47 285.296 127.997 281.406 128.21 273.209C128.424 265.013 127.187 249.878 129.02 243.728C130.853 237.578 132.91 236.161 133.517 228.38C134.124 220.599 134.743 211.065 137.408 200.372C140.072 189.679 143.963 180.065 143.749 164.909C143.536 149.752 144.986 130.514 148.247 118.438C151.507 106.362 157.017 85.8982 164.247 73.2039C173.973 56.1132 188.702 46.3761 201.059 46.2187L199.575 21.0887C199.575 21.0887 185.621 20.459 163.595 32.4562C139.521 45.5778 129.177 59.4414 116.292 75.8574C105.633 89.6199 100.775 97.8054 94.7373 103Z" fill="#E8B761"/>
<path opacity="0.4" d="M94.7373 103C84.0107 112.377 75.3529 116.29 59.5328 113.817C43.7128 111.343 35.01 113.03 25.9138 121.485C16.8175 129.94 9.29537 139.115 12.4212 159.051C15.5469 178.986 20.1232 190.005 21.3038 197.516C22.4844 205.027 16.0079 217.687 17.1098 223.635C19.6959 237.578 20.1344 241.479 21.7086 253.589C23.2827 265.698 20.6741 271.838 20.6741 271.838C20.6741 274.772 23.9461 273.738 23.4289 276.83C22.9117 279.922 21.7086 285.96 21.7086 285.96C22.9127 287.496 24.5016 288.687 26.3143 289.412C28.1269 290.136 30.0989 290.369 32.0304 290.086C38.9229 289.232 37.7198 284.925 37.7198 284.925C37.7198 284.925 35.471 275.289 33.762 272.355C32.0529 269.42 30.3101 267.497 29.7929 259.593C29.2757 251.689 29.6242 227.256 29.6242 227.256C36.4821 223.547 41.6984 217.4 44.2412 210.03C46.6245 203.106 48.5697 196.038 50.0655 188.869C58.1611 189.375 60.4886 190.084 70.3044 196.358C76.1292 200.112 82.8091 202.332 89.7225 202.812C89.7225 202.812 89.3402 215.067 89.7225 226.053C90.1048 237.038 90.9481 241.951 89.9249 244.605C88.9017 247.258 86.6417 251.16 89.1041 256.692C91.5665 262.224 91.9713 264.259 91.9713 274.502C91.9713 284.745 92.7921 296.641 91.3529 300.363C89.9137 304.085 91.1505 305.569 92.7921 307.008C94.4337 308.447 95.0409 308.234 94.4225 313.35C93.8041 318.466 93.1969 323.593 93.1969 323.593C94.688 325.189 96.5583 326.383 98.634 327.063C100.71 327.743 102.924 327.888 105.07 327.483C112.446 326.044 110.805 321.018 110.805 321.018C109.852 316.143 108.621 311.326 107.117 306.592C105.07 300.655 102.822 300.431 102.203 290.918C101.585 281.406 101.18 263.54 102.619 258.559C104.058 253.578 106.712 249.474 106.296 241.288C105.88 233.102 113.042 205.51 115.516 197.088L119.103 195.02C119.103 195.02 116.944 224.085 116.539 227.166C116.134 230.247 113.053 232.889 116.123 239.86C119.193 246.831 118.372 247.63 118.169 254.601C117.967 261.572 118.383 285.51 116.741 289.603C115.1 293.696 118.99 294.1 120.013 295.956C121.037 297.811 120.013 310.483 120.013 310.483C120.013 310.483 126.366 314.373 132.101 312.731C133.713 312.3 135.168 311.415 136.292 310.182C137.417 308.948 138.163 307.417 138.442 305.771C138.442 305.771 133.731 293.077 132.101 289.187C130.47 285.296 127.997 281.406 128.21 273.209C128.424 265.013 127.187 249.878 129.02 243.728C130.853 237.578 132.91 236.161 133.517 228.38C134.124 220.599 134.743 211.065 137.408 200.372C140.072 189.679 143.963 180.065 143.749 164.909C143.536 149.752 144.986 130.514 148.247 118.438C151.507 106.362 157.017 85.8982 164.247 73.2039C173.973 56.1132 188.702 46.3761 201.059 46.2187L199.575 21.0887C199.575 21.0887 185.621 20.459 163.595 32.4562C139.521 45.5778 129.177 59.4414 116.292 75.8574C105.633 89.6199 100.775 97.8054 94.7373 103Z" fill="white"/>
<path d="M200.407 34.4819L196.111 34.0771C195.898 36.7869 194.987 42.184 197.91 46.5241C198.968 46.3686 200.035 46.2785 201.104 46.2542L200.407 34.4819Z" fill="#E8B761"/>
<path d="M211.876 19.5373C213 17.2885 212.1 14.8711 209.537 9.4178C206.973 3.96454 206.467 2.93011 206.467 2.93011C207.026 1.79104 207.979 0.893819 209.15 0.405621C210.321 -0.0825767 211.629 -0.128446 212.831 0.276568C212.831 0.276568 215.462 6.11212 216.587 8.55203C217.58 10.9832 219.357 13.0131 221.635 14.3201C221.635 14.3201 218.611 21.0552 211.876 19.5373Z" fill="#E8B761"/>
<path opacity="0.2" d="M211.876 19.5373C213 17.2885 212.1 14.8711 209.537 9.4178C206.973 3.96454 206.467 2.93011 206.467 2.93011C207.026 1.79104 207.979 0.893819 209.15 0.405621C210.321 -0.0825767 211.629 -0.128446 212.831 0.276568C212.831 0.276568 215.462 6.11212 216.587 8.55203C217.58 10.9832 219.357 13.0131 221.635 14.3201C221.635 14.3201 218.611 21.0552 211.876 19.5373Z" fill="white"/>
<path d="M212.809 0.2656C211.608 -0.132396 210.304 -0.0817061 209.138 0.408275C207.972 0.898257 207.023 1.79431 206.467 2.93039C206.467 2.93039 206.715 3.48134 207.648 5.44901C208.42 4.53735 209.401 3.82527 210.507 3.37314C211.612 2.921 212.811 2.74213 214.001 2.85169L212.809 0.2656Z" fill="#37474F"/>
<path d="M227.088 25.0012C229.281 24.5402 235.577 23.8769 239.288 17.4454C242.998 11.0139 231.912 14.8031 231.912 14.8031C231.912 14.8031 227.111 18.3786 226.189 22.0778L227.088 25.0012Z" fill="#E8B761"/>
<path d="M226.189 22.0451C229 17.6713 231.811 16.1084 234.891 15.4225C237.972 14.7366 239.569 14.894 239.749 15.4225C239.929 15.951 239.288 17.4127 239.288 17.4127C239.288 17.4127 241.019 15.5012 240.727 14.3768C240.435 13.2524 235.937 11.5209 230.608 13.0838C228.055 13.7591 225.553 14.612 223.119 15.6361L226.189 22.0451Z" fill="#E8B761"/>
<path opacity="0.2" d="M226.189 22.0451C229 17.6713 231.811 16.1084 234.891 15.4225C237.972 14.7366 239.569 14.894 239.749 15.4225C239.929 15.951 239.288 17.4127 239.288 17.4127C239.288 17.4127 241.019 15.5012 240.727 14.3768C240.435 13.2524 235.937 11.5209 230.608 13.0838C228.055 13.7591 225.553 14.612 223.119 15.6361L226.189 22.0451Z" fill="white"/>
<path d="M235.768 43.9707C230.146 37.3256 229.888 33.7388 227.583 26.5877C225.278 19.4366 224.266 12.5667 215.574 12.6791C206.883 12.7915 200.755 15.0403 198.191 20.9433C195.628 26.8463 194.875 38.8547 198.191 43.431C201.508 48.0072 205.354 52.2349 213.022 53.9665C218.227 55.2022 223.107 57.5369 227.335 60.814C229.584 62.3431 233.981 66.1998 238.062 62.2307C242.144 58.2616 241.638 51.1218 235.768 43.9707Z" fill="#E8B761"/>
<path opacity="0.5" d="M235.768 43.9707C230.146 37.3256 229.888 33.7388 227.583 26.5877C225.278 19.4366 224.266 12.5667 215.574 12.6791C206.883 12.7915 200.755 15.0403 198.191 20.9433C195.628 26.8463 194.875 38.8547 198.191 43.431C201.508 48.0072 205.354 52.2349 213.022 53.9665C218.227 55.2022 223.107 57.5369 227.335 60.814C229.584 62.3431 233.981 66.1998 238.062 62.2307C242.144 58.2616 241.638 51.1218 235.768 43.9707Z" fill="white" fill-opacity="0.64"/>
<path d="M227.336 60.837C229.585 62.3661 233.981 66.2228 238.062 62.2537C242.144 58.2846 241.638 51.1223 235.814 43.9712L235.117 43.1279C232.744 43.179 230.434 43.8959 228.449 45.1968L228.157 45.3992C227.245 46.0184 226.477 46.8277 225.908 47.7716C225.639 48.2314 225.449 48.7331 225.346 49.2558C225.284 49.4879 225.284 49.7321 225.346 49.9642C225.558 50.6228 225.877 51.2419 226.29 51.7969C226.904 52.4686 227.461 53.1907 227.954 53.9557C228.194 54.3444 228.321 54.7921 228.321 55.2488C228.321 55.7055 228.194 56.1532 227.954 56.5418C227.325 57.4188 226.054 57.4863 225.121 58.0485C224.809 58.2372 224.538 58.4855 224.323 58.7794C225.582 59.5889 226.571 60.331 227.336 60.837Z" fill="#E8B761"/>
<path d="M231.687 56.2494C231.934 56.7779 232.575 57.1602 232.98 57.6999C233.402 58.2485 233.712 58.8752 233.891 59.5439C234.048 59.9936 234.914 60.1398 235.072 59.2628C235.268 58.5269 235.278 57.7536 235.099 57.0132C234.92 56.2728 234.559 55.5889 234.048 55.0238C232.89 54.0344 230.833 54.4167 231.687 56.2494Z" fill="black"/>
<path d="M238.208 56.9008C238.321 57.6204 238.827 58.1489 238.804 57.0582C238.782 55.9676 239.479 54.2136 239.243 53.6851C238.838 52.7181 238.208 54.0224 238.062 55.3042C238.025 55.8408 238.074 56.3799 238.208 56.9008Z" fill="black"/>
<path d="M182.225 33.4916C183.829 34.3951 185.611 34.9376 187.446 35.0813C189.281 35.225 191.126 34.9664 192.851 34.3236C194.889 33.4282 196.999 32.7061 199.158 32.1648V28.9041C199.158 28.9041 195.133 24.8563 189.916 26.2281C184.699 27.5998 178.357 31.2878 182.225 33.4916Z" fill="#E8B761"/>
<path d="M197.472 22.7881C187.589 23.0017 182.855 26.8246 181.056 29.1633C178.875 32.053 180.494 32.604 182.27 33.6609C181.641 32.5365 181.011 30.2877 185.52 28.6349C190.029 26.982 199.114 28.9272 199.114 28.9272L197.472 22.7881Z" fill="#E8B761"/>
<path opacity="0.5" d="M197.472 22.7881C187.589 23.0017 182.855 26.8246 181.056 29.1633C178.875 32.053 180.494 32.604 182.27 33.6609C181.641 32.5365 181.011 30.2877 185.52 28.6349C190.029 26.982 199.114 28.9272 199.114 28.9272L197.472 22.7881Z" fill="white"/>
<path d="M214.338 34.6382C216.744 38.6972 207.929 37.2805 209.109 33.6263C210.964 31.906 213.404 33.289 214.338 34.6382Z" fill="black"/>
<path d="M228.752 30.3984C228.283 30.6941 227.898 31.1064 227.636 31.5952C227.374 32.084 227.243 32.6324 227.257 33.1869C227.392 35.1096 228.775 34.7948 229.809 33.7716C229.438 32.7034 229.101 31.5903 228.752 30.3984Z" fill="black"/>
<path d="M198.484 20.3125C199.608 18.0637 198.72 15.6463 196.157 10.2493C193.593 4.85223 193.053 3.69412 193.053 3.69412C193.612 2.55252 194.567 1.65348 195.74 1.1651C196.914 0.676725 198.225 0.632452 199.428 1.04057C199.428 1.04057 202.082 6.88737 203.229 9.36101C204.376 11.8347 204.589 14.0722 208.131 13.465C208.131 13.465 205.219 21.8304 198.484 20.3125Z" fill="#E8B761"/>
<path opacity="0.5" d="M198.484 20.3125C199.608 18.0637 198.72 15.6463 196.157 10.2493C193.593 4.85223 193.053 3.69412 193.053 3.69412C193.612 2.55252 194.567 1.65348 195.74 1.1651C196.914 0.676725 198.225 0.632452 199.428 1.04057C199.428 1.04057 202.082 6.88737 203.229 9.36101C204.376 11.8347 204.589 14.0722 208.131 13.465C208.131 13.465 205.219 21.8304 198.484 20.3125Z" fill="white"/>
<path d="M199.428 1.04057C198.225 0.632452 196.914 0.676725 195.74 1.1651C194.567 1.65348 193.612 2.55252 193.053 3.69412L194.234 6.21273C195.007 5.29868 195.989 4.58509 197.097 4.13282C198.205 3.68056 199.406 3.50304 200.598 3.61541L199.428 1.04057Z" fill="#37474F"/>
<path opacity="0.6" d="M33.7615 272.356C32.03 269.432 30.3097 267.499 29.7924 259.594C29.4551 254.422 29.4889 242.144 29.5563 234.284C26.8549 233.015 24.432 231.223 22.4277 229.011L17.0981 223.535C17.1036 223.569 17.1036 223.603 17.0981 223.636C19.6842 237.579 20.1227 241.48 21.6969 253.59C23.271 265.7 20.6624 271.839 20.6624 271.839C20.6624 274.773 23.9344 273.739 23.4172 276.831C22.9 279.923 21.6969 285.961 21.6969 285.961C22.9011 287.497 24.49 288.688 26.3026 289.413C28.1152 290.138 30.0872 290.37 32.0187 290.087C38.9112 289.233 37.7081 284.926 37.7081 284.926C37.7081 284.926 35.4818 275.291 33.7615 272.356Z" fill="white"/>
<path opacity="0.6" d="M107.139 306.637C105.093 300.701 102.844 300.476 102.225 290.963C101.607 281.451 101.202 263.585 102.641 258.604C103.147 256.827 103.766 255.174 104.44 253.398C102.907 253.284 101.395 252.97 99.9429 252.464C96.0301 251.104 92.612 248.642 89.2501 246.213C88.4582 247.842 88.0337 249.624 88.0065 251.435C87.9793 253.246 88.3501 255.04 89.0926 256.692C91.5438 262.213 91.9598 264.259 91.9598 274.502C91.9598 284.746 92.7806 296.642 91.3414 300.363C89.9022 304.085 91.139 305.569 92.7806 307.008C94.4222 308.448 95.0294 308.234 94.411 313.35C93.7926 318.466 93.1854 323.593 93.1854 323.593C94.6765 325.189 96.5468 326.383 98.6225 327.063C100.698 327.743 102.912 327.888 105.059 327.483C112.435 326.044 110.793 321.018 110.793 321.018C109.85 316.159 108.63 311.357 107.139 306.637Z" fill="white"/>
<path opacity="0.6" d="M132.123 289.244C130.481 285.353 128.019 281.463 128.233 273.266C128.446 265.069 127.21 249.935 129.042 243.785C129.278 243.009 129.526 242.301 129.762 241.649C127.398 240.798 124.958 240.173 122.476 239.782C120.414 239.334 118.267 239.491 116.292 240.232C119.181 246.877 118.394 247.799 118.192 254.646C117.99 261.494 118.406 285.556 116.764 289.649C115.122 293.741 119.013 294.146 120.036 296.001C121.059 297.857 120.036 310.528 120.036 310.528C120.036 310.528 126.389 314.419 132.123 312.777C133.736 312.346 135.191 311.461 136.315 310.227C137.439 308.994 138.185 307.463 138.465 305.817C138.465 305.817 133.753 293.134 132.123 289.244Z" fill="white"/>
<path d="M93.8824 318.13C93.7812 318.962 93.6912 319.749 93.6013 320.435C93.3764 322.358 93.219 323.64 93.219 323.64C94.5754 325.09 96.2442 326.213 98.0988 326.923C99.1132 327.319 100.176 327.58 101.258 327.699C101.662 327.744 102.067 327.767 102.473 327.766C103.352 327.778 104.23 327.699 105.092 327.53C110.163 326.54 110.973 323.853 110.984 322.279C110.989 321.869 110.936 321.46 110.827 321.065C110.827 321.065 110.512 319.446 109.995 317.141C109.995 317.141 108.96 319.524 103.35 320.435C101.698 320.704 100.009 320.639 98.3823 320.243C96.756 319.847 95.2258 319.128 93.8824 318.13Z" fill="#263238"/>
<path d="M32.0301 290.087C33.3627 289.988 34.6585 289.604 35.8305 288.962C36.2147 288.738 36.5602 288.453 36.8537 288.119C37.4 287.539 37.7296 286.789 37.7869 285.994C37.8277 285.669 37.8277 285.341 37.7869 285.016C37.7869 285.016 37.4046 283.374 36.8312 281.249C34.4363 284.364 27.0491 284.026 22.7427 280.653H23.2487L22.7877 280.395C22.6415 281.137 22.5066 281.867 22.3716 282.553C22.1468 283.745 21.9444 284.802 21.8207 285.387C21.7532 285.747 21.7083 285.96 21.7083 285.96C21.9027 286.231 22.1169 286.486 22.3492 286.725C22.9436 287.335 23.6035 287.878 24.3168 288.344C26.5884 289.848 29.3324 290.468 32.0301 290.087Z" fill="#263238"/>
<path d="M123.926 312.27C124.536 312.474 125.155 312.646 125.781 312.787C126.452 312.943 127.132 313.055 127.817 313.125C128.165 313.125 128.514 313.181 128.874 313.181C129.97 313.21 131.065 313.078 132.123 312.787C133.086 312.511 134.001 312.087 134.833 311.528C135.912 310.796 136.805 309.822 137.441 308.683C137.642 308.321 137.818 307.945 137.97 307.559C138.203 306.992 138.369 306.399 138.465 305.794C138.465 305.794 137.543 303.309 136.373 300.172C136.25 300.565 135.249 303.286 130.302 304.838C126.999 305.798 123.451 305.414 120.429 303.77C120.306 307.211 120.036 310.449 120.036 310.449C120.782 310.876 121.555 311.251 122.352 311.573C122.824 311.877 123.353 312.135 123.926 312.27Z" fill="#263238"/>
<path opacity="0.6" d="M138.712 175.939C134.068 185.373 125.523 191.231 119.125 195.054C119.125 195.054 118.979 196.954 118.765 199.844C122.509 197.348 136.98 187.026 138.712 175.939Z" fill="#E8B761"/>
<path opacity="0.6" d="M89.711 202.813V190.636L88.0132 202.678L89.711 202.813Z" fill="#E8B761"/>
<path opacity="0.6" d="M50.11 188.869C44.1958 188.026 37.1346 183.326 34.3687 177.749C35.3694 182.247 38.9449 188.363 49.4129 191.905L50.11 188.869Z" fill="#E8B761"/>
<path d="M0.255163 173.96C0.667934 172.438 1.53947 171.079 2.7513 170.07C2.1609 171.521 1.71645 173.028 1.42452 174.567C1.23331 176.008 1.27889 177.47 1.55945 178.896C1.84028 180.357 2.34869 181.765 3.06612 183.068C3.8253 184.435 4.78407 185.682 5.91082 186.767L6.33808 187.16C5.85697 185.794 5.66551 184.343 5.77589 182.899C5.51728 184.788 7.33878 186.396 8.55312 188.037C9.31393 189.036 9.86456 190.179 10.1718 191.396C10.4791 192.614 10.5366 193.881 10.3409 195.121C11.4749 193.247 12.1142 191.115 12.1988 188.926C12.2834 186.737 11.8104 184.563 10.8244 182.607C11.753 183.191 12.5232 183.995 13.0665 184.948C13.6098 185.902 13.9095 186.974 13.9389 188.071C15.0633 185.687 14.4224 183 13.4442 180.549C12.466 178.098 11.1954 175.703 10.9031 173.151C11.7908 174.372 12.3379 175.808 12.4885 177.311C12.4885 176.895 12.8033 176.299 12.8932 175.883C12.9964 175.4 13.0715 174.912 13.1181 174.421C13.2037 173.416 13.1659 172.404 13.0057 171.408C12.6558 169.348 11.8278 167.4 10.5883 165.718C10.4681 165.554 10.3663 165.377 10.2847 165.19C10.1837 165.029 10.0628 164.882 9.92487 164.751C9.56195 164.362 9.22039 163.952 8.90168 163.526C8.82163 163.428 8.75716 163.318 8.71053 163.2C8.65901 163.04 8.57901 162.892 8.47441 162.761C8.19332 162.379 7.92346 161.997 7.6761 161.637C7.17597 160.86 6.72532 160.053 6.32684 159.219C6.23689 159.039 6.14694 158.86 6.06823 158.68C5.78447 160.248 5.19621 161.745 4.33668 163.087C3.50463 164.515 2.53766 165.887 1.73935 167.326C1.61567 167.562 1.43577 167.776 1.32333 168.023C1.22365 168.22 1.13725 168.423 1.06472 168.63C0.910182 169.034 0.782474 169.447 0.68243 169.867C0.493927 170.71 0.377321 171.568 0.333869 172.431C0.333869 173.016 0.333872 173.555 0.266409 174.174C0.221434 174.106 0.243919 174.028 0.255163 173.96Z" fill="#37474F"/>
<path d="M35.1334 119.675C34.3033 119.029 33.2841 118.673 32.2324 118.663C31.0201 118.515 29.7963 118.485 28.5782 118.573C26.4511 118.751 24.3628 119.248 22.3828 120.046C18.3216 121.688 14.7871 124.409 12.1622 127.916C6.22544 135.787 5.02235 146.064 5.41589 155.621C5.53957 158.781 5.83191 161.929 6.11301 165.077C6.41659 168.45 6.83261 171.823 6.92256 175.129C6.92256 175.354 7.2149 175.422 7.22614 175.129C7.22614 172.487 7.33858 169.878 7.22614 167.258C7.11371 164.639 7.05749 161.771 7.01251 159.039C6.80133 153.955 7.0989 148.863 7.90078 143.838C9.41869 135.371 13.4103 126.859 21.3934 122.755C23.3584 121.713 25.4885 121.017 27.6899 120.698C28.7625 120.548 29.8478 120.51 30.9282 120.585C32.2774 120.675 33.548 121.035 34.8972 121.013C35.7293 120.99 35.5606 120.113 35.1334 119.675Z" fill="#E8B761"/>
<path d="M117.112 142.693C116.752 142.266 116.282 141.946 115.752 141.768C115.223 141.589 114.655 141.559 114.11 141.681C113.38 141.86 112.718 142.251 112.21 142.805C111.39 143.848 110.796 145.05 110.467 146.336C110.31 146.785 110.163 147.246 110.051 147.707C109.948 148.097 109.884 148.497 109.86 148.899C109.747 150.867 110.793 152.7 111.805 154.397C112.03 154.769 112.322 155.196 112.761 155.23C113.019 155.226 113.272 155.152 113.492 155.016C113.89 154.755 114.316 154.54 114.762 154.375L116.066 153.7L117.382 153.026C117.561 152.942 117.721 152.822 117.85 152.673C117.98 152.523 118.077 152.349 118.135 152.16C118.526 150.924 118.557 149.602 118.225 148.348L117.584 144.39C117.54 143.799 117.38 143.222 117.112 142.693Z" fill="#FA9B55"/>
<path d="M106.127 208.22C105.722 208.22 105.34 208.636 105.003 208.861L103.878 209.704C103.878 209.761 103.462 209.997 103.406 210.042L102.641 210.593C102.394 210.773 102.136 210.941 101.899 211.144C101.799 211.238 101.68 211.311 101.551 211.357C101.211 211.482 100.895 211.664 100.618 211.897C100.142 212.335 99.8024 212.901 99.6394 213.527C99.634 213.632 99.634 213.737 99.6394 213.842C99.5144 215.059 99.7697 216.285 100.37 217.35C100.533 217.751 100.801 218.101 101.146 218.362C101.52 218.533 101.928 218.617 102.339 218.608C102.75 218.598 103.153 218.495 103.518 218.306L104.643 217.946L106.487 217.328C106.82 217.244 107.128 217.082 107.386 216.855C107.61 216.551 107.739 216.187 107.757 215.81L108.061 213.842L108.297 212.29C108.336 212.098 108.336 211.899 108.297 211.706C108.229 210.96 108.051 210.229 107.769 209.536C107.42 209.019 106.779 208.198 106.127 208.22Z" fill="#FA9B55"/>
<path d="M120.317 132.481C120.955 131.559 121.381 130.507 121.564 129.401C121.747 128.295 121.682 127.162 121.374 126.083C120.44 122.71 117.494 120.248 114.706 118.067C113.954 117.338 112.989 116.869 111.951 116.729C111.601 116.725 111.256 116.815 110.952 116.989C110.647 117.163 110.395 117.415 110.22 117.718C109.815 118.426 109.455 119.056 109.005 119.764C108.449 120.855 107.968 121.982 107.566 123.138C107.42 123.452 107.218 123.745 107.071 124.071C106.78 124.702 106.553 125.361 106.397 126.038C106.202 126.905 106.119 127.793 106.149 128.681C106.172 129.19 106.228 129.697 106.318 130.199V130.367C106.594 131.612 107.102 132.795 107.813 133.853C108.178 134.382 108.588 134.879 109.039 135.337C109.451 135.822 109.946 136.229 110.501 136.54C111.095 136.692 111.712 136.738 112.322 136.675C114.079 136.541 115.779 135.99 117.281 135.067C118.463 134.427 119.497 133.546 120.317 132.481Z" fill="#FA9B55"/>
<path d="M136.553 176.277C136.857 175.125 136.895 173.92 136.665 172.751C136.435 171.583 135.943 170.481 135.226 169.531C134.731 168.901 133.36 167.417 132.516 168.316C132.22 168.73 131.95 169.162 131.707 169.609C131.223 170.25 130.729 170.88 130.245 171.509C129.121 172.96 127.996 174.399 126.872 175.85C126.499 176.247 126.246 176.742 126.141 177.278C126.159 177.964 126.413 178.623 126.861 179.144L128.727 181.876C129.01 182.402 129.479 182.803 130.043 183.001C130.552 183.039 131.058 182.895 131.471 182.596C133.93 181.24 135.755 178.969 136.553 176.277Z" fill="#FA9B55"/>
<path d="M129.177 219.656C129.074 218.476 128.688 217.338 128.053 216.339C127.614 215.608 126.928 214.405 125.928 214.652C125.213 214.865 124.518 215.136 123.847 215.462C123.658 215.526 123.49 215.643 123.364 215.799C123.303 215.926 123.265 216.063 123.252 216.204C122.894 218.396 122.665 220.607 122.566 222.826C122.55 222.988 122.578 223.151 122.644 223.299C122.731 223.402 122.838 223.487 122.959 223.546C123.769 223.973 124.578 224.4 125.377 224.839C125.646 224.974 125.973 225.12 126.22 224.951C126.344 224.847 126.437 224.711 126.49 224.558C127.053 223.293 127.783 222.11 128.66 221.039C128.851 220.839 129.003 220.607 129.11 220.353C129.177 220.127 129.2 219.89 129.177 219.656Z" fill="#FA9B55"/>
<path d="M132.404 206.443C131.851 207.596 131.392 208.791 131.032 210.018C130.927 210.323 130.867 210.641 130.852 210.963C130.925 211.426 131.089 211.87 131.334 212.269C131.579 212.669 131.901 213.016 132.28 213.29C132.836 212.172 133.299 211.01 133.663 209.816C133.99 209.041 134.151 208.206 134.135 207.365C134.034 206.33 133.067 205.004 132.404 206.443Z" fill="#FA9B55"/>
<path d="M137.329 147.819C138.409 145.918 139.079 143.811 139.296 141.635L140.421 134.799C140.611 134.167 140.55 133.487 140.252 132.899C139.686 132.357 138.968 132 138.194 131.875L137.553 131.684C136.811 131.459 136.058 131.246 135.305 131.088C133.827 130.732 132.285 130.732 130.807 131.088C129.172 131.637 127.663 132.504 126.366 133.641C124.387 135.204 122.475 136.856 120.654 138.599C120.339 138.903 119.923 139.195 119.822 139.634C119.76 140.096 119.738 140.562 119.754 141.028C119.73 142.285 119.889 143.539 120.227 144.75C120.577 146.005 121.044 147.224 121.621 148.393C121.902 149 122.206 149.596 122.52 150.18C122.71 150.652 122.94 151.107 123.206 151.541C123.768 152.283 125.455 152.272 126.332 152.26C127.574 152.215 128.801 151.968 129.964 151.53C131.253 151.021 132.511 150.435 133.73 149.776C134.36 149.461 134.99 149.135 135.631 148.842C136.272 148.55 136.935 148.426 137.329 147.819Z" fill="#FA9B55"/>
<path d="M108.511 206.443C108.691 206.437 108.863 206.365 108.994 206.241C109.939 205.577 110.777 204.773 111.479 203.857C111.723 203.575 111.906 203.246 112.019 202.89C112.088 202.519 112.122 202.143 112.12 201.766C112.12 201.046 112.232 200.326 112.289 199.607C112.36 199.228 112.317 198.837 112.165 198.482C112.043 198.298 111.875 198.15 111.678 198.051C111.48 197.952 111.261 197.907 111.04 197.92C110.591 197.974 110.161 198.141 109.792 198.404C108.577 199.192 107.712 200.419 107.379 201.828C107.046 203.238 107.27 204.722 108.005 205.971C108.095 206.139 108.263 206.364 108.511 206.443Z" fill="#FA9B55"/>
<path d="M96.3337 184.406C96.8085 184.325 97.2585 184.137 97.6493 183.855L104.845 179.358C105.071 179.238 105.27 179.074 105.43 178.874C105.594 178.575 105.675 178.237 105.666 177.896C105.855 174.101 105.758 170.297 105.374 166.517C105.38 166.13 105.244 165.754 104.991 165.46C104.62 165.123 104.137 165.224 103.687 165.157C103.237 165.089 103.035 164.988 102.687 164.966C101.562 164.887 100.438 164.966 99.2459 164.966H92.3647C91.7949 164.931 91.2235 164.999 90.6781 165.168C89.9912 165.454 89.4372 165.988 89.1264 166.663C89.059 166.798 89.0028 166.922 88.9465 167.057C88.6837 167.826 88.5323 168.629 88.4968 169.441C88.3084 170.568 87.9915 171.669 87.5523 172.724L86.4279 176.097C86.1277 176.885 85.8688 177.688 85.6521 178.503C88.598 180.437 91.5963 182.255 94.6472 183.956C95.1535 184.268 95.7397 184.424 96.3337 184.406Z" fill="#FA9B55"/>
<path d="M106.959 221.768C106.959 221.386 107.083 220.902 106.734 220.644C106.423 220.469 106.055 220.424 105.711 220.52C105.132 220.648 104.565 220.821 104.013 221.037C103.629 221.126 103.271 221.306 102.972 221.562C102.672 221.819 102.439 222.144 102.293 222.51C102.203 222.903 102.203 223.31 102.293 223.702C102.405 224.407 102.529 225.115 102.664 225.827C102.679 226.066 102.742 226.299 102.848 226.513C102.954 226.727 103.102 226.918 103.282 227.075C103.53 227.192 103.801 227.252 104.075 227.252C104.349 227.252 104.62 227.192 104.868 227.075C105.292 226.989 105.682 226.782 105.992 226.479C106.199 226.19 106.331 225.854 106.374 225.501C106.599 224.231 106.802 223.005 106.959 221.768Z" fill="#FA9B55"/>
<path d="M34.65 148.606L33.8067 146.964C33.6943 146.717 33.4582 146.256 33.1321 146.256C32.806 146.256 32.2888 146.683 32.0077 146.841C31.2206 147.268 30.4561 147.718 29.7589 148.212C29.5339 148.313 29.3519 148.49 29.2449 148.713C29.1379 148.935 29.1129 149.188 29.1743 149.427C29.3478 151.874 29.789 154.294 30.4898 156.645C30.5195 156.806 30.6076 156.95 30.7372 157.05C31.0745 157.23 31.3893 156.78 31.513 156.42C32.1335 154.679 33.0006 153.036 34.0878 151.54C34.382 151.246 34.6127 150.895 34.7655 150.508C34.9183 150.121 34.99 149.707 34.9761 149.292C34.8981 149.05 34.7884 148.819 34.65 148.606Z" fill="#FA9B55"/>
<path d="M39.4176 127.591C39.6762 127.051 39.5413 125.859 38.9453 125.634C38.3237 125.43 37.6835 125.286 37.0339 125.207C36.5725 125.138 36.1051 125.119 35.6396 125.151C35.26 125.134 34.8801 125.179 34.5153 125.286C34.2004 125.432 34.0655 125.825 33.9081 126.106L32.5588 128.546C32.1477 129.068 31.9606 129.732 32.0386 130.392C32.1166 131.052 32.4533 131.654 32.9748 132.066C33.1098 132.212 33.2559 132.38 33.4471 132.392C33.6224 132.382 33.7874 132.306 33.9081 132.178L38.7092 128.299C38.9956 128.119 39.2377 127.877 39.4176 127.591Z" fill="#FA9B55"/>
<path d="M36.8986 145.4C37.2022 145.738 37.7757 145.614 38.1917 145.625C39.4249 145.719 40.6454 145.938 41.8347 146.277C42.1759 146.378 42.5391 146.378 42.8804 146.277C43.1348 146.144 43.3565 145.956 43.5295 145.726C43.7026 145.497 43.8226 145.232 43.8811 144.951C43.9027 144.881 43.9027 144.806 43.8811 144.737C43.8478 144.665 43.7927 144.606 43.7237 144.568C42.8354 143.984 41.9021 143.444 40.9689 142.949C40.8057 142.855 40.6514 142.745 40.5079 142.623C40.2768 142.384 40.0287 142.163 39.7658 141.96C39.0799 141.51 37.9781 140.835 37.146 141.285C36.8784 141.464 36.6521 141.697 36.4826 141.971L35.7068 143.095C35.5842 143.228 35.5091 143.398 35.4932 143.579C35.5138 143.797 35.6187 143.999 35.7855 144.141L36.8986 145.4Z" fill="#FA9B55"/>
<path d="M59.6675 168.822C59.5145 168.65 59.3268 168.512 59.1166 168.417C58.9013 168.37 58.6786 168.37 58.4633 168.417C58.248 168.463 58.0451 168.555 57.8685 168.687C55.5036 169.994 53.2805 171.543 51.2346 173.308C51.0688 173.429 50.9339 173.587 50.8411 173.769C50.7961 173.969 50.7961 174.176 50.8411 174.376C51.0772 177.918 51.3021 181.46 51.5382 185.013C51.5111 185.339 51.5611 185.666 51.6841 185.969C51.8072 186.272 51.9999 186.541 52.2466 186.756C52.5464 186.906 52.8786 186.979 53.2136 186.969L58.9254 187.217C60.1056 187.357 61.2983 187.357 62.4785 187.217C63.6029 187.003 63.794 186.092 63.8615 185.092C64.0976 181.719 64.2213 178.244 64.4012 174.826C64.4435 174.414 64.4053 173.998 64.2887 173.601C64.116 173.243 63.8754 172.922 63.5804 172.656C62.2536 171.397 60.9493 170.119 59.6675 168.822Z" fill="#FA9B55"/>
<path d="M123.42 70.0339C122.183 72.2152 122.352 74.88 122.566 77.3762C122.558 79.4969 123.097 81.5839 124.128 83.4366C124.796 84.3208 125.631 85.0649 126.586 85.6263C127.541 86.1877 128.597 86.5555 129.694 86.7085C131.888 87.0008 134.111 87.0008 136.306 86.7085L137.992 82.8519L139.533 85.3143C140.16 85.3662 140.787 85.2076 141.314 84.8635C141.842 84.5194 142.239 84.0094 142.445 83.4141C142.823 82.2118 142.923 80.9391 142.737 79.6924C142.433 75.6784 142.175 71.653 141.838 67.6278C141.725 66.3797 141.523 64.6819 140.263 64.0185C139.199 63.6509 138.037 63.6788 136.991 64.0972C135.035 64.6256 133.079 65.0979 131.1 65.5477C128.12 66.1886 124.927 67.3691 123.42 70.0339Z" fill="#FA9B55"/>
<path d="M67.3361 163.841C67.6452 163.65 67.9037 163.388 68.0894 163.076C70.0306 160.325 72.4037 157.907 75.1168 155.914C76.0388 155.228 77.3656 154.643 77.3656 153.35C77.348 151.713 77.1213 150.084 76.6909 148.504C76.2974 146.356 75.8476 144.209 75.3304 142.084C75.3057 141.837 75.2287 141.598 75.1047 141.382C74.9806 141.167 74.8123 140.981 74.6108 140.836C74.252 140.695 73.8574 140.676 73.4864 140.779C70.3494 141.33 67.2236 142.005 64.1316 142.803C63.7843 142.859 63.4626 143.02 63.2096 143.264C62.9701 143.617 62.8662 144.044 62.9172 144.467C62.9172 146.844 62.9172 149.216 62.9172 151.585L57.419 152.327C57.0972 152.349 56.7833 152.437 56.497 152.585C56.1752 152.851 55.9338 153.202 55.7999 153.597C54.7889 156.093 54.3249 158.777 54.4394 161.468C58.2589 162.817 62.2399 163.657 66.2791 163.964C66.6362 164.017 67.0008 163.974 67.3361 163.841Z" fill="#FA9B55"/>
<path d="M185.283 39.315C184.811 39.315 184.35 39.405 183.889 39.4837C183.642 39.4837 183.304 39.4837 183.203 39.8098C183.124 40.1804 183.124 40.5636 183.203 40.9342C183.245 41.3658 183.317 41.794 183.417 42.2159C183.64 43.1487 184.053 44.0253 184.631 44.7908C185.2 45.5687 185.976 46.1716 186.87 46.5313C187.765 46.891 188.742 46.993 189.691 46.8259C190.722 46.5327 191.669 46.0012 192.457 45.2743C193.112 44.8049 193.587 44.1269 193.806 43.3516C193.859 42.9374 193.811 42.5165 193.667 42.1249C193.522 41.7333 193.284 41.3826 192.974 41.1028C192.352 40.5777 191.623 40.1941 190.838 39.9784C189.046 39.4018 187.16 39.1765 185.283 39.315Z" fill="#FA9B55"/>
<path d="M19.01 141.836C19.01 141.578 19.0999 141.319 19.1337 141.049L19.6734 137.856C19.842 136.822 20.1006 135.765 20.1793 134.719C20.2581 133.673 18.9313 133.246 18.2454 132.808C17.7709 132.493 17.2567 132.244 16.7162 132.065C16.4127 132.538 16.1316 133.032 15.8505 133.527C15.6931 133.797 15.5469 134.067 15.412 134.348C15.277 134.629 15.0859 134.989 14.9285 135.315C14.6924 135.821 14.4562 136.338 14.2426 136.855C14.1302 137.125 14.0177 137.395 13.9165 137.676C13.8153 137.957 13.6242 138.463 13.4893 138.879L13.3206 139.43C13.0732 140.206 12.8596 141.016 12.6685 141.836C12.6685 142.016 12.5785 142.196 12.5448 142.376C12.4436 142.871 12.3424 143.365 12.2524 143.883L19.01 141.836Z" fill="#FA9B55"/>
<path d="M19.2344 128.535L28.2294 131.256C29.2586 128.137 30.9985 125.3 33.3117 122.969C33.569 122.761 33.7475 122.472 33.8176 122.148C33.8141 121.893 33.7402 121.644 33.604 121.429C32.9181 120.102 32.2772 118.708 31.5126 117.415C31.4754 117.349 31.4341 117.285 31.389 117.224C30.9954 117.471 30.6131 117.73 30.2646 117.999L29.8598 118.281L28.8816 119.011C28.6455 119.203 28.4093 119.382 28.1732 119.585L27.4199 120.181C26.9252 120.619 26.4192 121.058 25.9132 121.53C25.3285 122.081 24.7888 122.654 24.1817 123.183C22.4207 124.86 20.7683 126.648 19.2344 128.535Z" fill="#FA9B55"/>
<path d="M22.1691 169.339C22.0976 169.024 21.9998 168.715 21.8768 168.417L21.3708 166.91C21.0784 165.988 20.7749 165.077 20.4713 164.155C20.368 163.844 20.3185 163.517 20.3251 163.188C20.3159 162.887 20.2419 162.592 20.108 162.322C19.9741 162.052 19.7835 161.815 19.5493 161.626C19.3688 161.5 19.1668 161.408 18.9534 161.356H18.8072C16.7685 160.763 14.6959 160.293 12.6006 159.95V160.051C12.8255 161.468 13.0616 162.817 13.3089 164.144C13.3089 164.369 13.3877 164.594 13.4326 164.819C13.7999 166.798 14.1747 168.672 14.557 170.441L14.6919 171.07C14.9168 172.116 15.1417 173.128 15.3778 174.106C15.3778 174.241 15.434 174.376 15.4678 174.511L15.8725 176.186C17.6303 173.612 19.7511 171.306 22.1691 169.339Z" fill="#FA9B55"/>
<path d="M157.86 84.8182C157.033 85.1714 156.169 85.4317 155.285 85.594C154.16 85.7739 153.092 85.8414 152.002 85.9763C150.79 86.0857 149.603 86.3815 148.482 86.8533C146.814 87.6871 145.421 88.9829 144.468 90.5863C143.527 92.1794 142.741 93.8586 142.118 95.6011C141.864 96.0541 141.709 96.5563 141.664 97.0741C141.619 97.5919 141.686 98.1133 141.86 98.6032C142.136 98.9914 142.493 99.3151 142.907 99.5519C143.32 99.7887 143.78 99.9331 144.255 99.9749C147.37 100.688 150.616 100.579 153.677 99.6601C155.251 94.6228 157.05 89.4507 158.962 84.6046C158.584 84.6016 158.209 84.6742 157.86 84.8182Z" fill="#FA9B55"/>
<path d="M139.499 184.832C138.996 184.974 138.512 185.178 138.06 185.44C137.149 185.984 136.354 186.702 135.721 187.553C134.835 188.785 134.106 190.122 133.551 191.534C133.461 191.725 133.371 191.927 133.292 192.13C132.726 193.188 132.429 194.37 132.427 195.57C132.623 197.055 133.365 198.413 134.507 199.382C135.013 199.787 135.451 200.18 135.923 200.619C136.311 200.978 136.733 201.298 137.183 201.575C137.196 201.491 137.215 201.408 137.239 201.327C137.306 201.024 137.363 200.731 137.441 200.428C137.779 199.09 138.127 197.763 138.487 196.436L138.757 195.48C138.914 194.929 139.06 194.356 139.218 193.839C140.106 190.657 140.994 187.452 141.759 184.034C140.978 184.216 140.22 184.483 139.499 184.832Z" fill="#FA9B55"/>
<path d="M47.9287 121.676C47.8338 121.839 47.7691 122.018 47.7375 122.204C47.7375 122.44 47.9624 122.463 48.1648 122.564L49.2892 123.092C51.3955 124.044 53.5206 124.94 55.6644 125.78C56.1459 125.998 56.6653 126.12 57.1936 126.139C57.5784 126.104 57.9566 126.017 58.318 125.881L58.5766 125.791L62.7368 124.408L64.8507 123.699C64.9744 123.699 65.2667 123.621 65.3679 123.52C65.4691 123.418 65.4466 123.351 65.4916 123.25C65.6303 123.045 65.6975 122.8 65.6827 122.553C65.6827 121.81 65.5478 121.08 65.4353 120.304C65.3229 119.528 65.0755 118.763 64.9406 117.965C64.9238 117.681 64.8175 117.409 64.637 117.189C64.3797 116.99 64.0629 116.883 63.7375 116.886L54.0229 115.896C53.4666 115.782 52.8893 115.828 52.3588 116.031C51.4828 116.705 50.7232 117.518 50.11 118.437L49.559 119.067C49.2892 119.393 49.0306 119.719 48.7945 120.068C48.4688 120.583 48.1795 121.12 47.9287 121.676Z" fill="#FA9B55"/>
<path d="M142.264 147.696C141.747 147.874 141.283 148.179 140.915 148.584C139.596 149.754 138.378 151.033 137.272 152.407C136.425 153.571 135.698 154.818 135.102 156.128C134.948 156.385 134.82 156.656 134.72 156.938C134.637 157.736 134.761 158.541 135.08 159.277C135.576 161.11 136.212 162.903 136.98 164.64C137.283 165.326 137.531 166.473 138.363 166.641C139.423 166.8 140.507 166.704 141.522 166.36C142.289 166.159 143.041 165.904 143.771 165.596C143.771 165.382 143.771 165.18 143.771 164.966C143.771 163.786 143.771 162.571 143.771 161.346C143.771 161.065 143.771 160.772 143.771 160.48C143.771 159.355 143.771 158.231 143.771 157.039C143.765 156.942 143.765 156.844 143.771 156.747C143.771 153.97 143.94 151.125 144.108 148.292C143.865 148.061 143.573 147.888 143.254 147.785C142.935 147.682 142.597 147.651 142.264 147.696Z" fill="#FA9B55"/>
<path d="M31.1865 188.094C31.0549 188.791 30.9797 189.498 30.9616 190.207C30.8829 190.983 30.8154 191.77 30.7367 192.557C30.673 192.932 30.6922 193.316 30.793 193.682C30.9311 193.998 31.1297 194.285 31.3776 194.525C33.2897 196.617 35.3692 198.55 37.5955 200.304C37.7032 200.411 37.8315 200.495 37.9725 200.551C38.1136 200.607 38.2645 200.634 38.4163 200.63C38.6629 200.55 38.8685 200.376 38.9897 200.147C40.2603 198.269 40.4627 195.897 40.5751 193.637C40.6668 192.877 40.5782 192.107 40.3165 191.388C39.6812 190.359 38.7695 189.529 37.6854 188.993C36.7871 188.432 35.8474 187.939 34.8745 187.52C33.6601 186.969 31.625 186.283 31.1865 188.094Z" fill="#FA9B55"/>
<path d="M147.448 49.4798C147.535 49.6806 147.691 49.844 147.887 49.9408C148.209 50.0636 148.555 50.1135 148.899 50.087H152.092H154.161C154.401 50.0873 154.639 50.0532 154.869 49.9858C155.594 49.879 156.306 49.6982 156.994 49.4461C157.743 48.9329 158.347 48.2359 158.748 47.4222C159.533 46.3537 159.973 45.0708 160.008 43.7454C159.95 43.148 159.735 42.5768 159.383 42.0905C159.031 41.6043 158.556 41.2208 158.006 40.9795C157.083 40.6061 156.061 40.5546 155.105 40.8333C154.177 41.1025 153.297 41.5161 152.497 42.0589C151.252 42.8648 150.098 43.8035 149.056 44.8586C148.396 45.4616 147.871 46.1973 147.516 47.0174C147.327 47.5275 147.277 48.0782 147.37 48.614C147.418 48.8053 147.444 49.0015 147.448 49.1987C147.427 49.2912 147.427 49.3873 147.448 49.4798Z" fill="#FA9B55"/>
<path d="M163.741 67.3917C164.483 67.3344 165.185 67.0332 165.739 66.5349C166.292 66.0366 166.665 65.3693 166.799 64.637C166.818 64.3031 166.78 63.9684 166.686 63.6475C166.544 63.205 166.339 62.7848 166.079 62.3994C165.877 62.0846 165.787 61.7361 165.573 61.4212C164.977 60.5555 164.348 59.6897 163.741 58.8239L161.897 56.2153C161.689 55.8751 161.422 55.5743 161.11 55.3271C160.976 55.2345 160.852 55.129 160.738 55.0122C160.157 54.281 159.485 53.6272 158.737 53.0671C157.942 52.5027 156.955 52.2763 155.994 52.4374C155.775 52.4797 155.563 52.5516 155.364 52.651C155.173 52.7736 155.002 52.9253 154.858 53.1008C154.796 53.163 154.728 53.2194 154.656 53.2694C154.504 53.4446 154.369 53.6328 154.251 53.8316C154.003 54.2139 153.767 54.6187 153.554 55.0347C153.125 55.8567 152.789 56.7242 152.553 57.6208V57.7333C152.436 58.0692 152.412 58.4307 152.485 58.7789C152.587 59.1949 152.598 59.6222 152.699 60.0382C152.926 60.8944 153.307 61.7021 153.823 62.4219C154.026 62.6918 154.24 62.9504 154.464 63.1978C155.894 64.5902 157.588 65.6834 159.445 66.4135C160.766 67.1118 162.248 67.4493 163.741 67.3917Z" fill="#FA9B55"/>
<path d="M146.391 61.2183C145.076 61.713 145.065 63.2984 144.975 64.4678C144.84 66.1431 144.705 67.8409 144.581 69.4825C144.48 70.7081 144.39 71.9224 144.289 73.148C144.115 73.812 144.076 74.5043 144.174 75.1836C144.273 75.8629 144.507 76.5155 144.862 77.1028C145.218 77.69 145.688 78.1998 146.244 78.6021C146.8 79.0044 147.431 79.2909 148.1 79.4446C149.675 80.1979 151.575 80.9625 153.115 80.108C153.933 79.5703 154.552 78.7808 154.88 77.8592C155.908 75.5908 156.201 73.0582 155.72 70.615C155.238 68.1718 154.005 65.9401 152.193 64.2317C151.489 63.569 150.712 62.9881 149.877 62.5001C149.398 62.3002 148.936 62.0634 148.494 61.7918C148.24 61.4984 147.904 61.2873 147.53 61.1851C147.156 61.083 146.759 61.0946 146.391 61.2183Z" fill="#FA9B55"/>
<path d="M138.813 60.8583C139.369 60.9912 139.954 60.9235 140.466 60.6672C141.34 60.4139 142.173 60.0351 142.939 59.5428C143.317 59.2872 143.636 58.9548 143.877 58.5673C144.117 58.1798 144.273 57.7459 144.333 57.294C144.435 56.0347 143.49 55.4051 143.097 54.3481C142.988 53.9359 142.73 53.5788 142.372 53.3461C142.015 53.1134 141.584 53.0217 141.163 53.0888C140.153 53.3707 139.217 53.8695 138.419 54.5505C137.93 54.8717 137.523 55.3038 137.232 55.8118C136.941 56.3197 136.774 56.8892 136.744 57.4739C136.858 58.3492 137.208 59.177 137.756 59.8689C138.003 60.2958 138.37 60.6402 138.813 60.8583Z" fill="#FA9B55"/>
<path d="M176.536 35.5378C176.963 35.2342 177.447 34.8294 177.39 34.3122C177.334 33.795 176.873 33.5476 176.435 33.3453C175.365 32.8519 174.228 32.5185 173.062 32.3558C172.473 32.2751 171.879 32.2337 171.285 32.2321C171.097 32.2193 170.909 32.2537 170.739 32.3323C170.568 32.4109 170.419 32.5311 170.307 32.6819C169.828 33.1252 169.374 33.5944 168.946 34.0873C168.445 34.6792 168.163 35.4258 168.148 36.2012C168.175 36.5911 168.291 36.9697 168.486 37.3085C168.68 37.6474 168.949 37.9377 169.272 38.1576C169.586 38.379 169.94 38.5357 170.314 38.6187C170.689 38.7017 171.076 38.7093 171.454 38.6411C172.295 38.4314 173.084 38.0485 173.77 37.5167L176.536 35.5378Z" fill="#FA9B55"/>
<path d="M170.262 49.581C170.104 49.446 169.925 49.3336 169.767 49.2099C169.631 49.1212 169.476 49.0632 169.315 49.0399C169.154 49.0166 168.99 49.0286 168.834 49.075C168.552 49.2419 168.311 49.4683 168.125 49.7384C167.623 50.5449 167.354 51.4753 167.35 52.4256C167.214 53.2597 167.214 54.1102 167.35 54.9443C167.431 55.3583 167.61 55.7468 167.872 56.0774C168.134 56.408 168.472 56.671 168.856 56.8445C170.183 57.3504 171.667 56.1923 172.072 54.8318L172.151 54.517C172.224 54.0212 172.224 53.5174 172.151 53.0216C172.153 52.551 172.061 52.0847 171.881 51.6498C171.479 50.8626 170.929 50.1602 170.262 49.581Z" fill="#FA9B55"/>
<path d="M163.437 42.8577C163.579 43.7672 163.875 44.6457 164.314 45.4551C164.55 45.961 164.853 46.5794 165.438 46.6582C165.909 46.7146 166.383 46.59 166.765 46.3096C167.138 46.2132 167.484 46.0329 167.777 45.7825C168.069 45.532 168.301 45.2181 168.454 44.8645C168.607 44.5109 168.677 44.1271 168.659 43.7423C168.641 43.3575 168.535 42.9819 168.35 42.6441C168.183 41.9418 167.906 41.2702 167.529 40.6539C167.295 40.2326 166.92 39.9065 166.471 39.732C166.021 39.5575 165.525 39.5455 165.067 39.6982C164.73 39.8433 164.427 40.0578 164.179 40.3279C164.004 40.568 163.868 40.8334 163.774 41.1149C163.523 41.6602 163.407 42.2581 163.437 42.8577Z" fill="#FA9B55"/>
<path d="M35.6956 115.841C35.5794 116.563 35.5193 117.292 35.5157 118.023C35.5157 118.54 35.5157 119.068 35.5157 119.597C35.4361 120.117 35.459 120.648 35.5832 121.16C35.8193 121.632 36.7075 121.744 37.2023 121.902L39.0912 122.52L42.8917 123.78C44.3309 122.16 45.7813 120.541 47.2205 118.911C47.4783 118.656 47.6912 118.36 47.8502 118.034C47.9499 117.744 48.0104 117.441 48.0301 117.135C48.165 115.707 48.21 114.267 48.21 112.828C46.6128 112.832 45.0171 112.929 43.4314 113.12H43.1278C42.6555 113.177 42.1833 113.244 41.7223 113.323C40.7216 113.503 39.7434 113.716 38.7989 113.975L37.5508 114.357L37.2135 114.481L35.9992 114.919C35.8752 115.219 35.7738 115.527 35.6956 115.841Z" fill="#FA9B55"/>
<path d="M51.3696 170.598C52.3527 169.568 53.4636 168.669 54.6753 167.922C55.4062 167.585 56.7554 166.797 55.6648 166.134C55.0378 165.756 54.3795 165.432 53.6971 165.167C52.2046 164.514 50.6315 164.064 49.0197 163.829C49.0039 163.982 49.0039 164.137 49.0197 164.29C49.0197 165.1 49.1096 166.741 49.1321 166.921C49.2535 168.064 49.4794 169.193 49.8067 170.294C49.8538 170.538 49.9803 170.76 50.1665 170.924C50.4701 171.183 51.0098 170.901 51.3696 170.598Z" fill="#FA9B55"/>
<path d="M44.7921 199.698C44.9717 199.584 45.1036 199.408 45.1631 199.203C45.758 197.908 46.2067 196.55 46.5011 195.156C46.5577 194.992 46.5577 194.814 46.5011 194.65C46.4074 194.507 46.2689 194.401 46.1076 194.346C45.4329 194.042 44.2186 193.638 43.5327 194.132C42.8469 194.627 42.7907 196.123 42.7119 196.91C42.6559 197.624 42.6559 198.342 42.7119 199.057C43.2157 199.292 43.734 199.495 44.2636 199.664C44.4312 199.734 44.617 199.746 44.7921 199.698Z" fill="#FA9B55"/>
<path d="M76.0383 189.196C76.6044 189.094 77.1393 188.864 77.6012 188.521L85.4719 183.562C84.1901 181.752 81.3791 181.381 80.4009 179.402C79.4227 177.423 80.682 174.758 79.2765 173.128C78.6752 172.555 77.9351 172.148 77.129 171.948L73.902 170.823C72.1592 170.227 70.4276 169.508 68.6623 168.99C66.8971 168.473 66.6047 170.643 66.526 171.835C66.2224 176.249 66.2224 180.678 66.526 185.092C66.5081 185.486 66.6058 185.877 66.8071 186.216C67.1051 186.545 67.4981 186.773 67.9315 186.868L74.6103 188.971C75.0664 189.141 75.552 189.217 76.0383 189.196Z" fill="#FA9B55"/>
<path d="M21.4385 157.689C21.5995 157.74 21.7722 157.74 21.9332 157.689C22.094 157.606 22.2268 157.477 22.3155 157.318C23.323 155.783 24.1922 154.161 24.9128 152.472C25.478 151.481 25.6808 150.325 25.4863 149.2C25.3401 148.773 24.8791 148.492 24.553 148.222L22.9339 146.884L21.1686 145.422C20.9072 145.159 20.5684 144.985 20.2016 144.928C19.9144 144.945 19.6361 145.034 19.3921 145.186L15.929 147.008C15.4855 147.194 15.0981 147.493 14.8046 147.874C14.6192 148.221 14.5118 148.605 14.4898 148.998C14.1732 151.485 14.1205 153.999 14.3324 156.498L21.4385 157.689Z" fill="#FA9B55"/>
<path d="M75.3863 196.235C77.9863 198.019 80.9658 199.174 84.089 199.608C84.466 199.695 84.8613 199.656 85.2134 199.495C85.6969 199.214 85.7868 198.562 85.8318 197.989L86.2703 191.737C86.354 191.292 86.2611 190.832 86.0113 190.454C85.7616 190.076 85.3746 189.811 84.9323 189.713C84.2102 189.464 83.4464 189.357 82.6835 189.398C81.964 189.545 81.2803 189.832 80.6709 190.242L77.6463 191.985L76.0384 192.952L75.1502 193.469C74.959 193.581 74.453 193.75 74.3406 193.93C73.7897 194.739 74.6105 195.706 75.3863 196.235Z" fill="#FA9B55"/>
<path d="M67.1446 126.613C64.4448 129.671 62.4285 133.271 61.2304 137.171C60.8481 138.452 60.8706 140.083 62.5684 139.858C64.0933 139.49 65.6408 139.223 67.2008 139.06C69.8044 139.067 72.405 138.883 74.9816 138.509C75.2033 138.486 75.4178 138.417 75.6112 138.306C75.8063 138.14 75.9569 137.927 76.0497 137.688L77.6688 134.315C78.7753 132.343 79.5 130.18 79.8052 127.939C76.4997 126.76 73.0578 126.004 69.562 125.691C69.0486 125.596 68.5191 125.647 68.0329 125.837C67.686 126.031 67.3835 126.295 67.1446 126.613Z" fill="#FA9B55"/>
<path d="M110.962 87.4045C109.288 88.9089 108.254 90.9971 108.072 93.2401C108.063 94.0589 108.139 94.8765 108.297 95.68C108.552 97.9099 108.927 100.124 109.421 102.314C109.838 103.877 110.141 105.687 111.929 106.148C113.396 106.427 114.913 106.254 116.28 105.653C119.863 104.461 123.398 103.131 126.883 101.662C128.008 98.6034 128.637 95.2302 127.738 92.1157C127.346 90.8154 126.73 89.5938 125.916 88.5064C125.357 87.7548 124.745 87.0446 124.083 86.3813C123.238 85.547 122.349 84.7587 121.419 84.0201C120.294 83.1094 119.462 82.3898 117.911 82.8957C116.641 83.4325 115.428 84.0954 114.29 84.8747C113.089 85.5893 111.972 86.438 110.962 87.4045Z" fill="#FA9B55"/>
<path d="M90.4868 108.622C90.3519 108.791 90.2395 108.982 90.0933 109.151C89.658 109.587 89.2452 110.045 88.8565 110.523C88.5039 111.02 88.2167 111.56 88.0019 112.131C87.3754 113.708 87.3237 115.455 87.8558 117.067L93.1741 116.808L91.1615 118.742C90.7342 119.169 90.3069 119.866 89.6885 120.024C89.5015 120.06 89.3201 120.12 89.1488 120.204C88.7946 120.386 88.481 120.639 88.2268 120.946C87.706 121.581 87.413 122.373 87.3948 123.194C87.4618 124.67 87.8821 126.109 88.6204 127.388C89.295 128.816 90.262 130.447 91.8361 130.548C92.6695 130.513 93.4777 130.253 94.1748 129.795C96.0338 128.798 97.8853 127.793 99.7293 126.781C101.201 126.109 102.527 125.154 103.631 123.97C105.509 121.722 105.509 118.483 106.464 115.785C106.69 115.338 106.875 114.871 107.015 114.391C107.015 113.84 107.015 113.266 107.015 112.693C107.01 111.284 106.898 109.879 106.678 108.488C106.284 106.014 105.475 103.686 104.946 101.258C104.823 100.696 105.048 99.7511 104.542 99.3463C103.721 98.6829 102.529 99.5262 101.877 100.01L92.2634 107.161C91.6133 107.573 91.0166 108.064 90.4868 108.622Z" fill="#FA9B55"/>
<path d="M117.27 180.899C116.456 179.982 115.36 179.361 114.155 179.134C113.032 179.208 111.952 179.598 111.041 180.258C109.568 181.113 107.555 182.091 106.757 183.721C106.761 183.755 106.761 183.789 106.757 183.822C106.512 184.45 106.383 185.117 106.374 185.79C106.251 187.915 106.273 190.063 106.228 192.199C106.142 192.515 106.149 192.85 106.248 193.162C106.347 193.474 106.535 193.751 106.788 193.959C107.041 194.167 107.349 194.297 107.675 194.334C108 194.371 108.33 194.313 108.623 194.167C111.232 193.747 113.791 193.058 116.258 192.109C117.073 191.86 117.809 191.402 118.394 190.782C118.967 189.901 119.257 188.865 119.226 187.814C119.305 186.521 119.35 185.228 119.372 183.935C119.372 183.249 119.428 182.439 118.821 182.046C118.277 181.701 117.759 181.318 117.27 180.899Z" fill="#FA9B55"/>
<path d="M165.562 71.1464L164.438 71.079H163.313C162.499 71.0381 161.685 71.1604 160.918 71.4388C160.656 71.5493 160.413 71.7011 160.199 71.8885C159.848 72.2272 159.575 72.6377 159.399 73.0919C159.222 73.5461 159.146 74.0332 159.175 74.5196C159.171 74.7662 159.202 75.0122 159.265 75.2505C159.351 75.5594 159.407 75.8756 159.434 76.1949C159.542 76.9898 159.943 77.7157 160.558 78.2301C160.837 78.4617 161.147 78.6511 161.48 78.7923C162.391 76.8358 163.336 74.9806 164.303 73.2715C164.707 72.5294 165.135 71.8436 165.562 71.1464Z" fill="#FA9B55"/>
<path d="M95.2316 222.634C95.7095 222.309 96.1021 221.874 96.3761 221.365C96.6501 220.856 96.7975 220.289 96.8058 219.711C96.8676 218.779 96.8676 217.844 96.8058 216.911C96.8017 216.61 96.699 216.317 96.5134 216.079C96.2548 215.697 96.0524 215.27 95.8275 214.854C95.6096 214.39 95.3578 213.943 95.0742 213.516C94.0173 212.088 92.0384 214.82 91.7798 215.618C91.6118 216.313 91.6118 217.038 91.7798 217.732L92.2295 220.543C92.2649 221.245 92.5295 221.917 92.9829 222.455C93.2925 222.715 93.6755 222.872 94.0785 222.904C94.4815 222.936 94.8846 222.842 95.2316 222.634Z" fill="#FA9B55"/>
<path d="M146.166 107.341C144.825 106.786 143.349 106.645 141.927 106.936C141.14 107.026 140.364 107.127 139.589 107.239C138.813 107.352 138.093 107.239 137.598 107.936C137.345 108.347 137.191 108.81 137.148 109.29C137.105 109.77 137.175 110.254 137.351 110.702C137.688 111.636 138.296 112.49 138.689 113.401C138.948 113.857 139.32 114.239 139.769 114.511C140.217 114.782 140.728 114.935 141.253 114.953C141.684 114.973 142.115 114.931 142.534 114.829C144.017 114.405 145.408 113.711 146.638 112.783C147.071 112.495 147.429 112.11 147.684 111.658C147.895 111.294 147.993 110.875 147.965 110.455C147.952 109.826 147.78 109.211 147.466 108.667C147.151 108.122 146.704 107.666 146.166 107.341Z" fill="#FA9B55"/>
<path d="M175.996 50.2782C176.14 50.5075 176.344 50.6928 176.586 50.8138C176.828 50.9347 177.098 50.9867 177.368 50.9641C177.674 50.8401 177.933 50.624 178.11 50.3457L179.909 48.0969C180.36 47.603 180.711 47.0265 180.944 46.3991C181.143 45.6388 181.034 44.8305 180.64 44.1503C180.392 43.7128 180.049 43.3362 179.637 43.0483C179.224 42.7604 178.752 42.5683 178.256 42.4862C177.459 42.3844 176.649 42.5337 175.94 42.9135C175.541 43.1092 175.229 43.4456 175.063 43.858C174.489 45.1739 174.389 46.6484 174.782 48.0294C175.036 48.8512 175.448 49.6152 175.996 50.2782Z" fill="#FA9B55"/>
<path d="M139.51 92.6791C139.653 92.4325 139.738 92.1568 139.76 91.8725C139.781 91.5882 139.738 91.3027 139.633 91.0375C139.296 90.509 138.509 90.4528 137.936 90.4528C136.635 90.3788 135.339 90.6668 134.191 91.2848C134.019 91.3644 133.874 91.4936 133.775 91.6559C133.502 92.2694 133.295 92.9101 133.157 93.5673C132.808 94.8809 132.626 96.2335 132.617 97.5926C132.617 98.346 132.617 99.1106 133.247 99.5828C133.835 99.8863 134.503 100 135.158 99.9089C135.456 99.8959 135.748 99.8189 136.014 99.683C136.28 99.5472 136.513 99.3558 136.699 99.1218C137.084 98.6378 137.381 98.0897 137.576 97.5027L139.51 92.6791Z" fill="#FA9B55"/>
<path d="M126.231 211.425C126.551 211.48 126.879 211.465 127.193 211.382C127.507 211.298 127.799 211.147 128.049 210.94C128.299 210.733 128.501 210.474 128.642 210.181C128.782 209.888 128.857 209.568 128.862 209.244C129.391 207.22 129.908 205.185 130.436 203.15C130.624 202.552 130.722 201.931 130.729 201.306C130.56 200.122 130.065 199.009 129.301 198.09C128.997 197.651 128.649 197.145 128.075 197.078C127.502 197.01 127.322 197.359 126.951 197.629C125.826 198.416 124.601 199.147 123.431 199.878C122.757 200.305 122.093 200.743 121.43 201.182C121.187 201.306 120.981 201.492 120.834 201.722C120.747 201.913 120.698 202.119 120.688 202.329C120.373 205.327 120.114 208.37 119.912 211.459C122.011 211.541 124.117 211.53 126.231 211.425Z" fill="#FA9B55"/>
<path d="M31.6253 135.54C31.3951 135.344 31.1148 135.215 30.8158 135.169C29.5692 134.751 28.2628 134.538 26.9479 134.539C26.1895 134.529 25.4348 134.431 24.6991 134.247C24.5632 134.208 24.419 134.208 24.2831 134.247C24.1032 134.315 24.0132 134.506 23.9233 134.674C22.8889 136.863 21.8994 139.074 20.9549 141.308C20.8634 141.481 20.8243 141.676 20.8425 141.87C20.9129 142.066 21.0476 142.233 21.2248 142.343C22.3834 143.255 23.6302 144.05 24.9465 144.715C25.6695 144.971 26.4284 145.111 27.1952 145.131L29.5789 145.468C29.811 145.53 30.0552 145.53 30.2873 145.468C30.5208 145.344 30.7153 145.157 30.8495 144.929L32.6822 142.343C32.9403 142.036 33.1249 141.675 33.2219 141.286C33.2501 140.904 33.1965 140.521 33.0645 140.161C32.6935 138.891 32.3337 137.62 31.9401 136.338C31.9053 136.05 31.7969 135.775 31.6253 135.54Z" fill="#FA9B55"/>
<path d="M129.244 166.405C129.717 164.735 129.828 162.983 129.57 161.267C129.445 160.405 129.222 159.56 128.907 158.748C128.794 158.444 128.716 158.118 128.592 157.815C128.39 157.309 127.726 157.073 127.243 156.949C125.768 156.738 124.264 156.932 122.891 157.511L115.752 159.816C114.677 159.938 113.69 160.465 112.992 161.291C112.294 162.117 111.938 163.178 111.996 164.257L111.108 171.465C110.995 172.319 110.804 174.006 111.816 174.456C112.001 174.512 112.188 174.557 112.378 174.59C112.648 174.68 112.907 174.793 113.165 174.872C113.7 175.039 114.245 175.175 114.796 175.276C118.061 175.853 121.423 175.161 124.196 173.342C126.637 171.69 128.423 169.236 129.244 166.405Z" fill="#FA9B55"/>
<path d="M25.7338 215.259C25.835 215.686 26.0149 216.203 26.4534 216.271C26.712 216.281 26.9662 216.201 27.173 216.046L29.5567 214.685C29.684 214.63 29.7904 214.535 29.8603 214.415C29.8828 214.319 29.8828 214.219 29.8603 214.123C29.7911 212.682 29.6259 211.247 29.3655 209.828C29.2868 209.434 29.1744 208.591 28.6347 208.557C28.095 208.524 27.8926 209.03 27.6003 209.198C26.9516 209.534 26.3244 209.909 25.7225 210.323C25.4995 210.445 25.3247 210.64 25.2266 210.875C25.1286 211.11 25.1132 211.371 25.1828 211.616C25.2824 212.841 25.4665 214.058 25.7338 215.259Z" fill="#FA9B55"/>
<path d="M24.8454 206.175C24.9988 206.225 25.1643 206.225 25.3177 206.175L28.2073 205.5C28.3601 205.498 28.5067 205.439 28.6188 205.335C28.7309 205.232 28.8006 205.09 28.8145 204.938L30.265 199.777C30.3851 199.45 30.4123 199.096 30.3437 198.754C30.2325 198.485 30.0544 198.249 29.8264 198.068C29.2104 197.496 28.5568 196.967 27.87 196.483C27.2179 196.022 26.7456 196.325 26.1385 196.572C25.4309 196.823 24.7583 197.163 24.1371 197.584C23.9722 197.676 23.833 197.807 23.7323 197.967C23.6761 198.129 23.6532 198.301 23.6648 198.473C23.6967 200.885 23.9908 203.286 24.5418 205.635C24.5483 205.742 24.5789 205.846 24.6315 205.94C24.6841 206.033 24.7573 206.114 24.8454 206.175Z" fill="#FA9B55"/>
<path d="M47.7605 157.847C47.7127 156.964 47.5502 156.091 47.277 155.25L45.7928 149.965C45.7335 149.679 45.6105 149.41 45.433 149.178C45.206 148.979 44.9307 148.844 44.6347 148.785C43.097 148.324 41.5198 148.008 39.9235 147.84C39.7043 147.797 39.4772 147.821 39.2714 147.908C39.0996 148.031 38.9638 148.198 38.8778 148.391C37.7759 150.467 36.6516 152.548 35.5047 154.631C35.259 155.032 35.1018 155.481 35.0437 155.947C35.0493 156.333 35.1295 156.715 35.2798 157.071C35.6958 158.286 36.1006 159.5 36.5166 160.703C36.9327 161.906 37.1238 163.638 38.2482 164.256C39.0725 164.626 39.9483 164.869 40.8455 164.976C41.9011 165.185 42.967 165.339 44.0388 165.437C44.4645 165.499 44.8988 165.465 45.3093 165.336C46.1526 164.998 46.4337 163.975 46.6698 163.087C46.9059 162.199 47.1421 161.052 47.3669 160.04C47.5821 159.326 47.7142 158.591 47.7605 157.847Z" fill="#FA9B55"/>
<path d="M46.3321 184.395C47.4565 184.058 47.4565 182.843 47.2654 181.865C46.6357 177.99 46.1822 174.096 45.9049 170.183C45.9122 169.861 45.8346 169.543 45.68 169.261C45.4606 168.982 45.1631 168.774 44.8255 168.665C42.5975 167.732 40.2224 167.199 37.8093 167.091L35.5605 173.444C35.3037 174.068 35.1664 174.736 35.1558 175.411C35.293 176.356 35.7124 177.238 36.3589 177.941C37.0839 178.84 37.8852 179.676 38.7538 180.437C40.2937 181.786 42.035 182.887 43.9147 183.698C44.6343 183.957 45.5563 184.609 46.3321 184.395Z" fill="#FA9B55"/>
<path d="M40.4407 211.65C40.6278 211.465 40.7668 211.238 40.8454 210.987C41.5609 209.296 42.0851 207.531 42.4083 205.725C42.5424 205.133 42.4669 204.513 42.1947 203.97C42.0216 203.751 41.7864 203.588 41.5197 203.504C41.253 203.42 40.9671 203.418 40.6993 203.498C39.7069 203.734 38.6691 203.695 37.6972 203.386C37.1004 203.095 36.5508 202.716 36.0668 202.261C35.1411 201.482 34.1118 200.835 33.0085 200.339C32.8865 200.267 32.7423 200.243 32.6037 200.271C32.4575 200.271 32.3788 200.474 32.3114 200.62C31.9827 201.352 31.6973 202.103 31.4568 202.869C31.2965 203.347 31.213 203.848 31.2095 204.353C31.2512 204.827 31.361 205.293 31.5355 205.736L33.4245 211.414C33.4886 211.695 33.6425 211.948 33.863 212.134C34.0927 212.247 34.351 212.29 34.6051 212.257C36.2355 212.19 37.8658 212.1 39.4962 211.965C39.8375 211.969 40.1702 211.858 40.4407 211.65Z" fill="#FA9B55"/>
<path d="M23.7434 160.715C23.4285 161.375 23.2743 162.099 23.2936 162.829C23.4176 163.582 23.7096 164.297 24.1481 164.921L26.1383 168.294C26.1844 168.406 26.2568 168.505 26.3493 168.583C26.4418 168.66 26.5517 168.715 26.6697 168.741C26.7877 168.768 26.9103 168.766 27.0273 168.735C27.1442 168.704 27.2519 168.645 27.3414 168.564C29.0939 167.755 30.7688 166.788 32.3449 165.674C32.4766 165.595 32.5852 165.482 32.6597 165.348C32.6912 165.225 32.6944 165.096 32.6691 164.971C32.6438 164.847 32.5906 164.73 32.5135 164.628L29.1404 158.523C28.7019 157.725 28.2409 156.656 27.2964 156.353C26.3519 156.049 25.7897 156.69 25.385 157.365C24.7611 158.443 24.2126 159.562 23.7434 160.715Z" fill="#FA9B55"/>
<path d="M20.4712 175.051C20.3518 175.139 20.2529 175.252 20.1811 175.382C20.1093 175.512 20.0664 175.656 20.0552 175.804C20.0833 175.961 20.1446 176.111 20.2351 176.243L22.6975 180.38C22.8447 180.665 23.0473 180.917 23.2934 181.122C23.587 181.308 23.9245 181.413 24.2716 181.426C25.6352 181.454 26.999 181.386 28.3531 181.224C29.7319 181.089 31.1095 181.492 32.1985 182.348C32.5021 182.629 32.7944 182.989 33.2105 183.034C33.324 181.352 33.0628 179.666 32.4459 178.098C32.3178 177.696 32.0756 177.341 31.7488 177.075C31.493 176.928 31.2097 176.836 30.9167 176.805C29.8849 176.625 28.838 176.546 27.7909 176.569C28.0762 175.778 28.5935 175.092 29.2751 174.601C29.4888 174.444 29.7249 174.286 29.7811 174.039C29.806 173.848 29.7664 173.654 29.6687 173.488C29.4274 172.94 29.0794 172.447 28.645 172.035C28.2106 171.624 27.6986 171.304 27.1388 171.093C26.644 170.941 26.1199 170.911 25.611 171.005C25.102 171.099 24.6233 171.314 24.2154 171.633C23.9343 171.857 23.7207 172.139 23.4621 172.375C23.0011 172.791 22.5176 173.184 22.0566 173.6C21.5956 174.016 20.9434 174.533 20.4712 175.051Z" fill="#FA9B55"/>
<path d="M142.04 128.59C142.222 128.553 142.387 128.458 142.512 128.321L142.579 128.264C142.838 128.028 143.063 127.871 143.119 127.511L143.322 126.151C143.322 125.768 143.434 125.397 143.501 125.026C143.659 124.037 143.681 123.036 143.884 122.058C144.244 120.337 142.265 119.089 140.735 119.179C139.206 119.269 137.745 120.675 136.643 121.968C136.108 122.514 135.721 123.187 135.518 123.924C135.405 124.692 135.594 125.475 136.047 126.106C136.432 126.618 136.861 127.096 137.329 127.534C137.452 127.68 137.542 127.882 137.7 127.972C137.8 128.026 137.912 128.053 138.026 128.051C138.78 128.117 139.531 128.222 140.274 128.366L141.028 128.478C141.358 128.565 141.699 128.603 142.04 128.59Z" fill="#FA9B55"/>
<path d="M22.3605 191.658C22.4692 191.919 22.6435 192.147 22.8665 192.321C23.0997 192.439 23.3586 192.497 23.6198 192.49C24.7512 192.549 25.8855 192.458 26.993 192.22L26.858 185.473C26.858 185.114 26.858 184.686 26.4982 184.506C26.3115 184.423 26.1054 184.392 25.9023 184.416C24.7345 184.336 23.5912 184.043 22.5292 183.551C21.9108 183.303 21.0337 182.741 20.5165 183.461C20.1616 184.157 20.093 184.964 20.3254 185.71C20.7168 187.779 21.4021 189.782 22.3605 191.658Z" fill="#FA9B55"/>
<path d="M107.814 147.515C107.858 146.752 107.751 145.988 107.499 145.266C107.303 144.846 107.032 144.465 106.7 144.142C106.026 143.377 105.576 142.433 104.834 141.713C104.092 140.993 103.091 141.432 102.428 141.792C101.705 142.346 100.83 142.667 99.9204 142.714L99.8192 136.991C99.8509 136.691 99.8007 136.389 99.674 136.115C99.5472 135.842 99.3487 135.608 99.0995 135.439L98.6948 135.18C98.4962 135.063 98.2729 134.993 98.0426 134.978C97.2393 134.971 96.4372 135.043 95.6477 135.192L90.0258 135.81L87.3273 136.102C86.0193 136.158 84.737 136.484 83.5606 137.058C82.9772 137.417 82.498 137.923 82.1705 138.524C81.8431 139.126 81.6788 139.803 81.6941 140.487C81.7205 141.38 81.8259 142.268 82.0089 143.141L82.38 145.929C82.38 146.323 82.4812 146.717 82.5261 147.054C82.6468 149.528 83.3273 151.942 84.5163 154.115C86.2254 156.712 89.2275 158.107 92.0722 159.355C93.9611 160.198 95.985 161.041 98.0314 160.738C100.797 160.31 102.776 157.893 104.384 155.588C106.056 153.478 107.211 151.006 107.757 148.369C107.78 148.1 107.802 147.807 107.814 147.515Z" fill="#FA9B55"/>
<path d="M54.9451 137.711C55.6877 135.285 56.2145 132.798 56.5193 130.279C56.5907 129.953 56.5511 129.613 56.4068 129.312C56.2305 129.077 55.9876 128.901 55.7097 128.806L50.3689 126.355C49.305 125.716 48.0597 125.447 46.8271 125.59C46.2776 125.753 45.7549 125.996 45.2754 126.31L40.508 129.143C39.7188 129.548 39.007 130.088 38.4054 130.74C37.986 131.305 37.6631 131.936 37.4497 132.606C37.1174 133.586 36.8617 134.589 36.6851 135.608C36.405 136.51 36.3282 137.462 36.4602 138.397C36.6964 139.049 37.6521 139.117 38.2255 139.251L41.4862 140.027L45.1517 140.904C45.5159 141.015 45.8958 141.064 46.2761 141.05C46.8134 140.955 47.3236 140.744 47.7715 140.432C50.0052 139.154 52.426 138.236 54.9451 137.711Z" fill="#FA9B55"/>
<path d="M122.835 121.552C124.297 122.812 126.017 124.138 127.918 123.88C129.492 123.655 130.684 122.396 131.752 121.215C133.326 119.472 134.967 117.55 135.226 115.211C135.485 112.872 134.428 110.927 133.416 108.971C132.764 107.689 131.943 106.272 130.537 105.957C129.654 105.845 128.757 105.974 127.94 106.328L123.667 107.734C122.786 108.071 121.88 108.342 120.958 108.543C120.691 108.56 120.432 108.641 120.204 108.779C119.578 109.3 119.091 109.969 118.788 110.725C118.346 111.793 118.131 112.942 118.158 114.098C118.038 114.845 118.061 115.608 118.225 116.346C118.945 118.46 121.205 120.158 122.835 121.552Z" fill="#FA9B55"/>
<path d="M94.6019 206.107C94.9029 206.592 95.3358 206.982 95.85 207.231C96.4709 207.413 97.1262 207.444 97.7614 207.321C99.2719 207.232 100.775 207.04 102.259 206.747C103.089 206.677 103.876 206.347 104.508 205.803C105.083 205.014 105.354 204.044 105.272 203.071C105.473 200.397 105.089 197.711 104.148 195.2C103.767 194.256 103.268 193.365 102.664 192.546C102.383 192.175 102.079 191.861 101.82 191.422C101.604 191.102 101.32 190.833 100.988 190.635C100.484 190.334 99.8951 190.206 99.3111 190.268C98.727 190.331 98.1792 190.582 97.7502 190.984C97.1389 191.444 96.4965 191.861 95.8275 192.232C95.331 192.582 94.8878 193.002 94.512 193.48C93.8484 194.339 93.3803 195.333 93.1402 196.392C92.7508 198.919 92.9745 201.503 93.7924 203.925C93.9499 204.689 94.2228 205.425 94.6019 206.107Z" fill="#FA9B55"/>
<path d="M49.7953 148.515C49.9415 149.348 50.1101 150.18 50.3125 151C50.3683 151.535 50.5452 152.051 50.8297 152.507C51.1671 152.867 51.9541 152.979 52.1902 152.574C52.5589 151.83 52.8526 151.05 53.0673 150.247C53.1733 149.918 53.3413 149.613 53.562 149.348C53.8405 149.096 54.1705 148.908 54.529 148.797C55.4734 148.437 56.4292 148.133 57.4074 147.863C57.6303 147.832 57.8447 147.756 58.0378 147.64C58.2309 147.524 58.3989 147.371 58.5318 147.189C58.6022 146.972 58.6255 146.742 58.6003 146.515C58.5751 146.288 58.5019 146.07 58.3856 145.873C57.9358 144.839 57.4636 143.816 56.9576 142.804C56.8935 142.623 56.7937 142.458 56.6643 142.317C56.5349 142.176 56.3785 142.062 56.2043 141.983C55.9567 141.929 55.6988 141.949 55.4622 142.039C53.5599 142.533 51.7358 143.29 50.0427 144.288C49.7943 144.393 49.5919 144.583 49.4722 144.824C49.3525 145.066 49.3235 145.342 49.3905 145.603C49.4805 146.615 49.6266 147.571 49.7953 148.515Z" fill="#FA9B55"/>
<path d="M81.5595 121.733C82.8579 119.579 83.6607 117.163 83.9094 114.66L71.0015 117.898C70.7469 117.943 70.5028 118.034 70.2819 118.168C68.7415 119.191 70.6417 120.923 71.6536 121.328C72.1583 121.491 72.6862 121.571 73.2165 121.564C74.1378 121.648 75.0537 121.783 75.96 121.969L79.5018 122.565C79.9588 122.693 80.4454 122.665 80.8848 122.486C81.1683 122.294 81.4 122.035 81.5595 121.733Z" fill="#FA9B55"/>
<path d="M73.5985 167.428L82.1663 171.318C82.2561 171.406 82.369 171.467 82.4918 171.493C82.6146 171.519 82.7423 171.51 82.8601 171.466C82.9778 171.423 83.0808 171.346 83.157 171.247C83.2333 171.147 83.2796 171.028 83.2907 170.902L85.5394 165.281C86.0354 164.429 86.1767 163.416 85.9327 162.461C85.6887 161.506 85.079 160.685 84.2351 160.176C83.4031 159.333 82.5935 158.399 81.694 157.623C80.2436 156.353 78.5008 158.613 77.4888 159.546C75.9897 160.918 74.5767 162.353 73.2499 163.853C72.5753 164.606 71.8782 165.663 72.3729 166.551C72.6833 166.961 73.1107 167.266 73.5985 167.428Z" fill="#FA9B55"/>
</svg>
