<svg width="319" height="221" viewBox="0 0 319 221" fill="none" xmlns="http://www.w3.org/2000/svg">
<g opacity="0.3">
<path d="M143.725 102.117C143.995 102.935 129.449 114.659 125.682 119.298C121.915 123.936 124.064 126.661 119.218 130.212C114.372 133.763 111.406 137.844 111.127 142.753C110.848 147.662 117.052 161.848 123.785 169.481C130.519 177.114 136.479 184.486 136.479 184.486C135.47 185.39 134.734 186.559 134.354 187.86C133.974 189.162 133.966 190.543 134.331 191.849C135.41 196.757 138.637 198.393 138.637 198.393L130.546 212.032C130.546 212.032 123.542 210.126 124.621 197.575C125.7 185.025 120.045 177.392 118.157 174.39C116.269 171.387 105.229 153.119 104.42 152.57C103.611 152.022 94.4501 147.662 96.8775 138.662C99.3048 129.663 104.42 126.786 107.108 117.859C109.796 108.932 111.424 109.768 115.46 102.117C119.497 94.4665 116.539 80.8374 116.269 80.0192C116 79.2011 143.752 75.9287 143.752 75.9287L143.725 102.117Z" fill="black"/>
</g>
<g opacity="0.3">
<path d="M224.224 93.4863C224.224 93.4863 227.766 109.606 235.201 116.079C235.201 116.079 238.257 150.511 236.1 160.913C233.942 171.315 212.725 203.23 212.725 203.23V206.997L217.337 208.606C217.337 208.606 219.279 205.01 223.181 205.738C223.181 205.738 243.723 170.416 247.976 168.258C251.126 166.477 254.041 164.309 256.651 161.803C254.542 155.201 253.584 148.286 253.819 141.359C254.17 129.672 259.663 106.396 259.663 106.396L249.387 77.3398L224.224 93.4863Z" fill="black"/>
</g>
<path d="M143.725 102.117C143.995 102.935 129.449 114.659 125.682 119.298C121.915 123.936 124.064 126.661 119.218 130.212C114.372 133.763 111.406 137.844 111.127 142.753C110.848 147.662 117.052 161.848 123.785 169.481C130.519 177.114 136.479 184.486 136.479 184.486C135.47 185.39 134.734 186.559 134.354 187.86C133.974 189.162 133.966 190.543 134.331 191.849C135.41 196.757 138.637 198.393 138.637 198.393L130.546 212.032C130.546 212.032 123.542 210.126 124.621 197.575C125.7 185.025 120.045 177.392 118.157 174.39C116.269 171.387 105.229 153.119 104.42 152.57C103.611 152.022 94.4501 147.662 96.8775 138.662C99.3048 129.663 104.42 126.786 107.108 117.859C109.796 108.932 111.424 109.768 115.46 102.117C119.497 94.4665 116.539 80.8374 116.269 80.0192C116 79.2011 143.752 75.9287 143.752 75.9287L143.725 102.117Z" fill="#F9941C"/>
<path d="M224.224 93.4863C224.224 93.4863 227.766 109.606 235.201 116.079C235.201 116.079 238.258 150.511 236.1 160.913C233.943 171.315 212.726 203.23 212.726 203.23V206.997L217.338 208.606C217.338 208.606 219.28 205.01 223.181 205.738C223.181 205.738 243.724 170.416 247.976 168.258C251.127 166.477 254.041 164.309 256.652 161.803C254.543 155.201 253.585 148.286 253.82 141.359C254.171 129.672 259.664 106.396 259.664 106.396L249.388 77.3398L224.224 93.4863Z" fill="#F48551"/>
<path d="M31.4107 20.5498C31.533 21.0868 31.7426 21.6 32.0311 22.0692C32.6003 23.3242 33.6115 24.3259 34.872 24.8831C35.5971 25.1421 36.3835 25.1766 37.1285 24.982C37.717 24.8391 38.2828 24.6152 38.8097 24.3167C39.3071 24.0961 39.7632 23.792 40.1582 23.4177C39.6395 23.5807 39.1393 23.7976 38.6659 24.065C37.5656 24.6616 36.2783 24.8129 35.0698 24.4875C33.9269 23.9465 32.9833 23.0595 32.3727 21.9523C32.1124 21.4461 31.7892 20.9749 31.4107 20.5498Z" fill="#263238"/>
<path d="M187.724 78.4826C187.725 78.7578 187.771 79.031 187.859 79.2917C188.04 80.0297 188.275 80.7538 188.56 81.4584C189.567 83.9136 191.101 86.1173 193.055 87.9134L193.612 88.4258L193.423 87.6886C193.069 86.3109 192.885 84.8948 192.875 83.4722C192.875 82.9687 192.875 82.4743 192.929 81.9978L192.489 82.0877C193.674 84.3194 195.305 86.2838 197.28 87.8594L197.559 88.0842V87.7336C197.665 86.1913 197.469 84.6431 196.984 83.1755C196.848 82.7769 196.689 82.3866 196.507 82.0068C196.372 81.7461 196.291 81.6112 196.273 81.6202C196.255 81.6292 196.489 82.1956 196.777 83.2385C197.179 84.7007 197.316 86.2231 197.181 87.7336L197.487 87.5987C195.595 86.016 194.028 84.0801 192.875 81.8989L192.506 81.1797L192.444 81.9888C192.399 82.4833 192.381 82.9867 192.381 83.4992C192.39 84.962 192.583 86.4179 192.956 87.8325L193.325 87.6077C191.419 85.8576 189.889 83.7378 188.829 81.3775C188.074 79.5974 187.823 78.4647 187.724 78.4826Z" fill="#263238"/>
<path d="M122.392 66.1748C122.346 66.6382 122.346 67.1049 122.392 67.5683C122.416 68.1116 122.479 68.6524 122.581 69.1866C122.689 69.8159 122.779 70.5441 122.985 71.3172C123.422 73.1526 123.987 74.955 124.676 76.7114C125.458 78.6802 126.42 80.8109 127.489 83.0045C128.559 85.1981 129.593 87.2839 130.483 89.1898C131.373 91.0957 132.128 92.8488 132.668 94.3502C132.973 95.0874 133.171 95.7796 133.378 96.382C133.585 96.9843 133.738 97.5057 133.846 97.9373C133.945 98.3898 134.087 98.8322 134.268 99.2588C134.225 98.7974 134.144 98.3403 134.025 97.8923C133.921 97.3583 133.789 96.8302 133.63 96.31C133.45 95.6987 133.261 94.9885 132.982 94.2423C132.47 92.714 131.742 90.9429 130.879 89.01C130.016 87.0771 128.982 84.9914 127.912 82.7977C126.842 80.6041 125.88 78.5004 125.08 76.5496C124.369 74.8244 123.768 73.0557 123.282 71.2543C122.563 68.1527 122.5 66.1658 122.392 66.1748Z" fill="#263238"/>
<path d="M236.963 62.8574C236.905 63.2652 236.883 63.6775 236.9 64.0891C236.885 65.2115 236.93 66.3339 237.035 67.4514C237.173 69.1123 237.41 70.7634 237.745 72.396C238.162 74.3953 238.709 76.3654 239.382 78.2936C240.07 80.2166 240.88 82.0935 241.809 83.9125C242.576 85.3931 243.429 86.8279 244.362 88.2098C244.984 89.1425 245.653 90.0427 246.367 90.9069C246.615 91.234 246.895 91.5352 247.203 91.8059C247.005 91.4434 246.773 91.1003 246.511 90.781C246.043 90.1427 245.396 89.1988 244.632 88.0121C243.745 86.6184 242.929 85.1812 242.187 83.7057C240.368 80.0879 239.015 76.2546 238.159 72.2972C237.772 70.4991 237.503 68.8179 237.35 67.4155C237.197 66.013 237.107 64.8712 237.071 64.0801C237.077 63.6699 237.041 63.2602 236.963 62.8574Z" fill="#263238"/>
<path d="M291.669 72.3693C291.758 71.974 291.804 71.5699 291.804 71.1646C291.804 70.3824 291.885 69.2587 291.867 67.8652C291.8 64.2297 291.475 60.6035 290.896 57.014C290.329 53.4247 289.533 49.8753 288.513 46.3875C288.109 45.048 287.767 43.9782 287.497 43.241C287.377 42.8539 287.224 42.4779 287.039 42.1172C287.096 42.5204 287.189 42.9176 287.317 43.3039C287.542 44.0411 287.83 45.1019 288.217 46.4684C288.927 49.1655 289.781 52.9054 290.455 57.0859C291.021 60.659 291.39 64.2605 291.561 67.8742C291.615 69.2586 291.633 70.3824 291.642 71.1646C291.615 71.5661 291.624 71.9693 291.669 72.3693Z" fill="#263238"/>
<path d="M51.9714 21.7629C52.4695 21.809 52.9707 21.7156 53.4188 21.4932C54.5635 21.0943 55.5645 20.3654 56.2957 19.3985C56.9172 18.3535 57.194 17.1394 57.0868 15.9283C57.0949 15.429 56.9642 14.9372 56.7092 14.5078C56.6373 14.5078 56.7632 15.0652 56.7542 15.9373C56.7671 17.0621 56.4718 18.169 55.9001 19.1378C55.2136 20.0294 54.314 20.7343 53.2839 21.1875C52.5018 21.5741 51.9714 21.691 51.9714 21.7629Z" fill="#263238"/>
<path d="M253.352 21.1152C253.352 21.1152 238.698 14.876 229.977 12.7903C221.257 10.7046 219.189 10.7046 214.011 6.79381C208.832 2.88307 210.415 -0.245523 197.783 0.0151931C185.152 0.275909 170.228 16.1976 161.733 17.7439C153.237 19.2902 146.8 19.0475 136.236 22.1761C125.673 25.3047 116.152 40.6869 105.859 46.9531C95.5647 53.2193 90.4043 55.296 80.1015 51.9067C69.7988 48.5174 65.7172 40.1655 63.9192 36.7762C62.1211 33.3869 55.9358 21.1152 55.9358 21.1152L31.2127 43.5908C31.2127 43.5908 48.1143 54.7656 51.9711 59.9889C55.828 65.2122 71.8036 86.0606 85.4507 88.407C99.0979 90.7535 115.838 81.988 115.838 81.988C115.838 81.988 126.131 105.875 186.645 106.396C247.158 106.918 271.881 55.5568 271.881 55.5568L253.352 21.1152Z" fill="#F9941C"/>
<path d="M151.511 66.9287C151.511 66.9287 161.149 95.9132 161.733 104.607C162.317 113.3 164.745 142.752 164.43 152.848C164.115 162.944 161.463 166.208 162.272 171.116C163.082 176.025 166.309 208.606 166.309 208.606C163.687 212.033 162.475 216.333 162.92 220.625H150.765L154.73 207.392C154.73 207.392 157.966 195.12 157.157 186.714C156.348 178.309 151.763 165.435 149.614 159.744C147.466 154.053 147.726 144.46 147.726 144.46L136.677 109.003L130.483 86.0959L151.511 66.9287Z" fill="#F9941C"/>
<path d="M298.429 56.195C298.869 60.0428 297.853 64.1423 299.328 67.7115C301.018 71.793 305.387 73.9057 308.525 76.9894C310.738 79.2312 312.351 81.9941 313.215 85.0233C314.079 88.0525 314.166 91.2505 313.469 94.3225C312.786 97.1634 311.438 99.7976 310.61 102.611C309.997 104.846 309.889 107.19 310.296 109.471C308.318 107.08 307.994 104.679 308.156 100.975C307.085 104.001 306.629 107.211 306.817 110.415C304.195 108.01 302.231 104.976 301.109 101.6C299.988 98.2239 299.746 94.6175 300.407 91.122C301.117 87.6068 302.744 84.1546 302.205 80.6034C301.584 76.1083 297.71 72.701 296.343 68.3498C295.579 65.9044 295.642 63.2793 295.588 60.7171C295.534 58.1549 295.336 55.4848 294.122 53.2372C292.909 50.9897 290.418 49.2366 287.928 49.6861L286.688 43.4648C293.808 43.4648 297.79 50.6031 298.429 56.195Z" fill="#F9941C"/>
<path d="M55.8462 21.1159C55.8462 21.1159 52.1962 13.2584 47.9078 11.2806C43.6195 9.30273 34.4764 10.4265 33.6314 10.7142C32.7863 11.0019 32.139 12.9797 29.8105 12.2245C27.4821 11.4694 11.8301 12.5032 9.37575 13.4472C6.92142 14.3912 4.71882 20.1 3.78384 21.1159C2.84885 22.1318 -0.225792 26.5819 1.26659 28.5598C2.75896 30.5376 4.61992 30.169 6.391 29.9802C8.16207 29.7914 12.1807 29.1351 12.1807 29.1351C12.1807 29.1351 5.27622 31.6794 4.71883 33.1897C4.16143 34.7001 5.54593 35.9677 7.53277 35.8239C9.21394 35.7212 10.8679 35.351 12.4324 34.727C13.5358 34.3233 14.6822 34.0488 15.8487 33.9089C16.4137 35.1868 17.1818 36.3648 18.1232 37.3971C18.9324 38.0624 31.8783 44.0679 31.8783 44.0679L55.8462 30.169V21.1159Z" fill="#F9941C"/>
<path d="M57.2303 10.1295C57.4404 10.1742 57.6379 10.2651 57.8085 10.3956C57.9791 10.5261 58.1185 10.693 58.2166 10.8841C58.3147 11.0751 58.3691 11.2857 58.3758 11.5004C58.3824 11.7151 58.3412 11.9286 58.2551 12.1253C57.6977 13.7346 56.5829 13.5458 56.7628 14.8674C56.9803 15.6708 57.0124 16.5131 56.8567 17.3308C56.7009 18.1485 56.3614 18.92 55.8637 19.5872C54.4523 21.5741 50.6224 22.2843 50.6224 22.2843L50.2808 12.9075C51.1194 11.9062 52.1931 11.1284 53.4058 10.6437C54.6186 10.1589 55.9326 9.98223 57.2303 10.1295Z" fill="#F9941C"/>
<path d="M39.2144 20.4686C39.2144 19.5066 38.8278 19.2998 37.8568 18.9942C37.1626 18.7518 36.4127 18.7175 35.6992 18.8953C35.438 19.085 35.2253 19.3337 35.0785 19.6212C34.9316 19.9086 34.8548 20.2267 34.8541 20.5495C34.816 20.9661 34.9004 21.3848 35.0968 21.7542C35.2831 22.0991 35.5857 22.3668 35.9509 22.5093C37.3534 22.788 38.9446 22.4195 39.2144 20.4686Z" fill="#263238"/>
<path d="M32.6784 17.4121C32.6784 17.4121 32.6784 17.5829 32.7593 17.8526C32.9535 18.2419 33.2691 18.5575 33.6584 18.7517C34.2146 19.0335 34.8332 19.1696 35.4564 19.1472C36.1541 19.1072 36.8535 19.1072 37.5511 19.1472C38.9806 19.3091 39.7267 20.7385 40.7786 21.0711C41.1646 21.2486 41.6009 21.2836 42.0103 21.17C42.289 21.0711 42.4058 20.9453 42.3879 20.9183C41.8954 21.0633 41.3657 21.0084 40.9135 20.7655C40.4221 20.4877 39.9763 20.136 39.5919 19.7226C39.064 19.175 38.3735 18.8124 37.6231 18.6887C36.9022 18.6259 36.1773 18.6259 35.4564 18.6887C34.9015 18.7212 34.3462 18.6322 33.8292 18.428C33.3508 18.2149 32.9492 17.8604 32.6784 17.4121Z" fill="#263238"/>
<path d="M41.2726 18.4367C41.3266 18.4367 41.2726 17.9063 40.8591 17.187C40.3196 16.2376 39.4913 15.4849 38.4947 15.0384C37.4997 14.5997 36.3893 14.4956 35.3301 14.7417C34.8836 14.8031 34.4649 14.9937 34.1254 15.2901C34.5497 15.2452 34.9703 15.17 35.384 15.0653C36.3766 14.9331 37.3865 15.073 38.3058 15.4699C39.218 15.8864 40.003 16.538 40.5804 17.3579C40.7918 17.7295 41.0229 18.0896 41.2726 18.4367Z" fill="#263238"/>
<path d="M11.2274 17.816C9.2074 17.8364 7.25442 18.5434 5.68944 19.8208C5.51863 19.9646 5.33883 20.1894 5.44672 20.3872C5.5546 20.5849 5.82432 20.567 6.0221 20.4771C6.34707 20.2708 6.64853 20.0296 6.92112 19.7578C7.56133 19.3191 8.31226 19.0698 9.08774 19.0386C9.85742 19.0022 10.6205 18.8785 11.3623 18.67C11.5601 18.5981 11.7938 18.4633 11.7938 18.2475C11.8118 18.2475 11.8208 17.798 11.2274 17.816Z" fill="#263238"/>
<path d="M6.73264 21.6453C7.28998 21.389 7.86727 21.1785 8.45877 21.0159C9.11532 20.886 9.77864 20.793 10.4456 20.7372C11.2874 20.6679 12.1193 20.5082 12.9269 20.2608C13.7873 20.0039 14.5173 19.4283 14.9677 18.6515C15.1578 18.283 15.2058 17.8574 15.1025 17.4558C15.0092 17.1162 14.8296 16.8064 14.5811 16.5568C14.235 16.2277 13.8206 15.9791 13.3674 15.8286C13.0618 15.7207 12.882 15.6847 12.873 15.7117C12.864 15.7387 13.0078 15.8376 13.2955 15.9904C13.6816 16.1992 14.0333 16.466 14.3384 16.7815C14.5505 16.9969 14.6885 17.2743 14.7321 17.5734C14.7758 17.8725 14.7229 18.1778 14.5811 18.4447C14.1631 19.0974 13.5253 19.579 12.7831 19.8023C11.1738 20.3237 9.51061 20.2967 8.38683 20.7013C7.744 20.8183 7.1604 21.1513 6.73264 21.6453Z" fill="#263238"/>
<path d="M2.09319 28.7477C2.03872 27.6755 2.16951 26.6019 2.47979 25.5742C2.92148 24.5983 3.52994 23.7069 4.27783 22.94C4.27783 22.8861 3.88226 23.021 3.37881 23.4255C2.76818 23.9646 2.30159 24.6475 2.02128 25.4124C1.73564 26.175 1.63999 26.9958 1.74258 27.8037C1.85946 28.4241 2.03925 28.7657 2.09319 28.7477Z" fill="#263238"/>
<path d="M4.2692 30.1327C5.10572 30.2255 5.94993 30.2255 6.78645 30.1327C8.8144 30.0317 10.8298 29.7549 12.8099 29.3056C15.1114 28.7482 17.1882 28.011 18.4108 26.9052C18.5568 26.7581 18.6728 26.5841 18.7524 26.3928C18.8064 26.2267 18.8397 26.0546 18.8513 25.8803C18.8513 25.5746 18.9323 25.3139 18.9412 25.0892C18.9688 24.9136 18.9502 24.7339 18.8873 24.5677C18.7614 24.4329 18.6715 24.5677 18.6895 24.5677C18.7075 24.5677 18.7794 24.5677 18.7974 24.6307C18.8299 24.7848 18.8299 24.944 18.7974 25.0982C18.7435 25.3409 18.6895 25.5926 18.6266 25.8623C18.6167 26.0222 18.575 26.1785 18.504 26.322C18.433 26.4656 18.3341 26.5935 18.213 26.6984C16.5491 27.779 14.6887 28.5213 12.738 28.8831C8.117 29.9079 4.26021 29.9529 4.2692 30.1327Z" fill="#263238"/>
<path d="M33.5591 35.2654C33.3353 35.1699 33.0993 35.1064 32.8578 35.0766C32.2059 34.982 31.5477 34.937 30.889 34.9417C29.2168 34.9417 26.9423 35.3013 24.452 35.3283C23.2875 35.3424 22.1273 35.1849 21.0087 34.8608C19.9749 34.5461 19.0399 34.2045 18.2218 34.0067C17.5805 33.8344 16.916 33.7646 16.2529 33.8C16.0054 33.7935 15.7597 33.8426 15.5337 33.9438C16.4162 33.9542 17.2933 34.0843 18.1409 34.3304C18.923 34.5551 19.831 34.9327 20.8829 35.2294C22.0448 35.6005 23.2594 35.7797 24.479 35.7598C27.0412 35.7598 29.2887 35.2923 30.925 35.2384C32.5612 35.1845 33.5501 35.3463 33.5591 35.2654Z" fill="#263238"/>
<g opacity="0.3">
<path d="M54.6233 11.5502C54.8874 11.3092 55.221 11.1582 55.5763 11.1187C55.7534 11.1035 55.9294 11.1579 56.067 11.2704C56.2047 11.3828 56.2931 11.5445 56.3135 11.7211C56.2829 11.9643 56.1646 12.1881 55.9808 12.3504C55.1897 13.2494 54.1828 14.0405 54.1828 15.2093C54.1828 15.6858 54.3267 16.1083 54.3356 16.6207C54.3195 17.2804 54.0784 17.9148 53.6524 18.4188C53.2324 18.9136 52.7557 19.3571 52.2319 19.7403L51.8543 19.6954C51.5118 18.2146 51.5895 16.6675 52.0788 15.2284C52.568 13.7894 53.4493 12.5155 54.6233 11.5502Z" fill="black"/>
</g>
<path d="M69.7988 66.6236C69.8805 66.9018 70.0048 67.1656 70.1674 67.4057C70.4281 67.8912 70.8416 68.5924 71.408 69.4375C72.9274 71.711 74.7076 73.7989 76.7122 75.6587L77.5124 76.3959L77.0808 75.398L75.5795 71.9637L75.0401 70.7321L74.6355 70.9568C76.0327 73.0219 78.1584 74.4829 80.587 75.0474L81.0186 75.1463L80.8028 74.7687C79.8319 73.1235 79.0048 71.73 78.3934 70.6602C78.1134 70.128 77.7854 69.6224 77.4135 69.1498C77.6289 69.7071 77.8905 70.2454 78.1956 70.7591L80.4612 74.9485L80.6769 74.6698C78.3645 74.0869 76.35 72.668 75.0221 70.6871L74.6085 70.9119L75.1479 72.1435C75.6784 73.3302 76.1818 74.49 76.6583 75.5778L77.0269 75.3171C75.0301 73.4866 73.223 71.4596 71.6328 69.2667C70.464 67.6395 69.8527 66.5966 69.7988 66.6236Z" fill="#263238"/>
<path d="M264.266 23.7853C265.651 24.064 285.843 28.9817 289.385 50.4683C289.385 50.4683 292.604 67.0912 291.552 74.4002C290.653 80.2799 288.198 92.6234 291.669 101.038C295.139 109.453 302.349 134.122 316.473 143.661L318.136 209.289L313.146 214.612H304.291C304.291 214.612 308.444 212.094 308.444 192.738C308.444 173.383 305.675 155.168 300.964 147.877C296.254 140.586 260.805 110.02 253.604 100.769C246.403 91.5176 233.942 76.3691 236.433 53.1204C238.923 29.8717 253.352 21.1152 253.352 21.1152L264.266 23.7853Z" fill="#F9941C"/>
<g opacity="0.3">
<path d="M32.022 21.5557C32.2649 22.2735 32.6753 22.9232 33.2191 23.451C33.7629 23.9788 34.4246 24.3696 35.1493 24.591C35.8741 24.8124 36.6412 24.858 37.3871 24.7242C38.133 24.5903 38.8364 24.2808 39.439 23.8212L39.5918 23.7583C38.7724 24.9505 37.5947 25.851 36.2294 26.3295C35.6632 26.6055 35.013 26.6551 34.4115 26.4679C33.81 26.2808 33.3026 25.8711 32.993 25.3226C32.5876 24.7914 32.2928 24.1844 32.126 23.5374C31.9593 22.8904 31.9239 22.2166 32.022 21.5557Z" fill="black"/>
</g>
<path d="M48.0423 17.2494C48.1862 17.2494 48.4109 16.1705 49.0222 14.9658C49.6336 13.7611 50.3618 12.9161 50.2629 12.8262C49.5087 13.2648 48.9256 13.9462 48.6087 14.7591C48.1491 15.5034 47.9499 16.3794 48.0423 17.2494Z" fill="#263238"/>
<g opacity="0.3">
<path d="M193.262 87.8406C192.753 85.9002 192.556 83.8914 192.677 81.8891C193.732 84.2343 195.369 86.2707 197.433 87.8047C197.541 85.6829 197.153 83.5652 196.3 81.6194L196.786 81.8531C197.672 82.8371 198.327 84.0059 198.705 85.2748C199.083 86.5437 199.174 87.8809 198.97 89.1892C198.953 89.4972 198.829 89.7895 198.62 90.0162C198.188 90.3938 197.496 90.1151 197.083 89.7106C196.669 89.306 196.327 88.8116 195.779 88.6138C195.658 89.043 195.677 89.4995 195.833 89.9174C195.914 90.3489 195.833 90.9063 195.446 91.0771C195.293 91.1176 195.132 91.1225 194.976 91.0913C194.82 91.0601 194.674 90.9938 194.547 90.8973C192.894 89.9126 191.544 88.491 190.646 86.7888C189.702 85.1633 189.068 83.377 188.776 81.5205C189.838 83.9035 191.363 86.0518 193.262 87.8406Z" fill="black"/>
</g>
<path d="M166.354 208.606C165.215 210.376 164.537 212.403 164.38 214.502C164.223 216.601 164.592 218.706 165.454 220.626H150.171C150.039 214.968 151.622 210.329 154.918 206.709L159.413 207.968L158.163 210.593L160.582 208.606L159.584 211.186L161.751 208.606H165.931" fill="#263238"/>
<path d="M138.61 198.394C138.61 198.394 133.396 194.249 134.187 190.303L124.675 196.596C124.675 196.596 122.544 208.535 130.528 212.05L138.61 198.394Z" fill="#263238"/>
<path d="M219.405 206.7C219.405 206.7 217.185 208.003 215.809 213.937L202.773 209.747C202.773 209.747 206.954 204.164 211.862 202.178C212.375 201.971 214.281 200.874 214.281 200.874L219.405 206.7Z" fill="#263238"/>
</svg>
