<svg width="1000" height="1000" viewBox="0 0 1000 1000" fill="none" xmlns="http://www.w3.org/2000/svg">
<path d="M442.889 676.886C455.714 681.952 464.265 694.144 464.265 707.919V709.661C464.265 728.028 454.289 744.653 438.614 754.153C422.464 763.97 410.747 778.22 406.314 794.687H573.358C568.924 778.22 557.207 763.97 541.057 754.153C525.382 744.653 515.407 728.028 515.407 709.661V707.919C515.407 694.144 523.957 681.952 536.782 676.886C596.95 653.294 643.342 585.843 655.534 501.767H324.138C336.488 585.843 382.722 653.294 442.889 676.886Z" stroke="#363A5A" stroke-width="8" stroke-miterlimit="10" stroke-linecap="round" stroke-linejoin="round"/>
<path d="M613.736 495.274L587.136 481.024L701.612 265.846C705.571 258.563 714.596 255.713 722.038 259.671C729.321 263.63 732.171 272.655 728.213 280.096L613.736 495.274Z" fill="#EFEFEF"/>
<path d="M630.677 462.816L589.668 475.325" stroke="#FEFEFE" stroke-width="4" stroke-miterlimit="10" stroke-linecap="round" stroke-linejoin="round"/>
<path d="M647.621 430.832L606.612 443.341" stroke="#FEFEFE" stroke-width="4" stroke-miterlimit="10" stroke-linecap="round" stroke-linejoin="round"/>
<path d="M664.72 399.006L623.711 411.514" stroke="#FEFEFE" stroke-width="4" stroke-miterlimit="10" stroke-linecap="round" stroke-linejoin="round"/>
<path d="M681.662 367.023L640.653 379.532" stroke="#FEFEFE" stroke-width="4" stroke-miterlimit="10" stroke-linecap="round" stroke-linejoin="round"/>
<path d="M698.604 335.039L657.595 347.548" stroke="#FEFEFE" stroke-width="4" stroke-miterlimit="10" stroke-linecap="round" stroke-linejoin="round"/>
<path d="M715.705 303.056L674.696 315.564" stroke="#FEFEFE" stroke-width="4" stroke-miterlimit="10" stroke-linecap="round" stroke-linejoin="round"/>
<path d="M641.76 439.066L600.751 451.575" stroke="#FFFDEB" stroke-width="2" stroke-miterlimit="10" stroke-linecap="round" stroke-linejoin="round"/>
<path d="M658.704 407.081L617.695 419.59" stroke="#FFFDEB" stroke-width="2" stroke-miterlimit="10" stroke-linecap="round" stroke-linejoin="round"/>
<path d="M675.803 375.256L634.794 387.764" stroke="#FFFDEB" stroke-width="2" stroke-miterlimit="10" stroke-linecap="round" stroke-linejoin="round"/>
<path d="M692.747 343.273L651.738 355.782" stroke="#FFFDEB" stroke-width="2" stroke-miterlimit="10" stroke-linecap="round" stroke-linejoin="round"/>
<path d="M709.687 311.288L668.678 323.797" stroke="#FFFDEB" stroke-width="2" stroke-miterlimit="10" stroke-linecap="round" stroke-linejoin="round"/>
<path d="M726.788 279.305L685.779 291.813" stroke="#FFFDEB" stroke-width="2" stroke-miterlimit="10" stroke-linecap="round" stroke-linejoin="round"/>
<path d="M613.736 495.274L587.136 481.024L701.612 265.846C705.571 258.563 714.596 255.713 722.038 259.671C729.321 263.63 732.171 272.655 728.213 280.096L613.736 495.274Z" stroke="#363A5A" stroke-width="8" stroke-miterlimit="10" stroke-linecap="round" stroke-linejoin="round"/>
<path d="M638.121 449.199L597.112 461.708" stroke="#363A5A" stroke-width="8" stroke-miterlimit="10" stroke-linecap="round" stroke-linejoin="round"/>
<path d="M655.223 417.374L614.214 429.883" stroke="#363A5A" stroke-width="8" stroke-miterlimit="10" stroke-linecap="round" stroke-linejoin="round"/>
<path d="M672.162 385.39L631.153 397.898" stroke="#363A5A" stroke-width="8" stroke-miterlimit="10" stroke-linecap="round" stroke-linejoin="round"/>
<path d="M689.264 353.406L648.255 365.915" stroke="#363A5A" stroke-width="8" stroke-miterlimit="10" stroke-linecap="round" stroke-linejoin="round"/>
<path d="M706.206 321.422L665.197 334.089" stroke="#363A5A" stroke-width="8" stroke-miterlimit="10" stroke-linecap="round" stroke-linejoin="round"/>
<path d="M723.146 289.597L682.137 302.105" stroke="#363A5A" stroke-width="8" stroke-miterlimit="10" stroke-linecap="round" stroke-linejoin="round"/>
<path d="M335.38 458.067C335.222 454.425 335.063 450.625 335.063 446.983C335.063 398.374 352.164 352.774 383.356 318.732C412.489 286.906 450.49 269.331 490.074 269.331C529.658 269.331 567.658 286.906 596.792 318.732C627.984 352.774 645.084 398.216 645.084 446.983C645.084 450.625 644.926 454.425 644.768 458.067H335.38Z" fill="#FFFDFD"/>
<path d="M335.38 458.067C335.222 454.425 335.063 450.625 335.063 446.983C335.063 398.374 352.164 352.774 383.356 318.732C412.489 286.906 450.49 269.331 490.074 269.331C529.658 269.331 567.658 286.906 596.792 318.732C627.984 352.774 645.084 398.216 645.084 446.983C645.084 450.625 644.926 454.425 644.768 458.067H335.38Z" stroke="#363A5A" stroke-width="8" stroke-miterlimit="10" stroke-linecap="round" stroke-linejoin="round"/>
<path d="M335.38 458.067C335.222 454.425 335.063 450.625 335.063 446.983C335.063 398.374 352.164 352.774 383.356 318.732C412.489 286.906 450.49 269.331 490.074 269.331C529.658 269.331 567.658 286.906 596.792 318.732C627.984 352.774 645.084 398.216 645.084 446.983C645.084 450.625 644.926 454.425 644.768 458.067H335.38Z" fill="white"/>
<path d="M596.792 318.731C567.658 286.905 529.658 269.488 490.074 269.488C486.591 269.488 483.266 269.647 479.782 269.963C515.724 272.655 549.608 289.914 576.209 318.889C607.401 352.931 624.501 398.373 624.501 447.141C624.501 450.782 624.342 454.582 624.184 458.224H644.609C644.768 454.582 644.926 450.782 644.926 447.141C645.084 398.373 627.984 352.773 596.792 318.731Z" fill="#E0E0E0"/>
<path d="M597.902 318.732C568.769 286.906 530.768 269.331 491.184 269.331C451.601 269.331 413.6 286.906 384.466 318.732C365.624 339.315 352.008 364.016 344.091 391.249C356.124 397.583 369.583 401.066 383.991 401.066C403.783 401.066 421.992 394.416 436.717 383.174C442.734 378.582 451.284 378.582 457.301 383.174C472.026 394.416 490.234 401.066 510.026 401.066C532.193 401.066 552.619 392.674 567.977 378.741C575.102 372.407 586.027 372.566 592.519 379.691C605.344 394.099 622.761 404.075 642.395 407.558C635.745 373.991 620.544 343.432 597.902 318.732Z" fill="#DE5550"/>
<path d="M596.794 318.732C567.818 287.065 530.134 269.489 490.709 269.331C487.225 269.331 483.742 269.489 480.417 269.806C516.042 272.656 549.926 289.756 576.368 318.732C597.11 341.374 611.677 369.241 619.119 399.799C626.086 403.283 633.369 405.658 641.286 407.241C634.477 373.832 619.277 343.274 596.794 318.732Z" fill="#C22B24"/>
<path d="M431.015 318.732C454.29 293.398 483.107 277.089 513.824 271.548C506.066 270.123 497.991 269.331 490.074 269.331C450.49 269.331 412.489 286.906 383.356 318.732C352.164 352.774 335.063 398.216 335.063 446.983C335.063 450.625 335.222 454.425 335.38 458.067H383.039C382.881 454.425 382.722 450.625 382.722 446.983C382.722 398.374 399.823 352.774 431.015 318.732Z" fill="#DEDEDE"/>
<path d="M490.55 269.488C451.124 269.647 413.599 287.222 384.624 318.889C365.782 339.473 352.165 364.173 344.248 391.407C356.282 397.74 369.74 401.223 384.149 401.223C385.415 401.223 386.84 401.223 388.107 401.065C395.39 370.19 410.116 341.848 431.174 318.889C454.449 293.555 483.267 277.247 513.984 271.705C506.225 270.122 498.467 269.488 490.55 269.488Z" fill="#C22B24"/>
<path d="M335.38 458.067C335.222 454.425 335.063 450.625 335.063 446.983C335.063 398.374 352.164 352.774 383.356 318.732C412.489 286.906 450.49 269.331 490.074 269.331C529.658 269.331 567.658 286.906 596.792 318.732C627.984 352.774 645.084 398.216 645.084 446.983C645.084 450.625 644.926 454.425 644.768 458.067H335.38Z" stroke="#363A5A" stroke-width="8" stroke-miterlimit="10" stroke-linecap="round" stroke-linejoin="round"/>
<path d="M304.03 455.217C304.03 457.117 304.03 456.325 304.03 456.8C304.03 472 305.139 487.201 307.039 501.767H673.11C675.01 487.359 676.118 472.159 676.118 456.8C676.118 456.325 676.118 457.117 676.118 455.217H304.03Z" fill="#F99F38"/>
<path d="M634.636 455.217H671.37C671.37 457.117 671.37 456.325 671.37 456.8C671.37 472 670.578 487.201 669.311 501.767H634.794V455.217H634.636Z" fill="#F67D20"/>
<path d="M356.598 455.217H304.03C304.03 457.117 304.03 456.325 304.03 456.8C304.03 472 305.139 487.201 307.039 501.767H356.598V455.217Z" fill="#F67D20"/>
<path opacity="0.4" d="M489.441 304.956C510.952 304.956 528.391 298.93 528.391 291.498C528.391 284.064 510.952 278.039 489.441 278.039C467.929 278.039 450.49 284.064 450.49 291.498C450.49 298.93 467.929 304.956 489.441 304.956Z" fill="#931C1C"/>
<path d="M597.902 318.732C568.769 286.906 530.768 269.331 491.184 269.331C451.601 269.331 413.6 286.906 384.466 318.732C365.624 339.315 352.008 364.016 344.091 391.249C356.124 397.583 369.583 401.066 383.991 401.066C403.783 401.066 421.992 394.416 436.717 383.174C442.734 378.582 451.284 378.582 457.301 383.174C472.026 394.416 490.234 401.066 510.026 401.066C532.193 401.066 552.619 392.674 567.977 378.741C575.102 372.407 586.027 372.566 592.519 379.691C605.344 394.099 622.761 404.075 642.395 407.558C635.745 373.991 620.544 343.432 597.902 318.732Z" stroke="#363A5A" stroke-width="8" stroke-miterlimit="10" stroke-linecap="round" stroke-linejoin="round"/>
<path d="M442.889 676.886C455.714 681.952 464.265 694.144 464.265 707.919V709.661C464.265 728.028 454.289 744.653 438.614 754.153C422.464 763.97 410.747 778.22 406.314 794.687H573.358C568.924 778.22 557.207 763.97 541.057 754.153C525.382 744.653 515.407 728.028 515.407 709.661V707.919C515.407 694.144 523.957 681.952 536.782 676.886C596.95 653.294 643.342 585.843 655.534 501.767H324.138C336.488 585.843 382.722 653.294 442.889 676.886Z" fill="#F99F38"/>
<path d="M537.257 676.886C597.425 653.294 643.817 585.843 656.009 501.767H594.416C587.291 546.417 557.841 579.826 522.69 579.826C487.54 579.826 458.089 546.417 450.964 501.767H324.138C336.488 585.843 382.722 653.294 442.889 676.886C455.714 681.952 464.265 694.144 464.265 707.919V709.661C464.265 728.028 454.289 744.653 438.614 754.153C422.464 763.97 410.747 778.22 406.314 794.687H573.358C568.924 778.22 557.207 763.97 541.057 754.153C525.382 744.653 515.407 728.028 515.407 709.661V707.919C515.882 694.144 524.432 681.794 537.257 676.886Z" fill="#F7932F"/>
<path d="M537.259 676.886C597.426 653.294 643.819 585.843 656.01 501.767H634.477C626.56 593.126 572.568 649.81 507.808 655.035C459.358 658.994 388.899 592.968 381.14 501.767H324.456C336.806 585.843 383.04 653.294 443.208 676.886C456.033 681.952 464.583 694.144 464.583 707.919V709.661C464.583 728.028 454.608 744.653 438.933 754.153C422.782 763.97 411.066 778.22 406.632 794.687H460.308C466.958 774.737 484.058 765.553 502.267 765.553C520.475 765.553 544.067 774.737 550.717 794.687H573.676C569.243 778.22 557.526 763.97 541.376 754.153C525.7 744.653 515.725 728.028 515.725 709.661V707.919C515.884 694.144 524.434 681.794 537.259 676.886Z" fill="#F67D20"/>
<path opacity="0.3" d="M656.009 501.767H324.138V523.617H656.009V501.767Z" fill="#D8542B"/>
<path d="M442.889 676.886C455.714 681.952 464.265 694.144 464.265 707.919V709.661C464.265 728.028 454.289 744.653 438.614 754.153C422.464 763.97 410.747 778.22 406.314 794.687H573.358C568.924 778.22 557.207 763.97 541.057 754.153C525.382 744.653 515.407 728.028 515.407 709.661V707.919C515.407 694.144 523.957 681.952 536.782 676.886C596.95 653.294 643.342 585.843 655.534 501.767H324.138C336.488 585.843 382.722 653.294 442.889 676.886Z" stroke="#363A5A" stroke-width="8" stroke-miterlimit="10" stroke-linecap="round" stroke-linejoin="round"/>
<path d="M493.559 292.764C512.71 292.764 528.235 276.813 528.235 257.138C528.235 237.463 512.71 221.513 493.559 221.513C474.409 221.513 458.884 237.463 458.884 257.138C458.884 276.813 474.409 292.764 493.559 292.764Z" fill="#EE202E"/>
<path d="M493.559 292.764C512.71 292.764 528.235 276.813 528.235 257.138C528.235 237.463 512.71 221.513 493.559 221.513C474.409 221.513 458.884 237.463 458.884 257.138C458.884 276.813 474.409 292.764 493.559 292.764Z" stroke="#363A5A" stroke-width="8" stroke-miterlimit="10" stroke-linecap="round" stroke-linejoin="round"/>
<path d="M496.724 237.03L525.382 198.555" stroke="#363A5A" stroke-width="8" stroke-miterlimit="10" stroke-linecap="round" stroke-linejoin="round"/>
<path d="M502.265 246.846C500.365 249.063 497.673 250.33 494.665 250.33C490.865 250.33 487.698 248.113 485.64 244.946" stroke="white" stroke-width="3" stroke-miterlimit="10" stroke-linecap="round" stroke-linejoin="round"/>
<path d="M437.348 225.788L450.489 228.955" stroke="#363A5A" stroke-width="4" stroke-miterlimit="10" stroke-linecap="round" stroke-linejoin="round"/>
<path d="M446.532 206.154L456.507 214.704" stroke="#363A5A" stroke-width="4" stroke-miterlimit="10" stroke-linecap="round" stroke-linejoin="round"/>
<path d="M462.681 194.913L466.481 207.105" stroke="#363A5A" stroke-width="4" stroke-miterlimit="10" stroke-linecap="round" stroke-linejoin="round"/>
<path d="M304.03 455.217C304.03 457.117 304.03 456.325 304.03 456.8C304.03 472 305.139 487.201 307.039 501.767H673.11C675.01 487.359 676.118 472.159 676.118 456.8C676.118 456.325 676.118 457.117 676.118 455.217H304.03Z" stroke="#363A5A" stroke-width="8" stroke-miterlimit="10" stroke-linecap="round" stroke-linejoin="round"/>
</svg>
