<svg width="1000" height="1000" viewBox="0 0 1000 1000" fill="none" xmlns="http://www.w3.org/2000/svg">
<path d="M706.329 240.374H555.671C514.984 240.374 482 272.945 482 313.126V826.235C482.017 833.353 483.599 840.379 486.636 846.817C489.671 853.254 494.086 858.945 499.566 863.486C505.047 868.027 511.459 871.308 518.349 873.095C525.238 874.881 532.436 875.131 539.433 873.826C541.232 873.512 542.992 873.007 544.684 872.319C573.669 859.794 596.875 843.102 631.007 843.102C665.139 843.102 688.347 859.794 717.332 872.319C719.021 873.005 720.777 873.511 722.574 873.826C729.57 875.13 736.767 874.88 743.657 873.092C750.545 871.305 756.956 868.024 762.436 863.484C767.915 858.943 772.33 853.252 775.365 846.814C778.401 840.377 779.983 833.351 780 826.235V313.126C780 272.945 747.016 240.374 706.329 240.374Z" fill="white"/>
<path d="M706.325 240.374H666.592C707.28 240.374 740.264 272.945 740.264 313.126V826.235C740.238 835.44 737.598 844.45 732.653 852.215C727.707 859.98 720.659 866.18 712.328 870.096C713.977 870.848 715.641 871.589 717.323 872.319C719.011 873.005 720.768 873.511 722.565 873.826C729.562 875.131 736.759 874.881 743.649 873.095C750.538 871.308 756.951 868.027 762.431 863.486C767.912 858.945 772.326 853.254 775.362 846.817C778.399 840.379 779.981 833.353 779.998 826.235V313.126C779.998 272.945 747.013 240.374 706.325 240.374Z" fill="#EAE8EA"/>
<path d="M591.267 843.103C559.117 843.103 536.66 857.91 509.938 870.097C519.119 874.459 529.457 875.766 539.434 873.826C541.233 873.513 542.993 873.008 544.684 872.319C567.691 862.377 587.063 849.819 611.141 845.059C604.596 843.757 597.94 843.101 591.267 843.103Z" fill="#D9CEDB"/>
<path d="M706.329 240.374H555.671C514.984 240.374 482 272.945 482 313.126V826.235C482.017 833.353 483.599 840.379 486.636 846.817C489.671 853.254 494.086 858.945 499.566 863.486C505.047 868.027 511.459 871.308 518.349 873.095C525.238 874.881 532.436 875.131 539.433 873.826C541.232 873.512 542.992 873.007 544.684 872.319C573.669 859.794 596.875 843.102 631.007 843.102C665.139 843.102 688.347 859.794 717.332 872.319C719.021 873.005 720.777 873.511 722.574 873.826C729.57 875.13 736.767 874.88 743.657 873.092C750.545 871.305 756.956 868.024 762.436 863.484C767.915 858.943 772.33 853.252 775.365 846.814C778.401 840.377 779.983 833.351 780 826.235V313.126C780 272.945 747.016 240.374 706.329 240.374Z" stroke="#363A5A" stroke-width="6" stroke-linecap="round" stroke-linejoin="round"/>
<path d="M690.917 220.508H571.717V240.374H690.917V220.508Z" fill="#EAE8EA"/>
<path d="M690.917 220.508H571.717V240.374H690.917V220.508Z" stroke="#363A5A" stroke-width="6" stroke-linecap="round" stroke-linejoin="round"/>
<path d="M692.515 220.98C651.75 223.234 610.892 223.234 570.125 220.98C567.954 220.855 565.912 219.903 564.421 218.32C562.929 216.736 562.101 214.641 562.104 212.466C562.104 196.039 562.104 179.611 562.104 163.181C562.104 147.513 574.628 131.948 589.927 128.556C617.17 122.463 645.423 122.481 672.657 128.612C687.983 131.995 700.539 147.547 700.539 163.236C700.539 179.643 700.539 196.05 700.539 212.455C700.546 214.633 699.717 216.73 698.226 218.315C696.733 219.902 694.689 220.855 692.515 220.98Z" fill="white"/>
<path d="M700.532 163.255C700.532 147.561 687.978 132.008 672.652 128.63C654.834 124.644 636.534 123.244 618.316 124.474C628.004 125.141 637.628 126.53 647.109 128.63C662.435 132.013 674.989 147.566 674.989 163.255C674.989 179.662 674.989 196.068 674.989 212.474C674.993 214.649 674.164 216.742 672.673 218.326C671.182 219.909 669.141 220.861 666.97 220.988C650.838 221.879 634.696 222.413 618.546 222.59C643.208 222.874 667.862 222.34 692.513 220.988C694.684 220.861 696.724 219.909 698.216 218.326C699.707 216.742 700.536 214.649 700.532 212.474C700.532 196.071 700.532 179.665 700.532 163.255Z" fill="#EAE8EA"/>
<path d="M692.515 220.98C651.75 223.234 610.892 223.234 570.125 220.98C567.954 220.855 565.912 219.903 564.421 218.32C562.929 216.736 562.101 214.641 562.104 212.466C562.104 196.039 562.104 179.611 562.104 163.181C562.104 147.513 574.628 131.948 589.927 128.556C617.17 122.463 645.423 122.481 672.657 128.612C687.983 131.995 700.539 147.547 700.539 163.236C700.539 179.643 700.539 196.05 700.539 212.455C700.546 214.633 699.717 216.73 698.226 218.315C696.733 219.902 694.689 220.855 692.515 220.98Z" stroke="#363A5A" stroke-width="6" stroke-linecap="round" stroke-linejoin="round"/>
<path d="M507 277.013C493.193 277.013 482 288.206 482 302.013V820.201C482.017 828.8 483.599 837.288 486.636 845.066C489.671 852.842 494.086 859.718 499.566 865.204C505.047 870.69 511.459 874.653 518.349 876.811C525.238 878.97 532.436 879.271 539.433 877.694C541.232 877.315 542.992 876.705 544.684 875.874C573.669 860.743 596.875 840.578 631.007 840.578C665.139 840.578 688.347 860.743 717.332 875.874C719.021 876.703 720.777 877.314 722.574 877.694C729.57 879.27 736.767 878.968 743.657 876.808C750.545 874.65 756.956 870.686 762.436 865.2C767.915 859.715 772.33 852.84 775.365 845.062C778.401 837.286 779.983 828.799 780 820.201V302.013C780 288.206 768.807 277.013 755 277.013H507Z" fill="#FFA403"/>
<path d="M754.928 273.013C746.091 273.013 738.928 280.176 738.928 289.013V792.174C738.911 800.773 737.332 809.26 734.301 817.037C731.272 824.813 726.865 831.689 721.396 837.174C715.926 842.66 709.526 846.623 702.65 848.781C695.774 850.939 688.59 851.241 681.607 849.664C679.814 849.284 678.06 848.673 676.375 847.844C647.446 832.707 624.285 812.549 590.218 812.549C556.151 812.549 532.992 832.707 504.063 847.844C502.377 848.673 500.622 849.284 498.829 849.664C495.746 850.372 493.925 853.889 495.869 856.385C500.686 862.569 506.581 867.427 513.154 870.583C521.647 874.661 530.925 875.729 539.902 873.663C541.698 873.284 543.454 872.674 545.142 871.843C574.071 856.713 597.232 836.549 631.297 836.549C665.363 836.549 688.525 856.713 717.454 871.843C719.14 872.672 720.893 873.283 722.686 873.663C729.668 875.239 736.852 874.937 743.728 872.777C750.602 870.619 757.001 866.655 762.471 861.17C767.939 855.684 772.345 848.81 775.375 841.033C778.404 833.257 779.983 824.77 780 816.173V289.013C780 280.176 772.837 273.013 764 273.013H754.928Z" fill="#F1BB31"/>
<path d="M549 240C511.997 240 482 269.997 482 307V813.273C482.017 822.348 483.599 831.306 486.636 839.515C489.671 847.721 494.086 854.978 499.566 860.768C505.047 866.558 511.459 870.741 518.349 873.019C525.238 875.296 532.436 875.615 539.433 873.95C541.232 873.55 542.992 872.906 544.684 872.029C573.669 856.06 596.158 845.28 630.29 845.28C664.423 845.28 688.347 856.06 717.332 872.029C719.021 872.905 720.777 873.549 722.574 873.95C729.57 875.613 736.767 875.295 743.657 873.015C750.545 870.737 756.956 866.554 762.436 860.764C767.915 854.975 772.33 847.72 775.365 839.511C778.401 831.304 779.983 822.346 780 813.273V307C780 269.997 750.003 240 713 240H549Z" stroke="#363A5A" stroke-width="6" stroke-linecap="round" stroke-linejoin="round"/>
<path d="M591.268 185.031V220.507" stroke="#363A5A" stroke-width="6" stroke-linecap="round" stroke-linejoin="round"/>
<path d="M618.229 185.031V220.507" stroke="#363A5A" stroke-width="6" stroke-linecap="round" stroke-linejoin="round"/>
<path d="M645.191 185.031V220.507" stroke="#363A5A" stroke-width="6" stroke-linecap="round" stroke-linejoin="round"/>
<path d="M672.152 185.031V220.507" stroke="#363A5A" stroke-width="6" stroke-linecap="round" stroke-linejoin="round"/>
<path d="M561.466 518.507C570.87 518.507 578.495 510.883 578.495 501.479C578.495 492.075 570.87 484.45 561.466 484.45C552.062 484.45 544.438 492.075 544.438 501.479C544.438 510.883 552.062 518.507 561.466 518.507Z" fill="white"/>
<path d="M663.638 586.622C669.907 586.622 674.99 581.539 674.99 575.269C674.99 569 669.907 563.917 663.638 563.917C657.368 563.917 652.285 569 652.285 575.269C652.285 581.539 657.368 586.622 663.638 586.622Z" fill="white"/>
<path d="M595.524 671.765C600.227 671.765 604.038 667.953 604.038 663.251C604.038 658.548 600.227 654.736 595.524 654.736C590.821 654.736 587.01 658.548 587.01 663.251C587.01 667.953 590.821 671.765 595.524 671.765Z" fill="white"/>
<path d="M632.419 478.775C637.121 478.775 640.933 474.963 640.933 470.26C640.933 465.558 637.121 461.746 632.419 461.746C627.716 461.746 623.904 465.558 623.904 470.26C623.904 474.963 627.716 478.775 632.419 478.775Z" fill="white"/>
<path d="M737.428 414.917V622.098" stroke="#363A5A" stroke-width="6" stroke-linecap="round" stroke-linejoin="round"/>
<path d="M442 826C442 853.062 420.062 875 393 875L265 875C240.147 875 220 854.853 220 830L220 551L442 551L442 826Z" fill="#FFA403"/>
<path d="M440 826C440 851.957 418.957 873 393 873L265 873C241.252 873 222 853.748 222 830L222 481.162C306.676 487.739 355.328 487.497 440 481.156L440 826Z" stroke="#363A5A" stroke-width="4"/>
<path d="M222 478.969C222.5 470.969 436 468.469 440.5 478.969" stroke="#363A5A" stroke-width="3" stroke-linecap="round"/>
</svg>
