<svg width="349" height="243" viewBox="0 0 349 243" fill="none" xmlns="http://www.w3.org/2000/svg">
<rect width="343.76" height="241.924" fill="#39D7F9"/>
<path d="M237.323 200.174C243.199 200.174 342.073 200.828 348.293 200.632C348.734 200.632 348.979 199.962 348.53 199.741C344.615 197.796 340.169 198.188 336.099 196.815C333.704 195.998 332.233 194.445 330.574 192.647C329.196 191.079 327.416 189.917 325.425 189.288C323.606 188.741 321.676 188.682 319.827 189.116C317.816 189.59 316.075 190.751 314.163 191.462C309.415 193.26 304.797 191.552 301.405 188.038C298.61 185.144 295.856 182.407 292.056 180.846C290.502 180.144 288.821 179.77 287.117 179.747C285.412 179.725 283.722 180.054 282.15 180.715C278.522 182.349 276.037 185.659 272.629 187.645C268.592 190.007 263.762 189.452 259.299 190.163C254.837 190.874 251.421 194.633 247.506 196.791C246.23 197.61 244.756 198.068 243.24 198.115C242.365 198.115 241.507 197.853 240.649 197.747C239.301 197.583 238.017 197.616 237.11 198.744C236.922 199.014 236.963 200.174 237.323 200.174Z" fill="#EBEBEB"/>
<path d="M0.239254 69.9654C4.52995 69.9654 76.72 70.4394 81.2558 70.3005C81.5828 70.3005 81.7626 69.8101 81.4356 69.6467C78.5752 68.2328 75.3306 68.5188 72.3557 67.5136C70.5986 66.9578 69.5361 65.781 68.3265 64.506C67.3197 63.362 66.0199 62.5143 64.5671 62.0542C63.2402 61.6518 61.8306 61.6067 60.4807 61.9234C59.0096 62.2749 57.7428 63.1085 56.3453 63.6397C52.8718 64.9473 49.5047 63.7051 47.0283 61.1388C44.9851 59.0221 42.9419 57.0525 40.2041 55.8919C39.0767 55.3794 37.8565 55.1027 36.6183 55.0788C35.3801 55.0549 34.1502 55.2844 33.0039 55.753C30.3559 56.9544 28.5415 59.3653 26.0488 60.8201C23.1066 62.5446 19.576 62.1359 16.3233 62.659C13.0705 63.182 10.6023 65.9281 7.70916 67.4973C6.77694 68.0931 5.70116 68.4263 4.59534 68.4616C3.95909 68.4044 3.32622 68.3144 2.69925 68.1919C2.24457 68.0675 1.76455 68.0695 1.3109 68.1976C0.857249 68.3258 0.44717 68.5753 0.124836 68.9193C-0.0713101 69.1236 -0.0386195 69.9654 0.239254 69.9654Z" fill="#EBEBEB"/>
<path d="M235.778 147.77C240.069 147.77 312.251 148.244 316.795 148.105C317.114 148.105 317.293 147.615 316.967 147.452C314.106 146.038 310.861 146.324 307.895 145.318C306.146 144.73 305.067 143.586 303.857 142.278C302.852 141.133 301.552 140.285 300.098 139.826C298.771 139.424 297.361 139.379 296.012 139.696C294.598 140.179 293.217 140.752 291.876 141.412C288.411 142.72 285.036 141.477 282.559 138.911C280.524 136.794 278.473 134.825 275.735 133.664C274.601 133.15 273.374 132.876 272.13 132.857C270.885 132.839 269.65 133.078 268.502 133.558C265.854 134.759 264.04 137.17 261.555 138.625C258.605 140.349 255.082 139.941 251.821 140.456C248.56 140.971 246.101 143.725 243.207 145.302C242.276 145.899 241.2 146.232 240.094 146.267C239.457 146.209 238.825 146.119 238.197 145.997C237.743 145.872 237.263 145.874 236.809 146.003C236.355 146.131 235.945 146.38 235.623 146.724C235.46 146.92 235.492 147.77 235.778 147.77Z" fill="#EBEBEB"/>
<path d="M53.9015 155.412C58.1922 155.412 130.382 155.886 134.918 155.739C135.245 155.739 135.417 155.248 135.098 155.093C132.237 153.671 128.993 153.957 126.018 152.96C124.269 152.372 123.198 151.227 121.981 149.912C120.977 148.768 119.68 147.92 118.229 147.46C116.901 147.063 115.493 147.018 114.143 147.329C112.68 147.681 111.405 148.522 110.008 149.045C106.542 150.361 103.175 149.111 100.699 146.544C98.6555 144.436 96.6123 142.458 93.8745 141.298C92.7403 140.785 91.5127 140.512 90.2682 140.495C89.0238 140.478 87.7892 140.718 86.6416 141.2C83.9936 142.401 82.1711 144.812 79.6866 146.258C76.7362 147.983 73.2137 147.574 69.961 148.097C66.7082 148.62 64.24 151.366 61.3469 152.936C60.4159 153.534 59.3394 153.868 58.2331 153.9C57.5956 153.9 56.9663 153.712 56.337 153.638C55.8818 153.512 55.4008 153.513 54.9458 153.639C54.4908 153.766 54.0789 154.014 53.7544 154.358C53.5909 154.562 53.6236 155.412 53.9015 155.412Z" fill="#EBEBEB"/>
<path d="M90.5483 124.045C90.63 124.282 204.321 124.045 202.891 124.045C202.237 124.045 203.88 123.064 203.243 122.745C199.54 120.906 195.487 120.857 191.457 120.49C189.079 120.4 186.741 119.845 184.576 118.855C182.435 117.727 181.103 115.782 179.574 113.951C177.233 111.174 174.221 109.041 170.824 107.753C167.427 106.466 163.758 106.068 160.164 106.596C152.081 107.863 145.706 114.017 137.607 115.153C132.703 115.831 128.143 113.951 123.386 113.289C119.712 112.781 115.972 113.462 112.713 115.234C110.147 116.509 107.809 117.58 104.875 117.776C102.652 117.94 100.413 117.686 98.1898 117.662C94.5519 117.738 91.0661 119.136 88.3825 121.593C87.9739 121.912 86.8297 124.045 90.5483 124.045Z" fill="#EBEBEB"/>
<path d="M5.14294 242.362C5.14294 242.362 66.9045 199.953 105.202 199.953C151.198 199.953 195.92 218.849 212.837 225.093C257.371 241.487 343.602 242.362 343.602 242.362H5.14294Z" fill="#DBDBDB"/>
<path d="M343.642 242.361C343.642 242.361 308.573 217.688 268.959 217.688C241.303 217.688 201.616 222.795 164.242 231.173C150.005 234.36 75.9188 242.361 75.9188 242.361H343.642Z" fill="#C1C1C1"/>
<path opacity="0.1" d="M276.135 114.655C306.35 114.655 330.844 90.1606 330.844 59.9455C330.844 29.7305 306.35 5.23633 276.135 5.23633C245.92 5.23633 221.426 29.7305 221.426 59.9455C221.426 90.1606 245.92 114.655 276.135 114.655Z" fill="#FFBF37"/>
<path d="M276.135 101.769C299.233 101.769 317.958 83.044 317.958 59.9459C317.958 36.8478 299.233 18.123 276.135 18.123C253.037 18.123 234.312 36.8478 234.312 59.9459C234.312 83.044 253.037 101.769 276.135 101.769Z" fill="#FFCC61"/>
<path d="M125.029 232.05C124.277 232.81 115.451 233.145 112.239 233.145C109.027 233.145 100.2 232.867 99.4484 232.05C98.6965 231.232 109.378 172.634 112.239 172.634C115.099 172.634 125.789 231.331 125.029 232.05Z" fill="#6DB023"/>
<path d="M125.209 217.134C123.027 217.951 114.952 221.22 113.203 222.217V221.114C115.148 219.97 117.102 218.831 119.063 217.698C121.227 216.557 123.33 215.305 125.364 213.946C125.462 213.873 125.405 213.677 125.274 213.734C123.144 214.731 121.082 215.87 119.104 217.142C117.118 218.311 115.156 219.504 113.203 220.714C113.203 217.902 113.203 215.091 113.203 212.287C116.389 210.965 119.468 209.399 122.414 207.604C122.512 207.547 122.414 207.359 122.324 207.408C119.176 208.677 116.127 210.179 113.203 211.903C113.203 210.44 113.203 208.986 113.203 207.523C113.121 199.996 113.105 192.46 112.917 184.933C114.83 183.961 116.807 183.111 118.72 182.138C118.842 182.073 118.72 181.86 118.622 181.909C116.677 182.669 114.805 183.544 112.901 184.361C112.795 180.479 112.647 176.597 112.41 172.723C112.41 172.697 112.4 172.672 112.382 172.654C112.363 172.635 112.338 172.625 112.312 172.625C112.286 172.625 112.261 172.635 112.243 172.654C112.225 172.672 112.214 172.697 112.214 172.723C111.945 179.931 111.969 187.148 112.059 194.365C110.073 192.779 107.973 191.381 105.938 189.845C105.864 189.788 105.782 189.919 105.864 189.976C107.973 191.61 109.95 193.359 112.067 194.961C112.067 195.37 112.067 195.778 112.067 196.187C109.91 195.206 107.727 194.291 105.529 193.359C105.357 193.286 105.21 193.531 105.382 193.613C107.597 194.675 109.803 195.754 112.051 196.759C112.1 200.333 112.152 203.908 112.206 207.482C112.288 213.718 112.427 219.962 112.558 226.206C108.498 224.146 104.412 222.147 100.298 220.207C100.143 220.133 100.004 220.354 100.159 220.444C104.185 222.745 108.332 224.826 112.582 226.68C112.696 231.869 112.803 237.051 112.868 242.208C112.868 242.273 112.894 242.335 112.94 242.381C112.986 242.427 113.048 242.453 113.113 242.453C113.178 242.453 113.241 242.427 113.287 242.381C113.333 242.335 113.358 242.273 113.358 242.208C113.285 235.596 113.277 228.976 113.252 222.364C115.402 221.833 123.484 218.368 125.413 217.42C125.56 217.395 125.421 217.052 125.209 217.134Z" fill="#42A023"/>
<path d="M273.414 232.05C272.662 232.81 263.835 233.145 260.623 233.145C257.412 233.145 248.593 232.867 247.833 232.05C247.073 231.232 257.763 172.634 260.623 172.634C263.484 172.634 274.174 231.331 273.414 232.05Z" fill="#6DB023"/>
<path d="M273.594 217.134C271.412 217.952 263.337 221.221 261.596 222.218C261.596 221.85 261.596 221.482 261.596 221.114C263.541 219.97 265.503 218.834 267.456 217.698C269.62 216.558 271.723 215.306 273.757 213.947C273.855 213.873 273.798 213.677 273.667 213.734C271.539 214.732 269.481 215.87 267.505 217.143C265.516 218.309 263.547 219.499 261.596 220.714C261.596 217.903 261.596 215.091 261.555 212.288C264.742 210.967 267.821 209.401 270.766 207.605C270.864 207.548 270.766 207.36 270.684 207.409C267.533 208.675 264.481 210.178 261.555 211.904C261.555 210.441 261.555 208.986 261.555 207.523C261.474 199.996 261.465 192.461 261.269 184.934C263.182 183.961 265.159 183.111 267.072 182.139C267.194 182.073 267.072 181.861 266.974 181.91C265.029 182.67 263.165 183.544 261.253 184.362C261.155 180.482 260.994 176.603 260.771 172.724C260.764 172.701 260.751 172.682 260.732 172.668C260.714 172.654 260.692 172.646 260.669 172.646C260.645 172.646 260.623 172.654 260.605 172.668C260.586 172.682 260.573 172.701 260.566 172.724C260.297 179.932 260.321 187.148 260.411 194.365C258.425 192.78 256.325 191.382 254.29 189.845C254.216 189.788 254.134 189.919 254.216 189.976C256.325 191.611 258.303 193.36 260.419 194.962C260.419 195.37 260.419 195.779 260.419 196.188C258.262 195.207 256.08 194.291 253.881 193.36C253.718 193.286 253.562 193.531 253.734 193.613C255.949 194.676 258.155 195.754 260.403 196.76C260.452 200.334 260.504 203.908 260.558 207.482C260.64 213.718 260.779 219.962 260.91 226.206C256.845 224.147 252.759 222.147 248.65 220.207C248.62 220.199 248.588 220.201 248.559 220.213C248.53 220.225 248.506 220.246 248.491 220.274C248.476 220.301 248.47 220.333 248.476 220.364C248.481 220.395 248.496 220.423 248.52 220.444C252.542 222.747 256.686 224.828 260.934 226.68C261.049 231.87 261.155 237.051 261.22 242.208C261.22 242.273 261.246 242.336 261.292 242.382C261.338 242.428 261.4 242.454 261.465 242.454C261.53 242.454 261.593 242.428 261.639 242.382C261.685 242.336 261.711 242.273 261.711 242.208C261.637 235.597 261.629 228.977 261.612 222.365C263.754 221.834 271.845 218.368 273.765 217.42C273.945 217.396 273.806 217.053 273.594 217.134Z" fill="#42A023"/>
<path d="M28.2227 233.561C27.5689 234.215 20.0009 234.501 17.2467 234.501C14.4925 234.501 6.91631 234.215 6.26249 233.561C5.60867 232.907 14.7867 182.571 17.2467 182.571C19.7067 182.571 28.9174 232.916 28.2227 233.561Z" fill="#6DB023"/>
<path d="M28.378 220.737C26.5064 221.448 19.5678 224.268 18.0722 225.093V224.145L23.0984 221.211C24.9578 220.238 26.7638 219.165 28.5088 217.999C28.5905 217.942 28.5088 217.77 28.4352 217.819C26.6048 218.672 24.8353 219.649 23.1393 220.745C21.4312 221.742 19.7476 222.772 18.0722 223.81C18.0722 221.399 18.0722 218.98 18.0722 216.569C20.8068 215.439 23.4491 214.097 25.9752 212.556C26.0569 212.507 25.9752 212.344 25.9017 212.384C23.1962 213.47 20.5786 214.762 18.0722 216.25C18.0722 214.992 18.0722 213.741 18.0722 212.483C18.0068 206.026 17.9904 199.561 17.827 193.097C19.4615 192.279 21.1615 191.536 22.8042 190.702C22.9186 190.645 22.8042 190.457 22.7225 190.506C21.0879 191.152 19.4534 191.928 17.8188 192.647C17.7289 189.313 17.5981 185.978 17.3938 182.652C17.3881 182.634 17.3767 182.618 17.3613 182.606C17.3458 182.595 17.3272 182.589 17.308 182.589C17.2888 182.589 17.2702 182.595 17.2547 182.606C17.2393 182.618 17.2279 182.634 17.2222 182.652C16.9933 188.839 17.0097 195.034 17.0914 201.229C15.3915 199.872 13.569 198.671 11.8363 197.347C11.771 197.298 11.7056 197.412 11.771 197.461C13.5853 198.842 15.2771 200.371 17.0996 201.744C17.0996 202.095 17.0996 202.438 17.0996 202.79C15.2526 201.972 13.381 201.155 11.5176 200.338C11.3705 200.272 11.2397 200.485 11.3868 200.558C13.2911 201.466 15.1872 202.397 17.1078 203.255C17.1568 206.328 17.2031 209.396 17.2467 212.458C17.3121 217.811 17.4347 223.173 17.5491 228.526C14.0566 226.76 10.545 225.047 7.01441 223.385C6.88364 223.32 6.76105 223.508 6.89999 223.581C10.3414 225.56 13.8882 227.35 17.5246 228.943C17.6145 233.388 17.7126 237.834 17.7698 242.289C17.7794 242.337 17.8054 242.38 17.8434 242.411C17.8814 242.443 17.929 242.46 17.9782 242.46C18.0273 242.46 18.075 242.443 18.113 242.411C18.151 242.38 18.177 242.337 18.1866 242.289C18.1212 236.617 18.113 230.937 18.0967 225.265C21.6477 224.035 25.1315 222.62 28.5333 221.023C28.6722 220.958 28.5578 220.663 28.378 220.737Z" fill="#42A023"/>
<path d="M236.865 234.974C237.413 235.522 243.787 235.792 246.109 235.792C248.43 235.792 254.804 235.546 255.352 234.974C255.899 234.402 248.176 192.002 246.109 192.002C244.041 192.002 236.318 234.427 236.865 234.974Z" fill="#42A023"/>
<path d="M236.734 224.17C238.312 224.775 244.147 227.153 245.406 227.848C245.406 227.578 245.406 227.317 245.406 227.031L241.172 224.579C239.605 223.758 238.083 222.855 236.612 221.874C236.546 221.816 236.612 221.677 236.677 221.718C238.218 222.434 239.709 223.253 241.14 224.17C242.57 224.987 243.992 225.878 245.406 226.753C245.406 224.726 245.406 222.666 245.406 220.656C243.104 219.705 240.88 218.577 238.753 217.281C238.68 217.232 238.753 217.101 238.81 217.133C241.088 218.056 243.293 219.149 245.406 220.403V217.232C245.463 211.797 245.479 206.345 245.618 200.886C244.229 200.183 242.807 199.57 241.417 198.867C241.328 198.818 241.417 198.663 241.491 198.704C242.897 199.251 244.245 199.897 245.626 200.502C245.7 197.699 245.806 194.895 245.978 192.092C245.978 192.073 245.986 192.054 245.999 192.04C246.013 192.026 246.032 192.019 246.051 192.019C246.071 192.019 246.09 192.026 246.103 192.04C246.117 192.054 246.125 192.073 246.125 192.092C246.313 197.298 246.305 202.512 246.239 207.735C247.67 206.591 249.198 205.577 250.661 204.466C250.71 204.466 250.767 204.515 250.71 204.556C249.19 205.716 247.76 207.007 246.231 208.168C246.231 208.462 246.231 208.756 246.231 209.051C247.792 208.34 249.37 207.678 250.939 206.999C251.061 206.95 251.168 207.13 251.045 207.187C249.41 207.955 247.849 208.74 246.231 209.459C246.193 212.042 246.155 214.624 246.117 217.207C246.06 221.718 245.953 226.197 245.863 230.741C248.795 229.254 251.751 227.81 254.731 226.41C254.754 226.397 254.781 226.393 254.806 226.4C254.831 226.407 254.853 226.424 254.866 226.446C254.879 226.469 254.882 226.496 254.875 226.521C254.868 226.547 254.852 226.568 254.829 226.581C251.917 228.245 248.915 229.748 245.839 231.084C245.757 234.838 245.689 238.587 245.635 242.33C245.635 242.378 245.616 242.424 245.582 242.457C245.548 242.491 245.502 242.51 245.455 242.51C245.407 242.51 245.361 242.491 245.328 242.457C245.294 242.424 245.275 242.378 245.275 242.33C245.332 237.549 245.34 232.768 245.349 227.987C242.36 226.958 239.429 225.765 236.571 224.415C236.506 224.366 236.579 224.113 236.734 224.17Z" fill="#6DB023"/>
<path d="M25.3704 234.974C25.918 235.522 32.3009 235.792 34.622 235.792C36.9431 235.792 43.3178 235.546 43.8654 234.974C44.413 234.402 36.6897 192.002 34.6383 192.002C32.587 192.002 24.831 234.427 25.3704 234.974Z" fill="#42A023"/>
<path d="M25.2477 224.171C26.825 224.775 32.6604 227.154 33.919 227.848C33.919 227.579 33.919 227.317 33.919 227.031L29.6855 224.579C28.1185 223.759 26.5963 222.856 25.1251 221.874C25.0597 221.817 25.1251 221.678 25.1905 221.719C26.7298 222.433 28.2181 223.252 29.6446 224.171C31.083 224.988 32.5051 225.879 33.919 226.753C33.919 224.726 33.919 222.694 33.919 220.656C31.6222 219.709 29.4033 218.583 27.2827 217.289C27.2091 217.24 27.2827 217.109 27.3399 217.142C29.6174 218.064 31.8221 219.157 33.9353 220.411C33.9353 219.357 33.9353 218.303 33.9353 217.24C33.9925 211.805 34.0007 206.354 34.1396 200.895C32.7585 200.192 31.3282 199.579 29.947 198.876C29.8571 198.827 29.947 198.672 30.0206 198.712C31.4263 199.26 32.7748 199.906 34.156 200.51C34.2296 197.707 34.3358 194.904 34.5074 192.101C34.5036 192.09 34.5024 192.078 34.5041 192.066C34.5057 192.054 34.5101 192.043 34.5169 192.034C34.5237 192.024 34.5327 192.017 34.5432 192.011C34.5536 192.006 34.5652 192.003 34.5769 192.003C34.5886 192.003 34.6002 192.006 34.6106 192.011C34.6211 192.017 34.63 192.024 34.6368 192.034C34.6436 192.043 34.6481 192.054 34.6497 192.066C34.6514 192.078 34.6502 192.09 34.6464 192.101C34.8425 197.307 34.8262 202.521 34.7608 207.743C36.1992 206.599 37.7275 205.586 39.1822 204.474C39.2395 204.474 39.2967 204.523 39.2395 204.564C37.7111 205.725 36.2891 207.016 34.7608 208.176C34.7608 208.471 34.7608 208.765 34.7608 209.059C36.3136 208.348 37.891 207.686 39.4683 207.008C39.5909 206.959 39.6971 207.139 39.5745 207.196C37.94 207.964 36.379 208.749 34.7526 209.468C34.7199 212.05 34.6818 214.633 34.6382 217.216C34.581 221.727 34.4829 226.206 34.3848 230.75C37.3189 229.262 40.2856 227.816 43.2605 226.418C43.2832 226.405 43.3102 226.402 43.3355 226.409C43.3608 226.415 43.3823 226.432 43.3953 226.455C43.4083 226.478 43.4117 226.505 43.4048 226.53C43.3979 226.555 43.3813 226.577 43.3585 226.59C40.4462 228.254 37.445 229.757 34.3685 231.093C34.2868 234.844 34.205 238.587 34.156 242.339C34.1473 242.379 34.1251 242.415 34.0931 242.441C34.0612 242.466 34.0213 242.48 33.9803 242.48C33.9392 242.48 33.8994 242.466 33.8674 242.441C33.8355 242.415 33.8133 242.379 33.8046 242.339C33.8536 237.558 33.8618 232.777 33.8781 227.995C30.8865 226.966 27.9536 225.774 25.0924 224.424C24.9943 224.367 25.0924 224.113 25.2477 224.171Z" fill="#6DB023"/>
<path d="M171.744 232.867C171.042 233.561 162.902 233.872 159.935 233.872C156.968 233.872 148.828 233.561 148.133 232.867C147.439 232.172 157.295 178.027 159.935 178.027C162.575 178.027 172.439 232.188 171.744 232.867Z" fill="#42A023"/>
<path d="M171.941 219.095C169.93 219.863 162.477 222.895 160.867 223.778C160.867 223.443 160.867 223.1 160.867 222.765C162.665 221.702 164.471 220.656 166.277 219.61C168.275 218.558 170.217 217.404 172.096 216.153C172.178 216.088 172.096 215.908 172.006 215.957C170.03 216.875 168.119 217.927 166.285 219.103C164.455 220.174 162.64 221.285 160.834 222.372C160.834 219.782 160.834 217.183 160.834 214.592C163.77 213.371 166.608 211.928 169.326 210.277C169.424 210.22 169.326 210.048 169.252 210.089C166.347 211.261 163.533 212.649 160.834 214.241C160.834 212.892 160.834 211.544 160.834 210.195C160.761 203.248 160.744 196.301 160.573 189.346C162.338 188.455 164.16 187.671 165.926 186.772C166.04 186.715 165.926 186.51 165.836 186.559C164.046 187.262 162.313 188.088 160.556 188.864C160.458 185.276 160.327 181.697 160.107 178.117C160.101 178.097 160.088 178.079 160.071 178.066C160.054 178.054 160.034 178.047 160.013 178.047C159.992 178.047 159.971 178.054 159.954 178.066C159.937 178.079 159.925 178.097 159.919 178.117C159.674 184.77 159.69 191.43 159.78 198.091C157.949 196.628 155.996 195.337 154.132 193.923C154.059 193.866 153.985 193.988 154.059 194.046C156.004 195.525 157.827 197.168 159.78 198.647C159.78 199.023 159.78 199.399 159.78 199.775C157.794 198.868 155.783 198.026 153.773 197.159C153.618 197.094 153.479 197.323 153.634 197.396C155.685 198.377 157.72 199.374 159.788 200.298C159.837 203.567 159.894 206.901 159.935 210.195C160.009 215.916 160.139 221.719 160.262 227.472C156.513 225.576 152.738 223.732 148.935 221.939C148.787 221.874 148.665 222.078 148.804 222.16C152.513 224.282 156.332 226.206 160.246 227.922C160.344 232.703 160.442 237.492 160.507 242.273C160.517 242.325 160.545 242.373 160.586 242.406C160.627 242.44 160.679 242.459 160.732 242.459C160.785 242.459 160.837 242.44 160.878 242.406C160.919 242.373 160.947 242.325 160.957 242.273C160.891 236.168 160.883 230.063 160.867 223.966C162.845 223.476 170.306 220.28 172.08 219.406C172.227 219.332 172.104 219.022 171.941 219.095Z" fill="#6DB023"/>
<path d="M342.163 232.867C341.46 233.561 333.32 233.872 330.353 233.872C327.387 233.872 319.246 233.561 318.552 232.867C317.857 232.172 327.713 178.027 330.353 178.027C332.993 178.027 342.858 232.188 342.163 232.867Z" fill="#42A023"/>
<path d="M342.327 219.095C340.308 219.864 332.854 222.896 331.244 223.778V222.765C333.042 221.703 334.848 220.656 336.647 219.61C338.645 218.56 340.587 217.406 342.466 216.153C342.555 216.088 342.506 215.908 342.384 215.957C340.408 216.876 338.497 217.927 336.663 219.104C334.824 220.174 333.018 221.286 331.212 222.373C331.212 219.782 331.212 217.183 331.212 214.592C334.147 213.371 336.986 211.928 339.703 210.277C339.793 210.22 339.703 210.048 339.63 210.089C336.721 211.261 333.905 212.649 331.203 214.241C331.203 212.892 331.203 211.544 331.203 210.195C331.13 203.249 331.114 196.302 330.934 189.347C332.707 188.456 334.522 187.671 336.295 186.772C336.41 186.715 336.295 186.511 336.205 186.56C334.407 187.263 332.683 188.088 330.926 188.864C330.827 185.277 330.689 181.697 330.468 178.117C330.468 178.093 330.458 178.071 330.442 178.054C330.425 178.037 330.402 178.027 330.378 178.027C330.354 178.027 330.331 178.037 330.314 178.054C330.298 178.071 330.288 178.093 330.288 178.117C330.043 184.77 330.059 191.431 330.141 198.091C328.31 196.629 326.357 195.337 324.494 193.923C324.428 193.866 324.355 193.989 324.428 194.046C326.373 195.525 328.196 197.168 330.149 198.647C330.149 199.023 330.149 199.399 330.149 199.775C328.163 198.868 326.145 198.026 324.142 197.16C323.987 197.094 323.848 197.323 324.003 197.397C326.046 198.378 328.09 199.375 330.157 200.298L330.304 210.195C330.378 215.916 330.501 221.719 330.623 227.473C326.88 225.576 323.096 223.729 319.304 221.94C319.157 221.874 319.026 222.079 319.173 222.16C322.881 224.284 326.701 226.208 330.615 227.922C330.713 232.703 330.811 237.492 330.877 242.273C330.887 242.326 330.914 242.373 330.955 242.407C330.996 242.441 331.048 242.459 331.101 242.459C331.155 242.459 331.206 242.441 331.247 242.407C331.288 242.373 331.316 242.326 331.326 242.273C331.261 236.168 331.244 230.063 331.228 223.966C333.206 223.476 340.676 220.281 342.449 219.406C342.645 219.332 342.515 219.022 342.327 219.095Z" fill="#6DB023"/>
<path d="M133.708 235.784C134.199 236.274 139.895 236.495 141.963 236.495C144.031 236.495 149.727 236.274 150.217 235.784C150.708 235.294 143.81 197.462 141.963 197.462C140.116 197.462 133.226 235.318 133.708 235.784Z" fill="#6DB023"/>
<path d="M133.594 226.148C135.008 226.679 140.214 228.804 141.342 229.417V228.706C140.083 227.962 138.825 227.235 137.566 226.499C136.16 225.758 134.796 224.939 133.48 224.048C133.423 224.007 133.48 223.876 133.537 223.909C134.911 224.553 136.24 225.287 137.517 226.107C138.8 226.859 140.067 227.635 141.326 228.412V222.977C139.272 222.123 137.286 221.115 135.384 219.961C135.327 219.92 135.384 219.798 135.441 219.83C137.473 220.649 139.44 221.619 141.326 222.732C141.326 221.792 141.326 220.844 141.326 219.904C141.375 215.049 141.383 210.187 141.505 205.332C140.271 204.711 138.996 204.163 137.762 203.534C137.689 203.493 137.762 203.354 137.828 203.387C139.078 203.877 140.28 204.458 141.514 205.021C141.587 202.512 141.677 200.012 141.832 197.511C141.832 197.493 141.839 197.477 141.851 197.464C141.864 197.452 141.88 197.445 141.898 197.445C141.915 197.445 141.932 197.452 141.944 197.464C141.956 197.477 141.963 197.493 141.963 197.511C142.135 202.161 142.118 206.811 142.061 211.47C143.344 210.448 144.709 209.541 146.009 208.552C146.058 208.552 146.107 208.601 146.058 208.642C144.693 209.672 143.426 210.824 142.061 211.854C142.061 212.115 142.061 212.385 142.061 212.671C143.451 212.034 144.856 211.445 146.262 210.84C146.368 210.8 146.466 210.955 146.36 211.004C144.93 211.69 143.508 212.393 142.061 213.039C142.061 215.344 141.988 217.648 141.955 219.953C141.906 223.982 141.816 228.003 141.726 232.024C144.352 230.7 146.992 229.412 149.646 228.159C149.744 228.118 149.833 228.257 149.735 228.314C147.141 229.799 144.467 231.141 141.726 232.335C141.653 235.686 141.579 239.028 141.538 242.371C141.538 242.412 141.522 242.452 141.493 242.481C141.464 242.51 141.424 242.526 141.383 242.526C141.342 242.526 141.302 242.51 141.273 242.481C141.244 242.452 141.228 242.412 141.228 242.371C141.268 238.105 141.277 233.839 141.293 229.572C138.621 228.654 136.002 227.59 133.447 226.385C133.374 226.328 133.463 226.091 133.594 226.148Z" fill="#42A023"/>
<path d="M296.298 235.784C296.788 236.274 302.476 236.495 304.544 236.495C306.612 236.495 312.308 236.274 312.798 235.784C313.289 235.294 306.391 197.462 304.544 197.462C302.697 197.462 295.807 235.318 296.298 235.784Z" fill="#6DB023"/>
<path d="M296.167 226.148C297.573 226.679 302.779 228.804 303.906 229.417V228.706C302.656 227.962 301.389 227.235 300.131 226.499C298.725 225.758 297.36 224.939 296.044 224.047C295.979 224.007 296.044 223.876 296.101 223.909C297.474 224.551 298.801 225.285 300.073 226.107C301.357 226.859 302.623 227.635 303.89 228.412C303.89 226.603 303.89 224.791 303.89 222.977C301.839 222.123 299.855 221.115 297.957 219.961C297.891 219.92 297.957 219.798 298.006 219.83C300.041 220.647 302.01 221.617 303.898 222.732C303.898 221.792 303.898 220.844 303.898 219.904C303.947 215.049 303.964 210.186 304.086 205.332C302.844 204.711 301.577 204.163 300.343 203.534C300.261 203.493 300.343 203.354 300.4 203.387C301.659 203.877 302.852 204.457 304.094 205.021C304.16 202.512 304.258 200.011 304.405 197.511C304.405 197.429 304.536 197.429 304.536 197.511C304.707 202.161 304.699 206.811 304.642 211.47C305.917 210.448 307.282 209.541 308.581 208.552C308.593 208.545 308.607 208.544 308.62 208.548C308.633 208.552 308.644 208.56 308.651 208.572C308.657 208.584 308.659 208.598 308.655 208.611C308.651 208.624 308.642 208.635 308.63 208.642C307.274 209.672 305.999 210.824 304.634 211.854C304.634 212.115 304.634 212.385 304.634 212.671C306.015 212.034 307.429 211.445 308.826 210.84C308.941 210.799 309.039 210.955 308.925 211.004C307.494 211.69 306.072 212.393 304.626 213.039C304.626 215.343 304.552 217.648 304.528 219.953C304.47 223.982 304.381 228.003 304.299 232.024C306.914 230.7 309.551 229.412 312.21 228.158C312.316 228.118 312.398 228.256 312.3 228.314C309.706 229.8 307.032 231.142 304.291 232.335C304.22 235.686 304.16 239.031 304.111 242.371C304.103 242.407 304.082 242.439 304.053 242.462C304.024 242.485 303.988 242.498 303.951 242.498C303.914 242.498 303.878 242.485 303.849 242.462C303.821 242.439 303.8 242.407 303.792 242.371C303.841 238.105 303.849 233.838 303.857 229.572C301.188 228.656 298.571 227.591 296.02 226.385C295.954 226.328 296.044 226.091 296.167 226.148Z" fill="#42A023"/>
<path d="M0.541504 242.427L44.0043 242.231L87.467 242.157L174.393 242.019L261.318 242.157L304.781 242.231L348.235 242.427L304.781 242.632L261.318 242.705L174.393 242.836L87.467 242.697L44.0043 242.632L0.541504 242.427Z" fill="#263238"/>
</svg>
