<svg width="1000" height="1000" viewBox="0 0 1000 1000" fill="none" xmlns="http://www.w3.org/2000/svg">
<path d="M675.248 905.834L685.894 925.557C685.894 925.557 722.758 875.837 718.579 803.999C715.146 744.457 668.487 708.179 648.578 679.912C626.539 648.77 630.478 605.226 640.433 572.567C650.388 539.908 669.605 474.565 664.601 436.316H659.011C659.011 436.316 663.936 464.024 641.205 541.452C618.474 618.88 624.862 662.957 642.616 685.688C660.369 708.418 695.077 744.244 702.29 769.078C709.37 793.352 724.329 817.893 710.834 856.247C697.339 894.602 674.289 910.465 674.289 910.465" fill="#455A64"/>
<path d="M828.855 243.414C764.038 266.152 722.051 312.977 696.085 354.826C682.349 376.964 673.045 397.788 667.17 413.085C664.232 420.737 662.148 427.016 660.794 431.398C660.773 431.467 660.752 431.536 660.731 431.604C597.781 380.844 530.255 361.139 478.03 354.198C451.177 350.629 428.338 350.43 412.189 351.126C405.795 351.401 400.447 351.817 396.309 352.221L550.1 120.645L828.855 243.414Z" fill="#FF6F6C" stroke="#363A5A" stroke-width="9"/>
<path d="M552.461 126.999L492 218.036C492 218.036 543.463 209.447 596.382 247.104C596.382 247.104 606.799 197.273 659.398 174.097L552.461 126.999Z" fill="white"/>
<path d="M761.487 208.798C761.162 208.959 760.823 209.092 760.476 209.197L757.521 210.209L752.704 211.806C750.841 212.498 748.711 213.403 746.289 214.467C732.665 220.132 719.991 227.851 708.707 237.358C691.968 251.589 677.829 268.62 666.918 287.69C660.344 298.911 654.623 310.611 649.804 322.69C644.545 335.63 640.369 348.984 637.321 362.615L637.055 363.813L636.15 362.961L630.001 357.239C608.976 338.681 584.578 324.34 558.136 314.998C536.602 307.2 514.294 301.73 491.595 298.682C476.325 296.537 460.939 295.32 445.521 295.036C440.198 295.036 435.833 295.036 432.958 295.036H429.684C429.312 295.071 428.938 295.071 428.566 295.036C428.938 294.997 429.313 294.997 429.684 295.036L432.958 294.823C435.833 294.663 440.065 294.53 445.548 294.53C460.994 294.595 476.42 295.662 491.728 297.724C514.488 300.634 536.869 305.988 558.482 313.694C585.099 323.023 609.65 337.432 630.773 356.121L636.895 361.87L635.724 362.243C641.748 335.732 651.821 310.308 665.588 286.864C676.606 267.662 690.912 250.544 707.855 236.293C719.259 226.811 732.074 219.168 745.837 213.642C748.285 212.71 750.441 211.859 752.331 211.193L757.202 209.703L760.21 208.824L761.487 208.798Z" fill="white"/>
<path d="M413.315 339.938C412.996 339.725 442.38 294.024 478.952 237.863C515.523 181.702 545.493 136.294 545.76 136.507C546.026 136.72 516.694 182.42 480.123 238.608C443.552 294.796 413.634 340.151 413.315 339.938Z" fill="#263238"/>
<path d="M806.549 238.236C806.389 238.582 749.909 213.482 680.359 182.181C610.81 150.88 554.569 125.195 554.729 124.902C554.889 124.609 611.369 149.602 680.945 180.797C750.521 211.992 806.709 237.89 806.549 238.236Z" fill="#263238"/>
<path d="M646.157 390.056C645.891 390.349 628.75 375.284 607.856 356.413C586.962 337.542 570.22 321.998 570.46 321.811C570.699 321.625 587.867 336.584 608.788 355.455C629.708 374.326 646.397 389.764 646.157 390.056Z" fill="#263238"/>
<path d="M858.08 787.656C858.08 787.656 858.346 787.284 858.958 786.592C859.819 785.587 860.628 784.539 861.38 783.451C864.286 779.251 866.339 774.521 867.422 769.53C869.206 761.598 868.866 753.335 866.437 745.575C863.17 735.387 857.532 726.12 849.988 718.533C835.896 703.908 817.243 694.52 797.101 691.916C789.505 691.037 781.833 691.037 774.237 691.916C758.613 693.38 742.457 697.639 725.13 697.878C707.199 697.916 689.698 692.388 675.043 682.057C660.387 671.726 649.3 657.101 643.31 640.2C638.303 624.312 636.93 607.502 639.291 591.012C641.323 576.192 644.401 561.534 648.5 547.148C652.094 533.6 655.66 521.037 658.269 509.432C660.753 499.016 662.452 488.429 663.352 477.759C664.009 469.696 663.813 461.586 662.767 453.564C662.093 448.502 661.025 443.501 659.573 438.606C659.067 436.982 658.641 435.731 658.375 434.799C658.109 433.868 658.002 433.495 658.002 433.495C658.002 433.495 658.189 433.921 658.508 434.773L659.839 438.526C661.409 443.408 662.575 448.411 663.326 453.484C664.442 461.543 664.709 469.697 664.124 477.812C663.313 488.568 661.676 499.247 659.227 509.752C656.565 521.41 653.158 534 649.591 547.547C645.58 561.901 642.557 576.512 640.542 591.279C638.263 607.57 639.645 624.164 644.588 639.854C650.498 656.513 661.427 670.93 675.87 681.121C690.313 691.312 707.56 696.776 725.236 696.76C742.324 696.547 758.507 692.342 774.264 690.878C781.954 690.043 789.714 690.087 797.394 691.011C817.773 693.719 836.622 703.285 850.84 718.134C858.434 725.873 864.081 735.306 867.316 745.655C869.695 753.503 869.961 761.839 868.088 769.823C866.924 774.855 864.771 779.605 861.753 783.797C860.661 785.203 859.43 786.496 858.08 787.656Z" fill="#263238"/>
<path d="M554.728 124.901C554.728 124.901 554.888 125.726 555.154 127.35C555.42 128.974 555.793 131.369 556.298 134.483C557.283 140.791 558.694 150.054 560.424 162.032C563.778 185.987 568.915 220.588 571.071 263.893C572.242 287.472 571.931 311.101 570.139 334.641C567.954 361.651 564.078 388.497 558.534 415.023C557.789 418.572 557.044 422.121 556.298 425.669C555.899 427.453 555.58 429.236 555.127 430.993C554.675 432.749 554.089 434.533 553.53 436.316C551.188 443.29 548.553 450.21 545.865 457.21L537.56 478.317C536.123 481.857 534.686 485.397 533.248 488.964L531.066 494.287L529.948 496.949L528.67 499.61C522.017 514.008 514.173 527.826 505.221 540.919C496.071 554.502 485.019 566.702 472.403 577.145L467.638 580.898L462.555 584.411L460.026 586.168L457.364 587.765L452.041 590.906C444.882 594.789 437.402 598.048 429.683 600.647C414.576 605.588 398.892 608.549 383.024 609.457C375.294 609.91 367.544 609.91 359.814 609.457C352.247 608.993 344.711 608.105 337.243 606.796C322.731 604.338 308.476 600.551 294.657 595.484C287.932 593.053 281.366 590.391 274.96 587.499C268.6 584.833 262.436 581.72 256.515 578.183C244.83 571.236 234.077 563.677 223.164 557.182C212.757 550.75 201.682 545.466 190.133 541.425C179.462 537.777 168.318 535.697 157.049 535.25C137.622 534.293 118.203 537.271 99.956 544.007C86.1952 549.112 73.2211 556.128 61.4152 564.848C53.9365 570.33 46.9376 576.438 40.4944 583.107C38.2586 585.369 36.6883 587.206 35.597 588.43L34 590.293C34 590.293 34.4525 589.601 35.4905 588.324C36.5286 587.046 38.1522 585.21 40.2815 583C46.662 576.242 53.6271 570.061 61.0957 564.528C72.8936 555.683 85.8881 548.559 99.6899 543.368C118.028 536.54 137.554 533.48 157.102 534.372C168.466 534.798 179.709 536.869 190.479 540.52C202.11 544.558 213.266 549.85 223.75 556.304C234.716 562.798 245.522 570.358 257.127 577.225C263.004 580.751 269.134 583.838 275.466 586.461C281.828 589.282 288.375 591.784 295.083 594.259C308.812 599.267 322.968 603.018 337.376 605.465C344.802 606.759 352.292 607.648 359.814 608.127C367.485 608.534 375.173 608.49 382.838 607.993C398.599 607.083 414.176 604.131 429.177 599.21C436.814 596.663 444.207 593.438 451.269 589.575L456.592 586.461L459.254 584.917L461.783 583.16L466.813 579.673L471.631 575.841C484.103 565.535 495.045 553.508 504.13 540.121C513.032 527.081 520.84 513.326 527.473 498.998L528.724 496.337L529.841 493.675L532.024 488.352C533.461 484.758 534.899 481.218 536.336 477.705C539.122 470.607 541.899 463.58 544.667 456.625C547.329 449.651 549.99 442.731 552.333 435.81C552.892 434.08 553.477 432.35 553.903 430.62C554.329 428.89 554.675 427.08 555.074 425.297C555.819 421.748 556.565 418.199 557.31 414.65C562.884 388.189 566.796 361.404 569.021 334.454C570.856 310.962 571.23 287.379 570.139 263.84C568.063 220.721 563.086 186.12 559.892 162.165C558.215 150.214 556.911 140.871 556.032 134.59C555.58 131.449 555.26 129.054 555.021 127.403C554.781 125.753 554.728 124.901 554.728 124.901Z" fill="#263238"/>
</svg>
