<svg width="325" height="302" viewBox="0 0 325 302" fill="none" xmlns="http://www.w3.org/2000/svg">
<path d="M243.549 83.3427L249.296 84.65C238.521 75.9228 221.282 70.6218 207.499 69.7168L260.917 122.927C260.953 108.052 251.249 89.2685 243.549 83.3427Z" fill="#CB9A4B"/>
<path d="M192.773 184.508C192.773 184.508 192.285 193.127 189.347 199.075C186.409 205.022 181.446 214.798 178.76 216.091C176.073 217.384 165.055 217.858 162.706 218.677C162.318 218.777 161.96 218.97 161.662 219.238C161.364 219.507 161.135 219.843 160.994 220.218C160.853 220.593 160.804 220.997 160.852 221.395C160.9 221.793 161.043 222.174 161.269 222.505C161.751 223.223 164.437 223.338 164.437 223.338C164.378 223.857 164.455 224.382 164.66 224.862C164.866 225.341 165.192 225.76 165.608 226.075C167.044 227.009 183.479 221.543 187.006 221.464C190.532 221.385 195.754 225.4 197.162 224.696C198.57 223.992 198.714 221.564 197.299 220.12C195.884 218.677 190.762 216.529 190.762 212.55C190.762 208.57 196.882 201.775 198.283 197.667C199.619 193.788 202.592 184.508 204.532 184.687C204.754 184.709 192.773 184.508 192.773 184.508Z" fill="#AE7461"/>
<path d="M182.171 216.09C182.02 216.308 181.844 216.508 181.647 216.686C181.128 217.184 180.568 217.638 179.973 218.044C177.986 219.368 175.769 220.308 173.437 220.816C172.158 221.104 170.859 221.293 169.551 221.384C168.505 221.388 167.466 221.55 166.469 221.865C165.808 222.1 165.226 222.516 164.789 223.065C164.487 223.46 164.408 223.733 164.372 223.718C164.406 223.457 164.507 223.209 164.667 223C165.087 222.388 165.679 221.916 166.369 221.642C167.384 221.28 168.452 221.084 169.529 221.061C170.815 220.954 172.092 220.76 173.351 220.479C175.637 219.97 177.822 219.081 179.815 217.85C181.345 216.866 182.121 216.04 182.171 216.09Z" fill="#263238"/>
<path d="M165.256 223.741C164.171 224.415 163.334 225.423 162.871 226.614C162.792 226.822 162.763 227.131 162.979 227.196C163.077 227.217 163.179 227.201 163.266 227.152L164.293 226.75C164.89 226.513 165.672 226.678 166.211 226.334C167.942 225.235 166.369 223.59 165.256 223.733" fill="#263238"/>
<path d="M197.837 222.002C198.924 222.674 199.762 223.683 200.222 224.875C200.308 225.083 200.33 225.385 200.122 225.457C200.024 225.475 199.923 225.46 199.834 225.414L198.807 225.026C198.211 224.789 197.428 224.954 196.882 224.609C195.158 223.518 196.731 221.873 197.837 222.016" fill="#263238"/>
<path d="M160.838 219.996C159.751 220.67 158.912 221.678 158.447 222.87C158.368 223.078 158.346 223.38 158.554 223.451C158.652 223.47 158.753 223.454 158.842 223.408L159.869 222.999C160.465 222.769 161.248 222.927 161.794 222.589C163.518 221.49 161.945 219.846 160.838 219.989" fill="#263238"/>
<path d="M251.091 210.192C249.296 209.266 245.496 206.249 244.217 202.471C242.939 198.692 247.04 187.25 243.535 176.045L235.023 176.44C235.023 176.44 238.852 183.687 238.004 190.303C237.156 196.918 236.144 203.835 234.484 206.321C233.141 208.332 228.81 212.484 225.298 214.531C222.978 215.888 220.27 216.686 219.084 217.404C216.994 218.761 218.179 220.866 218.984 221.484C219.666 222.015 222.252 221.247 222.252 221.247C222.362 221.758 222.604 222.231 222.953 222.62C223.302 223.009 223.746 223.301 224.242 223.466C224.96 223.66 228.199 222.41 231.877 219.975C236.237 217.102 240.281 213.346 242.077 212.692C245.388 211.485 249.367 215.227 250.926 215.457C254.079 215.946 254.833 212.132 251.091 210.192Z" fill="#AE7461"/>
<path d="M236.697 208.333C236.626 208.584 236.524 208.825 236.395 209.051C236.066 209.681 235.676 210.278 235.231 210.833C233.734 212.639 231.893 214.131 229.815 215.221C228.694 215.844 227.538 216.402 226.353 216.895C225.382 217.232 224.469 217.716 223.645 218.331C223.113 218.767 222.709 219.337 222.475 219.984C222.324 220.443 222.338 220.702 222.302 220.702C222.241 220.443 222.254 220.172 222.338 219.919C222.527 219.216 222.922 218.585 223.473 218.109C224.295 217.441 225.222 216.914 226.217 216.55C227.294 216.076 228.458 215.523 229.636 214.869C231.671 213.791 233.498 212.358 235.03 210.639C236.179 209.324 236.625 208.297 236.697 208.333Z" fill="#263238"/>
<path d="M223.142 220.471C222.333 221.46 221.866 222.685 221.813 223.962C221.813 224.185 221.878 224.479 222.101 224.479C222.2 224.464 222.291 224.416 222.359 224.343L223.2 223.624C223.688 223.208 224.478 223.114 224.881 222.612C226.166 221.017 224.162 219.968 223.142 220.457" fill="#263238"/>
<path d="M253.389 212.743C254.431 213.484 255.204 214.542 255.594 215.76C255.659 215.975 255.666 216.284 255.451 216.342C255.351 216.352 255.25 216.329 255.163 216.277L254.165 215.81C253.59 215.537 252.793 215.652 252.276 215.271C250.617 214.072 252.276 212.527 253.389 212.743Z" fill="#263238"/>
<path d="M218.567 218.921C217.532 219.682 216.775 220.762 216.412 221.995C216.355 222.211 216.355 222.519 216.57 222.57C216.669 222.578 216.768 222.552 216.85 222.498L217.842 222.002C218.409 221.715 219.206 221.808 219.716 221.421C221.34 220.178 219.63 218.677 218.538 218.921" fill="#263238"/>
<path d="M78.1999 135.117C78.3382 134.366 78.2481 133.59 77.9413 132.891C77.9048 132.808 77.845 132.737 77.7691 132.687C77.6932 132.638 77.6045 132.612 77.5139 132.612C77.4233 132.612 77.3346 132.638 77.2587 132.687C77.1828 132.737 77.123 132.808 77.0865 132.891C75.1685 137.875 74.3477 143.214 74.6799 148.544C75.0121 153.874 76.4895 159.069 79.0115 163.777L85.5766 127.029C83.8516 127.789 82.3043 128.901 81.0339 130.294C79.7636 131.687 78.7983 133.33 78.1999 135.117Z" fill="#CB9A4B"/>
<path d="M179.708 172.253C180.074 174.899 181.015 177.432 182.465 179.675C183.914 181.919 185.836 183.818 188.097 185.24C190.41 186.553 193.015 187.268 195.675 187.318C198.334 187.368 200.964 186.752 203.325 185.527C206.576 183.777 209.01 180.821 210.106 177.295C210.515 175.859 210.494 174.329 211.542 173.151C212.837 171.847 214.336 170.765 215.981 169.947C216.265 171.547 216.352 173.175 216.24 174.796L220.047 168.145C220.111 169.064 220.183 169.983 220.255 170.896C221.322 169.135 222.034 167.183 222.352 165.149L222.661 165.02C226.712 170.436 237.307 176.9 243.528 174.25C243.377 170.659 244.928 165.063 244.928 165.063C257.714 152.421 262.167 131.641 258.576 114.065C254.984 96.4883 240.697 80.0468 223.99 73.417C210.86 68.2022 196.207 68.2956 182.207 70.1775C169.106 71.9445 155.947 75.3276 144.9 82.5823C137.458 87.4738 131.066 94.2832 127.237 102.371C125.721 105.582 125.413 110.43 123.114 113.145C120.693 115.968 115.213 117.276 111.837 118.109C106.665 119.373 102.327 120.695 97.2845 122.418L96.3076 122.749C92.2204 124.149 88.4739 126.394 85.3119 129.339C82.15 132.283 79.6434 135.86 77.9554 139.837C75.7015 145.093 74.9674 150.877 75.8365 156.53C76.7918 162.549 78.6091 168.245 78.8246 172.332C78.8548 173.104 79.1039 173.851 79.5429 174.487C79.6723 174.732 79.8639 174.938 80.0984 175.086C80.3329 175.233 80.6021 175.317 80.8789 175.327C82.3154 175.141 84.9372 174.609 84.9372 174.609L87.092 175.327C89.5558 176.204 106.421 178.43 112.232 165.638C117.075 169.308 122.43 172.246 128.128 174.358L143.061 179.853L155.078 182.992L152.6 179.637C156.365 181.316 160.519 181.932 164.609 181.418C163.704 180.427 162.804 179.431 161.909 178.43L162.002 178.287L162.103 178.136C166.096 179.285 176.849 175.809 179.715 172.253" fill="#CB9A4B"/>
<path d="M79.9091 174.746C79.9091 174.746 68.6104 205.955 66.9799 213.533C65.4643 220.558 62.7277 232.288 64.6742 232.733C65.6439 232.956 67.9783 225.916 69.81 220.429C71.6416 214.941 77.273 200.604 80.1461 194.714C83.0192 188.824 89.3402 175.694 89.3402 175.694L87.5516 172.49C84.9442 175.292 81.3815 175.392 79.9091 174.746Z" fill="#263238"/>
<path d="M87.0201 173.46C87.0016 173.512 86.9775 173.563 86.9483 173.611C86.8909 173.725 86.8118 173.862 86.7185 174.034L85.7919 175.636C85.3753 176.354 84.9012 177.188 84.3553 178.193L83.479 179.773C83.1773 180.348 82.8684 180.959 82.538 181.598C81.202 184.148 79.7583 187.251 78.2283 190.72C76.6984 194.189 75.1325 198.083 73.5954 202.213C72.0582 206.343 70.7222 210.301 69.6089 213.935C68.4955 217.57 67.5474 220.867 66.8507 223.653C66.4772 225.047 66.1683 226.311 65.9169 227.424C65.6655 228.538 65.4213 229.493 65.2561 230.298C65.0909 231.102 64.9544 231.662 64.8538 232.108L64.7389 232.575C64.7597 232.579 64.7782 232.591 64.7907 232.608C64.8032 232.625 64.8089 232.647 64.8067 232.668C64.8044 232.689 64.7944 232.709 64.7786 232.723C64.7628 232.737 64.7423 232.745 64.721 232.745C64.6997 232.745 64.6791 232.737 64.6633 232.723C64.6475 232.709 64.6375 232.689 64.6352 232.668C64.633 232.647 64.6387 232.625 64.6512 232.608C64.6637 232.591 64.6822 232.579 64.703 232.575C64.703 232.445 64.7461 232.287 64.782 232.101C64.861 231.648 64.9759 231.045 65.1124 230.276C65.2489 229.508 65.4644 228.516 65.7086 227.403C65.9528 226.29 66.2401 225.011 66.5921 223.61C67.2601 220.809 68.1867 217.505 69.2785 213.856C70.3703 210.207 71.7206 206.235 73.2434 202.105C74.7662 197.975 76.368 194.11 77.9123 190.612C79.4566 187.114 80.9578 184.04 82.3297 181.504L83.2922 179.687C83.6083 179.117 83.91 178.586 84.1973 178.093C84.7575 177.094 85.2532 176.239 85.6841 175.564L86.6754 173.991L86.9411 173.589C86.977 173.503 87.013 173.452 87.0201 173.46Z" fill="#455A64"/>
<path d="M236.043 138.896C236.066 139.037 236.081 139.178 236.086 139.32C236.086 139.593 236.15 140.003 236.15 140.527C236.172 142.044 236.05 143.559 235.784 145.052C234.873 150.212 232.413 154.972 228.73 158.7L228.307 159.123L228.422 158.534C228.845 156.38 229.291 154.124 229.75 151.783L230.095 151.919L229.801 152.336C227.603 155.434 225.061 158.272 222.223 160.797C219.666 163.16 217.295 165.214 215.449 167.082C213.963 168.527 212.623 170.115 211.448 171.823C211.01 172.412 210.73 172.922 210.543 173.259C210.446 173.431 210.338 173.596 210.22 173.755C210.289 173.57 210.375 173.392 210.479 173.223C210.729 172.714 211.012 172.223 211.326 171.751C212.461 170 213.778 168.375 215.255 166.902C217.094 164.999 219.443 162.923 221.993 160.553C224.794 158.039 227.311 155.225 229.499 152.163L229.786 151.754L230.296 151.036L230.124 151.905C229.664 154.246 229.212 156.516 228.788 158.657L228.479 158.491C230.512 156.458 232.185 154.095 233.428 151.502C234.428 149.452 235.153 147.278 235.583 145.038C235.861 143.559 236.017 142.06 236.05 140.556C236.05 140.031 236.05 139.622 236.05 139.349C236.027 139.199 236.025 139.047 236.043 138.896Z" fill="#263238"/>
<g opacity="0.3">
<path d="M236.043 138.896C236.26 142.519 235.71 146.147 234.427 149.543C233.145 152.938 231.16 156.024 228.602 158.599L229.938 151.847C224.026 160.819 214.315 165.717 210.214 173.748C212.204 171.269 214.689 169.233 217.512 167.772C220.682 165.999 223.561 163.749 226.045 161.099L227.05 163.857C227.05 163.857 233.702 157.586 235.21 153.083C236.719 148.579 236.043 138.896 236.043 138.896Z" fill="black"/>
</g>
<path d="M95.3451 154.325C95.0142 153.584 94.4728 152.957 93.7883 152.522C93.1038 152.086 92.3063 151.861 91.4951 151.876L91.0498 151.955C90.3529 152.121 89.7035 152.445 89.1518 152.902C88.6001 153.359 88.1608 153.937 87.8678 154.591C87.6251 155.179 87.5092 155.812 87.5278 156.448C87.5464 157.084 87.6989 157.71 87.9755 158.283C88.3093 159.035 88.8626 159.668 89.5629 160.1C90.36 160.562 91.3073 160.691 92.199 160.459C93.2094 160.246 94.1139 159.687 94.7561 158.879C95.1943 158.215 95.4752 157.459 95.5772 156.67C95.6793 155.881 95.5999 155.079 95.3451 154.325Z" fill="#263238"/>
<path d="M95.7327 154.102C95.3617 153.27 94.7468 152.571 93.9696 152.096C93.1923 151.622 92.2892 151.394 91.3799 151.444C90.433 151.559 89.5396 151.946 88.8075 152.557C88.0754 153.169 87.5359 153.979 87.2542 154.89C86.9724 155.802 86.9605 156.775 87.2197 157.693C87.4789 158.611 87.9983 159.434 88.7151 160.064C90.3456 161.5 92.7303 161.22 94.3824 159.949C96.0344 158.677 96.5372 155.969 95.7327 154.131C95.5029 153.599 94.7343 154.052 94.957 154.583C95.2075 155.304 95.273 156.077 95.1475 156.83C95.022 157.583 94.7095 158.292 94.2387 158.893C93.6708 159.519 92.9057 159.932 92.0706 160.062C91.2355 160.193 90.3808 160.034 89.6488 159.611C89.0082 159.146 88.5185 158.503 88.2405 157.762C87.9625 157.021 87.9086 156.214 88.0854 155.443C88.2622 154.671 88.662 153.968 89.235 153.422C89.808 152.876 90.5289 152.51 91.3081 152.371C92.8596 152.084 94.3536 153.204 94.9857 154.562C95.194 155.079 95.9698 154.633 95.7327 154.102Z" fill="white"/>
<g opacity="0.3">
<path d="M92.2137 153.261C91.6749 153.228 91.1353 153.313 90.6335 153.512C90.3719 153.597 90.132 153.738 89.9309 153.925C89.7298 154.113 89.5724 154.342 89.4698 154.597C89.2898 155.083 89.2697 155.614 89.4124 156.113C89.4623 156.372 89.5901 156.61 89.7787 156.795C89.8873 156.885 90.0202 156.942 90.1608 156.957C90.3013 156.973 90.4433 156.946 90.5688 156.881C90.6933 156.78 90.791 156.65 90.8536 156.502C90.9162 156.354 90.9417 156.193 90.928 156.034C90.9125 155.876 90.9307 155.717 90.9815 155.567C91.0323 155.417 91.1144 155.28 91.2225 155.164C91.5888 154.877 92.1347 155.064 92.5657 154.884C92.7406 154.806 92.8828 154.669 92.9679 154.498C93.0531 154.326 93.076 154.13 93.0325 153.943C92.9715 153.766 92.8629 153.608 92.7186 153.488C92.5742 153.367 92.3996 153.289 92.2137 153.261Z" fill="white"/>
</g>
<path d="M231.08 112.52C231.08 112.52 230.965 112.469 230.757 112.34L229.88 111.758C229.507 111.5 229.04 111.191 228.487 110.86C227.934 110.53 227.316 110.142 226.59 109.74C225.865 109.338 225.096 108.907 224.227 108.504C223.358 108.102 222.424 107.678 221.44 107.255C217.105 105.486 212.524 104.394 207.858 104.015C206.78 103.95 205.76 103.864 204.805 103.879C203.85 103.893 202.952 103.879 202.14 103.879C201.328 103.879 200.589 103.979 199.942 104.029C199.296 104.08 198.743 104.137 198.29 104.202L197.241 104.324C197.12 104.341 196.996 104.341 196.875 104.324C196.991 104.282 197.112 104.253 197.234 104.238L198.268 104.044C198.815 103.937 199.366 103.858 199.921 103.807C200.567 103.735 201.307 103.634 202.126 103.606C202.945 103.577 203.842 103.505 204.805 103.519C205.767 103.534 206.802 103.57 207.886 103.627C212.581 103.973 217.19 105.074 221.534 106.888C222.525 107.326 223.473 107.729 224.328 108.181C225.183 108.634 225.98 109.05 226.684 109.467C227.388 109.883 228.013 110.286 228.559 110.638C229.104 110.99 229.564 111.32 229.931 111.6L230.764 112.239C230.883 112.315 230.99 112.41 231.08 112.52Z" fill="#263238"/>
<path d="M227.337 116.93C227.083 116.795 226.843 116.636 226.619 116.456C226.174 116.133 225.513 115.68 224.687 115.134C222.533 113.721 220.271 112.482 217.921 111.428C215.569 110.381 213.135 109.528 210.644 108.878C209.689 108.627 208.913 108.44 208.367 108.318C208.082 108.274 207.802 108.197 207.534 108.088C207.824 108.087 208.113 108.116 208.396 108.174C208.949 108.253 209.739 108.397 210.709 108.619C215.777 109.792 220.572 111.931 224.831 114.919C225.642 115.493 226.267 115.982 226.705 116.355C226.94 116.519 227.152 116.712 227.337 116.93Z" fill="#263238"/>
<path d="M223.2 123.791C223.156 123.827 222.532 123.123 221.476 122.039C220.105 120.627 218.649 119.301 217.116 118.067C215.575 116.84 213.964 115.705 212.289 114.669C211.003 113.872 210.177 113.419 210.206 113.369C210.422 113.42 210.63 113.503 210.824 113.613C211.211 113.786 211.757 114.073 212.425 114.439C215.888 116.397 219.01 118.902 221.67 121.859C222.18 122.427 222.575 122.901 222.826 123.238C223.077 123.576 223.221 123.748 223.2 123.791Z" fill="#263238"/>
<path d="M147.019 94.2539C147.062 94.297 146.3 95.1159 145.23 96.5524C142.405 100.291 140.41 104.588 139.376 109.158C138.981 110.911 138.845 112.031 138.78 112.031C138.745 111.772 138.745 111.508 138.78 111.249C138.847 110.537 138.95 109.83 139.089 109.13C139.992 104.472 142.019 100.105 144.993 96.4088C145.444 95.8503 145.923 95.3156 146.43 94.807C146.603 94.5995 146.801 94.4138 147.019 94.2539Z" fill="#263238"/>
<path d="M155.796 94.8223C155.832 94.8797 154.761 95.4759 153.181 96.6467C151.132 98.1769 149.268 99.9415 147.629 101.905C146.739 102.993 145.924 104.14 145.187 105.338C144.591 106.321 144.063 107.343 143.606 108.398C142.838 110.201 142.565 111.393 142.493 111.379C142.509 111.091 142.562 110.806 142.651 110.531C142.719 110.2 142.808 109.874 142.917 109.554C143.039 109.181 143.168 108.75 143.362 108.297C143.787 107.212 144.299 106.162 144.892 105.158C145.619 103.934 146.438 102.767 147.342 101.668C148.257 100.577 149.246 99.5494 150.301 98.5933C151.163 97.8165 152.075 97.0967 153.03 96.4384C153.433 96.1439 153.813 95.9069 154.151 95.7201C154.489 95.5334 154.776 95.3394 155.02 95.2101C155.264 95.0537 155.524 94.9237 155.796 94.8223Z" fill="#263238"/>
<path d="M170.032 93.6367C169.661 93.8179 169.277 93.9716 168.883 94.0964C168.509 94.2185 168.057 94.3909 167.54 94.6136C167.023 94.8363 166.419 95.0589 165.787 95.3678C165.155 95.6767 164.437 95.9855 163.704 96.3806C162.971 96.7756 162.196 97.2066 161.384 97.6735C157.894 99.7437 154.684 102.252 151.831 105.136C150.667 106.315 149.576 107.562 148.563 108.872C148.117 109.425 147.744 109.949 147.435 110.416C147.126 110.883 146.832 111.271 146.63 111.615C146.414 111.973 146.174 112.317 145.912 112.643C146.071 112.26 146.258 111.891 146.472 111.536C146.659 111.184 146.918 110.768 147.227 110.301C147.535 109.834 147.887 109.281 148.318 108.714C149.31 107.368 150.392 106.091 151.558 104.892C152.989 103.433 154.512 102.068 156.119 100.805C157.737 99.5545 159.434 98.4077 161.197 97.3718C162.023 96.9121 162.799 96.4668 163.553 96.1076C164.307 95.7485 164.99 95.3893 165.672 95.1236C166.355 94.8578 166.929 94.6208 167.461 94.4053C167.909 94.2253 168.367 94.0695 168.833 93.9384C169.224 93.8064 169.625 93.7055 170.032 93.6367Z" fill="#263238"/>
<path d="M182.049 99.2456C181.935 99.2907 181.813 99.3174 181.69 99.3246L180.642 99.4827C180.189 99.5401 179.629 99.6263 178.989 99.7484C178.35 99.8705 177.618 99.9783 176.835 100.165C175.233 100.495 173.344 101.005 171.282 101.652C169.052 102.385 166.863 103.239 164.724 104.209C162.598 105.204 160.527 106.312 158.518 107.527C156.672 108.662 155.056 109.754 153.749 110.738C153.074 111.212 152.506 111.686 151.989 112.089C151.472 112.491 151.041 112.843 150.696 113.137L149.877 113.812C149.787 113.897 149.685 113.969 149.576 114.028C149.576 114.028 149.655 113.92 149.827 113.755C149.999 113.59 150.287 113.317 150.603 113.037C150.919 112.757 151.321 112.318 151.86 111.931C152.399 111.543 152.923 111.026 153.584 110.537C155.096 109.353 156.669 108.248 158.296 107.226C162.312 104.726 166.627 102.74 171.139 101.314C172.98 100.731 174.853 100.251 176.748 99.8777C177.553 99.7053 178.293 99.612 178.903 99.5114C179.514 99.4108 180.11 99.3462 180.57 99.3103L181.618 99.2241C181.762 99.2038 181.908 99.2111 182.049 99.2456Z" fill="#263238"/>
<path d="M171.074 109.914C171.074 109.978 169.982 110.115 168.201 110.424C165.91 110.815 163.654 111.392 161.456 112.147C160.256 112.575 159.083 113.077 157.944 113.649C157.015 114.124 156.116 114.654 155.25 115.236C153.771 116.234 152.944 116.981 152.901 116.931C153.059 116.72 153.243 116.53 153.447 116.364C153.97 115.882 154.521 115.434 155.099 115.021C155.951 114.399 156.847 113.84 157.779 113.347C158.927 112.747 160.115 112.226 161.334 111.788C163.549 111.022 165.835 110.478 168.158 110.165C169.048 110.043 169.774 109.964 170.27 109.935C170.536 109.898 170.806 109.891 171.074 109.914Z" fill="#263238"/>
<path d="M170.384 116.96C169.673 117.096 168.953 117.187 168.229 117.233C166.477 117.429 164.737 117.716 163.015 118.095C161.293 118.483 159.593 118.963 157.922 119.531C157.237 119.799 156.536 120.026 155.825 120.214C156.455 119.83 157.128 119.519 157.829 119.287C159.487 118.643 161.192 118.127 162.929 117.743C164.667 117.356 166.431 117.102 168.208 116.981C168.931 116.897 169.66 116.89 170.384 116.96Z" fill="#263238"/>
<path d="M163.532 123.811C162.779 124.048 161.994 124.166 161.205 124.163C160.424 124.287 159.629 124.287 158.849 124.163C159.602 123.927 160.387 123.809 161.176 123.811C161.956 123.688 162.751 123.688 163.532 123.811Z" fill="#263238"/>
<path d="M150.452 151.94C150.242 152.019 150.022 152.07 149.798 152.091C149.375 152.177 148.757 152.263 147.988 152.342C143.975 152.739 139.925 152.484 135.993 151.588C135.239 151.416 134.635 151.25 134.226 151.121C134.008 151.071 133.798 150.991 133.601 150.884C133.601 150.827 134.542 151.049 136.05 151.329C138.011 151.692 139.993 151.932 141.983 152.048C143.976 152.167 145.974 152.167 147.967 152.048C148.793 151.965 149.622 151.929 150.452 151.94Z" fill="#263238"/>
<path d="M81.8339 139.744C81.8985 139.744 81.525 140.664 81.1156 142.158C80.6027 144.108 80.342 146.117 80.3399 148.134C80.3532 150.153 80.6285 152.162 81.1587 154.11C81.5681 155.604 81.9416 156.495 81.877 156.523C81.7455 156.337 81.6392 156.134 81.5609 155.92C81.3037 155.355 81.0829 154.775 80.9001 154.182C79.6699 150.246 79.6549 146.03 80.857 142.086C81.0362 141.493 81.2521 140.913 81.5035 140.347C81.5817 140.13 81.6932 139.927 81.8339 139.744Z" fill="#263238"/>
<path d="M86.8838 137.625C86.9341 137.661 86.4312 138.473 85.7776 139.866C84.0784 143.511 83.2943 147.515 83.4935 151.531C83.5725 153.068 83.7305 154.009 83.6659 154.023C83.5789 153.814 83.5209 153.595 83.4935 153.37C83.3716 152.767 83.2853 152.158 83.2349 151.545C83.056 149.519 83.1648 147.478 83.5581 145.483C83.9487 143.485 84.6159 141.551 85.5406 139.737C85.8171 139.188 86.129 138.658 86.4743 138.149C86.5861 137.957 86.7239 137.78 86.8838 137.625Z" fill="#263238"/>
<path d="M148.498 135.771C148.233 135.942 147.949 136.08 147.651 136.181C147.09 136.418 146.279 136.734 145.252 137.1C139.913 138.969 134.336 140.067 128.688 140.361C127.61 140.412 126.734 140.433 126.124 140.419C125.809 140.437 125.493 140.42 125.183 140.369C125.492 140.304 125.807 140.272 126.124 140.275C126.727 140.239 127.596 140.182 128.673 140.096C134.288 139.661 139.833 138.571 145.194 136.849C146.221 136.519 147.047 136.238 147.622 136.044C147.905 135.928 148.199 135.837 148.498 135.771Z" fill="#263238"/>
<path d="M141.926 132.538C141.926 132.639 138.708 133.831 134.664 135.203C132.243 136.096 129.778 136.868 127.28 137.516C127.244 137.422 130.498 136.23 134.542 134.851C138.586 133.472 141.89 132.437 141.926 132.538Z" fill="#263238"/>
<path d="M148.24 141.395C147.974 141.497 147.696 141.567 147.414 141.603C146.882 141.718 146.099 141.854 145.137 141.998C142.625 142.38 140.096 142.634 137.559 142.76C134.585 142.903 131.884 142.867 129.938 142.76C128.961 142.709 128.178 142.652 127.632 142.594C127.351 142.582 127.072 142.541 126.799 142.472C127.08 142.435 127.365 142.435 127.646 142.472L129.945 142.515C131.891 142.551 134.578 142.515 137.537 142.4C140.497 142.285 143.176 141.984 145.101 141.754L147.392 141.474C147.671 141.418 147.955 141.392 148.24 141.395Z" fill="#263238"/>
<path d="M147.155 147.055C146.914 147.155 146.66 147.22 146.401 147.249C145.912 147.357 145.194 147.479 144.303 147.594C139.654 148.195 134.937 148.033 130.34 147.112C129.463 146.933 128.752 146.768 128.271 146.624C128.021 146.576 127.78 146.494 127.553 146.38C127.553 146.322 128.645 146.559 130.426 146.854C132.717 147.235 135.03 147.474 137.35 147.572C139.673 147.644 141.997 147.569 144.31 147.349C146.084 147.163 147.148 146.997 147.155 147.055Z" fill="#263238"/>
<path d="M147.924 154.827C146.728 155.406 145.398 155.654 144.074 155.545C142.744 155.551 141.436 155.207 140.281 154.547C141.534 154.846 142.806 155.055 144.088 155.172C145.374 155.156 146.656 155.041 147.924 154.827Z" fill="#263238"/>
<path d="M139.24 123.818C139.102 124.004 138.94 124.171 138.758 124.314C138.435 124.616 137.954 125.032 137.322 125.535C134.115 128.132 130.606 130.331 126.871 132.086C126.153 132.423 125.564 132.675 125.154 132.804C124.946 132.903 124.727 132.975 124.5 133.02C125.23 132.58 125.983 132.179 126.756 131.82C128.157 131.102 130.06 130.06 132.1 128.782C134.14 127.503 135.9 126.246 137.128 125.298C137.804 124.766 138.509 124.273 139.24 123.818Z" fill="#263238"/>
<path d="M132.437 123.984C132.138 124.423 131.783 124.821 131.381 125.169C130.472 126.059 129.513 126.896 128.508 127.676C127.495 128.458 126.435 129.178 125.333 129.831C124.89 130.135 124.406 130.376 123.897 130.549C123.839 130.455 125.901 129.191 128.257 127.374C130.613 125.557 132.38 123.897 132.437 123.984Z" fill="#263238"/>
<path d="M125.872 123.977C125.465 125.362 124.582 126.56 123.38 127.36C123.745 126.76 124.16 126.193 124.623 125.665C124.988 125.066 125.406 124.501 125.872 123.977Z" fill="#263238"/>
<path d="M114.976 155.352C113.877 155.824 112.671 155.992 111.485 155.84C110.288 155.81 109.122 155.449 108.116 154.799C109.235 155.088 110.369 155.311 111.514 155.467C112.669 155.496 113.825 155.457 114.976 155.352Z" fill="#263238"/>
<path d="M114.48 151.53C113.441 152.109 112.272 152.41 111.083 152.407C109.9 152.525 108.707 152.335 107.621 151.854C107.621 151.739 109.165 152.134 111.068 152.033C112.972 151.933 114.416 151.423 114.48 151.53Z" fill="#263238"/>
<path d="M110.889 146.207C109.489 148.07 107.584 149.493 105.401 150.309C105.351 150.208 106.709 149.483 108.217 148.355C109.725 147.227 110.774 146.128 110.889 146.207Z" fill="#263238"/>
<path d="M107.972 142.977C107.047 144.771 105.898 146.441 104.553 147.947C105.485 146.156 106.633 144.487 107.972 142.977Z" fill="#263238"/>
<path d="M105.538 140.203C105.262 141.544 104.741 142.823 104 143.974C104.078 143.292 104.28 142.63 104.597 142.02C104.801 141.364 105.119 140.749 105.538 140.203Z" fill="#263238"/>
<path d="M90.1876 137.279C89.4037 138.648 88.7588 140.092 88.2626 141.589C87.893 143.117 87.6788 144.679 87.6234 146.251C87.4807 145.801 87.4222 145.328 87.451 144.857C87.4362 143.718 87.5887 142.583 87.9035 141.488C88.218 140.392 88.6897 139.347 89.3042 138.385C89.5262 137.964 89.826 137.589 90.1876 137.279Z" fill="#263238"/>
<path d="M93.8725 137C93.9515 137.079 93.0034 138.113 92.2923 139.658C91.5812 141.202 91.38 142.581 91.2651 142.567C91.2242 141.498 91.4723 140.439 91.9834 139.5C92.3723 138.509 93.0258 137.645 93.8725 137Z" fill="#263238"/>
<path d="M142.932 91.043C142.982 91.1004 141.862 92.0198 140.324 93.7724C139.43 94.8036 138.604 95.893 137.853 97.0335C136.018 99.8308 134.672 102.921 133.874 106.17C133.544 107.496 133.304 108.842 133.156 110.2C132.926 112.513 133.019 113.971 132.94 113.971C132.875 113.635 132.844 113.293 132.847 112.951C132.847 112.627 132.811 112.232 132.847 111.758C132.883 111.284 132.847 110.76 132.919 110.171C133.019 108.797 133.228 107.432 133.544 106.091C133.94 104.448 134.471 102.841 135.131 101.286C135.815 99.7408 136.627 98.256 137.559 96.8467C138.327 95.6917 139.184 94.5989 140.123 93.5785C140.511 93.1332 140.906 92.774 141.237 92.4436C141.519 92.1619 141.816 91.8957 142.127 91.6463C142.375 91.4192 142.644 91.2171 142.932 91.043Z" fill="#263238"/>
<g opacity="0.3">
<path d="M191.063 192.86C190.97 193.579 190.869 194.297 190.776 195.015C191.753 194.305 192.611 193.445 193.319 192.465C193.505 193.852 193.692 195.245 193.872 196.631C193.872 196.66 193.878 196.689 193.891 196.715C193.903 196.741 193.921 196.764 193.944 196.782C194.015 196.818 194.087 196.782 194.145 196.718C195.434 195.585 196.499 194.221 197.284 192.695C197.874 194.288 198.216 195.962 198.296 197.659C198.806 196.94 201.435 188.896 201.435 188.896L201.148 187.459L193.599 187.236L191.236 189.75L191.063 192.86Z" fill="black"/>
</g>
<path d="M188.6 184.601C189.843 185.714 190.683 187.207 190.987 188.847C191.291 190.487 191.043 192.182 190.281 193.666C191.619 192.375 192.772 190.906 193.707 189.299C194.071 191.099 194.435 192.905 194.799 194.715L198.031 189.32C198.663 190.872 199.288 192.431 199.92 193.989C200.423 192.294 200.928 190.599 201.436 188.904C201.846 190.22 202.673 191.367 203.792 192.172C204.113 188.476 204.725 184.811 205.623 181.211L188.6 184.601Z" fill="#CB9A4B"/>
<g opacity="0.3">
<path d="M244.928 181.427C244.799 180.708 243.534 176.047 243.534 176.047L238.025 174.84L236.646 180.873V181.053C237.005 181.85 237.364 183.129 237.702 183.926C237.975 182.813 238.284 181.225 238.557 180.112C239.672 181.39 240.674 182.762 241.552 184.213C242.168 183.57 242.569 182.752 242.701 181.872C242.829 180.997 242.868 180.111 242.816 179.229L244.928 181.427Z" fill="black"/>
</g>
<path d="M247.04 178.565C244.928 176.138 243.254 171.806 242.78 168.617L231.446 172.431C233.601 175.125 235.576 178.508 235.863 181.956C237.246 180.638 238.062 178.836 238.14 176.928L241.207 181.187C241.822 179.771 241.914 178.183 241.466 176.705C243.022 178.007 245.014 178.672 247.04 178.565Z" fill="#CB9A4B"/>
<path d="M204.891 184.506C204.762 184.391 207.046 182.646 208.763 179.665C209.498 178.404 209.974 177.01 210.163 175.563C210.211 174.959 210.227 174.352 210.213 173.746C210.445 174.33 210.519 174.964 210.429 175.585C210.311 177.087 209.854 178.544 209.093 179.844C208.346 181.141 207.415 182.322 206.328 183.35C205.894 183.788 205.412 184.176 204.891 184.506Z" fill="#263238"/>
<path d="M202.98 125.084C202.874 125.136 202.763 125.179 202.65 125.213L201.673 125.537C200.447 125.965 199.248 126.466 198.082 127.038C193.94 129.07 190.314 132.017 187.48 135.657L187.178 136.045V135.549C187.178 133.79 187.235 131.922 187.271 129.983L187.595 130.083C185.499 133.472 183.766 137.071 182.423 140.822C180.834 145.304 179.79 149.96 179.313 154.692C178.924 158.554 178.924 162.445 179.313 166.306C179.435 167.958 179.715 169.438 179.902 170.738C180.088 172.038 180.383 173.145 180.577 174.05C180.771 174.955 180.979 175.615 181.108 176.118L181.238 176.657C181.258 176.717 181.27 176.78 181.274 176.844C181.274 176.844 181.274 176.786 181.202 176.671C181.13 176.556 181.108 176.355 181.037 176.14C180.893 175.637 180.692 174.955 180.44 174.085C180.189 173.216 179.966 172.067 179.722 170.774C179.478 169.481 179.219 167.994 179.076 166.335C178.657 162.454 178.638 158.541 179.018 154.656C179.479 149.894 180.521 145.207 182.121 140.7C183.472 136.921 185.223 133.297 187.343 129.889L187.688 129.351V129.99C187.645 131.929 187.609 133.797 187.573 135.557L187.279 135.456C190.15 131.784 193.84 128.832 198.053 126.837C199.625 126.071 201.278 125.483 202.98 125.084Z" fill="#263238"/>
<g opacity="0.3">
<path d="M178.846 163.591C178.551 166.306 178.127 166.924 176.066 168.712C173.922 170.431 171.49 171.757 168.883 172.627C159.102 176.273 148.46 176.938 138.302 174.538C128.143 172.139 118.924 166.782 111.808 159.145C111.772 165.523 107.786 171.621 102.154 174.53C104.365 173.818 106.403 172.651 108.135 171.103C109.867 169.555 111.255 167.662 112.21 165.544C117.054 169.249 122.417 172.219 128.128 174.358L143.061 179.853L155.078 182.992L152.6 179.637C156.365 181.316 160.518 181.932 164.609 181.419C163.704 180.427 162.804 179.431 161.909 178.431L162.002 178.287L162.102 178.136C166.096 179.285 176.849 175.809 179.715 172.253C179.926 173.671 180.295 175.061 180.814 176.398C179.862 172.179 179.205 167.9 178.846 163.591Z" fill="black"/>
</g>
<path d="M193.923 175.514C193.779 175.267 193.666 175.005 193.585 174.731C193.391 174.221 193.147 173.467 192.867 172.526C192.17 170.073 191.69 167.564 191.43 165.027C191.171 162.49 191.138 159.935 191.33 157.391C191.409 156.415 191.495 155.632 191.581 155.093C191.604 154.809 191.661 154.529 191.753 154.26C191.782 154.542 191.782 154.826 191.753 155.107C191.71 155.653 191.66 156.436 191.617 157.406C191.504 159.936 191.574 162.471 191.825 164.991C192.089 167.509 192.53 170.005 193.147 172.461C193.391 173.402 193.592 174.163 193.75 174.688C193.834 174.957 193.892 175.234 193.923 175.514Z" fill="#263238"/>
<path d="M195.474 172.808C195.392 172.492 195.339 172.17 195.316 171.845C195.23 171.22 195.151 170.315 195.1 169.195C194.857 163.315 195.82 157.449 197.93 151.956C198.333 150.907 198.699 150.074 198.979 149.506C199.104 149.205 199.258 148.916 199.439 148.645C199.36 148.961 199.25 149.27 199.108 149.564C198.871 150.146 198.548 151.001 198.175 152.049C196.217 157.549 195.265 163.357 195.366 169.195C195.366 170.308 195.416 171.213 195.46 171.838C195.5 172.16 195.505 172.485 195.474 172.808Z" fill="#263238"/>
<path d="M199.726 171.988C199.69 171.75 199.69 171.508 199.726 171.27C199.726 170.81 199.769 170.156 199.827 169.345C200.174 165.113 201.018 160.938 202.341 156.904C202.599 156.135 202.822 155.51 202.994 155.094C203.064 154.865 203.166 154.648 203.296 154.447C203.102 155.305 202.862 156.151 202.578 156.983C202.132 158.541 201.558 160.704 201.069 163.124C200.581 165.545 200.265 167.757 200.078 169.366C200.007 170.246 199.889 171.121 199.726 171.988Z" fill="#263238"/>
<path d="M207.994 162.707C207.991 162.158 208.069 161.611 208.224 161.084C208.808 158.494 209.799 156.014 211.161 153.736C211.42 153.249 211.741 152.797 212.117 152.393C212.217 152.457 210.881 154.547 209.746 157.421C208.611 160.294 208.109 162.729 207.994 162.707Z" fill="#263238"/>
<path d="M230.641 88.5509C230.501 88.5073 230.364 88.4521 230.232 88.3856L229.097 87.8613C228.609 87.6243 228.005 87.3441 227.294 87.0568C226.583 86.7695 225.779 86.396 224.866 86.0799L223.43 85.5556C222.934 85.376 222.403 85.2252 221.857 85.0456C220.779 84.6793 219.594 84.392 218.359 84.0687C215.657 83.4247 212.913 82.9663 210.149 82.6968C207.38 82.4618 204.599 82.4138 201.824 82.5532C200.545 82.6537 199.331 82.7184 198.232 82.8836C197.665 82.9554 197.119 83.0057 196.595 83.0991L195.093 83.3505C194.138 83.4941 193.283 83.7168 192.529 83.8748C191.775 84.0328 191.136 84.1909 190.611 84.3417L189.397 84.6506C189.258 84.6895 189.117 84.7184 188.974 84.7368C189.099 84.6641 189.235 84.6108 189.376 84.5787L190.575 84.198C191.093 84.0328 191.732 83.8389 192.486 83.6665C193.24 83.4941 194.088 83.2571 195.05 83.0919L196.552 82.8117C197.076 82.7184 197.622 82.6609 198.189 82.5747C199.324 82.3951 200.545 82.3161 201.831 82.2084C204.624 82.048 207.425 82.0864 210.213 82.3233C212.995 82.6025 215.754 83.0827 218.466 83.7599C219.716 84.0975 220.901 84.3992 221.979 84.7799C222.525 84.9666 223.056 85.1246 223.552 85.3114L224.988 85.8573C225.901 86.1949 226.698 86.5756 227.402 86.8916C228.106 87.2077 228.709 87.5022 229.19 87.7607L230.297 88.3497C230.418 88.4057 230.533 88.473 230.641 88.5509Z" fill="#263238"/>
<path d="M229.614 93.873C229.291 93.7482 228.98 93.5918 228.688 93.4061C228.106 93.0829 227.251 92.6375 226.166 92.1204C225.082 91.6032 223.782 91.0501 222.309 90.5114C220.7 89.9388 219.06 89.4591 217.396 89.0748C215.737 88.7021 214.058 88.4192 212.368 88.2273C210.802 88.0692 209.38 87.9974 208.188 87.9902C206.995 87.983 206.033 87.9902 205.365 88.0477C205.018 88.0792 204.67 88.0792 204.323 88.0477C204.66 87.9627 205.004 87.9098 205.35 87.8897C206.293 87.783 207.24 87.7254 208.188 87.7173C209.595 87.687 211.003 87.7397 212.404 87.8753C214.119 88.0451 215.822 88.3186 217.504 88.6942C219.183 89.0873 220.836 89.5863 222.453 90.1882C223.771 90.6773 225.059 91.2434 226.31 91.8833C227.38 92.4364 228.228 92.9177 228.788 93.284C229.082 93.4534 229.358 93.6506 229.614 93.873Z" fill="#263238"/>
<path d="M208.518 77.1893C208.208 77.2482 207.893 77.2746 207.577 77.2684C206.967 77.2684 206.09 77.333 205.013 77.4048C199.367 77.7798 193.804 78.9601 188.492 80.9101C187.48 81.2836 186.661 81.6284 186.093 81.8295C185.807 81.9634 185.509 82.0693 185.203 82.1455C185.462 81.9636 185.742 81.8118 186.036 81.693C186.582 81.4272 187.386 81.0681 188.399 80.6659C193.689 78.5636 199.297 77.3711 204.984 77.1391C206.069 77.1032 206.952 77.096 207.563 77.1391C207.882 77.1254 208.202 77.1423 208.518 77.1893Z" fill="#263238"/>
<path d="M189.34 74.8164C189.34 74.9241 187.271 75.6137 184.872 76.8635C182.473 78.1133 180.677 79.4206 180.613 79.3272C180.931 78.9589 181.301 78.6394 181.712 78.3791C182.66 77.6895 183.659 77.0724 184.7 76.5331C185.74 75.9968 186.818 75.5383 187.925 75.1612C188.375 74.9718 188.853 74.8554 189.34 74.8164Z" fill="#263238"/>
</svg>
