<svg width="1000" height="1000" viewBox="0 0 1000 1000" fill="none" xmlns="http://www.w3.org/2000/svg">
<path d="M683.372 719.85L636.141 423.115C631.74 395.979 600.644 375.15 566.32 375.15H457.63C423.307 375.15 392.21 395.832 387.81 423.115L340.579 719.85C331.631 776.469 368.448 826.928 424.04 826.928H599.91C655.356 826.928 692.319 776.469 683.372 719.85ZM638.341 779.11C631.594 787.03 619.419 797.591 599.91 797.591H423.893C404.385 797.591 392.21 786.59 385.463 778.669C374.022 765.175 369.181 745.373 372.408 725.718L419.64 430.009C420.96 421.502 436.361 410.354 457.483 410.354H566.174C587.296 410.354 602.697 421.208 604.017 429.716L651.249 725.718C654.622 745.52 649.782 765.615 638.341 779.11Z" stroke="#323345" stroke-width="6" stroke-miterlimit="10" stroke-linecap="round" stroke-linejoin="round"/>
<path d="M683.372 719.85L636.141 423.115C631.74 395.979 600.644 375.15 566.32 375.15H457.63C423.307 375.15 392.21 395.832 387.81 423.115L340.579 719.85C331.631 776.469 368.448 826.928 424.04 826.928H599.91C655.356 826.928 692.319 776.469 683.372 719.85ZM638.341 779.11C631.594 787.03 619.419 797.591 599.91 797.591H423.893C404.385 797.591 392.21 786.59 385.463 778.669C374.022 765.175 369.181 745.373 372.408 725.718L419.64 430.009C420.96 421.502 436.361 410.354 457.483 410.354H566.174C587.296 410.354 602.697 421.208 604.017 429.716L651.249 725.718C654.622 745.52 649.782 765.615 638.341 779.11Z" fill="#353736"/>
<path d="M683.372 719.85L636.141 423.115C631.74 395.979 600.644 375.15 566.32 375.15H457.63C423.307 375.15 392.21 395.832 387.81 423.115L340.579 719.85C331.631 776.469 368.448 826.928 424.04 826.928H599.91C655.356 826.928 692.319 776.469 683.372 719.85ZM638.341 779.11C631.594 787.03 619.419 797.591 599.91 797.591H423.893C404.385 797.591 392.21 786.59 385.463 778.669C374.022 765.175 369.181 745.373 372.408 725.718L419.64 430.009C420.96 421.502 436.361 410.354 457.483 410.354H566.174C587.296 410.354 602.697 421.208 604.017 429.716L651.249 725.718C654.622 745.52 649.782 765.615 638.341 779.11Z" fill="#353736"/>
<path opacity="0.59" d="M372.407 725.717L407.464 506.722C398.223 499.535 388.249 493.374 377.394 488.681L340.577 719.996C338.377 733.931 338.964 747.572 341.897 760.187C352.752 758.72 363.019 755.933 372.847 752.12C371.087 743.612 370.94 734.665 372.407 725.717Z" fill="#7E7D76"/>
<path opacity="0.59" d="M651.397 725.718C652.571 733.345 652.571 741.119 651.544 748.453C661.225 753 671.492 756.521 682.2 758.721C684.84 746.546 685.427 733.492 683.227 719.997L646.997 492.642C636.289 498.215 626.315 505.256 617.367 513.324L651.397 725.718Z" fill="#7E7D76"/>
<path d="M599.911 826.928H423.893C368.448 826.928 331.485 776.469 340.432 719.85L387.663 423.115C392.064 395.979 423.16 375.15 457.483 375.15H566.174C600.497 375.15 631.594 395.832 635.994 423.115L683.225 719.85C692.319 776.469 655.356 826.928 599.911 826.928Z" stroke="#323345" stroke-width="6" stroke-miterlimit="10" stroke-linecap="round" stroke-linejoin="round"/>
<path d="M683.372 719.85L636.141 423.115C631.74 395.979 600.644 375.15 566.32 375.15H457.63C423.307 375.15 392.21 395.832 387.81 423.115L340.579 719.85C331.631 776.469 368.448 826.928 424.04 826.928H599.91C655.356 826.928 692.319 776.469 683.372 719.85ZM651.689 788.644C638.634 803.899 620.299 812.259 599.764 812.259H423.893C403.358 812.259 385.023 803.899 371.968 788.644C357.154 771.336 350.993 746.986 354.953 722.197L402.185 425.462C405.265 405.807 430.054 389.818 457.483 389.818H566.174C593.456 389.818 618.246 405.807 621.473 425.462L668.85 722.197C672.811 747.133 666.504 771.336 651.689 788.644Z" fill="#3E4240"/>
<path d="M683.372 719.85L636.141 423.115C631.74 395.979 600.644 375.15 566.32 375.15H457.63C423.307 375.15 392.21 395.832 387.81 423.115L340.579 719.85C331.631 776.469 368.448 826.928 424.04 826.928H599.91C655.356 826.928 692.319 776.469 683.372 719.85Z" stroke="#323345" stroke-width="6" stroke-miterlimit="10" stroke-linecap="round" stroke-linejoin="round"/>
<path d="M553.998 506.722C524.368 506.722 494.739 506.722 465.256 506.722C441.934 533.564 421.398 569.061 412.304 611.452C401.597 659.563 408.784 713.395 431.226 754.906C439.587 770.454 457.335 780.575 474.937 780.575C498.846 780.575 522.902 780.575 546.811 780.575C564.706 780.575 582.894 770.161 590.962 754.319C611.497 713.982 618.978 660.737 605.043 604.851C594.922 562.607 575.413 529.311 553.998 506.722Z" fill="#DFC19F"/>
<path d="M511.024 738.919C557.199 738.919 594.632 701.486 594.632 655.311C594.632 609.136 557.199 571.703 511.024 571.703C464.849 571.703 427.416 609.136 427.416 655.311C427.416 701.486 464.849 738.919 511.024 738.919Z" fill="url(#paint0_radial_215_5154)"/>
<path d="M490.487 562.441C497.249 538.677 494.206 516.986 483.686 513.992C473.167 511 459.159 527.837 452.396 551.601C445.634 575.366 448.679 597.057 459.197 600.05C469.716 603.043 483.725 586.206 490.487 562.441Z" fill="#F8F4EF"/>
<path d="M553.998 508.188C524.368 508.188 494.739 508.188 465.256 508.188C441.934 535.031 421.398 569.941 412.304 612.185C401.597 660.297 408.784 714.568 431.226 756.079C439.587 771.627 457.335 782.042 474.937 782.042C498.846 782.042 522.902 782.042 546.811 782.042C564.706 782.042 582.894 770.894 590.962 755.052C611.497 714.715 618.978 661.763 605.043 606.025C594.922 563.634 575.413 530.777 553.998 508.188Z" stroke="#323345" stroke-width="4" stroke-miterlimit="10" stroke-linecap="round" stroke-linejoin="round"/>
<path d="M599.908 848.93H420.957V820.327C420.957 810.646 428.878 802.726 438.559 802.726H582.306C591.987 802.726 599.908 810.646 599.908 820.327V848.93Z" fill="#3E4240"/>
<path d="M573.95 838.956H446.777V829.861C446.777 820.181 454.698 812.26 464.379 812.26H556.348C566.029 812.26 573.95 820.181 573.95 829.861V838.956Z" fill="#494A4A"/>
<path opacity="0.59" d="M582.306 802.726H438.559C428.878 802.726 420.957 808.886 420.957 816.367V825.901C420.957 818.42 428.878 812.26 438.559 812.26H582.306C591.987 812.26 599.908 818.42 599.908 825.901V816.367C599.908 808.886 591.987 802.726 582.306 802.726Z" fill="#C8A82F"/>
<path d="M599.908 848.93H420.957V820.327C420.957 810.646 428.878 802.726 438.559 802.726H582.306C591.987 802.726 599.908 810.646 599.908 820.327V848.93Z" stroke="#323345" stroke-width="6" stroke-miterlimit="10" stroke-linecap="round" stroke-linejoin="round"/>
<path d="M643.621 890H376.662V884.133C376.662 864.625 392.504 848.93 411.866 848.93H608.271C627.78 848.93 643.475 864.771 643.475 884.133V890H643.621Z" fill="#494A4A"/>
<path d="M377.542 876.065C376.955 878.706 376.662 881.346 376.662 884.133V890H643.621V884.133C643.621 881.346 643.328 878.559 642.741 876.065H377.542Z" fill="#3E4240"/>
<path opacity="0.59" d="M608.418 848.93H411.866C392.357 848.93 376.662 864.771 376.662 884.133V890H376.955C378.862 872.399 393.824 858.757 412.012 858.757H608.418C626.606 858.757 641.421 872.399 643.475 890H643.768V884.133C643.621 864.771 627.78 848.93 608.418 848.93Z" fill="#72706A"/>
<path d="M643.621 890H376.662V884.133C376.662 864.625 392.504 848.93 411.866 848.93H608.271C627.78 848.93 643.475 864.771 643.475 884.133V890H643.621Z" stroke="#323345" stroke-width="6" stroke-miterlimit="10" stroke-linecap="round" stroke-linejoin="round"/>
<path d="M575.413 521.537C531.409 521.537 487.405 521.537 443.4 521.537C444.721 512.003 450.881 501.735 459.095 492.201C492.685 492.201 526.275 492.201 559.865 492.201C568.079 501.735 574.093 512.003 575.413 521.537Z" fill="#3E4240"/>
<path d="M524.074 521.537H494.737C483.296 521.537 475.522 510.096 479.483 499.389C480.363 497.042 481.389 494.548 482.416 492.201C507.792 492.201 510.726 492.201 536.101 492.201C537.128 494.548 538.155 496.895 539.035 499.389C543.435 509.95 535.515 521.537 524.074 521.537Z" fill="#494A4A"/>
<path d="M583.042 442.624H434.895L448.243 429.862H569.694L583.042 442.624Z" fill="#3E4240"/>
<path d="M575.413 521.537C531.409 521.537 487.405 521.537 443.4 521.537C444.721 512.003 450.881 501.735 459.095 492.201C492.685 492.201 526.275 492.201 559.865 492.201C568.079 501.735 574.093 512.003 575.413 521.537Z" stroke="#323345" stroke-width="6" stroke-miterlimit="10" stroke-linecap="round" stroke-linejoin="round"/>
<path d="M553.996 444.09H464.814L460.121 455.824C459.387 457.584 459.094 459.345 459.094 461.105V492.495H560.304V461.398C560.304 459.345 559.864 457.438 559.13 455.678L553.996 444.09Z" fill="#3E4240"/>
<path d="M518.794 444.09H500.459C493.565 444.09 487.551 449.077 486.231 455.824C485.938 457.584 485.791 459.345 485.791 461.105V473.866C485.791 484.134 494.152 492.348 504.273 492.348H514.834C525.101 492.348 533.316 483.987 533.316 473.866V461.252C533.316 459.198 533.169 457.291 532.729 455.531C531.555 448.93 525.688 444.09 518.794 444.09Z" fill="#494A4A"/>
<path d="M553.996 444.09H464.814L460.121 455.824C459.387 457.584 459.094 459.345 459.094 461.105V492.495H560.304V461.398C560.304 459.345 559.864 457.438 559.13 455.678L553.996 444.09Z" stroke="#323345" stroke-width="6" stroke-miterlimit="10" stroke-linecap="round" stroke-linejoin="round"/>
<path d="M583.042 442.624H434.895L448.243 429.862H569.694L583.042 442.624Z" stroke="#323345" stroke-width="6" stroke-miterlimit="10" stroke-linecap="round" stroke-linejoin="round"/>
<path d="M560.16 352.707H456.456L448.242 429.861H568.374L560.16 352.707Z" fill="#3E4240"/>
<path d="M539.623 352.707H476.99L473.909 401.112C472.883 416.66 485.204 429.861 500.752 429.861H515.86C531.408 429.861 543.73 416.66 542.703 401.112L539.623 352.707Z" fill="#494A4A"/>
<path d="M560.16 352.707H456.456L448.242 429.861H568.374L560.16 352.707Z" stroke="#323345" stroke-width="6" stroke-miterlimit="10" stroke-linecap="round" stroke-linejoin="round"/>
<path d="M555.61 341.414C546.956 341.414 538.595 337.747 532.728 331.293C526.86 324.839 518.353 320.879 508.965 320.879C499.578 320.879 491.07 324.839 485.203 331.293C479.336 337.747 470.975 341.414 462.321 341.414H441.492V353.149H576.439V341.414H555.61Z" fill="#3E4240"/>
<path d="M555.61 341.414C546.956 341.414 538.595 337.747 532.728 331.293C526.86 324.839 518.353 320.879 508.965 320.879C499.578 320.879 491.07 324.839 485.203 331.293C479.336 337.747 470.975 341.414 462.321 341.414H441.492V353.149H576.439V341.414H555.61Z" stroke="#323345" stroke-width="6" stroke-miterlimit="10" stroke-linecap="round" stroke-linejoin="round"/>
<path d="M485.06 474.306C488.949 474.306 492.101 471.154 492.101 467.265C492.101 463.377 488.949 460.225 485.06 460.225C481.172 460.225 478.02 463.377 478.02 467.265C478.02 471.154 481.172 474.306 485.06 474.306Z" fill="#323345"/>
<path d="M509.263 474.306C513.152 474.306 516.304 471.154 516.304 467.265C516.304 463.377 513.152 460.225 509.263 460.225C505.375 460.225 502.223 463.377 502.223 467.265C502.223 471.154 505.375 474.306 509.263 474.306Z" fill="#323345"/>
<path d="M533.466 474.306C537.355 474.306 540.507 471.154 540.507 467.265C540.507 463.377 537.355 460.225 533.466 460.225C529.578 460.225 526.426 463.377 526.426 467.265C526.426 471.154 529.578 474.306 533.466 474.306Z" fill="#323345"/>
<path d="M515.568 636.977C513.221 643.431 509.114 652.818 501.633 662.646C489.019 679.221 480.218 679.661 475.231 691.248C469.51 704.596 472.151 725.718 486.819 737.893C501.927 750.361 522.462 747.427 535.37 740.387C559.132 727.185 559.572 697.849 559.572 694.916C559.572 670.566 542.117 647.538 515.568 636.977Z" fill="#FBAF41"/>
<path d="M519.971 654.577C516.891 660.298 511.904 668.512 503.836 676.579C491.369 689.047 483.888 688.754 478.901 697.848C472.74 708.996 473.914 727.624 485.648 738.625C498.996 750.946 518.651 747.133 529.946 740.825C552.388 728.358 552.094 700.488 552.094 699.315C551.508 680.246 538.893 662.791 519.971 654.577Z" fill="#F4B971"/>
<path d="M515.568 636.977C513.221 643.431 509.114 652.818 501.633 662.646C489.019 679.221 480.218 679.661 475.231 691.248C469.51 704.596 472.151 725.718 486.819 737.893C501.927 750.361 522.462 747.427 535.37 740.387C559.132 727.185 559.572 697.849 559.572 694.916C559.572 670.566 542.117 647.538 515.568 636.977Z" stroke="#323345" stroke-width="4" stroke-miterlimit="10" stroke-linecap="round" stroke-linejoin="round"/>
<path d="M548.281 779.989C542.56 749.186 527.452 727.771 509.85 727.771C492.102 727.771 477.14 749.186 471.42 779.989H548.281Z" fill="#494A4A"/>
<path d="M509.849 740.386C524.517 740.386 537.572 751.387 545.786 768.842C538.745 744.2 525.397 727.918 509.849 727.918C494.447 727.918 480.953 744.2 473.912 768.842C482.126 751.387 495.181 740.386 509.849 740.386Z" fill="#C8A82F"/>
<path d="M548.281 779.989C542.56 749.186 527.452 727.771 509.85 727.771C492.102 727.771 477.14 749.186 471.42 779.989H548.281Z" stroke="#323345" stroke-width="4" stroke-miterlimit="10" stroke-linecap="round" stroke-linejoin="round"/>
<path d="M557.372 767.08H463.496V780.575H557.372V767.08Z" fill="#3E4240"/>
<path d="M557.372 767.08H463.496V780.575H557.372V767.08Z" stroke="#323345" stroke-width="4" stroke-miterlimit="10" stroke-linecap="round" stroke-linejoin="round"/>
<path d="M634.377 419.155C642.478 419.155 649.045 412.588 649.045 404.486C649.045 396.385 642.478 389.818 634.377 389.818C626.276 389.818 619.709 396.385 619.709 404.486C619.709 412.588 626.276 419.155 634.377 419.155Z" fill="#323345"/>
<path d="M389.422 419.155C397.523 419.155 404.09 412.588 404.09 404.486C404.09 396.385 397.523 389.818 389.422 389.818C381.321 389.818 374.754 396.385 374.754 404.486C374.754 412.588 381.321 419.155 389.422 419.155Z" fill="#323345"/>
<path d="M623.824 425.462L627.344 402.139C627.491 402.139 627.638 402.139 627.931 402.139C641.866 402.139 653.16 390.992 653.16 377.204C653.16 365.763 645.386 356.228 634.972 353.295L656.827 209.547C663.721 164.516 628.518 123.886 582.46 123.886H508.973H435.486C389.428 123.886 354.225 164.37 361.119 209.547L382.974 353.295C372.853 355.348 364.786 365.909 364.786 377.204C364.786 390.992 376.08 402.139 390.015 402.139C390.161 402.139 390.308 402.139 390.601 402.139L394.122 425.462" stroke="#323345" stroke-width="8" stroke-miterlimit="10" stroke-linecap="round" stroke-linejoin="round"/>
<path d="M529.072 135.327H487.561C483.454 135.327 480.08 131.953 480.08 127.846V117.285C480.08 113.178 483.454 109.805 487.561 109.805H529.072C533.179 109.805 536.552 113.178 536.552 117.285V127.846C536.552 131.953 533.179 135.327 529.072 135.327Z" fill="#323345"/>
<path d="M577.612 802.726H443.252L463.641 777.79H557.37L577.612 802.726Z" fill="#494A4A"/>
<path opacity="0.59" d="M458.512 784.097C470.833 790.991 489.608 795.392 510.583 795.392C531.559 795.392 550.334 790.991 562.655 784.097L557.375 777.79H463.646L458.512 784.097Z" fill="#72706A"/>
<path d="M577.612 802.726H443.252L463.641 777.79H557.37L577.612 802.726Z" stroke="#323345" stroke-width="4" stroke-miterlimit="10" stroke-linecap="round" stroke-linejoin="round"/>
<path d="M651.686 788.644C638.632 803.899 620.297 812.259 599.761 812.259H423.891C403.356 812.259 385.02 803.899 371.966 788.644C357.151 771.335 350.99 746.986 354.951 722.197L402.182 425.462C405.262 405.807 430.051 389.818 457.481 389.818H566.171C593.454 389.818 618.243 405.807 621.47 425.462L668.848 722.197C672.808 747.133 666.501 771.335 651.686 788.644Z" stroke="#323345" stroke-width="4" stroke-miterlimit="10" stroke-linecap="round" stroke-linejoin="round"/>
<path d="M528.185 351.682H486.381C485.647 351.682 484.914 351.095 484.914 350.215C484.914 342.881 490.781 337.014 498.115 337.014H516.45C523.785 337.014 529.652 342.881 529.652 350.215C529.652 351.095 529.065 351.682 528.185 351.682Z" fill="#323345"/>
<path d="M515.424 680.246C515.864 683.033 516.157 686.7 515.717 690.807C515.424 695.354 514.397 699.315 513.37 702.248C511.903 695.941 507.796 690.367 507.21 690.66C507.21 690.66 507.21 690.66 507.21 690.807C506.916 692.127 500.022 700.781 498.702 702.688C495.182 707.969 494.448 719.263 500.609 725.13C505.889 730.118 514.69 729.824 520.558 726.891C530.385 721.903 532.292 708.849 530.679 700.195C528.185 687.58 517.331 681.273 515.424 680.246Z" fill="#FBAF41"/>
<path d="M515.424 680.246C515.864 683.033 516.157 686.7 515.717 690.807C515.424 695.354 514.397 699.315 513.37 702.248C511.903 695.941 507.796 690.367 507.21 690.66C507.21 690.66 507.21 690.66 507.21 690.807C506.916 692.127 500.022 700.781 498.702 702.688C495.182 707.969 494.448 719.263 500.609 725.13C505.889 730.118 514.69 729.824 520.558 726.891C530.385 721.903 532.292 708.849 530.679 700.195C528.185 687.58 517.331 681.273 515.424 680.246Z" stroke="#323345" stroke-width="4" stroke-miterlimit="10" stroke-linecap="round" stroke-linejoin="round"/>
<defs>
<radialGradient id="paint0_radial_215_5154" cx="0" cy="0" r="1" gradientUnits="userSpaceOnUse" gradientTransform="translate(511.024 655.311) scale(83.6081 83.6081)">
<stop offset="0.1237" stop-color="white"/>
<stop offset="1" stop-color="white" stop-opacity="0.3"/>
</radialGradient>
</defs>
</svg>
