<svg width="1000" height="1000" viewBox="0 0 1000 1000" fill="none" xmlns="http://www.w3.org/2000/svg">
<path d="M805.064 743.057L796.673 790.64L831.154 824.546L783.283 831.27L761.733 874.486L740.527 831.097L692.771 823.914L727.54 790.353L719.552 742.712L762.193 765.354L805.064 743.057Z" fill="white"/>
<path d="M761.733 877.359C761.189 877.319 760.667 877.124 760.23 876.799C759.792 876.473 759.456 876.03 759.262 875.52L738.745 833.454L692.484 826.5C691.95 826.44 691.446 826.222 691.036 825.874C690.627 825.526 690.331 825.064 690.185 824.546C690.018 824.042 689.994 823.501 690.115 822.983C690.237 822.466 690.5 821.992 690.875 821.615L724.436 789.318L716.735 743.344C716.65 742.815 716.715 742.273 716.921 741.779C717.128 741.285 717.469 740.858 717.905 740.548C718.341 740.237 718.856 740.054 719.39 740.02C719.925 739.987 720.458 740.103 720.93 740.356L762.25 762.309L803.742 740.701C804.201 740.422 804.727 740.274 805.265 740.274C805.802 740.274 806.328 740.422 806.787 740.701C807.218 741.018 807.549 741.451 807.743 741.95C807.936 742.449 807.983 742.992 807.879 743.517L799.776 789.491L833.165 822.305C833.54 822.682 833.803 823.155 833.925 823.673C834.046 824.19 834.022 824.731 833.855 825.236C833.685 825.739 833.381 826.187 832.976 826.531C832.571 826.876 832.08 827.103 831.556 827.19L785.18 833.741L764.319 875.52C764.11 876.043 763.755 876.494 763.296 876.82C762.838 877.146 762.295 877.333 761.733 877.359ZM698.978 821.96L740.987 828.224C741.448 828.291 741.885 828.473 742.257 828.755C742.629 829.036 742.924 829.407 743.113 829.833L761.733 867.992L780.754 829.948C780.967 829.544 781.269 829.195 781.638 828.926C782.006 828.657 782.431 828.476 782.881 828.397L824.947 822.65L794.662 792.881C794.342 792.55 794.103 792.15 793.963 791.711C793.824 791.273 793.787 790.808 793.857 790.353L801.213 748.516L763.514 768.113C763.106 768.324 762.652 768.435 762.192 768.435C761.732 768.435 761.279 768.324 760.871 768.113L723.344 748.229L730.528 789.893C730.605 790.353 730.566 790.825 730.416 791.266C730.265 791.708 730.007 792.105 729.666 792.422L698.978 821.96Z" fill="#263238"/>
<path d="M609.155 815.926L596.857 833.282L604.155 853.223L583.869 846.902L567.146 860.004L566.916 838.799L549.273 826.96L569.387 820.122L575.191 799.663L587.892 816.731L609.155 815.926Z" fill="white"/>
<path d="M567.146 862.878C566.752 862.992 566.334 862.992 565.939 862.878C565.445 862.665 565.024 862.312 564.728 861.863C564.432 861.414 564.274 860.888 564.273 860.35V840.581L547.665 829.547C547.218 829.248 546.864 828.83 546.643 828.34C546.422 827.85 546.343 827.307 546.414 826.774C546.486 826.242 546.706 825.74 547.049 825.326C547.392 824.912 547.844 824.602 548.354 824.432L567.031 818.111L572.433 799.146C572.563 798.619 572.843 798.14 573.239 797.768C573.634 797.395 574.129 797.146 574.664 797.048C575.199 796.951 575.75 797.011 576.251 797.22C576.753 797.429 577.183 797.779 577.49 798.227L589.271 814.031L609.04 813.283C609.566 813.29 610.08 813.438 610.529 813.711C610.978 813.985 611.345 814.374 611.592 814.838C611.839 815.303 611.956 815.825 611.932 816.35C611.908 816.875 611.743 817.384 611.454 817.823L599.96 833.914L606.857 852.534C607.043 853.041 607.082 853.591 606.97 854.119C606.859 854.648 606.6 855.134 606.224 855.522C605.85 855.902 605.379 856.171 604.863 856.303C604.346 856.435 603.804 856.423 603.293 856.269L584.444 850.523L568.928 862.706C568.367 862.951 567.743 863.012 567.146 862.878ZM555.653 827.765L568.468 836.386C568.847 836.653 569.159 837.005 569.378 837.414C569.598 837.823 569.719 838.278 569.732 838.742V854.143L581.858 844.661C582.218 844.356 582.649 844.148 583.112 844.058C583.575 843.967 584.053 843.997 584.501 844.144L599.213 848.741L593.926 834.259C593.756 833.825 593.698 833.355 593.758 832.893C593.818 832.431 593.995 831.991 594.271 831.616L603.178 819.03L587.777 819.605C587.311 819.628 586.846 819.536 586.425 819.335C586.004 819.134 585.639 818.832 585.363 818.456L576.169 806.1L571.916 820.927C571.803 821.376 571.573 821.788 571.25 822.121C570.928 822.454 570.523 822.696 570.077 822.823L555.653 827.765Z" fill="#263238"/>
<path d="M453.972 805.98C296.136 805.98 168.185 678.029 168.185 520.193C168.185 362.357 296.136 234.405 453.972 234.405C611.808 234.405 739.76 362.357 739.76 520.193C739.76 678.029 611.808 805.98 453.972 805.98Z" fill="white"/>
<path d="M454.144 808.682C511.252 808.693 567.081 791.768 614.569 760.048C662.057 728.328 699.072 683.237 720.931 630.478C742.791 577.719 748.513 519.663 737.375 463.652C726.236 407.64 698.738 356.19 658.356 315.809C617.975 275.427 566.525 247.929 510.514 236.79C454.502 225.652 396.446 231.374 343.687 253.234C290.928 275.093 245.837 312.108 214.117 359.596C182.396 407.084 165.472 462.913 165.483 520.021C165.559 596.555 195.996 669.933 250.114 724.051C304.232 778.169 377.61 808.606 454.144 808.682ZM454.144 237.049C510.113 237.038 564.828 253.624 611.37 284.711C657.912 315.797 694.19 359.987 715.617 411.693C737.043 463.398 742.655 520.296 731.743 575.191C720.831 630.086 693.885 680.512 654.313 720.092C614.741 759.672 564.32 786.628 509.428 797.551C454.535 808.474 397.636 802.874 345.926 781.458C294.217 760.042 250.019 723.773 218.923 677.238C187.827 630.702 171.23 575.99 171.23 520.021C171.351 445.036 201.201 373.158 254.235 320.146C307.268 267.134 379.158 237.313 454.144 237.222V237.049Z" fill="#363A5A"/>
<path d="M438.236 496.506C438.236 511.046 429.385 522.712 418.926 522.539C408.467 522.367 400.134 510.471 400.364 495.931C400.594 481.392 409.272 469.784 419.731 469.956C430.19 470.128 438.465 482.024 438.236 496.506Z" fill="#363A5A"/>
<path d="M430.994 484.208C431.569 489.954 429.328 494.724 425.937 495.069C422.546 495.414 419.328 491.161 418.696 485.529C418.064 479.898 420.363 475.013 423.753 474.668C427.144 474.323 430.247 478.576 430.994 484.208Z" fill="white"/>
<path d="M556.675 494.608C556.675 509.148 547.768 520.814 537.309 520.641C526.849 520.469 518.516 508.573 518.746 494.034C518.976 479.494 527.654 467.886 538.113 468.001C548.572 468.116 557.192 480.299 556.675 494.608Z" fill="#363A5A"/>
<path d="M548.979 480.816C549.553 486.563 547.312 491.333 543.921 491.677C540.531 492.022 537.312 487.77 536.68 482.138C536.048 476.506 538.347 471.621 541.738 471.276C545.128 470.932 548.404 475.184 548.979 480.816Z" fill="white"/>
<path d="M463.352 639.198C481.138 638.982 498.318 632.701 512.049 621.394C525.781 610.087 535.241 594.432 538.865 577.017C539.185 575.493 538.886 573.904 538.035 572.6C537.184 571.296 535.849 570.384 534.325 570.064C532.801 569.744 531.212 570.042 529.908 570.894C528.604 571.745 527.691 573.08 527.371 574.604C524.526 589.41 516.652 602.778 505.082 612.446C493.512 622.113 478.958 627.486 463.881 627.655C448.805 627.824 434.134 622.779 422.35 613.373C410.567 603.967 402.395 590.779 399.218 576.041C398.775 574.664 397.829 573.506 396.569 572.796C395.31 572.086 393.829 571.877 392.422 572.211C391.015 572.544 389.786 573.396 388.979 574.596C388.172 575.796 387.848 577.255 388.069 578.684C391.87 595.56 401.202 610.681 414.582 621.645C427.962 632.609 444.622 638.787 461.916 639.198H463.352Z" fill="#363A5A"/>
<path opacity="0.19" d="M423.285 379.857C448.053 371.812 462.593 348.192 455.754 327.102C448.915 306.011 423.227 295.494 398.286 303.54C373.345 311.585 358.978 335.205 365.817 356.295C372.655 377.386 398.516 387.96 423.285 379.857Z" fill="#8C8B8B"/>
<path opacity="0.19" d="M207.895 598.809C212.55 615.015 225.825 625.474 237.548 622.083C249.272 618.693 255.076 602.889 250.478 586.683C245.881 570.477 232.549 560.018 220.768 563.409C208.987 566.799 203.24 582.603 207.895 598.809Z" fill="#8C8B8B"/>
<path opacity="0.19" d="M329.957 741.445C339.67 750.87 352.944 752.938 359.955 745.812C366.967 738.686 364.495 725.411 354.783 715.987C345.071 706.562 331.796 704.493 324.843 711.619C317.889 718.745 320.303 732.02 329.957 741.445Z" fill="#8C8B8B"/>
<path opacity="0.19" d="M202.378 488.472C199.619 501.69 205.251 514.045 214.848 515.999C224.445 517.953 234.445 508.873 237.203 495.598C239.962 482.323 234.33 470.025 224.732 468.013C215.135 466.002 205.079 475.369 202.378 488.472Z" fill="#8C8B8B"/>
<path opacity="0.19" d="M620.801 398.131C627.295 413.705 641.719 422.498 652.983 417.785C664.247 413.073 668.154 396.637 661.66 381.063C655.167 365.489 640.742 356.697 629.479 361.409C618.215 366.122 614.479 382.557 620.801 398.131Z" fill="#8C8B8B"/>
<path opacity="0.19" d="M224.274 375.834C218.929 391.81 223.986 407.901 235.767 411.809C247.548 415.717 261.111 406.062 266.513 389.914C271.915 373.766 266.8 357.79 255.019 353.939C243.238 350.089 229.561 359.858 224.274 375.834Z" fill="#8C8B8B"/>
<path d="M300.876 731.847C301.322 731.843 301.76 731.737 302.159 731.538C302.557 731.339 302.905 731.052 303.175 730.698C303.633 730.088 303.829 729.322 303.721 728.568C303.613 727.813 303.21 727.132 302.601 726.675C271.319 703.728 245.659 673.974 227.557 639.659C209.455 605.345 199.385 567.367 198.107 528.592C196.828 489.817 204.375 451.258 220.177 415.826C235.979 380.394 259.623 349.014 289.326 324.056C289.663 323.832 289.949 323.539 290.165 323.197C290.381 322.854 290.522 322.47 290.58 322.07C290.637 321.669 290.609 321.261 290.498 320.872C290.386 320.482 290.194 320.121 289.933 319.812C289.672 319.502 289.349 319.251 288.985 319.075C288.62 318.899 288.223 318.802 287.818 318.79C287.413 318.779 287.011 318.853 286.637 319.007C286.263 319.162 285.926 319.394 285.648 319.688C255.267 345.189 231.077 377.257 214.901 413.473C198.726 449.689 190.988 489.106 192.272 528.749C193.556 568.393 203.828 607.226 222.313 642.32C240.798 677.413 267.014 707.849 298.98 731.33C299.541 731.7 300.205 731.881 300.876 731.847Z" fill="#363A5A"/>
<path d="M323.577 299.344C324.081 299.327 324.574 299.189 325.014 298.942C344.171 287.755 364.708 279.119 386.102 273.254C386.864 273.048 387.513 272.548 387.907 271.864C388.3 271.179 388.406 270.367 388.2 269.605C387.994 268.843 387.494 268.194 386.81 267.8C386.125 267.407 385.313 267.301 384.551 267.507C362.622 273.565 341.582 282.472 321.968 294C321.429 294.32 321.009 294.807 320.773 295.388C320.536 295.969 320.497 296.611 320.659 297.217C320.822 297.823 321.179 298.358 321.674 298.742C322.17 299.127 322.778 299.338 323.405 299.344H323.577Z" fill="#363A5A"/>
</svg>
