<svg width="325" height="302" viewBox="0 0 325 302" fill="none" xmlns="http://www.w3.org/2000/svg">
<path d="M172.465 154.995C171.544 145.769 172.795 133.72 177.753 125.736C178.88 135.796 177.042 145.966 172.465 154.995Z" fill="#3BA8DB"/>
<path d="M182.39 147.05C181.42 137.824 182.72 125.775 187.677 117.801C188.804 127.857 186.966 138.024 182.39 147.05Z" fill="#3BA8DB"/>
<path d="M191.732 138.706C190.762 129.48 192.062 117.431 197.019 109.447C198.137 119.507 196.3 129.674 191.732 138.706Z" fill="#3BA8DB"/>
<path d="M201.278 129.52C201.482 120.178 204.189 108.313 210.01 101.027C209.923 111.17 206.89 121.07 201.278 129.52Z" fill="#3BA8DB"/>
<path d="M208.166 121.66C211.639 112.929 218.246 102.724 226.104 98.1641C222.57 107.592 216.329 115.766 208.166 121.66Z" fill="#3BA8DB"/>
<path d="M204.926 125.473C213.657 121.67 225.774 119.128 235 121.592C225.581 125.837 215.114 127.188 204.926 125.473Z" fill="#3BA8DB"/>
<path d="M197.165 133.233C206.556 130.08 219.371 128.548 228.762 131.904C218.595 135.471 207.596 135.933 197.165 133.233Z" fill="#3BA8DB"/>
<path d="M187.571 142.47C196.961 139.308 209.777 137.785 219.167 141.141C209 144.708 198.002 145.17 187.571 142.47Z" fill="#3BA8DB"/>
<path d="M175.308 152.636C184.699 149.474 197.504 147.951 206.895 151.307C196.732 154.876 185.736 155.339 175.308 152.636Z" fill="#3BA8DB"/>
<path d="M209.602 120.361C209.602 120.361 209.602 120.409 209.505 120.487L209.204 120.856L208.021 122.223C206.992 123.417 205.46 125.134 203.539 127.171C199.658 131.294 194.216 136.872 187.813 142.567C184.602 145.477 181.478 148.087 178.587 150.444C175.696 152.802 173.038 154.839 170.768 156.517C168.498 158.196 166.655 159.525 165.364 160.398L163.861 161.368L163.463 161.63C163.376 161.688 163.327 161.717 163.327 161.707L163.444 161.601L163.822 161.31L165.258 160.301C166.538 159.331 168.362 158.021 170.603 156.314C172.844 154.606 175.454 152.54 178.364 150.192C181.275 147.844 184.359 145.177 187.561 142.315C193.954 136.572 199.455 131.071 203.345 126.996C205.285 124.959 206.837 123.3 207.904 122.146L209.136 120.817L209.466 120.477C209.554 120.39 209.602 120.351 209.602 120.361Z" fill="#263238"/>
<g opacity="0.5">
<path d="M172.466 154.995C171.544 145.769 172.795 133.72 177.753 125.736C178.88 135.796 177.042 145.966 172.466 154.995Z" fill="#13623C"/>
</g>
<g opacity="0.5">
<path d="M182.39 147.05C181.42 137.824 182.72 125.775 187.677 117.801C188.804 127.857 186.966 138.024 182.39 147.05Z" fill="#13623C"/>
</g>
<g opacity="0.5">
<path d="M191.732 138.706C190.762 129.48 192.062 117.431 197.019 109.447C198.137 119.507 196.299 129.674 191.732 138.706Z" fill="#13623C"/>
</g>
<g opacity="0.5">
<path d="M201.279 129.518C201.482 120.176 204.189 108.311 210.01 101.025C209.924 111.169 206.89 121.068 201.279 129.518Z" fill="#13623C"/>
</g>
<g opacity="0.5">
<path d="M208.166 121.662C211.639 112.931 218.246 102.726 226.104 98.166C222.569 107.594 216.329 115.768 208.166 121.662Z" fill="#13623C"/>
</g>
<g opacity="0.5">
<path d="M204.926 125.475C213.657 121.672 225.774 119.13 235 121.594C225.581 125.839 215.114 127.189 204.926 125.475Z" fill="#13623C"/>
</g>
<g opacity="0.5">
<path d="M197.165 133.235C206.556 130.082 219.371 128.549 228.762 131.906C218.594 135.473 207.596 135.935 197.165 133.235Z" fill="#13623C"/>
</g>
<g opacity="0.5">
<path d="M187.57 142.47C196.961 139.308 209.776 137.785 219.167 141.141C209 144.708 198.001 145.17 187.57 142.47Z" fill="#13623C"/>
</g>
<g opacity="0.5">
<path d="M175.308 152.638C184.699 149.476 197.504 147.953 206.895 151.309C196.732 154.878 185.736 155.341 175.308 152.638Z" fill="#13623C"/>
</g>
<path d="M182.109 162.658L171.069 160.475L145.971 133.496L89.879 92.3438V115.772L108.059 117.237L162.89 162.658L166.819 191.51H170.147L167.993 167.421L179.334 178.956L182.458 176.026L172.815 163.628L182.109 162.658Z" fill="#AE7461"/>
<path d="M125.987 169.218L153.616 145.848C153.312 168.251 152.4 190.635 150.88 212.999C150.318 221.255 149.648 229.589 147.078 237.447C146.583 238.97 145.865 240.619 144.381 241.211C142.518 241.958 140.355 240.502 139.608 238.64C139.325 237.925 139.164 237.167 139.132 236.399C138.764 239.949 138.066 243.456 137.047 246.876C136.455 248.816 135.184 251.184 133.166 250.989C131.148 250.795 130.256 248.011 130.091 245.828C128.926 256.289 126.59 266.585 123.125 276.523C122.388 278.628 121.243 281.034 119.041 281.374C117.188 281.674 115.393 280.239 114.656 278.512C114.045 276.727 113.843 274.827 114.064 272.953C115.335 243.762 120.448 197.885 125.987 169.218Z" fill="#3BA8DB"/>
<path d="M199.61 74.358C201.359 72.0185 202.553 69.3121 203.103 66.4433C203.652 63.5745 203.542 60.6183 202.782 57.798L204.557 59.5055C204.491 58.0284 203.987 56.6044 203.109 55.4143C202.232 54.2242 201.021 53.3217 199.629 52.8213L190.52 47.9707L187.842 54.2765L199.61 74.358Z" fill="#FF3E4C"/>
<path d="M186.319 52.1905C189.627 50.9779 193.479 52.4233 195.875 55.0039C198.271 57.5844 199.435 61.0671 200.066 64.5304C201.628 73.0966 200.318 81.9927 197.35 90.1902C194.381 98.3877 189.821 105.887 184.796 112.988C172.272 130.693 128.529 168.867 110.805 181.314C110.805 181.314 107.303 181.935 108.215 178.112C109.127 174.29 127.423 143.993 127.423 143.993L126.773 115.86C126.773 115.86 128.306 93.702 132.468 80.3725C136.63 67.0431 149.736 55.2076 162.745 55.2367C162.745 55.2367 169.109 41.4124 172.534 35.6014C175.958 29.7904 193.139 15.8497 202.908 24.5129C212.677 33.1761 192.567 52.6465 192.567 52.6465L186.319 52.1905Z" fill="#3BA8DB"/>
<path d="M131.42 88.2199C131.498 88.2199 132.293 86.9878 133.748 85.0573C137.54 79.9988 142.205 75.6587 147.524 72.242C149.561 70.9323 150.89 70.2241 150.851 70.1465C150.511 70.2432 150.185 70.3834 149.881 70.5636C149.011 70.9758 148.163 71.4324 147.34 71.9315C144.609 73.5699 142.057 75.4882 139.724 77.6552C137.39 79.8235 135.293 82.2332 133.467 84.8438C132.768 85.8139 132.245 86.6774 131.915 87.2691C131.711 87.5643 131.545 87.8837 131.42 88.2199Z" fill="#263238"/>
<g opacity="0.3">
<path d="M123.116 185.795L122.543 189.268C122.543 189.268 144.449 164.501 148.843 149.318L123.116 185.795Z" fill="black"/>
</g>
<path d="M118.915 175.261L148.843 149.32C142.302 160.487 135.023 171.205 127.054 181.402C125.45 183.687 123.441 185.66 121.127 187.223C120.079 187.854 118.614 188.251 117.751 187.398C117.296 186.82 117.072 186.094 117.12 185.36C117.23 181.925 117.834 178.524 118.915 175.261Z" fill="#3BA8DB"/>
<g opacity="0.3">
<path d="M188.996 72.3709C188.861 71.8787 188.77 71.3755 188.725 70.8672C188.831 71.3619 188.919 71.8664 188.996 72.3709Z" fill="black"/>
<path d="M110.805 181.315C110.805 181.315 107.303 181.936 108.215 178.114C109.126 174.292 127.423 143.995 127.423 143.995V143.907L129.916 139.852C131.915 141.414 133.913 140.347 135.523 138.378C140.743 141.288 144.255 138.048 147.058 134.672C149.542 136.224 153.704 135.37 156.245 133.896C158.787 132.421 160.688 130.093 162.541 127.813C165.704 123.933 168.873 120.026 172.049 116.094C177.103 109.866 183.186 103.987 185.737 96.3909C188.288 88.7948 190.161 79.8988 188.987 72.3707C189.696 74.7376 190.672 77.0159 191.897 79.1615C192.993 80.995 193.11 82.9256 195.089 82.1301C197.068 81.3346 197.766 77.1534 197.592 74.9318C197.126 68.8588 199.29 64.5127 198.63 59.3613C198.688 59.4971 198.737 59.6427 198.795 59.7882L200.493 67.3066C201.206 75.0606 200.137 82.875 197.369 90.153C194.41 98.3408 189.841 105.85 184.815 112.951C172.272 130.694 128.548 168.869 110.805 181.315Z" fill="black"/>
</g>
<path d="M192.945 52.7738L193.915 51.1925L184.66 29.2969C180.353 30.0439 176.414 33.8273 173.504 37.3198C173.39 37.4562 173.31 37.6176 173.271 37.7908C173.231 37.964 173.233 38.1441 173.277 38.3163C173.32 38.4885 173.404 38.648 173.521 38.7817C173.638 38.9153 173.785 39.0194 173.95 39.0854L174.493 39.2697C172.873 40.4424 171.545 41.9728 170.613 43.742C170.513 43.9294 170.459 44.138 170.456 44.3505C170.453 44.5629 170.501 44.7729 170.596 44.963C170.691 45.153 170.83 45.3175 171.002 45.4426C171.174 45.5678 171.373 45.65 171.583 45.6822L173.203 45.8181L170.06 49.9314C169.643 50.4649 169.206 51.2507 169.798 51.7649C169.898 51.8492 170.014 51.9124 170.139 51.9508C170.264 51.9891 170.395 52.0018 170.525 51.988L175.706 51.6C174.976 51.964 174.369 52.534 173.96 53.2395C173.572 54.2678 173.707 53.9962 174.619 54.2096L178.442 53.1328C181.527 52.2791 185.058 51.3963 192.993 52.7641" fill="#FF3E4C"/>
<g opacity="0.3">
<path d="M179.732 40.1016C180.222 42.6248 181.633 44.8758 183.69 46.4171C185.759 47.9454 188.317 48.66 190.878 48.4252L190.937 50.2975C188.196 51.285 185.184 51.2089 182.496 50.0841C181.395 49.667 180.428 48.9556 179.703 48.0275C178.94 46.8851 178.597 45.5137 178.732 44.147C178.872 42.758 179.209 41.396 179.732 40.1016Z" fill="black"/>
</g>
<path d="M182.72 30.2169C183.856 29.0816 185.258 28.2496 186.799 27.7971C188.34 27.3446 189.969 27.2859 191.538 27.6266C192.693 27.9177 193.867 28.4415 195.011 28.1505C195.768 27.9565 196.447 27.4035 197.233 27.452C198.203 27.5005 198.882 28.4221 199.804 28.655C200.949 28.9557 202.171 28.2087 203.316 28.49C203.84 28.6516 204.305 28.9658 204.651 29.3926C204.996 29.8193 205.207 30.3393 205.256 30.8862C205.411 31.9534 205.052 34.4175 203.859 37.5219L189.249 49.1633C187.939 49.1967 186.637 48.943 185.436 48.4202C184.234 47.8973 183.162 47.1179 182.293 46.1366C180.561 44.1454 179.574 41.615 179.499 38.9771C179.409 37.3743 179.648 35.7701 180.202 34.2634C180.756 32.7567 181.613 31.3795 182.72 30.2169Z" fill="#FAFAFA"/>
<path d="M199.843 32.177C199.843 32.177 202.928 30.2367 203.49 34.4277C204.053 38.6186 204.344 44.9341 201.86 50.3474C199.377 55.7606 198.678 56.6629 197.699 55.6539C196.719 54.645 197.029 51.4921 197.029 51.4921C197.029 51.4921 196.311 52.8115 194.361 52.0451C192.411 51.2787 188.774 50.3959 188.094 48.0288C187.415 45.6617 189.86 40.7626 191.82 38.4731C193.779 36.1836 195.729 33.6807 199.843 32.177Z" fill="#263238"/>
<path d="M191.878 38.6571C192.417 39.1717 192.759 39.8576 192.848 40.5973C192.935 41.2667 192.935 42.101 192.955 43.0323C192.955 43.498 192.955 44.0024 193.013 44.5069C193.032 45.0721 193.178 45.6258 193.44 46.127C193.797 46.5835 194.307 46.8967 194.876 47.0098C195.304 47.1789 195.704 47.4146 196.059 47.7083C196.68 48.182 197.093 48.8771 197.214 49.6486C197.302 50.3812 197.223 51.1244 196.981 51.8216C196.981 51.8216 197.165 51.6761 197.33 51.2978C197.562 50.7639 197.646 50.1775 197.572 49.6001C197.53 49.1632 197.401 48.7392 197.192 48.3528C196.984 47.9664 196.701 47.6253 196.36 47.3494C195.97 47.0116 195.528 46.7396 195.05 46.5442C194.587 46.4603 194.168 46.2166 193.867 45.8554C193.652 45.4233 193.533 44.9502 193.517 44.4681C193.517 43.9734 193.459 43.498 193.43 43.0226C193.409 42.1941 193.334 41.3678 193.207 40.5488C193.135 39.9594 192.848 39.4172 192.402 39.0257C192.101 38.7153 191.888 38.6377 191.878 38.6571Z" fill="#3BA8DB"/>
<path d="M200.706 48.1354C201.06 47.4961 201.312 46.8055 201.453 46.0884C202.347 42.6712 202.503 39.1028 201.909 35.6208C201.825 34.8954 201.636 34.1861 201.346 33.5156C201.615 35.9542 201.741 38.4062 201.725 40.8594C201.528 43.3026 201.188 45.7322 200.706 48.1354Z" fill="white"/>
<path d="M195.458 31.5468C195.603 31.6438 196.088 30.8774 196.874 30.3147C197.211 30.0846 197.602 29.9474 198.009 29.917C198.329 29.917 198.543 29.917 198.572 29.917C198.601 29.917 198.436 29.6648 198.048 29.5872C197.795 29.5434 197.537 29.55 197.287 29.6066C197.038 29.6632 196.801 29.7687 196.593 29.917C196.182 30.1911 195.849 30.565 195.623 31.0035C195.458 31.2946 195.399 31.508 195.458 31.5468Z" fill="#263238"/>
<path d="M179.48 38.1623C179.908 38.7963 180.531 39.2732 181.255 39.5205C182.97 40.2152 184.881 40.2498 186.62 39.6175C188.322 38.9962 189.89 38.0543 191.237 36.843C191.835 36.3913 192.365 35.8554 192.809 35.252C192.171 35.6195 191.57 36.0483 191.014 36.5325C189.643 37.6224 188.107 38.4869 186.464 39.0936C184.829 39.6917 183.039 39.7122 181.391 39.1518C180.727 38.8771 180.087 38.546 179.48 38.1623Z" fill="#263238"/>
<path d="M180.071 34.5723C180.581 34.97 181.165 35.2634 181.788 35.4357C183.264 35.943 184.817 36.1893 186.377 36.1633C187.939 36.1341 189.483 35.8253 190.937 35.2514C191.555 35.043 192.126 34.7132 192.615 34.2812C190.609 35.0267 188.504 35.4681 186.367 35.5909C184.23 35.5613 182.109 35.2181 180.071 34.5723Z" fill="#263238"/>
<path d="M133.826 115.278C133.826 115.278 133.826 115.21 133.903 115.055L134.087 114.386C134.262 113.745 134.485 112.882 134.776 111.795C135.378 109.545 136.231 106.285 137.396 102.288C138.56 98.2912 140.005 93.557 141.984 88.4348C144.136 82.8797 147.021 77.6368 150.56 72.8449C154.046 68.015 158.288 63.7793 163.123 60.3013C167.085 57.4851 171.479 55.3324 176.133 53.9275C179.285 52.9759 182.544 52.4186 185.834 52.2686C186.998 52.2686 187.9 52.2686 188.511 52.2686H189.21H189.443C189.365 52.2585 189.287 52.2585 189.21 52.2686L188.511 52.2104C187.9 52.1522 186.998 52.1328 185.834 52.1328C182.529 52.2064 179.248 52.712 176.074 53.6365C171.364 55.0073 166.912 57.1478 162.9 59.9714C158.005 63.455 153.713 67.715 150.192 72.583C146.623 77.4053 143.731 82.693 141.596 88.299C139.656 93.4503 138.22 98.2233 137.095 102.23C135.97 106.237 135.155 109.516 134.631 111.786C134.379 112.882 134.184 113.726 134.039 114.395C133.981 114.677 133.932 114.9 133.903 115.084C133.868 115.145 133.842 115.21 133.826 115.278Z" fill="#263238"/>
<path d="M189.365 79.4609C186.978 90.5688 183.447 101.89 175.783 110.253C175.307 110.883 174.646 111.347 173.892 111.582C173.125 111.747 171.951 111.097 171.951 110.311C171.772 110.865 171.484 111.377 171.103 111.817C170.723 112.257 170.258 112.617 169.736 112.875C169.214 113.133 168.646 113.283 168.065 113.318C167.484 113.352 166.902 113.27 166.354 113.076C164.171 112.106 163.395 109.913 163.569 107.362C163.569 107.362 162.415 110.941 160.581 111.979C159.674 112.527 158.634 112.817 157.574 112.817C156.514 112.817 155.474 112.527 154.567 111.979C153.687 111.393 153.039 110.518 152.735 109.505C152.43 108.492 152.488 107.405 152.898 106.43C151.55 107.585 149.347 107.168 148.047 105.926C146.857 104.573 146.135 102.872 145.991 101.075C145.302 96.4284 146.67 89.9674 148.775 85.7667" fill="#3BA8DB"/>
<path d="M148.766 85.7667C148.667 85.8982 148.586 86.0416 148.523 86.1936C148.368 86.4749 148.164 86.9115 147.922 87.4838C147.227 89.1509 146.688 90.8786 146.311 92.6449C145.669 95.3734 145.492 98.1908 145.787 100.978C145.923 102.725 146.568 104.395 147.64 105.78C148.286 106.51 149.15 107.01 150.104 107.206C150.606 107.326 151.129 107.33 151.633 107.219C152.137 107.109 152.609 106.885 153.015 106.566L152.656 106.285C152.349 106.97 152.215 107.72 152.264 108.469C152.313 109.218 152.544 109.943 152.937 110.582C153.342 111.255 153.899 111.823 154.563 112.242C155.226 112.662 155.978 112.921 156.76 112.998C157.569 113.1 158.39 113.038 159.175 112.816C159.96 112.595 160.692 112.218 161.329 111.708C162.452 110.487 163.29 109.033 163.783 107.449L163.279 107.352C163.125 108.771 163.409 110.203 164.094 111.456C164.532 112.214 165.191 112.821 165.983 113.196C166.775 113.57 167.663 113.694 168.527 113.551C169.355 113.385 170.125 113.006 170.761 112.451C171.397 111.897 171.878 111.186 172.155 110.388L171.661 110.321C171.685 110.529 171.753 110.73 171.86 110.91C171.967 111.09 172.111 111.247 172.281 111.368C172.589 111.605 172.948 111.764 173.329 111.834C173.706 111.861 174.084 111.802 174.435 111.663C174.786 111.523 175.101 111.307 175.357 111.029C175.841 110.557 176.298 110.058 176.725 109.535C177.171 109.04 177.588 108.565 177.976 108.012C179.5 106.044 180.86 103.955 182.041 101.764C183.963 98.1013 185.535 94.2652 186.736 90.3069C187.765 86.9697 188.395 84.2436 188.812 82.3713C189.026 81.4012 189.162 80.7027 189.259 80.2079C189.317 79.9624 189.356 79.7127 189.375 79.4609C189.287 79.6975 189.219 79.9409 189.171 80.1885C189.035 80.7221 188.861 81.4303 188.638 82.3325C188.172 84.1854 187.493 86.8921 186.426 90.2002C185.187 94.1222 183.589 97.9217 181.653 101.551C180.469 103.71 179.113 105.77 177.598 107.711C177.21 108.225 176.802 108.73 176.356 109.215C175.941 109.721 175.497 110.204 175.027 110.66C174.826 110.886 174.577 111.065 174.299 111.182C174.02 111.3 173.719 111.353 173.417 111.339C172.844 111.252 172.204 110.796 172.165 110.301L172.068 109.069L171.68 110.233C171.426 110.942 170.994 111.574 170.424 112.066C169.855 112.559 169.168 112.897 168.43 113.047C167.672 113.167 166.895 113.054 166.202 112.723C165.509 112.392 164.933 111.859 164.55 111.194C163.925 110.026 163.668 108.697 163.812 107.381L163.929 105.548L163.308 107.284C162.846 108.787 162.061 110.171 161.009 111.339C160.424 111.798 159.755 112.137 159.039 112.336C158.323 112.536 157.575 112.593 156.837 112.503C156.131 112.439 155.449 112.21 154.848 111.834C154.246 111.458 153.741 110.946 153.374 110.34C153.01 109.767 152.794 109.113 152.743 108.436C152.692 107.759 152.809 107.08 153.083 106.459L153.578 105.489L152.734 106.217C152.384 106.497 151.975 106.693 151.537 106.788C151.1 106.884 150.646 106.878 150.211 106.77C149.345 106.602 148.558 106.156 147.97 105.499C146.946 104.176 146.323 102.587 146.175 100.92C145.865 98.1762 146.009 95.4 146.602 92.7031C146.946 90.9449 147.436 89.2185 148.067 87.542C148.3 86.96 148.475 86.5137 148.61 86.2227C148.678 86.0764 148.73 85.9236 148.766 85.7667Z" fill="#263238"/>
<path d="M152.646 106.526C153.108 105.672 153.488 104.775 153.781 103.849C154.412 102.171 155.207 99.8228 155.993 97.2035C156.779 94.5842 157.4 92.188 157.797 90.4126C158.063 89.4777 158.239 88.5193 158.321 87.5508C157.955 88.4469 157.663 89.3716 157.448 90.3156C156.905 92.1977 156.236 94.4871 155.508 97.0289C154.78 99.5706 154.024 101.879 153.442 103.703C153.099 104.621 152.833 105.565 152.646 106.526Z" fill="#263238"/>
<path d="M167.79 80.5762C167.653 80.9065 167.556 81.2516 167.499 81.6045C167.353 82.2836 167.159 83.2537 166.965 84.5149C166.558 86.9402 166.121 90.3356 165.646 94.0221C165.17 97.7085 164.676 101.094 164.268 103.5C163.861 105.906 163.444 107.381 163.521 107.381C163.694 107.078 163.822 106.751 163.9 106.411C164.103 105.751 164.365 104.79 164.627 103.587C165.161 101.182 165.675 97.8152 166.16 94.0997C166.645 90.3841 167.014 87.1342 167.324 84.5731C167.47 83.4477 167.596 82.4873 167.693 81.6627C167.775 81.3067 167.807 80.9411 167.79 80.5762Z" fill="#263238"/>
<path d="M179.101 78.0723C179.032 78.5116 179.009 78.9572 179.034 79.4013C179.034 79.8282 179.034 80.3715 178.975 80.9632C178.917 81.555 178.927 82.2535 178.84 83.0199C178.469 86.9837 177.801 90.9141 176.841 94.7778C175.922 98.6557 174.782 102.478 173.426 106.225C172.902 107.671 172.456 108.815 172.117 109.611C171.918 110.008 171.759 110.424 171.641 110.853C171.898 110.487 172.119 110.097 172.301 109.689C172.679 108.922 173.193 107.748 173.766 106.361C175.225 102.63 176.422 98.8019 177.346 94.9039C178.314 91.0115 178.937 87.0412 179.208 83.0393C179.266 82.2729 179.266 81.5744 179.266 80.9632C179.266 80.352 179.266 79.8282 179.266 79.4013C179.251 78.9543 179.195 78.5096 179.101 78.0723Z" fill="#263238"/>
<path d="M148.474 132.944C148.474 132.944 148.562 133.021 148.765 133.138C149.072 133.286 149.399 133.387 149.736 133.439C150.27 133.49 150.81 133.424 151.317 133.244C151.965 133.002 152.578 132.676 153.141 132.274C154.373 131.401 155.915 130.402 157.458 129.092C159.147 127.688 160.726 126.158 162.182 124.513C164.803 121.521 167.227 118.361 169.439 115.055L171.466 112.076C171.729 111.719 171.96 111.339 172.155 110.941C171.837 111.251 171.551 111.592 171.301 111.96C170.777 112.629 170.05 113.619 169.148 114.87C167.324 117.305 164.889 120.74 161.804 124.193C160.356 125.813 158.804 127.336 157.157 128.753C155.644 130.072 154.159 131.071 152.927 132.003C152.401 132.42 151.824 132.769 151.21 133.041C150.739 133.213 150.235 133.279 149.736 133.235C149.308 133.174 148.886 133.077 148.474 132.944Z" fill="#263238"/>
<path d="M135.533 138.375C135.533 138.375 135.621 138.492 135.834 138.686C136.166 138.933 136.528 139.139 136.911 139.297C138.36 139.837 139.952 139.854 141.412 139.346C143.528 138.521 145.384 137.144 146.787 135.358C148.436 133.418 150.143 131.284 151.909 128.985C154.92 125.057 157.719 120.97 160.291 116.742C161.261 115.122 162.027 113.773 162.532 112.861C162.812 112.386 163.055 111.89 163.259 111.377C162.925 111.816 162.623 112.28 162.357 112.764C161.804 113.666 161.009 114.976 159.98 116.577C157.953 119.769 155.004 124.105 151.492 128.703C149.736 130.993 148.038 133.166 146.428 135.077C145.093 136.828 143.324 138.199 141.296 139.055C139.908 139.564 138.39 139.601 136.979 139.161C136.472 138.948 135.988 138.685 135.533 138.375Z" fill="#263238"/>
<path d="M129.363 139.365C129.415 139.505 129.494 139.634 129.596 139.743C129.868 140.08 130.222 140.341 130.624 140.5C131.266 140.749 131.963 140.823 132.642 140.714C133.542 140.557 134.375 140.138 135.038 139.511C135.823 138.769 136.502 137.924 137.056 136.998C137.667 136.028 138.327 134.99 138.996 133.884C140.326 131.672 141.732 129.218 143.149 126.598C145.991 121.369 148.348 116.528 150.036 113.017L151.977 108.835C152.243 108.337 152.461 107.814 152.627 107.273C152.316 107.744 152.041 108.237 151.802 108.748C151.259 109.796 150.551 111.183 149.697 112.852C147.931 116.325 145.525 121.136 142.693 126.356C141.276 128.965 139.889 131.429 138.579 133.641C137.27 135.853 136.183 137.939 134.796 139.239C134.279 139.781 133.621 140.168 132.896 140.357C132.171 140.545 131.408 140.528 130.692 140.306C130.179 140.106 129.723 139.782 129.363 139.365Z" fill="#263238"/>
<path d="M129.053 131.605C129.227 131.107 129.353 130.594 129.431 130.072C129.635 129.102 129.974 127.657 130.401 125.911C132.795 116.794 136.893 108.212 142.479 100.619C143.546 99.1643 144.419 98.0001 145.089 97.2241C145.451 96.8353 145.776 96.4131 146.059 95.9629C145.664 96.3113 145.297 96.6909 144.963 97.0979C144.274 97.8352 143.323 98.9606 142.217 100.396C141.111 101.832 139.86 103.598 138.569 105.625C137.197 107.842 135.941 110.128 134.805 112.474C133.706 114.83 132.735 117.242 131.895 119.702C131.129 121.982 130.527 124.058 130.12 125.823C129.712 127.589 129.421 129.034 129.276 130.034C129.152 130.549 129.077 131.075 129.053 131.605Z" fill="#263238"/>
<path d="M139.452 164.277C139.384 164.546 139.332 164.818 139.297 165.092L138.948 167.459C138.657 169.516 138.259 172.494 137.793 176.19C136.823 183.554 135.708 193.75 134.495 205.013C133.282 216.276 132.167 226.423 131.352 233.845C130.935 237.492 130.605 240.461 130.382 242.576C130.275 243.546 130.188 244.361 130.129 244.953C130.084 245.228 130.064 245.508 130.071 245.787C130.145 245.517 130.197 245.241 130.226 244.962L130.576 242.595C130.876 240.548 131.264 237.57 131.73 233.864C132.7 226.501 133.826 216.305 135.029 205.042C136.231 193.779 137.367 183.641 138.172 176.22C138.589 172.572 138.928 169.594 139.142 167.488C139.249 166.518 139.326 165.694 139.394 165.112C139.437 164.836 139.457 164.557 139.452 164.277Z" fill="#263238"/>
<path d="M144.196 157.314C144.18 157.586 144.18 157.858 144.196 158.129C144.196 158.711 144.196 159.488 144.196 160.458C144.196 162.485 144.196 165.405 144.09 169.024C143.944 176.251 143.479 186.234 142.635 197.235C141.791 208.236 140.85 218.19 140.229 225.369C139.928 228.939 139.695 231.839 139.52 233.915C139.453 234.885 139.394 235.652 139.356 236.234C139.332 236.505 139.332 236.778 139.356 237.049C139.42 236.784 139.462 236.515 139.482 236.244C139.55 235.671 139.627 234.895 139.734 233.925C139.947 231.868 140.248 228.968 140.607 225.407C141.315 218.209 142.314 208.265 143.168 197.274C144.022 186.282 144.429 176.271 144.478 169.034C144.478 165.415 144.478 162.485 144.42 160.458C144.42 159.488 144.361 158.711 144.342 158.129C144.317 157.854 144.268 157.582 144.196 157.314Z" fill="#263238"/>
<path d="M189.307 31.6731C189.312 31.0659 189.144 30.4698 188.823 29.9545C188.501 29.4392 188.04 29.0259 187.493 28.7627L187.182 28.6851C186.667 28.602 186.139 28.647 185.645 28.8162C185.151 28.9854 184.706 29.2735 184.35 29.6553C183.682 30.4017 183.333 31.3806 183.38 32.3813C183.374 33.0227 183.553 33.6523 183.894 34.1954C184.077 34.473 184.316 34.7101 184.594 34.8919C184.873 35.0738 185.186 35.1966 185.514 35.2529C186.243 35.4065 187.004 35.2746 187.638 34.8842C188.136 34.5048 188.543 34.0202 188.832 33.4652C189.12 32.9101 189.282 32.2982 189.307 31.6731Z" fill="#263238"/>
<path d="M188.696 31.6738C188.704 31.2069 188.587 30.7462 188.359 30.3389C188.131 29.9315 187.798 29.5921 187.396 29.3552C187.282 29.2921 187.157 29.2525 187.027 29.2388C186.799 29.1999 186.566 29.1999 186.338 29.2388C185.795 29.3192 185.289 29.5667 184.893 29.947C184.479 30.3821 184.191 30.9214 184.059 31.5075C183.927 32.0935 183.957 32.7042 184.146 33.2745C184.329 33.7881 184.705 34.2101 185.194 34.451C185.683 34.6919 186.246 34.7327 186.765 34.5648C187.339 34.3593 187.818 33.9525 188.114 33.4201C188.464 32.9094 188.665 32.3116 188.696 31.6932C188.715 31.5432 188.788 31.4051 188.901 31.3051C189.014 31.205 189.16 31.1498 189.312 31.1498C189.463 31.1498 189.609 31.205 189.722 31.3051C189.836 31.4051 189.909 31.5432 189.928 31.6932C189.903 32.4959 189.662 33.2769 189.229 33.9536C188.837 34.6298 188.262 35.1814 187.57 35.5446C186.835 35.895 185.999 35.9712 185.213 35.7596C184.427 35.5479 183.742 35.0622 183.282 34.3902C182.868 33.6526 182.668 32.8136 182.706 31.9683C182.744 31.123 183.017 30.3052 183.496 29.6075C183.897 28.9406 184.511 28.4291 185.24 28.1562C185.969 27.8834 186.768 27.8653 187.508 28.1049C188.249 28.3445 188.886 28.8277 189.316 29.4758C189.747 30.1239 189.945 30.8986 189.879 31.6738C189.839 31.7995 189.76 31.9092 189.654 31.987C189.548 32.0649 189.419 32.1068 189.287 32.1068C189.156 32.1068 189.027 32.0649 188.921 31.987C188.814 31.9092 188.736 31.7995 188.696 31.6738Z" fill="#E0E0E0"/>
<g opacity="0.3">
<path d="M187.57 29.9453C187.231 29.7592 186.852 29.6561 186.464 29.6446C186.265 29.6289 186.064 29.6601 185.879 29.736C185.694 29.8118 185.529 29.93 185.397 30.0811C185.135 30.3885 184.97 30.7665 184.922 31.1677C184.88 31.3719 184.896 31.5839 184.97 31.7789C185.011 31.8721 185.08 31.9507 185.166 32.0044C185.253 32.0581 185.354 32.0843 185.455 32.0796C185.698 32.0796 185.843 31.7983 185.931 31.5751C186.018 31.352 186.144 31.0998 186.377 31.0319C186.61 30.964 186.998 31.2356 187.347 31.2356C187.491 31.224 187.627 31.1641 187.733 31.0654C187.839 30.9668 187.908 30.8353 187.929 30.6923C187.94 30.5473 187.912 30.4021 187.849 30.2711C187.786 30.1401 187.69 30.0278 187.57 29.9453Z" fill="white"/>
</g>
<path d="M180.217 43.293C180.233 43.8544 180.394 44.4023 180.682 44.884C181.269 46.1098 182.168 47.16 183.288 47.9296C184.408 48.6991 185.711 49.1609 187.066 49.2689C187.619 49.3585 188.186 49.3085 188.715 49.1234C188.184 49.0142 187.646 48.9397 187.105 48.9003C185.838 48.7065 184.631 48.229 183.574 47.5033C182.517 46.7776 181.638 45.8225 181.003 44.7094C180.768 44.2223 180.506 43.7494 180.217 43.293Z" fill="#263238"/>
<path d="M156.187 72.0391C156.187 72.0391 156.022 72.1749 155.731 72.4659C155.44 72.7569 155.023 73.1838 154.509 73.7853C153.006 75.5115 151.705 77.4024 150.628 79.4217C149.822 80.8585 149.171 82.3772 148.688 83.9521C148.428 84.8833 148.476 85.8733 148.824 86.7752C149.01 87.2757 149.337 87.7115 149.766 88.03C150.195 88.3485 150.706 88.536 151.239 88.5699C151.8 88.5259 152.347 88.3702 152.846 88.112C153.346 87.8538 153.789 87.4982 154.15 87.0662C154.933 86.2488 155.665 85.3837 156.342 84.476C157.815 82.5234 159.053 80.4036 160.029 78.1605L159.631 77.9956C158.918 79.7647 158.607 81.6699 158.719 83.5738C158.773 84.5633 158.956 85.5416 159.262 86.4842C159.401 87.0049 159.667 87.4831 160.036 87.8759C160.405 88.2687 160.866 88.5638 161.377 88.7349C161.919 88.8448 162.48 88.8247 163.012 88.6763C163.545 88.5279 164.035 88.2554 164.443 87.8811C164.827 87.5099 165.184 87.1111 165.51 86.6879C165.872 86.2778 166.196 85.8363 166.48 85.3685C167.364 83.3682 167.94 81.2454 168.187 79.0724H167.702C168.304 81.3134 168.197 83.7969 169.041 86.1834C169.473 87.3965 170.249 88.458 171.272 89.2393C171.786 89.6712 172.4 89.9662 173.058 90.0968C173.716 90.2274 174.397 90.1894 175.036 89.9863C175.731 89.6745 176.351 89.2168 176.853 88.6443C177.355 88.0718 177.728 87.398 177.947 86.6685C178.421 85.3123 178.771 83.9162 178.994 82.497C179.465 79.7583 179.576 76.9698 179.324 74.2024L178.82 74.2606C179.263 76.9363 180.124 79.5258 181.371 81.9343C181.672 82.5164 181.992 83.0887 182.341 83.6417C182.675 84.2271 183.124 84.7386 183.661 85.1454C183.955 85.3418 184.295 85.4608 184.647 85.4913C185 85.5219 185.355 85.4629 185.679 85.32C186.27 85.0063 186.761 84.5322 187.095 83.9521C187.676 82.8707 188.085 81.7056 188.308 80.4985C189.067 77.2284 189.274 73.8543 188.919 70.516L188.531 70.5839C189.428 74.1691 190.795 77.6202 192.596 80.8478C192.776 81.2237 193.039 81.5542 193.365 81.8145C193.691 82.0749 194.071 82.2584 194.478 82.3515C194.888 82.3862 195.297 82.265 195.622 82.0119C195.916 81.7726 196.157 81.4754 196.331 81.1388C196.637 80.5221 196.869 79.8706 197.019 79.1986C197.184 78.5874 197.31 77.9859 197.407 77.4135C197.708 75.6609 197.764 73.8749 197.572 72.107C197.504 71.4958 197.427 71.0398 197.369 70.7294C197.341 70.5747 197.302 70.4223 197.252 70.2734C197.258 70.43 197.278 70.5858 197.31 70.7391C197.31 71.0495 197.407 71.5152 197.456 72.1167C197.596 73.8737 197.504 75.6414 197.184 77.3747C197.08 77.9701 196.944 78.5595 196.777 79.1404C196.622 79.7802 196.391 80.3991 196.088 80.9836C195.959 81.2958 195.739 81.5622 195.457 81.7489C195.176 81.9356 194.845 82.0339 194.507 82.0313C194.15 81.9342 193.819 81.7607 193.535 81.5228C193.252 81.285 193.024 80.9884 192.867 80.6537C191.089 77.4509 189.735 74.0299 188.841 70.4772L188.453 70.5451C188.666 72.6913 188.646 74.8543 188.395 76.9964C188.264 78.1361 188.063 79.2668 187.793 80.3821C187.583 81.5651 187.18 82.7055 186.6 83.7581C186.317 84.2601 185.896 84.6707 185.388 84.9417C185.136 85.0526 184.861 85.0974 184.588 85.0719C184.314 85.0465 184.052 84.9515 183.826 84.7962C183.344 84.4301 182.944 83.9675 182.652 83.438C182.322 82.8947 182.012 82.332 181.682 81.7597C180.464 79.396 179.626 76.8556 179.198 74.2315L178.703 74.2994C178.951 77.0217 178.84 79.7647 178.374 82.4582C178.152 83.8442 177.808 85.2077 177.345 86.5327C177.158 87.1904 176.831 87.8002 176.388 88.3207C175.944 88.8412 175.394 89.2604 174.774 89.5498C174.216 89.7234 173.622 89.7531 173.049 89.6361C172.476 89.519 171.941 89.2591 171.495 88.8804C170.551 88.1557 169.834 87.1762 169.429 86.0573C168.624 83.7969 168.731 81.3328 168.1 78.9948L167.809 77.918L167.605 79.0142C167.364 81.1277 166.812 83.1938 165.966 85.1454C165.71 85.5887 165.415 86.0076 165.083 86.3969C164.789 86.7996 164.465 87.179 164.113 87.5319C163.767 87.8558 163.349 88.094 162.894 88.2271C162.439 88.3602 161.96 88.3846 161.493 88.2983C161.056 88.148 160.663 87.8923 160.349 87.5539C160.034 87.2155 159.807 86.8048 159.689 86.358C159.394 85.4499 159.218 84.5076 159.165 83.5544C159.05 81.7187 159.341 79.8802 160.019 78.1702L159.621 77.9956C158.673 80.2154 157.462 82.313 156.012 84.2432C155.349 85.1416 154.633 86 153.868 86.814C153.221 87.6076 152.287 88.1132 151.268 88.2207C150.802 88.1936 150.354 88.0315 149.979 87.7542C149.603 87.4768 149.316 87.0962 149.153 86.6588C148.824 85.8204 148.777 84.8976 149.018 84.0298C149.47 82.4772 150.081 80.9753 150.842 79.5478C151.887 77.5269 153.142 75.6214 154.586 73.8629C155.091 73.2614 155.488 72.8054 155.76 72.5047C156.032 72.204 156.187 72.0391 156.187 72.0391Z" fill="#263238"/>
<g opacity="0.3">
<path d="M147.717 88.1934C146.747 92.3164 145.874 97.6423 146.456 101.833C146.514 103.133 147.017 104.373 147.882 105.345C149.211 106.558 151.317 106.364 153.005 105.743C152.645 106.684 152.583 107.712 152.828 108.689C153.072 109.666 153.612 110.545 154.373 111.205C155.154 111.842 156.093 112.256 157.09 112.403C158.088 112.55 159.106 112.424 160.038 112.039C161.901 111.282 163.016 109.313 163.521 107.363C163.28 108.522 163.449 109.728 163.999 110.776C164.55 111.823 165.447 112.647 166.538 113.106C168.662 113.882 171.03 112.388 171.903 110.312L172.019 110.429C171.272 111.641 170.738 113.174 169.642 114.086C169.112 114.567 168.474 114.914 167.782 115.098C167.09 115.282 166.364 115.298 165.665 115.143C164.303 114.584 163.19 113.55 162.531 112.233C161.779 113.394 160.682 114.291 159.394 114.797C158.107 115.303 156.693 115.394 155.351 115.056C154.009 114.718 152.807 113.968 151.913 112.912C151.019 111.856 150.478 110.547 150.366 109.167C149.824 109.308 149.255 109.304 148.716 109.156C148.176 109.007 147.685 108.721 147.291 108.323C146.511 107.523 145.932 106.549 145.603 105.481C143.662 100.252 144.991 94.1693 147.717 88.1934Z" fill="black"/>
</g>
<g opacity="0.3">
<path d="M170.991 55.1719C161.048 58.6134 152.377 64.9811 146.118 73.4393C140.006 81.9084 136.213 92.2693 137.095 102.679C142.547 80.2204 152.54 65.6201 169.536 55.8122" fill="black"/>
</g>
</svg>
