<svg width="502" height="618" viewBox="0 0 502 618" fill="none" xmlns="http://www.w3.org/2000/svg">
<path d="M250.6 614.763C136.6 614.763 44 522.463 44 408.163V168.363H457.2V408.063C457.3 522.063 364.9 614.763 250.6 614.763Z" fill="#FFF1E5"/>
<path d="M250.6 586.264C136.6 586.264 44 493.964 44 379.664V408.164C44 522.164 136.3 614.764 250.6 614.764C364.6 614.764 457.2 522.464 457.2 408.164V379.664C457.3 493.564 364.9 586.264 250.6 586.264Z" fill="#FFD7CF"/>
<path d="M250.6 614.763C136.6 614.763 44 522.463 44 408.163V168.363H457.2V408.063C457.3 522.063 364.9 614.763 250.6 614.763Z" stroke="#441A36" stroke-width="6" stroke-miterlimit="10" stroke-linecap="round" stroke-linejoin="round"/>
<path d="M458.901 192.263C458.201 181.163 457.601 169.663 457.301 158.563C319.801 165.063 181.601 164.163 44.4008 152.063C43.4008 164.863 42.8008 177.563 41.8008 190.363C48.0008 195.963 54.6008 201.863 60.8008 207.363C66.0008 209.963 72.9008 213.563 79.1008 216.863C106.601 231.263 144.901 249.563 181.601 256.763C195.001 259.363 209.101 260.663 223.501 260.363C285.401 259.663 337.501 235.163 359.401 224.963C362.701 223.363 365.301 222.063 366.901 221.663C368.201 220.963 369.501 220.663 371.501 220.663C375.401 220.663 380.001 221.663 385.601 222.663C392.801 224.263 401.301 225.963 410.801 225.263C421.601 224.563 431.401 221.363 440.901 215.063C446.501 207.363 452.701 199.863 458.901 192.263Z" fill="#FFD7CF"/>
<g opacity="0.34">
<path opacity="0.34" d="M44.0016 301.664H21.1016V323.264H44.0016V301.664Z" fill="#231A17"/>
<path opacity="0.34" d="M480.201 301.664H457.301V323.264H480.201V301.664Z" fill="#231A17"/>
</g>
<path d="M359.4 47.8635C359.4 47.8635 194 -61.1365 57.2 60.6635C31.7 83.2635 21.5 115.663 21.5 145.463V323.263H44.4V208.663C44.4 200.163 50.3 193.563 57.5 193.563C69.3 193.563 133.1 227.663 187.2 237.163C268.7 251.263 343.1 213.563 359.1 208.063C386.6 198.263 408.9 232.263 443.6 193.963H444.9C452.1 193.963 458 200.863 458 209.063V323.663H480.8V146.463C480.2 107.763 435.6 10.8635 359.4 47.8635Z" fill="#36302E"/>
<path d="M359.4 47.8635C359.4 47.8635 194 -61.1365 57.2 60.6635C31.7 83.2635 21.5 115.663 21.5 145.463V323.263H44.4V208.663C44.4 200.163 50.3 193.563 57.5 193.563C69.3 193.563 133.1 227.663 187.2 237.163C268.7 251.263 343.1 213.563 359.1 208.063C386.6 198.263 408.9 232.263 443.6 193.963H444.9C452.1 193.963 458 200.863 458 209.063V323.663H480.8V146.463C480.2 107.763 435.6 10.8635 359.4 47.8635Z" stroke="#441A36" stroke-width="6" stroke-miterlimit="10" stroke-linecap="round" stroke-linejoin="round"/>
<path d="M219.502 154.263C219.502 154.263 42.0023 165.763 4.40234 71.4634" stroke="#441A36" stroke-width="6" stroke-miterlimit="10" stroke-linecap="round" stroke-linejoin="round"/>
<path d="M244.703 131.663C244.703 131.663 73.8031 120.863 29.2031 26.5635" stroke="#441A36" stroke-width="6" stroke-miterlimit="10" stroke-linecap="round" stroke-linejoin="round"/>
<path d="M457.301 297.764V405.164C480.201 405.164 498.601 381.264 498.601 351.464C498.501 321.664 480.201 297.764 457.301 297.764Z" fill="#FFF1E5"/>
<path d="M457.301 303.664V398.964C470.701 390.164 479.901 372.064 479.901 351.164C479.901 330.464 470.701 312.464 457.301 303.664Z" fill="#FFD7CF"/>
<path d="M457.301 297.764V405.164C480.201 405.164 498.601 381.264 498.601 351.464C498.501 321.664 480.201 297.764 457.301 297.764Z" stroke="#441A36" stroke-width="6" stroke-miterlimit="10" stroke-linecap="round" stroke-linejoin="round"/>
<path d="M44.3016 297.764V405.164C21.4016 405.164 3.0016 381.264 3.0016 351.464C2.8016 321.664 21.4016 297.764 44.3016 297.764Z" fill="#FFF1E5"/>
<path d="M44.3008 305.563C32.5008 315.063 24.3008 332.063 24.3008 351.363C24.3008 370.663 32.2008 387.663 44.3008 397.163V305.563Z" fill="#FFD7CF"/>
<path d="M44.3016 297.764V405.164C21.4016 405.164 3.0016 381.264 3.0016 351.464C2.8016 321.664 21.4016 297.764 44.3016 297.764Z" stroke="#441A36" stroke-width="6" stroke-miterlimit="10" stroke-linecap="round" stroke-linejoin="round"/>
<path d="M242.101 385.164L228.301 430.064C228.301 434.964 244.301 431.064 260.701 434.964" stroke="#441A36" stroke-width="6" stroke-miterlimit="10" stroke-linecap="round" stroke-linejoin="round"/>
<path d="M319.402 468.963C324.302 503.063 280.402 533.163 246.102 526.963" stroke="#441A36" stroke-width="6" stroke-miterlimit="10" stroke-linecap="round" stroke-linejoin="round"/>
<path d="M176.3 347.164C183.921 347.164 190.1 340.583 190.1 332.464C190.1 324.345 183.921 317.764 176.3 317.764C168.678 317.764 162.5 324.345 162.5 332.464C162.5 340.583 168.678 347.164 176.3 347.164Z" stroke="black" stroke-width="2" stroke-miterlimit="10" stroke-linecap="round" stroke-linejoin="round"/>
<path d="M176.3 347.164C183.921 347.164 190.1 340.583 190.1 332.464C190.1 324.345 183.921 317.764 176.3 317.764C168.678 317.764 162.5 324.345 162.5 332.464C162.5 340.583 168.678 347.164 176.3 347.164Z" fill="#441A36"/>
<path d="M128.801 301.363C135.701 293.163 151.701 287.563 170.701 287.563C185.801 287.563 198.901 291.163 207.001 296.763" stroke="#441A36" stroke-width="6" stroke-miterlimit="10" stroke-linecap="round" stroke-linejoin="round"/>
<path d="M326.902 347.164C334.523 347.164 340.702 340.583 340.702 332.464C340.702 324.345 334.523 317.764 326.902 317.764C319.28 317.764 313.102 324.345 313.102 332.464C313.102 340.583 319.28 347.164 326.902 347.164Z" stroke="black" stroke-width="2" stroke-miterlimit="10" stroke-linecap="round" stroke-linejoin="round"/>
<path d="M326.902 347.164C334.523 347.164 340.702 340.583 340.702 332.464C340.702 324.345 334.523 317.764 326.902 317.764C319.28 317.764 313.102 324.345 313.102 332.464C313.102 340.583 319.28 347.164 326.902 347.164Z" fill="#441A36"/>
<path d="M374.403 301.363C367.503 293.163 351.503 287.563 332.503 287.563C317.403 287.563 304.303 291.163 296.203 296.763" stroke="#441A36" stroke-width="6" stroke-miterlimit="10" stroke-linecap="round" stroke-linejoin="round"/>
<path d="M407.803 450.864C407.803 432.764 407.803 414.764 407.803 396.664C303.203 387.664 197.803 387.664 93.2031 396.664C93.2031 414.764 93.2031 432.764 93.2031 450.864C93.2031 525.964 163.603 586.864 250.503 586.864C337.403 586.864 407.803 526.064 407.803 450.864Z" fill="#A4FCEF"/>
<path d="M407.803 450.864C407.803 432.764 407.803 414.764 407.803 396.664C303.203 387.664 197.803 387.664 93.2031 396.664C93.2031 414.764 93.2031 432.764 93.2031 450.864C93.2031 525.964 163.603 586.864 250.503 586.864C337.403 586.864 407.803 526.064 407.803 450.864Z" fill="#A4FCEF"/>
<path d="M250.503 540.163C163.603 540.163 93.2031 491.063 93.2031 430.463C93.2031 437.263 93.2031 444.163 93.2031 450.963C93.2031 526.063 163.603 586.963 250.503 586.963C337.403 586.963 407.803 526.063 407.803 450.863C407.803 444.063 407.803 437.163 407.803 430.363C407.803 490.963 337.403 540.163 250.503 540.163Z" fill="#8FEFDF"/>
<path opacity="0.43" d="M407.803 418.963C303.103 409.963 197.803 409.963 93.2031 418.963" stroke="white" stroke-width="6" stroke-miterlimit="10" stroke-linecap="round" stroke-linejoin="round"/>
<path d="M407.803 450.864C407.803 432.764 407.803 414.764 407.803 396.664C303.203 387.664 197.803 387.664 93.2031 396.664C93.2031 414.764 93.2031 432.764 93.2031 450.864C93.2031 525.964 163.603 586.864 250.503 586.864C337.403 586.864 407.803 526.064 407.803 450.864Z" stroke="#441A36" stroke-width="6" stroke-miterlimit="10" stroke-linecap="round" stroke-linejoin="round"/>
<path d="M131.203 448.264C155.003 460.064 199.503 467.964 250.503 467.964C301.503 467.964 346.003 460.064 369.803 448.264" stroke="#441A36" stroke-width="6" stroke-miterlimit="10" stroke-linecap="round" stroke-linejoin="round"/>
<path d="M144.402 503.764C165.602 515.564 205.202 523.464 250.502 523.464C295.802 523.464 335.502 515.564 356.602 503.764" stroke="#441A36" stroke-width="6" stroke-miterlimit="10" stroke-linecap="round" stroke-linejoin="round"/>
<path d="M407.802 396.764L457.202 301.664V405.164C457.202 405.164 437.802 465.064 395.402 503.764" stroke="#441A36" stroke-width="6" stroke-miterlimit="10" stroke-linecap="round" stroke-linejoin="round"/>
<path d="M93.8023 396.764L44.4023 301.664V405.164C44.4023 405.164 63.8023 465.064 106.202 503.764" stroke="#441A36" stroke-width="6" stroke-miterlimit="10" stroke-linecap="round" stroke-linejoin="round"/>
</svg>
