<svg width="325" height="302" viewBox="0 0 325 302" fill="none" xmlns="http://www.w3.org/2000/svg">
<path d="M77.594 40.5171C72.9324 42.0564 68.2432 43.5544 63.5264 45.0109C58.9398 42.3781 54.3888 39.7059 49.8732 36.9942L52.3777 19.6406C61.4127 20.9432 70.4615 22.0918 79.5242 23.0865C78.8926 28.9006 78.2492 34.7108 77.594 40.5171Z" fill="#FE4C4C" stroke="#343030" stroke-miterlimit="10"/>
<path d="M111.934 43.5488C107.348 45.2856 102.729 46.9809 98.0797 48.6347C93.3708 46.1796 88.7131 43.7008 84.1068 41.1983L85.883 23.7559C94.9615 24.6795 104.04 25.4472 113.118 26.059C112.724 31.8889 112.329 37.7189 111.934 43.5488Z" fill="#FFA403" stroke="#343030" stroke-miterlimit="10"/>
<path d="M146.274 45.1408C141.771 47.067 137.231 48.9537 132.657 50.801C127.861 48.563 123.105 46.2835 118.388 43.9626C118.731 38.1247 119.077 32.2909 119.424 26.4609C128.502 26.9977 137.6 27.3826 146.718 27.6155L146.274 45.1408Z" fill="#13623C" stroke="#343030" stroke-miterlimit="10"/>
<path d="M180.709 45.2833C176.304 47.395 171.848 49.4712 167.34 51.5118C162.458 49.4751 157.607 47.3969 152.787 45.2773L153.089 27.7461C162.191 27.9079 171.295 27.9079 180.401 27.7461C180.504 33.5958 180.607 39.4415 180.709 45.2833Z" fill="#FE4C4C" stroke="#343030" stroke-miterlimit="10"/>
<path d="M215.097 43.9742C210.755 46.2715 206.387 48.5352 201.994 50.7653C197.033 48.9378 192.099 47.0648 187.192 45.1465C187.05 39.3048 186.906 33.463 186.76 27.6212C195.862 27.3962 204.96 27.0153 214.055 26.4785L215.097 43.9742Z" fill="#FFA403" stroke="#343030" stroke-miterlimit="10"/>
<path d="M249.419 41.2256C245.188 43.7084 240.917 46.1536 236.607 48.5614C231.57 46.9431 226.563 45.2774 221.586 43.5643L220.402 26.0745C229.48 25.4667 238.558 24.7029 247.637 23.7832C248.237 29.6052 248.831 35.4194 249.419 41.2256Z" fill="#13623C" stroke="#343030" stroke-miterlimit="10"/>
<path d="M283.635 37.0293C279.502 39.6897 275.332 42.3126 271.124 44.898C266.017 43.4967 260.939 42.0462 255.89 40.5462C255.255 34.736 254.619 28.9278 253.984 23.1216C263.062 22.1269 272.113 20.9803 281.136 19.6816C281.973 25.476 282.806 31.2586 283.635 37.0293Z" fill="#FE4C4C" stroke="#343030" stroke-miterlimit="10"/>
<path d="M41.5487 18C124.596 31.1558 209.196 31.1558 292.244 18" stroke="#343030" stroke-miterlimit="10"/>
<path d="M257.583 60.3438H61.0157V175.206H257.583V60.3438Z" fill="white" stroke="#343030" stroke-miterlimit="10"/>
<path d="M125.684 86.0307V82.5908C125.684 81.7915 125.619 80.6251 125.488 79.0798C125.358 77.5345 125.287 76.4984 125.287 75.9655C125.287 75.4326 125.287 74.7814 125.34 74.0531C125.394 73.3249 125.394 72.7624 125.394 72.3894C125.319 72.6262 125.017 73.8676 124.488 76.1135C123.122 81.9119 122.145 84.8111 121.557 84.8111C121.406 84.8186 121.254 84.7945 121.113 84.7405C120.971 84.6865 120.842 84.6037 120.734 84.4973C120.528 84.2648 120.422 83.9607 120.438 83.6506C120.274 81.8739 119.939 80.1171 119.438 78.4049C118.763 75.7524 118.2 73.7216 117.732 72.3124C117.393 78.6279 117.223 82.9026 117.223 85.1367L117.259 85.9419C117.274 86.1774 117.21 86.4111 117.075 86.605C117.002 86.6884 116.911 86.7529 116.807 86.7931C116.704 86.8333 116.593 86.848 116.483 86.836C116.252 86.8465 116.024 86.7775 115.838 86.6406C115.763 86.5911 115.702 86.5243 115.658 86.446C115.615 86.3677 115.591 86.2801 115.589 86.1906C115.589 84.3591 115.727 81.6159 116.003 77.9608C116.28 74.3057 116.418 71.5645 116.418 69.7369C116.311 69.5712 116.255 69.3776 116.258 69.1804C116.258 69.0784 116.289 68.9789 116.347 68.8952C116.406 68.8116 116.488 68.7478 116.584 68.7126C116.805 68.6056 117.048 68.5509 117.294 68.5528C117.689 68.5528 118.451 70.3566 119.58 73.9643C120.708 77.572 121.411 80.0666 121.687 81.4481C121.764 81.1817 121.93 80.5185 122.179 79.4528C122.427 78.3871 122.694 77.2858 122.972 76.1372C123.25 74.9886 123.564 73.8163 123.89 72.644C124.648 69.9441 125.287 68.5942 125.808 68.5942C126.047 68.5947 126.281 68.6624 126.483 68.7896C126.58 68.8413 126.661 68.9192 126.717 69.0143C126.772 69.1095 126.8 69.2183 126.797 69.3284C126.797 70.625 126.85 72.5611 126.969 75.1366C127.087 77.7121 127.14 79.5831 127.14 80.7495L127.069 83.5855C127.069 83.7868 127.123 84.4262 127.229 85.5038L127.282 86.0248C127.358 86.2132 127.398 86.4139 127.401 86.6169C127.389 86.8656 127.302 87.105 127.152 87.3037C127.085 87.4172 126.988 87.5109 126.873 87.5754C126.757 87.6398 126.627 87.6727 126.495 87.6708C125.962 87.7122 125.684 87.1557 125.684 86.0307Z" fill="#343030"/>
<path d="M134.973 80.8456L135.264 82.4975C135.31 83.0377 135.395 83.5739 135.518 84.102C135.647 84.651 135.732 85.2093 135.773 85.7716C135.794 85.9301 135.761 86.0911 135.681 86.2293C135.601 86.3675 135.477 86.4752 135.329 86.5354C135.024 86.5511 134.72 86.4878 134.447 86.3519C134.335 86.2723 134.248 86.1644 134.193 86.0395C134.137 85.9145 134.117 85.777 134.133 85.6414C134.094 84.525 133.961 83.4139 133.736 82.3198L131.084 81.9232C130.907 82.5657 130.78 83.2209 130.705 83.8829C130.648 84.4043 130.563 84.9221 130.45 85.4341C130.296 86.0973 130 86.4288 129.574 86.4288C129.359 86.4312 129.15 86.3601 128.982 86.2275C128.898 86.1688 128.83 86.0907 128.784 86C128.738 85.9092 128.714 85.8085 128.715 85.7065L128.78 85.4697C129.951 80.9886 130.85 76.4411 131.474 71.852C131.474 71.7336 131.516 71.3724 131.551 70.7745C131.64 69.4601 131.806 68.6252 132.049 68.2641H132.954C133.182 68.2582 133.406 68.3178 133.6 68.4358C133.687 68.4901 133.758 68.5662 133.807 68.6565C133.856 68.7468 133.88 68.8483 133.878 68.9509C133.933 70.9891 134.115 73.0219 134.423 75.0374C134.72 76.961 134.904 78.9004 134.973 80.8456ZM133.564 81.3785C133.503 80.9253 133.477 80.468 133.487 80.0108C133.487 79.3536 133.452 78.5424 133.375 77.5774C133.298 76.6123 133.197 75.4814 133.055 74.2025C132.913 72.9237 132.818 71.9882 132.765 71.408C131.952 75.9196 131.427 79.099 131.19 80.9462C131.945 81.2448 132.752 81.3916 133.564 81.3785Z" fill="#343030"/>
<path d="M139.047 85.878L138.994 83.8116C138.994 83.8116 138.994 83.4978 139.035 82.8939C138.964 82.665 138.822 80.6401 138.609 76.8193C138.396 72.9984 138.279 70.6637 138.259 69.8151H138.153C136.696 69.8151 135.974 69.525 135.974 69.0158C135.979 68.9273 136.008 68.842 136.058 68.7689C136.108 68.6959 136.178 68.6379 136.258 68.6013C136.438 68.4949 136.642 68.4377 136.85 68.4355L140.503 68.6842H140.936C141.528 68.6842 141.776 68.9033 141.776 69.3296C141.778 69.434 141.755 69.5372 141.707 69.6302C141.659 69.7232 141.59 69.8029 141.504 69.8624C141.324 69.9956 141.106 70.0663 140.882 70.0637L139.651 69.8802L139.597 70.1585C139.597 71.8597 139.745 74.4036 140.042 77.7903C140.338 81.1769 140.488 83.7268 140.492 85.4398C140.489 85.5485 140.461 85.6551 140.411 85.7516C140.36 85.848 140.289 85.9317 140.201 85.9964C140.027 86.1527 139.802 86.2392 139.568 86.2391L139.047 85.878Z" fill="#343030"/>
<path d="M144.66 70.1059L144.553 76.82C145.037 76.926 145.532 76.9718 146.027 76.9561H146.998C147.061 76.6706 147.083 76.3775 147.064 76.0858C147.064 75.5885 147.004 74.4872 146.886 72.7939C146.768 71.1006 146.708 69.8335 146.708 68.9632C146.706 68.8667 146.727 68.7712 146.768 68.6839C146.809 68.5966 146.87 68.52 146.945 68.4599C147.064 68.3408 147.221 68.2674 147.389 68.2527C147.505 68.2484 147.621 68.2624 147.733 68.2941C147.832 68.322 147.929 68.3577 148.023 68.4007L148.271 68.4895C148.271 70.8223 148.356 74.2287 148.526 78.7087C148.696 83.1887 148.783 85.5037 148.786 85.6537C148.776 85.7436 148.745 85.8298 148.695 85.9058C148.646 85.9817 148.58 86.0454 148.502 86.0918C148.323 86.2359 148.099 86.3134 147.869 86.3109C147.638 86.3109 147.454 86.1392 147.312 85.7958C147.141 85.308 147.045 84.7969 147.028 84.2801C146.981 83.611 146.951 83.0308 146.933 82.5394C146.933 82.3262 146.933 82.0894 146.933 81.8171C146.933 81.45 146.933 81.0296 146.933 80.5559C146.933 79.7211 146.933 79.2415 146.933 79.1113V79.0047L146.975 78.2291L146.815 77.9804C146.656 78.0173 146.493 78.0352 146.329 78.0337L144.595 77.7851V80.8757L144.754 85.2984C144.758 85.5397 144.69 85.7767 144.559 85.9793C144.496 86.0771 144.408 86.1561 144.303 86.2082C144.199 86.2602 144.083 86.2834 143.967 86.2754C143.612 86.2754 143.375 85.9497 143.227 85.2925C143.07 84.4114 143.001 83.517 143.02 82.6223L143.103 78.5192C143.116 78.0511 143.102 77.5825 143.061 77.116V76.9858C143.132 76.0463 143.168 75.5194 143.168 75.4049L142.984 69.3362C142.982 69.1275 143.061 68.926 143.203 68.7737C143.271 68.6979 143.354 68.6371 143.447 68.5952C143.54 68.5534 143.64 68.5315 143.742 68.531C144.376 68.5014 144.66 69.0402 144.66 70.1059Z" fill="#343030"/>
<path d="M156.069 92.2252H112.765C112.608 92.2252 112.457 92.1628 112.346 92.0517C112.235 91.9407 112.173 91.7901 112.173 91.6331C112.173 91.4761 112.235 91.3255 112.346 91.2144C112.457 91.1034 112.608 91.041 112.765 91.041H156.069C156.226 91.041 156.377 91.1034 156.488 91.2144C156.599 91.3255 156.661 91.4761 156.661 91.6331C156.661 91.7901 156.599 91.9407 156.488 92.0517C156.377 92.1628 156.226 92.2252 156.069 92.2252Z" fill="#343030"/>
<path d="M112.765 90.2175C112.608 90.2175 112.457 90.1552 112.346 90.0441C112.235 89.9331 112.173 89.7825 112.173 89.6255C112.173 89.4684 112.235 89.3179 112.346 89.2068C112.457 89.0958 112.608 89.0334 112.765 89.0334L152.061 88.6367C152.218 88.6367 152.368 88.6991 152.479 88.8101C152.59 88.9212 152.653 89.0718 152.653 89.2288C152.653 89.3858 152.59 89.5364 152.479 89.6474C152.368 89.7585 152.218 89.8209 152.061 89.8209L112.771 90.2175H112.765Z" fill="#343030"/>
<path d="M109.153 77.7894C109.056 77.7889 108.96 77.7645 108.875 77.7183L103.665 74.9119C103.527 74.8373 103.424 74.7109 103.379 74.5605C103.334 74.41 103.35 74.2479 103.425 74.1097C103.5 73.9715 103.626 73.8686 103.776 73.8236C103.927 73.7787 104.089 73.7953 104.227 73.8699L109.437 76.6763C109.554 76.739 109.646 76.8388 109.699 76.9597C109.752 77.0807 109.763 77.2159 109.73 77.3438C109.697 77.4717 109.623 77.5851 109.518 77.6658C109.414 77.7466 109.285 77.7901 109.153 77.7894Z" fill="#343030"/>
<path d="M111.16 74.1829C111.054 74.181 110.949 74.1504 110.858 74.0941L106.85 71.6902C106.772 71.658 106.701 71.6093 106.644 71.5475C106.586 71.4858 106.542 71.4123 106.515 71.3321C106.488 71.2519 106.478 71.1668 106.487 71.0826C106.495 70.9984 106.522 70.917 106.565 70.844C106.607 70.7709 106.665 70.7078 106.734 70.6591C106.804 70.6103 106.882 70.5769 106.966 70.5611C107.049 70.5454 107.134 70.5476 107.217 70.5678C107.299 70.5879 107.376 70.6254 107.442 70.6778L111.456 73.0816C111.59 73.1627 111.687 73.2936 111.725 73.4456C111.762 73.5976 111.738 73.7584 111.658 73.8928C111.606 73.9794 111.534 74.0516 111.447 74.1023C111.36 74.1531 111.261 74.1808 111.16 74.1829Z" fill="#343030"/>
<path d="M153.659 75.7823C153.549 75.782 153.441 75.7509 153.347 75.6923C153.253 75.6338 153.178 75.5502 153.129 75.4511C153.08 75.3519 153.06 75.2411 153.071 75.1312C153.083 75.0212 153.124 74.9166 153.191 74.8291L157.2 69.6188C157.296 69.494 157.437 69.4123 157.593 69.3918C157.749 69.3713 157.907 69.4135 158.032 69.5093C158.156 69.6051 158.238 69.7466 158.259 69.9026C158.279 70.0586 158.237 70.2163 158.141 70.3412L154.133 75.5514C154.077 75.6239 154.005 75.6824 153.923 75.7225C153.841 75.7625 153.751 75.783 153.659 75.7823Z" fill="#343030"/>
<path d="M154.464 80.1938C154.387 80.1942 154.309 80.1793 154.237 80.1498C154.165 80.1204 154.099 80.0769 154.044 80.0221C153.934 79.9111 153.872 79.7611 153.872 79.6047C153.872 79.4482 153.934 79.2982 154.044 79.1872L160.059 73.1718C160.113 73.1098 160.178 73.0595 160.251 73.0239C160.325 72.9884 160.405 72.9684 160.486 72.9653C160.568 72.9621 160.649 72.9759 160.725 73.0056C160.801 73.0354 160.87 73.0806 160.928 73.1383C160.986 73.196 161.031 73.265 161.06 73.3409C161.09 73.4169 161.104 73.4982 161.101 73.5798C161.098 73.6613 161.078 73.7413 161.042 73.8148C161.007 73.8882 160.956 73.9535 160.894 74.0066L154.879 80.0221C154.769 80.1314 154.62 80.1931 154.464 80.1938Z" fill="#343030"/>
<path d="M257.606 170.49H61.0385V175.162H257.606V170.49Z" fill="#343030" stroke="#343030" stroke-miterlimit="10"/>
<path d="M114.251 113.823L114.594 104.392C114.595 104.279 114.625 104.169 114.683 104.072C114.74 103.975 114.822 103.896 114.92 103.841C115.109 103.713 115.331 103.641 115.559 103.634L116.152 104.226V105.842C116.152 109.343 116.126 111.954 116.075 113.675L117.146 113.592C117.886 113.592 118.253 113.835 118.253 114.315C118.253 114.794 117.762 115.138 116.767 115.138C116.371 115.138 116.175 115.238 116.175 115.434C116.175 116.192 116.205 117.21 116.276 118.56C116.269 119.358 116.362 120.154 116.554 120.928C116.509 121.168 116.486 121.412 116.483 121.656C116.474 121.866 116.532 122.074 116.649 122.248V122.841C116.649 123.687 116.359 124.108 115.773 124.108C115.593 124.109 115.417 124.06 115.263 123.967C115.109 123.874 114.984 123.74 114.902 123.581C114.704 123.258 114.598 122.888 114.594 122.509V122.397C114.725 122.003 114.793 121.591 114.796 121.177L114.523 117.903L114.559 116.44C114.561 116.094 114.538 115.747 114.488 115.404L112.451 115.582C111.923 115.555 111.416 115.365 111.001 115.037C110.991 114.599 111.047 114.162 111.166 113.74C111.045 113.108 110.99 112.466 111.001 111.822C111.032 110.669 111.127 109.519 111.285 108.376C111.437 107.245 111.53 106.107 111.563 104.966V98.7492C111.55 98.5735 111.596 98.3986 111.693 98.2518C111.776 98.1453 111.966 98.092 112.256 98.092C112.532 98.0874 112.803 98.1681 113.031 98.3229C113.135 98.3835 113.222 98.4698 113.283 98.5734C113.344 98.6771 113.378 98.7947 113.381 98.915L113.215 101.532V102.124C113.214 102.324 113.237 102.522 113.286 102.716V102.829C113.367 103.512 113.405 104.2 113.398 104.889C113.398 105.665 113.31 107.009 113.132 108.909C112.954 110.81 112.871 112.071 112.871 112.675C112.863 113.102 112.881 113.529 112.925 113.954C113.37 113.954 113.814 113.91 114.251 113.823Z" fill="#343030"/>
<path d="M127.869 114.379L128.218 117.079C128.218 117.208 128.186 117.335 128.125 117.449C128.064 117.563 127.976 117.659 127.869 117.731C127.624 117.897 127.335 117.985 127.04 117.985C126.744 117.986 126.454 117.902 126.205 117.742C126.095 117.687 126.001 117.602 125.935 117.498C125.868 117.394 125.831 117.274 125.826 117.15L125.589 113.876V113.628L123.523 113.776C122.469 113.776 121.942 113.42 121.942 112.71C121.945 112.492 122.025 112.282 122.167 112.118C122.24 112.033 122.331 111.965 122.433 111.919C122.536 111.872 122.647 111.85 122.759 111.851L124.956 111.97C125.241 111.971 125.526 111.949 125.808 111.905L125.589 109.436C125.589 108.192 125.992 107.577 126.773 107.577C126.901 107.573 127.028 107.595 127.146 107.643C127.264 107.691 127.371 107.763 127.46 107.855C127.633 108.043 127.727 108.292 127.721 108.548V108.956C127.721 110.963 127.88 111.97 128.212 111.97L130.367 111.84C131.652 111.84 132.291 112.177 132.291 112.858C132.294 112.984 132.267 113.108 132.214 113.222C132.16 113.336 132.082 113.436 131.984 113.515C131.779 113.693 131.515 113.789 131.243 113.782L129.053 113.586C128.289 113.586 127.869 113.847 127.869 114.379Z" fill="#343030"/>
<path d="M136.608 108.999C136.608 101.255 137.938 97.3828 140.598 97.3828C140.812 97.3883 141.019 97.4607 141.19 97.59C141.281 97.6512 141.355 97.7342 141.406 97.8314C141.457 97.9286 141.482 98.037 141.48 98.1466C141.467 98.2844 141.42 98.4168 141.343 98.5323C141.267 98.6479 141.164 98.7431 141.042 98.8097C140.748 99.0141 140.412 99.1516 140.059 99.2123C139.746 99.4847 139.467 100.266 139.207 101.545C138.804 103.632 138.551 105.745 138.449 107.868C138.644 107.833 138.842 107.815 139.041 107.815C141.488 107.815 142.927 110.578 143.357 116.104C143.458 117.247 143.505 118.23 143.505 119.064C143.505 119.899 143.505 120.468 143.47 120.793C143.439 121.161 143.369 121.524 143.262 121.877C143.175 122.23 143.011 122.559 142.783 122.842C142.492 123.144 142.138 123.377 141.745 123.524C141.353 123.672 140.933 123.73 140.515 123.694C138.183 123.564 136.888 120.209 136.631 113.629L136.608 108.999ZM140.782 122.279C141.421 122.279 141.747 121.522 141.747 119.994C141.734 118.278 141.623 116.564 141.415 114.861C140.981 111.119 140.255 109.145 139.236 108.94C138.939 109.113 138.708 109.379 138.579 109.698C138.467 110.033 138.415 110.386 138.425 110.74C138.425 111.154 138.425 111.545 138.425 111.924C138.425 112.303 138.425 112.83 138.461 113.499C138.496 114.168 138.514 114.802 138.561 115.4C138.609 115.998 138.668 116.643 138.745 117.342C138.804 117.968 138.901 118.591 139.035 119.207C139.153 119.757 139.296 120.272 139.45 120.752C139.781 121.77 140.225 122.273 140.782 122.279Z" fill="#343030"/>
<path d="M149.775 110.811L148.36 110.858C146.868 110.858 146.122 110.539 146.122 109.887C146.119 109.784 146.138 109.682 146.178 109.587C146.217 109.492 146.277 109.407 146.353 109.337C146.518 109.198 146.73 109.126 146.945 109.136H153.612C155.538 109.136 156.499 109.432 156.495 110.024C156.491 110.616 155.185 110.912 152.576 110.912C151.463 110.912 150.58 110.876 149.923 110.811H149.775ZM155.453 113.955L147.614 113.789C146.62 113.789 146.122 113.546 146.122 113.049C146.118 112.946 146.136 112.843 146.176 112.748C146.216 112.653 146.276 112.568 146.353 112.499C146.518 112.358 146.729 112.284 146.945 112.291H152.522C155.053 112.291 156.316 112.587 156.312 113.179C156.316 113.285 156.297 113.391 156.255 113.488C156.213 113.586 156.149 113.672 156.069 113.742C155.895 113.886 155.674 113.962 155.447 113.955H155.453Z" fill="#343030"/>
<path d="M164.18 121.502H163.298C163.053 121.52 162.808 121.473 162.588 121.366C162.511 121.304 162.45 121.224 162.412 121.133C162.374 121.042 162.359 120.943 162.369 120.845C162.369 120.596 162.416 120.431 162.511 120.359C162.734 120.269 162.976 120.235 163.215 120.259C163.6 120.259 163.807 120.111 163.807 119.809C163.807 118.048 163.657 115.429 163.357 111.952C163.057 108.475 162.907 105.909 162.907 104.255L162.955 103.272C162.955 102.432 162.611 102.011 161.925 102.011L161.244 102.041C160.687 102.041 160.403 101.845 160.403 101.449C160.403 100.975 161.202 100.744 162.771 100.744C163.6 100.744 164.103 100.892 164.287 101.188C164.18 101.628 164.122 102.079 164.115 102.532C164.149 103.286 164.224 104.037 164.34 104.782C164.485 105.812 164.56 106.85 164.565 107.89C164.565 108.873 164.672 110.774 164.879 113.604C165.086 116.434 165.199 118.554 165.199 119.975V120.14C165.666 120.093 166.028 120.063 166.288 120.063C167.123 120.063 167.543 120.288 167.543 120.732C167.543 121.177 166.424 121.502 164.18 121.502Z" fill="#343030"/>
<path d="M168.65 105.368C168.65 103.173 169.075 101.792 169.923 101.223C170.294 100.987 170.727 100.868 171.167 100.88C174.005 100.88 175.424 105.437 175.424 114.551C175.424 119.046 174.362 121.294 172.238 121.294C170.66 121.294 169.604 119.104 169.071 114.722C168.745 111.615 168.605 108.491 168.65 105.368ZM170.184 108.411L170.486 111.034C170.459 113.381 170.677 115.724 171.137 118.026C171.445 119.4 171.907 120.087 172.511 120.087C172.801 120.087 173.056 119.82 173.28 119.287C173.534 118.666 173.699 118.012 173.772 117.345C173.938 116.247 174.033 115.14 174.056 114.03C174.056 113.24 174.038 112.482 174.003 111.756C173.967 111.03 173.92 110.171 173.861 109.181C173.799 108.267 173.686 107.358 173.523 106.457C173.379 105.658 173.191 104.867 172.961 104.089C172.487 102.478 171.777 101.614 170.835 101.49C170.586 101.67 170.383 101.908 170.243 102.182C170.13 102.475 170.078 102.787 170.089 103.1L170.184 108.411Z" fill="#343030"/>
<path d="M116.963 158.235H116.43C115.293 158.235 114.725 157.968 114.725 157.435C114.722 157.336 114.748 157.238 114.801 157.154C114.854 157.069 114.93 157.002 115.021 156.962C115.24 156.85 115.485 156.795 115.731 156.802C116.001 156.801 116.265 156.881 116.489 157.033C116.986 156.879 117.377 156.364 117.673 155.487C117.929 154.792 118.075 154.061 118.105 153.32C118.105 152.728 118.105 152.302 118.105 151.994C118.105 151.686 118.105 151.29 118.07 150.81C118.034 150.33 118.017 149.922 117.969 149.626C117.922 149.33 117.863 148.951 117.78 148.536C117.716 148.19 117.617 147.85 117.484 147.524C117.354 147.235 117.204 146.956 117.034 146.689C116.877 146.435 116.676 146.211 116.442 146.026C115.899 145.644 115.252 145.438 114.588 145.434C114.393 145.46 114.193 145.423 114.02 145.327C113.848 145.231 113.71 145.081 113.629 144.901C113.499 144.557 113.437 144.191 113.446 143.824L113.612 142.391C113.518 140.4 113.264 138.42 112.854 136.47L113.387 135.973H115.927C116.791 135.973 117.217 136.209 117.217 136.689V136.843L116.625 137.269H115.85V137.186H114.523C114.575 138.371 114.772 140.605 115.115 143.889C115.163 143.889 115.364 143.918 115.707 143.942L116.453 144.025C116.868 144.074 117.27 144.201 117.638 144.398C118.25 144.905 118.668 145.607 118.822 146.387C119.335 148.117 119.59 149.912 119.58 151.716C119.62 152.705 119.57 153.696 119.432 154.676C119.331 155.035 119.212 155.389 119.076 155.736C118.974 156.053 118.82 156.351 118.62 156.618C118.158 157.242 117.598 157.788 116.963 158.235Z" fill="#343030"/>
<path d="M126.649 150.112L126.939 152.374C126.939 152.486 126.91 152.596 126.855 152.693C126.8 152.791 126.721 152.872 126.625 152.93C126.424 153.071 126.184 153.145 125.938 153.143C125.689 153.146 125.444 153.076 125.234 152.942C125.139 152.893 125.059 152.819 125.003 152.729C124.947 152.638 124.916 152.534 124.914 152.427L124.719 149.686V149.478L122.984 149.603C122.102 149.603 121.664 149.301 121.664 148.703C121.661 148.515 121.728 148.334 121.853 148.194C121.916 148.121 121.994 148.063 122.082 148.025C122.171 147.987 122.266 147.97 122.362 147.975L124.204 148.069C124.442 148.071 124.679 148.053 124.914 148.016L124.737 145.944C124.737 144.908 125.068 144.387 125.737 144.387C125.847 144.379 125.958 144.396 126.06 144.437C126.163 144.478 126.255 144.542 126.329 144.624C126.404 144.702 126.463 144.795 126.502 144.897C126.541 144.998 126.558 145.107 126.554 145.216V145.559C126.554 147.24 126.69 148.081 126.963 148.081L128.774 147.969C129.846 147.969 130.385 148.259 130.385 148.827C130.387 148.933 130.365 149.038 130.32 149.133C130.274 149.229 130.208 149.313 130.124 149.378C129.959 149.519 129.749 149.596 129.532 149.597L127.691 149.449C126.98 149.437 126.649 149.662 126.649 150.112Z" fill="#343030"/>
<path d="M138.97 157.678L134.233 157.945C133.951 157.95 133.673 157.867 133.44 157.708C133.333 157.644 133.244 157.553 133.182 157.444C133.121 157.335 133.09 157.211 133.091 157.086V156.98C133.572 156.436 133.943 155.805 134.186 155.121C134.482 154.359 134.679 153.856 134.778 153.611C135.855 151.512 136.741 149.32 137.425 147.063C138.02 144.968 138.313 142.799 138.295 140.621C138.295 138.318 137.798 137.122 136.803 137.068C136.46 137.234 136.211 137.66 136.104 138.418C135.998 139.176 135.672 139.454 135.175 139.454C134.677 139.454 134.429 139.164 134.429 138.584C134.412 138.171 134.482 137.759 134.633 137.375C134.785 136.99 135.016 136.642 135.311 136.352C135.458 136.203 135.633 136.085 135.826 136.004C136.019 135.924 136.227 135.883 136.436 135.884C136.874 135.842 137.317 135.902 137.728 136.06C138.139 136.219 138.507 136.471 138.804 136.796C139.107 137.152 139.336 137.565 139.479 138.01C139.574 138.371 139.645 138.655 139.68 138.862C139.716 139.07 139.74 139.348 139.763 139.679C139.793 140.177 139.805 140.899 139.805 141.846C139.765 143.095 139.582 144.334 139.26 145.541C138.961 146.853 138.566 148.142 138.076 149.395C137.65 150.449 137.105 151.716 136.46 153.19C135.814 154.665 135.341 155.807 135.056 156.583C136.275 156.397 137.506 156.302 138.739 156.299C139.177 156.583 139.396 156.838 139.396 157.063C139.376 157.191 139.327 157.313 139.253 157.419C139.179 157.526 139.083 157.614 138.97 157.678Z" fill="#343030"/>
<path d="M144.601 147.115L143.416 147.157C142.173 147.157 141.545 146.89 141.545 146.346C141.542 146.26 141.556 146.174 141.589 146.094C141.622 146.014 141.672 145.942 141.735 145.884C141.876 145.763 142.059 145.701 142.244 145.712H147.827C149.444 145.712 150.249 145.961 150.249 146.458C150.249 146.956 149.154 147.198 146.963 147.198C146.222 147.208 145.481 147.181 144.743 147.115H144.601ZM149.337 149.75L142.765 149.614C141.93 149.614 141.516 149.407 141.516 149.022C141.512 148.936 141.527 148.85 141.56 148.77C141.592 148.69 141.642 148.619 141.705 148.56C141.848 148.442 142.029 148.38 142.215 148.388H146.886C149.006 148.388 150.065 148.637 150.065 149.134C150.068 149.223 150.051 149.311 150.015 149.392C149.979 149.473 149.925 149.545 149.858 149.602C149.715 149.708 149.539 149.76 149.361 149.75H149.337Z" fill="#343030"/>
<path d="M277.122 149.553L277.56 212.508H281.018V184.491H284.855V212.508H288.454V184.491H292.09V212.508H295.305V184.509H298.265V212.508H301.717V181.039C301.717 181.039 304.405 170.305 300.213 164.55C296.021 158.795 287.945 158.037 287.945 158.037L286.453 147.972L282.699 95.4552L286.133 88.155C286.133 88.155 295.151 86.438 294.724 84.721C294.298 83.004 287.827 83.4362 287.827 83.4362L289.011 79.8186C289.011 79.8186 290.728 79.8186 290.728 78.2911C290.728 76.7635 288.632 76.1892 288.058 76.953C287.483 77.7168 288.058 78.8595 288.058 78.8595L284.937 82.3408L285.577 78.1016C285.577 78.1016 287.104 77.1424 286.53 76.1892C285.956 75.236 283.67 75.5971 283.67 76.7813V77.924L280.935 82.1691C280.935 82.1691 269.656 75.8103 266.483 82.1691C262.338 90.4581 276.643 95.4848 276.643 95.4848L277.122 149.553Z" fill="#FFA90D" fill-opacity="0.62" stroke="#343030" stroke-miterlimit="10"/>
<path d="M285.654 158.422C285.654 158.422 280.29 164.556 281.823 166.859C283.357 169.162 289.106 167.623 289.106 165.71C289.106 163.798 287.572 158.807 285.654 158.422Z" fill="black" fill-opacity="0.6" stroke="#343030" stroke-miterlimit="10"/>
<path d="M297.922 172.247C297.922 172.247 291.024 167.268 291.024 171.483C291.024 175.699 294.476 179.535 296.009 178.766C297.543 177.996 300.213 176.445 297.922 172.247Z" fill="black" fill-opacity="0.6" stroke="#343030" stroke-miterlimit="10"/>
<path d="M285.654 172.247C285.654 172.247 282.202 175.32 283.357 177.233C284.511 179.145 288.721 182.603 288.721 179.536C288.721 176.469 287.957 171.845 285.654 172.247Z" fill="black" fill-opacity="0.6" stroke="#343030" stroke-miterlimit="10"/>
<path d="M266.335 97.2539H272.818" stroke="#343030" stroke-miterlimit="10"/>
<path d="M266.335 99.9785H270.343" stroke="#343030" stroke-miterlimit="10"/>
<path d="M266.335 102.318H272.818" stroke="#343030" stroke-miterlimit="10"/>
<path d="M266.335 105.039H270.343" stroke="#343030" stroke-miterlimit="10"/>
<path d="M266.335 107.373H272.818" stroke="#343030" stroke-miterlimit="10"/>
<path d="M266.335 110.096H270.343" stroke="#343030" stroke-miterlimit="10"/>
<path d="M266.335 112.436H272.818" stroke="#343030" stroke-miterlimit="10"/>
<path d="M266.335 115.16H270.343" stroke="#343030" stroke-miterlimit="10"/>
<path d="M266.335 117.492H272.818" stroke="#343030" stroke-miterlimit="10"/>
<path d="M266.335 120.215H270.343" stroke="#343030" stroke-miterlimit="10"/>
<path d="M266.335 122.555H272.818" stroke="#343030" stroke-miterlimit="10"/>
<path d="M266.335 125.277H270.343" stroke="#343030" stroke-miterlimit="10"/>
<path d="M266.335 127.611H272.818" stroke="#343030" stroke-miterlimit="10"/>
<path d="M266.335 130.334H270.343" stroke="#343030" stroke-miterlimit="10"/>
<path d="M266.335 132.672H272.818" stroke="#343030" stroke-miterlimit="10"/>
<path d="M266.335 135.396H270.343" stroke="#343030" stroke-miterlimit="10"/>
<path d="M266.335 137.729H272.818" stroke="#343030" stroke-miterlimit="10"/>
<path d="M266.335 140.457H270.343" stroke="#343030" stroke-miterlimit="10"/>
<path d="M266.335 142.791H272.818" stroke="#343030" stroke-miterlimit="10"/>
<path d="M266.335 145.514H270.343" stroke="#343030" stroke-miterlimit="10"/>
<path d="M266.335 147.848H272.818" stroke="#343030" stroke-miterlimit="10"/>
<path d="M266.335 150.576H270.343" stroke="#343030" stroke-miterlimit="10"/>
<path d="M266.335 152.91H272.818" stroke="#343030" stroke-miterlimit="10"/>
<path d="M266.335 155.633H270.343" stroke="#343030" stroke-miterlimit="10"/>
<path d="M266.335 157.912H272.818" stroke="#343030" stroke-miterlimit="10"/>
<path d="M266.335 160.637H270.343" stroke="#343030" stroke-miterlimit="10"/>
<path d="M266.335 162.969H272.818" stroke="#343030" stroke-miterlimit="10"/>
<path d="M266.335 165.691H270.343" stroke="#343030" stroke-miterlimit="10"/>
<path d="M266.335 168.031H272.818" stroke="#343030" stroke-miterlimit="10"/>
<path d="M266.335 170.756H270.343" stroke="#343030" stroke-miterlimit="10"/>
<path d="M266.335 173.088H272.818" stroke="#343030" stroke-miterlimit="10"/>
<path d="M266.335 175.816H270.343" stroke="#343030" stroke-miterlimit="10"/>
<path d="M266.335 178.148H272.818" stroke="#343030" stroke-miterlimit="10"/>
<path d="M266.335 180.873H270.343" stroke="#343030" stroke-miterlimit="10"/>
<path d="M266.335 183.211H272.818" stroke="#343030" stroke-miterlimit="10"/>
<path d="M266.335 185.936H270.343" stroke="#343030" stroke-miterlimit="10"/>
<path d="M266.335 188.268H272.818" stroke="#343030" stroke-miterlimit="10"/>
<path d="M266.335 190.992H270.343" stroke="#343030" stroke-miterlimit="10"/>
<path d="M266.335 193.33H272.818" stroke="#343030" stroke-miterlimit="10"/>
<path d="M266.335 196.053H270.343" stroke="#343030" stroke-miterlimit="10"/>
<path d="M266.335 198.387H272.818" stroke="#343030" stroke-miterlimit="10"/>
<path d="M266.335 201.109H270.343" stroke="#343030" stroke-miterlimit="10"/>
<path d="M266.335 203.449H272.818" stroke="#343030" stroke-miterlimit="10"/>
<path d="M266.335 206.174H270.343" stroke="#343030" stroke-miterlimit="10"/>
<path d="M266.335 208.506H272.818" stroke="#343030" stroke-miterlimit="10"/>
<path d="M266.335 211.229H270.343" stroke="#343030" stroke-miterlimit="10"/>
<path d="M283.173 85.4008C283.173 85.9316 283.016 86.4503 282.721 86.8915C282.426 87.3327 282.006 87.6765 281.516 87.8793C281.026 88.0822 280.486 88.1349 279.966 88.0309C279.445 87.927 278.967 87.6709 278.592 87.2953C278.218 86.9196 277.963 86.4411 277.86 85.9205C277.757 85.3998 277.811 84.8603 278.015 84.3703C278.219 83.8804 278.563 83.4619 279.005 83.1679C279.447 82.8739 279.966 82.7176 280.497 82.7188C280.849 82.7188 281.197 82.7882 281.522 82.923C281.848 83.0579 282.143 83.2556 282.391 83.5047C282.64 83.7538 282.837 84.0495 282.971 84.3749C283.105 84.7003 283.174 85.0489 283.173 85.4008Z" fill="white" stroke="#343030" stroke-miterlimit="10"/>
<path d="M280.592 87.8827C281.579 87.8827 282.38 87.0822 282.38 86.0947C282.38 85.1072 281.579 84.3066 280.592 84.3066C279.604 84.3066 278.804 85.1072 278.804 86.0947C278.804 87.0822 279.604 87.8827 280.592 87.8827Z" fill="#343030"/>
<path d="M274.043 94.2304C274.043 94.2304 278.312 92.845 279.402 90.4648L280.988 91.0569" stroke="#343030" stroke-miterlimit="10"/>
<path d="M282.978 100.014C282.978 100.014 280.609 104.78 279.005 105.372C277.4 105.964 276.637 108.332 278.413 110.108C279.537 111.224 280.769 112.225 282.09 113.098L284.032 114.437L282.978 100.014Z" fill="black" fill-opacity="0.6" stroke="#343030" stroke-miterlimit="10"/>
<path d="M276.868 118.913C276.868 118.913 278.016 117.444 279.005 120.624C279.994 123.803 278.608 126.971 280.396 128.362C282.184 129.754 282.978 132.134 281.385 133.72C279.792 135.307 277.093 136 277.093 136L276.868 118.913Z" fill="black" fill-opacity="0.6" stroke="#343030" stroke-miterlimit="10"/>
<path d="M273.25 79.5469C273.25 79.5469 275.435 87.0899 268.294 90.2634" stroke="#343030" stroke-miterlimit="10"/>
<path d="M270.171 83.6793C270.171 83.821 270.129 83.9595 270.05 84.0773C269.972 84.1951 269.86 84.2869 269.729 84.3412C269.598 84.3954 269.454 84.4096 269.315 84.3819C269.176 84.3543 269.048 84.2861 268.948 84.1859C268.848 84.0857 268.78 83.958 268.752 83.8191C268.725 83.6801 268.739 83.5361 268.793 83.4051C268.847 83.2742 268.939 83.1623 269.057 83.0836C269.175 83.0049 269.313 82.9629 269.455 82.9629C269.644 82.9644 269.826 83.0404 269.96 83.1744C270.094 83.3084 270.17 83.4898 270.171 83.6793Z" stroke="#343030" stroke-miterlimit="10"/>
<path d="M285.376 133.088C285.376 133.088 283.374 137.487 281.788 139.476C280.201 141.466 279.798 142.845 281.586 143.84C283.064 144.599 284.588 145.261 286.151 145.823L285.376 133.088Z" fill="black" fill-opacity="0.6" stroke="#343030" stroke-miterlimit="10"/>
<path d="M303.771 70.541H262.634V215.403H303.771V70.541Z" stroke="#343030" stroke-miterlimit="10"/>
<path d="M54.5023 63.902L25.386 65.377L27.339 103.931L56.4553 102.456L54.5023 63.902Z" stroke="#343030" stroke-miterlimit="10"/>
<path d="M42.3539 83.8392C42.3539 83.8392 37.9726 76.5389 34.3254 78.4809C30.6783 80.4229 32.1348 83.105 35.0537 84.3247L37.9726 85.5384C37.9726 85.5384 33.3485 84.3247 32.1348 88.2146C30.921 92.1045 33.5913 93.3242 35.5392 93.5432C37.4871 93.7623 40.6488 91.3585 40.6488 91.3585C40.6488 91.3585 36.2674 95.2484 40.406 97.4391C44.5446 99.6297 48.4345 97.1963 48.695 94.5201C48.8362 92.958 48.5796 91.3855 47.949 89.9494C49.0212 89.804 50.0208 89.3259 50.8068 88.5824C51.5928 87.8388 52.1257 86.8673 52.3303 85.8049C53.3013 81.9149 51.6021 80.2098 48.6773 80.2098C45.7524 80.2098 42.3539 83.8392 42.3539 83.8392Z" fill="#FE4C4C" stroke="#FE4C4C" stroke-miterlimit="10"/>
<path d="M45.7584 88.456C45.7584 89.0333 45.5872 89.5977 45.2664 90.0777C44.9457 90.5577 44.4898 90.9318 43.9565 91.1527C43.4231 91.3737 42.8362 91.4315 42.27 91.3189C41.7038 91.2062 41.1837 90.9282 40.7755 90.52C40.3672 90.1118 40.0892 89.5917 39.9766 89.0255C39.864 88.4593 39.9218 87.8724 40.1427 87.339C40.3636 86.8056 40.7378 86.3498 41.2178 86.029C41.6978 85.7083 42.2621 85.5371 42.8394 85.5371C43.6131 85.5387 44.3546 85.8467 44.9017 86.3938C45.4488 86.9408 45.7568 87.6824 45.7584 88.456Z" fill="white" stroke="#FE4C4C" stroke-miterlimit="10"/>
<path d="M28.4225 70.7429L52.0284 69.5469" stroke="#343030" stroke-miterlimit="10"/>
<path d="M28.683 75.8581L52.2889 74.6621" stroke="#343030" stroke-miterlimit="10"/>
<path d="M57.0899 112.697L28.0419 110.217L24.758 148.68L53.8059 151.16L57.0899 112.697Z" stroke="#343030" stroke-miterlimit="10"/>
<path d="M30.3231 115.947L53.8698 117.954" stroke="#343030" stroke-miterlimit="10"/>
<path d="M29.8849 121.051L53.4376 123.058" stroke="#343030" stroke-miterlimit="10"/>
<path d="M29.4527 126.146L52.9994 128.16" stroke="#343030" stroke-miterlimit="10"/>
<path d="M29.0146 131.252L52.5672 133.265" stroke="#343030" stroke-miterlimit="10"/>
<path d="M28.5824 136.355L52.1291 138.369" stroke="#343030" stroke-miterlimit="10"/>
<path d="M28.1442 141.459L51.6968 143.466" stroke="#343030" stroke-miterlimit="10"/>
<path d="M186.017 238.245C185.746 241.944 185.746 245.659 186.017 249.358C186.473 255.48 186.662 268.062 186.372 271.354C186.082 274.645 184.773 281.579 185.549 282.502C186.325 283.426 190.143 283.586 191.706 282.994C193.269 282.402 194.199 282.846 194.152 281.685C194.104 280.525 193.193 272.561 193.121 270.767C193.05 268.973 196.023 258.689 197.669 252.277C199.315 245.865 198.397 238.914 198.136 237.653C197.876 236.392 197.331 236.096 197.331 236.096C197.331 236.096 191.097 238.357 186.017 238.245Z" fill="#FBE3C4" stroke="#343030" stroke-miterlimit="10"/>
<path d="M191.618 283.761C193.104 283.761 194.223 282.844 194.175 281.683C194.146 280.955 193.749 276.189 193.477 273.986C192.647 274.76 191.599 275.261 190.475 275.419C188.932 275.73 187.329 275.429 186.005 274.578C185.555 277.918 184.489 282.127 185.057 282.802C185.839 283.708 189.948 283.791 191.618 283.761Z" fill="#343030" stroke="#343030" stroke-miterlimit="10"/>
<path d="M191.618 283.762C193.104 283.762 194.223 282.845 194.175 281.684C194.178 281.659 194.178 281.633 194.175 281.607C190.623 282.347 186.644 281.607 184.945 281.246C184.825 281.765 184.866 282.308 185.063 282.803C185.839 283.709 189.948 283.792 191.618 283.762Z" fill="#FBE3C4" stroke="#343030" stroke-miterlimit="10"/>
<path d="M170.137 235.568C170.137 235.568 169.581 246.261 171.588 251.904C173.595 257.546 175.732 271.489 175.193 272.893C174.655 274.296 173.855 278.677 173.263 278.896C172.671 279.115 170.546 279.997 170.575 280.785C170.605 281.572 173.24 283.242 175.223 283.36C177.207 283.479 179.598 284.171 181.274 281.537C182.556 279.517 183.152 277.137 182.973 274.752C182.902 272.975 181.623 270.66 181.582 269.678C181.54 268.695 183.796 255.959 183.761 250.228C183.725 244.497 181.659 237.279 181.659 237.279L170.137 235.568Z" fill="#FBE3C4" stroke="#343030" stroke-miterlimit="10"/>
<path d="M177.887 271.01C176.538 271.97 175.436 273.236 174.672 274.705C174.205 276.481 173.678 278.743 173.263 278.896C172.671 279.121 170.824 278.642 170.575 280.785C170.214 283.905 173.24 283.242 175.223 283.361C177.207 283.479 179.598 284.172 181.274 281.537C182.556 279.517 183.152 277.138 182.973 274.752C182.92 273.426 182.192 271.792 181.789 270.643C181.694 270.513 180.445 269.216 177.887 271.01Z" fill="#343030" stroke="#343030" stroke-miterlimit="10"/>
<path d="M175.223 283.359C177.201 283.477 179.599 284.17 181.274 281.535C182.556 279.515 183.152 277.136 182.973 274.75C182.908 273.976 182.737 273.215 182.464 272.488C181.889 272.429 181.309 272.454 180.741 272.565C179.143 272.885 177.698 273.684 176.259 276.562C174.821 279.439 175.3 281.683 173.222 281.843C171.144 282.003 170.575 280.783 170.575 280.783C170.214 283.903 173.263 283.24 175.223 283.359Z" fill="#FBE3C4" stroke="#343030" stroke-miterlimit="10"/>
<path d="M182.737 275.42C182.737 275.42 181.902 273.129 179.338 275.029C176.774 276.93 176.905 280.417 176.005 281.726C175.552 282.355 174.953 282.863 174.258 283.206C174.57 283.289 174.889 283.343 175.211 283.366C177.189 283.484 179.587 284.177 181.262 281.542C182.446 279.694 183.042 277.531 182.973 275.337L182.737 275.42Z" fill="black" fill-opacity="0.6" stroke="#343030" stroke-miterlimit="10"/>
<path d="M166.235 207.286L159.338 232.254C159.338 232.254 173.548 241.757 189.285 240.134C205.022 238.512 215.816 227.014 215.816 227.014L205.661 205.498C205.661 205.498 200.688 209.453 187.443 209.198C174.199 208.944 166.235 207.286 166.235 207.286Z" fill="#FFA403" stroke="#343030" stroke-miterlimit="10"/>
<path d="M167.479 198.936L165.176 210.487C165.176 210.487 170.303 215.223 182.529 214.726C194.756 214.229 206.721 207.236 206.721 207.236L202.903 195.732C202.903 195.732 181.683 203.5 167.479 198.936Z" fill="#FFA403" stroke="#343030" stroke-miterlimit="10"/>
<path d="M189.474 205.681C197.378 204.349 202.026 202.531 204.679 201.092L202.902 195.764C202.902 195.764 181.683 203.532 167.479 198.967L166.626 203.253C169.539 204.657 177.509 207.7 189.474 205.681Z" fill="#343030" stroke="#343030" stroke-miterlimit="10"/>
<path d="M167.651 164.756C167.651 164.756 163.506 177.687 157.615 186.953C154.073 192.541 150.007 197.779 145.472 202.595C145.472 202.595 141.22 202.927 139.551 202.003C137.881 201.08 136.496 203.608 136.04 204.443C135.584 205.278 134.69 207.616 135.365 208.084C136.04 208.552 138.278 211.086 138.888 209.913C139.498 208.741 137.822 207.983 137.822 207.983C137.822 207.983 143.287 209.298 145.697 207.829C155.649 201.79 161.144 195.538 163.459 192.323C165.774 189.108 168.089 185.514 168.089 185.514C168.089 185.514 166.585 195.473 166.005 197.462C165.424 199.452 164.974 200.819 164.974 200.819C164.974 200.819 173.743 206.539 189.066 203.951C204.389 201.364 207.503 196.971 207.503 196.971C207.503 196.971 202.766 185.508 201.399 179.978C200.031 174.448 199.344 169.718 199.344 169.718C199.344 169.718 198.87 157.918 199.551 154.442C200.232 150.967 203.548 143.613 203.453 141.316C203.358 139.019 190.256 123.465 190.256 123.465C190.256 123.465 191.552 118.977 191.505 117.669C191.458 116.36 189.906 114.779 188.87 113.524C187.834 112.269 186.656 111.482 185.513 111.689C184.371 111.896 183.844 110.937 183.074 112.281C182.304 113.625 181.564 115.46 180.646 117.136C179.729 118.811 182.381 119.504 183.086 120.653C183.79 121.801 186.395 125.443 186.638 126.745C186.881 128.048 193.151 149.795 193.151 149.795L167.651 164.756Z" fill="#FBE3C4" stroke="#343030" stroke-miterlimit="10"/>
<path d="M207.527 196.964C207.527 196.964 202.79 185.502 201.422 179.972C200.055 174.442 199.368 169.711 199.368 169.711C199.368 169.711 198.894 157.911 199.575 154.436C200.256 150.96 203.572 143.607 203.477 141.309C203.423 140.036 199.332 134.637 195.721 130.107C193.011 130.915 190.609 132.523 188.829 134.72C190.724 141.386 193.145 149.77 193.145 149.77L167.651 164.755C167.651 164.755 163.506 177.686 157.615 186.952C156.099 189.35 154.554 191.553 153.097 193.506C153.652 195.224 154.728 196.727 156.176 197.805C156.715 198.196 157.2 198.539 157.645 198.841C159.78 196.853 161.728 194.673 163.465 192.328C165.797 189.119 168.095 185.519 168.095 185.519C168.095 185.519 166.591 195.478 166.01 197.467C165.43 199.457 164.974 200.819 164.974 200.819C164.974 200.819 173.743 206.538 189.066 203.951C204.389 201.363 207.527 196.964 207.527 196.964Z" fill="#90DEEA" stroke="#343030" stroke-miterlimit="10"/>
<path d="M183.607 112.843L184.791 117.331C184.832 117.481 184.904 117.621 185.002 117.741C185.101 117.861 185.224 117.96 185.363 118.029C185.502 118.098 185.655 118.137 185.81 118.144C185.966 118.15 186.121 118.123 186.265 118.065C186.408 118.01 186.538 117.926 186.647 117.818C186.755 117.71 186.84 117.58 186.896 117.438C186.952 117.295 186.977 117.142 186.97 116.989C186.964 116.836 186.925 116.686 186.857 116.549L184.72 112.31C184.72 112.31 183.565 111.86 183.607 112.843Z" fill="#FBE3C4" stroke="#343030" stroke-miterlimit="10"/>
<path d="M176.088 125.674C176.088 125.674 172.411 124.016 167.864 129.286C163.317 134.555 162.944 141.63 164.584 145.668C166.224 149.706 165.501 156.326 163.607 158.185C161.712 160.044 158.089 163.827 160.469 165.882C162.849 167.936 166.431 167.119 166.431 167.119C166.431 167.119 162.115 174.023 168.207 178.368C174.3 182.714 176.988 176.545 176.988 176.545C176.988 176.545 180.795 189.523 189.03 186.071C197.266 182.619 193.465 173.91 193.465 173.91C193.465 173.91 200.108 175.953 201.683 170.772C203.258 165.591 200.889 163.253 200.889 163.253C200.889 163.253 206.117 162.548 204.91 157.012C203.702 151.476 199.368 149.848 197.142 147.64C194.915 145.431 192.405 143.566 190.469 136.911C188.533 130.257 186.881 128.847 186.881 128.847C186.881 128.847 189.954 127.74 188.403 125.834C186.851 123.927 180.291 119.919 176.088 125.674Z" fill="#343030" stroke="#343030" stroke-miterlimit="10"/>
<path d="M294.269 282.195H300.213" stroke="#343030" stroke-miterlimit="10"/>
<path d="M26.0544 282.195H283.724" stroke="#343030" stroke-miterlimit="10"/>
</svg>
