<svg width="247" height="125" viewBox="0 0 247 125" fill="none" xmlns="http://www.w3.org/2000/svg">
<path d="M0.565918 5.55647C0.565918 5.55647 135.103 -12.1808 246.434 15.7258C246.434 15.7258 235.999 127.471 119.76 124.899C18.9831 122.682 0.565918 5.55647 0.565918 5.55647Z" fill="#5C4141"/>
<path d="M1.14547 5.98638C1.39591 5.95482 1.73651 5.91245 2.16435 5.86043C3.17518 5.73755 4.67295 5.56085 6.61916 5.3458C10.5116 4.91572 16.1977 4.33228 23.3695 3.71925C37.7132 2.49317 57.9983 1.14881 81.7608 0.676074C129.172 -0.267136 190.398 2.26021 245.891 16.1054C245.868 16.3073 245.836 16.579 245.792 16.9166C245.688 17.7284 245.52 18.9211 245.265 20.4395C244.755 23.4766 243.897 27.8158 242.504 33.0164C239.718 43.4195 234.798 57.2585 226.262 71.0131C209.203 98.4988 177.69 125.68 119.771 124.399C69.6165 123.295 39.9527 93.6127 22.8038 64.1447C14.2283 49.4088 8.79077 34.7378 5.4972 23.7484C3.85069 18.2545 2.74069 13.6831 2.0426 10.4868C1.69357 8.88876 1.44754 7.63462 1.28894 6.78104C1.22885 6.45761 1.1813 6.19169 1.14547 5.98638Z" stroke="black" stroke-opacity="0.6"/>
<path d="M18.0962 8.98568C19.1604 13.3904 27.29 37.6905 74.7963 39.6416C127.062 41.7996 179.239 45.9088 206.436 45.081C222.695 44.608 230.47 30.6251 234.106 19.4211C151.806 0.619599 59.2762 5.40866 18.0962 8.98568Z" fill="white"/>
<path d="M154.555 115.941C154.555 89.6605 126.382 67.4298 90.5827 65.9517C72.6231 64.8972 54.856 70.1228 40.3271 80.7327C50.3294 92.5903 62.7863 102.136 76.8374 108.71C90.8884 115.283 106.199 118.729 121.712 118.809C132.732 119.07 143.747 118.108 154.555 115.941Z" fill="#FB9176"/>
</svg>
