<svg width="1000" height="1000" viewBox="0 0 1000 1000" fill="none" xmlns="http://www.w3.org/2000/svg">
<path d="M591.68 519.065C583.789 532.779 573.612 544.842 561.169 555.24C545.941 568.123 528.302 577.953 508.3 584.75C488.304 591.544 467.264 594.932 445.204 594.932C409.645 594.932 378.054 586.807 350.571 570.435L350.559 570.427C323.338 554.095 301.947 531.622 286.422 503.095L286.416 503.084L286.411 503.074C271.057 474.504 263.34 441.945 263.147 405.513L263.147 405.51C262.955 364.618 272.511 328.358 291.939 296.881C311.333 265.271 338.388 240.664 372.985 223.073C407.627 205.271 447.654 196.537 492.941 196.728C525.253 196.729 556.16 202.02 585.635 212.614C615.259 223.071 641.67 239.819 664.845 262.8C688.146 285.715 706.366 315.787 719.612 352.838C732.903 390.014 739.476 435.158 739.477 488.15M591.68 519.065L734.977 488.159M591.68 519.065C590.418 565.884 581.754 602.94 566.012 630.532C549.2 659.996 524.084 674.569 490.091 674.569C471.365 674.569 455.531 669.947 442.376 660.886M739.477 488.15C739.477 488.153 739.477 488.156 739.477 488.159H734.977M739.477 488.15C739.477 488.147 739.477 488.145 739.477 488.142L734.977 488.159M739.477 488.15C739.667 536.987 733.945 580.904 722.241 619.852L722.239 619.858C710.547 658.577 693.732 691.686 671.731 719.094M734.977 488.159C735.166 536.644 729.484 580.11 717.931 618.557C706.378 656.815 689.806 689.391 668.216 716.284M671.731 719.094C671.733 719.091 671.735 719.089 671.737 719.087L668.216 716.284M671.731 719.094C671.729 719.096 671.727 719.099 671.725 719.102L668.216 716.284M671.731 719.094C649.915 746.506 623.618 767.495 592.863 782.002L592.852 782.007L592.842 782.012C562.067 796.335 527.79 803.455 490.091 803.455C448.598 803.455 411.805 795.48 379.83 779.395L379.815 779.388L379.8 779.381C348.128 763.158 322.643 741.281 303.445 713.744L303.438 713.736L303.432 713.727C284.435 686.2 273.1 655.37 269.423 621.313L268.885 616.33H273.897H412.25H415.848L416.639 619.84C420.789 638.241 429.426 651.779 442.376 660.886M668.216 716.284C646.814 743.178 621.056 763.728 590.943 777.932L442.36 660.875C442.365 660.878 442.371 660.882 442.376 660.886" fill="#FE4C4C" stroke="#363A5A" stroke-width="9"/>
</svg>
