<svg width="237" height="236" viewBox="0 0 237 236" fill="none" xmlns="http://www.w3.org/2000/svg">
<path d="M78.9546 146.096L157.621 39.334L168.86 42.1435L157.622 158.739C159.963 160.144 167.666 166.487 168.862 174.191C170.766 186.457 159.36 192.176 147.788 196.667C134.853 201.688 122.965 190.583 112.669 195.263C102.373 199.942 77.2688 198.915 70.526 185.429C63.7831 171.944 73.3355 153.588 78.9546 146.096Z" fill="url(#paint0_linear_713_9168)"/>
<path d="M115.015 176.897C121.758 169.03 134.682 180.175 140.301 186.73C139.365 187.667 134.682 188.978 123.444 186.73C112.206 184.483 109.396 186.73 109.396 186.73C109.396 186.73 108.272 184.764 115.015 176.897Z" fill="#D26B52"/>
<path d="M139.683 159.644C144.834 156.834 155.753 154.525 164.181 165.763C172.328 176.627 166.991 182.62 160.753 190.548" stroke="url(#paint1_linear_713_9168)" stroke-width="1.12381" stroke-linecap="round"/>
<defs>
<linearGradient id="paint0_linear_713_9168" x1="99.563" y1="182.62" x2="171.206" y2="28.0959" gradientUnits="userSpaceOnUse">
<stop stop-color="#F9B18B"/>
<stop offset="1" stop-color="#F9B18B" stop-opacity="0"/>
</linearGradient>
<linearGradient id="paint1_linear_713_9168" x1="138.279" y1="159.643" x2="164.969" y2="175.096" gradientUnits="userSpaceOnUse">
<stop stop-color="#C75C47"/>
<stop offset="1" stop-color="#C75C47" stop-opacity="0"/>
</linearGradient>
</defs>
</svg>
