<svg width="301" height="300" viewBox="0 0 301 300" fill="none" xmlns="http://www.w3.org/2000/svg">
<path fill-rule="evenodd" clip-rule="evenodd" d="M198.197 11.6196L198.164 11.5906C195.796 12.9503 194.013 15.7565 193.673 19.1414C193.334 22.5264 194.525 25.6309 196.576 27.4336C198.945 26.074 200.728 23.2677 201.067 19.8829C201.373 16.8324 200.436 14.0096 198.746 12.1622L198.564 0L198.197 11.6196ZM207.166 37.8831C210.442 35.8891 212.614 32.882 213.343 29.8075L219.543 23.7195L213.478 29.1442C213.529 28.8406 213.566 28.537 213.589 28.2344C210.274 26.8217 205.902 27.1754 202.069 29.5091C198.996 31.3799 196.894 34.1426 196.044 37.0159C195.898 36.5077 195.488 36.092 194.936 35.9657C194.751 35.9233 194.566 35.9171 194.389 35.9425C194.464 33.2891 193.644 30.4088 191.886 27.8382C189.465 24.3002 185.854 22.2065 182.396 21.9598L176.915 13.0734L181.878 22.0279C180.686 25.3995 181.283 29.7024 183.795 33.3737C186.069 36.6981 189.395 38.7473 192.657 39.1873C191.885 42.53 191.04 46.126 190.141 49.9524L189.766 51.5497C189.304 49.0106 188.269 46.4361 186.641 44.0571C183.235 39.0787 178.092 36.207 173.245 36.0504L167.134 26.1427L172.918 36.5785C171.488 41.0907 172.349 46.7344 175.658 51.5705C178.796 56.1577 183.409 58.9563 187.907 59.4903C186.609 65.0599 185.241 71.0067 183.846 77.2764C183.521 73.4526 182.142 69.4702 179.665 65.8499C175.364 59.5631 168.847 55.9633 162.734 55.8344C162.231 57.2128 161.906 58.6853 161.762 60.2142L154.968 49.1982L161.689 61.3264C161.523 65.8748 162.912 70.8288 165.933 75.2445C170.055 81.2712 176.214 84.8287 182.103 85.2262C180.708 91.6838 179.305 98.4354 177.935 105.428C177.628 101.568 176.246 97.5414 173.744 93.8838C169.443 87.597 162.926 83.9972 156.813 83.8683C156.591 84.4769 156.403 85.1038 156.251 85.7458L149.546 74.8756L156.064 86.635C155.102 91.8647 156.374 97.9619 160.011 103.278C164.193 109.39 170.468 112.963 176.432 113.275C175.474 118.396 174.541 123.63 173.649 128.958C173.294 125.195 171.919 121.288 169.485 117.73C165.184 111.443 158.667 107.844 152.553 107.715C152.413 108.1 152.286 108.492 152.174 108.89L145.974 98.8383L151.974 109.665C150.716 115.069 151.924 121.529 155.752 127.125C159.969 133.289 166.316 136.87 172.325 137.129C171.6 141.759 170.911 146.45 170.266 151.192C167.035 174.96 164.918 200.016 165.134 224.853C161.692 210.226 158.26 194.721 156.047 184.572C155.644 179.892 154.93 176.001 153.604 173.256C153.604 173.256 154.544 177.679 156.047 184.572C156.47 189.476 156.552 195.246 156.641 201.471C156.882 218.354 157.17 238.586 164.429 253.972L161.577 251.66C143.839 224.949 125.439 198.138 108.172 174.11C104.134 168.492 100.157 163.024 96.2629 157.743L96.2902 157.769C101.708 154.932 105.941 148.807 106.993 141.263C107.933 134.526 106.124 128.183 102.568 123.904L102.216 111.426L101.999 123.253C101.746 122.978 101.486 122.713 101.218 122.459C95.8002 125.295 91.567 131.42 90.5145 138.965C89.7969 144.108 90.6816 149.021 92.7224 152.962C89.0135 147.975 85.389 143.174 81.8695 138.592C86.6351 135.499 90.2665 129.781 91.2304 122.872C92.1237 116.469 90.5336 110.422 87.3212 106.165L86.9386 92.6239L86.7045 105.393C86.3086 104.925 85.8916 104.483 85.4548 104.068C80.0373 106.905 75.8042 113.029 74.7517 120.574C74.2867 123.906 74.4945 127.143 75.2538 130.08C71.341 125.11 67.5872 120.463 64.025 116.19C68.7377 113.081 72.3219 107.397 73.2785 100.54C74.1598 94.2235 72.6243 88.254 69.4987 84.0066L69.1958 73.2862L69.0109 83.3736C68.5391 82.7892 68.0355 82.2418 67.5023 81.7354C62.085 84.5723 57.8521 90.6968 56.7996 98.241C56.2902 101.892 56.5883 105.427 57.5342 108.581C53.2714 103.711 49.3606 99.5177 45.871 96.1143C45.278 95.5359 44.3283 95.5478 43.7499 96.1408C43.6276 96.2662 43.5317 96.4075 43.4621 96.5578C40.7076 93.3453 36.3108 91.0705 31.2082 90.6331C25.1381 90.1129 19.6097 92.325 16.4345 96.0451C16.4526 96.0756 16.4709 96.1062 16.4893 96.1366L8.56773 94.5688L16.78 96.5956C19.3802 100.521 24.2696 103.394 30.0715 103.892C35.8965 104.391 41.2226 102.374 44.4492 98.9229C56.4661 110.809 73.461 131.951 92.6508 157.901C89.2039 153.914 83.7278 151.093 77.3773 150.549C69.7879 149.899 62.8757 152.664 58.9058 157.316C58.9655 157.416 59.0263 157.516 59.0884 157.616L46.4034 155.105L59.5779 158.357C62.8841 163.085 68.877 166.521 75.9565 167.127C83.546 167.778 90.4582 165.012 94.4281 160.361C94.3927 160.301 94.3569 160.241 94.3206 160.182L94.2921 160.136L94.2533 160.073C97.0948 163.93 99.982 167.889 102.906 171.935C99.8473 169.987 96.1143 168.689 92.0175 168.338C84.4281 167.687 77.5161 170.453 73.5461 175.104L73.5698 175.144L61.5375 172.763L74.0101 175.841C77.2689 180.725 83.3662 184.296 90.5971 184.916C97.6094 185.517 104.044 183.202 108.113 179.177C122.926 199.882 138.507 222.524 153.739 245.307L100.634 202.264C110 217.015 119.962 228.967 129.248 240.107C144.971 258.97 158.756 275.507 164.429 299.375H187.72C194.991 276.151 205.943 260.645 218.473 242.905C225.099 233.524 232.166 223.518 239.364 211.415L222.338 230.01L179.113 274.461C181.398 267.648 184.322 259.704 187.607 251.259C225.315 196.002 247.761 131.831 263.68 86.3204C267.017 76.7783 270.068 68.0566 272.912 60.4093C276.008 62.2365 280.375 62.4616 284.474 60.6638C288.247 59.0086 290.913 56.0247 291.899 52.8188L300.183 49.277L292.039 52.3188C292.069 52.1982 292.097 52.0773 292.123 51.9563C289.026 50.1152 284.646 49.8839 280.536 51.6867C276.766 53.3403 274.102 56.3201 273.113 59.5226C273.084 58.9421 272.717 58.4064 272.138 58.1906C272.053 58.1589 271.967 58.1354 271.88 58.1197C273.002 55.077 272.789 51.2499 271.01 47.7165C269.137 43.9957 265.966 41.4771 262.674 40.6914L261.549 34.5263L262.37 40.6239C262.216 40.5923 262.062 40.5644 261.908 40.5404C260.234 43.7307 260.236 48.117 262.255 52.1252C264.057 55.7046 267.059 58.1714 270.216 59.0533L270.209 59.0725C268.727 63.0507 267.191 67.3122 265.591 71.8222C265.646 68.9034 264.966 65.7926 263.476 62.8336C260.736 57.3921 255.953 53.8448 251.12 53.092C251.021 53.2808 250.926 53.4726 250.836 53.6674L249.192 44.6544L250.509 54.4337C248.875 58.6051 249.123 63.9199 251.59 68.8188C254.2 74.0026 258.664 77.4674 263.259 78.4347C262.47 80.6829 261.665 82.9833 260.843 85.3322L260.802 85.4494L260.802 85.4511L260.801 85.4536L260.794 85.4727L260.793 85.4749L260.755 85.5832L260.744 85.6163C259.613 88.8475 258.45 92.1698 257.253 95.5736C257.443 91.7347 256.606 87.5963 254.63 83.6715C251.336 77.1294 245.68 72.7772 239.878 71.6156L238.301 62.9714L239.454 71.5366C239.364 71.5209 239.273 71.506 239.182 71.4919C236.341 76.9067 236.344 84.3514 239.77 91.1547C243.069 97.7074 248.738 102.063 254.55 103.216C252.302 109.537 249.934 116.098 247.426 122.843C247.687 118.907 246.861 114.636 244.824 110.592C241.398 103.789 235.419 99.3541 229.376 98.4128C229.283 98.5912 229.192 98.7719 229.105 98.9548L227.695 91.2235L228.82 99.5827C226.552 104.87 226.778 111.75 229.964 118.076C233.253 124.608 238.897 128.957 244.691 130.126C242.658 135.479 240.538 140.93 238.32 146.456C238.835 142.217 238.056 137.512 235.823 133.079C232.522 126.523 226.849 122.167 221.035 121.016L219.435 112.245L220.605 120.937C220.529 120.924 220.452 120.912 220.376 120.9C217.534 126.314 217.537 133.759 220.963 140.562C224.275 147.14 229.975 151.505 235.811 152.637C234.048 156.93 232.225 161.26 230.34 165.615C230.365 162.041 229.511 158.247 227.691 154.635C224.383 148.066 218.695 143.704 212.868 142.565L211.236 133.616L211.924 132.94L211.226 133.564L211.087 132.802L211.194 133.593L201.703 142.082C201.755 141.719 201.794 141.356 201.821 140.995C196.195 138.597 188.775 139.197 182.268 143.158C177.975 145.772 174.799 149.411 173.005 153.337C173.082 152.756 173.16 152.175 173.239 151.596C178.589 112.248 187.022 76.3478 193.056 50.6642C194.017 46.5726 194.917 42.7404 195.734 39.1947C199.038 40.5642 203.367 40.1963 207.166 37.8831ZM193.185 237.276C206.161 216.655 217.174 195.1 226.661 173.962C221.188 172.544 215.951 168.313 212.831 162.118C209.405 155.314 209.402 147.87 212.244 142.455C212.292 142.462 212.341 142.47 212.39 142.478L211.201 133.65L201.516 143.161C200.401 148.553 196.658 153.878 190.92 157.371C184.719 161.146 177.686 161.869 172.17 159.852C169.002 185.608 167.292 212.566 168.516 238.884C171.415 250.561 174.014 259.989 175.509 263.004C176.994 261.029 178.458 259.039 179.9 257.034C187.384 242.055 205.291 206.787 215.287 187.121C208.583 201.022 200.451 219.478 193.185 237.276ZM222.338 173.256C222.338 173.256 219.523 178.788 215.287 187.121C217.899 181.705 220.295 176.981 222.338 173.256ZM168.182 159.732C170.278 153.987 169.285 146.609 164.984 140.322C160.786 134.186 154.479 130.61 148.494 130.322L143.326 121.942L148.017 130.406C145.969 136.136 146.975 143.466 151.251 149.717C155.552 156.003 162.069 159.603 168.182 159.732ZM195.422 134.776C188.916 138.737 181.495 139.337 175.87 136.94C176.324 130.842 180.264 124.526 186.77 120.565C193.277 116.604 200.697 116.004 206.323 118.401C206.316 118.492 206.308 118.583 206.3 118.674L215.956 110.037L206.184 119.633C205.327 125.338 201.491 131.081 195.422 134.776ZM180.128 113.095C185.753 115.492 193.174 114.892 199.68 110.931C206.147 106.994 210.079 100.73 210.572 94.6664L219.346 86.0503L210.069 94.3484C204.51 92.1979 197.339 92.8781 191.028 96.7201C184.522 100.681 180.581 106.997 180.128 113.095ZM205.602 82.8983C211.821 79.1117 215.697 73.1727 216.422 67.3293L222.713 61.1512L216.486 66.7212C216.492 66.6548 216.497 66.5885 216.502 66.5221C210.877 64.1245 203.456 64.7248 196.95 68.6858C190.443 72.6469 186.502 78.9635 186.049 85.0619C191.675 87.4596 199.095 86.8593 205.602 82.8983ZM191.748 59.4232C196.247 61.3411 202.182 60.861 207.387 57.6929C212.342 54.676 215.437 49.9507 216.034 45.2945L220.21 41.1942L216.08 44.888C216.089 44.7903 216.098 44.6928 216.105 44.5953C211.605 42.6774 205.67 43.1575 200.466 46.3256C195.262 49.4937 192.11 54.5457 191.748 59.4232ZM276.954 40.0759C278.297 37.3483 280.559 35.4573 282.948 34.7687L285.746 28.2207L283.34 34.6669C283.494 34.6311 283.649 34.6003 283.804 34.5747C285.095 36.9815 285.123 40.3062 283.621 43.3581C282.118 46.41 279.465 48.4146 276.771 48.8592C275.48 46.4524 275.452 43.1278 276.954 40.0759ZM230.876 176.152C232.137 170.168 236.883 164.432 243.859 161.372C250.835 158.312 258.269 158.705 263.526 161.83L263.52 161.858L271.176 158.998L263.416 162.316C262.006 168.123 257.33 173.633 250.543 176.61C243.567 179.67 236.133 179.277 230.876 176.152ZM251.993 139.817C245.017 142.877 240.271 148.613 239.01 154.596C244.266 157.721 251.701 158.114 258.676 155.054C265.517 152.053 270.213 146.48 271.582 140.622L278.743 137.56L271.588 140.233C266.336 137.146 258.937 136.771 251.993 139.817ZM248.01 132.11C249.271 126.126 254.017 120.39 260.993 117.33C267.968 114.271 275.403 114.663 280.659 117.788C280.65 117.832 280.64 117.877 280.63 117.921L288.833 114.858L280.514 118.415C279.063 124.169 274.408 129.614 267.676 132.567C260.701 135.627 253.266 135.235 248.01 132.11ZM270.798 90.4086C263.822 93.4685 259.076 99.2043 257.815 105.188C263.071 108.313 270.506 108.705 277.481 105.646C283.636 102.946 288.056 98.1619 289.877 92.9629L297.661 89.6346L290.037 92.4821C290.207 91.9466 290.35 91.4074 290.464 90.866C285.208 87.7413 277.773 87.3488 270.798 90.4086ZM266.024 80.044C267.032 75.2581 270.828 70.6705 276.408 68.2231C281.987 65.7759 287.933 66.0897 292.137 68.5888L292.127 68.6335L292.116 68.6851L300.184 65.6719L292 69.1708C290.817 73.7438 287.105 78.0617 281.753 80.4096C276.174 82.8568 270.228 82.543 266.024 80.044ZM33.1164 80.5581C36.3081 78.8866 38.802 75.2782 39.4222 70.8333C39.9336 67.1679 39.0637 63.7009 37.278 61.2062L37.0943 54.705L36.9823 60.8127C36.6831 60.4331 36.3614 60.0792 36.019 59.7541C32.8273 61.4255 30.3333 65.034 29.7132 69.4788C29.0931 73.9236 30.5041 78.0768 33.1164 80.5581ZM11.0904 80.2915C13.4295 77.5513 17.5018 75.9218 21.9732 76.3051C26.4444 76.6883 30.18 78.9869 32.0187 82.0851C29.6796 84.8253 25.6073 86.4548 21.1359 86.0715C17.0776 85.7237 13.6253 83.7979 11.6474 81.1285L4.78418 79.4346L11.3725 80.7386C11.2741 80.5915 11.18 80.4425 11.0904 80.2915ZM24.6278 72.416C25.0747 69.7217 24.0311 66.5647 21.6256 64.1592C19.2201 61.7537 16.0633 60.7102 13.3691 61.157C12.9221 63.8512 13.9657 67.0082 16.3713 69.4138C18.7767 71.8192 21.9336 72.8628 24.6278 72.416ZM121.634 159.05C120.581 166.594 116.348 172.719 110.931 175.556C106.497 171.344 104.103 164.295 105.155 156.752C106.208 149.207 110.441 143.083 115.858 140.246L115.922 140.307L115.958 140.342C115.982 140.364 116.005 140.387 116.028 140.41L116.069 140.45L116.261 129.961L116.572 140.967C120.545 145.235 122.628 151.922 121.634 159.05ZM61.6146 132.16C69.204 132.811 75.5445 136.712 78.6651 141.971C74.6951 146.622 67.7831 149.388 60.1938 148.738C52.7133 148.097 46.446 144.297 43.2795 139.152L31.269 136.188L43.4339 138.595C47.4451 134.145 54.2073 131.525 61.6146 132.16ZM60.713 119.639C57.5924 114.38 51.2519 110.478 43.6625 109.828C36.0983 109.18 29.2069 111.925 25.2307 116.548L16.1348 114.748L25.4737 117.053C28.6844 122.079 34.8747 125.774 42.2417 126.405C49.831 127.056 56.743 124.29 60.713 119.639ZM54.8953 83.2037C55.6522 77.7784 54.18 72.6731 51.2975 69.25L51.0817 61.6129L50.949 68.8519C50.7315 68.613 50.5068 68.3833 50.2751 68.1632C45.9423 70.4323 42.5568 75.3307 41.715 81.3647C40.8731 87.3987 42.7887 93.0369 46.3351 96.4051C50.6679 94.1361 54.0535 89.2376 54.8953 83.2037ZM12.2568 59.9611L0.816406 49.66L11.0924 59.818L12.2568 59.9611Z" fill="#E1B258"/>
</svg>
