<svg width="1000" height="1000" viewBox="0 0 1000 1000" fill="none" xmlns="http://www.w3.org/2000/svg">
<path d="M502.76 759.632C671.892 759.632 809 635.874 809 483.21C809 330.547 671.892 206.789 502.76 206.789C333.629 206.789 196.521 330.547 196.521 483.21C196.521 635.874 333.629 759.632 502.76 759.632Z" fill="#8FE3F9"/>
<path d="M502.76 759.632C671.892 759.632 809 635.874 809 483.21C809 330.547 671.892 206.789 502.76 206.789C333.629 206.789 196.521 330.547 196.521 483.21C196.521 635.874 333.629 759.632 502.76 759.632Z" fill="#8FE3F9"/>
<path d="M510.82 754.26C580.799 754.26 645.27 733.71 696.848 699.19L682.744 666.014C653.195 596.305 583.082 550.771 505.313 550.771C427.545 550.771 357.432 596.305 327.882 666.014L316.331 693.415C369.117 731.426 436.947 754.26 510.82 754.26Z" fill="#B2EBF9"/>
<path d="M502.627 460.108L444.065 546.07L488.255 604.901C495.508 614.572 510.149 614.572 517.402 604.901L561.189 546.07L502.627 460.108Z" fill="#A4E0EA"/>
<path d="M502.76 727.396C339.567 727.396 206.326 612.288 197.058 467.092C196.655 472.465 196.521 477.838 196.521 483.21C196.521 635.793 333.657 759.632 502.76 759.632C671.864 759.632 809 635.927 809 483.21C809 477.838 808.866 472.465 808.463 467.092C799.195 612.288 665.82 727.396 502.76 727.396Z" fill="#7AD1E5"/>
<path d="M686.505 672.058C635.33 706.712 571.665 727.396 502.761 727.396C435.603 727.396 373.549 707.92 323.181 674.879L316.465 691.4C369.385 730.62 437.08 754.259 510.954 754.259C577.709 754.259 639.494 734.918 689.863 702.145C692.28 700.533 694.564 698.787 696.981 697.041L686.505 672.058Z" fill="#A4E0EA"/>
<path d="M188.999 484.151C197.595 501.746 209.146 518.133 223.652 532.773C293.9 603.02 407.934 603.02 478.181 532.773C537.011 473.943 546.548 384.623 507.059 315.853" fill="#7AD1E5"/>
<path d="M807.925 505.104C775.69 553.592 720.62 585.425 658.029 585.425C558.635 585.425 478.046 504.835 478.046 405.441C478.046 361.117 494.029 320.554 520.624 289.124" fill="#7AD1E5"/>
<path d="M502.76 759.632C671.892 759.632 809 635.874 809 483.21C809 330.547 671.892 206.789 502.76 206.789C333.629 206.789 196.521 330.547 196.521 483.21C196.521 635.874 333.629 759.632 502.76 759.632Z" stroke="#413D51" stroke-width="16" stroke-miterlimit="10" stroke-linecap="round" stroke-linejoin="round"/>
<path d="M502.627 422.5L444.065 508.462L502.896 586.768L561.323 508.462L502.627 422.5Z" fill="#413D51"/>
<path d="M502.627 422.5L444.065 508.462L502.896 586.768L561.323 508.462L502.627 422.5Z" stroke="#413D51" stroke-width="16" stroke-miterlimit="10" stroke-linecap="round" stroke-linejoin="round"/>
<path d="M635.599 236.607C595.305 217.802 549.503 207.191 501.284 207.191C453.064 207.191 407.263 217.802 366.968 236.607V424.783H635.599V236.607Z" fill="#413D51"/>
<path d="M652.792 255.412L798.793 250.979C777.706 303.766 774.885 383.146 793.286 469.914C769.915 519.342 720.218 554.399 661.791 556.145C578.784 558.697 509.343 493.419 506.925 410.278C504.373 327.271 569.65 257.964 652.792 255.412Z" fill="#413D51"/>
<path d="M652.792 255.412L798.793 250.979C777.706 303.766 774.885 383.146 793.286 469.914C769.915 519.342 720.218 554.399 661.791 556.145C578.784 558.697 509.343 493.419 506.925 410.278C504.373 327.271 569.65 257.964 652.792 255.412Z" stroke="#413D51" stroke-width="16" stroke-miterlimit="10" stroke-linecap="round" stroke-linejoin="round"/>
<path d="M658.031 556.011C741.114 556.011 808.465 488.66 808.465 405.577C808.465 322.495 741.114 255.144 658.031 255.144C574.95 255.144 507.598 322.495 507.598 405.577C507.598 488.66 574.95 556.011 658.031 556.011Z" fill="#EEE8CE"/>
<path d="M658.031 556.011C741.114 556.011 808.465 488.66 808.465 405.577C808.465 322.495 741.114 255.144 658.031 255.144C574.95 255.144 507.598 322.495 507.598 405.577C507.598 488.66 574.95 556.011 658.031 556.011Z" fill="#EEE8CE"/>
<path d="M764.408 299.199C735.53 270.321 697.653 255.681 659.776 255.144C688.251 260.651 715.517 274.351 737.545 296.513C796.241 355.209 796.241 450.439 737.545 509.269C707.726 539.087 668.506 553.728 629.555 553.325C676.968 562.458 727.739 548.624 764.408 511.955C823.104 453.125 823.104 357.895 764.408 299.199Z" fill="#F7D6A1"/>
<path opacity="0.7" d="M702.517 485.926C746.578 441.866 746.322 370.174 701.947 325.799C657.572 281.423 585.881 281.168 541.82 325.229C497.759 369.29 498.014 440.981 542.389 485.356C586.765 529.732 658.456 529.987 702.517 485.926Z" fill="white"/>
<path d="M784.286 334.255C780.122 328.883 772.063 314.108 767.094 309.138C707.995 250.845 612.765 251.382 554.472 310.616C542.921 322.301 533.653 335.464 526.803 349.567C609.676 320.421 700.473 327.405 784.286 334.255Z" fill="#EFCA92"/>
<path d="M658.031 556.011C741.114 556.011 808.465 488.66 808.465 405.577C808.465 322.495 741.114 255.144 658.031 255.144C574.95 255.144 507.598 322.495 507.598 405.577C507.598 488.66 574.95 556.011 658.031 556.011Z" stroke="#413D51" stroke-width="16" stroke-miterlimit="10" stroke-linecap="round" stroke-linejoin="round"/>
<path d="M658.031 556.011C741.114 556.011 808.465 488.66 808.465 405.577C808.465 322.495 741.114 255.144 658.031 255.144C574.95 255.144 507.598 322.495 507.598 405.577C507.598 488.66 574.95 556.011 658.031 556.011Z" stroke="#413D51" stroke-width="16" stroke-miterlimit="10" stroke-linecap="round" stroke-linejoin="round"/>
<path d="M777.976 314.779C773.812 309.407 769.379 304.168 764.41 299.199C705.714 240.503 610.484 240.503 551.653 299.199C539.968 310.884 530.7 323.913 523.716 337.882C606.992 309.407 694.163 307.258 777.976 314.779Z" fill="#413D51"/>
<path d="M584.83 473.272C615.986 473.272 641.242 448.015 641.242 416.859C641.242 385.704 615.986 360.447 584.83 360.447C553.674 360.447 528.417 385.704 528.417 416.859C528.417 448.015 553.674 473.272 584.83 473.272Z" fill="#413D51"/>
<path d="M552.861 436.065C563.246 436.065 571.665 427.646 571.665 417.261C571.665 406.875 563.246 398.457 552.861 398.457C542.476 398.457 534.057 406.875 534.057 417.261C534.057 427.646 542.476 436.065 552.861 436.065Z" fill="white"/>
<path d="M350.983 255.411L204.848 250.979C225.935 303.765 228.756 383.145 210.355 469.913C233.726 519.341 283.422 554.398 341.85 556.144C424.857 558.696 494.298 493.419 496.716 410.277C499.268 327.27 433.99 257.963 350.983 255.411Z" fill="#413D51"/>
<path d="M350.983 255.411L204.848 250.979C225.935 303.765 228.756 383.145 210.355 469.913C233.726 519.341 283.422 554.398 341.85 556.144C424.857 558.696 494.298 493.419 496.716 410.277C499.268 327.27 433.99 257.963 350.983 255.411Z" stroke="#413D51" stroke-width="16" stroke-miterlimit="10" stroke-linecap="round" stroke-linejoin="round"/>
<path d="M345.611 556.01C428.694 556.01 496.045 488.659 496.045 405.576C496.045 322.494 428.694 255.143 345.611 255.143C262.529 255.143 195.178 322.494 195.178 405.576C195.178 488.659 262.529 556.01 345.611 556.01Z" fill="#EEE8CE"/>
<path d="M345.611 556.01C428.694 556.01 496.045 488.659 496.045 405.576C496.045 322.494 428.694 255.143 345.611 255.143C262.529 255.143 195.178 322.494 195.178 405.576C195.178 488.659 262.529 556.01 345.611 556.01Z" fill="#EEE8CE"/>
<path d="M239.234 299.198C268.112 270.32 305.989 255.68 343.866 255.143C315.391 260.65 288.125 274.35 266.097 296.512C207.401 355.208 207.401 450.438 266.097 509.268C295.915 539.086 335.135 553.727 374.087 553.324C326.673 562.457 275.902 548.623 239.234 511.954C180.538 453.124 180.538 357.894 239.234 299.198Z" fill="#F7D6A1"/>
<path opacity="0.7" d="M461.266 485.384C505.641 441.008 505.896 369.316 461.835 325.256C417.774 281.196 346.083 281.451 301.708 325.826C257.333 370.201 257.077 441.892 301.138 485.953C345.199 530.014 416.89 529.759 461.266 485.384Z" fill="white"/>
<path opacity="0.89" d="M219.488 334.254C223.652 328.882 231.711 314.107 236.681 309.137C295.78 250.844 391.01 251.381 449.303 310.615C460.854 322.3 470.122 335.463 476.972 349.566C393.964 320.42 303.167 327.404 219.488 334.254Z" fill="#EFCA92"/>
<path d="M345.611 556.01C428.694 556.01 496.045 488.659 496.045 405.576C496.045 322.494 428.694 255.143 345.611 255.143C262.529 255.143 195.178 322.494 195.178 405.576C195.178 488.659 262.529 556.01 345.611 556.01Z" stroke="#413D51" stroke-width="16" stroke-miterlimit="10" stroke-linecap="round" stroke-linejoin="round"/>
<path d="M345.611 556.01C428.694 556.01 496.045 488.659 496.045 405.576C496.045 322.494 428.694 255.143 345.611 255.143C262.529 255.143 195.178 322.494 195.178 405.576C195.178 488.659 262.529 556.01 345.611 556.01Z" stroke="#413D51" stroke-width="16" stroke-miterlimit="10" stroke-linecap="round" stroke-linejoin="round"/>
<path d="M225.803 314.778C229.967 309.406 234.399 304.167 239.369 299.198C298.065 240.502 393.295 240.502 452.125 299.198C463.81 310.883 473.078 323.912 480.062 337.881C396.787 309.406 309.481 307.257 225.803 314.778Z" fill="#413D51"/>
<path d="M418.948 473.271C450.104 473.271 475.36 448.014 475.36 416.858C475.36 385.703 450.104 360.446 418.948 360.446C387.792 360.446 362.535 385.703 362.535 416.858C362.535 448.014 387.792 473.271 418.948 473.271Z" fill="#413D51"/>
<path d="M450.916 436.065C461.301 436.065 469.72 427.647 469.72 417.261C469.72 406.876 461.301 398.457 450.916 398.457C440.53 398.457 432.111 406.876 432.111 417.261C432.111 427.647 440.53 436.065 450.916 436.065Z" fill="white"/>
<path d="M430.364 793.212C418.544 793.212 408.873 783.541 408.873 771.721V747.544C408.873 735.724 418.544 726.054 430.364 726.054C442.183 726.054 451.854 735.724 451.854 747.544V771.721C451.854 783.541 442.318 793.212 430.364 793.212Z" fill="#413D51"/>
<path d="M387.382 793.212C375.562 793.212 365.892 783.541 365.892 771.721V747.544C365.892 735.724 375.562 726.054 387.382 726.054C399.202 726.054 408.873 735.724 408.873 747.544V771.721C408.873 783.541 399.336 793.212 387.382 793.212Z" fill="#413D51"/>
<path d="M473.076 793.212C461.257 793.212 451.586 783.541 451.586 771.721V747.544C451.586 735.724 461.257 726.054 473.076 726.054C484.896 726.054 494.567 735.724 494.567 747.544V771.721C494.567 783.541 484.896 793.212 473.076 793.212Z" fill="#413D51"/>
<path d="M529.757 793.212C517.937 793.212 508.267 783.541 508.267 771.721V747.544C508.267 735.724 517.937 726.054 529.757 726.054C541.577 726.054 551.248 735.724 551.248 747.544V771.721C551.248 783.541 541.577 793.212 529.757 793.212Z" fill="#413D51"/>
<path d="M572.471 793.212C560.651 793.212 550.98 783.541 550.98 771.721V747.544C550.98 735.724 560.651 726.054 572.471 726.054C584.291 726.054 593.962 735.724 593.962 747.544V771.721C593.962 783.541 584.291 793.212 572.471 793.212Z" fill="#413D51"/>
<path d="M615.451 793.212C603.632 793.212 593.961 783.541 593.961 771.721V747.544C593.961 735.724 603.632 726.054 615.451 726.054C627.271 726.054 636.942 735.724 636.942 747.544V771.721C636.942 783.541 627.271 793.212 615.451 793.212Z" fill="#413D51"/>
<path d="M489.465 617.66C489.465 628.943 480.331 638.076 469.049 638.076C457.766 638.076 448.633 628.943 448.633 617.66" stroke="#413D51" stroke-width="8" stroke-miterlimit="10" stroke-linecap="round" stroke-linejoin="round"/>
<path d="M551.921 617.66C551.921 628.943 542.787 638.076 531.505 638.076C520.222 638.076 511.089 628.943 511.089 617.66" stroke="#413D51" stroke-width="8" stroke-miterlimit="10" stroke-linecap="round" stroke-linejoin="round"/>
<path opacity="0.31" d="M262.604 565.546C259.649 571.859 252.261 574.68 245.814 571.725C239.367 568.77 236.681 561.383 239.636 554.936" stroke="#72C8D6" stroke-width="8" stroke-miterlimit="10" stroke-linecap="round" stroke-linejoin="round"/>
<path opacity="0.31" d="M302.631 586.365C299.676 592.678 292.288 595.499 285.841 592.544C279.528 589.589 276.708 582.202 279.663 575.754" stroke="#72C8D6" stroke-width="8" stroke-miterlimit="10" stroke-linecap="round" stroke-linejoin="round"/>
<path opacity="0.31" d="M279.392 602.349C276.437 608.662 269.05 611.482 262.603 608.527C256.29 605.572 253.469 598.185 256.424 591.738" stroke="#72C8D6" stroke-width="8" stroke-miterlimit="10" stroke-linecap="round" stroke-linejoin="round"/>
<path opacity="0.31" d="M314.585 629.077C311.63 635.39 304.242 638.211 297.795 635.256C291.482 632.301 288.662 624.913 291.617 618.466" stroke="#72C8D6" stroke-width="8" stroke-miterlimit="10" stroke-linecap="round" stroke-linejoin="round"/>
<path opacity="0.31" d="M341.448 604.9C338.493 611.213 331.106 614.034 324.659 611.079C318.346 608.124 315.525 600.737 318.48 594.29" stroke="#72C8D6" stroke-width="8" stroke-miterlimit="10" stroke-linecap="round" stroke-linejoin="round"/>
<path opacity="0.31" d="M747.081 568.232C750.036 574.545 757.423 577.366 763.871 574.411C770.318 571.456 773.004 564.069 770.049 557.622" stroke="#72C8D6" stroke-width="8" stroke-miterlimit="10" stroke-linecap="round" stroke-linejoin="round"/>
<path opacity="0.31" d="M707.19 589.051C710.145 595.364 717.533 598.185 723.98 595.23C730.293 592.275 733.113 584.888 730.158 578.44" stroke="#72C8D6" stroke-width="8" stroke-miterlimit="10" stroke-linecap="round" stroke-linejoin="round"/>
<path opacity="0.31" d="M730.292 605.035C733.247 611.348 740.634 614.168 747.081 611.213C753.394 608.258 756.215 600.871 753.26 594.424" stroke="#72C8D6" stroke-width="8" stroke-miterlimit="10" stroke-linecap="round" stroke-linejoin="round"/>
<path opacity="0.31" d="M695.235 631.764C698.19 638.077 705.578 640.897 712.025 637.942C718.338 634.987 721.158 627.6 718.203 621.153" stroke="#72C8D6" stroke-width="8" stroke-miterlimit="10" stroke-linecap="round" stroke-linejoin="round"/>
<path opacity="0.31" d="M668.373 607.587C671.328 613.9 678.715 616.72 685.163 613.766C691.475 610.811 694.296 603.423 691.341 596.976" stroke="#72C8D6" stroke-width="8" stroke-miterlimit="10" stroke-linecap="round" stroke-linejoin="round"/>
<path d="M458.302 666.686C458.302 677.968 449.168 687.102 437.886 687.102C426.603 687.102 417.47 677.968 417.47 666.686" stroke="#413D51" stroke-width="8" stroke-miterlimit="10" stroke-linecap="round" stroke-linejoin="round"/>
<path d="M520.759 666.686C520.759 677.968 511.625 687.102 500.343 687.102C489.06 687.102 479.927 677.968 479.927 666.686" stroke="#413D51" stroke-width="8" stroke-miterlimit="10" stroke-linecap="round" stroke-linejoin="round"/>
<path d="M583.215 666.686C583.215 677.968 574.081 687.102 562.799 687.102C551.516 687.102 542.383 677.968 542.383 666.686" stroke="#413D51" stroke-width="8" stroke-miterlimit="10" stroke-linecap="round" stroke-linejoin="round"/>
</svg>
