<svg width="343" height="275" viewBox="0 0 343 275" fill="none" xmlns="http://www.w3.org/2000/svg">
<path d="M166.36 273.798C169.528 274.717 176.958 275.984 187.366 272.475C187.765 272.341 188.105 272.073 188.329 271.717C188.553 271.36 188.647 270.937 188.594 270.519C188.182 267.398 186.756 260.095 182.194 257.054C181.711 256.728 181.147 256.545 180.565 256.527C179.983 256.509 179.408 256.656 178.906 256.951C175.556 258.923 167.413 264.309 165.061 271.359C164.982 271.604 164.953 271.863 164.976 272.119C164.999 272.376 165.073 272.626 165.194 272.853C165.315 273.081 165.481 273.282 165.681 273.444C165.881 273.606 166.112 273.727 166.36 273.798Z" fill="#9A4A4D"/>
<path d="M169.528 264.309C169.528 264.309 173.98 268.879 175.033 274.78C177.522 274.665 179.999 274.376 182.447 273.917C182.447 273.917 183.239 263.675 174.883 259.659C172.979 261.067 171.189 262.621 169.528 264.309Z" fill="#FFC85E"/>
<path d="M169.529 264.309C167.468 266.237 165.927 268.653 165.045 271.334C164.962 271.584 164.93 271.848 164.953 272.11C164.975 272.372 165.051 272.626 165.176 272.858C165.301 273.09 165.471 273.293 165.678 273.456C165.884 273.619 166.122 273.738 166.376 273.806C169.191 274.593 172.114 274.922 175.033 274.78C174.65 272.785 173.966 270.859 173.006 269.069C172.178 267.265 170.995 265.646 169.529 264.309Z" fill="#F4A15D"/>
<path d="M73.746 111.849C73.746 111.849 75.8054 95.2707 68.6055 90.2727C68.6055 90.2727 80.1698 88.6331 73.6668 75.9203C73.6668 75.9203 81.9915 76.7599 78.0945 65.5204C78.0945 65.5204 83.346 64.1421 83.6391 54.1699C83.6391 54.1699 84.3361 65.0689 89.2311 65.956C89.2311 65.956 83.1321 75.4609 89.3737 78.1856C89.3737 78.1856 81.041 89.7499 90.6885 93.9717C90.6568 93.9558 77.0094 101.259 73.746 111.849Z" fill="#FFC85E"/>
<path d="M83.8452 60.4824C83.8683 60.6373 83.8683 60.7948 83.8452 60.9498C83.8452 61.2666 83.7581 61.7418 83.6868 62.2804C83.5442 63.4448 83.3066 65.1161 82.9897 67.1755C82.6729 69.2349 82.2848 71.6982 81.8096 74.415C81.5719 75.7695 81.3264 77.2031 81.0175 78.6764C80.7086 80.1496 80.4472 81.6784 80.1462 83.2387C79.8452 84.7991 79.5205 86.3278 79.2116 87.7932C78.9026 89.2585 78.5858 90.6842 78.2927 92.0308C77.6908 94.7238 77.1205 97.1396 76.6215 99.1594C76.1225 101.179 75.7027 102.827 75.3938 103.912C75.2353 104.458 75.1165 104.894 75.0294 105.203C74.9977 105.356 74.9472 105.505 74.8789 105.647C74.8928 105.491 74.9193 105.338 74.9581 105.187C75.0215 104.87 75.1244 104.395 75.2433 103.872C75.5126 102.724 75.8848 101.084 76.3522 99.0565C76.8195 97.0288 77.3581 94.5971 77.9363 91.9278C78.2215 90.5813 78.5145 89.1635 78.8314 87.6981C79.1482 86.2328 79.4413 84.7041 79.7581 83.1437L80.6373 78.5813C80.9145 77.1081 81.1759 75.6823 81.4294 74.3279C81.9125 71.6111 82.3403 69.1636 82.6888 67.1121C83.0373 65.0606 83.3145 63.3973 83.4808 62.2329C83.5838 61.6705 83.663 61.227 83.7185 60.9101C83.7472 60.7639 83.7896 60.6207 83.8452 60.4824Z" fill="#9A4A4D"/>
<path d="M82.9103 87.35C82.9895 87.4372 81.5954 88.9342 80.0192 90.8827C78.443 92.8312 77.2786 94.5104 77.1836 94.447C78.6374 91.7385 80.5788 89.3218 82.9103 87.3184V87.35Z" fill="#9A4A4D"/>
<path d="M78.1502 91.089C78.1212 90.9159 78.1212 90.7393 78.1502 90.5662C78.1502 90.1939 78.1502 89.7266 78.1502 89.1642C78.1502 88.6019 78.1502 87.8652 78.1502 87.0811C78.1502 86.693 78.1502 86.289 78.1026 85.8613C78.0551 85.4336 78.0472 84.9979 78.0155 84.5464C77.9838 84.095 77.9363 83.6593 77.8888 83.2395C77.8412 82.8197 77.7779 82.4474 77.7304 82.0197C77.6115 81.2276 77.4927 80.5544 77.3818 79.9683C77.271 79.3821 77.1759 78.9544 77.1046 78.59C77.0532 78.4235 77.0318 78.2492 77.0413 78.0752C77.0413 78.0752 77.1442 78.2415 77.2551 78.5504C77.366 78.8594 77.5007 79.3425 77.6512 79.9128C77.8016 80.4831 77.9442 81.1881 78.0789 81.9643C78.1422 82.3524 78.2135 82.7564 78.261 83.192C78.3086 83.6276 78.364 84.0554 78.4036 84.5148C78.4432 84.9742 78.4749 85.4098 78.4828 85.8454C78.4907 86.2811 78.4828 86.685 78.4828 87.0811C78.4828 87.8732 78.4828 88.5781 78.3957 89.1801C78.3086 89.7821 78.2848 90.2494 78.2294 90.5821C78.2322 90.7543 78.2054 90.9258 78.1502 91.089Z" fill="#9A4A4D"/>
<path d="M86.1184 65.9082C85.5714 67.2847 84.9034 68.6101 84.1223 69.8686C83.4453 71.1893 82.65 72.4459 81.7461 73.623C82.2955 72.2476 82.9634 70.9225 83.7421 69.6626C84.4209 68.3429 85.2161 67.0865 86.1184 65.9082Z" fill="#9A4A4D"/>
<path d="M106.926 170.985L83.7974 186.035C83.7974 186.035 79.045 175.476 67.5678 183.017C67.5678 183.017 65.8094 171.136 56.8194 177.227C56.8194 177.227 52.2887 171.77 47.3145 170.098C47.3145 170.098 55.3144 169.053 58.5302 165.116C58.5302 165.116 68.5183 172.245 71.647 163.405C71.647 163.405 84.1935 170.74 92.5419 161.908C92.5023 161.948 99.3775 171.944 106.926 170.985Z" fill="#FFC85E"/>
<path d="M48.3281 170.21C48.5231 170.192 48.7193 170.192 48.9143 170.21L50.6014 170.376C51.3301 170.455 52.1855 170.558 53.2628 170.653C54.34 170.748 55.4885 170.883 56.7954 170.986C59.4172 171.223 62.538 171.453 65.9993 171.659C69.4607 171.865 73.2864 172 77.2943 172.063C81.3022 172.126 85.1279 172.063 88.5972 172.008C92.0665 171.952 95.1952 171.77 97.817 171.611C99.1318 171.548 100.32 171.453 101.358 171.39C102.395 171.326 103.298 171.255 104.027 171.2L105.722 171.081C105.917 171.067 106.113 171.067 106.308 171.081C106.119 171.133 105.925 171.165 105.73 171.176L104.043 171.366C103.314 171.445 102.459 171.532 101.373 171.619C100.288 171.707 99.1476 171.817 97.8407 171.905C95.211 172.095 92.0823 172.261 88.6051 172.38C85.1279 172.499 81.3022 172.53 77.2864 172.475C73.2706 172.419 69.4528 172.237 65.9835 172.031C62.5142 171.825 59.3855 171.548 56.7716 171.239C55.4647 171.12 54.2845 170.97 53.239 170.851C52.1935 170.732 51.3142 170.613 50.5855 170.51L48.9063 170.273C48.7122 170.268 48.5188 170.246 48.3281 170.21Z" fill="#9A4A4D"/>
<path d="M83.6392 167.706C85.7462 168.234 87.8198 168.888 89.849 169.662C91.9231 170.319 93.9569 171.097 95.9401 171.991C93.8296 171.463 91.7531 170.807 89.7223 170.027C87.6508 169.373 85.6196 168.598 83.6392 167.706Z" fill="#9A4A4D"/>
<path d="M79.7025 178.05C79.6629 177.955 83.0767 176.553 87.3143 174.929C91.5519 173.306 95.0291 172.062 95.0687 172.165C95.1083 172.268 91.7024 173.662 87.4569 175.333C83.2114 177.005 79.7421 178.153 79.7025 178.05Z" fill="#9A4A4D"/>
<path d="M72.2412 169.076C74.1776 169.445 76.0879 169.94 77.96 170.557C79.867 171.054 81.7402 171.674 83.5679 172.411C81.6305 172.046 79.7199 171.551 77.8491 170.93C75.9408 170.437 74.0674 169.818 72.2412 169.076Z" fill="#9A4A4D"/>
<path d="M59.9165 173.362C61.0399 172.934 62.2055 172.626 63.3937 172.443C64.5572 172.141 65.7493 171.963 66.9501 171.912C65.8271 172.34 64.6613 172.645 63.4729 172.823C62.3099 173.128 61.1177 173.309 59.9165 173.362Z" fill="#9A4A4D"/>
<path d="M69.0884 176.95C69.5904 176.656 70.1212 176.414 70.6725 176.229C71.6547 175.825 73.0012 175.262 74.4824 174.645C75.9636 174.027 77.2943 173.385 78.2606 172.942C78.7665 172.673 79.297 172.452 79.8448 172.284C79.3955 172.649 78.9002 172.952 78.3715 173.187C77.4368 173.694 76.122 174.352 74.6329 175.001C73.1438 175.651 71.7656 176.173 70.7597 176.514C70.2239 176.731 69.662 176.878 69.0884 176.95Z" fill="#9A4A4D"/>
<path d="M83.4413 124.871C83.4413 124.871 72.2334 130.344 69.4612 138.661C69.4612 138.661 61.8256 130.812 53.485 137.323C53.485 137.323 44.3682 130.59 38.594 136.958C38.594 136.958 29.9287 128.657 23.1406 131.944C23.1406 131.944 33.3109 127.683 34.5148 124.245C34.5148 124.245 44.7643 127.667 50.4514 118.923C50.4514 118.923 59.9563 122.55 65.5008 115.073C65.5245 115.073 77.9918 125.125 83.4413 124.871Z" fill="#FFC85E"/>
<path d="M26.459 131.555C26.6481 131.503 26.8417 131.469 27.0372 131.453L28.6847 131.247L34.7599 130.534C39.8926 129.948 46.9816 129.171 54.8232 128.332C62.6647 127.492 69.7696 126.748 74.8944 126.241L80.9854 125.655L82.6409 125.512C82.8361 125.501 83.0318 125.501 83.227 125.512C83.0378 125.564 82.8443 125.599 82.6488 125.615L81.0013 125.829L74.926 126.542C69.7934 127.12 62.7043 127.904 54.8628 128.744C47.0212 129.583 39.9322 130.328 34.7916 130.827L28.7006 131.421L27.0451 131.555C26.8503 131.576 26.6538 131.576 26.459 131.555Z" fill="#9A4A4D"/>
<path d="M53.2314 134.226C53.6032 133.786 54.0259 133.393 54.4908 133.054C55.2829 132.436 56.3839 131.541 57.7938 130.543C59.2037 129.545 60.4076 129.046 61.3185 128.507C62.2294 127.968 62.7839 127.446 62.8076 127.493C62.3844 127.88 61.9225 128.222 61.4294 128.515C60.5502 129.109 59.3383 129.933 58.0235 130.891C56.7087 131.85 55.5205 132.681 54.6651 133.307C54.2204 133.662 53.74 133.97 53.2314 134.226Z" fill="#9A4A4D"/>
<path d="M56.7163 123.588C57.3901 123.631 58.0584 123.737 58.7123 123.905C59.9401 124.142 61.6272 124.507 63.4648 124.926C65.3024 125.346 66.9974 125.719 68.2172 126.059C68.8814 126.192 69.5312 126.388 70.1578 126.645C69.4814 126.603 68.8105 126.497 68.1539 126.328C66.9341 126.091 65.247 125.726 63.4014 125.307C61.5559 124.887 59.8688 124.515 58.649 124.174C57.9871 124.042 57.3398 123.846 56.7163 123.588Z" fill="#9A4A4D"/>
<path d="M38.3481 134.978C38.6532 134.554 39.0189 134.178 39.4333 133.861C41.3205 132.215 43.4295 130.841 45.6986 129.782C46.1531 129.533 46.6414 129.352 47.1481 129.243C46.7315 129.55 46.2858 129.815 45.8174 130.035C45.0253 130.495 43.8451 131.144 42.6491 131.936C41.4531 132.728 40.3759 133.52 39.6234 134.083C39.2295 134.423 38.8023 134.723 38.3481 134.978Z" fill="#9A4A4D"/>
<path d="M59.7501 95.2546C59.7501 95.2546 45.1442 90.4388 35.5363 95.3972C35.5363 95.3972 35.5363 81.9319 22.578 80.4745C22.578 80.4745 20.3127 66.6765 9.73847 67.3419C9.73847 67.3419 9.22362 52.5538 0.399902 49.6152C0.399902 49.6152 13.0731 54.5974 17.0335 52.6014C17.0335 52.6014 23.1483 64.4825 35.6948 61.6073C35.6948 61.6073 40.9462 72.9656 52.3283 71.1755C52.3442 71.1755 54.7125 90.7794 59.7501 95.2546Z" fill="#FFC85E"/>
<path d="M25.2871 77.7903C25.9913 77.7013 26.7029 77.6881 27.4099 77.7507C28.7168 77.7903 30.5306 77.9012 32.5188 78.115C34.5069 78.3289 36.2969 78.5903 37.588 78.82C38.2904 78.9138 38.9825 79.0729 39.6553 79.2952C38.9461 79.2878 38.2388 79.2216 37.5405 79.0972C36.2494 78.9309 34.4593 78.7091 32.4791 78.4952C30.499 78.2814 28.701 78.1388 27.394 78.0279C26.6865 78.0058 25.9818 77.9263 25.2871 77.7903Z" fill="#9A4A4D"/>
<path d="M37.1523 70.7324C37.7345 71.3303 38.2645 71.9769 38.7365 72.6651C39.6711 73.8849 40.9385 75.5878 42.3246 77.4888C43.7107 79.3898 44.9384 81.1165 45.8176 82.3838C46.3194 83.047 46.7721 83.7459 47.1721 84.4749C46.5925 83.8776 46.0627 83.2339 45.5879 82.5502C44.6533 81.3225 43.3781 79.6195 41.9998 77.7185C40.6216 75.8175 39.3781 74.0908 38.5068 72.8235C38.0053 72.1602 37.5526 71.4613 37.1523 70.7324Z" fill="#9A4A4D"/>
<path d="M98.229 149.869C98.229 149.869 98.7597 136.174 92.1538 129.172C92.1538 129.172 103.71 125.861 101.746 114.415C101.746 114.415 113.001 109.085 109.833 100.158C109.833 100.158 122.371 96.0866 122.712 87.8174C122.712 87.8174 121.564 99.8648 124.257 102.819C124.257 102.819 115.615 110.962 121.128 121.037C121.128 121.037 112.7 128.316 117.025 137.615C117.025 137.631 100.819 144.467 98.229 149.869Z" fill="#FFC85E"/>
<path d="M121.366 91.2549C121.318 91.4612 121.252 91.6627 121.168 91.8569C121.009 92.2529 120.795 92.8311 120.51 93.5598L118.039 99.8093C115.932 105.077 113.001 112.348 109.738 120.403C106.475 128.459 103.504 135.674 101.334 140.91L98.7441 147.112C98.4352 147.833 98.1897 148.395 98.0233 148.791C97.9436 148.99 97.851 149.183 97.7461 149.369C97.7939 149.16 97.8629 148.955 97.952 148.76L98.6015 147.057L101.081 140.807C103.18 135.54 106.118 128.276 109.382 120.253C112.645 112.229 115.615 104.989 117.786 99.7459C118.871 97.1321 119.758 94.9935 120.368 93.544C120.685 92.8232 120.922 92.2608 121.096 91.8648C121.171 91.655 121.261 91.4512 121.366 91.2549Z" fill="#9A4A4D"/>
<path d="M104.875 115.81C105.097 116.403 105.253 117.019 105.342 117.647C105.572 118.788 105.833 120.38 106.055 122.146C106.276 123.912 106.387 125.528 106.435 126.693C106.506 127.322 106.506 127.957 106.435 128.586C106.291 127.969 106.204 127.341 106.174 126.709C106.055 125.552 105.896 123.96 105.682 122.194C105.469 120.427 105.247 118.843 105.088 117.695C104.958 117.074 104.887 116.443 104.875 115.81Z" fill="#9A4A4D"/>
<path d="M113.358 124.681C112.959 125.308 112.506 125.899 112.003 126.447C111.132 127.5 109.904 128.942 108.534 130.518C107.164 132.094 105.904 133.512 104.978 134.526C104.494 135.097 103.964 135.627 103.394 136.11C103.786 135.481 104.237 134.889 104.74 134.344C105.619 133.291 106.847 131.841 108.217 130.265C109.588 128.689 110.847 127.271 111.774 126.265C112.252 125.689 112.782 125.159 113.358 124.681Z" fill="#9A4A4D"/>
<path d="M111.885 100.989C112.122 101.509 112.29 102.057 112.384 102.621C112.694 103.958 112.906 105.316 113.017 106.684C113.134 108.051 113.155 109.425 113.081 110.795C113.088 111.368 113.013 111.939 112.859 112.49C112.789 111.928 112.771 111.361 112.804 110.795C112.804 109.75 112.804 108.308 112.629 106.716C112.455 105.124 112.289 103.706 112.114 102.676C111.986 102.122 111.909 101.557 111.885 100.989Z" fill="#9A4A4D"/>
<path d="M110.783 183.2C109.389 178.447 107.425 173.505 105.469 168.285C100.912 157.083 95.5434 146.229 89.4053 135.81C83.1291 125.456 76.1059 115.574 68.3916 106.242C64.7164 102.051 61.2629 97.9882 57.762 94.503C56.0115 92.7367 54.4036 90.9625 52.7244 89.3862L47.8689 84.8714C44.8432 81.9249 41.8254 79.5803 39.2749 77.4021C37.9838 76.3328 36.8036 75.3031 35.6789 74.416L32.5106 72.0398L28.178 68.7448L27.0611 67.8735C26.9278 67.7823 26.8055 67.676 26.6968 67.5566C26.8381 67.6301 26.9732 67.7148 27.1007 67.8101L28.2651 68.6022L32.6849 71.7705L35.8532 74.0833C36.9937 74.9625 38.2294 75.9764 39.4967 77.0298C42.0709 79.1764 45.1284 81.5051 48.2095 84.4278L53.1045 88.9189C54.7996 90.503 56.4233 92.2615 58.1818 94.0199C61.7461 97.4971 65.1916 101.552 68.8985 105.75C76.6772 115.074 83.749 124.966 90.0548 135.342C96.2166 145.807 101.586 156.718 106.118 167.984C108.067 173.227 110.015 178.178 111.385 182.97" fill="#9A4A4D"/>
<path d="M275.044 78.2095C275.044 78.2095 269.658 61.6314 276.05 55.0968C276.05 55.0968 263.876 55.6987 268.034 41.3859C268.034 41.3859 259.67 43.8968 261.436 31.6117C261.436 31.6117 255.788 31.2395 253.515 21.0771C253.515 21.0771 254.965 32.3801 250.117 34.2494C250.117 34.2494 258.236 42.7562 252.383 46.8037C252.383 46.8037 263.202 57.0136 254.157 63.2314C254.188 63.2314 269.578 68.0234 275.044 78.2095Z" fill="#FFC85E"/>
<path d="M254.529 27.6045C254.559 27.766 254.601 27.925 254.656 28.0797L255.084 29.4104C255.464 30.5669 256.034 32.2381 256.763 34.2896C257.492 36.3411 258.347 38.7727 259.401 41.4658C259.915 42.8123 260.454 44.2222 261.032 45.6796C261.61 47.1371 262.205 48.642 262.83 50.1865C263.456 51.7311 264.074 53.2202 264.684 54.6618C265.294 56.1033 265.888 57.4974 266.458 58.8202C267.606 61.4578 268.668 63.8261 269.626 65.7983C270.585 67.7706 271.29 69.3706 271.82 70.4637C272.09 71.0023 272.303 71.4221 272.446 71.7231C272.509 71.873 272.592 72.0141 272.692 72.1429C272.651 71.9846 272.596 71.8307 272.525 71.6835C272.391 71.3825 272.2 70.9468 271.971 70.4003C271.472 69.2756 270.759 67.6676 269.888 65.6875C269.016 63.7073 267.971 61.3152 266.846 58.6697L265.088 54.5113L263.242 50.0677C262.624 48.5311 262.022 47.0262 261.436 45.5767C260.85 44.1272 260.319 42.7094 259.789 41.3708C258.751 38.6935 257.832 36.2698 257.072 34.2421C256.311 32.2144 255.702 30.5669 255.274 29.4183L254.775 28.1035C254.719 27.9257 254.636 27.7574 254.529 27.6045Z" fill="#9A4A4D"/>
<path d="M260.819 54.9463C260.755 55.0413 262.482 56.2928 264.478 57.9879C266.474 59.6829 268.003 61.1562 268.09 61.0849C266.066 58.6068 263.601 56.5254 260.819 54.9463Z" fill="#9A4A4D"/>
<path d="M266.411 57.8296C266.419 57.6467 266.392 57.4639 266.331 57.291C266.252 56.9108 266.141 56.4356 266.015 55.8574C265.888 55.2792 265.737 54.5346 265.595 53.7346C265.531 53.3307 265.46 52.9425 265.405 52.4673C265.349 51.992 265.286 51.5722 265.231 51.1049C265.175 50.6376 265.135 50.1782 265.104 49.7346C265.072 49.2911 265.056 48.8713 265.032 48.4594C264.993 47.6673 264.977 46.9149 264.985 46.297C264.993 45.6792 264.985 45.2119 264.985 44.8317C265.004 44.6486 264.99 44.4636 264.945 44.2852C264.945 44.2852 264.874 44.4753 264.827 44.8158C264.779 45.1564 264.724 45.6634 264.684 46.2891C264.644 46.9148 264.636 47.6515 264.644 48.4752C264.644 48.8871 264.644 49.3148 264.7 49.7663C264.755 50.2178 264.771 50.6772 264.819 51.1524C264.866 51.6277 264.93 52.0792 265.001 52.5227C265.072 52.9663 265.143 53.394 265.223 53.798C265.381 54.5901 265.555 55.3267 265.73 55.9287C265.904 56.5306 266.046 57.0059 266.173 57.3306C266.3 57.6554 266.411 57.8376 266.411 57.8296Z" fill="#9A4A4D"/>
<path d="M253.302 33.6152C254.136 34.9103 255.082 36.1295 256.129 37.2588C257.08 38.4828 258.141 39.6175 259.298 40.6489C258.463 39.352 257.517 38.1303 256.47 36.9974C255.518 35.7769 254.458 34.6449 253.302 33.6152Z" fill="#9A4A4D"/>
<path d="M255.369 134.82L279.258 141.639C279.258 141.639 280.533 131.303 292.422 134.74C292.422 134.74 290.782 124.071 300.129 126.899C300.129 126.899 302.576 121.006 306.465 118.249C306.465 118.249 299.337 119.477 295.495 116.942C295.495 116.942 288.802 125.742 283.757 118.954C283.757 118.954 274.917 128.594 265.396 123.216C265.38 123.176 262.109 133.6 255.369 134.82Z" fill="#FFC85E"/>
<path d="M305.563 118.55C305.393 118.6 305.226 118.66 305.064 118.732L303.662 119.326C303.052 119.587 302.308 119.912 301.436 120.269C300.565 120.625 299.591 121.061 298.49 121.496C296.304 122.391 293.682 123.421 290.751 124.522C287.821 125.623 284.581 126.748 281.151 127.873C277.722 128.997 274.419 129.964 271.409 130.819C268.399 131.674 265.674 132.403 263.377 132.926C262.229 133.219 261.183 133.457 260.272 133.678C259.361 133.9 258.569 134.074 257.896 134.217L256.407 134.566C256.233 134.597 256.063 134.648 255.9 134.716C256.076 134.702 256.251 134.676 256.423 134.637L257.92 134.352C258.569 134.233 259.369 134.067 260.296 133.869C261.223 133.671 262.268 133.449 263.417 133.171C265.73 132.641 268.462 131.952 271.48 131.128C274.498 130.304 277.817 129.314 281.238 128.205C284.66 127.096 287.923 125.924 290.854 124.823C293.785 123.722 296.399 122.653 298.569 121.726C299.662 121.267 300.636 120.831 301.5 120.451C302.363 120.071 303.084 119.738 303.702 119.453L305.072 118.803C305.244 118.736 305.408 118.651 305.563 118.55Z" fill="#9A4A4D"/>
<path d="M274.529 125.773C272.856 126.787 271.245 127.9 269.706 129.108C268.097 130.224 266.555 131.432 265.088 132.728C266.76 131.712 268.371 130.599 269.912 129.393C271.52 128.278 273.062 127.069 274.529 125.773Z" fill="#9A4A4D"/>
<path d="M280.668 133.631C280.668 133.536 277.373 133.235 273.294 132.965C269.214 132.696 265.896 132.554 265.888 132.649C265.88 132.744 269.183 133.045 273.27 133.314C277.357 133.583 280.668 133.726 280.668 133.631Z" fill="#9A4A4D"/>
<path d="M284.692 123.929C283.127 124.764 281.616 125.698 280.169 126.725C278.659 127.656 277.212 128.686 275.836 129.806C277.405 128.979 278.916 128.048 280.359 127.018C281.87 126.085 283.318 125.053 284.692 123.929Z" fill="#9A4A4D"/>
<path d="M296.43 124.34C295.351 124.268 294.268 124.313 293.199 124.475C292.129 124.526 291.067 124.688 290.03 124.958C291.109 125.031 292.193 124.986 293.262 124.824C294.333 124.779 295.395 124.617 296.43 124.34Z" fill="#9A4A4D"/>
<path d="M289.5 129.861C288.995 129.743 288.481 129.674 287.963 129.655C287.013 129.568 285.698 129.449 284.256 129.283C282.815 129.116 281.508 128.95 280.557 128.823C280.048 128.726 279.531 128.678 279.013 128.681C279.495 128.875 280.001 129.006 280.518 129.069C281.46 129.259 282.767 129.465 284.217 129.631C285.666 129.798 286.989 129.877 287.947 129.908C288.465 129.956 288.986 129.94 289.5 129.861Z" fill="#9A4A4D"/>
<path d="M267.678 93.4805C267.678 93.4805 280.24 96.8705 284.723 104.839C284.723 104.839 290.988 95.2943 300.818 100.316C300.818 100.316 308.826 91.6032 315.994 97.0052C315.994 97.0052 323.234 86.7874 330.838 88.8231C330.838 88.8231 319.582 86.4468 317.666 83.1756C317.666 83.1756 307.844 88.7201 300.295 80.8706C300.295 80.8706 291.305 86.4548 284.105 79.9043C284.105 79.9043 273.317 92.6567 267.678 93.4805Z" fill="#FFC85E"/>
<path d="M327.4 89.0775C327.197 89.0601 326.993 89.0601 326.79 89.0775L325.064 89.1884L318.727 89.6557C313.357 90.0755 305.935 90.6775 297.745 91.3666C289.555 92.0557 282.117 92.6973 276.771 93.1884L270.434 93.7903L268.707 93.9725C268.505 93.985 268.303 94.0142 268.105 94.0596C268.308 94.0769 268.512 94.0769 268.715 94.0596L270.442 93.9487L276.779 93.4814C282.149 93.0695 289.571 92.4676 297.761 91.7785C305.951 91.0894 313.325 90.4636 318.687 89.9488L325.024 89.3547L326.751 89.1725C326.97 89.1639 327.188 89.132 327.4 89.0775Z" fill="#9A4A4D"/>
<path d="M300.47 97.1005C300 96.721 299.487 96.3992 298.941 96.1421C298.054 95.659 296.707 94.9619 295.06 94.2253C293.749 93.6916 292.411 93.2263 291.052 92.8313C290.006 92.459 289.341 92.0392 289.325 92.0867C289.825 92.4031 290.356 92.6685 290.909 92.8788C291.923 93.3144 293.286 93.9164 294.87 94.6134C296.454 95.3104 297.785 95.952 298.79 96.4194C299.325 96.705 299.888 96.9333 300.47 97.1005Z" fill="#9A4A4D"/>
<path d="M294.806 86.8906C294.121 87.0595 293.454 87.2983 292.818 87.6035C291.614 88.0946 289.958 88.7916 288.137 89.5916C286.315 90.3916 284.683 91.1361 283.503 91.6906C282.849 91.9546 282.222 92.2836 281.634 92.6728C282.316 92.4946 282.982 92.2561 283.622 91.9599C284.826 91.4688 286.481 90.7639 288.303 89.9639C290.125 89.1639 291.756 88.4272 292.937 87.8649C293.589 87.5989 294.215 87.2728 294.806 86.8906Z" fill="#9A4A4D"/>
<path d="M315.867 94.9217C315.47 94.5509 315.022 94.2388 314.537 93.995C313.411 93.3364 312.238 92.7619 311.028 92.2762C309.823 91.7814 308.584 91.3738 307.321 91.0564C306.808 90.8928 306.275 90.8022 305.737 90.7871C306.223 91.0215 306.733 91.2047 307.258 91.3336C308.2 91.6346 309.491 92.0782 310.893 92.6485C312.295 93.2188 313.531 93.8049 314.418 94.2326C314.874 94.5162 315.36 94.7473 315.867 94.9217Z" fill="#9A4A4D"/>
<path d="M286.101 58.463C286.101 58.463 300.121 50.6453 310.933 53.8373C310.933 53.8373 308.263 40.0077 321.23 35.984C321.23 35.984 320.826 21.4098 331.796 19.9999C331.796 19.9999 329.42 4.74453 337.855 0C337.855 0 325.887 7.596 321.372 6.3366C321.372 6.3366 317.451 19.6831 304.034 19.2553C304.034 19.2553 300.865 31.9285 288.897 32.3246C288.929 32.3325 290.378 52.8868 286.101 58.463Z" fill="#FFC85E"/>
<path d="M317.951 33.7666C317.214 33.8268 316.485 33.9568 315.773 34.1547C314.442 34.4478 312.604 34.9468 310.616 35.525C308.628 36.1032 306.838 36.7606 305.563 37.2597C304.859 37.4826 304.181 37.7828 303.543 38.1547C304.262 37.9989 304.969 37.7898 305.658 37.529C306.957 37.1012 308.747 36.523 310.735 35.9448C312.723 35.3666 314.529 34.828 315.844 34.4636C316.565 34.2918 317.27 34.0586 317.951 33.7666Z" fill="#9A4A4D"/>
<path d="M304.43 28.8789C303.958 29.6108 303.545 30.3789 303.194 31.1759C302.481 32.6096 301.515 34.6056 300.477 36.8234C299.44 39.0412 298.513 41.061 297.864 42.5264C297.478 43.3067 297.15 44.1141 296.881 44.9422C297.356 44.2147 297.769 43.4491 298.117 42.6531C298.838 41.2115 299.796 39.2155 300.842 36.9977C301.887 34.7799 302.806 32.768 303.456 31.2947C303.843 30.5162 304.169 29.7084 304.43 28.8789Z" fill="#9A4A4D"/>
<path d="M257.476 122.011C257.476 122.011 254.228 108.094 259.614 99.6191C259.614 99.6191 247.123 98.5102 246.87 86.3915C246.87 86.3915 234.292 83.1598 235.781 73.4252C235.781 73.4252 222.134 71.7302 220.153 63.3184C220.153 63.3184 223.71 75.4371 221.532 78.9935C221.532 78.9935 231.987 85.6311 228.328 97.0053C228.328 97.0053 238.403 102.795 235.805 113.172C235.805 113.172 253.737 116.981 257.476 122.011Z" fill="#FFC85E"/>
<path d="M222.205 66.542C222.292 66.7457 222.401 66.9396 222.529 67.1202L223.535 68.744C224.43 70.1459 225.713 72.1657 227.306 74.6528C230.474 79.635 234.941 86.534 239.86 94.0666C244.779 101.599 249.262 108.474 252.533 113.417L256.414 119.255C256.874 119.936 257.206 120.466 257.484 120.839C257.599 121.03 257.732 121.21 257.88 121.377C257.782 121.175 257.671 120.979 257.547 120.791L256.541 119.207L252.779 113.298C249.61 108.316 245.143 101.457 240.216 93.8844C235.29 86.3122 230.814 79.4766 227.543 74.534L223.638 68.6568L222.569 67.0727C222.457 66.8897 222.335 66.7125 222.205 66.542Z" fill="#9A4A4D"/>
<path d="M243.931 88.3955C243.826 89.0473 243.789 89.7083 243.82 90.3678C243.82 91.5876 243.82 93.2668 243.979 95.1202C244.137 96.9737 244.304 98.645 244.486 99.8727C244.539 100.53 244.669 101.179 244.874 101.805C244.9 101.149 244.866 100.491 244.771 99.841C244.66 98.6291 244.518 96.9578 244.383 95.0885C244.248 93.2192 244.169 91.5717 244.106 90.3361C244.114 89.685 244.055 89.0348 243.931 88.3955Z" fill="#9A4A4D"/>
<path d="M237 99.1758C237.53 99.7546 238.111 100.285 238.735 100.76C239.836 101.671 241.381 102.906 243.099 104.253C244.818 105.6 246.387 106.796 247.535 107.651C248.131 108.142 248.77 108.58 249.444 108.958C248.908 108.399 248.328 107.886 247.709 107.421C246.608 106.51 245.064 105.275 243.345 103.928C241.626 102.582 240.058 101.386 238.909 100.53C238.31 100.028 237.672 99.5753 237 99.1758Z" fill="#9A4A4D"/>
<path d="M233.832 74.6211C233.69 75.2014 233.627 75.7981 233.642 76.3953C233.55 79.2643 233.853 82.1323 234.545 84.9181C234.654 85.5061 234.844 86.0764 235.108 86.6131C235.069 86.0224 234.976 85.4364 234.83 84.8626C234.632 83.7854 234.379 82.3042 234.205 80.6567C234.03 79.0092 233.959 77.4884 233.927 76.4112C233.953 75.8128 233.921 75.2133 233.832 74.6211Z" fill="#9A4A4D"/>
<path d="M251.187 158.621C251.678 153.465 252.716 148.031 253.69 142.296C256.143 129.923 259.498 117.745 263.725 105.861C268.124 94.0238 273.381 82.524 279.456 71.4532C282.395 66.4235 285.096 61.5919 288.026 57.3226C289.468 55.1761 290.767 53.0374 292.177 51.0889C293.587 49.1404 294.949 47.287 296.256 45.5444C298.775 41.9246 301.404 38.9227 303.583 36.19C304.7 34.8435 305.698 33.5603 306.68 32.4197L309.428 29.3861L313.214 25.1564L314.189 24.0475C314.308 23.9259 314.411 23.7902 314.497 23.6436C314.365 23.748 314.243 23.8647 314.133 23.9921L313.103 25.0455L309.183 29.1168L306.379 32.1108C305.381 33.2356 304.367 34.4871 303.21 35.8494C300.993 38.5583 298.323 41.5444 295.773 45.1484C294.45 46.9147 293.072 48.7761 291.638 50.6929C290.205 52.6097 288.898 54.7721 287.448 56.9186C284.478 61.1879 281.753 66.0196 278.783 71.0492C272.653 82.1383 267.358 93.6684 262.941 105.544C258.701 117.484 255.36 129.724 252.945 142.162C251.987 147.92 250.973 153.37 250.514 158.55" fill="#9A4A4D"/>
<path d="M262.719 211.848C262.435 212.26 262.318 212.764 262.394 213.258C262.394 214.613 262.458 215.967 262.481 217.322C262.367 216.923 262.1 216.584 261.739 216.38C261.377 216.175 260.95 216.121 260.549 216.229C260.154 216.348 259.809 216.591 259.563 216.922C259.318 217.253 259.186 217.654 259.186 218.066C259.202 218.477 259.324 218.878 259.541 219.228C259.757 219.577 260.061 219.865 260.422 220.062C258.896 220.001 257.375 220.291 255.979 220.91C258.134 223.193 260.899 224.809 263.946 225.566C266.993 226.323 270.194 226.189 273.167 225.179L267.994 215.611C267.131 214.027 266.149 212.324 264.47 211.65C264.191 211.506 263.876 211.448 263.564 211.484C263.253 211.519 262.958 211.646 262.719 211.848Z" fill="#FF7C03"/>
<path d="M267.202 222.739C267.305 222.589 268.224 223.056 269.349 223.627C270.473 224.197 271.392 224.672 271.329 224.846C271.265 225.021 270.22 224.846 269.056 224.205C267.891 223.563 267.091 222.874 267.202 222.739Z" fill="#263238"/>
<path d="M267.519 219.612C267.662 219.509 268.66 220.53 269.753 221.901C270.846 223.271 271.614 224.483 271.48 224.594C271.345 224.705 270.339 223.683 269.246 222.305C268.153 220.927 267.377 219.723 267.519 219.612Z" fill="#263238"/>
<path d="M297.879 248.507C298.103 248.063 298.152 247.551 298.014 247.073C297.792 245.734 297.579 244.396 297.357 243.057C297.54 243.423 297.854 243.708 298.237 243.855C298.619 244.001 299.043 243.999 299.424 243.849C299.798 243.675 300.107 243.386 300.305 243.024C300.503 242.662 300.58 242.246 300.525 241.837C300.452 241.432 300.275 241.052 300.012 240.735C299.748 240.419 299.406 240.176 299.02 240.031C300.539 239.882 302.003 239.383 303.297 238.574C300.847 236.613 297.885 235.396 294.764 235.069C291.643 234.742 288.493 235.318 285.689 236.728L292.145 245.441C293.214 246.899 294.426 248.443 296.184 248.871C296.472 248.981 296.785 249.006 297.086 248.941C297.387 248.876 297.663 248.725 297.879 248.507Z" fill="#455A64"/>
<path d="M286.711 236.633C286.854 236.507 288.05 237.695 289.594 239.01C291.139 240.324 292.461 241.425 292.359 241.576C292.256 241.726 290.774 240.903 289.19 239.501C287.606 238.099 286.576 236.744 286.711 236.633Z" fill="#263238"/>
<path d="M287.226 236.704C287.289 236.53 288.573 236.831 290.109 237.369C291.646 237.908 292.834 238.486 292.771 238.652C292.707 238.819 291.424 238.526 289.887 237.987C288.351 237.448 287.171 236.87 287.226 236.704Z" fill="#263238"/>
<path d="M271.44 225.346L271.606 225.101C269.507 227.057 270.125 230.408 271.194 233.021C272.262 235.91 274.397 238.28 277.159 239.643C278.542 240.291 280.078 240.542 281.596 240.367C283.114 240.192 284.553 239.599 285.753 238.653C288.454 236.316 288.921 232.118 287.685 228.768C287.109 227.152 286.154 225.698 284.902 224.525C283.65 223.353 282.136 222.497 280.485 222.027C278.819 221.606 277.064 221.697 275.45 222.289C273.836 222.881 272.438 223.947 271.44 225.346Z" fill="#455A64"/>
<path d="M288.438 231.984C288.517 231.984 288.692 232.483 288.699 233.339C288.689 234.465 288.418 235.574 287.907 236.578C287.402 237.585 286.673 238.463 285.777 239.145C285.08 239.652 284.565 239.81 284.533 239.739C284.501 239.667 286.236 238.511 287.321 236.285C288.406 234.06 288.24 231.992 288.438 231.984Z" fill="#263238"/>
<path d="M275.749 222.035C275.804 222.225 273.888 222.661 272.295 224.34C270.703 226.019 270.299 227.912 270.109 227.865C269.919 227.817 270.006 227.35 270.228 226.574C270.54 225.567 271.082 224.648 271.812 223.888C272.544 223.123 273.448 222.544 274.45 222.201C275.234 221.948 275.733 221.948 275.749 222.035Z" fill="#263238"/>
<path d="M286.109 226.012C286.109 226.123 285.151 226.376 283.804 227.224C282.04 228.304 280.652 229.902 279.829 231.8C279.006 233.698 278.787 235.803 279.202 237.829C279.503 239.414 279.994 240.285 279.883 240.34C279.315 239.654 278.926 238.838 278.751 237.964C278.192 235.843 278.365 233.595 279.24 231.583C280.115 229.572 281.642 227.913 283.574 226.875C284.331 226.374 285.204 226.077 286.109 226.012Z" fill="white"/>
<path d="M279.662 222.511C279.709 222.614 278.87 222.946 277.713 223.778C276.194 224.843 274.964 226.27 274.134 227.929C273.304 229.589 272.901 231.429 272.961 233.283C272.961 234.709 273.23 235.58 273.127 235.612C272.731 234.91 272.516 234.12 272.501 233.315C272.314 231.359 272.684 229.389 273.569 227.635C274.453 225.88 275.816 224.411 277.499 223.398C278.137 222.93 278.879 222.626 279.662 222.511Z" fill="white"/>
<path d="M268.28 217.537C268.407 217.679 266.545 218.883 265.698 221.275C264.85 223.667 265.508 225.782 265.317 225.814C265.127 225.846 264.961 225.362 264.795 224.491C264.594 223.342 264.694 222.161 265.087 221.062C265.48 219.964 266.152 218.987 267.036 218.226C267.725 217.656 268.24 217.465 268.28 217.537Z" fill="white"/>
<path d="M266.363 215.112C266.474 215.279 264.454 216.57 262.545 218.772C260.636 220.974 259.615 223.128 259.432 223.049C259.25 222.97 260.05 220.625 262.054 218.344C264.058 216.063 266.3 214.962 266.363 215.112Z" fill="white"/>
<path d="M293.634 235.318C293.784 235.239 294.513 237.449 293.634 240.071C292.755 242.693 290.877 244.031 290.806 243.857C290.735 243.683 292.24 242.273 293.016 239.897C293.792 237.52 293.436 235.35 293.634 235.318Z" fill="white"/>
<path d="M297.88 237.219C298.038 237.219 297.88 239.635 296.739 242.336C295.598 245.037 293.919 246.795 293.8 246.676C293.682 246.558 295.028 244.688 296.137 242.074C297.246 239.461 297.681 237.187 297.88 237.219Z" fill="white"/>
<path d="M284.232 236.649C284.498 237.07 284.914 237.373 285.396 237.497L289.19 238.962C288.779 238.927 288.37 239.049 288.046 239.303C287.721 239.557 287.504 239.925 287.44 240.332C287.4 240.743 287.493 241.156 287.706 241.509C287.918 241.863 288.239 242.139 288.62 242.297C289.006 242.439 289.421 242.478 289.827 242.412C290.232 242.345 290.613 242.174 290.933 241.917C290.296 243.304 289.985 244.818 290.022 246.344C292.957 245.226 295.509 243.287 297.374 240.76C299.239 238.232 300.338 235.222 300.541 232.087L289.729 233.22C287.931 233.41 285.982 233.671 284.731 234.97C284.492 235.17 284.317 235.436 284.228 235.734C284.139 236.033 284.141 236.351 284.232 236.649Z" fill="#FF7C03"/>
<path d="M295.986 236.681C295.891 236.523 296.675 235.889 297.634 235.034C298.592 234.178 299.376 233.545 299.519 233.671C299.662 233.798 299.052 234.677 298.054 235.533C297.056 236.388 296.081 236.832 295.986 236.681Z" fill="#263238"/>
<path d="M293.238 235.191C293.191 235.017 294.521 234.479 296.2 233.995C297.88 233.512 299.297 233.259 299.369 233.433C299.44 233.607 298.093 234.138 296.398 234.621C294.703 235.104 293.286 235.366 293.238 235.191Z" fill="#263238"/>
<path d="M331.543 218.178C331.213 217.802 330.756 217.562 330.259 217.504L326.299 216.578C326.708 216.556 327.095 216.381 327.381 216.087C327.667 215.794 327.832 215.403 327.844 214.994C327.827 214.58 327.677 214.183 327.418 213.861C327.158 213.539 326.802 213.308 326.402 213.203C326 213.116 325.582 213.134 325.189 213.256C324.796 213.378 324.442 213.6 324.16 213.9C324.605 212.441 324.706 210.898 324.454 209.394C321.702 210.905 319.443 213.176 317.946 215.936C316.449 218.695 315.777 221.827 316.01 224.958L326.608 222.328C328.358 221.893 330.252 221.362 331.313 219.904C331.516 219.671 331.646 219.382 331.686 219.075C331.727 218.769 331.677 218.456 331.543 218.178Z" fill="#FF7C03"/>
<path d="M316.311 223.961C316.256 223.786 317.8 223.129 319.654 222.218C321.507 221.307 322.972 220.499 323.075 220.634C323.178 220.769 321.84 221.862 319.907 222.788C317.974 223.715 316.311 224.127 316.311 223.961Z" fill="#263238"/>
<path d="M316.565 223.532C316.43 223.413 317.198 222.336 318.283 221.156C319.369 219.975 320.351 219.064 320.485 219.183C320.62 219.302 319.852 220.379 318.767 221.56C317.681 222.74 316.691 223.627 316.565 223.532Z" fill="#263238"/>
<path d="M300.026 233.758L299.868 233.512C300.874 236.189 304.2 236.902 307.068 236.934C310.143 237.046 313.146 235.981 315.464 233.956C316.592 232.926 317.412 231.603 317.831 230.134C318.251 228.665 318.254 227.109 317.84 225.639C316.707 222.241 313.008 220.197 309.436 220.094C307.728 220.01 306.024 220.333 304.465 221.036C302.906 221.74 301.536 222.805 300.47 224.142C299.441 225.516 298.849 227.167 298.77 228.881C298.691 230.596 299.129 232.295 300.026 233.758Z" fill="#FF7C03"/>
<path d="M312.667 220.586C312.667 220.507 313.222 220.586 314.014 220.863C315.051 221.304 315.972 221.976 316.708 222.829C317.444 223.682 317.975 224.692 318.259 225.782C318.465 226.613 318.418 227.152 318.339 227.16C318.259 227.168 317.855 225.116 316.216 223.255C314.576 221.394 312.596 220.768 312.667 220.586Z" fill="#263238"/>
<path d="M298.616 228.506C298.814 228.506 298.489 230.471 299.408 232.578C300.327 234.684 301.943 235.793 301.824 235.952C301.705 236.11 301.309 235.849 300.683 235.342C299.869 234.667 299.226 233.81 298.806 232.839C298.381 231.87 298.193 230.814 298.26 229.758C298.347 228.95 298.545 228.49 298.616 228.506Z" fill="#263238"/>
<path d="M306.252 220.459C306.363 220.459 306.252 221.481 306.497 223.049C306.817 225.094 307.761 226.99 309.2 228.478C310.64 229.965 312.504 230.971 314.537 231.358C316.121 231.675 317.103 231.572 317.111 231.683C316.252 231.951 315.338 231.995 314.458 231.809C312.276 231.522 310.256 230.505 308.727 228.923C307.198 227.34 306.25 225.287 306.038 223.097C305.884 222.214 305.957 221.306 306.252 220.459Z" fill="white"/>
<path d="M300.557 225.068C300.66 225.068 300.652 225.979 300.984 227.357C301.399 229.159 302.244 230.833 303.448 232.237C304.669 233.619 306.204 234.689 307.923 235.357C309.254 235.872 310.149 235.991 310.133 236.094C309.328 236.191 308.512 236.088 307.757 235.793C305.895 235.225 304.231 234.145 302.952 232.678C301.674 231.21 300.833 229.414 300.525 227.492C300.335 226.694 300.346 225.861 300.557 225.068Z" fill="white"/>
<path d="M291.606 233.687C291.789 233.624 292.185 235.802 294.078 237.505C295.971 239.208 298.165 239.406 298.117 239.596C298.07 239.786 297.571 239.746 296.7 239.596C295.559 239.346 294.504 238.799 293.642 238.012C292.763 237.227 292.112 236.22 291.757 235.097C291.504 234.249 291.527 233.695 291.606 233.687Z" fill="white"/>
<path d="M288.636 234.534C288.826 234.534 289.254 236.863 290.561 239.461C291.868 242.059 293.46 243.833 293.317 243.968C293.175 244.102 291.313 242.471 289.975 239.746C288.636 237.021 288.47 234.534 288.636 234.534Z" fill="white"/>
<path d="M317.737 217.061C317.737 216.894 320.034 217.061 322.101 218.867C324.169 220.672 324.683 222.922 324.517 222.93C324.351 222.938 323.598 220.997 321.674 219.358C319.749 217.718 317.681 217.251 317.737 217.061Z" fill="white"/>
<path d="M321.111 213.869C321.175 213.718 323.361 214.764 325.404 216.871C327.448 218.978 328.446 221.18 328.295 221.251C328.145 221.322 326.925 219.35 324.937 217.33C322.949 215.31 321.008 214.027 321.111 213.869Z" fill="white"/>
<path d="M271.258 245.591C271.358 246.079 271.642 246.51 272.05 246.795L275.06 249.536C274.689 249.355 274.264 249.321 273.869 249.44C273.474 249.559 273.138 249.822 272.929 250.178C272.742 250.546 272.679 250.964 272.749 251.371C272.819 251.777 273.018 252.151 273.317 252.435C273.625 252.709 273.998 252.898 274.401 252.984C274.803 253.07 275.222 253.05 275.614 252.926C274.516 253.984 273.678 255.283 273.167 256.72C276.308 256.736 279.388 255.848 282.039 254.163C284.691 252.478 286.802 250.066 288.121 247.215L277.626 244.372C275.884 243.896 273.975 243.437 272.335 244.189C272.036 244.29 271.775 244.477 271.583 244.726C271.391 244.976 271.278 245.277 271.258 245.591Z" fill="#455A64"/>
<path d="M282.252 249.861C282.213 249.687 283.195 249.338 284.383 248.926C285.571 248.515 286.545 248.134 286.632 248.332C286.719 248.53 285.84 249.124 284.597 249.536C283.353 249.948 282.252 250.035 282.252 249.861Z" fill="#263238"/>
<path d="M280.184 247.477C280.184 247.302 281.634 247.279 283.353 247.437C285.071 247.596 286.521 247.873 286.521 248.055C286.521 248.237 285.071 248.245 283.353 248.055C281.634 247.865 280.161 247.659 280.184 247.477Z" fill="#263238"/>
<path d="M322.046 245.457C321.879 244.987 321.539 244.599 321.095 244.371L317.745 242.074C318.136 242.203 318.562 242.178 318.935 242.004C319.309 241.831 319.602 241.522 319.757 241.14C319.891 240.751 319.896 240.329 319.772 239.937C319.648 239.545 319.401 239.203 319.067 238.962C318.721 238.727 318.319 238.588 317.902 238.559C317.484 238.53 317.067 238.611 316.691 238.795C317.63 237.594 318.28 236.193 318.592 234.7C315.486 235.122 312.567 236.426 310.18 238.458C307.793 240.489 306.04 243.163 305.127 246.162L315.915 247.532C317.697 247.761 319.662 247.952 321.174 246.977C321.453 246.838 321.685 246.619 321.839 246.348C321.994 246.078 322.066 245.768 322.046 245.457Z" fill="#455A64"/>
<path d="M305.745 245.338C305.745 245.156 307.432 245.108 309.483 244.926C311.535 244.744 313.206 244.514 313.246 244.697C313.285 244.879 311.662 245.401 309.539 245.576C307.416 245.75 305.729 245.512 305.745 245.338Z" fill="#263238"/>
<path d="M306.149 245.014C306.07 244.855 307.179 244.134 308.628 243.43C310.078 242.725 311.313 242.226 311.393 242.384C311.472 242.542 310.371 243.271 308.921 244.008C307.472 244.744 306.236 245.18 306.149 245.014Z" fill="#263238"/>
<path d="M287.004 248.602L286.949 248.309C286.909 251.176 289.761 253.061 292.414 254.107C295.244 255.323 298.431 255.414 301.325 254.36C302.749 253.807 303.992 252.869 304.914 251.651C305.835 250.433 306.4 248.982 306.545 247.461C306.719 243.889 304.002 240.649 300.723 239.231C299.155 238.535 297.443 238.222 295.73 238.319C294.016 238.415 292.35 238.918 290.87 239.786C289.416 240.699 288.27 242.027 287.581 243.599C286.892 245.171 286.691 246.914 287.004 248.602Z" fill="#455A64"/>
<path d="M303.574 240.878C303.622 240.815 304.105 241.045 304.739 241.67C305.545 242.455 306.161 243.414 306.537 244.474C306.92 245.533 307.05 246.667 306.917 247.785C306.806 248.641 306.568 249.124 306.497 249.1C306.299 249.1 306.782 247.017 305.919 244.696C305.056 242.375 303.448 241.029 303.574 240.878Z" fill="#263238"/>
<path d="M287.614 243.191C287.788 243.286 286.822 244.974 286.901 247.279C286.98 249.583 288.105 251.199 287.939 251.302C287.773 251.405 287.495 251.017 287.091 250.32C286.582 249.394 286.295 248.363 286.252 247.307C286.21 246.252 286.413 245.201 286.846 244.237C287.202 243.508 287.551 243.152 287.614 243.191Z" fill="#263238"/>
<path d="M297.642 238.447C297.745 238.495 297.253 239.39 296.937 240.95C296.499 242.972 296.695 245.08 297.499 246.987C298.302 248.893 299.674 250.505 301.428 251.604C302.766 252.459 303.748 252.728 303.717 252.839C302.817 252.778 301.948 252.489 301.19 252C299.268 250.938 297.76 249.258 296.91 247.233C296.061 245.208 295.919 242.955 296.509 240.839C296.674 239.958 297.064 239.134 297.642 238.447Z" fill="white"/>
<path d="M290.663 240.688C290.766 240.688 290.434 241.568 290.236 242.978C289.955 244.806 290.137 246.675 290.763 248.416C291.39 250.156 292.442 251.712 293.824 252.942C294.869 253.9 295.661 254.336 295.614 254.431C294.834 254.227 294.117 253.835 293.523 253.29C291.986 252.085 290.819 250.471 290.157 248.633C289.502 246.793 289.371 244.808 289.776 242.898C289.89 242.101 290.194 241.343 290.663 240.688Z" fill="white"/>
<path d="M279.21 245.489C279.4 245.489 278.981 247.675 280.129 249.94C281.278 252.205 283.258 253.188 283.147 253.354C283.036 253.52 282.577 253.298 281.832 252.815C280.862 252.168 280.076 251.279 279.552 250.236C279.029 249.193 278.786 248.032 278.846 246.867C278.909 245.98 279.131 245.473 279.21 245.489Z" fill="white"/>
<path d="M276.129 245.203C276.319 245.243 275.868 247.579 276.129 250.494C276.391 253.409 277.254 255.627 277.072 255.698C276.89 255.769 275.741 253.575 275.488 250.55C275.234 247.524 275.979 245.148 276.129 245.203Z" fill="white"/>
<path d="M309.578 239.429C309.618 239.263 311.725 240.261 312.992 242.684C314.26 245.108 313.943 247.397 313.784 247.342C313.626 247.286 313.626 245.219 312.422 242.993C311.218 240.767 309.46 239.587 309.578 239.429Z" fill="white"/>
<path d="M313.879 237.671C313.998 237.552 315.654 239.31 316.794 242.027C317.935 244.744 318.077 247.136 317.911 247.144C317.745 247.152 317.317 244.887 316.192 242.281C315.068 239.675 313.721 237.79 313.879 237.671Z" fill="white"/>
<path d="M300.351 264.823C300.728 265.15 301.215 265.32 301.713 265.298L305.761 265.631C305.359 265.715 305.004 265.948 304.766 266.282C304.528 266.617 304.425 267.029 304.478 267.436C304.547 267.847 304.749 268.224 305.052 268.51C305.355 268.796 305.743 268.975 306.157 269.021C306.568 269.048 306.979 268.968 307.349 268.789C307.72 268.61 308.038 268.338 308.272 267.999C308.052 269.508 308.182 271.047 308.652 272.498C311.149 270.597 313.046 268.018 314.119 265.069C315.192 262.12 315.395 258.925 314.703 255.864L304.652 259.967C302.989 260.656 301.191 261.456 300.359 263.056C300.182 263.317 300.087 263.624 300.086 263.938C300.085 264.253 300.177 264.561 300.351 264.823Z" fill="#455A64"/>
<path d="M311.638 261.551C311.503 261.433 312.065 260.561 312.747 259.508C313.428 258.454 314.006 257.591 314.172 257.662C314.339 257.734 314.014 258.763 313.293 259.864C312.572 260.965 311.772 261.639 311.638 261.551Z" fill="#263238"/>
<path d="M308.573 260.87C308.486 260.712 309.602 259.825 311.084 258.89C312.565 257.955 313.848 257.306 313.943 257.456C314.038 257.607 312.921 258.494 311.432 259.436C309.943 260.379 308.668 261.021 308.573 260.87Z" fill="#263238"/>
<path d="M340.501 233.718C340.082 233.447 339.575 233.345 339.083 233.433L335.028 233.662C335.415 233.525 335.737 233.246 335.928 232.882C336.119 232.518 336.165 232.095 336.057 231.698C335.926 231.306 335.672 230.967 335.332 230.731C334.992 230.496 334.585 230.377 334.172 230.391C333.762 230.42 333.365 230.554 333.022 230.782C332.679 231.01 332.401 231.323 332.216 231.69C332.228 230.166 331.889 228.659 331.226 227.286C329.016 229.515 327.492 232.332 326.837 235.401C326.181 238.47 326.421 241.664 327.527 244.601L336.905 239.104C338.489 238.193 340.129 237.147 340.739 235.452C340.874 235.172 340.923 234.858 340.881 234.549C340.839 234.241 340.707 233.952 340.501 233.718Z" fill="#455A64"/>
<path d="M327.519 243.58C327.408 243.421 328.715 242.36 330.228 240.958C331.741 239.556 332.929 238.368 333.071 238.487C333.214 238.606 332.232 240.015 330.695 241.441C329.158 242.867 327.614 243.722 327.519 243.58Z" fill="#263238"/>
<path d="M327.646 243.065C327.479 242.994 327.915 241.742 328.612 240.277C329.309 238.812 330.006 237.687 330.196 237.758C330.386 237.829 329.927 239.089 329.23 240.554C328.533 242.019 327.804 243.144 327.646 243.065Z" fill="#263238"/>
<path d="M314.727 257.591L314.505 257.393C316.224 259.69 319.622 259.429 322.371 258.645C325.357 257.887 327.939 256.013 329.587 253.409C330.377 252.102 330.788 250.601 330.774 249.073C330.76 247.546 330.321 246.052 329.507 244.76C327.464 241.829 323.337 240.91 319.876 241.797C318.208 242.201 316.66 242.998 315.363 244.121C314.065 245.244 313.054 246.66 312.414 248.253C311.818 249.862 311.719 251.613 312.132 253.279C312.545 254.944 313.449 256.447 314.727 257.591Z" fill="#455A64"/>
<path d="M323.075 241.362C323.075 241.29 323.598 241.172 324.453 241.251C325.571 241.383 326.643 241.768 327.59 242.376C328.537 242.984 329.333 243.799 329.919 244.76C330.346 245.512 330.457 246.035 330.378 246.067C330.299 246.098 329.333 244.237 327.21 242.898C325.087 241.56 323.067 241.56 323.075 241.362Z" fill="#263238"/>
<path d="M311.852 252.934C312.042 252.934 312.279 254.858 313.777 256.609C315.274 258.359 317.119 258.985 317.048 259.159C316.977 259.334 316.525 259.207 315.78 258.906C314.812 258.482 313.956 257.84 313.278 257.029C312.6 256.218 312.12 255.261 311.876 254.233C311.709 253.441 311.773 252.942 311.852 252.934Z" fill="#263238"/>
<path d="M316.889 243.058C317 243.058 317.151 244.04 317.856 245.473C318.746 247.342 320.189 248.891 321.991 249.91C323.792 250.928 325.863 251.368 327.923 251.168C329.507 251.034 330.442 250.646 330.481 250.749C329.735 251.255 328.87 251.558 327.97 251.628C325.799 251.966 323.578 251.561 321.665 250.479C319.753 249.396 318.263 247.699 317.436 245.664C317.034 244.856 316.846 243.959 316.889 243.058Z" fill="white"/>
<path d="M312.731 249.093C312.834 249.093 313.087 249.932 313.792 251.168C314.69 252.783 315.975 254.15 317.532 255.145C319.089 256.141 320.868 256.734 322.711 256.871C324.129 256.99 325.024 256.871 325.04 256.958C324.292 257.281 323.474 257.409 322.664 257.33C320.71 257.315 318.8 256.748 317.154 255.696C315.507 254.644 314.191 253.149 313.357 251.382C312.964 250.681 312.749 249.895 312.731 249.093Z" fill="white"/>
<path d="M306.584 259.888C306.751 259.777 307.741 261.758 310.038 262.851C312.335 263.944 314.497 263.516 314.505 263.714C314.505 263.793 314.022 264.015 313.135 264.094C311.97 264.172 310.805 263.948 309.752 263.445C308.703 262.935 307.804 262.159 307.147 261.195C306.648 260.459 306.513 259.92 306.584 259.888Z" fill="white"/>
<path d="M303.978 261.551C304.153 261.464 305.23 263.611 307.218 265.734C309.206 267.856 311.242 269.108 311.178 269.274C311.115 269.44 308.802 268.411 306.774 266.177C304.747 263.943 303.82 261.591 303.978 261.551Z" fill="white"/>
<path d="M326.941 236.554C326.877 236.396 329.151 235.897 331.638 237.045C334.125 238.194 335.265 240.214 335.107 240.253C334.949 240.293 333.681 238.669 331.368 237.639C329.056 236.61 326.949 236.752 326.941 236.554Z" fill="white"/>
<path d="M329.277 232.53C329.277 232.372 331.654 232.752 334.244 234.202C336.834 235.651 338.386 237.473 338.26 237.576C338.133 237.679 336.406 236.15 333.927 234.772C331.448 233.394 329.222 232.721 329.277 232.53Z" fill="white"/>
<path d="M278.68 259.026C279.037 258.676 279.247 258.203 279.266 257.703C279.496 256.372 279.717 255.034 279.939 253.695C279.987 254.105 280.188 254.482 280.503 254.75C280.817 255.017 281.222 255.155 281.634 255.137C282.049 255.091 282.438 254.912 282.742 254.626C283.047 254.341 283.25 253.964 283.321 253.552C283.383 253.145 283.339 252.729 283.192 252.344C283.044 251.96 282.8 251.62 282.482 251.358C283.969 251.707 285.517 251.707 287.004 251.358C285.315 248.713 282.903 246.607 280.052 245.291C277.202 243.976 274.035 243.506 270.925 243.937C272.024 247.39 273.122 250.844 274.22 254.297C274.767 256.016 275.416 257.877 276.937 258.843C277.177 259.042 277.471 259.165 277.781 259.197C278.091 259.23 278.404 259.17 278.68 259.026Z" fill="#455A64"/>
<path d="M276.335 247.5C276.2 247.627 275.384 246.994 274.386 246.225C273.388 245.457 272.58 244.815 272.668 244.641C272.755 244.467 273.753 244.895 274.79 245.702C275.828 246.51 276.462 247.382 276.335 247.5Z" fill="#263238"/>
<path d="M275.424 250.463C275.266 250.542 274.474 249.354 273.666 247.802C272.858 246.249 272.319 244.919 272.478 244.832C272.636 244.744 273.42 245.941 274.236 247.501C275.052 249.061 275.591 250.416 275.424 250.463Z" fill="#263238"/>
<path d="M251.036 216.404C250.733 216.798 250.591 217.294 250.64 217.79C250.64 219.144 250.561 220.499 250.529 221.853C250.423 221.456 250.17 221.113 249.823 220.893C249.475 220.673 249.057 220.591 248.652 220.665C248.252 220.765 247.894 220.99 247.632 221.308C247.37 221.626 247.216 222.02 247.195 222.431C247.189 222.843 247.29 223.25 247.488 223.611C247.687 223.972 247.976 224.275 248.327 224.491C246.807 224.356 245.277 224.57 243.852 225.116C245.889 227.506 248.569 229.26 251.575 230.168C254.58 231.077 257.783 231.102 260.802 230.241L256.113 220.443C255.321 218.819 254.434 217.069 252.795 216.324C252.527 216.162 252.216 216.083 251.903 216.097C251.59 216.111 251.289 216.218 251.036 216.404Z" fill="#455A64"/>
<path d="M259.781 230.178C259.614 230.273 258.664 228.886 257.404 227.255C256.145 225.623 255.028 224.356 255.179 224.221C255.329 224.086 256.628 225.18 257.919 226.859C259.21 228.538 259.931 230.09 259.781 230.178Z" fill="#263238"/>
<path d="M259.282 230.011C259.195 230.162 257.983 229.631 256.581 228.807C255.179 227.983 254.11 227.223 254.205 227.049C254.3 226.874 255.504 227.429 256.906 228.245C258.308 229.061 259.377 229.868 259.282 230.011Z" fill="#263238"/>
<path d="M272.652 244.127L272.446 244.333C274.87 242.812 274.893 239.406 274.347 236.594C273.841 233.554 272.188 230.824 269.729 228.966C268.493 228.069 267.031 227.534 265.507 227.421C263.984 227.308 262.459 227.621 261.103 228.325C258.014 230.115 256.755 234.147 257.349 237.671C257.612 239.367 258.276 240.975 259.286 242.363C260.296 243.75 261.622 244.876 263.155 245.648C264.707 246.378 266.444 246.623 268.138 246.352C269.832 246.08 271.405 245.305 272.652 244.127Z" fill="#455A64"/>
<path d="M257.207 234.416C257.127 234.416 257.048 233.885 257.207 233.038C257.429 231.934 257.901 230.896 258.588 230.003C259.275 229.11 260.157 228.387 261.167 227.889C261.959 227.517 262.482 227.454 262.506 227.533C262.529 227.612 260.597 228.42 259.108 230.4C257.619 232.381 257.397 234.448 257.207 234.416Z" fill="#263238"/>
<path d="M267.796 246.574C267.796 246.376 269.745 246.304 271.622 244.99C273.499 243.675 274.26 241.861 274.434 241.94C274.608 242.019 274.434 242.463 274.07 243.184C273.568 244.114 272.856 244.914 271.992 245.522C271.127 246.129 270.133 246.527 269.087 246.685C268.287 246.756 267.796 246.653 267.796 246.574Z" fill="#263238"/>
<path d="M258.371 240.72C258.371 240.609 259.377 240.538 260.858 239.928C262.794 239.198 264.459 237.89 265.626 236.181C266.792 234.472 267.403 232.444 267.376 230.375C267.376 228.791 267.068 227.817 267.171 227.785C267.611 228.571 267.84 229.458 267.836 230.359C267.994 232.553 267.405 234.735 266.166 236.551C264.926 238.368 263.108 239.711 261.008 240.363C260.174 240.705 259.266 240.828 258.371 240.72Z" fill="white"/>
<path d="M264.034 245.37C264.034 245.267 264.898 245.092 266.189 244.49C267.873 243.729 269.341 242.562 270.464 241.094C271.586 239.626 272.327 237.903 272.62 236.078C272.858 234.669 272.795 233.774 272.897 233.766C273.157 234.53 273.22 235.347 273.08 236.142C272.897 238.081 272.175 239.93 270.997 241.481C269.818 243.032 268.23 244.222 266.41 244.918C265.669 245.267 264.852 245.423 264.034 245.37Z" fill="white"/>
<path d="M274.283 252.395C274.188 252.229 276.24 251.397 277.531 249.227C278.822 247.057 278.561 244.847 278.759 244.847C278.957 244.847 279.02 245.362 279.02 246.249C279 247.414 278.678 248.555 278.085 249.559C277.493 250.563 276.649 251.395 275.638 251.975C274.862 252.379 274.331 252.474 274.283 252.395Z" fill="white"/>
<path d="M275.717 255.136C275.638 254.954 277.872 254.059 280.153 252.261C282.434 250.463 283.852 248.53 284.01 248.641C284.169 248.752 282.949 250.907 280.549 252.768C278.149 254.629 275.749 255.295 275.717 255.136Z" fill="white"/>
<path d="M252.731 230.161C252.565 230.209 252.264 227.904 253.619 225.52C254.973 223.136 257.064 222.169 257.104 222.352C257.143 222.534 255.401 223.635 254.189 225.853C252.977 228.07 252.945 230.169 252.731 230.161Z" fill="white"/>
<path d="M248.921 227.493C248.755 227.453 249.341 225.116 250.996 222.685C252.652 220.253 254.6 218.827 254.695 218.962C254.79 219.097 253.111 220.689 251.527 223.049C249.943 225.409 249.103 227.572 248.921 227.493Z" fill="white"/>
<path d="M262.514 243.398C262.319 243.856 262.302 244.369 262.466 244.839C262.767 246.159 263.065 247.479 263.361 248.8C263.16 248.442 262.831 248.173 262.441 248.047C262.05 247.921 261.627 247.946 261.254 248.118C260.89 248.312 260.598 248.617 260.421 248.989C260.244 249.362 260.192 249.781 260.272 250.186C260.366 250.584 260.561 250.952 260.838 251.253C261.116 251.554 261.466 251.779 261.856 251.904C260.357 252.156 258.934 252.746 257.698 253.631C260.261 255.446 263.291 256.486 266.429 256.627C269.566 256.767 272.678 256.002 275.393 254.423L268.422 246.083C267.266 244.697 265.959 243.223 264.185 242.914C263.89 242.823 263.574 242.82 263.277 242.906C262.98 242.992 262.715 243.163 262.514 243.398Z" fill="#455A64"/>
<path d="M269.048 253.172C269.127 253.005 270.117 253.283 271.329 253.623C272.541 253.964 273.539 254.241 273.515 254.415C273.492 254.59 272.422 254.597 271.139 254.241C269.856 253.885 268.977 253.33 269.048 253.172Z" fill="#263238"/>
<path d="M268.787 250.059C268.906 249.924 270.086 250.724 271.424 251.857C272.763 252.989 273.761 254.011 273.65 254.154C273.539 254.296 272.351 253.488 271.004 252.356C269.658 251.223 268.636 250.193 268.787 250.059Z" fill="#263238"/>
<path d="M304.232 272.364C304.369 271.884 304.312 271.369 304.074 270.931C303.598 269.663 303.12 268.396 302.64 267.129C302.887 267.459 303.25 267.683 303.656 267.755C304.062 267.827 304.48 267.742 304.826 267.517C305.16 267.274 305.406 266.93 305.529 266.537C305.652 266.143 305.644 265.72 305.507 265.331C305.356 264.948 305.108 264.61 304.787 264.352C304.466 264.094 304.084 263.923 303.677 263.857C305.146 263.405 306.489 262.616 307.598 261.552C304.809 260.114 301.665 259.507 298.541 259.804C295.417 260.1 292.444 261.287 289.975 263.224L298.03 270.519C299.369 271.731 300.866 273.014 302.664 273.077C302.966 273.122 303.275 273.079 303.553 272.952C303.831 272.826 304.067 272.622 304.232 272.364Z" fill="#FF7C03"/>
<path d="M290.964 262.938C291.075 262.787 292.485 263.73 294.267 264.736C296.049 265.742 297.554 266.534 297.483 266.708C297.412 266.882 295.772 266.367 293.943 265.306C292.113 264.245 290.822 263.072 290.964 262.938Z" fill="#263238"/>
<path d="M291.456 262.907C291.456 262.724 292.802 262.764 294.41 262.994C296.018 263.223 297.301 263.54 297.278 263.722C297.254 263.905 295.923 263.865 294.315 263.635C292.707 263.406 291.432 263.081 291.456 262.907Z" fill="#263238"/>
<path d="M273.729 254.898L273.848 254.629C272.177 256.957 273.444 260.118 275.012 262.51C276.627 265.122 279.176 267.019 282.141 267.817C283.625 268.179 285.181 268.121 286.635 267.65C288.088 267.178 289.381 266.312 290.371 265.148C292.557 262.32 292.192 258.114 290.307 255.072C289.421 253.603 288.196 252.367 286.736 251.466C285.276 250.565 283.622 250.026 281.911 249.892C280.203 249.812 278.51 250.247 277.052 251.139C275.593 252.031 274.436 253.341 273.729 254.898Z" fill="#FF7C03"/>
<path d="M291.709 258.043C291.78 258.043 292.05 258.479 292.232 259.318C292.439 260.424 292.393 261.562 292.097 262.647C291.8 263.733 291.262 264.737 290.521 265.584C289.935 266.217 289.468 266.479 289.42 266.415C289.373 266.352 290.846 264.871 291.472 262.455C292.097 260.039 291.519 258.083 291.709 258.043Z" fill="#263238"/>
<path d="M277.301 250.796C277.389 250.97 275.598 251.786 274.371 253.742C273.143 255.699 273.119 257.639 272.921 257.631C272.723 257.624 272.723 257.148 272.787 256.34C272.896 255.29 273.251 254.281 273.824 253.394C274.394 252.513 275.165 251.78 276.074 251.255C276.779 250.82 277.27 250.725 277.301 250.796Z" fill="#263238"/>
<path d="M288.24 252.648C288.295 252.743 287.376 253.195 286.228 254.288C284.718 255.701 283.68 257.545 283.255 259.568C282.83 261.592 283.038 263.698 283.852 265.599C284.454 267.072 285.103 267.848 285.016 267.92C284.314 267.357 283.769 266.623 283.432 265.789C282.445 263.815 282.158 261.565 282.617 259.406C283.076 257.248 284.254 255.309 285.959 253.908C286.6 253.301 287.385 252.868 288.24 252.648Z" fill="white"/>
<path d="M281.23 250.463C281.293 250.558 280.533 251.057 279.567 252.095C278.294 253.441 277.375 255.082 276.892 256.871C276.41 258.66 276.379 260.54 276.802 262.344C277.119 263.73 277.515 264.546 277.42 264.594C276.898 263.98 276.534 263.249 276.359 262.463C275.792 260.593 275.762 258.601 276.271 256.715C276.781 254.829 277.81 253.123 279.242 251.794C279.785 251.193 280.468 250.736 281.23 250.463Z" fill="white"/>
<path d="M269.087 247.864C269.246 247.983 267.654 249.528 267.297 252.046C266.941 254.565 268.002 256.498 267.82 256.569C267.638 256.64 267.385 256.197 267.028 255.373C266.604 254.287 266.47 253.108 266.639 251.954C266.809 250.8 267.276 249.71 267.994 248.791C268.565 248.086 269.04 247.809 269.087 247.864Z" fill="white"/>
<path d="M266.727 245.868C266.87 246.011 265.143 247.682 263.718 250.217C262.292 252.752 261.698 255.064 261.508 255.025C261.318 254.985 261.634 252.522 263.147 249.892C264.66 247.263 266.632 245.71 266.727 245.868Z" fill="white"/>
<path d="M297.46 260.285C297.594 260.174 298.743 262.194 298.394 264.91C298.046 267.627 296.477 269.322 296.374 269.18C296.271 269.037 297.468 267.35 297.753 264.831C298.038 262.312 297.301 260.348 297.46 260.285Z" fill="white"/>
<path d="M301.99 261.299C302.157 261.299 302.505 263.675 301.895 266.542C301.285 269.41 300.01 271.469 299.875 271.382C299.741 271.295 300.668 269.188 301.254 266.408C301.84 263.628 301.8 261.307 301.99 261.299Z" fill="white"/>
<path d="M248.248 226.994C248.396 226.983 248.544 226.983 248.692 226.994H250.038L255.29 226.947L274.941 226.859L342.267 226.717H342.6V227.042C342.545 228.111 342.497 229.196 342.442 230.289L342.354 231.921L342.101 233.552C341.927 234.645 341.8 235.746 341.578 236.84C341.356 237.933 341.024 239.01 340.739 240.095C340.451 241.19 340.096 242.267 339.677 243.319C339.316 244.4 338.887 245.459 338.394 246.487L336.897 249.592L335.091 252.57C334.546 253.462 333.945 254.319 333.293 255.136C332.652 255.929 332.089 256.847 331.376 257.6C330.044 259.171 328.604 260.648 327.067 262.02C325.571 263.395 323.983 264.668 322.315 265.829C321.499 266.403 320.653 266.932 319.78 267.414C318.947 267.953 318.085 268.447 317.198 268.895C310.409 272.404 302.884 274.253 295.242 274.289C288.785 274.257 282.403 272.906 276.487 270.318C270.571 267.73 265.247 263.96 260.842 259.239C259.065 257.325 257.437 255.278 255.971 253.117C255.337 252.063 254.711 251.033 254.117 250.035C253.523 249.037 253.096 247.984 252.604 247.01L251.907 245.56C251.686 245.085 251.543 244.586 251.361 244.119L250.371 241.37C249.84 239.588 249.476 237.917 249.096 236.436C248.874 234.923 248.684 233.576 248.509 232.404C248.398 231.407 248.34 230.405 248.335 229.402C248.335 228.61 248.288 228.016 248.28 227.58C248.272 227.145 248.28 226.978 248.28 226.978C248.28 226.978 248.28 227.2 248.335 227.62C248.391 228.04 248.406 228.665 248.462 229.449C248.517 230.234 248.517 231.224 248.707 232.38C248.898 233.537 249.111 234.883 249.349 236.38C249.753 237.853 250.141 239.509 250.672 241.275C250.997 242.146 251.337 243.049 251.686 243.992C251.868 244.459 252.018 244.958 252.24 245.426L252.937 246.859C253.436 247.818 253.848 248.863 254.458 249.845C255.068 250.828 255.686 251.841 256.327 252.887C257.792 255.02 259.418 257.038 261.191 258.923C265.567 263.567 270.845 267.27 276.701 269.806C282.557 272.341 288.868 273.657 295.25 273.671C302.792 273.619 310.215 271.784 316.913 268.317C318.638 267.368 320.318 266.343 321.951 265.243C323.594 264.1 325.156 262.842 326.624 261.481C328.138 260.126 329.559 258.671 330.877 257.125C331.574 256.38 332.129 255.501 332.762 254.701C333.407 253.893 333.997 253.044 334.529 252.158C335.131 251.176 335.725 250.202 336.311 249.228L337.792 246.162C338.28 245.147 338.704 244.102 339.059 243.034C339.475 242 339.827 240.942 340.113 239.865C340.39 238.788 340.659 237.719 340.905 236.649C341.15 235.58 341.253 234.487 341.428 233.41L341.673 231.826L341.76 230.242L341.927 227.073L342.244 227.39L275.163 227.24L255.432 227.152L250.117 227.113H248.731L248.248 226.994Z" fill="#263238"/>
<path d="M88.2017 231.619C84.8591 233.52 77.8493 238.613 72.3602 250.035C72.1462 250.471 72.0908 250.968 72.2036 251.441C72.3163 251.914 72.5901 252.332 72.978 252.625C75.8928 254.811 83.077 259.516 89.271 258.217C89.9289 258.081 90.535 257.762 91.0197 257.296C91.5045 256.831 91.8483 256.239 92.0116 255.587C93.0888 251.223 95.1799 240.15 91.2829 232.522C91.1444 232.256 90.9535 232.021 90.7219 231.83C90.4902 231.64 90.2224 231.498 89.9347 231.414C89.6469 231.33 89.345 231.304 89.0472 231.34C88.7494 231.375 88.4618 231.47 88.2017 231.619Z" fill="#FF7C03"/>
<path opacity="0.3" d="M93.4687 241.844C93.4687 241.844 86.1024 241.844 80.3836 237.932C78.4689 240.085 76.7062 242.369 75.1084 244.767C75.1084 244.767 82.9658 253.646 93.0093 250.035C93.3763 247.321 93.5299 244.582 93.4687 241.844Z" fill="white"/>
<path opacity="0.8" d="M93.4689 241.844C93.5397 238.587 92.7878 235.364 91.2827 232.474C91.1455 232.203 90.9538 231.963 90.7196 231.769C90.4853 231.575 90.2136 231.432 89.9215 231.348C89.6293 231.264 89.3229 231.241 89.0216 231.281C88.7202 231.321 88.4302 231.422 88.1699 231.579C85.2523 233.261 82.6236 235.401 80.3838 237.916C82.3334 239.213 84.4704 240.204 86.7204 240.854C90.9184 242.217 93.4689 241.844 93.4689 241.844Z" fill="white"/>
<path d="M52.2808 244.277C54.5462 244.19 59.5917 243.421 65.5639 238.93C65.794 238.759 65.9576 238.513 66.0269 238.234C66.0962 237.955 66.067 237.661 65.9441 237.402C65.0095 235.469 62.5224 231.065 58.9263 230.067C58.545 229.962 58.142 229.966 57.7628 230.078C57.3835 230.19 57.0431 230.406 56.7798 230.701C55.0373 232.697 50.9264 237.917 50.9185 242.97C50.9183 243.146 50.9539 243.321 51.023 243.483C51.0921 243.646 51.1934 243.792 51.3206 243.914C51.4479 244.036 51.5986 244.132 51.7637 244.194C51.9287 244.256 52.1046 244.284 52.2808 244.277Z" fill="#FF7C03"/>
<path opacity="0.3" d="M52.2808 237.473C54.6691 238.795 56.6663 240.724 58.0708 243.065C59.6546 242.455 61.1948 241.738 62.6807 240.918C62.6807 240.918 60.9698 234.138 54.76 233.314C53.8267 234.634 52.9978 236.024 52.2808 237.473Z" fill="white"/>
<path opacity="0.8" d="M52.2808 237.473C51.3611 239.159 50.8816 241.049 50.8868 242.97C50.8853 243.149 50.9208 243.326 50.9909 243.491C51.061 243.656 51.1642 243.805 51.2942 243.928C51.4242 244.051 51.5782 244.147 51.7465 244.208C51.9149 244.269 52.094 244.295 52.2729 244.284C54.2584 244.191 56.2161 243.779 58.0709 243.065C57.3991 241.857 56.5471 240.76 55.5442 239.809C54.6218 238.822 53.5126 238.028 52.2808 237.473Z" fill="white"/>
<path d="M186.453 95.9462C187.522 95.2513 188.398 94.297 188.999 93.1724C189.6 92.0478 189.906 90.7893 189.89 89.5142C189.874 88.2391 189.535 86.9889 188.906 85.88C188.276 84.7711 187.376 83.8395 186.289 83.172C186.289 83.172 188.569 81.9124 189.734 81.3804C190.9 80.8485 191.982 79.914 193.592 81.6593C194.279 82.5178 194.888 83.4362 195.411 84.4034C196.838 86.9614 197.813 89.0276 197.898 91.9598C197.973 93.4261 197.752 94.8926 197.247 96.2715C196.743 97.6504 195.965 98.9133 194.961 99.9846" fill="#455A64"/>
<path d="M146.696 111.307C148.035 107.061 148.65 102.619 148.516 98.1688C148.407 94.757 147.434 91.4288 145.687 88.4963C145.687 88.4963 166.958 77.4823 191.101 98.0988C191.101 98.0988 216.252 87.9219 235.792 107.091C235.792 107.091 236.016 121.901 225.024 133.67L146.696 111.307Z" fill="#FF7C03"/>
<g opacity="0.3">
<path d="M145.687 88.496C145.935 88.0315 159.374 93.8165 164.149 99.4735C165.159 100.668 167.394 103.424 167.394 103.424C167.394 103.424 170.939 102.839 172.591 102.537C186.664 100.076 195.896 104.412 201.795 114.698C202.229 115.456 203.189 116.678 204.01 116.921C205.152 117.248 206.968 116.341 207.971 115.714C213.555 112.26 220.317 112.034 226.605 113.93C228.734 110.774 232.247 108.598 235.754 107.08C235.754 107.08 236.387 121.035 224.986 133.659L146.703 111.284C146.703 111.284 148.849 105.966 148.489 96.9664C148.325 92.7841 145.687 88.496 145.687 88.496Z" fill="black"/>
</g>
<path d="M235.573 107.514C235.573 107.514 235.514 107.547 235.395 107.587L234.857 107.771C234.168 108.024 233.495 108.318 232.842 108.653C230.373 109.92 228.281 111.814 226.774 114.144L226.748 114.235L226.649 114.207C224.154 113.315 221.517 112.882 218.867 112.93C215.654 112.973 212.489 113.713 209.589 115.097C208.802 115.481 208.034 115.905 207.29 116.368C206.517 116.924 205.602 117.248 204.651 117.302C204.151 117.279 203.667 117.124 203.247 116.852C202.838 116.578 202.476 116.241 202.173 115.853C201.606 115.076 201.084 114.266 200.609 113.429C198.474 110.038 195.527 107.234 192.034 105.269C190.066 104.165 187.949 103.349 185.749 102.846C183.635 102.412 181.477 102.223 179.319 102.286C175.327 102.471 171.35 102.908 167.412 103.594L167.308 103.614L167.241 103.529C163.175 98.5159 158.144 94.3692 152.447 91.3345C150.848 90.4868 149.191 89.7518 147.49 89.1352C146.903 88.9099 146.441 88.7695 146.133 88.6651L145.783 88.5649L145.661 88.5301C145.661 88.5301 145.661 88.5301 145.783 88.5649L146.133 88.6651C146.445 88.7543 146.895 88.8827 147.519 89.0612C149.242 89.6367 150.918 90.3444 152.533 91.1779C158.304 94.1634 163.402 98.3008 167.511 103.334L167.343 103.286C171.284 102.574 175.266 102.119 179.266 101.924C181.465 101.855 183.664 102.044 185.819 102.487C188.058 102.999 190.212 103.831 192.214 104.958C195.766 106.954 198.762 109.807 200.93 113.257C201.394 114.085 201.905 114.886 202.461 115.655C202.707 116.018 203.03 116.323 203.407 116.547C203.784 116.772 204.206 116.911 204.643 116.954C205.518 116.901 206.36 116.602 207.073 116.092C207.828 115.622 208.608 115.193 209.409 114.807C212.359 113.414 215.577 112.678 218.84 112.65C221.517 112.622 224.177 113.081 226.691 114.004L226.545 114.053C228.075 111.694 230.216 109.792 232.739 108.55C233.635 108.084 234.588 107.736 235.573 107.514Z" fill="#263238"/>
<path d="M191.488 98.1261C191.469 98.1947 190.079 97.7811 187.769 97.5078C181.711 96.7713 175.584 98.1447 170.42 101.397C168.422 102.622 167.377 103.6 167.334 103.546C167.544 103.278 167.787 103.037 168.058 102.831C168.76 102.226 169.5 101.667 170.274 101.158C175.432 97.7216 181.679 96.3172 187.811 97.2152C188.729 97.3464 189.637 97.5399 190.529 97.7942C190.86 97.8687 191.182 97.98 191.488 98.1261Z" fill="#263238"/>
<path d="M205.152 117.248C205.083 117.228 204.835 115.905 204.121 113.823C203.71 112.611 203.223 111.426 202.663 110.276C201.242 107.441 199.368 104.857 197.114 102.627C196.202 101.716 195.231 100.866 194.208 100.083C192.453 98.7572 191.251 98.0924 191.288 98.0205C191.592 98.1293 191.883 98.2705 192.156 98.4417C192.493 98.6159 192.821 98.8084 193.137 99.0184C193.505 99.2556 193.943 99.5124 194.381 99.8519C195.443 100.61 196.446 101.447 197.381 102.357C199.684 104.587 201.573 107.208 202.961 110.097C203.532 111.271 204.01 112.488 204.393 113.736C204.573 114.257 204.68 114.749 204.804 115.18C204.928 115.61 204.987 115.981 205.038 116.293C205.112 116.606 205.15 116.926 205.152 117.248Z" fill="#263238"/>
<path d="M226.734 113.851C226.734 113.851 226.561 113.275 226.208 112.259C225.7 110.829 225.004 109.473 224.14 108.225C222.833 106.402 221.215 104.824 219.36 103.563C217.088 102.004 214.612 100.764 212.002 99.8788C207.256 98.2384 202.258 97.4512 197.237 97.5535C195.714 97.589 194.193 97.7043 192.682 97.899C191.617 98.023 191.022 98.1165 190.985 98.073C191.118 98.016 191.259 97.9786 191.403 97.962C191.684 97.9022 192.091 97.8043 192.632 97.7282C194.142 97.4845 195.666 97.3313 197.195 97.2695C202.259 97.0845 207.314 97.842 212.101 99.5035C214.747 100.404 217.252 101.675 219.541 103.277C221.42 104.583 223.046 106.22 224.338 108.109C225.198 109.385 225.861 110.783 226.308 112.255C226.438 112.649 226.543 113.051 226.624 113.457C226.68 113.583 226.717 113.715 226.734 113.851Z" fill="#263238"/>
<path d="M166.636 116.8C166.567 116.78 167.044 116.093 167.642 114.863C168.434 113.304 168.941 111.617 169.141 109.88C169.393 108.162 169.164 106.409 168.48 104.814C168.124 104.19 167.622 103.662 167.017 103.275C167.385 103.371 167.728 103.544 168.023 103.783C168.319 104.023 168.559 104.322 168.729 104.663C169.148 105.369 169.414 106.155 169.511 106.97C169.66 107.95 169.683 108.945 169.58 109.931C169.384 111.717 168.823 113.444 167.932 115.004C167.599 115.668 167.161 116.275 166.636 116.8Z" fill="#263238"/>
<path d="M202.674 127.388C202.491 126.87 202.397 126.325 202.393 125.775C202.308 124.454 202.41 123.127 202.696 121.834C202.992 120.534 203.477 119.285 204.134 118.126C204.369 117.629 204.688 117.177 205.077 116.789C205.214 116.828 203.771 118.936 203.107 121.893C202.779 123.706 202.634 125.546 202.674 127.388Z" fill="#263238"/>
<path d="M222.116 133.324C222.02 133.073 221.953 132.81 221.919 132.543C221.784 131.828 221.691 131.105 221.64 130.379C221.455 127.968 221.64 125.543 222.187 123.187C222.743 120.833 223.665 118.581 224.919 116.513C225.297 115.89 225.713 115.291 226.165 114.719C226.314 114.496 226.493 114.295 226.698 114.122C226.767 114.141 226.072 115.071 225.149 116.661C223.981 118.735 223.107 120.961 222.55 123.274C222.016 125.594 221.795 127.975 221.894 130.353C221.982 132.149 222.171 133.274 222.116 133.324Z" fill="#263238"/>
<path d="M124.32 126.763C122.316 127.959 74.8788 136.593 74.8867 203.943C74.8867 243.753 112.265 273.986 145.96 274.358C166.165 274.588 191.171 274.604 209.072 274.358C231.321 274.065 252.723 265.044 267.9 248.774C278.854 237.02 287.567 220.608 286.521 198.414C283.828 140.878 232.573 125.155 232.573 125.155L124.32 126.763Z" fill="#FF7C03"/>
<path d="M148.685 273.431C148.537 273.423 148.39 273.397 148.249 273.352L146.997 273.059C146.314 272.909 145.64 272.721 144.978 272.497C144.186 272.267 143.267 271.974 142.261 271.578C136.555 269.397 131.326 266.132 126.863 261.962C123.762 259.122 121.001 255.932 118.633 252.457C115.969 248.435 113.602 244.223 111.552 239.855C109.224 235.052 107.241 230.089 105.619 225.004C103.846 219.552 102.651 213.929 102.055 208.228C101.512 202.523 101.475 196.782 101.944 191.071C102.39 185.758 103.224 180.485 104.439 175.293C105.461 170.575 106.825 165.937 108.518 161.416C110.054 157.503 111.878 153.709 113.976 150.066C117.01 144.793 120.546 139.824 124.534 135.23C125.231 134.438 125.881 133.709 126.443 133.1C127.005 132.49 127.489 131.983 127.9 131.587L128.811 130.684L129.136 130.391C129.053 130.511 128.957 130.622 128.851 130.723L127.98 131.666C127.584 132.078 127.116 132.593 126.57 133.21C126.023 133.828 125.382 134.541 124.693 135.365C120.79 140.004 117.322 144.991 114.332 150.264C112.266 153.899 110.471 157.682 108.962 161.583C107.294 166.087 105.955 170.706 104.954 175.404C103.758 180.574 102.938 185.823 102.499 191.111C102.044 196.791 102.084 202.499 102.617 208.172C103.218 213.824 104.402 219.398 106.15 224.806C107.753 229.864 109.709 234.803 112.004 239.586C114.03 243.938 116.37 248.136 119.005 252.148C121.34 255.614 124.061 258.802 127.116 261.653C131.529 265.818 136.693 269.108 142.332 271.348C143.322 271.76 144.225 272.069 145.017 272.323C145.809 272.576 146.467 272.79 147.013 272.932L148.257 273.273C148.403 273.315 148.546 273.368 148.685 273.431Z" fill="#263238"/>
<path d="M162.87 274.01C162.776 273.92 162.694 273.819 162.625 273.709L161.936 272.782C161.357 271.951 160.431 270.778 159.393 269.155C156.362 264.645 153.641 259.935 151.251 255.056C147.7 247.815 144.805 240.271 142.601 232.513C139.899 223.006 138.221 213.237 137.595 203.373C137.556 202.058 137.429 200.759 137.453 199.46C137.476 198.161 137.453 196.87 137.492 195.587C137.643 193.028 137.746 190.509 138.07 188.046C138.395 185.583 138.752 183.183 139.116 180.83C139.607 178.494 140.011 176.197 140.589 173.995C142.514 166.165 145.013 158.487 148.066 151.025C150.641 144.688 152.969 139.595 154.641 136.126C155.433 134.391 156.138 133.06 156.589 132.165C156.803 131.73 156.977 131.373 157.112 131.136C157.164 131.016 157.228 130.902 157.302 130.795C157.267 130.921 157.219 131.043 157.159 131.159L156.684 132.213C156.249 133.155 155.631 134.51 154.831 136.229C153.247 139.714 150.95 144.791 148.431 151.175C145.435 158.645 142.981 166.322 141.088 174.145C140.51 176.339 140.122 178.628 139.639 180.957C139.282 183.333 138.847 185.709 138.609 188.141C138.371 190.573 138.189 193.1 138.039 195.634C138.039 196.909 138.039 198.193 138.039 199.484C138.039 200.775 138.142 202.066 138.181 203.373C138.805 213.195 140.459 222.925 143.116 232.402C145.297 240.138 148.146 247.67 151.631 254.913C153.987 259.795 156.651 264.523 159.607 269.067C160.613 270.707 161.508 271.903 162.062 272.751C162.332 273.147 162.538 273.463 162.696 273.709C162.763 273.804 162.821 273.905 162.87 274.01Z" fill="#263238"/>
<path d="M212.755 273.765C212.879 273.679 213.009 273.602 213.143 273.535L214.284 272.917C215.728 272.092 217.11 271.163 218.419 270.137C220.483 268.507 222.373 266.667 224.058 264.648C226.281 261.963 228.286 259.105 230.054 256.102C234.822 248.373 239.031 240.313 242.648 231.983C246.609 222.565 250.102 211.714 251.361 199.944C252.62 188.173 251.424 176.76 248.193 167.049C245.352 158.411 240.626 150.513 234.355 143.928C231.932 141.412 229.28 139.127 226.434 137.1L224.597 135.841C224.003 135.453 223.401 135.12 222.838 134.772C221.73 134.067 220.636 133.552 219.67 133.045C218.183 132.297 216.658 131.628 215.1 131.041L213.888 130.574C213.75 130.525 213.615 130.467 213.484 130.399C213.63 130.424 213.774 130.464 213.912 130.518L215.139 130.938C216.719 131.479 218.264 132.117 219.765 132.847C220.732 133.346 221.84 133.845 222.934 134.542C223.504 134.883 224.106 135.215 224.716 135.603L226.577 136.847C229.442 138.865 232.114 141.142 234.561 143.651C240.923 150.248 245.722 158.19 248.605 166.89C251.884 176.664 253.088 188.181 251.836 199.999C250.585 211.817 247.084 222.747 243.068 232.181C239.414 240.523 235.154 248.587 230.324 256.308C228.525 259.316 226.482 262.172 224.217 264.846C222.501 266.865 220.576 268.697 218.474 270.312C217.145 271.324 215.736 272.228 214.26 273.012C213.753 273.282 213.357 273.464 213.096 273.591C212.987 273.658 212.874 273.716 212.755 273.765Z" fill="#263238"/>
<g opacity="0.3">
<path d="M213.888 130.138C213.888 130.138 239.583 141.052 247.496 164.316C252.806 179.604 253.658 196.087 249.951 211.84C246.212 227.769 238.862 242.628 230.244 256.553C225.832 263.721 220.739 269.915 213.127 273.543C213.127 273.543 226.593 271.769 239.749 247.523C251.155 226.502 256.026 209.63 256.153 194.502C256.232 186.019 254.632 141.528 213.888 130.138Z" fill="black"/>
</g>
<path d="M182.45 273.432C182.44 273.306 182.44 273.178 182.45 273.052C182.45 272.783 182.521 272.418 182.577 271.967C182.704 270.969 182.886 269.591 183.116 267.769C183.345 265.947 183.662 263.729 183.908 261.131C184.153 258.533 184.581 255.587 184.866 252.331C185.151 249.076 185.547 245.488 185.809 241.638C186.07 237.789 186.347 233.718 186.601 229.353C186.997 220.688 187.203 211.135 187.036 201.139C186.87 191.143 186.244 181.607 185.523 172.957C185.104 168.641 184.731 164.538 184.24 160.712C183.749 156.886 183.306 153.322 182.838 150.074C182.371 146.827 181.88 143.896 181.468 141.322C181.056 138.748 180.676 136.57 180.32 134.74C179.963 132.91 179.749 131.572 179.527 130.581C179.456 130.122 179.393 129.789 179.345 129.496C179.323 129.373 179.31 129.249 179.306 129.124C179.349 129.24 179.38 129.359 179.401 129.48C179.464 129.75 179.543 130.106 179.638 130.558C179.844 131.54 180.129 132.934 180.494 134.7C180.858 136.467 181.286 138.661 181.737 141.274C182.189 143.888 182.727 146.764 183.187 149.987C183.646 153.211 184.209 156.791 184.652 160.625C185.096 164.458 185.555 168.546 185.991 172.886C186.783 181.536 187.337 191.104 187.575 201.1C187.813 211.096 187.512 220.672 187.092 229.345C186.838 233.678 186.617 237.797 186.3 241.646C185.983 245.496 185.634 249.076 185.294 252.339C184.953 255.603 184.565 258.549 184.248 261.139C183.931 263.729 183.607 265.955 183.329 267.769C183.052 269.583 182.838 270.937 182.688 271.951L182.506 273.036C182.496 273.169 182.477 273.301 182.45 273.432Z" fill="#263238"/>
<g opacity="0.3">
<path d="M181.057 138.438C187.883 180.672 188.707 223.657 183.504 266.121C192.962 223.777 192.597 180.26 181.057 138.438Z" fill="black"/>
</g>
<g opacity="0.3">
<path d="M113.302 193.33L127.298 213.924C128.969 216.387 130.767 218.961 133.453 220.26C136.138 221.559 139.956 221.052 141.255 218.335C141.849 222.232 144.486 225.591 147.694 227.84C150.902 230.09 154.688 231.476 158.443 232.68C163.074 234.169 167.755 235.489 172.486 236.64C174.307 237.201 176.224 237.382 178.118 237.171C179.987 236.846 181.817 235.587 182.237 233.725L186.522 238.137C213.848 236.11 239.329 217.749 249.888 192.466L219.409 220.83L189.357 232.022L181.595 224.324L170.926 228.521L154.973 226.193L146.807 216.165L134.989 211.262L113.603 192.435" fill="black"/>
</g>
<path d="M224.121 207.626L222.411 214.026L216.383 210.604C215.084 211.047 213.795 211.462 212.517 211.847L201.31 225.439L192.328 215.935C186.633 216.519 180.899 216.625 175.187 216.251L163.837 225.439L156.47 213.329C130.181 206.818 113.698 192.434 113.698 192.434C119.311 202.788 127.174 211.753 136.708 218.667C138.649 216.83 141.777 214.144 141.777 214.144L150.538 226.699C158.416 230.179 166.829 232.295 175.417 232.956L180.755 227.523L185.555 233.146C228.676 231.222 250.775 192.426 250.775 192.426C242.485 198.471 233.545 203.569 224.121 207.626Z" fill="#263238"/>
<g opacity="0.3">
<path d="M148.217 193.131L146.847 195.523L168.693 202.121L168.114 198.311L148.217 193.131Z" fill="black"/>
</g>
<path d="M163.353 160.269C162.07 161.56 148.217 193.132 148.217 193.132L168.193 198.93L163.353 160.269Z" fill="#263238"/>
<g opacity="0.3">
<path d="M201.706 198.446L201.238 201.868L222.284 194.24L220.905 191.697L201.706 198.446Z" fill="black"/>
</g>
<path d="M205.555 160.387C206.854 161.622 221.183 192.291 221.183 192.291L201.706 198.446L205.555 160.387Z" fill="#263238"/>
<g opacity="0.3">
<path d="M113.192 151.919C101.532 163.357 96.4315 183.649 96.4473 201.479C96.4631 219.309 103.148 237.558 116.518 249.36C107.41 231.269 100.162 215.095 102.261 190.374C103.402 177.107 107.014 165.265 113.16 151.919" fill="black"/>
</g>
<path d="M232.573 125.314C232.573 125.314 232.486 125.314 232.304 125.314H231.512L228.343 125.369L216.85 125.528L178.926 126.241C164.114 126.542 150.696 126.748 140.993 126.779C136.138 126.779 132.209 126.779 129.492 126.779L126.372 126.74H125.579H125.302C125.394 126.726 125.488 126.726 125.579 126.74H126.372L129.492 126.684L140.985 126.526L178.918 125.821C193.73 125.512 207.139 125.314 216.85 125.274C221.698 125.274 225.626 125.274 228.343 125.274L231.512 125.322H232.304C232.393 125.309 232.483 125.306 232.573 125.314Z" fill="#263238"/>
<path d="M102.007 142.169C101.685 142.661 101.325 143.127 100.93 143.563C100.201 144.434 99.1796 145.71 97.9598 147.317C91.5511 155.691 86.5141 165.03 83.0372 174.985C82.3718 176.893 81.857 178.446 81.5322 179.531C81.3837 180.099 81.193 180.655 80.9619 181.194C81.0344 180.61 81.1563 180.032 81.3263 179.468C81.5877 178.367 82.0391 176.791 82.6649 174.858C85.963 164.779 91.0383 155.371 97.6509 147.08C98.9183 145.496 99.9875 144.252 100.764 143.42C101.143 142.97 101.559 142.551 102.007 142.169Z" fill="white"/>
<path d="M104.93 194.319C104.815 193.327 104.815 192.325 104.93 191.333C105.071 188.945 105.336 186.566 105.722 184.205C106.091 181.831 106.58 179.479 107.188 177.155C107.396 176.178 107.704 175.225 108.107 174.312C108.01 175.301 107.832 176.281 107.576 177.242C107.196 179.04 106.705 181.527 106.269 184.292C105.833 187.056 105.532 189.567 105.342 191.42C105.277 192.396 105.14 193.365 104.93 194.319Z" fill="white"/>
<path d="M110.593 164.324C110.736 164.403 110.237 165.527 109.762 166.945C109.286 168.363 108.97 169.559 108.827 169.535C108.685 169.512 108.732 168.244 109.239 166.771C109.746 165.298 110.467 164.244 110.593 164.324Z" fill="white"/>
<path d="M140.573 200.03C140.431 200.07 140.035 199.016 140.043 197.654C140.051 196.292 140.431 195.23 140.573 195.278C140.716 195.325 140.573 196.371 140.573 197.654C140.573 198.937 140.724 199.991 140.573 200.03Z" fill="white"/>
<g opacity="0.3">
<path d="M98.4116 78.2808C98.4987 78.5739 97.6195 79.0729 96.3126 79.9284C95.5638 80.437 94.8421 80.9843 94.1502 81.568C93.3243 82.302 92.5538 83.0963 91.8453 83.9442C90.5611 85.4841 89.5121 87.2058 88.7324 89.0531C88.1067 90.4788 87.7899 91.4293 87.481 91.4293C87.172 91.4293 87.0215 90.3441 87.3384 88.6412C87.5242 87.6286 87.8383 86.6437 88.273 85.7105C89.336 83.4426 90.9745 81.4927 93.0255 80.0551C93.8515 79.4715 94.7451 78.9901 95.6868 78.6214C97.2552 78.0274 98.3403 78.0274 98.4116 78.2808Z" fill="white"/>
</g>
<g opacity="0.3">
<path d="M104.701 96.6959C104.424 96.6959 104.17 96.1573 104.21 95.2702C104.324 94.124 104.785 93.04 105.533 92.1637C106.28 91.2873 107.278 90.6605 108.392 90.3673C109.263 90.1772 109.818 90.3673 109.873 90.6207C109.968 91.191 108.384 91.9435 107.109 93.5039C105.833 95.0643 105.279 96.6959 104.701 96.6959Z" fill="white"/>
</g>
<g opacity="0.3">
<path d="M122.459 102.447C122.522 102.732 122.197 103.057 121.754 103.469C121.194 103.964 120.665 104.493 120.17 105.053C119.698 105.625 119.262 106.226 118.863 106.851C118.522 107.358 118.253 107.73 117.96 107.706C117.667 107.683 117.437 107.231 117.461 106.447C117.544 105.437 117.945 104.479 118.605 103.709C119.264 102.94 120.15 102.398 121.136 102.162C121.904 102.003 122.403 102.178 122.459 102.447Z" fill="white"/>
</g>
<g opacity="0.3">
<path d="M106.902 70.1131C106.617 70.6517 103.069 69.0676 98.4745 69.226C93.8804 69.3844 90.4191 71.0477 90.1102 70.525C89.9676 70.3032 90.6805 69.527 92.1458 68.7349C93.0138 68.2855 93.9272 67.9297 94.8705 67.6735C97.2001 67.0566 99.6422 66.997 101.999 67.4992C102.954 67.7066 103.884 68.0174 104.771 68.426C106.284 69.1468 107.029 69.8675 106.902 70.1131Z" fill="white"/>
</g>
<g opacity="0.3">
<path d="M171.86 49.362C169.985 47.8609 167.794 46.8023 165.453 46.265C160.645 45.3937 156.011 48.1659 151.916 50.8115C154.078 50.6496 156.208 50.2021 158.253 49.4808L157.461 49.7184C160.629 48.1739 164.526 48.5699 167.805 49.9323C171.084 51.2946 173.904 53.56 176.676 55.7857C176.312 53.061 174.086 50.9778 171.86 49.362Z" fill="white"/>
</g>
<g opacity="0.3">
<path d="M200.668 46.0598C195.971 46.8994 191.361 49.9331 189.523 54.337C192.995 51.897 196.973 50.2733 201.161 49.5875C205.348 48.9017 209.637 49.1715 213.705 50.3766C212.052 48.6439 209.999 47.344 207.725 46.5913C205.452 45.8385 203.028 45.656 200.668 46.0598Z" fill="white"/>
</g>
<g opacity="0.3">
<path d="M185.27 60.1968C185.453 60.7274 184.13 61.6383 182.261 61.6383C180.391 61.6383 179.092 60.7274 179.243 60.1968C179.393 59.6661 180.748 59.5869 182.261 59.571C183.773 59.5552 185.096 59.6423 185.27 60.1968Z" fill="white"/>
</g>
<g opacity="0.3">
<path d="M190.673 35.5884C191.172 35.8815 190.451 38.0359 189.366 40.5468C188.28 43.0577 187.203 45.0616 186.657 44.8953C186.11 44.7289 186.332 42.3685 187.449 39.7309C188.566 37.0933 190.189 35.3032 190.673 35.5884Z" fill="white"/>
</g>
<g opacity="0.3">
<path d="M152.756 63.3732C152.859 63.9277 150.997 64.7356 148.597 65.1633C146.197 65.591 144.17 65.4801 144.067 64.9178C143.964 64.3554 145.833 63.5554 148.233 63.1277C150.633 62.6999 152.661 62.8108 152.756 63.3732Z" fill="white"/>
</g>
<g opacity="0.3">
<path d="M221.325 62.1297C221.056 62.6445 219.036 62.0742 216.573 61.6069C214.109 61.1396 212.05 60.8148 211.995 60.2683C211.995 59.9911 212.502 59.6822 213.412 59.4762C215.794 59.0988 218.233 59.5848 220.288 60.8465C221.088 61.393 221.452 61.8762 221.325 62.1297Z" fill="white"/>
</g>
<g opacity="0.3">
<path d="M177.27 46.2014C176.803 46.5182 175.124 44.8707 173.864 42.3282C172.605 39.7856 172.28 37.449 172.835 37.2747C173.389 37.1005 174.514 39.0094 175.71 41.4094C176.906 43.8093 177.746 45.8767 177.27 46.2014Z" fill="white"/>
</g>
</svg>
