<svg width="1000" height="1000" viewBox="0 0 1000 1000" fill="none" xmlns="http://www.w3.org/2000/svg">
<path d="M85 265.552L185.067 838.562L607.027 772.318L626.585 725.061L512.419 195.226L116.9 218.818L85 265.552Z" fill="#E0E0E0"/>
<path opacity="0.3" d="M185.067 838.562L215.044 792.635L114.977 219.602L85 265.552L185.067 838.562Z" fill="black"/>
<path d="M114.978 219.602L215.044 792.635L626.585 725.062L522.602 161.475L114.978 219.602Z" fill="#FAFAFA"/>
<path d="M114.978 219.625L522.531 161H523.029V161.475C552.199 318.861 588.324 513.939 627.202 724.943L627.321 725.584L626.68 725.702L619.892 726.818L215.139 793.276H214.569V792.706C155.707 454.269 115.856 224.657 114.978 219.625C115.856 224.681 156.181 454.198 215.614 792.54L214.949 792.089L619.678 725.631L626.466 724.516L625.944 725.251C587.066 514.224 551.131 319.146 522.103 161.641L522.673 162.044L114.978 219.625Z" fill="#263238"/>
<path d="M456.524 223.871L208.509 263.063C205.467 263.544 203.39 266.401 203.871 269.443L204.708 274.742C205.189 277.785 208.045 279.861 211.088 279.381L459.102 240.188C462.145 239.707 464.222 236.85 463.741 233.808L462.904 228.509C462.423 225.467 459.567 223.39 456.524 223.871Z" fill="#330E00"/>
<path d="M468.524 307.871L220.509 347.063C217.467 347.544 215.39 350.401 215.871 353.443L216.708 358.742C217.189 361.785 220.045 363.861 223.088 363.381L471.102 324.188C474.145 323.707 476.222 320.85 475.741 317.808L474.904 312.509C474.423 309.467 471.567 307.39 468.524 307.871Z" fill="#330E00"/>
<path d="M485.524 380.871L237.509 420.063C234.467 420.544 232.39 423.401 232.871 426.443L233.708 431.742C234.189 434.785 237.045 436.861 240.088 436.381L488.102 397.188C491.145 396.707 493.222 393.85 492.741 390.808L491.904 385.509C491.423 382.467 488.567 380.39 485.524 380.871Z" fill="#330E00"/>
<path d="M512.524 461.871L264.509 501.063C261.467 501.544 259.39 504.401 259.871 507.443L260.708 512.742C261.189 515.785 264.045 517.861 267.088 517.381L515.102 478.188C518.145 477.707 520.222 474.85 519.741 471.808L518.904 466.509C518.423 463.467 515.567 461.39 512.524 461.871Z" fill="#330E00"/>
<path d="M521.524 545.871L273.509 585.063C270.467 585.544 268.39 588.401 268.871 591.443L269.708 596.742C270.189 599.785 273.045 601.861 276.088 601.381L524.102 562.188C527.145 561.707 529.222 558.85 528.741 555.808L527.904 550.509C527.423 547.467 524.567 545.39 521.524 545.871Z" fill="#330E00"/>
<path d="M529.524 607.871L281.509 647.063C278.467 647.544 276.39 650.401 276.871 653.443L277.708 658.742C278.189 661.785 281.045 663.861 284.088 663.381L532.102 624.188C535.145 623.707 537.222 620.85 536.741 617.808L535.904 612.509C535.423 609.467 532.567 607.39 529.524 607.871Z" fill="#330E00"/>
<path d="M417.288 265.126L260.002 289.981C256.959 290.462 254.882 293.318 255.363 296.361L256.2 301.659C256.681 304.702 259.537 306.779 262.58 306.298L419.866 281.443C422.909 280.962 424.986 278.105 424.505 275.063L423.668 269.764C423.187 266.722 420.33 264.645 417.288 265.126Z" fill="#330E00"/>
<path d="M466.934 343.177L240.045 379.031C235.656 379.725 232.487 382.754 232.968 385.796L233.806 391.095C234.286 394.138 238.234 396.042 242.624 395.348L469.513 359.494C473.902 358.8 477.07 355.771 476.59 352.728L475.752 347.43C475.272 344.387 471.324 342.483 466.934 343.177Z" fill="#330E00"/>
<path d="M483.934 416.177L257.045 452.031C252.656 452.725 249.487 455.754 249.968 458.796L250.806 464.095C251.286 467.138 255.234 469.042 259.624 468.348L486.513 432.494C490.902 431.8 494.07 428.771 493.59 425.728L492.752 420.43C492.272 417.387 488.324 415.483 483.934 416.177Z" fill="#330E00"/>
<path d="M510.934 497.177L284.045 533.031C279.656 533.725 276.487 536.754 276.968 539.796L277.806 545.095C278.286 548.138 282.234 550.042 286.624 549.348L513.513 513.494C517.902 512.8 521.07 509.771 520.59 506.728L519.752 501.43C519.272 498.387 515.324 496.483 510.934 497.177Z" fill="#330E00"/>
<path d="M519.934 581.177L293.045 617.031C288.656 617.725 285.487 620.754 285.968 623.796L286.806 629.095C287.286 632.138 291.234 634.042 295.624 633.348L522.513 597.494C526.902 596.8 530.07 593.771 529.59 590.728L528.752 585.43C528.272 582.387 524.324 580.483 519.934 581.177Z" fill="#330E00"/>
<path d="M527.934 643.177L301.045 679.031C296.656 679.725 293.487 682.754 293.968 685.796L294.806 691.095C295.286 694.138 299.234 696.042 303.624 695.348L530.513 659.494C534.902 658.8 538.07 655.771 537.59 652.728L536.752 647.43C536.272 644.387 532.324 642.483 527.934 643.177Z" fill="#330E00"/>
<path d="M605.389 740.988L603.395 741.368L597.509 742.388L574.747 746.186L490.227 760.047L204.695 806.449L204.078 806.568V805.95C200.09 783.283 195.889 759.549 191.617 735.363C168.641 605.414 147.945 487.831 132.968 402.646C125.539 360.065 119.534 325.626 115.356 301.796C113.315 289.928 111.725 280.648 110.609 274.358C110.087 271.225 109.684 268.852 109.399 267.238C109.114 265.624 109.043 264.864 109.043 264.864C109.043 264.864 109.233 265.695 109.541 267.238C109.85 268.781 110.277 271.249 110.847 274.358C111.986 280.648 113.648 289.881 115.807 301.748C120.056 325.483 126.203 359.994 133.799 402.527C148.87 487.688 169.71 605.271 192.709 735.196C196.981 759.359 201.158 783.117 205.17 805.784L204.434 805.262L490.06 759.264L574.628 745.782L597.414 742.198L603.324 741.296L605.389 740.988Z" fill="#263238"/>
<path d="M574.083 762.539L572.208 762.919L566.654 763.892L545.15 767.547L465.21 780.886L193.92 825.793H193.303V825.199L177.709 740.537C154.472 612.368 133.443 496.423 118.205 412.448C110.657 370.485 104.534 336.496 100.309 312.999C98.244 301.274 96.6063 292.159 95.5619 285.941C95.0397 282.879 94.6125 280.529 94.3514 278.82C94.0904 277.111 93.9717 276.447 93.9717 276.447C93.9717 276.447 94.1616 277.23 94.4701 278.82L95.823 285.941C96.9623 292.136 98.6712 301.226 100.855 312.927L119.131 412.306C134.464 496.28 155.635 612.225 179.014 740.323C184.283 769.351 189.457 797.762 194.418 825.081L193.706 824.582L465.02 780.103L545.007 767.12L566.535 763.678L572.113 762.824L574.083 762.539Z" fill="#263238"/>
<path d="M124.923 462.268L115.643 475.37L138.167 610.398L151.577 614.955L124.923 462.268Z" fill="#263238"/>
<path d="M191.241 445.103L187.056 445.833C184.667 446.25 183.068 448.525 183.485 450.913L210.475 605.559C210.892 607.948 213.167 609.547 215.556 609.13L219.741 608.399C222.13 607.982 223.729 605.708 223.312 603.319L196.322 448.673C195.905 446.284 193.63 444.686 191.241 445.103Z" fill="#263238"/>
<path d="M150.295 615.477C150.154 614.97 150.043 614.455 149.962 613.934C149.749 612.819 149.488 611.371 149.156 609.567C148.42 605.603 147.423 600.073 146.189 593.451C143.815 579.685 140.397 560.934 136.695 540.213C132.992 519.493 129.859 500.695 127.462 486.928C126.346 480.211 125.444 474.729 124.803 470.765C124.519 468.937 124.305 467.489 124.139 466.35C124.027 465.836 123.98 465.31 123.996 464.784C124.176 465.277 124.311 465.785 124.4 466.303C124.614 467.442 124.922 468.89 125.278 470.67C126.038 474.634 127.082 480.164 128.34 486.762C130.88 500.386 134.274 519.184 137.834 540C141.394 560.815 144.717 579.637 146.972 593.285C148.087 600.12 148.966 605.651 149.512 609.496C149.773 611.418 150.01 612.89 150.105 613.911C150.232 614.423 150.295 614.949 150.295 615.477Z" fill="#455A64"/>
<path d="M550.183 590.373L593.884 634.111L850.586 377.63L806.886 333.891L550.183 590.373Z" fill="#FF1F1F"/>
<path d="M550.183 590.373L593.884 634.111L850.586 377.63L806.886 333.891L550.183 590.373Z" stroke="#330E00" stroke-width="8" stroke-miterlimit="10" stroke-linecap="round" stroke-linejoin="round"/>
<path d="M564.44 604.64L579.631 619.844L836.333 363.363L821.142 348.158L564.44 604.64Z" stroke="#330E00" stroke-width="8" stroke-miterlimit="10" stroke-linecap="round" stroke-linejoin="round"/>
<path d="M800.852 328.06L856.311 383.566L887.552 352.351L832.094 296.845L800.852 328.06Z" fill="#FDD2A7"/>
<path opacity="0.5" d="M800.852 328.06L817.188 344.41L848.429 313.195L832.093 296.845L800.852 328.06Z" fill="#FDD2A7"/>
<path d="M841.432 368.674L856.311 383.566L887.552 352.351L872.673 337.459L841.432 368.674Z" fill="#FDD2A7"/>
<path d="M800.852 328.06L856.311 383.566L887.552 352.351L832.094 296.845L800.852 328.06Z" stroke="#330E00" stroke-width="8" stroke-miterlimit="10" stroke-linecap="round" stroke-linejoin="round"/>
<path d="M873.841 284.892L899.541 310.614C904.535 315.613 904.532 323.732 899.533 328.727L881.621 346.623L837.92 302.885L855.832 284.988C860.831 279.994 868.846 279.893 873.841 284.892Z" fill="#3BABFF"/>
<path d="M873.841 284.892L899.541 310.614C904.535 315.613 904.532 323.732 899.533 328.727L881.621 346.623L837.92 302.885L855.832 284.988C860.831 279.994 868.846 279.893 873.841 284.892Z" stroke="#330E00" stroke-width="8" stroke-miterlimit="10" stroke-linecap="round" stroke-linejoin="round"/>
<path d="M550.183 590.373L593.883 634.111L502.781 681.435L550.183 590.373Z" fill="#FDD2A7"/>
<path d="M550.183 590.373L593.883 634.111L502.781 681.435L550.183 590.373Z" stroke="#330E00" stroke-width="8" stroke-miterlimit="10" stroke-linecap="round" stroke-linejoin="round"/>
<path d="M502.783 681.435L541.41 661.362L522.889 642.825L502.783 681.435Z" fill="#330E00"/>
</svg>
