<svg width="269" height="320" viewBox="0 0 269 320" fill="none" xmlns="http://www.w3.org/2000/svg">
<path d="M53.7326 229.4C33.7755 242.244 17.164 261.474 13.1202 284.675C11.6656 293.402 12.6256 301.897 17.033 305.941C19.1858 307.919 24.306 311.09 28.6698 310.974C33.95 310.814 41.0485 308.065 44.3796 306.217C56.0164 299.788 63.1148 294.77 72.017 290.377C86.8539 283.104 99.3343 281.518 115.219 285.635C117.153 286.257 119.166 286.605 121.197 286.667C122.218 286.684 123.226 286.446 124.133 285.977C125.039 285.507 125.815 284.82 126.39 283.976C126.875 283.049 127.176 282.036 127.277 280.994C130.056 263.219 126.332 238.956 111.989 226.621C104.476 220.226 94.8379 216.878 84.9775 217.239C75.988 217.69 67.5222 221.399 59.6383 225.807C57.6503 226.941 55.6818 228.139 53.7326 229.4Z" fill="#37474F"/>
<path d="M115.19 285.634C117.124 286.257 119.137 286.605 121.168 286.667C122.189 286.683 123.197 286.446 124.104 285.976C125.01 285.507 125.786 284.82 126.361 283.976C126.846 283.049 127.147 282.036 127.248 280.994C130.027 263.219 126.303 238.956 111.96 226.621C104.795 220.529 95.6918 217.192 86.2867 217.21C80.6137 241.458 89.0941 264.906 94.0542 268.877C97.3562 271.51 97.9671 265.823 97.9671 265.823C99.2751 269.738 100.905 273.537 102.84 277.183C89.6759 275.001 71.3188 283.147 63.4931 288.18C55.6673 293.213 43.7396 300.85 44.1033 296.908C44.5056 289.002 42.3478 281.177 37.9503 274.594L17.8332 269.125C15.6205 274.086 14.0184 279.298 13.0621 284.645C11.6075 293.373 12.5675 301.868 16.975 305.912C19.1278 307.89 24.248 311.061 28.6118 310.945C33.892 310.785 40.9904 308.035 44.3214 306.188C55.9582 299.759 63.0567 294.74 71.9589 290.347C86.8831 283.103 99.3635 281.518 115.19 285.634Z" fill="#263238"/>
<path d="M24.5535 310.755C28.0812 311.46 31.7451 310.833 34.8375 308.995C38.4595 306.711 40.0014 301.402 40.5686 297.358C41.4638 288.73 40.2456 280.013 37.0194 271.961C34.4593 265.721 30.1973 259.568 23.8553 256.484C21.7341 255.51 19.4114 255.054 17.0793 255.155C14.7472 255.257 12.4727 255.911 10.4439 257.066C2.34173 261.604 0.625289 272.15 1.61442 280.907C2.3398 287.713 4.68399 294.247 8.45104 299.962C12.7276 306.173 17.1787 309.315 24.5535 310.755Z" fill="#37474F"/>
<path d="M11.5926 297.492C13.5108 301.395 16.6036 304.6 20.4366 306.656C24.3495 308.503 29.4697 308.212 32.4662 305.099C33.9594 303.451 34.8958 301.375 35.1426 299.164C35.3731 296.969 35.2602 294.751 34.808 292.59C33.8738 287.886 31.8235 283.477 28.8297 279.731C26.9211 277.335 24.2706 275.642 21.2948 274.916C19.4223 274.439 17.4578 274.456 15.5938 274.966C13.7299 275.476 12.0303 276.461 10.6617 277.825C5.74514 282.887 8.63979 292.197 11.5926 297.492Z" fill="#455A64"/>
<path d="M15.7384 263.975C15.843 264.299 15.9256 264.629 15.9857 264.964C16.2473 266.07 16.1347 267.231 15.6657 268.266C14.5165 270.462 12.0728 270.157 10.6764 268.426C10.1028 267.691 9.64646 266.872 9.3236 265.997C8.08719 262.622 11.0546 258.564 14.3565 261.72C14.9892 262.352 15.4628 263.125 15.7384 263.975Z" fill="#455A64"/>
<path d="M27.724 267.191C27.8832 267.491 28.0193 267.802 28.1312 268.122C28.5546 269.173 28.621 270.333 28.3203 271.424C27.5203 273.781 25.0621 273.853 23.4184 272.355C22.7322 271.725 22.1525 270.989 21.7019 270.173C19.9564 267.031 22.2547 262.566 26.0657 265.17C26.7767 265.696 27.3463 266.391 27.724 267.191Z" fill="#455A64"/>
<path d="M2.53086 273.997C2.53086 274.288 2.70541 274.579 2.80724 274.87C3.14655 275.834 3.79633 276.658 4.65456 277.212C6.57464 278.332 8.29108 276.921 8.50927 274.943C8.59681 274.107 8.55264 273.263 8.37836 272.441C7.6947 269.285 3.4909 267.626 2.55996 271.612C2.36145 272.394 2.35147 273.211 2.53086 273.997Z" fill="#455A64"/>
<path d="M142.144 117.44C141.838 114.982 140.893 112.669 140.558 110.269C139.864 105.585 137.472 101.319 133.838 98.2831C132.681 97.2054 131.378 96.2947 129.969 95.5775C127.54 94.5294 124.901 94.0565 122.259 94.1957C114.958 94.3657 107.914 96.92 102.2 101.469C100.562 102.626 99.2538 104.19 98.4038 106.007C98.2223 106.33 98.1344 106.697 98.1498 107.067C98.1652 107.437 98.2834 107.795 98.4911 108.102C98.9212 108.462 99.4729 108.644 100.033 108.611C101.154 108.666 102.278 108.628 103.393 108.494C98.5106 112.153 94.9395 117.291 93.211 123.142C93.1026 123.385 93.0467 123.647 93.0467 123.913C93.0467 124.179 93.1026 124.441 93.211 124.684C93.6619 125.397 94.7819 125.193 95.4801 124.684C96.0893 124.097 96.819 123.651 97.6184 123.375C96.062 126.59 94.7092 129.804 93.3273 133.092C91.4363 137.63 89.7199 142.227 87.9162 146.809C84.3524 155.827 80.4104 164.889 74.1702 172.41C69.9664 177.472 64.8608 181.69 60.1333 186.257C50.1838 195.872 41.7762 207.32 36.8597 220.266C35.9578 222.666 35.1142 225.066 34.3869 227.466C31.4777 234.739 26.3138 249.445 29.6303 255.205C30.4076 256.672 31.5436 257.918 32.9323 258.827L33.0632 259.293C34.0378 262.493 36.8888 266.479 40.2489 267.584C41.5547 268.055 42.9599 268.18 44.3284 267.948C45.6969 267.716 46.9824 267.135 48.0601 266.26C48.5455 265.851 48.9542 265.358 49.2674 264.806C50.2129 264.806 50.722 264.806 51.4639 264.689C55.3768 264.442 58.7369 261.649 60.7879 258.304C62.6304 254.843 63.9304 251.119 64.6426 247.263C65.0376 245.184 65.7489 243.178 66.7518 241.314C68.6507 238.472 71.4627 236.363 74.7229 235.336C80.5475 233.143 86.0821 230.246 91.2036 226.71C99.0261 221.327 105.66 214.396 110.695 206.345C116.019 197.763 118.041 187.886 123.321 179.29C124.616 177.166 126.056 175.115 127.409 173.02C136.592 158.723 141.762 142.219 142.376 125.237C142.506 122.636 142.428 120.029 142.144 117.44Z" fill="#455A64"/>
<path d="M49.2962 264.748C46.7507 264.297 44.4815 262.028 44.3215 257.315C44.1911 254.635 44.4508 251.949 45.0924 249.344C45.0924 249.344 42.4887 254.929 43.1578 259.759C43.2854 261.171 43.728 262.536 44.453 263.754C45.178 264.973 46.1669 266.013 47.347 266.799C47.6097 266.631 47.8579 266.441 48.0889 266.232C48.5769 265.813 48.9859 265.311 49.2962 264.748Z" fill="#37474F"/>
<path d="M32.9611 258.813C32.1923 258.327 31.5091 257.718 30.9392 257.009C30.4643 253.556 30.5528 250.048 31.201 246.623C31.2189 250.748 31.8113 254.851 32.9611 258.813Z" fill="#37474F"/>
<path d="M268.418 193.661C268.141 196.439 265.916 191.872 264.301 191.013C265.756 197.966 266.89 209.283 266.032 212.236C265.174 215.189 263.763 211.087 262.628 210.505C262.817 222.282 261.383 234.029 258.366 245.415C250.293 274.362 229.071 297.432 198.626 302.058C178.829 305.069 156.748 304.443 137.824 297.577C132.558 295.672 128.645 294.348 124.165 290.77C119.685 287.192 115.946 283.279 113.983 278.071V281.199C106.23 274.74 99.4367 265.62 97.2984 255.758C96.8338 258.494 96.5664 261.26 96.4984 264.034C87.8435 253.707 86.3162 231.48 88.5853 216.207C90.3078 206.164 92.8821 196.285 96.2802 186.679C98.273 180.657 100.324 174.635 102.593 168.7C104.217 163.753 105.509 158.705 106.462 153.587C108.921 143.215 112.281 132.917 118.885 124.393C128.343 112.477 141.252 103.774 155.846 99.4754C177.025 93.2352 201.244 94.4134 220.401 105.381C228.242 109.861 230.685 112.319 242.686 129.237C247.05 135.317 250.657 143.186 259.195 158.649C264.097 167.667 269.159 186.271 268.418 193.661Z" fill="#FAFAFA"/>
<path d="M259.195 158.648C260.905 161.776 262.364 165.035 263.559 168.394C264.795 171.74 265.857 175.158 266.774 178.576C267.722 182.034 268.402 185.56 268.81 189.122C268.919 190.02 268.977 190.923 268.985 191.828C268.985 192.279 268.985 192.744 268.985 193.195C269.005 193.432 269.005 193.671 268.985 193.908C268.974 194.047 268.944 194.184 268.897 194.315C268.846 194.506 268.734 194.675 268.577 194.795C268.48 194.876 268.363 194.932 268.239 194.957C268.115 194.983 267.986 194.977 267.864 194.941C267.704 194.892 267.552 194.818 267.414 194.723C267.212 194.568 267.022 194.397 266.846 194.213C266.526 193.864 266.235 193.515 265.959 193.181C265.464 192.518 264.876 191.93 264.213 191.435L264.955 190.882C265.89 195.252 266.536 199.679 266.89 204.134C267.106 206.382 267.155 208.643 267.035 210.898C266.992 211.506 266.875 212.107 266.686 212.687C266.635 212.856 266.562 213.017 266.468 213.167C266.365 213.377 266.216 213.561 266.032 213.705C265.88 213.788 265.719 213.851 265.552 213.894C265.393 213.923 265.23 213.923 265.072 213.894C264.859 213.82 264.661 213.707 264.49 213.56C264.062 213.115 263.682 212.628 263.355 212.105C263.117 211.724 262.823 211.381 262.482 211.087L263.428 210.505C263.585 220.771 262.555 231.022 260.359 241.052C259.777 243.553 259.093 246.041 258.293 248.485C257.493 250.928 256.591 253.328 255.689 255.758C255.224 256.965 254.642 258.114 254.133 259.292C253.624 260.47 253.071 261.634 252.446 262.754L250.467 266.143L248.46 269.416C247.806 270.522 247.006 271.569 246.307 272.616C245.609 273.664 244.853 274.726 244.024 275.715C240.813 279.735 237.228 283.441 233.318 286.784C231.358 288.422 229.314 289.956 227.194 291.381C218.628 297.062 208.885 300.727 198.698 302.101C208.761 300.373 218.329 296.482 226.743 290.697C228.881 289.33 230.772 287.628 232.78 286.071C234.787 284.515 236.547 282.682 238.22 280.777C241.682 277.077 244.776 273.048 247.456 268.747L249.435 265.503L251.209 262.143C251.82 261.038 252.344 259.874 252.853 258.725C253.362 257.576 253.915 256.427 254.308 255.248C255.195 252.863 256.155 250.521 256.824 248.077C257.493 245.634 258.279 243.219 258.831 240.804C261.018 230.875 262.077 220.73 261.988 210.563V209.385L262.933 209.981C263.476 210.368 263.932 210.863 264.272 211.436C264.544 211.862 264.856 212.261 265.203 212.629C265.241 212.665 265.285 212.695 265.333 212.716C265.277 212.696 265.215 212.696 265.159 212.716C265.244 212.597 265.308 212.464 265.348 212.323C265.508 211.853 265.606 211.364 265.639 210.869C265.757 208.682 265.723 206.49 265.537 204.308C265.233 199.914 264.66 195.541 263.821 191.217L263.588 190.024L264.563 190.65C265.341 191.21 266.024 191.893 266.584 192.672C266.861 193.021 267.137 193.37 267.414 193.675C267.543 193.818 267.684 193.949 267.835 194.068L267.981 194.155C267.969 194.16 267.957 194.163 267.945 194.163C267.932 194.163 267.92 194.16 267.908 194.155C267.908 194.155 267.981 194.01 267.995 193.835C268.01 193.661 267.995 193.428 267.995 193.224C267.995 192.788 267.995 192.366 267.995 191.915C267.995 191.042 267.995 190.17 267.864 189.297C267.502 185.769 266.899 182.27 266.061 178.824C265.246 175.362 264.276 171.943 263.152 168.569C262.077 165.17 260.755 161.854 259.195 158.648Z" fill="#E0E0E0"/>
<path d="M242.612 129.237C241.565 120.51 240.954 117.324 240.59 112.524C239.892 103.665 233.07 97.5705 227.848 94.574C208.691 83.6063 167.584 84.8282 146.39 91.083C131.932 95.345 121.008 103.069 112.6 119.55C107.698 129.164 104.032 144.06 105.56 157.267C107.145 155.696 108.702 154.067 110.243 152.482C115.48 147.1 121.589 141.921 129.066 140.321C128.079 139.608 127.132 138.841 126.23 138.023C125.891 137.746 125.639 137.377 125.502 136.961C125.461 136.612 125.532 136.26 125.705 135.954C125.878 135.648 126.143 135.405 126.462 135.259C127.111 134.986 127.81 134.857 128.513 134.881C134.884 134.721 141.605 135.201 146.987 138.576C146.411 137.58 145.718 136.657 144.921 135.827C144.536 135.401 144.306 134.858 144.266 134.286C144.227 133.714 144.38 133.145 144.703 132.67C145.152 132.272 145.719 132.032 146.318 131.986C151.831 130.997 157.431 133.106 162.318 135.71C175.41 142.576 186.755 152.904 196.69 163.697C201.025 168.74 206.049 173.147 211.615 176.788C225.332 185.094 251.471 187.363 263.209 174.359C263.718 173.806 264.184 173.239 264.664 172.672C263.257 167.815 261.376 163.109 259.049 158.62C250.583 143.187 246.918 135.317 242.612 129.237Z" fill="#37474F"/>
<path d="M134.506 0.00976562C136.659 0.00976562 137.416 1.34801 138.667 3.90811C140.134 7.07342 141.928 10.0766 144.02 12.8685C146.187 15.2685 148.383 17.0286 148.82 18.1486C149.256 19.2687 141.169 22.0179 141.169 22.0179C141.169 22.0179 136.267 17.1886 134.899 11.9811C134.107 8.03983 133.975 3.9945 134.506 0.00976562Z" fill="#37474F"/>
<path d="M136.586 2.25019C136.266 1.04288 135.51 -0.120817 134.273 0.0100967C133.885 0.106649 133.522 0.286861 133.211 0.538104C132.899 0.789348 132.646 1.10556 132.47 1.4647C129.371 6.32306 128.673 12.3015 128.339 18.0617C127.921 21.4574 128.253 24.9035 129.313 28.1566C129.604 28.8694 130.171 29.684 130.928 29.6112C131.279 29.5173 131.593 29.3195 131.83 29.0439C133.729 27.1857 135.725 25.4281 137.808 23.7783C139.103 22.8183 143.234 21.48 143.699 20.0254C144.237 18.309 140.543 13.1743 139.626 11.5742C137.619 8.0686 137.546 5.77033 136.586 2.25019Z" fill="#455A64"/>
<path d="M218.466 59.1389C216.924 54.1205 216.139 48.8839 214.219 43.9965C210.572 35.4115 204.162 28.2903 196.007 23.763C187.884 19.2872 178.956 16.4597 169.737 15.4426C161.62 14.3808 153.14 14.279 145.489 17.2173C137.598 20.4412 130.901 26.0311 126.317 33.2179C119.932 43.1964 113.662 54.3969 112.688 66.4264C112.432 69.2421 112.594 72.0801 113.168 74.8485C113.75 77.5977 115.233 79.7651 116.077 82.3398C116.403 83.4521 116.594 84.5999 116.644 85.758C117.037 90.2528 117.648 95.2857 120.441 98.9949C122.943 102.311 126.754 104.362 129.256 107.723C130.201 108.988 130.928 110.399 131.816 111.694C133.605 114.403 136.092 116.579 139.016 117.992C142.784 119.538 146.8 120.395 150.871 120.523C154.991 120.88 159.14 120.385 163.061 119.068C166.384 117.731 169.557 116.049 172.53 114.05C175.675 112.109 179.114 110.689 182.712 109.846C188.938 108.057 190.552 107.475 192.894 106.108C195.902 104.496 198.589 102.347 200.822 99.7659C204.706 98.8931 209.913 96.9876 219.514 98.1658C224.037 98.7185 228.154 101.22 231.732 103.984C233.488 105.367 235.092 106.932 236.518 108.653C236.663 108.843 240.954 113.715 240.663 112.479C236.576 94.8784 231.485 85.6708 225.71 75.3577C222.732 70.2214 220.303 64.785 218.466 59.1389Z" fill="#FAFAFA"/>
<path d="M240.838 112.523C239.627 107.47 238.121 102.491 236.329 97.6138C234.509 92.758 232.356 88.0338 229.885 83.4751C227.47 78.8785 224.736 74.4565 222.379 69.8018C219.959 65.1519 218.104 60.2295 216.852 55.1394C215.572 50.1065 214.466 45.0299 211.964 40.5934C209.475 36.1287 206.157 32.1794 202.189 28.9566C194.276 22.3673 184.269 18.7744 174.159 16.9707C169.099 15.9864 163.954 15.4992 158.799 15.5161C153.677 15.5502 148.616 16.6189 143.918 18.658C139.274 20.8271 135.087 23.8634 131.583 27.6038C128.185 31.4787 125.219 35.7123 122.739 40.2298C120.062 44.6524 117.798 49.3123 115.975 54.1503C114.135 58.9742 113.122 64.0737 112.979 69.2345C112.915 71.8039 113.284 74.3658 114.07 76.813C114.899 79.2131 116.426 81.4531 116.746 84.086C116.909 86.6741 117.205 89.2522 117.633 91.8099C118.074 94.3777 119.067 96.8193 120.542 98.9666C119.018 96.8451 117.97 94.4184 117.473 91.8535C116.983 89.2995 116.629 86.7212 116.411 84.1296C116.062 81.5841 114.506 79.3876 113.575 76.9294C112.71 74.4363 112.273 71.8151 112.28 69.1763C112.354 63.9234 113.313 58.7205 115.117 53.7866C116.9 48.8705 119.13 44.1281 121.779 39.6188C123.074 37.3497 124.441 35.1241 125.823 32.9277C127.251 30.7053 128.877 28.6167 130.681 26.6874C134.28 22.8043 138.591 19.6488 143.38 17.3925C148.251 15.2535 153.507 14.13 158.828 14.0906C164.077 14.0229 169.32 14.476 174.479 15.4434C184.661 17.3052 194.96 21.0145 203.091 27.8366C207.178 31.1996 210.584 35.3122 213.128 39.9534C215.717 44.6227 216.793 49.8592 217.986 54.8776C219.154 59.9194 220.921 64.8029 223.252 69.4236C225.536 74.0638 228.227 78.5294 230.525 83.1696C232.904 87.8081 234.959 92.6051 236.678 97.5265C238.353 102.441 239.742 107.448 240.838 112.523Z" fill="#E0E0E0"/>
<path d="M160.093 103.941C158.991 105.658 157.421 107.026 155.569 107.883C153.613 108.884 151.439 109.384 149.241 109.337C146.027 109.337 142.245 108.435 139.917 106.093C139.078 105.243 138.472 104.191 138.157 103.039C138.041 102.632 137.197 102.282 137.154 102.908C137.057 103.673 136.725 104.388 136.204 104.956C135.682 105.524 134.998 105.916 134.245 106.079C132.79 106.472 130.215 106.355 129.182 105.046C129.11 104.944 129.008 104.828 128.892 104.872C129.026 105.298 129.251 105.692 129.549 106.025C129.847 106.359 130.213 106.625 130.623 106.806C132.059 107.418 133.671 107.475 135.146 106.966C136.26 106.579 137.186 105.784 137.736 104.741C138.303 105.934 139.195 106.942 140.31 107.65C142.877 109.426 145.917 110.393 149.038 110.428C151.529 110.571 154.011 110.022 156.209 108.843C158.014 107.759 159.445 106.15 160.311 104.232C160.282 104.042 160.18 103.766 160.093 103.941Z" fill="#455A64"/>
<path d="M148.311 94.3691C147.991 92.7545 143.075 90.4853 137.78 90.2962C132.485 90.1071 128.31 92.3909 127.598 93.7436C127.598 93.7436 130.507 97.5838 137.387 97.962C141.356 98.2209 145.271 96.9333 148.311 94.3691Z" fill="#E0E0E0"/>
<path d="M136.092 95.9846C142.74 96.61 147.453 93.599 148.311 94.37C149.169 95.1409 144.645 103.65 137.591 103.316C130.536 102.981 126.477 94.3554 127.525 93.7445C128.572 93.1336 130.23 95.4463 136.092 95.9846Z" fill="#455A64"/>
<path d="M154.319 70.9361C154.422 73.7231 155.105 76.458 156.326 78.9655C157.437 81.1792 159.105 83.0659 161.165 84.4404C163.226 85.815 165.609 86.6301 168.079 86.8058C170.436 86.9017 172.754 86.1917 174.653 84.7928C176.551 83.394 177.917 81.3899 178.523 79.111C179.745 75.0672 178.232 70.0342 175.861 66.6741C172.428 61.8012 166.028 56.8119 160.355 59.1829C156.151 60.943 154.29 66.0632 154.319 70.9361Z" fill="#455A64"/>
<path d="M167.424 69.773C167.427 70.5855 167.188 71.3806 166.739 72.0574C166.289 72.7342 165.649 73.2622 164.899 73.5745C164.149 73.8867 163.323 73.9692 162.525 73.8114C161.728 73.6536 160.996 73.2626 160.422 72.6881C159.847 72.1135 159.456 71.3813 159.298 70.5842C159.141 69.7871 159.223 68.9612 159.535 68.2111C159.848 67.4609 160.376 66.8204 161.052 66.3708C161.729 65.9212 162.524 65.6827 163.337 65.6856C163.873 65.6856 164.405 65.7913 164.901 65.9967C165.397 66.2021 165.847 66.5032 166.227 66.8828C166.607 67.2623 166.908 67.7129 167.113 68.2088C167.318 68.7047 167.424 69.2362 167.424 69.773Z" fill="#263238"/>
<path d="M164.123 70.1941C164.822 70.1941 165.388 69.6275 165.388 68.9286C165.388 68.2297 164.822 67.6631 164.123 67.6631C163.424 67.6631 162.857 68.2297 162.857 68.9286C162.857 69.6275 163.424 70.1941 164.123 70.1941Z" fill="#FAFAFA"/>
<path d="M134.376 59.7942C134.138 59.3104 133.802 58.8818 133.389 58.536C132.975 58.1903 132.494 57.935 131.976 57.7868C131.43 57.7035 130.873 57.7454 130.347 57.9092C129.82 58.073 129.337 58.3545 128.936 58.7323C128.131 59.4853 127.449 60.3588 126.914 61.3215L124.266 65.5689C123.641 66.5726 123.015 67.5908 122.434 68.6236C121.988 69.4114 121.618 70.2393 121.328 71.0964C120.906 72.5259 120.847 74.0381 121.157 75.496C121.467 76.9539 122.136 78.3115 123.103 79.4458C123.584 80.0708 124.211 80.5694 124.928 80.8988C125.645 81.2282 126.431 81.3785 127.219 81.3368C128.022 80.4217 128.639 79.3596 129.037 78.2094C130.841 74.5583 134.565 70.82 135.19 66.4417C135.723 64.1997 135.434 61.8412 134.376 59.7942Z" fill="#455A64"/>
<path d="M135.118 67.1402C135.12 67.9521 134.882 68.7466 134.433 69.423C133.984 70.0995 133.345 70.6275 132.595 70.9402C131.846 71.2529 131.021 71.3363 130.224 71.1796C129.428 71.023 128.695 70.6335 128.12 70.0604C127.545 69.4873 127.153 68.7564 126.993 67.9603C126.834 67.1642 126.914 66.3387 127.224 65.5883C127.534 64.838 128.06 64.1964 128.735 63.7451C129.41 63.2937 130.204 63.0527 131.016 63.0527C132.101 63.0527 133.142 63.4829 133.911 64.249C134.68 65.0152 135.114 66.0548 135.118 67.1402Z" fill="#263238"/>
<path d="M133.081 66.2968C133.083 66.5512 133.01 66.8007 132.871 67.0134C132.731 67.2261 132.532 67.3924 132.297 67.4911C132.063 67.5898 131.804 67.6164 131.554 67.5675C131.305 67.5185 131.075 67.3963 130.895 67.2164C130.716 67.0365 130.593 66.8071 130.544 66.5575C130.495 66.3078 130.522 66.0493 130.621 65.8148C130.719 65.5803 130.886 65.3805 131.098 65.241C131.311 65.1014 131.561 65.0285 131.815 65.0313C132.151 65.0313 132.473 65.1647 132.71 65.402C132.947 65.6393 133.081 65.9612 133.081 66.2968Z" fill="#FAFAFA"/>
<path d="M135.103 66.5444C134.623 68.3056 133.753 69.9363 132.557 71.3155C131.743 72.4355 130.957 73.5847 130.186 74.7483C128.658 77.1185 127.441 79.6753 126.565 82.3559C125.649 85.0175 125.106 87.793 124.95 90.6035C124.889 91.9785 124.953 93.3562 125.139 94.72C125.368 96.1944 125.694 97.6521 126.114 99.0838C125.575 96.0529 125.575 92.9507 126.114 89.9198C126.514 87.0425 127.261 84.2242 128.339 81.5267C129.368 78.9238 130.634 76.4211 132.121 74.0501C132.848 72.901 133.663 71.81 134.318 70.6172C134.965 69.3941 135.3 68.03 135.292 66.6462C135.278 66.428 135.132 66.3844 135.103 66.5444Z" fill="#E0E0E0"/>
<path d="M201.011 99.7523C206.059 93.8321 209.259 87.4028 207.717 73.875C209.403 78.0229 209.941 82.5481 209.276 86.9758C208.61 91.4035 206.766 95.5705 203.935 99.0396L201.011 99.7523Z" fill="#E0E0E0"/>
<path d="M204.342 46.4553C205.16 46.7025 206.04 46.6422 206.817 46.286C207.594 45.9297 208.214 45.3019 208.56 44.5207C208.966 43.7389 209.531 43.0503 210.218 42.4988C211.426 41.4951 212.851 40.7824 214.058 39.7787C216.143 37.8801 217.548 35.3511 218.059 32.5784C218.997 28.0588 218.807 23.3776 217.506 18.9488C216.56 15.5305 215.76 13.5959 213.011 11.2976C210.636 9.21444 207.64 7.97214 204.487 7.76294C202.272 7.63033 200.071 8.20196 198.201 9.39599C196.33 10.59 194.885 12.3453 194.072 14.4105C193.374 16.5342 193.505 18.847 192.981 21.0144C191.73 26.2946 187.527 31.1966 191.527 36.4186C194.704 40.6509 198.889 44.0212 203.702 46.2226C203.91 46.3143 204.123 46.392 204.342 46.4553Z" fill="#455A64"/>
<path d="M193.738 29.2759C194.903 30.5198 195.834 31.9636 196.487 33.5379C197.049 30.5185 198.376 27.6938 200.342 25.3339C200.737 24.7366 201.264 24.2387 201.884 23.8793C202.2 23.7006 202.567 23.6308 202.927 23.6808C203.287 23.7307 203.621 23.8976 203.877 24.1557C204.092 24.4629 204.232 24.8168 204.284 25.1885C204.665 27.0197 204.821 28.8905 204.749 30.7596L206.917 29.7705C207.054 29.6806 207.22 29.6443 207.382 29.6686C207.615 29.6686 207.731 29.9886 207.789 30.2214C208.186 32.4483 208.072 34.7363 207.455 36.9126C207.455 36.3598 208.386 36.258 208.764 36.6798C209.085 37.147 209.211 37.7214 209.113 38.2799L208.808 45.902C208.855 46.5398 208.674 47.1737 208.299 47.6912C208.043 47.9182 207.743 48.0898 207.417 48.1949C207.092 48.3001 206.748 48.3366 206.408 48.3021C203.775 48.1984 201.224 47.3567 199.047 45.8729C196.138 43.9965 193.403 41.7418 192.225 38.4399C191.687 36.9 191.542 35.2499 191.803 33.6397C191.876 33.1888 193.491 29.0141 193.738 29.2759Z" fill="#E0E0E0"/>
<path d="M39.55 92.5516C42.5144 94.1949 45.3364 96.0827 47.9867 98.1955C50.8086 100.29 53.5869 102.457 56.3216 104.668C59.0562 106.879 61.5581 109.032 64.1764 111.141C66.7947 113.251 69.7912 115.694 72.5258 118.065C77.6429 122.375 82.347 127.152 86.5772 132.335C92.4603 139.795 97.0614 148.181 100.192 157.15C101.006 159.343 101.343 161.683 101.181 164.016C101.205 164.092 101.205 164.173 101.181 164.249C101.121 164.288 101.05 164.308 100.978 164.308C100.906 164.308 100.835 164.288 100.774 164.249C99.5668 163.914 99.465 162.212 99.1886 161.223C98.7668 159.769 98.2141 158.314 97.734 156.86C96.7595 154.227 95.6249 151.638 94.403 149.107C91.9063 143.982 88.9202 139.111 85.4863 134.56C81.6264 129.562 77.3332 124.913 72.6567 120.669C67.6529 116 62.5618 111.389 57.3398 106.967C54.4306 104.538 51.6087 102.152 48.6122 99.8392C47.1576 98.7337 45.703 97.6282 44.2484 96.5663C42.7938 95.5045 40.9319 94.1662 39.39 92.8425C39.3755 92.7698 39.55 92.4789 39.55 92.5516Z" fill="#207C4D"/>
<path d="M95.785 152.22C93.4577 148.7 83.3482 143.638 76.657 146.401C69.9659 149.165 68.1476 150.678 64.1184 155.216C60.0891 159.754 57.8927 163.944 52.7725 164.046C55.158 163.173 59.0709 160.118 63.2165 152.976C67.3621 145.834 74.9697 139.579 82.33 140.801C85.2991 141.382 88.0943 142.639 90.4985 144.476C92.9026 146.313 94.851 148.679 96.1923 151.391L95.785 152.22Z" fill="#207C4D"/>
<path d="M86.679 135.156C83.7698 132.378 72.133 129.338 67.7692 130.123C63.4054 130.909 48.8594 136.48 44.4956 144.015C51.6377 131.723 56.5106 127.461 65.4564 126.414C74.4022 125.367 84.5989 132.232 85.719 133.382L86.679 135.156Z" fill="#207C4D"/>
<path d="M81.6461 126.865C79.401 121.963 78.7009 116.494 79.6388 111.184C80.3079 105.817 82.4025 99.1983 75.4932 92.2744C82.0534 95.3145 85.7481 99.1256 84.9917 108.1C84.2353 117.075 81.6025 126.472 82.6644 129.018L81.6461 126.865Z" fill="#207C4D"/>
<path d="M71.1156 118.4C65.9954 115.899 62.3007 114.226 56.8314 114.269C51.4007 114.159 46.0133 113.278 40.8308 111.651C35.5942 110.197 27.1575 110.386 25.3247 113.033C26.3866 108.931 36.9615 105.76 45.5 106.516C54.0385 107.273 68.0754 115.448 68.0754 115.448L71.1156 118.4Z" fill="#207C4D"/>
<path d="M50.0234 82.2812C53.6255 83.2215 56.9098 85.1098 59.5345 87.7499C62.1592 90.39 64.0284 93.6852 64.9476 97.2927C66.955 105.715 68.0023 114.486 70.3006 117.584C70.3006 117.584 66.6204 115.824 63.9294 109.148C61.2384 102.471 62.213 96.1436 58.9256 91.4889C55.6382 86.8341 54.5327 85.3359 50.0234 82.2812Z" fill="#207C4D"/>
<path d="M46.8236 97.6566C38.6487 89.4817 30.823 86.4416 24.4228 86.8052C18.0225 87.1689 14.8369 89.249 9.87675 92.6237C4.91656 95.9983 1.46915 97.7148 0 97.5111C2.1819 98.5294 6.61844 97.9766 12.7132 94.6746C19.0747 91.4746 26.3507 90.585 33.2958 92.1582C37.9685 93.5601 42.4979 95.4011 46.8236 97.6566Z" fill="#207C4D"/>
<path d="M219.252 223.452C214.539 226.521 199.222 237.998 202.917 224.688C199.935 230.579 193.113 234.943 186.625 236.325C180.371 237.648 181.476 234.943 183.92 232.499C178.785 234.608 166.857 235.278 164.792 232.936C162.726 230.594 169.156 230.274 171.003 229.794C164.95 229.253 159.096 227.364 153.868 224.266C151.331 222.747 148.901 221.056 146.595 219.204C145.402 218.244 144.253 217.226 143.133 216.193C142.624 215.713 140.893 213.386 140.224 213.284L144.849 213.633C136.238 205.764 127.205 197.632 115.99 194.432C111.699 193.21 107.19 192.745 102.986 191.232C98.7821 189.719 94.1565 186.708 92.8037 182.505C92.3918 181.304 92.2237 180.033 92.3091 178.766C91.3468 178.644 90.4122 178.358 89.5454 177.923C87.5391 176.861 85.868 175.262 84.7196 173.304C83.5711 171.347 82.9907 169.108 83.0433 166.839C83.2014 164.539 83.964 162.322 85.2538 160.411C86.5437 158.5 88.3151 156.964 90.3891 155.958C92.3396 155.181 94.3926 154.691 96.4839 154.504C97.1797 153.132 98.2821 152.01 99.6403 151.289C105.779 147.972 113.546 148.656 120.514 148.889C129.61 149.18 138.672 149.873 147.7 150.969C147.411 150.952 147.131 150.863 146.885 150.711C146.638 150.558 146.434 150.347 146.29 150.096C146.145 149.845 146.066 149.562 146.058 149.273C146.05 148.983 146.115 148.696 146.246 148.438C154.805 148.332 163.334 149.489 171.556 151.871C170.713 149.88 170.407 147.703 170.669 145.558L168.618 147.1C169.824 138.269 174.362 130.233 181.302 124.641L172.705 126.255C176.502 120.198 181.563 115.032 187.542 111.113C194.372 106.717 201.558 102.902 209.026 99.7087C219.441 95.0831 230.234 95.8249 237.784 105.323C242.642 111.462 244.868 119.229 246.831 126.808C249.432 136.444 251.428 146.233 252.81 156.118C254.613 170.548 253.915 180.439 249.479 188.628C244.868 197.152 241.275 201.356 234.06 209.822C229.603 214.86 224.642 219.427 219.252 223.452Z" fill="#455A64"/>
<path d="M132.499 202.708C128.122 199.269 123.24 196.526 118.026 194.577C112.76 192.656 107.102 192.395 102.142 190.3C99.6576 189.301 97.4122 187.789 95.5524 185.863C94.6655 184.917 93.9736 183.805 93.516 182.591C93.0625 181.394 92.8643 180.116 92.9341 178.838L93.0069 178.198L92.3523 178.11C90.9465 177.862 89.6097 177.318 88.4309 176.512C87.2521 175.707 86.2583 174.66 85.5157 173.441C83.8895 171.01 83.2787 168.04 83.8138 165.164C84.4358 162.301 86.0163 159.735 88.294 157.891C90.6813 156.133 93.5359 155.12 96.4979 154.982H96.7452L96.847 154.779C97.292 153.861 97.9384 153.055 98.738 152.422C99.5788 151.815 100.499 151.325 101.473 150.968C103.435 150.152 105.501 149.608 107.611 149.353C111.893 148.928 116.2 148.817 120.499 149.018C116.196 148.606 111.866 148.543 107.553 148.829C105.374 149.002 103.233 149.492 101.196 150.284C100.159 150.665 99.1797 151.189 98.2871 151.84C97.4423 152.486 96.7392 153.298 96.2215 154.226C94.7472 154.347 93.2868 154.6 91.8577 154.982C90.3264 155.404 88.8963 156.131 87.6539 157.121C85.1315 159.096 83.3773 161.889 82.6937 165.019C82.0785 168.192 82.7256 171.48 84.4974 174.183C85.3615 175.536 86.4716 176.715 87.7703 177.66C88.9283 178.501 90.2523 179.086 91.6541 179.376C91.6368 180.653 91.8639 181.922 92.3232 183.114C92.8464 184.48 93.6321 185.731 94.636 186.794C96.6264 188.845 99.0316 190.447 101.691 191.493C106.956 193.616 112.571 193.907 117.691 195.638C122.862 197.434 127.72 200.026 132.092 203.319C136.572 206.504 140.703 210.155 144.863 213.763C140.948 209.853 136.821 206.163 132.499 202.708Z" fill="#37474F"/>
<path d="M94.5921 177.108C90.2283 176.177 84.0172 172.744 83.0571 167.609C83.1402 169.744 83.7817 171.82 84.9175 173.63C86.0533 175.439 87.6437 176.919 89.5301 177.922C90.3965 178.359 91.3312 178.645 92.2939 178.766C95.4997 178.614 98.7126 178.799 101.88 179.319C99.5158 178.382 97.0783 177.642 94.5921 177.108Z" fill="#37474F"/>
<path d="M171.497 151.899C183.032 154.124 202.698 162.328 206.888 181.965C207.222 174.532 202.335 165.877 202.335 165.877C204.355 167.169 206.165 168.764 207.702 170.605C205.2 159.943 188.007 147.797 171.497 151.899Z" fill="#37474F"/>
<path d="M97.88 152.627C97.2981 153.194 96.5272 154.256 96.7454 154.94C100.411 154.809 104.993 155.289 105.866 155.9C102.782 153.543 98.0109 153.165 97.88 152.627Z" fill="#37474F"/>
<path d="M178.188 267.321C191.279 258.23 202.029 245.939 215.702 237.575C230.961 228.236 256.634 223.843 265.057 244.513C265.871 247.423 262.147 245.197 260.693 244.906C263.696 250.231 265.256 256.248 265.217 262.361C264.489 265.605 262.613 260.907 261.464 260.907C263.078 273.794 256.125 286.464 246.918 295.541C234.757 307.439 218.538 314.698 201.825 317.709C185.112 320.72 167.817 319.687 151.103 316.603C145.721 315.6 139.728 313.912 137.183 309.069C135.103 305.097 136.077 300.21 137.735 295.977C139.029 292.466 141.006 289.248 143.554 286.508C146.332 283.913 149.51 281.781 152.965 280.195C161.373 275.976 170.464 272.718 178.188 267.321Z" fill="#37474F"/>
<path d="M251.762 289.985C239.398 303.123 223.029 311.793 205.215 314.64C189.127 317.317 166.828 314.64 169.155 309.986C172.144 304.483 174.226 298.535 175.322 292.37L150.783 281.33C148.116 282.698 145.665 284.453 143.51 286.538C140.963 289.278 138.985 292.496 137.692 296.007C136.034 300.167 135.059 305.055 137.139 309.098C139.685 313.942 145.678 315.63 151.06 316.633C167.773 319.717 185.039 320.75 201.782 317.739C218.524 314.728 234.728 307.469 246.874 295.571C248.618 293.812 250.25 291.946 251.762 289.985Z" fill="#263238"/>
<path d="M144.398 315.616C140.82 315.26 137.497 313.604 135.059 310.961C132.252 307.717 132.31 302.233 132.921 298.19C134.569 289.679 138.252 281.694 143.656 274.916C147.918 269.679 153.838 265.025 160.733 263.905C163.04 263.579 165.39 263.804 167.593 264.563C169.795 265.322 171.786 266.591 173.403 268.268C179.847 274.96 178.436 285.549 174.974 293.651C172.305 299.958 168.172 305.538 162.915 309.928C157.038 314.641 151.86 316.372 144.398 315.616Z" fill="#37474F"/>
<path d="M158.463 302.509C156.128 306.18 152.706 309.033 148.674 310.669C144.586 312.124 139.524 311.236 136.877 307.76C135.573 305.962 134.87 303.799 134.87 301.578C134.87 299.37 135.219 297.176 135.902 295.076C137.341 290.501 139.861 286.34 143.248 282.944C145.392 280.756 148.21 279.353 151.248 278.959C153.151 278.706 155.087 278.947 156.87 279.657C158.653 280.368 160.223 281.525 161.431 283.017C165.838 288.632 161.969 297.563 158.463 302.509Z" fill="#455A64"/>
<path d="M158.668 269.299C158.471 269.576 158.296 269.868 158.144 270.172C157.571 271.155 157.345 272.303 157.504 273.43C157.955 275.859 160.413 276.339 162.217 275.016C162.992 274.491 163.671 273.836 164.225 273.081C166.377 270.172 164.719 265.488 160.646 267.539C159.856 267.959 159.177 268.563 158.668 269.299Z" fill="#455A64"/>
<path d="M164.646 278.45C164.486 278.74 164.34 279.061 164.209 279.366C163.741 280.401 163.633 281.564 163.904 282.668C164.602 285.053 167.06 285.213 168.762 283.788C169.471 283.178 170.079 282.462 170.566 281.664C172.413 278.595 170.29 274.042 166.435 276.5C165.692 276.998 165.078 277.667 164.646 278.45Z" fill="#455A64"/>
<path d="M148.238 270.944C148.038 271.175 147.858 271.424 147.7 271.686C147.112 272.537 146.825 273.562 146.885 274.595C147.133 276.82 149.271 277.359 151.002 276.37C151.729 275.945 152.387 275.41 152.951 274.784C155.075 272.369 153.926 267.991 150.129 269.547C149.393 269.85 148.744 270.33 148.238 270.944Z" fill="#455A64"/>
</svg>
