<svg width="325" height="302" viewBox="0 0 325 302" fill="none" xmlns="http://www.w3.org/2000/svg">
<path d="M286 221.35H40V221.473H286V221.35Z" fill="#EBEBEB"/>
<path d="M82.1056 226.035H65.8105V226.158H82.1056V226.035Z" fill="#EBEBEB"/>
<path d="M147.202 224.701H124.201V224.824H147.202V224.701Z" fill="#EBEBEB"/>
<path d="M104.939 229.838H95.4976V229.961H104.939V229.838Z" fill="#EBEBEB"/>
<path d="M208.53 227.701H193.667V227.824H208.53V227.701Z" fill="#EBEBEB"/>
<path d="M222.414 227.701H212.909V227.824H222.414V227.701Z" fill="#EBEBEB"/>
<path d="M261.356 229.777H232.544V229.9H261.356V229.777Z" fill="#EBEBEB"/>
<path d="M156.604 199.407H61.6037C60.8595 199.406 60.1462 199.109 59.6204 198.583C59.0946 198.056 58.7993 197.342 58.7993 196.598V63.0543C58.8058 62.3143 59.104 61.6068 59.629 61.0854C60.1541 60.564 60.8637 60.2708 61.6037 60.2695H156.604C157.349 60.2695 158.064 60.5655 158.59 61.0924C159.117 61.6192 159.413 62.3338 159.413 63.0789V196.598C159.413 197.343 159.117 198.057 158.59 198.584C158.064 199.111 157.349 199.407 156.604 199.407ZM61.6037 60.3679C60.8921 60.3692 60.2101 60.6528 59.7074 61.1565C59.2047 61.6601 58.9223 62.3426 58.9223 63.0543V196.598C58.9223 197.309 59.2047 197.992 59.7074 198.496C60.2101 198.999 60.8921 199.283 61.6037 199.284H156.604C157.316 199.283 157.999 198.999 158.502 198.496C159.006 197.992 159.289 197.31 159.29 196.598V63.0543C159.289 62.3422 159.006 61.6597 158.502 61.1562C157.999 60.6527 157.316 60.3692 156.604 60.3679H61.6037Z" fill="#EBEBEB"/>
<path d="M263.028 199.407H168.023C167.279 199.406 166.565 199.109 166.038 198.583C165.512 198.056 165.215 197.342 165.214 196.598V63.0543C165.222 62.3138 165.521 61.6063 166.047 61.0851C166.573 60.5638 167.283 60.2708 168.023 60.2695H263.028C263.768 60.2721 264.476 60.5658 265 61.0871C265.524 61.6084 265.821 62.3151 265.828 63.0543V196.598C265.828 197.341 265.533 198.054 265.009 198.581C264.484 199.107 263.772 199.405 263.028 199.407ZM168.023 60.3679C167.311 60.3692 166.629 60.6527 166.125 61.1562C165.622 61.6597 165.338 62.3422 165.337 63.0543V196.598C165.338 197.31 165.622 197.992 166.125 198.496C166.629 198.999 167.311 199.283 168.023 199.284H263.028C263.74 199.283 264.423 198.999 264.926 198.496C265.43 197.992 265.713 197.31 265.715 196.598V63.0543C265.713 62.3422 265.43 61.6597 264.926 61.1562C264.423 60.6527 263.74 60.3692 263.028 60.3679H168.023Z" fill="#EBEBEB"/>
<path d="M133.224 203.2L136.821 192.72L147.935 189.463L173.868 144.637L178.208 146.443L184.245 128.008L242.429 110.33L251.723 142.468L253.858 188.302L249.587 221.35H130.1L129.834 210.796L133.224 203.2Z" fill="#FAFAFA"/>
<path d="M186.463 221.351H249.587L253.857 188.303L251.722 142.469L238.118 170.306L222.138 175.728L207.211 206.094L191.846 201.76L183.501 214.773L186.463 221.351Z" fill="#F5F5F5"/>
<path d="M150.547 205.852L174.045 213.325L169.972 221.31L145.5 221.35L150.547 205.852Z" fill="#F5F5F5"/>
<path d="M213.287 162.949L207.546 176.233L201.494 171.923L213.287 162.949Z" fill="#F5F5F5"/>
<path d="M184.244 128.008L185.036 139.575L178.208 146.443L184.244 128.008Z" fill="#F5F5F5"/>
<path d="M186.237 154.816L188.766 164.445L171.266 173.306L186.237 154.816Z" fill="#F5F5F5"/>
<path d="M248.608 213.119L243.034 208.362L225.814 206.886L185.632 186.551L178.906 187.368L169.558 179.004L77.9923 166.207L65.0084 185.567L61.7021 206.359L68.3195 221.35H253.444L253.858 216.563L248.608 213.119Z" fill="#F0F0F0"/>
<path d="M166.114 221.35H68.3195L61.7021 206.358L65.0084 185.566L86.0857 198.191L110.848 200.651L133.972 214.427L157.78 212.459L170.71 218.363L166.114 221.35Z" fill="#E0E0E0"/>
<path d="M221.764 214.32L185.356 217.71L191.674 221.331L229.582 221.351L221.764 214.32Z" fill="#E0E0E0"/>
<path d="M124.56 194.855L133.46 200.882L142.833 198.924L124.56 194.855Z" fill="#E0E0E0"/>
<path d="M169.558 179.004L168.328 184.254L178.906 187.368L169.558 179.004Z" fill="#E0E0E0"/>
<path d="M166.503 205.941L172.845 210.055L202.567 208.185L166.503 205.941Z" fill="#E0E0E0"/>
<path d="M100.127 169.882L100.408 169.911C100.53 169.925 100.652 169.892 100.751 169.821C100.85 169.749 100.919 169.642 100.944 169.522C101.174 168.776 101.258 167.993 101.19 167.215C101.228 167.175 101.257 167.128 101.275 167.076C101.294 167.024 101.302 166.97 101.298 166.915C101.298 166.856 101.283 166.797 101.256 166.744C101.229 166.692 101.191 166.646 101.143 166.61C101.095 166.575 101.04 166.551 100.982 166.541C100.923 166.531 100.863 166.534 100.806 166.551C100.678 166.573 100.562 166.643 100.481 166.745C100.401 166.848 100.36 166.976 100.368 167.107C100.142 167.367 99.8224 167.422 99.6551 169.276C99.6384 169.419 99.6786 169.563 99.767 169.676C99.8554 169.789 99.9849 169.863 100.127 169.882Z" fill="#E6E6E6"/>
<path d="M101.077 166.59C101.19 166.654 101.51 166.472 101.608 166.487C101.608 166.487 101.293 166.758 101.298 166.925C101.047 166.915 101.077 166.59 101.077 166.59Z" fill="#E6E6E6"/>
<path d="M100.137 167.358C99.9207 167.545 99.227 168.461 99.4582 168.539C99.5566 168.574 99.7731 168.264 100.029 168.215C100.285 168.165 100.236 167.28 100.137 167.358Z" fill="#E6E6E6"/>
<path d="M101.2 167.579C101.318 167.835 101.584 168.888 101.338 168.864C101.234 168.864 101.17 168.48 100.959 168.332C100.747 168.185 101.146 167.461 101.2 167.579Z" fill="#E6E6E6"/>
<path d="M100.093 169.833L99.9503 169.764C99.8568 169.882 99.7239 170.029 100.093 170.098C100.462 170.167 99.9552 169.906 100.093 169.833Z" fill="#E6E6E6"/>
<path d="M100.585 169.862L100.427 169.832C100.368 169.975 100.285 170.152 100.659 170.117C101.032 170.083 100.472 169.985 100.585 169.862Z" fill="#E6E6E6"/>
<path d="M136.673 174.413V174.659C136.677 174.77 136.722 174.875 136.799 174.955C136.877 175.034 136.981 175.081 137.092 175.087C137.856 175.229 138.64 175.242 139.409 175.127C139.499 175.19 139.61 175.216 139.719 175.2C139.772 175.2 139.825 175.187 139.873 175.163C139.921 175.139 139.963 175.105 139.996 175.062C140.028 175.019 140.05 174.969 140.06 174.916C140.07 174.864 140.068 174.809 140.053 174.758C139.999 174.581 139.832 174.418 139.468 174.428C139.192 174.251 139.119 173.98 137.259 173.975C137.124 173.962 136.989 173.999 136.881 174.08C136.773 174.162 136.699 174.28 136.673 174.413Z" fill="#E6E6E6"/>
<path d="M139.945 174.738C139.989 174.851 140.353 174.925 140.437 174.999C140.521 175.073 140.019 174.999 139.916 175.132C139.714 174.96 139.945 174.738 139.945 174.738Z" fill="#E6E6E6"/>
<path d="M138.798 174.108C138.567 173.941 137.509 173.483 137.49 173.729C137.49 173.828 137.834 173.966 137.937 174.221C138.041 174.477 138.892 174.182 138.798 174.108Z" fill="#E6E6E6"/>
<path d="M136.708 174.452L136.767 174.299C136.639 174.216 136.594 174.112 136.334 174.388C136.073 174.664 136.619 174.319 136.708 174.452Z" fill="#E6E6E6"/>
<path d="M136.742 174.644L136.796 174.497C136.673 174.408 136.624 174.31 136.368 174.585C136.112 174.861 136.653 174.511 136.742 174.644Z" fill="#E6E6E6"/>
<path d="M108.265 171.953H108.009C107.896 171.946 107.789 171.896 107.71 171.814C107.631 171.733 107.585 171.624 107.581 171.51C107.472 170.739 107.496 169.955 107.655 169.193C107.597 169.101 107.576 168.99 107.596 168.883C107.599 168.826 107.615 168.77 107.644 168.721C107.673 168.672 107.713 168.63 107.761 168.599C107.809 168.569 107.864 168.551 107.921 168.546C107.978 168.541 108.036 168.551 108.088 168.573C108.205 168.617 108.303 168.702 108.362 168.813C108.422 168.923 108.44 169.051 108.413 169.173C108.58 169.459 108.856 169.552 108.777 171.407C108.778 171.546 108.726 171.681 108.631 171.783C108.535 171.884 108.404 171.945 108.265 171.953Z" fill="#E6E6E6"/>
<path d="M107.832 168.593C107.724 168.643 107.463 168.426 107.37 168.436C107.37 168.436 107.621 168.736 107.596 168.898C107.817 168.918 107.832 168.593 107.832 168.593Z" fill="#E6E6E6"/>
<path d="M108.57 169.464C108.742 169.671 109.244 170.66 109.028 170.709C108.939 170.709 108.782 170.404 108.565 170.325C108.349 170.246 108.496 169.371 108.57 169.464Z" fill="#E6E6E6"/>
<path d="M107.601 169.562C107.463 169.803 107.109 170.816 107.315 170.816C107.404 170.816 107.512 170.457 107.719 170.324C107.925 170.191 107.664 169.453 107.601 169.562Z" fill="#E6E6E6"/>
<path d="M108.299 171.918L108.437 171.869C108.506 171.997 108.604 172.155 108.265 172.184C107.925 172.214 108.412 172.012 108.299 171.918Z" fill="#E6E6E6"/>
<path d="M107.862 171.895H108.004C108.039 172.042 108.093 172.229 107.763 172.15C107.434 172.072 107.945 172.018 107.862 171.895Z" fill="#E6E6E6"/>
<path d="M98.1005 171.024H98.2629C98.3332 171.031 98.4035 171.011 98.4606 170.97C98.5176 170.928 98.5576 170.867 98.5728 170.798C98.7055 170.368 98.754 169.917 98.7155 169.47C98.7377 169.446 98.7549 169.418 98.7659 169.388C98.7769 169.357 98.7815 169.325 98.7795 169.292C98.7783 169.259 98.7696 169.226 98.754 169.196C98.7385 169.166 98.7165 169.14 98.6896 169.12C98.6627 169.1 98.6317 169.086 98.5987 169.079C98.5658 169.072 98.5317 169.073 98.499 169.081C98.4248 169.095 98.3583 169.136 98.3121 169.196C98.2659 169.256 98.2432 169.33 98.2481 169.406C98.1153 169.553 97.9332 169.588 97.8348 170.655C97.8271 170.697 97.8279 170.74 97.8372 170.781C97.8465 170.823 97.8641 170.862 97.8889 170.896C97.9138 170.931 97.9453 170.96 97.9817 170.982C98.018 171.004 98.0584 171.018 98.1005 171.024Z" fill="#E6E6E6"/>
<path d="M98.6513 169.129C98.7152 169.163 98.9022 169.06 98.9563 169.065C99.0104 169.07 98.7743 169.222 98.7792 169.316C98.6316 169.311 98.6513 169.129 98.6513 169.129Z" fill="#E6E6E6"/>
<path d="M98.1103 169.572C97.9824 169.675 97.5839 170.206 97.7167 170.251C97.8495 170.295 97.8987 170.093 98.0463 170.064C98.1939 170.034 98.1644 169.522 98.1103 169.572Z" fill="#E6E6E6"/>
<path d="M98.7204 169.696C98.7893 169.849 98.9418 170.454 98.7991 170.439C98.745 170.439 98.7057 170.218 98.5827 170.129C98.4597 170.041 98.6909 169.632 98.7204 169.696Z" fill="#E6E6E6"/>
<path d="M98.0856 170.994L98.002 170.955C97.9429 171.024 97.8691 171.108 98.0856 171.152C98.3021 171.196 98.002 171.039 98.0856 170.994Z" fill="#E6E6E6"/>
<path d="M98.3661 171.014H98.2775C98.2431 171.092 98.1939 171.196 98.4104 171.176C98.6269 171.156 98.3021 171.078 98.3661 171.014Z" fill="#E6E6E6"/>
<path d="M102.799 172.23H102.651C102.586 172.226 102.524 172.198 102.478 172.15C102.432 172.103 102.406 172.04 102.405 171.974C102.34 171.531 102.354 171.08 102.445 170.641C102.411 170.587 102.399 170.522 102.41 170.459C102.412 170.427 102.421 170.396 102.437 170.368C102.453 170.34 102.476 170.317 102.503 170.3C102.53 170.282 102.56 170.272 102.592 170.269C102.624 170.265 102.656 170.27 102.686 170.282C102.753 170.308 102.809 170.358 102.844 170.422C102.878 170.486 102.888 170.56 102.873 170.631C102.966 170.793 103.129 170.847 103.079 171.915C103.081 171.993 103.053 172.069 103.001 172.128C102.949 172.186 102.877 172.223 102.799 172.23Z" fill="#E6E6E6"/>
<path d="M102.548 170.281C102.489 170.311 102.332 170.188 102.283 170.188C102.233 170.188 102.425 170.365 102.41 170.458C102.538 170.478 102.548 170.281 102.548 170.281Z" fill="#E6E6E6"/>
<path d="M102.976 170.783C103.074 170.906 103.365 171.477 103.237 171.507C103.188 171.507 103.099 171.325 102.971 171.28C102.843 171.236 102.932 170.729 102.976 170.783Z" fill="#E6E6E6"/>
<path d="M102.415 170.842C102.331 170.98 102.12 171.566 102.248 171.566C102.376 171.566 102.366 171.359 102.484 171.285C102.602 171.211 102.449 170.778 102.415 170.842Z" fill="#E6E6E6"/>
<path d="M102.818 172.199L102.897 172.17C102.937 172.244 102.996 172.337 102.799 172.357C102.602 172.377 102.882 172.254 102.818 172.199Z" fill="#E6E6E6"/>
<path d="M102.563 172.186H102.647C102.647 172.269 102.696 172.377 102.509 172.333C102.322 172.289 102.612 172.259 102.563 172.186Z" fill="#E6E6E6"/>
<path d="M122.321 178.762L122.607 178.792C122.727 178.804 122.847 178.772 122.945 178.701C123.044 178.631 123.112 178.526 123.138 178.408C123.368 177.662 123.451 176.879 123.384 176.101C123.422 176.06 123.451 176.012 123.47 175.959C123.488 175.907 123.496 175.851 123.492 175.796C123.492 175.736 123.477 175.678 123.45 175.625C123.423 175.572 123.384 175.527 123.337 175.491C123.289 175.456 123.234 175.432 123.175 175.422C123.117 175.412 123.057 175.415 123 175.432C122.872 175.454 122.756 175.524 122.675 175.626C122.594 175.729 122.554 175.857 122.562 175.988C122.336 176.248 122.016 176.307 121.849 178.157C121.832 178.3 121.872 178.444 121.961 178.557C122.049 178.67 122.179 178.744 122.321 178.762Z" fill="#E6E6E6"/>
<path d="M123.276 175.476C123.384 175.535 123.709 175.353 123.807 175.373C123.807 175.373 123.488 175.643 123.492 175.806C123.242 175.796 123.276 175.476 123.276 175.476Z" fill="#E6E6E6"/>
<path d="M122.336 176.244C122.115 176.426 121.421 177.346 121.657 177.425C121.751 177.454 121.967 177.144 122.223 177.1C122.479 177.056 122.43 176.16 122.336 176.244Z" fill="#E6E6E6"/>
<path d="M123.394 176.461C123.512 176.722 123.778 177.775 123.532 177.745C123.433 177.745 123.364 177.362 123.153 177.214C122.941 177.066 123.34 176.348 123.394 176.461Z" fill="#E6E6E6"/>
<path d="M122.287 178.713L122.144 178.645C122.051 178.763 121.918 178.91 122.287 178.979C122.656 179.048 122.164 178.792 122.287 178.713Z" fill="#E6E6E6"/>
<path d="M122.779 178.743L122.622 178.719C122.563 178.857 122.479 179.034 122.853 179.004C123.227 178.975 122.656 178.842 122.779 178.743Z" fill="#E6E6E6"/>
<path d="M82.8041 183.432L83.0895 183.462C83.2097 183.474 83.3304 183.442 83.4284 183.371C83.5264 183.3 83.5949 183.196 83.6208 183.078C83.853 182.332 83.9366 181.548 83.8668 180.77C83.9047 180.73 83.9339 180.681 83.9525 180.629C83.9711 180.577 83.9788 180.521 83.9751 180.465C83.9766 180.405 83.9636 180.346 83.9373 180.292C83.9109 180.238 83.872 180.191 83.8237 180.155C83.7754 180.12 83.7193 180.096 83.66 180.087C83.6007 180.077 83.54 180.082 83.4831 180.101C83.3537 180.123 83.2368 180.192 83.155 180.294C83.0733 180.397 83.0324 180.526 83.0403 180.657C82.814 180.918 82.4942 180.977 82.3269 182.827C82.3102 182.97 82.3511 183.115 82.4405 183.228C82.53 183.341 82.6607 183.415 82.8041 183.432Z" fill="#E6E6E6"/>
<path d="M83.7883 180.146C83.8965 180.205 84.2212 180.023 84.3196 180.043C84.3196 180.043 83.9998 180.313 84.0047 180.475C83.7391 180.466 83.7883 180.146 83.7883 180.146Z" fill="#E6E6E6"/>
<path d="M82.8333 180.912C82.6119 181.094 81.9182 182.015 82.1543 182.093C82.2478 182.123 82.4692 181.813 82.7201 181.769C82.971 181.724 82.9268 180.809 82.8333 180.912Z" fill="#E6E6E6"/>
<path d="M83.8914 181.129C84.0094 181.39 84.2751 182.443 84.0291 182.413C83.9307 182.413 83.8618 182.03 83.6503 181.882C83.4387 181.734 83.8372 181.016 83.8914 181.129Z" fill="#E6E6E6"/>
<path d="M82.8038 183.383L82.6562 183.314C82.5627 183.433 82.4299 183.58 82.8038 183.654C83.1777 183.728 82.6464 183.462 82.8038 183.383Z" fill="#E6E6E6"/>
<path d="M83.2962 183.411L83.1387 183.387C83.0797 183.524 82.996 183.702 83.37 183.672C83.7439 183.643 83.1682 183.524 83.2962 183.411Z" fill="#E6E6E6"/>
<path d="M138.464 185.877H138.208C138.095 185.87 137.988 185.82 137.909 185.738C137.829 185.656 137.784 185.548 137.78 185.434C137.669 184.664 137.692 183.879 137.849 183.117C137.791 183.023 137.77 182.911 137.79 182.802C137.793 182.745 137.81 182.69 137.839 182.642C137.868 182.593 137.909 182.552 137.957 182.522C138.005 182.492 138.06 182.474 138.116 182.47C138.173 182.465 138.23 182.475 138.282 182.497C138.402 182.537 138.503 182.621 138.562 182.733C138.622 182.845 138.636 182.975 138.602 183.097C138.774 183.382 139.05 183.476 138.966 185.331C138.969 185.469 138.918 185.603 138.825 185.705C138.731 185.806 138.602 185.868 138.464 185.877Z" fill="#E6E6E6"/>
<path d="M138.026 182.506C137.923 182.555 137.657 182.339 137.568 182.344C137.568 182.344 137.814 182.649 137.79 182.811C138.016 182.831 138.026 182.506 138.026 182.506Z" fill="#E6E6E6"/>
<path d="M138.769 183.378C138.941 183.585 139.443 184.574 139.226 184.623C139.133 184.623 138.98 184.313 138.734 184.239C138.488 184.165 138.69 183.27 138.769 183.378Z" fill="#E6E6E6"/>
<path d="M137.8 183.472C137.657 183.718 137.308 184.731 137.509 184.731C137.603 184.731 137.711 184.372 137.918 184.239C138.124 184.106 137.859 183.363 137.8 183.472Z" fill="#E6E6E6"/>
<path d="M138.499 185.833L138.636 185.779C138.705 185.907 138.804 186.07 138.464 186.099C138.125 186.129 138.612 185.927 138.499 185.833Z" fill="#E6E6E6"/>
<path d="M138.056 185.809H138.199C138.233 185.956 138.287 186.138 137.957 186.064C137.628 185.991 138.144 185.932 138.056 185.809Z" fill="#E6E6E6"/>
<path d="M159.522 187.531H159.266C159.152 187.524 159.045 187.474 158.966 187.393C158.887 187.311 158.841 187.202 158.838 187.088C158.726 186.318 158.75 185.534 158.907 184.771C158.848 184.679 158.827 184.568 158.848 184.461C158.85 184.404 158.867 184.348 158.895 184.299C158.924 184.25 158.964 184.208 159.013 184.178C159.061 184.147 159.116 184.129 159.173 184.124C159.23 184.12 159.287 184.129 159.34 184.151C159.46 184.191 159.56 184.275 159.62 184.387C159.68 184.499 159.694 184.629 159.659 184.751C159.832 185.037 160.107 185.13 160.024 186.985C160.028 187.123 159.977 187.258 159.884 187.36C159.79 187.462 159.66 187.523 159.522 187.531Z" fill="#E6E6E6"/>
<path d="M159.088 184.16C158.98 184.209 158.715 183.992 158.626 184.002C158.626 184.002 158.872 184.302 158.847 184.465C159.064 184.484 159.088 184.16 159.088 184.16Z" fill="#E6E6E6"/>
<path d="M159.827 185.03C159.999 185.237 160.501 186.226 160.284 186.275C160.191 186.3 160.038 185.97 159.817 185.891C159.595 185.813 159.753 184.937 159.827 185.03Z" fill="#E6E6E6"/>
<path d="M158.857 185.13C158.715 185.371 158.365 186.385 158.567 186.385C158.661 186.385 158.769 186.025 158.975 185.893C159.182 185.76 158.916 185.022 158.857 185.13Z" fill="#E6E6E6"/>
<path d="M159.556 187.487L159.694 187.438C159.763 187.565 159.861 187.723 159.522 187.752C159.182 187.782 159.669 187.58 159.556 187.487Z" fill="#E6E6E6"/>
<path d="M159.113 187.461H159.256C159.295 187.609 159.349 187.796 159.015 187.717C158.68 187.638 159.202 187.584 159.113 187.461Z" fill="#E6E6E6"/>
<path d="M114.784 184.789H114.946C115.017 184.796 115.087 184.776 115.144 184.735C115.201 184.693 115.241 184.632 115.256 184.563C115.389 184.134 115.437 183.682 115.399 183.235C115.421 183.211 115.438 183.183 115.449 183.153C115.46 183.122 115.465 183.09 115.463 183.057C115.462 183.024 115.454 182.99 115.439 182.96C115.424 182.929 115.402 182.903 115.375 182.883C115.348 182.862 115.316 182.848 115.283 182.842C115.249 182.835 115.215 182.837 115.182 182.846C115.108 182.86 115.042 182.901 114.995 182.961C114.949 183.021 114.926 183.095 114.931 183.171C114.799 183.318 114.617 183.353 114.518 184.42C114.511 184.462 114.512 184.505 114.522 184.546C114.532 184.587 114.549 184.626 114.574 184.66C114.599 184.695 114.63 184.724 114.666 184.746C114.702 184.768 114.742 184.783 114.784 184.789Z" fill="#E6E6E6"/>
<path d="M115.311 182.89C115.375 182.924 115.562 182.821 115.616 182.831C115.67 182.841 115.434 182.988 115.439 183.082C115.276 183.077 115.311 182.89 115.311 182.89Z" fill="#E6E6E6"/>
<path d="M114.784 183.333C114.656 183.442 114.258 183.973 114.391 184.017C114.445 184.017 114.573 183.855 114.72 183.83C114.868 183.806 114.823 183.269 114.784 183.333Z" fill="#E6E6E6"/>
<path d="M115.379 183.462C115.448 183.609 115.601 184.22 115.458 184.205C115.399 184.205 115.364 183.983 115.241 183.895C115.118 183.806 115.35 183.398 115.379 183.462Z" fill="#E6E6E6"/>
<path d="M114.739 184.746L114.661 184.707C114.602 184.776 114.528 184.86 114.739 184.904C114.951 184.948 114.661 184.805 114.739 184.746Z" fill="#E6E6E6"/>
<path d="M115.025 184.779H114.937C114.902 184.858 114.853 184.961 115.07 184.942C115.286 184.922 114.961 184.843 115.025 184.779Z" fill="#E6E6E6"/>
<path d="M125.608 189.001H125.46C125.395 188.998 125.333 188.969 125.287 188.922C125.242 188.874 125.216 188.811 125.214 188.746C125.149 188.301 125.163 187.848 125.254 187.407C125.22 187.355 125.207 187.292 125.219 187.23C125.221 187.198 125.23 187.167 125.246 187.14C125.262 187.112 125.285 187.088 125.312 187.071C125.339 187.054 125.369 187.043 125.401 187.04C125.433 187.037 125.465 187.041 125.495 187.053C125.562 187.078 125.619 187.127 125.652 187.19C125.686 187.254 125.695 187.328 125.677 187.398C125.775 187.565 125.938 187.614 125.888 188.687C125.891 188.765 125.864 188.842 125.811 188.9C125.759 188.959 125.686 188.995 125.608 189.001Z" fill="#E6E6E6"/>
<path d="M125.332 187.058C125.268 187.088 125.116 186.965 125.067 186.965C125.017 186.965 125.209 187.142 125.195 187.235C125.323 187.245 125.332 187.058 125.332 187.058Z" fill="#E6E6E6"/>
<path d="M125.761 187.561C125.859 187.679 126.149 188.249 126.021 188.279C125.893 188.309 125.879 188.102 125.756 188.058C125.633 188.013 125.716 187.507 125.761 187.561Z" fill="#E6E6E6"/>
<path d="M125.2 187.615C125.116 187.758 124.904 188.343 125.032 188.343C125.086 188.343 125.145 188.136 125.264 188.063C125.382 187.989 125.234 187.556 125.2 187.615Z" fill="#E6E6E6"/>
<path d="M125.608 188.977L125.687 188.947C125.726 189.021 125.785 189.115 125.588 189.129C125.391 189.144 125.667 189.031 125.608 188.977Z" fill="#E6E6E6"/>
<path d="M125.347 188.963H125.431C125.431 189.047 125.48 189.155 125.288 189.11C125.097 189.066 125.397 189.037 125.347 188.963Z" fill="#E6E6E6"/>
<path d="M173.977 195.293L174.262 195.323C174.382 195.335 174.503 195.303 174.601 195.232C174.699 195.162 174.767 195.057 174.793 194.939C175.023 194.193 175.106 193.41 175.039 192.632C175.077 192.591 175.106 192.543 175.125 192.49C175.143 192.438 175.151 192.382 175.147 192.327C175.148 192.267 175.134 192.208 175.108 192.155C175.081 192.101 175.042 192.055 174.994 192.02C174.946 191.984 174.89 191.96 174.832 191.951C174.773 191.941 174.712 191.945 174.655 191.963C174.527 191.985 174.411 192.055 174.331 192.157C174.25 192.26 174.21 192.388 174.218 192.519C173.991 192.779 173.671 192.838 173.504 194.688C173.487 194.831 173.528 194.975 173.616 195.088C173.705 195.201 173.834 195.275 173.977 195.293Z" fill="#E6E6E6"/>
<path d="M174.931 192.009C175.039 192.068 175.364 191.89 175.462 191.905C175.462 191.905 175.142 192.176 175.147 192.338C174.896 192.328 174.931 192.009 174.931 192.009Z" fill="#E6E6E6"/>
<path d="M173.991 192.775C173.77 192.957 173.076 193.877 173.313 193.956C173.406 193.985 173.622 193.675 173.878 193.631C174.134 193.587 174.085 192.691 173.991 192.775Z" fill="#E6E6E6"/>
<path d="M175.049 192.991C175.167 193.251 175.433 194.304 175.187 194.275C175.088 194.275 175.02 193.891 174.808 193.743C174.596 193.596 174.995 192.877 175.049 192.991Z" fill="#E6E6E6"/>
<path d="M173.942 195.245L173.799 195.176C173.706 195.294 173.573 195.441 173.942 195.515C174.311 195.589 173.824 195.323 173.942 195.245Z" fill="#E6E6E6"/>
<path d="M174.434 195.273H174.276C174.217 195.411 174.134 195.588 174.508 195.559C174.882 195.529 174.316 195.387 174.434 195.273Z" fill="#E6E6E6"/>
<path d="M189.656 197.375H189.401C189.287 197.368 189.18 197.318 189.101 197.236C189.022 197.154 188.976 197.046 188.973 196.932C188.861 196.161 188.884 195.377 189.041 194.615C188.983 194.523 188.962 194.412 188.982 194.305C188.985 194.248 189.001 194.192 189.03 194.143C189.059 194.093 189.099 194.052 189.147 194.021C189.196 193.991 189.251 193.973 189.308 193.968C189.365 193.963 189.422 193.973 189.474 193.995C189.595 194.034 189.695 194.119 189.755 194.231C189.814 194.343 189.828 194.473 189.794 194.595C189.966 194.88 190.242 194.974 190.158 196.829C190.162 196.967 190.112 197.102 190.018 197.204C189.925 197.306 189.795 197.367 189.656 197.375Z" fill="#E6E6E6"/>
<path d="M189.219 194.005C189.115 194.055 188.85 193.838 188.761 193.848C188.761 193.848 189.007 194.148 188.983 194.31C189.209 194.33 189.219 194.005 189.219 194.005Z" fill="#E6E6E6"/>
<path d="M189.962 194.876C190.134 195.083 190.636 196.072 190.419 196.121C190.326 196.145 190.173 195.811 189.927 195.737C189.681 195.663 189.888 194.783 189.962 194.876Z" fill="#E6E6E6"/>
<path d="M188.992 194.974C188.849 195.215 188.5 196.228 188.702 196.228C188.795 196.228 188.904 195.869 189.11 195.736C189.317 195.603 189.076 194.865 188.992 194.974Z" fill="#E6E6E6"/>
<path d="M189.691 197.33L189.829 197.281C189.898 197.409 189.996 197.567 189.656 197.596C189.317 197.626 189.804 197.424 189.691 197.33Z" fill="#E6E6E6"/>
<path d="M189.248 197.307H189.391C189.425 197.454 189.479 197.641 189.15 197.562C188.82 197.484 189.337 197.43 189.248 197.307Z" fill="#E6E6E6"/>
<path d="M171.118 198.316H171.285C171.354 198.322 171.423 198.303 171.48 198.262C171.536 198.222 171.575 198.162 171.59 198.094C171.723 197.663 171.772 197.21 171.733 196.761C171.756 196.739 171.773 196.712 171.784 196.682C171.795 196.652 171.8 196.62 171.797 196.589C171.797 196.555 171.789 196.521 171.773 196.491C171.758 196.461 171.736 196.434 171.709 196.414C171.682 196.393 171.65 196.379 171.617 196.373C171.584 196.367 171.549 196.368 171.517 196.377C171.443 196.39 171.376 196.43 171.33 196.489C171.284 196.548 171.261 196.622 171.266 196.697C171.133 196.849 170.951 196.884 170.852 197.952C170.84 198.035 170.86 198.12 170.91 198.188C170.96 198.257 171.035 198.302 171.118 198.316Z" fill="#E6E6E6"/>
<path d="M171.669 196.415C171.733 196.45 171.92 196.346 171.974 196.356C172.028 196.366 171.792 196.514 171.797 196.607C171.649 196.602 171.669 196.415 171.669 196.415Z" fill="#E6E6E6"/>
<path d="M171.128 196.858C171 196.966 170.601 197.498 170.734 197.542C170.793 197.542 170.916 197.38 171.064 197.355C171.212 197.33 171.182 196.814 171.128 196.858Z" fill="#E6E6E6"/>
<path d="M171.738 196.986C171.807 197.134 171.959 197.744 171.817 197.724C171.763 197.724 171.723 197.508 171.6 197.419C171.477 197.331 171.708 196.917 171.738 196.986Z" fill="#E6E6E6"/>
<path d="M171.103 198.285L171.02 198.246C170.966 198.315 170.887 198.399 171.103 198.438C171.32 198.477 171.02 198.33 171.103 198.285Z" fill="#E6E6E6"/>
<path d="M171.364 198.305H171.276C171.241 198.388 171.192 198.492 171.408 198.472C171.625 198.452 171.32 198.369 171.364 198.305Z" fill="#E6E6E6"/>
<path d="M175.816 199.505H175.669C175.603 199.502 175.541 199.473 175.496 199.426C175.45 199.378 175.424 199.315 175.423 199.25C175.358 198.805 175.371 198.352 175.462 197.911C175.428 197.859 175.416 197.795 175.428 197.734C175.429 197.702 175.439 197.671 175.455 197.643C175.471 197.616 175.493 197.592 175.52 197.575C175.547 197.558 175.578 197.547 175.61 197.544C175.641 197.541 175.674 197.545 175.703 197.557C175.812 197.592 175.905 197.69 175.89 197.901C175.984 198.069 176.146 198.118 176.097 199.19C176.1 199.269 176.072 199.346 176.02 199.404C175.968 199.463 175.895 199.499 175.816 199.505Z" fill="#E6E6E6"/>
<path d="M175.566 197.572C175.507 197.602 175.349 197.474 175.3 197.479C175.251 197.484 175.443 197.656 175.428 197.749C175.561 197.759 175.566 197.572 175.566 197.572Z" fill="#E6E6E6"/>
<path d="M175.994 198.073C176.092 198.191 176.382 198.762 176.254 198.791C176.205 198.791 176.117 198.614 175.989 198.57C175.861 198.526 175.949 198.029 175.994 198.073Z" fill="#E6E6E6"/>
<path d="M175.433 198.129C175.349 198.271 175.138 198.857 175.266 198.857C175.394 198.857 175.384 198.65 175.502 198.576C175.62 198.502 175.467 198.07 175.433 198.129Z" fill="#E6E6E6"/>
<path d="M175.836 199.506L175.915 199.477C175.955 199.55 176.014 199.644 175.817 199.659C175.62 199.673 175.9 199.545 175.836 199.506Z" fill="#E6E6E6"/>
<path d="M175.581 199.477H175.664C175.664 199.56 175.718 199.668 175.527 199.624C175.335 199.58 175.63 199.55 175.581 199.477Z" fill="#E6E6E6"/>
<path d="M185.706 203.77L185.991 203.8C186.112 203.812 186.234 203.779 186.332 203.707C186.43 203.636 186.498 203.53 186.523 203.411C186.754 202.665 186.84 201.882 186.774 201.104C186.811 201.064 186.84 201.016 186.859 200.965C186.877 200.913 186.885 200.858 186.882 200.804C186.881 200.744 186.867 200.686 186.84 200.633C186.813 200.58 186.774 200.534 186.726 200.499C186.679 200.464 186.624 200.44 186.565 200.43C186.507 200.419 186.447 200.423 186.39 200.439C186.261 200.462 186.146 200.531 186.065 200.634C185.984 200.736 185.944 200.865 185.952 200.995C185.721 201.256 185.406 201.31 185.234 203.165C185.218 203.308 185.259 203.45 185.347 203.563C185.435 203.676 185.564 203.751 185.706 203.77Z" fill="#E6E6E6"/>
<path d="M186.66 200.489C186.769 200.553 187.093 200.37 187.192 200.39C187.192 200.39 186.872 200.656 186.882 200.823C186.616 200.803 186.66 200.489 186.66 200.489Z" fill="#E6E6E6"/>
<path d="M185.72 201.247C185.499 201.434 184.81 202.354 185.041 202.428C185.14 202.462 185.356 202.152 185.607 202.108C185.858 202.064 185.819 201.168 185.72 201.247Z" fill="#E6E6E6"/>
<path d="M186.778 201.473C186.901 201.734 187.162 202.782 186.921 202.757C186.817 202.757 186.749 202.373 186.542 202.226C186.335 202.078 186.724 201.35 186.778 201.473Z" fill="#E6E6E6"/>
<path d="M185.676 203.721L185.534 203.652C185.435 203.77 185.307 203.918 185.676 203.987C186.045 204.056 185.539 203.795 185.676 203.721Z" fill="#E6E6E6"/>
<path d="M186.168 203.752L186.011 203.723C185.952 203.865 185.863 204.042 186.242 204.008C186.621 203.974 186.055 203.865 186.168 203.752Z" fill="#E6E6E6"/>
<path d="M210.965 210.093H210.724C210.61 210.084 210.503 210.034 210.424 209.951C210.345 209.868 210.299 209.759 210.296 209.645C210.186 208.874 210.211 208.09 210.37 207.328C210.339 207.283 210.319 207.232 210.308 207.179C210.298 207.125 210.299 207.071 210.31 207.018C210.313 206.961 210.329 206.905 210.358 206.856C210.387 206.806 210.427 206.765 210.476 206.734C210.524 206.704 210.579 206.685 210.636 206.681C210.693 206.676 210.75 206.685 210.802 206.708C210.919 206.754 211.016 206.84 211.076 206.951C211.135 207.062 211.153 207.19 211.127 207.313C211.294 207.593 211.57 207.687 211.491 209.542C211.493 209.684 211.438 209.821 211.34 209.924C211.242 210.027 211.107 210.088 210.965 210.093Z" fill="#E6E6E6"/>
<path d="M210.532 206.723C210.424 206.772 210.158 206.556 210.07 206.561C210.07 206.561 210.321 206.866 210.296 207.053C210.518 207.043 210.532 206.723 210.532 206.723Z" fill="#E6E6E6"/>
<path d="M211.27 207.588C211.442 207.8 211.944 208.789 211.728 208.838C211.639 208.838 211.482 208.528 211.265 208.454C211.049 208.38 211.216 207.5 211.27 207.588Z" fill="#E6E6E6"/>
<path d="M210.301 207.687C210.158 207.933 209.809 208.946 210.015 208.946C210.104 208.946 210.212 208.587 210.419 208.454C210.626 208.321 210.365 207.578 210.301 207.687Z" fill="#E6E6E6"/>
<path d="M211 210.048L211.137 209.994C211.206 210.122 211.305 210.284 210.965 210.314C210.626 210.343 211.113 210.142 211 210.048Z" fill="#E6E6E6"/>
<path d="M210.561 210.023H210.704C210.739 210.166 210.793 210.353 210.463 210.279C210.133 210.205 210.645 210.146 210.561 210.023Z" fill="#E6E6E6"/>
<path d="M232.131 214.875H232.323C232.409 214.87 232.49 214.833 232.55 214.771C232.61 214.709 232.645 214.627 232.647 214.541C232.732 213.962 232.714 213.372 232.593 212.799C232.638 212.729 232.654 212.644 232.638 212.563C232.634 212.522 232.621 212.482 232.6 212.447C232.578 212.412 232.549 212.382 232.515 212.359C232.48 212.337 232.441 212.323 232.4 212.318C232.359 212.313 232.317 212.318 232.278 212.332C232.191 212.366 232.118 212.43 232.074 212.513C232.03 212.596 232.017 212.693 232.037 212.784C231.909 212.996 231.703 213.07 231.762 214.462C231.759 214.565 231.796 214.665 231.864 214.742C231.933 214.819 232.028 214.867 232.131 214.875Z" fill="#E6E6E6"/>
<path d="M232.46 212.342C232.539 212.376 232.736 212.214 232.805 212.219C232.874 212.224 232.618 212.45 232.638 212.568C232.47 212.583 232.46 212.342 232.46 212.342Z" fill="#E6E6E6"/>
<path d="M231.88 212.995C231.752 213.153 231.388 213.896 231.541 213.93C231.605 213.93 231.723 213.699 231.89 213.645C232.057 213.591 231.959 212.926 231.88 212.995Z" fill="#E6E6E6"/>
<path d="M232.633 213.066C232.736 213.253 233.016 214.016 232.849 214.016C232.78 214.016 232.697 213.745 232.544 213.652C232.392 213.558 232.584 212.987 232.633 213.066Z" fill="#E6E6E6"/>
<path d="M232.106 214.842L232.003 214.803C231.949 214.901 231.875 215.024 232.131 215.044C232.387 215.063 232.023 214.916 232.106 214.842Z" fill="#E6E6E6"/>
<path d="M232.436 214.826H232.327C232.303 214.934 232.264 215.077 232.51 215.018C232.756 214.959 232.372 214.92 232.436 214.826Z" fill="#E6E6E6"/>
<path d="M148.732 207.894H148.899C148.968 207.899 149.037 207.88 149.092 207.839C149.148 207.799 149.188 207.74 149.204 207.672C149.337 207.241 149.385 206.789 149.347 206.339C149.369 206.316 149.386 206.289 149.397 206.26C149.408 206.23 149.412 206.198 149.411 206.167C149.411 206.133 149.402 206.099 149.387 206.069C149.372 206.039 149.35 206.012 149.323 205.992C149.296 205.971 149.264 205.958 149.231 205.951C149.197 205.945 149.163 205.946 149.13 205.955C149.057 205.968 148.99 206.008 148.944 206.067C148.898 206.126 148.875 206.2 148.879 206.275C148.747 206.428 148.565 206.457 148.466 207.525C148.458 207.567 148.459 207.609 148.469 207.651C148.478 207.692 148.495 207.731 148.52 207.766C148.545 207.8 148.577 207.83 148.613 207.851C148.649 207.873 148.69 207.888 148.732 207.894Z" fill="#E6E6E6"/>
<path d="M149.293 205.999C149.357 206.034 149.544 205.93 149.598 205.94C149.652 205.95 149.416 206.093 149.421 206.191C149.273 206.186 149.293 205.999 149.293 205.999Z" fill="#E6E6E6"/>
<path d="M148.732 206.443C148.604 206.551 148.205 207.077 148.338 207.122C148.397 207.122 148.52 206.964 148.668 206.935C148.816 206.905 148.806 206.394 148.732 206.443Z" fill="#E6E6E6"/>
<path d="M149.362 206.565C149.431 206.718 149.583 207.323 149.441 207.308C149.387 207.308 149.347 207.087 149.224 207.003C149.101 206.919 149.332 206.501 149.362 206.565Z" fill="#E6E6E6"/>
<path d="M148.732 207.869L148.648 207.83C148.589 207.894 148.516 207.983 148.732 208.022C148.949 208.061 148.644 207.914 148.732 207.869Z" fill="#E6E6E6"/>
<path d="M149.008 207.869H148.919C148.885 207.953 148.836 208.051 149.052 208.031C149.268 208.012 148.944 207.948 149.008 207.869Z" fill="#E6E6E6"/>
<path d="M201.159 195.166H201.012C200.946 195.163 200.884 195.134 200.838 195.087C200.793 195.039 200.767 194.976 200.766 194.911C200.701 194.466 200.714 194.013 200.805 193.572C200.771 193.52 200.759 193.456 200.771 193.395C200.773 193.363 200.782 193.332 200.798 193.304C200.814 193.277 200.836 193.253 200.863 193.235C200.89 193.218 200.92 193.207 200.952 193.203C200.984 193.199 201.016 193.202 201.046 193.213C201.114 193.24 201.169 193.29 201.203 193.354C201.236 193.418 201.245 193.492 201.228 193.562C201.327 193.725 201.489 193.779 201.44 194.851C201.441 194.93 201.413 195.006 201.361 195.064C201.309 195.122 201.237 195.159 201.159 195.166Z" fill="#E6E6E6"/>
<path d="M200.909 193.223C200.845 193.252 200.692 193.124 200.643 193.129C200.594 193.134 200.786 193.306 200.771 193.4C200.884 193.409 200.909 193.223 200.909 193.223Z" fill="#E6E6E6"/>
<path d="M201.337 193.725C201.435 193.843 201.725 194.414 201.597 194.443C201.548 194.443 201.455 194.266 201.332 194.222C201.209 194.177 201.292 193.671 201.337 193.725Z" fill="#E6E6E6"/>
<path d="M200.776 193.779C200.692 193.922 200.481 194.507 200.608 194.507C200.736 194.507 200.722 194.295 200.845 194.227C200.968 194.158 200.81 193.72 200.776 193.779Z" fill="#E6E6E6"/>
<path d="M201.179 195.141L201.258 195.111C201.297 195.185 201.356 195.279 201.16 195.293C200.963 195.308 201.243 195.195 201.179 195.141Z" fill="#E6E6E6"/>
<path d="M200.923 195.127H201.007C201.007 195.211 201.056 195.319 200.869 195.275C200.682 195.23 200.972 195.201 200.923 195.127Z" fill="#E6E6E6"/>
<path d="M122.538 93.179L117.765 90.8027C118.202 90.4119 118.51 89.8978 118.649 89.3282C118.788 88.7587 118.75 88.1605 118.542 87.6126C118.333 87.0647 117.964 86.5929 117.482 86.2594C117 85.926 116.428 85.7466 115.842 85.7449H115.724C115.684 84.3581 115.134 83.0346 114.179 82.0285C113.224 81.0224 111.931 80.4046 110.548 80.2936C110.132 78.7508 109.308 77.3485 108.163 76.234C107.018 75.1195 105.594 74.334 104.041 73.96C102.488 73.586 100.862 73.6373 99.3353 74.1085C97.8086 74.5798 96.4369 75.4535 95.3645 76.638C94.223 75.8302 92.8936 75.3283 91.503 75.1801C90.1125 75.0319 88.7071 75.2424 87.421 75.7915C86.1349 76.3406 85.0109 77.21 84.1561 78.3167C83.3013 79.4235 82.7443 80.7308 82.5381 82.114C82.0974 81.9829 81.64 81.9166 81.1802 81.9172C80.2407 81.9163 79.3216 82.1908 78.5364 82.7067C77.7513 83.2226 77.1345 83.9572 76.7623 84.8198C76.3902 85.6824 76.2789 86.6352 76.4424 87.5603C76.6059 88.4855 77.0368 89.3425 77.6821 90.0253L72.8457 93.179H122.538Z" fill="#F0F0F0"/>
<path d="M95.5269 126.729L98.1295 125.435C97.8901 125.223 97.721 124.942 97.6446 124.631C97.5682 124.32 97.5882 123.993 97.7018 123.694C97.8155 123.394 98.0175 123.137 98.2811 122.955C98.5446 122.773 98.8572 122.675 99.1775 122.675H99.2415C99.268 121.922 99.5705 121.206 100.091 120.661C100.612 120.117 101.315 119.783 102.066 119.723C102.289 118.878 102.736 118.109 103.36 117.498C103.984 116.886 104.762 116.454 105.611 116.248C106.461 116.042 107.35 116.069 108.185 116.327C109.02 116.584 109.77 117.062 110.356 117.711C110.978 117.269 111.703 116.995 112.461 116.913C113.219 116.832 113.986 116.946 114.688 117.245C115.389 117.544 116.003 118.018 116.469 118.621C116.936 119.225 117.24 119.938 117.352 120.692C117.593 120.621 117.843 120.585 118.095 120.584C118.607 120.585 119.108 120.736 119.536 121.018C119.964 121.3 120.3 121.701 120.503 122.171C120.706 122.642 120.767 123.162 120.678 123.666C120.59 124.171 120.355 124.639 120.004 125.012L122.641 126.729H95.5269Z" fill="#FAFAFA"/>
<path d="M226.468 82.5178L224.298 81.1058C224.547 80.8361 224.713 80.501 224.777 80.14C224.84 79.7789 224.8 79.4072 224.659 79.0687C224.518 78.7301 224.283 78.439 223.982 78.2298C223.681 78.0206 223.326 77.902 222.96 77.8881C222.981 77.7101 222.993 77.5311 222.994 77.3518C222.994 76.7744 222.881 76.2027 222.66 75.6693C222.438 75.1359 222.114 74.6514 221.706 74.2433C221.297 73.8353 220.812 73.5118 220.279 73.2913C219.745 73.0708 219.173 72.9576 218.596 72.9582C218.3 72.9577 218.005 72.9874 217.715 73.0468C217.016 72.245 216.09 71.6752 215.059 71.4132C214.028 71.1512 212.942 71.2095 211.945 71.5803C210.948 71.9511 210.087 72.6168 209.478 73.4888C208.869 74.3607 208.54 75.3976 208.535 76.4613C207.911 76.5463 207.338 76.8503 206.918 77.319C206.498 77.7877 206.258 78.3905 206.242 79.0197H206.188C205.914 79.0242 205.648 79.1114 205.424 79.2699C205.201 79.4284 205.031 79.6508 204.936 79.9079C204.841 80.1649 204.826 80.4446 204.893 80.7102C204.961 80.9758 205.106 81.2149 205.312 81.396L203.059 82.5178H226.468Z" fill="#F5F5F5"/>
<path d="M163 243.569C215.684 243.569 258.394 241.075 258.394 237.999C258.394 234.923 215.684 232.43 163 232.43C110.315 232.43 67.606 234.923 67.606 237.999C67.606 241.075 110.315 243.569 163 243.569Z" fill="#F5F5F5"/>
<path d="M143.034 151.117C144.943 162.064 154.636 188.111 150.208 204.716C145.78 221.321 140.245 178.177 134.636 174.905C129.027 171.634 143.034 151.117 143.034 151.117Z" fill="#263238"/>
<path d="M147.989 208.807C145.908 208.807 144.053 202.741 141.273 192.753C139.138 185.127 136.727 176.483 134.483 175.184C134.13 174.972 133.826 174.687 133.593 174.347C133.359 174.008 133.202 173.622 133.13 173.216C131.763 167.194 142.331 151.568 142.783 150.929L143.207 150.309L143.334 151.047C143.826 153.743 144.751 157.364 145.844 161.551C149.214 174.485 153.839 192.202 150.488 204.778C149.765 207.513 148.968 208.788 147.994 208.793L147.989 208.807ZM142.872 151.913C140.904 154.924 132.54 167.986 133.726 173.098C133.781 173.419 133.905 173.724 134.088 173.993C134.272 174.262 134.51 174.489 134.788 174.658C137.248 176.084 139.487 184.099 141.858 192.591C143.9 199.907 146.218 208.197 147.989 208.197C148.348 208.197 149.076 207.73 149.903 204.635C153.204 192.217 148.609 174.589 145.253 161.723C144.254 157.89 143.379 154.535 142.872 151.913Z" fill="#263238"/>
<path d="M143.541 151.923C145.677 187.44 140.25 230.884 137.637 236.345C136.447 238.805 131.133 236.621 128.934 235.887C123.443 236.714 111.079 237.767 100.545 237.767C88.8211 237.767 83.0155 237.486 84.0585 236.847C85.1016 236.207 93.5049 233.6 93.5836 230.574C93.8592 219.75 89.9428 210.249 89.5099 186.2C89.0966 163.465 96.1027 148.971 100.772 141.143C106.676 131.21 111.797 127.908 116.629 121.242C121.46 114.575 129.544 106.762 136.122 110.334C142.124 113.591 146.075 109.458 151.625 110.757C151.753 110.787 151.868 110.856 151.954 110.955C152.041 111.054 152.095 111.177 152.108 111.308C152.121 111.438 152.092 111.57 152.027 111.684C151.962 111.798 151.862 111.888 151.743 111.943C146.823 114.216 139.276 119.569 137.45 124.533C140.899 127.967 142.828 140.061 143.541 151.923Z" fill="white"/>
<path d="M100.516 237.974C83.9698 237.974 83.7877 237.403 83.7139 237.064C83.6893 236.98 83.6844 236.818 83.9206 236.67C84.4197 236.419 84.9321 236.196 85.4556 236.001C87.9993 234.968 93.2932 232.818 93.3276 230.589C93.4457 225.9 92.7815 221.497 91.9402 215.923C90.3328 206.1 89.4449 196.173 89.2834 186.221C88.9734 169.089 92.6683 154.314 100.599 141.05C104.23 134.969 107.487 131.407 110.685 127.963C112.751 125.808 114.682 123.527 116.466 121.134C119.118 117.483 128.373 105.882 136.245 110.167C139.635 112.007 142.301 111.456 145.125 110.871C147.177 110.448 149.298 110.01 151.699 110.571C151.868 110.61 152.021 110.702 152.136 110.833C152.251 110.964 152.322 111.128 152.339 111.302C152.357 111.475 152.319 111.65 152.233 111.801C152.146 111.952 152.014 112.072 151.856 112.145C147.098 114.334 139.605 119.599 137.711 124.499C141.957 128.927 143.364 145.134 143.772 151.928C145.878 186.949 140.51 230.874 137.829 236.449C136.678 238.835 132.279 237.29 129.647 236.365L128.924 236.114C119.502 237.322 110.014 237.943 100.516 237.974ZM84.2109 236.99C84.9341 237.27 88.4962 237.571 100.516 237.571C111.453 237.571 123.684 236.473 128.875 235.696H128.924H128.973L129.75 235.967C132.087 236.788 136.432 238.313 137.421 236.262C140.092 230.712 145.426 186.904 143.325 151.943C142.474 137.783 140.22 127.594 137.293 124.686L137.199 124.593L137.244 124.47C139.103 119.422 146.783 114 151.649 111.761C151.73 111.725 151.797 111.664 151.84 111.587C151.884 111.51 151.901 111.421 151.89 111.333C151.884 111.245 151.848 111.161 151.79 111.094C151.731 111.028 151.653 110.982 151.566 110.964C149.258 110.423 147.182 110.851 145.17 111.264C142.4 111.84 139.531 112.43 136.009 110.521C128.432 106.403 119.359 117.783 116.762 121.37C114.965 123.773 113.024 126.065 110.951 128.233C107.788 131.677 104.521 135.205 100.914 141.252C93.0423 154.447 89.3719 169.148 89.677 186.206C89.8503 196.139 90.7465 206.046 92.3584 215.849C93.2046 221.443 93.8737 225.861 93.7557 230.609C93.6917 233.128 88.4322 235.263 85.6081 236.409C84.9882 236.641 84.4716 236.847 84.2207 236.98L84.2109 236.99Z" fill="#263238"/>
<path opacity="0.1" d="M137.45 124.533C140.894 127.977 142.828 140.061 143.541 151.923C143.541 151.923 141.898 157.335 125.893 155.431C109.888 153.527 107.295 142.585 107.295 142.585C107.295 142.585 109.081 131.303 137.45 124.533Z" fill="#263238"/>
<path opacity="0.1" d="M127.236 161.516C133.425 157.703 141.189 158.525 140.742 163.342C140.294 168.158 119.212 166.461 127.236 161.516Z" fill="#263238"/>
<path d="M100.516 237.767C88.7913 237.767 82.9857 237.486 84.0287 236.847C85.0718 236.207 93.4751 233.6 93.5539 230.574C93.8294 219.75 89.9131 210.249 89.4801 186.2C89.0668 163.465 96.0729 148.971 100.742 141.143C106.646 131.21 111.768 127.908 116.599 121.242C121.431 114.575 129.544 106.762 136.122 110.334C142.124 113.591 146.075 109.458 151.625 110.757C151.752 110.787 151.868 110.856 151.954 110.955C152.041 111.054 152.094 111.177 152.107 111.308C152.12 111.438 152.092 111.57 152.027 111.684C151.961 111.798 151.862 111.888 151.743 111.943C146.823 114.216 139.275 119.569 137.45 124.533C137.45 124.533 139.713 129.556 128.323 129.945C120.299 130.201 113.996 134.166 110.119 141.207C109.301 142.688 108.745 144.299 108.476 145.97C105.342 165.546 92.2648 166.85 93.1849 185.443C94.1049 204.035 101.426 225.787 98.405 231.784C95.3841 237.782 100.516 237.767 100.516 237.767Z" fill="#263238"/>
<path d="M100.516 237.974C83.9698 237.974 83.7877 237.403 83.7139 237.064C83.6893 236.98 83.6844 236.818 83.9206 236.67C84.4197 236.419 84.9321 236.196 85.4556 236.001C87.9993 234.968 93.2932 232.818 93.3276 230.589C93.4457 225.9 92.7815 221.497 91.9402 215.923C90.3328 206.1 89.4449 196.173 89.2834 186.221C88.9734 169.089 92.6683 154.314 100.599 141.05C104.23 134.969 107.487 131.407 110.685 127.963C112.751 125.808 114.682 123.527 116.466 121.134C119.118 117.483 128.373 105.882 136.245 110.167C139.635 112.007 142.301 111.456 145.125 110.871C147.177 110.448 149.298 110.01 151.699 110.571C151.868 110.61 152.021 110.702 152.136 110.833C152.251 110.964 152.322 111.128 152.339 111.302C152.357 111.475 152.319 111.65 152.233 111.801C152.146 111.952 152.014 112.072 151.856 112.145C147.079 114.344 139.556 119.633 137.691 124.548C137.846 124.976 137.899 125.433 137.848 125.884C137.797 126.336 137.642 126.769 137.396 127.151C136.255 128.981 133.214 129.99 128.358 130.142C120.432 130.398 114.203 134.255 110.336 141.306C109.533 142.766 108.987 144.354 108.722 146C107.246 155.161 103.537 160.459 100.255 165.133C96.4961 170.496 92.9439 175.564 93.426 185.428C93.8295 193.601 95.4777 202.407 96.934 210.181C98.8429 220.4 100.348 228.464 98.6265 231.873C97.6425 233.841 97.4309 235.347 98.0311 236.331C98.7741 237.551 100.531 237.575 100.55 237.575L100.516 237.974ZM84.2109 236.99C84.8997 237.256 88.1469 237.541 98.7987 237.566C98.3252 237.344 97.9255 236.99 97.6474 236.547C96.9635 235.425 97.1554 233.792 98.223 231.681C99.886 228.4 98.3116 219.991 96.4912 210.255C95.0152 202.466 93.3867 193.64 92.9832 185.443C92.4912 175.436 96.0828 170.314 99.8712 164.892C103.281 160.026 106.813 154.993 108.265 145.926C108.537 144.233 109.1 142.6 109.928 141.099C113.864 133.921 120.215 129.985 128.294 129.729C134.154 129.537 136.26 128.105 136.993 126.935C137.212 126.596 137.348 126.211 137.39 125.81C137.432 125.409 137.378 125.003 137.234 124.627L137.199 124.553L137.229 124.475C139.089 119.427 146.769 114.005 151.635 111.766C151.715 111.73 151.782 111.669 151.826 111.592C151.869 111.515 151.887 111.426 151.876 111.338C151.869 111.25 151.834 111.166 151.775 111.099C151.716 111.033 151.638 110.987 151.551 110.969C149.243 110.428 147.167 110.856 145.155 111.269C142.385 111.845 139.517 112.435 135.994 110.526C128.417 106.408 119.345 117.788 116.747 121.375C114.95 123.777 113.009 126.069 110.936 128.238C107.773 131.682 104.506 135.21 100.9 141.257C93.0275 154.452 89.3572 169.153 89.6622 186.211C89.8355 196.144 90.7317 206.051 92.3436 215.854C93.1899 221.448 93.859 225.866 93.7409 230.614C93.6769 233.133 88.4175 235.268 85.5934 236.414C84.9882 236.641 84.4716 236.847 84.2207 236.98L84.2109 236.99Z" fill="#263238"/>
<path d="M138.607 232.409C140.742 234.116 147.984 234.982 151.025 237.403C151.315 237.634 151.123 238.047 150.729 238.038L136.058 237.787C133.581 237.681 131.149 237.096 128.895 236.065C128.895 236.065 133.913 228.66 138.607 232.409Z" fill="#263238"/>
<path d="M150.739 238.244L136.068 237.993C133.562 237.883 131.101 237.29 128.82 236.247L128.609 236.144L128.742 235.947C128.86 235.775 131.645 231.72 135.074 231.199C135.726 231.099 136.392 231.142 137.026 231.324C137.661 231.505 138.248 231.822 138.749 232.252C139.694 233.005 141.74 233.61 143.91 234.249C146.523 235.027 149.484 235.902 151.167 237.241C151.26 237.308 151.329 237.405 151.362 237.515C151.396 237.625 151.393 237.743 151.354 237.851C151.306 237.973 151.22 238.076 151.11 238.147C151 238.217 150.87 238.252 150.739 238.244ZM129.209 235.981C131.375 236.935 133.699 237.477 136.063 237.58L150.734 237.831C150.778 237.836 150.822 237.827 150.861 237.806C150.9 237.785 150.931 237.752 150.951 237.713C150.96 237.686 150.96 237.656 150.95 237.629C150.94 237.602 150.921 237.58 150.896 237.565C149.278 236.276 146.355 235.41 143.777 234.648C141.568 233.993 139.482 233.374 138.478 232.572C138.022 232.177 137.487 231.884 136.908 231.714C136.329 231.545 135.72 231.501 135.123 231.588C132.284 232.035 129.819 235.155 129.209 235.981Z" fill="#263238"/>
<path d="M120.545 236.858C116.279 234.698 115 231.642 111.689 232.843C108.378 234.043 108.053 236.208 107.571 237.684C107.089 239.16 110.179 240.262 111.964 240.4C113.75 240.538 114.848 239.642 119.039 240.813C123.231 241.984 126.134 239.687 120.545 236.858Z" fill="#263238"/>
<path d="M121.18 241.325C120.439 241.317 119.703 241.21 118.991 241.005C116.157 240.213 114.794 240.375 113.579 240.513C113.038 240.596 112.491 240.624 111.945 240.596C110.612 240.493 108.29 239.819 107.517 238.707C107.403 238.551 107.328 238.37 107.298 238.179C107.268 237.989 107.284 237.793 107.345 237.61C107.394 237.462 107.438 237.305 107.488 237.118C107.916 235.686 108.506 233.728 111.591 232.616C113.844 231.799 115.246 232.882 117.003 234.254C118.122 235.167 119.328 235.966 120.604 236.641C122.986 237.846 124.127 239.13 123.724 240.158C123.473 240.926 122.474 241.325 121.18 241.325ZM115.192 239.991C116.517 240.015 117.831 240.222 119.099 240.606C121.372 241.241 123.099 240.803 123.394 240.04C123.635 239.425 122.991 238.313 120.472 237.034C119.17 236.353 117.942 235.54 116.806 234.609C115 233.216 113.805 232.296 111.763 233.029C108.875 234.077 108.344 235.844 107.916 237.266C107.866 237.433 107.822 237.59 107.768 237.758C107.729 237.882 107.72 238.014 107.742 238.142C107.764 238.271 107.817 238.392 107.896 238.496C108.536 239.455 110.681 240.104 111.985 240.203C112.506 240.23 113.028 240.204 113.544 240.124C114.084 240.049 114.628 240.006 115.173 239.996L115.192 239.991Z" fill="#263238"/>
<path d="M122.739 129.483C129.627 127.289 118.803 119.466 113.229 126.359C108.215 132.553 111.669 135.047 115.103 133.158C118.538 131.269 120.948 130.054 122.739 129.483Z" fill="#EDEFF5"/>
<path d="M149.814 111.894C152.978 111.146 137.022 119.766 133.135 119.028C138.488 117.512 144.387 114.309 149.814 111.894Z" fill="#EDEFF5"/>
<path d="M128.762 116.848C128.825 116.98 128.927 117.09 129.053 117.164C129.179 117.238 129.324 117.272 129.47 117.264C129.615 117.255 129.756 117.203 129.872 117.115C129.988 117.027 130.076 116.906 130.124 116.768C130.171 116.63 130.177 116.48 130.14 116.339C130.102 116.198 130.024 116.071 129.915 115.974C129.805 115.877 129.669 115.815 129.524 115.796C129.38 115.776 129.232 115.8 129.101 115.864C128.926 115.95 128.792 116.102 128.728 116.286C128.665 116.471 128.677 116.673 128.762 116.848Z" fill="#EDEFF5"/>
<path d="M129.194 116.357C129.162 116.362 129.129 116.361 129.097 116.353C129.065 116.345 129.035 116.332 129.009 116.312C128.982 116.293 128.96 116.269 128.943 116.241C128.926 116.213 128.914 116.182 128.909 116.15C128.904 116.118 128.905 116.085 128.913 116.053C128.92 116.021 128.934 115.991 128.953 115.965C128.972 115.938 128.997 115.916 129.024 115.898C129.052 115.881 129.083 115.87 129.116 115.865C129.299 115.795 129.458 115.674 129.576 115.518C129.693 115.361 129.764 115.174 129.78 114.979C129.782 114.947 129.791 114.915 129.806 114.886C129.821 114.858 129.841 114.832 129.866 114.811C129.89 114.79 129.919 114.774 129.95 114.764C129.981 114.754 130.013 114.75 130.045 114.753C130.078 114.755 130.109 114.764 130.138 114.779C130.167 114.794 130.193 114.814 130.214 114.839C130.235 114.863 130.251 114.892 130.261 114.923C130.271 114.954 130.274 114.986 130.272 115.018C130.25 115.308 130.146 115.586 129.971 115.819C129.797 116.052 129.56 116.23 129.288 116.332L129.194 116.357Z" fill="#EDEFF5"/>
<path d="M106.651 151.672C104.924 162.653 110.921 190.2 103.399 205.649C95.876 221.098 98.7197 177.699 93.844 173.428C88.9683 169.158 106.651 151.672 106.651 151.672Z" fill="#263238"/>
<path d="M100.653 209.266C100.586 209.273 100.519 209.273 100.452 209.266C98.405 208.882 97.7556 202.57 96.9339 192.223C96.3042 184.326 95.5908 175.382 93.6425 173.675C93.3376 173.401 93.0946 173.066 92.93 172.691C92.7654 172.316 92.6829 171.91 92.688 171.5C92.501 165.325 105.869 152.041 106.434 151.476L107.094 150.826L106.951 151.741C106.361 155.505 106.68 161.217 107.054 167.83C107.753 180.213 108.624 195.628 103.669 205.802C102.518 208.149 101.554 209.266 100.653 209.266ZM106.228 152.538C103.517 155.313 93.1406 166.314 93.2981 171.461C93.2892 171.787 93.351 172.111 93.4792 172.41C93.6075 172.71 93.7991 172.979 94.041 173.197C96.1763 175.067 96.8405 183.367 97.5391 192.154C98.1443 199.731 98.8281 208.321 100.565 208.651C100.919 208.715 101.721 208.395 103.123 205.517C108.009 195.485 107.143 180.159 106.444 167.844C106.1 161.704 105.795 156.337 106.228 152.538Z" fill="#263238"/>
<path d="M179.285 133.676C178.301 146.906 169.903 178.989 177.111 198.192C184.319 217.394 185.8 165.493 192.077 160.962C198.355 156.431 179.285 133.676 179.285 133.676Z" fill="#263238"/>
<path d="M180.092 202.802C178.975 202.802 177.918 201.37 176.771 198.32C171.31 183.776 174.71 162.187 177.185 146.424C177.991 141.317 178.685 136.908 178.921 133.632L178.99 132.736L179.566 133.425C180.181 134.158 194.577 151.442 193.667 158.758C193.624 159.242 193.479 159.712 193.241 160.136C193.004 160.56 192.679 160.929 192.289 161.218C189.78 163.029 187.935 173.582 186.301 182.891C184.156 195.137 182.68 202.566 180.22 202.797L180.092 202.802ZM179.576 134.601C179.285 137.779 178.641 141.868 177.908 146.537C175.448 162.222 172.063 183.703 177.455 198.064C178.798 201.646 179.718 202.113 180.146 202.074C182.247 201.877 184.018 191.742 185.558 182.807C187.374 172.441 189.091 162.635 191.836 160.667C192.147 160.436 192.404 160.14 192.591 159.801C192.778 159.461 192.889 159.085 192.919 158.699C193.716 152.48 182.287 137.947 179.576 134.601Z" fill="#263238"/>
<path d="M178.685 134.64C176.137 177.036 182.621 228.897 185.755 235.421C187.177 238.373 193.519 235.751 196.141 234.875C202.705 235.859 217.46 237.114 230.035 237.114C244.033 237.114 250.965 236.784 249.715 236.022C248.466 235.259 238.439 232.14 238.345 228.533C238.016 215.633 242.69 204.268 243.211 175.56C243.688 148.421 235.324 131.117 229.765 121.769C222.69 109.912 211.561 99.7917 202.867 95.2013C194.173 90.6109 181.381 86.5077 176.215 93.8089C171.507 100.461 165.096 98.1189 159.837 102.434C159.716 102.533 159.63 102.667 159.589 102.818C159.548 102.969 159.555 103.128 159.61 103.275C159.664 103.421 159.762 103.547 159.891 103.636C160.02 103.724 160.173 103.77 160.329 103.767C166.823 103.6 177.706 105.361 182.282 109.715C180.397 115.211 179.536 120.475 178.685 134.64Z" fill="white"/>
<path d="M230.035 237.361C216.992 237.361 202.409 236.057 196.166 235.127L195.3 235.427C192.161 236.529 186.902 238.379 185.534 235.53C182.331 228.874 175.925 176.436 178.439 134.626C179.246 121.145 180.053 115.522 182.001 109.785C177.386 105.539 166.592 103.851 160.353 104.014C160.141 104.03 159.929 103.976 159.75 103.861C159.57 103.746 159.433 103.575 159.359 103.376C159.284 103.176 159.277 102.958 159.337 102.753C159.398 102.549 159.523 102.37 159.694 102.243C161.967 100.378 164.471 99.7285 166.887 99.1037C170.223 98.2378 173.372 97.421 176.028 93.6671C182.208 84.9341 198.232 92.4666 202.995 94.9856C211.054 99.2414 222.527 109.136 229.986 121.642C239.432 137.475 243.841 155.098 243.472 175.565C243.177 191.801 241.563 202.448 240.264 211.019C239.28 217.671 238.463 222.93 238.606 228.529C238.675 231.211 245.002 233.774 248.023 235.009C248.65 235.24 249.263 235.508 249.858 235.811C250.143 235.983 250.133 236.18 250.109 236.278C249.976 236.687 249.789 237.361 230.035 237.361ZM196.122 234.625H196.181C202.375 235.555 216.978 236.864 230.035 236.864C244.382 236.864 248.638 236.505 249.499 236.175C249.199 236.017 248.584 235.767 247.826 235.457C244.451 234.089 238.178 231.521 238.099 228.534C237.956 222.891 238.754 217.617 239.762 210.94C241.061 202.384 242.67 191.752 242.965 175.551C243.334 155.197 238.945 137.667 229.553 121.893C222.139 109.47 210.749 99.6301 202.754 95.4186C198.08 92.9586 182.365 85.5491 176.417 93.9426C173.657 97.8442 170.272 98.7199 167 99.5711C164.629 100.181 162.184 100.816 159.994 102.617C159.911 102.682 159.852 102.772 159.824 102.874C159.797 102.976 159.803 103.084 159.842 103.182C159.877 103.283 159.944 103.37 160.032 103.43C160.121 103.489 160.227 103.518 160.334 103.512C166.73 103.345 177.809 105.101 182.474 109.529L182.587 109.637L182.538 109.785C180.57 115.522 179.763 121.101 178.946 134.646C176.437 176.382 182.808 228.682 185.996 235.304C187.177 237.764 192.368 235.934 195.157 234.955L196.082 234.63L196.122 234.625Z" fill="#263238"/>
<path opacity="0.1" d="M182.287 109.715C180.397 115.211 179.536 120.475 178.685 134.64C178.685 134.64 180.653 141.119 199.753 138.827C218.852 136.534 221.952 123.491 221.952 123.491C221.952 123.491 216.235 102.005 182.287 109.715Z" fill="#263238"/>
<path d="M230.035 237.114C244.033 237.114 250.965 236.784 249.715 236.022C248.466 235.259 238.439 232.14 238.345 228.533C238.016 215.633 242.69 204.268 243.211 175.56C243.688 148.421 235.324 131.117 229.765 121.769C222.69 109.912 211.561 99.7917 202.867 95.2013C194.173 90.6109 181.381 86.5077 176.215 93.8089C171.507 100.461 165.096 98.1189 159.837 102.434C159.716 102.533 159.63 102.667 159.589 102.818C159.548 102.969 159.555 103.128 159.61 103.275C159.664 103.421 159.762 103.547 159.891 103.636C160.02 103.724 160.173 103.77 160.329 103.767C166.823 103.6 177.706 105.361 182.282 109.715C182.282 109.715 185.529 112.249 194.892 110.675C204.348 109.086 213.952 113.42 218.562 121.828C219.538 123.596 220.204 125.518 220.53 127.511C224.274 150.881 239.88 152.436 238.788 174.63C237.696 196.824 228.948 222.821 232.554 229.955C236.161 237.089 230.035 237.114 230.035 237.114Z" fill="#263238"/>
<path d="M230.035 237.36V236.868C230.035 236.868 232.156 236.838 233.041 235.392C233.76 234.216 233.533 232.44 232.333 230.068C230.271 225.999 232.072 216.371 234.355 204.174C236.087 194.895 238.055 184.376 238.537 174.625C239.118 162.846 234.877 156.8 230.385 150.399C226.449 144.814 222.021 138.492 220.279 127.555C219.965 125.59 219.312 123.694 218.35 121.951C213.853 113.755 204.446 109.327 194.936 110.926C185.588 112.5 182.267 110.02 182.144 109.912C177.578 105.573 166.651 103.855 160.348 104.008C160.136 104.024 159.924 103.97 159.745 103.855C159.565 103.74 159.428 103.57 159.354 103.37C159.279 103.17 159.272 102.952 159.332 102.747C159.393 102.543 159.518 102.364 159.689 102.237C161.962 100.372 164.466 99.7227 166.882 99.0978C170.218 98.2319 173.367 97.4152 176.024 93.6612C182.203 84.9282 198.228 92.4608 202.99 94.9798C211.049 99.2356 222.522 109.13 229.981 121.636C239.428 137.469 243.836 155.092 243.467 175.56C243.172 191.796 241.558 202.442 240.259 211.013C239.275 217.665 238.458 222.924 238.601 228.523C238.67 231.205 244.997 233.768 248.018 235.003C248.645 235.234 249.258 235.502 249.853 235.805C250.138 235.977 250.129 236.174 250.104 236.272C249.986 236.681 249.799 237.355 230.045 237.355L230.035 237.36ZM198.803 110.104C202.868 110.071 206.867 111.131 210.382 113.173C213.896 115.214 216.798 118.163 218.783 121.71C219.765 123.503 220.431 125.452 220.751 127.471C222.488 138.295 226.7 144.303 230.773 150.103C235.314 156.578 239.6 162.694 239.014 174.64C238.522 184.425 236.554 194.959 234.822 204.258C232.648 215.879 230.773 225.906 232.756 229.842C234.03 232.361 234.262 234.314 233.445 235.647C233.111 236.177 232.633 236.601 232.067 236.868C244.776 236.833 248.662 236.494 249.484 236.179C249.184 236.021 248.569 235.77 247.811 235.461C244.436 234.093 238.163 231.525 238.084 228.538C237.942 222.895 238.739 217.621 239.747 210.944C241.046 202.388 242.655 191.756 242.95 175.555C243.319 155.201 238.931 137.671 229.538 121.897C222.139 109.469 210.749 99.6292 202.754 95.4177C198.08 92.9577 182.365 85.5482 176.417 93.9417C173.657 97.8432 170.272 98.719 167 99.5702C164.629 100.18 162.184 100.815 159.994 102.616C159.911 102.681 159.852 102.771 159.825 102.873C159.797 102.975 159.803 103.083 159.842 103.181C159.877 103.282 159.944 103.369 160.033 103.429C160.121 103.488 160.227 103.517 160.334 103.511C166.73 103.344 177.81 105.1 182.474 109.528C182.474 109.528 185.765 111.959 194.877 110.424C196.175 110.209 197.488 110.102 198.803 110.104Z" fill="#263238"/>
<path d="M184.574 230.723C182.026 232.76 173.376 233.793 169.75 236.686C169.401 236.962 169.632 237.449 170.105 237.444L187.6 237.144C190.557 237.016 193.461 236.315 196.151 235.082C196.151 235.082 190.173 226.246 184.574 230.723Z" fill="#263238"/>
<path d="M170.09 237.689C169.934 237.693 169.781 237.647 169.653 237.559C169.525 237.471 169.428 237.344 169.376 237.197C169.329 237.069 169.325 236.929 169.365 236.798C169.405 236.668 169.487 236.554 169.598 236.474C171.605 234.87 175.143 233.827 178.257 232.902C180.85 232.135 183.295 231.426 184.422 230.511C185.02 230 185.721 229.624 186.477 229.407C187.234 229.191 188.028 229.139 188.806 229.257C192.904 229.876 196.23 234.718 196.368 234.924L196.53 235.161L196.274 235.284C193.545 236.536 190.6 237.251 187.6 237.389L170.085 237.689H170.09ZM184.574 230.723L184.727 230.915C183.526 231.899 181.037 232.612 178.4 233.375C175.325 234.304 171.856 235.338 169.888 236.897C169.86 236.916 169.838 236.943 169.827 236.975C169.815 237.007 169.814 237.042 169.824 237.074C169.847 237.122 169.885 237.162 169.932 237.187C169.978 237.213 170.032 237.223 170.085 237.217L187.6 236.897C190.423 236.776 193.198 236.126 195.782 234.983C195.054 233.999 192.107 230.275 188.722 229.763C188.011 229.658 187.285 229.706 186.595 229.905C185.904 230.104 185.264 230.448 184.717 230.915L184.574 230.723Z" fill="#263238"/>
<path d="M206.134 236.031C211.216 233.453 212.756 229.807 216.727 231.239C220.697 232.67 221.066 235.253 221.647 237.02C222.227 238.786 218.532 240.095 216.402 240.257C214.272 240.419 212.958 239.357 207.954 240.749C202.951 242.141 199.467 239.406 206.134 236.031Z" fill="#263238"/>
<path d="M205.405 241.37C203.836 241.37 202.64 240.878 202.296 240.012C201.804 238.782 203.177 237.252 206.025 235.811C207.55 235.008 208.991 234.056 210.325 232.967C212.446 231.329 214.119 230.015 216.81 230.999C220.49 232.327 221.194 234.669 221.705 236.376C221.764 236.568 221.819 236.755 221.878 236.932C221.947 237.152 221.964 237.385 221.927 237.612C221.89 237.839 221.801 238.055 221.666 238.241C220.776 239.57 218.006 240.371 216.416 240.494C215.759 240.529 215.1 240.498 214.448 240.401C213.012 240.229 211.383 240.037 208.003 240.977C207.159 241.224 206.285 241.357 205.405 241.37ZM215.019 231.161C213.469 231.161 212.254 232.096 210.626 233.356C209.266 234.465 207.799 235.436 206.247 236.253C203.241 237.774 202.473 239.102 202.759 239.835C203.113 240.75 205.174 241.272 207.885 240.514C211.364 239.53 213.11 239.752 214.517 239.919C215.132 240.016 215.756 240.047 216.377 240.012C217.932 239.894 220.495 239.122 221.258 237.975C221.351 237.851 221.413 237.706 221.44 237.553C221.466 237.4 221.456 237.243 221.41 237.095C221.351 236.913 221.292 236.726 221.233 236.529C220.741 234.832 220.092 232.716 216.643 231.471C216.123 231.275 215.574 231.17 215.019 231.161Z" fill="#263238"/>
<path d="M200.884 108.484C196.732 110.806 201.667 93.9899 209.903 100.642C217.307 106.624 215.172 110.792 210.518 110.305C205.863 109.818 202.852 107.372 200.884 108.484Z" fill="#EDEFF5"/>
<path d="M160.84 102.65C157.037 103.417 178.656 104.8 182.488 102.074C175.93 103.102 167.92 102.581 160.84 102.65Z" fill="#EDEFF5"/>
<path d="M187.531 96.9041C187.531 97.0783 187.48 97.2486 187.383 97.3934C187.286 97.5382 187.149 97.6511 186.988 97.7178C186.827 97.7844 186.65 97.8019 186.479 97.7679C186.308 97.7339 186.151 97.65 186.028 97.5269C185.905 97.4037 185.821 97.2468 185.787 97.0759C185.753 96.9051 185.77 96.728 185.837 96.5671C185.904 96.4062 186.017 96.2686 186.161 96.1719C186.306 96.0751 186.477 96.0234 186.651 96.0234C186.766 96.0234 186.881 96.0462 186.988 96.0905C187.095 96.1347 187.192 96.1996 187.273 96.2814C187.355 96.3632 187.42 96.4602 187.464 96.5671C187.509 96.6739 187.531 96.7885 187.531 96.9041Z" fill="#EDEFF5"/>
<path d="M222.724 134.346C224.785 147.448 217.627 180.333 226.606 198.798C235.585 217.262 232.19 165.43 238.015 160.333C243.841 155.236 222.724 134.346 222.724 134.346Z" fill="#263238"/>
<path d="M229.883 203.097C228.805 203.097 227.654 201.763 226.281 198.939C220.377 186.787 221.406 168.391 222.242 153.606C222.685 145.734 223.074 138.896 222.365 134.418L222.193 133.326L222.98 134.104C223.659 134.773 239.615 150.635 239.393 158.005C239.398 158.494 239.299 158.979 239.102 159.427C238.906 159.875 238.616 160.276 238.252 160.603C235.925 162.64 235.073 173.321 234.316 182.743C233.332 195.097 232.559 202.629 230.114 203.092C230.037 203.1 229.96 203.102 229.883 203.097ZM223.231 135.373C223.723 139.909 223.379 146.32 222.965 153.651C222.134 168.347 221.101 186.639 226.936 198.619C228.609 202.063 229.568 202.437 229.986 202.359C232.062 201.965 232.879 191.712 233.597 182.679C234.434 172.189 235.226 162.28 237.774 160.047C238.063 159.786 238.292 159.465 238.445 159.108C238.599 158.751 238.674 158.364 238.665 157.975C238.852 151.781 226.468 138.684 223.231 135.373Z" fill="#263238"/>
<path d="M177.268 186.098C172.983 185.581 160.998 180.391 155.03 182.871C149.062 185.35 157.785 186.807 160.678 189.449C164.692 193.099 171.354 196.194 171.354 196.194" fill="white"/>
<path d="M171.261 196.415C171.192 196.386 164.515 193.267 160.525 189.631C159.595 188.784 158.041 188.061 156.54 187.358C154.493 186.403 152.727 185.581 152.752 184.519C152.752 183.855 153.46 183.254 154.946 182.639C159.246 180.858 166.587 182.974 171.945 184.519C173.701 185.08 175.493 185.525 177.307 185.852L177.248 186.344C175.416 186.014 173.608 185.562 171.836 184.991C166.547 183.466 159.3 181.38 155.158 183.097C153.608 183.741 153.273 184.228 153.268 184.529C153.268 185.272 155.04 186.108 156.771 186.915C158.306 187.628 159.896 188.366 160.88 189.267C164.816 192.848 171.428 195.938 171.492 195.968L171.261 196.415Z" fill="#263238"/>
<path d="M151.035 240.887C141.195 240.67 140.211 225.91 146.552 215.632C152.894 205.355 165.608 183.106 166.592 178.841C167.576 174.575 169.258 168.327 176.186 167.116C184.628 165.64 190.301 171.667 189.716 179.333C189.386 183.598 187.91 184.169 188.318 187.534C188.727 190.9 188.215 197.286 187.01 201.635C184.304 211.396 192.176 229.763 186.434 240.887C170.036 240.887 157.214 241.025 151.035 240.887Z" fill="white"/>
<path d="M159.33 241.191C155.886 241.191 153.091 241.191 151.03 241.132C149.558 241.136 148.115 240.729 146.863 239.957C145.61 239.185 144.598 238.079 143.94 236.763C141.032 231.415 142.041 222.495 146.346 215.504C152.668 205.251 165.381 182.973 166.351 178.786C167.207 175.072 168.811 168.154 176.141 166.87C180.112 166.176 183.733 167.096 186.331 169.458C188.928 171.819 190.267 175.431 189.957 179.352C189.855 180.792 189.555 182.21 189.066 183.568C188.562 184.815 188.393 186.172 188.574 187.504C189.007 191.057 188.402 197.561 187.256 201.704C186.109 205.846 186.882 211.544 187.698 217.58C188.825 225.944 189.986 234.554 186.66 241L186.591 241.132H186.444C180.338 241.132 174.729 241.132 169.78 241.167C165.873 241.182 162.36 241.191 159.33 241.191ZM178.675 167.141C177.85 167.141 177.027 167.213 176.215 167.357C169.199 168.582 167.649 175.293 166.818 178.894C165.834 183.199 153.263 205.211 146.754 215.76C142.607 222.481 141.578 231.41 144.363 236.527C144.982 237.766 145.935 238.807 147.113 239.534C148.292 240.26 149.65 240.644 151.035 240.64C154.907 240.729 161.46 240.704 169.755 240.675C174.675 240.675 180.225 240.64 186.272 240.64C189.44 234.348 188.299 225.88 187.192 217.644C186.37 211.548 185.593 205.787 186.759 201.571C187.895 197.482 188.491 191.066 188.067 187.563C187.882 186.157 188.061 184.727 188.589 183.411C189.068 182.098 189.364 180.726 189.47 179.332C189.76 175.564 188.486 172.105 186.001 169.842C183.987 168.049 181.37 167.085 178.675 167.141Z" fill="#263238"/>
<path opacity="0.1" d="M189.716 179.333C189.386 183.599 187.91 184.169 188.318 187.535C188.727 190.9 188.215 197.286 187.01 201.635C184.304 211.397 192.176 229.763 186.434 240.887C170.036 240.887 157.214 241.025 151.035 240.887C148.388 235.091 167.822 232.553 167 220.007C166.178 207.461 180.727 201.635 176.653 192.371C172.579 183.107 170.232 174.497 176.653 172.361C183.074 170.226 189.224 174.083 189.716 179.333Z" fill="#263238"/>
<path d="M166.09 237.456C162.562 236.635 161.067 234.618 158.838 236.103C156.609 237.589 155.167 239.764 155.084 240.935C155 242.106 159.069 241.835 160.407 241.614C161.745 241.392 162.375 240.536 165.686 240.63C168.998 240.723 170.715 238.524 166.09 237.456Z" fill="#263238"/>
<path d="M157.75 242.058C156.648 242.058 155.546 241.935 155.084 241.512C154.999 241.44 154.932 241.349 154.89 241.246C154.847 241.144 154.829 241.032 154.838 240.921C154.931 239.652 156.402 237.428 158.7 235.898C160.254 234.865 161.499 235.406 163.079 236.119C164.062 236.584 165.089 236.951 166.144 237.217C168.914 237.856 169.214 238.821 169.145 239.342C169.027 240.277 167.536 240.941 165.676 240.887C164.306 240.78 162.929 240.989 161.652 241.497C161.263 241.657 160.859 241.777 160.446 241.856C159.554 241.989 158.653 242.057 157.75 242.058ZM160.456 235.819C159.925 235.828 159.41 236 158.98 236.311C156.835 237.738 155.418 239.834 155.334 240.956C155.33 240.993 155.336 241.03 155.352 241.064C155.367 241.098 155.392 241.127 155.423 241.148C156.053 241.728 158.98 241.6 160.373 241.374C160.754 241.299 161.126 241.185 161.484 241.035C162.824 240.507 164.265 240.288 165.701 240.395C167.379 240.449 168.589 239.859 168.653 239.278C168.712 238.821 168.058 238.166 166.031 237.694C164.945 237.424 163.888 237.046 162.877 236.567C162.129 236.157 161.305 235.903 160.456 235.819Z" fill="#263238"/>
<path d="M190.951 238.993C187.561 237.699 186.36 235.5 183.949 236.666C181.539 237.832 179.817 239.785 179.566 240.936C179.315 242.088 183.394 242.373 184.747 242.339C186.1 242.304 186.862 241.542 190.114 242.093C193.366 242.644 195.379 240.686 190.951 238.993Z" fill="#263238"/>
<path d="M184.545 242.585C183.428 242.585 180.245 242.417 179.492 241.507C179.418 241.424 179.364 241.325 179.335 241.217C179.306 241.11 179.302 240.997 179.325 240.887C179.595 239.648 181.357 237.645 183.841 236.459C185.519 235.648 186.68 236.366 188.151 237.271C189.063 237.865 190.033 238.366 191.044 238.767C193.701 239.78 193.868 240.774 193.731 241.281C193.48 242.191 191.91 242.644 190.08 242.334C188.737 242.041 187.345 242.062 186.011 242.393C185.603 242.496 185.186 242.56 184.766 242.585H184.545ZM185.268 236.582C184.846 236.587 184.432 236.692 184.058 236.887C181.736 238.009 180.043 239.889 179.807 240.991C179.8 241.027 179.802 241.064 179.813 241.1C179.824 241.135 179.844 241.167 179.871 241.192C180.417 241.852 183.315 242.127 184.742 242.093C185.131 242.071 185.516 242.01 185.893 241.911C187.291 241.57 188.747 241.55 190.154 241.852C191.812 242.132 193.106 241.714 193.243 241.148C193.366 240.705 192.806 239.967 190.862 239.224C189.829 238.807 188.84 238.288 187.91 237.675C186.887 237.055 186.124 236.582 185.268 236.582Z" fill="#263238"/>
<path d="M189.716 179.333C190.301 171.667 184.628 165.64 176.186 167.116C169.258 168.327 167.576 174.575 166.592 178.841C166.562 181.355 167.33 183.485 170.715 184.636C174.1 185.788 175.694 182.723 173.612 180.755C171.531 178.787 171.758 172.828 175.91 170.915C180.063 169.001 186.601 172.779 184.766 177.803C183.836 180.346 181.814 179.716 183.398 181.955C184.983 184.194 188.633 184.1 188.633 184.1C188.633 184.1 192.53 182.068 195.029 182.624C194.488 180.533 189.716 179.333 189.716 179.333Z" fill="#263238"/>
<path d="M172.131 185.138C171.628 185.127 171.13 185.036 170.655 184.867C166.808 183.563 166.341 180.961 166.365 178.835V178.786C167.221 175.072 168.825 168.154 176.156 166.87C180.126 166.176 183.748 167.096 186.345 169.458C188.943 171.819 190.227 175.303 189.986 179.145C190.926 179.406 194.778 180.587 195.295 182.55L195.398 182.939L195.004 182.855C192.608 182.333 188.8 184.301 188.761 184.331L188.712 184.356H188.658C188.5 184.356 184.854 184.429 183.211 182.107C182.193 180.666 182.547 180.218 183.265 179.554C183.846 179.068 184.289 178.439 184.549 177.728C184.885 176.826 184.933 175.842 184.686 174.912C184.44 173.981 183.911 173.15 183.172 172.533C181.204 170.722 178.198 170.132 176.018 171.136C175.119 171.579 174.343 172.237 173.761 173.053C173.178 173.868 172.806 174.815 172.678 175.81C172.363 177.733 172.81 179.647 173.789 180.577C174.768 181.507 175.088 182.899 174.463 183.937C174.215 184.325 173.868 184.64 173.459 184.851C173.049 185.062 172.591 185.161 172.131 185.138ZM166.833 178.87C166.833 180.941 167.28 183.209 170.769 184.4C172.491 184.985 173.573 184.4 174.011 183.682C174.503 182.85 174.276 181.743 173.42 180.931C172.328 179.898 171.821 177.807 172.166 175.731C172.305 174.656 172.709 173.632 173.342 172.752C173.975 171.871 174.817 171.162 175.792 170.688C178.144 169.605 181.376 170.23 183.482 172.164C184.288 172.847 184.863 173.763 185.127 174.785C185.391 175.808 185.332 176.888 184.958 177.876C184.672 178.661 184.185 179.356 183.546 179.893C182.941 180.454 182.739 180.641 183.546 181.802C184.933 183.77 188.067 183.844 188.52 183.844C189.012 183.608 192.19 182.033 194.596 182.289C193.651 180.602 189.642 179.573 189.597 179.559L189.396 179.509V179.303C189.686 175.534 188.412 172.075 185.927 169.812C183.442 167.549 179.969 166.678 176.151 167.352C169.224 168.582 167.669 175.259 166.833 178.87Z" fill="#263238"/>
<path d="M179.433 176.778C179.502 177.546 178.872 177.496 178.105 177.565C177.337 177.634 176.722 177.787 176.658 177.019C176.642 176.837 176.662 176.653 176.718 176.479C176.773 176.305 176.862 176.143 176.979 176.003C177.097 175.863 177.241 175.747 177.403 175.663C177.565 175.578 177.743 175.527 177.925 175.511C178.107 175.495 178.291 175.515 178.465 175.571C178.639 175.626 178.801 175.715 178.941 175.832C179.081 175.95 179.197 176.094 179.281 176.256C179.366 176.418 179.417 176.596 179.433 176.778Z" fill="#263238"/>
<path d="M177.357 177.786C177.142 177.803 176.929 177.742 176.757 177.614C176.675 177.541 176.609 177.452 176.564 177.352C176.519 177.252 176.496 177.143 176.496 177.034C176.475 176.83 176.497 176.624 176.558 176.428C176.62 176.233 176.721 176.052 176.855 175.897C176.985 175.739 177.146 175.609 177.328 175.514C177.509 175.419 177.708 175.362 177.913 175.346C178.116 175.328 178.322 175.35 178.517 175.412C178.712 175.473 178.893 175.572 179.049 175.704C179.205 175.836 179.334 175.997 179.428 176.179C179.522 176.361 179.579 176.559 179.595 176.763C179.614 176.871 179.61 176.982 179.583 177.089C179.557 177.195 179.509 177.296 179.443 177.383C179.135 177.625 178.746 177.741 178.356 177.708L177.864 177.752C177.696 177.767 177.519 177.786 177.357 177.786ZM178.05 175.666H177.937C177.612 175.695 177.312 175.851 177.103 176.101C176.893 176.351 176.792 176.674 176.82 176.999C176.819 177.066 176.831 177.132 176.855 177.193C176.88 177.255 176.916 177.311 176.963 177.358C177.244 177.476 177.555 177.497 177.849 177.417L178.341 177.378C178.729 177.348 179.069 177.324 179.202 177.166C179.24 177.112 179.266 177.05 179.28 176.985C179.293 176.92 179.294 176.853 179.28 176.788C179.255 176.481 179.115 176.196 178.889 175.987C178.663 175.779 178.368 175.662 178.06 175.661L178.05 175.666Z" fill="#263238"/>
<path d="M166.262 184.945C162.139 186.215 149.081 186.338 144.614 191.026C140.147 195.715 148.732 193.511 152.447 194.741C157.613 196.453 164.968 196.552 164.968 196.552" fill="white"/>
<path d="M164.968 196.818C164.894 196.818 157.524 196.675 152.402 194.978C151.207 194.579 149.495 194.55 147.841 194.52C145.583 194.481 143.635 194.442 143.222 193.463C142.966 192.848 143.359 192.021 144.466 190.855C147.674 187.48 155.241 186.427 160.766 185.664C162.597 185.467 164.413 185.15 166.203 184.715L166.351 185.182C164.534 185.633 162.69 185.962 160.83 186.166C155.379 186.919 147.91 187.952 144.821 191.204C143.664 192.424 143.561 193.01 143.674 193.285C143.965 193.969 145.937 194.004 147.851 194.038C149.539 194.068 151.295 194.102 152.555 194.53C157.608 196.208 164.904 196.346 164.978 196.346L164.968 196.818Z" fill="#263238"/>
</svg>
