<svg width="325" height="302" viewBox="0 0 325 302" fill="none" xmlns="http://www.w3.org/2000/svg">
<path d="M152.36 213.58H152.052C151.784 213.497 151.56 213.311 151.428 213.063C151.296 212.816 151.266 212.526 151.345 212.257L158.922 187.644C159.172 186.811 159.087 185.914 158.686 185.143L154.789 177.639C154.724 177.517 154.684 177.383 154.671 177.245C154.659 177.107 154.674 176.968 154.716 176.836C154.758 176.704 154.827 176.582 154.917 176.477C155.007 176.372 155.118 176.287 155.242 176.225C155.488 176.097 155.774 176.071 156.039 176.152C156.303 176.233 156.525 176.416 156.656 176.66L160.553 184.182C160.882 184.803 161.085 185.483 161.151 186.183C161.216 186.883 161.142 187.589 160.933 188.26L153.357 212.801C153.296 213.02 153.166 213.214 152.986 213.354C152.807 213.494 152.588 213.573 152.36 213.58Z" fill="#37474F"/>
<path d="M142.591 219.001H142.41C142.273 218.979 142.142 218.93 142.025 218.856C141.908 218.783 141.806 218.687 141.727 218.574C141.647 218.46 141.592 218.332 141.563 218.197C141.534 218.062 141.532 217.922 141.558 217.786C141.728 216.577 142.188 215.426 142.898 214.432C143.608 213.438 144.547 212.631 145.636 212.077C146.729 211.501 147.931 211.16 149.164 211.075C150.397 210.991 151.634 211.166 152.795 211.588C153.049 211.709 153.244 211.926 153.339 212.19C153.434 212.455 153.421 212.746 153.303 213.001C153.185 213.253 152.972 213.448 152.71 213.544C152.448 213.639 152.16 213.626 151.907 213.509C151.042 213.219 150.126 213.109 149.216 213.183C148.307 213.258 147.422 213.517 146.615 213.944C145.814 214.351 145.123 214.946 144.603 215.679C144.082 216.411 143.746 217.258 143.624 218.149C143.578 218.389 143.449 218.605 143.261 218.76C143.072 218.916 142.835 219.001 142.591 219.001Z" fill="#37474F"/>
<path d="M146.234 222.716C145.98 222.715 145.734 222.623 145.541 222.457C145.349 222.291 145.222 222.062 145.183 221.81C145.011 220.477 145.108 219.122 145.469 217.827C145.83 216.532 146.448 215.322 147.285 214.27C147.879 213.483 148.631 212.827 149.492 212.347C150.353 211.866 151.306 211.571 152.288 211.479C152.567 211.46 152.842 211.552 153.052 211.736C153.263 211.919 153.392 212.179 153.411 212.458C153.431 212.737 153.338 213.012 153.155 213.222C152.971 213.433 152.712 213.562 152.433 213.582C151.742 213.654 151.073 213.871 150.471 214.218C149.869 214.564 149.345 215.033 148.935 215.593C148.281 216.42 147.797 217.367 147.511 218.381C147.225 219.395 147.142 220.456 147.267 221.502C147.288 221.639 147.281 221.779 147.247 221.913C147.214 222.047 147.154 222.174 147.072 222.285C146.989 222.396 146.885 222.49 146.767 222.561C146.648 222.632 146.516 222.678 146.379 222.698L146.234 222.716Z" fill="#37474F"/>
<path d="M151.545 223.35C151.367 223.352 151.192 223.308 151.037 223.222C150.881 223.136 150.75 223.012 150.657 222.861C149.397 220.251 149.083 217.285 149.769 214.469C149.893 213.864 150.147 213.293 150.513 212.796C150.879 212.298 151.349 211.886 151.889 211.587C152.014 211.525 152.15 211.489 152.289 211.481C152.427 211.472 152.567 211.491 152.698 211.536C152.83 211.582 152.951 211.653 153.055 211.746C153.158 211.838 153.243 211.951 153.303 212.076C153.364 212.2 153.4 212.334 153.408 212.472C153.417 212.609 153.398 212.747 153.352 212.877C153.307 213.007 153.236 213.127 153.143 213.229C153.05 213.331 152.938 213.414 152.813 213.472C152.548 213.65 152.321 213.88 152.147 214.148C151.973 214.416 151.854 214.716 151.799 215.031C151.293 217.269 151.509 219.61 152.415 221.719C152.492 221.835 152.546 221.966 152.572 222.103C152.598 222.24 152.597 222.381 152.569 222.518C152.54 222.654 152.484 222.784 152.405 222.899C152.326 223.014 152.224 223.112 152.107 223.187C151.937 223.291 151.743 223.347 151.545 223.35Z" fill="#37474F"/>
<path d="M155.55 216.082C155.412 216.073 155.277 216.037 155.153 215.975C155.029 215.914 154.918 215.828 154.827 215.724C154.736 215.619 154.667 215.498 154.623 215.367C154.579 215.235 154.562 215.097 154.571 214.958C154.588 214.794 154.566 214.628 154.506 214.473C154.446 214.319 154.35 214.181 154.227 214.07C153.765 213.692 153.173 213.51 152.578 213.563C152.435 213.601 152.285 213.609 152.139 213.585C151.993 213.562 151.853 213.507 151.73 213.426C151.606 213.345 151.501 213.238 151.421 213.114C151.341 212.989 151.289 212.849 151.267 212.702C151.245 212.556 151.254 212.406 151.294 212.264C151.334 212.121 151.404 211.989 151.498 211.875C151.593 211.761 151.711 211.669 151.844 211.603C151.976 211.538 152.122 211.502 152.27 211.497C152.876 211.416 153.492 211.466 154.077 211.644C154.662 211.822 155.201 212.124 155.659 212.53C156.012 212.854 156.286 213.254 156.462 213.7C156.638 214.146 156.71 214.626 156.674 215.103C156.665 215.242 156.628 215.377 156.567 215.501C156.505 215.625 156.42 215.735 156.315 215.826C156.211 215.917 156.09 215.987 155.958 216.031C155.827 216.075 155.688 216.092 155.55 216.082Z" fill="#37474F"/>
<path d="M127.203 199.045C127.101 199.063 126.997 199.063 126.895 199.045C126.627 198.961 126.403 198.775 126.271 198.528C126.138 198.28 126.109 197.991 126.188 197.722L133.764 173.144C133.893 172.736 133.938 172.305 133.898 171.879C133.857 171.453 133.732 171.039 133.529 170.661L129.578 163.14C129.451 162.892 129.427 162.604 129.512 162.339C129.597 162.074 129.783 161.853 130.031 161.726C130.153 161.66 130.287 161.62 130.425 161.608C130.563 161.595 130.702 161.611 130.833 161.653C130.965 161.695 131.087 161.763 131.192 161.854C131.297 161.944 131.383 162.055 131.444 162.179L135.359 169.683C136.007 170.943 136.137 172.406 135.722 173.761L128.146 198.302C128.086 198.508 127.962 198.691 127.793 198.824C127.624 198.957 127.418 199.034 127.203 199.045Z" fill="#37474F"/>
<path d="M117.434 204.463H117.253C117.116 204.441 116.985 204.392 116.868 204.318C116.75 204.245 116.649 204.149 116.57 204.036C116.49 203.922 116.434 203.794 116.405 203.659C116.376 203.524 116.375 203.384 116.401 203.248C116.576 202.038 117.04 200.888 117.753 199.894C118.465 198.9 119.407 198.093 120.497 197.539C121.592 196.966 122.794 196.628 124.027 196.546C125.26 196.465 126.496 196.643 127.656 197.068C127.909 197.188 128.103 197.403 128.196 197.667C128.29 197.93 128.275 198.22 128.155 198.472C128.034 198.725 127.819 198.919 127.556 199.012C127.292 199.106 127.002 199.091 126.75 198.971C125.884 198.681 124.969 198.571 124.059 198.645C123.149 198.72 122.264 198.979 121.458 199.406C120.658 199.816 119.97 200.412 119.449 201.143C118.929 201.875 118.592 202.721 118.467 203.611C118.424 203.852 118.296 204.071 118.107 204.227C117.918 204.383 117.679 204.466 117.434 204.463Z" fill="#37474F"/>
<path d="M121.077 208.181C120.827 208.18 120.586 208.09 120.397 207.927C120.208 207.764 120.082 207.54 120.044 207.293C119.864 205.958 119.956 204.6 120.315 203.301C120.673 202.003 121.29 200.79 122.128 199.735C122.722 198.947 123.473 198.292 124.335 197.812C125.196 197.331 126.148 197.035 127.13 196.944C127.409 196.925 127.684 197.017 127.895 197.201C128.106 197.384 128.235 197.644 128.254 197.923C128.273 198.201 128.181 198.476 127.998 198.687C127.814 198.898 127.554 199.027 127.275 199.046C126.584 199.119 125.916 199.336 125.314 199.682C124.711 200.029 124.188 200.498 123.777 201.058C122.463 202.73 121.863 204.854 122.11 206.967C122.133 207.103 122.129 207.242 122.097 207.376C122.066 207.51 122.008 207.637 121.927 207.748C121.846 207.86 121.743 207.954 121.625 208.025C121.507 208.096 121.376 208.143 121.24 208.163L121.077 208.181Z" fill="#37474F"/>
<path d="M126.388 208.814C126.212 208.816 126.039 208.773 125.884 208.691C125.728 208.609 125.596 208.489 125.5 208.342C124.24 205.726 123.926 202.754 124.611 199.933C124.74 199.327 124.998 198.756 125.367 198.259C125.736 197.761 126.208 197.349 126.75 197.051C127 196.932 127.287 196.917 127.549 197.008C127.81 197.1 128.024 197.291 128.146 197.54C128.207 197.665 128.244 197.801 128.252 197.94C128.261 198.078 128.242 198.218 128.196 198.349C128.151 198.481 128.08 198.602 127.987 198.706C127.894 198.809 127.782 198.894 127.656 198.954C127.394 199.131 127.169 199.358 126.994 199.622C126.82 199.887 126.7 200.183 126.641 200.494C126.132 202.739 126.348 205.087 127.258 207.201C127.335 207.315 127.388 207.444 127.414 207.58C127.44 207.716 127.439 207.856 127.41 207.991C127.381 208.126 127.326 208.254 127.247 208.367C127.168 208.481 127.067 208.577 126.95 208.651C126.782 208.759 126.587 208.816 126.388 208.814Z" fill="#37474F"/>
<path d="M130.411 201.564H130.321C130.183 201.555 130.049 201.519 129.926 201.457C129.803 201.395 129.693 201.309 129.604 201.205C129.514 201.1 129.446 200.978 129.405 200.847C129.363 200.716 129.348 200.578 129.36 200.44C129.374 200.277 129.349 200.112 129.286 199.961C129.223 199.809 129.124 199.675 128.998 199.57C128.772 199.378 128.509 199.233 128.225 199.146C127.942 199.059 127.643 199.031 127.348 199.063C127.211 199.083 127.072 199.076 126.938 199.043C126.803 199.009 126.677 198.949 126.566 198.867C126.455 198.784 126.361 198.681 126.29 198.562C126.219 198.443 126.172 198.312 126.152 198.175C126.132 198.038 126.139 197.899 126.172 197.764C126.206 197.63 126.266 197.504 126.348 197.393C126.431 197.282 126.534 197.188 126.653 197.117C126.772 197.046 126.903 196.999 127.04 196.979C127.647 196.897 128.265 196.949 128.851 197.131C129.436 197.312 129.975 197.619 130.429 198.03C130.783 198.354 131.058 198.753 131.234 199.199C131.41 199.645 131.482 200.126 131.444 200.604C131.422 200.863 131.304 201.105 131.113 201.283C130.922 201.46 130.672 201.561 130.411 201.564Z" fill="#37474F"/>
<path d="M209.417 140.521C209.417 140.521 247.352 134.34 257.756 132.473C268.159 130.606 274.648 128.848 274.648 128.848C274.648 128.848 272.111 120.33 261.743 114.222C262.432 113.279 262.069 110.343 256.125 105.703C249.636 100.628 243.437 98.6886 242.042 101.48C241.733 99.9573 234.792 96.713 231.457 95.7886C228.122 94.8642 204.034 127.833 204.034 127.833L209.417 140.521Z" fill="#E0E0E0"/>
<path opacity="0.25" d="M209.417 140.521C209.417 140.521 247.352 134.34 257.756 132.473C268.159 130.606 274.648 128.848 274.648 128.848C274.648 128.848 272.111 120.33 261.743 114.222C262.432 113.279 262.069 110.343 256.125 105.703C249.636 100.628 243.437 98.6886 242.042 101.48C241.733 99.9573 234.792 96.713 231.457 95.7886C228.122 94.8642 204.034 127.833 204.034 127.833L209.417 140.521Z" fill="black"/>
<path d="M261.743 114.238C262.432 113.296 262.07 110.36 256.125 105.72C249.636 100.645 243.437 98.7055 242.042 101.497C241.734 99.9742 234.792 96.7299 231.457 95.8055C230.605 95.5699 228.412 97.618 225.603 100.609C230.913 101.406 236.477 104.433 236.749 106.046C243.02 104.904 253.986 113.912 255.472 117.863C259.097 117.863 266.655 127.198 267.616 130.551C272.093 129.572 274.648 128.865 274.648 128.865C274.648 128.865 272.111 120.346 261.743 114.238Z" fill="#263238"/>
<path opacity="0.25" d="M209.417 140.52C209.417 140.52 247.352 134.339 257.756 132.472C268.16 130.605 274.648 128.847 274.648 128.847C274.648 128.847 272.111 120.329 261.744 114.221C257.52 118.353 219.477 132.001 207.587 136.206L209.417 140.52Z" fill="black"/>
<path opacity="0.25" d="M205.937 132.327C211.375 127.705 236.985 105.738 242.042 101.515C241.733 99.9925 234.792 96.7482 231.457 95.8238C228.122 94.8994 204.034 127.832 204.034 127.832L205.937 132.327Z" fill="black"/>
<path d="M186.598 108.039C168.328 100.3 141.648 98.2521 131.625 102.022C121.602 105.792 119.21 112.625 122.799 118.099C126.387 123.572 186.598 108.039 186.598 108.039Z" fill="#E0E0E0"/>
<path opacity="0.25" d="M186.598 108.039C168.328 100.3 141.648 98.2521 131.625 102.022C121.602 105.792 119.21 112.625 122.799 118.099C126.387 123.572 186.598 108.039 186.598 108.039Z" fill="black"/>
<path d="M126.732 110.994C115.857 110.069 111.163 103.653 106.631 98.3062C101.738 92.5062 96.3909 81.8307 86.9661 79.112C83.0102 77.8433 78.7866 77.6584 74.735 78.5765C70.6834 79.4945 66.952 81.482 63.9295 84.332C57.5314 89.9144 55.5558 99.738 58.492 102.602L69.8744 114.274C74.2921 118.913 78.2497 123.969 81.6917 129.372C87.0385 138.779 89.4673 147.352 94.2341 157.375C98.2406 165.994 104.535 173.348 112.432 178.637C120.329 183.926 129.525 186.947 139.02 187.371C162.691 188.604 175.379 180.321 175.379 180.321C190.899 171.285 202.899 157.254 209.417 140.519C219.603 113.187 202.167 111.084 191.093 108.782C180.019 106.48 167.966 106.662 154.354 107.622C140.742 108.583 134.725 111.664 126.732 110.994Z" fill="#E0E0E0"/>
<path opacity="0.15" d="M126.732 110.994C115.857 110.069 111.163 103.653 106.631 98.3062C101.738 92.5062 96.3909 81.8307 86.9661 79.112C83.0102 77.8433 78.7866 77.6584 74.735 78.5765C70.6834 79.4945 66.952 81.482 63.9295 84.332C57.5314 89.9144 55.5558 99.738 58.492 102.602L69.8744 114.274C74.2921 118.913 78.2497 123.969 81.6917 129.372C87.0385 138.779 89.4673 147.352 94.2341 157.375C98.2406 165.994 104.535 173.348 112.432 178.637C120.329 183.926 129.525 186.947 139.02 187.371C162.691 188.604 175.379 180.321 175.379 180.321C190.899 171.285 202.899 157.254 209.417 140.519C219.603 113.187 202.167 111.084 191.093 108.782C180.019 106.48 167.966 106.662 154.354 107.622C140.742 108.583 134.725 111.664 126.732 110.994Z" fill="black"/>
<path d="M123.596 161.073C115.821 173.144 104.33 171.332 103.877 171.332C101.538 168.936 99.4605 166.299 97.678 163.466C97.3698 162.995 97.0799 162.523 96.808 162.034C96.5361 161.545 96.228 161.055 95.9561 160.566C95.3761 159.533 94.8143 158.463 94.3068 157.358C89.5399 147.335 87.0569 138.762 81.7463 129.373C80.0596 126.541 78.1633 123.839 76.0732 121.289C73.7305 118.7 70.711 116.817 67.3552 115.852L58.5647 102.567C55.556 99.7028 57.5316 89.8792 64.0022 84.2967C67.0272 81.4511 70.7611 79.4704 74.8136 78.5617C78.8661 77.653 83.0883 77.8497 87.0387 79.1312C96.4636 81.8318 101.829 92.5073 106.704 98.3072C111.235 103.654 115.767 110.07 126.804 110.995H127.983C128.998 110.995 129.994 110.995 130.955 110.995C136.084 126.02 131.517 148.785 123.596 161.073Z" fill="#455A64"/>
<path d="M123.596 161.074C115.821 173.145 104.33 171.333 103.876 171.333C101.538 168.937 99.4603 166.3 97.6778 163.467C97.3697 162.996 97.0797 162.524 96.8078 162.035C96.5359 161.546 96.2278 161.056 95.9559 160.567C98.4934 162.851 110.456 164.319 119.409 151.305C128.363 138.291 129.034 113.569 126.659 111.014H127.837H128.997C129.614 111.014 130.212 111.014 130.81 111.014C136.084 126.021 131.517 148.786 123.596 161.074Z" fill="white"/>
<path d="M73.8257 99.8496L73.735 99.7409C73.6896 99.5748 73.6896 99.3995 73.735 99.2334C73.7396 98.7775 73.782 98.3229 73.8619 97.874C73.9691 97.439 74.1667 97.0314 74.4419 96.6778C74.948 96.156 75.6366 95.8506 76.3631 95.8259C76.9037 95.7707 77.4491 95.8648 77.94 96.0978C78.4475 96.3334 78.7193 96.8228 79.1 97.2034C79.4806 97.5841 79.7887 97.9465 79.5712 98.4903L79.39 98.8709C79.3797 98.9915 79.3797 99.1128 79.39 99.2334C79.3371 99.6431 79.2014 100.038 78.9912 100.393C78.7351 100.769 78.3834 101.069 77.9724 101.264C77.5614 101.458 77.106 101.539 76.6531 101.499C76.2778 101.506 75.9054 101.432 75.5613 101.282C75.2173 101.131 74.9096 100.909 74.6594 100.629C74.5122 100.434 74.3549 100.246 74.1882 100.067C74.0618 100.004 73.9406 99.9315 73.8257 99.8496Z" fill="white"/>
<path d="M76.653 100.21C77.4839 100.21 78.1574 99.5363 78.1574 98.7055C78.1574 97.8747 77.4839 97.2012 76.653 97.2012C75.8222 97.2012 75.1487 97.8747 75.1487 98.7055C75.1487 99.5363 75.8222 100.21 76.653 100.21Z" fill="#37474F"/>
<path d="M78.1575 97.7812C78.1575 97.935 78.0964 98.0825 77.9877 98.1913C77.8789 98.3 77.7314 98.3612 77.5775 98.3612C77.4237 98.3612 77.2762 98.3 77.1674 98.1913C77.0587 98.0825 76.9976 97.935 76.9976 97.7812C76.9976 97.6273 77.0587 97.4798 77.1674 97.371C77.2762 97.2623 77.4237 97.2012 77.5775 97.2012C77.7314 97.2012 77.8789 97.2623 77.9877 97.371C78.0964 97.4798 78.1575 97.6273 78.1575 97.7812Z" fill="#FAFAFA"/>
<path d="M197.364 166.184C208.837 158.644 216.866 141.788 220.926 131.53C224.986 121.271 226.092 116.033 222.322 116.812C230.116 102.313 230.152 96.9658 226.563 98.3614C232.001 83.0279 233.813 78.9861 227.542 82.6473C221.271 86.3085 211.103 97.3283 191.165 108.838C171.228 120.347 176.956 170.426 197.364 166.184Z" fill="#455A64"/>
<path d="M197.364 166.184C199.16 164.983 200.84 163.617 202.385 162.106C201.813 160.963 200.981 159.97 199.956 159.206C200.621 158.545 201.148 157.758 201.508 156.892C201.868 156.025 202.053 155.097 202.053 154.159C202.053 153.221 201.868 152.292 201.508 151.426C201.148 150.559 200.621 149.773 199.956 149.111C201.141 148.139 202.107 146.928 202.791 145.557C203.475 144.185 203.862 142.685 203.925 141.154C204.016 138.925 202.892 136.242 200.681 136.061C202.443 134.681 203.646 132.712 204.07 130.515C204.252 128.304 202.258 125.857 200.155 126.401C201.024 125.416 201.687 124.267 202.104 123.022C202.521 121.776 202.684 120.46 202.584 119.151C202.418 117.849 201.787 116.652 200.808 115.78C199.829 114.907 198.567 114.418 197.255 114.402C197.932 113.365 198.319 112.167 198.376 110.93C198.434 109.694 198.159 108.464 197.582 107.37C197.247 106.758 196.812 106.206 196.295 105.738C194.646 106.771 192.942 107.805 191.129 108.856C171.156 120.347 176.956 170.426 197.364 166.184Z" fill="#263238"/>
<path d="M167.803 118.065C173.494 115.364 187.432 106.719 191.093 108.839C194.754 110.96 192.76 115.6 191.093 117.738C199.847 117.738 197.165 124.807 192.706 129.52C200.989 128.65 198.27 134.83 194.736 138.364C202.203 138.364 199.104 148.387 193.503 151.614C200.627 149.602 197.69 157.83 193.159 161.582C202.312 160.64 197.944 175.031 175.451 180.287C165.827 175.738 159.284 138.074 167.803 118.065Z" fill="#E0E0E0"/>
<path opacity="0.25" d="M167.803 118.065C173.494 115.364 187.432 106.719 191.093 108.839C194.754 110.96 192.76 115.6 191.093 117.738C199.847 117.738 197.165 124.807 192.706 129.52C200.989 128.65 198.27 134.83 194.736 138.364C202.203 138.364 199.104 148.387 193.503 151.614C200.627 149.602 197.69 157.83 193.159 161.582C202.312 160.64 197.944 175.031 175.451 180.287C165.827 175.738 159.284 138.074 167.803 118.065Z" fill="black"/>
<path d="M184.369 176.261C185.637 173.143 185.057 168.92 182.049 167.416C184.03 165.56 185.466 163.197 186.199 160.583C186.67 157.918 185.112 154.71 182.429 154.438C183.9 153.4 185.149 152.078 186.102 150.549C187.054 149.021 187.691 147.317 187.975 145.539C188.272 143.944 188.083 142.295 187.432 140.809C187.092 140.074 186.562 139.444 185.895 138.985C185.229 138.526 184.451 138.254 183.644 138.199C184.694 137.478 185.56 136.52 186.171 135.402C186.782 134.284 187.121 133.038 187.16 131.764C187.154 130.49 186.7 129.259 185.879 128.285C185.057 127.311 183.92 126.657 182.665 126.436C183.757 125.25 184.397 123.718 184.473 122.107C184.55 120.497 184.057 118.911 183.082 117.627C182.213 116.539 181.131 115.639 179.904 114.982C178.676 114.324 177.328 113.923 175.941 113.803C172.751 115.47 169.778 117.138 167.803 118.062C159.284 137.999 165.827 175.735 175.451 180.284C178.256 179.645 181.002 178.772 183.662 177.674C183.933 177.222 184.17 176.749 184.369 176.261Z" fill="#263238"/>
<path d="M147.702 128.666C137.661 136.713 126.079 154.766 139.601 170.806C149.605 182.696 167.821 183.367 175.415 180.285C183.009 177.204 183.281 170.317 176.249 170.806C185.891 163.719 182.574 155.472 176.774 157.013C185.674 148.041 185.42 139.523 178.587 141.208C184.55 133.342 181.741 127.288 177.663 129.355C182.429 118.879 176.213 115.217 167.694 118.063C160.418 120.297 153.633 123.895 147.702 128.666Z" fill="#E0E0E0"/>
<path opacity="0.25" d="M148.971 129.644C139.582 138.435 129.451 153.841 139.637 170.751C149.642 182.641 167.857 183.312 175.451 180.231C183.046 177.149 183.317 170.262 176.285 170.751C185.927 163.665 182.611 155.418 176.811 156.958C185.71 147.987 185.456 139.468 178.623 141.154C184.586 133.287 181.777 127.234 177.699 129.3C182.466 118.824 176.249 115.163 167.73 118.008C160.847 120.765 154.499 124.703 148.971 129.644Z" fill="black"/>
<path d="M53.7976 119.568C57.1144 119.659 63.7481 117.121 67.3549 115.853C70.9618 114.584 72.3211 112.481 72.1218 109.165C68.7324 107.551 55.6463 114.674 53.7976 119.568Z" fill="#37474F"/>
<path d="M61.5733 100.211C60.0871 100.628 55.4834 105.086 52.7646 111.503C51.327 114.77 50.7529 118.353 51.0972 121.906C54.2634 119.006 57.6712 116.38 61.2833 114.058C68.5332 109.763 73.3182 109.328 73.7713 107.932C74.4781 105.739 70.8351 105.431 68.062 102.785C66.322 101.135 63.712 99.6128 61.5733 100.211Z" fill="#455A64"/>
<path d="M68.062 102.785C66.2495 101.135 63.712 99.6128 61.5733 100.211C60.4677 100.537 57.5677 103.147 55.0303 107.153C56.6071 106.518 58.039 106.156 59.2896 107.95C60.5402 109.745 64.5095 108.077 67.3732 107.298C70.237 106.518 72.8107 106.21 73.7713 107.932C74.4782 105.739 70.8351 105.431 68.062 102.785Z" fill="#FAFAFA"/>
</svg>
