<svg width="1000" height="1000" viewBox="0 0 1000 1000" fill="none" xmlns="http://www.w3.org/2000/svg">
<path d="M556.961 227.118L556.865 227.094C527.389 219.768 494.84 219.699 459.045 227.209C420.605 235.282 389.085 250.099 364.128 271.404C338.75 293.115 321.462 317.126 311.819 343.389C302.034 370.036 299.709 394.31 304.251 416.464C305.435 421.321 307.564 425.898 310.517 429.932C313.499 434.006 317.261 437.447 321.585 440.053L321.839 440.206L322.084 440.375C326.656 443.537 331.837 445.709 337.297 446.754C342.756 447.798 348.374 447.691 353.79 446.44L353.871 446.421L353.953 446.404C364.012 444.265 371.271 439.657 376.421 432.774C381.706 425.712 385.327 415.501 386.533 401.344L386.545 401.197L386.562 401.051C390.09 370.778 397.193 346.065 408.416 327.552C420.545 307.544 442.572 295.168 472.004 288.988L472.017 288.985L472.03 288.983C497.766 283.655 521.217 286.748 541.7 298.96C551.482 304.567 559.944 312.214 566.508 321.382C573.07 330.545 577.583 341.012 579.741 352.073C582.274 363.782 581.713 375.95 578.113 387.378C574.772 398.154 569.937 408.409 563.75 417.843C557.842 426.925 548.123 440.357 534.847 458.041L534.807 458.094L534.767 458.147C522.228 474.374 510.515 491.223 499.672 508.63C482.046 537.787 476.703 572.747 484.818 605.839L484.855 605.993L484.888 606.148C488.139 621.622 494.313 630.823 502.248 635.785L502.253 635.788C506.519 638.459 511.271 640.257 516.236 641.08C521.201 641.903 526.279 641.733 531.178 640.581L531.292 640.554L531.406 640.53C542.494 638.208 549.668 633.726 554.136 627.801C558.655 621.807 561.298 613.152 560.987 600.822L560.982 600.636L560.984 600.451C561.166 587.359 561.449 578.011 561.82 572.45L561.822 572.426L561.824 572.403C562.261 566.303 563.315 560.263 564.969 554.375L564.989 554.307L565.009 554.239C567.183 546.922 570.233 539.894 574.092 533.308C574.095 533.302 574.099 533.295 574.103 533.289L582.298 538.094C587.338 529.411 592.835 521.001 598.766 512.901L556.961 227.118ZM556.961 227.118L557.057 227.14C584.42 233.34 609.545 246.964 629.669 266.513L556.961 227.118ZM567.053 788.666L566.938 788.688L566.825 788.714C554.208 791.54 540.99 789.553 529.763 783.141L529.719 783.117L529.676 783.093C518.845 777.057 511.479 766.811 508.116 750.891L508.102 750.822L508.086 750.754C506.674 744.522 506.57 738.064 507.781 731.79C508.992 725.515 511.491 719.56 515.121 714.301L515.176 714.222L515.228 714.142C518.821 708.706 523.472 704.05 528.904 700.451C534.336 696.852 540.438 694.385 546.845 693.196L547.026 693.163L547.205 693.122C553.446 691.713 559.906 691.571 566.202 692.707C572.498 693.843 578.501 696.232 583.856 699.733C589.211 703.234 593.807 707.776 597.373 713.088C600.938 718.4 603.399 724.374 604.611 730.656L604.625 730.73L604.64 730.803C607.913 746.44 605.363 758.739 597.957 768.744L597.92 768.794L597.883 768.846C590.487 779.119 579.469 786.202 567.053 788.666Z" fill="#52D8F5" stroke="#363A5A" stroke-width="19"/>
</svg>
