<svg width="1000" height="1000" viewBox="0 0 1000 1000" fill="none" xmlns="http://www.w3.org/2000/svg">
<path d="M218.069 639.174C213.139 599.507 215.833 558.82 226.522 518.927C248.207 437.999 300.153 370.326 372.619 328.487C445.231 286.565 529.666 275.498 610.594 297.183C691.522 318.868 759.196 370.814 801.035 443.281C822.372 480.238 835.68 520.19 840.845 561.268L877.866 556.609C872.151 510.728 857.203 465.926 833.355 424.621C786.496 343.458 710.802 285.32 620.273 261.063C529.743 236.805 435.153 249.193 353.96 296.167C272.797 343.026 214.659 418.719 190.402 509.249C178.457 553.828 175.452 599.332 180.964 643.688L218.069 639.174Z" fill="#F5DA8D"/>
<path d="M218.069 639.174C213.139 599.507 215.833 558.82 226.522 518.927C248.207 437.999 300.153 370.326 372.62 328.487C445.231 286.565 529.666 275.498 610.594 297.183C691.522 318.868 759.196 370.814 801.035 443.281C822.372 480.238 835.68 520.19 840.845 561.268L877.866 556.609C872.151 510.728 857.203 465.926 833.355 424.621C786.496 343.458 710.802 285.32 620.273 261.063C529.743 236.805 435.153 249.193 353.96 296.167C272.797 343.026 214.659 418.719 190.402 509.249C178.457 553.828 175.452 599.332 180.964 643.688L218.069 639.174Z" stroke="#3D0938" stroke-width="4" stroke-miterlimit="10" stroke-linecap="round" stroke-linejoin="round"/>
<path d="M255.061 634.63C250.712 599.651 253.095 563.781 262.498 528.69C281.61 457.363 327.334 397.823 391.28 360.807C455.195 323.906 529.735 314.108 601.061 333.22C672.388 352.332 731.928 398.056 768.944 462.002C787.771 494.612 799.521 529.858 803.937 565.958L840.959 561.299C835.794 520.221 822.518 480.155 801.149 443.311C759.227 370.7 691.637 318.898 610.709 297.214C529.781 275.529 445.201 286.679 372.734 328.518C300.123 370.44 248.321 438.03 226.637 518.958C215.978 558.736 213.284 599.423 218.184 639.205L255.061 634.63Z" fill="#E38980"/>
<path d="M255.061 634.63C250.712 599.651 253.095 563.781 262.498 528.69C281.61 457.363 327.334 397.823 391.28 360.807C455.195 323.906 529.735 314.108 601.061 333.22C672.388 352.332 731.928 398.056 768.944 462.002C787.771 494.612 799.521 529.858 803.937 565.958L840.959 561.299C835.794 520.221 822.518 480.155 801.149 443.311C759.227 370.7 691.637 318.898 610.709 297.214C529.781 275.529 445.201 286.679 372.734 328.518C300.123 370.44 248.321 438.03 226.637 518.958C215.978 558.736 213.284 599.423 218.184 639.205L255.061 634.63Z" stroke="#3D0938" stroke-width="4" stroke-miterlimit="10" stroke-linecap="round" stroke-linejoin="round"/>
<path d="M292.083 629.971C288.315 599.681 290.388 568.628 298.504 538.337C315.043 476.612 354.576 425.092 409.94 393.127C465.304 361.162 529.689 352.687 591.414 369.226C653.138 385.765 704.659 425.297 736.624 480.662C752.857 508.779 763.05 539.32 766.916 570.616L803.937 565.957C799.438 529.713 787.687 494.467 768.944 462.002C732.042 398.086 672.388 352.332 601.061 333.22C529.735 314.108 455.31 323.936 391.28 360.807C327.365 397.709 281.61 457.363 262.498 528.689C253.095 563.781 250.712 599.651 255.061 634.629L292.083 629.971Z" fill="#CC5F7E"/>
<path d="M292.083 629.971C288.315 599.681 290.388 568.628 298.504 538.337C315.043 476.612 354.576 425.092 409.94 393.127C465.304 361.162 529.689 352.687 591.414 369.226C653.138 385.765 704.659 425.297 736.624 480.662C752.857 508.779 763.05 539.32 766.916 570.616L803.937 565.957C799.438 529.713 787.687 494.467 768.944 462.002C732.042 398.086 672.388 352.332 601.061 333.22C529.735 314.108 455.31 323.936 391.28 360.807C327.365 397.709 281.61 457.363 262.498 528.689C253.095 563.781 250.712 599.651 255.061 634.629L292.083 629.971Z" stroke="#3D0938" stroke-width="4" stroke-miterlimit="10" stroke-linecap="round" stroke-linejoin="round"/>
<path d="M366.096 620.767C363.514 600.228 364.82 578.894 370.517 557.633C394.039 469.847 484.332 417.716 572.118 441.238C638.758 459.094 684.801 515.413 692.872 579.934L729.894 575.276C726.58 548.782 718.027 523.091 704.304 499.322C677.36 452.654 633.775 419.168 581.766 405.232C529.643 391.266 475.299 398.389 428.6 425.447C381.932 452.391 348.446 495.977 334.51 547.985C327.65 573.59 325.888 599.825 329.074 625.426L366.096 620.767Z" fill="#36C2E3"/>
<path d="M366.096 620.767C363.514 600.228 364.82 578.894 370.517 557.633C394.039 469.847 484.332 417.716 572.118 441.238C638.758 459.094 684.801 515.413 692.872 579.934L729.894 575.276C726.58 548.782 718.027 523.091 704.304 499.322C677.36 452.654 633.775 419.168 581.766 405.232C529.643 391.266 475.299 398.389 428.6 425.447C381.932 452.391 348.446 495.977 334.51 547.985C327.65 573.59 325.888 599.825 329.074 625.426L366.096 620.767Z" stroke="#3D0938" stroke-width="4" stroke-miterlimit="10" stroke-linecap="round" stroke-linejoin="round"/>
<path d="M329.104 625.312C325.918 599.71 327.649 573.589 334.541 547.871C348.507 495.748 381.848 452.246 428.63 425.333C475.299 398.389 529.787 391.182 581.796 405.118C633.919 419.084 677.421 452.425 704.334 499.207C718.057 522.976 726.579 548.782 729.924 575.161L766.946 570.502C763.081 539.206 752.888 508.664 736.654 480.547C704.69 425.183 653.169 385.651 591.444 369.111C529.719 352.572 465.335 361.048 409.97 393.013C354.606 424.977 315.074 476.498 298.535 538.223C290.387 568.628 288.346 599.566 292.113 629.856L329.104 625.312Z" fill="#6D4F8D"/>
<path d="M329.104 625.312C325.918 599.71 327.649 573.589 334.541 547.871C348.507 495.748 381.848 452.246 428.63 425.333C475.299 398.389 529.787 391.182 581.796 405.118C633.919 419.084 677.421 452.425 704.334 499.207C718.057 522.976 726.579 548.782 729.924 575.161L766.946 570.502C763.081 539.206 752.888 508.664 736.654 480.547C704.69 425.183 653.169 385.651 591.444 369.111C529.719 352.572 465.335 361.048 409.97 393.013C354.606 424.977 315.074 476.498 298.535 538.223C290.388 568.628 288.346 599.566 292.113 629.856L329.104 625.312Z" stroke="#3D0938" stroke-width="4" stroke-miterlimit="10" stroke-linecap="round" stroke-linejoin="round"/>
<path d="M338.314 584.533L371.92 593.537" stroke="#3D0938" stroke-width="6" stroke-miterlimit="10" stroke-linecap="round" stroke-linejoin="round"/>
<path d="M364.035 591.424L397.527 600.398" stroke="#3D0938" stroke-width="6" stroke-miterlimit="10" stroke-linecap="round" stroke-linejoin="round"/>
<path opacity="0.43" d="M877.949 556.753L840.927 561.412L729.893 575.275L692.871 579.934C688.522 544.955 672.995 512.372 649.021 487.081C659.261 479.044 671.921 473.86 685.613 472.139C695.769 470.817 706.493 471.485 717.123 474.334C722.724 475.835 728.058 477.876 733.124 480.459C733.795 479.781 734.498 478.989 735.169 478.312C744.16 469.45 755.121 462.831 766.873 458.751C779.806 454.376 793.864 453.12 807.606 455.332C810.182 455.777 812.727 456.337 815.242 457.01C835.474 462.432 852.114 474.854 862.95 491.111C870.196 512.532 875.193 534.575 877.949 556.753Z" fill="#3D0938"/>
<path d="M890.229 545.22C881.199 542.8 871.958 544.367 864.475 548.977C870.273 513.165 848.041 478.172 812.264 468.586C782.773 460.684 752.55 472.433 735.736 495.86C729.323 491.446 722.032 488.023 713.917 485.848C679.968 476.752 645.897 493.717 637.842 523.779C630.307 551.899 648.208 581.565 678.419 592.723C679.217 620.379 697.969 645.496 726.088 653.03C752.036 659.983 778.468 650.036 793.875 630.03C799.445 638.505 807.891 644.934 818.407 647.751C841.153 653.846 864.487 640.374 870.582 617.628C871.379 614.656 871.771 611.821 871.935 608.924C872.277 609.016 872.506 609.077 872.849 609.169C890.452 613.886 908.569 603.426 913.285 585.823C918.292 568.053 907.832 549.936 890.229 545.22Z" fill="white"/>
<path d="M880.459 581.683C880.116 581.592 879.888 581.53 879.545 581.438C879.381 584.335 878.958 587.284 878.193 590.142C872.098 612.889 848.763 626.361 826.017 620.266C815.501 617.448 806.94 610.989 801.485 602.544C786.078 622.55 759.646 632.497 733.699 625.545C705.579 618.01 686.827 592.893 686.029 565.237C660.954 555.945 644.301 533.964 643.72 510.531C641.299 514.538 639.357 519.04 638.101 523.727C630.567 551.846 648.468 581.512 678.679 592.67C679.476 620.327 698.229 645.443 726.348 652.978C752.295 659.93 778.727 649.984 794.134 629.977C799.704 638.453 808.15 644.881 818.666 647.699C841.413 653.794 864.747 640.322 870.842 617.575C871.638 614.603 872.03 611.768 872.194 608.872C872.537 608.963 872.765 609.025 873.108 609.117C890.711 613.833 908.828 603.374 913.545 585.771C914.862 580.856 914.974 575.863 914.134 571.227C906.111 580.594 893.147 585.083 880.459 581.683Z" fill="#CCFFFF"/>
<path d="M890.229 545.22C881.199 542.8 871.958 544.367 864.475 548.977C870.273 513.165 848.041 478.172 812.264 468.586C782.773 460.684 752.55 472.433 735.736 495.86C729.323 491.446 722.032 488.023 713.917 485.848C679.968 476.752 645.897 493.717 637.842 523.779C630.307 551.899 648.208 581.565 678.419 592.723C679.217 620.379 697.969 645.496 726.088 653.03C752.036 659.983 778.468 650.036 793.875 630.03C799.445 638.505 807.891 644.934 818.407 647.751C841.153 653.846 864.487 640.374 870.582 617.628C871.379 614.656 871.771 611.821 871.934 608.924C872.277 609.016 872.506 609.077 872.849 609.169C890.452 613.886 908.569 603.426 913.285 585.823C918.292 568.053 907.832 549.936 890.229 545.22Z" stroke="#3D0938" stroke-width="4" stroke-miterlimit="10" stroke-linecap="round" stroke-linejoin="round"/>
<path opacity="0.43" d="M366.096 620.767L329.074 625.426L255.061 634.629L218.04 639.288L181.018 643.947C175.392 599.561 178.541 553.973 190.456 509.508C192.508 501.85 194.758 494.367 197.351 486.976C198.379 487.251 199.408 487.527 200.437 487.803C206.381 489.395 212.057 491.529 217.466 494.203C224.303 488.807 231.611 484.395 239.421 480.852C253.652 474.374 269.207 471.191 284.818 471.454C292.136 471.577 299.498 472.447 306.761 474.148C307.904 474.454 309.077 474.646 310.335 474.983C314.678 476.147 318.961 477.54 323.037 479.244C334.839 484.122 345.373 490.987 354.419 499.292C364.736 508.794 373.122 520.475 379.022 533.204C375.59 540.983 372.669 549.144 370.402 557.602C364.82 578.894 363.514 600.228 366.096 620.767Z" fill="#3D0938"/>
<path d="M484.558 694.407C489.945 671.103 475.466 647.867 452.162 642.48C449.96 642.012 447.727 641.659 445.463 641.42C442.767 613.99 423.045 590.206 394.681 583.586C388.561 582.192 382.57 581.689 376.624 581.933C379.155 537.282 349.194 495.931 304.217 485.472C272.621 478.109 241.029 487.653 218.951 508.322C211.593 503.778 203.441 500.368 194.662 498.383C150.485 488.139 106.362 515.642 96.1173 559.819C85.8728 603.996 113.376 648.119 157.553 658.364C160.213 658.954 162.903 659.43 165.624 659.791C172.496 694.956 199.384 724.458 236.527 733.063C274.814 741.974 313.145 726.027 334.525 695.615C342.718 703.446 353.154 709.305 365.05 712.002C379.346 715.343 393.755 713.691 406.248 708.217C412.183 717.158 421.368 724.03 432.661 726.688C455.821 732.159 479.057 717.68 484.558 694.407Z" fill="white"/>
<path d="M485.533 682.54C475.895 697.476 457.705 705.466 439.347 701.282C428.053 698.624 418.838 691.866 412.933 682.811C400.44 688.285 386.031 689.937 371.735 686.596C359.87 683.784 349.403 678.039 341.21 670.209C319.861 700.507 281.644 716.484 243.213 707.656C206.07 699.052 179.326 669.466 172.309 634.385C169.589 634.024 166.898 633.548 164.239 632.958C123.521 623.518 97.0094 585.296 101.136 544.748C98.9883 549.563 97.2672 554.615 95.942 560.018C85.6974 604.194 113.201 648.318 157.378 658.562C160.038 659.152 162.728 659.628 165.449 659.99C172.321 695.154 199.209 724.656 236.352 733.261C274.638 742.172 312.969 726.225 334.35 695.813C342.542 703.644 352.978 709.503 364.874 712.2C379.171 715.541 393.58 713.889 406.072 708.415C412.007 717.356 421.192 724.228 432.486 726.887C455.79 732.273 479.026 717.795 484.413 694.491C485.485 690.49 485.726 686.389 485.533 682.54Z" fill="#CCFFFF"/>
<path d="M484.558 694.407C489.945 671.103 475.466 647.867 452.162 642.48C449.96 642.012 447.727 641.659 445.463 641.42C442.767 613.99 423.045 590.206 394.681 583.586C388.561 582.192 382.57 581.689 376.624 581.933C379.155 537.282 349.194 495.931 304.217 485.472C272.621 478.109 241.029 487.653 218.951 508.322C211.593 503.778 203.441 500.368 194.662 498.383C150.485 488.139 106.362 515.642 96.1173 559.819C85.8728 603.996 113.376 648.119 157.553 658.364C160.213 658.954 162.903 659.43 165.624 659.791C172.496 694.956 199.384 724.458 236.527 733.063C274.814 741.974 313.145 726.027 334.525 695.615C342.718 703.446 353.154 709.305 365.05 712.002C379.346 715.343 393.755 713.691 406.248 708.217C412.183 717.158 421.368 724.03 432.661 726.688C455.821 732.159 479.057 717.68 484.558 694.407Z" stroke="#3D0938" stroke-width="4" stroke-miterlimit="10" stroke-linecap="round" stroke-linejoin="round"/>
<path opacity="0.43" d="M257.099 383.781C259.461 385.027 261.914 385.929 264.543 386.633C266.601 387.185 268.605 387.477 270.754 387.685C290.846 389.516 308.663 374.688 310.379 354.566C311.098 345.938 308.799 337.603 304.233 330.867C283.593 348.001 265.184 367.326 249.211 388.528C252.132 387.228 254.741 385.722 257.099 383.781Z" fill="#3D0938"/>
<path d="M298.629 353.623C299.834 339.979 289.817 327.984 276.288 326.809C276.059 326.748 275.8 326.801 275.686 326.771C273.983 310.265 260.834 296.696 243.609 295.143C228.761 293.86 215.221 301.871 208.925 314.395C205.506 311.151 201.065 308.981 196.019 308.609C184.182 307.52 173.759 316.243 172.67 328.08C171.581 339.917 180.304 350.34 192.141 351.429C196.097 351.754 199.84 351.042 203.196 349.491C201.782 365.284 213.573 379.347 229.366 380.761C240.143 381.688 250.189 376.662 255.87 368.261C259.844 372.633 265.42 375.597 271.868 376.223C285.459 377.169 297.454 367.152 298.629 353.623Z" fill="white"/>
<path d="M276.421 366.539C270.088 365.945 264.397 362.95 260.423 358.577C254.742 366.978 244.811 372.036 233.919 371.077C218.012 369.633 206.335 355.601 207.749 339.808C204.393 341.359 200.65 342.071 196.694 341.746C184.857 340.657 176.134 330.234 177.223 318.397C177.323 317.566 177.423 316.735 177.607 316.05C174.912 319.248 173.062 323.408 172.699 327.966C171.61 339.803 180.333 350.226 192.17 351.315C196.126 351.64 199.869 350.928 203.225 349.377C201.811 365.169 213.602 379.232 229.395 380.646C240.172 381.574 250.218 376.547 255.899 368.146C259.873 372.519 265.449 375.483 271.897 376.108C284.222 377.205 295.239 369.009 298.135 357.288C293.035 363.518 285.05 367.259 276.421 366.539Z" fill="#CCFFFF"/>
<path d="M298.629 353.623C299.834 339.979 289.817 327.984 276.288 326.809C276.059 326.748 275.8 326.801 275.686 326.771C273.983 310.265 260.834 296.696 243.609 295.143C228.761 293.86 215.221 301.871 208.925 314.395C205.506 311.151 201.065 308.981 196.019 308.609C184.182 307.52 173.759 316.243 172.67 328.08C171.581 339.917 180.304 350.34 192.141 351.429C196.097 351.754 199.84 351.042 203.196 349.491C201.782 365.284 213.573 379.347 229.366 380.761C240.143 381.688 250.189 376.662 255.87 368.261C259.844 372.633 265.42 375.597 271.868 376.223C285.459 377.169 297.454 367.152 298.629 353.623Z" stroke="#3D0938" stroke-width="4" stroke-miterlimit="10" stroke-linecap="round" stroke-linejoin="round"/>
</svg>
