<svg width="125" height="294" viewBox="0 0 125 294" fill="none" xmlns="http://www.w3.org/2000/svg">
<path d="M50.5564 130.541C50.5564 130.541 39.1868 121.976 38.6487 113.148C38.6487 113.148 32.4658 123.453 36.29 130.541L32.4429 124.919C32.4429 124.919 29.9926 141.235 40.618 145.528C51.2434 149.822 50.5564 130.541 50.5564 130.541Z" fill="#F9941C"/>
<path opacity="0.2" d="M50.5564 130.541C50.5564 130.541 39.1868 121.976 38.6487 113.148C38.6487 113.148 32.4658 123.453 36.29 130.541L32.4429 124.919C32.4429 124.919 29.9926 141.235 40.618 145.528C51.2434 149.822 50.5564 130.541 50.5564 130.541Z" fill="white"/>
<path d="M83.2686 133.151C74.1087 127.85 54.7586 127.896 47.2132 129.43C39.6678 130.964 30.5996 162.062 29.3974 171.428C28.1952 180.794 30.1531 220.192 28.6417 223.215C26.0655 228.367 24.8633 226.65 23.3519 230.921C22.8596 232.295 24.0618 238.684 23.8099 245.714C23.2718 260.255 22.6649 281.471 22.4474 282.708C21.5772 286.83 20.1574 287.963 20.1574 292.807H29.947C29.947 292.807 31.1606 290.15 30.5538 288.295C29.947 286.441 28.1379 285.731 27.8402 280.361C27.5425 274.991 28.8936 245.107 30.2561 238.764C30.6912 236.703 42.4387 233.245 47.7628 220.341C53.087 207.437 83.2686 133.151 83.2686 133.151Z" fill="#F9941C"/>
<path opacity="0.3" d="M20.1802 292.806H29.9469C29.9469 292.806 31.1605 290.15 30.5537 288.295C29.9469 286.44 28.1378 285.73 27.8401 280.361C27.5424 274.991 28.8935 245.107 30.256 238.763C30.6911 236.703 42.4386 233.245 47.7627 220.341C49.2855 216.654 52.8464 207.941 57.1515 197.373C64.9603 178.194 75.2193 152.902 80.2228 140.57L83.2227 133.162C77.1314 129.647 66.5632 128.479 57.9416 128.582C54.3308 128.56 50.7252 128.859 47.1673 129.475C39.6105 131.01 30.5537 162.107 29.3515 171.473C28.1493 180.839 30.1072 220.238 28.5958 223.261C28.3897 223.673 28.1951 224.028 28.0119 224.406C25.825 228.23 24.7029 227.108 23.306 231.012C22.8137 232.386 24.0159 238.775 23.764 245.805C23.2259 260.346 22.619 281.563 22.4015 282.799C21.5771 286.83 20.1802 287.963 20.1802 292.806Z" fill="white"/>
<path opacity="0.2" d="M52.5717 150.521C53.3732 156.521 70.5593 148.494 80.2687 140.56L83.2686 133.152C77.1773 129.636 66.6091 128.469 57.9875 128.572C55.4227 134.594 51.7817 144.544 52.5717 150.521Z" fill="black"/>
<path opacity="0.2" d="M20.1806 292.806H29.9472C29.9472 292.806 31.1609 290.15 30.554 288.295C29.9472 286.44 28.1381 285.73 27.8405 280.36C27.5428 274.99 28.8938 245.106 30.2564 238.763C30.6914 236.702 42.4389 233.244 47.763 220.341C49.2859 216.654 52.8467 207.94 57.1519 197.372C56.3275 186.987 53.7169 168.645 53.7169 168.645L46.9272 158.684C49.4118 167.271 50.5568 194.808 50.5568 194.808C50.5568 194.808 46.1257 229.558 38.5574 229.787C33.531 229.935 29.89 226.581 28.0122 224.314C25.8253 228.138 24.7032 227.016 23.3063 230.92C22.814 232.294 24.0162 238.683 23.7643 245.713C23.2262 260.254 22.6194 281.471 22.4018 282.707C21.5774 286.829 20.1806 287.963 20.1806 292.806Z" fill="black"/>
<path d="M101.886 133.151C91.7646 127.85 72.4374 127.896 65.1668 129.43C57.8962 130.964 54.3697 162.062 54.862 171.428C55.3544 180.794 64.2966 220.192 63.3005 223.215C61.6403 228.367 60.1404 226.65 59.3847 230.921C59.1328 232.295 61.48 238.684 62.4647 245.714C64.5256 260.255 67.7316 281.471 67.7316 282.754C67.5942 286.876 66.4034 288.009 67.2621 292.852H77.086C77.4908 291.364 77.4187 289.786 76.8799 288.341C75.9411 286.475 74.006 285.777 72.7466 280.407C71.4871 275.037 67.5255 245.153 67.7545 238.81C67.8346 236.749 78.9523 233.291 81.998 220.387C85.0436 207.483 101.886 133.151 101.886 133.151Z" fill="#F9941C"/>
<path opacity="0.15" d="M96.4932 156.806C92.1079 176.076 86.1884 202.067 83.2687 214.684C82.7191 217.089 82.2725 219.001 81.9634 220.295C78.9178 233.199 67.8 236.656 67.7199 238.717C67.4909 245.061 71.464 274.956 72.712 280.314C73.96 285.673 75.9065 286.383 76.8454 288.249C77.3835 289.695 77.4516 291.274 77.04 292.76H67.2275C66.3688 287.917 67.5596 286.783 67.697 282.662C67.697 281.425 64.5254 260.209 62.4644 245.667C61.4798 238.637 59.1326 232.248 59.3845 230.874C60.1287 226.707 61.5943 228.275 63.2201 223.398C63.2519 223.323 63.2787 223.247 63.3003 223.169C64.2621 220.146 55.2854 180.747 54.8274 171.381C54.7575 166.509 55.0406 161.637 55.6747 156.806H96.4932Z" fill="white"/>
<path opacity="0.2" d="M96.4932 156.806C92.1079 176.076 86.1884 202.067 83.2687 214.684C76.8797 221.13 69.403 223.913 63.2201 223.398C63.2519 223.323 63.2787 223.247 63.3003 223.169C64.2621 220.146 55.2854 180.747 54.8274 171.381C54.7575 166.509 55.0406 161.637 55.6747 156.806H96.4932Z" fill="black"/>
<path d="M55.5715 86.5049C60.1515 87.7644 64.6283 97.7142 66.4259 108.695C67.0418 112.275 67.314 115.906 67.2389 119.538C59.3338 131.042 53.7596 143.983 50.8313 157.631C48.3925 169.905 53.2129 199.56 54.7586 229.764C54.8616 231.848 53.7396 236.634 53.8541 238.672C53.9457 240.31 55.125 245.68 55.2166 247.283C56.0982 262.923 56.2242 275.655 56.2013 282.88C56.2013 286.143 53.2472 288.525 53.2472 293.356H64.9145C64.8199 291.732 64.432 290.137 63.7696 288.651C62.249 286.371 61.5133 283.658 61.6743 280.922C61.6743 270.125 61.8689 251.966 63.1971 244.42C63.4375 243.046 64.8573 240.516 64.9374 239.13C65.029 237.436 63.7925 234.173 63.5864 232.49C62.7276 222.242 64.9374 191.396 64.9374 191.396C79.2382 205.136 92.2222 207.266 106.867 190.022C106.867 190.022 107.576 221.28 106.042 231.551C105.836 232.993 104.462 235.707 104.451 237.161C104.451 238.375 105.596 240.596 105.733 241.844C106.741 250.271 105.584 270.892 104.84 281.998C104.451 285.147 101.508 288.811 101.508 293.356H113.152C113.058 291.732 112.67 290.137 112.007 288.651C110.822 286.899 110.123 284.864 109.981 282.754C110.393 273.754 111.401 257.564 113.496 247.065C114.481 242.107 116.519 239.176 116.622 237.974C116.954 233.932 114.023 236.039 117.194 220.479C123.709 188.477 127.659 163.23 122.095 150.074C117.045 138.178 111.607 127.369 105.962 119.274V119.16C99.1952 100.142 78.1047 81.0434 79.2382 60.0559C80.3717 39.0685 45.5759 76.7612 42.3814 82.4173C39.1869 88.0735 48.4727 84.5356 55.5715 86.5049Z" fill="#F9941C"/>
<path opacity="0.3" d="M54.5754 86.2645L55.5715 86.5049C58.1363 87.2148 60.6896 90.707 62.762 95.5846C64.4902 99.7968 65.7199 104.197 66.4259 108.695C67.0418 112.275 67.314 115.906 67.2389 119.538C59.3338 131.042 53.7596 143.983 50.8313 157.631C48.3925 169.905 53.2129 199.56 54.7586 229.764C54.8616 231.848 53.7396 236.634 53.8541 238.672C53.9457 240.31 55.125 245.68 55.2166 247.283C56.0982 262.923 56.2242 275.655 56.2013 282.88C56.2013 286.143 53.2472 288.525 53.2472 293.356H64.9145C64.8199 291.732 64.432 290.137 63.7696 288.651C62.249 286.371 61.5133 283.658 61.6743 280.922C61.6743 270.125 61.8689 251.966 63.1971 244.42C63.4375 243.046 64.8573 240.516 64.9374 239.13C65.029 237.436 63.7925 234.173 63.5864 232.49C62.7276 222.242 64.9374 191.396 64.9374 191.396C79.2382 205.136 92.2222 207.266 106.867 190.022C106.867 190.022 107.576 221.28 106.042 231.551C105.836 232.993 104.462 235.707 104.451 237.161C104.451 238.375 105.596 240.596 105.733 241.844C106.741 250.271 105.584 270.892 104.84 281.998C104.451 285.147 101.508 288.811 101.508 293.356H113.152C113.058 291.732 112.67 290.137 112.007 288.651C110.822 286.899 110.123 284.864 109.981 282.754C110.393 273.754 111.401 257.564 113.496 247.065C114.481 242.107 116.519 239.176 116.622 237.974C116.954 233.932 114.023 236.039 117.194 220.479C123.709 188.477 127.659 163.23 122.095 150.074C117.045 138.178 111.607 127.369 105.962 119.274V119.16C99.1952 100.142 78.1047 81.0434 79.2382 60.0559C80.3717 39.0685 45.5759 76.7612 42.3814 82.4173C39.393 87.856 47.6483 84.8447 54.5754 86.2645Z" fill="white"/>
<path opacity="0.4" d="M71.1664 116.731C81.3452 133.345 61.4799 158.122 64.9262 191.338C79.227 205.078 92.211 207.208 106.855 189.964C106.855 189.964 110.943 177.427 110.943 171.645C110.943 165.862 84.9748 89.2062 72.5861 76.2222C60.1975 63.2382 55.5832 86.4239 55.5832 86.4239C60.1631 87.6834 64.64 97.6333 66.4376 108.614C67.8688 111.27 69.4375 113.972 71.1664 116.731Z" fill="white"/>
<path opacity="0.1" d="M54.576 86.2641L55.5721 86.5046C58.1369 87.2145 60.6902 90.7067 62.7626 95.5843C72.7239 85.8634 76.2046 71.4023 76.2046 71.4023C69.9301 72.971 61.297 79.4859 54.576 86.2641Z" fill="black"/>
<path d="M50.5569 58.9446C49.7325 58.6011 44.6717 61.3032 41.981 59.769C41.981 59.769 40.9619 66.3984 46.2746 68.2876C51.5873 70.1768 54.3696 68.6425 54.5757 67.3487C54.7818 66.0549 54.3353 60.4788 50.5569 58.9446Z" fill="#F9941C"/>
<path opacity="0.3" d="M42.6792 64.8756C43.0113 65.6734 43.5084 66.3919 44.1379 66.9839C44.7674 67.5759 45.5151 68.028 46.3317 68.3106C50.9116 69.925 53.568 69.0434 54.3465 67.9442C54.4763 67.7713 54.5662 67.5719 54.6099 67.3602C54.8045 66.055 54.3007 60.4904 50.591 58.9561H50.4536C49.3086 58.8759 44.5684 61.2461 42.0037 59.8034C41.8047 61.524 42.0369 63.2671 42.6792 64.8756Z" fill="white"/>
<path opacity="0.4" d="M54.644 67.3493C54.644 67.3493 54.5524 67.5668 54.3807 67.9332C53.5678 69.0782 50.8656 69.914 46.3658 68.2996C41.0532 66.3989 42.0722 59.7695 42.0722 59.7695C43.0683 63.2617 44.8774 62.6205 48.2551 62.8266C51.6328 63.0327 54.644 67.3493 54.644 67.3493Z" fill="white"/>
<path opacity="0.1" d="M42.6792 64.8756C43.0113 65.6734 43.5084 66.3919 44.1379 66.9839C44.7674 67.5759 45.5151 68.028 46.3317 68.3105C50.9116 69.925 53.568 69.0433 54.3465 67.9441C54.4763 67.7713 54.5662 67.5719 54.6099 67.3602C54.8045 66.0549 54.3007 60.4903 50.591 58.9561H50.4536C49.983 59.0617 49.5201 59.1995 49.0682 59.3682C46.3153 60.3241 44.0304 62.2937 42.6792 64.8756Z" fill="black"/>
<path d="M54.1289 59.7578C54.5048 59.7878 54.8829 59.7436 55.2417 59.6275C55.6005 59.5114 55.933 59.3258 56.22 59.0813C56.5071 58.8368 56.7432 58.5381 56.9148 58.2023C57.0864 57.8665 57.1903 57.5002 57.2203 57.1243C57.2504 56.7484 57.2062 56.3703 57.0901 56.0115C56.974 55.6527 56.7884 55.3203 56.5439 55.0332C56.2993 54.7461 56.0007 54.51 55.6649 54.3384C55.3291 54.1668 54.9628 54.063 54.5869 54.0329C54.4037 54.0329 35.6833 50.7582 32.569 38.7932C32.4743 38.4294 32.3088 38.0877 32.082 37.7878C31.8553 37.4879 31.5716 37.2355 31.2474 37.0452C30.9231 36.8549 30.5645 36.7303 30.1921 36.6786C29.8196 36.6269 29.4407 36.649 29.0768 36.7437C28.7129 36.8385 28.3713 37.0039 28.0714 37.2307C27.7714 37.4575 27.5191 37.7411 27.3288 38.0654C27.1385 38.3896 27.0139 38.7482 26.9622 39.1207C26.9104 39.4931 26.9326 39.872 27.0273 40.2359C31.0805 55.819 52.7435 59.5288 53.6595 59.7005C53.8136 59.7358 53.9709 59.7549 54.1289 59.7578Z" fill="#263238"/>
<path d="M2.03214 4.05415C0.939926 7.86184 0.347214 11.7953 0.268879 15.7558C0.21447 17.769 0.325516 19.7834 0.600914 21.7784C0.848034 23.824 1.32035 25.8361 2.00925 27.7781C2.72498 29.7813 3.69878 31.6827 4.90604 33.4343C6.18057 35.1937 7.72646 36.7396 9.48595 38.0142C11.2838 39.2443 13.2456 40.2156 15.3139 40.8995C17.3446 41.5134 19.4377 41.8974 21.554 42.0445C25.6388 42.3076 29.7404 42.0188 33.748 41.1858C37.8894 40.4409 41.8241 38.821 45.2894 36.4341C47.0611 35.174 48.6091 33.6259 49.8693 31.8542C51.1006 30.0789 51.9934 28.0915 52.5027 25.9919C53.4891 21.9622 53.2011 17.7257 51.6783 13.8666C51.6145 13.7084 51.4913 13.5815 51.3351 13.513C51.1789 13.4446 51.0021 13.4399 50.8425 13.5002C50.7112 13.5503 50.6004 13.6429 50.5278 13.7632C50.4552 13.8836 50.4249 14.0248 50.4418 14.1643V14.233C50.9053 17.8536 50.4769 21.5327 49.1937 24.95C47.9224 28.1437 45.6323 30.8283 42.6788 32.587C39.6264 34.3722 36.2675 35.5721 32.7748 36.125L31.4352 36.3654L30.0841 36.5372C29.1795 36.6746 28.2521 36.7318 27.3361 36.8119C26.4202 36.8921 25.5156 36.9379 24.6225 36.9608C23.734 37.0125 22.8433 37.0125 21.9548 36.9608C18.5197 36.8323 15.1725 35.8399 12.2224 34.0754C10.834 33.142 9.58496 32.0164 8.51271 30.7321C7.44634 29.3715 6.56826 27.8734 5.90216 26.2782C4.483 22.8995 3.60957 19.3169 3.31452 15.6642C2.96528 11.8977 2.96528 8.10692 3.31452 4.34039C3.33419 4.1781 3.29111 4.01442 3.19411 3.88283C3.09712 3.75123 2.95353 3.66166 2.79268 3.63241C2.63184 3.60317 2.4659 3.63647 2.32879 3.7255C2.19168 3.81453 2.09376 3.95257 2.05504 4.1114L2.03214 4.05415Z" fill="#263238"/>
<path d="M15.8642 15.1032C14.6713 16.3799 13.5981 17.7635 12.6583 19.2366C11.711 20.7035 10.8656 22.2338 10.1279 23.8165C9.38311 25.4125 8.74808 27.0574 8.22723 28.7399C7.69349 30.4322 7.26897 32.157 6.9563 33.9037C6.91646 34.1075 6.91714 34.3171 6.95829 34.5205C6.99945 34.724 7.08027 34.9174 7.19616 35.0896C7.31205 35.2619 7.46074 35.4096 7.63372 35.5244C7.8067 35.6392 8.00059 35.7187 8.20432 35.7586C8.40806 35.7984 8.61766 35.7978 8.82114 35.7566C9.02461 35.7155 9.218 35.6346 9.39024 35.5187C9.56248 35.4028 9.7102 35.2542 9.82498 35.0812C9.93976 34.9082 10.0194 34.7143 10.0592 34.5106C10.0641 34.4496 10.0641 34.3883 10.0592 34.3274V34.293C10.1686 32.645 10.3751 31.0048 10.6775 29.3811C10.983 27.7488 11.3961 26.1385 11.9141 24.5607C12.4326 22.9666 13.0679 21.4129 13.8147 19.9121C14.5367 18.3959 15.3992 16.9507 16.3909 15.5955C16.447 15.514 16.4699 15.4142 16.455 15.3163C16.4402 15.2185 16.3886 15.13 16.3108 15.0689C16.243 15.0244 16.1624 15.0037 16.0816 15.0099C16.0008 15.0161 15.9244 15.0489 15.8642 15.1032Z" fill="#263238"/>
<path d="M38.8092 19.5914C38.5788 20.9729 38.4563 22.3702 38.4428 23.7706C38.4233 25.1848 38.5228 26.5981 38.7405 27.9956C38.9581 29.4396 39.3424 30.8535 39.8855 32.2091C40.5124 33.62 41.376 34.9134 42.4388 36.0333C42.5824 36.1837 42.7542 36.3043 42.9444 36.3882C43.1346 36.4722 43.3395 36.5179 43.5473 36.5227C43.7552 36.5275 43.962 36.4913 44.1558 36.4161C44.3497 36.341 44.5269 36.2284 44.6772 36.0848C44.8276 35.9412 44.9482 35.7694 45.0322 35.5792C45.1161 35.389 45.1618 35.1842 45.1666 34.9763C45.1714 34.7684 45.1352 34.5617 45.06 34.3678C44.9849 34.1739 44.8723 33.9968 44.7288 33.8464L44.5913 33.709C43.6666 32.957 42.87 32.0599 42.2327 31.0527C41.5963 29.9677 41.0817 28.8157 40.6984 27.6177C40.3238 26.3562 40.0557 25.0655 39.8969 23.7592C39.7253 22.4383 39.6564 21.1062 39.6908 19.7746C39.6912 19.6559 39.6465 19.5414 39.5657 19.4543C39.485 19.3672 39.3742 19.3139 39.2558 19.3052C39.1608 19.3007 39.0668 19.3258 38.9868 19.3771C38.9068 19.4284 38.8448 19.5033 38.8092 19.5914Z" fill="#263238"/>
<path d="M26.6724 24.7445C26.5495 26.0123 26.308 27.2658 25.9511 28.4885C25.592 29.7192 25.16 30.9274 24.6573 32.1067C24.1461 33.2833 23.5689 34.4301 22.9283 35.5416C22.2887 36.6413 21.5931 37.7075 20.8445 38.7361C20.7242 38.9052 20.6384 39.0964 20.592 39.2987C20.5456 39.501 20.5395 39.7105 20.5741 39.9152C20.6086 40.1198 20.6831 40.3157 20.7934 40.4916C20.9036 40.6674 21.0474 40.8199 21.2166 40.9401C21.3858 41.0604 21.5769 41.1462 21.7793 41.1926C21.9816 41.239 22.191 41.2451 22.3957 41.2106C22.6004 41.176 22.7962 41.1015 22.9721 40.9913C23.148 40.881 23.3004 40.7372 23.4207 40.568C23.4655 40.5114 23.5038 40.4499 23.5352 40.3849C24.1649 39.1712 24.7717 37.9346 25.287 36.6637C25.803 35.4 26.2464 34.1079 26.6152 32.7936C26.9738 31.4797 27.2529 30.1452 27.451 28.7977C27.6559 27.4493 27.7287 26.0841 27.6685 24.7216C27.6597 24.592 27.6012 24.4708 27.5052 24.3834C27.4092 24.2959 27.2831 24.2489 27.1533 24.2521C27.0345 24.2601 26.9226 24.311 26.8384 24.3952C26.7542 24.4794 26.7034 24.5913 26.6953 24.7101L26.6724 24.7445Z" fill="#263238"/>
<path d="M80.4974 70.7379C80.1195 69.2036 83.8064 61.3033 83.0965 59.4484C82.3866 57.5935 80.2569 51.4336 66.9408 51.5595C53.6248 51.6855 45.0718 62.6543 45.0374 65.9862C44.9229 79.4741 33.9197 89.0003 35.8776 91.4849C37.8355 93.9695 50.9684 94.9198 60.7351 87.9354C67.7547 82.7193 74.3617 76.9697 80.4974 70.7379Z" fill="#F9941C"/>
<path opacity="0.3" d="M35.8666 91.5421C37.8245 94.0381 50.9574 94.977 60.724 87.9926C67.7467 82.7843 74.3576 77.0424 80.4978 70.818C80.4515 70.3303 80.5101 69.8384 80.6695 69.3753C81.0588 67.7151 82.032 65.116 82.6503 62.9634C83.0787 61.8724 83.232 60.6928 83.0969 59.5285C82.387 57.6622 80.2573 51.5137 66.9412 51.6396C53.6252 51.7655 45.0722 62.7344 45.0378 66.0663C44.9233 79.474 33.9201 89.0002 35.8666 91.5421Z" fill="white"/>
<path d="M58.2732 71.3896C57.6472 71.3896 57.1397 70.6822 57.1397 69.8096C57.1397 68.9369 57.6472 68.2295 58.2732 68.2295C58.8993 68.2295 59.4067 68.9369 59.4067 69.8096C59.4067 70.6822 58.8993 71.3896 58.2732 71.3896Z" fill="#263238"/>
<path d="M44.0074 69.7881C44.0074 70.6697 44.5226 71.3796 45.1524 71.3796C45.7821 71.3796 46.2974 70.6697 46.2974 69.7881C46.2974 68.9064 45.7936 68.208 45.1524 68.208C44.5112 68.208 44.0074 68.9408 44.0074 69.7881Z" fill="#263238"/>
<path d="M70.5366 58.5096C70.737 58.5094 70.9367 58.4863 71.132 58.4409C72.0479 58.2463 93.5048 53.5175 96.8367 37.7627C96.9885 37.0187 96.8386 36.2448 96.4199 35.6114C96.0012 34.978 95.348 34.5368 94.604 34.385C93.86 34.2331 93.0862 34.3831 92.4527 34.8018C91.8193 35.2205 91.3781 35.8737 91.2263 36.6177C88.673 48.7201 70.1244 52.8306 69.9412 52.8764C69.182 52.9553 68.4853 53.3326 68.0043 53.9253C67.5233 54.5179 67.2975 55.2773 67.3764 56.0365C67.4554 56.7957 67.8327 57.4924 68.4253 57.9734C69.018 58.4543 69.7774 58.6802 70.5366 58.6012V58.5096Z" fill="#263238"/>
<path d="M118.649 0.791489C119.352 4.80024 119.556 8.88078 119.255 12.9397C119.029 16.8329 117.958 20.6303 116.118 24.0689C115.201 25.6818 114.042 27.1451 112.683 28.4083C111.296 29.6314 109.757 30.6704 108.103 31.4998C106.404 32.3106 104.618 32.9253 102.779 33.3317C102.31 33.4233 101.852 33.5722 101.371 33.6523L99.9396 33.8813C98.9808 34.0447 98.0138 34.1556 97.0428 34.2134C93.0576 34.4531 89.0593 34.3612 85.0893 33.9386C81.203 33.6382 77.3829 32.7623 73.754 31.3395C70.2625 30.0289 67.2924 27.6175 65.2926 24.4696C63.4115 21.0827 62.6613 17.1835 63.1515 13.3404V13.2603C63.1708 13.0767 63.1166 12.8929 63.0007 12.7491C62.8848 12.6053 62.7168 12.5133 62.5332 12.4932C62.3801 12.474 62.225 12.5078 62.0937 12.5891C61.9625 12.6703 61.863 12.7941 61.8119 12.9397C60.5167 16.1718 60.2248 19.719 60.9743 23.1194C61.7238 26.5197 63.48 29.6155 66.014 32.0036C67.7095 33.6139 69.6398 34.9574 71.7389 35.9881C75.7837 37.9085 80.1225 39.1354 84.574 39.6176C88.9137 40.1353 93.2946 40.212 97.6497 39.8467C102.193 39.5298 106.623 38.2868 110.668 36.1942C112.721 35.0533 114.599 33.6227 116.244 31.9463C117.833 30.2251 119.149 28.2714 120.148 26.1527C121.124 24.0917 121.798 21.9016 122.152 19.6493C122.519 17.4674 122.653 15.2529 122.553 13.0427C122.389 8.7351 121.53 4.4822 120.011 0.447992C119.978 0.362194 119.929 0.283735 119.865 0.217131C119.802 0.150527 119.726 0.0970863 119.642 0.059857C119.558 0.0226278 119.467 0.00235742 119.376 0.000193708C119.284 -0.00197 119.192 0.0140104 119.107 0.047243C118.957 0.10557 118.832 0.213719 118.753 0.353457C118.673 0.493194 118.645 0.655973 118.671 0.814376L118.649 0.791489Z" fill="#263238"/>
<path d="M103.638 12.7914C104.831 14.0404 105.9 15.4016 106.832 16.8561C107.783 18.2946 108.618 19.807 109.328 21.3787C110.042 22.9274 110.628 24.5319 111.08 26.1762C111.544 27.7968 111.885 29.4503 112.099 31.1225V31.1912C112.166 31.6467 112.411 32.057 112.78 32.3318C113.149 32.6067 113.613 32.7236 114.068 32.6568C114.524 32.59 114.934 32.3449 115.209 31.9756C115.484 31.6063 115.601 31.1429 115.534 30.6874C115.534 30.6187 115.534 30.55 115.534 30.4813C115.07 28.6927 114.477 26.94 113.759 25.2373C113.052 23.5521 112.214 21.925 111.252 20.3712C110.304 18.8265 109.24 17.3566 108.069 15.9744C106.905 14.5891 105.613 13.3163 104.21 12.1731C104.128 12.123 104.03 12.1035 103.935 12.1179C103.839 12.1323 103.752 12.1798 103.688 12.252C103.624 12.3242 103.587 12.4166 103.584 12.5131C103.581 12.6096 103.612 12.704 103.672 12.78L103.638 12.7914Z" fill="#263238"/>
<path d="M76.2957 18.1501C76.4159 19.5023 76.4159 20.8625 76.2957 22.2148C76.1601 23.5416 75.8995 24.8527 75.5172 26.1306C75.1281 27.3459 74.5733 28.5018 73.8684 29.5655C73.1825 30.5655 72.3306 31.4407 71.3494 32.1532L71.2693 32.2104C70.923 32.4945 70.7004 32.9018 70.6485 33.3467C70.5966 33.7916 70.7193 34.2393 70.9909 34.5955C71.2625 34.9517 71.6617 35.1885 72.1045 35.2562C72.5473 35.3239 72.999 35.2171 73.3646 34.9584L73.5478 34.7981C74.6815 33.6852 75.6183 32.3883 76.3186 30.9624C76.9689 29.5868 77.4199 28.1257 77.6583 26.6229C78.0926 23.7364 77.9643 20.7932 77.2804 17.9554C77.2592 17.8294 77.1887 17.717 77.0846 17.6429C76.9804 17.5688 76.8511 17.5392 76.7251 17.5604C76.5991 17.5817 76.4867 17.6521 76.4126 17.7563C76.3385 17.8604 76.3088 17.9897 76.3301 18.1157L76.2957 18.1501Z" fill="#263238"/>
<path d="M90.7676 22.4769C90.7772 23.8883 90.9462 25.2941 91.2714 26.6676C91.5877 28.0348 92.0009 29.3779 92.5079 30.6864C93.0317 31.9898 93.6359 33.2593 94.317 34.4878C95.0117 35.7285 95.7762 36.9289 96.607 38.083C96.8801 38.4245 97.2725 38.6498 97.7052 38.7135C98.1378 38.7772 98.5785 38.6747 98.9385 38.4264C99.2986 38.1782 99.5511 37.8027 99.6454 37.3757C99.7397 36.9487 99.6686 36.5018 99.4465 36.1251C99.4033 36.0591 99.3535 35.9977 99.2977 35.9419C98.4089 35.0001 97.5682 34.0142 96.7787 32.9878C95.9932 31.9545 95.2742 30.8722 94.6262 29.7476C93.9781 28.6156 93.4155 27.4368 92.943 26.221C92.4595 25.0238 92.1137 23.7753 91.9126 22.4998C91.8899 22.36 91.8142 22.2343 91.7011 22.149C91.588 22.0637 91.4464 22.0253 91.3057 22.0419C91.1792 22.0395 91.0559 22.0819 90.9574 22.1614C90.859 22.241 90.7918 22.3527 90.7676 22.4769Z" fill="#263238"/>
<path d="M74.0285 57.7543C73.4691 57.646 72.9403 57.4158 72.4799 57.0801C72.0194 56.7445 71.6385 56.3116 71.3642 55.8121C71.0898 55.3127 70.9289 54.7589 70.8926 54.1903C70.8564 53.6216 70.9459 53.0519 71.1546 52.5217L73.1125 52.0294C73.1125 52.0294 71.8988 50.8844 68.5326 52.0294C65.1664 53.1744 65.7389 59.6206 70.044 60.0442C71.2638 60.162 72.4921 59.9333 73.5878 59.3844C74.6835 58.8355 75.6021 57.9888 76.2383 56.9413L74.0285 57.7543Z" fill="#F9941C"/>
<path opacity="0.3" d="M74.0285 57.7543C73.4691 57.646 72.9403 57.4158 72.4799 57.0801C72.0194 56.7445 71.6385 56.3116 71.3642 55.8121C71.0898 55.3127 70.9289 54.7589 70.8926 54.1903C70.8564 53.6216 70.9459 53.0519 71.1546 52.5217L73.1125 52.0294C73.1125 52.0294 71.8988 50.8844 68.5326 52.0294C65.1664 53.1744 65.7389 59.6206 70.044 60.0442C71.2638 60.162 72.4921 59.9333 73.5878 59.3844C74.6835 58.8355 75.6021 57.9888 76.2383 56.9413L74.0285 57.7543Z" fill="white"/>
<path d="M57.1519 53.7589C55.7887 53.4749 54.3816 53.4749 53.0185 53.7589C51.1407 54.297 49.0454 57.3312 48.8737 58.522C48.7019 59.7128 51.0606 60.6288 51.0606 60.6288L57.1519 53.7589Z" fill="#F9941C"/>
<path opacity="0.3" d="M57.1519 53.7589C55.7887 53.4749 54.3816 53.4749 53.0185 53.7589C51.1407 54.297 49.0454 57.3312 48.8737 58.522C48.7019 59.7128 51.0606 60.6288 51.0606 60.6288L57.1519 53.7589Z" fill="white"/>
<path opacity="0.1" d="M74.4638 64.9094C75.9601 67.0478 78.1543 68.5983 80.6696 69.2947C81.0589 67.6345 82.0321 65.0354 82.6504 62.8828C79.7645 62.5173 76.8459 63.2398 74.4638 64.9094Z" fill="black"/>
<path d="M78.6543 55.5675C80.1885 55.224 89.543 57.9376 94.5122 56.3919C94.5122 56.3919 96.4129 63.0213 86.589 64.922C76.7651 66.8226 71.6127 65.2769 71.2234 63.9716C70.8341 62.6664 71.7959 57.1018 78.6543 55.5675Z" fill="#F9941C"/>
<path opacity="0.3" d="M71.1658 63.971C71.2598 64.2119 71.4282 64.4165 71.6467 64.5549C73.158 65.6999 78.1501 66.5357 86.5314 64.9213C96.3553 63.0207 94.4546 56.3912 94.4546 56.3912C89.4854 57.937 80.1309 55.2463 78.5967 55.5669C71.7955 57.1011 70.8452 62.6657 71.1658 63.971Z" fill="white"/>
<path opacity="0.4" d="M71.1658 63.9723L71.6467 64.5563C73.158 65.7012 78.1501 66.5371 86.5314 64.9227C96.3553 63.022 94.4546 56.3926 94.4546 56.3926C92.6226 59.8275 89.2793 59.2436 83.0048 59.4497C76.7304 59.6558 71.1658 63.9723 71.1658 63.9723Z" fill="white"/>
<path d="M36.2788 88.7141C36.8398 88.1759 40.6641 89.5385 40.6641 90.1339C40.6244 90.7501 40.3918 91.3382 39.9993 91.815C39.6068 92.2917 39.0743 92.6329 38.4772 92.7902C36.7597 93.2024 34.1491 90.7178 36.2788 88.7141Z" fill="#263238"/>
</svg>
