<svg width="1000" height="1000" viewBox="0 0 1000 1000" fill="none" xmlns="http://www.w3.org/2000/svg">
<path d="M493.257 651.596L493.162 651.63L493.067 651.666L331.124 713.66C331.116 713.663 331.108 713.666 331.101 713.669C328.326 714.686 325.495 712.592 325.627 709.678C325.627 709.674 325.627 709.671 325.627 709.667L334.486 536.428L334.486 536.416L334.487 536.403C334.697 531.983 333.228 527.721 330.651 524.351L330.593 524.276L330.533 524.202L221.436 389.286L221.426 389.274L221.416 389.261C219.631 387.075 220.583 383.687 223.544 382.845L391.075 337.799L391.128 337.785L391.18 337.77C395.332 336.584 399.104 333.963 401.498 330.104L496.119 184.884L496.133 184.863L496.146 184.842C497.695 182.428 501.292 182.428 502.84 184.842L502.853 184.862L502.866 184.882L597.535 330.302L597.555 330.334L597.577 330.366C600.016 334.025 603.655 336.652 607.718 337.87L607.814 337.899L607.912 337.926L775.48 382.982L775.501 382.987L775.522 382.993C778.288 383.718 779.428 387.112 777.571 389.388L777.559 389.402L777.548 389.416L668.577 524.331L668.519 524.404L668.462 524.478C665.885 527.848 664.416 532.109 664.626 536.53L664.627 536.542L664.627 536.554L673.486 709.794C673.486 709.798 673.486 709.803 673.486 709.807C673.616 712.72 670.785 714.812 668.011 713.795C668.004 713.792 667.996 713.789 667.989 713.787L506.046 651.792L506.035 651.788C501.816 650.181 497.33 650.171 493.257 651.596Z" fill="#FFB636" stroke="#363A5A" stroke-width="14"/>
<path d="M753.251 241.433L701.36 189.542C699.842 188.023 697.817 187.39 695.792 187.644C693.767 187.897 691.868 189.162 690.856 190.934L637.32 296.361C635.801 299.019 636.307 302.183 638.459 304.334C639.724 305.6 641.496 306.233 643.142 306.233C644.281 306.233 645.42 305.98 646.432 305.347L751.732 251.937C753.504 250.925 754.77 249.153 755.023 247.001C755.403 244.976 754.643 242.951 753.251 241.433ZM364.704 296.487L311.168 191.061C310.156 189.289 308.384 188.023 306.232 187.77C304.207 187.517 302.056 188.15 300.664 189.669L248.773 241.559C247.254 243.078 246.621 245.103 246.875 247.128C247.128 249.153 248.393 251.051 250.165 252.064L355.592 305.6C356.604 306.233 357.743 306.486 358.882 306.486C360.654 306.486 362.3 305.853 363.565 304.587C365.717 302.309 366.096 299.019 364.704 296.487ZM542.778 815.394L506.075 703.006C505.821 701.867 505.189 700.854 504.429 700.095C503.164 698.829 501.518 698.197 499.746 698.197C496.709 698.197 494.178 700.222 493.292 703.133L456.589 815.52C456.082 817.545 456.462 819.697 457.728 821.342C458.993 822.987 460.892 824 463.043 824H536.323C538.348 824 540.373 822.987 541.639 821.342C543.031 819.57 543.41 817.419 542.778 815.394Z" fill="#FFD469"/>
</svg>
