<svg width="245" height="252" viewBox="0 0 245 252" fill="none" xmlns="http://www.w3.org/2000/svg">
<path d="M90.1251 152.923C90.1251 152.923 52.4451 135.243 40.8451 122.763C29.2451 110.283 49.3252 104.683 75.1652 111.163C60.899 96.1715 48.0198 79.9184 36.6852 62.6034C24.4452 41.7234 56.7651 65.2434 56.7651 65.2434C56.7651 65.2434 42.6852 5.08341 59.3252 0.283414C75.9652 -4.51659 107.325 53.2434 107.325 53.2434C107.325 53.2434 120.925 22.5234 125.245 36.2034C127.721 49.7989 128.098 63.6935 126.365 77.4034C137.477 62.9737 149.587 49.3404 162.605 36.6034C171.405 30.3634 169.165 57.1634 169.165 57.1634C169.165 57.1634 232.605 25.8834 240.045 33.1634C247.485 40.4434 219.165 83.6434 209.245 97.1634C209.245 97.1634 237.485 101.403 232.125 109.243C226.765 117.083 202.685 128.923 183.165 134.683C183.165 134.683 223.805 142.683 227.645 148.923C231.485 155.163 212.525 163.163 212.525 163.163C212.525 163.163 248.925 189.323 244.525 205.643C240.125 221.963 185.965 192.843 185.965 192.843C185.965 192.843 196.445 211.803 185.965 213.643C175.485 215.483 132.845 170.523 132.845 170.523C132.845 170.523 130.125 210.523 119.325 211.883C102.525 213.883 90.1251 152.923 90.1251 152.923Z" fill="#FF7C03"/>
<path d="M2.20533 251.644C1.8621 251.713 1.50853 251.713 1.16529 251.644C0.918372 251.512 0.70178 251.33 0.529552 251.11C0.357324 250.889 0.233273 250.635 0.165416 250.364C0.097559 250.092 0.0874245 249.809 0.135631 249.534C0.183837 249.258 0.28936 248.996 0.445323 248.764C0.445323 248.764 23.8853 209.804 88.4453 151.644C153.005 93.4836 223.645 42.3636 224.445 41.8836C224.846 41.5067 225.375 41.2969 225.925 41.2969C226.475 41.2969 227.005 41.5067 227.405 41.8836C227.573 42.1075 227.695 42.3631 227.762 42.6349C227.829 42.9068 227.84 43.1894 227.795 43.4658C227.751 43.7422 227.65 44.0067 227.501 44.2435C227.351 44.4802 227.156 44.6844 226.925 44.8436C226.205 45.3236 155.885 96.5236 91.4053 154.364C26.9253 212.204 4.12522 250.364 3.96522 250.364C3.80484 250.709 3.55906 251.008 3.25111 251.232C2.94316 251.456 2.58331 251.597 2.20533 251.644Z" fill="#984B03"/>
<path d="M131.325 117.724V115.164C134.5 95.4997 142.105 76.8152 153.565 60.5236C153.886 60.0814 154.368 59.7832 154.907 59.6933C155.446 59.6035 155.998 59.7294 156.445 60.0436C156.675 60.2029 156.871 60.407 157.021 60.6438C157.17 60.8805 157.27 61.145 157.315 61.4214C157.36 61.6978 157.349 61.9804 157.282 62.2523C157.215 62.5242 157.093 62.7797 156.925 63.0036C146.462 78.0575 139.292 95.1498 135.885 113.164L206.525 108.764C207.064 108.741 207.59 108.929 207.993 109.287C208.396 109.645 208.644 110.146 208.685 110.684C208.707 110.957 208.675 111.232 208.59 111.493C208.505 111.753 208.369 111.995 208.191 112.203C208.013 112.411 207.795 112.582 207.55 112.706C207.305 112.829 207.039 112.903 206.765 112.924L131.325 117.724Z" fill="#984B03"/>
<path d="M225.485 195.723C225.092 195.825 224.679 195.825 224.285 195.723C223.725 195.323 166.285 155.723 109.005 138.203L107.405 137.723V136.043C110.125 89.4831 70.4452 24.9231 70.0452 24.0431C69.8981 23.812 69.7979 23.5541 69.7505 23.2843C69.7031 23.0145 69.7093 22.738 69.7687 22.4705C69.8887 21.9304 70.2184 21.4601 70.6852 21.1631C71.152 20.866 71.7176 20.7666 72.2577 20.8866C72.7978 21.0066 73.2682 21.3363 73.5652 21.8031C75.2452 24.4431 113.565 86.6831 111.725 134.363C152.369 148.501 190.989 167.892 226.605 192.043C227.066 192.366 227.382 192.857 227.486 193.409C227.591 193.962 227.476 194.534 227.165 195.003C226.955 195.239 226.695 195.425 226.405 195.55C226.115 195.674 225.801 195.733 225.485 195.723Z" fill="#984B03"/>
<path d="M172.845 196.363C172.515 196.36 172.191 196.279 171.899 196.126C171.607 195.973 171.356 195.753 171.165 195.483C161.123 182.185 153.289 167.355 147.965 151.563L147.405 149.163L198.605 148.523C199.157 148.523 199.686 148.743 200.076 149.133C200.466 149.523 200.685 150.052 200.685 150.603C200.685 151.155 200.466 151.684 200.076 152.074C199.686 152.464 199.157 152.683 198.605 152.683L152.605 153.243C158.084 167.484 165.428 180.935 174.445 193.243C174.613 193.467 174.735 193.723 174.802 193.995C174.869 194.267 174.88 194.549 174.835 194.826C174.791 195.102 174.69 195.367 174.541 195.603C174.391 195.84 174.196 196.044 173.965 196.203C173.613 196.355 173.226 196.411 172.845 196.363Z" fill="#984B03"/>
<path d="M106.525 104.363L104.445 103.803C88.9906 98.2421 74.5775 90.1297 61.8052 79.8031C61.4618 79.4377 61.2563 78.9642 61.2238 78.4639C61.1913 77.9635 61.3339 77.4674 61.6271 77.0607C61.9203 76.654 62.3459 76.362 62.8308 76.2347C63.3158 76.1074 63.83 76.1528 64.2852 76.3631C76.2524 85.6498 89.4433 93.2413 103.485 98.9231L111.485 64.8431C111.623 64.302 111.97 63.8379 112.45 63.5528C112.93 63.2678 113.504 63.1851 114.045 63.3231C114.586 63.461 115.05 63.8082 115.335 64.2883C115.62 64.7684 115.703 65.342 115.565 65.883L106.525 104.363Z" fill="#984B03"/>
<path d="M115.645 188.923C115.125 188.907 114.629 188.704 114.247 188.352C113.865 187.999 113.623 187.52 113.565 187.003L107.725 137.403L57.0052 122.763C56.4752 122.614 56.0261 122.261 55.7561 121.781C55.4862 121.301 55.4176 120.734 55.5652 120.203C55.6384 119.932 55.7658 119.678 55.9397 119.458C56.1137 119.237 56.3307 119.054 56.5774 118.919C56.8242 118.784 57.0955 118.701 57.3753 118.674C57.6551 118.648 57.9375 118.678 58.2052 118.763L111.565 134.123L117.725 186.523C117.77 186.798 117.758 187.08 117.688 187.35C117.618 187.62 117.492 187.872 117.319 188.091C117.145 188.309 116.928 188.489 116.682 188.619C116.435 188.748 116.163 188.825 115.885 188.843L115.645 188.923Z" fill="#984B03"/>
</svg>
