<svg width="323" height="208" viewBox="0 0 323 208" fill="none" xmlns="http://www.w3.org/2000/svg">
<path d="M28.0275 138.18C21.2332 137.835 14.7344 129.466 8.33398 129.613C1.9336 129.761 0.210449 131.681 0.210449 131.681C0.976974 133.924 2.2718 135.948 3.98561 137.585C5.69942 139.222 7.7819 140.422 10.0572 141.085C17.0976 142.414 28.1259 144.974 28.1259 144.974L28.0275 138.18Z" fill="#263238"/>
<path d="M312.746 149.207C304.573 134.732 299.453 86.7293 300.831 59.0107C300.831 59.0107 255.29 90.2741 257.21 103.912C259.13 117.55 278.824 137.145 295.662 149.207C308.364 158.315 311.613 186.821 312.45 200.262C312.45 203.167 308.659 204.693 309.152 207.5H322.789C322.789 207.5 320.919 163.977 312.746 149.207Z" fill="#263238"/>
<path d="M211.767 201.444C211.521 204.496 207.139 204.103 207.385 207.647H219.595C219.595 207.647 224.765 168.014 234.366 147.927C240.167 136.397 243.519 123.792 244.212 110.903L212.457 129.071C216.641 133.748 213.097 183.671 211.767 201.444Z" fill="#263238"/>
<path d="M122.851 165.602C122.851 171.904 120.586 191.401 119.405 201.444C119.159 203.463 115.121 205.334 116.106 207.648H127.184C127.184 207.648 141.609 135.422 147.517 118.683H120.882C120.882 118.683 122.851 156.986 122.851 165.602Z" fill="#263238"/>
<path d="M87.6989 121.932C87.6989 121.932 101.041 155.756 102.469 165.603C103.404 172.791 98.6287 191.647 95.9701 201.445C95.1331 204.35 90.7021 204.596 91.0467 207.648H102.715C102.715 207.648 113.99 168.261 113.99 165.603C113.99 162.944 111.725 125.182 113.99 121.932C116.254 118.683 87.6989 121.932 87.6989 121.932Z" fill="#263238"/>
<path d="M49.4442 122.918C36.2496 119.718 25.6643 123.508 22.9564 145.467C22.1936 151.68 22.1936 157.963 22.9564 164.176C23.1017 167.069 23.6826 169.924 24.6796 172.644C25.9954 175.382 26.8123 178.333 27.092 181.358C27.092 183.475 27.092 185.641 27.4858 187.758C27.7305 189.904 28.8093 191.867 30.4892 193.223C31.568 193.923 32.8024 194.345 34.0833 194.454C38.7548 194.453 43.3177 193.046 47.1793 190.417C47.8502 190.064 48.478 189.634 49.0502 189.137C49.7347 188.337 50.2685 187.42 50.6257 186.429C52.2733 182.258 54.5117 178.345 57.2723 174.81C58.4047 173.432 59.6355 172.201 60.7186 170.773C62.4274 168.283 63.8479 165.607 64.9528 162.797C70.3192 150.439 65.8389 129.318 52.2997 123.853C51.3695 123.479 50.4156 123.166 49.4442 122.918Z" fill="#263238"/>
<path d="M316.98 152.457C317.374 154.131 315.601 155.509 313.977 156.1C309.551 157.309 304.919 157.56 300.388 156.839C299.873 156.825 299.375 156.653 298.96 156.347C298.517 155.903 298.567 155.165 298.468 154.525C298.369 153.784 298.068 153.086 297.6 152.504C297.131 151.922 296.512 151.481 295.809 151.226C295.091 151.058 294.384 150.844 293.692 150.586C291.477 149.552 291.181 146.106 288.769 145.269C286.357 144.432 283.403 146.401 282.073 144.432C281.792 143.727 281.562 143.003 281.384 142.266C280.153 139.065 274.442 140.247 272.768 137.342C272.508 136.388 272.31 135.418 272.177 134.437C271.488 132.468 269.913 132.173 268.14 132.616C265.421 133.538 262.799 134.725 260.312 136.161C257.194 137.851 253.889 139.173 250.465 140.099C248.447 140.395 246.822 139.41 245.049 140.592C243.277 141.773 241.751 145.121 239.88 146.697L239.142 147.337C238.055 148.039 237.118 148.948 236.383 150.012C235.648 151.077 235.13 152.275 234.858 153.54C234.942 154.307 234.787 155.08 234.415 155.756C234.07 156.149 233.529 156.346 233.135 156.74C231.855 158.02 233.135 160.384 232.446 161.959C231.756 163.535 229.984 163.485 229.492 164.716C228.999 165.947 229.738 167.03 229.492 168.064C229.245 169.098 227.522 169.492 226.291 169.541C222.845 169.541 214.328 169.886 211.964 166.833C211.712 166.482 211.576 166.06 211.576 165.627C211.576 165.194 211.712 164.772 211.964 164.421C211.964 164.125 212.506 163.928 212.703 163.633C212.9 163.338 212.703 161.664 212.309 160.679C211.472 157.873 213.589 154.377 211.817 152.014C210.791 150.619 210.024 149.052 209.552 147.386C209.109 146.106 207.73 144.087 206.155 144.777C205.661 145.091 205.228 145.491 204.875 145.958C204.279 146.532 203.537 146.932 202.73 147.114C201.923 147.297 201.081 147.254 200.296 146.992C199.164 146.549 198.031 145.613 196.85 145.909C196.397 146.107 195.968 146.354 195.57 146.647C194.602 147.286 193.486 147.662 192.33 147.74C191.173 147.818 190.016 147.594 188.972 147.091C188.359 146.72 187.696 146.439 187.003 146.254C186.182 146.234 185.37 146.42 184.64 146.795C182.119 147.637 179.425 147.824 176.812 147.337C174.72 146.568 172.478 146.299 170.263 146.549C168.393 147.09 166.916 148.764 164.996 149.011C163.075 149.257 160.318 147.534 158.349 148.666C157.709 149.06 157.217 149.749 156.527 150.094C156.063 150.306 155.561 150.423 155.05 150.438C153.396 150.556 151.734 150.406 150.127 149.995C149.205 149.676 148.245 149.478 147.271 149.405H147.025C144.514 149.405 145.401 151.669 145.007 153.491C144.488 155.508 143.511 157.378 142.151 158.956C141.216 160.187 138.803 161.713 138.508 163.19C138.212 164.667 139.049 165.356 138.508 166.292C137.966 167.227 137.375 167.276 137.08 167.916C136.292 169.443 138.409 171.461 137.08 172.84C135.751 174.218 135.505 173.332 134.963 173.972C134.737 174.296 134.585 174.666 134.52 175.055C134.241 175.786 133.791 176.439 133.209 176.961C132.627 177.484 131.928 177.86 131.172 178.058C129.203 178.452 127.233 177.123 125.313 176.68C123.393 176.237 122.211 176.68 120.734 175.203C120.517 175.016 120.348 174.78 120.242 174.514C120.242 173.824 120.931 173.234 120.931 172.544C120.931 171.855 119.75 171.067 119.602 170.132C119.454 169.196 120.981 168.113 120.685 167.03C120.39 165.947 119.799 165.996 119.553 165.356C119.307 164.716 119.553 163.978 119.553 163.288C119.574 163.026 119.574 162.763 119.553 162.501C119.897 159.153 116.697 162.008 115.614 163.584C114.9 164.345 114.496 165.346 114.482 166.39C114.482 167.769 115.959 168.999 115.417 170.28C114.876 171.56 113.989 171.461 113.596 172.298C113.202 173.135 113.596 174.711 113.005 175.548C112.757 175.786 112.452 175.956 112.119 176.04C110.283 176.697 108.325 176.94 106.385 176.753C104.444 176.566 102.569 175.952 100.893 174.957C100.463 174.749 100.116 174.402 99.9087 173.972C99.3178 172.594 101.238 171.117 100.647 169.787C100.056 168.458 99.1701 168.704 98.9239 167.867C98.6777 167.03 98.924 166.587 99.3179 165.947C99.5646 165.156 99.5647 164.308 99.3185 163.517C99.0723 162.725 98.5912 162.028 97.9392 161.516C97.5946 161.221 97.1515 161.024 96.9546 160.581C96.7577 160.137 97.4961 158.513 97.3484 157.479C97.2007 156.445 95.6253 155.362 95.773 154.131C95.9207 152.9 96.4623 152.506 95.773 152.112C95.5623 152.066 95.3438 152.066 95.133 152.112C93.4988 152.326 91.8438 152.326 90.2096 152.112C89.2249 151.866 88.2895 151.423 87.3048 151.128C86.7202 150.889 86.1082 150.724 85.4831 150.635C83.4881 150.595 81.5127 151.033 79.7228 151.915C74.6313 154.483 68.9783 155.736 63.2788 155.559C59.2908 154.968 54.269 148.321 50.7734 154.229C50.2318 155.214 49.7395 156.543 48.6564 156.642C48.052 156.582 47.4569 156.449 46.8839 156.248C44.7668 155.854 43.1913 158.513 41.025 158.71C38.8588 158.907 37.6279 157.282 36.1017 157.725C35.4755 157.985 34.881 158.315 34.3293 158.71C33.3447 159.317 32.2193 159.659 31.0631 159.702C29.9068 159.745 28.7593 159.488 27.732 158.956C26.7081 158.412 25.8403 157.616 25.2112 156.642C24.5821 155.668 24.2126 154.549 24.1379 153.392C24.2498 152.466 24.0962 151.527 23.6948 150.685C23.0548 149.798 21.7256 149.651 20.987 148.814C19.1162 146.795 22.5133 143.89 21.8732 141.084C21.627 140.05 20.7901 139.213 20.6424 138.13C20.1993 135.373 24.4825 134.044 25.0241 131.286C25.0733 130.582 25.0733 129.874 25.0241 129.169C25.1399 128.189 25.4975 127.253 26.0647 126.445C26.6319 125.638 27.3909 124.983 28.2735 124.541C30.0649 123.723 31.9499 123.128 33.8863 122.769C33.7261 121.659 33.8653 120.526 34.2894 119.487C34.7135 118.448 35.4071 117.542 36.2987 116.861C37.9726 115.286 39.9912 113.71 40.3359 111.445C40.3359 109.919 39.8435 108.245 40.3359 106.817C41.419 104.11 45.7516 104.109 46.8347 101.451C46.8559 101.254 46.8559 101.056 46.8347 100.86C46.845 99.8153 47.0978 98.7872 47.5732 97.8569C48.6071 96.5275 51.0687 96.626 51.6595 95.0505C51.8562 94.3251 51.8562 93.5603 51.6595 92.8349C51.434 91.9458 51.4052 91.0182 51.5753 90.1168C51.7453 89.2154 52.1102 88.362 52.6443 87.6162C53.204 86.8776 54.021 86.3766 54.933 86.2124C55.8451 86.0482 56.7855 86.233 57.5676 86.73C56.8784 84.7607 58.5523 82.7914 60.177 81.5605C61.8017 80.3297 63.7711 78.9019 63.9188 76.6371C63.9188 75.3571 63.3772 73.7323 64.3619 72.8461C65.3466 71.9598 65.9865 72.4029 66.725 72.0583C69.4821 70.729 66.725 66.1503 68.2513 63.6394C69.7775 61.1285 72.4854 61.8177 73.1746 59.7992C73.667 58.5683 73.1747 56.8943 74.0117 55.9097C74.8487 54.925 76.3749 55.2204 77.2118 54.3834C78.0488 53.5464 77.7534 52.1187 77.7042 50.8879C77.4088 43.552 85.6308 45.9645 85.9754 40.2534C89.5779 37.7041 92.5159 34.3272 94.5422 30.4066C97.447 29.0773 100.105 30.0128 102.567 28.2896C102.567 28.2896 107.491 23.7109 107.491 25.1879C107.551 24.267 107.87 23.3817 108.41 22.633C108.949 21.8844 109.689 21.3026 110.543 20.9539C112.318 20.2905 114.232 20.0872 116.106 20.3629C116.801 20.538 117.529 20.538 118.224 20.3629C118.886 19.9959 119.432 19.4501 119.799 18.7876C121.124 16.6348 122.927 14.8155 125.067 13.4702C126.153 12.8156 127.406 12.4905 128.673 12.5342C129.94 12.5779 131.168 12.9887 132.206 13.7165C132.994 14.3073 133.781 15.1935 134.717 14.8981C135.237 14.6318 135.654 14.1983 135.898 13.6672C136.783 12.4791 138.027 11.6076 139.446 11.1819C140.865 10.7563 142.383 10.7991 143.776 11.3039C144.372 11.6635 145.049 11.8667 145.745 11.8947C146.373 11.7164 146.958 11.4152 147.468 11.0085C150.767 8.79303 153.672 11.0086 156.872 10.024C160.072 9.03929 162.386 5.59282 166.719 6.52826C167.802 6.77443 168.836 7.26688 169.919 7.56228C173.846 8.32423 177.913 7.82442 181.538 6.13446C184.64 4.70668 186.215 2.44189 190.105 3.4758C190.85 3.75448 191.627 3.93657 192.419 4.01745C192.815 4.0717 193.218 4.00705 193.578 3.83174C193.937 3.65643 194.236 3.37832 194.437 3.03271C194.539 2.74061 194.671 2.46014 194.831 2.19583C194.968 2.04314 195.135 1.92044 195.321 1.83568C195.507 1.75092 195.71 1.70593 195.914 1.70346C198.259 1.35299 200.653 1.55528 202.905 2.29424C203.558 2.53319 204.235 2.69837 204.924 2.78661C206.696 2.78661 208.026 1.26025 209.847 0.521748C212.801 -0.856796 215.312 0.915695 218.217 1.0634C221.492 0.745836 224.789 0.745836 228.064 1.0634C229.787 1.40803 231.461 2.14648 233.233 2.39265C236.085 2.40296 238.928 2.07248 241.702 1.40807C245.491 1.03719 249.317 1.38798 252.976 2.44193C254.896 2.93427 256.767 3.77118 258.687 4.06658C260.607 4.36198 260.903 3.18046 262.478 4.46053C263.296 5.36967 264.203 6.19437 265.186 6.92222C267.845 8.35 271.636 6.33141 274.048 8.15306C275.204 9.32432 276.512 10.3344 277.938 11.1562C279.169 11.6978 280.498 11.4517 281.778 12.4857C283.058 13.5196 284.584 16.6212 286.701 17.6551C288.818 18.689 290.837 17.6552 292.462 19.5753C292.962 20.2779 293.406 21.0186 293.791 21.7907C295.81 24.9417 300.634 26.3203 301.028 30.0128C301.028 31.1944 300.782 32.4252 301.028 33.6068C301.668 36.8562 306.444 37.8901 307.182 41.1395C307.625 42.9612 306.641 44.783 306.789 46.6538C306.789 49.6571 310.235 51.8726 310.235 54.9251C310.235 56.8452 309.25 58.5683 309.3 60.5376C309.349 62.507 309.841 63.6886 309.89 65.461C309.998 69.2047 308.855 72.8776 306.641 75.8985C306.641 75.8985 307.872 82.8406 307.773 83.8745C307.429 86.8778 305.755 89.881 305.656 92.8842C305.41 97.8076 308.512 102.337 304.967 106.867C304.615 107.287 304.318 107.751 304.081 108.245C303.588 109.87 305.312 111.199 306.296 112.528C306.887 113.346 307.249 114.306 307.344 115.31C307.439 116.314 307.264 117.326 306.838 118.24C306.508 118.769 306.274 119.352 306.149 119.963C306.149 121.292 307.625 122.129 308.413 123.212C310.53 126.166 307.97 130.203 308.709 133.453C309.447 136.702 312.106 138.376 312.697 141.675C312.755 142.625 313.024 143.55 313.484 144.383C314.026 145.22 315.011 145.81 315.06 146.795C315.109 147.78 314.321 148.223 314.223 149.011C314.124 149.798 316.488 150.98 316.98 152.457Z" fill="#F0F0F0"/>
<path d="M57.4199 148.224C57.9381 147.456 58.4969 146.717 59.0938 146.009C60.1478 144.957 61.3209 144.032 62.5893 143.252C64.5094 141.922 67.7588 140.248 68.1035 137.639C68.6943 133.602 66.9219 132.272 66.9219 132.272C66.9219 132.272 58.6999 132.666 56.6321 136.753C55.549 138.919 54.4165 141.036 53.1857 143.153C52.4964 144.433 50.527 146.895 51.0194 148.372C51.0831 148.582 51.1915 148.776 51.3372 148.941C51.4828 149.105 51.6623 149.237 51.8633 149.325C52.0643 149.414 52.2822 149.459 52.5019 149.456C52.7216 149.452 52.9381 149.402 53.1365 149.307C53.2977 149.263 53.4676 149.263 53.6288 149.307C53.6288 149.307 53.9243 149.307 54.072 149.652C54.355 149.868 54.7008 149.984 55.0566 149.984C55.4123 149.984 55.7583 149.868 56.0413 149.652C56.593 149.275 57.062 148.789 57.4199 148.224Z" fill="#263238"/>
<path opacity="0.2" d="M120.833 160.827C120.833 161.369 120.39 161.91 119.848 162.403C120.193 159.055 116.993 161.91 115.91 163.486C115.195 164.247 114.791 165.248 114.777 166.292C114.777 167.671 116.254 168.901 115.713 170.182C115.171 171.462 114.285 171.363 113.891 172.2C113.497 173.037 113.891 174.612 113.3 175.449C113.053 175.688 112.747 175.858 112.414 175.942C110.578 176.599 108.621 176.842 106.68 176.655C104.74 176.467 102.865 175.854 101.189 174.859C100.759 174.651 100.412 174.304 100.204 173.874C99.6132 172.496 101.533 171.018 100.943 169.689C100.352 168.36 99.4655 168.606 99.2193 167.769C98.9731 166.932 99.2194 166.489 99.6133 165.849C99.8599 165.058 99.8601 164.21 99.6139 163.419C99.3676 162.627 98.8867 161.93 98.2347 161.418C97.8901 161.123 97.4469 160.926 97.25 160.482C97.053 160.039 97.7915 158.415 97.6438 157.381C97.4961 156.347 95.9207 155.264 96.0684 154.033C96.2161 152.802 96.7577 152.408 96.0684 152.014C95.8576 151.968 95.6391 151.968 95.4284 152.014C93.7942 152.228 92.1392 152.228 90.505 152.014C89.5203 151.768 88.5849 151.325 87.6002 151.03C88.5342 150.956 89.4724 150.956 90.4064 151.03C93.7963 150.898 97.1335 150.147 100.253 148.814C100.795 148.814 101.435 148.371 101.878 148.814C102.321 149.257 102.272 149.503 102.469 149.799C103.404 151.177 105.669 149.799 107.097 150.488C108.524 151.177 108.278 151.867 108.771 152.654C109.483 153.629 110.529 154.307 111.708 154.562C112.888 154.816 114.121 154.628 115.171 154.033C113.103 154.821 120.784 160.285 120.833 160.827Z" fill="black"/>
<path opacity="0.2" d="M249.382 112.48C249.138 113.482 248.99 114.504 248.939 115.533C248.839 114.495 248.991 113.448 249.382 112.48Z" fill="black"/>
<path opacity="0.2" d="M268.042 132.615C265.322 133.537 262.7 134.724 260.214 136.16C257.095 137.85 253.791 139.172 250.367 140.099C248.348 140.394 246.724 139.409 244.951 140.591C243.179 141.773 241.653 145.12 239.782 146.696L239.043 147.336C237.957 148.038 237.019 148.947 236.284 150.012C235.55 151.076 235.031 152.275 234.76 153.54C234.844 154.306 234.689 155.08 234.317 155.755C233.972 156.149 233.431 156.346 233.037 156.74C231.757 158.02 233.037 160.383 232.347 161.958C231.658 163.534 229.886 163.485 229.393 164.716C228.901 165.946 229.64 167.029 229.393 168.063C229.147 169.097 227.424 169.491 226.193 169.54C222.747 169.54 214.229 169.885 211.866 166.833C211.614 166.481 211.478 166.059 211.478 165.626C211.478 165.194 211.614 164.772 211.866 164.42C211.866 164.125 212.408 163.928 212.605 163.632C212.802 163.337 212.605 161.663 212.211 160.678C211.374 157.872 213.491 154.377 211.719 152.013C210.693 150.618 209.926 149.051 209.454 147.385C209.011 146.105 207.632 144.087 206.057 144.776C205.563 145.091 205.13 145.491 204.777 145.957C204.181 146.532 203.439 146.932 202.632 147.114C201.824 147.296 200.983 147.254 200.198 146.991C199.066 146.548 197.933 145.613 196.751 145.908C196.299 146.106 195.869 146.354 195.472 146.647C194.504 147.285 193.388 147.662 192.231 147.739C191.075 147.817 189.918 147.593 188.874 147.09C188.26 146.72 187.597 146.438 186.905 146.253C186.084 146.234 185.272 146.42 184.542 146.795C182.021 147.637 179.326 147.823 176.713 147.336C174.622 146.568 172.38 146.298 170.165 146.548C168.294 147.09 166.817 148.764 164.897 149.01C162.977 149.256 160.22 147.533 158.251 148.665C157.611 149.059 157.118 149.748 156.429 150.093C155.965 150.305 155.462 150.422 154.952 150.438C153.298 150.555 151.635 150.406 150.029 149.995C149.106 149.676 148.146 149.477 147.173 149.404H146.927C148.01 148.272 149.586 147.484 150.718 146.499C153.187 144.456 155.186 141.903 156.577 139.016C157.706 139.584 159.01 139.697 160.22 139.331C161.43 138.964 162.452 138.146 163.076 137.046C164.282 134.825 164.909 132.336 164.897 129.809C168.097 132.172 164.306 138.523 167.507 140.936C169.574 142.511 172.43 140.936 174.843 139.803C177.341 139.008 179.951 138.626 182.572 138.671C188.431 138.671 194.241 138.671 200.05 137.982C207.383 137.396 214.648 136.16 221.762 134.289C223.153 134.01 224.485 133.494 225.701 132.763C226.727 131.9 227.813 131.11 228.95 130.4C230.796 129.8 232.771 129.715 234.661 130.154C238.635 130.59 242.654 130.307 246.527 129.316C248.201 128.824 253.37 126.264 249.776 123.999L248.595 123.507C246.724 122.621 246.527 120.11 246.576 118.042C246.576 111.1 251.056 120.701 253.764 121.587C255.241 122.079 257.161 122.276 257.703 123.753C258.244 125.23 257.703 125.772 257.949 126.707C258.195 127.643 260.362 128.086 261.789 127.889C261.248 128.775 262.282 129.858 263.266 130.006C264.29 129.962 265.315 130.044 266.319 130.252C267.175 130.789 267.792 131.635 268.042 132.615Z" fill="black"/>
</svg>
