<svg width="325" height="302" viewBox="0 0 325 302" fill="none" xmlns="http://www.w3.org/2000/svg">
<path d="M137.379 215.024H137.068C136.798 214.935 136.572 214.745 136.437 214.495C136.303 214.244 136.269 213.952 136.343 213.677L144.114 188.626C144.252 188.201 144.303 187.752 144.262 187.307C144.222 186.862 144.093 186.429 143.881 186.035L139.892 178.263C139.893 178.057 139.952 177.854 140.064 177.68C140.176 177.506 140.334 177.368 140.522 177.281C140.71 177.194 140.918 177.162 141.123 177.189C141.328 177.216 141.521 177.301 141.679 177.434L145.643 185.206C146.313 186.492 146.452 187.989 146.032 189.377L138.26 214.428C138.174 214.593 138.049 214.734 137.895 214.838C137.741 214.942 137.564 215.006 137.379 215.024Z" fill="#37474F"/>
<path d="M127.405 220.544H127.224C126.943 220.493 126.694 220.334 126.529 220.102C126.364 219.869 126.297 219.582 126.343 219.3C126.528 218.062 127.005 216.885 127.735 215.867C128.465 214.849 129.426 214.019 130.54 213.445C131.658 212.864 132.885 212.523 134.143 212.442C135.401 212.362 136.662 212.545 137.845 212.979C138.1 213.103 138.296 213.32 138.393 213.586C138.49 213.853 138.479 214.146 138.363 214.404C138.235 214.661 138.012 214.858 137.742 214.954C137.472 215.051 137.174 215.039 136.912 214.922C136.031 214.628 135.099 214.516 134.173 214.592C133.247 214.667 132.346 214.93 131.524 215.363C130.704 215.778 129.998 216.387 129.465 217.136C128.933 217.885 128.59 218.752 128.467 219.663C128.424 219.912 128.293 220.138 128.098 220.299C127.904 220.461 127.658 220.548 127.405 220.544Z" fill="#37474F"/>
<path d="M131.135 224.325C130.879 224.328 130.63 224.238 130.434 224.071C130.239 223.904 130.111 223.672 130.073 223.418C129.878 222.047 129.966 220.649 130.332 219.313C130.697 217.976 131.332 216.729 132.198 215.647C132.811 214.833 133.59 214.159 134.483 213.668C135.376 213.177 136.363 212.88 137.379 212.797C137.641 212.814 137.888 212.925 138.075 213.11C138.262 213.296 138.375 213.542 138.394 213.804C138.413 214.066 138.336 214.327 138.178 214.537C138.02 214.747 137.791 214.893 137.534 214.947C136.827 215.015 136.143 215.232 135.526 215.585C134.91 215.938 134.375 216.418 133.959 216.994C133.295 217.839 132.804 218.808 132.515 219.844C132.226 220.88 132.144 221.962 132.275 223.03C132.313 223.311 132.239 223.596 132.069 223.823C131.9 224.05 131.649 224.203 131.369 224.247L131.135 224.325Z" fill="#37474F"/>
<path d="M136.498 225C136.318 224.999 136.141 224.954 135.983 224.868C135.824 224.782 135.69 224.658 135.591 224.508C134.313 221.829 133.993 218.793 134.685 215.907C134.82 215.293 135.084 214.715 135.459 214.21C135.834 213.705 136.312 213.286 136.861 212.979C137.111 212.899 137.381 212.913 137.622 213.017C137.863 213.121 138.059 213.308 138.172 213.545C138.286 213.782 138.31 214.051 138.24 214.304C138.171 214.558 138.012 214.777 137.793 214.922C137.523 215.102 137.292 215.335 137.114 215.606C136.936 215.878 136.814 216.183 136.757 216.502C136.249 218.794 136.476 221.187 137.405 223.342C137.481 223.46 137.532 223.593 137.557 223.732C137.581 223.871 137.577 224.013 137.546 224.151C137.514 224.288 137.456 224.418 137.374 224.532C137.292 224.647 137.188 224.744 137.068 224.818C136.898 224.928 136.701 224.991 136.498 225Z" fill="#37474F"/>
<path d="M140.643 217.563C140.502 217.557 140.364 217.522 140.237 217.46C140.11 217.399 139.997 217.312 139.905 217.205C139.813 217.099 139.744 216.974 139.701 216.84C139.659 216.705 139.644 216.564 139.659 216.423C139.671 216.255 139.645 216.085 139.582 215.928C139.519 215.771 139.421 215.63 139.296 215.517C138.824 215.13 138.219 214.944 137.612 214.999C137.472 215.024 137.328 215.021 137.189 214.989C137.05 214.956 136.92 214.896 136.806 214.811C136.691 214.725 136.596 214.618 136.525 214.494C136.454 214.37 136.41 214.233 136.394 214.092C136.357 213.811 136.431 213.526 136.6 213.299C136.77 213.071 137.021 212.919 137.301 212.874C137.918 212.791 138.546 212.843 139.141 213.027C139.735 213.21 140.283 213.521 140.747 213.936C141.103 214.263 141.383 214.665 141.567 215.113C141.751 215.561 141.833 216.044 141.809 216.527C141.802 216.672 141.767 216.815 141.704 216.946C141.642 217.077 141.553 217.195 141.445 217.291C141.336 217.388 141.209 217.462 141.071 217.508C140.934 217.555 140.788 217.574 140.643 217.563Z" fill="#37474F"/>
<path d="M115.773 202.59H115.462C115.192 202.5 114.966 202.311 114.832 202.061C114.697 201.81 114.663 201.517 114.737 201.243L122.509 176.191C122.65 175.768 122.705 175.32 122.669 174.875C122.634 174.43 122.509 173.996 122.301 173.601L118.312 165.829C118.241 165.704 118.197 165.566 118.183 165.424C118.168 165.282 118.183 165.138 118.227 165.001C118.271 164.865 118.342 164.739 118.437 164.632C118.532 164.525 118.648 164.438 118.778 164.378C118.902 164.31 119.038 164.268 119.179 164.254C119.319 164.239 119.461 164.253 119.596 164.294C119.731 164.335 119.857 164.402 119.965 164.492C120.074 164.583 120.164 164.693 120.229 164.819L124.193 172.59C124.863 173.876 125.002 175.374 124.581 176.761L116.809 201.813C116.739 202.034 116.601 202.228 116.416 202.367C116.23 202.507 116.005 202.584 115.773 202.59Z" fill="#37474F"/>
<path d="M105.903 208.107H105.721C105.441 208.056 105.192 207.898 105.027 207.665C104.862 207.433 104.795 207.145 104.841 206.864C105.013 205.624 105.482 204.444 106.208 203.425C106.935 202.406 107.896 201.577 109.011 201.009C110.134 200.427 111.366 200.085 112.628 200.005C113.89 199.924 115.155 200.108 116.343 200.543C116.469 200.603 116.582 200.689 116.675 200.793C116.768 200.898 116.84 201.02 116.886 201.153C116.931 201.285 116.95 201.425 116.942 201.565C116.933 201.705 116.897 201.842 116.835 201.967C116.777 202.096 116.693 202.211 116.59 202.307C116.486 202.403 116.364 202.477 116.231 202.525C116.099 202.574 115.958 202.595 115.817 202.588C115.676 202.581 115.538 202.546 115.41 202.486C114.529 202.192 113.597 202.08 112.671 202.155C111.745 202.231 110.844 202.493 110.022 202.926C109.198 203.336 108.488 203.943 107.955 204.693C107.421 205.443 107.081 206.313 106.965 207.226C106.917 207.473 106.785 207.696 106.591 207.857C106.398 208.017 106.154 208.106 105.903 208.107Z" fill="#37474F"/>
<path d="M109.607 211.891C109.352 211.888 109.106 211.796 108.912 211.63C108.717 211.464 108.588 211.236 108.545 210.984C108.366 209.611 108.464 208.215 108.833 206.88C109.203 205.545 109.836 204.298 110.695 203.212C111.309 202.399 112.088 201.724 112.981 201.233C113.874 200.742 114.861 200.445 115.877 200.362C116.016 200.352 116.157 200.369 116.289 200.413C116.422 200.457 116.545 200.526 116.651 200.618C116.757 200.709 116.844 200.821 116.907 200.946C116.969 201.071 117.007 201.207 117.017 201.347C117.038 201.631 116.947 201.913 116.763 202.131C116.579 202.349 116.316 202.486 116.032 202.513C115.325 202.58 114.64 202.798 114.024 203.151C113.408 203.504 112.873 203.984 112.457 204.559C111.786 205.401 111.291 206.369 111.002 207.406C110.713 208.443 110.635 209.528 110.773 210.595C110.81 210.876 110.737 211.161 110.567 211.388C110.398 211.616 110.146 211.768 109.866 211.813L109.607 211.891Z" fill="#37474F"/>
<path d="M115.048 212.564C114.868 212.564 114.69 212.518 114.532 212.432C114.374 212.346 114.24 212.223 114.141 212.072C112.868 209.401 112.548 206.375 113.234 203.497C113.357 202.875 113.615 202.287 113.992 201.777C114.368 201.266 114.852 200.845 115.41 200.544C115.66 200.464 115.931 200.477 116.172 200.581C116.413 200.685 116.608 200.873 116.722 201.109C116.835 201.346 116.86 201.616 116.79 201.869C116.72 202.122 116.562 202.341 116.343 202.487C116.073 202.667 115.842 202.899 115.663 203.171C115.485 203.442 115.364 203.747 115.307 204.067C114.779 206.355 114.997 208.751 115.928 210.906C116.006 211.023 116.059 211.155 116.085 211.292C116.111 211.43 116.11 211.572 116.081 211.709C116.052 211.847 115.996 211.977 115.917 212.092C115.837 212.208 115.735 212.307 115.618 212.383C115.446 212.49 115.25 212.552 115.048 212.564Z" fill="#37474F"/>
<path d="M119.141 205.129C119 205.123 118.862 205.088 118.735 205.026C118.608 204.965 118.495 204.878 118.403 204.771C118.311 204.664 118.242 204.54 118.199 204.405C118.157 204.271 118.142 204.129 118.156 203.989C118.169 203.82 118.143 203.651 118.08 203.494C118.017 203.337 117.919 203.196 117.794 203.082C117.317 202.706 116.716 202.521 116.11 202.564C115.97 202.59 115.826 202.587 115.687 202.554C115.548 202.522 115.418 202.461 115.303 202.376C115.189 202.291 115.094 202.183 115.023 202.06C114.952 201.936 114.908 201.799 114.892 201.658C114.87 201.518 114.876 201.375 114.91 201.238C114.944 201.101 115.005 200.971 115.09 200.858C115.174 200.745 115.28 200.649 115.402 200.577C115.524 200.506 115.659 200.459 115.799 200.44C116.416 200.361 117.042 200.414 117.637 200.597C118.231 200.781 118.779 201.089 119.244 201.502C119.602 201.827 119.882 202.229 120.061 202.678C120.241 203.127 120.316 203.611 120.281 204.093C120.281 204.238 120.252 204.382 120.193 204.515C120.135 204.648 120.049 204.767 119.941 204.865C119.834 204.962 119.707 205.036 119.569 205.082C119.431 205.127 119.285 205.143 119.141 205.129Z" fill="#37474F"/>
<path d="M217.973 118.525C216.082 113.888 204.269 104.25 176.212 102.463C177.797 106.026 180.127 109.209 183.045 111.796C185.963 114.383 189.402 116.316 193.129 117.463C201.15 120.123 209.754 120.49 217.973 118.525Z" fill="#DC872E"/>
<path d="M211.963 112.308C213.621 113.499 223.983 109.717 235.538 105.442C247.092 101.168 251.781 99.0695 253.672 99.3027C255.563 99.5358 259.786 104.251 262.143 107.075C264.436 106.481 266.796 106.194 269.164 106.22C271.211 106.608 280.589 116.997 280.744 119.173C280.744 120.287 274.164 121.271 274.164 121.271C277.364 124.461 279.993 128.176 281.936 132.255C282.739 134.432 261.781 134.25 249.061 133.784C236.341 133.318 223.388 132.592 223.388 132.592C215.849 127.23 211.212 120.805 211.963 112.308Z" fill="#DC872E"/>
<path d="M262.143 107.074C248.506 111.084 234.671 114.388 220.693 116.97C234.33 112.96 248.166 109.657 262.143 107.074Z" fill="#37474F"/>
<path d="M274.164 121.191C258.396 122.918 242.567 123.912 226.678 124.171C242.446 122.444 258.275 121.45 274.164 121.191Z" fill="#37474F"/>
<path d="M124.944 96.814C135.902 92.9539 163.518 94.2233 176.212 102.462L124.944 107.798V96.814Z" fill="#DC872E"/>
<path d="M183.958 159.948C177.152 162.86 170.624 166.38 164.451 170.466C157.793 175.052 131.239 187.772 107.457 179.274C88.0274 172.28 80.7995 162.073 75.2556 147.513C73.6856 142.733 71.4811 138.184 68.7013 133.99C67.2746 132.06 65.5211 130.394 63.52 129.068L60.774 125.363L53.598 115.571C53.4328 115.454 53.2846 115.314 53.1575 115.156C50.8001 112.41 50.0229 103.136 57.0176 92.2293C64.0123 81.3227 78.1312 76.5042 91.7061 77.9808L93.39 78.214C95.6327 78.5493 97.8489 79.0427 100.022 79.6906L101.784 80.2606C105.49 81.6601 108.979 83.5791 112.146 85.96C120.514 92.048 126.239 99.7162 132.56 101.193C156.169 114 174.405 134.846 183.958 159.948Z" fill="#DA9308"/>
<path d="M99.9702 79.6915C104.372 81.0722 108.507 83.1923 112.198 85.9609C109.756 95.1951 104.593 103.481 97.3796 109.743C85.5404 119.225 74.867 120.986 67.6651 119.743C67.6651 119.743 62.7429 122.774 68.8568 124.406L60.774 125.364L53.598 115.572C51.0074 113.473 49.6084 103.784 57.0176 92.2561C65.6703 78.6553 84.1156 74.9507 99.9702 79.6915Z" fill="#DC872E"/>
<path d="M119.737 92.23C118.208 90.857 116.602 89.4321 114.892 88.0332C116.602 89.3544 118.208 90.8311 119.737 92.23Z" fill="#37474F"/>
<path d="M132.586 101.219C128.551 99.7562 124.913 97.3697 121.965 94.25L111.473 113.576C107.431 128.913 109.167 146.71 121.965 156.14L183.958 159.948C174.416 134.854 156.188 114.015 132.586 101.219Z" fill="#37474F"/>
<path d="M98.9857 121.244L68.8568 124.405L60.774 125.363L63.52 129.094C65.525 130.404 70.5784 138.572 72 140.5C72 140.5 69.6858 131.399 75.9292 130.156C84.2136 129.059 92.1174 126.004 98.9857 121.244Z" fill="#37474F"/>
<path d="M97.3796 109.74C85.5404 119.196 74.8929 120.984 67.6651 119.766C67.6651 119.766 62.7429 122.771 68.8568 124.403C74.9707 126.035 100.566 125.232 111.473 113.575C121.576 102.798 121.965 94.2485 121.965 94.2485C118.862 91.3179 115.602 88.5591 112.198 85.9844C109.754 95.2105 104.591 103.488 97.3796 109.74Z" fill="#E0E0E0"/>
<path d="M134.918 159.948C147.43 163.031 165.384 165.699 183.958 159.948C202.533 154.197 215.616 145.052 220.486 137.746C225.357 130.441 226.859 122.203 217.74 123.135C221.393 119.197 215.616 114.327 204.942 115.234C206.549 112.488 199.761 109.742 194.58 110.363C198.336 108.032 184.217 102.436 165.953 101.218C154.834 100.487 143.679 100.487 132.56 101.218C132.56 101.218 125.436 146.839 134.918 159.948Z" fill="#DC872E"/>
<path opacity="0.25" d="M137.975 160.672C138.952 158.341 139.107 155.746 138.415 153.315C145.565 155.75 147.171 143.445 141.653 135.025C152.845 132.746 144.581 118.497 140.436 112.616L131.239 112.072C129.762 126.424 128.389 150.932 134.918 159.947L137.975 160.672Z" fill="black"/>
<path d="M46.2924 135.363C49.4788 136.451 53.1057 134.819 56.4994 134.145C60.3077 133.368 66.6029 131.554 66.6029 131.554C67.6955 130.762 68.5044 129.639 68.9102 128.351C69.316 127.064 69.2973 125.68 68.8568 124.404C64.7179 124.592 60.6502 125.55 56.8622 127.228C52.5498 128.721 48.84 131.576 46.2924 135.363Z" fill="#263238"/>
<path d="M60.9812 113.342C57.8466 111.529 55.8 113.342 53.5202 115.596C49.971 118.886 43.5722 129.87 43.0282 133.989C42.4842 138.108 49.9192 133.989 56.1626 130.57C62.406 127.15 66.6806 125.673 68.8567 124.404C71.0329 123.135 65.3594 115.855 60.9812 113.342Z" fill="#37474F"/>
<path d="M132.586 101.219C115.151 105.856 109.892 124.094 111.058 137.28C112.224 150.467 124.452 159.793 131.058 160.959C137.664 162.124 136.472 153.575 134.918 150.078C143.078 154.353 145.798 143.109 137.638 132.643C145.021 134.56 146.912 128.369 143.415 118.809C140.582 112.502 136.942 106.589 132.586 101.219Z" fill="#DC872E"/>
<path d="M215.46 124.769C206.652 128.732 199.036 134.691 190.409 138.991C182.42 142.742 173.837 145.066 165.047 145.856C162.456 146.167 159.606 146.4 156.886 146.53C154.166 146.659 151.135 146.53 148.259 146.841C148.078 146.841 148 147.281 148.259 147.307C153.226 147.924 158.252 147.881 163.207 147.178C167.91 146.725 172.576 145.946 177.171 144.846C181.272 143.901 185.265 142.538 189.088 140.779C193.218 138.73 197.223 136.437 201.082 133.914C205.77 130.812 210.612 127.95 215.59 125.339C215.797 125.339 215.745 124.665 215.59 124.769H215.46Z" fill="#263238"/>
<path d="M202.119 116.892C195.487 119.612 189.761 123.99 183.155 126.788C175.619 129.773 167.684 131.632 159.606 132.306C155.303 132.733 150.977 132.889 146.653 132.772C146.653 132.772 146.498 133.005 146.653 133.005C154.518 133.967 162.493 133.466 170.176 131.529C177.483 130.062 184.489 127.373 190.901 123.575C194.606 121.347 198.31 119.094 202.144 117.021C202.144 117.021 202.144 116.866 202.144 116.892H202.119Z" fill="#263238"/>
<path d="M145.047 109.119C151.239 108.756 157.482 108.601 163.7 108.549C169.917 108.497 176.057 108.886 182.223 108.834V108.652C176.032 107.832 169.785 107.529 163.544 107.746C157.362 107.754 151.186 108.126 145.047 108.86C144.918 108.86 144.892 109.119 145.047 109.119Z" fill="#263238"/>
<path d="M191.834 111.658C188.673 112.72 185.616 114.042 182.43 115.026C175.834 117.04 169.043 118.351 162.171 118.938C156.809 119.456 151.498 119.145 146.161 119.223C145.928 119.223 145.902 119.689 146.161 119.741C150.371 120.276 154.625 120.372 158.855 120.026C162.896 119.819 166.92 119.351 170.902 118.627C176.594 117.502 182.164 115.828 187.533 113.627C188.984 113.057 190.409 112.358 191.834 111.762V111.658Z" fill="#263238"/>
<path opacity="0.25" d="M217.947 140.907C202.041 155.648 173.389 160.673 156.394 158.886C139.399 157.098 135.902 153.497 135.902 153.497C135.902 153.497 134.348 158.886 128.13 155C122.443 151.28 117.988 145.956 115.327 139.703C112.666 133.45 111.92 126.548 113.182 119.871C111.244 125.457 110.494 131.387 110.98 137.28C112.146 150.466 124.374 159.793 130.98 160.958C131.655 161.146 132.368 161.152 133.046 160.974C133.725 160.797 134.343 160.443 134.84 159.948C147.353 163.031 165.306 165.699 183.881 159.948C199.942 155 211.833 147.539 217.947 140.907Z" fill="black"/>
<path d="M74.9706 110.907C74.9449 110.744 74.9449 110.578 74.9706 110.415C74.9706 110.13 75.1779 109.871 75.2815 109.586C75.3851 109.301 75.4629 108.472 75.6183 107.928C75.7512 107.48 75.9616 107.059 76.24 106.684C76.8363 105.953 77.6403 105.42 78.5457 105.156C79.4462 104.922 80.3913 104.922 81.2918 105.156C82.0406 105.336 82.7398 105.681 83.3384 106.166C83.5446 106.359 83.7808 106.516 84.0378 106.632C84.1726 106.691 84.3025 106.761 84.4264 106.84C84.5925 106.966 84.7127 107.143 84.7688 107.344C84.8249 107.545 84.8138 107.759 84.7373 107.954C84.7373 108.213 84.4005 108.394 84.2969 108.653C84.1947 108.993 84.1168 109.339 84.0638 109.689C83.9796 110.333 83.7268 110.942 83.331 111.456C82.9351 111.971 82.4104 112.371 81.8099 112.617C81.1338 112.844 80.4247 112.958 79.7114 112.953C78.9877 112.919 78.2764 112.753 77.613 112.461C76.9654 112.176 76.3436 111.788 75.6701 111.529C75.4771 111.491 75.2981 111.401 75.152 111.27C75.0471 111.177 74.9821 111.047 74.9706 110.907Z" fill="#343030"/>
</svg>
