<svg width="336" height="290" viewBox="0 0 336 290" fill="none" xmlns="http://www.w3.org/2000/svg">
<path d="M191.097 59.399C195.246 59.399 298.938 58.6748 328.181 58.6748C330.228 58.6748 327.638 55.1326 326.505 54.8886C322.907 54.1014 319.16 54.0542 315.484 53.6763C311.874 53.3365 308.336 52.45 304.992 51.0472C302.111 49.835 299.237 48.426 296.12 47.8986C290.083 46.954 284.793 50.2601 279.133 51.6691C277.416 52.1659 275.614 52.2972 273.844 52.0546C272.073 51.8119 270.373 51.2005 268.853 50.2601C266.24 48.6857 263.862 46.8123 261.123 45.4269C255.893 42.8513 250.187 41.3821 244.363 41.1112C238.539 40.8403 232.722 41.7736 227.275 43.8526C224.678 44.8505 222.195 46.1224 219.868 47.6467C217.105 49.4572 214.72 51.7714 211.949 53.5661C205.809 57.5019 198.221 56.2425 191.483 58.5253C191.152 58.7063 190.735 59.399 191.097 59.399Z" fill="#DDF7FA"/>
<path d="M6.36646 47.2213C10.3731 47.2213 77.8485 47.6621 82.0834 47.5283C82.3904 47.5283 82.5557 47.0717 82.2487 46.9222C79.5803 45.5997 76.5497 45.8595 73.771 44.9307C72.1337 44.3796 71.134 43.3091 69.9926 42.0811C69.056 41.0085 67.841 40.2157 66.4819 39.7905C65.2417 39.4173 63.9251 39.3766 62.6642 39.6724C61.3427 40.1119 60.0516 40.6378 58.7992 41.2467C55.5561 42.4668 52.4075 41.3018 50.0932 38.8853C48.1883 36.9016 46.307 35.036 43.7172 33.9734C42.6568 33.495 41.5094 33.2397 40.3462 33.2235C39.183 33.2072 38.0289 33.4303 36.9555 33.8789C34.4838 35.0046 32.7836 37.2558 30.4614 38.6019C27.7064 40.1762 24.4082 39.8299 21.3619 40.31C18.3156 40.7902 15.9856 43.3642 13.3171 44.8362C12.4469 45.3977 11.4398 45.7107 10.4046 45.7414C9.80635 45.7414 9.22385 45.5604 8.63348 45.4895C8.20833 45.3736 7.75966 45.3753 7.33541 45.4946C6.91116 45.6138 6.52728 45.846 6.22477 46.1665C6.07521 46.4263 6.1067 47.2213 6.36646 47.2213Z" fill="#DDF7FA"/>
<path d="M250.922 105.707C254.928 105.707 322.396 106.156 326.639 106.014C326.945 106.014 327.103 105.558 326.804 105.408C324.127 104.086 321.097 104.353 318.318 103.417C316.689 102.866 315.681 101.795 314.548 100.575C313.607 99.5052 312.394 98.7108 311.037 98.2764C309.794 97.9033 308.475 97.8626 307.211 98.1583C305.894 98.6026 304.606 99.1284 303.354 99.7327C300.111 100.953 296.963 99.7956 294.648 97.3712C292.736 95.3954 290.862 93.5298 288.264 92.4672C287.206 91.9871 286.06 91.7309 284.897 91.7147C283.735 91.6984 282.582 91.9225 281.511 92.3727C279.031 93.4905 277.339 95.7496 275.009 97.0957C272.254 98.67 268.963 98.3236 265.917 98.8117C262.871 99.2997 260.533 101.858 257.864 103.338C256.996 103.897 255.992 104.207 254.96 104.235C254.361 104.235 253.771 104.062 253.189 103.991C252.762 103.872 252.312 103.872 251.885 103.991C251.459 104.111 251.074 104.345 250.772 104.668C250.622 104.92 250.654 105.707 250.922 105.707Z" fill="#F2F3F7"/>
<path d="M51.9273 17.1752C52.006 17.3956 158.265 17.1752 156.927 17.1752C156.313 17.1752 157.856 16.2621 157.257 15.9629C153.794 14.2469 150.015 14.1997 146.237 13.8534C144.011 13.7569 141.825 13.2219 139.806 12.279C137.799 11.2242 136.555 9.4059 135.13 7.72925C132.941 5.13406 130.125 3.14027 126.95 1.93643C123.775 0.732579 120.346 0.358466 116.986 0.849467C109.429 2.03021 103.471 7.79222 95.906 8.84702C91.3562 9.48462 87.0583 7.72925 82.6187 7.10739C79.182 6.64328 75.687 7.29152 72.6454 8.95722C70.2839 10.1458 68.0326 11.1455 65.3248 11.3187C63.2388 11.4683 61.1528 11.2321 59.0275 11.2085C55.6151 11.2736 52.3436 12.5805 49.8256 14.8845C49.5265 15.1837 48.4559 17.1752 51.9273 17.1752Z" fill="#DDF7FA"/>
<path d="M246.734 107.77C246.734 107.77 208.289 193.153 271.041 193.208C333.794 193.263 293.216 104.912 293.216 104.912C293.216 104.912 307.755 98.5362 290.957 50.8736C274.159 3.21105 266.625 3.20318 259.635 3.19531C250.796 3.19531 242.538 23.8032 248.544 55.4706C248.536 55.4706 226.409 94.9625 246.734 107.77Z" fill="#429670"/>
<path d="M276.544 289.21L270.64 121.183L264.453 289.202L276.544 289.21Z" fill="#6E6060"/>
<path d="M273.041 175.127L250.268 148.466L268.121 178.646L273.041 175.127Z" fill="#6E6060"/>
<path d="M158.288 144.829C158.288 144.829 130.045 207.92 176.393 207.865C222.741 207.81 192.624 142.648 192.624 142.648C192.624 142.648 203.338 137.926 190.861 102.755C178.385 67.5848 172.812 67.6006 167.64 67.6006C161.114 67.6006 155.045 82.8479 159.532 106.219C159.532 106.219 143.269 135.407 158.288 144.829Z" fill="#429670"/>
<path d="M180.534 289.037L175.96 154.692L171.599 289.053L180.534 289.037Z" fill="#6E6060"/>
<path d="M177.818 194.523L160.965 174.867L174.197 197.128L177.818 194.523Z" fill="#6E6060"/>
<path d="M223.237 124.67C223.237 124.67 240.011 118.034 253.299 141.2C266.917 164.965 249.796 180.598 236.225 171.262C236.225 171.262 225.551 193.609 204.266 188.265C182.982 182.92 179.534 165.878 179.534 165.878C179.534 165.878 160.642 167.192 160.115 153.078C159.587 138.965 173.457 126.472 173.457 126.472C173.457 126.472 174.291 91.3336 197.182 91.6248C220.073 91.9161 223.237 124.67 223.237 124.67Z" fill="#48B985"/>
<path d="M207.525 288.533L202.85 144.616L197.946 288.525L207.525 288.533Z" fill="#6E6060"/>
<path d="M204.29 183.793L218.955 154.598L201.393 179.283L204.29 183.793Z" fill="#6E6060"/>
<path d="M44.4178 92.0263C44.4178 92.0263 23.1645 83.6116 6.32712 112.973C-10.9353 143.082 10.7667 162.887 27.9504 151.063C27.9504 151.063 41.4738 179.401 68.4498 172.608C95.4258 165.815 99.7867 144.27 99.7867 144.27C99.7867 144.27 123.732 145.931 124.385 128.055C125.039 110.178 107.485 94.3485 107.485 94.3485C107.485 94.3485 106.422 49.8267 77.4235 50.1966C48.4245 50.5666 44.4178 92.0263 44.4178 92.0263Z" fill="#48B985"/>
<path d="M64.3173 289.123L70.2446 117.286L76.4553 289.115L64.3173 289.123Z" fill="#6E6060"/>
<path d="M68.4891 167.074L49.8334 129.936L71.5512 161.272L68.4891 167.074Z" fill="#6E6060"/>
<path d="M283.754 148.584C283.754 148.584 270.112 143.192 259.313 162.028C248.237 181.353 262.162 194.058 273.19 186.43C273.19 186.43 281.849 204.598 299.166 200.253C316.484 195.908 319.278 182.132 319.278 182.132C319.278 182.132 334.644 183.195 335.061 171.726C335.478 160.257 324.222 150.095 324.222 150.095C324.222 150.095 323.537 121.529 304.928 121.757C286.32 121.985 283.754 148.584 283.754 148.584Z" fill="#48B985"/>
<path d="M296.522 289.162L300.324 164.799L304.315 289.147L296.522 289.162Z" fill="#6E6060"/>
<path d="M299.198 196.742L287.225 172.915L301.166 193.019L299.198 196.742Z" fill="#6E6060"/>
<path d="M121.969 289.187H10.1921C8.80742 287.325 7.74325 285.244 7.04344 283.031C6.09884 279.631 6.97259 275.113 10.5306 273.585C12.8133 272.586 15.2535 273.42 17.615 273.475C17.9732 273.535 18.341 273.493 18.6765 273.354C19.0119 273.215 19.3015 272.984 19.5121 272.688C19.7705 272.205 19.8325 271.641 19.6852 271.114C19.3861 269.902 18.2211 269.122 17.2529 268.461C17.2157 268.439 17.1839 268.408 17.1599 268.372C17.1359 268.336 17.1203 268.295 17.1143 268.252C17.1082 268.209 17.1119 268.165 17.125 268.123C17.1381 268.082 17.1603 268.044 17.1899 268.012C18.1946 267.168 19.4567 266.691 20.7687 266.659C22.0806 266.628 23.3642 267.044 24.4082 267.839C25.6204 266.54 25.093 264.58 24.298 263.163C23.503 261.747 22.0546 260.495 21.0706 259.062C20.2206 257.964 19.8336 256.577 19.9922 255.197C20.3243 253.787 21.1651 252.548 22.3537 251.718C24.2665 250.191 27.5726 248.467 29.8317 250.286C32.2877 252.261 30.7212 255.961 32.327 258.378C32.5201 258.734 32.7922 259.041 33.1224 259.276C33.4526 259.51 33.8321 259.666 34.232 259.731C34.5958 259.708 34.9475 259.591 35.2535 259.392C35.5594 259.194 35.8093 258.921 35.9795 258.598C36.5541 257.811 37.0185 256.803 37.9946 256.465C37.727 253.985 37.0894 251.569 36.8532 249.089C36.5069 245.507 37.3098 240.871 41.0566 239.344C41.782 239.033 42.5647 238.877 43.354 238.888C44.1432 238.899 44.9214 239.076 45.6379 239.407C46.3651 239.808 46.9692 240.399 47.3853 241.118C47.8014 241.836 48.0137 242.654 47.9994 243.484C48.0939 245.602 47.3775 247.688 47.6294 249.782C47.7869 251.073 48.4166 252.442 49.9909 252.143C51.0421 251.822 52.0152 251.286 52.8483 250.569C53.9897 249.782 55.9969 248.9 57.1619 250.073C57.8704 250.766 57.7681 251.86 58.382 252.6C58.7226 252.927 59.1293 253.177 59.5747 253.333C60.0201 253.489 60.4939 253.548 60.9639 253.505C62.8374 253.505 64.64 253.08 66.5213 253.237C68.3055 253.362 70.041 253.876 71.6063 254.741C73.1157 255.601 74.3184 256.911 75.0462 258.488C75.676 259.85 76.7701 263.014 78.8089 261.636C79.6017 260.924 80.2394 260.056 80.6823 259.086C81.2097 258.204 81.7371 257.315 82.3196 256.465C83.3329 254.847 84.7207 253.497 86.3656 252.529C88.0409 251.651 89.9718 251.39 91.8199 251.793C93.6679 252.196 95.3152 253.237 96.4727 254.733C97.598 256.268 98.1546 258.146 98.0471 260.046C97.9211 262.25 96.4255 264.108 96.331 266.296C96.269 266.82 96.3462 267.35 96.5549 267.834C96.7636 268.318 97.0964 268.738 97.5197 269.051C98.6689 269.736 100.086 269.114 101.267 268.847C102.447 268.579 104.518 268.713 105.053 270.153C105.147 270.472 105.16 270.809 105.09 271.134C105.02 271.458 104.869 271.76 104.651 272.011C104.399 272.35 104.092 272.649 103.864 273.011C103.565 273.523 103.62 273.751 104.092 274.058C105.478 274.995 107.359 274.664 108.941 274.845C118.261 275.679 121.552 286.613 121.969 289.187Z" fill="#7BD5A7"/>
<g opacity="0.2">
<path d="M42.9695 270.972C41.592 277.143 40.2538 283.212 41.8596 289.187H40.5765C40.1042 287.998 39.6477 286.825 39.1833 285.597C34.5862 283.456 29.635 285.18 24.7861 284.582C20.9998 284.117 16.9617 282.275 14.553 279.237C14.5355 279.198 14.5301 279.155 14.5375 279.113C14.5449 279.071 14.5647 279.032 14.5944 279.002C14.6241 278.971 14.6623 278.95 14.7041 278.941C14.7458 278.933 14.7892 278.937 14.8285 278.953C16.8438 280.622 19.131 281.932 21.5902 282.826C21.0786 282.22 20.5826 281.59 20.0159 281.024C19.2287 280.189 18.2999 279.489 17.4183 278.725C17.371 278.686 17.4183 278.607 17.4891 278.639C18.4739 279.271 19.3941 279.999 20.2363 280.811C21.0293 281.49 21.7495 282.25 22.3852 283.078C23.9885 283.544 25.6511 283.775 27.3207 283.763C31.1306 283.763 35.397 282.905 38.8448 284.841C38.5535 284.117 38.2544 283.393 37.9317 282.685C36.5819 279.681 35.0029 276.787 33.2087 274.026C31.3693 271.346 29.7553 268.518 28.3834 265.572C27.2074 262.67 26.4315 259.622 26.077 256.512C26.077 256.354 26.2974 256.275 26.3289 256.441C27.3129 261.911 29.9656 266.619 32.8466 271.239C31.9571 268.571 31.2723 265.847 30.1073 263.242C30.0286 263.053 30.2962 262.888 30.3907 263.076C31.965 266.225 33.6102 269.696 34.0903 273.207L34.6728 274.136C36.7434 277.405 38.4988 280.863 39.9153 284.464C39.7185 280.622 40.5372 276.592 41.3165 273.065C42.3167 269.13 42.9361 265.107 43.1663 261.053C43.1663 260.691 43.1663 260.337 43.1663 259.975C40.9186 255.31 39.9826 250.121 40.4584 244.964C40.4584 244.895 40.4858 244.829 40.5345 244.78C40.5832 244.731 40.6493 244.704 40.7182 244.704C40.7871 244.704 40.8532 244.731 40.9019 244.78C40.9506 244.829 40.978 244.895 40.978 244.964C40.9307 247.761 41.1362 250.556 41.592 253.316C41.9762 255.154 42.5026 256.959 43.1663 258.716C43.0415 255.478 42.7525 252.249 42.3004 249.041C42.261 248.766 42.694 248.727 42.7648 248.971C44.8114 256.244 44.5832 263.659 42.9695 270.972Z" fill="black"/>
<path d="M67.8124 262.652C66.9568 264.348 66 265.99 64.9471 267.571C64.6974 268.917 64.3178 270.235 63.8136 271.507C63.1284 273.223 62.1241 274.794 60.8539 276.136C59.2796 277.757 57.7761 279.166 57.3274 281.339C58.6345 283.768 59.3898 286.456 59.5393 289.21H58.6183C57.8312 284.204 55.2886 280.119 52.998 275.561C50.9907 271.562 49.3141 266.351 51.3135 262.022C51.4316 261.77 51.8015 261.951 51.7386 262.195C50.3768 267.981 52.8091 272.838 55.5091 277.82C55.9262 278.607 56.3513 279.395 56.7685 280.182C57.0279 279.179 57.5064 278.246 58.1697 277.45C59.5393 275.726 61.153 274.302 62.192 272.342C64.4906 267.973 64.1206 263.25 64.7661 258.527C64.7661 258.267 65.1518 258.377 65.1754 258.582C65.5178 261.121 65.5178 263.694 65.1754 266.233C65.824 264.909 66.5713 263.636 67.4109 262.423C67.4469 262.383 67.4956 262.356 67.5489 262.348C67.6022 262.339 67.6569 262.349 67.7039 262.375C67.7509 262.402 67.7873 262.444 67.807 262.494C67.8268 262.545 67.8286 262.6 67.8124 262.652Z" fill="black"/>
<path d="M91.6948 259.582C91.25 262.032 90.2243 264.34 88.7036 266.312C87.5386 267.839 85.7281 268.815 84.5867 270.342C83.6185 272.373 82.5165 274.333 81.4381 276.285C80.3597 278.238 78.1084 281.158 79.1396 283.645C79.1502 283.67 79.1545 283.696 79.1521 283.723C79.1496 283.749 79.1405 283.775 79.1256 283.797C79.1107 283.819 79.0904 283.837 79.0667 283.849C79.043 283.861 79.0166 283.867 78.99 283.866C80.2411 285.369 80.9287 287.262 80.9343 289.218H80.3912C79.785 281.984 69.4969 280.064 69.3709 272.594C69.3709 272.247 69.914 272.169 69.977 272.515C70.7642 276.569 73.9128 278.812 76.7623 281.481C77.3626 282.035 77.9303 282.624 78.4626 283.244C77.7463 281.74 78.2658 280.095 78.9821 278.592C80.1157 276.23 81.5168 273.987 82.7369 271.665C84.0571 269.259 85.1608 266.741 86.0351 264.14C86.7841 261.482 87.1447 258.73 87.1056 255.969C87.1075 255.934 87.1214 255.901 87.145 255.875C87.1686 255.85 87.2004 255.833 87.235 255.828C87.2695 255.824 87.3046 255.831 87.3341 255.85C87.3637 255.868 87.3859 255.896 87.3969 255.929C88.3572 259.96 87.0584 264.588 85.4683 268.367C86.0666 267.808 86.7042 267.28 87.2395 266.69C89.1365 264.588 90.1126 262.014 91.1753 259.432C91.2086 259.382 91.257 259.344 91.3136 259.323C91.3702 259.302 91.4319 259.3 91.4899 259.317C91.5478 259.333 91.5989 259.368 91.6358 259.416C91.6726 259.463 91.6933 259.522 91.6948 259.582Z" fill="black"/>
<path d="M112.436 281.315C109.996 281.669 107.627 282.244 105.14 282.378C102.606 282.513 100.066 282.384 97.5592 281.992C94.4656 281.52 91.3485 280.796 88.2864 281.118C89.2165 280.706 90.1207 280.239 90.9942 279.717C94.0591 277.872 96.4533 275.094 97.8268 271.791C97.9449 271.468 97.4883 271.342 97.3151 271.578C95.8904 273.436 94.7175 275.333 92.9543 276.915C90.9942 278.67 88.7272 279.694 86.4051 280.851C84.6405 281.63 83.0785 282.804 81.8396 284.283C81.5247 284.7 79.9897 286.833 80.9265 287.29C80.9493 287.306 80.9769 287.315 81.0052 287.315C81.0335 287.315 81.061 287.306 81.0839 287.29L81.139 287.227C81.1783 287.18 81.139 287.093 81.139 287.085C80.9343 287.085 82.7684 284.511 82.7999 284.487C83.4925 283.806 84.2673 283.214 85.1063 282.724C85.5235 282.472 85.9643 282.244 86.4051 282.032C90.5849 281.244 94.8592 282.748 98.9997 283.244C103.353 283.771 108.532 283.716 112.641 282.008C112.733 281.981 112.81 281.918 112.856 281.834C112.902 281.75 112.912 281.651 112.885 281.559C112.858 281.467 112.796 281.39 112.711 281.344C112.627 281.299 112.528 281.288 112.436 281.315Z" fill="black"/>
<path d="M58.02 286.991C56.7842 285.196 54.7691 284.189 52.9743 283.055C50.4955 281.663 48.6155 279.407 47.6925 276.718C47.6138 276.474 47.173 276.49 47.2123 276.789C47.905 282.48 53.793 284.118 57.6501 287.266C57.839 287.432 58.1775 287.227 58.02 286.991Z" fill="black"/>
<path d="M32.461 283.401C31.5793 281.228 29.4776 279.693 27.738 278.19C26.7503 277.367 25.8531 276.44 25.0616 275.427C24.09 273.934 23.3446 272.305 22.8497 270.594C22.8382 270.553 22.8111 270.519 22.7742 270.498C22.7372 270.477 22.6936 270.472 22.6529 270.484C22.6122 270.495 22.5777 270.522 22.5571 270.559C22.5364 270.596 22.5313 270.64 22.5427 270.68C23.038 273.386 24.3098 275.888 26.203 277.883C28.1631 279.835 30.312 281.472 32.1776 283.543C32.3035 283.676 32.5161 283.543 32.461 283.401Z" fill="black"/>
</g>
<g opacity="0.1">
<path d="M37.7505 261.777C37.6675 261.895 37.5536 261.988 37.4213 262.046C37.289 262.103 37.1434 262.123 37.0004 262.104C36.8574 262.084 36.7225 262.026 36.6104 261.935C36.4984 261.844 36.4135 261.724 36.3651 261.588C36.3575 261.533 36.3575 261.477 36.3651 261.423C36.3356 261.277 36.3521 261.126 36.4124 260.99C36.4511 260.857 36.5238 260.738 36.6232 260.642C36.7227 260.547 36.8454 260.48 36.9791 260.447C37.6561 260.289 38.1048 261.155 37.7505 261.777Z" fill="black"/>
<path d="M108.705 279.165C108.636 279.303 108.525 279.415 108.389 279.486C108.253 279.558 108.098 279.585 107.945 279.564C107.793 279.543 107.651 279.476 107.539 279.37C107.427 279.265 107.35 279.127 107.32 278.977C107.312 278.922 107.312 278.866 107.32 278.811C107.29 278.666 107.307 278.514 107.367 278.378C107.406 278.246 107.478 278.126 107.578 278.031C107.677 277.936 107.8 277.868 107.934 277.835C108.587 277.678 109.067 278.544 108.705 279.165Z" fill="black"/>
<path d="M39.6475 262.887C39.6511 262.866 39.6511 262.845 39.6475 262.824C39.6659 262.745 39.6648 262.663 39.6442 262.585C39.6236 262.507 39.5842 262.435 39.5295 262.375C39.4986 262.347 39.4642 262.323 39.4271 262.304C39.3826 262.266 39.3297 262.239 39.2728 262.226C39.2159 262.212 39.1566 262.212 39.0997 262.226C39.0428 262.24 38.9901 262.267 38.9457 262.305C38.9014 262.344 38.8668 262.392 38.8446 262.446C38.64 262.871 39.1359 263.438 39.5058 263.084C39.5427 263.04 39.5744 262.993 39.6003 262.942L39.6475 262.887Z" fill="black"/>
<path d="M83.7049 259.439V259.384C83.6625 259.315 83.6037 259.257 83.5337 259.216C83.4637 259.175 83.3846 259.152 83.3035 259.148C83.2645 259.141 83.2244 259.141 83.1854 259.148C83.1272 259.151 83.0705 259.168 83.0202 259.198C82.9699 259.227 82.9274 259.268 82.8965 259.318C82.8656 259.367 82.8471 259.424 82.8426 259.482C82.8381 259.54 82.8477 259.598 82.8706 259.652C83.028 260.101 83.7758 260.156 83.7837 259.652C83.7913 259.597 83.7913 259.541 83.7837 259.487L83.7049 259.439Z" fill="black"/>
<path d="M39.8522 260.179C39.7829 260.148 39.7045 260.145 39.6329 260.17C39.5614 260.195 39.5019 260.246 39.4665 260.313C39.4531 260.341 39.4462 260.372 39.4462 260.403C39.4462 260.435 39.4531 260.466 39.4665 260.494C39.4692 260.56 39.4943 260.623 39.5376 260.673C39.581 260.723 39.64 260.756 39.705 260.768C39.77 260.78 39.8372 260.77 39.8954 260.738C39.9536 260.707 39.9994 260.657 40.0254 260.596C40.0529 260.518 40.0505 260.431 40.0185 260.354C39.9866 260.277 39.9273 260.215 39.8522 260.179Z" fill="black"/>
<path d="M55.4144 251.757C55.3808 251.741 55.3444 251.732 55.3072 251.73C55.27 251.728 55.2328 251.733 55.1977 251.746C55.1626 251.758 55.1304 251.777 55.1027 251.802C55.075 251.827 55.0526 251.857 55.0365 251.891C55.0232 251.919 55.0163 251.95 55.0163 251.981C55.0163 252.013 55.0232 252.044 55.0365 252.072C55.0362 252.139 55.0597 252.204 55.1028 252.255C55.146 252.307 55.2059 252.341 55.272 252.353C55.3381 252.364 55.4061 252.351 55.4639 252.317C55.5217 252.283 55.5655 252.23 55.5876 252.166C55.6166 252.089 55.6149 252.003 55.5827 251.927C55.5504 251.851 55.4902 251.79 55.4144 251.757Z" fill="black"/>
<path d="M85.1454 256.912C85.0742 256.938 85.0155 256.989 84.9817 257.057C84.9479 257.124 84.9417 257.202 84.9644 257.274C84.9718 257.305 84.9854 257.333 85.0044 257.357C85.0234 257.381 85.0473 257.402 85.0746 257.416C85.1204 257.467 85.183 257.499 85.2507 257.507C85.3185 257.515 85.3869 257.499 85.4434 257.46C85.4998 257.422 85.5406 257.365 85.5582 257.299C85.5757 257.233 85.5689 257.163 85.539 257.101C85.509 257.026 85.4519 256.965 85.379 256.93C85.3061 256.895 85.2227 256.889 85.1454 256.912Z" fill="black"/>
</g>
<path d="M171.048 289.186H323.561C325.459 286.647 326.92 283.808 327.882 280.787C329.173 276.143 327.969 269.972 323.12 267.846C319.971 266.485 316.642 267.618 313.414 267.705C312.43 267.705 311.36 267.602 310.824 266.681C310.477 266.015 310.392 265.242 310.588 264.517C310.998 262.864 312.596 261.809 313.918 260.904C313.969 260.872 314.012 260.829 314.044 260.778C314.076 260.727 314.096 260.669 314.102 260.61C314.109 260.55 314.103 260.49 314.083 260.433C314.063 260.376 314.031 260.325 313.989 260.282C312.619 259.131 310.898 258.482 309.109 258.44C307.321 258.399 305.571 258.968 304.149 260.054C302.488 258.275 303.213 255.598 304.299 253.662C305.472 251.584 307.353 250.025 308.699 248.065C309.862 246.571 310.393 244.68 310.179 242.799C309.713 240.885 308.565 239.206 306.952 238.076C304.338 235.99 299.828 233.636 296.718 236.116C293.365 238.824 295.506 243.87 293.31 247.136C293.057 247.632 292.691 248.062 292.243 248.392C291.795 248.723 291.277 248.945 290.728 249.041C290.232 249.005 289.754 248.841 289.34 248.565C288.926 248.289 288.591 247.911 288.367 247.467C287.58 246.357 286.95 245.019 285.62 244.554C285.982 241.177 286.848 237.871 287.194 234.487C287.658 229.606 286.564 223.27 281.455 221.184C280.464 220.761 279.395 220.55 278.317 220.565C277.24 220.58 276.177 220.82 275.198 221.27C273.072 222.333 272.049 224.537 271.97 226.835C271.844 229.724 272.828 232.574 272.482 235.494C272.269 237.265 271.403 239.131 269.333 238.722C267.845 238.43 266.649 237.438 265.397 236.596C263.823 235.51 261.147 234.321 259.509 235.919C258.533 236.864 258.675 238.352 257.833 239.367C256.991 240.382 255.55 240.587 254.314 240.603C251.764 240.642 249.292 240.02 246.726 240.233C244.291 240.405 241.924 241.109 239.791 242.295C237.749 243.453 236.12 245.22 235.131 247.349C234.273 249.206 232.77 253.528 229.991 251.615C228.826 250.828 228.141 249.317 227.433 248.136C226.724 246.955 225.992 245.719 225.197 244.554C223.824 242.332 221.933 240.474 219.687 239.139C217.399 237.945 214.764 237.592 212.243 238.141C209.721 238.691 207.472 240.108 205.888 242.146C204.339 244.238 203.563 246.803 203.692 249.403C203.865 252.41 205.912 254.953 206.053 257.928C206.108 259.306 205.707 260.943 204.44 261.691C202.865 262.62 200.929 261.777 199.315 261.407C197.702 261.037 194.884 261.234 194.151 263.194C194.024 263.629 194.007 264.089 194.104 264.532C194.2 264.975 194.406 265.386 194.703 265.729C195.041 266.193 195.49 266.603 195.757 267.099C196.175 267.799 196.096 268.098 195.45 268.531C193.553 269.799 190.987 269.318 188.83 269.555C176.102 270.743 171.623 285.668 171.048 289.186Z" fill="#7BD5A7"/>
<g opacity="0.2">
<path d="M278.874 264.312C280.731 272.743 282.581 281.016 280.393 289.218H282.148C282.794 287.589 283.408 285.951 284.045 284.322C290.343 281.394 297.073 283.747 303.724 282.937C308.896 282.299 314.406 279.788 317.696 275.64C317.741 275.584 317.764 275.513 317.76 275.442C317.756 275.37 317.725 275.303 317.675 275.252C317.624 275.201 317.557 275.171 317.485 275.167C317.414 275.163 317.343 275.186 317.287 275.23C314.53 277.521 311.395 279.314 308.022 280.528C308.723 279.701 309.392 278.835 310.155 278.064C311.273 276.931 312.517 275.97 313.706 274.915C313.776 274.86 313.706 274.75 313.611 274.797C312.268 275.658 311.013 276.65 309.864 277.757C308.782 278.682 307.8 279.719 306.936 280.851C304.744 281.487 302.472 281.803 300.19 281.787C294.987 281.787 289.17 280.614 284.447 283.259C284.848 282.275 285.234 281.284 285.69 280.307C287.538 276.217 289.687 272.27 292.122 268.5C294.53 264.745 297.01 261.038 298.765 256.929C300.366 252.967 301.425 248.807 301.914 244.562C301.914 244.342 301.615 244.24 301.575 244.468C300.237 251.922 296.616 258.361 292.68 264.659C293.885 261.014 294.877 257.299 296.412 253.749C296.522 253.489 296.16 253.261 296.026 253.52C293.908 257.795 291.634 262.557 290.98 267.343L290.193 268.61C287.364 273.071 284.968 277.792 283.038 282.708C283.305 277.458 282.188 271.948 281.117 267.138C279.913 261.707 278.756 256.331 278.582 250.742C278.582 250.246 278.582 249.758 278.582 249.262C281.644 242.9 282.923 235.827 282.282 228.796C282.282 228.702 282.245 228.612 282.178 228.545C282.112 228.479 282.022 228.441 281.928 228.441C281.834 228.441 281.744 228.479 281.677 228.545C281.611 228.612 281.574 228.702 281.574 228.796C281.632 232.61 281.35 236.422 280.731 240.186C280.211 242.696 279.498 245.161 278.598 247.562C278.77 243.138 279.172 238.727 279.803 234.345C279.85 233.967 279.259 233.92 279.165 234.259C276.363 244.216 276.67 254.331 278.874 264.312Z" fill="black"/>
<path d="M244.971 252.976C246.147 255.293 247.462 257.538 248.906 259.698C249.263 261.523 249.79 263.31 250.481 265.035C251.419 267.372 252.792 269.508 254.527 271.333C256.621 273.545 258.722 275.465 259.328 278.417C257.675 281.833 256.329 285.502 256.314 289.201H257.573C258.644 282.369 262.115 276.788 265.24 270.569C267.987 265.106 270.27 257.975 267.539 252.087C267.381 251.748 266.877 252 266.956 252.331C268.822 260.202 265.5 266.854 261.816 273.655C261.249 274.71 260.667 275.788 260.092 276.89C259.742 275.519 259.088 274.244 258.179 273.159C256.314 270.797 254.11 268.892 252.669 266.185C249.52 260.226 250.04 253.779 249.158 247.332C249.111 246.978 248.631 247.127 248.599 247.411C248.131 250.877 248.131 254.39 248.599 257.857C247.711 256.038 246.688 254.288 245.537 252.622C245.514 252.585 245.484 252.552 245.448 252.527C245.412 252.501 245.372 252.483 245.329 252.473C245.286 252.464 245.242 252.462 245.199 252.469C245.156 252.477 245.114 252.492 245.077 252.516C245.04 252.539 245.007 252.569 244.982 252.605C244.956 252.641 244.938 252.681 244.928 252.724C244.919 252.767 244.917 252.811 244.924 252.854C244.932 252.897 244.947 252.939 244.971 252.976Z" fill="black"/>
<path d="M212.406 248.765C213.007 252.111 214.408 255.263 216.491 257.951C218.066 260.045 220.553 261.375 222.104 263.461C223.426 266.24 224.93 268.908 226.441 271.585C228.015 274.41 230.991 278.236 229.59 281.629C229.519 281.802 229.66 281.912 229.802 281.928C228.097 283.981 227.159 286.564 227.149 289.233H227.889C228.716 279.354 242.759 276.74 242.885 266.539C242.885 266.074 242.145 265.956 242.058 266.429C241.019 271.939 236.69 275.087 232.801 278.669C231.968 279.426 231.18 280.23 230.44 281.078C231.416 279.023 230.707 276.764 229.731 274.733C228.157 271.498 226.268 268.436 224.599 265.287C222.8 262.016 221.296 258.592 220.104 255.054C218.931 251.347 218.742 247.757 218.64 243.9C218.644 243.874 218.642 243.848 218.636 243.823C218.629 243.797 218.618 243.774 218.602 243.753C218.586 243.732 218.567 243.715 218.544 243.701C218.522 243.688 218.497 243.679 218.471 243.676C218.445 243.672 218.419 243.674 218.393 243.68C218.368 243.687 218.345 243.698 218.324 243.714C218.303 243.73 218.285 243.749 218.272 243.772C218.259 243.794 218.25 243.819 218.247 243.845C216.932 249.355 218.711 255.652 220.876 260.816C220.089 260.029 219.183 259.336 218.467 258.533C215.869 255.668 214.531 252.15 213.122 248.623C213.082 248.553 213.021 248.498 212.947 248.465C212.874 248.431 212.792 248.422 212.713 248.438C212.634 248.453 212.562 248.493 212.507 248.552C212.452 248.61 212.417 248.685 212.406 248.765Z" fill="black"/>
<path d="M184.068 278.434C187.406 278.914 190.633 279.701 194.026 279.89C197.485 280.07 200.954 279.891 204.377 279.355C208.604 278.709 212.855 277.717 217.034 278.166C215.764 277.602 214.529 276.964 213.335 276.253C209.399 273.837 205.621 269.822 204.015 265.43C203.849 264.989 204.471 264.824 204.715 265.139C206.652 267.673 208.258 270.263 210.666 272.428C213.335 274.789 216.436 276.214 219.6 277.82C222.01 278.883 224.143 280.485 225.835 282.503C226.268 283.078 228.354 285.983 227.079 286.604C227.046 286.627 227.008 286.64 226.968 286.64C226.929 286.64 226.89 286.627 226.858 286.604L226.787 286.518C226.772 286.504 226.761 286.487 226.756 286.468C226.75 286.449 226.749 286.429 226.754 286.409C226.759 286.39 226.769 286.372 226.783 286.358C226.797 286.344 226.815 286.334 226.834 286.329C227.11 286.282 224.607 282.818 224.567 282.779C223.624 281.848 222.566 281.041 221.419 280.378C220.844 280.032 220.246 279.725 219.648 279.425C213.941 278.323 208.1 280.409 202.433 281.086C196.489 281.803 189.429 281.732 183.808 279.402C183.68 279.367 183.57 279.283 183.504 279.168C183.438 279.053 183.42 278.916 183.454 278.788C183.489 278.66 183.573 278.55 183.688 278.484C183.803 278.417 183.94 278.399 184.068 278.434Z" fill="black"/>
<path d="M258.337 286.179C260.013 283.731 262.768 282.353 265.224 280.819C268.719 278.63 271.073 276.096 272.427 272.16C272.537 271.829 273.135 271.853 273.088 272.254C272.136 280.023 264.099 282.259 258.833 286.557C258.573 286.777 258.116 286.502 258.337 286.179Z" fill="black"/>
<path d="M293.224 281.314C294.42 278.346 297.293 276.253 299.615 274.23C300.964 273.104 302.191 271.841 303.276 270.459C304.748 268.475 305.464 266.153 306.29 263.863C306.306 263.806 306.344 263.759 306.394 263.73C306.445 263.701 306.506 263.694 306.562 263.709C306.618 263.725 306.666 263.762 306.695 263.813C306.724 263.864 306.731 263.924 306.716 263.981C305.842 267.712 304.48 271.065 301.725 273.805C298.97 276.544 296.105 278.716 293.57 281.534C293.436 281.621 293.145 281.464 293.224 281.314Z" fill="black"/>
</g>
<g opacity="0.1">
<path d="M286.005 251.765C286.101 251.95 286.252 252.101 286.437 252.196C286.622 252.292 286.832 252.328 287.038 252.3C287.244 252.271 287.436 252.18 287.588 252.037C287.74 251.895 287.845 251.709 287.887 251.505C287.907 251.433 287.921 251.36 287.926 251.285C287.926 251.285 287.926 251.285 287.926 251.246C287.962 251.047 287.941 250.842 287.863 250.655C287.81 250.473 287.709 250.308 287.57 250.178C287.432 250.048 287.261 249.957 287.076 249.915C286.856 249.905 286.637 249.956 286.443 250.062C286.25 250.168 286.089 250.324 285.979 250.515C285.868 250.706 285.813 250.923 285.817 251.144C285.822 251.364 285.887 251.579 286.005 251.765Z" fill="black"/>
<path d="M189.153 275.499C189.251 275.682 189.402 275.832 189.587 275.926C189.773 276.021 189.982 276.057 190.188 276.029C190.395 276 190.587 275.909 190.74 275.768C190.892 275.627 190.998 275.442 191.042 275.239C191.064 275.167 191.077 275.093 191.082 275.018C191.079 275.005 191.079 274.992 191.082 274.979C191.119 274.78 191.095 274.573 191.011 274.389C190.96 274.206 190.859 274.041 190.72 273.912C190.581 273.783 190.41 273.694 190.224 273.657C189.311 273.444 188.665 274.648 189.153 275.499Z" fill="black"/>
<path d="M283.415 253.284C283.412 253.255 283.412 253.226 283.415 253.198C283.389 253.089 283.389 252.976 283.417 252.867C283.444 252.759 283.498 252.659 283.573 252.576L283.707 252.489C283.766 252.437 283.837 252.399 283.913 252.38C283.99 252.36 284.07 252.359 284.147 252.377C284.224 252.395 284.296 252.43 284.356 252.481C284.416 252.533 284.464 252.597 284.494 252.67C284.777 253.261 284.1 254.032 283.597 253.544C283.541 253.487 283.495 253.42 283.463 253.347C283.455 253.348 283.447 253.346 283.44 253.343C283.433 253.34 283.427 253.335 283.422 253.328C283.418 253.322 283.414 253.315 283.413 253.307C283.412 253.299 283.413 253.292 283.415 253.284Z" fill="black"/>
<path d="M223.269 248.577C223.281 248.549 223.297 248.523 223.316 248.499C223.373 248.403 223.453 248.323 223.55 248.266C223.646 248.21 223.755 248.179 223.867 248.176C223.919 248.165 223.972 248.165 224.024 248.176C224.105 248.179 224.183 248.202 224.252 248.243C224.322 248.283 224.38 248.34 224.423 248.408C224.465 248.477 224.491 248.554 224.497 248.634C224.503 248.714 224.489 248.795 224.457 248.868C224.245 249.475 223.221 249.553 223.206 248.868C223.194 248.793 223.194 248.716 223.206 248.64C223.214 248.649 223.225 248.653 223.237 248.653C223.249 248.653 223.26 248.649 223.269 248.64C223.277 248.632 223.282 248.621 223.282 248.609C223.282 248.597 223.277 248.586 223.269 248.577Z" fill="black"/>
<path d="M283.132 249.585C283.225 249.541 283.332 249.536 283.429 249.57C283.526 249.604 283.606 249.674 283.652 249.766C283.675 249.802 283.69 249.842 283.697 249.884C283.704 249.926 283.702 249.969 283.691 250.01C283.71 250.115 283.686 250.222 283.626 250.309C283.565 250.396 283.473 250.456 283.368 250.475C283.264 250.493 283.156 250.47 283.069 250.409C282.982 250.349 282.923 250.256 282.904 250.152C282.865 250.046 282.867 249.929 282.909 249.825C282.951 249.72 283.031 249.635 283.132 249.585Z" fill="black"/>
<path d="M261.887 238.084C261.981 238.043 262.087 238.04 262.184 238.075C262.281 238.11 262.36 238.181 262.406 238.273C262.426 238.311 262.436 238.353 262.436 238.395C262.436 238.438 262.426 238.479 262.406 238.517C262.424 238.621 262.4 238.729 262.338 238.815C262.277 238.901 262.184 238.96 262.08 238.978C261.975 238.995 261.868 238.971 261.782 238.91C261.695 238.848 261.637 238.755 261.619 238.651C261.583 238.54 261.591 238.42 261.64 238.314C261.69 238.209 261.778 238.127 261.887 238.084Z" fill="black"/>
<path d="M221.316 245.106C221.413 245.143 221.492 245.216 221.536 245.31C221.58 245.404 221.586 245.511 221.553 245.609C221.544 245.65 221.527 245.689 221.503 245.723C221.478 245.757 221.447 245.785 221.411 245.806C221.346 245.872 221.26 245.913 221.168 245.921C221.076 245.93 220.983 245.906 220.907 245.853C220.831 245.801 220.776 245.723 220.752 245.634C220.727 245.544 220.735 245.449 220.773 245.365C220.816 245.262 220.894 245.179 220.995 245.131C221.095 245.083 221.21 245.074 221.316 245.106Z" fill="black"/>
</g>
<path d="M233.431 289.187H128.896C127.597 287.447 126.597 285.502 125.936 283.433C125.047 280.245 125.873 276.018 129.195 274.562C131.336 273.625 133.635 274.404 135.847 274.459C136.179 274.518 136.521 274.484 136.835 274.36C137.149 274.237 137.423 274.029 137.625 273.759C137.862 273.303 137.918 272.774 137.783 272.279C137.5 271.145 136.413 270.421 135.5 269.799C135.466 269.777 135.437 269.748 135.415 269.713C135.393 269.678 135.38 269.639 135.375 269.598C135.371 269.557 135.375 269.516 135.389 269.477C135.402 269.439 135.424 269.403 135.453 269.374C136.392 268.585 137.572 268.139 138.798 268.11C140.025 268.081 141.224 268.472 142.199 269.217C143.332 268.005 142.836 266.163 142.097 264.84C141.357 263.518 140.003 262.345 139.082 260.999C138.282 259.974 137.918 258.677 138.066 257.386C138.379 256.067 139.166 254.91 140.278 254.135C142.065 252.702 145.159 251.089 147.276 252.789C149.575 254.647 148.11 258.102 149.638 260.361C149.817 260.695 150.07 260.983 150.379 261.203C150.687 261.423 151.043 261.568 151.417 261.629C151.757 261.608 152.086 261.5 152.373 261.315C152.66 261.13 152.894 260.875 153.054 260.574C153.589 259.787 154.022 258.897 154.935 258.574C154.683 256.26 154.093 253.993 153.865 251.671C153.55 248.326 154.298 243.981 157.8 242.556C158.479 242.266 159.21 242.122 159.947 242.131C160.685 242.141 161.412 242.304 162.083 242.611C162.762 242.987 163.327 243.541 163.717 244.214C164.107 244.886 164.306 245.652 164.294 246.429C164.389 248.412 163.712 250.364 163.948 252.34C164.098 253.552 164.688 254.835 166.136 254.552C167.118 254.259 168.027 253.763 168.805 253.096C169.875 252.356 171.717 251.521 172.843 252.631C173.504 253.277 173.418 254.3 173.992 254.993C174.309 255.3 174.688 255.534 175.104 255.681C175.519 255.828 175.962 255.883 176.401 255.843C178.149 255.843 179.841 255.442 181.604 255.591C183.262 255.711 184.874 256.192 186.327 257C187.729 257.797 188.849 259.01 189.531 260.472C190.113 261.739 191.145 264.699 193.049 263.392C193.788 262.731 194.385 261.928 194.805 261.03C195.301 260.204 195.789 259.369 196.332 258.574C197.278 257.052 198.576 255.78 200.118 254.867C201.684 254.046 203.489 253.803 205.216 254.18C206.943 254.558 208.483 255.531 209.564 256.929C210.628 258.36 211.16 260.116 211.068 261.896C210.949 263.959 209.556 265.698 209.493 267.737C209.436 268.228 209.509 268.725 209.704 269.18C209.898 269.634 210.208 270.029 210.603 270.327C211.682 270.956 213.012 270.382 214.114 270.13C215.216 269.878 217.152 270.004 217.656 271.35C217.745 271.648 217.756 271.964 217.69 272.268C217.624 272.572 217.482 272.855 217.278 273.09C217.042 273.405 216.759 273.688 216.554 274.026C216.271 274.507 216.326 274.719 216.767 275.01C218.065 275.884 219.821 275.569 221.301 275.711C229.959 276.593 233.037 286.826 233.431 289.187Z" fill="#7BD5A7"/>
<path opacity="0.2" d="M233.431 289.187H128.896C127.597 287.447 126.597 285.502 125.936 283.433C125.047 280.245 125.873 276.018 129.195 274.562C131.336 273.625 133.635 274.404 135.847 274.459C136.179 274.518 136.521 274.484 136.835 274.36C137.149 274.237 137.423 274.029 137.625 273.759C137.862 273.303 137.918 272.774 137.783 272.279C137.5 271.145 136.413 270.421 135.5 269.799C135.466 269.777 135.437 269.748 135.415 269.713C135.393 269.678 135.38 269.639 135.375 269.598C135.371 269.557 135.375 269.516 135.389 269.477C135.402 269.439 135.424 269.403 135.453 269.374C136.392 268.585 137.572 268.139 138.798 268.11C140.025 268.081 141.224 268.472 142.199 269.217C143.332 268.005 142.836 266.163 142.097 264.84C141.357 263.518 140.003 262.345 139.082 260.999C138.282 259.974 137.918 258.677 138.066 257.386C138.379 256.067 139.166 254.91 140.278 254.135C142.065 252.702 145.159 251.089 147.276 252.789C149.575 254.647 148.11 258.102 149.638 260.361C149.817 260.695 150.07 260.983 150.379 261.203C150.687 261.423 151.043 261.568 151.417 261.629C151.757 261.608 152.086 261.5 152.373 261.315C152.66 261.13 152.894 260.875 153.054 260.574C153.589 259.787 154.022 258.897 154.935 258.574C154.683 256.26 154.093 253.993 153.865 251.671C153.55 248.326 154.298 243.981 157.8 242.556C158.479 242.266 159.21 242.122 159.947 242.131C160.685 242.141 161.412 242.304 162.083 242.611C162.762 242.987 163.327 243.541 163.717 244.214C164.107 244.886 164.306 245.652 164.294 246.429C164.389 248.412 163.712 250.364 163.948 252.34C164.098 253.552 164.688 254.835 166.136 254.552C167.118 254.259 168.027 253.763 168.805 253.096C169.875 252.356 171.717 251.521 172.843 252.631C173.504 253.277 173.418 254.3 173.992 254.993C174.309 255.3 174.688 255.534 175.104 255.681C175.519 255.828 175.962 255.883 176.401 255.843C178.149 255.843 179.841 255.442 181.604 255.591C183.262 255.711 184.874 256.192 186.327 257C187.729 257.797 188.849 259.01 189.531 260.472C190.113 261.739 191.145 264.699 193.049 263.392C193.788 262.731 194.385 261.928 194.805 261.03C195.301 260.204 195.789 259.369 196.332 258.574C197.278 257.052 198.576 255.78 200.118 254.867C201.684 254.046 203.489 253.803 205.216 254.18C206.943 254.558 208.483 255.531 209.564 256.929C210.628 258.36 211.16 260.116 211.068 261.896C210.949 263.959 209.556 265.698 209.493 267.737C209.436 268.228 209.509 268.725 209.704 269.18C209.898 269.634 210.208 270.029 210.603 270.327C211.682 270.956 213.012 270.382 214.114 270.13C215.216 269.878 217.152 270.004 217.656 271.35C217.745 271.648 217.756 271.964 217.69 272.268C217.624 272.572 217.482 272.855 217.278 273.09C217.042 273.405 216.759 273.688 216.554 274.026C216.271 274.507 216.326 274.719 216.767 275.01C218.065 275.884 219.821 275.569 221.301 275.711C229.959 276.593 233.037 286.826 233.431 289.187Z" fill="black"/>
<g opacity="0.2">
<path d="M159.524 272.153C158.249 277.922 156.982 283.598 158.485 289.218H157.304C156.864 288.1 156.439 286.983 155.998 285.857C151.7 283.858 147.071 285.471 142.537 284.912C138.987 284.48 135.217 282.756 132.958 279.906C132.921 279.869 132.901 279.818 132.902 279.766C132.902 279.713 132.924 279.663 132.962 279.627C132.999 279.59 133.05 279.57 133.102 279.571C133.154 279.571 133.204 279.593 133.241 279.631C135.116 281.191 137.246 282.416 139.538 283.252C139.058 282.685 138.594 282.094 138.074 281.567C137.287 280.78 136.46 280.134 135.642 279.418C135.595 279.418 135.642 279.308 135.705 279.339C136.626 279.929 137.486 280.609 138.271 281.37C139.015 282.001 139.688 282.711 140.278 283.488C141.78 283.92 143.336 284.138 144.899 284.133C148.465 284.133 152.456 283.346 155.683 285.141C155.407 284.464 155.132 283.787 154.833 283.118C153.563 280.321 152.09 277.622 150.425 275.041C148.689 272.542 147.167 269.901 145.875 267.146C144.777 264.43 144.052 261.579 143.718 258.669C143.718 258.519 143.923 258.448 143.954 258.606C144.867 263.714 147.355 268.122 150.047 272.444C149.22 269.949 148.543 267.398 147.489 264.966C147.418 264.785 147.662 264.635 147.756 264.808C149.212 267.737 150.771 271.003 151.212 274.254L151.763 275.12C153.699 278.178 155.34 281.412 156.667 284.779C156.486 281.189 157.249 277.411 157.981 274.113C158.918 270.43 159.501 266.666 159.721 262.872C159.721 262.533 159.721 262.195 159.721 261.857C157.622 257.494 156.746 252.643 157.186 247.821C157.197 247.765 157.226 247.714 157.27 247.678C157.314 247.641 157.369 247.621 157.426 247.621C157.484 247.621 157.539 247.641 157.583 247.678C157.627 247.714 157.656 247.765 157.667 247.821C157.628 250.436 157.823 253.05 158.249 255.63C158.605 257.35 159.094 259.04 159.713 260.684C159.607 257.652 159.344 254.628 158.926 251.623C158.887 251.364 159.296 251.332 159.359 251.56C161.24 258.369 161.036 265.304 159.524 272.153Z" fill="black"/>
<path d="M182.761 264.36C181.963 265.948 181.069 267.485 180.085 268.965C179.849 270.216 179.493 271.442 179.022 272.625C178.383 274.232 177.442 275.701 176.251 276.955C174.811 278.474 173.378 279.789 172.953 281.827C174.184 284.107 174.892 286.632 175.024 289.219H174.166C173.426 284.496 171.017 280.71 168.907 276.443C167.026 272.704 165.46 267.839 167.333 263.778C167.435 263.542 167.782 263.715 167.727 263.951C166.451 269.359 168.726 273.901 171.253 278.561C171.639 279.285 172.04 280.025 172.434 280.78C172.669 279.839 173.116 278.964 173.74 278.222C175.024 276.608 176.535 275.302 177.511 273.444C179.652 269.359 179.306 264.935 179.912 260.519C179.912 260.275 180.274 260.377 180.297 260.574C180.616 262.948 180.616 265.355 180.297 267.729C180.905 266.485 181.605 265.288 182.391 264.148C182.426 264.113 182.47 264.09 182.519 264.084C182.567 264.077 182.616 264.087 182.659 264.111C182.701 264.135 182.734 264.173 182.753 264.218C182.771 264.263 182.774 264.313 182.761 264.36Z" fill="black"/>
<path d="M205.101 261.487C204.69 263.78 203.732 265.941 202.306 267.784C201.212 269.217 199.52 270.145 198.457 271.554C197.552 273.459 196.521 275.286 195.482 277.12C194.443 278.954 192.333 281.677 193.333 284.007C193.342 284.03 193.345 284.055 193.342 284.079C193.34 284.104 193.331 284.127 193.317 284.148C193.303 284.168 193.284 284.184 193.262 284.196C193.24 284.207 193.216 284.212 193.191 284.212C194.354 285.61 194.996 287.368 195.009 289.187H194.498C193.931 282.417 184.304 280.623 184.225 273.633C184.225 273.31 184.729 273.231 184.792 273.554C185.501 277.348 188.468 279.481 191.137 281.945C191.691 282.467 192.217 283.019 192.711 283.598C192.042 282.189 192.522 280.638 193.191 279.245C194.262 277.033 195.553 274.931 196.71 272.767C197.943 270.516 198.976 268.161 199.795 265.729C200.497 263.241 200.834 260.664 200.795 258.078C200.803 258.047 200.82 258.02 200.845 258C200.87 257.98 200.901 257.97 200.933 257.97C200.965 257.97 200.996 257.98 201.021 258C201.046 258.02 201.063 258.047 201.071 258.078C201.968 261.857 200.748 266.17 199.268 269.72C199.819 269.193 200.425 268.697 200.921 268.146C202.692 266.178 203.605 263.769 204.581 261.353C204.599 261.284 204.643 261.225 204.705 261.189C204.766 261.153 204.839 261.142 204.908 261.16C204.977 261.178 205.036 261.222 205.072 261.283C205.108 261.345 205.119 261.418 205.101 261.487Z" fill="black"/>
<path d="M224.504 281.828C222.214 282.158 220.002 282.693 217.68 282.819C215.312 282.946 212.938 282.825 210.595 282.457C207.699 282.017 204.778 281.34 201.937 281.67C202.809 281.29 203.655 280.853 204.471 280.363C207.34 278.639 209.58 276.04 210.863 272.948C210.973 272.641 210.548 272.531 210.383 272.744C209.06 274.483 207.958 276.262 206.305 277.742C204.471 279.38 202.369 280.34 200.181 281.434C198.532 282.168 197.071 283.266 195.907 284.646C195.616 285.039 194.183 287.007 195.057 287.456C195.079 287.471 195.105 287.479 195.131 287.479C195.158 287.479 195.184 287.471 195.206 287.456L195.254 287.393C195.265 287.386 195.274 287.376 195.281 287.364C195.287 287.353 195.291 287.339 195.291 287.326C195.291 287.313 195.287 287.299 195.281 287.288C195.274 287.276 195.265 287.266 195.254 287.259C195.065 287.259 196.781 284.858 196.828 284.835C197.471 284.195 198.193 283.639 198.977 283.182C199.378 282.953 199.764 282.741 200.197 282.536C204.133 281.749 208.108 283.205 212.004 283.67C216.082 284.158 220.915 284.11 224.772 282.512C224.863 282.477 224.936 282.407 224.975 282.318C225.014 282.228 225.016 282.127 224.981 282.036C224.945 281.945 224.875 281.872 224.786 281.833C224.696 281.794 224.595 281.792 224.504 281.828Z" fill="black"/>
<path d="M173.599 287.14C172.449 285.456 170.56 284.519 168.876 283.456C166.557 282.156 164.799 280.045 163.94 277.529C163.862 277.301 163.452 277.324 163.492 277.592C164.137 282.921 169.647 284.456 173.26 287.4C173.433 287.542 173.756 287.361 173.599 287.14Z" fill="black"/>
<path d="M149.685 283.772C148.898 281.741 146.898 280.308 145.3 278.899C144.378 278.128 143.539 277.263 142.797 276.317C141.89 274.92 141.192 273.398 140.727 271.799C140.722 271.78 140.713 271.762 140.701 271.746C140.689 271.731 140.674 271.717 140.656 271.708C140.639 271.698 140.62 271.691 140.601 271.689C140.581 271.686 140.561 271.688 140.542 271.693C140.523 271.698 140.505 271.707 140.489 271.719C140.473 271.731 140.46 271.746 140.45 271.763C140.441 271.78 140.434 271.799 140.432 271.819C140.429 271.839 140.43 271.859 140.436 271.878C140.906 274.406 142.095 276.745 143.86 278.616C145.702 280.442 147.709 281.977 149.449 283.913C149.543 284.008 149.74 283.906 149.685 283.772Z" fill="black"/>
</g>
<g opacity="0.1">
<path d="M154.636 263.549C154.57 263.675 154.466 263.778 154.339 263.843C154.212 263.908 154.068 263.932 153.927 263.912C153.786 263.892 153.654 263.829 153.55 263.732C153.446 263.635 153.374 263.507 153.345 263.368C153.338 263.318 153.338 263.268 153.345 263.218C153.305 263.085 153.305 262.942 153.345 262.809C153.381 262.685 153.45 262.573 153.544 262.484C153.638 262.396 153.755 262.334 153.881 262.305C154.534 262.156 154.943 262.966 154.636 263.549Z" fill="black"/>
<path d="M221.018 279.812C220.952 279.938 220.849 280.041 220.722 280.106C220.596 280.172 220.452 280.197 220.311 280.178C220.17 280.159 220.038 280.097 219.934 280.001C219.829 279.904 219.757 279.778 219.727 279.639C219.719 279.589 219.719 279.539 219.727 279.489C219.699 279.354 219.712 279.214 219.766 279.088C219.802 278.964 219.871 278.851 219.965 278.763C220.059 278.674 220.175 278.612 220.301 278.584C220.449 278.571 220.598 278.601 220.73 278.67C220.862 278.738 220.972 278.843 221.047 278.972C221.122 279.1 221.159 279.247 221.154 279.396C221.149 279.545 221.101 279.689 221.018 279.812Z" fill="black"/>
<path d="M156.415 264.588C156.419 264.567 156.419 264.546 156.415 264.525C156.433 264.451 156.433 264.373 156.414 264.299C156.394 264.225 156.357 264.157 156.305 264.1C156.278 264.073 156.246 264.052 156.211 264.037C156.169 264.002 156.12 263.977 156.068 263.964C156.015 263.951 155.96 263.951 155.907 263.963C155.854 263.975 155.805 264 155.763 264.035C155.722 264.069 155.689 264.113 155.667 264.163C155.479 264.565 155.943 265.1 156.289 264.761C156.325 264.722 156.355 264.677 156.376 264.628L156.415 264.588Z" fill="black"/>
<path d="M197.631 261.361V261.306C197.594 261.239 197.54 261.184 197.475 261.144C197.411 261.104 197.337 261.081 197.261 261.077C197.225 261.069 197.187 261.069 197.151 261.077C197.096 261.079 197.042 261.095 196.994 261.122C196.946 261.149 196.906 261.188 196.877 261.235C196.847 261.281 196.829 261.334 196.825 261.389C196.821 261.444 196.83 261.499 196.852 261.55C197.001 261.975 197.702 262.022 197.71 261.55C197.721 261.495 197.721 261.439 197.71 261.384L197.631 261.361Z" fill="black"/>
<path d="M156.604 262.054C156.539 262.024 156.465 262.02 156.398 262.044C156.33 262.067 156.274 262.116 156.242 262.18C156.223 262.233 156.223 262.292 156.242 262.345C156.241 262.409 156.263 262.47 156.303 262.519C156.343 262.568 156.399 262.601 156.462 262.613C156.524 262.624 156.589 262.613 156.643 262.581C156.698 262.549 156.74 262.499 156.762 262.44C156.791 262.368 156.79 262.287 156.761 262.215C156.732 262.143 156.675 262.085 156.604 262.054Z" fill="black"/>
<path d="M171.167 254.174C171.103 254.144 171.03 254.14 170.964 254.164C170.897 254.187 170.843 254.236 170.812 254.3C170.799 254.325 170.792 254.353 170.792 254.382C170.792 254.411 170.799 254.439 170.812 254.465C170.811 254.528 170.833 254.59 170.873 254.639C170.913 254.688 170.97 254.721 171.032 254.732C171.094 254.744 171.159 254.732 171.214 254.701C171.269 254.669 171.311 254.619 171.332 254.559C171.358 254.486 171.356 254.405 171.325 254.334C171.295 254.262 171.238 254.205 171.167 254.174Z" fill="black"/>
<path d="M198.977 258.976C198.91 259.001 198.855 259.051 198.824 259.116C198.793 259.18 198.789 259.254 198.812 259.322C198.817 259.351 198.829 259.378 198.846 259.402C198.864 259.425 198.887 259.444 198.914 259.456C198.958 259.5 199.017 259.527 199.079 259.533C199.141 259.538 199.203 259.522 199.255 259.486C199.306 259.451 199.344 259.398 199.36 259.338C199.377 259.278 199.373 259.214 199.347 259.157C199.319 259.086 199.265 259.029 199.197 258.995C199.129 258.962 199.05 258.955 198.977 258.976Z" fill="black"/>
</g>
<path d="M5.50055 289.218L46.0078 289.029L86.5151 288.958L167.538 288.824L248.56 288.958L289.067 289.021L329.574 289.218L289.067 289.407L248.56 289.478L167.538 289.611L86.5151 289.478L46.0078 289.407L5.50055 289.218Z" fill="#263238"/>
</svg>
