<svg width="325" height="302" viewBox="0 0 325 302" fill="none" xmlns="http://www.w3.org/2000/svg">
<path d="M65.8184 189.739C67.8552 186.729 70.7088 184.364 74.0437 182.921C77.3786 181.479 81.0561 181.018 84.6439 181.594C87.8963 182.15 90.9722 183.463 93.6233 185.428C98.9009 188.968 101.685 187.551 101.685 187.551C101.236 186.482 100.532 185.538 99.636 184.801C98.4363 184.017 95.4728 183.02 94.487 181.199C93.5012 179.378 89.4468 169.427 96.1118 154.451C101.153 143.924 107.341 133.987 114.566 124.821C114.566 124.821 142.373 90.6487 154.42 80.6816C166.467 70.7145 165.335 73.3314 163.598 76.698C161.862 80.0646 146.835 103.458 146.835 103.458L132.929 139.685C132.929 139.685 142.353 137.926 142.686 141.912C143.019 145.897 130.823 164.94 130.823 164.94C130.823 164.94 157.197 153.864 161.889 149.14C166.582 144.417 182.639 126.857 185.434 122.365C196.273 106.81 206.125 90.5909 214.934 73.8024C214.934 73.8024 218.366 76.2038 198.286 115.16C198.286 115.16 188.682 131.628 192.25 135.167C195.818 138.706 217.585 128.087 223.31 126.27C229.036 124.452 259.225 107.618 259.783 109.438C260.342 111.259 218.245 134.005 210.653 140.17C203.061 146.334 179.494 160.255 175.531 177.889C175.531 177.889 185.227 178.341 181.395 189.202C181.395 189.202 208.856 186.844 233.127 171.525C257.398 156.206 249.528 164.197 246.053 169.412C242.577 174.627 217.048 198.59 191.037 214.239C165.026 229.888 144.999 240.177 116.915 226.519C116.915 226.519 99.7982 226.563 92.1507 219.968C84.5031 213.373 65.3097 192.895 64.8652 192.76L57.8196 190.908C60.2385 189.511 63.1006 189.092 65.8184 189.739Z" fill="#263238"/>
<path d="M89.3521 217.405C90.7285 217.503 92.7272 215.34 93.4477 214.139C94.0579 212.927 94.4457 211.615 94.5929 210.265C94.9107 209.164 94.8574 207.989 94.4412 206.92C93.9584 206.293 93.3528 205.77 92.6612 205.384C91.9697 204.998 91.2068 204.757 90.4191 204.676C87.2939 203.805 84.3575 202.361 81.7589 200.419C80.2643 199.317 78.8364 198.025 77.3427 196.86C75.8666 195.741 74.1563 194.971 72.3401 194.608C70.5239 194.245 68.649 194.298 66.8561 194.763L89.3521 217.405Z" fill="#DFE1E2"/>
<path d="M82.1195 192.872C82.0233 193.193 81.8337 193.479 81.5747 193.693C81.3156 193.907 80.999 194.039 80.6648 194.072C80.3306 194.106 79.994 194.039 79.6978 193.881C79.4016 193.723 79.1591 193.48 79.0011 193.184C78.8431 192.887 78.7767 192.551 78.8103 192.216C78.844 191.882 78.9762 191.566 79.1902 191.307C79.4042 191.048 79.6902 190.858 80.0121 190.763C80.3339 190.667 80.677 190.668 80.9978 190.768C81.4242 190.9 81.7812 191.195 81.9912 191.589C82.2012 191.983 82.2473 192.444 82.1195 192.872Z" fill="white"/>
<path d="M57.8511 190.94C57.8511 190.94 61.7518 187.499 68.51 190.597L64.8968 192.792L57.8511 190.94Z" fill="#455A64"/>
<path d="M80.1439 193.567C79.9637 193.686 79.7514 193.749 79.5351 193.745C79.3187 193.742 79.1085 193.673 78.9322 193.548C78.7071 193.365 78.5355 193.125 78.4354 192.853C78.3352 192.58 78.3103 192.286 78.3631 192.001C78.404 191.713 78.5233 191.441 78.708 191.216C78.8926 190.99 79.1354 190.82 79.4102 190.723C79.6221 190.663 79.8474 190.67 80.0552 190.743C80.263 190.815 80.4432 190.951 80.5712 191.13C80.8337 191.479 81 191.858 81.175 192.09C81.35 192.322 81.4945 192.459 81.4612 192.554C81.4278 192.649 81.2802 192.704 81.0478 192.879C80.8154 193.054 80.5239 193.337 80.1439 193.567Z" fill="#455A64"/>
<path d="M100.845 200.488C99.4761 200.846 98.0396 200.856 96.6658 200.518C95.265 200.302 93.9417 199.735 92.8194 198.869C94.0815 199.338 95.3678 199.74 96.6728 200.071C98.9618 200.554 100.854 200.277 100.845 200.488Z" fill="#455A64"/>
<path d="M102.558 199.443C101.666 199.791 100.7 199.901 99.7526 199.763C98.7985 199.762 97.8627 199.501 97.0468 199.006C97.0869 198.892 98.2746 199.223 99.7909 199.349C101.307 199.475 102.534 199.328 102.558 199.443Z" fill="#455A64"/>
<path d="M102.987 197.733C102.337 198.045 101.612 198.169 100.895 198.09C100.206 198.131 99.517 198 98.8916 197.707C99.6012 197.619 100.319 197.619 101.029 197.709C101.68 197.644 102.337 197.652 102.987 197.733Z" fill="#455A64"/>
<path d="M107.505 167.062C107.601 167.095 106.307 167.796 105.096 168.995C103.884 170.194 103.176 171.421 103.068 171.362C103.376 170.326 103.975 169.401 104.794 168.697C105.515 167.894 106.459 167.325 107.505 167.062Z" fill="#455A64"/>
<path d="M109.408 166.938C108.906 167.436 108.361 167.888 107.78 168.291C107.283 168.792 106.749 169.255 106.182 169.675C106.439 168.995 106.898 168.41 107.497 167.999C108.428 167.236 109.332 166.912 109.408 166.938Z" fill="#455A64"/>
<path d="M114.051 166.622C113.401 167.402 112.642 168.086 111.799 168.654C111.048 169.336 110.206 169.911 109.297 170.362C109.948 169.582 110.706 168.898 111.549 168.331C112.308 167.659 113.149 167.084 114.051 166.622Z" fill="#455A64"/>
<path d="M127.441 150.329C126.347 151.635 125.022 152.728 123.531 153.553C122.11 154.505 120.519 155.174 118.844 155.521C118.877 155.426 120.924 154.648 123.314 153.199C125.703 151.75 127.347 150.232 127.441 150.329Z" fill="#455A64"/>
<path d="M128.131 151.897C127.54 153.012 126.723 153.992 125.732 154.775C124.833 155.663 123.748 156.341 122.556 156.76C122.461 156.727 123.917 155.805 125.495 154.478C127.072 153.15 128.031 151.819 128.131 151.897Z" fill="#455A64"/>
<path d="M130.534 150.838C129.713 153.482 127.986 155.753 125.655 157.249C125.56 157.215 126.976 155.981 128.325 154.209C129.673 152.438 130.42 150.797 130.534 150.838Z" fill="#455A64"/>
<path d="M114.355 139.497C115.752 137.837 117.343 136.349 119.094 135.067C118.457 135.954 117.709 136.754 116.869 137.45C116.126 138.242 115.281 138.93 114.355 139.497Z" fill="#455A64"/>
<path d="M112.647 138.149C114.038 135.885 115.906 133.951 118.12 132.481C117.254 133.467 116.338 134.409 115.377 135.302C114.52 136.3 113.608 137.251 112.647 138.149Z" fill="#455A64"/>
<path d="M112.845 135.332C113.381 134.19 114.134 133.162 115.061 132.305C115.875 131.352 116.875 130.576 117.999 130.022C118.094 130.056 116.757 131.126 115.343 132.596C113.93 134.067 112.945 135.41 112.845 135.332Z" fill="#455A64"/>
<path d="M136.561 223.772C137.05 223.669 137.557 223.692 138.034 223.839C138.583 223.968 139.077 224.268 139.443 224.697C139.671 224.975 139.81 225.315 139.841 225.673C139.872 226.031 139.793 226.39 139.616 226.703C139.185 227.436 138.604 228.07 137.911 228.564C137.219 229.058 136.43 229.4 135.596 229.568C137.034 228.883 138.279 227.85 139.216 226.563C139.363 226.32 139.434 226.039 139.42 225.755C139.405 225.471 139.305 225.199 139.132 224.973C138.823 224.593 138.408 224.314 137.939 224.17C137.121 223.883 136.541 223.829 136.561 223.772Z" fill="#455A64"/>
<path d="M138.043 218.754C138.043 218.754 138.185 218.654 138.467 218.582C138.882 218.447 139.325 218.425 139.75 218.519C140.054 218.596 140.324 218.774 140.514 219.023C140.64 219.169 140.727 219.346 140.765 219.535C140.803 219.724 140.792 219.92 140.733 220.104C140.421 220.819 139.943 221.45 139.339 221.945C138.359 222.896 137.22 223.668 135.974 224.227C135.471 224.494 134.919 224.657 134.352 224.706C136.07 223.928 137.659 222.892 139.064 221.635C139.609 221.169 140.056 220.599 140.378 219.958C140.412 219.833 140.42 219.702 140.401 219.574C140.383 219.446 140.34 219.323 140.273 219.211C140.206 219.1 140.118 219.004 140.013 218.927C139.909 218.851 139.79 218.796 139.664 218.767C139.126 218.7 138.582 218.696 138.043 218.754Z" fill="#455A64"/>
<path d="M139.779 211.796C139.779 211.796 140.635 211.305 141.571 212.232C141.825 212.492 142.017 212.806 142.133 213.15C142.249 213.494 142.286 213.86 142.242 214.22C142.097 215.079 141.705 215.878 141.115 216.518C140.105 217.666 138.871 218.593 137.487 219.243C136.935 219.546 136.33 219.74 135.705 219.815C137.624 218.971 139.358 217.756 140.807 216.239C141.34 215.66 141.703 214.943 141.853 214.17C141.903 213.861 141.884 213.545 141.797 213.245C141.71 212.945 141.558 212.667 141.351 212.433C141.161 212.207 140.918 212.031 140.644 211.92C140.37 211.808 140.073 211.766 139.779 211.796Z" fill="#455A64"/>
<path d="M142.48 207.998C142.972 207.631 143.531 207.363 144.125 207.208C144.766 206.996 145.43 206.863 146.103 206.811C146.225 206.815 146.345 206.843 146.456 206.895C146.567 206.946 146.666 207.019 146.748 207.11C146.83 207.2 146.893 207.307 146.933 207.422C146.973 207.538 146.989 207.66 146.981 207.782C146.91 208.224 146.761 208.649 146.54 209.038C145.921 210.4 144.949 211.572 143.724 212.432C143.237 212.808 142.677 213.078 142.079 213.223C143.827 212.19 145.242 210.675 146.153 208.86C146.535 208.139 146.734 207.204 146.014 207.186C145.387 207.218 144.766 207.315 144.159 207.476C143.134 207.779 142.504 208.05 142.48 207.998Z" fill="#455A64"/>
<path d="M137.184 203.96L137.754 203.86L139.283 203.584C140.092 203.406 140.938 203.55 141.643 203.985C141.861 204.129 142.04 204.325 142.164 204.555C142.289 204.785 142.355 205.042 142.356 205.304C142.319 205.837 142.139 206.349 141.835 206.788C140.911 208.295 139.581 209.51 137.997 210.294C137.524 210.524 137.03 210.709 136.522 210.845C136.15 210.929 135.952 210.945 135.94 210.919C135.928 210.893 136.735 210.664 137.874 210.037C139.352 209.201 140.595 208.005 141.488 206.56C141.746 206.188 141.898 205.754 141.929 205.304C141.932 205.106 141.886 204.912 141.793 204.737C141.701 204.563 141.567 204.415 141.402 204.306C140.787 203.897 140.037 203.741 139.31 203.872C138.615 204.048 137.891 204.078 137.184 203.96Z" fill="#455A64"/>
<path d="M150.604 211.831C150.852 211.533 151.144 211.275 151.471 211.066C151.893 210.731 152.394 210.509 152.926 210.422C153.457 210.336 154.003 210.387 154.509 210.572C154.88 210.708 155.202 210.95 155.436 211.268C155.671 211.586 155.807 211.965 155.827 212.359C155.787 212.795 155.646 213.215 155.415 213.587C155.185 213.958 154.871 214.272 154.499 214.501C153.085 215.544 151.505 216.636 149.792 217.681C146.874 219.492 143.823 221.08 140.665 222.431C139.458 222.948 138.469 223.328 137.771 223.553C137.422 223.704 137.059 223.82 136.687 223.9C136.687 223.9 137.041 223.682 137.715 223.405L140.555 222.136C143.659 220.711 146.673 219.099 149.581 217.308C151.275 216.256 152.867 215.19 154.267 214.185C154.599 213.988 154.881 213.719 155.094 213.397C155.307 213.076 155.444 212.711 155.496 212.329C155.467 212.003 155.349 211.691 155.155 211.427C154.961 211.163 154.699 210.957 154.397 210.832C153.931 210.655 153.429 210.595 152.934 210.656C152.44 210.717 151.968 210.898 151.559 211.183C150.927 211.581 150.617 211.857 150.604 211.831Z" fill="#455A64"/>
<path d="M151.163 216.09C151.163 216.09 151.486 216.203 152.172 216.016C153.08 215.777 154.024 215.71 154.956 215.817C155.303 215.879 155.626 216.031 155.896 216.257C156.165 216.482 156.371 216.775 156.493 217.105C156.56 217.494 156.527 217.895 156.396 218.268C156.265 218.641 156.041 218.974 155.745 219.236C154.515 220.414 153.083 221.36 151.516 222.028C148.302 223.636 145.303 224.871 143.108 225.705C142.005 226.108 141.107 226.413 140.485 226.601C140.166 226.73 139.832 226.821 139.492 226.873C139.794 226.71 140.107 226.57 140.43 226.454L142.941 225.389C145.104 224.524 148.078 223.237 151.267 221.641C152.79 220.988 154.188 220.075 155.399 218.944C155.684 218.732 155.908 218.449 156.049 218.123C156.189 217.797 156.241 217.44 156.2 217.087C156.095 216.816 155.924 216.576 155.701 216.39C155.479 216.204 155.213 216.077 154.928 216.021C154.026 215.901 153.112 215.919 152.216 216.074C151.871 216.161 151.51 216.166 151.163 216.09Z" fill="#455A64"/>
<path d="M150.682 206.066C150.682 206.066 151.04 206.02 151.662 205.832C152.539 205.495 153.441 205.225 154.36 205.026C155.052 204.955 155.747 205.116 156.337 205.484C156.689 205.7 156.952 206.035 157.077 206.428C157.202 206.821 157.181 207.247 157.018 207.626C156.632 208.39 156.044 209.034 155.317 209.487C154.623 210.038 153.89 210.538 153.125 210.984C150.427 212.471 147.554 213.617 144.574 214.397C143.44 214.705 142.505 214.932 141.852 215.088C141.525 215.184 141.188 215.245 140.848 215.27C141.163 215.13 141.489 215.015 141.823 214.928L144.483 214.108C147.409 213.273 150.232 212.112 152.9 210.649C153.639 210.23 154.352 209.766 155.034 209.26C155.679 208.872 156.211 208.322 156.577 207.663C156.717 207.364 156.742 207.025 156.648 206.708C156.554 206.392 156.348 206.121 156.068 205.946C155.547 205.631 154.94 205.485 154.333 205.529C153.43 205.698 152.538 205.92 151.662 206.196C151.33 206.216 150.997 206.172 150.682 206.066Z" fill="#455A64"/>
<path d="M150.815 199.594C151.106 199.357 151.422 199.153 151.756 198.984C152.66 198.484 153.593 198.04 154.552 197.656C155.149 197.416 155.81 197.178 156.553 196.947C157.336 196.658 158.158 196.493 158.992 196.456C159.247 196.467 159.495 196.546 159.709 196.685C159.923 196.825 160.096 197.018 160.21 197.247C160.317 197.479 160.375 197.731 160.381 197.987C160.387 198.243 160.341 198.497 160.245 198.734C159.794 199.62 159.194 200.422 158.472 201.105C156.034 203.458 153.196 205.358 150.091 206.715C148.915 207.264 147.939 207.67 147.292 207.87C146.955 208.033 146.603 208.16 146.24 208.249C146.559 208.05 146.892 207.874 147.237 207.723L149.975 206.375C153.014 204.95 155.8 203.04 158.223 200.718C158.91 200.087 159.477 199.338 159.897 198.505C160.184 197.687 159.829 196.75 159.012 196.763C158.232 196.802 157.462 196.949 156.722 197.199C155.985 197.41 155.331 197.63 154.721 197.844C153.515 198.297 152.57 198.735 151.922 198.999C151.572 199.231 151.202 199.43 150.815 199.594Z" fill="#455A64"/>
<path d="M170.342 203.28C170.193 203.493 170.011 203.682 169.804 203.839C169.447 204.184 168.91 204.68 168.238 205.256C166.905 206.435 165.012 207.993 162.836 209.624C160.661 211.255 158.61 212.652 157.16 213.618C156.412 214.104 155.794 214.464 155.363 214.719C154.931 214.974 154.674 215.097 154.662 215.072C155.407 214.462 156.185 213.893 156.991 213.367C158.455 212.363 160.455 210.927 162.681 209.335C164.907 207.743 166.782 206.178 168.17 205.083C168.854 204.435 169.579 203.832 170.342 203.28Z" fill="#455A64"/>
<path d="M169.361 199.559C168.862 200.258 168.28 200.894 167.628 201.452C164.694 204.329 161.439 206.859 157.928 208.994C157.218 209.469 156.461 209.869 155.67 210.189C156.336 209.683 157.029 209.212 157.746 208.78C159.061 207.895 160.841 206.66 162.721 205.203C164.6 203.746 166.255 202.317 167.414 201.27C168.028 200.662 168.678 200.09 169.361 199.559Z" fill="#455A64"/>
<path d="M166.886 196.252C166.529 196.822 166.107 197.348 165.63 197.821C164.508 199.012 163.287 200.107 161.981 201.094C160.687 202.079 159.314 202.956 157.876 203.715C157.288 204.053 156.663 204.322 156.014 204.516C156.552 204.107 157.128 203.751 157.734 203.452C159.114 202.621 160.45 201.72 161.738 200.752C163.02 199.778 164.244 198.73 165.404 197.614C165.86 197.12 166.355 196.665 166.886 196.252Z" fill="#455A64"/>
<path d="M180.793 204.809C182.81 203.671 184.538 202.083 185.841 200.167C186.352 199.444 186.712 198.625 186.9 197.76C186.966 197.426 186.946 197.082 186.843 196.758C186.74 196.434 186.556 196.141 186.31 195.907C186.147 195.739 185.946 195.611 185.725 195.533C185.504 195.455 185.267 195.43 185.035 195.46C184.715 195.518 184.553 195.675 184.521 195.643C184.571 195.556 184.637 195.48 184.717 195.419C184.797 195.359 184.889 195.316 184.986 195.293C185.249 195.223 185.525 195.216 185.791 195.272C186.057 195.328 186.307 195.446 186.519 195.617C186.833 195.871 187.072 196.206 187.21 196.586C187.348 196.966 187.38 197.376 187.301 197.772C187.122 198.694 186.756 199.57 186.228 200.346C185.318 201.768 184.113 202.978 182.695 203.895C182.123 204.315 181.478 204.625 180.793 204.809Z" fill="#455A64"/>
<path d="M180.598 211.153C180.598 211.153 181.313 210.699 182.404 209.906C183.823 208.871 185.084 207.636 186.148 206.239C186.764 205.523 187.218 204.684 187.482 203.778C187.583 203.427 187.586 203.054 187.491 202.701C187.397 202.348 187.208 202.027 186.945 201.773C186.767 201.596 186.551 201.462 186.314 201.378C186.077 201.295 185.825 201.266 185.575 201.292C185.223 201.382 185.061 201.539 185.029 201.507C185.141 201.328 185.316 201.199 185.52 201.145C185.8 201.07 186.095 201.065 186.377 201.131C186.66 201.197 186.922 201.331 187.141 201.521C187.48 201.804 187.728 202.182 187.853 202.606C187.978 203.031 187.975 203.483 187.843 203.905C187.59 204.884 187.118 205.793 186.462 206.563C185.368 207.986 184.047 209.22 182.552 210.214C181.959 210.636 181.298 210.954 180.598 211.153Z" fill="#455A64"/>
<path d="M179.183 216.77C179.7 216.292 180.249 215.849 180.824 215.443C182.165 214.399 183.443 213.277 184.653 212.084C185.996 210.695 187.593 209.31 187.146 208.085C187.065 207.861 186.924 207.665 186.738 207.517C186.553 207.369 186.33 207.275 186.094 207.245C185.917 207.248 185.742 207.288 185.582 207.365C185.582 207.365 185.669 207.117 186.091 207.073C186.375 207.077 186.653 207.164 186.889 207.323C187.126 207.482 187.311 207.706 187.423 207.968C187.542 208.367 187.554 208.791 187.457 209.196C187.36 209.601 187.157 209.973 186.87 210.275C186.275 211.016 185.636 211.72 184.955 212.382C183.74 213.594 182.423 214.698 181.018 215.682C180.455 216.121 179.838 216.486 179.183 216.77Z" fill="#455A64"/>
<path d="M205.51 200.527C204.75 201.03 203.947 201.464 203.11 201.822C201.605 202.577 199.484 203.564 197.083 204.56C194.682 205.556 192.512 206.377 190.89 206.919C190.038 207.255 189.159 207.519 188.262 207.707C189.078 207.305 189.916 206.949 190.773 206.643C192.358 206.024 194.522 205.158 196.898 204.175C199.273 203.191 201.425 202.236 202.967 201.558C203.789 201.154 204.639 200.81 205.51 200.527Z" fill="#455A64"/>
<path d="M204.616 196.067C203.956 196.634 203.248 197.144 202.5 197.59C201.166 198.469 199.247 199.613 197.104 200.785C194.961 201.957 192.906 202.882 191.429 203.496C190.641 203.88 189.818 204.185 188.971 204.408C189.72 203.964 190.5 203.573 191.305 203.239C192.745 202.547 194.738 201.558 196.893 200.411C199.048 199.265 200.979 198.147 202.376 197.333C203.095 196.863 203.843 196.44 204.616 196.067Z" fill="#455A64"/>
<path d="M200.444 193.212C198.449 194.687 196.368 196.041 194.212 197.267C192.128 198.612 189.971 199.84 187.749 200.943C189.749 199.476 191.834 198.131 193.994 196.913C196.074 195.561 198.227 194.325 200.444 193.212Z" fill="#455A64"/>
<path d="M143.826 175.402C144.325 174.926 144.863 174.492 145.435 174.107L147.261 172.802C148.019 172.36 148.692 171.785 149.246 171.104C149.352 170.943 149.396 170.749 149.368 170.558C149.341 170.367 149.244 170.193 149.096 170.068C148.774 169.833 148.39 169.698 147.992 169.681C147.259 169.607 146.518 169.658 145.802 169.832C145.157 170.041 144.523 170.282 143.902 170.555C143.902 170.555 143.969 170.364 144.329 170.192C144.764 169.915 145.236 169.699 145.73 169.55C146.453 169.326 147.21 169.23 147.967 169.266C148.454 169.287 148.925 169.452 149.318 169.74C149.532 169.928 149.673 170.185 149.719 170.466C149.765 170.747 149.711 171.035 149.568 171.282C148.987 172.03 148.253 172.647 147.416 173.091L145.546 174.338C145.014 174.756 144.437 175.112 143.826 175.402Z" fill="#455A64"/>
<path d="M144.823 180.176C146.487 178.86 148.021 177.386 149.402 175.776C149.929 175.127 150.325 174.304 149.937 173.826C149.748 173.582 149.494 173.398 149.203 173.296C148.913 173.194 148.599 173.179 148.3 173.251C147.712 173.424 147.134 173.628 146.568 173.862C147.039 173.415 147.621 173.103 148.253 172.957C148.618 172.859 149.004 172.874 149.361 172.999C149.718 173.124 150.028 173.354 150.252 173.658C150.418 174.086 150.453 174.554 150.353 175.002C150.253 175.45 150.022 175.859 149.689 176.176C148.744 177.353 147.656 178.407 146.45 179.315C145.958 179.688 145.409 179.979 144.823 180.176Z" fill="#455A64"/>
<path d="M149.605 183.178C150.076 182.79 150.567 182.427 151.077 182.091C151.688 181.717 152.192 181.19 152.539 180.563C152.887 179.935 153.066 179.229 153.059 178.512C153.055 178.142 152.95 177.781 152.754 177.468C152.559 177.154 152.281 176.9 151.952 176.734C151.384 176.489 150.749 176.447 150.155 176.616C149.098 176.887 148.51 177.343 148.473 177.266C148.436 177.189 148.533 177.095 148.848 176.928C149.218 176.663 149.628 176.46 150.063 176.328C150.752 176.09 151.505 176.118 152.174 176.406C152.58 176.593 152.927 176.89 153.173 177.264C153.42 177.637 153.557 178.072 153.57 178.52C153.627 179.38 153.374 180.232 152.856 180.92C152.438 181.45 151.937 181.91 151.374 182.281C150.837 182.675 150.24 182.979 149.605 183.178Z" fill="#455A64"/>
<path d="M154.166 173.407C154.166 173.407 154.672 172.879 155.439 171.972C155.878 171.428 156.279 170.855 156.64 170.256C157.113 169.581 157.446 168.818 157.619 168.013C157.639 167.631 157.518 167.256 157.281 166.956C157.044 166.657 156.706 166.454 156.33 166.385C155.679 166.233 154.995 166.31 154.394 166.604C153.347 167.091 152.765 167.592 152.728 167.515C152.691 167.438 152.788 167.344 153.091 167.151C153.45 166.828 153.849 166.551 154.277 166.327C154.926 165.957 155.691 165.844 156.419 166.01C156.891 166.101 157.314 166.358 157.613 166.733C157.913 167.108 158.068 167.578 158.052 168.058C157.873 168.928 157.506 169.747 156.975 170.459C156.591 171.058 156.151 171.62 155.66 172.135C155.252 172.655 154.744 173.087 154.166 173.407Z" fill="#455A64"/>
<path d="M159.586 175.993C159.957 175.541 160.352 175.109 160.768 174.698C161.186 174.253 161.497 173.719 161.679 173.136C161.8 172.799 161.841 172.438 161.799 172.082C161.757 171.726 161.633 171.385 161.437 171.085C161.216 170.811 160.935 170.593 160.615 170.447C160.295 170.301 159.945 170.233 159.594 170.246C158.988 170.255 158.391 170.396 157.846 170.659C157.334 170.953 156.806 171.217 156.264 171.45C156.673 171.011 157.161 170.653 157.703 170.395C158.284 170.069 158.934 169.887 159.6 169.863C160.022 169.836 160.445 169.912 160.831 170.084C161.217 170.257 161.556 170.522 161.817 170.855C162.05 171.205 162.195 171.606 162.242 172.024C162.289 172.442 162.235 172.865 162.085 173.258C161.864 173.884 161.504 174.452 161.032 174.919C160.616 175.358 160.127 175.721 159.586 175.993Z" fill="#455A64"/>
<path d="M130.492 188.123C127.988 190.488 125.014 192.3 121.765 193.441C121.765 193.441 123.791 192.356 126.187 190.888C128.583 189.42 130.417 188.033 130.492 188.123Z" fill="#455A64"/>
<path d="M128.171 188.037C127.198 188.875 126.139 189.607 125.011 190.22C123.94 190.935 122.802 191.546 121.614 192.043C122.587 191.204 123.646 190.472 124.774 189.859C125.845 189.144 126.983 188.534 128.171 188.037Z" fill="#455A64"/>
<path d="M129.173 183.962C128.431 184.892 127.531 185.683 126.514 186.3C125.579 187.026 124.529 187.589 123.407 187.967C124.302 187.223 125.253 186.549 126.252 185.951C127.182 185.226 128.157 184.562 129.173 183.962Z" fill="#455A64"/>
<path d="M110.297 215.646C109.456 215.879 108.58 215.963 107.71 215.893C106.843 215.966 105.971 215.905 105.123 215.712C105.965 215.485 106.84 215.402 107.71 215.466C108.577 215.395 109.449 215.456 110.297 215.646Z" fill="#455A64"/>
<path d="M111.735 213.436C110.068 213.96 108.264 213.838 106.682 213.096C107.528 213.127 108.372 213.202 109.211 213.32C110.054 213.3 110.898 213.339 111.735 213.436Z" fill="#455A64"/>
<path d="M114.581 211.357C113.63 211.633 112.644 211.777 111.653 211.783C110.668 211.917 109.67 211.912 108.687 211.768C109.638 211.503 110.621 211.367 111.609 211.361C112.595 211.224 113.595 211.222 114.581 211.357Z" fill="#455A64"/>
<path d="M160.479 170.342C160.479 170.342 160.997 169.84 161.751 168.971C162.215 168.444 162.623 167.871 162.97 167.261C163.337 166.642 163.88 165.828 163.712 165.149C163.544 164.47 162.379 164.681 161.695 164.804C161.038 164.937 160.396 165.134 159.778 165.393C158.725 165.836 158.132 166.248 158.088 166.19C158.532 165.727 159.068 165.361 159.661 165.117C160.283 164.805 160.94 164.569 161.618 164.414C162.022 164.314 162.436 164.259 162.852 164.248C163.111 164.236 163.368 164.299 163.591 164.431C163.815 164.563 163.995 164.757 164.11 164.989C164.172 165.434 164.137 165.888 164.008 166.318C163.879 166.749 163.659 167.147 163.362 167.484C162.98 168.085 162.539 168.646 162.048 169.161C161.612 169.659 161.078 170.061 160.479 170.342Z" fill="#455A64"/>
<path d="M163.595 160C163.595 160 164.106 159.517 164.897 158.725C165.366 158.256 165.811 157.763 166.228 157.247C166.745 156.665 167.164 156.004 167.471 155.289C167.495 155.213 167.503 155.133 167.494 155.053C167.486 154.974 167.46 154.898 167.42 154.829C167.379 154.76 167.324 154.701 167.259 154.655C167.194 154.609 167.12 154.577 167.042 154.561C166.677 154.515 166.307 154.522 165.944 154.583C165.298 154.663 164.662 154.804 164.043 155.006C162.959 155.352 162.348 155.694 162.323 155.642C162.786 155.218 163.341 154.908 163.945 154.736C164.574 154.48 165.233 154.302 165.905 154.206C166.313 154.123 166.731 154.103 167.144 154.148C167.274 154.176 167.397 154.231 167.505 154.308C167.613 154.385 167.704 154.484 167.773 154.599C167.841 154.713 167.885 154.84 167.902 154.972C167.919 155.104 167.908 155.238 167.871 155.365C167.568 156.159 167.11 156.885 166.524 157.501C166.085 158.009 165.611 158.485 165.104 158.926C164.671 159.374 164.159 159.738 163.595 160Z" fill="#455A64"/>
<path d="M168.774 165.344C168.883 164.66 169.195 164.025 169.67 163.521C170.12 162.99 170.504 162.407 170.813 161.784C170.968 161.442 171.042 161.069 171.029 160.694C171.016 160.318 170.917 159.951 170.739 159.62C170.456 159.351 170.109 159.159 169.73 159.063C169.352 158.968 168.955 158.972 168.578 159.076C167.903 159.149 167.238 159.303 166.6 159.536C165.496 159.94 164.89 160.39 164.846 160.332C165.303 159.855 165.863 159.488 166.483 159.26C167.134 158.982 167.819 158.792 168.521 158.693C168.969 158.56 169.445 158.554 169.897 158.675C170.349 158.795 170.758 159.038 171.081 159.377C171.314 159.777 171.442 160.231 171.452 160.694C171.461 161.158 171.352 161.616 171.135 162.025C170.792 162.641 170.376 163.212 169.896 163.728C169.482 164.238 169.107 164.778 168.774 165.344Z" fill="#455A64"/>
<path d="M173.788 167.808C173.788 167.808 174.133 167.374 174.501 166.627C174.748 166.154 174.869 165.626 174.854 165.093C174.839 164.56 174.688 164.04 174.415 163.582C174.161 163.129 173.75 162.784 173.259 162.612C172.769 162.44 172.232 162.453 171.751 162.648C171.357 162.861 171.013 163.156 170.742 163.512C170.742 163.512 170.777 162.862 171.608 162.384C172.089 162.117 172.65 162.033 173.187 162.147C173.519 162.218 173.832 162.356 174.109 162.552C174.386 162.749 174.619 162.999 174.796 163.289C175.111 163.799 175.277 164.388 175.274 164.987C175.272 165.587 175.101 166.174 174.781 166.682C174.58 167.155 174.232 167.55 173.788 167.808Z" fill="#455A64"/>
<path d="M170.739 159.619C171.059 159.25 171.419 158.917 171.813 158.628C172.251 158.285 172.601 157.842 172.834 157.336C173.068 156.831 173.177 156.277 173.154 155.721C173.109 155.431 172.995 155.156 172.821 154.92C172.647 154.684 172.418 154.494 172.155 154.366C171.691 154.164 171.192 154.054 170.686 154.043C170.195 154.078 169.703 154.077 169.212 154.039C169.673 153.834 170.174 153.739 170.678 153.762C171.238 153.705 171.803 153.793 172.319 154.017C172.648 154.162 172.935 154.388 173.153 154.673C173.37 154.959 173.512 155.295 173.563 155.651C173.606 156.277 173.483 156.903 173.207 157.467C172.93 158.03 172.51 158.511 171.988 158.86C171.259 159.417 170.764 159.671 170.739 159.619Z" fill="#455A64"/>
<path d="M175.087 163.86C176.174 162.371 176.902 160.651 177.214 158.834C177.211 158.677 177.174 158.523 177.104 158.382C177.035 158.241 176.935 158.117 176.813 158.018C176.69 157.92 176.547 157.85 176.394 157.814C176.241 157.777 176.082 157.775 175.928 157.806C175.359 157.867 174.809 158.045 174.313 158.33C173.393 158.819 172.691 158.808 172.692 158.744C173.214 158.577 173.716 158.351 174.189 158.073C174.703 157.718 175.295 157.493 175.915 157.417C176.317 157.374 176.721 157.47 177.059 157.69C177.243 157.814 177.394 157.982 177.496 158.178C177.599 158.375 177.651 158.594 177.648 158.816C177.498 160.174 177.006 161.473 176.217 162.589C175.947 163.097 175.56 163.532 175.087 163.86Z" fill="#455A64"/>
<path d="M200.51 140.993C200.245 141.19 199.958 141.355 199.653 141.483C198.888 141.898 198.115 142.333 197.292 142.792C195.303 143.89 192.587 145.417 189.712 147.337C186.837 149.256 184.326 151.112 182.537 152.494C181.82 153.076 181.135 153.626 180.432 154.17C180.193 154.391 179.931 154.586 179.651 154.751C179.842 154.487 180.069 154.25 180.325 154.047C180.798 153.615 181.483 153 182.356 152.28C184.626 150.378 187.003 148.607 189.475 146.976C191.949 145.353 194.511 143.868 197.149 142.528C198.159 142.027 199 141.639 199.674 141.426C199.934 141.249 200.215 141.104 200.51 140.993Z" fill="#455A64"/>
<path d="M187.199 145.664C185.738 147.276 184.171 148.791 182.51 150.196C180.939 151.709 179.279 153.125 177.538 154.437C178.999 152.825 180.566 151.311 182.227 149.905C183.798 148.392 185.458 146.976 187.199 145.664Z" fill="#455A64"/>
<path d="M184.16 143.785C183.794 144.388 183.373 144.956 182.903 145.482C182.051 146.508 180.855 147.906 179.403 149.363C177.952 150.82 176.681 152.127 175.684 153.017C175.183 153.536 174.621 153.992 174.011 154.375C174.469 153.804 174.966 153.264 175.497 152.759L179.109 149.046C180.251 147.8 181.341 146.644 182.588 145.222C183.067 144.696 183.593 144.215 184.16 143.785Z" fill="#455A64"/>
<path d="M187.952 131.821C187.84 132.13 187.68 132.42 187.479 132.681C187.165 133.212 186.662 133.976 186.035 134.911C184.793 136.805 182.986 139.335 180.876 142.057C178.767 144.78 176.759 147.154 175.252 148.827C174.512 149.658 173.889 150.337 173.455 150.783C173.249 151.041 173.005 151.265 172.73 151.448C172.901 151.171 173.1 150.911 173.322 150.672L175.045 148.626C176.455 146.983 178.459 144.501 180.562 141.797C182.664 139.094 184.522 136.603 185.788 134.76L187.34 132.59C187.52 132.315 187.725 132.058 187.952 131.821Z" fill="#455A64"/>
<path d="M184.473 131.561C184.374 131.851 184.234 132.126 184.058 132.378C183.751 132.89 183.305 133.61 182.736 134.5C181.593 136.237 179.928 138.667 177.949 141.2C175.97 143.734 174.143 145.957 172.626 147.477C171.906 148.25 171.329 148.86 170.901 149.287C170.7 149.513 170.472 149.713 170.222 149.883C170.376 149.619 170.562 149.376 170.775 149.158L172.4 147.269C173.81 145.626 175.655 143.474 177.615 140.933C179.575 138.393 181.289 136.066 182.497 134.331L183.919 132.286C184.083 132.029 184.268 131.786 184.473 131.561Z" fill="#455A64"/>
<path d="M122.94 125.749C123.023 125.346 123.16 124.955 123.347 124.588C123.703 123.702 123.761 122.725 123.512 121.803C123.408 121.359 123.147 120.968 122.777 120.701C122.408 120.434 121.954 120.309 121.5 120.349C120.772 120.414 120.503 120.876 120.44 120.811C120.377 120.746 120.64 120.24 121.453 120.055C121.938 119.959 122.44 120.044 122.866 120.294C123.37 120.613 123.744 121.1 123.923 121.669C124.191 122.678 124.088 123.749 123.633 124.688C123.481 125.088 123.245 125.45 122.94 125.749Z" fill="#455A64"/>
<path d="M124.955 132.314C125.731 130.609 126.353 128.838 126.811 127.022C127.065 126.299 126.86 125.543 126.283 125.298C126.035 125.188 125.764 125.137 125.493 125.15C125.222 125.162 124.957 125.237 124.719 125.369C123.863 125.86 123.428 126.37 123.384 126.312C123.34 126.254 123.438 126.159 123.645 125.933C123.908 125.608 124.223 125.328 124.577 125.106C124.856 124.928 125.174 124.821 125.504 124.795C125.833 124.769 126.164 124.824 126.467 124.957C126.654 125.044 126.819 125.171 126.952 125.328C127.085 125.486 127.182 125.67 127.238 125.868C127.33 126.269 127.33 126.686 127.238 127.087C126.956 128.407 126.508 129.686 125.902 130.893C125.678 131.421 125.356 131.903 124.955 132.314Z" fill="#455A64"/>
<path d="M129.72 137.255C129.685 136.63 129.712 136.002 129.8 135.381C129.882 134.234 129.945 132.653 129.921 130.892C129.931 130.501 129.838 130.115 129.652 129.771C129.558 129.639 129.425 129.539 129.271 129.485C129.118 129.431 128.952 129.426 128.795 129.471C128.167 129.657 127.571 129.938 127.028 130.304C126.068 130.908 125.562 131.436 125.518 131.378C125.855 130.837 126.314 130.383 126.86 130.053C127.42 129.626 128.048 129.297 128.719 129.081C128.948 129.02 129.19 129.03 129.414 129.109C129.638 129.187 129.833 129.331 129.975 129.521C130.228 129.93 130.352 130.405 130.33 130.886C130.373 132.4 130.292 133.916 130.087 135.418C130.053 136.045 129.93 136.664 129.72 137.255Z" fill="#455A64"/>
<path d="M127.564 123.781C127.564 123.781 127.764 123.21 128.065 122.353C128.234 121.794 128.279 121.205 128.198 120.626C128.116 120.048 127.911 119.494 127.594 119.003C127.23 118.487 126.688 118.122 126.073 117.978C125.565 117.883 125.04 117.963 124.583 118.203C124.165 118.451 123.815 118.798 123.566 119.214C123.589 118.944 123.682 118.685 123.836 118.462C123.989 118.239 124.197 118.059 124.44 117.939C124.949 117.625 125.552 117.504 126.143 117.596C126.841 117.753 127.459 118.16 127.879 118.74C128.242 119.271 128.469 119.884 128.539 120.523C128.61 121.163 128.521 121.81 128.281 122.408C128.168 122.921 127.92 123.395 127.564 123.781Z" fill="#455A64"/>
<path d="M131.698 128.266C132.232 126.79 132.421 125.211 132.248 123.65C132.162 123.043 131.916 122.465 131.466 122.285C131.255 122.21 131.028 122.187 130.806 122.216C130.584 122.246 130.372 122.329 130.187 122.457C129.498 122.899 129.178 123.385 129.115 123.32C129.303 122.869 129.617 122.482 130.019 122.205C130.24 122.029 130.502 121.911 130.78 121.863C131.059 121.815 131.345 121.838 131.612 121.93C131.918 122.095 132.175 122.336 132.361 122.629C132.546 122.923 132.653 123.259 132.67 123.606C132.832 124.408 132.829 125.235 132.662 126.036C132.494 126.837 132.166 127.596 131.698 128.266Z" fill="#455A64"/>
<path d="M142.005 100.288C142.119 100.328 139.611 104.429 136.414 109.399C133.217 114.37 130.565 118.334 130.476 118.282C130.388 118.23 132.869 114.141 136.067 109.171C139.264 104.2 141.916 100.236 142.005 100.288Z" fill="#455A64"/>
<path d="M140.733 106.962C140.446 107.541 140.091 108.084 139.674 108.578C138.65 110.036 137.841 111.184 136.999 112.364C136.158 113.543 135.38 114.724 134.349 116.201C134.02 116.759 133.636 117.283 133.202 117.765C133.43 117.122 133.744 116.513 134.136 115.955C134.752 114.931 135.648 113.535 136.685 112.04C137.723 110.544 138.72 109.227 139.474 108.294C139.846 107.807 140.268 107.36 140.733 106.962Z" fill="#455A64"/>
<path d="M135.033 106.33C135.128 106.363 133.74 107.821 132.37 109.778C131 111.734 130.13 113.481 130.004 113.415C131.001 110.638 132.741 108.187 135.033 106.33Z" fill="#455A64"/>
</svg>
