<svg width="327" height="141" viewBox="0 0 327 141" fill="none" xmlns="http://www.w3.org/2000/svg">
<path d="M183.248 81.9382C183.856 82.5545 188.572 88.7008 185.499 97.5505L198.983 125.414L236.625 125.973C236.625 125.973 233.141 106.449 215.606 111.774C215.606 111.774 206.214 101.445 206.617 95.9153C207.019 90.3853 213.388 51.6176 209.698 41.7737C206.009 31.9298 178.326 12.6445 178.326 12.6445L143.247 17.0653C143.247 17.0653 139.139 38.4787 144.069 46.8847C148.999 55.2906 158.86 61.6752 169.492 70.3687C180.125 79.0623 183.248 81.9382 183.248 81.9382Z" fill="#F4A15D"/>
<path opacity="0.3" d="M183.248 81.9382C183.856 82.5545 188.572 88.7008 185.499 97.5505L198.983 125.414L236.625 125.973C236.625 125.973 233.141 106.449 215.606 111.774C215.606 111.774 206.214 101.445 206.617 95.9153C207.019 90.3853 213.388 51.6176 209.698 41.7737C206.009 31.9298 178.326 12.6445 178.326 12.6445L143.247 17.0653C143.247 17.0653 139.139 38.4787 144.069 46.8847C148.999 55.2906 158.86 61.6752 169.492 70.3687C180.125 79.0623 183.248 81.9382 183.248 81.9382Z" fill="black"/>
<path d="M120.856 26.1706C109.352 30.9857 97.9062 34.7245 86.4271 39.5396C78.7771 42.7525 71.0121 45.9982 62.7869 47.1157C54.5617 48.2332 45.671 47.0088 39.0645 41.9801C34.956 38.8494 31.9815 34.4862 28.8344 30.3777C25.6873 26.2692 22.1293 22.2182 17.3881 20.1393C12.647 18.0605 6.45136 18.4959 3.0824 22.4237C0.420104 25.5215 0.0832089 30.1394 1.38149 34.0096C2.67977 37.8798 5.37494 41.1337 8.3084 43.9768C22.2772 57.5923 42.5156 63.9851 61.9734 62.6046C81.4312 61.2242 100.01 52.4649 114.718 39.6464" fill="#F4A15D"/>
<g opacity="0.3">
<path d="M81.1437 41.734C81.6458 42.9056 81.8944 44.1703 81.8731 45.4448C81.8519 46.7193 81.5613 47.975 81.0204 49.1293C80.228 50.4404 79.3496 51.6976 78.391 52.8926C77.4337 54.1041 76.9333 55.6138 76.9777 57.1572C77.0516 57.905 77.4707 58.7349 78.2102 58.8006C78.5167 58.79 78.8168 58.7107 79.0885 58.5684C79.3602 58.4262 79.5964 58.2248 79.7797 57.9789C84.4551 53.1884 86.6573 46.582 84.9071 40.1152L81.0615 41.6929" fill="black"/>
</g>
<g opacity="0.3">
<path d="M94.2578 36.3522C94.907 39.7212 93.8552 43.1641 92.672 46.3851C92.1132 47.897 91.5791 49.7376 92.598 50.9784C93.4854 52.063 95.137 52.1041 96.5093 51.8001C100.881 50.8387 104.422 47.4122 106.419 43.4024C108.416 39.3925 109.04 35.2347 109.229 30.7646" fill="black"/>
</g>
<g opacity="0.3">
<path d="M68.8756 45.9082C68.8756 45.9082 66.3448 51.9477 64.4302 54.5935C63.6143 55.9077 62.4358 56.9578 61.0366 57.6174C59.6069 58.1761 57.7498 57.8146 56.9856 56.467C56.7371 55.906 56.6383 55.2901 56.6988 54.6795C56.7593 54.0689 56.977 53.4844 57.3308 52.983C58.0458 51.9895 58.8429 51.0577 59.7137 50.1975C60.5354 49.2689 61.201 48.5541 61.201 47.3051C61.1845 47.3051 67.6841 46.4423 68.8756 45.9082Z" fill="black"/>
</g>
<g opacity="0.3">
<path d="M71.5872 61.3154C74.3316 60.7567 74.8246 56.525 75.7614 52.1453C75.9257 51.3976 75.9586 50.4362 75.293 50.0582C75.0488 49.9484 74.7767 49.9163 74.5136 49.9663C74.2505 50.0163 74.0092 50.1459 73.8222 50.3376C73.4647 50.7302 73.1858 51.1876 73.0005 51.6852C70.9174 55.6878 68.16 59.3014 64.8492 62.3672C64.8492 62.3672 70.1492 61.6113 71.5872 61.3154Z" fill="black"/>
</g>
<g opacity="0.3">
<path d="M44.6768 45.175C42.2117 47.3197 39.9767 48.0099 36.9693 49.2835C33.965 50.6297 30.6694 51.1949 27.3883 50.9269C24.7073 50.5608 22.0824 49.8625 19.5739 48.848L15.2354 47.2704C14.6273 47.0485 13.9207 46.7198 13.8385 46.0789C13.7563 45.438 14.4876 44.8299 15.1696 44.5752C18.3743 43.4166 21.8993 44.5177 25.2929 44.9039C30.1237 45.4522 35.0055 44.4845 39.2618 42.1348C40.9348 43.3672 42.7535 44.3883 44.6768 45.175Z" fill="black"/>
</g>
<g opacity="0.3">
<path d="M2.37562 23.6541C1.36493 26.7273 2.89329 30.2277 5.35016 32.2984C7.80703 34.3691 11.0281 35.3551 14.1916 36.0043C17.6427 36.7191 21.3733 37.0971 24.5779 35.6345C25.2219 35.441 25.8148 35.1064 26.3133 34.6551C26.8119 34.2038 27.2037 33.6472 27.4602 33.0255C27.7167 32.4039 27.8316 31.7329 27.7963 31.0613C27.7611 30.3898 27.5767 29.7345 27.2566 29.1431C25.8762 25.7413 22.7784 23.3337 19.5162 21.6492C16.4102 20.0469 12.9426 18.9376 9.434 19.406C5.92535 19.8744 2.59748 22.208 1.71826 25.5934" fill="black"/>
</g>
<path d="M115.071 31.4125C115.071 31.4125 147.644 -1.15955 179.624 0.0319077C211.604 1.22337 227.586 21.3467 237.66 20.1635C247.734 18.9802 285.623 7.72299 292.714 8.91445V47.4027C290.931 50.1061 262.944 87.1318 251.317 89.3093C239.69 91.4868 219.033 94.4778 213.001 89.3093C206.97 84.1408 182.434 63.9106 180.717 61.7578C178.999 59.6049 129.484 63.4751 129.484 63.4751L115.071 31.4125Z" fill="#F4A15D"/>
<path d="M288.984 8.98178C288.984 8.98178 290.964 3.30385 293.832 2.4082L296.083 8.98178C296.083 8.98178 314.695 19.4173 315.196 22.5398C315.697 25.6622 315.196 26.5414 315.196 26.5414C315.196 26.5414 324.686 33.5341 325.812 36.2786C326.938 39.023 326.634 46.7387 321.704 48.1521C318.269 49.1381 322.295 55.7035 310.348 51.71C305.418 50.0666 303.774 48.0206 303.774 48.0206C303.774 48.0206 298.483 52.0387 288.491 48.9656C278.499 45.8924 274.522 26.0402 274.522 26.0402L288.984 8.98178Z" fill="#F4A15D"/>
<g opacity="0.3">
<path d="M303.881 19.8732C301.177 18.6494 298.11 18.4945 295.296 19.4396C292.482 20.3847 290.13 22.3597 288.713 24.9677C287.686 26.8494 287.184 28.9858 286.092 30.8264C284.58 33.3737 281.983 35.3458 281.359 38.2217C280.849 40.6868 282.073 43.3244 283.963 45.0254C285.933 46.6537 288.267 47.7813 290.767 48.3121C293.47 49.0188 296.404 49.3968 298.984 48.3779C300.299 47.8684 301.515 46.9974 302.92 46.9235C304.925 46.8084 307.028 46.1018 308.811 47.0138C311.441 48.3121 313.355 48.7148 316.01 47.4658C318.664 46.2168 321.071 45.05 322.271 42.6424C322.679 41.5849 322.679 40.4132 322.271 39.3556C322.123 38.818 321.859 38.319 321.499 37.8934C321.138 37.4677 320.69 37.1255 320.184 36.8906C319.288 36.5126 318.13 36.4879 317.579 35.6827C317.028 34.8774 317.332 34.0968 317.176 33.2997C316.992 32.704 316.687 32.1527 316.28 31.6804C315.872 31.2081 315.372 30.8251 314.81 30.5553C313.68 30.0292 312.645 29.3213 311.745 28.4599C310.701 27.2356 310.463 25.5429 309.732 24.1131C308.507 21.722 304.859 20.0868 303.832 19.8732" fill="white"/>
</g>
<path d="M250.011 122.695C247.56 121.562 245.637 119.532 244.638 117.023C243.64 114.514 243.642 111.718 244.645 109.21C246.699 104.584 251.802 102.169 254.908 98.1751C258.014 94.1816 257.57 90.3936 256.748 85.5127C255.927 80.6319 254.809 74.7321 251.744 70.8537C250.331 69.0706 248.679 67.0163 249.164 64.7895C249.532 63.6181 250.197 62.5621 251.095 61.7246C256.157 56.17 261.481 50.8727 267.069 45.833C273.511 54.1814 276.025 64.9046 277.209 75.4141C277.981 82.2753 278.252 89.2515 277.053 96.0387C275.853 102.826 273.084 109.473 268.384 114.519C263.684 119.564 256.88 122.867 250.011 122.58" fill="#F4A15D"/>
<path d="M155.063 96.3011C155.68 96.9174 160.396 103.064 157.315 111.913L170.807 139.769L208.441 140.328C208.441 140.328 204.965 120.804 187.422 126.129C187.422 126.129 178.03 115.808 178.441 110.27C178.852 104.732 185.203 65.9805 181.514 56.1366C177.824 46.2926 150.141 27.0156 150.141 27.0156L115.071 31.4364C115.071 31.4364 110.963 52.8498 115.893 61.264C120.823 69.6782 130.684 76.0545 141.325 84.7398C151.966 93.4252 155.063 96.3011 155.063 96.3011Z" fill="#F4A15D"/>
<path d="M277.792 23.0804C276.566 22.4455 275.486 21.5613 274.621 20.4844C273.756 19.4076 273.127 18.1619 272.772 16.8273C272.067 14.1462 271.93 11.3475 272.369 8.61035C276.192 8.9315 279.779 10.5899 282.5 13.294" fill="#F4A15D"/>
<path d="M282.517 13.319C282.468 13.3765 281.621 12.4973 279.912 11.3798C277.639 9.93721 275.051 9.06607 272.369 8.84077L272.591 8.66C272.492 9.48169 272.418 10.3034 272.385 11.199C272.285 12.9872 272.459 14.7803 272.903 16.5154C273.274 17.9294 273.915 19.2578 274.793 20.4267C275.623 21.4923 276.646 22.3925 277.809 23.0808C277.809 23.0808 277.71 23.0808 277.537 22.9904C277.286 22.882 277.042 22.7586 276.806 22.6206C275.946 22.0873 275.184 21.409 274.555 20.6157C273.616 19.4352 272.925 18.0767 272.525 16.6222C272.045 14.8514 271.853 13.0145 271.958 11.1826C271.958 10.2952 272.073 9.43239 272.172 8.6107V8.40527H272.377C275.121 8.64549 277.758 9.5847 280.035 11.1333C280.702 11.5865 281.328 12.095 281.909 12.6535C282.141 12.8463 282.346 13.0703 282.517 13.319Z" fill="#263238"/>
<g opacity="0.3">
<path d="M163.593 1.96387C159.677 3.07718 155.834 4.43567 152.089 6.03128C145.515 14.5687 144.455 24.9303 147.66 35.1933C147.41 28.7759 148.73 22.3944 151.507 16.6034C154.283 10.8123 158.432 5.78694 163.593 1.96387Z" fill="black"/>
</g>
<g opacity="0.3">
<path d="M171.267 0.444832C165.53 2.88301 160.941 7.42161 158.44 13.1318C155.913 18.9057 155.66 25.4215 157.734 31.3735C158.954 24.3902 161.983 17.8485 166.518 12.4003C171.054 6.95208 176.938 2.78752 183.584 0.321583C179.486 -0.0742044 175.357 -0.0328921 171.267 0.444832Z" fill="black"/>
</g>
<g opacity="0.3">
<path d="M188.934 0.943359C183.28 6.17757 177.068 11.9294 171.423 17.1719C169.008 19.4069 166.427 21.9952 166.296 25.2738C175.86 17.5498 185.417 9.89985 194.973 2.16768C192.763 1.65001 190.684 1.19809 188.934 0.943359Z" fill="black"/>
</g>
<g opacity="0.3">
<path d="M205.631 5.62012C199.69 5.94058 195.417 8.17557 190.947 12.0951C186.451 16.058 183.399 21.4022 182.27 27.2883C182.116 27.8253 182.116 28.3947 182.27 28.9317C182.771 30.1478 184.62 30.1888 185.631 29.3589C186.641 28.529 187.06 27.1814 187.52 25.9489C191.251 15.9817 201.917 8.69326 212.549 8.69326C210.271 7.57575 207.964 6.55137 205.631 5.62012Z" fill="black"/>
</g>
<g opacity="0.3">
<path d="M178.539 51.5701C179.449 47.0515 181.345 42.7892 184.09 39.0865C186.835 35.3839 190.363 32.3321 194.423 30.1484C191.341 34.3555 188.243 38.5955 185.918 43.2956C183.593 47.9957 182.072 53.156 182.352 58.3491" fill="black"/>
</g>
<g opacity="0.3">
<path d="M216.518 10.8037C212.133 12.7121 208.48 15.9823 206.099 20.13C205.943 20.4258 205.795 20.8202 206.033 21.0667C206.272 21.3132 206.699 21.1653 207.011 20.9927L220.98 13.2935L216.518 10.8037Z" fill="black"/>
</g>
<g opacity="0.3">
<path d="M224.752 15.4531C213.539 20.466 203.495 27.7618 195.261 36.8747C192.262 40.1615 189.345 44.27 190.002 48.6415C190.018 49.062 190.141 49.4716 190.359 49.8312C190.578 50.1908 190.885 50.4884 191.251 50.6957C191.628 50.8006 192.027 50.7918 192.398 50.6704C192.769 50.5491 193.097 50.3206 193.338 50.0137C193.813 49.3949 194.18 48.7004 194.423 47.9595C197.422 40.7943 204.144 36.0038 210.602 31.6981C217.061 27.3924 223.889 23.8426 227.299 16.9075L224.752 15.4531Z" fill="black"/>
</g>
<g opacity="0.3">
<path d="M231.366 18.8721C224.291 28.9379 211.382 33.4983 204.801 43.8928C216.222 38.5517 228.564 29.1679 237.406 20.1868C236.445 20.1965 235.486 20.1222 234.538 19.9649C233.463 19.6552 232.404 19.2904 231.366 18.8721Z" fill="black"/>
</g>
<g opacity="0.3">
<path d="M248.005 24.4277C247.389 27.9692 244.217 30.459 241.07 32.1846C237.923 33.9101 234.423 35.3234 232.147 38.1008C228.457 42.6201 229.131 49.2841 231.013 54.8059C231.267 55.5618 231.621 56.4082 232.558 56.4986C232.864 56.5178 233.169 56.4511 233.439 56.3059C233.709 56.1607 233.933 55.9428 234.086 55.6769C234.784 54.5676 234.497 53.294 234.332 52.0861C233.955 48.9898 234.441 45.8496 235.736 43.0119C237.03 40.1742 239.084 37.7495 241.67 36.0054C243.88 34.5593 246.452 33.6307 248.359 31.8066C249.584 30.6644 250.337 29.1049 250.471 27.4351C250.491 26.721 250.252 26.0237 249.799 25.4712C249.347 24.9187 248.71 24.5482 248.005 24.4277Z" fill="black"/>
</g>
<g opacity="0.3">
<path d="M256.83 20.2891C256.124 22.9733 255.42 25.663 254.719 28.3581C254.513 29.1798 254.415 30.207 255.138 30.6014C255.861 30.9958 256.576 30.4206 257.044 29.8454C258.909 27.5529 258.646 22.6062 256.83 20.2891Z" fill="black"/>
</g>
<g opacity="0.3">
<path d="M266.034 13.7129L262.147 14.6579C264.844 17.4183 266.529 21.0087 266.929 24.8469C266.97 25.4385 267.044 26.1534 267.57 26.4245C268.301 26.8025 269.074 25.989 269.403 25.2413C271.112 21.4286 269.46 16.1122 266.034 13.7129Z" fill="black"/>
</g>
<g opacity="0.3">
<path d="M136.509 80.8455C136.491 79.1735 136.825 77.5163 137.487 75.9811C137.826 74.9439 138.369 73.9847 139.083 73.1593C139.796 72.334 140.668 71.6592 141.645 71.1742C143.716 70.2703 146.09 70.5496 148.334 70.8208C150.884 71.212 153.473 71.2837 156.041 71.0345C158.63 70.7764 161.058 69.6566 162.935 67.8545C162.442 70.2456 161.801 72.8833 159.772 74.2391C158.182 75.1562 156.307 75.4491 154.513 75.0608C152.722 74.7814 150.971 74.2391 149.164 74.0912C146.67 73.9297 144.196 74.6291 142.156 76.0723C140.116 77.5156 138.634 79.6153 137.956 82.0205" fill="black"/>
</g>
<g opacity="0.3">
<path d="M181.506 87.074C180.955 83.7379 178.145 81.1084 174.981 79.9088C171.818 78.7091 168.334 78.7173 164.965 78.9227C161.596 79.1282 158.186 79.5472 154.833 79.1035C156.921 81.659 160.15 83.0066 163.346 83.8118C166.543 84.6171 169.862 84.9951 172.977 86.0962C176.091 87.1972 179.64 91.0263 180.955 94.0502" fill="black"/>
</g>
<g opacity="0.3">
<path d="M157.192 99.9604C158.551 98.713 160.156 97.7626 161.903 97.1698C163.65 96.577 165.502 96.3549 167.34 96.5175C169.109 96.7555 170.806 97.3728 172.315 98.3272C173.824 99.2816 175.109 100.551 176.083 102.048C174.398 101.571 172.599 102.31 171.193 103.354C169.788 104.398 168.613 105.729 167.175 106.723C165.885 107.62 164.408 108.213 162.855 108.458C161.303 108.703 159.715 108.593 158.211 108.136C158.581 105.369 158.23 102.552 157.192 99.9604Z" fill="black"/>
</g>
<g opacity="0.3">
<path d="M160.084 117.667C163.524 115.601 167.306 114.168 171.251 113.435C172.196 113.176 173.198 113.205 174.127 113.517C175.006 114.005 175.73 114.731 176.214 115.613L181.489 123.402C178.359 123.402 175.343 122.293 172.319 121.488C169.295 120.683 165.121 120.042 162.196 121.989" fill="black"/>
</g>
<g opacity="0.3">
<path d="M120.856 26.1693C124.143 30.1463 125.359 35.5531 125.787 40.6969C126.214 45.8408 126.041 51.0667 127.43 56.038C130.257 45.3149 128.999 32.973 125.45 22.4717" fill="black"/>
</g>
<g opacity="0.3">
<path d="M128.038 20.4173C131.867 22.8167 133.354 27.8866 133.338 32.4059C133.321 36.9252 132.294 41.4446 132.812 45.9228C133.135 48.7385 134.059 51.452 135.52 53.8803C136.981 56.3087 138.946 58.3954 141.283 59.9997C143.619 61.604 146.272 62.6886 149.064 63.1802C151.855 63.6719 154.719 63.5592 157.463 62.8498C161.185 61.8884 165.047 59.8342 168.662 61.1489C172.007 62.3732 173.708 65.9969 175.08 69.2837C175.578 66.0774 174.911 62.7988 173.201 60.0418C171.49 57.2848 168.848 55.2318 165.754 54.2548C159.18 52.3896 151.62 55.7914 145.417 52.8662C141.144 50.853 138.629 46.2104 137.75 41.5678C136.871 36.9253 137.348 32.143 137.446 27.4182C137.545 22.6935 138.071 19.1273 135.803 14.9941" fill="black"/>
</g>
<path d="M324.842 45.6843C324.705 45.6181 324.583 45.526 324.481 45.4131C324.176 45.1131 323.921 44.7664 323.725 44.386C323.388 43.7052 323.193 42.9633 323.15 42.2049C323.108 41.4466 323.22 40.6876 323.478 39.9735L323.84 40.1132C323.308 41.5251 322.58 42.8555 321.679 44.0655C320.838 45.1944 319.758 46.1232 318.515 46.7853C317.497 47.3063 316.372 47.5873 315.229 47.607C314.455 47.6234 313.687 47.4836 312.969 47.1962C312.777 47.1183 312.592 47.022 312.418 46.9086C312.295 46.8347 312.238 46.7853 312.246 46.7771C313.226 47.1805 314.284 47.3582 315.343 47.2971C316.401 47.2359 317.432 46.9374 318.359 46.4238C319.536 45.773 320.559 44.8762 321.358 43.7944C322.241 42.6154 322.965 41.3252 323.511 39.957L323.873 40.0967C323.356 41.4465 323.389 42.9448 323.963 44.2709C324.21 44.7695 324.504 45.2428 324.842 45.6843Z" fill="#263238"/>
<path d="M302.238 25.0594C301.772 24.907 301.265 24.9398 300.823 25.1509C300.381 25.3621 300.037 25.7354 299.863 26.1934C299.723 26.6966 299.784 27.2344 300.032 27.6939C300.28 28.1534 300.697 28.4991 301.194 28.6584C301.443 28.7175 301.701 28.7259 301.954 28.683C302.206 28.6401 302.447 28.5469 302.662 28.4088C302.878 28.2708 303.063 28.0908 303.208 27.8796C303.352 27.6684 303.453 27.4303 303.503 27.1794C303.643 26.1523 302.763 25.0183 302.073 25.043" fill="#263238"/>
<path d="M291.876 22.7441C291.303 24.7663 291.253 26.9008 291.731 28.9475C292.208 30.9943 293.197 32.8864 294.605 34.4466C296.014 36.0067 297.795 37.1838 299.782 37.8677C301.77 38.5515 303.898 38.7197 305.968 38.3564C303.725 41.1173 298.721 38.9809 296.001 41.2816C294.629 42.4484 294.021 44.6342 292.262 45.0368C290.504 45.4394 288.885 43.5166 288.359 41.6925C287.373 38.266 288.055 34.6094 288.745 31.1172C289.271 28.4221 289.764 25.2174 291.876 22.777" fill="#F4A15D"/>
<path d="M296.913 19.1283C298.889 19.0751 300.846 19.5208 302.604 20.4241C304.362 21.3275 305.864 22.6594 306.971 24.2967C307.735 25.4553 308.285 26.7618 309.058 27.8876C309.769 29.09 310.893 29.9925 312.221 30.4266C310.89 30.5663 309.452 30.6978 308.285 30.0404C306.773 29.2187 306.206 27.3534 305.401 25.8087C304.651 24.3793 303.617 23.1181 302.362 22.1023C301.107 21.0864 299.659 20.3373 298.104 19.9007L296.913 19.1283Z" fill="#F4A15D"/>
<path d="M316.034 43.1463C315.927 43.1052 315.976 42.7272 316.141 42.3246C316.305 41.922 316.535 41.5933 316.65 41.6426C316.765 41.6919 316.708 42.0617 316.543 42.4643C316.379 42.8669 316.149 43.1874 316.034 43.1463Z" fill="#263238"/>
<path d="M313.602 40.8624C313.503 40.7967 313.602 40.4762 313.799 40.1393C313.996 39.8024 314.267 39.5806 314.366 39.6463C314.465 39.712 314.366 40.0325 314.169 40.3694C313.971 40.7063 313.741 40.9282 313.602 40.8624Z" fill="#263238"/>
<path d="M319.945 41.0262C319.83 41.0262 319.666 40.8537 319.584 40.5579C319.502 40.262 319.526 39.9991 319.633 39.9662C319.74 39.9334 319.912 40.147 319.995 40.4346C320.077 40.7222 320.06 40.9934 319.945 41.0262Z" fill="#263238"/>
<path d="M303.215 23.2455C302.628 22.4366 301.828 21.8058 300.904 21.423C299.98 21.0402 298.969 20.9202 297.981 21.0763C297.858 21.0967 297.742 21.1475 297.644 21.2242C297.545 21.3009 297.468 21.4009 297.418 21.5152C297.368 21.6296 297.348 21.7545 297.359 21.8788C297.369 22.003 297.411 22.1226 297.48 22.2266C297.585 22.386 297.713 22.5298 297.858 22.6539C298.303 22.9898 298.812 23.2304 299.353 23.3606L302.533 24.3877C302.646 24.4363 302.768 24.4614 302.891 24.4614C303.014 24.4614 303.135 24.4363 303.248 24.3877C303.626 24.1494 303.462 23.6071 303.215 23.2455Z" fill="#263238"/>
<path d="M276.839 12.2178C277.228 12.2744 277.592 12.446 277.883 12.7108C278.655 13.283 279.215 14.0949 279.477 15.0197C279.739 15.9444 279.687 16.9298 279.329 17.8217C279.049 18.4955 278.721 18.816 278.688 18.7913C278.782 18.4278 278.9 18.0709 279.041 17.7231C279.278 16.8794 279.278 15.9867 279.041 15.143C278.795 14.2988 278.323 13.5376 277.677 12.9408C277.192 12.4807 276.806 12.2835 276.839 12.2178Z" fill="#263238"/>
<g opacity="0.2">
<path d="M278.491 13.4178C277.607 12.8916 276.648 12.5037 275.648 12.2674C275.467 12.1975 275.273 12.1708 275.08 12.1893C274.888 12.2079 274.702 12.2712 274.538 12.3743C274.16 12.6947 274.259 13.3028 274.415 13.7794C274.789 14.9417 275.265 16.069 275.836 17.1483C276.165 17.7728 276.658 18.4466 277.34 18.4959C278.022 18.5452 278.68 17.8057 278.91 17.0908C279.115 16.424 279.148 15.7158 279.004 15.0329C278.86 14.35 278.545 13.715 278.088 13.1877" fill="black"/>
</g>
<g opacity="0.3">
<path d="M184.365 65.0952C191.637 62.9506 201.35 64.8816 207.89 68.7189C214.431 72.5563 221.711 76.7387 229.107 75.235C240.561 72.9671 246.288 58.6614 257.587 55.7115C261.498 54.6926 265.656 55.1774 269.649 54.5282C272.509 54.0599 275.245 53.0081 278.113 52.5644C280.98 52.1206 284.144 52.3754 286.379 54.2078L287.332 54.52C287.332 54.52 276.831 68.7189 268.187 76.7058C259.542 84.6927 258.417 88.6533 241.983 90.8226C225.549 92.9919 216.888 92.3263 214.045 89.853C211.202 87.3797 184.365 65.0952 184.365 65.0952Z" fill="white"/>
</g>
<path d="M217.644 49.2266C217.644 49.2266 199.673 76.4166 198.087 77.986C196.871 79.2021 200.265 84.8307 198.769 89.9746C197.274 95.1184 190.183 99.2104 187.2 101.141C184.217 103.072 178.441 109.276 183.576 116.359C183.576 116.359 197.069 119.999 201.571 116.359C206.074 112.719 214.645 103.286 216.781 94.272C218.917 85.258 232.434 64.0254 232.434 64.0254C232.434 64.0254 229.871 46.6547 217.644 49.2266Z" fill="#F4A15D"/>
<path d="M196.765 105.316C196.741 105.566 196.677 105.81 196.576 106.039C196.342 106.678 196.045 107.292 195.688 107.871C194.512 109.812 192.802 111.372 190.761 112.365C188.721 113.357 186.437 113.74 184.184 113.467C183.508 113.395 182.842 113.252 182.196 113.04C181.95 112.984 181.716 112.884 181.506 112.744C181.506 112.67 182.533 113.04 184.209 113.171C186.396 113.352 188.591 112.939 190.563 111.978C192.535 111.016 194.212 109.541 195.417 107.707C196.37 106.318 196.691 105.291 196.765 105.316Z" fill="#263238"/>
<path d="M202.722 111.249C202.66 111.845 202.476 112.421 202.18 112.942C201.551 114.248 200.617 115.383 199.457 116.253C198.297 117.122 196.946 117.7 195.516 117.938C194.937 118.081 194.334 118.095 193.749 117.979C193.749 117.913 194.414 117.888 195.458 117.642C196.809 117.323 198.081 116.733 199.197 115.908C200.303 115.066 201.227 114.009 201.917 112.802C202.442 111.849 202.656 111.249 202.722 111.249Z" fill="#263238"/>
<path d="M212.048 94.0501C211.917 94.0501 211.917 92.0452 211.284 89.6869C210.651 87.3287 209.641 85.5784 209.78 85.5127C210.716 86.7041 211.371 88.0918 211.695 89.5719C212.154 91.0179 212.275 92.55 212.048 94.0501Z" fill="#263238"/>
<path d="M213.371 91.3236C212.458 90.0492 211.866 88.5732 211.646 87.021C211.426 85.4688 211.583 83.8864 212.106 82.4082C211.619 85.4396 212.061 88.5472 213.371 91.3236Z" fill="#263238"/>
<path d="M213.494 84.625C213.612 85.2921 213.642 85.9715 213.585 86.6464C213.67 87.3202 213.67 88.0021 213.585 88.676C213.253 88.0594 213.102 87.3615 213.149 86.6628C213.072 85.9646 213.191 85.2586 213.494 84.625Z" fill="#263238"/>
<path d="M207.373 48.125C207.432 48.2219 207.476 48.3271 207.504 48.4372C207.562 48.6427 207.677 48.9467 207.775 49.3493C208.079 50.4765 208.298 51.6245 208.433 52.784C208.889 56.6257 208.517 60.5205 207.34 64.2059C206.164 67.8913 204.211 71.2816 201.613 74.1482C200.831 75.0155 199.988 75.8256 199.09 76.5721C198.778 76.8433 198.507 77.0241 198.334 77.1556C198.251 77.2307 198.157 77.2918 198.055 77.3363C198.336 77.0155 198.644 76.7186 198.975 76.4489C199.825 75.6748 200.629 74.8517 201.382 73.9838C203.891 71.1019 205.783 67.7376 206.943 64.0975C208.103 60.4575 208.507 56.6186 208.129 52.8169C208.022 51.663 207.849 50.5162 207.611 49.3822C207.501 48.9695 207.421 48.5493 207.373 48.125Z" fill="#263238"/>
<path d="M199.106 140.426C199.343 139.196 199.312 137.929 199.016 136.712C198.663 135.408 198.007 134.206 197.102 133.203C195.975 131.993 194.562 131.086 192.993 130.565C191.406 130.035 189.733 129.812 188.063 129.908C186.706 129.983 185.361 130.207 184.053 130.574C181.81 131.206 180.487 131.831 180.462 131.765C180.739 131.567 181.04 131.404 181.358 131.28C182.203 130.89 183.073 130.555 183.963 130.278C185.297 129.863 186.676 129.606 188.071 129.514C189.782 129.395 191.499 129.615 193.124 130.163C194.762 130.705 196.231 131.662 197.389 132.94C198.321 133.996 198.976 135.266 199.295 136.638C199.516 137.556 199.549 138.509 199.394 139.44C199.355 139.692 199.292 139.94 199.205 140.179C199.156 140.344 199.123 140.426 199.106 140.426Z" fill="#263238"/>
<g opacity="0.3">
<path d="M245.253 117.493C245.598 117.778 246.013 117.966 246.455 118.038C246.896 118.11 247.349 118.064 247.767 117.904C248.597 117.568 249.356 117.077 250.002 116.458C251.235 115.414 252.55 114.116 252.517 112.497C252.517 111.15 251.506 109.934 251.597 108.594C251.798 107.619 252.204 106.698 252.788 105.891C253.273 105.02 253.61 103.902 253.043 103.073C252.792 102.753 252.456 102.511 252.073 102.376C251.691 102.241 251.277 102.217 250.882 102.308C250.093 102.508 249.365 102.897 248.762 103.442C246.506 105.205 244.864 107.635 244.07 110.386C243.684 111.762 243.589 113.203 243.791 114.618C243.993 116.033 244.488 117.39 245.245 118.603" fill="black"/>
</g>
<path d="M258.022 121.109C257.523 121.45 256.966 121.698 256.379 121.84C254.944 122.303 253.401 122.303 251.966 121.84C251.17 121.575 250.454 121.112 249.887 120.493C249.435 119.976 249.111 119.359 248.942 118.693C248.746 118.093 248.787 117.44 249.057 116.869C249.031 117.458 249.092 118.048 249.238 118.619C249.421 119.233 249.744 119.796 250.183 120.263C250.716 120.817 251.376 121.235 252.106 121.479C253.466 121.905 254.919 121.936 256.297 121.569C256.864 121.387 257.44 121.233 258.022 121.109Z" fill="#263238"/>
<path d="M263.273 114.756C263.273 114.756 263.191 114.954 262.961 115.241C262.631 115.644 262.259 116.01 261.851 116.334C260.493 117.451 258.768 118.022 257.011 117.936C256.135 117.861 255.289 117.581 254.54 117.12C253.791 116.66 253.16 116.03 252.698 115.282C252.424 114.831 252.24 114.332 252.155 113.812C252.111 113.622 252.111 113.425 252.155 113.236C252.339 113.899 252.616 114.533 252.977 115.118C253.444 115.794 254.055 116.358 254.765 116.772C255.475 117.185 256.267 117.437 257.085 117.509C258.745 117.58 260.378 117.078 261.712 116.088C262.714 115.356 263.215 114.707 263.273 114.756Z" fill="#263238"/>
<path d="M265.302 104.676C265.201 104.884 265.068 105.075 264.908 105.243C264.525 105.738 264.084 106.185 263.593 106.574C262.842 107.19 261.885 107.499 260.915 107.437C260.344 107.364 259.803 107.143 259.345 106.796C258.891 106.448 258.411 106.138 257.907 105.867C256.942 105.367 255.847 105.172 254.768 105.309C253.895 105.439 253.091 105.859 252.484 106.5C252.059 106.925 251.748 107.451 251.58 108.028C251.537 108.248 251.48 108.465 251.408 108.678C251.352 108.451 251.352 108.214 251.408 107.987C251.523 107.359 251.807 106.774 252.229 106.295C252.867 105.565 253.738 105.08 254.694 104.922C255.854 104.746 257.041 104.944 258.08 105.489C259.197 106.04 259.97 106.977 260.947 107.051C261.83 107.12 262.707 106.863 263.413 106.328C263.905 105.969 264.364 105.568 264.785 105.128C265.097 104.783 265.261 104.61 265.302 104.676Z" fill="#263238"/>
<path d="M256.748 112.447C255.937 112.162 255.234 111.633 254.734 110.933C254.234 110.233 253.962 109.396 253.955 108.536C254.292 109.273 254.667 109.992 255.08 110.689C255.606 111.304 256.162 111.891 256.748 112.447Z" fill="#263238"/>
<path d="M271.194 82.9346C271.252 83.1458 271.271 83.3656 271.251 83.5837C271.255 84.1683 271.224 84.7527 271.161 85.3339C270.749 89.1926 269.333 92.8759 267.053 96.016C266.714 96.4929 266.346 96.9484 265.952 97.38C265.672 97.684 265.5 97.8401 265.483 97.8237C265.89 97.1413 266.331 96.4803 266.806 95.8434C268.915 92.6554 270.295 89.0419 270.849 85.26C271.079 83.8466 271.128 82.9346 271.194 82.9346Z" fill="#263238"/>
<path d="M268.548 82.0285C268.602 82.5644 268.569 83.1056 268.45 83.6308C268.25 84.9136 267.908 86.1703 267.431 87.3778C266.955 88.5875 266.348 89.7419 265.623 90.8207C265.353 91.2868 265.006 91.7036 264.596 92.0532C264.481 91.9793 265.943 90.0072 267.061 87.2216C268.178 84.4361 268.367 82.0039 268.548 82.0285Z" fill="#263238"/>
<path d="M324.916 34.8903C326.124 36.1475 324.629 36.657 324.777 38.3908C324.859 39.3193 324.432 40.5765 323.511 40.445C322.862 40.3546 322.575 39.6233 322.262 39.0153C321.883 38.3077 321.321 37.7148 320.634 37.2986C319.948 36.8823 319.162 36.6579 318.359 36.6488C317.954 36.6937 317.545 36.6631 317.151 36.5584C316.957 36.5011 316.794 36.37 316.695 36.1933C316.597 36.0166 316.572 35.8084 316.625 35.6134C316.756 35.3911 316.964 35.2244 317.209 35.1451C319.016 34.3421 320.986 33.9734 322.961 34.0686L323.98 33.9043L324.916 34.8903Z" fill="#263238"/>
<path d="M316.65 47.272C317.442 46.9122 318.323 46.7977 319.181 46.9433C319.511 46.9825 319.823 47.1156 320.079 47.3269C320.335 47.5381 320.526 47.8185 320.627 48.1348C320.75 48.6442 320.545 48.9565 320.504 48.9072C320.463 48.8579 320.504 48.6114 320.34 48.2334C320.223 47.9974 320.05 47.7946 319.834 47.6437C319.619 47.4929 319.369 47.399 319.107 47.3706C318.536 47.3237 317.963 47.3073 317.39 47.3213C316.938 47.3213 316.658 47.3295 316.65 47.272Z" fill="#263238"/>
<g opacity="0.3">
<path d="M287.447 49.1297C285.491 47.7493 283.034 47.2234 281.062 45.8429C279.6 44.811 278.468 43.3763 277.806 41.7133C277.144 40.0502 276.979 38.2305 277.332 36.4756C277.224 36.5934 277.123 36.7169 277.028 36.8454C276.082 38.1037 275.563 39.6308 275.545 41.2047C275.527 42.7786 276.012 44.3171 276.929 45.5964L277.176 45.9415C278.497 47.8633 280.405 49.3049 282.615 50.05C283.774 50.428 284.965 50.732 286.132 51.0032C286.518 51.1202 286.923 51.1566 287.324 51.11C287.52 51.077 287.703 50.9871 287.849 50.8512C287.995 50.7154 288.098 50.5397 288.145 50.3458C288.269 49.8282 287.808 49.4173 287.447 49.1297Z" fill="black"/>
</g>
<g opacity="0.3">
<path d="M248.153 35.9316C245.08 37.0985 243.289 40.3195 242.402 43.4748C241.514 46.6301 241.218 49.9827 239.936 52.9819C238.655 55.981 236.378 58.4051 234.423 61.0016C232.467 63.5982 230.717 66.5727 230.676 69.8266C235.959 64.9786 241.448 59.8019 243.568 52.9572C245.269 47.4683 244.661 41.2562 247.512 36.2685" fill="black"/>
</g>
<g opacity="0.3">
<path d="M260.947 20.8613C262.369 24.9698 262.287 29.9 259.665 33.3347C258.195 35.2657 256.083 36.6215 254.39 38.347C249.912 42.9403 248.803 49.7522 247.915 56.1039C251.864 52.1019 255.439 47.748 258.597 43.0964C260.849 39.8097 262.911 36.2271 263.741 32.2994C264.571 28.3716 264.053 21.7405 260.947 20.8613Z" fill="black"/>
</g>
<path d="M121.234 68.0512C121.234 68.0512 121.111 67.9772 120.914 67.8047L120.092 67.0405C119.095 66.0579 118.187 64.9881 117.38 63.8441C116.191 62.1356 115.265 60.2574 114.636 58.273C113.891 55.8412 113.446 53.3272 113.313 50.7873C113.064 46.1857 113.318 41.5706 114.069 37.0239C114.332 35.2819 114.578 33.8768 114.759 32.9154C114.852 32.4772 114.926 32.1074 114.981 31.8061C114.999 31.6731 115.035 31.5431 115.088 31.4199C115.109 31.5533 115.109 31.6892 115.088 31.8225C115.088 32.1266 115.006 32.4963 114.948 32.9483L114.389 37.0568C113.733 41.5884 113.524 46.1736 113.765 50.7462C113.898 53.2528 114.325 55.7349 115.039 58.1415C115.637 60.1004 116.521 61.9608 117.66 63.6633C118.434 64.8081 119.297 65.8905 120.24 66.9008C120.592 67.2656 120.924 67.6496 121.234 68.0512Z" fill="#263238"/>
<path d="M160.955 30.7227C161.017 30.7694 161.073 30.8247 161.119 30.887L161.555 31.38L163.198 33.3192C164.636 35.0448 166.691 37.4852 169.205 40.5008L173.313 45.4721C174.784 47.2634 176.518 49.0465 178.17 51.0843C180.008 53.1648 181.333 55.6469 182.04 58.3317C182.742 61.2089 182.986 64.1788 182.763 67.132C181.941 79.1781 180.889 90.0492 180.043 97.9128C179.616 101.841 179.221 105.02 178.967 107.214C178.819 108.283 178.712 109.129 178.63 109.737C178.63 110.008 178.564 110.222 178.539 110.394C178.567 110.4 178.592 110.417 178.608 110.44C178.625 110.463 178.632 110.491 178.629 110.519C178.626 110.547 178.613 110.573 178.592 110.592C178.57 110.611 178.543 110.622 178.515 110.622C178.486 110.622 178.459 110.611 178.438 110.592C178.417 110.573 178.403 110.547 178.4 110.519C178.397 110.491 178.405 110.463 178.421 110.44C178.438 110.417 178.462 110.4 178.49 110.394C178.49 110.222 178.49 110.008 178.548 109.737C178.608 109.124 178.69 108.277 178.794 107.198C179.024 104.971 179.345 101.799 179.739 97.8882C180.511 90.0245 181.522 79.1453 182.336 67.1156C182.556 64.2045 182.32 61.2769 181.637 58.4385C180.944 55.8129 179.653 53.383 177.866 51.339C176.222 49.3094 174.513 47.5182 173.042 45.7022C171.571 43.8863 170.199 42.2346 168.934 40.6981L163.026 33.4342L161.44 31.4458L161.037 30.9199C161.003 30.857 160.976 30.791 160.955 30.7227Z" fill="#263238"/>
</svg>
