<svg width="325" height="302" viewBox="0 0 325 302" fill="none" xmlns="http://www.w3.org/2000/svg">
<path d="M129.545 135.248C129.545 135.248 102.97 172.509 99.3219 187.21C95.6735 201.912 88.6574 172.94 94.0112 162.794C94.0112 162.794 80.5187 181.273 73.6105 187.21C66.7023 193.147 67.134 171.386 67.134 171.386C67.134 171.386 63.8958 179.633 59.7509 183.152C55.606 186.67 60.4633 173.739 60.4633 173.739C60.4633 173.739 54.8936 186.865 55.0015 177.582C55.1095 168.299 67.242 132.506 67.242 132.506L129.545 135.248Z" fill="#F9941C"/>
<path d="M154.134 131.276C154.134 131.276 102.97 148.093 94.4429 242.886C91.0319 280.752 80.756 295 64.9535 276.628C64.9535 276.628 57.8295 281.745 57.5488 274.923C57.2682 268.101 59.8372 180.561 71.797 152.799C83.7568 125.037 154.134 131.276 154.134 131.276Z" fill="#414141"/>
<path opacity="0.2" d="M154.134 131.276C154.134 131.276 102.97 148.093 94.4429 242.886C91.0319 280.752 80.756 295 64.9535 276.628C64.9535 276.628 57.8295 281.745 57.5488 274.923C57.2682 268.101 59.8372 180.561 71.797 152.799C83.7568 125.037 154.134 131.276 154.134 131.276Z" fill="black" fill-opacity="0.6"/>
<path d="M148.672 131.016C148.672 131.016 143.534 148.092 143.966 156.209C144.398 164.326 141.807 167.737 137.144 167.737C132.481 167.737 122.184 156.209 122.184 151.503C122.184 146.797 148.672 131.016 148.672 131.016Z" fill="#414141"/>
<path opacity="0.4" d="M148.672 131.016C148.672 131.016 143.534 148.092 143.966 156.209C144.398 164.326 141.807 167.737 137.144 167.737C132.481 167.737 122.184 156.209 122.184 151.503C122.184 146.797 148.672 131.016 148.672 131.016Z" fill="black" fill-opacity="0.6"/>
<path d="M116.592 56.2783C103.797 62.0854 92.5026 70.7481 83.5771 81.6009C74.6516 92.4537 68.3324 105.208 65.1047 118.884C60.7871 137.32 132.201 133.348 139.238 134.449C149.687 136.089 164.28 127.001 172.808 115.192C175.399 111.723 177.384 107.839 178.68 103.707C183.645 87.0413 166.569 78.0823 184.487 60.1426C194.158 50.4711 196.641 39.5907 194.59 31.3657C193.948 28.0939 192.301 25.1041 189.878 22.8131C187.456 20.5222 184.378 19.0443 181.076 18.5855C158.624 16.146 135.439 19.9887 116.592 56.2783Z" fill="#414141"/>
<path d="M152.515 56.7104C158.495 74.6501 181.292 80.8675 172.872 115.106C175.464 111.637 177.449 107.753 178.744 103.621C183.71 86.9553 166.633 77.9963 184.552 60.0566C194.223 50.3851 196.706 39.5047 194.655 31.2796C189.754 26.8109 185.847 23.3352 185.847 23.3352C182.933 21.8578 179.712 21.0879 176.445 21.0879C173.178 21.0879 169.957 21.8578 167.044 23.3352C157.221 28.5164 146.535 38.7707 152.515 56.7104Z" fill="#F9941C"/>
<path d="M132.438 68.1527C151.22 68.6708 170.023 90.4532 166.979 110.098C163.935 129.744 73.9344 167.264 61.5644 172.445C49.1944 177.626 69.66 159.621 69.66 159.621C69.66 159.621 57.0093 166.897 57.5706 165.17C58.1319 163.443 65.8173 149.799 65.8173 149.799C65.8173 149.799 58.5637 155.779 59.8374 150.231C61.1111 144.682 59.8374 110.94 83.757 87.4524C107.677 63.9646 132.438 68.1527 132.438 68.1527Z" fill="#414141"/>
<path d="M127.667 145.221C127.667 145.221 120.91 162.75 119.204 173.285C117.499 183.82 106.986 180.668 105.841 159.231C105.798 159.296 119.053 148.308 127.667 145.221Z" fill="#414141"/>
<path opacity="0.6" d="M152.515 56.7104C158.495 74.6501 181.292 80.8675 172.872 115.106C175.464 111.637 177.449 107.753 178.744 103.621C183.71 86.9553 166.633 77.9963 184.552 60.0566C194.223 50.3851 196.706 39.5047 194.655 31.2796C189.754 26.8109 185.847 23.3352 185.847 23.3352C182.933 21.8578 179.712 21.0879 176.445 21.0879C173.178 21.0879 169.957 21.8578 167.044 23.3352C157.221 28.5164 146.535 38.7707 152.515 56.7104Z" fill="#FAFAFA"/>
<path d="M184.53 60.1427C213.976 58.2214 242.667 69.1665 258.318 76.5496C265.982 80.1549 270.516 83.0261 270.516 83.0261C270.799 75.9355 269.624 68.8621 267.062 62.2446C264.499 55.6271 260.605 49.6065 255.62 44.5561C230.189 18.6504 181.119 18.6504 181.119 18.6504C187.38 28.8831 179.975 40.843 178.831 45.9809C177.687 51.1189 184.53 60.1427 184.53 60.1427Z" fill="#F9941C"/>
<path d="M167.022 33.8692C167.022 34.7573 167.286 35.6255 167.779 36.3639C168.272 37.1024 168.974 37.6779 169.794 38.0177C170.615 38.3576 171.518 38.4465 172.389 38.2733C173.26 38.1 174.06 37.6723 174.688 37.0444C175.316 36.4164 175.743 35.6163 175.917 34.7453C176.09 33.8742 176.001 32.9714 175.661 32.1509C175.321 31.3304 174.746 30.6291 174.007 30.1357C173.269 29.6423 172.401 29.3789 171.513 29.3789C170.322 29.3789 169.18 29.852 168.337 30.6941C167.495 31.5362 167.022 32.6783 167.022 33.8692Z" fill="#414141"/>
<path opacity="0.3" d="M180.493 53.4942C181.644 55.8229 182.995 58.0476 184.53 60.1433C213.976 58.222 242.667 69.1671 258.318 76.5503C265.507 79.9396 269.933 82.5734 270.472 82.8972C270.756 75.8066 269.581 68.7333 267.018 62.1157C264.456 55.4982 260.562 49.4776 255.577 44.4272C230.146 18.5215 181.076 18.5215 181.076 18.5215C187.337 28.7542 179.932 40.714 178.788 45.852C178.568 48.5134 179.163 51.1787 180.493 53.4942Z" fill="#FAFAFA"/>
<path d="M186.905 43.5187C191.438 51.4199 223.907 50.4484 241.566 60.7891C248.411 64.4973 254.181 69.9109 258.318 76.5053C265.982 80.1105 270.516 82.9817 270.516 82.9817C270.8 75.8911 269.624 68.8178 267.062 62.2003C264.499 55.5827 260.605 49.5621 255.62 44.5117C253.051 50.9954 251.387 57.8021 250.676 64.7398C250.676 64.7398 243.271 57.8532 224.533 50.6859C205.794 43.5187 206.723 38.9636 195.216 35.1209C191.395 33.8688 182.371 35.5742 186.905 43.5187Z" fill="#F9941C"/>
<path opacity="0.2" d="M180.493 53.4928C181.644 55.8215 182.995 58.0462 184.53 60.1419C213.976 58.2206 242.667 69.1657 258.318 76.5489C265.507 79.9382 269.933 82.5719 270.472 82.8958C269.371 81.8811 248.884 63.2938 228.095 58.8466C206.679 54.2915 187.66 47.0811 180.601 53.4712L180.493 53.4928Z" fill="black" fill-opacity="0.6"/>
<path d="M270.472 82.8959C267.493 80.0894 264.492 77.2614 261.254 74.7356C258.016 72.2098 254.627 69.8351 251.151 67.6547C244.166 63.1468 236.485 59.8209 228.419 57.8105C220.41 56.1914 212.53 54.0326 204.478 52.3703C200.449 51.4947 196.367 50.8889 192.259 50.5569C190.181 50.4271 188.095 50.5358 186.041 50.8808C183.975 51.187 182.045 52.0957 180.493 53.4929C183.882 51.0103 188.222 51.1614 192.172 51.6147C196.2 52.1397 200.188 52.933 204.111 53.9894C212.012 55.9755 219.935 58.1128 227.965 59.9046C235.827 61.8079 243.353 64.8942 250.287 69.0579C257.356 73.1531 264.104 77.779 270.472 82.8959Z" fill="#414141"/>
<g opacity="0.2">
<path d="M143.621 108.521C137.144 111.155 131.056 114.134 124.904 117.157C118.751 120.179 112.706 123.633 106.77 127.109C100.792 130.594 95.0972 134.542 89.7366 138.918C88.4025 140.054 87.134 141.264 85.9372 142.544C84.6926 143.841 83.7103 145.365 83.0443 147.035C82.398 148.658 81.8925 150.333 81.5332 152.043C81.3174 152.915 81.3174 153.826 81.5332 154.698C81.606 154.928 81.7495 155.129 81.9434 155.273C82.1372 155.416 82.3714 155.495 82.6126 155.497C83.0502 155.48 83.4753 155.346 83.8431 155.109C83.4603 155.293 83.0364 155.374 82.6126 155.346C82.4214 155.314 82.2446 155.225 82.1056 155.09C81.9667 154.955 81.8724 154.781 81.8354 154.59C81.7304 153.775 81.8191 152.947 82.0945 152.173C82.6039 150.554 83.2465 148.979 84.0158 147.466C85.6579 144.545 87.9746 142.058 90.7729 140.213C96.278 136.159 101.992 132.398 107.892 128.944C113.743 125.403 119.723 122.036 125.681 118.603L143.621 108.521Z" fill="black" fill-opacity="0.6"/>
<path d="M138.504 90.4082C134.363 92.0289 130.375 94.0157 126.588 96.3449C122.765 98.6488 119.153 101.286 115.794 104.225C112.37 107.152 109.35 110.52 106.813 114.241C104.234 117.954 102.617 122.249 102.107 126.741C103.405 122.561 105.469 118.659 108.195 115.235C110.881 111.81 113.904 108.664 117.218 105.844C120.514 102.967 123.959 100.265 127.537 97.7482C131.099 95.2224 134.726 92.7397 138.504 90.4082Z" fill="black" fill-opacity="0.6"/>
<path d="M102.063 111.371C94.2507 115.581 87.1598 121.01 81.0582 127.454C77.9137 130.688 75.3308 134.423 73.416 138.507C72.9815 139.563 72.6137 140.644 72.315 141.746L72.0128 143.429C71.878 143.995 71.8199 144.576 71.8401 145.156C71.8352 145.496 71.8976 145.832 72.0236 146.147C72.1495 146.462 72.3367 146.749 72.5741 146.991C72.8495 147.183 73.1716 147.296 73.5061 147.318C73.8406 147.341 74.175 147.273 74.4738 147.121C75.5102 146.674 76.449 146.029 77.2371 145.221C76.3341 145.809 75.3531 146.267 74.3227 146.581C73.8262 146.689 73.3081 146.581 73.1138 146.387C72.9195 146.193 72.8763 145.631 72.8979 145.178C73.0755 144.144 73.3354 143.126 73.6751 142.134C73.9773 141.141 74.5386 140.191 74.9272 139.22C77.0408 135.474 79.6234 132.014 82.6126 128.922C85.5485 125.749 88.7436 122.77 92.0034 119.855C95.2632 116.941 98.6309 114.134 102.063 111.371Z" fill="black" fill-opacity="0.6"/>
<path d="M116.743 85.4434C112.006 87.0868 107.512 89.3595 103.38 92.2004C94.9685 97.7972 87.7908 105.056 82.2886 113.529C80.9083 115.677 79.8057 117.991 79.0072 120.416C78.6364 121.678 78.5771 123.012 78.8345 124.302C78.9735 124.947 79.3141 125.531 79.8069 125.969C80.2998 126.408 80.9194 126.678 81.5762 126.741C81.0042 126.572 80.4946 126.238 80.1108 125.781C79.727 125.325 79.4858 124.765 79.4174 124.172C79.3454 122.994 79.5602 121.817 80.0434 120.74C80.9884 118.5 82.2144 116.389 83.6918 114.458C86.6466 110.531 89.8557 106.803 93.2985 103.297C96.7564 99.8028 100.449 96.5498 104.352 93.5605C106.295 92.0277 108.324 90.6245 110.396 89.2429C112.469 87.8612 114.541 86.6307 116.743 85.4434Z" fill="black" fill-opacity="0.6"/>
</g>
<path d="M159.509 173.35C158.906 171.475 157.767 169.817 156.232 168.581C154.698 167.346 152.835 166.587 150.874 166.399C148.441 166.492 146.087 167.287 144.095 168.687L141.094 162.211C141.094 162.211 141.612 166.183 138.59 165.967C136.604 165.816 135.913 165.363 135.654 165.082L138.655 170.436C133.409 171.882 133.905 174.322 133.905 174.322L136.971 174.063C136.971 174.063 144.138 175.315 146.815 178.38C147.196 178.743 147.501 179.177 147.714 179.657C147.926 180.138 148.042 180.656 148.054 181.182C148.066 181.707 147.974 182.23 147.784 182.72C147.594 183.21 147.308 183.657 146.945 184.037C146.945 184.037 152.406 181.468 152.45 178.229C152.326 176.744 151.82 175.316 150.982 174.084C152.127 174.083 153.249 174.405 154.22 175.013C155.156 175.508 155.857 176.355 156.168 177.367C156.48 178.379 156.377 179.474 155.882 180.41C155.882 180.41 160.351 176.481 159.509 173.35Z" fill="#414141"/>
<path d="M109.77 178.056L109.619 177.797C109.648 177.894 109.7 177.983 109.77 178.056Z" fill="#414141"/>
<path d="M133.711 186.26C133.109 184.384 131.969 182.726 130.435 181.491C128.9 180.255 127.037 179.497 125.076 179.308C122.656 179.362 120.303 180.112 118.297 181.467L117.952 174.451C117.952 174.451 117.347 178.1 114.325 177.884C112.339 177.733 112.166 177.02 111.972 176.74L112.857 183.216C107.611 184.662 108.108 187.102 108.108 187.102L111.152 186.843C111.152 186.843 118.341 188.073 121.017 191.16C121.39 191.531 121.685 191.972 121.886 192.457C122.088 192.943 122.191 193.463 122.191 193.988C122.191 194.514 122.088 195.034 121.886 195.519C121.685 196.005 121.39 196.445 121.017 196.816C121.017 196.816 126.501 194.247 126.544 191.009C126.412 189.519 125.907 188.086 125.076 186.843C126.219 186.855 127.338 187.176 128.314 187.771C129.252 188.271 129.953 189.121 130.265 190.137C130.576 191.153 130.473 192.25 129.977 193.19C129.977 193.19 134.553 189.39 133.711 186.26Z" fill="#414141"/>
<g opacity="0.4">
<path d="M135.568 165.103L135.417 164.844C135.446 164.941 135.498 165.029 135.568 165.103Z" fill="white"/>
<path d="M159.509 173.35C158.906 171.475 157.767 169.817 156.232 168.581C154.698 167.346 152.835 166.587 150.874 166.399C148.441 166.492 146.087 167.287 144.095 168.687L141.094 162.211C141.094 162.211 141.612 166.183 138.59 165.967C136.604 165.816 135.913 165.363 135.654 165.082L138.655 170.436C133.409 171.882 133.905 174.322 133.905 174.322L136.971 174.063C136.971 174.063 144.138 175.315 146.815 178.38C147.196 178.743 147.501 179.177 147.714 179.657C147.926 180.138 148.042 180.656 148.054 181.182C148.066 181.707 147.974 182.23 147.784 182.72C147.594 183.21 147.308 183.657 146.945 184.037C146.945 184.037 152.406 181.468 152.45 178.229C152.326 176.744 151.82 175.316 150.982 174.084C152.127 174.083 153.249 174.405 154.22 175.013C155.156 175.508 155.857 176.355 156.168 177.367C156.48 178.379 156.377 179.474 155.882 180.41C155.882 180.41 160.351 176.481 159.509 173.35Z" fill="white"/>
</g>
<g opacity="0.4">
<path d="M109.77 178.056L109.618 177.797C109.648 177.894 109.7 177.983 109.77 178.056Z" fill="white"/>
<path d="M133.711 186.26C133.108 184.384 131.969 182.726 130.434 181.491C128.9 180.255 127.037 179.497 125.076 179.308C122.656 179.362 120.302 180.112 118.297 181.467L117.951 174.451C117.951 174.451 117.347 178.1 114.325 177.884C112.339 177.733 112.166 177.02 111.972 176.74L112.857 183.216C107.611 184.662 108.107 187.102 108.107 187.102L111.151 186.843C111.151 186.843 118.34 188.073 121.017 191.16C121.389 191.531 121.684 191.972 121.886 192.457C122.087 192.943 122.191 193.463 122.191 193.988C122.191 194.514 122.087 195.034 121.886 195.519C121.684 196.005 121.389 196.445 121.017 196.816C121.017 196.816 126.5 194.247 126.544 191.009C126.411 189.519 125.907 188.086 125.076 186.843C126.219 186.855 127.338 187.176 128.314 187.771C129.251 188.271 129.953 189.121 130.264 190.137C130.576 191.153 130.472 192.25 129.976 193.19C129.976 193.19 134.553 189.39 133.711 186.26Z" fill="white"/>
</g>
</svg>
