<svg width="1000" height="1000" viewBox="0 0 1000 1000" fill="none" xmlns="http://www.w3.org/2000/svg">
<path d="M840.999 240.755C840.999 240.755 637.652 78.2907 402.68 184.634C167.709 290.977 183.071 581.333 183.071 581.333C183.071 581.333 223.011 550.077 285.154 571.092C285.154 571.092 296.665 483.756 389.777 505.549C389.777 505.549 453.149 402.523 551.053 447.543C551.053 447.543 584.439 352.014 706.308 382.492C706.103 382.451 749.73 274.387 840.999 240.755Z" fill="#FE4C4C"/>
<g opacity="0.4">
<path d="M840.997 240.755C840.997 240.755 637.65 78.2907 402.679 184.634C167.707 290.977 183.069 581.333 183.069 581.333C183.069 581.333 223.009 550.077 285.152 571.092C285.152 571.092 296.663 483.756 389.775 505.549C389.775 505.549 453.147 402.523 551.051 447.543C551.051 447.543 584.437 352.014 706.306 382.492C706.101 382.451 749.728 274.387 840.997 240.755Z" fill="black"/>
</g>
<path d="M713.385 841.143C704.517 839.847 696.133 836.286 689.043 830.804C681.954 825.321 676.398 818.103 672.912 809.846L467.394 329.703C466.889 328.535 466.869 327.214 467.337 326.031C467.806 324.848 468.725 323.9 469.893 323.394C471.061 322.889 472.382 322.869 473.565 323.337C474.748 323.806 475.697 324.725 476.202 325.893L681.761 806.2C683.932 811.476 687.137 816.264 691.187 820.283C695.237 824.302 700.051 827.469 705.344 829.599C710.637 831.729 716.302 832.778 722.007 832.685C727.712 832.592 733.34 831.359 738.561 829.057C743.781 826.756 748.489 823.433 752.406 819.284C756.323 815.136 759.37 810.246 761.368 804.902C763.366 799.557 764.274 793.867 764.04 788.167C763.806 782.466 762.433 776.87 760.003 771.708L753.653 757.739C753.384 757.166 753.231 756.546 753.201 755.914C753.172 755.282 753.268 754.65 753.483 754.054C753.698 753.459 754.028 752.912 754.454 752.444C754.88 751.976 755.395 751.597 755.968 751.328C756.541 751.059 757.161 750.906 757.793 750.877C758.425 750.847 759.057 750.943 759.652 751.158C760.248 751.373 760.795 751.703 761.263 752.129C761.73 752.556 762.11 753.07 762.379 753.643L768.728 767.612C771.663 774.064 773.257 781.045 773.411 788.132C773.566 795.219 772.278 802.263 769.627 808.837C766.976 815.412 763.017 821.378 757.989 826.375C752.962 831.372 746.971 835.295 740.381 837.906C731.819 841.321 722.512 842.437 713.385 841.143Z" fill="#363A5A"/>
<path d="M840.999 240.796C810.56 239.862 780.376 246.612 753.234 260.423C726.092 274.234 702.867 294.66 685.703 319.816C685.703 319.816 582.596 296.016 538.232 376.716C538.232 376.716 419.435 345.419 377.283 453.032C377.283 453.032 281.099 435.418 262.583 522.672C262.583 522.672 197.04 515.708 182.948 581.374C182.948 581.374 167.505 303.144 390.064 190.615C625.281 71.6544 840.999 240.796 840.999 240.796Z" fill="#FE4C4C"/>
<path d="M387.072 192.131C386.102 192.948 385.06 193.675 383.958 194.302C381.91 195.695 378.756 197.579 375.028 200.447C364.274 208.232 354.251 216.98 345.083 226.582C331.467 240.775 319.27 256.265 308.666 272.831C302.493 282.662 296.885 292.838 291.87 303.308C286.62 314.592 282.238 326.26 278.762 338.21C265.039 387.736 262.048 434.517 260.656 468.067C260.041 484.903 259.836 498.544 259.713 507.966C259.713 512.472 259.713 516.159 259.509 518.821C259.531 520.082 259.449 521.343 259.263 522.59C259.077 521.343 258.994 520.082 259.017 518.821C259.017 516.077 259.017 512.472 258.73 507.966C258.73 498.544 258.485 484.903 258.73 468.026C259.673 434.394 262.376 387.367 276.181 337.513C279.708 325.432 284.159 313.641 289.495 302.243C294.58 291.702 300.284 281.47 306.577 271.602C317.333 254.955 329.755 239.445 343.649 225.312C353.004 215.775 363.266 207.172 374.291 199.627C377.265 197.541 380.356 195.627 383.549 193.892C384.66 193.186 385.84 192.596 387.072 192.131Z" fill="#263238"/>
<path d="M387.072 192.13C387.072 192.13 384.328 194.793 380.272 200.323C374.689 208.135 370.528 216.872 367.983 226.131C364.322 239.831 362.097 253.876 361.347 268.037C360.036 284.095 359.094 301.833 358.93 320.431C358.667 352.277 361.147 384.088 366.344 415.509C368.352 427.552 370.441 437.22 371.793 443.897C372.448 447.01 372.981 449.55 373.431 451.598C373.66 452.483 373.797 453.389 373.841 454.302C373.421 453.488 373.118 452.619 372.94 451.721C372.366 449.714 371.67 447.174 370.81 444.102C369.13 437.507 366.713 427.716 364.583 415.837C358.842 384.434 356.099 352.557 356.39 320.635C356.39 301.915 357.578 284.136 359.012 268.037C359.88 253.677 362.339 239.457 366.344 225.639C369.062 216.268 373.508 207.487 379.453 199.75C381.077 197.665 382.887 195.731 384.86 193.974C386.253 192.663 386.99 192.048 387.072 192.13Z" fill="#263238"/>
<path d="M396.498 187.379C397.269 187.647 397.999 188.019 398.669 188.485C400.062 189.263 402.11 190.41 404.609 192.049C411.839 196.556 418.801 201.48 425.46 206.796C435.354 214.675 444.538 223.406 452.906 232.89C463.109 244.509 472.486 256.829 480.966 269.758C496.304 293.255 510.203 317.66 522.586 342.839C527.379 352.424 531.189 360.289 533.729 365.697L536.637 372.005C537.033 372.71 537.323 373.469 537.497 374.258C536.964 373.657 536.523 372.981 536.186 372.251L532.868 366.147L520.989 343.658C508.209 318.78 494.153 294.579 478.877 271.151C470.449 258.279 461.199 245.964 451.185 234.283C442.959 224.813 433.971 216.031 424.313 208.025C416.12 201.225 409.033 196.145 404.076 192.745C401.45 191.103 398.92 189.311 396.498 187.379Z" fill="#263238"/>
<path d="M396.498 187.379C397.55 186.846 398.646 186.407 399.775 186.068C401.946 185.29 405.101 184.061 409.279 182.75C421.092 178.983 433.207 176.242 445.491 174.557C463.773 171.975 482.359 172.501 500.465 176.114C522.544 180.896 543.837 188.77 563.714 199.504C610.712 225.017 650.806 261.568 680.545 306.012C683.044 309.616 684.641 312.566 685.993 314.491C686.641 315.472 687.216 316.499 687.714 317.563C686.897 316.711 686.17 315.777 685.542 314.778C684.191 312.935 682.347 310.067 679.766 306.585C674.687 299.498 667.108 289.339 656.908 277.541C630.486 246.611 598.535 220.87 562.69 201.634C543.035 190.995 521.996 183.137 500.179 178.285C482.309 174.622 463.959 173.916 445.86 176.196C433.577 177.756 421.43 180.248 409.525 183.651C405.428 184.839 402.11 185.904 399.898 186.519C398.797 186.921 397.658 187.209 396.498 187.379Z" fill="#263238"/>
</svg>
