<svg width="1000" height="1000" viewBox="0 0 1000 1000" fill="none" xmlns="http://www.w3.org/2000/svg">
<path d="M235.635 730.3C190.091 730.3 153.008 693.217 153.008 647.673C153.008 602.129 190.091 565.046 235.635 565.046C281.179 565.046 318.262 602.129 318.262 647.673C318.262 693.217 281.179 730.3 235.635 730.3Z" fill="#5C3F6B"/>
<path d="M235.635 730.3C190.091 730.3 153.008 693.217 153.008 647.673C153.008 602.129 190.091 565.046 235.635 565.046C281.179 565.046 318.262 602.129 318.262 647.673C318.262 693.217 281.179 730.3 235.635 730.3Z" stroke="#523160" stroke-width="8" stroke-miterlimit="10" stroke-linecap="round" stroke-linejoin="round"/>
<path d="M235.634 690.877C211.872 690.877 192.431 671.435 192.431 647.673C192.431 623.911 211.872 604.469 235.634 604.469C259.397 604.469 278.838 623.911 278.838 647.673C278.838 671.435 259.397 690.877 235.634 690.877Z" fill="#FDC858"/>
<path d="M235.634 690.877C211.872 690.877 192.431 671.435 192.431 647.673C192.431 623.911 211.872 604.469 235.634 604.469C259.397 604.469 278.838 623.911 278.838 647.673C278.838 671.435 259.397 690.877 235.634 690.877Z" stroke="#523160" stroke-width="8" stroke-miterlimit="10" stroke-linecap="round" stroke-linejoin="round"/>
<path d="M235.635 661.895C227.715 661.895 221.414 655.414 221.414 647.673C221.414 639.753 227.895 633.452 235.635 633.452C243.556 633.452 249.857 639.933 249.857 647.673C249.857 655.414 243.556 661.895 235.635 661.895Z" fill="#FDC858"/>
<path d="M235.635 661.895C227.715 661.895 221.414 655.414 221.414 647.673C221.414 639.753 227.895 633.452 235.635 633.452C243.556 633.452 249.857 639.933 249.857 647.673C249.857 655.414 243.556 661.895 235.635 661.895Z" stroke="#523160" stroke-width="8" stroke-miterlimit="10" stroke-linecap="round" stroke-linejoin="round"/>
<path d="M896.295 396.191L879.373 331.925C872.712 306.183 850.751 287.461 824.288 284.581C748.682 276.48 657.053 271.8 550.124 271.8C427.713 271.8 239.597 281.161 183.072 287.641C172.811 288.722 163.99 295.382 159.85 304.923L125.827 384.49C110.165 412.572 100.624 443.535 97.9242 475.578L97.2041 654.514L135.187 655.234C135.007 652.714 134.827 650.193 134.827 647.673C134.827 592.048 179.831 547.044 235.456 547.044C291.081 547.044 336.085 592.048 336.085 647.673C336.085 650.913 335.905 654.154 335.545 657.214L600.168 660.454C599.628 656.314 599.268 651.994 599.268 647.673C599.268 592.048 644.272 547.044 699.897 547.044C755.522 547.044 800.526 592.048 800.526 647.673C800.526 652.714 800.166 657.574 799.446 662.434L906.195 663.515V477.018C906.736 449.836 903.135 422.653 896.295 396.191Z" fill="#6392AD"/>
<g opacity="0.36">
<path opacity="0.36" d="M117.364 654.514L118.084 475.578C120.784 443.535 130.325 412.572 145.986 384.49L180.009 304.923C184.15 295.382 192.971 288.902 203.231 287.641C258.136 281.341 436.892 272.34 559.303 271.8C556.243 271.8 553.182 271.8 550.122 271.8C427.711 271.8 239.595 281.161 183.07 287.641C172.809 288.722 163.988 295.382 159.848 304.923L125.825 384.49C110.163 412.572 100.622 443.535 97.9222 475.578L97.2021 654.514L135.186 655.234C135.186 655.054 135.186 655.054 135.186 654.874L117.364 654.514Z" fill="#6392AD"/>
<path opacity="0.36" d="M819.965 662.434C820.685 657.574 821.045 652.713 821.045 647.673C821.045 592.048 776.041 547.044 720.416 547.044C716.996 547.044 713.755 547.224 710.335 547.584C761.279 552.625 800.883 595.468 800.883 647.673C800.883 652.713 800.523 657.574 799.803 662.434L906.552 663.514V663.334L819.965 662.434Z" fill="#6392AD"/>
<path opacity="0.36" d="M355.885 657.034C356.245 653.973 356.425 650.733 356.425 647.493C356.425 591.868 311.421 546.864 255.796 546.864C252.375 546.864 249.135 547.044 245.715 547.404C296.659 552.444 336.263 595.288 336.263 647.493C336.263 650.733 336.083 653.973 335.723 657.034L600.346 660.274V660.094L355.885 657.034Z" fill="#6392AD"/>
</g>
<path opacity="0.36" d="M356.248 640.833H596.749V616.891H351.567C354.088 624.632 355.528 632.552 356.248 640.833Z" fill="#6392AD"/>
<g opacity="0.25">
<path opacity="0.25" d="M899.894 394.391L882.972 330.125C876.311 304.383 854.349 285.661 827.887 282.781C752.281 274.68 660.652 270 553.723 270C431.312 270 243.196 279.361 186.671 285.841C177.85 286.921 169.929 291.962 165.429 299.523C165.429 299.523 165.429 296.462 165.609 296.462C222.134 289.982 410.25 283.681 532.661 283.681C639.771 283.681 731.219 288.362 806.825 296.462C833.288 299.343 855.07 318.064 861.91 343.807L878.832 408.072C885.852 434.535 889.273 461.717 889.273 488.899V661.534L910.514 661.714V475.218C910.334 448.036 906.734 420.853 899.894 394.391Z" fill="#6392AD"/>
</g>
<path d="M896.295 396.191L879.373 331.925C872.712 306.183 850.751 287.461 824.288 284.581C748.682 276.48 657.053 271.8 550.124 271.8C427.713 271.8 239.597 281.161 183.072 287.641C172.811 288.722 163.99 295.382 159.85 304.923L125.827 384.49C110.165 412.572 100.624 443.535 97.9242 475.578L97.2041 654.514L135.187 655.234C135.007 652.714 134.827 650.193 134.827 647.673C134.827 592.048 179.831 547.044 235.456 547.044C291.081 547.044 336.085 592.048 336.085 647.673C336.085 650.913 335.905 654.154 335.545 657.214L600.168 660.454C599.628 656.314 599.268 651.994 599.268 647.673C599.268 592.048 644.272 547.044 699.897 547.044C755.522 547.044 800.526 592.048 800.526 647.673C800.526 652.714 800.166 657.574 799.446 662.434L906.195 663.515V477.018C906.736 449.836 903.135 422.653 896.295 396.191Z" stroke="#523160" stroke-width="8" stroke-miterlimit="10" stroke-linecap="round" stroke-linejoin="round"/>
<path d="M700.255 730.3C654.711 730.3 617.628 693.217 617.628 647.673C617.628 602.129 654.711 565.046 700.255 565.046C745.799 565.046 782.883 602.129 782.883 647.673C782.883 693.217 745.799 730.3 700.255 730.3Z" fill="#5C3F6B"/>
<path d="M700.255 730.3C654.711 730.3 617.628 693.217 617.628 647.673C617.628 602.129 654.711 565.046 700.255 565.046C745.799 565.046 782.883 602.129 782.883 647.673C782.883 693.217 745.799 730.3 700.255 730.3Z" stroke="#523160" stroke-width="8" stroke-miterlimit="10" stroke-linecap="round" stroke-linejoin="round"/>
<path d="M700.258 690.877C676.495 690.877 657.054 671.435 657.054 647.673C657.054 623.911 676.495 604.469 700.258 604.469C724.02 604.469 743.461 623.911 743.461 647.673C743.461 671.435 724.02 690.877 700.258 690.877Z" fill="#FDC858"/>
<path d="M700.258 690.877C676.495 690.877 657.054 671.435 657.054 647.673C657.054 623.911 676.495 604.469 700.258 604.469C724.02 604.469 743.461 623.911 743.461 647.673C743.461 671.435 724.02 690.877 700.258 690.877Z" stroke="#523160" stroke-width="8" stroke-miterlimit="10" stroke-linecap="round" stroke-linejoin="round"/>
<path d="M700.255 661.895C692.334 661.895 686.033 655.414 686.033 647.673C686.033 639.753 692.514 633.452 700.255 633.452C708.175 633.452 714.476 639.933 714.476 647.673C714.476 655.414 708.175 661.895 700.255 661.895Z" fill="#FDC858"/>
<path d="M700.255 661.895C692.334 661.895 686.033 655.414 686.033 647.673C686.033 639.753 692.514 633.452 700.255 633.452C708.175 633.452 714.476 639.933 714.476 647.673C714.476 655.414 708.175 661.895 700.255 661.895Z" stroke="#523160" stroke-width="8" stroke-miterlimit="10" stroke-linecap="round" stroke-linejoin="round"/>
<path d="M97.203 670.536H77.5813C69.4806 670.536 63 664.055 63 655.954V597.809C63 589.709 69.4806 583.228 77.5813 583.228H97.203V670.536Z" fill="white"/>
<path d="M97.203 670.536H77.5813C69.4806 670.536 63 664.055 63 655.954V597.809C63 589.709 69.4806 583.228 77.5813 583.228H97.203V670.536Z" stroke="#523160" stroke-width="8" stroke-miterlimit="10" stroke-linecap="round" stroke-linejoin="round"/>
<path d="M100.083 559.825H92.882C87.4815 559.825 83.1611 555.505 83.1611 550.104V505.461C83.1611 500.06 87.4815 495.74 92.882 495.74H100.083C105.483 495.74 109.803 500.06 109.803 505.461V550.104C109.803 555.505 105.483 559.825 100.083 559.825Z" fill="white"/>
<path d="M100.083 559.825H92.882C87.4815 559.825 83.1611 555.505 83.1611 550.104V505.461C83.1611 500.06 87.4815 495.74 92.882 495.74H100.083C105.483 495.74 109.803 500.06 109.803 505.461V550.104C109.803 555.505 105.483 559.825 100.083 559.825Z" stroke="#523160" stroke-width="8" stroke-miterlimit="10" stroke-linecap="round" stroke-linejoin="round"/>
<path d="M920.417 684.397H843.01C834.009 684.397 826.809 677.196 826.809 668.196V655.594C826.809 646.594 834.009 639.393 843.01 639.393H920.417C929.418 639.393 936.618 646.594 936.618 655.594V668.196C936.618 677.016 929.238 684.397 920.417 684.397Z" fill="white"/>
<path d="M844.088 666.935C844.088 662.435 847.868 658.655 852.368 658.655H936.436V655.594C936.436 646.594 929.235 639.393 920.234 639.393H842.827C833.827 639.393 826.626 646.594 826.626 655.594V668.196C826.626 677.196 833.827 684.397 842.827 684.397H844.088V666.935Z" fill="#D8D8D8"/>
<path d="M920.417 684.397H843.01C834.009 684.397 826.809 677.196 826.809 668.196V655.594C826.809 646.594 834.009 639.393 843.01 639.393H920.417C929.418 639.393 936.618 646.594 936.618 655.594V668.196C936.618 677.016 929.238 684.397 920.417 684.397Z" stroke="#523160" stroke-width="8" stroke-miterlimit="10" stroke-linecap="round" stroke-linejoin="round"/>
<path d="M789.364 437.954H706.017C696.476 437.954 688.735 430.214 688.735 420.673V336.605C688.735 327.065 696.476 319.324 706.017 319.324H756.601C776.583 319.324 793.505 333.905 796.565 353.707L806.286 417.973C808.086 428.594 799.985 437.954 789.364 437.954Z" fill="#FDC858"/>
<path opacity="0.56" d="M724.019 357.308C724.019 347.767 731.759 340.026 741.3 340.026H791.885C784.864 327.605 771.543 319.505 756.601 319.505H706.017C696.476 319.505 688.735 327.245 688.735 336.786V420.854C688.735 430.394 696.476 438.135 706.017 438.135H724.019V357.308Z" fill="#FDC858"/>
<path d="M789.364 437.954H706.017C696.476 437.954 688.735 430.214 688.735 420.673V336.605C688.735 327.065 696.476 319.324 706.017 319.324H756.601C776.583 319.324 793.505 333.905 796.565 353.707L806.286 417.973C808.086 428.594 799.985 437.954 789.364 437.954Z" stroke="#523160" stroke-width="8" stroke-miterlimit="10" stroke-linecap="round" stroke-linejoin="round"/>
<path d="M633.291 436.154H449.315C439.774 436.154 432.033 428.413 432.033 418.873V334.805C432.033 325.264 439.774 317.524 449.315 317.524H633.291C642.832 317.524 650.573 325.264 650.573 334.805V418.873C650.392 428.413 642.832 436.154 633.291 436.154Z" fill="#FDC858"/>
<path opacity="0.56" d="M465.336 353.347C465.336 343.806 473.077 336.065 482.618 336.065H650.392V334.805C650.392 325.264 642.652 317.524 633.111 317.524H449.315C439.774 317.524 432.033 325.264 432.033 334.805V418.873C432.033 428.413 439.774 436.154 449.315 436.154H465.516V353.347H465.336Z" fill="#FDC858"/>
<path d="M633.291 436.154H449.315C439.774 436.154 432.033 428.413 432.033 418.873V334.805C432.033 325.264 439.774 317.524 449.315 317.524H633.291C642.832 317.524 650.573 325.264 650.573 334.805V418.873C650.392 428.413 642.832 436.154 633.291 436.154Z" stroke="#523160" stroke-width="8" stroke-miterlimit="10" stroke-linecap="round" stroke-linejoin="round"/>
<path d="M348.326 437.955H174.971C165.25 437.955 158.229 427.154 160.93 416.173L180.911 332.106C182.712 324.725 188.472 319.505 194.953 319.505H348.326C356.427 319.505 362.907 327.245 362.907 336.786V420.854C363.087 430.214 356.427 437.955 348.326 437.955Z" fill="#FDC858"/>
<path opacity="0.56" d="M193.331 433.814L213.313 349.747C215.113 342.366 220.874 337.145 227.354 337.145H362.906V336.605C362.906 327.065 356.426 319.324 348.325 319.324H194.951C188.471 319.324 182.71 324.544 180.91 331.925L160.928 415.992C158.408 426.973 165.249 437.774 174.97 437.774H192.791C192.971 436.514 193.151 435.254 193.331 433.814Z" fill="#FDC858"/>
<path d="M348.326 437.955H174.971C165.25 437.955 158.229 427.154 160.93 416.173L180.911 332.106C182.712 324.725 188.472 319.505 194.953 319.505H348.326C356.427 319.505 362.907 327.245 362.907 336.786V420.854C363.087 430.214 356.427 437.955 348.326 437.955Z" stroke="#523160" stroke-width="8" stroke-miterlimit="10" stroke-linecap="round" stroke-linejoin="round"/>
<path opacity="0.48" d="M366.146 280.261C386.668 280.261 403.23 296.823 403.23 317.345V657.935" stroke="#523160" stroke-width="2" stroke-miterlimit="10" stroke-linecap="round" stroke-linejoin="round"/>
<path d="M318.264 481.158H372.268" stroke="#523160" stroke-width="8" stroke-miterlimit="10" stroke-linecap="round" stroke-linejoin="round"/>
<path d="M598.548 477.018H644.632" stroke="#523160" stroke-width="8" stroke-miterlimit="10" stroke-linecap="round" stroke-linejoin="round"/>
<path d="M911.414 602.129H904.394V430.214H911.414C923.295 430.214 933.016 439.935 933.016 451.816V580.527C933.016 592.408 923.295 602.129 911.414 602.129Z" fill="#D8D8D8"/>
<path d="M911.414 602.129H904.394V430.214H911.414C923.295 430.214 933.016 439.935 933.016 451.816V580.527C933.016 592.408 923.295 602.129 911.414 602.129Z" stroke="#523160" stroke-width="8" stroke-miterlimit="10" stroke-linecap="round" stroke-linejoin="round"/>
<path d="M826.809 337.506H848.591" stroke="#523160" stroke-width="8" stroke-miterlimit="10" stroke-linecap="round" stroke-linejoin="round"/>
<path d="M835.811 368.469H857.593" stroke="#523160" stroke-width="8" stroke-miterlimit="10" stroke-linecap="round" stroke-linejoin="round"/>
<path d="M844.27 399.251H866.051" stroke="#523160" stroke-width="8" stroke-miterlimit="10" stroke-linecap="round" stroke-linejoin="round"/>
<path d="M847.87 430.214H869.832" stroke="#523160" stroke-width="8" stroke-miterlimit="10" stroke-linecap="round" stroke-linejoin="round"/>
<path d="M584.686 669.095H351.925C342.205 669.095 334.464 661.355 334.464 651.634C334.464 641.913 342.205 634.172 351.925 634.172H584.686C594.407 634.172 602.147 641.913 602.147 651.634C602.147 661.175 594.407 669.095 584.686 669.095Z" fill="white"/>
<path d="M584.686 669.095H351.925C342.205 669.095 334.464 661.355 334.464 651.634C334.464 641.913 342.205 634.172 351.925 634.172H584.686C594.407 634.172 602.147 641.913 602.147 651.634C602.147 661.175 594.407 669.095 584.686 669.095Z" fill="white"/>
<path d="M602.147 634.172H334.464V651.634H602.147V634.172Z" fill="#D8D8D8"/>
<path d="M584.686 669.095H351.925C342.205 669.095 334.464 661.355 334.464 651.634C334.464 641.913 342.205 634.172 351.925 634.172H584.686C594.407 634.172 602.147 641.913 602.147 651.634C602.147 661.175 594.407 669.095 584.686 669.095Z" stroke="#523160" stroke-width="8" stroke-miterlimit="10" stroke-linecap="round" stroke-linejoin="round"/>
<path d="M209.172 393.311L244.455 357.848" stroke="#523160" stroke-width="4" stroke-miterlimit="10" stroke-linecap="round" stroke-linejoin="round"/>
<path d="M239.058 396.552L286.582 348.667" stroke="#523160" stroke-width="4" stroke-miterlimit="10" stroke-linecap="round" stroke-linejoin="round"/>
<path d="M483.338 389.17L518.441 353.527" stroke="#523160" stroke-width="4" stroke-miterlimit="10" stroke-linecap="round" stroke-linejoin="round"/>
<path d="M513.219 392.411L560.743 344.527" stroke="#523160" stroke-width="4" stroke-miterlimit="10" stroke-linecap="round" stroke-linejoin="round"/>
<path d="M711.599 392.591L740.581 363.248" stroke="#523160" stroke-width="4" stroke-miterlimit="10" stroke-linecap="round" stroke-linejoin="round"/>
<path d="M736.26 395.291L775.323 355.688" stroke="#523160" stroke-width="4" stroke-miterlimit="10" stroke-linecap="round" stroke-linejoin="round"/>
</svg>
