<svg width="1000" height="1000" viewBox="0 0 1000 1000" fill="none" xmlns="http://www.w3.org/2000/svg">
<path d="M675.994 234.029C681.866 272.784 675.994 332.383 718.419 364.092C758.788 394.185 792.111 386.699 792.111 386.699C796.075 372.312 847.16 231.68 675.994 234.029Z" fill="#022266"/>
<path d="M905.439 243.131C869.18 257.811 809.727 266.031 788.882 314.768C781.835 331.209 779.193 345.742 778.753 357.633C768.624 380.093 758.935 398.443 749.54 413.416C719.3 461.419 693.317 473.897 673.058 474.484C631.808 475.658 617.275 426.921 514.517 339.43C444.641 279.83 403.978 246.214 341.296 236.672C258.208 224.047 193.324 262.802 183.929 268.674C165.873 279.83 114.2 311.539 94.676 371.726C56.0682 490.925 174.974 601.611 188.333 613.648C245.437 665.321 307.973 680.294 342.47 688.515C364.784 693.799 443.467 710.681 540.941 686.46C597.017 672.514 703.886 645.943 767.009 544.947C800.038 492.1 809.727 437.051 810.461 392.277C855.821 390.516 938.322 372.166 905.439 243.131Z" fill="#9EC9F1"/>
<g opacity="0.15">
<g opacity="0.15">
<g opacity="0.15">
<path opacity="0.15" d="M905.441 243.131C900.597 245.186 895.165 246.948 889.587 248.856C915.717 367.762 836.74 385.671 792.7 387.433C792.26 432.206 782.865 487.255 750.276 540.249C687.887 641.686 581.018 668.844 525.088 683.23C461.525 699.378 405.889 698.056 368.749 693.799C404.714 699.671 467.544 704.662 540.943 686.46C597.019 672.514 703.888 645.943 767.011 544.947C800.04 492.099 809.729 437.05 810.463 392.277C855.823 390.516 938.324 372.166 905.441 243.131Z" fill="#515151"/>
</g>
</g>
</g>
<path opacity="0.2" d="M138.714 420.315C147.634 420.315 154.862 412.034 154.862 401.819C154.862 391.603 147.634 383.322 138.714 383.322C129.796 383.322 122.566 391.603 122.566 401.819C122.566 412.034 129.796 420.315 138.714 420.315Z" fill="#515151"/>
<path opacity="0.2" d="M252.042 401.965C261.123 401.965 268.483 393.488 268.483 383.028C268.483 372.571 261.123 364.092 252.042 364.092C242.963 364.092 235.601 372.571 235.601 383.028C235.601 393.488 242.963 401.965 252.042 401.965Z" fill="#515151"/>
<g opacity="0.16">
<g opacity="0.16">
<g opacity="0.16">
<path opacity="0.16" d="M164.112 297.152C172.039 292.308 238.245 254.728 321.479 265.151C395.905 274.546 445.523 317.557 493.673 359.395C586.008 439.546 633.424 498.118 675.995 489.604C695.96 485.641 708.731 475.218 729.723 442.042C730.751 440.427 731.778 438.812 732.659 437.197C709.612 465.823 689.354 474.044 673.059 474.484C631.809 475.658 617.276 426.921 514.518 339.43C444.642 279.83 403.979 246.214 341.297 236.672C258.209 224.047 193.325 262.802 183.93 268.674C168.663 278.069 129.761 301.997 106.127 345.155C127.853 319.612 152.662 304.346 164.112 297.152Z" fill="#515151"/>
</g>
</g>
</g>
<path d="M540.942 686.312C583.953 675.596 656.765 657.54 716.952 604.106C598.633 654.604 521.418 645.649 470.479 624.07C349.664 572.691 316.635 423.398 215.051 427.361C188.04 428.389 152.222 439.692 135.78 468.465C115.816 503.549 134.9 545.533 137.982 552.139C147.818 568.287 163.965 591.041 188.334 613.501C243.823 664.586 304.744 679.413 342.471 688.367C364.785 693.799 443.468 710.534 540.942 686.312Z" fill="#81CCF7"/>
<path opacity="0.3" d="M210.058 427.361C210.058 427.361 279.052 591.775 469.155 631.41" stroke="#0B1E46" stroke-width="6" stroke-miterlimit="10" stroke-linecap="round" stroke-linejoin="round"/>
<path opacity="0.08" d="M552.979 671.926C455.505 696.147 376.822 679.413 354.508 673.981C316.781 664.88 255.86 650.2 200.371 599.114C176.003 576.654 159.855 553.901 150.019 537.753C146.937 531.147 127.853 489.163 147.817 454.078C148.111 453.491 148.551 452.904 148.992 452.17C143.854 456.867 139.45 462.299 135.927 468.464C115.962 503.549 135.046 545.533 138.129 552.139C147.964 568.287 164.112 591.04 188.48 613.5C243.97 664.586 304.891 679.413 342.618 688.367C364.931 693.652 443.615 710.534 541.088 686.312C584.1 675.596 656.911 657.54 717.098 604.105C712.694 606.014 708.291 607.775 703.887 609.537C649.425 647.851 589.972 662.678 552.979 671.926Z" fill="#515151"/>
<path opacity="0.3" d="M138.715 471.107C138.715 471.107 166.753 578.857 284.191 639.484C370.802 684.257 509.232 708.039 681.866 627.006" stroke="#0B1E46" stroke-width="6" stroke-miterlimit="10" stroke-linecap="round" stroke-linejoin="round"/>
<path opacity="0.3" d="M161.029 443.069C161.029 443.069 257.035 740.041 657.645 629.208" stroke="#0B1E46" stroke-width="6" stroke-miterlimit="10" stroke-linecap="round" stroke-linejoin="round"/>
<path d="M540.942 686.312C583.953 675.596 656.765 657.54 716.952 604.106C598.633 654.604 521.417 645.649 470.479 624.07C349.664 572.691 316.635 423.398 215.051 427.361C188.04 428.389 152.222 439.692 135.78 468.465C115.816 503.549 134.9 545.533 137.982 552.139C147.818 568.287 163.965 591.041 188.334 613.501C243.823 664.586 304.744 679.413 342.471 688.367C364.785 693.799 443.468 710.534 540.942 686.312Z" stroke="#022266" stroke-width="6" stroke-miterlimit="10" stroke-linecap="round" stroke-linejoin="round"/>
<path d="M134.165 417.966C141.543 417.966 147.524 410.211 147.524 400.644C147.524 391.077 141.543 383.322 134.165 383.322C126.787 383.322 120.807 391.077 120.807 400.644C120.807 410.211 126.787 417.966 134.165 417.966Z" fill="#022266"/>
<path d="M132.109 398.736C134.622 398.736 136.66 396.041 136.66 392.717C136.66 389.392 134.622 386.699 132.109 386.699C129.596 386.699 127.559 389.392 127.559 392.717C127.559 396.041 129.596 398.736 132.109 398.736Z" fill="white"/>
<path d="M246.904 398.883C254.282 398.883 260.262 391.127 260.262 381.56C260.262 371.994 254.282 364.238 246.904 364.238C239.525 364.238 233.545 371.994 233.545 381.56C233.545 391.127 239.525 398.883 246.904 398.883Z" fill="#022266"/>
<path d="M245.144 381.561C247.82 381.561 249.988 378.406 249.988 374.515C249.988 370.623 247.82 367.468 245.144 367.468C242.469 367.468 240.3 370.623 240.3 374.515C240.3 378.406 242.469 381.561 245.144 381.561Z" fill="white"/>
<path d="M247.491 393.745C248.789 393.745 249.84 392.167 249.84 390.222C249.84 388.275 248.789 386.699 247.491 386.699C246.195 386.699 245.143 388.275 245.143 390.222C245.143 392.167 246.195 393.745 247.491 393.745Z" fill="white"/>
<path d="M136.659 411.214C137.957 411.214 139.008 409.637 139.008 407.691C139.008 405.746 137.957 404.168 136.659 404.168C135.363 404.168 134.311 405.746 134.311 407.691C134.311 409.637 135.363 411.214 136.659 411.214Z" fill="white"/>
<path d="M905.439 243.131C869.18 257.811 809.727 266.031 788.882 314.768C781.835 331.209 779.193 345.742 778.753 357.633C768.624 380.093 758.935 398.443 749.54 413.416C719.3 461.419 693.317 473.897 673.058 474.484C631.808 475.658 617.275 426.921 514.517 339.43C444.641 279.83 403.978 246.214 341.296 236.672C258.208 224.047 193.324 262.802 183.929 268.674C165.873 279.83 114.2 311.539 94.676 371.726C56.0682 490.925 174.974 601.611 188.333 613.648C245.437 665.321 307.973 680.294 342.47 688.515C364.784 693.8 443.467 710.681 540.941 686.46C597.017 672.514 703.886 645.943 767.009 544.947C800.038 492.1 809.727 437.051 810.461 392.277C855.821 390.516 938.322 372.166 905.439 243.131Z" stroke="#022266" stroke-width="6" stroke-miterlimit="10" stroke-linecap="round" stroke-linejoin="round"/>
<path d="M499.838 550.671C499.838 550.671 582.486 645.943 520.39 759.124C482.223 797.291 448.753 676.917 448.753 638.75C448.753 600.583 461.671 579.003 461.671 579.003" fill="#9EC9F1"/>
<path opacity="0.2" d="M499.837 550.671L497.928 551.993C518.333 586.93 546.518 657.687 502.773 737.545C493.818 746.499 485.157 746.793 477.083 741.361C489.267 763.234 504.534 775.125 520.388 759.124C582.484 645.943 499.837 550.671 499.837 550.671Z" fill="#515151"/>
<path d="M499.838 550.671C499.838 550.671 582.486 645.943 520.39 759.124C482.223 797.291 448.753 676.917 448.753 638.75C448.753 600.583 461.671 579.003 461.671 579.003" stroke="#022266" stroke-width="6" stroke-miterlimit="10" stroke-linecap="round" stroke-linejoin="round"/>
</svg>
