<svg width="325" height="302" viewBox="0 0 325 302" fill="none" xmlns="http://www.w3.org/2000/svg">
<path d="M154.808 162.663C154.808 162.663 142.173 192.67 139.132 194.258C136.091 195.846 46.9437 188.107 46.9437 188.107L49.4745 185.29L49.5943 165.87L46.2598 165.723L80.3161 120.871L157.269 126.493C157.269 126.493 161.377 129.337 161.948 131.825C162.52 134.314 162.373 138.034 162.373 138.034L154.808 162.663Z" fill="#263238"/>
<path d="M136.153 194.636C137.85 194.636 138.92 194.567 139.217 194.412C142.285 192.813 154.468 163.949 154.982 162.728V162.709L162.567 138.069V138.042C162.567 138.003 162.687 134.251 162.138 131.782C161.589 129.313 157.551 126.45 157.378 126.331L157.335 126.303H157.285L80.2351 120.67L80.1733 120.755L45.8851 165.897L49.4013 166.055L49.2815 185.216L46.542 188.265L46.9284 188.296C50.2165 188.582 120.331 194.636 136.153 194.636ZM154.623 162.566C150.26 172.925 141.397 192.824 139.04 194.053C136.683 195.282 78.2606 190.595 47.3457 187.913L49.664 185.332V185.259L49.7838 165.653L46.6347 165.514L80.4051 121.072L157.2 126.678C157.636 126.991 161.261 129.63 161.759 131.867C162.277 134.186 162.192 137.663 162.184 138.003L154.623 162.566Z" fill="#263238"/>
<path d="M49.5942 165.871L137.034 172.911C138.355 173.783 139.468 174.935 140.293 176.286C141.118 177.638 141.634 179.154 141.806 180.728C142.447 186.187 140.241 191.732 138.599 192.528C137.403 193.04 136.124 193.332 134.824 193.39L49.4744 185.276L49.5942 165.871Z" fill="#E0E0E0"/>
<path d="M134.804 193.584C136.135 193.528 137.445 193.23 138.668 192.703C140.434 191.846 142.621 186.135 141.984 180.725C141.805 179.124 141.277 177.581 140.439 176.205C139.601 174.828 138.471 173.652 137.131 172.758L137.049 172.731L49.4009 165.656L49.2773 185.459L49.455 185.478L134.804 193.584ZM136.991 173.106C138.271 173.971 139.349 175.103 140.149 176.425C140.95 177.746 141.454 179.225 141.628 180.76C142.273 186.278 139.974 191.66 138.537 192.352C137.365 192.852 136.112 193.137 134.839 193.194L49.6907 185.111L49.8105 166.074L136.991 173.106Z" fill="#263238"/>
<path d="M138.58 98.0917L173.853 146.796C173.853 146.796 175.785 148.689 175.685 153.33C175.584 157.97 175.356 165.54 173.977 166.081C172.597 166.622 70.529 174.349 70.529 174.349L46.9592 119.919L48.7985 119.146L48.1648 105.727L46.6192 101.384L135.987 97.1953L138.58 98.0917Z" fill="#FFA403"/>
<path d="M70.4052 174.544H70.5443C74.7135 174.231 172.651 166.79 174.042 166.256C175.159 165.827 175.708 161.964 175.878 153.339C175.971 148.668 174.07 146.744 173.988 146.663L138.699 97.9312L136.018 97H135.979L46.3641 101.204L47.9715 105.767L48.6052 119.005L46.7119 119.816L46.7892 119.998L70.4052 174.544ZM138.46 98.2558L173.699 146.91C173.737 146.952 175.58 148.842 175.491 153.328C175.433 156.307 175.252 165.375 173.907 165.893C172.582 166.322 105.876 171.473 70.6525 174.158L47.218 120.021L49.0032 119.248L48.3463 105.659L46.9012 101.556L135.96 97.3903L138.46 98.2558Z" fill="#263238"/>
<path d="M170.681 148.185C170.681 148.185 173.872 147.196 174.78 150.264C175.688 153.332 173.455 164.448 173.455 164.448C173.455 164.448 171.55 165.244 170.673 165.271C169.796 165.298 71.576 171.782 71.576 171.782L48.806 119.132L48.1646 105.729L69.9492 152.907L170.681 148.185Z" fill="white"/>
<path d="M71.4523 171.982H71.5876C72.569 171.916 169.819 165.494 170.681 165.471C171.543 165.448 173.451 164.667 173.532 164.636L173.625 164.594L173.644 164.493C173.737 164.037 175.874 153.288 174.962 150.216C174.861 149.799 174.676 149.408 174.417 149.065C174.158 148.723 173.832 148.438 173.459 148.226C172.579 147.816 171.581 147.735 170.646 147.998L70.0691 152.716L47.9251 104.746L48.6283 119.205L71.4523 171.982ZM173.289 164.308C172.903 164.466 171.392 165.054 170.669 165.081C169.808 165.104 77.3254 171.213 71.6996 171.584L48.9954 119.085L48.4042 106.721L69.8256 153.107H69.957L170.712 148.373H170.739C171.581 148.134 172.48 148.201 173.277 148.563C173.604 148.751 173.89 149.004 174.116 149.307C174.343 149.609 174.506 149.954 174.595 150.321C175.43 153.149 173.505 163.187 173.289 164.308Z" fill="#263238"/>
<path d="M72.2019 152.803L170.681 148.185C170.681 148.185 173.872 147.196 174.78 150.264C175.688 153.332 173.455 164.448 173.455 164.448C173.455 164.448 171.55 165.244 170.673 165.271C169.796 165.298 71.576 171.782 71.576 171.782L71.7112 153.235L72.2019 152.803Z" fill="#E0E0E0"/>
<path d="M71.3789 171.986H71.5876C72.569 171.921 169.819 165.499 170.681 165.476C171.543 165.453 173.451 164.672 173.532 164.641L173.625 164.599L173.644 164.498C173.737 164.042 175.874 153.293 174.962 150.221C174.861 149.804 174.676 149.413 174.417 149.07C174.158 148.728 173.832 148.442 173.459 148.231C172.579 147.821 171.581 147.74 170.646 148.003L72.1169 152.64L71.5103 153.158V153.247L71.3789 171.986ZM173.289 164.309C172.903 164.467 171.392 165.055 170.669 165.082C169.811 165.105 78.0634 171.163 71.7537 171.577L71.889 153.316L72.2753 152.995L170.712 148.374H170.739C171.581 148.135 172.48 148.202 173.277 148.564C173.604 148.752 173.89 149.005 174.116 149.308C174.343 149.61 174.506 149.955 174.595 150.322C175.43 153.15 173.505 163.188 173.289 164.309Z" fill="#263238"/>
<path d="M204.751 221.163C204.751 221.163 201.142 226.368 197.371 226.287C172.233 225.738 128.88 237.778 123.849 237.778C118.818 237.778 115.078 237.334 115.078 236.264C115.078 235.193 132.771 165.168 132.771 165.168L136.279 164.102L124.232 232.438C124.232 232.438 139.181 230.305 169.381 225.271C199.581 220.236 198.36 215.997 202.008 216.747C205.655 217.497 204.751 221.163 204.751 221.163Z" fill="#46CC8C"/>
<path d="M123.849 237.963C125.372 237.963 130.318 236.885 137.16 235.393C153.095 231.916 179.775 226.089 197.368 226.507H197.472C201.266 226.507 204.771 221.514 204.918 221.302L204.949 221.236C204.949 221.167 205.366 219.505 204.508 218.145C204.228 217.732 203.865 217.381 203.443 217.115C203.021 216.849 202.548 216.674 202.055 216.6C200.741 216.329 200.022 216.669 198.453 217.419C195.459 218.844 189.23 221.808 169.358 225.123C141.646 229.76 126.608 231.943 124.475 232.252L136.535 163.861L132.62 165.055L132.593 165.16C131.871 168.019 114.893 235.212 114.893 236.29C114.893 237.368 117.899 237.963 123.849 237.963ZM195.64 226.085C178.013 226.085 152.516 231.646 137.079 235.015C130.26 236.502 125.333 237.577 123.849 237.577C117.524 237.577 115.272 236.897 115.272 236.255C115.326 235.216 126.832 189.479 132.945 165.326L136.036 164.383L123.992 232.673L124.259 232.635C124.406 232.611 139.556 230.44 169.412 225.463C189.342 222.144 195.602 219.161 198.612 217.736C200.157 217.005 200.783 216.7 201.966 216.963C202.41 217.028 202.836 217.186 203.216 217.424C203.597 217.663 203.923 217.978 204.176 218.35C204.631 219.196 204.768 220.178 204.562 221.116C204.261 221.538 200.834 226.201 197.364 226.139C196.807 226.089 196.228 226.085 195.64 226.085Z" fill="#263238"/>
<path d="M120.263 235.951C125.449 235.646 135.537 233.022 160.448 227.91C185.358 222.798 204.009 219.703 204.009 219.703L204.535 221.5C203.673 222.632 200.59 226.368 197.391 226.299C172.233 225.739 128.88 237.778 123.849 237.778C118.818 237.778 115.078 237.334 115.078 236.264C115.078 236.171 117.679 236.105 120.263 235.951Z" fill="#263238"/>
<path d="M123.849 237.964C125.372 237.964 130.317 236.886 137.16 235.394C153.095 231.917 179.768 226.094 197.368 226.507C200.667 226.592 203.785 222.794 204.67 221.631L204.728 221.554L204.129 219.502L203.959 219.529C203.774 219.56 184.995 222.686 160.39 227.736C151.472 229.567 144.49 231.07 138.884 232.28C129.008 234.409 123.567 235.58 120.252 235.757C119.267 235.815 118.274 235.862 117.428 235.9C114.885 236.02 114.885 236.02 114.885 236.256C114.885 237.392 117.899 237.964 123.849 237.964ZM195.64 226.086C178.013 226.086 152.516 231.646 137.079 235.015C130.26 236.503 125.333 237.577 123.849 237.577C118.011 237.577 115.642 236.998 115.314 236.418C115.669 236.379 116.539 236.341 117.447 236.298C118.293 236.26 119.286 236.213 120.275 236.155C123.618 235.958 129.069 234.784 138.965 232.655C144.571 231.445 151.553 229.95 160.467 228.111C183.825 223.316 201.923 220.259 203.855 219.935L204.303 221.48C203.384 222.674 200.466 226.117 197.46 226.117H197.375C196.807 226.09 196.228 226.086 195.64 226.086Z" fill="#263238"/>
<path d="M286.21 162.432C286.21 162.432 288.042 163.042 288.343 164.414C288.644 165.785 306.19 236.108 304.513 236.282C302.836 236.456 210.397 237.055 209.33 235.977C208.264 234.899 204.752 221.163 204.752 221.163L212.541 231.7L292.775 229.717L283.165 164.124L286.21 162.432Z" fill="#46CC8C"/>
<path d="M246.578 236.804C273.08 236.804 304.03 236.514 304.536 236.467C304.574 236.464 304.611 236.452 304.644 236.433C304.676 236.414 304.704 236.387 304.726 236.355C305.004 235.969 305.854 234.771 289.343 167.682C288.864 165.751 288.571 164.553 288.536 164.387C288.211 162.926 286.353 162.289 286.276 162.265L286.194 162.238L282.953 164.02L292.547 229.528L212.626 231.506L204.322 220.266L204.566 221.224C204.925 222.635 208.117 235.034 209.203 236.108C209.728 236.645 226.934 236.804 246.578 236.804ZM304.42 236.089C301.356 236.174 211.463 236.835 209.442 235.818C208.669 235.046 206.308 226.398 205.192 222.09L212.44 231.896H212.541L292.995 229.91L292.964 229.694L283.374 164.232L286.229 162.663C286.569 162.795 287.918 163.382 288.161 164.475C288.196 164.645 288.486 165.824 288.969 167.779C302.937 224.551 304.687 235.073 304.42 236.089Z" fill="#263238"/>
<path d="M209.33 235.974C208.26 234.904 204.752 221.176 204.752 221.176L205.269 221.871L210.092 234.301L303.598 235.507L304.529 236.28C302.836 236.43 210.397 237.041 209.33 235.974Z" fill="#263238"/>
<path d="M246.578 236.803C273.08 236.803 304.03 236.513 304.536 236.467L305 236.424L303.655 235.304H303.586L210.223 234.102L205.424 221.757L204.323 220.266L204.566 221.224C204.925 222.634 208.117 235.033 209.203 236.108C209.728 236.645 226.93 236.803 246.578 236.803ZM303.995 236.096C296.654 236.208 211.691 236.807 209.454 235.822C208.681 234.983 206.424 226.815 205.277 222.429L209.96 234.485H210.087L303.509 235.69L303.995 236.096Z" fill="#263238"/>
<path d="M284.073 161.532L286.21 162.447L301.005 233.987L210.091 234.292L203.99 218.582L289.413 222.701L281.48 161.381L284.073 161.532Z" fill="white"/>
<path d="M209.96 234.485H210.091L301.244 234.18L286.376 162.312L284.085 161.342L281.26 161.176L281.287 161.408L289.193 222.496L203.7 218.377L209.96 234.485ZM300.761 233.798L210.215 234.099L204.268 218.79L289.633 222.905L289.602 222.677L281.704 161.585L284.023 161.724L286.036 162.586L300.761 233.798Z" fill="#263238"/>
<path d="M294.904 224.988L299.05 231.885L301.005 233.987L210.091 234.293L203.99 218.582L289.413 222.701L294.904 224.988Z" fill="#E0E0E0"/>
<path d="M209.96 234.484H210.091L301.449 234.178L299.204 231.763L295.035 224.832L289.421 222.513L203.701 218.383L209.96 234.484ZM300.564 233.796L210.223 234.097L204.276 218.789L289.371 222.892L294.78 225.141L298.915 232.015L300.564 233.796Z" fill="#263238"/>
<path d="M203.99 218.581V204.547L277.362 212.63L282.852 222.243L203.99 218.581Z" fill="#B8B8B8"/>
<path d="M283.196 222.452L277.482 212.452H277.381L203.797 204.338V218.766H203.983L283.196 222.452ZM277.242 212.811L282.512 222.031L204.184 218.395V204.763L277.242 212.811Z" fill="#263238"/>
<path d="M280.719 153.754L282.852 154.059L294.904 224.988C294.904 224.988 284.989 224.216 271.566 221.024C258.143 217.833 230.836 212.937 221.683 214.313C212.529 215.688 204.751 221.163 204.751 221.163C204.751 221.163 193.33 223.431 180.517 226.024C167.704 228.617 148.636 232.593 135.974 234.722C123.312 236.851 120.264 235.939 120.264 235.939L135.974 162.873L137.5 162.432L129.112 228.632C129.112 228.632 182.016 214.007 189.041 214.007C196.065 214.007 199.86 206.531 213.905 203.787C227.95 201.044 243.657 206.531 256.922 208.81C265.238 210.279 273.444 212.319 281.48 214.915L277.972 153.746L280.719 153.754Z" fill="#E0E0E0"/>
<path d="M122.86 236.344C125.14 236.344 129.178 236.074 135.997 234.922C146.662 233.141 161.839 230.05 174.034 227.55L180.556 226.225C193.222 223.663 204.674 221.387 204.79 221.364L204.863 221.333C204.941 221.279 212.715 215.854 221.714 214.502C231.01 213.107 259.194 218.269 271.519 221.21C279.206 223.081 287.015 224.408 294.888 225.182L295.135 225.201L295.093 224.957L283.018 153.885L280.7 153.561H277.748L281.253 214.649C273.29 212.1 265.165 210.088 256.933 208.629C253.587 208.053 250.137 207.284 246.481 206.469C235.612 204.042 224.376 201.538 213.847 203.598C206.247 205.086 201.614 207.964 197.889 210.275C194.709 212.253 192.198 213.814 189.022 213.814C182.248 213.814 133.915 227.098 129.321 228.365L137.732 162.158L135.8 162.733L135.777 162.845L120.04 236.085L120.21 236.136C120.267 236.155 120.948 236.344 122.86 236.344ZM204.674 220.993C203.925 221.144 192.773 223.358 180.478 225.846L173.956 227.171C161.766 229.656 146.592 232.743 135.943 234.54C125.097 236.371 121.303 235.946 120.488 235.803L136.14 163.039L137.272 162.699L128.884 228.891L129.162 228.814C129.692 228.667 182.128 214.197 189.052 214.197C192.341 214.197 194.895 212.608 198.125 210.599C201.819 208.304 206.421 205.445 213.967 203.973C224.399 201.929 235.605 204.425 246.423 206.84C250.083 207.655 253.537 208.428 256.895 209.007C265.201 210.477 273.397 212.513 281.426 215.101L281.697 215.193L278.177 153.931H280.704L282.686 154.214L294.664 224.76C286.895 223.974 279.19 222.657 271.601 220.819C258.85 217.778 231.119 212.705 221.648 214.104C212.869 215.437 205.25 220.595 204.674 220.993Z" fill="#263238"/>
<path d="M289.413 222.701L294.904 224.989L282.852 154.059L277.972 153.754L289.413 222.701Z" fill="white"/>
<path d="M295.155 225.301L283.018 153.873L277.74 153.545L289.239 222.84L295.155 225.301ZM282.69 154.24L294.668 224.675L289.599 222.562L278.215 153.962L282.69 154.24Z" fill="#263238"/>
<path d="M205.822 144.296C205.822 144.296 204.446 141.854 191.939 145.069C179.431 148.284 166.333 156.336 155.653 157.859C144.973 159.381 137.968 160.888 137.968 160.888L123.474 234.414C123.474 234.414 147.11 231.211 169.381 225.276C191.653 219.341 201.092 215.369 203.99 218.583L205.822 144.296Z" fill="white"/>
<path d="M123.227 234.654L123.494 234.616C123.73 234.585 147.404 231.343 169.432 225.458C174.733 224.044 179.254 222.754 183.237 221.622C195.54 218.117 201.722 216.359 203.847 218.712L204.172 219.067L206.015 144.247L205.988 144.201C205.93 144.093 204.4 141.666 191.892 144.869C186.182 146.334 180.339 148.81 174.69 151.202C167.863 154.096 161.418 156.832 155.626 157.659C145.066 159.166 137.987 160.696 137.918 160.711L137.794 160.738L123.227 234.654ZM200.563 217.24C197.201 217.24 191.726 218.785 183.117 221.251C179.134 222.383 174.617 223.669 169.316 225.087C148.594 230.624 126.376 233.82 123.71 234.195L138.123 161.063C139.112 160.854 145.897 159.44 155.68 158.041C161.522 157.207 167.99 154.463 174.841 151.561C180.475 149.17 186.305 146.701 191.989 145.244C203.194 142.369 205.366 144.085 205.625 144.359L203.809 218.159C203.063 217.522 202.012 217.24 200.563 217.24Z" fill="#263238"/>
<path d="M141.894 170.159C166.514 164.75 167.994 164.588 168.048 164.584V164.197C168.017 164.197 166.97 164.259 141.824 169.784L141.894 170.159Z" fill="#263238"/>
<path d="M141.353 173.33C144.49 172.639 147.38 171.997 149.973 171.418C153.253 170.687 156.086 170.057 158.342 169.574C166.866 167.747 167.758 167.67 167.793 167.666L167.774 167.279C167.743 167.279 166.943 167.337 158.261 169.211C156.004 169.694 153.172 170.328 149.892 171.058L141.268 172.967L141.353 173.33Z" fill="#263238"/>
<path d="M140.812 176.507C144.08 175.788 147.307 175.054 150.158 174.405C153.199 173.713 155.823 173.118 157.979 172.655C166.348 170.862 167.496 170.761 167.542 170.757L167.515 170.371C167.472 170.371 166.356 170.464 157.898 172.276C155.742 172.74 153.114 173.339 150.069 174.03C147.222 174.675 143.995 175.41 140.727 176.128L140.812 176.507Z" fill="#263238"/>
<path d="M140.286 179.686C143.377 179.01 146.526 178.275 149.583 177.564C152.573 176.873 155.402 176.216 157.627 175.737C165.807 173.983 167.287 173.855 167.287 173.851L167.26 173.465C167.202 173.465 165.772 173.588 157.527 175.358C155.297 175.837 152.469 176.49 149.475 177.186C146.418 177.893 143.258 178.627 140.201 179.303L140.286 179.686Z" fill="#263238"/>
<path d="M139.726 182.859C142.539 182.241 145.707 181.491 148.767 180.768C151.917 180.027 154.892 179.32 157.249 178.837C165.224 177.125 167.02 176.963 167.04 176.963L167.009 176.576C166.939 176.576 165.193 176.735 157.168 178.458C154.807 178.964 151.832 179.667 148.667 180.413C145.607 181.136 142.442 181.881 139.633 182.5L139.726 182.859Z" fill="#263238"/>
<path d="M139.185 186.035C141.712 185.479 144.838 184.729 147.863 184.003C151.063 183.23 154.374 182.434 156.882 181.897C164.652 180.228 166.766 180.035 166.789 180.035L166.754 179.648C166.669 179.648 164.61 179.842 156.801 181.519C154.289 182.06 150.978 182.855 147.771 183.624C144.749 184.351 141.627 185.104 139.104 185.657L139.185 186.035Z" fill="#263238"/>
<path d="M138.644 189.212C140.881 188.722 143.806 188.007 146.905 187.249C150.313 186.415 153.86 185.553 156.518 184.977C164.072 183.355 166.511 183.13 166.534 183.127L166.503 182.74C166.48 182.74 164.026 182.964 156.437 184.595C153.756 185.174 150.224 186.036 146.812 186.871C143.721 187.624 140.796 188.339 138.563 188.83L138.644 189.212Z" fill="#263238"/>
<path d="M138.103 192.389C140.035 191.96 142.89 191.257 145.893 190.511C149.529 189.607 153.288 188.676 156.151 188.058C163.493 186.481 166.255 186.222 166.282 186.222L166.248 185.836C166.221 185.836 163.443 186.099 156.07 187.679C153.203 188.297 149.44 189.225 145.8 190.136C142.798 190.882 139.966 191.585 138.022 192.01L138.103 192.389Z" fill="#263238"/>
<path d="M137.562 195.564C139.232 195.197 141.948 194.513 144.819 193.79C148.52 192.855 152.717 191.797 155.788 191.136C162.913 189.59 166.001 189.316 166.031 189.312L165.997 188.926C165.966 188.926 162.859 189.223 155.707 190.761C152.616 191.422 148.431 192.481 144.726 193.416C141.855 194.138 139.143 194.822 137.477 195.189L137.562 195.564Z" fill="#263238"/>
<path d="M137.021 198.751C138.42 198.445 140.885 197.819 143.706 197.093C147.655 196.081 152.129 194.937 155.421 194.226C162.33 192.742 165.745 192.418 165.776 192.414L165.742 192.027C165.707 192.027 162.264 192.356 155.34 193.847C152.04 194.558 147.562 195.702 143.609 196.714C140.777 197.437 138.331 198.067 136.936 198.372L137.021 198.751Z" fill="#263238"/>
<path d="M136.48 201.92C137.616 201.668 139.892 201.077 142.527 200.393C146.534 199.354 151.519 198.075 155.058 197.302C161.746 195.861 165.49 195.502 165.525 195.502L165.49 195.115C161.954 195.531 158.442 196.134 154.969 196.92C151.422 197.692 146.434 198.979 142.423 200.011C139.792 200.695 137.52 201.286 136.388 201.533L136.48 201.92Z" fill="#263238"/>
<path d="M135.936 205.096C136.828 204.899 138.803 204.378 141.303 203.721C145.344 202.658 150.881 201.202 154.691 200.378C158.185 199.596 161.717 198.998 165.274 198.59L165.236 198.203C161.665 198.615 158.118 199.215 154.61 200C150.792 200.823 145.251 202.283 141.202 203.35C138.71 204.003 136.739 204.509 135.855 204.718L135.936 205.096Z" fill="#263238"/>
<path d="M135.395 208.273C136.055 208.126 137.794 207.663 139.993 207.075C144.305 205.916 150.209 204.347 154.328 203.459C157.858 202.679 161.426 202.085 165.019 201.681L164.984 201.295C161.376 201.699 157.792 202.294 154.247 203.076C150.12 203.969 144.2 205.545 139.892 206.701C137.697 207.284 135.966 207.748 135.313 207.891L135.395 208.273Z" fill="#263238"/>
<path d="M134.854 211.45C135.302 211.349 136.681 210.979 138.59 210.461C142.663 209.356 149.486 207.509 153.961 206.539C157.534 205.764 161.145 205.175 164.78 204.773L164.741 204.387C161.096 204.787 157.474 205.379 153.891 206.16C149.405 207.126 142.578 208.977 138.501 210.082C136.596 210.6 135.221 210.971 134.784 211.067L134.854 211.45Z" fill="#263238"/>
<path d="M134.313 214.625C134.571 214.567 135.568 214.293 137.075 213.879C141.132 212.759 148.667 210.68 153.597 209.629C157.204 208.856 160.849 208.272 164.517 207.879L164.478 207.492C160.796 207.888 157.137 208.477 153.516 209.254C148.594 210.317 141.036 212.399 136.975 213.504C135.526 213.891 134.479 214.192 134.231 214.246L134.313 214.625Z" fill="#263238"/>
<path d="M133.772 217.802C133.872 217.778 134.402 217.632 135.356 217.365C139.058 216.326 147.72 213.887 153.23 212.701C156.869 211.932 160.544 211.35 164.242 210.959L164.208 210.572C160.488 210.968 156.79 211.552 153.13 212.323C147.608 213.517 138.934 215.951 135.232 216.99C134.378 217.23 133.76 217.404 133.667 217.423L133.772 217.802Z" fill="#263238"/>
<path d="M133.242 220.975C133.366 220.94 145.831 217.304 152.867 215.781C158.253 214.622 163.953 214.058 164.01 214.05L163.972 213.664C160.216 214.055 156.483 214.634 152.786 215.399C145.738 216.945 133.258 220.565 133.134 220.6L133.242 220.975Z" fill="#263238"/>
<path d="M171.97 163.5C176.765 161.294 180.139 159.369 182.847 157.824C185.664 156.212 187.893 154.945 190.351 154.149C193.833 153.099 197.429 152.474 201.062 152.287V151.9C197.392 152.088 193.76 152.719 190.243 153.782C187.743 154.59 185.502 155.869 182.662 157.488C179.957 159.033 176.595 160.965 171.816 163.148L171.97 163.5Z" fill="#263238"/>
<path d="M171.711 166.638C176.012 164.659 179.18 162.874 181.727 161.441C184.698 159.768 187.047 158.446 189.802 157.554C195.142 155.819 200.559 155.533 200.976 155.598L201.077 155.212C200.822 155.135 195.281 155.359 189.682 157.175C186.889 158.079 184.528 159.408 181.537 161.093C178.867 162.596 175.838 164.304 171.549 166.278L171.711 166.638Z" fill="#263238"/>
<path d="M171.468 169.774C175.301 168.008 178.133 166.435 180.633 165.044C183.743 163.313 186.201 161.953 189.265 160.949C195.262 158.994 200.613 158.808 200.941 158.905L201.057 158.518C200.594 158.372 195.053 158.638 189.145 160.566C186.054 161.579 183.573 162.95 180.444 164.693C177.951 166.076 175.127 167.649 171.305 169.407L171.468 169.774Z" fill="#263238"/>
<path d="M171.22 172.914C174.613 171.369 177.233 169.916 179.543 168.664C182.634 166.956 185.339 165.484 188.728 164.371C195.049 162.3 200.354 162.053 200.922 162.235L201.038 161.868C200.265 161.62 194.798 161.976 188.608 164.004C185.181 165.125 182.484 166.609 179.358 168.324C177.039 169.591 174.439 171.029 171.062 172.574L171.22 172.914Z" fill="#263238"/>
<path d="M170.977 176.056C173.949 174.688 176.348 173.386 178.466 172.238C181.68 170.492 184.455 168.989 188.195 167.756C194.964 165.53 200.173 165.302 200.903 165.534L201.019 165.167C200.08 164.866 194.539 165.264 188.071 167.389C184.3 168.629 181.503 170.144 178.28 171.898C176.17 173.057 173.775 174.34 170.819 175.704L170.977 176.056Z" fill="#263238"/>
<path d="M170.734 179.193C173.307 178.011 175.39 176.894 177.399 175.812C180.702 174.042 183.558 172.512 187.658 171.175C194.817 168.811 199.949 168.567 200.884 168.857L201 168.49C199.821 168.104 194.311 168.563 187.538 170.808C183.403 172.172 180.397 173.784 177.217 175.488C175.212 176.566 173.133 177.678 170.571 178.857L170.734 179.193Z" fill="#263238"/>
<path d="M170.49 182.331C172.689 181.322 174.551 180.333 176.348 179.379C179.582 177.667 182.634 176.048 187.12 174.56C194.489 172.122 199.709 171.794 200.864 172.165L200.98 171.778C199.597 171.338 194.195 171.778 187.001 174.178C182.484 175.677 179.416 177.3 176.182 179.023C174.385 179.974 172.527 180.955 170.34 181.963L170.49 182.331Z" fill="#263238"/>
<path d="M170.247 185.473C172.094 184.623 173.724 183.762 175.32 182.931C178.597 181.211 181.696 179.589 186.587 177.966C194.45 175.35 199.504 175.052 200.845 175.477L200.961 175.11C199.226 174.558 193.554 175.242 186.464 177.599C181.541 179.233 178.288 180.941 175.139 182.591C173.558 183.418 171.924 184.275 170.085 185.122L170.247 185.473Z" fill="#263238"/>
<path d="M170.003 188.612C171.526 187.912 172.878 187.209 174.312 186.467C178.068 184.428 181.996 182.721 186.05 181.367C193.724 178.809 199.091 178.241 200.826 178.793L200.942 178.426C199.087 177.835 193.728 178.403 185.927 181C181.854 182.361 177.908 184.076 174.134 186.123C172.704 186.865 171.356 187.564 169.841 188.26L170.003 188.612Z" fill="#263238"/>
<path d="M169.76 191.746C170.981 191.186 172.121 190.587 173.33 189.981C177.23 187.902 181.299 186.158 185.494 184.768C194.014 181.92 199.056 181.557 200.787 182.106L200.903 181.739C199.033 181.144 193.971 181.53 185.37 184.401C181.15 185.796 177.057 187.548 173.133 189.637C171.932 190.255 170.792 190.838 169.579 191.399L169.76 191.746Z" fill="#263238"/>
<path d="M169.517 194.89C170.463 194.453 171.395 193.978 172.384 193.48C176.429 191.368 180.64 189.593 184.976 188.171C195.729 184.573 199.616 185.049 200.787 185.423L200.903 185.037C198.353 184.229 192.503 185.23 184.856 187.788C180.501 189.213 176.271 190.997 172.21 193.12C171.225 193.619 170.297 194.09 169.354 194.523L169.517 194.89Z" fill="#263238"/>
<path d="M169.266 198.026C169.969 197.701 170.699 197.334 171.472 196.948C175.643 194.813 179.978 193.014 184.435 191.569C194.589 188.165 198.917 188.15 200.76 188.737L200.876 188.35C198.171 187.485 192.426 188.466 184.311 191.19C179.837 192.646 175.485 194.455 171.298 196.6C170.525 196.986 169.799 197.349 169.103 197.67L169.266 198.026Z" fill="#263238"/>
<path d="M169.03 201.167C169.517 200.939 170.03 200.684 170.625 200.394C172.99 199.235 176.564 197.446 183.906 194.985C192.306 192.161 197.97 191.179 200.748 192.06L200.864 191.693C197.97 190.773 192.383 191.728 183.782 194.618C176.417 197.095 172.828 198.868 170.455 200.054C169.86 200.348 169.35 200.603 168.867 200.827L169.03 201.167Z" fill="#263238"/>
<path d="M168.786 204.303C169.092 204.16 169.436 203.994 169.837 203.797C171.928 202.769 175.428 201.05 183.361 198.388C192.248 195.397 197.769 194.439 200.721 195.378L200.837 194.991C197.804 194.025 192.213 194.991 183.237 198.005C175.274 200.687 171.758 202.414 169.66 203.445C169.273 203.643 168.918 203.809 168.616 203.948L168.786 204.303Z" fill="#263238"/>
<path d="M168.543 207.442L169.13 207.16C170.676 206.418 174.234 204.676 182.832 201.778C192.229 198.609 197.576 197.682 200.706 198.687L200.826 198.319C197.607 197.296 192.19 198.223 182.708 201.411C174.088 204.32 170.494 206.067 168.96 206.82C168.728 206.936 168.539 207.029 168.381 207.098L168.543 207.442Z" fill="#263238"/>
<path d="M168.299 210.582L168.524 210.474C171.468 209.052 176.101 207.271 182.298 205.177C192.086 201.873 197.414 200.95 200.687 201.993L200.806 201.606C197.398 200.525 192.174 201.417 182.175 204.798C175.962 206.896 171.313 208.681 168.357 210.111L168.137 210.215L168.299 210.582Z" fill="#263238"/>
<path d="M168.06 213.718C168.091 213.718 171.298 212.123 181.761 208.583C192.078 205.106 197.217 204.205 200.667 205.307L200.787 204.94C197.232 203.807 192.043 204.696 181.638 208.216C171.139 211.767 167.917 213.359 167.886 213.374L168.06 213.718Z" fill="#263238"/>
<path d="M205.822 144.295L203.99 218.582C203.99 218.582 209.481 207.296 224.125 207.763C238.769 208.231 271.106 219.509 276.287 220.576C281.469 221.642 289.413 222.709 289.413 222.709L280.719 151.779C280.719 151.779 242.293 144.755 234.179 142.313C226.065 139.871 219.075 137.29 213.89 138.499C208.704 139.709 205.822 140.636 205.822 144.295Z" fill="white"/>
<path d="M289.633 222.925L289.602 222.678L280.893 151.613L280.754 151.586C280.368 151.516 242.231 144.546 234.248 142.135C233.202 141.818 232.172 141.502 231.157 141.188C224.322 139.071 218.406 137.243 213.855 138.317C208.751 139.519 205.621 140.45 205.621 144.299L203.766 219.471L204.152 218.675C204.207 218.563 209.767 207.5 224.109 207.952C234.867 208.288 255.164 214.475 267.292 218.168C271.689 219.509 274.869 220.487 276.245 220.761C281.376 221.82 289.297 222.89 289.382 222.902L289.633 222.925ZM280.545 151.934L289.189 222.477C287.806 222.283 280.94 221.317 276.334 220.375C274.974 220.096 271.639 219.08 267.416 217.794C255.268 214.092 234.959 207.898 224.14 207.558C211.648 207.172 205.702 215.367 204.21 217.817L206.023 144.295C206.023 140.728 208.89 139.878 213.955 138.688C218.422 137.637 224.276 139.461 231.057 141.551C232.069 141.86 233.097 142.181 234.148 142.498C241.907 144.84 277.988 151.466 280.545 151.934Z" fill="#263238"/>
<path d="M243.211 153.91L271.819 160.332L271.734 160.711L243.126 154.289L243.211 153.91Z" fill="#263238"/>
<path d="M272.621 163.688L272.706 163.302C266.45 161.891 254.545 159.198 254.209 159.094C253.823 158.97 244.372 156.868 243.97 156.775L243.889 157.162C247.285 157.935 253.792 159.376 254.093 159.48C254.518 159.608 271.883 163.522 272.621 163.688Z" fill="#263238"/>
<path d="M272.934 166.864L273.019 166.477C272.841 166.435 255.194 162.413 254.371 162.154C253.548 161.895 244.434 159.874 244.043 159.785L243.958 160.172C244.055 160.172 253.494 162.289 254.256 162.529C255.094 162.818 272.203 166.682 272.934 166.864Z" fill="#263238"/>
<path d="M273.243 170.04L273.332 169.653C273.158 169.615 255.774 165.604 254.53 165.214C253.371 164.851 244.484 162.876 244.117 162.795L244.032 163.181C244.124 163.204 253.274 165.233 254.414 165.592C255.67 165.986 272.528 169.877 273.243 170.04Z" fill="#263238"/>
<path d="M273.556 173.219L273.645 172.833C273.471 172.794 256.35 168.795 254.692 168.274C253.147 167.791 244.553 165.886 244.186 165.805L244.105 166.191C244.194 166.191 253.054 168.173 254.576 168.652C256.249 169.178 272.852 173.053 273.556 173.219Z" fill="#263238"/>
<path d="M273.869 176.391L273.958 176.005C273.788 175.966 256.925 171.983 254.851 171.33C252.919 170.727 244.611 168.888 244.26 168.811L244.175 169.197C244.264 169.216 252.83 171.129 254.735 171.708C256.825 172.365 273.173 176.229 273.869 176.391Z" fill="#263238"/>
<path d="M274.182 179.573L274.271 179.187C274.104 179.148 257.505 175.18 255.013 174.396C252.695 173.669 244.414 171.842 244.333 171.822L244.248 172.209C244.333 172.228 252.61 174.052 254.897 174.77C257.401 175.57 274.015 179.531 274.182 179.573Z" fill="#263238"/>
<path d="M274.495 182.749L274.583 182.363C274.421 182.324 258.081 178.367 255.175 177.456C252.47 176.609 244.484 174.847 244.403 174.832L244.322 175.218C244.403 175.238 252.385 176.996 255.059 177.834C257.977 178.75 274.328 182.707 274.495 182.749Z" fill="#263238"/>
<path d="M274.808 185.925L274.896 185.539C274.738 185.496 258.668 181.555 255.334 180.516C252.266 179.55 244.553 177.857 244.476 177.838L244.391 178.224C244.472 178.224 252.165 179.932 255.21 180.89C258.556 181.937 274.645 185.886 274.808 185.925Z" fill="#263238"/>
<path d="M275.117 189.093L275.213 188.707C275.051 188.668 259.236 184.738 255.508 183.56C252.053 182.474 244.635 180.855 244.561 180.836L244.476 181.222C244.55 181.222 251.953 182.857 255.392 183.927C259.132 185.129 274.958 189.062 275.117 189.093Z" fill="#263238"/>
<path d="M275.43 192.277L275.526 191.89C275.368 191.852 259.816 187.934 255.654 186.628C251.821 185.422 244.693 183.865 244.619 183.85L244.538 184.236C244.608 184.236 251.721 185.805 255.542 187.003C259.708 188.32 275.275 192.238 275.43 192.277Z" fill="#263238"/>
<path d="M275.743 195.453L275.839 195.066C275.685 195.028 260.384 191.125 255.817 189.688C251.597 188.362 244.762 186.875 244.693 186.859L244.611 187.246C244.677 187.246 251.501 188.741 255.701 190.063C260.287 191.508 275.588 195.414 275.743 195.453Z" fill="#263238"/>
<path d="M276.056 198.629L276.152 198.242C276.002 198.204 260.967 194.316 255.979 192.748C251.377 191.299 244.828 189.881 244.774 189.865L244.693 190.252C244.758 190.252 251.288 191.681 255.875 193.122C260.863 194.699 275.909 198.59 276.056 198.629Z" fill="#263238"/>
<path d="M276.369 201.806L276.465 201.42C276.319 201.381 261.547 197.506 256.137 195.81C251.153 194.241 244.897 192.889 244.836 192.877L244.754 193.263C244.816 193.263 251.056 194.623 256.021 196.184C261.439 197.888 276.218 201.768 276.369 201.806Z" fill="#263238"/>
<path d="M276.682 204.98L276.782 204.594C276.635 204.551 262.126 200.691 256.303 198.86C250.936 197.175 244.971 195.892 244.913 195.877L244.831 196.263C244.889 196.263 250.836 197.554 256.187 199.239C261.999 201.07 276.535 204.934 276.682 204.98Z" fill="#263238"/>
<path d="M276.991 208.156L277.091 207.77C276.948 207.731 262.702 203.883 256.462 201.92C250.709 200.112 245.036 198.898 244.979 198.887L244.901 199.273C244.955 199.273 250.612 200.494 256.346 202.295C262.594 204.269 276.848 208.118 276.991 208.156Z" fill="#263238"/>
<path d="M277.304 211.334L277.404 210.948C277.265 210.909 263.278 207.084 256.62 204.982C250.488 203.05 245.106 201.891 245.052 201.891L244.971 202.277C245.025 202.277 250.38 203.436 256.505 205.368C263.158 207.458 277.165 211.295 277.304 211.334Z" fill="#263238"/>
<path d="M239.754 153.001L239.874 152.614C238.785 152.266 213.144 144.152 209.253 148.43L209.539 148.692C213.264 144.612 239.492 152.916 239.754 153.001Z" fill="#263238"/>
<path d="M239.839 156.079L239.959 155.712C239.866 155.681 230.837 152.784 222.804 151.273C219.396 150.639 211.251 149.403 209.241 151.613L209.527 151.876C210.829 150.438 215.767 150.357 222.734 151.651C230.74 153.158 239.751 156.049 239.839 156.079Z" fill="#263238"/>
<path d="M239.924 159.159L240.04 158.792C239.951 158.761 230.767 155.782 222.834 154.313C215.961 153.069 210.617 153.251 209.23 154.777L209.516 155.04C210.795 153.629 216.123 153.494 222.765 154.696C230.663 156.156 239.832 159.128 239.924 159.159Z" fill="#263238"/>
<path d="M240.006 162.238L240.129 161.871C240.033 161.84 230.686 158.76 222.869 157.358C216.335 156.199 210.594 156.43 209.218 157.941L209.504 158.204C210.775 156.805 216.49 156.604 222.8 157.736C230.589 159.135 239.913 162.207 240.006 162.238Z" fill="#263238"/>
<path d="M240.091 165.317L240.21 164.931C240.118 164.9 230.609 161.735 222.9 160.379C216.591 159.27 210.574 159.579 209.207 161.086L209.493 161.349C210.598 160.132 216.011 159.56 222.835 160.758C230.512 162.129 239.975 165.286 240.091 165.317Z" fill="#263238"/>
<path d="M240.172 168.402L240.295 168.035C240.199 168 230.531 164.751 222.931 163.441C216.216 162.282 210.408 162.939 209.191 164.272L209.481 164.534C210.447 163.468 215.771 162.602 222.865 163.823C230.435 165.137 240.075 168.367 240.172 168.402Z" fill="#263238"/>
<path d="M240.257 171.482L240.38 171.115C240.284 171.08 230.454 167.746 222.962 166.478C215.752 165.269 210.223 166.297 209.179 167.456L209.465 167.719C210.343 166.753 215.582 165.651 222.9 166.884C230.357 168.12 240.16 171.447 240.257 171.482Z" fill="#263238"/>
<path d="M240.342 174.561L240.465 174.194C240.365 174.159 230.373 170.744 222.997 169.527C215.621 168.309 210.095 169.584 209.168 170.601L209.454 170.863C210.308 169.924 215.837 168.738 222.931 169.905C230.28 171.118 240.241 174.526 240.342 174.561Z" fill="#263238"/>
<path d="M240.423 177.64L240.551 177.277C240.45 177.238 230.296 173.742 223.028 172.567C215.818 171.408 210.084 172.749 209.156 173.765L209.45 174.024C210.223 173.174 215.756 171.779 222.974 172.946C230.191 174.113 240.323 177.606 240.423 177.64Z" fill="#263238"/>
<path d="M240.508 180.719L240.635 180.356C240.531 180.318 230.203 176.74 223.059 175.607C215.717 174.448 209.983 175.994 209.149 176.929L209.435 177.192C210.053 176.512 215.493 174.804 223.005 175.99C230.122 177.114 240.404 180.685 240.508 180.719Z" fill="#263238"/>
<path d="M240.593 183.798L240.72 183.435C240.616 183.396 230.141 179.737 223.09 178.652C215.458 177.473 209.802 179.359 209.133 180.093L209.419 180.356C209.883 179.846 215.114 177.809 223.032 179.03C230.045 180.116 240.489 183.764 240.593 183.798Z" fill="#263238"/>
<path d="M240.678 186.883L240.805 186.516C240.697 186.477 230.06 182.741 223.124 181.694C215.076 180.477 209.62 182.71 209.122 183.24L209.407 183.502C209.821 183.042 215.203 180.871 223.066 182.057C229.967 183.116 240.57 186.845 240.678 186.883Z" fill="#263238"/>
<path d="M240.747 189.963L240.879 189.596C240.77 189.561 229.971 185.732 223.143 184.735C215.153 183.576 209.543 185.933 209.098 186.423L209.384 186.686C209.628 186.416 214.855 183.904 223.085 185.117C229.89 186.118 240.651 189.924 240.747 189.963Z" fill="#263238"/>
<path d="M240.844 193.041L240.976 192.678C240.864 192.636 229.906 188.745 223.202 187.775C215.234 186.616 209.57 189.085 209.114 189.587L209.4 189.85C209.713 189.537 215.057 186.994 223.148 188.158C229.809 189.12 240.748 193.003 240.844 193.041Z" fill="#263238"/>
<path d="M240.929 196.122L241.056 195.759C240.948 195.72 229.824 191.76 223.221 190.821C214.867 189.661 209.349 192.463 209.087 192.753L209.369 193.015C209.805 192.629 215.222 190.102 223.167 191.203C229.731 192.138 240.817 196.083 240.929 196.122Z" fill="#263238"/>
<path d="M241.01 199.201L241.141 198.838C241.029 198.799 229.747 194.758 223.252 193.861C214.921 192.729 209.342 195.619 209.071 195.917L209.357 196.18C209.384 196.18 214.681 193.088 223.197 194.248C229.654 195.132 240.898 199.163 241.01 199.201Z" fill="#263238"/>
<path d="M241.095 202.281L241.226 201.918C241.11 201.875 229.666 197.757 223.282 196.895C214.654 195.736 209.156 199.008 209.102 199.039L209.303 199.372C209.357 199.337 214.743 196.149 223.232 197.281C229.573 198.131 240.983 202.231 241.095 202.281Z" fill="#263238"/>
<path d="M174.366 225.771C174.366 225.771 175.564 225.474 177.426 225.084L177.345 224.697C175.475 225.084 174.281 225.385 174.254 225.389L174.366 225.771Z" fill="#263238"/>
<path d="M178.813 224.802C180.444 224.481 181.8 223.314 183.233 222.097C185.042 220.552 186.912 218.925 189.539 218.848C194.699 218.751 199.832 219.606 204.682 221.371L204.833 221.429L204.918 221.29C205.509 220.388 206.161 219.527 206.869 218.712L206.579 218.461C205.892 219.251 205.256 220.083 204.674 220.953C199.816 219.219 194.685 218.374 189.528 218.461C186.765 218.542 184.841 220.2 182.978 221.803C181.587 223.001 180.274 224.122 178.728 224.439L178.813 224.802Z" fill="#263238"/>
<path d="M207.877 217.593C208.834 216.594 209.868 215.67 210.968 214.831L210.736 214.525C209.621 215.375 208.574 216.311 207.607 217.327L207.877 217.593Z" fill="#263238"/>
<path d="M210.961 214.829C212.516 213.633 214.235 212.667 216.065 211.959C224.009 208.945 232.85 211.209 233.839 211.476L233.939 211.089C232.946 210.819 223.994 208.527 215.933 211.588C214.07 212.308 212.32 213.293 210.737 214.513L210.961 214.829Z" fill="#263238"/>
<path d="M256.342 216.977L256.427 216.591C256.211 216.541 234.704 211.738 225.516 211.954C221.934 212.006 218.383 212.636 215.002 213.821L215.134 214.184C218.48 213.012 221.994 212.392 225.539 212.348C234.677 212.136 256.126 216.931 256.342 216.977Z" fill="#263238"/>
<path d="M211.652 215.851C212.218 215.481 212.814 215.16 213.434 214.889L213.275 214.537C212.637 214.821 212.021 215.153 211.432 215.53L211.652 215.851Z" fill="#263238"/>
<path d="M212.925 221.772L271.311 224.566L271.293 224.952L212.906 222.158L212.925 221.772Z" fill="#263238"/>
<path d="M207.432 221.502L210.62 221.654L210.601 222.04L207.413 221.888L207.432 221.502Z" fill="#263238"/>
<path d="M253.084 227.228L256.487 227.314L256.477 227.701L253.074 227.615L253.084 227.228Z" fill="#263238"/>
<path d="M258.438 227.368L285.43 228.051L285.421 228.437L258.428 227.754L258.438 227.368Z" fill="#263238"/>
<path d="M215.867 229.41L218.866 229.5L218.854 229.886L215.856 229.796L215.867 229.41Z" fill="#263238"/>
<path d="M221.277 229.566L259.298 230.707L259.286 231.093L221.265 229.953L221.277 229.566Z" fill="#263238"/>
<path d="M231.589 226.124L239.552 226.396L239.539 226.783L231.576 226.51L231.589 226.124Z" fill="#263238"/>
<path d="M209.659 225.375L229.407 226.051L229.394 226.437L209.645 225.761L209.659 225.375Z" fill="#263238"/>
<path d="M265.754 230.491L268.508 230.566L268.497 230.953L265.743 230.877L265.754 230.491Z" fill="#263238"/>
<path d="M270.226 230.614L295.85 231.316L295.839 231.703L270.216 231L270.226 230.614Z" fill="#263238"/>
</svg>
