<svg width="353" height="452" viewBox="0 0 353 452" fill="none" xmlns="http://www.w3.org/2000/svg">
<path d="M256.457 221.593C260.217 221.593 323.527 222.014 327.508 221.881C327.796 221.881 327.944 221.452 327.663 221.312C325.152 220.071 322.308 220.322 319.7 219.443C318.171 218.926 317.226 217.922 316.162 216.777C315.28 215.773 314.141 215.028 312.868 214.62C311.702 214.27 310.464 214.232 309.278 214.509C308.042 214.926 306.833 215.419 305.659 215.987C302.615 217.131 299.661 216.046 297.489 213.771C295.694 211.917 293.936 210.166 291.499 209.169C290.505 208.718 289.43 208.478 288.339 208.463C287.249 208.447 286.167 208.658 285.161 209.08C282.834 210.129 281.246 212.249 279.06 213.512C276.475 214.989 273.387 214.664 270.529 215.122C267.67 215.58 265.476 217.981 262.972 219.37C262.158 219.894 261.215 220.185 260.247 220.212C259.685 220.212 259.131 220.049 258.585 219.983C258.185 219.871 257.762 219.871 257.362 219.983C256.962 220.095 256.601 220.314 256.317 220.618C256.177 220.854 256.206 221.593 256.457 221.593Z" fill="#F2F3F7"/>
<path d="M252.528 223.528C252.528 223.528 216.452 303.649 275.337 303.701C334.222 303.752 296.145 220.847 296.145 220.847C296.145 220.847 309.788 214.864 294.025 170.138C278.262 125.413 271.193 125.406 264.634 125.398C256.339 125.398 248.591 144.736 254.227 174.452C254.219 174.452 233.456 211.51 252.528 223.528Z" fill="#1C7D50"/>
<path d="M280.5 393.786L274.96 236.114L269.155 393.779L280.5 393.786Z" fill="#806A6A"/>
<path d="M277.213 286.734L255.844 261.716L272.597 290.036L277.213 286.734Z" fill="#806A6A"/>
<path d="M169.533 258.303C169.533 258.303 143.03 317.505 186.522 317.454C230.014 317.402 201.753 256.257 201.753 256.257C201.753 256.257 211.806 251.825 200.098 218.822C188.391 185.819 183.161 185.834 178.308 185.834C172.185 185.834 166.49 200.142 170.7 222.072C170.7 222.072 155.44 249.461 169.533 258.303Z" fill="#1C7D50"/>
<path d="M190.407 393.624L186.116 267.559L182.024 393.638L190.407 393.624Z" fill="#806A6A"/>
<path d="M187.859 304.934L172.045 286.49L184.461 307.379L187.859 304.934Z" fill="#806A6A"/>
<path d="M230.479 239.387C230.479 239.387 246.22 233.16 258.688 254.899C271.467 277.198 255.401 291.868 242.667 283.108C242.667 283.108 232.651 304.078 212.678 299.062C192.705 294.047 189.469 278.055 189.469 278.055C189.469 278.055 171.742 279.289 171.247 266.045C170.752 252.801 183.767 241.079 183.767 241.079C183.767 241.079 184.55 208.105 206.03 208.379C227.51 208.652 230.479 239.387 230.479 239.387Z" fill="#218F5D"/>
<path d="M233.193 224.724C233.193 224.724 250.248 217.952 263.758 241.593C277.603 265.845 254.299 251.12 240.501 241.593C240.501 241.593 237.859 244.395 216.218 238.94C194.577 233.486 195.082 241.593 195.082 241.593C195.082 241.593 169.551 268.118 169.015 253.715C168.479 239.312 182.58 226.564 182.58 226.564C182.58 226.564 183.429 190.705 206.702 191.002C229.976 191.299 233.193 224.724 233.193 224.724Z" fill="white"/>
<path d="M215.736 393.151L211.348 258.104L206.746 393.143L215.736 393.151Z" fill="#806A6A"/>
<path d="M212.7 294.866L226.461 267.47L209.982 290.634L212.7 294.866Z" fill="#806A6A"/>
<path d="M62.6803 208.755C62.6803 208.755 42.7368 200.859 26.9371 228.41C10.7386 256.664 31.1031 275.248 47.2278 264.154C47.2278 264.154 59.9178 290.745 85.2312 284.37C110.545 277.996 114.637 257.779 114.637 257.779C114.637 257.779 137.106 259.338 137.72 242.563C138.333 225.788 121.861 210.934 121.861 210.934C121.861 210.934 120.864 169.156 93.6518 169.503C66.44 169.85 62.6803 208.755 62.6803 208.755Z" fill="#218F5D"/>
<path d="M81.3533 393.705L86.9154 232.458L92.7433 393.698L81.3533 393.705Z" fill="#806A6A"/>
<path d="M85.2682 279.178L67.7622 244.328L88.1415 273.734L85.2682 279.178Z" fill="#806A6A"/>
<path d="M287.266 261.827C287.266 261.827 274.466 256.767 264.331 274.443C253.939 292.577 267.005 304.498 277.354 297.341C277.354 297.341 285.479 314.389 301.729 310.312C317.979 306.234 320.602 293.308 320.602 293.308C320.602 293.308 335.02 294.305 335.411 283.543C335.803 272.781 325.24 263.245 325.24 263.245C325.24 263.245 324.598 236.439 307.136 236.654C289.674 236.868 287.266 261.827 287.266 261.827Z" fill="#218F5D"/>
<path d="M299.247 393.742L302.815 277.043L306.56 393.727L299.247 393.742Z" fill="#806A6A"/>
<path d="M301.759 307.017L290.524 284.658L303.605 303.523L301.759 307.017Z" fill="#806A6A"/>
<path d="M135.452 393.764H30.5639C29.2645 392.016 28.2659 390.064 27.6093 387.988C26.7229 384.797 27.5428 380.557 30.8815 379.124C33.0236 378.186 35.3134 378.969 37.5293 379.02C37.8654 379.077 38.2106 379.037 38.5254 378.907C38.8401 378.776 39.1119 378.559 39.3094 378.282C39.5519 377.829 39.6101 377.299 39.4719 376.804C39.1913 375.667 38.0981 374.936 37.1895 374.315C37.1546 374.294 37.1247 374.266 37.1022 374.232C37.0797 374.198 37.0651 374.159 37.0594 374.119C37.0538 374.078 37.0572 374.037 37.0695 373.998C37.0818 373.96 37.1026 373.924 37.1304 373.894C38.0732 373.102 39.2575 372.654 40.4886 372.625C41.7197 372.595 42.9242 372.986 43.9038 373.732C45.0414 372.513 44.5465 370.674 43.8004 369.344C43.0544 368.015 41.6953 366.84 40.772 365.496C39.9743 364.465 39.6111 363.164 39.76 361.869C40.0716 360.545 40.8606 359.383 41.976 358.604C43.7709 357.171 46.8732 355.554 48.9931 357.26C51.2977 359.114 49.8278 362.585 51.3346 364.853C51.5158 365.187 51.7711 365.476 52.081 365.696C52.3908 365.916 52.747 366.062 53.1222 366.124C53.4636 366.101 53.7936 365.992 54.0807 365.806C54.3678 365.619 54.6023 365.363 54.762 365.06C55.3012 364.321 55.737 363.376 56.6529 363.058C56.4018 360.731 55.8035 358.464 55.5819 356.137C55.2569 352.776 56.0103 348.426 59.5262 346.993C60.2069 346.7 60.9414 346.555 61.682 346.565C62.4226 346.575 63.1528 346.741 63.8252 347.052C64.5075 347.428 65.0744 347.983 65.4649 348.657C65.8554 349.331 66.0546 350.099 66.0411 350.878C66.1298 352.865 65.4576 354.822 65.694 356.787C65.8417 357.999 66.4326 359.284 67.9099 359.003C68.8963 358.702 69.8094 358.199 70.5912 357.526C71.6622 356.787 73.5458 355.96 74.639 357.06C75.3038 357.71 75.2077 358.737 75.7839 359.431C76.1034 359.738 76.4851 359.973 76.903 360.119C77.321 360.266 77.7656 360.321 78.2067 360.281C79.9646 360.281 81.6561 359.882 83.4215 360.03C85.0958 360.147 86.7243 360.629 88.1932 361.441C89.6095 362.247 90.7381 363.477 91.4211 364.957C92.012 366.234 93.0387 369.204 94.9518 367.911C95.6958 367.242 96.2942 366.428 96.7098 365.518C97.2047 364.691 97.6996 363.856 98.2462 363.058C99.1971 361.54 100.499 360.274 102.043 359.365C103.615 358.541 105.427 358.297 107.161 358.675C108.895 359.053 110.441 360.03 111.527 361.433C112.583 362.873 113.105 364.636 113.004 366.419C112.886 368.487 111.483 370.231 111.394 372.284C111.336 372.775 111.408 373.273 111.604 373.727C111.8 374.181 112.112 374.575 112.509 374.869C113.588 375.512 114.917 374.928 116.025 374.677C117.133 374.426 119.076 374.552 119.578 375.903C119.667 376.202 119.679 376.519 119.613 376.823C119.548 377.128 119.406 377.411 119.202 377.647C118.965 377.964 118.677 378.245 118.463 378.585C118.182 379.065 118.234 379.279 118.677 379.567C119.977 380.446 121.743 380.136 123.227 380.306C131.973 381.089 135.06 391.348 135.452 393.764Z" fill="#9CD2B6"/>
<g opacity="0.2">
<path d="M61.3212 376.672C60.0286 382.463 58.7729 388.158 60.2797 393.764H59.0757C58.6325 392.649 58.2041 391.549 57.7683 390.396C53.4546 388.387 48.8085 390.005 44.2585 389.443C40.7056 389.008 36.9163 387.279 34.656 384.428C34.6396 384.391 34.6346 384.351 34.6415 384.312C34.6484 384.272 34.6671 384.236 34.6949 384.207C34.7228 384.178 34.7586 384.159 34.7978 384.151C34.837 384.143 34.8776 384.147 34.9146 384.162C36.8056 385.728 38.9519 386.957 41.2595 387.796C40.7794 387.227 40.3141 386.637 39.7822 386.105C39.0436 385.322 38.172 384.664 37.3447 383.948C37.3004 383.911 37.3447 383.837 37.4112 383.867C38.3353 384.46 39.1988 385.143 39.9891 385.905C40.7332 386.542 41.4091 387.255 42.0056 388.033C43.5101 388.47 45.0702 388.686 46.6369 388.675C50.212 388.675 54.2154 387.87 57.4507 389.687C57.1774 389.008 56.8967 388.328 56.5939 387.663C55.3273 384.845 53.8457 382.129 52.162 379.538C50.4359 377.023 48.9214 374.37 47.6341 371.605C46.5305 368.882 45.8024 366.022 45.4698 363.103C45.4698 362.955 45.6767 362.882 45.7062 363.037C46.6295 368.17 49.1188 372.587 51.8222 376.923C50.9875 374.419 50.3449 371.864 49.2517 369.419C49.1779 369.241 49.429 369.086 49.5176 369.263C50.9949 372.218 52.5387 375.476 52.9893 378.77L53.5359 379.642C55.4789 382.709 57.1261 385.954 58.4553 389.333C58.2706 385.728 59.0388 381.946 59.7701 378.637C60.7086 374.944 61.2899 371.169 61.5059 367.365C61.5059 367.025 61.5059 366.693 61.5059 366.353C59.3967 361.975 58.5184 357.106 58.9649 352.267C58.9649 352.203 58.9906 352.141 59.0363 352.095C59.082 352.049 59.144 352.023 59.2087 352.023C59.2733 352.023 59.3353 352.049 59.3811 352.095C59.4268 352.141 59.4525 352.203 59.4525 352.267C59.4081 354.892 59.6009 357.515 60.0286 360.104C60.3892 361.829 60.8831 363.523 61.5059 365.171C61.3888 362.134 61.1176 359.104 60.6934 356.093C60.6564 355.835 61.0627 355.798 61.1292 356.027C63.0497 362.852 62.8355 369.81 61.3212 376.672Z" fill="black"/>
<path d="M84.633 368.865C83.8302 370.456 82.9324 371.998 81.9444 373.481C81.71 374.744 81.3538 375.981 80.8807 377.174C80.2378 378.785 79.2954 380.259 78.1034 381.518C76.6261 383.039 75.2153 384.362 74.7942 386.4C76.0208 388.68 76.7295 391.202 76.8699 393.787H76.0056C75.267 389.089 72.8811 385.255 70.7317 380.978C68.8481 377.226 67.2748 372.336 69.151 368.274C69.2618 368.037 69.6089 368.207 69.5498 368.436C68.272 373.865 70.5544 378.423 73.088 383.098C73.4795 383.837 73.8783 384.576 74.2698 385.314C74.5132 384.373 74.9622 383.498 75.5846 382.751C76.8698 381.134 78.3841 379.797 79.3591 377.957C81.5159 373.858 81.1688 369.426 81.7745 364.994C81.7745 364.75 82.1364 364.854 82.1586 365.046C82.4799 367.428 82.4799 369.843 82.1586 372.226C82.7672 370.983 83.4685 369.788 84.2563 368.65C84.2901 368.613 84.3358 368.587 84.3858 368.579C84.4359 368.571 84.4872 368.58 84.5313 368.605C84.5754 368.63 84.6095 368.67 84.628 368.717C84.6465 368.764 84.6483 368.816 84.633 368.865Z" fill="black"/>
<path d="M107.044 365.984C106.626 368.284 105.664 370.449 104.237 372.3C103.144 373.733 101.445 374.649 100.374 376.082C99.465 377.987 98.4309 379.827 97.419 381.658C96.407 383.49 94.2945 386.231 95.2621 388.565C95.2721 388.588 95.2762 388.613 95.2739 388.638C95.2716 388.662 95.263 388.686 95.249 388.707C95.235 388.728 95.216 388.744 95.1937 388.756C95.1715 388.767 95.1467 388.772 95.1218 388.772C96.2958 390.183 96.941 391.959 96.9463 393.794H96.4366C95.8678 387.006 86.2137 385.204 86.0955 378.194C86.0955 377.869 86.6052 377.795 86.6643 378.12C87.4029 381.924 90.3575 384.029 93.0314 386.533C93.5947 387.054 94.1274 387.606 94.6269 388.188C93.9547 386.777 94.4422 385.233 95.1144 383.823C96.1781 381.607 97.4929 379.502 98.6378 377.323C99.8766 375.065 100.912 372.702 101.733 370.261C102.436 367.767 102.774 365.185 102.737 362.594C102.739 362.561 102.752 362.53 102.774 362.506C102.796 362.482 102.826 362.467 102.859 362.462C102.891 362.458 102.924 362.465 102.952 362.482C102.979 362.499 103 362.526 103.011 362.557C103.912 366.339 102.693 370.682 101.201 374.228C101.762 373.703 102.361 373.208 102.863 372.654C104.643 370.682 105.559 368.267 106.556 365.844C106.587 365.797 106.633 365.761 106.686 365.741C106.739 365.722 106.797 365.72 106.851 365.735C106.906 365.751 106.954 365.784 106.988 365.828C107.023 365.873 107.042 365.928 107.044 365.984Z" fill="black"/>
<path d="M126.507 386.378C124.217 386.71 121.994 387.249 119.66 387.375C117.283 387.502 114.899 387.38 112.547 387.013C109.644 386.57 106.719 385.89 103.845 386.193C104.718 385.806 105.567 385.367 106.386 384.878C109.262 383.146 111.509 380.54 112.798 377.44C112.908 377.137 112.48 377.019 112.318 377.24C110.981 378.984 109.88 380.764 108.225 382.248C106.386 383.896 104.259 384.856 102.08 385.942C100.424 386.673 98.9583 387.775 97.7957 389.162C97.5003 389.554 96.0599 391.555 96.9389 391.984C96.9604 391.999 96.9862 392.008 97.0128 392.008C97.0393 392.008 97.0652 391.999 97.0866 391.984L97.1383 391.925C97.1753 391.88 97.1383 391.799 97.1383 391.792C96.9463 391.792 98.6673 389.376 98.6969 389.354C99.3469 388.715 100.074 388.159 100.861 387.7C101.253 387.463 101.666 387.249 102.08 387.05C106.002 386.311 110.013 387.722 113.898 388.187C117.983 388.682 122.843 388.63 126.699 387.028C126.785 387.002 126.858 386.943 126.901 386.864C126.944 386.785 126.953 386.693 126.928 386.607C126.903 386.52 126.844 386.448 126.765 386.405C126.686 386.362 126.593 386.352 126.507 386.378Z" fill="black"/>
<path d="M75.4442 391.704C74.2845 390.02 72.3936 389.074 70.7095 388.01C68.3834 386.704 66.6193 384.588 65.7531 382.064C65.6793 381.835 65.2656 381.85 65.3026 382.131C65.9526 387.471 71.4777 389.008 75.097 391.962C75.2743 392.117 75.5919 391.925 75.4442 391.704Z" fill="black"/>
<path d="M51.4603 388.336C50.633 386.297 48.6608 384.857 47.0284 383.446C46.1016 382.673 45.2597 381.804 44.517 380.853C43.6052 379.452 42.9058 377.924 42.4414 376.318C42.4306 376.28 42.4051 376.247 42.3705 376.228C42.3359 376.209 42.2949 376.204 42.2567 376.215C42.2185 376.225 42.1862 376.251 42.1668 376.286C42.1474 376.32 42.1426 376.361 42.1533 376.399C42.6181 378.938 43.8115 381.286 45.588 383.158C47.4273 384.99 49.4438 386.526 51.1944 388.469C51.3126 388.594 51.512 388.469 51.4603 388.336Z" fill="black"/>
</g>
<g opacity="0.1">
<path d="M56.4239 368.043C56.3459 368.154 56.2391 368.241 56.1149 368.295C55.9908 368.35 55.8541 368.368 55.7199 368.35C55.5857 368.332 55.4591 368.277 55.354 368.192C55.2489 368.106 55.1693 367.994 55.1238 367.866C55.1167 367.815 55.1167 367.762 55.1238 367.711C55.0961 367.574 55.1116 367.432 55.1682 367.305C55.2045 367.181 55.2727 367.068 55.366 366.979C55.4593 366.889 55.5745 366.826 55.7 366.795C56.3352 366.647 56.7563 367.46 56.4239 368.043Z" fill="black"/>
<path d="M123.006 384.361C122.94 384.489 122.837 384.595 122.709 384.662C122.581 384.729 122.436 384.754 122.293 384.735C122.15 384.715 122.016 384.652 121.911 384.553C121.806 384.454 121.734 384.325 121.706 384.183C121.698 384.132 121.698 384.08 121.706 384.028C121.678 383.892 121.693 383.75 121.75 383.622C121.786 383.498 121.854 383.386 121.948 383.296C122.041 383.207 122.156 383.143 122.282 383.112C122.895 382.965 123.345 383.777 123.006 384.361Z" fill="black"/>
<path d="M58.204 369.086C58.2073 369.066 58.2073 369.046 58.204 369.027C58.2213 368.953 58.2202 368.876 58.2009 368.802C58.1816 368.729 58.1446 368.661 58.0932 368.605C58.0643 368.579 58.032 368.557 57.9972 368.539C57.9554 368.503 57.9058 368.478 57.8523 368.465C57.7989 368.453 57.7433 368.453 57.6899 368.466C57.6366 368.479 57.5871 368.504 57.5455 368.54C57.5038 368.576 57.4713 368.621 57.4506 368.672C57.2585 369.071 57.7239 369.603 58.071 369.27C58.1056 369.23 58.1353 369.185 58.1597 369.137L58.204 369.086Z" fill="black"/>
<path d="M99.5462 365.85V365.798C99.5064 365.733 99.4512 365.679 99.3855 365.64C99.3198 365.602 99.2456 365.58 99.1695 365.577C99.1329 365.57 99.0953 365.57 99.0587 365.577C99.004 365.579 98.9508 365.595 98.9036 365.623C98.8564 365.651 98.8166 365.689 98.7876 365.736C98.7586 365.782 98.7412 365.835 98.737 365.89C98.7327 365.944 98.7417 365.999 98.7632 366.049C98.911 366.47 99.6127 366.522 99.6201 366.049C99.6272 365.998 99.6272 365.946 99.6201 365.894L99.5462 365.85Z" fill="black"/>
<path d="M58.396 366.545C58.331 366.516 58.2575 366.513 58.1903 366.536C58.1231 366.559 58.0673 366.607 58.0341 366.67C58.0216 366.697 58.0151 366.726 58.0151 366.755C58.0151 366.784 58.0216 366.813 58.0341 366.84C58.0366 366.902 58.0602 366.961 58.1008 367.008C58.1415 367.055 58.1969 367.086 58.2579 367.098C58.3189 367.109 58.3819 367.099 58.4365 367.07C58.4912 367.04 58.5342 366.993 58.5585 366.936C58.5844 366.862 58.5821 366.781 58.5521 366.709C58.5221 366.637 58.4665 366.578 58.396 366.545Z" fill="black"/>
<path d="M72.9992 358.641C72.9676 358.626 72.9335 358.617 72.8986 358.616C72.8637 358.614 72.8288 358.619 72.7959 358.63C72.7629 358.642 72.7326 358.66 72.7067 358.684C72.6807 358.707 72.6596 358.735 72.6446 358.767C72.6321 358.793 72.6256 358.822 72.6256 358.852C72.6256 358.881 72.6321 358.91 72.6446 358.937C72.6443 359 72.6664 359.061 72.7068 359.109C72.7473 359.157 72.8035 359.189 72.8656 359.2C72.9276 359.211 72.9914 359.199 73.0456 359.167C73.0999 359.135 73.141 359.085 73.1617 359.025C73.1889 358.953 73.1873 358.872 73.1571 358.801C73.1268 358.729 73.0703 358.672 72.9992 358.641Z" fill="black"/>
<path d="M100.898 363.479C100.831 363.502 100.776 363.551 100.744 363.614C100.713 363.678 100.707 363.751 100.728 363.819C100.735 363.847 100.748 363.873 100.766 363.896C100.783 363.919 100.806 363.938 100.831 363.952C100.874 363.999 100.933 364.029 100.997 364.037C101.06 364.045 101.124 364.029 101.177 363.993C101.23 363.957 101.269 363.903 101.285 363.841C101.302 363.779 101.295 363.714 101.267 363.656C101.239 363.586 101.185 363.528 101.117 363.496C101.049 363.463 100.97 363.457 100.898 363.479Z" fill="black"/>
</g>
<path d="M181.507 393.764H324.62C326.401 391.381 327.772 388.717 328.675 385.882C329.886 381.524 328.756 375.733 324.206 373.739C321.251 372.461 318.127 373.525 315.099 373.606C314.175 373.606 313.171 373.51 312.668 372.646C312.342 372.021 312.263 371.296 312.447 370.615C312.831 369.063 314.33 368.074 315.571 367.224C315.619 367.194 315.659 367.154 315.689 367.106C315.719 367.058 315.738 367.004 315.744 366.948C315.751 366.892 315.744 366.836 315.726 366.782C315.708 366.729 315.677 366.681 315.638 366.641C314.352 365.561 312.737 364.952 311.059 364.913C309.38 364.874 307.739 365.408 306.405 366.426C304.846 364.757 305.526 362.246 306.545 360.429C307.646 358.479 309.411 357.016 310.674 355.177C311.765 353.775 312.264 352.001 312.063 350.235C311.625 348.439 310.549 346.864 309.034 345.803C306.582 343.846 302.349 341.637 299.432 343.964C296.285 346.505 298.294 351.24 296.233 354.305C295.996 354.77 295.653 355.174 295.232 355.484C294.812 355.794 294.325 356.003 293.811 356.093C293.345 356.059 292.897 355.905 292.508 355.646C292.12 355.387 291.805 355.032 291.595 354.616C290.856 353.574 290.265 352.318 289.017 351.883C289.357 348.714 290.169 345.611 290.494 342.435C290.93 337.856 289.903 331.909 285.109 329.952C284.179 329.555 283.176 329.358 282.165 329.372C281.153 329.386 280.156 329.611 279.237 330.033C277.243 331.03 276.283 333.099 276.209 335.256C276.091 337.966 277.014 340.64 276.689 343.381C276.489 345.043 275.677 346.793 273.734 346.409C272.338 346.136 271.215 345.205 270.041 344.415C268.564 343.395 266.052 342.28 264.516 343.78C263.6 344.666 263.733 346.062 262.943 347.015C262.152 347.968 260.801 348.16 259.641 348.174C257.248 348.211 254.928 347.628 252.52 347.827C250.236 347.989 248.014 348.649 246.013 349.763C244.097 350.849 242.568 352.507 241.64 354.505C240.835 356.248 239.424 360.303 236.817 358.508C235.723 357.77 235.081 356.351 234.416 355.243C233.751 354.135 233.064 352.976 232.318 351.883C231.029 349.797 229.256 348.053 227.148 346.801C225.001 345.68 222.528 345.349 220.162 345.865C217.796 346.38 215.686 347.71 214.199 349.622C212.746 351.586 212.018 353.993 212.138 356.433C212.301 359.254 214.221 361.64 214.354 364.432C214.406 365.725 214.029 367.261 212.84 367.963C211.363 368.834 209.546 368.044 208.031 367.697C206.517 367.35 203.873 367.534 203.186 369.374C203.066 369.782 203.051 370.213 203.141 370.629C203.232 371.044 203.425 371.431 203.703 371.752C204.021 372.188 204.442 372.572 204.693 373.037C205.084 373.695 205.01 373.975 204.405 374.382C202.625 375.571 200.217 375.12 198.193 375.342C186.249 376.457 182.046 390.462 181.507 393.764Z" fill="#9CD2B6"/>
<g opacity="0.2">
<path d="M282.687 370.423C284.43 378.334 286.166 386.097 284.112 393.794H285.759C286.365 392.265 286.941 390.728 287.54 389.199C293.449 386.452 299.764 388.66 306.006 387.899C310.859 387.301 316.029 384.945 319.117 381.052C319.159 381 319.18 380.933 319.176 380.866C319.172 380.799 319.144 380.736 319.096 380.688C319.049 380.641 318.986 380.612 318.918 380.609C318.851 380.605 318.785 380.626 318.733 380.668C316.145 382.817 313.204 384.5 310.039 385.639C310.696 384.863 311.324 384.051 312.041 383.327C313.089 382.263 314.257 381.362 315.372 380.372C315.438 380.321 315.372 380.217 315.283 380.262C314.023 381.07 312.845 382 311.767 383.039C310.751 383.907 309.83 384.88 309.019 385.942C306.963 386.539 304.831 386.835 302.689 386.821C297.807 386.821 292.348 385.72 287.916 388.202C288.293 387.279 288.655 386.348 289.083 385.432C290.817 381.594 292.834 377.891 295.118 374.353C297.378 370.829 299.705 367.35 301.352 363.494C302.854 359.777 303.848 355.874 304.307 351.89C304.307 351.683 304.026 351.587 303.989 351.802C302.734 358.797 299.336 364.839 295.643 370.748C296.773 367.328 297.703 363.842 299.144 360.51C299.247 360.266 298.907 360.052 298.782 360.296C296.795 364.307 294.66 368.776 294.047 373.267L293.308 374.456C290.654 378.642 288.406 383.072 286.594 387.685C286.845 382.758 285.796 377.588 284.792 373.075C283.662 367.978 282.576 362.933 282.413 357.689C282.413 357.223 282.413 356.765 282.413 356.3C285.286 350.33 286.486 343.693 285.885 337.095C285.885 337.007 285.85 336.922 285.788 336.86C285.725 336.798 285.641 336.763 285.553 336.763C285.464 336.763 285.38 336.798 285.318 336.86C285.255 336.922 285.22 337.007 285.22 337.095C285.275 340.674 285.011 344.251 284.43 347.783C283.942 350.138 283.272 352.452 282.428 354.704C282.589 350.554 282.966 346.414 283.558 342.303C283.603 341.948 283.049 341.904 282.96 342.221C280.33 351.565 280.618 361.057 282.687 370.423Z" fill="black"/>
<path d="M250.873 359.786C251.977 361.961 253.211 364.067 254.566 366.094C254.9 367.806 255.395 369.483 256.044 371.103C256.924 373.295 258.212 375.3 259.84 377.012C261.805 379.087 263.777 380.89 264.346 383.66C262.795 386.865 261.532 390.307 261.517 393.779H262.699C263.703 387.368 266.961 382.131 269.893 376.295C272.471 371.169 274.613 364.477 272.05 358.952C271.902 358.634 271.43 358.87 271.504 359.181C273.254 366.567 270.137 372.809 266.68 379.191C266.148 380.18 265.602 381.192 265.063 382.227C264.734 380.94 264.121 379.743 263.268 378.725C261.517 376.509 259.449 374.722 258.097 372.181C255.142 366.589 255.63 360.54 254.803 354.49C254.758 354.158 254.308 354.298 254.278 354.564C253.839 357.817 253.839 361.114 254.278 364.366C253.445 362.659 252.484 361.017 251.405 359.454C251.383 359.419 251.355 359.389 251.321 359.365C251.288 359.341 251.25 359.324 251.21 359.315C251.169 359.305 251.128 359.304 251.087 359.311C251.047 359.318 251.008 359.332 250.973 359.354C250.938 359.376 250.908 359.405 250.884 359.438C250.86 359.472 250.843 359.51 250.833 359.55C250.824 359.59 250.823 359.631 250.83 359.672C250.837 359.713 250.851 359.751 250.873 359.786Z" fill="black"/>
<path d="M220.315 355.835C220.879 358.975 222.194 361.933 224.149 364.455C225.626 366.42 227.96 367.668 229.415 369.625C230.656 372.233 232.067 374.737 233.485 377.248C234.963 379.9 237.755 383.49 236.44 386.673C236.373 386.836 236.506 386.939 236.639 386.954C235.039 388.881 234.159 391.304 234.15 393.809H234.844C235.62 384.539 248.798 382.086 248.916 372.513C248.916 372.078 248.221 371.967 248.14 372.41C247.165 377.581 243.103 380.535 239.454 383.896C238.672 384.606 237.932 385.361 237.238 386.156C238.154 384.228 237.489 382.109 236.573 380.203C235.096 377.167 233.323 374.294 231.757 371.339C230.069 368.27 228.657 365.056 227.539 361.737C226.439 358.258 226.261 354.889 226.165 351.27C226.169 351.246 226.167 351.221 226.161 351.197C226.155 351.174 226.144 351.151 226.13 351.132C226.115 351.112 226.096 351.096 226.075 351.083C226.054 351.071 226.031 351.063 226.007 351.059C225.982 351.056 225.958 351.057 225.934 351.064C225.91 351.07 225.888 351.08 225.868 351.095C225.849 351.11 225.832 351.128 225.82 351.15C225.808 351.171 225.799 351.194 225.796 351.218C224.562 356.389 226.232 362.298 228.263 367.143C227.524 366.405 226.675 365.755 226.003 365.001C223.565 362.313 222.31 359.011 220.987 355.702C220.95 355.636 220.892 355.584 220.824 355.553C220.755 355.522 220.678 355.513 220.604 355.528C220.53 355.542 220.462 355.58 220.41 355.635C220.358 355.69 220.325 355.76 220.315 355.835Z" fill="black"/>
<path d="M193.724 383.675C196.856 384.125 199.884 384.864 203.068 385.041C206.314 385.21 209.569 385.042 212.781 384.539C216.748 383.933 220.736 383.002 224.659 383.423C223.467 382.895 222.307 382.295 221.187 381.629C217.494 379.361 213.948 375.594 212.441 371.472C212.286 371.058 212.87 370.903 213.099 371.199C214.916 373.577 216.423 376.007 218.683 378.039C221.187 380.255 224.097 381.592 227.067 383.098C229.328 384.096 231.329 385.599 232.917 387.493C233.323 388.033 235.28 390.758 234.084 391.342C234.054 391.363 234.017 391.375 233.98 391.375C233.943 391.375 233.907 391.363 233.877 391.342L233.81 391.26C233.796 391.248 233.786 391.232 233.781 391.214C233.775 391.196 233.775 391.177 233.779 391.159C233.784 391.14 233.793 391.124 233.806 391.11C233.82 391.097 233.836 391.088 233.855 391.083C234.113 391.039 231.764 387.789 231.727 387.752C230.842 386.878 229.849 386.121 228.773 385.499C228.234 385.174 227.672 384.886 227.111 384.605C221.756 383.571 216.275 385.529 210.957 386.164C205.38 386.836 198.754 386.77 193.48 384.583C193.36 384.551 193.257 384.472 193.195 384.364C193.132 384.256 193.115 384.127 193.148 384.007C193.18 383.886 193.259 383.784 193.367 383.721C193.475 383.659 193.603 383.642 193.724 383.675Z" fill="black"/>
<path d="M263.415 390.943C264.989 388.645 267.574 387.353 269.879 385.912C273.158 383.859 275.367 381.48 276.637 377.787C276.741 377.477 277.302 377.499 277.258 377.876C276.364 385.166 268.822 387.264 263.881 391.297C263.637 391.504 263.209 391.245 263.415 390.943Z" fill="black"/>
<path d="M296.152 386.378C297.275 383.593 299.971 381.628 302.15 379.73C303.416 378.674 304.567 377.488 305.585 376.192C306.966 374.331 307.638 372.152 308.414 370.002C308.428 369.949 308.464 369.904 308.511 369.877C308.559 369.85 308.616 369.843 308.669 369.858C308.722 369.873 308.766 369.908 308.793 369.956C308.82 370.004 308.827 370.06 308.813 370.113C307.993 373.614 306.715 376.761 304.13 379.331C301.544 381.902 298.856 383.94 296.477 386.585C296.352 386.666 296.078 386.518 296.152 386.378Z" fill="black"/>
</g>
<g opacity="0.1">
<path d="M289.379 358.649C289.469 358.823 289.61 358.964 289.784 359.054C289.957 359.144 290.154 359.177 290.348 359.151C290.541 359.124 290.722 359.038 290.864 358.904C291.007 358.771 291.105 358.597 291.144 358.405C291.164 358.338 291.176 358.269 291.181 358.199C291.181 358.199 291.181 358.199 291.181 358.162C291.215 357.975 291.195 357.783 291.122 357.608C291.072 357.436 290.977 357.282 290.847 357.16C290.718 357.037 290.557 356.952 290.383 356.913C290.177 356.904 289.971 356.951 289.79 357.051C289.608 357.15 289.458 357.297 289.354 357.476C289.25 357.655 289.198 357.859 289.202 358.066C289.207 358.273 289.268 358.475 289.379 358.649Z" fill="black"/>
<path d="M198.496 380.919C198.587 381.091 198.729 381.231 198.903 381.32C199.077 381.409 199.274 381.443 199.467 381.416C199.66 381.389 199.841 381.304 199.984 381.172C200.128 381.039 200.227 380.866 200.268 380.675C200.288 380.608 200.301 380.538 200.305 380.468C200.302 380.456 200.302 380.443 200.305 380.431C200.341 380.244 200.318 380.051 200.239 379.877C200.191 379.706 200.096 379.551 199.966 379.43C199.836 379.309 199.675 379.226 199.5 379.19C198.643 378.991 198.038 380.121 198.496 380.919Z" fill="black"/>
<path d="M286.949 360.074C286.946 360.047 286.946 360.02 286.949 359.993C286.924 359.891 286.924 359.785 286.95 359.683C286.976 359.581 287.026 359.487 287.096 359.409L287.222 359.328C287.277 359.279 287.344 359.244 287.416 359.225C287.488 359.207 287.563 359.206 287.635 359.223C287.707 359.239 287.775 359.273 287.831 359.321C287.888 359.369 287.932 359.43 287.961 359.498C288.226 360.052 287.591 360.776 287.119 360.318C287.066 360.264 287.023 360.202 286.993 360.133C286.986 360.134 286.978 360.132 286.972 360.129C286.965 360.126 286.959 360.121 286.955 360.116C286.951 360.11 286.948 360.103 286.947 360.096C286.945 360.088 286.946 360.081 286.949 360.074Z" fill="black"/>
<path d="M230.509 355.656C230.521 355.63 230.535 355.606 230.553 355.583C230.607 355.493 230.682 355.418 230.772 355.365C230.863 355.312 230.965 355.282 231.07 355.28C231.119 355.27 231.169 355.27 231.218 355.28C231.293 355.283 231.366 355.305 231.432 355.343C231.497 355.381 231.552 355.434 231.592 355.498C231.632 355.562 231.655 355.635 231.661 355.71C231.667 355.785 231.654 355.861 231.624 355.93C231.425 356.499 230.464 356.572 230.45 355.93C230.438 355.859 230.438 355.787 230.45 355.716C230.457 355.723 230.468 355.728 230.479 355.728C230.49 355.728 230.501 355.723 230.509 355.716C230.516 355.708 230.521 355.697 230.521 355.686C230.521 355.675 230.516 355.664 230.509 355.656Z" fill="black"/>
<path d="M286.683 356.602C286.77 356.561 286.87 356.556 286.961 356.588C287.052 356.62 287.127 356.686 287.17 356.772C287.192 356.806 287.206 356.843 287.213 356.883C287.219 356.922 287.217 356.963 287.207 357.001C287.225 357.099 287.203 357.2 287.146 357.282C287.089 357.364 287.002 357.419 286.904 357.437C286.806 357.455 286.705 357.433 286.624 357.376C286.542 357.319 286.486 357.232 286.469 357.134C286.432 357.035 286.434 356.925 286.474 356.827C286.513 356.729 286.588 356.649 286.683 356.602Z" fill="black"/>
<path d="M266.747 345.811C266.835 345.772 266.935 345.769 267.026 345.802C267.116 345.835 267.191 345.902 267.234 345.988C267.252 346.023 267.262 346.063 267.262 346.102C267.262 346.142 267.252 346.181 267.234 346.217C267.251 346.315 267.228 346.415 267.17 346.496C267.113 346.577 267.026 346.632 266.928 346.649C266.83 346.666 266.729 346.643 266.648 346.585C266.567 346.528 266.512 346.44 266.495 346.342C266.462 346.238 266.469 346.126 266.515 346.027C266.562 345.928 266.645 345.85 266.747 345.811Z" fill="black"/>
<path d="M228.677 352.399C228.768 352.434 228.841 352.503 228.883 352.591C228.924 352.679 228.93 352.78 228.898 352.872C228.89 352.91 228.874 352.947 228.851 352.978C228.828 353.01 228.799 353.037 228.765 353.057C228.704 353.118 228.623 353.157 228.537 353.165C228.451 353.173 228.364 353.15 228.293 353.101C228.221 353.051 228.17 352.979 228.147 352.895C228.124 352.811 228.131 352.722 228.167 352.643C228.207 352.547 228.281 352.468 228.375 352.423C228.469 352.378 228.577 352.37 228.677 352.399Z" fill="black"/>
</g>
<path d="M240.044 393.764H141.952C140.733 392.13 139.794 390.306 139.175 388.364C138.34 385.373 139.116 381.406 142.233 380.04C144.242 379.161 146.399 379.892 148.474 379.944C148.786 379.999 149.107 379.967 149.402 379.851C149.697 379.735 149.953 379.539 150.144 379.286C150.365 378.858 150.418 378.362 150.291 377.897C150.025 376.834 149.006 376.154 148.149 375.571C148.117 375.55 148.09 375.522 148.069 375.49C148.049 375.457 148.036 375.42 148.032 375.382C148.028 375.344 148.032 375.305 148.045 375.269C148.057 375.232 148.078 375.199 148.105 375.172C148.986 374.431 150.093 374.012 151.244 373.985C152.395 373.959 153.521 374.325 154.435 375.024C155.499 373.887 155.033 372.158 154.339 370.917C153.645 369.676 152.374 368.576 151.51 367.313C150.76 366.351 150.418 365.134 150.557 363.922C150.85 362.685 151.589 361.599 152.633 360.872C154.31 359.527 157.212 358.013 159.199 359.609C161.356 361.352 159.982 364.594 161.415 366.714C161.584 367.028 161.822 367.298 162.111 367.504C162.401 367.71 162.734 367.847 163.085 367.904C163.404 367.884 163.713 367.783 163.982 367.609C164.251 367.436 164.471 367.196 164.621 366.914C165.123 366.175 165.53 365.34 166.387 365.038C166.15 362.866 165.596 360.739 165.382 358.56C165.086 355.42 165.788 351.343 169.075 350.006C169.712 349.735 170.398 349.599 171.09 349.608C171.782 349.617 172.464 349.77 173.093 350.058C173.731 350.411 174.262 350.931 174.627 351.562C174.993 352.193 175.18 352.911 175.169 353.64C175.258 355.502 174.622 357.334 174.844 359.188C174.984 360.325 175.538 361.529 176.897 361.263C177.819 360.988 178.672 360.522 179.401 359.897C180.406 359.202 182.134 358.419 183.191 359.461C183.811 360.067 183.73 361.027 184.269 361.677C184.566 361.965 184.922 362.185 185.312 362.323C185.702 362.46 186.117 362.512 186.529 362.475C188.169 362.475 189.757 362.098 191.412 362.238C192.968 362.351 194.48 362.802 195.844 363.56C197.16 364.308 198.21 365.446 198.85 366.818C199.397 368.007 200.364 370.784 202.152 369.558C202.844 368.938 203.405 368.184 203.799 367.342C204.264 366.567 204.722 365.784 205.232 365.038C206.119 363.609 207.338 362.416 208.785 361.559C210.254 360.789 211.948 360.561 213.569 360.914C215.189 361.268 216.634 362.181 217.649 363.494C218.647 364.836 219.146 366.484 219.06 368.155C218.949 370.09 217.641 371.722 217.582 373.635C217.529 374.096 217.597 374.563 217.78 374.989C217.962 375.415 218.253 375.787 218.624 376.066C219.636 376.657 220.884 376.117 221.918 375.881C222.952 375.645 224.769 375.763 225.242 377.026C225.325 377.306 225.336 377.602 225.274 377.888C225.212 378.173 225.079 378.438 224.887 378.658C224.666 378.954 224.4 379.22 224.208 379.537C223.942 379.988 223.994 380.187 224.407 380.461C225.626 381.28 227.273 380.985 228.662 381.118C236.787 381.945 239.675 391.548 240.044 393.764Z" fill="#9CD2B6"/>
<path opacity="0.2" d="M240.044 393.764H141.952C140.733 392.13 139.794 390.306 139.175 388.364C138.34 385.373 139.116 381.406 142.233 380.04C144.242 379.161 146.399 379.892 148.474 379.944C148.786 379.999 149.107 379.967 149.402 379.851C149.697 379.735 149.953 379.539 150.144 379.286C150.365 378.858 150.418 378.362 150.291 377.897C150.025 376.834 149.006 376.154 148.149 375.571C148.117 375.55 148.09 375.522 148.069 375.49C148.049 375.457 148.036 375.42 148.032 375.382C148.028 375.344 148.032 375.305 148.045 375.269C148.057 375.232 148.078 375.199 148.105 375.172C148.986 374.431 150.093 374.012 151.244 373.985C152.395 373.959 153.521 374.325 154.435 375.024C155.499 373.887 155.033 372.158 154.339 370.917C153.645 369.676 152.374 368.576 151.51 367.313C150.76 366.351 150.418 365.134 150.557 363.922C150.85 362.685 151.589 361.599 152.633 360.872C154.31 359.527 157.212 358.013 159.199 359.609C161.356 361.352 159.982 364.594 161.415 366.714C161.584 367.028 161.822 367.298 162.111 367.504C162.401 367.71 162.734 367.847 163.085 367.904C163.404 367.884 163.713 367.783 163.982 367.609C164.251 367.436 164.471 367.196 164.621 366.914C165.123 366.175 165.53 365.34 166.387 365.038C166.15 362.866 165.596 360.739 165.382 358.56C165.086 355.42 165.788 351.343 169.075 350.006C169.712 349.735 170.398 349.599 171.09 349.608C171.782 349.617 172.464 349.77 173.093 350.058C173.731 350.411 174.262 350.931 174.627 351.562C174.993 352.193 175.18 352.911 175.169 353.64C175.258 355.502 174.622 357.334 174.844 359.188C174.984 360.325 175.538 361.529 176.897 361.263C177.819 360.988 178.672 360.522 179.401 359.897C180.406 359.202 182.134 358.419 183.191 359.461C183.811 360.067 183.73 361.027 184.269 361.677C184.566 361.965 184.922 362.185 185.312 362.323C185.702 362.46 186.117 362.512 186.529 362.475C188.169 362.475 189.757 362.098 191.412 362.238C192.968 362.351 194.48 362.802 195.844 363.56C197.16 364.308 198.21 365.446 198.85 366.818C199.397 368.007 200.364 370.784 202.152 369.558C202.844 368.938 203.405 368.184 203.799 367.342C204.264 366.567 204.722 365.784 205.232 365.038C206.119 363.609 207.338 362.416 208.785 361.559C210.254 360.789 211.948 360.561 213.569 360.914C215.189 361.268 216.634 362.181 217.649 363.494C218.647 364.836 219.146 366.484 219.06 368.155C218.949 370.09 217.641 371.722 217.582 373.635C217.529 374.096 217.597 374.563 217.78 374.989C217.962 375.415 218.253 375.787 218.624 376.066C219.636 376.657 220.884 376.117 221.918 375.881C222.952 375.645 224.769 375.763 225.242 377.026C225.325 377.306 225.336 377.602 225.274 377.888C225.212 378.173 225.079 378.438 224.887 378.658C224.666 378.954 224.4 379.22 224.208 379.537C223.942 379.988 223.994 380.187 224.407 380.461C225.626 381.28 227.273 380.985 228.662 381.118C236.787 381.945 239.675 391.548 240.044 393.764Z" fill="black"/>
<g opacity="0.2">
<path d="M170.693 377.779C169.496 383.194 168.307 388.519 169.718 393.793H168.61C168.196 392.744 167.797 391.696 167.384 390.639C163.351 388.763 159.007 390.277 154.753 389.753C151.421 389.347 147.883 387.729 145.763 385.055C145.729 385.02 145.71 384.972 145.711 384.923C145.712 384.874 145.732 384.827 145.767 384.793C145.802 384.759 145.85 384.74 145.899 384.74C145.948 384.741 145.995 384.761 146.029 384.797C147.789 386.261 149.788 387.41 151.939 388.194C151.488 387.663 151.052 387.109 150.565 386.614C149.826 385.875 149.05 385.269 148.282 384.597C148.238 384.597 148.282 384.494 148.341 384.523C149.206 385.076 150.012 385.715 150.749 386.429C151.447 387.021 152.079 387.687 152.633 388.416C154.042 388.822 155.502 389.026 156.969 389.022C160.315 389.022 164.06 388.283 167.088 389.967C166.83 389.332 166.571 388.697 166.29 388.069C165.099 385.445 163.717 382.912 162.154 380.49C160.526 378.145 159.098 375.666 157.885 373.082C156.855 370.533 156.174 367.857 155.861 365.126C155.861 364.986 156.053 364.92 156.082 365.067C156.939 369.861 159.273 373.998 161.799 378.053C161.024 375.711 160.389 373.318 159.399 371.036C159.332 370.866 159.561 370.725 159.65 370.888C161.016 373.636 162.479 376.701 162.893 379.752L163.41 380.564C165.226 383.433 166.767 386.468 168.012 389.627C167.842 386.259 168.558 382.714 169.245 379.619C170.124 376.163 170.671 372.631 170.877 369.071C170.877 368.753 170.877 368.435 170.877 368.118C168.908 364.024 168.086 359.472 168.499 354.948C168.509 354.895 168.536 354.847 168.578 354.813C168.619 354.779 168.671 354.76 168.724 354.76C168.778 354.76 168.83 354.779 168.871 354.813C168.912 354.847 168.94 354.895 168.95 354.948C168.914 357.402 169.097 359.854 169.496 362.275C169.83 363.889 170.29 365.475 170.87 367.017C170.77 364.173 170.524 361.335 170.131 358.515C170.094 358.272 170.479 358.242 170.538 358.456C172.303 364.846 172.111 371.353 170.693 377.779Z" fill="black"/>
<path d="M192.498 370.467C191.748 371.957 190.91 373.4 189.986 374.788C189.765 375.963 189.431 377.113 188.989 378.223C188.389 379.73 187.507 381.109 186.389 382.286C185.037 383.711 183.693 384.945 183.294 386.858C184.449 388.997 185.113 391.366 185.237 393.794H184.432C183.737 389.362 181.477 385.809 179.498 381.805C177.732 378.297 176.262 373.732 178.02 369.921C178.116 369.699 178.441 369.861 178.39 370.083C177.193 375.158 179.328 379.42 181.699 383.792C182.061 384.472 182.437 385.166 182.807 385.875C183.028 384.992 183.447 384.171 184.033 383.475C185.237 381.961 186.655 380.734 187.571 378.991C189.58 375.158 189.255 371.006 189.824 366.863C189.824 366.634 190.164 366.73 190.186 366.914C190.485 369.142 190.485 371.4 190.186 373.629C190.756 372.461 191.413 371.338 192.151 370.268C192.183 370.235 192.225 370.214 192.27 370.208C192.315 370.201 192.362 370.21 192.401 370.233C192.441 370.256 192.472 370.291 192.489 370.334C192.507 370.376 192.51 370.423 192.498 370.467Z" fill="black"/>
<path d="M213.461 367.771C213.075 369.923 212.176 371.95 210.838 373.68C209.812 375.024 208.224 375.896 207.226 377.218C206.377 379.006 205.409 380.719 204.434 382.44C203.459 384.161 201.48 386.717 202.418 388.904C202.426 388.925 202.429 388.948 202.427 388.971C202.424 388.994 202.416 389.016 202.403 389.035C202.39 389.054 202.372 389.07 202.351 389.08C202.331 389.091 202.308 389.096 202.285 389.096C203.376 390.408 203.979 392.057 203.991 393.764H203.511C202.979 387.412 193.946 385.727 193.872 379.168C193.872 378.865 194.344 378.792 194.403 379.094C195.068 382.655 197.853 384.656 200.357 386.968C200.877 387.458 201.37 387.976 201.834 388.52C201.206 387.197 201.657 385.742 202.285 384.435C203.289 382.359 204.501 380.387 205.587 378.356C206.744 376.244 207.713 374.034 208.482 371.752C209.141 369.417 209.457 366.999 209.42 364.573C209.427 364.544 209.444 364.518 209.467 364.499C209.491 364.481 209.52 364.471 209.549 364.471C209.579 364.471 209.608 364.481 209.632 364.499C209.655 364.518 209.672 364.544 209.679 364.573C210.521 368.118 209.376 372.166 207.987 375.497C208.504 375.002 209.073 374.537 209.538 374.02C211.2 372.173 212.057 369.913 212.973 367.645C212.99 367.581 213.031 367.525 213.089 367.491C213.146 367.457 213.215 367.448 213.28 367.464C213.344 367.481 213.4 367.523 213.434 367.58C213.468 367.638 213.477 367.706 213.461 367.771Z" fill="black"/>
<path d="M231.668 386.858C229.519 387.168 227.443 387.67 225.264 387.788C223.042 387.908 220.814 387.794 218.616 387.449C215.898 387.035 213.158 386.4 210.491 386.71C211.31 386.353 212.104 385.943 212.87 385.484C215.562 383.866 217.664 381.427 218.867 378.526C218.971 378.238 218.572 378.134 218.417 378.334C217.176 379.966 216.142 381.635 214.591 383.024C212.87 384.56 210.897 385.462 208.844 386.488C207.297 387.177 205.925 388.207 204.833 389.502C204.56 389.871 203.215 391.718 204.035 392.139C204.056 392.153 204.081 392.16 204.106 392.16C204.131 392.16 204.155 392.153 204.176 392.139L204.22 392.08C204.231 392.073 204.24 392.064 204.246 392.053C204.252 392.042 204.255 392.03 204.255 392.017C204.255 392.005 204.252 391.992 204.246 391.981C204.24 391.97 204.231 391.961 204.22 391.954C204.043 391.954 205.653 389.701 205.697 389.679C206.301 389.079 206.979 388.558 207.714 388.128C208.091 387.914 208.452 387.714 208.859 387.522C212.552 386.784 216.282 388.15 219.938 388.586C223.765 389.044 228.3 389 231.919 387.5C232.005 387.467 232.073 387.401 232.11 387.317C232.146 387.234 232.148 387.139 232.115 387.053C232.082 386.968 232.016 386.9 231.932 386.863C231.848 386.826 231.753 386.824 231.668 386.858Z" fill="black"/>
<path d="M183.9 391.843C182.821 390.262 181.049 389.383 179.468 388.386C177.292 387.166 175.643 385.185 174.837 382.824C174.763 382.61 174.379 382.632 174.416 382.883C175.021 387.884 180.192 389.324 183.582 392.087C183.745 392.22 184.048 392.05 183.9 391.843Z" fill="black"/>
<path d="M161.46 388.682C160.721 386.777 158.845 385.432 157.345 384.11C156.48 383.386 155.693 382.574 154.997 381.687C154.145 380.377 153.491 378.948 153.054 377.447C153.049 377.429 153.041 377.413 153.029 377.398C153.018 377.383 153.004 377.371 152.988 377.362C152.972 377.352 152.954 377.346 152.935 377.344C152.917 377.342 152.898 377.343 152.88 377.348C152.862 377.353 152.846 377.361 152.831 377.372C152.816 377.384 152.804 377.398 152.795 377.414C152.785 377.43 152.779 377.448 152.777 377.466C152.774 377.485 152.776 377.503 152.781 377.521C153.222 379.894 154.337 382.089 155.994 383.844C157.722 385.558 159.606 386.998 161.238 388.815C161.327 388.904 161.511 388.808 161.46 388.682Z" fill="black"/>
</g>
<g opacity="0.1">
<path d="M166.106 369.706C166.044 369.825 165.946 369.921 165.827 369.982C165.708 370.043 165.573 370.066 165.441 370.047C165.308 370.029 165.185 369.97 165.087 369.878C164.989 369.787 164.922 369.668 164.895 369.537C164.888 369.49 164.888 369.443 164.895 369.396C164.856 369.271 164.856 369.137 164.895 369.012C164.929 368.896 164.993 368.79 165.081 368.707C165.17 368.624 165.279 368.566 165.397 368.539C166.01 368.399 166.394 369.16 166.106 369.706Z" fill="black"/>
<path d="M228.396 384.967C228.334 385.086 228.238 385.182 228.119 385.244C228.001 385.305 227.866 385.329 227.734 385.311C227.601 385.293 227.478 385.235 227.379 385.145C227.281 385.054 227.213 384.935 227.185 384.805C227.178 384.758 227.178 384.711 227.185 384.665C227.159 384.538 227.171 384.407 227.222 384.288C227.256 384.171 227.32 384.066 227.408 383.983C227.497 383.9 227.606 383.842 227.724 383.815C227.863 383.803 228.003 383.831 228.127 383.896C228.251 383.96 228.354 384.058 228.424 384.179C228.494 384.3 228.529 384.438 228.524 384.577C228.519 384.717 228.475 384.852 228.396 384.967Z" fill="black"/>
<path d="M167.775 370.682C167.779 370.662 167.779 370.642 167.775 370.623C167.792 370.553 167.792 370.48 167.774 370.41C167.756 370.341 167.721 370.277 167.672 370.224C167.647 370.199 167.617 370.178 167.583 370.165C167.545 370.132 167.499 370.108 167.449 370.096C167.4 370.084 167.348 370.084 167.299 370.095C167.249 370.107 167.203 370.13 167.164 370.162C167.125 370.195 167.094 370.236 167.074 370.283C166.896 370.66 167.332 371.162 167.657 370.845C167.691 370.807 167.718 370.765 167.738 370.719L167.775 370.682Z" fill="black"/>
<path d="M206.451 367.653V367.602C206.416 367.54 206.366 367.487 206.305 367.45C206.244 367.412 206.175 367.391 206.104 367.388C206.07 367.38 206.034 367.38 206 367.388C205.949 367.389 205.898 367.404 205.853 367.429C205.809 367.455 205.771 367.491 205.743 367.535C205.715 367.579 205.699 367.628 205.695 367.68C205.691 367.732 205.699 367.783 205.72 367.831C205.86 368.23 206.517 368.274 206.525 367.831C206.535 367.78 206.535 367.727 206.525 367.676L206.451 367.653Z" fill="black"/>
<path d="M167.953 368.303C167.892 368.275 167.822 368.272 167.759 368.294C167.695 368.316 167.643 368.362 167.613 368.422C167.595 368.472 167.595 368.527 167.613 368.577C167.612 368.636 167.632 368.694 167.67 368.74C167.708 368.786 167.761 368.817 167.819 368.828C167.878 368.838 167.938 368.828 167.99 368.798C168.041 368.768 168.08 368.721 168.1 368.665C168.128 368.598 168.127 368.522 168.1 368.454C168.072 368.387 168.02 368.333 167.953 368.303Z" fill="black"/>
<path d="M181.618 360.909C181.558 360.881 181.489 360.878 181.427 360.9C181.365 360.922 181.314 360.968 181.285 361.028C181.273 361.052 181.266 361.078 181.266 361.105C181.266 361.132 181.273 361.159 181.285 361.183C181.284 361.242 181.305 361.3 181.342 361.346C181.38 361.392 181.433 361.423 181.491 361.434C181.55 361.444 181.61 361.434 181.662 361.404C181.713 361.374 181.753 361.327 181.773 361.271C181.798 361.203 181.795 361.127 181.767 361.06C181.738 360.992 181.685 360.939 181.618 360.909Z" fill="black"/>
<path d="M207.714 365.416C207.651 365.439 207.6 365.486 207.571 365.547C207.542 365.607 207.538 365.677 207.559 365.741C207.564 365.768 207.575 365.793 207.592 365.815C207.608 365.837 207.63 365.855 207.655 365.866C207.697 365.907 207.751 365.933 207.81 365.938C207.868 365.943 207.927 365.928 207.975 365.895C208.023 365.861 208.058 365.812 208.074 365.756C208.09 365.699 208.085 365.639 208.061 365.585C208.035 365.519 207.985 365.465 207.92 365.434C207.856 365.402 207.783 365.396 207.714 365.416Z" fill="black"/>
</g>
<path d="M26.1616 393.793L64.1724 393.616L102.183 393.549L178.212 393.424L254.241 393.549L292.252 393.608L330.263 393.793L292.252 393.97L254.241 394.037L178.212 394.162L102.183 394.037L64.1724 393.97L26.1616 393.793Z" fill="#263238"/>
<path d="M254.907 124.867C254.907 124.867 224.586 196.956 248.31 173.048C248.31 173.048 270.072 193.319 279.323 172.778C279.323 172.778 307.609 181.808 298.587 166.552C289.565 151.296 264.313 100.307 254.907 124.867Z" fill="white"/>
<path d="M84.1711 157.953C84.1711 157.953 15.4476 216.906 58.4112 201.842C58.4112 201.842 83.7848 228.365 104.27 211.767C104.27 211.767 143.012 229.688 134.77 212.142C126.529 194.596 106.22 137.564 84.1711 157.953Z" fill="white"/>
<path d="M106.988 230.699C106.591 230.366 106.111 230.142 105.597 230.049C105.083 229.955 104.553 229.997 104.06 230.168C103.567 230.34 103.129 230.636 102.791 231.026C102.453 231.416 102.225 231.887 102.132 232.39C101.934 233.328 101.959 234.298 102.207 235.224C102.454 236.15 102.918 237.008 103.561 237.729C104.85 239.041 106.388 240.095 108.088 240.832C108.282 240.935 108.497 240.992 108.716 241C109.053 240.98 109.382 240.892 109.682 240.742C109.982 240.591 110.246 240.38 110.458 240.124C110.671 239.868 110.826 239.571 110.915 239.252C111.003 238.934 111.023 238.601 110.973 238.275C110.655 235.352 109.235 232.65 106.988 230.699Z" fill="white"/>
<path d="M88.7343 233.461C88.518 233.243 88.2542 233.096 87.9703 233.034C87.6865 232.971 87.393 232.996 87.1205 233.106C86.8481 233.215 86.6066 233.406 86.4214 233.657C86.2362 233.908 86.114 234.211 86.0675 234.534C85.9622 235.129 85.9803 235.744 86.1204 236.33C86.2606 236.916 86.519 237.458 86.8753 237.912C87.6076 238.757 88.4786 239.431 89.4395 239.898C89.5495 239.952 89.6663 239.987 89.7857 240C89.9733 239.989 90.1564 239.931 90.3221 239.831C90.4878 239.731 90.632 239.591 90.7446 239.42C90.8571 239.25 90.9352 239.054 90.9733 238.846C91.0114 238.638 91.0087 238.423 90.9652 238.216C90.7703 236.373 89.975 234.677 88.7343 233.461Z" fill="white"/>
<path d="M24.6659 242.097C26.7979 236.837 34.6102 228.568 43.6491 236.94C43.6491 236.94 52.688 228.538 57.2439 236.94C57.2439 236.94 64.881 226.715 69.2471 239.208C73.6132 251.7 57.5652 246.321 57.5652 246.321C57.5652 246.321 46.8178 257.553 40.8162 248.425C40.933 248.499 20.0516 253.537 24.6659 242.097Z" fill="white"/>
<path d="M238.013 206.885C241.258 198.856 253.146 186.235 266.901 199.014C266.901 199.014 280.656 186.19 287.589 199.014C287.589 199.014 299.21 183.408 305.854 202.475C312.498 221.542 288.077 213.331 288.077 213.331C288.077 213.331 271.723 230.476 262.59 216.543C262.768 216.656 230.992 224.346 238.013 206.885Z" fill="white"/>
<path d="M297.463 278.224C298.946 274.625 304.381 268.967 310.669 274.696C310.669 274.696 316.957 268.947 320.126 274.696C320.126 274.696 325.439 267.7 328.476 276.247C331.514 284.795 320.35 281.114 320.35 281.114C320.35 281.114 312.873 288.8 308.698 282.554C308.779 282.605 294.253 286.052 297.463 278.224Z" fill="white"/>
<path d="M258.463 262.224C259.946 258.625 265.381 252.967 271.669 258.696C271.669 258.696 277.957 252.947 281.126 258.696C281.126 258.696 286.439 251.7 289.476 260.247C292.514 268.795 281.35 265.114 281.35 265.114C281.35 265.114 273.873 272.8 269.698 266.554C269.779 266.605 255.253 270.052 258.463 262.224Z" fill="white"/>
<path d="M246.303 375.716C250.474 365.471 265.759 349.369 283.444 365.673C283.444 365.673 301.129 349.311 310.042 365.673C310.042 365.673 324.984 345.762 333.527 370.089C342.069 394.415 310.671 383.94 310.671 383.94C310.671 383.94 289.643 405.814 277.901 388.038C278.13 388.182 237.275 397.994 246.303 375.716Z" fill="white"/>
<path d="M250.303 394.716C254.474 384.471 269.759 368.369 287.444 384.673C287.444 384.673 305.129 368.311 314.042 384.673C314.042 384.673 328.984 364.762 337.527 389.089C346.069 413.415 314.671 402.94 314.671 402.94C314.671 402.94 293.643 424.814 281.901 407.038C282.13 407.182 241.275 416.994 250.303 394.716Z" fill="#F4F4F4"/>
<path d="M158.303 383.716C162.474 373.471 177.759 357.369 195.444 373.673C195.444 373.673 213.129 357.311 222.042 373.673C222.042 373.673 236.984 353.762 245.527 378.089C254.069 402.415 222.671 391.94 222.671 391.94C222.671 391.94 201.643 413.814 189.901 396.038C190.13 396.182 149.275 405.994 158.303 383.716Z" fill="white"/>
<path d="M196.303 420.716C200.474 410.471 215.759 394.369 233.444 410.673C233.444 410.673 251.129 394.311 260.042 410.673C260.042 410.673 274.984 390.762 283.527 415.089C292.069 439.415 260.671 428.94 260.671 428.94C260.671 428.94 239.643 450.814 227.901 433.038C228.13 433.182 187.275 442.994 196.303 420.716Z" fill="white"/>
<path d="M254.303 421.716C258.474 411.471 273.759 395.369 291.444 411.673C291.444 411.673 309.129 395.311 318.042 411.673C318.042 411.673 332.984 391.762 341.527 416.089C350.069 440.415 318.671 429.94 318.671 429.94C318.671 429.94 297.643 451.814 285.901 434.038C286.13 434.182 245.275 443.994 254.303 421.716Z" fill="white"/>
<path d="M134.303 399.716C138.474 389.471 153.759 373.369 171.444 389.673C171.444 389.673 189.129 373.311 198.042 389.673C198.042 389.673 212.984 369.762 221.527 394.089C230.069 418.415 198.671 407.94 198.671 407.94C198.671 407.94 177.643 429.814 165.901 412.038C166.13 412.182 125.275 421.994 134.303 399.716Z" fill="#E9E9E9"/>
<path d="M83.3029 404.716C87.4741 394.471 102.759 378.369 120.444 394.673C120.444 394.673 138.129 378.311 147.042 394.673C147.042 394.673 161.984 374.762 170.527 399.089C179.069 423.415 147.671 412.94 147.671 412.94C147.671 412.94 126.643 434.814 114.901 417.038C115.13 417.182 74.2748 426.994 83.3029 404.716Z" fill="white"/>
<path d="M122.303 421.716C126.474 411.471 141.759 395.369 159.444 411.673C159.444 411.673 177.129 395.311 186.042 411.673C186.042 411.673 200.984 391.762 209.527 416.089C218.069 440.415 186.671 429.94 186.671 429.94C186.671 429.94 165.643 451.814 153.901 434.038C154.13 434.182 113.275 443.994 122.303 421.716Z" fill="white"/>
<path d="M193.303 397.716C197.474 387.471 212.759 371.369 230.444 387.673C230.444 387.673 248.129 371.311 257.042 387.673C257.042 387.673 271.984 367.762 280.527 392.089C289.069 416.415 257.671 405.94 257.671 405.94C257.671 405.94 236.643 427.814 224.901 410.038C225.13 410.182 184.275 419.994 193.303 397.716Z" fill="white"/>
<g filter="url(#filter0_d_218_14537)">
<path d="M56 60.5C56 61.1922 56.1759 61.8689 56.5056 62.4445C56.8352 63.0201 57.3038 63.4687 57.8519 63.7336C58.4001 63.9985 59.0033 64.0678 59.5853 63.9327C60.1672 63.7977 60.7018 63.4644 61.1213 62.9749C61.5409 62.4854 61.8266 61.8618 61.9424 61.1828C62.0581 60.5039 61.9987 59.8002 61.7716 59.1606C61.5446 58.5211 61.1601 57.9744 60.6667 57.5899C60.1734 57.2053 59.5933 57 59 57C58.606 57 58.2159 57.0905 57.8519 57.2664C57.488 57.4423 57.1573 57.7001 56.8787 58.0251C56.6001 58.3501 56.3791 58.736 56.2284 59.1606C56.0776 59.5853 56 60.0404 56 60.5Z" fill="white"/>
<path d="M71 156.488C70.9976 157.181 71.2011 157.859 71.5847 158.437C71.9684 159.014 72.5149 159.465 73.1549 159.731C73.795 159.998 74.4997 160.068 75.1798 159.933C75.8599 159.799 76.4846 159.465 76.9749 158.975C77.4651 158.485 77.7987 157.86 77.9333 157.18C78.068 156.5 77.9976 155.795 77.7312 155.155C77.4648 154.515 77.0143 153.968 76.4368 153.585C75.8594 153.201 75.181 152.998 74.4877 153C74.0308 153 73.5785 153.09 73.1567 153.266C72.735 153.442 72.3521 153.699 72.0302 154.023C71.7083 154.347 71.4537 154.732 71.2812 155.155C71.1086 155.578 71.0214 156.031 71.0247 156.488H71Z" fill="white"/>
<path d="M93.0001 21.5248C93.0043 22.217 93.1843 22.8922 93.5175 23.4651C93.8506 24.0379 94.3218 24.4826 94.8716 24.743C95.4214 25.0033 96.025 25.0677 96.6061 24.9278C97.1872 24.788 97.7197 24.4502 98.1363 23.9573C98.5528 23.4644 98.8348 22.8384 98.9464 22.1586C99.0581 21.4787 98.9944 20.7755 98.7635 20.1378C98.5325 19.5002 98.1447 18.9567 97.6491 18.5762C97.1534 18.1957 96.5722 17.9952 95.9789 18.0001C95.5849 18.0033 95.1954 18.0971 94.8324 18.2759C94.4695 18.4548 94.1404 18.7154 93.8637 19.0427C93.5871 19.37 93.3685 19.7576 93.2203 20.1835C93.0721 20.6094 92.9973 21.0652 93.0001 21.5248Z" fill="white"/>
<path d="M38.0001 153.512C38.0025 154.205 38.2105 154.882 38.5977 155.456C38.9848 156.031 39.5338 156.477 40.175 156.739C40.8161 157.002 41.5207 157.068 42.1995 156.929C42.8783 156.791 43.5007 156.454 43.9879 155.962C44.4752 155.469 44.8053 154.843 44.9366 154.163C45.0679 153.483 44.9943 152.779 44.7253 152.141C44.4562 151.502 44.0038 150.958 43.4253 150.577C42.8467 150.196 42.1681 149.995 41.4754 150C41.0163 150.002 40.5621 150.094 40.1388 150.271C39.7155 150.449 39.3314 150.708 39.0085 151.035C38.6856 151.361 38.4303 151.748 38.2573 152.173C38.0843 152.598 37.9968 153.053 38.0001 153.512Z" fill="white"/>
<path d="M1 133.5C1 134.192 1.20529 134.869 1.58987 135.444C1.97445 136.02 2.52108 136.469 3.16062 136.734C3.80016 136.998 4.50388 137.068 5.18281 136.933C5.86174 136.798 6.48539 136.464 6.97487 135.975C7.46435 135.485 7.7977 134.862 7.93275 134.183C8.0678 133.504 7.99848 132.8 7.73357 132.161C7.46866 131.521 7.02007 130.974 6.4445 130.59C5.86893 130.205 5.19224 130 4.50001 130C3.57175 130 2.6815 130.369 2.02513 131.025C1.36875 131.682 1 132.572 1 133.5Z" fill="white"/>
<path d="M38.0001 94.5247C38.0043 95.2164 38.184 95.8912 38.5167 96.4637C38.8493 97.0363 39.32 97.481 39.8691 97.7418C40.4183 98.0025 41.0213 98.0676 41.6021 97.9288C42.183 97.7899 42.7155 97.4534 43.1325 96.9617C43.5495 96.47 43.8323 95.8452 43.9452 95.1662C44.058 94.4871 43.9958 93.7843 43.7665 93.1464C43.5373 92.5085 43.1511 91.9642 42.6568 91.5822C42.1626 91.2002 41.5823 90.9976 40.9895 91C40.5946 91.0016 40.2039 91.0942 39.8398 91.2723C39.4756 91.4505 39.1452 91.7108 38.8675 92.0382C38.5897 92.3657 38.3702 92.7539 38.2213 93.1806C38.0725 93.6073 37.9973 94.0641 38.0001 94.5247Z" fill="white"/>
<path d="M32 4C32 4.59334 32.1759 5.17336 32.5056 5.66671C32.8352 6.16006 33.3038 6.54457 33.8519 6.77164C34.4001 6.9987 35.0033 7.05811 35.5853 6.94236C36.1672 6.8266 36.7018 6.54088 37.1213 6.12132C37.5409 5.70176 37.8266 5.16721 37.9424 4.58527C38.0581 4.00332 37.9987 3.40012 37.7716 2.85194C37.5446 2.30377 37.1601 1.83523 36.6667 1.50559C36.1734 1.17594 35.5933 1 35 1C34.606 1 34.2159 1.07759 33.8519 1.22836C33.488 1.37912 33.1573 1.6001 32.8787 1.87867C32.6001 2.15725 32.3791 2.48797 32.2284 2.85194C32.0776 3.21592 32 3.60603 32 4Z" fill="white"/>
<path d="M337.5 121C338.193 121 338.87 121.176 339.446 121.506C340.022 121.836 340.47 122.306 340.735 122.854C340.999 123.403 341.068 124.007 340.932 124.589C340.796 125.171 340.461 125.706 339.97 126.125C339.48 126.544 338.855 126.829 338.175 126.944C337.495 127.058 336.791 126.997 336.152 126.769C335.513 126.54 334.967 126.154 334.584 125.659C334.201 125.164 333.998 124.583 334 123.989C334.003 123.196 334.373 122.435 335.029 121.875C335.686 121.315 336.574 121 337.5 121Z" fill="white"/>
<path d="M279 79.4877C278.998 80.181 279.172 80.8594 279.501 81.4368C279.83 82.0143 280.298 82.4648 280.847 82.7312C281.396 82.9977 282 83.068 282.583 82.9333C283.166 82.7987 283.701 82.4651 284.121 81.9749C284.541 81.4847 284.827 80.8599 284.943 80.1798C285.058 79.4997 284.998 78.795 284.77 78.1549C284.541 77.5149 284.155 76.9684 283.66 76.5847C283.165 76.2011 282.584 75.9976 281.989 76C281.199 76 280.442 76.3662 279.883 77.0179C279.324 77.6697 279.011 78.5537 279.011 79.4754L279 79.4877Z" fill="white"/>
<path d="M305 178.5C305 179.193 305.176 179.87 305.506 180.446C305.836 181.022 306.306 181.47 306.854 181.735C307.403 181.999 308.007 182.068 308.589 181.932C309.171 181.796 309.706 181.461 310.125 180.971C310.544 180.48 310.829 179.855 310.944 179.175C311.058 178.495 310.997 177.791 310.769 177.152C310.54 176.513 310.154 175.967 309.659 175.584C309.164 175.201 308.583 174.998 307.989 175C307.196 175.003 306.435 175.373 305.875 176.029C305.315 176.686 305 177.574 305 178.5Z" fill="white"/>
<path d="M346 65.4877C345.998 66.1804 346.172 66.8583 346.5 67.4355C346.829 68.0127 347.297 68.4632 347.845 68.73C348.393 68.9968 348.996 69.0679 349.579 68.9342C350.161 68.8006 350.697 68.4682 351.118 67.9792C351.538 67.4903 351.825 66.8666 351.942 66.1874C352.058 65.5081 351.999 64.8037 351.773 64.1635C351.546 63.5232 351.161 62.9759 350.668 62.5907C350.174 62.2056 349.594 62 349 62C348.607 61.9984 348.217 62.0874 347.853 62.262C347.489 62.4365 347.158 62.6931 346.879 63.0172C346.601 63.3412 346.379 63.7262 346.229 64.1502C346.078 64.5741 346 65.0286 346 65.4877Z" fill="white"/>
<path d="M227 75.5124C227.002 76.2046 227.21 76.8806 227.597 77.4548C227.983 78.029 228.532 78.4757 229.172 78.7383C229.813 79.0009 230.517 79.0678 231.195 78.9303C231.873 78.7929 232.496 78.4573 232.984 77.9661C233.471 77.4749 233.802 76.8501 233.935 76.1707C234.068 75.4913 233.996 74.7878 233.729 74.1492C233.462 73.5106 233.011 72.9656 232.434 72.583C231.857 72.2005 231.18 71.9976 230.488 72C230.028 72.0016 229.573 72.0938 229.149 72.2712C228.725 72.4486 228.34 72.7078 228.016 73.0339C227.693 73.3601 227.436 73.7468 227.262 74.1721C227.087 74.5973 226.998 75.0528 227 75.5124Z" fill="white"/>
<path d="M124 131.488C124.002 132.18 123.8 132.857 123.417 133.434C123.034 134.011 122.489 134.462 121.851 134.729C121.212 134.996 120.509 135.068 119.829 134.935C119.15 134.802 118.525 134.471 118.034 133.984C117.543 133.496 117.207 132.873 117.07 132.195C116.932 131.516 116.999 130.813 117.262 130.172C117.524 129.532 117.971 128.983 118.545 128.597C119.119 128.21 119.795 128.002 120.488 128C121.415 128 122.305 128.367 122.963 129.02C123.621 129.673 123.993 130.56 124 131.488Z" fill="white"/>
<path d="M197 14.5124C196.998 15.2041 196.79 15.8795 196.404 16.4535C196.018 17.0274 195.471 17.4741 194.831 17.7371C194.191 18.0001 193.488 18.0677 192.81 17.9312C192.132 17.7948 191.509 17.4605 191.021 16.9705C190.533 16.4805 190.2 15.8569 190.066 15.1783C189.932 14.4997 190.002 13.7966 190.268 13.1578C190.533 12.5189 190.981 11.973 191.557 11.589C192.132 11.205 192.808 11 193.5 11C193.961 11 194.417 11.0909 194.842 11.2676C195.268 11.4443 195.654 11.7032 195.979 12.0295C196.304 12.3558 196.562 12.7431 196.737 13.1692C196.912 13.5952 197.002 14.0517 197 14.5124Z" fill="white"/>
<path d="M161 48.4876C161.002 49.1804 160.799 49.8583 160.416 50.4355C160.033 51.0127 159.487 51.4632 158.848 51.73C158.209 51.9968 157.505 52.0679 156.825 51.9342C156.145 51.8006 155.52 51.4682 155.03 50.9792C154.539 50.4903 154.204 49.8666 154.068 49.1874C153.932 48.5081 154.001 47.8037 154.265 47.1635C154.53 46.5232 154.978 45.9759 155.554 45.5907C156.13 45.2056 156.807 45 157.5 45C158.426 45 159.314 45.367 159.97 46.0207C160.626 46.6745 160.997 47.5615 161 48.4876Z" fill="white"/>
<path d="M295 33C295.593 33 296.173 33.2053 296.667 33.5899C297.16 33.9744 297.545 34.5211 297.772 35.1606C297.999 35.8002 298.058 36.5039 297.942 37.1828C297.827 37.8618 297.541 38.4854 297.121 38.9749C296.702 39.4644 296.167 39.7977 295.585 39.9327C295.003 40.0678 294.4 39.9985 293.852 39.7336C293.304 39.4687 292.835 39.0201 292.506 38.4445C292.176 37.8689 292 37.1922 292 36.5C292 35.5717 292.316 34.6815 292.879 34.0251C293.441 33.3687 294.204 33 295 33Z" fill="white"/>
<path d="M231 134.488C230.998 135.178 231.199 135.854 231.58 136.429C231.96 137.005 232.503 137.456 233.138 137.724C233.774 137.993 234.475 138.067 235.153 137.939C235.831 137.81 236.456 137.484 236.949 137.001C237.442 136.518 237.781 135.9 237.924 135.225C238.067 134.549 238.007 133.847 237.752 133.206C237.497 132.565 237.058 132.013 236.49 131.621C235.923 131.228 235.252 131.012 234.562 131C234.104 131 233.65 131.09 233.227 131.266C232.804 131.441 232.419 131.698 232.096 132.022C231.772 132.345 231.515 132.73 231.339 133.153C231.164 133.576 231.074 134.03 231.074 134.488H231Z" fill="white"/>
<path d="M185 112C185 112.594 185.206 113.175 185.592 113.669C185.977 114.163 186.525 114.547 187.166 114.774C187.807 115 188.512 115.058 189.192 114.941C189.872 114.823 190.495 114.535 190.984 114.114C191.472 113.692 191.803 113.156 191.936 112.572C192.068 111.989 191.995 111.385 191.726 110.837C191.458 110.289 191.005 109.822 190.426 109.495C189.848 109.168 189.169 108.996 188.475 109C188.017 109 187.563 109.078 187.14 109.229C186.716 109.38 186.332 109.601 186.009 109.88C185.686 110.159 185.431 110.49 185.258 110.854C185.084 111.217 184.997 111.607 185 112Z" fill="white"/>
<path d="M277.5 115C278.192 115 278.869 115.205 279.444 115.59C280.02 115.974 280.469 116.521 280.734 117.161C280.998 117.8 281.068 118.504 280.933 119.183C280.798 119.862 280.464 120.485 279.975 120.975C279.485 121.464 278.862 121.798 278.183 121.933C277.504 122.068 276.8 121.998 276.161 121.734C275.521 121.469 274.974 121.02 274.59 120.444C274.205 119.869 274 119.192 274 118.5C274 117.572 274.369 116.682 275.025 116.025C275.682 115.369 276.572 115 277.5 115Z" fill="white"/>
</g>
<path d="M27.3029 432.716C31.4741 422.471 46.759 406.369 64.4438 422.673C64.4438 422.673 82.1286 406.311 91.0424 422.673C91.0424 422.673 105.984 402.762 114.527 427.089C123.069 451.415 91.671 440.94 91.671 440.94C91.671 440.94 70.6435 462.814 58.9013 445.038C59.1298 445.182 18.2748 454.994 27.3029 432.716Z" fill="white"/>
<path d="M43.3029 406.716C47.4741 396.471 62.759 380.369 80.4438 396.673C80.4438 396.673 98.1286 380.311 107.042 396.673C107.042 396.673 121.984 376.762 130.527 401.089C139.069 425.415 107.671 414.94 107.671 414.94C107.671 414.94 86.6435 436.814 74.9013 419.038C75.1298 419.182 34.2748 428.994 43.3029 406.716Z" fill="white"/>
<path d="M134.681 433.284C134.681 433.284 113.944 431.714 118.663 435.171C123.382 438.629 135.625 432.971 135.312 435.484C134.999 437.998 129.971 437.368 134.999 437.994C140.026 438.62 145.676 437.368 147.559 438.311C149.443 439.255 150.725 441.439 153.061 440.973C155.397 440.508 158.859 439.882 162.63 440.195C166.4 440.508 169.223 440.195 164.513 437.681C159.803 435.167 155.406 436.411 151.952 434.545C149.447 433.178 148.029 429.094 145.101 428.37C141.063 427.367 139.061 433.284 134.681 433.284Z" fill="#E9E9E9"/>
<path opacity="0.6" d="M134.681 433.284C134.681 433.284 113.944 431.714 118.663 435.171C123.382 438.629 135.625 432.971 135.312 435.484C134.999 437.998 129.971 437.368 134.999 437.994C140.026 438.62 145.676 437.368 147.559 438.311C149.443 439.255 150.725 441.439 153.061 440.973C155.397 440.508 158.859 439.882 162.63 440.195C166.4 440.508 169.223 440.195 164.513 437.681C159.803 435.167 155.406 436.411 151.952 434.545C149.447 433.178 148.029 429.094 145.101 428.37C141.063 427.367 139.061 433.284 134.681 433.284Z" fill="#E9E9E9"/>
<path d="M63.0664 433.982C61.509 434.308 59.4523 434.765 59.4523 434.765" stroke="white" stroke-linecap="round" stroke-linejoin="round"/>
<path d="M84.5695 424.777C84.1144 424.872 83.6704 425.013 83.2449 425.201C79.2244 427.054 78.9155 430.457 78.9155 430.457C77.2559 430.464 75.6028 430.664 73.9894 431.053C71.8268 431.671 71.2089 432.598 69.9689 433.216C68.9575 433.724 66.4944 433.61 64.7847 433.72" stroke="white" stroke-linecap="round" stroke-linejoin="round"/>
<path d="M175.182 434.435C175.838 434.456 176.452 434.456 176.951 434.456C177.311 434.456 177.666 434.539 177.987 434.7C178.309 434.861 178.589 435.095 178.805 435.383" stroke="white" stroke-linecap="round" stroke-linejoin="round"/>
<path d="M155.084 431.024C155.348 431.316 155.668 431.551 156.025 431.715C156.382 431.88 156.769 431.97 157.162 431.981C160.256 432.29 163.654 428.595 167.056 430.745C170.459 432.895 171.077 433.839 172.313 434.131C172.507 434.177 172.736 434.22 172.956 434.253" stroke="white" stroke-linecap="round" stroke-linejoin="round"/>
<path d="M144.665 425.374C147.096 425.155 149.532 425.738 151.601 427.033C152.615 427.664 153.467 428.524 154.089 429.543" stroke="white" stroke-linecap="round" stroke-linejoin="round"/>
<path d="M127.478 427.959C133.661 429.199 136.137 432.289 136.137 432.289C136.304 432.193 136.478 432.109 136.658 432.039C147.602 425.31 154.855 413.613 154.855 400.299C154.855 379.426 137.051 362.511 115.074 362.511C93.097 362.511 75.2928 379.439 75.2928 400.299C75.2928 416.474 85.9914 430.27 101.028 435.662L102.001 435.704C103.728 435.199 105.336 434.351 106.728 433.211C112.945 428.268 121.295 426.724 127.478 427.959Z" fill="white"/>
<mask id="mask0_218_14537" style="mask-type:luminance" maskUnits="userSpaceOnUse" x="75" y="362" width="80" height="74">
<path d="M127.478 427.959C133.661 429.199 136.137 432.289 136.137 432.289C136.304 432.193 136.478 432.109 136.658 432.039C147.602 425.31 154.855 413.613 154.855 400.299C154.855 379.426 137.051 362.511 115.074 362.511C93.097 362.511 75.2928 379.439 75.2928 400.299C75.2928 416.474 85.9914 430.27 101.028 435.662L102.001 435.704C103.728 435.199 105.336 434.351 106.728 433.211C112.945 428.268 121.295 426.724 127.478 427.959Z" fill="white"/>
</mask>
<g mask="url(#mask0_218_14537)">
<g style="mix-blend-mode:multiply" opacity="0.5">
<path d="M115.307 362.519L101.984 368.998C101.984 368.998 106.022 373.361 113.957 374.157C121.892 374.952 123.741 372.57 123.741 372.57C123.741 372.57 127.178 381.296 135.642 384.204C144.106 387.111 148.169 386.62 151.508 393.459C154.847 400.298 150.979 405.097 150.979 405.097C150.979 405.097 152.566 407.213 151.508 409.063C150.45 410.912 150.979 411.97 148.6 411.97C146.222 411.97 143.573 410.65 143.573 410.65C144.407 411.769 145.495 412.676 146.747 413.295C148.013 413.79 149.357 414.058 150.716 414.086C150.716 414.086 149.658 417.26 144.631 421.492C139.603 425.724 136.7 426.778 131.147 426.778C125.595 426.778 120.567 423.608 112.636 428.365C107.935 431.188 105.091 433.634 103.554 435.162C104.706 434.66 105.785 434.005 106.762 433.215C112.945 428.268 121.295 426.723 127.478 427.959C133.661 429.195 136.137 432.288 136.137 432.288C136.304 432.192 136.478 432.109 136.658 432.038C147.602 425.31 154.855 413.612 154.855 400.298C154.851 379.493 137.165 362.633 115.307 362.519Z" fill="#E9E9E9"/>
</g>
</g>
<path d="M129.984 387.649C132.424 387.649 134.402 385.79 134.402 383.497C134.402 381.204 132.424 379.346 129.984 379.346C127.543 379.346 125.565 381.204 125.565 383.497C125.565 385.79 127.543 387.649 129.984 387.649Z" fill="#343030" stroke="#343030" stroke-linecap="round" stroke-linejoin="round"/>
<path d="M133.467 407.739C135.907 407.739 137.885 405.88 137.885 403.587C137.885 401.294 135.907 399.436 133.467 399.436C131.026 399.436 129.048 401.294 129.048 403.587C129.048 405.88 131.026 407.739 133.467 407.739Z" fill="#343030" stroke="#343030" stroke-linecap="round" stroke-linejoin="round"/>
<path d="M81.1118 389.57C80.8875 392.357 81.7641 395.121 83.5537 397.268" stroke="#343030" stroke-linecap="round" stroke-linejoin="round"/>
<path d="M84.8699 398.581C84.8699 398.581 86.1819 400.083 87.6842 400.46" stroke="#343030" stroke-linecap="round" stroke-linejoin="round"/>
<path d="M81.4885 401.399C81.4885 401.399 82.9909 405.344 88.0609 407.223" stroke="#343030" stroke-linecap="round" stroke-linejoin="round"/>
<path d="M80.549 395.576C80.549 395.576 82.0513 399.893 85.4327 401.958" stroke="#343030" stroke-linecap="round" stroke-linejoin="round"/>
<path d="M83.1771 407.032C84.6031 408.199 86.2716 409.034 88.0608 409.474" stroke="#343030" stroke-linecap="round" stroke-linejoin="round"/>
<path d="M86.3723 417.549C86.3723 417.549 88.4375 420.554 95.5727 421.87" stroke="#343030" stroke-linecap="round" stroke-linejoin="round"/>
<path d="M92.9446 422.995C94.108 423.59 95.392 423.911 96.6985 423.935" stroke="#343030" stroke-linecap="round" stroke-linejoin="round"/>
<path d="M137.352 376.134L160.12 350.953C160.12 350.953 161.22 337.707 162.829 337.707C164.437 337.707 164.945 338.096 164.674 340.246C164.403 342.396 162.697 349.023 162.697 349.023C162.697 349.023 167.082 344.791 169.494 341.325C171.906 337.859 174.048 332.484 176.189 332.484C178.331 332.484 178.068 334.63 176.46 337.038C174.852 339.446 158.779 356.057 159.849 356.594C160.92 357.132 171.906 348.553 172.173 350.699C172.44 352.845 154.225 362.739 150.742 365.951C147.259 369.164 138.689 379.071 138.689 379.071L137.352 376.134Z" fill="#363A5A" stroke="#363A5A" stroke-linecap="round" stroke-linejoin="round"/>
<path opacity="0.5" d="M137.352 376.134L160.12 350.953C160.12 350.953 161.22 337.707 162.829 337.707C164.437 337.707 164.945 338.096 164.674 340.246C164.403 342.396 162.697 349.023 162.697 349.023C162.697 349.023 167.082 344.791 169.494 341.325C171.906 337.859 174.048 332.484 176.189 332.484C178.331 332.484 178.068 334.63 176.46 337.038C174.852 339.446 158.779 356.057 159.849 356.594C160.92 357.132 171.906 348.553 172.173 350.699C172.44 352.845 154.225 362.739 150.742 365.951C147.259 369.164 138.689 379.071 138.689 379.071L137.352 376.134Z" fill="#363A5A"/>
<path d="M177.543 333.767L175.178 336.788" stroke="#343030" stroke-linecap="round" stroke-linejoin="round"/>
<path d="M174.391 337.444L173.21 339.023" stroke="#343030" stroke-linecap="round" stroke-linejoin="round"/>
<path d="M157.048 358.601L154.944 360.704" stroke="#343030" stroke-linecap="round" stroke-linejoin="round"/>
<path d="M70.3286 366.092L77.1591 370.557" stroke="#343030" stroke-linecap="round" stroke-linejoin="round"/>
<path d="M78.0775 371.081L80.1808 372.528" stroke="#343030" stroke-linecap="round" stroke-linejoin="round"/>
<path d="M91.0106 376.134L75.4705 366.489C67.7047 361.669 62.3512 357.915 62.3512 357.915L60.2097 342.379C59.4178 342.203 58.6089 342.113 57.7975 342.112C56.4559 342.112 56.1893 343.987 56.1893 343.987C56.1893 343.987 55.6561 343.72 57.26 347.203C58.864 350.686 59.1306 355.795 59.1306 355.795C59.1306 355.795 53.2522 350.149 49.2191 347.203C45.186 344.258 44.6654 342.379 42.524 342.125C40.3826 341.871 40.1117 345.608 41.1867 346.679C42.2616 347.749 61.8095 361.41 63.151 362.215C64.4926 363.019 55.381 360.606 53.5062 360.073C51.6314 359.54 50.5437 359.807 51.3648 361.41C52.1858 363.014 67.1672 365.431 67.1672 365.431L88.0609 379.071C88.0609 379.071 90.4943 380.417 91.0106 376.134Z" fill="#363A5A" stroke="#363A5A" stroke-linecap="round" stroke-linejoin="round"/>
<path opacity="0.5" d="M59.1306 355.795L58.7842 356.155L58.784 356.155L58.7833 356.154L58.7802 356.151L58.7677 356.139L58.7182 356.092C58.6745 356.05 58.6097 355.988 58.5258 355.909C58.3579 355.749 58.1134 355.518 57.8072 355.231C57.1949 354.658 56.3364 353.862 55.3524 352.975C53.3806 351.197 50.9187 349.064 48.9242 347.607C47.1772 346.331 46.0718 345.246 45.2313 344.421C45.0852 344.278 44.9471 344.142 44.8151 344.015C43.9232 343.155 43.3607 342.728 42.4651 342.622C42.0972 342.578 41.8335 342.698 41.6257 342.92C41.4011 343.161 41.2296 343.539 41.14 344C41.0515 344.457 41.0517 344.953 41.1326 345.388C41.2155 345.835 41.3714 346.157 41.5395 346.324C41.6422 346.427 42.0291 346.732 42.6831 347.22C43.3198 347.695 44.1741 348.318 45.1756 349.039C47.1782 350.481 49.7627 352.313 52.3565 354.138C57.5576 357.796 62.7577 361.396 63.4081 361.786C63.4612 361.818 63.5202 361.856 63.5731 361.902L63.5739 361.903C63.6064 361.931 63.7267 362.034 63.7698 362.209C63.7975 362.321 63.7917 362.459 63.7201 362.588C63.6551 362.706 63.5617 362.77 63.5018 362.802C63.3931 362.859 63.2847 362.87 63.2385 362.874C63.0391 362.89 62.7207 362.845 62.3876 362.787C61.6751 362.662 60.5893 362.416 59.4168 362.131C57.0662 361.561 54.3133 360.823 53.3694 360.554C52.9202 360.426 52.5366 360.352 52.2299 360.33C51.9119 360.308 51.7314 360.346 51.647 360.388C51.6031 360.41 51.5924 360.42 51.5883 360.482C51.5812 360.592 51.6202 360.812 51.8098 361.183C51.8086 361.18 51.8087 361.18 51.8106 361.183C51.8182 361.192 51.8546 361.235 51.9596 361.307C52.0809 361.39 52.2549 361.484 52.4846 361.588C52.9431 361.794 53.5712 362.013 54.3228 362.236C55.8227 362.682 57.7564 363.131 59.6762 363.533C61.5935 363.934 63.4865 364.285 64.9009 364.536C65.6079 364.661 66.1949 364.762 66.6049 364.831C66.8099 364.865 66.9706 364.892 67.08 364.91L67.2046 364.93L67.2364 364.936L67.2443 364.937L67.2463 364.937L67.2467 364.937C67.2468 364.937 67.2469 364.937 67.1672 365.431L67.2469 364.937L67.3517 364.954L67.4406 365.012L88.3122 378.638C88.3226 378.643 88.3389 378.65 88.3604 378.659C88.4091 378.68 88.4818 378.707 88.5708 378.729C88.7525 378.775 88.9767 378.795 89.2004 378.729C89.5671 378.62 90.1947 378.187 90.4714 376.388L75.2069 366.914L75.4705 366.489L75.2068 366.914C71.3184 364.5 68.0339 362.354 65.7211 360.81C64.5647 360.038 63.6511 359.417 63.0263 358.989C62.7139 358.775 62.4737 358.609 62.3114 358.496C62.2303 358.44 62.1686 358.397 62.1271 358.368L62.0802 358.335L62.0683 358.327L62.0652 358.325L62.0644 358.324L62.0642 358.324C62.0641 358.324 62.0641 358.324 62.3512 357.915L62.0641 358.324L61.8856 358.199L61.8558 357.983L59.7627 342.797C59.1149 342.675 58.4569 342.613 57.7972 342.612C57.4098 342.612 57.1394 342.87 56.9375 343.273C56.8405 343.467 56.7759 343.667 56.7357 343.821C56.7158 343.897 56.7024 343.959 56.6943 344.001C56.6902 344.022 56.6875 344.038 56.6859 344.048L56.6843 344.058L56.6843 344.058L56.6843 344.058L56.6842 344.058L56.6842 344.059L56.6841 344.059L56.645 344.334C56.7387 344.702 57.0113 345.468 57.7142 346.994C58.5451 348.799 59.0213 351 59.2908 352.728C59.4263 353.596 59.5109 354.354 59.5617 354.895C59.5871 355.166 59.6041 355.383 59.6147 355.533C59.6201 355.608 59.6238 355.666 59.6262 355.706L59.629 355.752L59.6296 355.764L59.6298 355.767L59.6299 355.768L59.6299 355.768C59.6299 355.768 59.6299 355.768 59.1306 355.795ZM59.1306 355.795L58.7842 356.155L59.6958 357.031L59.6299 355.768L59.1306 355.795ZM88.2995 378.631C88.299 378.631 88.299 378.631 88.2996 378.631L88.2995 378.631Z" fill="#363A5A" stroke="#363A5A"/>
<path d="M42.524 342.112C42.524 342.112 43.3704 342.176 43.3704 344.148C43.3704 346.12 42.7695 347.479 41.1655 346.687" stroke="#343030" stroke-linecap="round" stroke-linejoin="round"/>
<path d="M43.5228 347.17L46.4133 349.536" stroke="#343030" stroke-linecap="round" stroke-linejoin="round"/>
<path d="M43.2604 345.066L45.0971 346.645" stroke="#343030" stroke-linecap="round" stroke-linejoin="round"/>
<path d="M93.6556 338.058C93.6556 338.058 93.1816 333.255 90.38 329.89C88.7556 327.91 86.7639 326.261 84.5144 325.036C84.5144 325.036 87.8112 313.478 102.111 309.458C112.983 306.402 117.347 308.214 117.347 308.214C117.347 308.214 116.712 319.403 121.206 326.196C121.202 326.196 110.927 325.324 93.6556 338.058Z" fill="#363A5A" stroke="#4C4949" stroke-linecap="round" stroke-linejoin="round"/>
<path d="M88.5264 326.796C89.6691 324.348 91.3991 322.219 93.5626 320.601" stroke="white" stroke-linecap="round" stroke-linejoin="round"/>
<path d="M94.7264 319.822C94.7264 319.822 96.4658 318.853 97.8242 318.273" stroke="white" stroke-linecap="round" stroke-linejoin="round"/>
<path d="M91.0445 328.151C91.0445 328.151 93.3679 324.279 96.4658 322.535" stroke="white" stroke-linecap="round" stroke-linejoin="round"/>
<path d="M116.801 317.308C114.65 316.74 112.397 316.673 110.216 317.114" stroke="white" stroke-linecap="round" stroke-linejoin="round"/>
<path d="M106.009 320.669C99.5382 322.641 94.4767 326.822 91.6962 331.846C92.7142 333.782 93.3778 335.884 93.6557 338.054C110.927 325.32 121.202 326.204 121.202 326.204C120.001 324.304 119.113 322.224 118.57 320.043C114.396 319.197 110.078 319.413 106.009 320.669Z" fill="white" stroke="#343030" stroke-linecap="round" stroke-linejoin="round"/>
<path d="M116.061 349.718C129.738 343.782 138.61 333.864 135.876 327.564C133.142 321.265 119.838 320.97 106.161 326.906C92.4839 332.842 83.6125 342.76 86.3464 349.059C89.0802 355.359 102.384 355.653 116.061 349.718Z" fill="#343030" stroke="#343030" stroke-linecap="round" stroke-linejoin="round"/>
<path d="M116.45 351.071C130.127 345.136 138.998 335.217 136.264 328.918C133.53 322.619 120.227 322.324 106.55 328.259C92.8724 334.195 84.001 344.113 86.7348 350.413C89.4687 356.712 102.772 357.007 116.45 351.071Z" fill="#363A5A" stroke="#363A5A" stroke-linecap="round" stroke-linejoin="round"/>
<path d="M89.4363 340.453C92.9108 336.027 98.9965 331.536 106.551 328.257C117.326 323.58 127.868 322.755 133.191 325.717" stroke="white" stroke-linecap="round" stroke-linejoin="round"/>
<path d="M86.6855 345.295C87.0986 344.097 87.6678 342.958 88.3783 341.909" stroke="white" stroke-linecap="round" stroke-linejoin="round"/>
<path d="M100.355 358.85C99.9994 359.132 99.7259 359.504 99.5629 359.928C99.3999 360.351 99.3534 360.811 99.4281 361.258C99.6144 362.921 100.355 363.108 99.8006 364.407C99.2462 365.706 98.5013 366.442 99.9825 367.551C101.464 368.66 104.985 371.813 112.763 371.813C120.542 371.813 125.172 370.332 128.32 367.737C131.469 365.143 129.988 364.221 129.988 362.553C129.988 360.886 131.469 359.959 129.615 357.923C127.762 355.888 124.245 363.835 100.355 358.85Z" fill="#E9E9E9" stroke="#343030" stroke-linecap="round" stroke-linejoin="round"/>
<path opacity="0.3" d="M100.355 358.85C99.9994 359.132 99.7259 359.504 99.5629 359.928C99.3999 360.351 99.3534 360.811 99.4281 361.258C99.6144 362.921 100.355 363.108 99.8006 364.407C99.2462 365.706 98.5013 366.442 99.9825 367.551C101.464 368.66 104.985 371.813 112.763 371.813C120.542 371.813 125.172 370.332 128.32 367.737C131.469 365.143 129.988 364.221 129.988 362.553C129.988 360.886 131.469 359.959 129.615 357.923C127.762 355.888 124.245 363.835 100.355 358.85Z" fill="white"/>
<path d="M122.895 370.565C124.873 369.99 126.717 369.029 128.32 367.738C128.413 367.661 128.502 367.589 128.587 367.513C128.253 365.131 127.491 362.185 126.204 359.938C125.955 359.515 125.73 359.113 125.515 358.766C122.552 359.874 117.474 361.212 108.032 360.12L104.511 361.119C104.511 361.119 102.539 362.896 102.539 364.475V366.641L101.984 368.999C103.514 369.962 105.186 370.677 106.94 371.115L107.075 368.017C107.075 368.017 107.075 364.272 108.65 363.679C110.224 363.087 113.385 364.47 113.385 364.47L113.072 371.805C115.18 371.81 117.284 371.66 119.37 371.356C119.569 369.579 119.717 366.794 119.107 364.47L118.121 360.721L122.26 360.128C122.26 360.128 123.445 363.679 123.246 366.836C123.153 368.351 123.013 369.634 122.895 370.565Z" fill="#FE4C4C" stroke="#343030" stroke-linecap="round" stroke-linejoin="round"/>
<path d="M131.469 367.183C131.469 367.183 137.026 372.553 145.545 367.737C154.064 362.921 155.359 359.772 159.989 359.218C162.879 358.885 165.793 358.823 168.694 359.032L167.767 367.919C167.767 367.919 164.805 366.438 155.918 369.587C147.03 372.735 142.587 374.957 137.03 373.29C131.473 371.622 131.469 367.183 131.469 367.183Z" fill="#E9E9E9" stroke="#343030" stroke-linecap="round" stroke-linejoin="round"/>
<path opacity="0.4" d="M131.469 367.183C131.469 367.183 137.026 372.553 145.545 367.737C154.064 362.921 155.359 359.772 159.989 359.218C162.879 358.885 165.793 358.823 168.694 359.032L167.767 367.919C167.767 367.919 164.805 366.438 155.918 369.587C147.03 372.735 142.587 374.957 137.03 373.29C131.473 371.622 131.469 367.183 131.469 367.183Z" fill="black"/>
<path d="M162.401 359.002L160.746 368.169C165.918 367.001 167.772 367.923 167.772 367.923L168.698 359.036C166.602 358.883 164.499 358.872 162.401 359.002Z" fill="#343030" stroke="#343030" stroke-linecap="round" stroke-linejoin="round"/>
<path d="M145.426 373.193C147.712 372.592 150.268 371.636 153.408 370.493L155.791 360.789C153.768 362.084 151.588 364.094 147.386 366.659L145.426 373.193Z" fill="#343030" stroke="#343030" stroke-linecap="round" stroke-linejoin="round"/>
<path d="M117.948 364.961C117.948 364.961 122.764 363.836 124.245 366.798C125.726 369.761 127.766 374.763 135.545 378.648C143.323 382.533 152.583 380.501 159.244 379.202C165.905 377.903 170.171 379.202 170.171 379.202L171.098 368.093C171.098 368.093 164.801 363.463 157.949 366.239C151.097 369.016 142.02 371.982 136.463 369.574C130.906 367.166 129.984 360.687 126.649 360.869C126.653 360.873 118.874 363.662 117.948 364.961Z" fill="#E9E9E9" stroke="#343030" stroke-linecap="round" stroke-linejoin="round"/>
<path opacity="0.3" d="M117.948 364.961C117.948 364.961 122.764 363.836 124.245 366.798C125.726 369.761 127.766 374.763 135.545 378.648C143.323 382.533 152.583 380.501 159.244 379.202C165.905 377.903 170.171 379.202 170.171 379.202L171.098 368.093C171.098 368.093 164.801 363.463 157.949 366.239C151.097 369.016 142.02 371.982 136.463 369.574C130.906 367.166 129.984 360.687 126.649 360.869C126.653 360.873 118.874 363.662 117.948 364.961Z" fill="white"/>
<path d="M129.543 362.646L123.242 365.634C123.668 365.938 124.012 366.342 124.245 366.811C124.723 367.771 125.261 368.927 126.031 370.218L132.26 366.299C131.19 365.016 130.36 363.675 129.543 362.646Z" fill="#FE4C4C" stroke="#343030" stroke-linecap="round" stroke-linejoin="round"/>
<path d="M139.937 380.243L144.394 370.264C142.364 370.588 140.294 370.561 138.274 370.184L132.904 377.196C133.758 377.737 134.639 378.235 135.544 378.686C136.944 379.372 138.418 379.895 139.937 380.243Z" fill="#FE4C4C" stroke="#343030" stroke-linecap="round" stroke-linejoin="round"/>
<path d="M161.373 378.885L162.862 365.376C161.183 365.324 159.51 365.624 157.953 366.256C157.052 366.62 156.112 366.988 155.147 367.348L153.082 380.34C155.283 380.006 157.369 379.583 159.248 379.215C159.989 379.071 160.696 378.969 161.373 378.885Z" fill="#FE4C4C" stroke="#343030" stroke-linecap="round" stroke-linejoin="round"/>
<path d="M132.76 346.759C132.759 351.746 130.777 356.529 127.25 360.055C123.723 363.581 118.94 365.562 113.953 365.562C103.571 365.562 95.6828 359.189 95.6828 348.803C95.6828 338.418 105.802 331.075 116.187 331.075C126.573 331.075 132.76 336.374 132.76 346.759Z" fill="white"/>
<mask id="mask1_218_14537" style="mask-type:luminance" maskUnits="userSpaceOnUse" x="95" y="331" width="38" height="35">
<path d="M132.76 346.759C132.759 351.746 130.777 356.529 127.25 360.055C123.723 363.581 118.94 365.562 113.953 365.562C103.571 365.562 95.6828 359.189 95.6828 348.803C95.6828 338.418 105.802 331.075 116.187 331.075C126.573 331.075 132.76 336.374 132.76 346.759Z" fill="white"/>
<path d="M132.76 346.759C132.759 351.746 130.777 356.529 127.25 360.055C123.723 363.581 118.94 365.562 113.953 365.562C103.571 365.562 95.6828 359.189 95.6828 348.803C95.6828 338.418 105.802 331.075 116.187 331.075C126.573 331.075 132.76 336.374 132.76 346.759Z" stroke="white"/>
</mask>
<g mask="url(#mask1_218_14537)">
<g style="mix-blend-mode:multiply" opacity="0.5">
<path d="M116.187 331.075C105.802 331.075 95.6828 338.418 95.6828 348.803C95.686 350.112 95.8278 351.418 96.106 352.697C98.3575 349.552 103.639 344.165 114.507 341.63C120.476 340.285 126.706 340.703 132.442 342.832C131.008 335.058 125.172 331.075 116.187 331.075Z" fill="#E9E9E9"/>
<path d="M116.187 331.075C105.802 331.075 95.6828 338.418 95.6828 348.803C95.686 350.112 95.8278 351.418 96.106 352.697C98.3575 349.552 103.639 344.165 114.507 341.63C120.476 340.285 126.706 340.703 132.442 342.832C131.008 335.058 125.172 331.075 116.187 331.075Z" stroke="white"/>
</g>
<g style="mix-blend-mode:multiply" opacity="0.5">
<path d="M130.627 355.452C132.024 352.768 132.75 349.785 132.743 346.759C132.743 343.374 132.083 340.547 130.843 338.253C130.877 341.957 130.528 345.654 129.802 349.286C129.197 347.88 128.318 346.61 127.216 345.549C125.265 343.7 121.359 343.598 120.639 345.972C120.639 345.972 121.151 349.159 123.005 350.082C124.338 350.684 125.76 351.066 127.216 351.211C127.494 351.823 127.878 352.38 128.35 352.858C128.49 352.976 128.6 353.065 128.697 353.141C126.344 359.532 122.214 362.321 117.139 363.721C112.137 365.11 106.762 363.946 103.258 362.79C106.499 364.668 110.191 365.625 113.936 365.558C117.374 365.558 120.746 364.616 123.686 362.833C126.626 361.051 129.021 358.496 130.61 355.448L130.627 355.452Z" fill="#E9E9E9"/>
<path d="M130.627 355.452C132.024 352.768 132.75 349.785 132.743 346.759C132.743 343.374 132.083 340.547 130.843 338.253C130.877 341.957 130.528 345.654 129.802 349.286C129.197 347.88 128.318 346.61 127.216 345.549C125.265 343.7 121.359 343.598 120.639 345.972C120.639 345.972 121.151 349.159 123.005 350.082C124.338 350.684 125.76 351.066 127.216 351.211C127.494 351.823 127.878 352.38 128.35 352.858C128.49 352.976 128.6 353.065 128.697 353.141C126.344 359.532 122.214 362.321 117.139 363.721C112.137 365.11 106.762 363.946 103.258 362.79C106.499 364.668 110.191 365.625 113.936 365.558C117.374 365.558 120.746 364.616 123.686 362.833C126.626 361.051 129.021 358.496 130.61 355.448L130.627 355.452Z" stroke="white"/>
</g>
</g>
<path d="M132.76 346.759C132.759 351.746 130.777 356.529 127.25 360.055C123.723 363.581 118.94 365.562 113.953 365.562C103.571 365.562 95.6828 359.189 95.6828 348.803C95.6828 338.418 105.802 331.075 116.187 331.075C126.573 331.075 132.76 336.374 132.76 346.759Z" stroke="#343030" stroke-linecap="round" stroke-linejoin="round"/>
<path d="M119.116 339.29C119.505 340.302 119.437 341.271 118.972 341.449C118.506 341.626 117.804 340.958 117.414 339.942C117.025 338.926 117.093 337.961 117.558 337.784C118.024 337.606 118.722 338.27 119.116 339.29Z" fill="#343030"/>
<path d="M124.939 338.228C125.328 339.239 125.265 340.204 124.795 340.386C124.325 340.568 123.631 339.891 123.242 338.88C122.853 337.868 122.916 336.899 123.386 336.717C123.856 336.535 124.55 337.212 124.939 338.228Z" fill="#343030"/>
<path d="M116.615 354.144C116.615 354.144 109.136 353.721 110.635 346.67" stroke="#343030" stroke-linecap="round" stroke-linejoin="round"/>
<path d="M112.772 346.454L108.925 346.882" stroke="#343030" stroke-linecap="round" stroke-linejoin="round"/>
<path d="M97.638 346.379C97.638 346.379 97.638 347.695 99.517 348.635" stroke="#343030" stroke-linecap="round" stroke-linejoin="round"/>
<path d="M98.2009 349.383C98.2009 349.383 99.7032 350.699 101.019 350.699" stroke="#343030" stroke-linecap="round" stroke-linejoin="round"/>
<path d="M114.964 336.437C115.047 335.814 115.363 335.246 115.848 334.846C116.334 334.446 116.952 334.245 117.579 334.283" stroke="#343030" stroke-linecap="round" stroke-linejoin="round"/>
<path d="M122.269 334.283C122.269 334.283 124.109 333.36 125.032 335.282" stroke="#343030" stroke-linecap="round" stroke-linejoin="round"/>
<path d="M122.611 341.021C121.664 341.683 120.959 342.637 120.605 343.738C120.14 345.452 120.935 348.012 122.954 348.274C124.343 348.387 125.738 348.168 127.025 347.635C128.506 347.881 130.022 347.818 131.478 347.449C133.894 346.84 133.742 345.532 133.742 345.532C133.742 345.532 134.436 345.782 136.831 345.007C139.226 344.233 139.51 342.375 139.51 342.375C139.51 342.375 140.018 342.481 141.922 341.761C143.827 341.042 145.63 340.834 145.676 339.836C145.723 338.837 139.929 338.845 138.638 339.163C137.347 339.48 136.167 339.281 134.529 339.472C133.58 339.573 132.657 339.849 131.808 340.284C131.808 340.284 129.751 339.696 128.443 339.861C127.726 339.938 127.018 340.079 126.327 340.284C126.327 340.284 123.441 339.599 122.611 341.021Z" fill="#FFA403" stroke="#FFA403" stroke-linecap="round" stroke-linejoin="round"/>
<path d="M126.336 340.255C126.018 340.481 125.763 340.785 125.597 341.138C125.43 341.491 125.357 341.88 125.383 342.269" stroke="#986305" stroke-linecap="round" stroke-linejoin="round"/>
<path d="M125.383 343.276C125.337 343.766 125.467 344.255 125.752 344.656" stroke="#986305" stroke-linecap="round" stroke-linejoin="round"/>
<path d="M132.176 342.252C132.033 342.893 132.11 343.563 132.394 344.154C132.678 344.746 133.153 345.225 133.742 345.515" stroke="#986305" stroke-linecap="round" stroke-linejoin="round"/>
<path d="M138.786 339.882C138.786 339.882 138.511 340.246 138.879 341.151" stroke="#986305" stroke-linecap="round" stroke-linejoin="round"/>
<path opacity="0.6" d="M90.8035 192.374C90.8035 192.374 64.9968 188.198 70.8692 197.395C76.7415 206.592 91.978 191.541 91.5882 198.228C91.1985 204.915 84.9417 203.238 91.1985 204.904C97.4553 206.57 104.486 203.238 106.83 205.748C109.174 208.259 110.769 214.067 113.677 212.829C116.584 211.591 120.892 209.925 125.585 210.758C130.277 211.591 133.79 210.758 127.928 204.071C122.066 197.384 116.594 200.694 112.297 195.729C109.179 192.093 107.415 181.23 103.77 179.305C98.7456 176.637 96.2545 192.374 90.8035 192.374Z" fill="#E9E9E9"/>
<path opacity="0.6" d="M205.913 216.595C205.913 216.595 181.299 210.492 186.24 219.853C191.181 229.215 193.467 220.323 192.555 226.756C191.643 233.189 199.377 226.628 205.292 228.739C211.207 230.851 215.188 233.605 217.253 236.22C219.317 238.834 223.479 239.164 226.389 238.2C229.298 237.235 241.644 240.558 246.113 241.739C250.583 242.919 245.999 237.807 240.867 230.873C235.735 223.94 230.18 226.701 226.423 221.558C223.7 217.793 222.864 207.15 219.494 204.997C214.85 202.016 211.183 217.031 205.913 216.595Z" fill="#E9E9E9"/>
<defs>
<filter id="filter0_d_218_14537" x="0" y="0" width="353" height="183" filterUnits="userSpaceOnUse" color-interpolation-filters="sRGB">
<feFlood flood-opacity="0" result="BackgroundImageFix"/>
<feColorMatrix in="SourceAlpha" type="matrix" values="0 0 0 0 0 0 0 0 0 0 0 0 0 0 0 0 0 0 127 0" result="hardAlpha"/>
<feOffset/>
<feGaussianBlur stdDeviation="0.5"/>
<feComposite in2="hardAlpha" operator="out"/>
<feColorMatrix type="matrix" values="0 0 0 0 0 0 0 0 0 0 0 0 0 0 0 0 0 0 0.24 0"/>
<feBlend mode="normal" in2="BackgroundImageFix" result="effect1_dropShadow_218_14537"/>
<feBlend mode="normal" in="SourceGraphic" in2="effect1_dropShadow_218_14537" result="shape"/>
</filter>
</defs>
</svg>
