<svg width="1000" height="1000" viewBox="0 0 1000 1000" fill="none" xmlns="http://www.w3.org/2000/svg">
<path d="M543.016 842.949H494.518V968.591H543.016V842.949Z" fill="#A33434"/>
<path d="M503.008 403.733L277.186 797.026C265.516 817.487 280.217 842.949 303.709 842.949H734.892C758.687 842.949 773.388 816.881 761.112 796.572L524.681 403.581C519.831 396.155 507.706 396.306 503.008 403.733Z" fill="#2BB673"/>
<g opacity="0.19">
<path opacity="0.19" d="M761.113 796.572L524.682 403.581C519.833 396.155 507.708 396.306 503.01 403.884L482.246 440.107L606.676 675.325C631.077 721.551 599.855 777.779 547.719 781.264L275.672 799.906C266.73 819.76 281.28 842.949 303.71 842.949H734.894C758.689 842.949 773.39 817.032 761.113 796.572Z" fill="#1C5B3E"/>
<path opacity="0.19" d="M761.113 796.572L524.682 403.581C519.833 396.155 507.708 396.306 503.01 403.884L482.246 440.107L606.676 675.325C631.077 721.551 599.855 777.779 547.719 781.264L275.672 799.906C266.73 819.76 281.28 842.949 303.71 842.949H734.894C758.689 842.949 773.39 817.032 761.113 796.572Z" stroke="#1C5B3E" stroke-width="10" stroke-miterlimit="10" stroke-linecap="round" stroke-linejoin="round"/>
</g>
<g opacity="0.4">
<path opacity="0.4" d="M674.42 653.804C674.723 653.804 674.875 653.804 675.178 653.804L524.681 403.581C519.831 396.155 507.706 396.306 503.008 403.884L348.115 673.658L674.42 653.804Z" fill="#1C5B3E"/>
<path opacity="0.4" d="M674.42 653.804C674.723 653.804 674.875 653.804 675.178 653.804L524.681 403.581C519.831 396.155 507.706 396.306 503.008 403.884L348.115 673.658L674.42 653.804Z" stroke="#1C5B3E" stroke-width="10" stroke-miterlimit="10" stroke-linecap="round" stroke-linejoin="round"/>
</g>
<path d="M503.006 403.733L277.184 797.026C265.514 817.487 280.215 842.949 303.707 842.949H734.89C758.685 842.949 773.386 816.881 761.11 796.572L524.679 403.581C519.829 396.155 507.704 396.306 503.006 403.733Z" stroke="#1C5B3E" stroke-width="10" stroke-miterlimit="10" stroke-linecap="round" stroke-linejoin="round"/>
<path d="M470.421 364.328L322.804 616.824C312.498 634.557 325.986 656.684 346.598 655.472L673.358 635.769C693.97 634.557 704.731 610.762 692.151 594.394L513.009 361.6C501.946 347.05 479.667 348.566 470.421 364.328Z" fill="#2BB673"/>
<path opacity="0.19" d="M692.152 594.394L513.01 361.6C501.946 347.202 479.667 348.566 470.422 364.328L465.724 372.361L564.085 519.069C584.242 549.229 565.601 589.999 529.681 594.545L321.137 620.462C314.317 637.436 327.503 656.684 346.599 655.623L673.359 635.921C693.971 634.557 704.731 610.762 692.152 594.394Z" fill="#1C5B3E" stroke="#1C5B3E" stroke-width="10" stroke-miterlimit="10" stroke-linecap="round" stroke-linejoin="round"/>
<path d="M470.421 364.328L322.804 616.824C312.498 634.557 325.986 656.684 346.598 655.472L673.358 635.769C693.97 634.557 704.731 610.762 692.151 594.394L513.009 361.6C501.946 347.05 479.667 348.566 470.421 364.328Z" stroke="#1C5B3E" stroke-width="10" stroke-miterlimit="10" stroke-linecap="round" stroke-linejoin="round"/>
<path d="M470.421 364.328L322.804 616.824C312.498 634.557 325.986 656.684 346.598 655.472L673.358 635.769C693.97 634.557 704.731 610.762 692.151 594.394L513.009 361.6C501.946 347.05 479.667 348.566 470.421 364.328Z" stroke="#1C5B3E" stroke-width="10" stroke-miterlimit="10" stroke-linecap="round" stroke-linejoin="round"/>
<path d="M464.36 268.694L355.541 458.294C344.023 478.3 361.755 502.246 384.186 497.396L601.823 449.352C620.768 445.108 628.952 422.678 617.131 407.37L508.463 265.815C496.793 250.659 473.757 252.326 464.36 268.694Z" fill="#2BB673"/>
<path opacity="0.19" d="M617.132 407.219L508.465 265.663C496.946 250.659 473.909 252.175 464.513 268.543L463.906 269.604L521.499 349.02C545.293 381.909 529.683 428.285 490.732 439.955L353.875 481.179C358.422 492.395 370.395 500.124 384.187 497.093L601.824 449.049C620.769 445.108 628.953 422.678 617.132 407.219Z" fill="#1C5B3E" stroke="#1C5B3E" stroke-width="10" stroke-miterlimit="10" stroke-linecap="round" stroke-linejoin="round"/>
<path opacity="0.4" d="M545.293 310.98L510.586 265.815C499.068 250.811 476.031 252.326 466.634 268.695L442.385 310.98H545.293Z" fill="#1C5B3E" stroke="#1C5B3E" stroke-width="10" stroke-miterlimit="10" stroke-linecap="round" stroke-linejoin="round"/>
<path d="M466.483 268.694L357.664 458.294C346.146 478.3 363.878 502.246 386.309 497.396L603.946 449.352C622.891 445.108 631.075 422.678 619.254 407.37L510.586 265.815C499.068 250.659 475.88 252.326 466.483 268.694Z" stroke="#1C5B3E" stroke-width="10" stroke-miterlimit="10" stroke-linecap="round" stroke-linejoin="round"/>
<path d="M466.481 268.694L357.662 458.294C346.144 478.3 363.876 502.246 386.307 497.396L603.944 449.352C622.889 445.108 631.073 422.678 619.252 407.37L510.585 265.815C499.066 250.659 475.878 252.326 466.481 268.694Z" stroke="#1C5B3E" stroke-width="10" stroke-miterlimit="10" stroke-linecap="round" stroke-linejoin="round"/>
<path d="M537.562 292.792C551.961 292.792 560.448 276.575 552.264 264.754L493.307 179.729C489.367 174.122 479.819 174.576 476.788 180.639L432.078 266.876C425.864 278.697 434.503 292.944 447.84 292.944H537.562V292.792Z" fill="#2BB673"/>
<path d="M537.562 292.792C551.961 292.792 560.448 276.575 552.264 264.754L493.307 179.729C489.367 174.122 479.819 174.576 476.788 180.639L432.078 266.876C425.864 278.697 434.503 292.944 447.84 292.944H537.562V292.792Z" fill="#2BB673"/>
<path opacity="0.19" d="M552.11 264.754L493.154 179.729C489.213 174.122 479.665 174.576 476.634 180.639L471.33 190.793L499.368 237.776C506.946 250.356 498.61 266.572 484.06 267.785L429.954 272.635C428.59 282.789 436.471 292.792 447.686 292.792H537.561C551.959 292.792 560.446 276.575 552.11 264.754Z" fill="#1C5B3E" stroke="#1C5B3E" stroke-width="10" stroke-miterlimit="10" stroke-linecap="round" stroke-linejoin="round"/>
<path opacity="0.4" d="M493.155 179.729C489.215 174.122 479.667 174.576 476.635 180.639L456.023 220.499C460.873 220.347 465.572 219.135 469.815 216.861L487.851 207.313L505.886 216.861C510.433 219.286 515.586 220.499 520.739 220.499C521.042 220.499 521.194 220.499 521.497 220.499L493.155 179.729Z" fill="#1C5B3E" stroke="#1C5B3E" stroke-width="10" stroke-miterlimit="10" stroke-linecap="round" stroke-linejoin="round"/>
<path d="M537.562 292.792C551.961 292.792 560.448 276.575 552.264 264.754L493.307 179.729C489.367 174.122 479.819 174.576 476.788 180.639L432.078 266.876C425.864 278.697 434.503 292.944 447.84 292.944H537.562V292.792Z" stroke="#1C5B3E" stroke-width="10" stroke-miterlimit="10" stroke-linecap="round" stroke-linejoin="round"/>
<path d="M473 137.899C480.868 137.899 487.247 131.52 487.247 123.653C487.247 115.784 480.868 109.406 473 109.406C465.132 109.406 458.754 115.784 458.754 123.653C458.754 131.52 465.132 137.899 473 137.899Z" fill="white"/>
<path opacity="0.42" d="M509.224 161.088C514.497 161.088 518.772 156.812 518.772 151.539C518.772 146.265 514.497 141.991 509.224 141.991C503.95 141.991 499.676 146.265 499.676 151.539C499.676 156.812 503.95 161.088 509.224 161.088Z" fill="white"/>
<path opacity="0.42" d="M505.587 182.305C509.269 182.305 512.255 179.32 512.255 175.637C512.255 171.954 509.269 168.968 505.587 168.968C501.904 168.968 498.918 171.954 498.918 175.637C498.918 179.32 501.904 182.305 505.587 182.305Z" fill="white"/>
<path d="M500.129 81.2164L510.283 101.677C512.254 105.769 516.194 108.497 520.589 109.103L543.171 112.437C554.387 114.105 558.934 127.896 550.749 135.777L534.381 151.691C531.198 154.874 529.683 159.421 530.441 163.816L534.229 186.246C536.2 197.462 524.378 205.949 514.375 200.644L494.218 190.035C490.278 187.913 485.428 187.913 481.487 190.035L461.33 200.644C451.327 205.949 439.506 197.462 441.476 186.246L445.265 163.816C446.023 159.421 444.507 154.874 441.324 151.691L424.956 135.777C416.772 127.896 421.319 114.105 432.534 112.437L455.116 109.103C459.511 108.497 463.452 105.617 465.422 101.677L475.576 81.2164C480.578 71.062 495.127 71.062 500.129 81.2164Z" stroke="#F58300" stroke-width="10" stroke-miterlimit="10" stroke-linecap="round" stroke-linejoin="round"/>
<path d="M540.748 290.405C555.146 290.405 563.633 274.188 555.449 262.366L496.493 177.342C492.552 171.735 483.004 172.189 479.973 178.252L435.263 264.488C429.049 276.31 437.688 290.556 451.025 290.556H540.748V290.405Z" stroke="#1C5B3E" stroke-width="10" stroke-miterlimit="10" stroke-linecap="round" stroke-linejoin="round"/>
<path d="M498.765 69.8878L514.528 101.715C515.74 104.292 518.316 106.11 521.045 106.413L556.206 111.566C563.329 112.627 566.209 121.418 561.056 126.419L535.594 151.123C533.472 153.093 532.563 155.973 533.169 158.853L539.232 193.863C540.444 200.986 533.018 206.442 526.652 202.956L495.28 186.436C492.703 185.072 489.672 185.072 487.247 186.436L455.874 202.956C449.509 206.29 442.083 200.834 443.295 193.863L449.357 158.853C449.812 155.973 448.903 153.093 446.933 151.123L421.471 126.419C416.318 121.418 419.197 112.627 426.321 111.566L461.482 106.413C464.362 105.959 466.787 104.292 467.999 101.715L483.761 69.8878C486.338 63.3707 495.583 63.3707 498.765 69.8878Z" fill="#FFA205"/>
<path d="M495.144 98.7069L503.851 116.333C504.52 117.76 505.944 118.767 507.451 118.935L526.873 121.789C530.808 122.376 532.399 127.245 529.552 130.015L515.488 143.696C514.315 144.787 513.813 146.382 514.148 147.977L517.497 167.365C518.166 171.31 514.064 174.332 510.548 172.401L493.219 163.253C491.795 162.497 490.121 162.497 488.781 163.253L471.452 172.401C467.936 174.248 463.834 171.226 464.503 167.365L467.852 147.977C468.103 146.382 467.601 144.787 466.512 143.696L452.448 130.015C449.601 127.245 451.192 122.376 455.127 121.789L474.549 118.935C476.14 118.683 477.48 117.76 478.149 116.333L486.856 98.7069C488.279 95.0977 493.386 95.0977 495.144 98.7069Z" fill="#F6D49A"/>
<path d="M503.312 78.8297L513.467 99.2901C515.437 103.382 519.378 106.11 523.773 106.716L546.355 110.051C557.57 111.718 562.117 125.51 553.933 133.391L537.565 149.304C534.382 152.487 532.866 157.034 533.624 161.429L537.413 183.86C539.383 195.075 527.562 203.562 517.559 198.258L497.402 187.649C493.461 185.527 488.611 185.527 484.671 187.649L464.514 198.258C454.511 203.562 442.689 195.075 444.659 183.86L448.448 161.429C449.206 157.034 447.691 152.487 444.508 149.304L428.14 133.391C419.955 125.51 424.502 111.718 435.717 110.051L458.3 106.716C462.695 106.11 466.635 103.231 468.606 99.2901L478.76 78.8297C483.761 68.6753 498.311 68.6753 503.312 78.8297Z" stroke="#F58300" stroke-width="10" stroke-miterlimit="10" stroke-linecap="round" stroke-linejoin="round"/>
<path d="M361.906 466.175C373.96 466.175 383.731 456.404 383.731 444.35C383.731 432.297 373.96 422.526 361.906 422.526C349.853 422.526 340.082 432.297 340.082 444.35C340.082 456.404 349.853 466.175 361.906 466.175Z" fill="#FF3E4C"/>
<path opacity="0.56" d="M370.545 424.346C372.212 427.378 373.121 430.863 373.121 434.501C373.121 446.474 363.422 456.325 351.297 456.325C348.266 456.325 345.386 455.719 342.658 454.507C346.296 461.327 353.57 466.025 361.906 466.025C373.879 466.025 383.73 456.325 383.73 444.201C383.73 435.41 378.274 427.681 370.545 424.346Z" fill="#FF3E4C"/>
<path d="M361.906 466.175C373.96 466.175 383.731 456.404 383.731 444.35C383.731 432.297 373.96 422.526 361.906 422.526C349.853 422.526 340.082 432.297 340.082 444.35C340.082 456.404 349.853 466.175 361.906 466.175Z" stroke="#1C5B3E" stroke-width="6" stroke-miterlimit="10" stroke-linecap="round" stroke-linejoin="round"/>
<path opacity="0.59" d="M357.128 438.25C358.63 436.343 358.677 433.875 357.231 432.735C355.784 431.594 353.394 432.215 351.89 434.122C350.388 436.028 350.341 438.497 351.787 439.637C353.233 440.778 355.624 440.157 357.128 438.25Z" fill="white"/>
<path d="M617.887 664.11C629.94 664.11 639.711 654.339 639.711 642.286C639.711 630.232 629.94 620.461 617.887 620.461C605.833 620.461 596.062 630.232 596.062 642.286C596.062 654.339 605.833 664.11 617.887 664.11Z" fill="#FF3E4C"/>
<path opacity="0.56" d="M626.525 622.28C628.193 625.311 629.102 628.797 629.102 632.435C629.102 644.408 619.402 654.259 607.278 654.259C604.246 654.259 601.367 653.653 598.639 652.44C602.276 659.26 609.551 663.959 617.887 663.959C629.86 663.959 639.711 654.259 639.711 642.134C639.711 633.344 634.255 625.615 626.525 622.28Z" fill="#FF3E4C"/>
<path d="M617.887 664.11C629.94 664.11 639.711 654.339 639.711 642.286C639.711 630.232 629.94 620.461 617.887 620.461C605.833 620.461 596.062 630.232 596.062 642.286C596.062 654.339 605.833 664.11 617.887 664.11Z" stroke="#1C5B3E" stroke-width="6" stroke-miterlimit="10" stroke-linecap="round" stroke-linejoin="round"/>
<path opacity="0.59" d="M613.17 636.265C614.673 634.359 614.72 631.888 613.273 630.749C611.827 629.609 609.437 630.229 607.934 632.135C606.43 634.042 606.385 636.511 607.831 637.652C609.276 638.792 611.668 638.17 613.17 636.265Z" fill="white"/>
<path d="M373.274 804.15C385.327 804.15 395.098 794.379 395.098 782.326C395.098 770.272 385.327 760.501 373.274 760.501C361.22 760.501 351.449 770.272 351.449 782.326C351.449 794.379 361.22 804.15 373.274 804.15Z" fill="#FF3E4C"/>
<path opacity="0.56" d="M381.91 762.471C383.577 765.502 384.487 768.988 384.487 772.626C384.487 784.599 374.787 794.45 362.662 794.45C359.631 794.45 356.751 793.844 354.023 792.631C357.661 799.451 364.936 804.15 373.271 804.15C385.244 804.15 395.096 794.45 395.096 782.325C395.096 773.383 389.64 765.805 381.91 762.471Z" fill="#FF3E4C"/>
<path d="M373.274 804.15C385.327 804.15 395.098 794.379 395.098 782.326C395.098 770.272 385.327 760.501 373.274 760.501C361.22 760.501 351.449 770.272 351.449 782.326C351.449 794.379 361.22 804.15 373.274 804.15Z" stroke="#1C5B3E" stroke-width="6" stroke-miterlimit="10" stroke-linecap="round" stroke-linejoin="round"/>
<path opacity="0.59" d="M368.402 776.432C369.906 774.525 369.951 772.056 368.505 770.915C367.06 769.775 364.668 770.397 363.166 772.303C361.663 774.208 361.617 776.679 363.063 777.818C364.509 778.958 366.899 778.338 368.402 776.432Z" fill="white"/>
<path d="M488.002 501.943C500.056 501.943 509.827 492.172 509.827 480.118C509.827 468.065 500.056 458.294 488.002 458.294C475.949 458.294 466.178 468.065 466.178 480.118C466.178 492.172 475.949 501.943 488.002 501.943Z" fill="#FF3E4C"/>
<path opacity="0.56" d="M496.639 460.113C498.306 463.144 499.215 466.63 499.215 470.267C499.215 482.24 489.515 492.092 477.391 492.092C474.36 492.092 471.48 491.485 468.752 490.273C472.389 497.093 479.664 501.791 488 501.791C499.973 501.791 509.824 492.092 509.824 479.967C509.824 471.177 504.368 463.447 496.639 460.113Z" fill="#FF3E4C"/>
<path d="M488.002 501.943C500.056 501.943 509.827 492.172 509.827 480.118C509.827 468.065 500.056 458.294 488.002 458.294C475.949 458.294 466.178 468.065 466.178 480.118C466.178 492.172 475.949 501.943 488.002 501.943Z" stroke="#1C5B3E" stroke-width="6" stroke-miterlimit="10" stroke-linecap="round" stroke-linejoin="round"/>
<path opacity="0.59" d="M483.257 474.086C484.76 472.179 484.806 469.711 483.36 468.571C481.914 467.43 479.522 468.051 478.019 469.958C476.517 471.864 476.47 474.333 477.916 475.473C479.363 476.614 481.753 475.993 483.257 474.086Z" fill="white"/>
<path d="M490.276 390.093C497.725 390.093 503.764 384.055 503.764 376.604C503.764 369.155 497.725 363.116 490.276 363.116C482.825 363.116 476.787 369.155 476.787 376.604C476.787 384.055 482.825 390.093 490.276 390.093Z" fill="#FF9A3E"/>
<path opacity="0.56" d="M495.58 364.328C496.641 366.147 497.096 368.42 497.096 370.693C497.096 378.12 491.034 384.182 483.607 384.182C481.789 384.182 479.97 383.727 478.303 383.121C480.576 387.365 484.971 390.244 490.124 390.244C497.551 390.244 503.613 384.182 503.613 376.756C503.765 371.148 500.43 366.298 495.58 364.328Z" fill="#FF3E4C"/>
<path d="M490.276 390.093C497.725 390.093 503.764 384.055 503.764 376.604C503.764 369.155 497.725 363.116 490.276 363.116C482.825 363.116 476.787 369.155 476.787 376.604C476.787 384.055 482.825 390.093 490.276 390.093Z" stroke="#1C5B3E" stroke-width="4" stroke-miterlimit="10" stroke-linecap="round" stroke-linejoin="round"/>
<path opacity="0.59" d="M487.393 372.891C488.325 371.707 488.336 370.16 487.416 369.434C486.496 368.709 484.993 369.079 484.061 370.263C483.127 371.447 483.116 372.994 484.038 373.718C484.958 374.444 486.46 374.073 487.393 372.891Z" fill="white"/>
<path d="M560.45 522.857C567.899 522.857 573.938 516.818 573.938 509.369C573.938 501.918 567.899 495.88 560.45 495.88C553.001 495.88 546.961 501.918 546.961 509.369C546.961 516.818 553.001 522.857 560.45 522.857Z" fill="#FF9A3E"/>
<path opacity="0.56" d="M565.754 497.092C566.815 498.911 567.27 501.184 567.27 503.458C567.27 510.884 561.207 516.946 553.781 516.946C551.962 516.946 550.144 516.492 548.477 515.886C550.75 520.129 555.145 523.009 560.298 523.009C567.724 523.009 573.787 516.946 573.787 509.52C573.938 503.912 570.604 499.063 565.754 497.092Z" fill="#FF3E4C"/>
<path d="M560.45 522.857C567.899 522.857 573.938 516.818 573.938 509.369C573.938 501.918 567.899 495.88 560.45 495.88C553.001 495.88 546.961 501.918 546.961 509.369C546.961 516.818 553.001 522.857 560.45 522.857Z" stroke="#1C5B3E" stroke-width="4" stroke-miterlimit="10" stroke-linecap="round" stroke-linejoin="round"/>
<path opacity="0.59" d="M557.464 505.742C558.396 504.558 558.406 503.011 557.486 502.286C556.566 501.56 555.063 501.932 554.131 503.114C553.197 504.298 553.187 505.845 554.108 506.571C555.028 507.295 556.53 506.926 557.464 505.742Z" fill="white"/>
<path d="M458.752 624.099C469.382 624.099 478 615.481 478 604.851C478 594.221 469.382 585.603 458.752 585.603C448.121 585.603 439.504 594.221 439.504 604.851C439.504 615.481 448.121 624.099 458.752 624.099Z" fill="#FF9A3E"/>
<path opacity="0.56" d="M466.33 587.27C467.694 589.998 468.603 593.029 468.603 596.212C468.603 606.821 459.964 615.46 449.355 615.46C446.627 615.46 444.051 614.854 441.777 613.944C444.96 620.007 451.325 624.099 458.752 624.099C469.361 624.099 478 615.46 478 604.851C477.848 596.97 473.15 590.15 466.33 587.27Z" fill="#FF3E4C"/>
<path d="M458.752 624.099C469.382 624.099 478 615.481 478 604.851C478 594.221 469.382 585.603 458.752 585.603C448.121 585.603 439.504 594.221 439.504 604.851C439.504 615.481 448.121 624.099 458.752 624.099Z" stroke="#1C5B3E" stroke-width="4" stroke-miterlimit="10" stroke-linecap="round" stroke-linejoin="round"/>
<path opacity="0.59" d="M454.45 599.51C455.797 597.802 455.877 595.618 454.629 594.633C453.38 593.648 451.275 594.236 449.927 595.944C448.578 597.653 448.5 599.837 449.748 600.823C450.997 601.806 453.102 601.22 454.45 599.51Z" fill="white"/>
<path d="M733.225 774.142C740.674 774.142 746.714 768.102 746.714 760.653C746.714 753.203 740.674 747.165 733.225 747.165C725.776 747.165 719.736 753.203 719.736 760.653C719.736 768.102 725.776 774.142 733.225 774.142Z" fill="#FF9A3E"/>
<path opacity="0.56" d="M738.53 748.226C739.591 750.045 740.045 752.318 740.045 754.591C740.045 762.018 733.983 768.08 726.556 768.08C724.738 768.08 722.919 767.625 721.252 767.019C723.525 771.263 727.921 774.142 733.073 774.142C740.5 774.142 746.562 768.08 746.562 760.654C746.562 755.046 743.228 750.348 738.53 748.226Z" fill="#FF3E4C"/>
<path d="M733.225 774.142C740.674 774.142 746.714 768.102 746.714 760.653C746.714 753.203 740.674 747.165 733.225 747.165C725.776 747.165 719.736 753.203 719.736 760.653C719.736 768.102 725.776 774.142 733.225 774.142Z" stroke="#1C5B3E" stroke-width="4" stroke-miterlimit="10" stroke-linecap="round" stroke-linejoin="round"/>
<path opacity="0.59" d="M730.298 756.969C731.232 755.786 731.241 754.239 730.321 753.513C729.401 752.787 727.899 753.159 726.966 754.341C726.034 755.524 726.023 757.072 726.943 757.798C727.863 758.524 729.366 758.152 730.298 756.969Z" fill="white"/>
<path d="M536.655 389.941C538.17 395.7 534.533 401.611 528.773 403.127C523.014 404.642 517.103 401.005 515.588 395.245" stroke="#1C5B3E" stroke-width="4" stroke-miterlimit="10" stroke-linecap="round" stroke-linejoin="round"/>
<path d="M557.873 384.788C559.389 390.547 555.751 396.458 549.992 397.974C544.233 399.489 538.322 395.852 536.807 390.093" stroke="#1C5B3E" stroke-width="4" stroke-miterlimit="10" stroke-linecap="round" stroke-linejoin="round"/>
<path d="M487.094 249.75C488.61 255.509 484.972 261.42 479.213 262.935C473.454 264.451 467.543 260.813 466.027 255.054" stroke="#1C5B3E" stroke-width="4" stroke-miterlimit="10" stroke-linecap="round" stroke-linejoin="round"/>
<path d="M442.08 436.014C443.596 441.774 439.958 447.684 434.199 449.2C428.44 450.716 422.529 447.078 421.014 441.319" stroke="#1C5B3E" stroke-width="4" stroke-miterlimit="10" stroke-linecap="round" stroke-linejoin="round"/>
<path d="M582.272 563.475C583.787 569.234 580.15 575.145 574.391 576.66C568.631 578.176 562.721 574.539 561.205 568.779" stroke="#1C5B3E" stroke-width="4" stroke-miterlimit="10" stroke-linecap="round" stroke-linejoin="round"/>
<path d="M603.49 558.17C605.006 563.93 601.369 569.84 595.609 571.356C589.85 572.871 583.939 569.234 582.424 563.475" stroke="#1C5B3E" stroke-width="4" stroke-miterlimit="10" stroke-linecap="round" stroke-linejoin="round"/>
<path d="M437.08 538.468C438.596 544.227 434.958 550.138 429.199 551.654C423.44 553.169 417.529 549.532 416.014 543.773" stroke="#1C5B3E" stroke-width="4" stroke-miterlimit="10" stroke-linecap="round" stroke-linejoin="round"/>
<path d="M458.147 533.164C459.662 538.923 456.025 544.833 450.266 546.349C444.506 547.865 438.596 544.227 437.08 538.468" stroke="#1C5B3E" stroke-width="4" stroke-miterlimit="10" stroke-linecap="round" stroke-linejoin="round"/>
<path d="M426.621 710.79C428.137 716.549 424.499 722.46 418.74 723.976C412.981 725.491 407.07 721.854 405.555 716.095" stroke="#1C5B3E" stroke-width="4" stroke-miterlimit="10" stroke-linecap="round" stroke-linejoin="round"/>
<path d="M447.84 705.486C449.356 711.245 445.718 717.156 439.959 718.671C434.2 720.187 428.289 716.549 426.773 710.79" stroke="#1C5B3E" stroke-width="4" stroke-miterlimit="10" stroke-linecap="round" stroke-linejoin="round"/>
<path d="M508.16 768.989C509.676 774.748 506.039 780.659 500.279 782.174C494.52 783.69 488.609 780.052 487.094 774.293" stroke="#1C5B3E" stroke-width="4" stroke-miterlimit="10" stroke-linecap="round" stroke-linejoin="round"/>
</svg>
