<svg width="1000" height="1000" viewBox="0 0 1000 1000" fill="none" xmlns="http://www.w3.org/2000/svg">
<path d="M63.5086 414.955L63.5123 414.911L63.5081 414.866C63.0586 410.121 63.9972 405.348 66.2098 401.127C68.4223 396.905 71.8136 393.418 75.9712 391.088L76.7181 390.669L75.9866 390.224C72.0024 387.802 68.8946 384.172 67.1147 379.862C65.3367 375.556 64.9763 370.797 66.0859 366.273C68.3638 358.888 74.0383 355.57 79.2104 354.092C81.7989 353.352 84.2479 353.079 86.0516 352.992C86.9526 352.948 87.6904 352.951 88.2011 352.964C88.4565 352.971 88.6549 352.98 88.7885 352.988C88.8553 352.992 88.9058 352.995 88.9392 352.997L88.9761 353L88.9846 353.001L88.9864 353.001L90.5388 353.133L89.353 352.122C85.8037 349.098 83.4447 344.91 82.6975 340.307C81.9503 335.705 82.8635 330.986 85.2737 326.994L85.2853 326.975L85.2951 326.955C88.4296 320.525 94.8223 318.975 100.586 319.079C103.458 319.13 106.135 319.594 108.098 320.046C109.078 320.272 109.878 320.495 110.43 320.661C110.707 320.743 110.922 320.812 111.066 320.86C111.139 320.883 111.194 320.902 111.23 320.914L111.271 320.928L111.28 320.932L111.282 320.932L111.283 320.932L111.283 320.932L111.814 320.119C108.08 316.146 105.804 311.024 105.357 305.591C104.911 300.157 106.32 294.733 109.355 290.204L109.363 290.192L109.37 290.18C111.427 286.699 115.765 285.121 119.864 284.276C121.571 283.925 123.201 283.706 124.569 283.523C124.831 283.488 125.084 283.454 125.325 283.421C126.069 283.318 126.722 283.22 127.221 283.105C127.47 283.047 127.699 282.982 127.889 282.902C128.064 282.829 128.273 282.717 128.413 282.53C144.137 262.123 168.424 231.293 209.099 210.538C249.762 189.789 306.861 179.084 388.244 199.054C511.71 229.503 550.494 348.722 545.312 452.702L545.311 452.715V452.727C545.311 453.158 545.594 453.472 545.847 453.687C546.112 453.913 546.475 454.138 546.861 454.369C546.933 454.412 547.007 454.456 547.082 454.501C547.838 454.952 548.753 455.498 549.668 456.286C551.653 457.992 553.677 460.867 553.677 466.364V466.387L553.68 466.41C553.92 469.039 553.392 471.681 552.16 474.016C550.929 476.351 549.045 478.278 546.739 479.564L546.112 479.913L546.658 480.38C549.194 482.552 550.901 485.533 551.491 488.82C552.08 492.106 551.516 495.496 549.892 498.413L549.885 498.427L549.878 498.441C548.368 501.607 545.834 504.17 542.686 505.715C539.537 507.259 535.959 507.696 532.532 506.952L531.491 506.727L531.982 507.672C532.471 508.611 533.35 509.657 534.322 510.813C534.497 511.021 534.676 511.233 534.855 511.448C536.053 512.887 537.364 514.547 538.427 516.534C540.536 520.479 541.692 525.764 538.821 533.19C537.125 537.313 534.079 540.736 530.182 542.9C526.283 545.064 521.764 545.839 517.367 545.097L516.142 544.89L516.882 545.888C519.238 549.063 520.564 552.883 520.68 556.835C520.797 560.787 519.699 564.68 517.534 567.988L517.527 568L517.519 568.012C517.338 568.328 516.99 568.653 516.456 568.978C515.928 569.3 515.253 569.599 514.466 569.879C512.892 570.44 510.931 570.899 508.933 571.306C507.936 571.509 506.935 571.698 505.972 571.88L505.943 571.885C504.993 572.064 504.079 572.237 503.252 572.407C502.417 572.579 501.661 572.751 501.035 572.93C500.422 573.105 499.887 573.299 499.528 573.53L498.8 573.998L499.569 574.395C566.578 608.946 652.193 625.686 726.292 635.884C752.926 639.549 778.084 642.37 800.359 644.868C809.073 645.845 817.345 646.773 825.092 647.682C838.872 649.3 850.987 650.859 860.975 652.536C870.972 654.214 878.803 656.004 884.032 658.075L884.216 657.61L884.032 658.075C918.524 671.701 934.082 690.172 936.378 709.452C938.677 728.763 927.705 749.117 908.6 766.564C870.393 801.455 800.056 824.345 740.569 803.627L740.567 803.626C739.715 803.333 739.192 802.895 738.895 802.385C738.596 801.871 738.494 801.227 738.593 800.464C738.794 798.919 739.806 797.015 741.344 795.152C742.873 793.301 744.877 791.546 746.978 790.293C749.087 789.036 751.239 788.317 753.08 788.451C820.451 794.609 869.944 773.229 892.488 747.35C903.759 734.413 908.337 720.289 904.908 707.913C901.476 695.527 890.075 685.078 869.794 679.383L869.794 679.382C856.65 675.708 833.954 673.116 805.446 670.202C801.178 669.765 796.778 669.322 792.26 668.866C766.575 666.276 737.046 663.298 705.92 659.071C632.706 649.127 550.738 632.278 489.337 597.359L489.337 597.359C486.717 595.874 484.282 595.665 482.072 596.261C479.881 596.853 477.955 598.225 476.307 599.83C474.657 601.437 473.258 603.306 472.127 604.931C471.754 605.467 471.407 605.982 471.09 606.451C470.927 606.692 470.773 606.921 470.627 607.134C470.195 607.767 469.845 608.26 469.567 608.579C437.875 640.431 388.719 661.036 336.901 667.781C285.079 674.527 230.667 667.399 188.493 643.872L188.249 644.308L188.493 643.872C80.811 583.854 71.1273 487.717 73.7999 435.184L73.8151 434.887L73.5605 434.732C70.2127 432.695 67.4987 429.765 65.7232 426.272C63.9477 422.779 63.1807 418.86 63.5086 414.955Z" fill="#DE6144" stroke="#363A5A"/>
<path d="M131.334 355.741L131.334 355.742C162.627 416.818 228.869 454.857 291.402 477.125L291.403 477.125C357.957 500.691 429.418 506.917 499.045 495.217L499.05 495.216C501.323 494.813 502.983 496.352 503.489 498.222C503.74 499.151 503.688 500.117 503.302 500.904C502.924 501.674 502.209 502.317 501.037 502.6C427.817 515.096 352.596 508.062 282.961 482.209C220.843 458.883 156.238 420.711 125.034 359.895C123.953 357.574 125.006 355.495 126.623 354.508C127.434 354.013 128.358 353.814 129.191 353.982C130.009 354.147 130.791 354.675 131.334 355.741Z" fill="#263238" stroke="#363A5A"/>
<path d="M471.9 567.756L471.905 567.755C473.104 567.624 473.942 567.988 474.486 568.567C475.043 569.159 475.339 570.027 475.335 570.968C475.325 572.858 474.119 574.829 471.794 575.127C403.792 581.882 335.154 572.543 271.429 547.866C207.701 523.188 150.673 483.862 104.955 433.068L104.955 433.068L104.949 433.061C103.382 431.385 103.84 429.269 105.166 427.953C105.826 427.298 106.672 426.879 107.529 426.831C108.37 426.784 109.266 427.089 110.069 427.966C155.15 478.064 211.405 516.83 274.272 541.118C337.139 565.407 404.846 574.533 471.9 567.756Z" fill="#263238" stroke="#363A5A"/>
<mask id="path-4-inside-1_215_5153" fill="white">
<path d="M120.987 286.663L123.58 300.634C124.584 305.905 132.532 303.646 131.946 298.459C131.444 296.033 131.026 293.607 130.608 291.265C131.03 290.871 131.396 290.42 131.695 289.926C167.334 224.42 240.453 202.752 310.477 200.995C306.922 204.139 303.799 207.74 301.19 211.704C300.59 211.323 299.894 211.12 299.182 211.118C265.922 209.161 232.876 217.595 204.621 235.252C176.367 252.91 154.302 278.916 141.484 309.67C141.484 309.084 140.731 308.666 140.396 308.164C137.3 303.813 130.106 308.164 133.201 312.347C222.717 436.414 375.815 504.765 526.403 461.345C527.512 461.057 528.461 460.339 529.042 459.351C529.622 458.362 529.787 457.184 529.498 456.074C529.21 454.965 528.492 454.016 527.504 453.435C526.515 452.855 525.337 452.691 524.228 452.979C503.526 458.943 482.284 462.838 460.813 464.608C494.276 440.591 520.939 408.308 538.199 370.909C540.458 366.056 533.263 361.873 531.088 366.726C513.418 405.312 485.456 438.282 450.272 462.014C449.722 462.386 449.268 462.883 448.948 463.465C448.628 464.047 448.451 464.697 448.432 465.361C440.735 465.361 433.205 465.361 425.592 465.361C431.951 460.258 438.141 454.987 444.165 449.633C445.011 449.287 445.718 448.669 446.173 447.876C474.729 422.147 499.338 392.351 519.208 359.447C519.243 359.31 519.243 359.166 519.208 359.029C521.048 355.933 522.973 352.838 524.729 349.659C525.156 348.715 525.217 347.647 524.902 346.661C524.586 345.675 523.915 344.841 523.02 344.32C522.125 343.8 521.069 343.63 520.055 343.843C519.042 344.057 518.144 344.639 517.535 345.476L516.782 346.898C493.775 272.525 449.854 208.609 367.783 194.721C367.101 194.586 366.395 194.631 365.735 194.851C365.075 195.071 364.484 195.458 364.019 195.976C363.688 195.903 363.346 195.903 363.015 195.976C362.966 195.436 362.791 194.916 362.502 194.458C362.214 193.999 361.821 193.615 361.356 193.338C360.891 193.06 360.366 192.897 359.826 192.861C359.285 192.825 358.744 192.918 358.246 193.131C346.846 197.341 336.956 204.847 329.835 214.694C322.713 224.542 318.683 236.285 318.257 248.431C318.257 248.431 318.257 249.1 318.257 249.435C312.215 249.895 306.208 250.734 300.27 251.944C300.311 251.723 300.311 251.496 300.27 251.275C298.256 239.834 300.45 228.05 306.447 218.101C312.445 208.152 321.84 200.709 332.897 197.147C337.917 195.474 335.742 187.443 330.722 189.199C326.571 190.597 322.587 192.449 318.843 194.721C318.538 194.057 318.039 193.501 317.412 193.127C316.784 192.754 316.058 192.58 315.329 192.629C242.377 193.466 165.327 215.301 126.676 281.727C125.954 281.479 125.18 281.424 124.431 281.569C123.682 281.715 122.984 282.054 122.408 282.554C121.831 283.055 121.396 283.697 121.147 284.418C120.898 285.14 120.842 285.914 120.987 286.663ZM495.699 380.446C495.699 308.415 440.902 244.248 381.42 206.601C453.451 225.675 490.847 286.998 511.093 357.188C506.157 364.969 501.221 372.833 495.699 380.446ZM470.601 412.32C470.923 374.907 463.002 337.881 447.401 303.874C431.8 269.867 408.901 239.712 380.332 215.552C439.564 254.036 493.022 319.207 487.333 391.991C481.645 398.935 476.123 405.711 470.267 412.32H470.601ZM350.633 206.015L352.558 204.928C387.523 228.342 415.933 260.294 435.097 297.758C454.261 335.222 463.544 376.958 462.068 419.013C462.042 419.69 462.217 420.36 462.57 420.937C457.551 426.208 452.531 431.395 447.177 436.414C449.214 393.25 441.606 350.175 424.905 310.32C408.205 270.465 382.833 234.833 350.633 206.015ZM387.193 462.684C391.977 385.5 371.796 308.825 329.635 243.997C329.072 243.077 328.171 242.416 327.125 242.156C327.869 237.318 329.306 232.613 331.392 228.185C379.964 286.824 405.353 361.236 402.753 437.335C402.753 438.444 403.194 439.508 403.978 440.292C404.763 441.077 405.827 441.518 406.936 441.518C408.046 441.518 409.11 441.077 409.894 440.292C410.679 439.508 411.119 438.444 411.119 437.335C413.79 358.537 387.275 281.527 336.662 221.074L335.658 220.321C338.058 216.821 340.867 213.619 344.024 210.784C376.692 239.706 402.219 275.799 418.605 316.236C434.992 356.673 441.793 400.355 438.476 443.86C431.616 449.967 424.589 455.991 417.226 461.596C416.7 461.999 416.276 462.518 415.985 463.114C415.695 463.709 415.547 464.364 415.553 465.026H410.785C410.785 460.927 410.785 456.66 410.785 452.644C410.785 448.629 402.419 447.374 402.419 452.644C402.419 456.576 402.419 460.508 402.001 464.357C397.148 463.938 392.463 463.437 387.025 462.684H387.193ZM374.476 382.454C375.146 386.637 375.731 390.82 376.317 395.086C351.159 387.523 327.636 375.322 306.963 359.113C306.751 358.568 306.4 358.088 305.945 357.721C305.49 357.354 304.947 357.113 304.369 357.021C279.985 337.256 260.273 312.345 246.644 284.07C251.453 280.477 256.513 277.234 261.786 274.365C286.231 321.905 325.825 359.94 374.309 382.454H374.476ZM269.4 270.601C278.121 266.429 287.264 263.203 296.673 260.979C289.217 270.815 284.823 282.628 284.04 294.945C278.555 287.177 273.607 279.044 269.232 270.601H269.4ZM233.509 295.699C235.685 293.523 237.943 291.348 240.37 289.257C242.21 293.189 244.302 297.037 246.393 300.718C245.852 301.068 245.418 301.56 245.138 302.14C239.1 312.486 236.45 324.461 237.56 336.389C238.671 348.316 243.485 359.597 251.329 368.65C247.631 372.433 243.438 375.697 238.864 378.354C231.222 366.517 226.694 352.941 225.699 338.886C224.705 324.831 227.276 310.753 233.175 297.957C233.464 297.271 233.579 296.524 233.509 295.782V295.699ZM251.162 308.582C256.51 317.199 262.436 325.445 268.898 333.262C268.285 333.809 267.872 334.545 267.726 335.353C266.212 345.035 262.459 354.231 256.767 362.208C250.676 354.874 246.88 345.909 245.854 336.432C244.827 326.954 246.615 317.384 250.994 308.917L251.162 308.582ZM367.031 347.818C369.206 356.184 371.214 364.132 372.887 372.331C364.887 368.313 357.122 363.844 349.629 358.945C349.973 358.623 350.232 358.221 350.382 357.774C351.699 354.572 354.014 351.882 356.984 350.103C359.954 348.324 363.419 347.552 366.863 347.902L367.031 347.818ZM342.936 354.511C334.686 348.803 326.832 342.542 319.428 335.771V335.27C321.545 327.717 325.742 320.912 331.541 315.631C337.339 310.35 344.506 306.806 352.223 305.403C356.864 316.569 360.94 327.961 364.437 339.536C359.757 339.688 355.222 341.19 351.377 343.862C347.532 346.534 344.543 350.262 342.769 354.595L342.936 354.511ZM304.871 321.047C306.429 311.672 310.786 302.987 317.371 296.133C323.955 289.28 332.459 284.578 341.765 282.647C344.191 287.583 346.618 292.519 348.876 297.623C340.585 299.396 332.886 303.264 326.515 308.859C320.144 314.454 315.314 321.588 312.484 329.581C309.891 326.904 307.298 324.143 304.704 321.298L304.871 321.047ZM346.701 453.816C360.308 449.089 371.845 439.771 379.329 427.463C379.775 438.618 379.775 449.772 379.329 460.927C368.258 459.211 357.284 456.921 346.45 454.067L346.701 453.816ZM307.381 440.514C316.549 435.165 324.183 427.544 329.546 418.385C334.91 409.226 337.822 398.839 338.001 388.226C349.935 394.305 362.395 399.289 375.229 403.118C375.989 403.373 376.812 403.373 377.572 403.118C377.99 406.715 378.241 410.312 378.576 413.91C377.995 413.993 377.448 414.232 376.992 414.6C376.536 414.968 376.187 415.452 375.982 416.001C372.675 423.874 367.558 430.856 361.045 436.38C354.533 441.904 346.81 445.814 338.502 447.792C337.782 447.923 337.121 448.276 336.611 448.801C336.101 449.326 335.768 449.997 335.658 450.72C325.535 447.96 316.416 444.529 307.13 440.765L307.381 440.514ZM260.197 417.675C271.674 414.637 282.062 408.427 290.171 399.756C298.279 391.085 303.78 380.304 306.043 368.65C313.485 374.225 321.282 379.311 329.384 383.876C330.04 394.57 327.494 405.216 322.069 414.456C316.645 423.695 308.589 431.107 298.931 435.745C298.454 435.961 298.026 436.274 297.677 436.665C284.822 431.074 272.307 424.733 260.197 417.675ZM239.533 404.624C265.217 400.19 278.853 377.1 288.976 354.428C292.155 357.272 295.334 360.033 298.681 362.794C297.247 374.616 292.035 385.66 283.819 394.282C275.604 402.904 264.825 408.644 253.086 410.647C252.231 410.783 251.456 411.23 250.911 411.902C247.062 409.811 243.298 407.217 239.533 404.707V404.624ZM223.638 393.329C236.391 390.389 248.024 383.827 257.137 374.432C266.249 365.037 272.454 353.21 275.005 340.373C277.514 343.134 280.024 345.894 282.701 348.739C273.332 369.988 260.95 395.003 234.932 397.178C234.239 397.239 233.574 397.48 233.002 397.876C232.43 398.272 231.97 398.81 231.669 399.437C228.908 397.345 226.315 395.337 223.638 393.413V393.329ZM204.647 337.361C208.909 328.404 213.948 319.838 219.706 311.761C216.82 323.664 216.355 336.026 218.338 348.112C220.321 360.198 224.712 371.762 231.251 382.119C226.794 383.995 222.133 385.342 217.363 386.135C212.37 379.786 208.745 372.472 206.715 364.655C204.685 356.837 204.294 348.683 205.567 340.707C205.673 340.129 205.645 339.535 205.486 338.969C205.326 338.404 205.039 337.882 204.647 337.445V337.361ZM192.098 367.06C193.687 362.961 195.277 358.694 196.95 354.846C197.379 362.05 199.049 369.125 201.886 375.761C198.54 373 195.277 370.156 192.098 367.479V367.06ZM168.087 342.715C168.805 342.219 169.312 341.473 169.51 340.624C177.684 312.884 193.523 288.015 215.205 268.879C236.887 249.743 263.531 237.116 292.071 232.451C290.856 239.398 290.856 246.503 292.071 253.45C273.384 258.275 255.858 266.811 240.537 278.548C212.427 299.881 197.787 329.246 185.405 361.204C179.549 355.181 173.776 348.99 168.087 342.799V342.715ZM296.589 219.233C295.92 220.739 295.25 222.245 294.665 223.751H293.828C263.484 228.081 235.001 240.963 211.711 260.89C188.42 280.817 171.287 306.965 162.315 336.273C156.961 329.999 151.774 323.557 146.754 317.032C146.942 316.811 147.084 316.555 147.172 316.279C158.766 286.491 179.431 261.102 206.244 243.702C233.058 226.302 264.662 217.772 296.589 219.317V219.233ZM309.723 258.386C315.711 257.532 321.747 257.057 327.794 256.964C331.391 262.904 334.822 269.011 338.084 275.118C328.592 277.403 319.878 282.171 312.836 288.933C305.795 295.696 300.678 304.21 298.011 313.602C296.003 311.259 294.163 308.917 292.322 306.49C291.232 297.719 292.241 288.814 295.267 280.509C298.292 272.203 303.247 264.736 309.723 258.721V258.386Z"/>
</mask>
<path d="M120.987 286.663L123.58 300.634C124.584 305.905 132.532 303.646 131.946 298.459C131.444 296.033 131.026 293.607 130.608 291.265C131.03 290.871 131.396 290.42 131.695 289.926C167.334 224.42 240.453 202.752 310.477 200.995C306.922 204.139 303.799 207.74 301.19 211.704C300.59 211.323 299.894 211.12 299.182 211.118C265.922 209.161 232.876 217.595 204.621 235.252C176.367 252.91 154.302 278.916 141.484 309.67C141.484 309.084 140.731 308.666 140.396 308.164C137.3 303.813 130.106 308.164 133.201 312.347C222.717 436.414 375.815 504.765 526.403 461.345C527.512 461.057 528.461 460.339 529.042 459.351C529.622 458.362 529.787 457.184 529.498 456.074C529.21 454.965 528.492 454.016 527.504 453.435C526.515 452.855 525.337 452.691 524.228 452.979C503.526 458.943 482.284 462.838 460.813 464.608C494.276 440.591 520.939 408.308 538.199 370.909C540.458 366.056 533.263 361.873 531.088 366.726C513.418 405.312 485.456 438.282 450.272 462.014C449.722 462.386 449.268 462.883 448.948 463.465C448.628 464.047 448.451 464.697 448.432 465.361C440.735 465.361 433.205 465.361 425.592 465.361C431.951 460.258 438.141 454.987 444.165 449.633C445.011 449.287 445.718 448.669 446.173 447.876C474.729 422.147 499.338 392.351 519.208 359.447C519.243 359.31 519.243 359.166 519.208 359.029C521.048 355.933 522.973 352.838 524.729 349.659C525.156 348.715 525.217 347.647 524.902 346.661C524.586 345.675 523.915 344.841 523.02 344.32C522.125 343.8 521.069 343.63 520.055 343.843C519.042 344.057 518.144 344.639 517.535 345.476L516.782 346.898C493.775 272.525 449.854 208.609 367.783 194.721C367.101 194.586 366.395 194.631 365.735 194.851C365.075 195.071 364.484 195.458 364.019 195.976C363.688 195.903 363.346 195.903 363.015 195.976C362.966 195.436 362.791 194.916 362.502 194.458C362.214 193.999 361.821 193.615 361.356 193.338C360.891 193.06 360.366 192.897 359.826 192.861C359.285 192.825 358.744 192.918 358.246 193.131C346.846 197.341 336.956 204.847 329.835 214.694C322.713 224.542 318.683 236.285 318.257 248.431C318.257 248.431 318.257 249.1 318.257 249.435C312.215 249.895 306.208 250.734 300.27 251.944C300.311 251.723 300.311 251.496 300.27 251.275C298.256 239.834 300.45 228.05 306.447 218.101C312.445 208.152 321.84 200.709 332.897 197.147C337.917 195.474 335.742 187.443 330.722 189.199C326.571 190.597 322.587 192.449 318.843 194.721C318.538 194.057 318.039 193.501 317.412 193.127C316.784 192.754 316.058 192.58 315.329 192.629C242.377 193.466 165.327 215.301 126.676 281.727C125.954 281.479 125.18 281.424 124.431 281.569C123.682 281.715 122.984 282.054 122.408 282.554C121.831 283.055 121.396 283.697 121.147 284.418C120.898 285.14 120.842 285.914 120.987 286.663ZM495.699 380.446C495.699 308.415 440.902 244.248 381.42 206.601C453.451 225.675 490.847 286.998 511.093 357.188C506.157 364.969 501.221 372.833 495.699 380.446ZM470.601 412.32C470.923 374.907 463.002 337.881 447.401 303.874C431.8 269.867 408.901 239.712 380.332 215.552C439.564 254.036 493.022 319.207 487.333 391.991C481.645 398.935 476.123 405.711 470.267 412.32H470.601ZM350.633 206.015L352.558 204.928C387.523 228.342 415.933 260.294 435.097 297.758C454.261 335.222 463.544 376.958 462.068 419.013C462.042 419.69 462.217 420.36 462.57 420.937C457.551 426.208 452.531 431.395 447.177 436.414C449.214 393.25 441.606 350.175 424.905 310.32C408.205 270.465 382.833 234.833 350.633 206.015ZM387.193 462.684C391.977 385.5 371.796 308.825 329.635 243.997C329.072 243.077 328.171 242.416 327.125 242.156C327.869 237.318 329.306 232.613 331.392 228.185C379.964 286.824 405.353 361.236 402.753 437.335C402.753 438.444 403.194 439.508 403.978 440.292C404.763 441.077 405.827 441.518 406.936 441.518C408.046 441.518 409.11 441.077 409.894 440.292C410.679 439.508 411.119 438.444 411.119 437.335C413.79 358.537 387.275 281.527 336.662 221.074L335.658 220.321C338.058 216.821 340.867 213.619 344.024 210.784C376.692 239.706 402.219 275.799 418.605 316.236C434.992 356.673 441.793 400.355 438.476 443.86C431.616 449.967 424.589 455.991 417.226 461.596C416.7 461.999 416.276 462.518 415.985 463.114C415.695 463.709 415.547 464.364 415.553 465.026H410.785C410.785 460.927 410.785 456.66 410.785 452.644C410.785 448.629 402.419 447.374 402.419 452.644C402.419 456.576 402.419 460.508 402.001 464.357C397.148 463.938 392.463 463.437 387.025 462.684H387.193ZM374.476 382.454C375.146 386.637 375.731 390.82 376.317 395.086C351.159 387.523 327.636 375.322 306.963 359.113C306.751 358.568 306.4 358.088 305.945 357.721C305.49 357.354 304.947 357.113 304.369 357.021C279.985 337.256 260.273 312.345 246.644 284.07C251.453 280.477 256.513 277.234 261.786 274.365C286.231 321.905 325.825 359.94 374.309 382.454H374.476ZM269.4 270.601C278.121 266.429 287.264 263.203 296.673 260.979C289.217 270.815 284.823 282.628 284.04 294.945C278.555 287.177 273.607 279.044 269.232 270.601H269.4ZM233.509 295.699C235.685 293.523 237.943 291.348 240.37 289.257C242.21 293.189 244.302 297.037 246.393 300.718C245.852 301.068 245.418 301.56 245.138 302.14C239.1 312.486 236.45 324.461 237.56 336.389C238.671 348.316 243.485 359.597 251.329 368.65C247.631 372.433 243.438 375.697 238.864 378.354C231.222 366.517 226.694 352.941 225.699 338.886C224.705 324.831 227.276 310.753 233.175 297.957C233.464 297.271 233.579 296.524 233.509 295.782V295.699ZM251.162 308.582C256.51 317.199 262.436 325.445 268.898 333.262C268.285 333.809 267.872 334.545 267.726 335.353C266.212 345.035 262.459 354.231 256.767 362.208C250.676 354.874 246.88 345.909 245.854 336.432C244.827 326.954 246.615 317.384 250.994 308.917L251.162 308.582ZM367.031 347.818C369.206 356.184 371.214 364.132 372.887 372.331C364.887 368.313 357.122 363.844 349.629 358.945C349.973 358.623 350.232 358.221 350.382 357.774C351.699 354.572 354.014 351.882 356.984 350.103C359.954 348.324 363.419 347.552 366.863 347.902L367.031 347.818ZM342.936 354.511C334.686 348.803 326.832 342.542 319.428 335.771V335.27C321.545 327.717 325.742 320.912 331.541 315.631C337.339 310.35 344.506 306.806 352.223 305.403C356.864 316.569 360.94 327.961 364.437 339.536C359.757 339.688 355.222 341.19 351.377 343.862C347.532 346.534 344.543 350.262 342.769 354.595L342.936 354.511ZM304.871 321.047C306.429 311.672 310.786 302.987 317.371 296.133C323.955 289.28 332.459 284.578 341.765 282.647C344.191 287.583 346.618 292.519 348.876 297.623C340.585 299.396 332.886 303.264 326.515 308.859C320.144 314.454 315.314 321.588 312.484 329.581C309.891 326.904 307.298 324.143 304.704 321.298L304.871 321.047ZM346.701 453.816C360.308 449.089 371.845 439.771 379.329 427.463C379.775 438.618 379.775 449.772 379.329 460.927C368.258 459.211 357.284 456.921 346.45 454.067L346.701 453.816ZM307.381 440.514C316.549 435.165 324.183 427.544 329.546 418.385C334.91 409.226 337.822 398.839 338.001 388.226C349.935 394.305 362.395 399.289 375.229 403.118C375.989 403.373 376.812 403.373 377.572 403.118C377.99 406.715 378.241 410.312 378.576 413.91C377.995 413.993 377.448 414.232 376.992 414.6C376.536 414.968 376.187 415.452 375.982 416.001C372.675 423.874 367.558 430.856 361.045 436.38C354.533 441.904 346.81 445.814 338.502 447.792C337.782 447.923 337.121 448.276 336.611 448.801C336.101 449.326 335.768 449.997 335.658 450.72C325.535 447.96 316.416 444.529 307.13 440.765L307.381 440.514ZM260.197 417.675C271.674 414.637 282.062 408.427 290.171 399.756C298.279 391.085 303.78 380.304 306.043 368.65C313.485 374.225 321.282 379.311 329.384 383.876C330.04 394.57 327.494 405.216 322.069 414.456C316.645 423.695 308.589 431.107 298.931 435.745C298.454 435.961 298.026 436.274 297.677 436.665C284.822 431.074 272.307 424.733 260.197 417.675ZM239.533 404.624C265.217 400.19 278.853 377.1 288.976 354.428C292.155 357.272 295.334 360.033 298.681 362.794C297.247 374.616 292.035 385.66 283.819 394.282C275.604 402.904 264.825 408.644 253.086 410.647C252.231 410.783 251.456 411.23 250.911 411.902C247.062 409.811 243.298 407.217 239.533 404.707V404.624ZM223.638 393.329C236.391 390.389 248.024 383.827 257.137 374.432C266.249 365.037 272.454 353.21 275.005 340.373C277.514 343.134 280.024 345.894 282.701 348.739C273.332 369.988 260.95 395.003 234.932 397.178C234.239 397.239 233.574 397.48 233.002 397.876C232.43 398.272 231.97 398.81 231.669 399.437C228.908 397.345 226.315 395.337 223.638 393.413V393.329ZM204.647 337.361C208.909 328.404 213.948 319.838 219.706 311.761C216.82 323.664 216.355 336.026 218.338 348.112C220.321 360.198 224.712 371.762 231.251 382.119C226.794 383.995 222.133 385.342 217.363 386.135C212.37 379.786 208.745 372.472 206.715 364.655C204.685 356.837 204.294 348.683 205.567 340.707C205.673 340.129 205.645 339.535 205.486 338.969C205.326 338.404 205.039 337.882 204.647 337.445V337.361ZM192.098 367.06C193.687 362.961 195.277 358.694 196.95 354.846C197.379 362.05 199.049 369.125 201.886 375.761C198.54 373 195.277 370.156 192.098 367.479V367.06ZM168.087 342.715C168.805 342.219 169.312 341.473 169.51 340.624C177.684 312.884 193.523 288.015 215.205 268.879C236.887 249.743 263.531 237.116 292.071 232.451C290.856 239.398 290.856 246.503 292.071 253.45C273.384 258.275 255.858 266.811 240.537 278.548C212.427 299.881 197.787 329.246 185.405 361.204C179.549 355.181 173.776 348.99 168.087 342.799V342.715ZM296.589 219.233C295.92 220.739 295.25 222.245 294.665 223.751H293.828C263.484 228.081 235.001 240.963 211.711 260.89C188.42 280.817 171.287 306.965 162.315 336.273C156.961 329.999 151.774 323.557 146.754 317.032C146.942 316.811 147.084 316.555 147.172 316.279C158.766 286.491 179.431 261.102 206.244 243.702C233.058 226.302 264.662 217.772 296.589 219.317V219.233ZM309.723 258.386C315.711 257.532 321.747 257.057 327.794 256.964C331.391 262.904 334.822 269.011 338.084 275.118C328.592 277.403 319.878 282.171 312.836 288.933C305.795 295.696 300.678 304.21 298.011 313.602C296.003 311.259 294.163 308.917 292.322 306.49C291.232 297.719 292.241 288.814 295.267 280.509C298.292 272.203 303.247 264.736 309.723 258.721V258.386Z" fill="#263238" stroke="#363A5A" stroke-width="2" mask="url(#path-4-inside-1_215_5153)"/>
<path d="M95.8814 552.324L95.8816 552.326C96.066 554.65 97.8892 555.819 99.7231 555.819C100.64 555.819 101.524 555.522 102.171 554.955C102.805 554.399 103.244 553.557 103.249 552.387C101.043 527.33 105.871 502.155 117.19 479.691L117.516 479.045L118.005 479.579C120.763 482.587 123.604 485.595 126.362 488.436L126.628 488.71L126.433 489.039C118.207 502.949 112.921 518.398 110.9 534.432C108.88 550.466 110.169 566.744 114.687 582.26L114.689 582.268L114.689 582.268C114.942 583.194 115.553 583.981 116.387 584.457C117.221 584.932 118.21 585.057 119.136 584.804C120.062 584.55 120.85 583.939 121.325 583.105C121.8 582.273 121.925 581.285 121.673 580.361C117.508 566.119 116.248 551.186 117.965 536.448C119.683 521.708 124.346 507.464 131.675 494.561L131.994 494L132.457 494.448C137.306 499.129 142.234 503.723 147.326 508.064L147.655 508.345L147.424 508.711C136.662 525.773 131.252 545.664 131.89 565.826C132.528 585.988 139.185 605.498 151.004 621.845L151.006 621.848C152.364 623.757 154.604 623.788 156.23 622.817C157.041 622.334 157.651 621.624 157.898 620.835C158.14 620.065 158.053 619.173 157.389 618.249C157.389 618.249 157.388 618.248 157.388 618.247L157.794 617.955C146.815 603.02 140.531 585.155 139.741 566.636C138.959 548.285 143.607 530.115 153.097 514.398L95.8814 552.324ZM95.8814 552.324C93.6194 525.688 98.9367 498.955 111.219 475.213L95.8814 552.324ZM232.051 608.131L232.124 608.286L232.278 608.363L232.445 608.447L232.647 608.548L232.857 608.463C248.49 602.126 263.063 593.439 276.072 582.702L276.766 582.129L275.913 581.842C258.722 576.062 241.969 569.054 225.784 560.871L225.166 560.559L225.064 561.243C222.663 577.22 225.097 593.549 232.051 608.131ZM205.685 616.467L206.202 616.368L206.252 616.604C212.663 615.252 218.993 613.543 225.213 611.486L225.745 611.31L225.51 610.802C217.958 594.433 215.494 576.173 218.438 558.387L218.445 558.347V558.306V557.636V557.34L218.185 557.198C211.916 553.771 205.649 550.178 199.551 546.419L198.93 546.036L198.797 546.753C194.456 570.175 196.845 594.348 205.685 616.467ZM172.215 529.694L172.128 529.952C167.031 545.028 165.307 561.04 167.079 576.855C168.851 592.671 174.075 607.904 182.381 621.479L182.774 622.12L183.214 621.51C183.531 621.07 183.939 620.704 184.41 620.436C184.882 620.168 185.406 620.006 185.946 619.959L185.955 619.958C189.978 619.539 193.921 619.036 197.867 618.364L198.469 618.262L198.25 617.692C189.259 594.365 187.006 568.982 191.747 544.437C191.882 543.84 192.16 543.284 192.558 542.819L192.935 542.378L192.443 542.07C185.764 537.896 179.333 533.386 172.978 528.787L172.064 528.125L172.188 529.247C172.205 529.396 172.214 529.545 172.215 529.694Z" fill="#263238" stroke="#363A5A"/>
<path d="M287.913 520.183L287.921 520.187L287.929 520.191C358.846 553.302 437.539 547.089 513.147 540.314L513.149 540.314C514.347 540.202 515.188 540.579 515.735 541.169C516.295 541.773 516.591 542.648 516.586 543.589C516.577 545.479 515.373 547.424 513.052 547.685C435.652 554.63 356.394 560.212 284.169 526.48L284.168 526.479C283.089 525.977 282.581 525.23 282.432 524.445C282.278 523.637 282.493 522.721 282.993 521.902C284.008 520.24 286.009 519.213 287.913 520.183Z" fill="#263238" stroke="#363A5A"/>
<path d="M514.715 484.106L514.703 484.107L514.691 484.109C513.536 484.295 512.735 483.972 512.214 483.431C511.676 482.873 511.381 482.024 511.381 481.079C511.381 479.181 512.555 477.146 514.843 476.732L546.198 473.22C546.198 473.22 546.198 473.22 546.198 473.22C547.398 473.089 548.235 473.453 548.779 474.032C549.336 474.624 549.633 475.492 549.628 476.433C549.618 478.324 548.412 480.295 546.084 480.593C546.083 480.593 546.082 480.593 546.081 480.593L514.715 484.106Z" fill="#263238" stroke="#363A5A"/>
<path d="M237.084 495.107L237.088 495.108C239.26 495.955 239.896 498.144 239.401 499.959C239.155 500.863 238.64 501.619 237.95 502.039C237.278 502.449 236.384 502.575 235.283 502.127L235.278 502.125C167.505 475.331 112.958 423.004 83.3737 356.401L83.3698 356.392L83.3655 356.383C82.3359 354.287 83.3609 352.289 84.9521 351.333C85.7445 350.856 86.634 350.67 87.42 350.845C88.1866 351.015 88.9179 351.542 89.4035 352.624C118.085 417.616 171.106 468.772 237.084 495.107Z" fill="#263238" stroke="#363A5A"/>
<path d="M109.662 317.888L109.669 317.898C159.709 383.422 225.051 435.679 299.972 470.091C302.112 471.049 304.117 469.981 305.065 468.359C305.537 467.552 305.718 466.648 305.537 465.844C305.36 465.059 304.824 464.311 303.74 463.806C303.739 463.805 303.738 463.805 303.738 463.805L303.949 463.351C230.167 429.643 165.768 378.37 116.383 314.018L109.662 317.888ZM109.662 317.888L109.654 317.879C108.839 316.912 108.678 316.016 108.857 315.278C109.041 314.521 109.606 313.84 110.411 313.374C112.027 312.439 114.42 312.467 115.993 314.332L109.662 317.888Z" fill="#263238" stroke="#363A5A"/>
<path d="M317.589 469.039C318.566 469.039 319.503 469.427 320.194 470.118C320.884 470.808 321.272 471.745 321.272 472.722C321.272 473.699 320.884 474.636 320.194 475.326C319.503 476.017 318.566 476.405 317.589 476.405C316.612 476.405 315.676 476.017 314.985 475.326C314.294 474.636 313.906 473.699 313.906 472.722C313.906 471.745 314.294 470.808 314.985 470.118C315.676 469.427 316.612 469.039 317.589 469.039Z" fill="#263238" stroke="#363A5A"/>
<path d="M309.463 501.803L309.471 501.806L309.479 501.809C380.912 525.318 457.525 528.221 530.532 510.186C532.802 509.637 534.442 511.075 534.952 512.869C535.207 513.765 535.162 514.708 534.787 515.482C534.419 516.243 533.714 516.881 532.555 517.162L532.552 517.162C458.28 535.573 380.323 532.678 307.621 508.808C305.422 508.036 304.773 505.9 305.265 504.09C305.511 503.188 306.032 502.418 306.738 501.976C307.428 501.543 308.342 501.392 309.463 501.803Z" fill="#263238" stroke="#363A5A"/>
<path d="M267.892 512.125C268.869 512.125 269.806 512.513 270.496 513.203C271.187 513.894 271.575 514.831 271.575 515.808C271.575 516.785 271.187 517.721 270.496 518.412C269.806 519.103 268.869 519.491 267.892 519.491C266.915 519.491 265.978 519.103 265.288 518.412C264.597 517.721 264.209 516.785 264.209 515.808C264.209 514.831 264.597 513.894 265.288 513.203C265.978 512.513 266.915 512.125 267.892 512.125Z" fill="#263238" stroke="#363A5A"/>
<path d="M80.7067 440.288L80.798 440.068L80.6849 439.859C79.2411 437.186 77.993 434.412 76.95 431.559L76.9498 431.558C76.5381 430.435 76.6845 429.52 77.112 428.83C77.5484 428.126 78.3102 427.605 79.2058 427.36C81.0017 426.869 83.1468 427.516 83.958 429.726C88.1338 441.324 95.834 451.325 105.979 458.327C107.878 459.642 107.915 461.876 106.942 463.517C106.458 464.334 105.747 464.951 104.957 465.205C104.189 465.451 103.3 465.37 102.379 464.71L99.793 462.707L99.2905 462.318L99.0306 462.898C91.4017 479.916 88.4978 498.675 90.624 517.203C90.7544 518.379 90.3921 519.206 89.8134 519.747C89.2203 520.301 88.3506 520.6 87.4085 520.6C85.5169 520.6 83.5498 519.413 83.2517 517.09C81.1834 496.709 84.8163 476.153 93.7459 457.716L93.9046 457.388L93.6414 457.136C90.9723 454.584 88.5281 451.807 86.3361 448.835L85.7703 448.068L85.4608 448.969C83.1742 455.633 81.7596 462.564 81.2522 469.591C81.0663 471.961 79.2374 473.144 77.4109 473.144C76.4964 473.144 75.6134 472.843 74.9656 472.267C74.3296 471.7 73.8885 470.84 73.8848 469.644C74.521 459.549 76.8262 449.629 80.7067 440.288Z" fill="#263238" stroke="#363A5A"/>
<path d="M454.941 590.424L454.943 590.424L476.271 587.246C476.863 587.172 477.463 587.234 478.027 587.426C478.593 587.619 479.108 587.938 479.532 588.36L480.082 588.907L480.353 588.18C481.786 584.335 484.067 580.861 487.025 578.017C489.983 575.173 493.543 573.03 497.442 571.748L497.444 571.747C498.561 571.375 499.477 571.55 500.173 572.009C500.884 572.478 501.408 573.274 501.654 574.204C502.149 576.067 501.498 578.278 499.288 579.17C495.743 580.365 492.616 582.552 490.275 585.47C487.932 588.392 486.476 591.924 486.08 595.649L486.08 595.649L486.079 595.654C485.859 597.97 483.941 599.155 482.049 599.155C481.107 599.155 480.224 598.856 479.607 598.296C479.004 597.749 478.616 596.916 478.709 595.741L478.759 595.117L478.139 595.207L456.934 598.296C454.681 598.2 453.01 596.391 452.509 594.458C452.26 593.493 452.321 592.558 452.698 591.842C453.065 591.146 453.763 590.592 454.941 590.424Z" fill="#263238" stroke="#363A5A"/>
</svg>
