<svg width="281" height="242" viewBox="0 0 281 242" fill="none" xmlns="http://www.w3.org/2000/svg">
<path d="M233.781 120.384C233.781 120.654 233.686 120.956 233.623 121.257C233.556 121.574 233.471 121.886 233.369 122.193C233.274 122.511 233.147 122.844 233.004 123.193C232.702 123.907 232.448 124.637 232.195 125.398C232.068 125.795 231.957 126.176 231.845 126.573C231.766 126.842 231.703 127.112 231.623 127.398C231.465 128.048 231.306 128.746 231.163 129.445L231.02 130.238C230.941 130.666 230.862 131.095 230.798 131.539C230.207 135.707 229.931 139.913 229.973 144.122C229.973 145.28 229.973 146.438 229.973 147.612C229.973 149.421 230.068 151.246 230.148 153.071C230.227 154.848 230.322 156.625 230.402 158.37C230.481 159.608 230.544 160.846 230.608 162.052C230.798 165.749 230.973 169.303 230.989 172.587C230.989 173.936 230.989 175.253 230.989 176.475C231.04 180.032 230.388 183.564 229.069 186.868C228.795 187.432 228.46 187.964 228.069 188.455C227.49 189.213 226.96 190.008 226.482 190.835C224.727 193.826 223.245 196.97 222.055 200.228C221.659 201.212 221.278 202.227 220.945 203.243C219.723 206.702 218.66 210.193 217.771 213.366C217.533 214.223 217.311 215.064 217.089 215.873C216.724 217.253 216.407 218.523 216.121 219.665C216.01 220.13 215.851 220.582 215.645 221.014C215.114 222.188 214.328 223.229 213.344 224.06C212.78 224.547 212.168 224.978 211.52 225.346C210.914 225.73 210.396 226.236 209.997 226.831C209.598 227.427 209.328 228.099 209.203 228.805C208.974 229.847 208.862 230.911 208.87 231.978C208.867 232.855 208.936 233.731 209.076 234.596L208.949 235.247L207.823 240.88H191.083C191.068 240.79 191.068 240.699 191.083 240.61C191.075 240.541 191.075 240.472 191.083 240.404C191.083 240.308 191.083 240.229 191.083 240.102C191.104 239.951 191.142 239.802 191.194 239.658C191.372 239.035 191.595 238.425 191.86 237.833C191.971 237.579 192.098 237.31 192.241 237.04C192.384 236.77 192.543 236.453 192.685 236.151C192.828 235.85 193.05 235.485 193.272 235.136C193.796 234.247 194.447 233.232 195.224 232.073C196.319 230.487 197.699 228.598 199.445 226.425C208.489 215.191 215.137 190.311 214.598 177.522C214.598 177.348 214.598 177.173 214.598 176.983C214.598 176.395 214.503 175.777 214.423 175.142C213.909 171.316 213.129 167.531 212.091 163.813L211.71 162.353C210.615 158.339 209.362 154.197 208.172 150.326L207.981 149.707C207.585 148.39 207.188 147.121 206.823 145.915C206.093 143.566 205.443 141.408 204.935 139.568C204.859 139.33 204.769 139.097 204.665 138.87C204.616 138.713 204.558 138.559 204.491 138.409C204.395 138.171 204.316 137.965 204.221 137.759C204.126 137.553 204.046 137.378 203.967 137.204C203.847 136.954 203.715 136.71 203.57 136.474C203.479 136.304 203.378 136.14 203.269 135.982L202.999 135.569C202.442 134.737 201.804 133.961 201.095 133.253L200.492 132.713C200.312 132.527 200.115 132.357 199.905 132.205L199.302 131.745C198.923 131.44 198.526 131.159 198.112 130.904C197.699 130.65 197.303 130.412 196.89 130.19C196.703 130.074 196.506 129.974 196.303 129.889C195.932 129.684 195.551 129.499 195.161 129.333L194.589 129.095C194.427 129.016 194.257 128.952 194.082 128.905L193.574 128.715C193.4 128.635 193.22 128.571 193.034 128.524L192.574 128.366L192.146 128.239C191.762 128.115 191.37 128.019 190.972 127.953H190.845L191.527 118.226L192.019 118.084L192.622 117.925L194.843 117.37L195.922 117.116C196.557 116.957 197.255 116.783 198.001 116.64L201.428 115.878L203.983 115.386C205.331 115.117 206.775 114.863 208.219 114.64C209.663 114.418 211.028 114.212 212.456 114.038C213.551 113.895 214.661 113.784 215.756 113.688C216.185 113.688 216.597 113.609 217.026 113.593L218.501 113.498H219.199H221.294C221.96 113.498 222.595 113.498 223.214 113.498L224.451 113.577H225.054L226.197 113.72L227.307 113.895C227.657 113.895 227.99 114.038 228.323 114.133L229.291 114.418L230.164 114.767C230.409 114.862 230.647 114.974 230.878 115.101L231.369 115.386L231.671 115.608C231.848 115.717 232.013 115.845 232.163 115.989C232.307 116.114 232.44 116.253 232.559 116.402L232.813 116.687C232.98 116.888 233.123 117.106 233.242 117.338C233.379 117.607 233.49 117.889 233.575 118.179C233.632 118.355 233.675 118.535 233.702 118.718C233.807 119.267 233.834 119.828 233.781 120.384Z" fill="#F7F7F7"/>
<path opacity="0.7" d="M233.781 120.384C233.781 120.654 233.686 120.956 233.623 121.257C233.556 121.574 233.471 121.886 233.369 122.193C233.274 122.511 233.147 122.844 233.004 123.193C232.702 123.907 232.448 124.637 232.195 125.398C232.068 125.795 231.957 126.176 231.845 126.573C231.766 126.842 231.703 127.112 231.623 127.398C231.465 128.048 231.306 128.746 231.163 129.445L231.02 130.238C230.941 130.666 230.862 131.095 230.798 131.539C230.207 135.707 229.931 139.913 229.973 144.122C229.973 145.28 229.973 146.438 229.973 147.612C229.973 149.421 230.068 151.246 230.148 153.071C230.227 154.848 230.322 156.625 230.402 158.37C230.481 159.608 230.544 160.846 230.608 162.052C230.798 165.749 230.973 169.303 230.989 172.587C230.989 173.936 230.989 175.253 230.989 176.475C231.04 180.032 230.388 183.564 229.069 186.868C228.795 187.432 228.46 187.964 228.069 188.455C227.49 189.213 226.96 190.008 226.482 190.835C224.727 193.826 223.245 196.97 222.055 200.228C221.659 201.212 221.278 202.227 220.945 203.243C219.723 206.702 218.66 210.193 217.771 213.366C217.533 214.223 217.311 215.064 217.089 215.873C216.724 217.253 216.407 218.523 216.121 219.665C216.01 220.13 215.851 220.582 215.645 221.014C215.114 222.188 214.328 223.229 213.344 224.06C212.78 224.547 212.168 224.978 211.52 225.346C210.914 225.73 210.396 226.236 209.997 226.831C209.598 227.427 209.328 228.099 209.203 228.805C208.974 229.847 208.862 230.911 208.87 231.978C208.867 232.855 208.936 233.731 209.076 234.596L208.949 235.247L207.823 240.88H191.083C191.068 240.79 191.068 240.699 191.083 240.61C191.075 240.541 191.075 240.472 191.083 240.404C191.083 240.308 191.083 240.229 191.083 240.102C191.104 239.951 191.142 239.802 191.194 239.658C191.372 239.035 191.595 238.425 191.86 237.833C191.971 237.579 192.098 237.31 192.241 237.04C192.384 236.77 192.543 236.453 192.685 236.151C192.828 235.85 193.05 235.485 193.272 235.136C193.796 234.247 194.447 233.232 195.224 232.073C196.319 230.487 197.699 228.598 199.445 226.425C208.489 215.191 215.137 190.311 214.598 177.522C214.598 177.348 214.598 177.173 214.598 176.983C214.598 176.395 214.503 175.777 214.423 175.142C213.909 171.316 213.129 167.531 212.091 163.813L211.71 162.353C210.615 158.339 209.362 154.197 208.172 150.326L207.981 149.707C207.585 148.39 207.188 147.121 206.823 145.915C206.093 143.566 205.443 141.408 204.935 139.568C204.859 139.33 204.769 139.097 204.665 138.87C204.616 138.713 204.558 138.559 204.491 138.409C204.395 138.171 204.316 137.965 204.221 137.759C204.126 137.553 204.046 137.378 203.967 137.204C203.847 136.954 203.715 136.71 203.57 136.474C203.479 136.304 203.378 136.14 203.269 135.982L202.999 135.569C202.442 134.737 201.804 133.961 201.095 133.253L200.492 132.713C200.312 132.527 200.115 132.357 199.905 132.205L199.302 131.745C198.923 131.44 198.526 131.159 198.112 130.904C197.699 130.65 197.303 130.412 196.89 130.19C196.703 130.074 196.506 129.974 196.303 129.889C195.932 129.684 195.551 129.499 195.161 129.333L194.589 129.095C194.427 129.016 194.257 128.952 194.082 128.905L193.574 128.715C193.4 128.635 193.22 128.571 193.034 128.524L192.574 128.366L192.146 128.239C191.762 128.115 191.37 128.019 190.972 127.953H190.845L191.527 118.226L192.019 118.084L192.622 117.925L194.843 117.37L195.922 117.116C196.557 116.957 197.255 116.783 198.001 116.64L201.428 115.878L203.983 115.386C205.331 115.117 206.775 114.863 208.219 114.64C209.663 114.418 211.028 114.212 212.456 114.038C213.551 113.895 214.661 113.784 215.756 113.688C216.185 113.688 216.597 113.609 217.026 113.593L218.501 113.498H219.199H221.294C221.96 113.498 222.595 113.498 223.214 113.498L224.451 113.577H225.054L226.197 113.72L227.307 113.895C227.657 113.895 227.99 114.038 228.323 114.133L229.291 114.418L230.164 114.767C230.409 114.862 230.647 114.974 230.878 115.101L231.369 115.386L231.671 115.608C231.848 115.717 232.013 115.845 232.163 115.989C232.307 116.114 232.44 116.253 232.559 116.402L232.813 116.687C232.98 116.888 233.123 117.106 233.242 117.338C233.379 117.607 233.49 117.889 233.575 118.179C233.632 118.355 233.675 118.535 233.702 118.718C233.807 119.267 233.834 119.828 233.781 120.384Z" fill="white"/>
<path opacity="0.7" d="M230.052 147.644C229.084 147.898 228.116 148.104 227.149 148.311C224.562 148.866 221.976 149.278 219.374 149.596C216.771 149.913 214.518 150.104 212.043 150.262C210.789 150.342 209.552 150.389 208.267 150.437L208.076 149.818C211.662 149.072 215.201 148.231 218.723 147.343C220.992 146.771 223.261 146.153 225.514 145.502H225.736C227.164 145.105 228.592 144.661 230.005 144.217C229.957 145.312 230.052 146.47 230.052 147.644Z" fill="black"/>
<path opacity="0.2" d="M191.558 118.115L190.892 127.842C190.892 127.842 202.316 129.968 204.982 139.679C205.49 141.519 206.14 143.677 206.854 146.025C211.614 143.026 222.721 136.093 230.655 132.126C231.04 129.057 231.814 126.05 232.956 123.177C240.778 104.453 191.558 118.115 191.558 118.115Z" fill="black"/>
<path d="M113.222 132.522C112.953 132.982 112.683 133.427 112.381 133.855C112.08 134.283 111.794 134.696 111.477 135.109C111.16 135.521 110.842 135.886 110.509 136.267L110.224 136.584L109.89 136.949L109.462 137.282V137.362L108.383 138.361C108.161 138.536 107.97 138.71 107.748 138.917L107.256 139.329L106.098 140.202C105.67 140.488 105.273 140.773 104.829 141.043L103.575 141.773C103.147 142.042 102.687 142.265 102.242 142.503C101.814 142.725 101.386 142.947 100.941 143.137L99.5291 143.772H99.4339L98.0693 144.311L96.4826 144.914C95.5306 145.248 94.5627 145.565 93.5948 145.851C93.0394 146.025 92.4999 146.2 92.008 146.342C78.8383 150.071 64.7006 150.944 60.8608 159.036C58.0047 165.002 73.8243 182.107 73.8243 182.107C75.9981 189.914 78.3464 191.627 80.2663 191.136C80.5654 191.055 80.8494 190.926 81.1073 190.755L81.5199 190.485C81.7731 190.28 82.0117 190.057 82.2339 189.819C82.4773 189.573 82.7002 189.307 82.9003 189.025C83.1066 188.755 83.2969 188.486 83.4556 188.232L83.8365 187.597L84.0427 187.2C84.0751 187.156 84.1017 187.108 84.1221 187.058L84.2807 186.74L84.3601 186.582L93.6741 200.751L92.6427 201.148L91.659 201.481C91.3575 201.592 91.0719 201.687 90.7704 201.767C90.4689 201.846 89.9453 201.989 89.5328 202.084C87.6859 202.562 85.8014 202.88 83.8999 203.036C83.059 203.115 82.3132 203.147 81.6944 203.163C81.0971 203.193 80.4987 203.193 79.9014 203.163C79.4254 202.512 78.9176 201.893 78.4258 201.306C76.7129 199.345 74.699 197.669 72.4597 196.34C71.6025 195.826 70.7119 195.37 69.794 194.975L69.0324 194.658C66.9867 193.878 65.2645 192.43 64.1453 190.548C63.8158 190.019 63.5444 189.455 63.3361 188.867C63.0504 188.105 62.749 187.375 62.4158 186.677C61.4883 184.753 60.3833 182.921 59.1154 181.203C58.3062 180.092 57.5287 178.997 56.5925 177.902C55.1486 176.093 53.7047 174.269 52.3877 172.317C51.7094 171.292 51.0844 170.233 50.5154 169.144C49.4572 167.142 48.6726 165.007 48.1829 162.797C47.9909 162.002 47.8426 161.196 47.7386 160.385C47.6276 159.576 47.5482 158.719 47.5006 157.83C47.4523 156.51 47.6239 155.191 48.0084 153.927C48.4201 152.546 48.9954 151.22 49.722 149.976C51.3368 147.275 53.2883 144.791 55.5294 142.582C56.3387 141.757 57.1161 140.995 58.0523 140.17C60.0357 138.345 62.1778 136.6 64.3992 134.95L67.7313 132.522C69.9368 130.935 72.1582 129.507 74.2368 128.19C75.173 127.603 76.0933 127.032 76.966 126.524L77.5054 126.191L77.7435 126.048C79.1557 125.207 80.5043 124.462 81.6944 123.779L83.8047 122.589L84.3442 122.304L85.4708 121.701L86.2959 121.272H86.3752L87.6129 120.638L112.461 131.888L113.222 132.522Z" fill="#F7F7F7"/>
<path opacity="0.7" d="M113.222 132.522C112.953 132.982 112.683 133.427 112.381 133.855C112.08 134.283 111.794 134.696 111.477 135.109C111.16 135.521 110.842 135.886 110.509 136.267L110.224 136.584L109.89 136.949L109.462 137.282V137.362L108.383 138.361C108.161 138.536 107.97 138.71 107.748 138.917L107.256 139.329L106.098 140.202C105.67 140.488 105.273 140.773 104.829 141.043L103.575 141.773C103.147 142.042 102.687 142.265 102.242 142.503C101.814 142.725 101.386 142.947 100.941 143.137L99.5291 143.772H99.4339L98.0693 144.311L96.4826 144.914C95.5306 145.248 94.5627 145.565 93.5948 145.851C93.0394 146.025 92.4999 146.2 92.008 146.342C78.8383 150.071 64.7006 150.944 60.8608 159.036C58.0047 165.002 73.8243 182.107 73.8243 182.107C75.9981 189.914 78.3464 191.627 80.2663 191.136C80.5654 191.055 80.8494 190.926 81.1073 190.755L81.5199 190.485C81.7731 190.28 82.0117 190.057 82.2339 189.819C82.4773 189.573 82.7002 189.307 82.9003 189.025C83.1066 188.755 83.2969 188.486 83.4556 188.232L83.8365 187.597L84.0427 187.2C84.0751 187.156 84.1017 187.108 84.1221 187.058L84.2807 186.74L84.3601 186.582L93.6741 200.751L92.6427 201.148L91.659 201.481C91.3575 201.592 91.0719 201.687 90.7704 201.767C90.4689 201.846 89.9453 201.989 89.5328 202.084C87.6859 202.562 85.8014 202.88 83.8999 203.036C83.059 203.115 82.3132 203.147 81.6944 203.163C81.0971 203.193 80.4987 203.193 79.9014 203.163C79.4254 202.512 78.9176 201.893 78.4258 201.306C76.7129 199.345 74.699 197.669 72.4597 196.34C71.6025 195.826 70.7119 195.37 69.794 194.975L69.0324 194.658C66.9867 193.878 65.2645 192.43 64.1453 190.548C63.8158 190.019 63.5444 189.455 63.3361 188.867C63.0504 188.105 62.749 187.375 62.4158 186.677C61.4883 184.753 60.3833 182.921 59.1154 181.203C58.3062 180.092 57.5287 178.997 56.5925 177.902C55.1486 176.093 53.7047 174.269 52.3877 172.317C51.7094 171.292 51.0844 170.233 50.5154 169.144C49.4572 167.142 48.6726 165.007 48.1829 162.797C47.9909 162.002 47.8426 161.196 47.7386 160.385C47.6276 159.576 47.5482 158.719 47.5006 157.83C47.4523 156.51 47.6239 155.191 48.0084 153.927C48.4201 152.546 48.9954 151.22 49.722 149.976C51.3368 147.275 53.2883 144.791 55.5294 142.582C56.3387 141.757 57.1161 140.995 58.0523 140.17C60.0357 138.345 62.1778 136.6 64.3992 134.95L67.7313 132.522C69.9368 130.935 72.1582 129.507 74.2368 128.19C75.173 127.603 76.0933 127.032 76.966 126.524L77.5054 126.191L77.7435 126.048C79.1557 125.207 80.5043 124.462 81.6944 123.779L83.8047 122.589L84.3442 122.304L85.4708 121.701L86.2959 121.272H86.3752L87.6129 120.638L112.461 131.888L113.222 132.522Z" fill="white"/>
<path d="M93.3723 200.911L84.0742 186.741C84.0742 186.741 82.3288 190.692 79.9646 191.295C82.0315 194.955 83.2768 199.021 83.614 203.211C86.9642 202.941 90.2542 202.165 93.3723 200.911Z" fill="#263238"/>
<path opacity="0.2" d="M113.222 132.522C112.953 132.982 112.683 133.427 112.381 133.855C112.08 134.283 111.794 134.696 111.477 135.109C111.16 135.521 110.842 135.886 110.509 136.267C110.43 136.377 110.334 136.474 110.223 136.552C110.001 136.822 109.763 137.076 109.525 137.33V137.409L108.446 138.409L107.796 138.964L107.304 139.377L106.146 140.249C105.717 140.535 105.32 140.821 104.876 141.09L103.623 141.82C103.194 142.09 102.734 142.312 102.29 142.55C101.861 142.772 101.433 142.995 100.989 143.185L99.5765 143.82H99.4813L98.1168 144.359L96.5301 144.962C95.578 145.295 94.6101 145.613 93.6422 145.898C92.9758 145.549 92.3094 145.152 91.6905 144.756C87.8997 142.312 84.6006 139.18 81.964 135.521C79.9361 132.727 78.2476 129.701 76.9341 126.509L77.4736 126.175L77.7116 126.048C79.1237 125.207 80.4725 124.462 81.6625 123.779L83.7728 122.589L84.3123 122.304L85.4389 121.701L86.264 121.272H86.3433L87.5809 120.638L112.429 131.888L113.222 132.522Z" fill="black"/>
<path d="M17.8604 24.4513C17.8604 24.4513 11.0217 9.26641 11.7833 5.77563C12.5449 2.28485 19.6058 12.9952 23.5726 13.7092C27.5394 14.4232 25.7464 24.4513 17.8604 24.4513Z" fill="#F7F7F7"/>
<path opacity="0.7" d="M17.8604 24.4513C17.8604 24.4513 11.0217 9.26641 11.7833 5.77563C12.5449 2.28485 19.6058 12.9952 23.5726 13.7092C27.5394 14.4232 25.7464 24.4513 17.8604 24.4513Z" fill="white"/>
<path d="M123.361 54.361L122.885 54.9164L99.9415 81.5732L93.071 89.5068L82.7256 101.502L80.4883 104.12L78.9016 105.913C78.6477 104.803 78.378 103.692 78.0765 102.613C77.8702 101.851 77.6481 101.026 77.4259 100.328C77.3307 99.9633 77.2196 99.6142 77.1086 99.2651C76.9182 98.6305 76.7278 98.0275 76.5215 97.4245C76.4864 97.2901 76.4441 97.1577 76.3946 97.0279C76.2994 96.7105 76.2042 96.409 76.0931 96.1075L75.6647 94.8858C75.2363 93.6799 74.7761 92.4898 74.316 91.3157C73.9669 90.4271 73.602 89.5544 73.2211 88.6976C71.9042 85.5242 70.4761 82.6205 68.9687 79.812C68.3658 78.6695 67.7628 77.5747 67.144 76.4957C64.1999 71.3551 60.9188 66.4149 57.3222 61.7075C56.8462 61.0887 56.3861 60.4699 55.9259 59.8987C53.9901 57.471 52.1654 55.3131 50.5628 53.5518C50.2296 53.1869 49.9281 52.8378 49.5949 52.4887L48.5159 51.3145C48.1827 50.9496 47.8495 50.5846 47.5163 50.2514L46.6119 49.3153C46.4691 49.1566 46.3263 49.0296 46.1993 48.9027C45.5964 48.268 45.0728 47.7603 44.6126 47.316L44.2159 46.9511C44.1501 46.8692 44.0756 46.7947 43.9938 46.7289C43.8123 46.5499 43.6217 46.3804 43.4226 46.2211L39.2336 45.1898L37.3454 44.7138L30.3322 14.4392L29.8085 12.1385L29.4912 10.8374V10.6787L30.3163 10.4566C33.4971 9.64965 36.7616 9.21827 40.0429 9.17131C42.2671 9.11016 44.4929 9.18967 46.7071 9.40933C51.6997 9.92379 56.6149 11.0208 61.3525 12.678C63.2565 13.3285 65.1606 14.0743 67.0805 14.9311C70.3689 16.4108 73.55 18.1181 76.6009 20.0403C80.0467 22.2082 83.3245 24.6321 86.4068 27.2916C87.5809 28.2754 88.7551 29.3226 89.8976 30.4651C91.4843 31.9566 92.9599 33.3529 94.4355 34.654C98.4499 38.24 102.131 41.223 105.431 43.6824L106.05 44.1267C108.335 45.8086 110.43 47.3001 112.302 48.4267C115.479 50.526 118.816 52.3723 122.282 53.9485L123.298 54.3769L123.361 54.361Z" fill="#F7F7F7"/>
<path opacity="0.7" d="M123.361 54.361L122.885 54.9164L99.9415 81.5732L93.071 89.5068L82.7256 101.502L80.4883 104.12L78.9016 105.913C78.6477 104.803 78.378 103.692 78.0765 102.613C77.8702 101.851 77.6481 101.026 77.4259 100.328C77.3307 99.9633 77.2196 99.6142 77.1086 99.2651C76.9182 98.6305 76.7278 98.0275 76.5215 97.4245C76.4864 97.2901 76.4441 97.1577 76.3946 97.0279C76.2994 96.7105 76.2042 96.409 76.0931 96.1075L75.6647 94.8858C75.2363 93.6799 74.7761 92.4898 74.316 91.3157C73.9669 90.4271 73.602 89.5544 73.2211 88.6976C71.9042 85.5242 70.4761 82.6205 68.9687 79.812C68.3658 78.6695 67.7628 77.5747 67.144 76.4957C64.5488 71.9517 61.6878 67.5647 58.5757 63.3577C58.1473 62.8024 57.7189 62.2629 57.3222 61.771L56.4971 60.692L55.9259 59.9621C54.8787 58.6451 53.879 57.4392 52.9111 56.2968C51.9432 55.1544 51.3244 54.3928 50.5628 53.5518C50.2296 53.1869 49.9281 52.8378 49.5949 52.4887L49.4204 52.2983L48.5159 51.3145C48.1827 50.9496 47.8495 50.5846 47.5163 50.2514L46.6119 49.3153C46.4691 49.1566 46.3263 49.0296 46.1993 48.9027C45.5964 48.268 45.0728 47.7603 44.6126 47.316L44.2159 46.9511C44.1501 46.8692 44.0756 46.7947 43.9938 46.7289C43.8123 46.5499 43.6217 46.3804 43.4226 46.2211L39.2336 45.1898L37.3454 44.7138L30.3322 14.4392L29.8085 12.1385L29.4912 10.8374V10.6787L30.3163 10.4566C33.4971 9.64965 36.7616 9.21827 40.0429 9.17131C42.2671 9.11016 44.4929 9.18967 46.7071 9.40933C51.6997 9.92379 56.6149 11.0208 61.3525 12.678C63.2565 13.3285 65.1606 14.0743 67.0805 14.9311C70.3689 16.4108 73.55 18.1181 76.6009 20.0403C80.0467 22.2082 83.3245 24.6321 86.4068 27.2916C87.5809 28.2754 88.7551 29.3226 89.8976 30.4651C91.4843 31.9566 92.9599 33.3529 94.4355 34.654C98.4499 38.24 102.131 41.223 105.431 43.6824L106.05 44.1267C108.335 45.8086 110.43 47.3001 112.302 48.4267C115.479 50.526 118.816 52.3723 122.282 53.9485L123.298 54.3769L123.361 54.361Z" fill="white"/>
<path opacity="0.2" d="M42.6295 26.0059L39.5988 34.5741L39.1863 45.1099L43.3752 46.1572C48.4734 50.9423 53.1405 56.1669 57.3225 61.7705C52.7845 34.8598 42.6295 26.0059 42.6295 26.0059Z" fill="black"/>
<path d="M44.6443 47.3314C40.0429 53.0436 32.2997 55.7093 30.9986 56.2329C29.031 57.0104 25.7624 61.2152 23.065 65.0392C21.7956 66.8798 20.669 68.641 19.8915 69.7993C19.2368 70.8248 18.2143 71.5607 17.0339 71.8558C15.8536 72.1509 14.605 71.9828 13.5447 71.386C3.94504 76.7491 1.32696 69.7993 0.168661 64.8646C-0.370823 62.5639 1.85059 56.4233 4.38934 50.5841C7.3089 43.793 10.6251 37.3192 10.6251 37.3192C11.8494 31.8164 13.8643 26.52 16.6071 21.5948C17.4671 20.0941 18.4488 18.6666 19.5425 17.3266C20.0391 16.7112 20.5688 16.1232 21.1292 15.5653L21.7639 14.9306C22.2558 14.4546 22.7477 14.0262 23.2078 13.6612C23.668 13.2963 23.7949 13.2011 24.0646 13.0266C25.5864 11.8193 27.3682 10.9827 29.2691 10.583L29.4594 10.7417L30.6178 11.7096L30.8241 11.8841C39.5827 19.2782 44.3905 25.5934 46.596 30.9247C49.5156 38.0491 47.8178 43.4122 44.6443 47.3314Z" fill="#F7F7F7"/>
<path opacity="0.7" d="M44.6443 47.3314C40.0429 53.0436 32.2997 55.7093 30.9986 56.2329C29.031 57.0104 25.7624 61.2152 23.065 65.0392C21.7956 66.8798 20.669 68.641 19.8915 69.7993C19.2368 70.8248 18.2143 71.5607 17.0339 71.8558C15.8536 72.1509 14.605 71.9828 13.5447 71.386C3.94504 76.7491 1.32696 69.7993 0.168661 64.8646C-0.370823 62.5639 1.85059 56.4233 4.38934 50.5841C7.3089 43.793 10.6251 37.3192 10.6251 37.3192C11.8494 31.8164 13.8643 26.52 16.6071 21.5948C17.4671 20.0941 18.4488 18.6666 19.5425 17.3266C20.0391 16.7112 20.5688 16.1232 21.1292 15.5653L21.7639 14.9306C22.2558 14.4546 22.7477 14.0262 23.2078 13.6612C23.668 13.2963 23.7949 13.2011 24.0646 13.0266C25.5864 11.8193 27.3682 10.9827 29.2691 10.583L29.4594 10.7417L30.6178 11.7096L30.8241 11.8841C39.5827 19.2782 44.3905 25.5934 46.596 30.9247C49.5156 38.0491 47.8178 43.4122 44.6443 47.3314Z" fill="white"/>
<path d="M22.0493 36.3202C22.1921 37.3356 21.7637 38.2718 21.0655 38.367C20.3674 38.4622 19.7168 37.6689 19.5899 36.6375C19.4629 35.6061 19.8914 34.67 20.5737 34.5906C21.256 34.5113 21.9382 35.2729 22.0493 36.3202Z" fill="#263238"/>
<path d="M24.3186 33.0681C24.2257 33.1257 24.1185 33.1562 24.0091 33.1562C23.8998 33.1562 23.7927 33.1257 23.6998 33.0681C23.124 32.5766 22.4392 32.2295 21.7024 32.0556C20.9656 31.8818 20.198 31.8862 19.4632 32.0684C19.3117 32.1145 19.1482 32.1007 19.0065 32.0298C18.8648 31.959 18.7557 31.8365 18.7016 31.6876C18.6513 31.5361 18.6632 31.3709 18.7346 31.2281C18.8059 31.0853 18.9311 30.9767 19.0824 30.926C20.0107 30.6901 20.9815 30.6763 21.9161 30.8859C22.8507 31.0954 23.7227 31.5223 24.4614 32.1319C24.5822 32.2365 24.6592 32.3828 24.6768 32.5417C24.6945 32.7005 24.6515 32.8602 24.5566 32.9887L24.3186 33.0681Z" fill="#263238"/>
<path opacity="0.7" d="M4.51631 69.3871C4.51631 69.3871 1.16835 63.31 3.13588 60.8823C5.10341 58.4546 3.27867 65.6107 4.51631 69.3871Z" fill="black"/>
<path opacity="0.7" d="M14.9728 68.8635C14.9572 68.7557 14.971 68.6456 15.0129 68.5451C15.0548 68.4445 15.1232 68.3571 15.2108 68.2923C15.8422 67.8696 16.3633 67.3019 16.7304 66.6366C17.0975 65.9714 17.3001 65.2279 17.3211 64.4683C17.3168 64.3899 17.3284 64.3115 17.355 64.2376C17.3816 64.1637 17.4227 64.0959 17.476 64.0382C17.5292 63.9805 17.5935 63.9341 17.665 63.9017C17.7365 63.8693 17.8139 63.8515 17.8924 63.8495C17.9716 63.8452 18.0508 63.8566 18.1256 63.883C18.2004 63.9094 18.2693 63.9503 18.3282 64.0034C18.3872 64.0565 18.4351 64.1206 18.4692 64.1922C18.5033 64.2639 18.523 64.3415 18.527 64.4207C18.5102 65.3785 18.2654 66.3186 17.8129 67.1629C17.3603 68.0073 16.7131 68.7317 15.9248 69.2761C15.8602 69.322 15.7872 69.3546 15.71 69.3723C15.6328 69.3899 15.5529 69.3922 15.4748 69.379C15.3967 69.3657 15.3219 69.3371 15.2549 69.295C15.1878 69.2528 15.1297 69.1979 15.0838 69.1333L14.9728 68.8635Z" fill="black"/>
<path opacity="0.7" d="M23.1126 65.039C21.8432 66.8796 20.7166 68.6408 19.9392 69.7991C19.2844 70.8246 18.2619 71.5605 17.0815 71.8556C15.9012 72.1507 14.6526 71.9826 13.5923 71.3858C3.99264 76.7489 1.37457 69.7991 0.216269 64.8644C-0.323215 62.5637 1.89819 56.4231 4.43694 50.5839C5.42214 49.8746 6.48725 49.2835 7.61038 48.8227C8.39174 48.4721 9.25853 48.3574 10.1042 48.4927C10.9499 48.628 11.7376 49.0074 12.3705 49.5844C13.6716 51.0124 13.4336 53.2021 13.3543 55.1379C13.275 57.0737 13.6875 59.422 15.5122 60.1042C16.5603 60.2801 17.6253 60.3334 18.6857 60.2629C19.8443 60.4655 20.9045 61.0423 21.704 61.9049C22.5036 62.7675 22.9983 63.8684 23.1126 65.039Z" fill="black"/>
<path d="M123.361 54.3608C118.791 51.9966 112.73 48.5058 105.907 44.539L95.1492 38.1921C92.1027 36.415 89.0086 34.6061 85.9462 32.8449C82.8839 31.0836 79.5994 29.2113 76.5846 27.5135C73.5698 25.8157 70.2378 24.0069 67.1754 22.4519C64.7636 21.2143 62.4152 20.0718 60.3049 19.0563C55.0052 16.6128 50.6259 15.0102 47.7539 14.7722H47.1351C45.1461 14.742 43.1666 14.4919 41.2326 14.0264C33.9495 12.3128 30.7285 8.88546 19.5104 17.3585L8.97461 14.7722C8.97461 14.7722 13.1001 -2.6817 34.6001 0.364801C35.8695 0.555207 37.1706 0.745604 38.4717 0.999478C41.0263 1.47549 43.565 2.03084 46.0879 2.68139C51.6991 4.13003 57.2288 5.87792 62.6532 7.91757C64.6366 8.63159 66.4931 9.36149 68.175 10.0596C72.237 11.6464 75.3946 13.122 77.1876 13.963C78.2665 14.4707 78.7743 14.7722 78.7743 14.7722L84.4389 16.9301L92.5153 20.1035L102.813 24.0703L108.24 32.6386L123.361 54.3608Z" fill="#F7F7F7"/>
<path opacity="0.6" d="M123.361 54.3608C118.791 51.9966 112.73 48.5058 105.907 44.539L95.1492 38.1921C92.1027 36.415 89.0086 34.6061 85.9462 32.8449C82.8839 31.0836 79.5994 29.2113 76.5846 27.5135C73.5698 25.8157 70.2378 24.0069 67.1754 22.4519C64.7636 21.2143 62.4152 20.0718 60.3049 19.0563C55.0052 16.6128 50.6259 15.0102 47.7539 14.7722H47.1351C45.1461 14.742 43.1666 14.4919 41.2326 14.0264C33.9495 12.3128 30.7285 8.88546 19.5104 17.3585L8.97461 14.7722C8.97461 14.7722 13.1001 -2.6817 34.6001 0.364801C35.8695 0.555207 37.1706 0.745604 38.4717 0.999478C41.0263 1.47549 43.565 2.03084 46.0879 2.68139C51.6991 4.13003 57.2288 5.87792 62.6532 7.91757C64.6366 8.63159 66.4931 9.36149 68.175 10.0596C72.237 11.6464 75.3946 13.122 77.1876 13.963C78.2665 14.4707 78.7743 14.7722 78.7743 14.7722L84.4389 16.9301L92.5153 20.1035L102.813 24.0703L108.24 32.6386L123.361 54.3608Z" fill="white"/>
<path opacity="0.7" d="M14.0684 5.95019L22.0813 15.7878C22.0813 15.7878 26.8414 11.6307 30.8082 11.9163C34.775 12.2019 26.0481 0 26.0481 0C21.6055 0.908469 17.4766 2.95929 14.0684 5.95019Z" fill="black"/>
<path d="M22.8745 19.7382C22.8745 19.7382 16.0516 4.55334 16.8132 1.06256C17.5749 -2.42822 24.6199 8.26626 28.6026 8.99615C32.5852 9.72604 30.7764 19.7382 22.8745 19.7382Z" fill="#F7F7F7"/>
<path opacity="0.7" d="M22.8745 19.7382C22.8745 19.7382 16.0516 4.55334 16.8132 1.06256C17.5749 -2.42822 24.6199 8.26626 28.6026 8.99615C32.5852 9.72604 30.7764 19.7382 22.8745 19.7382Z" fill="white"/>
<path opacity="0.7" d="M18.8603 5.58438C18.835 5.51284 18.8393 5.43419 18.872 5.36575C18.9047 5.29731 18.9633 5.24469 19.0349 5.21944C19.1064 5.19419 19.185 5.19838 19.2535 5.23111C19.3219 5.26384 19.3745 5.32244 19.3998 5.39398C20.9865 8.72609 23.6363 13.6608 26.2544 14.7239C30.2847 16.3106 24.0965 20.3884 22.0813 15.7394C20.7819 12.4302 19.7058 9.03757 18.8603 5.58438Z" fill="black"/>
<path opacity="0.2" d="M94.6101 79.5256C93.1186 84.7301 87.6444 93.9013 82.6939 101.565L80.4566 104.183L78.8699 105.976C78.616 104.865 78.3463 103.771 78.0448 102.676C77.8385 101.914 77.6164 101.089 77.3942 100.391C77.0769 99.2803 76.7278 98.1854 76.3629 97.0906C76.2677 96.805 76.1725 96.5194 76.0614 96.2179L75.633 94.9485C75.2045 93.7744 74.7444 92.5843 74.2842 91.426C73.9352 90.5269 73.5703 89.6383 73.1895 88.7603C73.5861 88.3319 73.9986 87.9035 74.4429 87.4592C77.6551 84.1922 81.264 81.3403 85.185 78.9703C86.4385 78.2245 87.7555 77.5264 89.1359 76.86C89.8182 76.5426 90.5164 76.2252 91.2304 75.9396C94.8957 74.464 95.5939 76.1618 94.6101 79.5256Z" fill="black"/>
<path d="M235.875 64.4678C242.796 67.3438 250.231 68.7748 257.725 68.6726C270.276 68.5298 283.239 88.2527 280.557 116.925C279.066 133.03 277.923 145.739 277.781 153.721C277.67 159.956 278.637 163.241 277.4 163.241C274.56 163.177 272.894 151.563 272.894 151.563C272.717 155.678 272.78 159.8 273.084 163.907C273.639 170.651 274.94 177.521 272.925 177.077C269.038 176.22 265.642 147.802 265.642 147.802C265.002 149.865 264.603 151.995 264.452 154.149C264.294 157.687 264.96 161.289 263.357 161.051C260.295 160.559 258.597 140.868 260.85 124.684C263.58 105.643 268.546 75.1305 246.427 74.004L235.875 64.4678Z" fill="#263238"/>
<path d="M256.55 120.274C256.55 120.274 246.792 123.067 231.829 126.621C226.641 127.859 220.802 129.176 214.518 130.493C210.25 131.397 205.76 132.302 201.142 133.19C183.293 136.714 165.245 139.141 147.099 140.458L144.306 140.616L142.18 140.727C140.45 140.807 138.737 140.87 137.055 140.902H135.071C132.929 140.902 130.835 140.902 128.725 140.902H127.138C126.122 140.902 125.139 140.902 124.139 140.775C123.457 140.775 122.79 140.775 122.124 140.664C120.616 140.664 119.157 140.489 117.713 140.362C116.269 140.235 114.841 140.077 113.444 139.902L112.35 139.743L109.779 139.363L107.701 138.998C100.926 137.939 94.444 135.492 88.66 131.81C85.6637 129.809 83.1885 127.122 81.4404 123.971C80.7891 122.806 80.2575 121.578 79.8537 120.306C77.7547 113.901 76.9457 107.144 77.4736 100.425C78.1933 92.735 80.876 85.3592 85.2644 79.0039C96.9902 61.6611 117.522 53.791 117.522 53.791C117.522 53.791 119.744 53.8862 123.361 54.394L126.154 54.8383C127.899 55.1397 129.835 55.5522 131.898 56.0441C137.391 57.3684 142.734 59.2505 147.844 61.6611C147.844 61.6611 148.162 61.7722 148.876 61.9626C149.844 62.2165 151.589 62.6131 154.112 63.0416C156.191 63.3906 158.872 63.7556 162.046 64.0571L164.902 64.3268C167.171 64.4855 169.662 64.6442 172.518 64.7394C174.549 64.8346 176.707 64.8822 179.023 64.898C185.037 64.898 192.035 64.787 200.079 64.311C204.966 64.0254 210.234 63.5969 215.946 63.0257C219.786 62.6449 223.88 62.2006 228.037 61.6611C231.924 62.3836 235.696 63.6216 239.255 65.3423H239.35C240.033 65.6755 240.715 66.0087 241.397 66.3896L241.81 66.6117C245.776 68.8054 249.317 71.6911 252.266 75.1323C253.554 76.6475 254.691 78.2842 255.662 80.0195L255.741 80.1147C260.708 88.9051 262.628 101.694 256.55 120.274Z" fill="#F7F7F7"/>
<path opacity="0.7" d="M256.55 120.274C256.55 120.274 246.792 123.067 231.829 126.621C226.641 127.859 220.802 129.176 214.518 130.493C210.25 131.397 205.76 132.302 201.142 133.19C183.293 136.714 165.245 139.141 147.099 140.458L144.306 140.616L142.18 140.727C140.45 140.807 138.737 140.87 137.055 140.902H135.071C132.929 140.902 130.835 140.902 128.725 140.902H127.138C126.122 140.902 125.139 140.902 124.139 140.775C123.457 140.775 122.79 140.775 122.124 140.664C120.616 140.664 119.157 140.489 117.713 140.362C116.269 140.235 114.841 140.077 113.444 139.902L112.35 139.743L109.779 139.363L107.701 138.998C100.926 137.939 94.444 135.492 88.66 131.81C85.6637 129.809 83.1885 127.122 81.4404 123.971C80.7891 122.806 80.2575 121.578 79.8537 120.306C77.7547 113.901 76.9457 107.144 77.4736 100.425C78.1933 92.735 80.876 85.3592 85.2644 79.0039C96.9902 61.6611 117.522 53.791 117.522 53.791C117.522 53.791 119.744 53.8862 123.361 54.394L126.154 54.8383C127.899 55.1397 129.835 55.5522 131.898 56.0441C137.391 57.3684 142.734 59.2505 147.844 61.6611C147.844 61.6611 148.162 61.7722 148.876 61.9626C149.844 62.2165 151.589 62.6131 154.112 63.0416C156.191 63.3906 158.872 63.7556 162.046 64.0571L164.902 64.3268C167.171 64.4855 169.662 64.6442 172.518 64.7394C174.549 64.8346 176.707 64.8822 179.023 64.898C185.037 64.898 192.035 64.787 200.079 64.311C204.966 64.0254 210.234 63.5969 215.946 63.0257C219.786 62.6449 223.88 62.2006 228.037 61.6611C231.924 62.3836 235.696 63.6216 239.255 65.3423H239.35C240.033 65.6755 240.715 66.0087 241.397 66.3896L241.81 66.6117C245.776 68.8054 249.317 71.6911 252.266 75.1323C253.554 76.6475 254.691 78.2842 255.662 80.0195L255.741 80.1147C260.708 88.9051 262.628 101.694 256.55 120.274Z" fill="white"/>
<path d="M263.738 227.362C263.468 227.627 263.214 227.908 262.977 228.203C262.752 228.467 262.54 228.742 262.342 229.028C262.1 229.349 261.882 229.689 261.692 230.043C261.565 230.234 261.454 230.44 261.343 230.646C261.012 231.295 260.721 231.962 260.47 232.646C260.259 233.225 260.089 233.819 259.962 234.423C259.851 234.915 259.756 235.375 259.676 235.835C259.676 236.009 259.676 236.168 259.676 236.311C259.676 236.454 259.676 236.755 259.597 236.977C259.518 237.199 259.597 237.263 259.597 237.406C259.505 238.596 259.537 239.792 259.692 240.976H243.381C243.431 240.262 243.553 239.555 243.746 238.865C243.746 238.77 243.746 238.675 243.825 238.596C244.118 237.624 244.54 236.695 245.079 235.835L245.555 235.105C245.729 234.851 245.888 234.597 246.078 234.359C246.443 233.851 246.824 233.36 247.252 232.772C249.627 230.006 251.852 227.114 253.917 224.109C256.916 219.619 257.836 211.764 257.455 204.101C257.455 203.751 257.455 203.402 257.455 203.037C257.455 202.926 257.455 202.784 257.455 202.657C257.455 201.99 257.36 201.308 257.296 200.657C257.233 200.007 257.154 199.245 257.058 198.547C257.058 198.372 257.058 198.23 257.058 198.055C256.979 197.468 256.9 196.913 256.789 196.357C256.789 196.167 256.789 195.977 256.693 195.786C256.582 195.136 256.471 194.485 256.328 193.866C256.106 192.835 255.868 191.851 255.599 190.915C255.329 189.979 255.123 189.328 254.853 188.567L254.488 187.583C254.361 187.265 254.234 186.964 254.091 186.678C253.679 185.79 253.219 184.901 252.711 183.997C252.505 183.584 252.251 183.156 251.997 182.743C251.6 182.045 251.156 181.331 250.712 180.617L249.125 178.332C248.569 177.523 247.982 176.746 247.379 175.873L247.157 175.587C242.191 168.812 235.971 161.418 230.322 153.04C229.465 151.739 228.609 150.438 227.783 149.089C227.355 148.407 226.927 147.724 226.498 147.01C226.457 146.928 226.409 146.848 226.355 146.772C225.911 145.979 225.435 145.186 225.007 144.376C224.578 143.567 224.118 142.79 223.69 141.949C222.892 140.386 221.997 138.876 221.008 137.427C219.219 134.813 217.084 132.454 214.661 130.413C210.102 126.447 204.352 124.114 198.318 123.781L204.094 115.276L214.106 100.504C214.106 100.504 238.319 59.3443 255.726 80.0509L255.805 80.1461C261.882 87.445 262.58 97.6 261.311 108.31C261.184 109.326 261.057 110.357 260.914 111.389C260.771 112.42 260.502 113.848 260.279 115.102C260.184 115.657 260.089 116.244 259.978 116.799C259.867 117.355 259.724 118.053 259.613 118.672C259.423 119.56 259.232 120.449 259.058 121.321C259.058 121.512 258.978 121.718 258.931 121.909C258.82 122.464 258.693 123.035 258.566 123.59C256.979 131.032 255.091 138.22 254.266 144.345C254.266 144.805 254.139 145.233 254.091 145.678C253.975 146.566 253.896 147.423 253.853 148.248C253.853 148.661 253.853 149.057 253.853 149.454C253.813 150.21 253.813 150.967 253.853 151.723C253.853 152.088 253.853 152.453 253.933 152.802C253.925 152.881 253.925 152.961 253.933 153.04C253.933 153.389 254.012 153.722 254.075 154.055L254.171 154.611C254.171 154.785 254.171 154.96 254.282 155.134C254.393 155.309 254.424 155.706 254.504 155.991C254.583 156.277 254.662 156.451 254.742 156.658C254.821 156.864 254.885 157.054 254.964 157.245C255.075 157.501 255.202 157.75 255.345 157.991C255.478 158.283 255.643 158.56 255.837 158.816C257.201 160.767 258.407 162.529 259.47 164.163L261.057 166.654C261.549 167.447 261.993 168.241 262.406 168.939L262.485 169.066C262.882 169.78 263.247 170.462 263.58 171.129L263.818 171.605C263.976 171.906 264.103 172.223 264.246 172.541C264.571 173.225 264.852 173.93 265.087 174.651C265.087 174.826 265.214 174.984 265.262 175.159C265.648 176.295 265.934 177.463 266.119 178.65C266.26 179.516 266.344 180.39 266.372 181.268C266.372 181.633 266.372 181.982 266.372 182.347C266.359 184.094 266.221 185.839 265.96 187.567C265.968 187.72 265.968 187.874 265.96 188.027C265.881 188.646 265.801 189.312 265.738 190.01C265.738 190.36 265.738 190.693 265.658 191.058V191.756C265.658 191.946 265.658 192.153 265.658 192.359C265.658 193.311 265.627 194.31 265.563 195.358C265.563 196.865 265.563 198.531 265.563 200.118C265.563 200.975 265.563 201.847 265.643 202.72C265.643 202.91 265.643 203.085 265.643 203.275C265.643 204.862 265.785 206.338 265.865 207.845C265.865 208.607 265.865 209.353 265.992 210.082C265.992 211.177 266.134 212.256 266.214 213.256C266.341 215.223 266.499 217.032 266.642 218.603L266.737 219.698C266.83 221.117 266.61 222.539 266.091 223.864C265.573 225.188 264.77 226.383 263.738 227.362Z" fill="#F7F7F7"/>
<path opacity="0.7" d="M263.738 227.362C263.468 227.627 263.214 227.908 262.977 228.203C262.752 228.467 262.54 228.742 262.342 229.028C262.1 229.349 261.882 229.689 261.692 230.043C261.565 230.234 261.454 230.44 261.343 230.646C261.012 231.295 260.721 231.962 260.47 232.646C260.259 233.225 260.089 233.819 259.962 234.423C259.851 234.915 259.756 235.375 259.676 235.835C259.676 236.009 259.676 236.168 259.676 236.311C259.676 236.454 259.597 236.993 259.581 237.311C259.574 237.342 259.574 237.374 259.581 237.406C259.489 238.596 259.521 239.792 259.676 240.976H243.381C243.431 240.262 243.553 239.555 243.746 238.865C243.746 238.77 243.746 238.675 243.825 238.596C244.118 237.624 244.54 236.695 245.079 235.835L245.555 235.105C245.729 234.851 245.888 234.597 246.078 234.359C246.443 233.851 246.824 233.36 247.252 232.772C249.627 230.006 251.852 227.114 253.917 224.109C256.916 219.619 257.836 211.764 257.455 204.101C257.455 203.751 257.455 203.402 257.455 203.037C257.455 202.926 257.455 202.784 257.455 202.657C257.455 201.99 257.36 201.308 257.296 200.657C257.233 200.007 257.154 199.229 257.058 198.547C257.058 198.372 257.058 198.23 257.058 198.055C256.979 197.468 256.9 196.913 256.789 196.357C256.789 196.167 256.789 195.977 256.693 195.786C256.582 195.136 256.471 194.485 256.328 193.866C256.106 192.835 255.868 191.851 255.599 190.915C255.329 189.979 255.123 189.328 254.853 188.567L254.488 187.583C254.371 187.275 254.239 186.973 254.091 186.678C253.679 185.79 253.219 184.901 252.711 183.997C252.505 183.584 252.251 183.156 251.997 182.743C251.6 182.045 251.156 181.331 250.712 180.617L249.125 178.332C248.569 177.523 247.982 176.746 247.379 175.873L247.157 175.587C242.191 168.812 235.971 161.418 230.322 153.04C229.465 151.739 228.609 150.438 227.783 149.089C227.355 148.407 226.927 147.724 226.498 147.01C226.457 146.928 226.409 146.848 226.355 146.772C225.911 145.979 225.435 145.186 225.007 144.376C224.578 143.567 224.118 142.79 223.69 141.949C222.892 140.386 221.997 138.876 221.008 137.427C219.219 134.813 217.084 132.454 214.661 130.413C210.102 126.447 204.352 124.114 198.318 123.781L204.094 115.276L214.106 100.504C214.106 100.504 238.319 59.3443 255.726 80.0509L255.805 80.1461C261.882 87.445 262.58 97.6 261.311 108.31C261.184 109.326 261.057 110.357 260.914 111.389C260.771 112.42 260.502 113.848 260.279 115.102C260.184 115.657 260.089 116.244 259.978 116.799C259.867 117.355 259.724 118.053 259.613 118.672C259.423 119.56 259.232 120.449 259.058 121.321C259.058 121.512 258.978 121.718 258.931 121.909C258.82 122.464 258.693 123.035 258.566 123.59C256.979 131.032 255.091 138.22 254.266 144.345C254.266 144.805 254.139 145.233 254.091 145.678C253.975 146.566 253.896 147.423 253.853 148.248C253.853 148.661 253.853 149.057 253.853 149.454C253.813 150.21 253.813 150.967 253.853 151.723C253.853 152.088 253.853 152.453 253.933 152.802C253.925 152.881 253.925 152.961 253.933 153.04C253.933 153.389 254.012 153.722 254.075 154.055L254.171 154.611C254.171 154.785 254.171 154.96 254.282 155.134C254.393 155.309 254.424 155.706 254.504 155.991C254.583 156.277 254.662 156.451 254.742 156.658C254.821 156.864 254.885 157.054 254.964 157.245C255.075 157.501 255.202 157.75 255.345 157.991C255.478 158.283 255.643 158.56 255.837 158.816C257.201 160.767 258.407 162.529 259.47 164.163L261.057 166.654C261.549 167.447 261.993 168.241 262.406 168.939L262.485 169.066C262.882 169.78 263.247 170.462 263.58 171.129L263.818 171.605C263.976 171.906 264.103 172.223 264.246 172.541C264.571 173.225 264.852 173.93 265.087 174.651C265.087 174.826 265.214 174.984 265.262 175.159C265.648 176.295 265.934 177.463 266.119 178.65C266.26 179.516 266.344 180.39 266.372 181.268C266.372 181.633 266.372 181.982 266.372 182.347C266.359 184.094 266.221 185.839 265.96 187.567C265.968 187.72 265.968 187.874 265.96 188.027C265.881 188.646 265.801 189.312 265.738 190.01C265.738 190.344 265.738 190.693 265.658 191.058V191.756C265.658 191.946 265.658 192.153 265.658 192.359C265.658 193.311 265.627 194.31 265.563 195.358C265.563 196.865 265.563 198.531 265.563 200.118C265.563 200.975 265.563 201.847 265.643 202.72C265.643 202.91 265.643 203.085 265.643 203.275C265.643 204.862 265.785 206.338 265.865 207.845C265.865 208.607 265.865 209.353 265.992 210.082C265.992 211.177 266.134 212.256 266.214 213.256C266.341 215.223 266.499 217.032 266.642 218.603L266.737 219.698C266.83 221.117 266.61 222.539 266.091 223.864C265.573 225.188 264.77 226.383 263.738 227.362Z" fill="white"/>
<path opacity="0.2" d="M147.099 140.456C118.236 136.839 116.951 123.732 116.951 123.732L110.461 134.951L109.811 139.362C122.162 141.092 134.667 141.459 147.099 140.456Z" fill="black"/>
<path d="M123.108 114.671C120.919 118.233 119.086 122.001 117.633 125.921C115.938 130.468 114.544 135.122 113.46 139.852C106.653 168.667 107.336 205.209 107.843 218.157C107.989 220.759 107.245 223.333 105.733 225.456C105.29 226.037 104.923 226.671 104.638 227.344C104.316 228.064 104.133 228.84 104.099 229.629C104.001 231.028 104.45 232.41 105.352 233.484L104.099 235.706L101.322 241.227H85.1216C85.162 240.896 85.2257 240.567 85.312 240.244C85.4889 239.336 85.722 238.441 86.0101 237.562C86.1053 237.324 86.2005 237.118 86.3116 236.88C87.1285 235.154 88.0948 233.503 89.1995 231.945C90.4055 230.216 91.7031 228.553 93.0869 226.963C93.7533 226.185 94.3563 225.535 94.8164 225.027C95.2765 224.519 95.816 223.98 95.816 223.98C96.2445 221.489 96.5777 218.934 96.8157 216.332C96.9426 215.142 97.0537 213.936 97.133 212.714C97.4821 208.081 97.5773 203.321 97.5297 198.434C97.5297 197.196 97.5297 195.943 97.4504 194.689C97.3076 189.929 97.0061 185.312 96.5936 180.678C96.4825 179.33 96.3555 177.997 96.2127 176.664C95.7526 172.174 95.1972 167.762 94.626 163.494C94.4356 162.177 94.2452 160.876 94.023 159.591C93.3249 154.974 92.5474 150.578 91.7699 146.5C91.6589 145.945 91.5478 145.406 91.4526 144.914C90.4688 139.947 89.5009 135.504 88.6441 131.76C87.5651 127.079 86.6607 123.509 86.1053 121.367L85.4707 119.114L123.108 114.671Z" fill="#F7F7F7"/>
<path opacity="0.7" d="M123.108 114.671C120.919 118.233 119.086 122.001 117.633 125.921C115.938 130.468 114.544 135.122 113.46 139.852C106.653 168.667 107.336 205.209 107.843 218.157C107.989 220.759 107.245 223.333 105.733 225.456C105.29 226.037 104.923 226.671 104.638 227.344C104.316 228.064 104.133 228.84 104.099 229.629C104.001 231.028 104.45 232.41 105.352 233.484L104.099 235.706L101.322 241.227H85.1216C85.162 240.896 85.2257 240.567 85.312 240.244C85.4889 239.336 85.722 238.441 86.0101 237.562C86.1053 237.324 86.2005 237.118 86.3116 236.88C87.1285 235.154 88.0948 233.503 89.1995 231.945C90.4055 230.216 91.7031 228.553 93.0869 226.963C93.7533 226.185 94.3563 225.535 94.8164 225.027C95.2765 224.519 95.816 223.98 95.816 223.98C96.2445 221.489 96.5777 218.934 96.8157 216.332C96.9426 215.142 97.0537 213.936 97.133 212.714C97.4821 208.081 97.5773 203.321 97.5297 198.434C97.5297 197.196 97.5297 195.943 97.4504 194.689C97.3076 189.929 97.0061 185.312 96.5936 180.678C96.4825 179.33 96.3555 177.997 96.2127 176.664C95.7526 172.174 95.1972 167.762 94.626 163.494C94.4356 162.177 94.2452 160.876 94.023 159.591C93.3249 154.974 92.5474 150.578 91.7699 146.5C91.6589 145.945 91.5478 145.406 91.4526 144.914C90.4688 139.947 89.5009 135.504 88.6441 131.76C87.5651 127.079 86.6607 123.509 86.1053 121.367L85.4707 119.114L123.108 114.671Z" fill="white"/>
<path d="M89.1995 231.963C87.2214 234.747 85.8337 237.905 85.1216 241.245H101.322L104.083 235.723C98.8657 235.905 93.7043 234.601 89.1995 231.963Z" fill="#263238"/>
<path d="M247.252 232.852C245.062 235.581 243.618 237.77 243.396 241.007H259.581C259.363 239.299 259.39 237.568 259.66 235.866C255.399 235.473 251.218 234.458 247.252 232.852Z" fill="#263238"/>
<path d="M195.303 232.168C190.701 238.88 191.082 241.006 191.082 241.006H207.838L208.98 235.373C204.305 234.88 199.71 233.803 195.303 232.168Z" fill="#263238"/>
<path opacity="0.7" d="M57.1003 40.3347C52.3401 38.0657 51.0231 32.179 49.9124 27.0856C48.8017 21.9923 46.6121 16.1055 41.5504 14.852C41.5504 14.5823 41.4235 14.3126 41.36 14.027C40.4397 10.314 39.5194 5.062 38.5991 1C41.1537 1.47602 43.6925 2.03136 46.2154 2.68192C46.5645 6.3155 47.1357 10.6155 47.8021 14.8044C48.2703 17.5251 48.8955 20.2165 49.6744 22.865C51.5528 28.9243 54.0408 34.7774 57.1003 40.3347Z" fill="black"/>
<path opacity="0.7" d="M67.287 21.5785V22.4829C67.0078 28.1115 65.8182 33.6575 63.7645 38.9055L63.336 39.9844L66.2239 37.6202C64.5467 40.9319 63.4721 44.5155 63.0504 48.2036C62.5661 52.2073 62.77 56.2643 63.6534 60.1992C59.8294 56.2007 58.8932 49.6317 58.6394 43.7132C58.5283 40.0955 59.2741 28.1793 60.3213 19.1032C60.6587 15.0835 60.6215 11.0411 60.2102 7.02832C62.1936 7.75821 64.8276 8.61503 66.5571 9.37666C67.4456 11.9313 67.3822 18.9763 67.287 21.5785Z" fill="black"/>
<path opacity="0.7" d="M86.3591 27.2278C86.3914 28.8498 86.3119 30.4721 86.1211 32.0832C86.1288 32.2259 86.1288 32.3689 86.1211 32.5116V32.8765C84.9727 41.5192 81.7619 49.7587 76.7595 56.8994C76.3945 57.4231 76.0296 57.8991 75.6646 58.391L79.9329 49.1721C75.9058 53.4421 72.8763 58.5525 71.0631 64.1349C69.3919 69.1989 68.7184 74.5389 69.0797 79.8592C68.4768 78.7168 67.8738 77.622 67.255 76.543C66.1653 71.8647 65.8969 67.0327 66.4617 62.2626C67.0601 56.176 68.3265 50.1739 70.2381 44.3644C71.9358 40.3659 74.0462 36.6212 74.9982 32.1625C75.9057 30.7453 76.4957 29.1485 76.7277 27.4817C76.7277 27.4817 76.7277 27.3706 76.7277 27.323C76.8354 24.853 76.7983 22.3788 76.6166 19.9131C76.7109 17.8948 76.9442 15.8855 77.3148 13.8994C78.3938 14.4072 78.9015 14.7086 78.9015 14.7086L84.5661 16.8666C85.6089 20.2283 86.2116 23.7111 86.3591 27.2278Z" fill="black"/>
<path opacity="0.7" d="M106.082 44.0009C106.089 44.0158 106.093 44.0321 106.093 44.0485C106.093 44.065 106.089 44.0812 106.082 44.0961L105.987 44.5404C103.651 56.6974 97.8355 67.9147 89.2469 76.8301L89.1676 76.9095L90.9447 71.9113C92.2299 68.2301 93.531 64.5806 94.8163 60.9153C88.4863 66.0724 83.4857 72.6727 80.2343 80.1622C79.7583 81.2253 79.33 82.3202 78.9333 83.3357C77.4528 87.4568 76.4985 91.7485 76.093 96.1087L75.6646 94.8393C75.2362 93.6652 74.7761 92.4751 74.3159 91.3168C74.3159 90.0157 74.3159 88.7146 74.4746 87.3976C74.634 85.2633 74.9415 83.1425 75.3949 81.0508C76.9766 73.463 80.3496 66.3635 85.2325 60.3441C88.406 56.5519 92.1189 53.1404 94.1816 48.6818C95.6566 45.4076 96.0188 41.7406 95.213 38.2411C95.213 38.0349 95.213 37.8286 95.086 37.6382C94.8798 36.6068 94.6418 35.5913 94.3879 34.5758C93.5787 31.4024 92.1347 23.4688 92.6425 20.0732L102.94 24.04C104.051 27.3087 105.098 36.7338 106.32 42.6998C106.322 43.1446 106.241 43.5857 106.082 44.0009Z" fill="black"/>
<path opacity="0.7" d="M123.361 54.3607C122.171 65.8168 113.841 75.8766 106.717 84.9209C99.5922 93.9652 92.4361 104.295 93.0232 115.814C92.2258 108.602 93.0879 101.302 95.5437 94.4737C97.9995 87.6453 101.984 81.4688 107.193 76.4162C89.0882 86.2538 80.504 110.578 88.4059 129.603C77.2037 117.147 77.6955 95.9328 89.4372 84.0007C96.149 77.1936 105.892 73.0999 110.271 64.5951C114.904 55.646 112.318 43.6822 109.382 34.0508L123.361 54.3607Z" fill="black"/>
<path opacity="0.7" d="M134.135 133.617C130.603 131.664 127.454 129.089 124.837 126.017C123.139 124.027 121.65 121.869 120.394 119.575C119.684 118.323 119.048 117.03 118.49 115.703C118.417 115.554 118.353 115.4 118.3 115.243C115.195 107.715 113.912 99.5597 114.555 91.442C114.777 88.2686 117.887 75.5749 121.901 64.7058C123.12 61.3235 124.54 58.0171 126.154 54.8047C127.899 55.1062 129.835 55.5187 131.898 56.0106C130.041 60.5962 128.153 65.1501 126.455 69.7675C123.717 76.8276 121.857 84.1976 120.918 91.7118C120.06 99.3378 120.679 107.058 122.742 114.449C122.742 114.545 122.742 114.624 122.822 114.703L122.917 114.989C123.928 118.424 125.345 121.727 127.138 124.827C129.035 128.078 131.392 131.039 134.135 133.617Z" fill="black"/>
<path opacity="0.7" d="M148.003 131.174L148.955 131.983C148.685 131.824 148.416 131.666 148.146 131.475L148.003 131.174Z" fill="black"/>
<path opacity="0.7" d="M145.353 124.097C146.305 126.794 147.146 129.285 148.003 131.174C145.525 128.881 143.435 126.201 141.815 123.24C140.429 120.77 139.2 118.216 138.134 115.592C137.705 114.576 137.324 113.545 136.944 112.419C134.634 106.039 133.751 99.231 134.357 92.4735C134.463 91.0497 134.691 89.6376 135.039 88.2529C136.582 83.5695 138.509 79.0213 140.799 74.6547C142.548 71.371 144.487 68.1922 146.607 65.1344C147.337 64.0237 148.098 62.9447 148.876 61.9609C149.844 62.2148 151.589 62.6115 154.112 63.0399C152.088 65.5001 150.207 68.0749 148.479 70.7514C144.487 76.9449 141.748 83.8613 140.418 91.1089C140.078 93.0807 139.882 95.0747 139.831 97.075C139.772 101.636 140.273 106.187 141.323 110.626C141.561 111.689 141.831 112.736 142.1 113.799C143.037 117.337 144.211 120.828 145.353 124.097Z" fill="black"/>
<path opacity="0.7" d="M163.949 130.317C163.84 130.396 163.723 130.466 163.6 130.523C163.647 130.356 163.684 130.187 163.711 130.016L163.949 130.317Z" fill="black"/>
<path opacity="0.7" d="M216.089 63.1997C212.17 64.3263 208.156 65.4528 204.268 66.9126C200.279 68.2668 196.477 70.1223 192.955 72.4344C186.791 76.5679 182.18 82.6364 179.849 89.682C179.26 91.5947 178.903 93.571 178.786 95.5687C178.755 100.108 179.348 104.63 180.547 109.008C180.785 110.055 181.007 111.119 181.229 112.182C182.029 115.553 182.355 119.019 182.197 122.479C181.959 125.653 180.896 128.35 179.166 129.509C179.089 129.208 179.046 128.899 179.039 128.588C177.501 125.118 176.542 121.42 176.199 117.64C175.803 114.705 175.485 111.785 174.946 109.215C174.708 108.136 174.517 107.057 174.311 105.962C173.105 99.3134 172.407 92.3636 174.692 85.9056C175.151 84.5579 175.746 83.2606 176.469 82.034C179.177 77.8949 182.625 74.291 186.64 71.403C189.708 69.2445 192.988 67.4049 196.43 65.913C197.62 65.3418 198.842 64.8181 200.048 64.3263C204.935 64.0406 210.203 63.6122 215.915 63.041L216.089 63.1997Z" fill="black"/>
<path opacity="0.7" d="M195.002 82.8431C197.921 76.8612 203.57 72.5611 209.695 69.9748C215.924 67.624 222.412 66.026 229.021 65.2146C234.13 64.3895 240.445 64.0246 243.397 68.2929C238.636 68.6261 233.781 68.9593 229.116 69.7051C224.387 70.3872 219.771 71.6999 215.391 73.6084C206.68 77.5593 199.127 85.5246 198.461 95.0767C198.143 99.5988 199.365 104.058 200.349 108.484C201.333 112.911 202.063 117.576 200.825 121.924C199.92 125.097 197.905 128.001 194.843 128.794C192.352 123.082 194.224 112.816 193.542 106.279C192.653 98.4405 191.416 90.2213 195.002 82.8431Z" fill="black"/>
<path opacity="0.7" d="M159.253 96.3452C159.203 100.895 159.736 105.433 160.839 109.848C161.077 110.879 161.315 111.943 161.553 113.022C162.379 116.576 163.251 120.051 163.68 123.335C164.028 125.554 164.028 127.813 163.68 130.031C161.549 127.16 159.938 123.938 158.92 120.511C158.015 117.829 157.253 115.053 156.46 112.482C156.127 111.435 155.825 110.356 155.54 109.309C154.281 104.779 153.661 100.095 153.699 95.3931C149.891 90.7599 148.035 83.4134 151.303 78.8913C154.847 73.9513 158.406 69.0113 161.982 64.0713L164.838 64.3411C160.317 70.1281 157.341 76.9695 156.19 84.2226C158.266 80.2647 160.761 76.541 163.632 73.1156C166.027 70.3922 168.638 67.8664 171.439 65.5628C171.772 65.2613 172.105 64.9916 172.454 64.706C174.485 64.8012 176.643 64.8488 178.96 64.8646C175.979 66.8534 173.195 69.1221 170.645 71.64C165.488 76.8266 161.83 83.3131 160.062 90.4108C159.599 92.3577 159.328 94.3453 159.253 96.3452Z" fill="black"/>
<path opacity="0.7" d="M256.915 85.271C259.994 80.2569 250.156 87.4924 247.094 89.8883C241.762 94.0773 232.226 95.8068 227.196 100.361C226.583 100.932 226 101.536 225.451 102.17C222.438 105.766 220.071 109.856 218.453 114.26C216.576 119.15 215.147 124.201 214.185 129.35C216.405 124.602 219.266 120.181 222.69 116.212L223.356 115.387C226.692 111.213 230.596 107.528 234.955 104.438C237.351 102.772 240.413 100.9 243.492 98.8533C244.84 97.9488 246.268 96.8857 247.681 95.8067C249.093 94.7278 250.33 93.6964 251.536 92.6333C254.297 90.158 256.439 87.6193 256.915 85.271Z" fill="black"/>
<path opacity="0.7" d="M247.76 111.562C240.001 122.05 232.75 127.429 222.976 130.158C226.942 131.028 231.09 130.353 234.575 128.27C239.192 125.842 244.698 123.51 248.252 117.814C249.411 115.973 258.058 105.12 259.137 102.311C260.216 99.5029 259.804 99.4712 259.375 97.2021C257.455 99.2014 250.934 107.262 247.76 111.562Z" fill="black"/>
<path opacity="0.7" d="M242.873 141.519C245.097 141.114 247.174 140.123 248.887 138.647C250.597 137.211 252.07 135.514 253.25 133.617C254.164 131.78 254.923 129.869 255.519 127.905C256.215 125.942 256.39 123.831 256.027 121.78C254.63 123.367 253.615 126.461 252.076 128.46C249.879 131.116 247.295 133.426 244.412 135.315L236.939 140.726L233.908 142.852C236.669 141.122 239.858 142.043 242.873 141.519Z" fill="black"/>
<path opacity="0.7" d="M254.646 156.657C254.162 157.258 253.631 157.82 253.06 158.339C251.475 159.799 249.531 160.812 247.427 161.274C244.476 161.845 241.302 161.147 238.7 162.766C239.557 162.052 240.541 161.353 241.397 160.639L248.014 155.07C250.129 153.409 252.06 151.526 253.774 149.453C253.59 151.888 253.886 154.336 254.646 156.657Z" fill="black"/>
<path opacity="0.7" d="M262.326 169.016V169.429C261.348 170.909 260.143 172.227 258.756 173.332C257.339 174.474 255.649 175.229 253.853 175.522C251.648 175.855 249.331 175.411 247.284 175.95L247.062 175.665C247.538 175.347 247.998 175.014 248.427 174.665L253.821 170.064C255.914 168.436 257.759 166.512 259.296 164.352C259.338 164.292 259.376 164.228 259.407 164.161L260.993 166.652C261.469 167.43 261.914 168.191 262.326 169.016Z" fill="black"/>
<path opacity="0.7" d="M265.912 187.582L265.801 187.661C264.589 188.52 263.182 189.066 261.707 189.248C259.454 189.47 257.074 188.772 255.075 189.39C255.599 188.946 256.313 188.613 256.852 188.185C258.233 186.947 259.645 185.741 261.041 184.519C262.654 183.221 264.084 181.71 265.293 180.029C265.577 179.588 265.826 179.127 266.039 178.648C266.455 181.615 266.413 184.628 265.912 187.582Z" fill="black"/>
<path opacity="0.7" d="M265.484 203.291L264.786 203.688C263.739 204.222 262.595 204.541 261.422 204.624C260.087 204.607 258.758 204.452 257.455 204.164C257.455 203.815 257.455 203.465 257.455 203.101L260.184 200.625C261.334 199.663 262.358 198.559 263.231 197.341C263.865 196.405 264.246 195.088 264.817 194.342C265.024 194.659 265.23 194.992 265.42 195.357C265.42 196.865 265.42 198.531 265.42 200.117C265.42 200.974 265.42 201.847 265.5 202.72C265.468 202.926 265.484 203.1 265.484 203.291Z" fill="black"/>
<path opacity="0.7" d="M261.136 219.936C262.013 220.014 262.896 219.922 263.738 219.666C264.541 219.459 265.311 219.138 266.023 218.714C265.42 217.809 264.849 216.794 264.214 215.763C263.589 214.706 262.878 213.703 262.088 212.764C261.707 213.24 261.438 214.017 261.041 214.604C260.5 215.354 259.889 216.05 259.216 216.683L257.455 218.428C257.28 218.571 256.789 218.587 256.614 218.73C258.088 219.247 259.6 219.65 261.136 219.936Z" fill="black"/>
<path opacity="0.7" d="M252.838 232.153C253.873 232.983 255.05 233.617 256.313 234.025C256.911 234.224 257.527 234.363 258.153 234.438C258.77 234.501 259.392 234.501 260.01 234.438L257.423 232.2L254.837 229.947L253.25 232.296L252.838 232.153Z" fill="black"/>
<path opacity="0.7" d="M97.2597 120.448C94.1815 122.415 92.4996 126.065 90.786 129.254C89.8057 130.797 89.1841 132.54 88.9672 134.356C88.7503 136.171 88.9434 138.012 89.5324 139.742C90.0345 136.722 91.0316 133.806 92.4837 131.11C93.2217 129.768 94.2576 128.612 95.5118 127.732C96.7661 126.851 98.2053 126.27 99.7191 126.033C103.369 125.668 106.859 128.096 108.827 131.19C110.601 134.421 111.773 137.948 112.286 141.599C114.19 139.314 113.873 135.807 112.461 133.142C111.048 130.476 107.256 124.732 105.701 122.177C101.1 114.672 109.795 97.7577 104.955 99.9633" fill="black"/>
<path opacity="0.7" d="M104.702 227.362C104.379 228.082 104.196 228.858 104.162 229.646C102.69 229.686 101.217 229.574 99.767 229.313C97.4445 228.919 95.2066 228.13 93.1504 226.981C93.8168 226.203 94.4198 225.553 94.8799 225.045C98.1961 225.625 101.476 226.399 104.702 227.362Z" fill="black"/>
<path opacity="0.7" d="M103.702 220.474C102.687 220.696 101.735 219.919 100.941 219.015C100.278 218.051 99.438 217.222 98.4659 216.571C97.9692 216.346 97.4184 216.269 96.8792 216.349C97.0061 215.159 97.1171 213.953 97.1965 212.731C97.4978 212.608 97.8247 212.561 98.1485 212.594C98.4723 212.628 98.7829 212.74 99.0529 212.922C99.5095 213.342 99.8858 213.842 100.164 214.397C100.624 215.143 101.147 216.079 101.639 216.984C102.184 218.226 102.877 219.398 103.702 220.474Z" fill="black"/>
<path opacity="0.7" d="M104.702 202.338C104.422 202.459 104.11 202.487 103.813 202.418C102.828 202.131 101.94 201.583 101.243 200.831L100.195 199.847C99.5128 199.234 98.69 198.798 97.7995 198.578H97.4663C97.4663 197.34 97.4663 196.087 97.387 194.833C98.1914 194.917 98.9722 195.154 99.6877 195.531C100.2 195.901 100.655 196.344 101.036 196.848C101.623 197.53 102.306 198.324 102.94 199.133C103.293 199.607 103.611 200.105 103.892 200.625C104.194 201.18 104.464 201.752 104.702 202.338Z" fill="black"/>
<path opacity="0.7" d="M105.781 184.408C105.459 184.593 105.079 184.65 104.717 184.567C103.55 184.229 102.489 183.595 101.639 182.726C101.214 182.349 100.769 181.994 100.306 181.663C99.4176 181.015 98.3439 180.67 97.244 180.679C97.0275 180.663 96.81 180.663 96.5935 180.679C96.4824 179.331 96.3555 177.998 96.2126 176.665C96.4921 176.715 96.7678 176.784 97.0378 176.871C98.2289 177.168 99.3876 177.583 100.497 178.109C101.071 178.423 101.604 178.807 102.084 179.251C102.813 179.886 103.67 180.521 104.416 181.235C104.83 181.603 105.164 182.051 105.4 182.552C105.737 183.108 105.871 183.764 105.781 184.408Z" fill="black"/>
<path opacity="0.7" d="M106.717 166.542C106.54 166.662 106.34 166.744 106.13 166.785C105.92 166.826 105.704 166.824 105.495 166.78C104.153 166.402 102.923 165.705 101.909 164.749C101.401 164.339 100.872 163.958 100.322 163.606C99.196 162.953 97.8797 162.707 96.5935 162.908C95.9039 163.014 95.2381 163.24 94.6259 163.574C94.4355 162.257 94.2451 160.956 94.0229 159.671C95.0226 158.354 95.5304 158.735 96.8791 159.243C98.2278 159.75 99.7669 160.306 101.227 160.972C101.836 161.274 102.429 161.607 103.004 161.972C103.908 162.527 104.876 163.051 105.781 163.654C106.235 163.913 106.591 164.315 106.796 164.796C106.931 165.07 106.995 165.374 106.981 165.679C106.967 165.984 106.876 166.281 106.717 166.542Z" fill="black"/>
<path opacity="0.7" d="M92.0077 147.629C93.0299 146.362 94.4224 145.447 95.9904 145.011C97.4606 144.618 99.0238 144.776 100.386 145.455C102.432 146.455 104.241 148.628 106.399 148.866C106.641 148.927 106.893 148.929 107.135 148.874C107.378 148.819 107.604 148.708 107.796 148.549C107.996 148.36 108.144 148.122 108.225 147.858C108.306 147.594 108.316 147.313 108.255 147.044C108.194 146.775 108.064 146.526 107.878 146.323C107.692 146.119 107.455 145.968 107.193 145.883L101.909 143.63L96.7044 141.409C94.9273 140.647 94.3719 140.013 93.1026 141.98C92.5949 142.785 92.2449 143.679 92.0712 144.614C91.89 145.609 91.8686 146.627 92.0077 147.629Z" fill="black"/>
<path opacity="0.7" d="M15.195 41.5244L14.5762 44.5709C14.9961 44.1276 15.5169 43.7922 16.0943 43.5933C16.6716 43.3944 17.2885 43.3378 17.8924 43.4285C19.1142 43.5237 20.2883 43.9045 21.5101 44.0315C23.4243 44.1496 25.3185 43.5869 26.8576 42.4427C28.3967 41.2985 29.4814 39.6468 29.9197 37.7798C30.4116 35.3838 29.7769 32.9085 29.9197 30.465C30.0625 28.0215 30.8717 25.4351 31.1097 22.8805C31.3477 20.3259 30.7289 17.4222 28.6027 15.9941C29.8087 18.0886 28.6027 21.4683 28.3171 23.9277C27.8305 27.2069 27.3439 30.4862 26.8573 33.7654C26.7041 35.2446 26.3519 36.6963 25.8101 38.0812C25.5328 38.7713 25.1205 39.3991 24.5974 39.9277C24.0742 40.4563 23.4508 40.8751 22.7636 41.1595C21.5174 41.4797 20.2139 41.5068 18.9555 41.2388C17.7813 41.0167 16.3057 41.6672 15.195 41.5244Z" fill="black"/>
<path opacity="0.7" d="M21.732 55.3145C22.4636 56.2376 22.9543 57.3281 23.1601 58.4879C23.1601 60.1539 23.2394 62.0104 23.287 63.6764C22.7158 62.0897 22.7952 59.9318 21.7003 58.6307C21.2719 58.1229 21.145 57.2978 20.7166 56.7901C18.7145 56.6596 16.7041 56.8254 14.7505 57.282C16.9501 56.2372 19.3106 55.572 21.732 55.3145Z" fill="black"/>
<path opacity="0.7" d="M25.112 52.4573C25.8456 54.9202 26.1462 57.4918 26.0005 60.0576C25.6804 57.8876 25.0162 55.7826 24.033 53.8218C23.6363 53.1871 20.0662 52.4414 18.8445 52.2351C17.4495 52.2323 16.0557 52.3171 14.6714 52.489C17.6223 50.8386 21.0428 50.2294 24.3821 50.7595C24.6042 51.2831 25.1596 51.9178 25.112 52.4573Z" fill="black"/>
<path opacity="0.7" d="M27.0475 46.5702C28.4482 49.7154 28.9955 53.1742 28.6342 56.5983C28.248 54.0126 27.4498 51.5055 26.27 49.1724C25.8892 48.4108 18.8918 47.7127 16.8608 47.9507C16.0785 48.0857 15.2789 48.0857 14.4966 47.9507C16.3506 46.8382 18.42 46.1327 20.5674 45.881C22.7149 45.6293 24.8913 45.8372 26.9523 46.4909C26.9523 46.475 27.1745 46.5861 27.0475 46.5702Z" fill="black"/>
<path opacity="0.7" d="M14.3539 46.1424C13.8014 50.1788 14.0657 54.2852 15.1314 58.2174C15.2581 55.9925 15.2581 53.7621 15.1314 51.5373C14.9903 49.2294 15.609 46.9389 16.8926 45.0159C16.41 44.985 15.9271 45.0714 15.485 45.2675C15.0429 45.4637 14.6549 45.7639 14.3539 46.1424Z" fill="black"/>
<path opacity="0.7" d="M20.1613 20.7873C19.7674 21.5112 19.4177 22.2583 19.1141 23.0245C18.8128 23.7857 18.5584 24.5647 18.3524 25.357C17.9411 26.9535 17.7332 28.5955 17.7336 30.2441C18.4073 29.6338 18.8872 28.8394 19.1141 27.9592C19.3679 27.0566 19.5692 26.1401 19.717 25.2142C19.8916 24.3256 20.0026 23.4053 20.1613 22.5168C20.3008 21.6199 20.524 20.7381 20.8278 19.8828C20.7167 19.9939 20.2407 20.6603 20.1613 20.7873Z" fill="black"/>
<path opacity="0.7" d="M22.3512 21.5318C22.1449 22.7377 21.9545 23.9595 21.7165 25.1654C21.415 26.7521 21.1294 28.3389 20.939 30.0525L21.7165 29.6717C21.9132 29.5687 22.0992 29.4464 22.2718 29.3067C22.4939 28.2912 22.6368 27.244 22.7954 26.2285C22.7954 25.9588 22.8748 25.689 22.9224 25.4193C23.0176 24.6894 23.1286 23.9595 23.2238 23.2296C23.319 22.4997 23.3984 22.0872 23.5094 21.5318C23.6003 21.1197 23.6534 20.7001 23.6681 20.2783C23.6681 20.2783 23.3349 20.5322 23.2556 20.5639C22.9271 20.8603 22.6246 21.1841 22.3512 21.5318Z" fill="black"/>
<path opacity="0.7" d="M25.5719 20.04C25.4925 21.6268 25.318 23.3404 25.08 24.9747C24.842 26.609 24.5405 28.2434 24.1597 29.8459C24.4161 29.8522 24.6648 29.9352 24.8737 30.084C25.0855 30.2403 25.2727 30.4275 25.4291 30.6393C25.6195 29.2113 25.794 27.7832 25.9844 26.3552C26.1748 24.9271 26.3493 23.4991 26.5397 22.071C26.6351 21.6105 26.6351 21.1353 26.5397 20.6747C26.3969 20.2304 26.0479 20.0718 25.5719 20.04Z" fill="black"/>
<path opacity="0.7" d="M45.6757 36.3669C46.5565 33.3158 46.3832 30.0569 45.1838 27.1164C44.2794 24.9426 41.7406 20.7695 39.1702 20.5791C40.2174 23.1178 42.058 25.4345 43.1528 28.0367C44.2773 30.7195 45.1227 33.511 45.6757 36.3669Z" fill="black"/>
<path opacity="0.7" d="M30.3481 13.5187C30.3481 13.2014 29.7451 13.0586 30.3481 12.9951C32.5377 14.3756 32.3631 18.4693 32.8868 20.7542C34.9971 29.9889 42.7403 37.8273 43.9938 47.2048C44.9458 42.2542 42.7879 37.1925 40.6458 32.6228C38.5038 28.0531 35.965 23.5151 35.3938 18.501C35.1399 16.0892 32.6012 14.2169 30.3481 13.5187Z" fill="black"/>
<path opacity="0.7" d="M32.8869 36.7488C32.0618 34.2576 31.9508 30.1797 29.9515 28.6882C29.2534 28.355 29.1899 28.1329 28.6663 28.4026C29.4046 28.38 30.1376 28.5354 30.8032 28.8557C31.4687 29.1761 32.0474 29.652 32.4903 30.2432C32.6965 33.2104 34.6799 35.6063 36.1556 38.1768C37.8966 41.9765 38.6915 46.1414 38.4722 50.3152C37.901 45.444 33.8548 41.4613 32.8869 36.7488Z" fill="black"/>
<path opacity="0.7" d="M32.9978 53.6146C31.8712 50.8854 31.4111 46.8234 29.6657 45.2367C28.8564 44.5227 28.079 43.9198 27.0635 44.1419C27.9362 42.9836 28.2694 43.2375 29.6657 42.8408C29.507 43.7611 30.935 44.015 31.7443 44.4275C32.5923 47.5787 33.0243 50.8273 33.0295 54.0906C33.1882 53.9161 32.855 53.805 32.9978 53.6146Z" fill="black"/>
<path opacity="0.7" d="M15.084 32.5596L9.05444 47.1732C9.45582 46.8919 9.95154 46.7791 10.4351 46.8592C10.9187 46.9394 11.3516 47.2059 11.6408 47.6017C11.8456 44.78 12.6575 42.0359 14.0209 39.557C14.8394 38.4184 15.5012 37.1749 15.9884 35.8599C16.2396 35.2896 16.2868 34.6502 16.1221 34.0492C15.9574 33.4482 15.5908 32.9222 15.084 32.5596Z" fill="black"/>
<path opacity="0.7" d="M16.9721 22.2139C14.7928 31.2973 11.2 39.9821 6.3252 47.9504C8.51487 41.4608 10.4189 34.7013 12.6721 28.2275C13.4337 25.7999 15.4805 24.2925 16.9721 22.2139Z" fill="black"/>
<path opacity="0.7" d="M52.9111 56.361C52.1019 55.3773 51.3244 54.457 50.5628 53.616C50.2296 53.251 49.9281 52.902 49.5949 52.5529L49.4203 52.3625C49.0539 51.8411 48.7652 51.2692 48.5635 50.6647C48.3441 49.72 48.3441 48.7375 48.5635 47.7928C48.9521 44.5869 49.535 41.4077 50.3089 38.2725C51.5624 40.3035 51.4037 44.6987 51.2451 47.2057C51.1345 50.3418 51.7028 53.4649 52.9111 56.361Z" fill="black"/>
<path opacity="0.7" d="M58.5756 63.4065C58.1472 62.8511 57.7188 62.3116 57.3222 61.8198L56.497 60.7408C55.6595 58.278 55.3355 55.6698 55.545 53.0769C55.6719 49.9035 55.545 46.7301 55.545 43.6836C56.5288 45.0958 56.5288 47.3013 56.7509 49.0467C57.3063 53.791 57.9251 58.5987 58.5756 63.4065Z" fill="black"/>
<path opacity="0.7" d="M83.2808 136.49C82.7255 136.252 82.2019 135.982 81.6941 135.697C78.5114 133.966 75.8365 131.434 73.9351 128.35C74.8712 127.763 75.7915 127.192 76.6642 126.684L77.2037 126.351L77.4417 126.208C78.5524 130.222 79.9011 134.11 83.2808 136.49Z" fill="black"/>
<path opacity="0.7" d="M67.4139 132.682C68.6039 136.76 69.9526 140.948 73.5386 142.964C71.4654 142.45 69.5338 141.477 67.8862 140.118C66.2385 138.759 64.9168 137.047 64.0183 135.109L67.4139 132.682Z" fill="black"/>
<path opacity="0.7" d="M63.8119 149.39C60.6385 149.882 56.6875 147.407 55.2753 143.821C55.2432 143.462 55.2432 143.101 55.2753 142.742C56.0846 141.917 56.8621 141.155 57.7982 140.33C58.9407 144.091 60.3687 147.994 63.8119 149.39Z" fill="black"/>
<path opacity="0.7" d="M54.4186 155.434C52.5145 157.195 49.1983 156.243 47.7227 154.101C48.1344 152.721 48.7097 151.394 49.4363 150.15C50.4836 152.657 51.9433 154.815 54.4186 155.434Z" fill="black"/>
<path opacity="0.7" d="M55.8146 158.433C55.0477 159.184 54.2139 159.864 53.3235 160.464C52.444 161.069 51.5152 161.6 50.5467 162.05C49.6867 162.429 48.8013 162.747 47.8969 163.002C47.7049 162.207 47.5566 161.402 47.4526 160.591C48.4916 160.494 49.5245 160.34 50.5467 160.13C52.3567 159.748 54.1221 159.179 55.8146 158.433Z" fill="black"/>
<path opacity="0.7" d="M60.1308 166.59C60.0223 167.15 59.7647 167.671 59.3851 168.097C58.9725 168.573 58.4806 169.017 57.9253 169.541C57.1116 170.287 56.1985 170.918 55.212 171.413C54.4056 171.812 53.5602 172.126 52.6891 172.35L52.1021 172.492C51.4237 171.468 50.7988 170.408 50.2297 169.319C51.043 169.382 51.86 169.382 52.6732 169.319C53.5734 169.234 54.465 169.075 55.339 168.843C57.0556 168.377 58.6773 167.615 60.1308 166.59Z" fill="black"/>
<path opacity="0.7" d="M64.3354 176.728C63.8518 177.389 63.3215 178.014 62.7487 178.6C61.9993 179.489 61.0964 180.236 60.083 180.805C59.6714 181.032 59.2415 181.223 58.7978 181.377C57.9886 180.266 57.2111 179.171 56.2749 178.076C56.7607 178.116 57.2489 178.116 57.7347 178.076C58.6262 177.995 59.5051 177.809 60.3527 177.521C62.0069 177.003 63.4883 176.043 64.6369 174.744C64.733 175.077 64.7558 175.427 64.7038 175.769C64.6517 176.111 64.526 176.438 64.3354 176.728Z" fill="black"/>
<path opacity="0.7" d="M69.1749 185.36C68.6726 186.174 68.116 186.953 67.5088 187.692C66.8128 188.689 65.9289 189.541 64.9066 190.199C64.5759 190.408 64.2251 190.584 63.8594 190.723C63.5299 190.193 63.2585 189.629 63.0502 189.041C62.7645 188.279 62.4631 187.549 62.1299 186.851H62.7487C63.6211 186.773 64.477 186.565 65.2874 186.233C66.9121 185.609 68.2619 184.428 69.0955 182.9C69.3093 183.272 69.4283 183.691 69.4422 184.12C69.456 184.549 69.3642 184.975 69.1749 185.36Z" fill="black"/>
<path opacity="0.7" d="M74.2209 189.644C74.2792 192.102 73.5632 194.517 72.174 196.546C71.3168 196.032 70.4262 195.576 69.5083 195.181C71.5178 193.759 73.1382 191.855 74.2209 189.644Z" fill="black"/>
<path opacity="0.7" d="M81.4085 203.337C80.8112 203.367 80.2128 203.367 79.6155 203.337C79.1395 202.687 78.6318 202.068 78.1399 201.481C78.1399 199.259 78.0447 197.006 77.9971 194.753C79.1236 197.577 80.2819 200.481 81.4085 203.337Z" fill="black"/>
<path opacity="0.7" d="M230.655 162.1C229.029 162.523 227.382 162.862 225.72 163.115C223.975 163.369 222.198 163.496 220.453 163.623C218.707 163.75 216.756 163.877 214.899 163.909C213.979 163.909 213.058 163.909 212.138 163.909L211.757 162.449C213.471 162.184 215.185 161.883 216.898 161.544L219.405 161.052L222.008 160.497C223.277 160.227 224.546 159.942 225.816 159.624C227.402 159.259 228.846 158.863 230.37 158.45C230.528 159.656 230.592 160.894 230.655 162.1Z" fill="black"/>
<path opacity="0.7" d="M231.004 176.522C229.549 176.922 228.063 177.198 226.561 177.347C224.978 177.478 223.389 177.52 221.801 177.474C220.548 177.474 219.278 177.474 218.025 177.474C216.771 177.474 215.756 177.3 214.613 177.157C214.613 176.57 214.518 175.951 214.439 175.316C215.724 175.189 217.009 175.062 218.263 174.888L220.548 174.602L222.896 174.237L226.307 173.666C227.894 173.365 229.481 173.047 231.068 172.698C231.068 173.983 231.052 175.364 231.004 176.522Z" fill="black"/>
<path opacity="0.7" d="M209.171 228.914C208.942 229.956 208.83 231.021 208.838 232.087C208.171 232.087 207.521 232.087 206.854 231.976C205.426 231.829 204.013 231.553 202.634 231.151C203.871 230.755 205.093 230.326 206.331 229.882L209.171 228.914Z" fill="black"/>
<path opacity="0.7" d="M215.613 221.125C215.082 222.299 214.296 223.34 213.312 224.172L211.979 223.949C211.165 223.79 210.363 223.567 209.583 223.283C208.802 223.023 208.043 222.699 207.314 222.315C208.901 222.188 210.488 221.934 211.948 221.664C213.154 221.458 214.359 221.252 215.613 221.125Z" fill="black"/>
<path opacity="0.7" d="M217.739 213.443C217.501 214.3 217.279 215.141 217.057 215.95H216.93C216.022 215.688 215.136 215.354 214.28 214.951C213.422 214.533 212.599 214.045 211.821 213.491C213.676 213.602 215.536 213.602 217.39 213.491L217.739 213.443Z" fill="black"/>
<path opacity="0.7" d="M222.023 200.338C221.627 201.322 221.246 202.337 220.912 203.353H220.833C219.683 203.117 218.561 202.76 217.485 202.29C216.417 201.833 215.401 201.264 214.455 200.592C215.613 200.592 216.771 200.592 217.929 200.592C219.088 200.592 220.198 200.497 221.325 200.417L222.023 200.338Z" fill="black"/>
<path opacity="0.7" d="M229.084 186.915C228.811 187.479 228.476 188.012 228.085 188.502C227.505 189.26 226.975 190.055 226.498 190.882C225.923 190.845 225.351 190.776 224.784 190.676C223.411 190.449 222.065 190.077 220.77 189.565C219.478 189.049 218.249 188.389 217.105 187.597C218.469 187.597 219.834 187.566 221.198 187.502C222.579 187.502 223.959 187.343 225.308 187.232C226.657 187.121 227.799 187.058 229.084 186.915Z" fill="black"/>
<path opacity="0.7" d="M253.599 75.75C253.472 75.9404 253.329 76.1149 253.186 76.2894C252.972 76.5391 252.744 76.7774 252.504 77.0035C249.41 80.1769 243.809 82.9061 238.002 85.4289C231.258 88.3644 224.197 90.9825 220.357 93.3625C219.183 94.1161 218.069 94.9595 217.025 95.8854C213.878 98.7728 211.472 102.376 210.012 106.389C209.378 108.026 208.848 109.701 208.425 111.404C208.171 112.435 207.949 113.482 207.759 114.577C207.12 118.251 206.696 121.96 206.489 125.684C206.347 127.858 204.601 127.54 204.379 124.922C204.113 121.703 204.039 118.471 204.157 115.243V115.069C204.157 113.593 204.331 112.102 204.474 110.642C205.331 101.915 207.759 93.5688 212.313 88.4278C216.359 83.8898 224.562 81.9381 231.718 79.6533C234.77 78.798 237.702 77.5611 240.445 75.9721C241.016 75.623 242.032 75.0359 243.158 74.3854C243.857 73.9887 244.602 73.592 245.396 73.1795C246.443 72.64 247.554 72.0847 248.664 71.5928C249.935 72.7165 251.123 73.9309 252.219 75.2264C252.692 75.3635 253.154 75.5386 253.599 75.75Z" fill="black"/>
</svg>
