<svg width="1000" height="1000" viewBox="0 0 1000 1000" fill="none" xmlns="http://www.w3.org/2000/svg">
<path d="M703.012 442.159C703.012 441.055 703.907 440.159 705.012 440.159H812.709C813.813 440.159 814.709 441.055 814.709 442.159V482.356H703.012V442.159Z" fill="#FFA403"/>
<path d="M710.477 446.239V468.239" stroke="#363A5A" stroke-linecap="round"/>
<path d="M724.477 446.239V468.239" stroke="#363A5A" stroke-linecap="round"/>
<path d="M738.477 446.239V468.239" stroke="#363A5A" stroke-linecap="round"/>
<path d="M752.477 446.239V468.239" stroke="#363A5A" stroke-linecap="round"/>
<path d="M766.477 446.239V468.239" stroke="#363A5A" stroke-linecap="round"/>
<path d="M780.477 446.239V468.239" stroke="#363A5A" stroke-linecap="round"/>
<path d="M794.477 446.239V468.239" stroke="#363A5A" stroke-linecap="round"/>
<path d="M808.477 446.239V468.239" stroke="#363A5A" stroke-linecap="round"/>
<path d="M679.5 486.679C679.5 483.089 682.41 480.179 686 480.179H832.234C835.824 480.179 838.734 483.089 838.734 486.679V634.432C838.734 638.022 835.824 640.932 832.234 640.932H686C682.41 640.932 679.5 638.022 679.5 634.432V486.679Z" fill="#F2F2F2" stroke="#363A5A" stroke-width="11"/>
<path d="M831.094 477.831C831.635 482.244 825.349 485.752 824.974 490.276C824.644 494.383 823.055 498.289 820.424 501.46C817.793 504.631 814.247 506.912 810.271 507.993C809.629 508.155 809.015 508.411 808.448 508.752C804.83 511.87 802.505 516.226 801.928 520.967L796.283 543.754C795.41 548.543 793.649 553.126 791.09 557.268C789.789 559.335 787.944 561.003 785.757 562.089C783.57 563.176 781.126 563.638 778.693 563.426C771.775 562.308 768 554.27 767.796 547.334C767.468 538.676 769.901 529.481 764.725 521.379C763.607 519.491 761.928 517.997 759.923 517.107C757.917 516.216 755.683 515.972 753.533 516.409C742.575 519.244 747.218 536.572 737.014 539.576C735.561 539.929 734.044 539.923 732.593 539.558C731.142 539.194 729.802 538.483 728.688 537.485C724.545 533.113 722.173 527.359 722.031 521.338L715.943 477.956L831.128 477.956" fill="#363A5A"/>
<path d="M651.587 635.744L872.922 323.35C875.277 320.028 876.954 316.273 877.859 312.303L651.587 635.744ZM651.587 635.744L601.015 599.914L822.351 287.52C824.706 284.197 827.691 281.369 831.137 279.2L831.137 279.2C834.582 277.03 838.421 275.561 842.434 274.875C846.447 274.189 850.554 274.3 854.523 275.202C858.492 276.105 862.244 277.78 865.564 280.132C868.885 282.485 871.709 285.469 873.876 288.914C876.043 292.359 877.51 296.198 878.193 300.211C878.876 304.224 878.762 308.332 877.859 312.303L651.587 635.744Z" fill="#D7182E" stroke="#363A5A"/>
<path opacity="0.93" d="M872.149 285.631C871.868 285.547 871.585 285.467 871.302 285.391C871.49 285.614 871.675 285.839 871.857 286.067C872.137 286.148 872.415 286.234 872.693 286.324C872.515 286.091 872.334 285.86 872.149 285.631ZM615.943 610.491L615.535 610.202L615.246 610.61L615.654 610.899L615.943 610.491ZM600.724 600.321L601.013 599.913L600.605 599.624L600.316 600.032L600.724 600.321ZM854.521 275.201C854.521 275.201 854.521 275.201 854.521 275.201L854.632 274.714L854.521 275.201ZM831.134 279.199C831.134 279.199 831.134 279.199 831.134 279.199L830.868 278.776L831.134 279.199ZM852.902 285.93C852.902 285.93 852.902 285.93 852.902 285.93L853.059 286.403L852.902 285.93Z" fill="#890C27" stroke="#363A5A"/>
<path opacity="0.67" d="M861.577 277.748C862.963 278.442 864.296 279.239 865.565 280.133C868.885 282.485 871.709 285.469 873.876 288.914C876.043 292.359 877.51 296.198 878.193 300.211C878.876 304.224 878.762 308.332 877.859 312.303L861.577 277.748ZM861.577 277.748C865.571 282.855 867.929 289.072 868.31 295.581C868.734 302.835 866.678 310.018 862.478 315.95L862.477 315.95L641.142 628.344L651.587 635.744L872.922 323.35C875.277 320.028 876.954 316.273 877.859 312.303L861.577 277.748Z" fill="#FFA663" stroke="#363A5A"/>
<path d="M873.33 323.639L651.706 636.441L600.318 600.033L821.943 287.231C824.336 283.854 827.369 280.981 830.871 278.777C834.372 276.572 838.272 275.08 842.35 274.383C846.427 273.685 850.601 273.798 854.634 274.714C858.667 275.632 862.479 277.334 865.853 279.724C869.227 282.115 872.097 285.147 874.299 288.647C876.501 292.149 877.992 296.049 878.686 300.127C879.38 304.205 879.265 308.38 878.346 312.414C877.427 316.448 875.723 320.263 873.33 323.639Z" stroke="#363A5A" stroke-width="13.3333" stroke-linecap="round" stroke-linejoin="round"/>
<path d="M592.684 595.229L658.768 642.05L645.214 661.18L579.131 614.359L592.684 595.229Z" fill="#FFDC7B" stroke="#363A5A"/>
<path opacity="0.43" d="M643.721 631.389L658.881 642.131L645.327 661.261L630.167 650.519L643.721 631.389Z" fill="white" stroke="#363A5A"/>
<path d="M592.57 595.146L612.201 609.055L598.647 628.186L579.016 614.276L592.57 595.146Z" fill="#F48D31" stroke="#363A5A"/>
<path d="M645.333 661.877L659.465 641.931L592.566 594.532L578.434 614.478L645.333 661.877Z" stroke="#363A5A" stroke-width="13.3333" stroke-linecap="round" stroke-linejoin="round"/>
<path d="M792.536 313.156L858.619 359.977L845.065 379.107L778.982 332.286L792.536 313.156Z" fill="#FFDC7B" stroke="#363A5A"/>
<path opacity="0.43" d="M843.458 349.235L858.619 359.977L845.065 379.107L829.904 368.365L843.458 349.235Z" fill="white" stroke="#363A5A"/>
<path d="M792.304 312.992L811.936 326.901L798.382 346.031L778.75 332.122L792.304 312.992Z" fill="#F48D31" stroke="#363A5A"/>
<path d="M845.184 379.804L859.316 359.858L792.417 312.459L778.285 332.405L845.184 379.804Z" stroke="#363A5A" stroke-width="13.3333" stroke-linecap="round" stroke-linejoin="round"/>
<path d="M519.4 768.704L539.879 648.87L596.302 627.866L626.775 649.456L625.884 709.345L519.4 768.704Z" fill="#F48D31" stroke="#363A5A"/>
<path d="M519.595 767.566L539.88 648.868L596.302 627.865L611.131 638.372L519.595 767.566Z" fill="#EE6E31" stroke="#363A5A"/>
<path d="M605.213 633.566L560.691 665.907L518.732 769.649L539.435 648.501L596.376 627.305L605.213 633.566Z" fill="#E65331"/>
<path d="M618.719 642.657L612.151 701.889L527.265 757.606L626.44 709.666L627.557 648.918L618.719 642.657Z" fill="#FFE085"/>
<path d="M596.376 627.305L539.435 648.502L518.731 769.649L626.38 709.641L627.278 649.2L596.376 627.305Z" stroke="#363A5A" stroke-width="13.3333" stroke-linecap="round" stroke-linejoin="round"/>
<path d="M518.362 770.168L572.32 694.012" stroke="#363A5A" stroke-width="13.3333" stroke-linecap="round" stroke-linejoin="round"/>
<path d="M560.249 687.179C555.84 693.402 557.307 702.019 563.526 706.426C569.745 710.832 578.361 709.359 582.77 703.136C587.179 696.912 585.713 688.296 579.494 683.889C573.275 679.483 564.658 680.956 560.249 687.179Z" fill="#363A5A"/>
<path d="M66 323C204.667 328.333 446 367 302 479C158 591 335 794.667 503 764" stroke="#363A5A" stroke-width="20" stroke-linecap="round"/>
</svg>
