<svg width="1000" height="1000" viewBox="0 0 1000 1000" fill="none" xmlns="http://www.w3.org/2000/svg">
<path d="M320.123 307.311C320.123 307.311 258.286 296.902 244.446 333.727C232.753 364.857 281.432 420.536 281.432 420.536L322.229 381.524L320.123 307.311Z" fill="#FFBE9D"/>
<path d="M238.996 477.219C238.996 477.219 240.641 550.188 262.724 618.003C269.985 640.367 294.816 757.583 294.816 757.583C270.306 805.34 252.495 833.24 245.094 875.762H555.684L532.157 733.333C532.157 733.333 541.684 618.624 541.764 617.481C548.604 528.125 553.959 430.425 549.105 427.075C517.395 405.333 453.912 376.089 412.714 371.796C371.516 367.504 250.569 412.814 238.996 477.219Z" fill="#263238"/>
<path d="M437.528 658.378C437.409 658.942 437.234 659.493 437.007 660.023C436.586 661.186 436.024 662.731 435.302 664.677L434.038 668.026C433.537 669.23 432.895 670.493 432.253 671.877C430.86 675.046 429.3 678.139 427.58 681.144C426.617 682.808 425.574 684.574 424.591 686.379C423.608 688.184 422.224 689.969 421.001 691.854C418.329 695.861 415.457 699.73 412.396 703.448C405.293 711.903 397.364 719.63 388.728 726.514C379.974 733.253 370.567 739.099 360.648 743.964C355.995 745.97 351.622 748.136 347.33 749.56C345.184 750.302 343.178 751.144 341.152 751.726L335.335 753.371C332.034 754.317 328.687 755.093 325.306 755.698C323.822 755.978 322.438 756.299 321.135 756.5L317.584 756.921L312.67 757.463C312.1 757.556 311.523 757.597 310.945 757.583C311.504 757.431 312.074 757.324 312.65 757.262L317.524 756.52L321.054 755.998C322.338 755.778 323.722 755.437 325.206 755.116C328.155 754.434 331.585 753.852 335.235 752.649L340.991 750.964C342.997 750.362 345.003 749.5 347.009 748.738C351.281 747.293 355.593 745.187 360.207 743.101C380.009 733.471 397.539 719.743 411.634 702.826C414.763 698.814 417.832 695.164 420.259 691.373C421.502 689.488 422.806 687.763 423.889 685.958C424.972 684.152 425.895 682.427 426.918 680.783C428.924 677.533 430.328 674.344 431.712 671.636C432.374 670.273 433.035 669.009 433.557 667.826L434.901 664.516C435.703 662.611 436.325 661.086 436.786 659.963C437.004 659.421 437.252 658.892 437.528 658.378Z" fill="#455A64"/>
<path d="M501.187 704.812C501.094 704.956 500.986 705.09 500.866 705.213C500.586 705.534 500.225 705.895 499.783 706.356C498.78 707.419 497.376 708.863 495.611 710.689L492.563 713.818C491.419 714.921 490.095 716.044 488.732 717.288C485.924 719.715 482.875 722.683 479.104 725.451L473.307 729.964C471.302 731.508 469.035 732.932 466.769 734.497C462.296 737.726 457.181 740.614 451.846 743.764C440.087 750.253 427.777 755.69 415.06 760.01C402.275 764.135 389.155 767.135 375.848 768.976C369.69 769.618 363.813 770.36 358.358 770.44C355.61 770.54 352.942 770.741 350.335 770.721L342.994 770.56C338.3 770.56 334.108 770.039 330.397 769.758C328.552 769.578 326.827 769.457 325.243 769.257L320.95 768.575L314.933 767.612L313.389 767.331L312.867 767.191H313.409L314.953 767.351L320.97 768.133L325.263 768.735C326.847 768.896 328.572 768.976 330.418 769.136C334.108 769.357 338.3 769.858 342.974 769.778H350.295C352.822 769.778 355.469 769.557 358.318 769.457C363.793 769.337 369.61 768.555 375.727 767.893C402.292 764.326 427.954 755.816 451.384 742.801C456.7 739.692 461.814 736.783 466.287 733.654C468.554 732.11 470.8 730.726 472.846 729.202L478.663 724.749C482.434 722.021 485.502 719.113 488.33 716.726C489.734 715.502 491.058 714.399 492.222 713.336C493.385 712.273 494.388 711.21 495.33 710.287L499.643 706.095L500.786 705.032L501.187 704.812Z" fill="#455A64"/>
<path d="M432.367 414.439C432.367 414.539 431.144 415.141 429.018 416.445C426.028 418.31 423.325 420.601 420.995 423.244C417.527 427.158 414.765 431.644 412.831 436.502C410.444 442.447 409.087 448.755 408.82 455.156C408.298 468.855 411.628 481.01 414.075 489.615C415.318 493.927 416.421 497.397 417.143 499.804C417.484 500.907 417.745 501.81 417.966 502.592C418.091 502.906 418.166 503.237 418.186 503.575C418.017 503.281 417.876 502.972 417.765 502.652C417.504 501.91 417.164 501.027 416.762 499.924C415.9 497.557 414.757 494.127 413.353 489.895C411.729 484.86 410.39 479.737 409.341 474.551C408.039 468.186 407.494 461.689 407.716 455.196C408.023 448.677 409.448 442.258 411.928 436.221C413.95 431.288 416.83 426.752 420.433 422.823C422.866 420.182 425.694 417.936 428.817 416.164C429.667 415.684 430.544 415.256 431.444 414.88C431.736 414.701 432.045 414.553 432.367 414.439Z" fill="#455A64"/>
<path d="M464.764 363.994C474.371 367.444 485.603 370.734 494.389 364.977C500.406 360.965 503.615 353.745 506.303 346.925C512.548 330.906 517.971 314.578 522.549 298.005C522.549 298.005 546.618 242.325 545.595 210.735C544.573 179.144 549.226 165.264 507.767 154.072C466.308 142.88 359.883 330.578 359.883 330.578L464.764 363.994Z" fill="#FFBE9D"/>
<path d="M545.736 188.712C545.736 188.712 569.805 143.863 538.134 130.164C506.463 116.464 476.477 133.032 476.477 133.032C476.477 133.032 388.806 118.871 372.339 153.511C355.871 188.15 335.373 216.792 339.926 249.365C344.479 281.939 362.871 320.55 362.871 320.55C389.448 333.166 424.167 325.464 442.881 302.759C452.173 291.651 459.999 279.396 466.168 266.294C473.007 252.254 489.775 239.778 500.566 254.701C502.271 257.048 510.074 256.185 511.678 250.89C514.667 241.082 513.925 222.208 519.16 221.124C527.183 219.44 535.446 216.892 541.343 211.096C547.24 205.299 550.028 195.712 545.736 188.691" fill="#363A5A"/>
<path d="M490.276 277.546C488.961 277.607 487.672 277.17 486.665 276.323C485.318 275.435 484.248 274.185 483.577 272.718C482.905 271.25 482.66 269.624 482.869 268.024C483.079 266.423 483.734 264.914 484.759 263.669C485.785 262.423 487.141 261.491 488.671 260.979C489.858 260.402 491.219 260.294 492.482 260.678C491.281 260.88 490.104 261.21 488.972 261.661C487.64 262.206 486.476 263.096 485.601 264.239C484.725 265.382 484.169 266.737 483.989 268.166C483.81 269.594 484.013 271.045 484.578 272.369C485.144 273.693 486.051 274.843 487.207 275.701C488.173 276.406 489.2 277.023 490.276 277.546Z" fill="#EB996E"/>
<path d="M474.566 257.148C468.85 263.746 465.859 272.273 466.202 280.996C466.171 285.06 467.594 289.002 470.214 292.108C472.982 295.037 477.876 296.12 481.125 293.793C481.703 293.466 482.153 292.953 482.401 292.337C482.648 291.721 482.68 291.039 482.489 290.403C482.145 289.829 481.653 289.358 481.065 289.04C478.59 287.292 476.491 285.064 474.894 282.489C473.298 279.913 472.236 277.043 471.772 274.048C471.308 271.054 471.451 267.997 472.193 265.059C472.935 262.121 474.26 259.362 476.091 256.948" fill="#EB996E"/>
<path d="M497.877 252.534C497.877 252.534 497.295 251.652 495.871 250.528C494.85 249.758 493.676 249.212 492.428 248.929C491.179 248.645 489.885 248.63 488.631 248.884C484.838 249.426 481.321 251.178 478.602 253.878C475.291 257.22 473.122 261.524 472.404 266.173C471.536 270.808 471.909 275.59 473.487 280.033C474.095 281.837 475.067 283.496 476.344 284.907C477.621 286.319 479.174 287.452 480.908 288.237C483.276 289.279 485.924 289.497 488.43 288.858C489.325 288.538 490.202 288.169 491.058 287.755C491.058 287.755 490.877 287.936 490.496 288.237C489.872 288.654 489.198 288.991 488.49 289.239C485.865 290.102 483.016 289.988 480.467 288.919C478.61 288.134 476.938 286.971 475.556 285.503C474.174 284.035 473.115 282.295 472.444 280.394C470.757 275.789 470.341 270.814 471.241 265.993C471.993 261.127 474.293 256.632 477.8 253.176C480.69 250.361 484.439 248.596 488.45 248.162C489.793 247.909 491.175 247.958 492.497 248.305C493.818 248.652 495.046 249.288 496.092 250.167C496.636 250.655 497.103 251.223 497.476 251.852C497.797 252.354 497.917 252.514 497.877 252.534Z" fill="#263238"/>
<g opacity="0.2">
<path d="M345.611 224.273C351.227 231.996 358.428 238.935 363.041 247.299C368.357 256.947 370.864 267.898 372.308 278.81C374.314 294.856 373.592 307.312 367.193 322.656C377.723 319.406 383.239 312.045 385.064 301.194C386.755 289.472 385.837 277.521 382.377 266.194C378.475 253.261 370.993 241.697 360.795 232.838C353.614 226.48 341.5 217.674 339.353 208.328C339.273 208.388 341.82 219.259 345.611 224.273Z" fill="black"/>
</g>
<g opacity="0.2">
<path d="M348.535 200.505C353.156 206.624 359.808 210.893 367.295 212.547C374.782 214.2 382.613 213.128 389.381 209.525C396.149 205.921 401.409 200.021 404.216 192.886C407.024 185.751 407.194 177.848 404.696 170.599C404.538 169.909 404.238 169.259 403.817 168.69C403.396 168.12 402.863 167.644 402.249 167.29C401.36 167.059 400.418 167.153 399.591 167.553C398.764 167.954 398.107 168.635 397.736 169.476C397.072 171.191 396.725 173.012 396.713 174.851C396.229 179.843 394.512 184.636 391.715 188.799C388.919 192.962 385.131 196.364 380.693 198.7C376.255 201.035 371.306 202.23 366.291 202.178C361.276 202.125 356.353 200.827 351.965 198.399" fill="black"/>
</g>
<path d="M391.612 150.983C389.123 148.836 386.158 147.314 382.962 146.543C379.767 145.772 376.434 145.775 373.239 146.551C367.255 148.074 361.71 150.98 357.053 155.035C351.08 159.382 346.17 165.025 342.692 171.542C339.503 178.161 338.68 186.285 342.13 192.803C346.463 201.167 356.632 205.199 366.039 204.838C372.527 204.438 378.791 202.309 384.18 198.673C389.569 195.037 393.887 190.026 396.687 184.158C402.142 172.405 403.807 159.207 391.612 151.003" fill="#263238"/>
<path d="M319.543 308.374L367.681 321.953C367.681 321.953 374.06 318.283 372.435 289.36C371.673 275.701 360.942 263.285 356.389 250.388C352.678 239.717 346.721 229.949 342.79 219.359C338.859 208.769 336.151 198.88 341.065 188.711C345.979 178.542 356.389 178.281 366.237 183.817C371.958 180.693 376.264 175.496 378.272 169.295C372.254 153.791 363.048 146.891 352.197 142.88C345.344 140.202 337.965 139.147 330.636 139.798C323.308 140.448 316.229 142.787 309.956 146.63C294.792 156.338 286.027 172.966 282.296 190.215L282.176 190.697C277.941 210.908 281.056 231.968 290.961 250.087C298.483 263.766 305.222 287.855 292.245 306.248L311.32 307.091C314.099 307.221 316.856 307.652 319.543 308.374Z" fill="#363A5A"/>
<path d="M379.016 160.21C379.216 162.042 379.148 163.893 378.816 165.706C378.318 170.185 376.689 174.465 374.082 178.141C372.585 180.159 370.669 181.828 368.466 183.035C366.66 183.993 364.67 184.553 362.629 184.68C361.275 184.769 359.916 184.613 358.618 184.219C357.715 183.918 357.254 183.637 357.274 183.577C359.035 183.937 360.835 184.065 362.629 183.958C364.537 183.719 366.381 183.12 368.065 182.193C370.115 181.014 371.898 179.423 373.3 177.52C375.828 173.94 377.484 169.819 378.134 165.485C378.675 162.276 378.856 160.19 379.016 160.21Z" fill="#455A64"/>
<path d="M315.538 307.312C317.335 305.102 318.945 302.748 320.352 300.272C321.875 297.318 322.898 294.133 323.38 290.845C323.96 286.468 323.919 282.032 323.26 277.667C321.505 266.279 318.767 255.065 315.077 244.151C313.071 237.973 310.784 231.514 308.819 224.675C306.661 217.635 305.249 210.388 304.607 203.053C304.061 195.679 304.808 188.267 306.813 181.15C307.757 177.765 309.104 174.506 310.824 171.442C312.476 168.488 314.543 165.787 316.962 163.419C321.427 158.985 327.051 155.899 333.188 154.514C338.516 153.292 344.056 153.354 349.355 154.694C353.727 155.816 357.823 157.823 361.389 160.591C364.077 162.643 366.438 165.091 368.389 167.852C369.633 169.577 370.695 171.425 371.559 173.368C371.859 174.03 372.04 174.551 372.18 174.912C372.255 175.079 372.309 175.254 372.341 175.434C372.241 175.28 372.154 175.119 372.08 174.952C371.92 174.611 371.699 174.09 371.378 173.448C370.442 171.565 369.334 169.772 368.069 168.093C366.08 165.42 363.716 163.048 361.048 161.052C357.538 158.397 353.526 156.48 349.255 155.416C344.067 154.169 338.657 154.169 333.469 155.416C327.497 156.789 322.037 159.828 317.724 164.181C315.342 166.476 313.314 169.113 311.707 172.004C309.989 174.998 308.642 178.191 307.695 181.511C305.739 188.52 305.013 195.816 305.549 203.073C306.193 210.331 307.584 217.502 309.701 224.474C311.707 231.274 313.893 237.732 315.899 243.93C319.569 254.915 322.254 266.205 323.922 277.667C324.557 282.09 324.557 286.582 323.922 291.005C323.379 294.347 322.281 297.574 320.673 300.552C320.085 301.633 319.415 302.665 318.667 303.641C318.17 304.394 317.613 305.105 317.002 305.767L315.899 306.991C315.79 307.11 315.669 307.218 315.538 307.312Z" fill="#263238"/>
<path d="M366.74 185.623C365.234 183.929 363.342 182.621 361.224 181.812C358.322 180.806 355.195 180.638 352.201 181.326C349.208 182.014 346.468 183.531 344.296 185.703C338.78 191.219 336.754 201.608 340.284 211.276C342.177 216.349 344.799 221.12 348.067 225.437C351.416 229.97 355.167 234.523 358.557 239.477C361.959 244.295 364.844 249.458 367.162 254.881C369.124 260.015 370.549 265.339 371.414 270.767C372.256 275.902 373.078 280.796 373.419 285.469C373.697 289.776 373.738 294.095 373.54 298.406C373.339 302.418 372.898 305.908 372.577 309.017C372.356 311.713 371.762 314.366 370.812 316.899C370.19 318.488 369.346 319.98 368.305 321.332C367.964 321.813 367.643 322.134 367.462 322.355L367.141 322.676C367.44 322.169 367.769 321.68 368.124 321.211C369.088 319.837 369.864 318.339 370.431 316.759C371.995 312.747 372.276 306.188 372.798 298.366C372.955 294.086 372.868 289.8 372.537 285.529C372.117 280.631 371.447 275.757 370.531 270.927C369.661 265.574 368.243 260.325 366.299 255.262C363.961 249.923 361.063 244.847 357.654 240.119C354.285 235.145 350.574 230.632 347.204 226.079C343.88 221.69 341.229 216.829 339.342 211.657C335.731 201.629 337.898 190.938 343.714 185.262C346.299 182.675 349.673 181.023 353.302 180.568C356.011 180.187 358.773 180.504 361.325 181.491C362.948 182.063 364.431 182.972 365.677 184.158C365.984 184.476 366.272 184.811 366.54 185.161C366.68 185.482 366.76 185.623 366.74 185.623Z" fill="#263238"/>
<path d="M393.32 182.153C393.551 181.785 393.82 181.442 394.123 181.13C394.684 180.488 395.446 179.505 396.57 178.362C399.658 175.076 403.012 172.05 406.598 169.316C418.573 160.158 432.718 154.263 447.652 152.206C462.586 150.15 477.799 152.002 491.803 157.582C496.029 159.244 500.108 161.257 503.998 163.6C505.402 164.402 506.405 165.144 507.107 165.606C507.486 165.813 507.836 166.07 508.15 166.368C507.75 166.204 507.367 166.003 507.006 165.766C506.264 165.385 505.221 164.703 503.797 163.961C488.814 155.501 471.7 151.566 454.527 152.634C437.354 153.702 420.859 159.727 407.04 169.978C403.406 172.636 399.973 175.559 396.77 178.723C395.587 179.826 394.764 180.729 394.183 181.351C393.924 181.648 393.635 181.917 393.32 182.153Z" fill="#263238"/>
<path d="M380.336 195.872C380.67 196.107 380.973 196.383 381.239 196.694L383.686 199.181C385.872 201.187 388.981 204.356 393.213 207.746C398.098 211.754 403.327 215.324 408.838 218.416C415.562 222.242 422.775 225.137 430.279 227.021C434.16 227.991 438.11 228.661 442.093 229.027C445.804 229.309 449.53 229.343 453.245 229.127C460.365 228.706 466.764 227.763 472.159 227.121C476.421 226.637 480.707 226.403 484.996 226.419C486.52 226.419 487.704 226.519 488.506 226.6C488.912 226.612 489.315 226.666 489.71 226.76C489.71 226.76 488.025 226.76 484.996 226.76C480.729 226.882 476.471 227.223 472.24 227.783C466.864 228.405 460.486 229.428 453.305 229.909C449.539 230.17 445.759 230.17 441.993 229.909C437.935 229.555 433.911 228.884 429.958 227.903C422.372 225.992 415.088 223.036 408.316 219.118C402.771 215.964 397.533 212.297 392.671 208.167C389.393 205.402 386.279 202.449 383.345 199.321L381.038 196.694C380.776 196.445 380.54 196.17 380.336 195.872Z" fill="#263238"/>
<path d="M380.083 204.216C380.083 204.216 380.384 204.436 380.885 204.958L383.011 207.224L384.536 208.889C385.117 209.491 385.779 210.073 386.541 210.755C387.945 212.058 389.45 213.643 391.355 215.147L394.284 217.574C395.286 218.396 396.45 219.159 397.573 220.021C399.839 221.746 402.447 223.311 405.135 225.015C417.078 232.132 430.344 236.746 444.126 238.574C447.316 238.915 450.324 239.316 453.172 239.337C454.596 239.337 455.96 239.497 457.184 239.477L460.975 239.377C463.402 239.377 465.568 239.076 467.473 238.935C468.436 238.835 469.339 238.775 470.141 238.675L472.367 238.314L475.456 237.852C475.823 237.808 476.193 237.808 476.559 237.852C476.213 237.973 475.858 238.067 475.496 238.133L472.448 238.795L470.221 239.236C469.399 239.377 468.516 239.457 467.554 239.577C465.386 239.898 463.204 240.105 461.015 240.199L457.184 240.359C455.86 240.359 454.476 240.359 453.032 240.359C449.98 240.289 446.934 240.062 443.906 239.678C429.969 237.949 416.557 233.287 404.553 225.998C401.941 224.416 399.41 222.702 396.971 220.864C395.828 220.001 394.685 219.219 393.662 218.356L390.773 215.849C389.11 214.423 387.524 212.91 386.02 211.316C385.338 210.634 384.696 210.012 384.134 209.31C383.573 208.608 383.132 208.107 382.67 207.585L380.664 205.179C380.263 204.537 380.043 204.216 380.083 204.216Z" fill="#263238"/>
<path d="M346.505 315.996C346.505 315.996 346.706 315.375 347.127 314.211C347.328 313.61 347.588 312.887 347.869 312.045C348.15 311.203 348.411 310.16 348.712 309.056C349.413 306.285 349.936 303.471 350.276 300.632C350.674 296.882 350.788 293.107 350.617 289.34C350.037 279.505 347.925 269.821 344.359 260.638C340.568 250.168 334.11 239.698 328.895 227.964C326.297 222.256 324.398 216.256 323.239 210.093C322.157 204.331 322.246 198.41 323.499 192.683C324.715 187.504 327.149 182.691 330.6 178.642C333.597 175.085 337.561 172.473 342.012 171.121C345.695 170.086 349.581 170.003 353.305 170.88C356.119 171.499 358.766 172.717 361.067 174.45C362.515 175.588 363.78 176.941 364.818 178.462L365.761 180.087L364.738 178.502C363.677 177.046 362.406 175.755 360.967 174.671C358.667 172.981 356.035 171.798 353.245 171.201C349.561 170.351 345.721 170.461 342.093 171.522C337.71 172.869 333.81 175.453 330.86 178.963C327.463 182.977 325.071 187.741 323.88 192.863C322.653 198.54 322.572 204.404 323.64 210.113C324.798 216.241 326.691 222.208 329.276 227.884C334.491 239.577 340.929 250.067 344.72 260.577C348.275 269.802 350.36 279.528 350.898 289.4C351.067 293.188 350.94 296.984 350.517 300.753C350.144 303.592 349.595 306.406 348.872 309.177L347.99 312.165L347.207 314.332C346.766 315.395 346.505 315.996 346.505 315.996Z" fill="#263238"/>
<path d="M502.072 201.347L500.969 201.608L497.779 202.23C496.395 202.531 494.691 202.852 492.685 203.113C490.679 203.373 488.433 203.794 485.925 204.015C483.418 204.236 480.65 204.597 477.662 204.737C474.673 204.878 471.524 204.998 468.175 205.078C460.908 205.089 453.648 204.667 446.432 203.815C439.226 202.897 432.08 201.557 425.031 199.803C421.802 198.92 418.713 198.138 415.885 197.175C413.056 196.213 410.429 195.37 408.062 194.488C405.695 193.605 403.569 192.723 401.704 191.961C399.839 191.198 398.274 190.496 396.99 189.955L394.042 188.571C393.38 188.25 393.039 188.049 393.039 188.049L394.082 188.491L397.071 189.814C398.354 190.396 399.919 191.098 401.804 191.82C403.69 192.542 405.816 193.485 408.162 194.287C410.509 195.09 413.137 196.092 416.005 196.935C418.873 197.777 421.902 198.64 425.131 199.522C432.163 201.264 439.288 202.604 446.472 203.534C453.675 204.389 460.921 204.824 468.175 204.837C471.504 204.837 474.673 204.837 477.642 204.537C480.61 204.236 483.378 204.135 485.885 203.875C488.393 203.614 490.659 203.293 492.665 203.032C494.671 202.772 496.355 202.491 497.739 202.21L500.949 201.648L502.072 201.347Z" fill="#263238"/>
<path d="M340.766 610.08C339.743 615.696 335.331 618.664 332.101 621.111C323.435 627.63 312.974 631.327 302.136 631.702C300.83 631.871 299.503 631.625 298.345 631C296.018 629.435 296.519 625.885 297.583 623.278C298.646 620.67 300.009 617.681 298.585 615.255C295.137 617.995 290.997 619.726 286.625 620.257C282.252 620.788 277.818 620.098 273.814 618.263C273.334 618.031 272.923 617.676 272.623 617.236C272.323 616.795 272.143 616.283 272.103 615.751C272.062 615.219 272.162 614.686 272.392 614.204C272.622 613.723 272.974 613.311 273.413 613.008C284.686 604.985 292.347 589.822 294.333 576.122L340.766 610.08Z" fill="#363A5A"/>
<g opacity="0.2">
<path d="M338.476 607.372C324.765 595.638 309.992 585.203 294.35 576.203C293.728 582.22 293.247 589.22 296.155 594.555C299.063 599.891 304.178 602.679 309.453 605.266C318.118 609.598 327.926 613.47 337.273 610.902C338.396 610.601 339.7 609.839 339.499 608.696C339.321 608.15 338.96 607.682 338.476 607.372Z" fill="black"/>
</g>
<path d="M287.013 391.954C313.409 382.467 324.521 381.224 350.134 375.587C352.26 375.126 367.043 372.258 369.169 372.739C374.103 373.863 377.192 384.914 376.59 389.929C375.988 394.943 372.98 399.316 370.573 403.768C365.348 413.47 362.218 424.16 361.386 435.147C360.553 446.134 362.036 457.173 365.739 467.551C368.808 476.016 373.341 483.898 375.988 492.503C378.636 501.107 382.908 508.408 376.931 515.569C353.704 507.927 324.962 496.474 301.735 488.852C303.962 480.629 301.976 479.004 295.558 473.428C289.139 467.852 281.297 464.041 275.159 458.144C270.349 453.541 266.753 447.819 264.691 441.489C262.629 435.159 262.166 428.417 263.341 421.864C264.517 415.311 267.295 409.151 271.429 403.932C275.563 398.714 280.923 394.599 287.033 391.954" fill="#363A5A"/>
<g opacity="0.2">
<path d="M292.266 390.109C301.392 401.301 318.661 409.264 333.083 410.287C348.242 411.202 363.161 406.165 374.662 396.246C375.476 394.937 376.04 393.489 376.327 391.974C376.006 390.951 372.877 391.713 371.874 391.393C357.971 386.839 343.634 383.74 329.091 382.146C316.335 381.103 292.266 390.691 292.266 390.169" fill="black"/>
</g>
<path d="M337.913 498.861C338.131 497.218 338.252 495.564 338.274 493.907C338.062 489.395 336.805 484.994 334.603 481.05C333.137 478.306 331.404 475.712 329.428 473.308C327.322 470.701 324.855 468.073 322.228 465.285C319.6 462.497 316.852 459.629 314.205 456.359C310.209 451.428 307.254 445.738 305.52 439.632C303.786 433.527 303.308 427.133 304.116 420.837C305.646 409.44 311.366 399.022 320.162 391.614C321.104 390.81 322.095 390.066 323.13 389.387C323.467 389.113 323.838 388.884 324.234 388.705C324.234 388.705 322.83 389.788 320.423 391.915C317.067 394.945 314.151 398.428 311.758 402.264C308.199 407.934 305.926 414.315 305.099 420.958C304.114 429.103 305.297 437.365 308.528 444.907C311.878 452.93 317.755 459.107 322.93 464.623C325.537 467.391 328.004 470.059 330.11 472.646C332.089 475.144 333.815 477.831 335.265 480.669C337.456 484.726 338.627 489.256 338.675 493.867C338.657 495.114 338.523 496.356 338.274 497.578C338.208 498.019 338.087 498.45 337.913 498.861Z" fill="#263238"/>
<path d="M356.406 506.803C356.406 506.803 356.406 506.362 356.707 505.52C356.861 505.008 356.975 504.485 357.048 503.955C357.19 503.246 357.291 502.53 357.349 501.809C357.711 497.176 357.026 492.521 355.343 488.19C354.228 485.197 352.845 482.31 351.211 479.565C349.278 476.441 347.162 473.434 344.873 470.559C340.16 464.402 334.383 457.983 330.271 449.92C328.337 445.978 326.934 441.796 326.099 437.485C325.382 433.462 325.133 429.37 325.357 425.29C325.757 418.371 327.487 411.595 330.452 405.332C332.415 401.107 334.961 397.178 338.014 393.659C339.037 392.375 340.019 391.653 340.601 390.911C341.183 390.169 341.564 389.988 341.564 389.988L340.661 390.971C340.1 391.613 339.137 392.455 338.134 393.759C335.155 397.312 332.659 401.244 330.713 405.453C327.813 411.697 326.125 418.435 325.738 425.31C325.535 429.337 325.791 433.375 326.501 437.344C327.334 441.619 328.723 445.766 330.632 449.679C334.644 457.702 340.481 464.081 345.194 470.259C347.476 473.15 349.579 476.177 351.492 479.325C353.143 482.088 354.527 485.003 355.624 488.029C357.318 492.393 358.004 497.083 357.63 501.749C357.573 502.479 357.459 503.203 357.289 503.915C357.209 504.447 357.082 504.971 356.908 505.48C356.547 506.382 356.406 506.803 356.406 506.803Z" fill="#263238"/>
<path d="M509.516 315.997C520.327 327.47 518.522 343.255 513.087 354.367C504.863 371.135 507.27 376.29 502.075 384.975C497.121 393.278 500.952 392.657 504.281 401.743C507.611 410.829 513.789 418.571 520.327 425.651C528.333 434.243 537.108 442.085 546.543 449.078C551.717 452.889 557.935 456.64 564.173 455.096C569.328 453.832 573.059 449.078 574.643 444.084C575.951 438.938 576.372 433.607 575.887 428.319L572.998 344.619" fill="#263238"/>
<path d="M555.676 875.762H791.994C789.366 868.561 780.14 766.288 723.437 733.494C723.437 733.494 702.698 740.955 656.866 718.29C603.613 691.975 539.269 648.49 539.269 648.49L532.148 733.334L555.676 875.762Z" fill="#FE4C4C"/>
<g opacity="0.2">
<path d="M708.662 732.13C705.568 728.547 701.982 725.421 698.011 722.843C674.444 706.135 648.83 692.536 623.297 679.018C599.75 666.522 576.001 653.966 550.388 646.645C547.945 645.715 545.292 645.486 542.726 645.983C541.464 646.276 540.36 647.038 539.638 648.114C538.915 649.19 538.628 650.5 538.835 651.779C557.829 670.112 577.325 687.883 599.97 701.462C622.615 715.041 647.888 724.769 674.183 727.176C678.656 727.577 684.091 728.419 685.716 732.591C686.599 734.918 685.957 737.505 686.057 739.992C686.157 742.48 687.742 745.368 690.229 745.227C693.117 745.047 694 741.216 694.04 738.348C694.08 735.479 694.822 731.648 697.711 731.308C698.628 731.364 699.521 731.623 700.326 732.067C701.131 732.511 701.827 733.129 702.364 733.875C705.974 737.666 718.931 755.276 722.542 759.047C722.883 754.354 711.55 735.841 708.662 732.13Z" fill="black"/>
</g>
<path d="M721.041 782.855C720.84 782.855 721.863 779.987 722.525 775.294C722.898 772.549 723.033 769.778 722.926 767.01C722.646 760.209 720.93 753.544 717.892 747.454C716.647 744.969 715.184 742.599 713.519 740.373C710.671 736.583 708.424 734.637 708.565 734.477C709.166 734.841 709.718 735.279 710.21 735.78C710.839 736.305 711.428 736.875 711.975 737.485C712.736 738.259 713.453 739.076 714.121 739.932C715.89 742.137 717.442 744.508 718.754 747.013C720.327 750.103 721.571 753.35 722.465 756.7C723.287 760.066 723.764 763.507 723.889 766.97C723.957 769.799 723.742 772.628 723.247 775.414C723.081 776.484 722.847 777.543 722.545 778.583C722.374 779.383 722.139 780.168 721.843 780.93C721.65 781.6 721.381 782.246 721.041 782.855Z" fill="#263238"/>
<path d="M693.15 757.322C692.99 757.322 693.972 755.738 695.036 753.11C696.436 749.697 697.23 746.066 697.382 742.379C697.499 738.689 696.983 735.005 695.858 731.488C694.975 728.801 694.133 727.216 694.293 727.136C695.278 728.33 696.045 729.688 696.56 731.147C697.931 734.714 698.566 738.521 698.425 742.339C698.283 746.15 697.362 749.891 695.717 753.331C695.129 754.815 694.257 756.171 693.15 757.322Z" fill="#263238"/>
<path d="M632.543 702.465C627.681 703.016 622.794 703.311 617.901 703.347C613.388 703.347 607.973 703.247 602.016 702.726C589.047 701.566 576.284 698.727 564.047 694.281C559.055 692.479 554.161 690.417 549.385 688.104C544.966 686.011 540.667 683.674 536.508 681.104L537.41 681.565L539.978 682.969C542.164 684.212 545.433 685.897 549.505 687.843C553.577 689.788 558.551 691.854 564.167 693.86C570.284 696.019 576.518 697.827 582.841 699.276C589.184 700.639 595.599 701.644 602.056 702.284C608.073 702.826 613.388 703.006 617.901 702.986C622.414 702.966 626.085 702.806 628.612 702.625L631.52 702.425C631.862 702.42 632.203 702.434 632.543 702.465Z" fill="#FAFAFA"/>
<path d="M695.545 750.583L693.901 751.084L689.187 752.488C687.181 753.11 684.634 753.852 681.666 754.494C678.697 755.136 675.368 756.099 671.637 756.68C667.906 757.262 663.754 758.125 659.281 758.566C657.055 758.786 654.748 759.188 652.362 759.308L644.98 759.789C623.015 760.806 601.04 758.004 580.034 751.506L573.014 749.199C570.727 748.497 568.601 747.554 566.495 746.772C562.263 745.248 558.472 743.483 554.962 741.918C551.452 740.354 548.443 738.709 545.716 737.365C542.988 736.021 540.741 734.697 538.896 733.614L534.644 731.127L533.18 730.245L534.684 731.047L538.976 733.474C540.822 734.537 543.088 735.841 545.816 737.144C548.544 738.448 551.572 740.173 555.103 741.637C558.633 743.101 562.383 744.927 566.616 746.451C568.722 747.213 570.848 748.156 573.134 748.858L580.154 751.125C590.654 754.267 601.385 756.581 612.246 758.044C623.11 759.373 634.064 759.822 645 759.388L652.362 758.947C654.748 758.827 657.055 758.445 659.281 758.225C663.754 757.784 667.866 757.041 671.617 756.38C675.367 755.718 678.737 754.895 681.646 754.374C684.554 753.852 687.141 753.05 689.187 752.368L693.921 751.044L695.545 750.583Z" fill="#FAFAFA"/>
<path d="M720.417 755.216C720.191 755.418 719.942 755.593 719.675 755.738C719.173 756.058 718.431 756.46 717.509 756.941C715.042 758.134 712.452 759.055 709.786 759.689C707.114 760.293 704.383 760.595 701.643 760.592C700.6 760.592 699.758 760.591 699.176 760.471C698.871 760.456 698.569 760.409 698.273 760.331C698.273 760.331 699.557 760.331 701.643 760.331C704.345 760.255 707.032 759.912 709.666 759.308C712.309 758.702 714.883 757.828 717.348 756.7C719.274 755.798 720.397 755.156 720.417 755.216Z" fill="#FAFAFA"/>
<path d="M744.767 751.786C744.604 752.075 744.409 752.344 744.185 752.589C743.632 753.287 743.043 753.957 742.42 754.594C738.368 758.959 733.485 762.47 728.059 764.924C727.016 765.385 726.173 765.726 725.572 765.927C725.267 766.056 724.952 766.157 724.629 766.228C724.901 766.04 725.198 765.891 725.511 765.787L727.938 764.643C730.581 763.353 733.11 761.844 735.5 760.13C737.892 758.404 740.139 756.485 742.219 754.394C743.002 753.592 743.643 752.93 744.065 752.388C744.277 752.163 744.512 751.962 744.767 751.786Z" fill="#FAFAFA"/>
<path d="M766.527 782.855C766.527 782.855 765.905 783.377 764.682 784.34L762.435 786.105C761.43 786.933 760.379 787.703 759.286 788.411C752.485 793.2 745.156 797.191 737.443 800.306C725.987 804.875 714.008 808.008 701.781 809.632C694.901 810.555 687.621 811.257 680.079 811.638C672.537 812.019 664.675 812.119 656.652 812.019C641.568 811.759 626.528 810.337 611.663 807.767C597.943 805.46 585.728 802.632 575.559 800.065C555.201 794.85 542.785 790.979 542.785 790.979L545.052 791.601L551.57 793.406C557.247 794.97 565.45 797.237 575.639 799.764C585.829 802.291 598.044 805.099 611.743 807.386C626.598 809.922 641.624 811.33 656.692 811.598C664.715 811.698 672.517 811.598 680.079 811.237C687.641 810.876 694.881 810.174 701.761 809.231C713.961 807.622 725.918 804.524 737.363 800.005C745.061 796.911 752.393 792.976 759.226 788.271C760.318 787.569 761.37 786.806 762.375 785.984L764.662 784.26L766.527 782.855Z" fill="#FAFAFA"/>
<path d="M780.304 840.862L778.058 841.704L771.599 844.051L766.926 845.696C765.221 846.278 763.315 846.799 761.31 847.421C757.298 848.624 752.665 850.149 747.49 851.432L739.467 853.438C736.659 854.14 733.67 854.682 730.622 855.324C724.504 856.728 717.885 857.69 710.945 858.814C680.682 863.224 649.959 863.494 619.623 859.616C612.643 858.613 606.024 857.771 599.887 856.487C596.818 855.885 593.87 855.404 591.001 854.742L582.858 852.736C577.663 851.613 573.05 850.169 568.978 849.046C566.972 848.464 564.967 847.942 563.322 847.421L558.628 845.836L552.13 843.67C550.646 843.169 549.863 842.868 549.863 842.868L552.15 843.59L558.669 845.696L563.382 847.22C565.107 847.742 567.013 848.243 569.038 848.825C573.05 849.908 577.723 851.352 582.938 852.455L591.061 854.321C593.89 854.962 596.878 855.444 599.947 856.046C606.064 857.309 612.704 858.152 619.663 859.134C649.969 862.96 680.652 862.69 710.885 858.332C717.825 857.229 724.444 856.326 730.541 854.902C733.61 854.24 736.559 853.719 739.407 853.017L747.43 851.011C752.625 849.828 757.198 848.323 761.25 847.14C763.255 846.538 765.261 846.017 766.886 845.455L771.579 843.831L778.058 841.624C779.522 841.103 780.304 840.862 780.304 840.862Z" fill="#FAFAFA"/>
<path d="M549.127 431.086C549.127 431.086 593.594 466.729 616.54 518.256C635.013 559.735 758.949 617.18 768.636 662.029C780.671 717.708 730.848 738.348 704.452 734.356C642.174 724.929 501.27 625.364 501.27 625.364L549.127 431.086Z" fill="#263238"/>
<path d="M588.521 681.766C587.231 681.303 586.01 680.669 584.89 679.88C582.624 678.536 579.395 676.531 575.403 674.023C567.38 669.029 556.489 661.989 544.454 654.186C532.42 646.384 521.569 639.223 513.746 633.988C509.935 631.421 506.827 629.315 504.5 627.771L502.073 626.026C501.774 625.829 501.492 625.608 501.23 625.364C501.568 625.475 501.886 625.637 502.173 625.845L504.761 627.43L514.188 633.447L545.076 653.384L588.521 681.766Z" fill="#455A64"/>
<path d="M528.429 171.342C511.079 182.373 504.159 205.439 507.468 219.159C509.133 226.058 512.262 232.978 510.898 239.938C509.715 245.956 505.403 250.749 502.153 255.984C496.722 264.731 494.23 274.985 495.04 285.249C495.851 295.513 499.921 305.249 506.657 313.036C513.393 320.822 522.442 326.252 532.482 328.531C542.522 330.81 553.029 329.82 562.466 325.704" fill="#263238"/>
<path d="M518.114 261.581C475.993 168.815 576.281 122.201 631.018 137.665C682.486 152.187 704.428 177.78 712.893 212.219C721.357 246.658 720.916 283.925 707.457 316.719C700.818 332.885 688.824 349.312 671.454 351.338" fill="#263238"/>
<path d="M567.06 444.224C566.318 399.897 566.338 383.249 566.318 383.51C566.298 383.771 528.208 377.172 520.326 327.469C516.314 302.738 517.638 262.202 519.724 229.067C521.609 199.241 541.366 162.637 571.091 165.786L663.878 189.253C668.233 189.709 672.258 191.785 675.156 195.069C678.053 198.353 679.612 202.605 679.522 206.984L670.717 406.135" fill="#FFBE9D"/>
<path d="M527.667 261.861C528.429 262.723 533.384 259.313 540.243 259.554C547.103 259.795 552.017 263.385 552.779 262.583C553.16 262.222 552.398 260.697 550.272 259.033C547.365 256.872 543.863 255.661 540.243 255.563C536.679 255.44 533.167 256.451 530.214 258.451C528.148 259.995 527.306 261.48 527.667 261.861Z" fill="#263238"/>
<path d="M592.465 264.529C593.248 265.371 598.082 261.761 604.941 261.761C611.801 261.761 616.835 265.15 617.577 264.308C617.939 263.927 617.136 262.443 614.93 260.858C611.979 258.832 608.48 257.754 604.901 257.769C601.295 257.763 597.782 258.909 594.872 261.039C592.786 262.663 592.064 264.168 592.465 264.529Z" fill="#263238"/>
<path d="M571.068 302.317C571.068 301.916 566.836 301.194 559.916 300.311C558.171 300.131 556.506 299.77 556.205 298.586C556.061 296.775 556.473 294.962 557.389 293.392L562.564 280.053C569.764 261.059 574.959 245.434 574.197 245.153C573.435 244.872 566.976 260.036 559.776 279.03C558.051 283.704 556.386 288.177 554.821 292.449C553.721 294.565 553.395 296.998 553.899 299.329C554.156 299.944 554.55 300.493 555.05 300.934C555.551 301.375 556.144 301.697 556.787 301.876C557.754 302.146 558.752 302.287 559.756 302.297C566.716 302.678 571.028 302.698 571.068 302.317Z" fill="#263238"/>
<path d="M566.25 383.51C589.664 383.86 612.715 377.709 632.841 365.739C632.841 365.739 616.013 400.318 566.25 395.685V383.51Z" fill="#EB996E"/>
<path d="M573.958 318.845C575.267 317.204 576.972 315.922 578.912 315.118C580.851 314.315 582.963 314.017 585.05 314.252C586.562 314.39 588.031 314.833 589.369 315.553C590.706 316.273 591.884 317.257 592.832 318.444C593.753 319.582 594.3 320.978 594.397 322.44C594.494 323.901 594.136 325.357 593.373 326.607C591.528 329.215 587.657 329.816 584.388 328.894C581.15 327.743 578.171 325.964 575.623 323.659C574.838 323.118 574.158 322.438 573.617 321.653C573.362 321.273 573.227 320.826 573.227 320.369C573.227 319.912 573.362 319.465 573.617 319.086" fill="#EB996E"/>
<path d="M591.238 307.05C590.134 307.05 590.114 314.432 583.736 319.727C577.358 325.022 569.435 324.2 569.375 325.243C569.275 325.704 571.14 326.687 574.49 326.767C578.868 326.84 583.131 325.362 586.524 322.595C589.766 319.938 591.852 316.128 592.341 311.965C592.582 308.856 591.759 307.01 591.238 307.05Z" fill="#263238"/>
<path d="M592.87 239.417C593.552 241.282 600.391 240.4 608.454 241.423C616.517 242.446 623.016 244.592 624.079 242.927C624.56 242.125 623.417 240.36 620.79 238.555C617.288 236.339 613.326 234.953 609.207 234.501C605.088 234.049 600.92 234.544 597.022 235.947C594.073 237.07 592.589 238.535 592.87 239.417Z" fill="#263238"/>
<path d="M531.034 230.291C532.257 231.855 537.051 230.291 542.667 230.17C548.283 230.05 553.157 231.213 554.261 229.569C554.742 228.786 554 227.222 551.894 225.758C549.089 223.939 545.786 223.041 542.447 223.19C539.11 223.255 535.874 224.348 533.18 226.319C531.174 227.924 530.512 229.528 531.034 230.291Z" fill="#263238"/>
<path d="M670.988 272.131C671.71 271.77 697.605 260.317 697.905 290.082C698.206 319.848 668.26 314.011 668.2 313.169C668.14 312.326 670.988 272.131 670.988 272.131Z" fill="#FFBE9D"/>
<path d="M677.187 301.796C677.307 301.696 677.708 302.157 678.591 302.538C679.832 303.041 681.22 303.041 682.462 302.538C685.591 301.355 688.198 296.34 688.278 290.965C688.325 288.415 687.805 285.887 686.754 283.564C686.467 282.617 685.95 281.755 685.251 281.056C684.551 280.356 683.689 279.839 682.742 279.552C682.148 279.398 681.519 279.458 680.965 279.722C680.411 279.987 679.968 280.438 679.714 280.996C679.313 281.839 679.513 282.42 679.353 282.481C679.192 282.541 678.711 281.979 678.932 280.756C679.091 280.012 679.502 279.346 680.095 278.87C680.91 278.257 681.929 277.977 682.943 278.088C684.169 278.316 685.315 278.855 686.274 279.652C687.232 280.449 687.971 281.478 688.419 282.641C689.708 285.208 690.349 288.053 690.284 290.925C690.164 296.942 687.155 302.578 682.863 303.862C682.066 304.102 681.224 304.161 680.402 304.032C679.579 303.904 678.795 303.592 678.109 303.12C677.247 302.498 677.086 301.856 677.187 301.796Z" fill="#EB996E"/>
<path d="M561.177 150.802C544.609 159.367 537.79 193.244 544.649 210.574C551.509 227.903 568.718 239.657 586.951 243.649C605.183 247.64 624.218 244.832 642.189 239.838C643.433 251.872 650.673 264.308 662.387 267.497C677.892 271.709 693.536 257.468 696.986 241.803C700.436 226.138 695.261 209.932 690.147 194.688" fill="#263238"/>
<path d="M692.493 258.812C692.493 258.812 691.75 259.675 690.206 260.979C688.002 262.819 685.706 264.547 683.326 266.153C679.78 268.605 675.877 270.493 671.753 271.749C666.605 273.379 661.068 273.302 655.968 271.529C650.921 269.507 646.688 265.866 643.933 261.179C641.727 257.452 640.269 253.33 639.641 249.044C639.215 246.19 639.06 243.303 639.18 240.42C639.15 239.357 639.278 238.296 639.561 237.271C639.902 237.271 639.561 241.804 640.844 248.824C641.607 252.906 643.11 256.814 645.277 260.357C647.899 264.66 651.827 268.012 656.489 269.924C661.258 271.562 666.42 271.667 671.252 270.225C675.258 269.074 679.081 267.359 682.604 265.13C688.762 261.319 692.312 258.552 692.493 258.812Z" fill="#263238"/>
<path d="M670.551 407.74C675.786 399.837 688.783 393.399 698.25 392.656C707.717 391.914 717.265 392.356 726.632 390.891C757.821 386.037 771.56 365.519 767.87 335.533C766.406 323.498 761.692 315.475 742.617 291.928C726.311 271.87 717.947 247.52 715.319 223.19L702.161 261.3L707.457 304.985L694.8 331.06L673.66 339.845L670.551 407.74Z" fill="#263238"/>
<path d="M766.291 405.172C763.543 397.63 758.829 390.991 754.096 384.513C749.068 378.252 744.8 371.419 741.379 364.154L711.293 382.687C712.036 377.96 711.531 373.12 709.829 368.647C706.82 360.624 700.983 354.065 695.267 347.707L674.768 314.131C666.484 336.595 658.261 343.615 641.613 355.048C624.965 366.481 608.057 373.601 594.338 397.831C590.547 404.53 582.584 439.49 587.097 443.562C587.097 443.562 626.369 419.633 633.349 417.247C650.479 411.37 668.51 408.802 685.619 403.206C701.883 406.1 716.838 413.995 728.402 425.791C733.798 431.347 739.012 438.086 746.634 439.531C754.256 440.975 762.68 435.82 766.13 428.579C769.58 421.338 769.039 412.814 766.291 405.172Z" fill="#263238"/>
<path d="M754.792 385.074C754.216 384.04 753.586 383.036 752.907 382.066C750.853 379.363 748.291 377.087 745.365 375.367C740.707 372.686 735.762 370.54 730.623 368.968C727.426 367.9 724.286 366.668 721.216 365.278C717.718 363.738 714.52 361.592 711.769 358.939C708.798 355.925 706.656 352.194 705.551 348.108C704.442 343.693 704.136 339.113 704.648 334.59C705.451 325.142 709.582 315.836 712.671 305.927C714.387 300.882 715.4 295.624 715.68 290.303C715.863 284.785 714.619 279.313 712.07 274.417C710.753 271.932 708.953 269.736 706.774 267.958C704.509 266.198 701.888 264.952 699.092 264.308C696.284 263.586 693.356 263.185 690.407 262.543C687.363 262.019 684.469 260.842 681.923 259.093C679.477 257.178 677.558 254.673 676.347 251.812C675.023 249.084 674.061 246.276 672.857 243.609C670.564 238.346 666.574 234.004 661.525 231.273C656.633 228.649 651.292 226.968 645.779 226.319C640.453 225.725 635.089 225.531 629.733 225.737C624.498 225.838 619.364 225.998 614.369 225.737C600.711 225.033 587.697 219.707 577.464 210.634C572.093 205.846 567.652 200.107 564.366 193.705C561.899 188.886 560.084 183.76 558.97 178.462C558.265 175.123 557.875 171.725 557.807 168.313C557.741 167.123 557.741 165.932 557.807 164.742C557.807 164.742 557.807 165.043 557.807 165.645C557.807 166.247 557.807 167.129 557.807 168.293C557.976 171.668 558.432 175.023 559.171 178.321C560.343 183.562 562.197 188.626 564.687 193.385C567.979 199.683 572.406 205.32 577.744 210.012C584.306 215.681 592.018 219.862 600.349 222.267C604.917 223.623 609.631 224.425 614.389 224.654C619.324 224.935 624.418 224.775 629.673 224.654C635.061 224.428 640.459 224.609 645.82 225.196C651.438 225.857 656.882 227.572 661.866 230.25C664.432 231.672 666.766 233.478 668.785 235.606C670.82 237.788 672.462 240.305 673.639 243.047C674.883 245.755 675.846 248.563 677.129 251.23C678.318 253.976 680.198 256.367 682.585 258.17C684.996 259.823 687.731 260.944 690.608 261.46C693.496 262.082 696.445 262.483 699.353 263.225C702.273 263.918 705.009 265.231 707.376 267.076C709.668 268.936 711.558 271.243 712.932 273.855C715.553 278.93 716.818 284.595 716.603 290.303C716.307 295.714 715.268 301.06 713.514 306.188C710.345 316.217 706.213 325.383 705.491 334.65C704.982 339.078 705.274 343.563 706.353 347.888C707.411 351.86 709.485 355.489 712.37 358.418C715.051 361.024 718.167 363.142 721.577 364.676C724.786 366.2 727.935 367.343 730.904 368.427C736.063 370.049 741.017 372.263 745.666 375.026C748.613 376.795 751.167 379.15 753.167 381.945C753.829 382.921 754.375 383.971 754.792 385.074Z" fill="#455A64"/>
<path d="M743.364 363.774C743.557 363.586 743.772 363.424 744.006 363.293C744.448 362.972 745.15 362.611 746.012 361.949C748.424 360.119 750.523 357.91 752.23 355.41C754.924 351.446 756.787 346.977 757.706 342.272C758.972 336.054 758.821 329.63 757.264 323.478C755.3 316.003 752.093 308.91 747.777 302.498C742.84 295.155 737.483 288.103 731.731 281.378C725.322 273.945 719.683 265.88 714.903 257.309C709.989 248.202 708.083 237.612 704.032 227.684C702.108 222.767 699.246 218.271 695.607 214.446C691.978 210.811 687.751 207.826 683.112 205.62C674.026 201.127 664.278 199.242 655.131 197.437C646.38 195.902 637.742 193.778 629.277 191.079C621.895 188.701 614.782 185.554 608.056 181.692C598.255 176.123 589.847 168.4 583.466 159.107C581.761 156.554 580.259 153.871 578.973 151.084C578.532 150.141 578.251 149.379 578.05 148.898C577.936 148.652 577.842 148.397 577.77 148.135C577.919 148.363 578.047 148.605 578.151 148.858C578.391 149.319 578.692 150.061 579.174 150.984C580.525 153.701 582.074 156.315 583.807 158.806C590.279 167.896 598.693 175.433 608.438 180.869C615.128 184.671 622.201 187.757 629.538 190.076C637.983 192.719 646.593 194.803 655.312 196.314C664.478 198.099 674.306 199.964 683.573 204.517C688.305 206.784 692.624 209.828 696.35 213.523C700.072 217.456 703.007 222.065 704.994 227.102C709.106 237.131 711.012 247.701 715.805 256.647C720.54 265.208 726.124 273.272 732.473 280.716C738.235 287.481 743.593 294.58 748.519 301.977C752.832 308.456 756.019 315.617 757.946 323.157C759.483 329.419 759.585 335.946 758.247 342.252C757.261 347.014 755.316 351.525 752.531 355.51C750.753 358.007 748.578 360.195 746.092 361.989C745.222 362.641 744.311 363.237 743.364 363.774Z" fill="#455A64"/>
<path d="M599.347 420.456C599.234 419.942 599.174 419.418 599.166 418.892C599.07 417.389 599.07 415.881 599.166 414.379C599.44 408.813 600.654 403.333 602.757 398.172C605.83 390.495 610.39 383.502 616.175 377.593C623.275 370.402 631.466 364.378 640.445 359.742C649.912 354.667 659.6 351.338 667.683 346.965C671.54 344.953 675.165 342.525 678.494 339.725C681.366 337.261 683.836 334.365 685.815 331.14C688.818 326.526 690.375 321.12 690.288 315.615C690.139 313.583 689.803 311.569 689.285 309.598C689.52 310.066 689.708 310.557 689.846 311.062C690.298 312.509 690.58 314.003 690.689 315.515C690.929 321.133 689.446 326.69 686.437 331.441C684.46 334.761 681.976 337.752 679.076 340.306C675.716 343.175 672.05 345.664 668.144 347.728C659.981 352.2 650.313 355.55 640.946 360.584C632.064 365.171 623.945 371.105 616.877 378.175C611.148 383.982 606.592 390.84 603.459 398.373C601.337 403.451 600.03 408.833 599.588 414.318C599.463 415.813 599.416 417.312 599.447 418.811C599.462 419.362 599.428 419.912 599.347 420.456Z" fill="#455A64"/>
<path d="M695.525 185.823C695.404 185.823 695.063 184.198 693.76 181.43C691.871 177.579 689.2 174.163 685.917 171.402C681.041 167.309 675.354 164.294 669.229 162.556C661.685 160.56 653.968 159.284 646.183 158.745C631.94 157.652 617.865 154.961 604.223 150.722C599.008 149.078 594.856 147.513 592.028 146.35C590.604 145.788 589.521 145.307 588.778 144.986C588.396 144.843 588.032 144.654 587.695 144.424C588.097 144.492 588.489 144.614 588.859 144.785L592.168 145.969C595.036 147.012 599.208 148.476 604.443 149.98C618.083 154.012 632.105 156.613 646.283 157.743C654.14 158.303 661.921 159.647 669.51 161.754C675.735 163.575 681.495 166.715 686.398 170.96C689.705 173.826 692.348 177.379 694.141 181.37C694.608 182.456 694.99 183.575 695.284 184.72C695.398 185.079 695.479 185.449 695.525 185.823Z" fill="#455A64"/>
<path d="M645.058 408.963L425.85 528.666C424.328 529.497 422.648 529.997 420.919 530.132C419.19 530.267 417.453 530.034 415.821 529.448L265.389 475.975C263.711 469.58 262.419 463.09 261.518 456.539C260.836 448.135 264.326 434.195 264.326 434.195C253.876 435.339 252.292 448.436 252.292 448.436C252.292 448.436 229.547 447.233 224.753 453.23C221.974 457.157 219.891 461.534 218.595 466.167C217.923 468.397 217.923 470.776 218.595 473.007C219.658 476.637 220.721 482.754 217.532 486.746C212.738 492.763 205.498 499.924 207.945 509.491C210.392 519.059 220.099 536.97 236.025 536.85C248.22 536.85 307.971 590.544 361.726 623.478C383.464 636.756 409.187 641.948 434.374 638.14C480.506 631.22 595.677 581.979 628.09 566.073C674.824 543.328 645.058 408.963 645.058 408.963Z" fill="#FFBE9D"/>
<path d="M258.694 482.153C258.814 482.273 257.27 483.998 255.083 486.987C249.364 494.791 245.402 503.741 243.47 513.222C242.728 516.853 242.507 519.239 242.327 519.139C242.245 518.601 242.245 518.053 242.327 517.514C242.4 516.036 242.554 514.563 242.788 513.102C243.572 508.265 244.967 503.547 246.94 499.061C248.922 494.585 251.477 490.384 254.542 486.566C255.428 485.402 256.372 484.284 257.37 483.216C258.212 482.494 258.634 482.113 258.694 482.153Z" fill="#EB996E"/>
<path d="M594.431 426.955C594.431 426.955 653.019 391.252 677.148 390.33C718.607 388.745 750.659 414.118 755.031 460.05C757.94 490.637 738.424 574.217 737.722 610.662C741.312 613.991 742.034 618.444 740.75 623.699L702.641 593.733C692.612 587.977 671.753 571.329 667.38 568.22C667.38 568.22 632.841 579.252 598.583 589.842C572.648 597.865 490.132 628.713 474.366 634.31L430.922 524.154L594.431 426.955Z" fill="#FE4C4C"/>
<path d="M702.643 565.993C699.889 564.544 696.863 563.683 693.758 563.466C687.74 562.945 679.116 564.75 668.826 567.879C658.537 571.008 646.322 575.019 632.823 579.592C619.324 584.166 604.502 589.28 588.957 594.696L509.489 622.776L485.42 631.321L478.861 633.607L477.136 634.189L476.555 634.35C476.729 634.238 476.918 634.15 477.116 634.089L478.781 633.407L485.28 630.94L509.228 622.094C529.507 614.693 557.547 604.604 588.616 593.753C604.161 588.338 618.983 583.223 632.522 578.71C646.061 574.197 658.256 570.206 668.626 567.217C671.213 566.415 673.7 565.773 676.067 565.211C678.434 564.65 680.68 564.148 682.786 563.787C686.411 563.08 690.114 562.858 693.798 563.125C696.125 563.318 698.403 563.901 700.537 564.85C701.275 565.16 701.981 565.543 702.643 565.993Z" fill="#263238"/>
<path d="M728.422 588.719C729.566 592.568 730.905 596.357 732.433 600.071C734.256 603.638 736.264 607.106 738.451 610.461C732.556 604.688 728.987 596.95 728.422 588.719Z" fill="#263238"/>
<g opacity="0.3">
<path d="M703.644 571.269C703.872 570.426 703.864 569.536 703.62 568.697C703.376 567.859 702.905 567.104 702.26 566.515C701.053 565.331 699.538 564.511 697.887 564.148C689.423 562.002 677.328 565.673 667.641 568.44C677.549 575.701 687.317 583.664 698.008 590.885L701.117 592.891C701.529 592.473 701.848 591.973 702.052 591.423C702.256 590.874 702.34 590.287 702.3 589.701C701.759 587.348 700.945 585.066 699.873 582.902C699.347 581.814 699.074 580.621 699.074 579.412C699.074 578.203 699.347 577.01 699.873 575.922C700.936 574.117 702.982 573.114 703.644 571.269Z" fill="black"/>
</g>
<path d="M517.787 618.444C517.687 618.444 506.314 592.65 492.415 560.739C478.515 528.827 467.302 502.893 467.423 502.853C467.543 502.812 478.876 528.647 492.796 560.558C506.716 592.47 517.888 618.404 517.787 618.444Z" fill="#FAFAFA"/>
<path d="M568.698 598.747L568.116 597.504L566.511 593.893L560.635 580.635C555.64 569.463 548.6 554.099 540.697 537.131C532.795 520.162 525.795 504.778 520.86 493.566C518.393 487.97 516.428 483.417 515.104 480.248C514.482 478.743 513.961 477.54 513.58 476.617C513.198 475.694 513.078 475.333 513.078 475.333L513.66 476.577C514.061 477.5 514.603 478.703 515.244 480.187L521.141 493.445C526.136 504.638 533.176 520.002 541.078 536.97C548.981 553.939 555.981 569.303 560.915 580.515C563.382 586.131 565.348 590.684 566.672 593.833C567.294 595.338 567.815 596.541 568.196 597.484C568.577 598.427 568.698 598.747 568.698 598.747Z" fill="#FAFAFA"/>
<path d="M620.17 582.962C620.17 582.962 619.929 582.501 619.528 581.598C619.127 580.696 618.525 579.292 617.803 577.587L611.405 563.246C605.949 551.011 598.287 534.203 589.482 515.77C580.676 497.337 572.413 480.809 566.335 468.895L559.074 454.855C558.252 453.25 557.59 451.987 557.069 451.024C556.547 450.061 556.387 449.68 556.387 449.68C556.387 449.68 556.668 450.121 557.129 450.984C557.59 451.846 558.332 453.19 559.135 454.775C560.92 458.064 563.427 462.798 566.516 468.815C572.673 480.709 580.977 497.216 589.783 515.649C598.588 534.082 606.21 550.931 611.585 563.186C614.273 569.303 616.419 574.278 617.863 577.727C618.565 579.372 619.107 580.696 619.528 581.739C619.949 582.782 620.17 582.962 620.17 582.962Z" fill="#FAFAFA"/>
<path d="M658.357 569.543C658.257 569.543 644.778 538.013 628.271 499.041C611.763 460.069 598.345 428.419 598.505 428.358C598.666 428.298 612.104 459.889 628.592 498.861C645.079 537.832 658.518 569.483 658.357 569.543Z" fill="#FAFAFA"/>
<path d="M701.641 561.681C701.641 561.681 701.5 561.119 701.3 560.016L700.397 555.222C700.016 553.217 699.535 550.609 698.913 547.661C698.291 544.712 697.649 541.343 696.767 537.632C695.142 530.231 692.936 521.486 690.248 511.858C687.561 502.23 684.231 491.8 680.4 480.829C676.569 469.857 672.377 459.728 668.365 450.522C664.354 441.316 660.563 433.172 657.173 426.453C655.529 423.043 653.904 420.035 652.52 417.347C651.136 414.659 649.933 412.393 648.91 410.547L646.583 406.255C646.061 405.272 645.801 404.751 645.801 404.751C645.801 404.751 650.595 412.774 657.434 426.313C660.864 433.072 664.715 441.235 668.727 450.382C672.738 459.528 676.75 469.797 680.761 480.689C684.773 491.58 687.881 502.11 690.609 511.738C693.337 521.365 695.443 530.15 697.028 537.572C700.277 552.414 701.641 561.681 701.641 561.681Z" fill="#FAFAFA"/>
<path d="M719.387 399.897C719.387 399.897 719.548 400.418 719.828 401.441L721.032 405.874C722.115 409.725 723.419 415.361 724.863 422.361C726.307 429.361 727.751 437.765 728.714 447.172C729.336 451.866 729.576 456.82 729.977 461.935C730.379 467.049 730.439 472.405 730.339 477.86C730.369 496.517 727.873 515.092 722.917 533.079C722.436 534.804 721.954 536.428 721.513 537.993L720.029 542.285C719.106 544.973 718.304 547.279 717.482 549.105C716.659 550.93 716.158 552.294 715.717 553.357C715.275 554.42 715.055 554.821 715.055 554.821C715.055 554.821 715.235 554.3 715.636 553.317C716.038 552.334 716.619 550.83 717.341 549.045C718.063 547.259 718.906 544.893 719.808 542.205C720.27 540.861 720.751 539.417 721.252 537.913L722.636 532.999C727.495 515.023 729.943 496.481 729.917 477.86C729.917 472.405 729.757 467.089 729.576 461.975C729.396 456.86 728.934 451.946 728.333 447.212C727.39 437.805 725.886 429.441 724.582 422.421C723.278 415.401 721.914 409.785 720.871 405.914C720.41 404.049 720.029 402.564 719.748 401.461L719.387 399.897Z" fill="#FAFAFA"/>
<path d="M740.572 580.134C738.927 581.823 737.104 583.329 735.136 584.627C730.387 587.8 725.056 590.002 719.451 591.105C713.853 592.265 708.084 592.327 702.463 591.286C700.14 590.878 697.872 590.205 695.703 589.28L696.184 589.4L697.528 589.822C698.227 590.051 698.936 590.246 699.654 590.403C700.599 590.657 701.556 590.858 702.523 591.005C708.108 591.957 713.821 591.862 719.371 590.724C724.924 589.618 730.218 587.475 734.976 584.406C736.417 583.473 737.797 582.448 739.108 581.337L740.191 580.435C740.431 580.214 740.572 580.114 740.572 580.134Z" fill="#FAFAFA"/>
<path d="M732.911 608.415C731.993 609.531 730.806 610.394 729.461 610.922C728.171 611.582 726.738 611.912 725.289 611.885C726.648 611.506 727.987 611.058 729.301 610.541C730.548 609.911 731.754 609.2 732.911 608.415Z" fill="#FAFAFA"/>
<path d="M751.685 506.803C751.685 506.803 751.685 507.104 751.565 507.666C751.444 508.228 751.304 509.17 751.123 510.133C750.943 511.096 750.682 512.56 750.401 514.024C750.12 515.488 749.579 517.213 749.097 519.099C746.372 528.89 742.055 538.166 736.321 546.557C733.097 551.116 729.45 555.36 725.43 559.234C722.1 562.352 718.464 565.128 714.579 567.518C711.95 569.131 709.107 570.367 706.134 571.188C705.331 571.422 704.503 571.557 703.667 571.589H702.805L703.667 571.449C704.491 571.372 705.304 571.211 706.094 570.968C709.027 570.093 711.827 568.824 714.418 567.197C718.262 564.784 721.863 562.003 725.169 558.893C729.148 555.017 732.767 550.788 735.98 546.257C741.65 537.942 745.969 528.783 748.777 519.119C749.278 517.253 749.82 515.589 750.14 514.084C750.461 512.58 750.702 511.316 750.923 510.193L751.444 507.746C751.605 507.084 751.685 506.803 751.685 506.803Z" fill="#FAFAFA"/>
<path d="M319.923 308.515L473.623 351.959L548.939 407.078L566.991 444.284L568.997 474.912C569.007 476.547 568.468 478.138 567.466 479.431C566.464 480.723 565.058 481.642 563.472 482.039C561.886 482.437 560.212 482.291 558.719 481.624C557.226 480.957 556 479.809 555.237 478.362C553.232 474.691 551.767 469.095 551.226 460.631L549.22 447.112L538.168 430.304C538.168 430.304 539.151 470.219 539.051 479.104C539.051 488.872 535.039 491.239 530.547 491.239C527.438 491.239 519.736 493.967 519.535 469.898C519.234 432.19 513.257 429.582 513.257 429.582C513.257 429.582 512.094 464.964 510.228 479.906C509.005 490.236 494.864 488.21 494.182 478.522C493.561 469.296 492.397 443.321 492.397 443.321C491.916 433.413 490.391 426.293 486.781 422.542C486.781 422.542 480.102 466.368 478.237 473.007C475.007 484.56 465.059 476.878 465.059 471.442C465.059 466.007 463.494 421.76 463.494 421.76L435.554 398.473L305.902 385.275L319.923 308.515Z" fill="#FFBE9D"/>
<path d="M348.856 389.648C347.721 389.723 346.581 389.723 345.446 389.648L336.22 389.026C326.03 388.463 315.878 387.339 305.812 385.656C300.279 384.63 294.833 383.175 289.526 381.304C287.099 380.361 284.772 379.498 282.706 378.455C280.64 377.412 278.695 376.45 277.01 375.507C275.325 374.564 273.841 373.501 272.517 372.699C271.393 371.982 270.308 371.206 269.268 370.372C268.336 369.729 267.464 369.004 266.66 368.206C267.659 368.741 268.612 369.358 269.508 370.051C270.411 370.653 271.514 371.455 272.838 372.218C274.162 372.98 275.606 374.023 277.371 374.865C279.136 375.708 280.961 376.871 283.067 377.673C285.173 378.476 287.44 379.498 289.847 380.401C295.128 382.194 300.531 383.608 306.013 384.633C317.707 386.779 328.497 387.501 336.28 388.284C340.171 388.665 343.32 388.966 345.486 389.246C346.619 389.278 347.747 389.412 348.856 389.648Z" fill="#EB996E"/>
<path d="M299.484 384.854C297.714 385.518 295.855 385.917 293.968 386.037C284.84 387.075 275.604 385.554 267.291 381.645C265.545 380.916 263.911 379.943 262.438 378.757C262.438 378.596 264.443 379.639 267.592 380.963C271.739 382.672 276.066 383.91 280.489 384.653C284.916 385.38 289.412 385.596 293.888 385.295C297.358 385.075 299.484 384.734 299.484 384.854Z" fill="#EB996E"/>
<path d="M462.699 421.659C460.776 420.46 458.946 419.119 457.223 417.648C453.914 415.04 449.401 411.41 444.467 407.278C442.066 405.376 439.958 403.133 438.209 400.619C436.768 398.52 435.878 396.092 435.621 393.559C435.442 391.85 435.675 390.123 436.303 388.524C436.496 387.928 436.826 387.385 437.266 386.94C436.401 388.997 436.09 391.244 436.363 393.458C436.695 395.844 437.597 398.114 438.991 400.077C440.752 402.472 442.815 404.629 445.129 406.496C450.043 410.507 454.515 414.338 457.685 417.086C459.475 418.474 461.152 420.004 462.699 421.659Z" fill="#EB996E"/>
<path d="M493.825 399.897C494.419 399.985 494.995 400.168 495.53 400.438C496.613 400.839 498.138 401.481 499.983 402.444C502.17 403.488 504.229 404.78 506.121 406.295C508.484 408.167 510.35 410.592 511.556 413.355C512.694 416.123 513.333 419.07 513.442 422.06C513.565 424.459 513.565 426.862 513.442 429.261C513.41 431.464 513.229 433.662 512.9 435.84C512.628 433.651 512.56 431.442 512.7 429.241C512.7 425.229 513.061 419.413 510.694 413.777C509.547 411.162 507.802 408.854 505.599 407.037C503.785 405.509 501.823 404.166 499.742 403.026C496.052 401.1 493.765 400.057 493.825 399.897Z" fill="#EB996E"/>
<path d="M538.474 447.554C537.922 445.196 537.719 442.77 537.872 440.353C537.872 438.127 537.872 435.479 537.872 432.53C537.872 429.582 538.093 426.333 537.872 423.003C537.724 419.868 536.996 416.787 535.726 413.917C534.66 411.608 532.964 409.648 530.832 408.261C529.387 407.333 527.746 406.756 526.038 406.576C524.835 406.576 524.153 406.576 524.133 406.576C524.766 406.309 525.454 406.199 526.139 406.255C527.957 406.273 529.737 406.778 531.293 407.719C533.628 409.094 535.499 411.133 536.669 413.576C538.058 416.535 538.848 419.738 538.995 423.003C539.157 426.21 539.157 429.424 538.995 432.631C538.995 435.499 538.795 438.127 538.715 440.453C538.634 442.78 538.614 444.465 538.614 445.708C538.624 446.326 538.577 446.944 538.474 447.554Z" fill="#EB996E"/>
<path d="M548.943 407.018C548.8 406.955 548.665 406.874 548.542 406.777L547.439 406.015L543.187 403.006L527.402 391.653L473.246 352.301H473.407C463.378 349.312 452.667 346.283 441.535 343.054C407.899 333.567 377.351 325.383 355.288 318.985C344.276 315.856 335.411 313.188 329.213 311.343L322.173 309.137L320.368 308.555C320.152 308.5 319.943 308.419 319.746 308.314C319.966 308.33 320.182 308.377 320.388 308.455L322.233 308.936L329.334 310.942L355.408 318.283C377.472 324.421 408.059 332.504 441.656 341.991C452.788 345.14 463.538 348.269 473.527 351.278H473.627L527.482 390.911L543.388 402.785L547.539 405.914L548.602 406.757C548.725 406.832 548.839 406.919 548.943 407.018Z" fill="#EB996E"/>
</svg>
