<svg width="1000" height="1000" viewBox="0 0 1000 1000" fill="none" xmlns="http://www.w3.org/2000/svg">
<path d="M415.54 396.43C415.972 396.336 416.343 396.253 416.651 396.182L427.701 360.206C427.284 359.902 426.757 359.518 426.125 359.057C424.346 357.761 421.737 355.861 418.414 353.447C411.77 348.618 402.276 341.731 390.876 333.5C368.077 317.037 337.659 295.199 307.182 273.692C276.701 252.182 246.176 231.017 223.158 215.894C211.641 208.329 202.04 202.299 195.273 198.498C191.874 196.587 189.271 195.286 187.531 194.624C187.336 194.55 187.16 194.487 187.002 194.434C186.983 195.546 187.114 196.923 187.426 198.58C187.884 201.017 188.708 203.924 189.878 207.252C192.217 213.906 195.887 222.091 200.593 231.305C210.001 249.724 223.465 272.088 238.441 294.239C253.416 316.39 269.873 338.283 285.254 355.768C292.945 364.511 300.346 372.129 307.141 378.119C313.96 384.13 320.067 388.411 325.17 390.591C346.347 399.639 369.464 400.999 387.378 400.061C396.319 399.592 403.926 398.554 409.292 397.634C411.975 397.174 414.095 396.744 415.54 396.43ZM185.922 194.171C185.922 194.171 185.928 194.172 185.939 194.171C185.927 194.171 185.921 194.171 185.922 194.171ZM187.134 192.998C187.134 192.996 187.135 192.993 187.135 192.991L187.135 192.993C187.135 192.995 187.134 192.997 187.134 192.998Z" fill="#E9E9E9" stroke="#363A5A" stroke-width="4"/>
<path opacity="0.1" d="M423.207 373.528C423.207 373.528 381.776 398.489 343.344 385.685C304.913 372.881 234.56 277.842 209.423 220.47C209.423 220.47 243.952 239.058 269.521 271.45C295.09 303.842 311.305 328.156 335.168 341.783C359.031 355.411 423.207 373.528 423.207 373.528Z" fill="#363A5A"/>
<path d="M703.853 729.391L705.833 729.102L701.909 729.846C701.908 729.846 701.907 729.846 701.906 729.846L701.906 729.846L701.906 729.846L701.906 729.845L701.905 729.842L701.901 729.824L701.883 729.75C701.874 729.711 701.861 729.659 701.846 729.596C701.836 729.554 701.824 729.506 701.812 729.454C701.748 729.193 701.653 728.807 701.527 728.314C701.276 727.327 700.903 725.914 700.422 724.213C699.457 720.806 698.06 716.268 696.323 711.712C694.579 707.135 692.527 702.633 690.276 699.247C689.151 697.554 688.022 696.21 686.915 695.279C685.865 694.395 684.928 693.959 684.101 693.849C684.085 693.87 684.064 693.897 684.04 693.933C683.797 694.282 683.499 694.996 683.248 696.225C682.754 698.644 682.585 702.299 682.703 706.906C682.939 716.07 684.293 728.448 686.006 740.933C687.718 753.401 689.778 765.907 691.412 775.301C692.229 779.997 692.938 783.912 693.444 786.653C693.618 787.601 693.769 788.409 693.891 789.059C727.713 783.46 761.832 759.242 771.055 723.828C773.327 715.107 771.96 704.088 768.087 692.277C764.227 680.51 757.953 668.181 750.694 656.961C743.434 645.74 735.237 635.702 727.58 628.496C723.749 624.891 720.094 622.034 716.795 620.088C713.461 618.122 710.669 617.195 708.52 617.195C706.95 617.195 705.413 618.182 703.978 621.008C702.545 623.83 701.482 628.026 700.773 633.305C699.361 643.819 699.436 657.942 700.184 672.188C700.931 686.407 702.343 700.637 703.57 711.32C704.183 716.66 704.749 721.109 705.162 724.222C705.368 725.778 705.536 727 705.652 727.832C705.71 728.248 705.756 728.567 705.786 728.781L705.821 729.023L705.83 729.083L705.832 729.098L705.832 729.102C705.832 729.102 705.833 729.102 703.853 729.391Z" fill="#E9E9E9" stroke="#363A5A" stroke-width="4"/>
<path d="M400.617 821.665C400.603 823.665 400.603 823.665 400.602 823.665L400.599 823.665L400.586 823.665L400.532 823.665L400.313 823.664C400.12 823.663 399.831 823.663 399.454 823.663C398.7 823.664 397.591 823.669 396.179 823.685C393.355 823.716 389.317 823.79 384.471 823.96C374.773 824.301 361.861 825.026 348.964 826.565C336.037 828.108 323.255 830.453 313.754 833.987C308.998 835.757 305.2 837.775 302.624 840.036C300.076 842.273 298.85 844.621 298.852 847.154V847.155C298.852 847.263 298.895 847.818 300.476 848.61C301.986 849.367 304.353 850.039 307.588 850.598C314.018 851.711 323.252 852.282 334.345 852.585C344.568 852.864 356.275 852.913 368.68 852.965C369.709 852.969 370.743 852.973 371.781 852.978C385.323 853.036 399.593 853.121 413.538 853.529C413.538 853.529 413.538 853.529 413.538 853.529L413.479 855.528M400.617 821.665L497.655 834.83L498.362 832.959M400.617 821.665C402.03 820.25 402.029 820.249 402.029 820.249L402.026 820.246L402.013 820.233L401.96 820.18C401.913 820.132 401.842 820.061 401.748 819.966C401.559 819.776 401.279 819.492 400.915 819.12C400.185 818.375 399.117 817.275 397.766 815.86C395.065 813.029 391.235 808.936 386.728 803.898C377.71 793.818 366.002 779.973 355.206 764.886C344.396 749.778 334.575 733.527 329.251 718.626C323.897 703.641 323.282 690.589 329.946 681.323C334.399 675.135 343.113 671.905 354.879 671.136C366.557 670.373 380.736 672.074 395.414 675.197C424.767 681.443 455.627 693.27 471.499 701.724M400.617 821.665L402.03 820.25L405.486 823.699L400.603 823.665L400.617 821.665ZM400.617 821.665L497.655 834.83M413.479 855.528C432.973 856.094 451.546 857.417 467.553 858.556C494.762 860.494 514.556 861.903 518.852 858.175C530.774 847.835 507.672 836.872 500.433 833.801C500.222 833.991 500.051 834.142 499.923 834.253C499.838 834.327 499.773 834.384 499.727 834.423L499.674 834.468L499.659 834.481L499.655 834.485C499.653 834.486 499.652 834.487 498.362 832.959M413.479 855.528C398.494 855.09 383.124 855.025 368.664 854.965C329.409 854.8 296.852 854.664 296.852 847.155M413.479 855.528L296.852 847.155M498.362 832.959C497.071 831.431 497.071 831.432 497.071 831.432L494.471 833.628L497.655 834.83M498.362 832.959L497.071 831.431L497.072 831.431L497.081 831.423L497.121 831.389C497.158 831.357 497.214 831.308 497.29 831.242C497.441 831.11 497.668 830.909 497.962 830.643C498.549 830.11 499.404 829.314 500.455 828.278C502.56 826.204 505.449 823.168 508.572 819.34C514.833 811.666 521.96 800.896 525.644 788.366C529.314 775.881 529.568 761.665 522.136 746.92C514.682 732.131 499.383 716.585 471.499 701.724M498.362 832.959C499.068 831.088 499.069 831.088 499.069 831.089L499.071 831.089L499.078 831.092L499.1 831.1L499.18 831.131C499.25 831.158 499.351 831.197 499.48 831.248C499.626 831.306 499.807 831.378 500.022 831.465L497.655 834.83M498.362 832.959C497.655 834.83 497.655 834.83 497.655 834.83M471.499 701.724L472.439 699.961L471.5 701.725C471.5 701.724 471.5 701.724 471.499 701.724ZM296.852 847.155C296.834 823.513 381.245 821.782 397.814 821.67L296.852 847.155Z" fill="#E9E9E9" stroke="#363A5A" stroke-width="4"/>
<path d="M548.008 571.352L418.341 467.187C418.293 468.918 418.227 471.158 418.139 473.817C417.918 480.457 417.561 489.709 417.014 500.155C415.92 521.024 414.063 546.741 411.006 565.921L411.006 565.922C405.626 599.637 392.316 629.796 381.225 654.635L380.653 655.916C375.321 667.856 370.575 678.483 367.472 687.729C364.24 697.357 362.927 705.117 364.331 711.09L364.331 711.091C367.702 725.457 375.998 740.266 386.927 754.567C397.843 768.852 411.302 782.522 424.86 794.606C438.413 806.686 452.034 817.153 463.248 825.033C474.509 832.946 483.226 838.167 486.997 839.836L486.999 839.837C506.532 848.497 538.908 853.391 571.933 853.636C604.96 853.88 638.185 849.47 659.441 839.843L659.442 839.843C686.199 827.744 705.152 798.687 716.202 770.321C721.708 756.186 725.201 742.35 726.711 731.105C727.466 725.48 727.719 720.547 727.496 716.575C727.269 712.534 726.561 709.739 725.603 708.185C720.252 699.533 710.143 690.804 697.417 682.292C684.734 673.809 669.655 665.671 654.578 658.141C644.266 652.989 634 648.144 624.519 643.669C620.132 641.598 615.912 639.606 611.934 637.7C599.468 631.728 589.222 626.533 583.943 622.442C573.487 614.34 564.448 601.378 558.072 590.6C554.868 585.185 552.306 580.268 550.544 576.703C549.662 574.921 548.98 573.474 548.517 572.471C548.297 571.994 548.127 571.617 548.008 571.352Z" fill="#E9E9E9" stroke="#363A5A" stroke-width="4"/>
<path d="M357.423 704.959C358.658 693.626 381.501 647.783 390.089 628.332C395.199 617.239 399.402 605.75 402.658 593.979C402.658 593.685 403.168 593.822 403.089 594.116C400.645 604.268 397.68 614.288 394.207 624.136C389.207 637.861 360.874 697.979 360.168 707.136C359.658 714.508 361.874 729.214 364.403 734.744C364.44 734.809 364.449 734.885 364.428 734.957C364.408 735.029 364.36 735.089 364.295 735.126C364.23 735.162 364.154 735.171 364.082 735.151C364.01 735.131 363.949 735.083 363.913 735.018C358.937 725.819 356.685 715.392 357.423 704.959Z" fill="#363A5A"/>
<path d="M362.246 708.313C363.587 715.295 365.953 722.041 369.266 728.332C372.778 734.697 376.909 740.7 381.599 746.254C391.246 758.254 400.697 769.293 411.422 780.313C423.089 792.313 436.795 803.842 449.285 815.058C460.679 825.13 473.657 833.253 487.697 839.097C503.19 845.444 519.153 850.577 535.442 854.45C535.736 854.45 535.599 854.979 535.305 854.92C520.462 851.528 505.422 848.744 491.011 843.803C476.553 839.048 463.098 831.663 451.324 822.019C438.266 811.097 424.579 798.901 412.501 786.921C401.238 775.864 390.632 764.157 380.736 751.862C370.932 739.509 362.442 724.509 361.756 708.372C361.763 708.316 361.789 708.264 361.829 708.224C361.87 708.184 361.922 708.159 361.978 708.152C362.034 708.145 362.091 708.158 362.14 708.187C362.188 708.216 362.225 708.26 362.246 708.313Z" fill="#363A5A"/>
<path d="M729.479 723.508C729.479 723.331 729.773 723.39 729.773 723.508C729.44 745.351 724.401 767.547 712.126 785.841C711.97 786.057 711.597 785.841 711.695 785.645C718.695 765.312 725.793 744.841 729.479 723.508Z" fill="#363A5A"/>
<path d="M697.758 677.47C703.109 679.973 707.99 683.375 712.189 687.529C714.15 689.489 716.111 691.705 718.072 693.862C720.033 696.019 721.797 698.725 723.719 701.097C723.741 701.12 723.758 701.148 723.769 701.178C723.781 701.207 723.786 701.239 723.785 701.271C723.784 701.303 723.777 701.334 723.764 701.363C723.751 701.392 723.732 701.419 723.709 701.44C723.686 701.462 723.659 701.479 723.629 701.491C723.599 701.502 723.567 701.508 723.536 701.507C723.504 701.506 723.472 701.499 723.443 701.486C723.414 701.472 723.388 701.454 723.366 701.431C721.405 699.47 718.974 697.627 716.817 695.725C714.66 693.823 712.288 691.803 710.013 689.94C705.549 686.202 701.386 682.117 697.562 677.725C697.528 677.699 697.506 677.66 697.501 677.618C697.495 677.576 697.507 677.533 697.533 677.499C697.559 677.466 697.597 677.443 697.639 677.438C697.682 677.432 697.724 677.444 697.758 677.47Z" fill="#363A5A"/>
<mask id="path-10-inside-1_126_4168" fill="white">
<path d="M568.125 648.253C568.125 648.253 547.007 687.077 519.949 684.959C492.89 682.842 455.556 635.94 455.556 635.94C455.556 635.94 458.772 650.194 453.066 651.626C447.36 653.057 431.615 636.195 430.537 627.195C429.459 618.195 442.145 599.351 456.792 604.057C471.439 608.763 503.556 618.41 506.125 617.783C513.968 616.057 526.027 594.391 526.027 594.391"/>
</mask>
<path d="M568.125 648.253C568.125 648.253 547.007 687.077 519.949 684.959C492.89 682.842 455.556 635.94 455.556 635.94C455.556 635.94 458.772 650.194 453.066 651.626C447.36 653.057 431.615 636.195 430.537 627.195C429.459 618.195 442.145 599.351 456.792 604.057C471.439 608.763 503.556 618.41 506.125 617.783C513.968 616.057 526.027 594.391 526.027 594.391" fill="#E9E9E9"/>
<path d="M563.733 645.864C565.052 643.438 568.088 642.542 570.514 643.861C572.94 645.181 573.837 648.217 572.517 650.642L563.733 645.864ZM455.556 635.94L450.679 637.04L459.468 632.826L455.556 635.94ZM506.125 617.783L504.939 612.926L504.995 612.912L505.051 612.9L506.125 617.783ZM521.658 591.959C523.001 589.546 526.046 588.679 528.459 590.022C530.871 591.365 531.739 594.409 530.396 596.822L521.658 591.959ZM568.125 648.253C572.517 650.642 572.517 650.644 572.516 650.645C572.515 650.646 572.514 650.648 572.514 650.649C572.512 650.652 572.51 650.655 572.508 650.659C572.504 650.667 572.498 650.677 572.491 650.69C572.477 650.715 572.458 650.75 572.434 650.793C572.386 650.88 572.317 651.003 572.228 651.159C572.051 651.471 571.794 651.917 571.46 652.477C570.792 653.597 569.817 655.177 568.564 657.058C566.065 660.81 562.422 665.817 557.868 670.781C549.023 680.421 535.548 691.195 519.558 689.944L520.339 679.974C531.408 680.841 542.021 673.262 550.499 664.02C554.607 659.543 557.935 654.976 560.241 651.514C561.391 649.789 562.277 648.353 562.87 647.357C563.166 646.86 563.389 646.474 563.534 646.219C563.607 646.091 563.66 645.996 563.693 645.936C563.71 645.906 563.721 645.885 563.728 645.873C563.731 645.867 563.733 645.863 563.734 645.862C563.735 645.861 563.735 645.861 563.734 645.861C563.734 645.861 563.734 645.862 563.734 645.862C563.733 645.863 563.733 645.864 568.125 648.253ZM519.558 689.944C511.58 689.319 503.34 685.479 495.769 680.613C488.109 675.69 480.656 669.404 474.175 663.293C467.678 657.166 462.059 651.122 458.069 646.616C456.072 644.36 454.476 642.482 453.375 641.163C452.824 640.503 452.397 639.982 452.105 639.623C451.959 639.444 451.846 639.305 451.769 639.209C451.73 639.161 451.701 639.124 451.68 639.098C451.669 639.085 451.661 639.075 451.655 639.067C451.652 639.063 451.65 639.06 451.648 639.058C451.647 639.057 451.646 639.056 451.646 639.055C451.645 639.054 451.644 639.054 455.556 635.94C459.468 632.826 459.468 632.825 459.468 632.825C459.468 632.825 459.468 632.825 459.468 632.825C459.469 632.826 459.47 632.827 459.471 632.829C459.474 632.833 459.48 632.84 459.487 632.849C459.503 632.869 459.527 632.899 459.56 632.94C459.626 633.021 459.726 633.146 459.86 633.31C460.128 633.64 460.529 634.129 461.052 634.755C462.099 636.009 463.631 637.812 465.556 639.986C469.412 644.341 474.817 650.154 481.036 656.017C487.27 661.896 494.225 667.733 501.175 672.2C508.214 676.724 514.788 679.54 520.339 679.974L519.558 689.944ZM455.556 635.94C460.434 634.839 460.434 634.84 460.434 634.841C460.434 634.842 460.435 634.843 460.435 634.844C460.435 634.846 460.436 634.847 460.436 634.85C460.437 634.854 460.438 634.859 460.44 634.865C460.442 634.877 460.446 634.893 460.45 634.912C460.458 634.95 460.469 635.001 460.483 635.065C460.51 635.193 460.547 635.372 460.591 635.595C460.678 636.04 460.792 636.666 460.91 637.417C461.142 638.902 461.397 640.96 461.45 643.125C461.5 645.21 461.377 647.787 460.617 650.12C459.851 652.469 458.074 655.525 454.283 656.476L451.85 646.776C450.912 647.011 450.872 647.748 451.108 647.022C451.35 646.28 451.493 645.025 451.453 643.367C451.414 641.789 451.222 640.195 451.03 638.961C450.935 638.354 450.843 637.855 450.776 637.515C450.743 637.345 450.717 637.216 450.699 637.135C450.691 637.094 450.685 637.065 450.681 637.049C450.679 637.041 450.678 637.036 450.678 637.035C450.678 637.034 450.678 637.034 450.678 637.035C450.678 637.035 450.678 637.036 450.678 637.037C450.678 637.037 450.679 637.038 450.679 637.038C450.679 637.039 450.679 637.04 455.556 635.94ZM454.283 656.476C452.236 656.989 450.29 656.577 448.856 656.077C447.356 655.553 445.887 654.746 444.53 653.847C441.806 652.043 438.97 649.494 436.399 646.721C433.814 643.932 431.353 640.759 429.437 637.607C427.586 634.562 425.968 631.093 425.572 627.789L435.501 626.6C435.645 627.796 436.4 629.81 437.982 632.413C439.5 634.909 441.534 637.551 443.733 639.923C445.947 642.312 448.184 644.273 450.051 645.509C450.989 646.13 451.695 646.476 452.152 646.636C452.676 646.819 452.47 646.62 451.85 646.776L454.283 656.476ZM425.572 627.789C425.159 624.335 426.077 620.542 427.528 617.153C429.019 613.67 431.275 610.133 434.102 607.086C439.638 601.117 448.383 596.104 458.321 599.297L455.262 608.818C450.553 607.305 445.632 609.36 441.433 613.887C439.392 616.087 437.763 618.654 436.721 621.088C435.639 623.617 435.376 625.554 435.501 626.6L425.572 627.789ZM458.321 599.297C465.598 601.635 477.239 605.208 487.367 608.114C492.437 609.569 497.081 610.843 500.592 611.711C502.357 612.147 503.768 612.463 504.777 612.649C505.287 612.744 505.617 612.79 505.798 612.808C506.191 612.846 505.694 612.741 504.939 612.926L507.312 622.64C506.235 622.903 505.186 622.796 504.82 622.76C504.241 622.703 503.602 622.602 502.96 622.483C501.664 622.243 500.03 621.872 498.194 621.419C494.503 620.507 489.72 619.193 484.609 617.726C474.374 614.789 462.633 611.186 455.262 608.818L458.321 599.297ZM505.051 612.9C505.474 612.806 506.814 612.097 508.976 609.896C510.945 607.892 513.013 605.262 514.939 602.547C516.848 599.855 518.535 597.197 519.749 595.203C520.355 594.209 520.837 593.388 521.167 592.819C521.331 592.535 521.457 592.315 521.54 592.168C521.582 592.094 521.613 592.039 521.633 592.004C521.643 591.987 521.65 591.974 521.654 591.966C521.656 591.963 521.658 591.96 521.658 591.959C521.659 591.958 521.659 591.958 521.659 591.958C521.659 591.958 521.659 591.958 521.659 591.958C521.658 591.959 521.658 591.959 526.027 594.391C530.396 596.822 530.396 596.823 530.395 596.823C530.395 596.824 530.395 596.825 530.394 596.825C530.393 596.827 530.393 596.828 530.391 596.83C530.389 596.834 530.386 596.84 530.382 596.846C530.375 596.86 530.365 596.878 530.352 596.901C530.325 596.948 530.288 597.015 530.239 597.101C530.142 597.272 530.001 597.519 529.82 597.831C529.459 598.454 528.939 599.339 528.291 600.403C526.999 602.525 525.181 605.392 523.095 608.332C521.026 611.249 518.609 614.36 516.111 616.903C513.806 619.25 510.698 621.896 507.199 622.666L505.051 612.9Z" fill="#363A5A" mask="url(#path-10-inside-1_126_4168)"/>
<path d="M399.233 601.661L399.753 602.393C400.21 603.036 400.864 603.303 401.396 603.379C401.877 603.449 402.315 603.378 402.618 603.308C403.228 603.166 403.888 602.878 404.474 602.597C405.039 602.327 405.672 601.996 406.314 601.66C406.37 601.631 406.426 601.602 406.482 601.572C407.196 601.199 407.938 600.814 408.702 600.447C410.254 599.703 411.765 599.103 413.097 598.874C414.424 598.645 415.279 598.831 415.85 599.271C416.633 599.873 417.643 601.324 418.691 603.591C419.701 605.775 420.628 608.451 421.37 611.191C422.11 613.929 422.65 616.674 422.907 618.986C423.177 621.413 423.091 623.021 422.85 623.708C422.546 624.573 421.61 626.185 420.168 628.188C418.768 630.135 417.009 632.287 415.21 634.196C413.39 636.127 411.617 637.716 410.188 638.618C409.5 639.053 409.019 639.246 408.736 639.307C408.373 638.854 408.056 638.16 407.83 637.207C407.578 636.142 407.479 634.921 407.472 633.723C407.465 632.535 407.549 631.429 407.636 630.617C407.68 630.213 407.723 629.886 407.755 629.664C407.771 629.553 407.784 629.468 407.793 629.414L407.803 629.354L407.805 629.342L407.805 629.342L407.805 629.342L407.805 629.341L407.805 629.341L409.103 621.891L399.233 601.661ZM399.233 601.661L399.434 600.787L403.71 582.182M399.233 601.661L403.71 582.182M403.71 582.182C403.642 582.226 403.573 582.27 403.504 582.315C400.909 583.989 397.406 586.34 393.761 589.052C390.111 591.769 386.354 594.823 383.234 597.902C380.076 601.018 377.735 604.002 376.711 606.565C374.532 612.017 374.284 619.345 375.642 626.012C377.018 632.768 379.906 638.215 383.38 640.431C384.707 641.276 386.479 641.311 388.791 640.438C391.094 639.568 393.58 637.916 395.932 636C398.262 634.101 400.357 632.03 401.876 630.422C402.634 629.621 403.242 628.941 403.66 628.464C403.869 628.226 404.029 628.038 404.136 627.912C404.19 627.849 404.23 627.801 404.256 627.769L404.284 627.735L404.291 627.728L404.291 627.727L404.292 627.727L403.71 582.182ZM401.69 599.416C401.69 599.416 401.694 599.416 401.702 599.414C401.694 599.415 401.69 599.416 401.69 599.416Z" fill="#E9E9E9" stroke="#363A5A" stroke-width="4"/>
<path d="M570.442 836.685C571.744 835.167 571.744 835.167 571.744 835.167L571.74 835.164L571.727 835.152L571.67 835.103C571.619 835.059 571.543 834.993 571.442 834.906C571.24 834.73 570.939 834.469 570.548 834.125C569.764 833.437 568.616 832.42 567.162 831.11C564.255 828.49 560.128 824.697 555.254 820.012C545.503 810.638 532.784 797.713 520.883 783.481C508.965 769.228 497.949 753.762 491.518 739.304C485.05 724.765 483.455 711.799 489.404 702.061L489.405 702.059C493.367 695.552 501.804 691.674 513.474 690.021C525.058 688.38 539.325 689.008 554.199 691.018C583.944 695.036 615.624 704.508 632.107 711.751C661.031 724.477 677.457 738.83 686.002 753.017C694.521 767.161 695.336 781.355 692.614 794.078C689.881 806.847 683.583 818.121 677.916 826.242C675.089 830.293 672.435 833.536 670.492 835.762C669.521 836.874 668.729 837.731 668.183 838.307C667.911 838.594 667.699 838.812 667.558 838.955C667.488 839.027 667.435 839.08 667.4 839.114L667.363 839.151L667.355 839.159L667.354 839.16L667.354 839.161L664.926 841.546L668.191 842.506L668.191 842.506L668.195 842.507L668.21 842.511L668.279 842.532C668.341 842.551 668.434 842.579 668.557 842.617C668.803 842.694 669.166 842.808 669.626 842.96C670.546 843.263 671.849 843.711 673.375 844.29C676.438 845.453 680.339 847.121 683.811 849.168C687.356 851.257 690.136 853.561 691.344 855.873C691.918 856.971 692.106 858.011 691.917 859.045C691.724 860.097 691.101 861.358 689.668 862.807C689.269 863.21 688.293 863.747 686.389 864.248C684.558 864.73 682.139 865.113 679.156 865.411C673.194 866.007 665.243 866.238 655.767 866.344C650.887 866.399 645.612 866.421 640.017 866.444C623.954 866.511 605.258 866.588 585.722 867.491C571.788 868.134 557.552 869.123 544.043 870.081C543.035 870.153 542.03 870.225 541.029 870.296C528.626 871.178 516.92 872.01 506.682 872.501C495.596 873.033 486.343 873.157 479.845 872.533C476.576 872.219 474.163 871.728 472.599 871.089C470.969 870.422 470.877 869.876 470.868 869.769C470.676 867.241 471.724 864.805 474.098 862.382C476.498 859.932 480.134 857.632 484.745 855.509C493.954 851.268 506.525 847.967 519.301 845.456C532.046 842.951 544.868 841.256 554.514 840.188C559.334 839.653 563.355 839.276 566.169 839.033C567.576 838.911 568.681 838.823 569.433 838.765C569.809 838.736 570.097 838.715 570.29 838.701L570.507 838.685L570.562 838.682L570.575 838.681L570.578 838.68C570.578 838.68 570.578 838.68 570.442 836.685ZM570.442 836.685L571.744 835.167L575.451 838.347L570.578 838.68L570.442 836.685Z" fill="#E9E9E9" stroke="#363A5A" stroke-width="4"/>
<path d="M476.952 695.489C495.168 685.038 516.168 682.43 536.874 684.077C559.048 686.049 580.908 690.657 601.991 697.802C613.933 701.572 625.617 706.111 636.972 711.391C637.039 711.419 637.093 711.474 637.12 711.542C637.148 711.61 637.147 711.686 637.119 711.753C637.09 711.821 637.036 711.875 636.968 711.902C636.9 711.93 636.824 711.929 636.756 711.9C626.325 708.312 615.952 704.665 605.383 701.724C594.815 698.783 583.972 696.332 573.148 694.155C552.854 690.057 531.697 687.057 510.952 688.391C499.351 688.854 487.921 691.356 477.188 695.783C477.149 695.814 477.099 695.829 477.049 695.823C476.999 695.817 476.954 695.792 476.923 695.753C476.892 695.714 476.877 695.665 476.883 695.615C476.888 695.565 476.913 695.52 476.952 695.489Z" fill="#363A5A"/>
<path d="M466.011 711.176C471.038 704.867 477.544 699.897 484.952 696.705C492.501 693.572 500.519 691.716 508.678 691.215C508.952 691.215 508.991 691.627 508.678 691.685C500.947 693.367 493.405 695.824 486.168 699.019C478.943 702.1 472.257 706.316 466.364 711.509C466.207 711.607 465.835 711.332 466.011 711.176Z" fill="#363A5A"/>
<path d="M475.208 858.331C478.491 855.327 482.157 852.769 486.11 850.723C490.018 848.805 494.077 847.212 498.247 845.958C507.433 843.271 516.787 841.195 526.247 839.743C540.593 837.458 555.077 836.148 569.6 835.821C551.149 821.121 534.048 804.801 518.502 787.057C504.09 770.939 490.855 752.723 484.815 731.723C481.992 721.919 481.482 709.116 488.482 700.821C488.619 700.665 488.835 700.821 488.737 701.037C486.251 705.472 484.973 710.482 485.031 715.566C485.202 720.506 486.04 725.4 487.521 730.115C490.696 740.127 495.32 749.62 501.247 758.292C513.149 776.39 528.423 792.331 543.384 807.919C552.306 817.233 561.384 826.429 570.345 835.723C575.6 835.606 580.835 835.586 586.031 835.723C597.345 835.978 608.521 837.37 619.737 838.566C620.051 838.566 620.031 839.057 619.737 839.037C609.951 838.313 600.133 838.11 590.325 838.429C580.521 838.586 570.717 838.978 560.913 839.821C541.622 841.361 522.48 844.396 503.659 848.9C498.953 850.05 494.306 851.423 489.717 853.017C484.84 854.607 480.093 856.573 475.521 858.9C475.364 859.096 474.894 858.606 475.208 858.331Z" fill="#363A5A"/>
<path d="M466.383 869.214C470.111 865.375 474.589 862.344 479.54 860.312C484.538 858.336 489.851 857.273 495.226 857.175C495.273 857.175 495.318 857.193 495.351 857.227C495.384 857.26 495.402 857.304 495.402 857.351C495.402 857.398 495.384 857.443 495.351 857.476C495.318 857.509 495.273 857.528 495.226 857.528C490.122 858.554 485.145 860.132 480.383 862.234C475.631 864.259 471.098 866.762 466.853 869.704C466.54 869.998 466.069 869.547 466.383 869.214Z" fill="#363A5A"/>
<path d="M471.562 875.136C475.279 871.284 479.76 868.252 484.719 866.234C489.715 864.249 495.03 863.186 500.405 863.097C500.44 863.109 500.47 863.131 500.491 863.161C500.512 863.191 500.523 863.227 500.523 863.263C500.523 863.3 500.512 863.336 500.491 863.366C500.47 863.395 500.44 863.418 500.405 863.43C495.301 864.463 490.324 866.048 485.562 868.155C480.809 870.177 476.275 872.68 472.032 875.626C471.719 875.881 471.248 875.45 471.562 875.136Z" fill="#363A5A"/>
<path d="M668.582 840.783C681.464 825.312 693.543 808.018 698.111 788.097C698.111 787.94 698.386 787.999 698.366 788.097C696.991 798.418 693.924 808.441 689.288 817.763C686.846 822.333 683.899 826.615 680.503 830.528C678.876 832.489 677.17 834.312 675.366 836.077C673.37 837.928 671.211 839.595 668.915 841.058C668.719 841.254 668.386 841.018 668.582 840.783Z" fill="#363A5A"/>
<path d="M464.296 366.404C464.75 367.038 465.129 367.566 465.43 367.985L501.5 357.099C501.573 356.792 501.66 356.421 501.757 355.989C502.082 354.549 502.529 352.435 503.009 349.76C503.971 344.408 505.068 336.819 505.606 327.891C506.682 310.005 505.502 286.897 496.617 265.653C494.476 260.534 490.242 254.394 484.284 247.529C478.346 240.688 470.786 233.228 462.103 225.469C444.737 209.953 422.972 193.327 400.937 178.182C378.902 163.036 356.642 149.401 338.297 139.856C329.12 135.081 320.963 131.351 314.327 128.964C311.009 127.771 308.108 126.927 305.674 126.452C304.018 126.128 302.64 125.988 301.528 126.001C301.581 126.163 301.644 126.345 301.719 126.548C302.368 128.297 303.65 130.913 305.534 134.33C309.284 141.131 315.239 150.783 322.716 162.36C337.66 185.5 358.588 216.186 379.86 246.829C401.129 277.468 422.73 308.047 439.014 330.968C447.156 342.428 453.969 351.973 458.746 358.653C461.134 361.992 463.014 364.616 464.296 366.404ZM301.276 124.943C301.277 124.932 301.277 124.926 301.277 124.926C301.276 124.926 301.276 124.931 301.276 124.943Z" fill="#E9E9E9" stroke="#363A5A" stroke-width="4"/>
<path opacity="0.1" d="M478.736 358.371L492.854 354.155C492.854 354.155 502.658 297.45 485.795 266.332C468.932 235.214 383.834 171.705 322.56 143.587C322.56 143.587 342.658 175.901 358.187 189.606C381.716 210.391 425.579 230.097 445.599 267.606C465.618 305.116 478.736 358.371 478.736 358.371Z" fill="#363A5A"/>
<path d="M445.659 276.783C448.953 283.371 451.718 290.195 454.424 297.058C462.522 317.489 469.365 338.371 477.777 358.685C477.83 358.797 477.922 358.885 478.036 358.933C478.15 358.982 478.277 358.987 478.395 358.949C478.512 358.911 478.612 358.831 478.675 358.725C478.738 358.618 478.76 358.493 478.738 358.371C476.169 348.568 473.287 338.94 470.287 329.313C467.385 320.019 464.757 310.646 461.679 301.391C455.914 283.999 448.443 266.666 436.718 252.372C425.64 238.783 411.542 228.077 397.502 217.587C382.875 206.974 368.987 195.379 355.934 182.881C348.777 175.862 341.993 168.489 335.561 160.842C329.09 153.004 323.092 144.787 317.6 136.234C317.189 135.646 316.346 136.234 316.64 136.842C320.668 144.797 325.255 152.457 330.365 159.764C335.445 167.106 340.992 174.114 346.973 180.744C359.104 193.931 372.487 205.909 386.934 216.509C400.914 227.058 415.424 237.234 427.365 250.038C433.455 256.653 438.722 263.981 443.051 271.862C443.953 273.489 444.816 275.136 445.64 276.783" fill="#363A5A"/>
<path d="M589.369 571.496L589.37 571.496C608.141 562.854 631.062 543.26 647.79 517.831C664.507 492.419 674.87 461.443 668.985 430.034C667.135 420.169 661.595 411.891 653.895 403.509C650.046 399.319 645.697 395.144 641.044 390.746C640.38 390.118 639.709 389.486 639.034 388.848C634.991 385.034 630.757 381.04 626.512 376.761C625.198 375.437 623.886 374.11 622.574 372.783C601.313 351.279 580.089 329.814 552.585 321.762C514.085 310.518 481.711 312.982 455.996 325.677C430.272 338.377 410.961 361.438 398.829 391.858C385.565 425.132 383.329 460.705 388.106 490.964C392.896 521.312 404.674 545.944 419.039 557.665C441.019 575.585 471.252 584.749 502.268 586.554C533.276 588.358 564.85 582.793 589.369 571.496Z" fill="#E9E9E9" stroke="#363A5A" stroke-width="4"/>
<path d="M501.443 457.449C489.11 464.783 489.679 479.92 496.502 489.802C502.914 499.155 514.149 500.959 524.071 495.253C533.188 490.038 536.973 475.645 528.169 463.645C520.012 452.587 508.267 453.391 501.443 457.449Z" fill="#363A5A"/>
<path d="M603.734 405.116C595.616 412.391 598.656 426.999 605.518 436.489C611.989 445.43 620.812 447.018 627.42 441.371C633.459 436.195 633.871 422.156 625.126 410.763C617.028 400.175 608.224 401.116 603.734 405.116Z" fill="#363A5A"/>
<g opacity="0.2">
<path d="M492.424 499.685C488.81 500.515 485.546 502.455 483.09 505.234C483.048 505.284 483.021 505.345 483.013 505.41C483.005 505.475 483.016 505.541 483.046 505.599C483.075 505.658 483.121 505.706 483.177 505.739C483.234 505.772 483.299 505.787 483.365 505.783C485.933 505.606 491.914 502.155 492.816 500.469C493.012 500.175 492.776 499.645 492.424 499.685Z" fill="#363A5A"/>
<path d="M497.951 503.508C495.283 506.081 493.492 509.429 492.834 513.077C492.834 513.332 493.108 513.586 493.363 513.41C495.461 511.92 498.794 505.861 498.677 503.959C498.657 503.645 498.226 503.332 497.951 503.508Z" fill="#363A5A"/>
<path d="M503.756 505.469C502.925 508.332 503.049 511.388 504.109 514.175C504.129 514.226 504.165 514.269 504.21 514.3C504.255 514.331 504.309 514.347 504.364 514.347C504.419 514.347 504.472 514.331 504.518 514.3C504.563 514.269 504.599 514.226 504.619 514.175C505.453 511.332 505.405 508.303 504.482 505.488C504.325 505.292 503.874 505.292 503.756 505.469Z" fill="#363A5A"/>
</g>
<g opacity="0.2">
<path d="M637.914 423.528C640.339 421.155 643.444 419.599 646.797 419.077C647.032 419.077 647.267 419.332 647.091 419.567C644.685 421.938 641.638 423.553 638.326 424.214C638.11 424.175 637.718 423.783 637.914 423.528Z" fill="#363A5A"/>
<path d="M638.109 429.665C641.414 428.897 644.878 429.185 648.011 430.489C648.066 430.51 648.114 430.548 648.148 430.597C648.181 430.646 648.199 430.704 648.199 430.763C648.199 430.823 648.181 430.881 648.148 430.93C648.114 430.979 648.066 431.017 648.011 431.038C645.815 431.92 639.501 431.489 638.109 430.469C637.873 430.293 637.815 429.783 638.109 429.665Z" fill="#363A5A"/>
<path d="M636.754 435.116C639.364 435.91 641.652 437.517 643.284 439.704C643.308 439.746 643.32 439.793 643.32 439.841C643.32 439.889 643.308 439.936 643.284 439.978C643.26 440.019 643.226 440.054 643.185 440.078C643.143 440.103 643.096 440.116 643.048 440.116C640.447 439.353 638.142 437.814 636.44 435.704C636.342 435.469 636.499 435.077 636.754 435.116Z" fill="#363A5A"/>
</g>
<path d="M603.029 465.881C602.931 468.508 603.029 476.351 601.715 476.979C599.911 477.822 594.303 467.724 588.911 450.469C588.754 449.94 587.97 450.214 588.107 450.744C589.715 457.763 596.166 480.489 589.833 482.645C586.127 483.92 581.774 478.881 579.303 475.371C579.303 475.273 579.068 475.371 579.127 475.371C581.088 479.293 586.617 486.312 591.088 484.783C595.558 483.253 595.009 473.9 594.303 469.802C595.578 473.136 597.343 477.155 600.186 478.861C605.558 482.116 603.833 467.94 603.48 465.763C603.464 465.703 603.426 465.652 603.372 465.621C603.319 465.59 603.255 465.581 603.196 465.596C603.136 465.612 603.085 465.651 603.053 465.704C603.022 465.757 603.013 465.821 603.029 465.881Z" fill="#363A5A"/>
<path d="M590.284 457.156C587.637 457.94 574.284 456.862 574.46 455.784C574.872 453.411 596.029 444.117 597.853 444.999C599.676 445.882 591.519 456.784 590.284 457.156Z" fill="#363A5A"/>
<path d="M495.816 421.744C495.816 421.744 480.326 420.116 476.052 439.391L495.816 421.744Z" fill="#363A5A"/>
<path d="M603.48 378.98C603.48 378.98 593.343 367.215 576.931 378.274L603.48 378.98Z" fill="#363A5A"/>
<path d="M331.811 338.626C337.932 341.78 344.247 344.326 350.615 346.948C369.561 354.547 369.826 354.167 388.665 362.128C388.769 362.181 407.937 369.169 407.982 369.283C388.665 364.634 408.034 369.523 408 369.641C388.665 369.283 407.893 369.859 407.796 369.924C407.698 369.988 407.582 370.013 407.469 369.993C398.455 367.618 389.494 364.94 380.568 362.128C371.977 359.411 363.298 356.96 354.725 354.072C338.62 348.658 322.532 341.552 309.091 330.172C296.408 319.418 286.317 305.625 276.421 291.851C266.405 277.53 255.502 263.953 243.787 251.213C237.208 244.24 230.31 237.648 223.166 231.397C215.844 225.125 208.187 219.321 200.234 214.013C199.67 213.633 200.234 212.759 200.781 213.063C208.172 216.95 215.299 221.394 222.108 226.362C228.946 231.279 235.486 236.66 241.688 242.473C254.064 254.251 265.342 267.302 275.363 281.44C285.312 295.138 294.926 309.33 306.903 320.957C313.089 326.888 319.918 331.992 327.242 336.156C328.759 337.03 330.294 337.847 331.829 338.645" fill="#363A5A"/>
<path d="M597.813 524.901C596.029 528.254 590.303 536.823 588.303 536.274C586.774 535.842 588.087 528.548 588.166 528.234C588.244 527.921 587.715 527.391 587.421 527.823C582.421 534.882 576.931 540.666 567.068 541.215C566.852 541.215 566.813 541.587 567.068 541.646C574.068 543.607 582.342 538.96 586.283 532.607C585.754 535.587 585.793 538.627 587.479 538.98C590.813 539.685 597.107 529.607 598.146 525.019C598.154 524.997 598.157 524.974 598.156 524.951C598.155 524.927 598.149 524.905 598.139 524.884C598.129 524.863 598.115 524.844 598.098 524.828C598.08 524.813 598.06 524.801 598.038 524.793C598.016 524.786 597.993 524.782 597.97 524.783C597.947 524.785 597.924 524.79 597.903 524.801C597.882 524.811 597.864 524.825 597.848 524.842C597.833 524.859 597.821 524.879 597.813 524.901Z" fill="#363A5A"/>
</svg>
