<svg width="1000" height="1000" viewBox="0 0 1000 1000" fill="none" xmlns="http://www.w3.org/2000/svg">
<path d="M797.687 273.296C798.392 273.444 799.177 273.616 800.031 273.813C803.937 274.714 809.25 276.133 814.887 278.204C826.34 282.411 838.408 289.049 843.436 298.851C845.918 303.69 846.742 309.516 846.747 316.28C846.751 321.276 846.315 326.577 845.851 332.218C845.683 334.255 845.512 336.336 845.356 338.464C844.199 354.3 843.969 372.087 853.874 388.811C863.898 405.738 882.689 413.239 898.465 416.573C906.41 418.252 913.734 418.906 919.07 419.142C921.612 419.255 923.709 419.272 925.214 419.26V423.918C924.967 423.931 924.701 423.943 924.417 423.955C922.417 424.043 919.539 424.122 916.045 424.089C909.049 424.023 899.633 423.507 889.894 421.718C870.156 418.093 850.312 409.497 845.031 390.228C839.931 371.622 840.904 354.583 841.749 339.783C841.828 338.41 841.905 337.056 841.976 335.722C842.392 327.943 842.609 320.691 841.48 314.389C840.336 307.998 837.782 302.415 832.568 298.131C824.21 291.197 816.004 288.064 809.848 286.673C806.773 285.978 804.212 285.718 802.398 285.634C802.065 285.619 801.757 285.609 801.476 285.604L797.687 273.296Z" fill="#E0E0E0" stroke="#363A5A" stroke-width="5"/>
<path d="M651.501 731.178C651.949 730.761 652.438 730.305 652.963 729.814C655.667 727.284 659.32 723.836 663.115 720.166C666.909 716.498 670.852 712.6 674.133 709.173C677.377 705.784 680.079 702.747 681.295 700.84C682.495 698.956 684.386 694.901 686.53 689.891C688.693 684.836 691.164 678.686 693.531 672.522C695.898 666.358 698.165 660.167 699.921 655.029C701.659 649.943 702.941 645.757 703.276 643.681C704.535 635.883 706.162 613.202 707.025 597.818C707.469 589.889 705.15 575.91 702.779 563.879C701.586 557.826 700.367 552.203 699.447 547.993C699.373 547.655 699.302 547.327 699.232 547.008C698.867 545.337 698.56 543.934 698.334 542.864C698.221 542.327 698.13 541.882 698.062 541.533L698.698 541.064C699.569 540.421 700.814 539.503 702.314 538.399C705.312 536.191 709.325 533.241 713.383 530.274C717.441 527.305 721.542 524.321 724.717 522.043C726.305 520.904 727.656 519.945 728.653 519.254C729.153 518.908 729.555 518.635 729.851 518.442C729.952 518.376 730.03 518.326 730.088 518.29C730.195 518.302 730.343 518.327 730.533 518.37C731.046 518.484 731.765 518.707 732.64 519.066C734.387 519.784 736.673 521.014 739.07 522.903C743.848 526.67 749.06 533.049 751.326 543.23C753.086 551.137 754.931 557.109 756.35 561.703C756.835 563.275 757.271 564.685 757.637 565.957C759.107 571.074 759.321 573.614 757.968 575.847C757.476 576.659 756.658 578.399 755.627 580.739C754.579 583.119 753.271 586.215 751.788 589.816C748.82 597.018 745.141 606.26 741.424 615.862C734.004 635.029 726.388 655.741 724.014 664.469C721.674 673.072 717.796 685.578 714.497 695.951C712.848 701.134 711.346 705.778 710.257 709.126C709.712 710.799 709.27 712.149 708.965 713.08C708.898 713.283 708.838 713.466 708.785 713.628C700.302 714.862 696.12 718.954 694.162 723.004C693.17 725.054 692.78 727.026 692.637 728.479C692.604 728.806 692.584 729.109 692.573 729.382L651.501 731.178ZM729.917 518.279C729.917 518.279 729.924 518.278 729.94 518.278C729.925 518.279 729.917 518.279 729.917 518.279Z" fill="#E0E0E0" stroke="#363A5A" stroke-width="3"/>
<path d="M647.246 732.96C647.522 732.684 675.127 707.083 679.791 700.138C684.456 693.194 700.314 651.078 701.523 643.581C702.732 636.084 704.321 614.733 705.254 597.873C705.945 585.919 700.245 559.869 697.515 547.5C696.72 543.838 696.168 541.419 696.168 541.005C697.481 540.072 727.849 517.546 729.335 516.82H729.646C731.576 517.097 733.431 517.755 735.105 518.755C739.609 521.264 743.508 524.729 746.529 528.908C749.549 533.086 751.617 537.876 752.587 542.939C754.349 550.817 756.041 556.759 757.596 561.251C760.049 569.093 761.258 573.032 759.047 576.729C755.592 582.567 730.13 647.209 725.327 664.933C720.698 682.035 709.918 714.753 709.78 715.098C706.854 715.205 704.003 716.053 701.495 717.564C698.987 719.075 696.904 721.199 695.442 723.735C694.379 725.951 693.892 728.399 694.026 730.852L647.246 732.96ZM696.513 540.867C696.513 541.35 697.066 543.734 697.861 547.293C700.59 559.765 706.29 585.711 705.6 597.7C704.667 614.595 703.078 636.084 701.868 643.443C700.659 650.802 684.836 692.952 680.102 700.035C675.369 707.117 650.079 730.542 647.695 732.753L693.991 730.714C693.886 728.259 694.384 725.815 695.442 723.597C696.917 721.051 699.01 718.918 701.529 717.396C704.047 715.874 706.909 715.012 709.849 714.891C710.333 713.371 720.836 681.585 725.362 664.794C730.199 647.071 755.592 582.36 759.082 576.521C761.293 572.894 760.049 568.99 757.631 561.216C756.18 556.552 754.383 550.851 752.621 542.905C751.684 537.856 749.651 533.075 746.667 528.896C743.682 524.718 739.818 521.245 735.347 518.72C733.694 517.734 731.862 517.088 729.957 516.82H729.715C728.16 517.442 697.757 539.968 696.513 540.867Z" fill="#263238"/>
<g opacity="0.3">
<path d="M702.451 570.061C702.451 570.061 704.317 585.159 709.81 589.132C715.304 593.105 726.739 582.015 728.985 579.597C733.583 575.983 738.498 572.792 743.668 570.061C744.67 569.716 757.937 561.873 757.937 561.873L751.649 540.072L710.19 544.806L697.234 553.028L702.451 570.061Z" fill="black"/>
</g>
<path d="M427.211 679.915L427.209 679.86L427.203 679.805C426.853 676.464 425.198 664.279 423.197 651.854C422.196 645.637 421.106 639.342 420.045 634.05C418.994 628.805 417.947 624.411 417.015 622.086C415.175 617.493 413.369 615.556 411.347 613.927C410.989 613.638 410.635 613.367 410.282 613.095C408.749 611.918 407.221 610.745 405.362 608.213C404.835 607.496 404.048 606.104 403.048 604.115C402.063 602.156 400.912 599.7 399.659 596.919C397.155 591.357 394.263 584.534 391.508 577.853C388.754 571.174 386.141 564.648 384.196 559.682C383.223 557.199 382.419 555.11 381.848 553.589C381.562 552.828 381.337 552.215 381.179 551.768C381.102 551.551 381.049 551.395 381.014 551.29L381.127 550.473C381.227 549.75 381.371 548.716 381.545 547.471C381.894 544.982 382.364 541.652 382.852 538.291C383.34 534.929 383.844 531.541 384.26 528.931C384.468 527.625 384.653 526.523 384.801 525.721C384.864 525.384 384.918 525.109 384.964 524.899C385.234 524.751 385.624 524.553 386.132 524.308C387.202 523.791 388.714 523.103 390.53 522.298C394.159 520.691 398.951 518.641 403.734 516.621C408.516 514.601 413.28 512.614 416.85 511.131C418.602 510.403 420.066 509.797 421.102 509.369C421.151 509.616 421.204 509.886 421.262 510.179C421.589 511.846 422.061 514.239 422.635 517.147C423.783 522.963 425.344 530.837 426.991 539.07C430.283 555.515 433.936 573.452 435.344 579.226C436.684 584.718 436.439 588.415 435.85 592.319C435.732 593.098 435.599 593.892 435.461 594.714C434.902 598.053 434.265 601.858 434.265 606.993C434.265 610.358 435.612 616.397 437.525 623.361C439.459 630.399 442.033 638.591 444.602 646.374C447.171 654.161 449.74 661.554 451.667 667C452.63 669.723 453.433 671.96 453.995 673.517C454.276 674.295 454.497 674.903 454.647 675.317C454.667 675.372 454.686 675.424 454.704 675.472C454.627 675.704 454.511 676.042 454.34 676.517C453.907 677.722 453.128 679.794 451.751 683.239L451.728 683.296L451.71 683.354C450.943 685.839 450.865 688.486 451.483 691.013C452.006 693.15 453.01 695.133 454.413 696.814C454.24 697.084 454.033 697.404 453.794 697.765C453.023 698.931 451.931 700.516 450.651 702.195C449.368 703.876 447.909 705.633 446.404 707.15C444.885 708.682 443.388 709.899 442.036 710.579C441.447 710.875 440.483 711.16 439.143 711.404C437.829 711.643 436.25 711.826 434.494 711.96C430.983 712.229 426.855 712.3 422.893 712.272C418.937 712.244 415.171 712.118 412.393 711.999C411.789 711.974 411.232 711.948 410.73 711.924L424.087 695.129L424.205 694.98L424.283 694.805C426.367 690.125 427.367 685.036 427.211 679.915ZM385.056 524.524C385.056 524.525 385.054 524.529 385.051 524.538C385.054 524.528 385.056 524.524 385.056 524.524Z" fill="#E0E0E0" stroke="#363A5A" stroke-width="3"/>
<path d="M733.683 557.934C732.432 557.106 732.432 557.106 732.432 557.106L732.432 557.106L732.43 557.109L732.424 557.118L732.4 557.155L732.304 557.299C732.22 557.425 732.097 557.612 731.938 557.85C731.621 558.326 731.165 559.011 730.608 559.844C729.495 561.511 727.98 563.768 726.374 566.135C723.135 570.909 719.601 576.013 718.193 577.704C717.472 578.569 716.939 579.125 716.494 579.47C716.074 579.797 715.813 579.871 715.618 579.883C715.397 579.897 715.046 579.844 714.426 579.544C713.801 579.241 713.026 578.749 711.98 578.02C711.904 577.968 711.759 577.83 711.696 577.354C711.63 576.856 711.681 576.147 711.887 575.226C712.299 573.393 713.232 571.118 714.345 568.841C715.447 566.583 716.683 564.405 717.648 562.786C718.13 561.978 718.542 561.313 718.832 560.851C718.977 560.62 719.092 560.44 719.17 560.319C719.209 560.258 719.239 560.212 719.259 560.181L719.281 560.148L719.286 560.14L719.287 560.138L719.287 560.138L719.287 560.138L719.955 559.118L719.093 558.256L713.807 552.97L712.684 551.847L711.627 553.032C710.311 554.507 708.493 555.44 706.331 556.032C704.16 556.627 701.742 556.852 699.318 556.981C698.623 557.017 697.917 557.046 697.216 557.075C695.548 557.143 693.908 557.21 692.514 557.38C691.505 557.503 690.527 557.689 689.67 558.003C688.814 558.317 687.975 558.797 687.375 559.574C685.728 561.705 684.857 564.725 684.024 567.618L683.972 567.797C683.087 570.867 682.183 573.976 680.538 576.717C679.795 577.957 679.051 578.479 678.45 578.697C677.837 578.92 677.184 578.893 676.515 578.7C675.838 578.504 675.213 578.155 674.739 577.833C674.507 577.675 674.324 577.532 674.201 577.431C674.141 577.381 674.096 577.342 674.068 577.318C674.055 577.306 674.046 577.298 674.041 577.294L674.041 577.293L674.04 577.292L674.038 577.291L672.763 576.091L671.774 577.543C671.137 578.48 670.249 579.218 669.211 579.673L669.814 581.047L669.211 579.673C668.22 580.108 667.13 580.268 666.057 580.137C666.045 580.109 666.032 580.072 666.017 580.023C665.911 579.659 665.867 579.012 665.957 578.021C666.135 576.067 666.759 573.415 667.492 570.451C667.567 570.146 667.644 569.838 667.721 569.528C668.377 566.883 669.073 564.081 669.501 561.557C669.741 560.143 669.904 558.774 669.926 557.533C669.947 556.31 669.832 555.107 669.441 554.082C668.69 552.116 667.049 550.563 665.085 549.255C663.103 547.935 660.61 546.747 657.903 545.586C656.28 544.891 654.577 544.203 652.831 543.497C648.653 541.81 644.224 540.02 640.036 537.782L640.001 537.763L639.964 537.746C636.927 536.326 634.262 534.217 632.182 531.587C630.102 528.957 628.663 525.879 627.98 522.596L627.948 522.443L627.886 522.3C627.822 522.154 627.796 522.041 627.783 521.959C627.779 521.928 627.776 521.899 627.774 521.869L634.232 497.122L641.617 484.591L669.469 462.831L711.427 459.682L758.657 482.015L762.656 529.068C759.272 535.136 755.562 541.017 751.542 546.686C749.426 549.503 746.729 551.832 743.633 553.515C740.531 555.201 737.103 556.198 733.581 556.438L732.842 556.488L732.432 557.106L733.683 557.934Z" fill="#F8CAB2" stroke="#363A5A" stroke-width="3"/>
<g opacity="0.3">
<path d="M626.511 521.382C628.579 521.439 630.637 521.077 632.561 520.317C634.485 519.557 636.235 518.415 637.705 516.959C643.648 511.812 662.442 493.224 662.442 493.224C662.442 493.224 675.364 482.41 682.308 481.892C689.253 481.374 694.953 479.819 701.656 481.892C708.358 483.965 727.948 497.094 735.445 505.869C742.942 514.645 746.846 521.969 752.719 523.904C758.593 525.839 760.32 515.232 760.32 515.232L739.314 479.059L706.562 465.239L691.084 462.406L671.494 464.721L654.738 471.942L643.89 481.754L634.354 491.531C634.354 491.531 628.93 503.416 628.688 504.176C628.446 504.936 626.27 515.094 626.27 515.094L626.511 521.382Z" fill="black"/>
</g>
<path d="M152.738 696.545C151.282 696.184 151.282 696.185 151.282 696.185L151.282 696.185L151.282 696.186L151.281 696.19L151.278 696.2L151.27 696.237L151.259 696.283C151.253 696.309 151.246 696.339 151.237 696.375C151.209 696.495 151.169 696.674 151.117 696.916C151.012 697.399 150.861 698.133 150.669 699.151C150.284 701.188 149.736 704.362 149.077 708.941L149.075 708.954C148.885 710.356 147.997 711.908 146.452 713.553C144.925 715.179 142.881 716.764 140.636 718.235C136.169 721.161 131.106 723.505 128.276 724.724C128.261 724.729 128.245 724.73 128.229 724.728L128.063 726.219L128.229 724.728C128.21 724.726 128.191 724.719 128.174 724.708C128.157 724.697 128.144 724.682 128.134 724.664C128.125 724.648 128.12 724.631 128.119 724.613V708.291V704.396L125.507 707.285L110.174 724.241C110.173 724.242 110.172 724.244 110.171 724.245C109.827 724.619 109.4 724.908 108.924 725.088C108.45 725.268 107.94 725.335 107.436 725.284C106.913 725.223 106.321 725.154 105.675 725.08C102.858 724.756 99.0003 724.312 95.2352 723.754C92.9192 723.411 90.6598 723.028 88.7185 722.608C86.7531 722.183 85.2162 721.741 84.279 721.307C83.3523 720.869 82.6862 720.052 82.2576 718.781C81.8192 717.48 81.6662 715.794 81.7528 713.843C81.9258 709.945 83.0312 705.406 84.1117 701.736C84.4395 700.623 84.6477 698.646 84.7949 696.205C84.9457 693.704 85.0397 690.551 85.0908 686.975C85.1932 679.821 85.1249 670.919 84.9888 662.055C84.8287 651.631 84.5758 641.289 84.394 633.852C84.2657 628.603 84.1727 624.802 84.1727 623.439C84.1727 621.66 83.9402 620.347 83.4735 619.243C83.0105 618.147 82.3572 617.366 81.7633 616.663L81.6894 616.575C81.1141 615.894 80.538 615.212 79.9428 614.2C79.3226 613.146 78.6605 611.693 78.0335 609.515C76.7659 605.112 76.3341 601 76.1165 596.7C76.0419 595.226 75.9924 593.709 75.9413 592.147C75.8453 589.207 75.744 586.104 75.4607 582.818L75.4605 582.816C75.0548 578.184 73.4149 573.662 71.8323 569.298C71.7164 568.978 71.6008 568.659 71.486 568.342C69.775 563.602 68.2193 559 68.0721 554.191L68.0714 554.17L68.0702 554.149C68.0392 553.622 68.0391 553.093 68.07 552.567C68.5011 545.871 70.6573 539.401 74.3285 533.786C76.0228 531.563 78.1749 529.731 80.6388 528.412C89.2886 525.055 94.7753 525.491 98.1624 526.648C99.8758 527.233 101.118 528.025 102.015 528.704C102.398 528.995 102.713 529.259 102.998 529.5C103.052 529.545 103.105 529.589 103.156 529.633C103.311 529.762 103.48 529.901 103.639 530.018C103.776 530.119 104.021 530.291 104.321 530.396C104.911 530.603 105.464 530.509 105.873 530.362C106.271 530.219 106.634 529.992 106.944 529.766C107.56 529.318 108.264 528.653 109.012 527.932C109.154 527.795 109.301 527.654 109.451 527.508C110.932 526.076 112.816 524.254 115.297 522.367C115.823 521.966 116.465 521.223 117.149 520.351C117.869 519.433 118.744 518.23 119.747 516.787C121.757 513.898 124.324 509.993 127.281 505.366C133.196 496.108 140.701 483.91 148.476 471.068C164.028 445.381 180.687 417.075 187.932 404.453C195.252 391.7 198.642 381.452 202.049 371.044L202.169 370.678C205.531 360.409 208.956 349.943 216.245 336.533C219.835 329.928 226.104 323.254 234.019 316.79C241.917 310.339 251.371 304.164 261.232 298.537C280.958 287.281 302.197 278.284 315.605 273.7C342.507 264.503 394.508 252.484 420.526 250.733C446.725 248.97 539.27 245.529 579.15 250.723C600.7 253.761 622.428 255.358 644.191 255.504L644.234 255.504L644.277 255.502C729.965 251.151 761.48 255.106 786.457 263.273C798.286 267.14 804.427 279.472 807.564 292.447C810.675 305.319 810.679 318.223 810.679 322.343C810.679 324.979 809.827 332.171 808.658 340.745C807.498 349.258 806.049 358.983 804.892 366.582L804.883 366.639L804.879 366.696L804.878 366.7L804.878 366.71L804.875 366.75L804.863 366.907C804.853 367.045 804.838 367.251 804.819 367.52C804.78 368.059 804.724 368.853 804.654 369.875C804.513 371.92 804.315 374.877 804.087 378.529C803.631 385.834 803.054 395.922 802.57 407.057C801.603 429.295 801.001 455.809 802.497 472.626C804.004 489.576 809.74 504.965 815.72 518.58C817.371 522.339 819.077 526.041 820.714 529.593C822.008 532.401 823.259 535.116 824.406 537.692C827.047 543.624 829.245 549.051 830.56 554C833.214 563.985 834.398 577.407 835.594 591.765L835.726 593.35C836.874 607.167 838.081 621.699 840.697 634.445C843.327 647.528 845.991 667.101 847.999 683.439C849.002 691.601 849.84 698.942 850.428 704.242C850.721 706.892 850.952 709.032 851.11 710.509C851.111 710.525 851.113 710.54 851.115 710.556C850.911 710.548 850.697 710.552 850.475 710.572C848.454 710.755 846.318 712.167 844.436 715.706C841.16 721.869 841.965 726.939 843.003 733.487C843.162 734.486 843.326 735.518 843.481 736.595C843.99 740.109 841.862 744.07 839.233 747.395C837.958 749.008 836.641 750.377 835.64 751.344C835.141 751.826 834.723 752.206 834.433 752.462C834.431 752.464 834.429 752.465 834.428 752.467L797.375 750.291L813.167 731.008L813.474 730.633L813.503 730.148L812.97 730.116C813.503 730.148 813.503 730.148 813.503 730.147L813.504 730.146L813.504 730.138L813.506 730.109L813.512 729.996C813.518 729.897 813.527 729.749 813.538 729.555C813.548 729.381 813.56 729.172 813.574 728.927C813.591 728.623 813.611 728.266 813.633 727.858C813.713 726.384 813.824 724.251 813.947 721.609C814.193 716.325 814.488 709.007 814.685 700.865C815.078 684.612 815.082 664.976 813.495 651.729C810.308 625.109 793.123 595.015 781.832 575.393L781.82 575.372L781.808 575.352C772.43 560.18 765.063 543.854 759.89 526.784L759.887 526.773C756.804 516.879 749.731 508.167 742.062 500.768C736.366 495.272 730.228 490.401 725.037 486.28C723.244 484.857 721.564 483.524 720.055 482.286L720.052 482.283C716.708 479.554 711.516 476.692 705.728 473.922C699.912 471.137 693.383 468.394 687.295 465.921L686.751 465.7L686.201 465.907C679.848 468.303 669.674 472.434 659.457 477.543C655.04 479.73 650.684 483.585 646.669 488.024C642.636 492.482 638.867 497.618 635.64 502.467C632.411 507.32 629.711 511.91 627.818 515.284C626.871 516.973 626.125 518.359 625.614 519.325C625.39 519.749 625.212 520.092 625.082 520.344L624.368 520.64C623.587 520.964 622.467 521.428 621.111 521.988C618.398 523.11 614.74 524.618 610.961 526.168C603.364 529.283 595.38 532.52 593.488 533.156C591.421 533.852 589.563 534.77 587.64 535.751C587.427 535.86 587.214 535.969 586.998 536.079C585.253 536.973 583.407 537.917 581.183 538.864C578.962 539.809 577.259 539.789 575.435 539.311C574.48 539.062 573.485 538.684 572.333 538.214C572.044 538.096 571.745 537.973 571.436 537.845C570.534 537.472 569.545 537.063 568.476 536.663C565.478 535.541 559.01 534.255 549.614 533.022C540.162 531.781 527.61 530.578 512.347 529.661C499.523 528.89 484.734 524.792 470.305 520.793C467.815 520.103 465.335 519.416 462.878 518.749C454.579 516.498 446.549 514.488 439.345 513.455C432.169 512.427 425.633 512.34 420.4 514.084L420.355 514.099L420.311 514.117C409.661 518.433 399.452 523.765 389.825 530.039L389.215 530.437L389.15 531.163L382.522 605.31C381.078 613.44 378.207 621.251 374.043 628.383L374.04 628.39L374.036 628.397C370.25 635.04 368.989 640.55 368.503 646.022C368.292 648.394 368.226 650.767 368.159 653.181C368.15 653.518 368.141 653.856 368.131 654.195C368.051 656.977 367.942 659.856 367.595 663.006C366.879 669.499 366.204 684.505 365.708 697.819C365.459 704.491 365.255 710.761 365.113 715.362C365.042 717.663 364.987 719.547 364.949 720.856C364.935 721.335 364.924 721.738 364.915 722.055L358.738 725.576L358.667 725.616L358.602 725.664C357.292 726.611 355.986 728.329 354.806 730.168C353.595 732.055 352.406 734.252 351.365 736.324C350.321 738.401 349.413 740.377 348.767 741.832C348.503 742.426 348.283 742.934 348.114 743.329L307.509 744.096C313.421 730.481 322.885 718.687 334.926 709.96C335.533 709.527 335.931 708.805 336.208 708.199C336.518 707.523 336.809 706.678 337.087 705.721C337.644 703.8 338.192 701.265 338.722 698.358C339.785 692.534 340.803 685.073 341.687 677.731C342.572 670.383 343.326 663.131 343.858 657.718C344.124 655.011 344.335 652.762 344.48 651.19C344.552 650.404 344.608 649.787 344.645 649.367C344.664 649.156 344.678 648.995 344.688 648.886L344.699 648.763L344.701 648.731L344.702 648.723L344.702 648.721C344.702 648.721 344.702 648.721 343.208 648.59L344.702 648.721L344.728 648.43L344.643 648.152C342.262 640.366 340.661 632.362 339.864 624.259L339.861 624.232L339.858 624.204C338.849 616.772 338.437 607.588 338 597.565L337.978 597.062C337.548 587.211 337.086 576.604 335.993 566.241L335.774 564.162L333.875 565.035L327.864 567.799L327.859 567.801C327.367 568.029 326.553 568.232 325.367 568.371C324.205 568.508 322.788 568.572 321.151 568.579C317.875 568.592 313.842 568.378 309.434 568.105C308.467 568.046 307.483 567.983 306.485 567.92C298.442 567.409 289.545 566.845 282.283 567.25L282.278 567.25C273.139 567.794 264.097 565.121 256.722 559.696L256.182 559.299L255.527 559.436L238.978 562.891L238.922 562.903L238.868 562.918L239.284 564.36C238.868 562.918 238.868 562.918 238.867 562.919L238.866 562.919L238.862 562.92L238.849 562.924L238.801 562.938C238.76 562.95 238.701 562.968 238.624 562.992C238.471 563.038 238.248 563.108 237.963 563.2C237.393 563.385 236.574 563.663 235.563 564.037C233.543 564.783 230.75 565.916 227.649 567.466C221.477 570.549 213.943 575.352 208.918 582.16C201.784 591.826 198.425 600.917 195.474 608.904C194.384 611.853 193.35 614.653 192.202 617.275C187.807 627.309 184.334 635.642 180.86 645.682C180.049 648.028 177.842 652.307 174.899 657.517C171.98 662.686 168.406 668.653 164.934 674.319C161.462 679.983 158.098 685.337 155.601 689.275C154.353 691.244 153.322 692.859 152.603 693.981C152.244 694.542 151.962 694.98 151.771 695.277L151.553 695.616L151.497 695.702L151.483 695.724L151.48 695.729L151.479 695.731C151.478 695.731 151.478 695.731 152.738 696.545ZM152.738 696.545L151.282 696.184L151.343 695.941L151.478 695.731L152.738 696.545Z" fill="#E0E0E0" stroke="#363A5A" stroke-width="3"/>
<path d="M239.561 564.188C239.561 564.188 239.319 564.188 239.216 564.188C237.212 564.776 219.246 570.511 210.229 582.845C200.659 595.905 198.033 607.651 193.68 617.636C189.327 627.621 185.872 635.947 182.382 645.932C179.169 655.191 156.574 690.535 153.188 695.786C152.902 696.216 152.703 696.697 152.601 697.203C152.29 698.688 151.564 702.351 150.597 709.053C149.491 716.792 133.012 724.255 128.071 726.328C127.917 726.398 127.747 726.428 127.578 726.415C127.409 726.401 127.247 726.346 127.105 726.253C126.964 726.159 126.848 726.032 126.769 725.882C126.69 725.732 126.651 725.564 126.654 725.395V709.675C126.648 709.562 126.608 709.453 126.541 709.362C126.474 709.271 126.382 709.201 126.276 709.161C126.171 709.121 126.055 709.112 125.945 709.136C125.834 709.16 125.733 709.215 125.653 709.295L111.211 725.222C110.737 725.737 110.15 726.135 109.497 726.387C108.844 726.639 108.142 726.737 107.445 726.673C101.952 726.155 88.0976 724.6 83.6753 722.527C78.1128 719.936 80.5313 708.708 82.7079 701.211C84.8845 693.713 82.7079 629.832 82.7079 623.302C82.7079 616.772 79.253 618.949 76.6273 609.828C74.0016 600.707 74.8653 592.83 74.0015 582.845C73.1378 572.86 66.9189 564.292 66.6079 554.1C66.5734 553.525 66.5734 552.948 66.6079 552.373C67.0566 545.389 69.3063 538.64 73.1378 532.783C75.0046 530.363 77.3587 528.362 80.0476 526.91C97.9096 520 103.576 528.465 104.854 528.879C106.132 529.294 108.758 525.424 114.424 521.037C120.09 516.649 172.294 428.79 186.666 403.569C186.666 403.569 196.409 437.324 192.609 470.353C188.808 503.382 179.895 513.539 197.688 526.219C215.48 538.898 242.049 544.945 239.561 564.188Z" fill="#263238"/>
<path d="M105.996 607.442C105.996 607.684 104.441 606.855 102.023 606.233C98.9035 605.346 95.5897 605.414 92.51 606.431C89.4303 607.447 86.7264 609.364 84.7481 611.934C83.1934 613.903 82.5715 615.389 82.2951 615.389C82.0187 615.389 82.2952 613.627 83.7117 611.312C85.6019 608.247 88.5123 605.947 91.9309 604.816C95.3496 603.685 99.0576 603.795 102.403 605.128C104.959 606.026 106.272 607.304 105.996 607.442Z" fill="#455A64"/>
<path d="M101.985 606.026C102.41 608.441 102.204 610.926 101.387 613.238C100.57 615.55 99.1691 617.612 97.3206 619.224C96.0648 619.81 94.662 620.004 93.2942 619.782C91.9265 619.561 90.6571 618.933 89.6507 617.98C87.2924 616.003 85.7531 613.22 85.332 610.172C87.8947 607.42 91.2523 605.536 94.9367 604.782C100.948 603.642 101.985 606.026 101.985 606.026Z" fill="#E9E9E9"/>
<path d="M99.3653 607.999C99.6527 609.675 99.5136 611.399 98.9614 613.004C98.4093 614.609 97.4628 616.04 96.2138 617.158C95.3653 617.564 94.4174 617.699 93.4932 617.545C92.5691 617.392 91.7113 616.956 91.0313 616.295C89.4378 614.923 88.3978 612.992 88.1133 610.876C89.8449 608.966 92.1135 607.659 94.603 607.136C98.6649 606.345 99.3653 607.999 99.3653 607.999Z" fill="#363A5A"/>
<path d="M124.512 571.167C124.512 571.167 126.205 572.169 129.418 573.585C133.969 575.515 138.884 576.435 143.825 576.28C151.138 576.126 158.157 573.37 163.622 568.507C166.924 565.546 169.584 561.94 171.438 557.911C173.292 553.882 174.301 549.516 174.401 545.082C174.572 542.863 174.092 540.641 173.019 538.691C172.399 537.857 171.611 537.162 170.707 536.651C169.803 536.139 168.801 535.822 167.767 535.719C163.513 535.293 159.217 535.644 155.088 536.756C147.991 538.605 141.455 542.163 136.051 547.121C132.371 550.441 129.286 554.368 126.93 558.729C125.203 561.804 124.616 563.67 124.443 563.601C124.27 563.531 124.443 563.117 124.788 562.219C125.177 560.902 125.674 559.619 126.274 558.384C128.483 553.822 131.49 549.692 135.153 546.188C140.637 540.941 147.348 537.152 154.673 535.167C159.02 533.957 163.555 533.57 168.044 534.026C169.323 534.156 170.561 534.555 171.675 535.199C172.789 535.842 173.753 536.714 174.505 537.758C175.785 539.989 176.374 542.55 176.197 545.117C176.087 549.797 175.011 554.403 173.037 558.648C171.064 562.893 168.234 566.684 164.727 569.785C158.993 574.821 151.629 577.607 143.998 577.628C138.887 577.663 133.841 576.479 129.28 574.173C128.064 573.581 126.907 572.876 125.825 572.065C124.857 571.547 124.477 571.236 124.512 571.167Z" fill="#E9E9E9"/>
<path d="M165.007 545.911C163.136 546.377 161.229 546.689 159.307 546.844C154.806 547.675 150.488 549.301 146.558 551.647C142.602 554.008 139.093 557.049 136.193 560.629C134.017 563.393 132.98 565.363 132.738 565.224C133.149 563.273 134 561.442 135.226 559.869C137.912 555.898 141.435 552.563 145.547 550.098C149.66 547.633 154.262 546.098 159.03 545.6C161.019 545.232 163.067 545.339 165.007 545.911Z" fill="#E9E9E9"/>
<path d="M92.4501 537.827C90.1125 537.711 87.7807 538.149 85.6437 539.103C83.5067 540.058 81.6248 541.502 80.1506 543.32C77.2685 546.987 74.6698 550.867 72.377 554.929C65.018 566.157 53.9623 574.449 43.1484 582.568C46.9263 584.208 51.0011 585.055 55.1197 585.055C59.2384 585.055 63.3131 584.208 67.091 582.568C74.5728 579.226 81.5503 574.853 87.8205 569.577C91.4366 567.075 94.7016 564.101 97.5288 560.733C98.8995 559.019 99.9117 557.047 100.505 554.934C101.099 552.821 101.261 550.61 100.984 548.433C100.224 544.08 96.1123 538.069 91.7246 537.896" fill="#E0E0E0"/>
<path d="M92.1046 537.791C92.6364 537.648 93.1967 537.648 93.7285 537.791C95.2609 538.266 96.6347 539.15 97.7016 540.348C99.4426 542.164 100.753 544.349 101.537 546.74C102.471 550.004 102.214 553.494 100.811 556.586C99.1236 560.259 96.6181 563.497 93.4866 566.053C90.2044 568.817 86.5768 571.511 82.7764 574.345C78.7635 577.387 74.4445 580.004 69.8895 582.153C64.9198 584.487 59.487 585.668 53.9969 585.608C50.1541 585.574 46.3666 584.689 42.9066 583.016L41.5938 582.36L42.7684 581.496C50.1036 576.357 57.0338 570.663 63.4979 564.463C66.2213 561.76 68.7173 558.836 70.9606 555.722C73.0335 552.82 74.6573 549.849 76.3848 547.292C77.8865 544.92 79.7253 542.778 81.8435 540.935C83.456 539.561 85.3223 538.517 87.3368 537.861C88.598 537.461 89.9193 537.286 91.2409 537.342C91.7009 537.342 92.1572 537.424 92.5884 537.584C90.8735 537.648 89.1758 537.951 87.5441 538.482C83.1977 540.4 79.6209 543.722 77.3868 547.914C75.763 550.471 74.2081 553.477 72.1006 556.517C69.8819 559.746 67.3849 562.775 64.6381 565.569C58.1998 571.871 51.2679 577.647 43.9086 582.844V581.358C47.1476 582.901 50.6857 583.715 54.2733 583.742C65.1218 583.915 74.4501 578.249 81.9127 572.824C89.3753 567.4 96.9761 562.46 99.74 555.93C101.129 553.11 101.46 549.886 100.673 546.843C99.9786 544.547 98.8006 542.427 97.218 540.624C95.8874 539.123 94.0828 538.124 92.1046 537.791Z" fill="#263238"/>
<path d="M417.625 319.312C419.492 307.032 412.512 295.367 405.711 284.93L398.451 273.725C397.01 271.211 395.161 268.955 392.979 267.048C388.786 263.748 383.111 263.339 377.767 263.032C372.424 262.725 367.157 262.52 362.606 264.951C358.055 267.381 354.936 273.469 357.697 277.895C360.459 282.321 366.339 282.807 368.998 286.874C372.475 292.221 368.103 299.051 367.438 305.395C366.774 311.739 369.995 317.726 371.861 323.814C373.728 329.902 373.651 337.705 368.384 341.286C363.578 338.933 363.271 332.384 362.453 327.088C361.29 321.313 359.4 315.709 356.828 310.409C355.854 307.689 354.37 305.18 352.456 303.016C351.482 301.948 350.226 301.177 348.833 300.793C347.439 300.408 345.966 300.425 344.582 300.842C341.897 301.865 340.44 304.679 338.829 307.032C337.219 309.386 334.585 311.739 331.824 310.998C329.063 310.256 327.759 306.06 328.603 302.965C329.446 299.87 331.441 297.107 332.029 293.96C333.409 286.695 326.2 275.567 323.106 268.839L287.926 287.744C287.671 304.628 280.717 326.347 275.475 342.412C269.928 351.8 271.231 388.254 276.652 397.719C282.072 407.184 289.256 416.112 290.841 426.882C291.039 429.593 291.432 432.286 292.017 434.94C292.33 436.268 292.959 437.5 293.849 438.533C294.739 439.566 295.864 440.37 297.13 440.875C298.216 441.187 299.374 441.13 300.424 440.713C301.474 440.297 302.357 439.544 302.934 438.573C301.477 443.971 300.224 449.701 302.116 454.92C304.008 460.138 311.397 464.538 316.254 461.085C323.643 455.764 316.587 442.41 322.569 435.503C324.998 432.689 328.986 431.845 331.978 429.645C340.338 423.48 339.341 408.259 349.005 404.37C351.434 403.398 354.118 403.373 356.675 402.477C361.072 400.917 364.012 396.849 367.643 393.959C371.273 391.068 377.128 389.482 380.426 392.884C381.327 394.072 381.918 395.466 382.146 396.94C382.373 398.414 382.23 399.921 381.73 401.326C380.963 404.191 379.455 406.826 378.713 409.717C377.128 415.831 379.071 422.252 380.989 428.264C384.517 439.238 392.468 443.024 395.971 453.999L412.282 445.02C416.858 431.103 418.162 429.978 415.785 415.524C414.276 406.212 409.93 397.617 406.427 388.894C401.723 377.1 398.502 363.9 402.413 351.851C405.916 340.416 415.785 331.258 417.625 319.312Z" fill="#263238"/>
<path d="M726.601 293.735C724.563 288.483 718.033 286.445 715.2 281.642C709.189 271.278 726.36 261.638 719.173 252.276L618.981 253.796C610.551 267.615 616.424 276.356 618.981 282.644C621.537 288.932 621.675 297.328 616.078 301.059C613.689 302.317 610.953 302.758 608.289 302.315C605.626 301.872 603.18 300.569 601.326 298.606C597.737 294.565 595.072 289.79 593.518 284.614C590.696 276.224 586.694 268.279 581.633 261.017C579.09 257.389 575.855 254.3 572.113 251.929C568.372 249.557 564.198 247.949 559.832 247.197L493.222 246.506C480.473 251.308 471.836 270.068 470.523 283.646C469.21 297.224 471.214 311.286 468.139 324.449C465.72 334.814 460.192 344.867 460.711 355.543C461.505 371.401 475.498 385.532 472.388 401.079C470.523 410.338 462.956 417.524 460.745 426.68C458.914 434.281 460.987 442.227 463.06 449.793C466.204 461.264 471.386 474.738 483.064 476.984C494.742 479.229 505.521 467.552 509.84 455.943C514.158 444.335 515.782 431.171 524.178 422.085C531.087 414.519 542.489 410.373 545.978 400.664C548.777 392.925 545.46 384.323 541.418 377.171C537.375 370.019 532.435 362.868 531.709 354.645C530.984 346.422 536.754 336.921 544.976 337.37C551.333 337.716 556.032 343.658 558.105 349.704C560.178 355.75 560.661 362.246 563.253 368.084C567.295 376.998 576.347 384.323 575.76 394.1C575.207 403.325 566.293 409.44 558.209 413.897C550.124 418.354 540.934 423.743 539.379 432.83C537.444 443.644 547.429 452.868 557.276 457.705C567.122 462.542 578.593 466.101 584.673 475.256C587.437 479.402 588.785 484.343 591.376 488.592C593.967 492.842 598.458 496.642 603.399 495.986C610.827 494.984 613.384 485.172 611.829 477.813C610.274 470.454 606.336 463.268 607.648 455.839C608.789 449.482 613.522 444.507 617.322 439.29C621.123 434.073 624.232 427.129 621.295 421.29C618.117 414.622 608.098 410.718 609.549 403.497C611 396.277 621.123 395.827 624.059 389.678C627.825 381.593 616.631 373.543 617.426 364.664C618.151 356.649 627.791 353.09 635.53 351.294C641.99 349.808 649.695 348.599 654.601 353.09C659.507 357.582 659.576 366.91 665.553 370.123C671.53 373.336 678.785 368.499 681.964 362.591C685.142 356.683 686.04 349.739 689.634 344.073C693.227 338.407 699.376 334.641 703.868 329.562C708.359 324.483 711.054 316.399 706.908 311.044C711.979 310.722 716.913 309.27 721.35 306.794C723.535 305.493 725.232 303.511 726.181 301.151C727.13 298.792 727.277 296.186 726.601 293.735Z" fill="#263238"/>
<path d="M359.485 726.981H317.024C317.024 726.981 306.418 736.344 305.52 745.742L349.397 744.912L359.485 726.981Z" fill="#263238"/>
<path d="M93.3121 719.934C92.4646 720.135 91.5763 720.082 90.7588 719.781C89.9413 719.48 89.2311 718.944 88.7171 718.241C88.2026 717.538 87.8413 716.735 87.6568 715.884C87.4723 715.033 87.4686 714.153 87.6459 713.3C88.0085 711.598 88.7792 710.009 89.8917 708.671C90.6864 707.669 91.9301 706.667 93.1394 707.081C93.5151 707.274 93.847 707.543 94.1145 707.87C94.382 708.197 94.5793 708.575 94.694 708.982C95.4014 710.8 95.6761 712.758 95.4962 714.701C95.3163 716.644 94.6869 718.518 93.6576 720.176" fill="#455A64"/>
<path d="M422.917 694.196L453.493 692.434L456.292 696.649C456.292 696.649 448.103 711.47 441.954 713.059C435.804 714.649 407.75 713.267 407.75 713.267L422.917 694.196Z" fill="#263238"/>
<path d="M924.184 413.69C921.819 416.269 920.337 419.535 919.952 423.013C919.567 426.492 920.299 430.003 922.042 433.037C927.432 441.882 940.63 444.715 943.739 454.561C944.083 456.096 944.522 457.607 945.052 459.087C945.326 459.826 945.789 460.481 946.396 460.984C947.002 461.487 947.73 461.822 948.507 461.955C950.96 461.955 952.584 459.467 953.448 457.153C956.546 449.85 957.86 441.916 957.283 434.005C956.962 430.061 955.819 426.228 953.926 422.753C952.034 419.278 949.435 416.237 946.296 413.828C943.1 411.486 939.275 410.156 935.316 410.008C931.356 409.86 927.443 410.902 924.081 412.999" fill="#263238"/>
<path d="M647.484 732.855L694.091 730.817C694.091 730.817 694.091 721.523 701.001 717.757L665.968 715.166L647.484 732.855Z" fill="#263238"/>
<path d="M794.35 751.617L812.108 730.127L844.273 731.371C844.273 731.371 847.728 740.112 845.414 744.327C842.485 748.073 838.988 751.337 835.049 754L793.59 751.962" fill="#263238"/>
<path d="M303.2 518.72C303.511 518.72 303.649 522.175 304.858 527.322C307.928 541.084 315.759 553.32 326.97 561.872C331.219 565.154 334.225 566.674 334.087 566.95C331.239 566.089 328.57 564.72 326.21 562.908C320.293 558.832 315.245 553.621 311.36 547.577C307.475 541.533 304.831 534.778 303.58 527.703C302.929 524.754 302.8 521.713 303.2 518.72Z" fill="#263238"/>
<path d="M657.292 386.742C657.637 386.742 657.499 391.683 658.225 399.56C660.153 420.164 667.169 439.966 678.643 457.188C683.031 463.787 686.244 467.553 686.002 467.725C685.07 467.02 684.233 466.195 683.515 465.272C681.408 462.933 679.436 460.476 677.607 457.913C665.354 440.834 658.168 420.644 656.877 399.664C656.687 396.511 656.687 393.35 656.877 390.197C656.882 389.033 657.021 387.874 657.292 386.742Z" fill="#263238"/>
</svg>
