<svg width="1000" height="1000" viewBox="0 0 1000 1000" fill="none" xmlns="http://www.w3.org/2000/svg">
<path d="M524.02 258.716H476.646C474.297 258.716 472.535 256.758 472.535 254.605V154.767C472.535 152.418 474.493 150.656 476.646 150.656H524.02C526.369 150.656 528.131 152.614 528.131 154.767V254.605C528.131 256.758 526.369 258.716 524.02 258.716Z" fill="#4E5A7D"/>
<path d="M524.02 258.716H476.646C474.297 258.716 472.535 256.758 472.535 254.605V154.767C472.535 152.418 474.493 150.656 476.646 150.656H524.02C526.369 150.656 528.131 152.614 528.131 154.767V254.605C528.131 256.758 526.369 258.716 524.02 258.716Z" stroke="#4E5A7D" stroke-width="6" stroke-miterlimit="10" stroke-linecap="round" stroke-linejoin="round"/>
<path d="M585.878 194.113H414.784C396.382 194.113 381.309 179.236 381.309 160.638V140.475C381.309 122.074 396.186 107 414.784 107H585.878C604.28 107 619.353 121.878 619.353 140.475V160.638C619.157 179.04 604.28 194.113 585.878 194.113Z" fill="#BCAFAA"/>
<path d="M585.878 175.909H414.784C396.382 175.909 381.309 161.031 381.309 142.434V160.639C381.309 179.041 396.186 194.114 414.784 194.114H585.878C604.28 194.114 619.353 179.237 619.353 160.639V142.434C619.157 161.031 604.28 175.909 585.878 175.909Z" fill="#A09592"/>
<path d="M585.878 107.197H414.784C396.382 107.197 381.309 122.075 381.309 140.672V160.64C381.309 161.031 381.309 161.227 381.309 161.619C381.896 143.609 396.578 129.318 414.588 129.318H585.878C603.888 129.318 618.57 143.804 619.157 161.619C619.157 161.227 619.157 161.031 619.157 160.64V140.477C619.157 122.075 604.28 107.197 585.878 107.197Z" fill="#D1CAC7"/>
<path d="M585.878 194.113H414.784C396.382 194.113 381.309 179.236 381.309 160.638V140.475C381.309 122.074 396.186 107 414.784 107H585.878C604.28 107 619.353 121.878 619.353 140.475V160.638C619.157 179.04 604.28 194.113 585.878 194.113Z" stroke="#4E5A7D" stroke-width="6" stroke-miterlimit="10" stroke-linecap="round" stroke-linejoin="round"/>
<path d="M690.216 261.92L659.701 244.302L628.379 298.551L658.894 316.169L690.216 261.92Z" fill="#4E5A7D"/>
<path d="M690.216 261.92L659.701 244.302L628.379 298.551L658.894 316.169L690.216 261.92Z" stroke="#4E5A7D" stroke-width="6" stroke-miterlimit="10" stroke-linecap="round" stroke-linejoin="round"/>
<path d="M697.461 266.153L652.436 240.117C643.039 234.636 639.907 222.89 645.389 213.494L646.955 210.753C652.436 201.357 664.181 198.225 673.578 203.706L718.603 229.742C727.999 235.223 731.132 246.969 725.65 256.365L724.084 259.106C718.799 268.307 706.857 271.635 697.461 266.153Z" fill="#E08484"/>
<path d="M697.461 266.153L652.436 240.117C643.039 234.636 639.907 222.89 645.389 213.494L646.955 210.753C652.436 201.357 664.181 198.225 673.578 203.706L718.603 229.742C727.999 235.223 731.132 246.969 725.65 256.365L724.084 259.106C718.799 268.307 706.857 271.635 697.461 266.153Z" fill="#E08484"/>
<path d="M643.228 223.869L644.794 221.129C650.275 211.732 662.021 208.6 671.417 214.081L716.442 240.117C721.728 243.249 725.055 248.339 726.034 253.821C730.928 244.62 727.796 232.874 718.595 227.589L673.57 201.552C664.174 196.071 652.233 199.399 646.947 208.6L645.381 211.34C643.032 215.451 642.249 219.954 643.032 224.261C643.032 224.261 643.032 224.065 643.228 223.869Z" fill="#E99697"/>
<path d="M697.461 266.153L652.436 240.117C643.039 234.636 639.907 222.89 645.389 213.494L646.955 210.753C652.436 201.357 664.181 198.225 673.578 203.706L718.603 229.742C727.999 235.223 731.132 246.969 725.65 256.365L724.084 259.106C718.799 268.307 706.857 271.635 697.461 266.153Z" stroke="#4E5A7D" stroke-width="6" stroke-miterlimit="10" stroke-linecap="round" stroke-linejoin="round"/>
<path d="M344.572 316.343L375.087 298.725L343.765 244.476L313.25 262.094L344.572 316.343Z" fill="#4E5A7D"/>
<path d="M344.572 316.343L375.087 298.725L343.765 244.476L313.25 262.094L344.572 316.343Z" stroke="#4E5A7D" stroke-width="6" stroke-miterlimit="10" stroke-linecap="round" stroke-linejoin="round"/>
<path d="M305.933 266.153L350.958 240.117C360.355 234.636 363.487 222.89 358.006 213.494L356.44 210.753C350.958 201.357 339.213 198.225 329.816 203.706L284.791 229.742C275.395 235.223 272.263 246.969 277.744 256.365L279.31 259.106C284.596 268.307 296.537 271.635 305.933 266.153Z" fill="#E08484"/>
<path d="M305.933 266.153L350.958 240.117C360.355 234.636 363.487 222.89 358.006 213.494L356.44 210.753C350.958 201.357 339.213 198.225 329.816 203.706L284.791 229.742C275.395 235.223 272.263 246.969 277.744 256.365L279.31 259.106C284.596 268.307 296.537 271.635 305.933 266.153Z" fill="#E08484"/>
<path d="M285.573 242.075L330.598 216.039C339.995 210.558 351.936 213.885 357.222 223.086L358.788 225.827C359.179 226.61 359.571 227.589 359.962 228.372C361.333 223.478 360.745 218.192 358.005 213.494L356.439 210.753C350.957 201.357 339.212 198.225 329.815 203.706L284.79 229.742C276.373 234.636 272.849 245.011 276.373 253.821C277.743 249.122 280.875 244.816 285.573 242.075Z" fill="#E99697"/>
<path d="M305.933 266.153L350.958 240.117C360.355 234.636 363.487 222.89 358.006 213.494L356.44 210.753C350.958 201.357 339.213 198.225 329.816 203.706L284.791 229.742C275.395 235.223 272.263 246.969 277.744 256.365L279.31 259.106C284.596 268.307 296.537 271.635 305.933 266.153Z" stroke="#4E5A7D" stroke-width="6" stroke-miterlimit="10" stroke-linecap="round" stroke-linejoin="round"/>
<path d="M588.031 107.784V194.115" stroke="#4E5A7D" stroke-width="6" stroke-miterlimit="10" stroke-linecap="round" stroke-linejoin="round"/>
<path d="M552.797 107.784V194.115" stroke="#4E5A7D" stroke-width="6" stroke-miterlimit="10" stroke-linecap="round" stroke-linejoin="round"/>
<path d="M517.559 107.784V194.115" stroke="#4E5A7D" stroke-width="6" stroke-miterlimit="10" stroke-linecap="round" stroke-linejoin="round"/>
<path d="M482.324 107.784V194.115" stroke="#4E5A7D" stroke-width="6" stroke-miterlimit="10" stroke-linecap="round" stroke-linejoin="round"/>
<path d="M447.086 107.784V194.115" stroke="#4E5A7D" stroke-width="6" stroke-miterlimit="10" stroke-linecap="round" stroke-linejoin="round"/>
<path d="M411.848 107.784V194.115" stroke="#4E5A7D" stroke-width="6" stroke-miterlimit="10" stroke-linecap="round" stroke-linejoin="round"/>
<path d="M500.332 891.804C680.561 891.804 826.665 745.698 826.665 565.471C826.665 385.242 680.561 239.139 500.332 239.139C320.104 239.139 174 385.242 174 565.471C174 745.698 320.104 891.804 500.332 891.804Z" fill="#FA9F9F"/>
<path d="M500.336 865.768C324.543 865.768 181.247 726.778 174.395 552.552C174.199 556.858 174.199 561.165 174.199 565.668C174.199 745.963 320.236 892 500.532 892C680.827 892 826.864 745.963 826.864 565.668C826.864 561.361 826.668 556.858 826.668 552.552C819.425 726.583 676.129 865.768 500.336 865.768Z" fill="#F8ACAC"/>
<path d="M500.332 260.477C676.908 260.477 820.792 400.837 826.469 576.238C826.665 572.715 826.665 569.191 826.665 565.667C826.665 385.372 680.628 239.335 500.332 239.335C320.037 239.335 174 385.372 174 565.667C174 569.191 174 572.715 174.196 576.238C179.873 400.837 323.561 260.477 500.332 260.477Z" fill="#E99697"/>
<path d="M500.332 823.484C642.828 823.484 758.344 707.968 758.344 565.472C758.344 422.976 642.828 307.46 500.332 307.46C357.836 307.46 242.32 422.976 242.32 565.472C242.32 707.968 357.836 823.484 500.332 823.484Z" fill="#FBE3D5"/>
<path d="M500.332 791.575C363.3 791.575 251.13 684.69 242.908 549.615C242.516 554.901 242.32 560.186 242.32 565.472C242.32 707.985 357.819 823.484 500.332 823.484C642.846 823.484 758.344 707.985 758.344 565.472C758.344 560.186 758.149 554.901 757.757 549.615C749.535 684.69 637.365 791.575 500.332 791.575Z" fill="#FFF4EE"/>
<path d="M500.332 340.543C637.169 340.543 749.144 447.233 757.757 581.916C758.149 576.435 758.344 570.953 758.344 565.472C758.344 422.959 642.846 307.46 500.332 307.46C357.819 307.46 242.32 422.959 242.32 565.472C242.32 570.953 242.516 576.435 242.908 581.916C251.521 447.233 363.496 340.543 500.332 340.543Z" fill="#F9D1BD"/>
<path d="M501.699 560.186V657.283" stroke="#4E5A7D" stroke-width="13" stroke-miterlimit="10" stroke-linecap="round" stroke-linejoin="round"/>
<path d="M501.699 560.186V416.106" stroke="#4E5A7D" stroke-width="13" stroke-miterlimit="10" stroke-linecap="round" stroke-linejoin="round"/>
<path d="M500.332 823.484C642.828 823.484 758.344 707.968 758.344 565.472C758.344 422.976 642.828 307.46 500.332 307.46C357.836 307.46 242.32 422.976 242.32 565.472C242.32 707.968 357.836 823.484 500.332 823.484Z" stroke="#4E5A7D" stroke-width="6" stroke-miterlimit="10" stroke-linecap="round" stroke-linejoin="round"/>
<path d="M501.699 315.095V366.188" stroke="#4E5A7D" stroke-width="10" stroke-miterlimit="10" stroke-linecap="round" stroke-linejoin="round"/>
<path d="M501.699 764.952V816.046" stroke="#4E5A7D" stroke-width="10" stroke-miterlimit="10" stroke-linecap="round" stroke-linejoin="round"/>
<path d="M752.073 565.471H701.176" stroke="#4E5A7D" stroke-width="10" stroke-miterlimit="10" stroke-linecap="round" stroke-linejoin="round"/>
<path d="M302.222 565.471H251.324" stroke="#4E5A7D" stroke-width="10" stroke-miterlimit="10" stroke-linecap="round" stroke-linejoin="round"/>
<path d="M683.368 383.806L664.379 402.99" stroke="#4E5A7D" stroke-width="6" stroke-miterlimit="10" stroke-linecap="round" stroke-linejoin="round"/>
<path d="M339.023 728.149L318.664 748.704" stroke="#4E5A7D" stroke-width="6" stroke-miterlimit="10" stroke-linecap="round" stroke-linejoin="round"/>
<path d="M683.368 747.136L664.379 728.147" stroke="#4E5A7D" stroke-width="6" stroke-miterlimit="10" stroke-linecap="round" stroke-linejoin="round"/>
<path d="M339.023 402.99L318.664 382.436" stroke="#4E5A7D" stroke-width="6" stroke-miterlimit="10" stroke-linecap="round" stroke-linejoin="round"/>
<path d="M501.701 586.613C516.297 586.613 528.129 574.779 528.129 560.185C528.129 545.59 516.297 533.758 501.701 533.758C487.105 533.758 475.273 545.59 475.273 560.185C475.273 574.779 487.105 586.613 501.701 586.613Z" fill="#FBE3D5"/>
<path d="M501.701 586.613C516.297 586.613 528.129 574.779 528.129 560.185C528.129 545.59 516.297 533.758 501.701 533.758C487.105 533.758 475.273 545.59 475.273 560.185C475.273 574.779 487.105 586.613 501.701 586.613Z" stroke="#4E5A7D" stroke-width="9" stroke-miterlimit="10" stroke-linecap="round" stroke-linejoin="round"/>
<path d="M501.706 675.49C511.76 675.49 519.911 667.34 519.911 657.284C519.911 647.23 511.76 639.078 501.706 639.078C491.651 639.078 483.5 647.23 483.5 657.284C483.5 667.34 491.651 675.49 501.706 675.49Z" fill="#FBE3D5"/>
<path d="M501.706 675.49C511.76 675.49 519.911 667.34 519.911 657.284C519.911 647.23 511.76 639.078 501.706 639.078C491.651 639.078 483.5 647.23 483.5 657.284C483.5 667.34 491.651 675.49 501.706 675.49Z" stroke="#4E5A7D" stroke-width="6" stroke-miterlimit="10" stroke-linecap="round" stroke-linejoin="round"/>
<path d="M500.332 891.804C680.561 891.804 826.665 745.698 826.665 565.471C826.665 385.242 680.561 239.139 500.332 239.139C320.104 239.139 174 385.242 174 565.471C174 745.698 320.104 891.804 500.332 891.804Z" stroke="#4E5A7D" stroke-width="6" stroke-miterlimit="10" stroke-linecap="round" stroke-linejoin="round"/>
</svg>
