<svg width="1000" height="1000" viewBox="0 0 1000 1000" fill="none" xmlns="http://www.w3.org/2000/svg">
<path d="M638.318 924.315C638.318 924.315 615.103 724.446 617.4 708.124C619.698 691.802 642.201 596.285 651.63 575.209C665.86 541.592 676.265 506.482 682.65 470.54C688.473 433.34 686.612 423 687.879 418.602C689.147 414.205 690.336 337.268 684.908 313.894C679.48 290.52 665.892 248.209 665.892 248.209C665.892 248.209 664.149 206.928 630.751 150.751C597.354 94.5739 597.315 93.1081 577.506 79.1629C557.697 65.2176 538.127 55.7096 518.833 53.5702C499.54 51.4309 482.068 56.6207 489.081 82.8869C496.093 109.153 525.172 133.082 525.172 133.082C525.172 133.082 544.386 169.173 552.349 182.128C557.828 191.431 562.672 201.093 566.849 211.048L568.513 250.863L556.271 275.109C544.941 263.463 535.85 249.832 529.45 234.898C521.131 213.108 489.477 232.164 479.097 266.591C468.717 301.019 317.974 403.389 324.59 454.812C331.206 506.235 335.01 631.584 359.612 689.623C384.214 747.662 390.553 757.725 390.553 757.725L386.591 946.936" fill="#FFE7E7"/>
<path d="M386.708 948.6C386.182 948.58 385.684 948.359 385.316 947.984C384.948 947.608 384.737 947.105 384.727 946.579L388.689 757.923C387.144 755.268 379.656 741.402 357.906 690.098C339.445 646.519 332.591 565.146 327.599 505.799C325.896 485.357 324.43 467.727 322.726 454.733C318.765 422.683 371.376 373.637 417.808 330.335C446.292 303.871 473.272 278.833 477.233 265.72C484.919 240.167 503.697 223.844 516.652 223.369C519.922 223.256 523.137 224.229 525.796 226.135C528.454 228.042 530.407 230.774 531.35 233.907C537.246 247.756 545.519 260.466 555.794 271.464L566.57 250.269L564.906 211.325C560.799 201.578 556.048 192.115 550.683 182.999C543.235 170.837 525.606 137.915 523.625 134.191C520.297 131.378 493.991 108.677 487.177 83.2433C484.285 72.3882 485.236 64.0686 489.99 58.5618C495.299 52.3815 505.361 49.9252 519.108 51.4307C537.293 53.4512 556.784 61.9292 578.534 77.3799C597.392 90.6516 599.016 93.2268 626.075 139.183L632.255 149.602C663.949 203.164 667.435 243.93 667.673 247.694C668.782 251.18 681.499 290.956 686.649 313.26C692.196 337.031 691.047 413.888 689.581 418.998C689.158 421.217 688.972 423.475 689.026 425.733C688.485 440.793 686.95 455.801 684.431 470.659C678.095 506.89 667.703 542.292 653.45 576.199C644.259 596.641 621.756 692.356 619.34 708.56C616.923 724.763 640.06 922.254 640.297 924.275C640.326 924.535 640.303 924.798 640.23 925.05C640.157 925.301 640.035 925.535 639.871 925.74C639.54 926.152 639.06 926.416 638.534 926.474C638.009 926.532 637.482 926.378 637.07 926.048C636.657 925.717 636.393 925.236 636.336 924.711C635.385 916.55 613.12 724.407 615.378 708.005C617.636 691.604 640.218 595.928 649.805 574.575C663.934 541.099 674.285 506.152 680.667 470.382C683.183 455.59 684.718 440.648 685.263 425.654C685.201 423.086 685.44 420.52 685.976 418.008C687.085 414.046 688.274 337.11 682.965 314.251C677.656 291.392 664.147 249.16 664.028 248.764C663.996 248.593 663.996 248.419 664.028 248.249C664.028 247.813 661.888 206.73 629.165 151.702L622.984 141.282C595.688 95.2473 594.658 93.4645 576.514 80.7077C555.16 65.6532 536.263 57.4129 518.752 55.4717C510.115 54.5208 498.666 54.7189 493.08 61.2161C489.118 65.6929 488.564 72.7844 491.099 82.2925C497.874 107.647 526.24 131.22 526.517 131.457C526.729 131.616 526.904 131.819 527.032 132.052C527.032 132.408 546.325 168.262 554.13 181.018C559.671 190.408 564.569 200.163 568.788 210.216C568.829 210.439 568.829 210.667 568.788 210.89L570.452 250.705C570.546 251.028 570.546 251.372 570.452 251.695L558.171 275.822C558.029 276.096 557.826 276.334 557.579 276.519C557.333 276.704 557.047 276.832 556.745 276.892C556.431 276.931 556.113 276.902 555.812 276.806C555.511 276.71 555.235 276.55 555.002 276.337C543.411 264.538 534.115 250.688 527.587 235.492C526.976 233.118 525.559 231.03 523.579 229.585C521.599 228.139 519.179 227.427 516.731 227.568C505.163 228.004 488.168 243.217 481.076 267.186C476.797 281.329 450.769 305.535 420.62 333.584C377.042 374.073 322.766 424.505 326.649 454.535C328.312 467.648 329.778 485.317 331.521 505.76C336.474 564.869 343.407 645.846 361.512 688.83C385.638 745.76 392.254 756.576 392.294 756.695C392.5 757.013 392.61 757.385 392.611 757.764L388.649 946.976C388.574 947.434 388.336 947.85 387.98 948.148C387.624 948.446 387.172 948.606 386.708 948.6Z" fill="#363A5A"/>
<path d="M329.74 476.681C329.74 476.681 342.814 525.806 368.565 541.653C394.316 557.5 425.02 548.467 425.02 548.467L453.782 566.295L565.7 416.7C565.7 416.7 589.47 344.399 587.489 318.648C585.509 292.897 583.528 277.05 579.566 274.079C575.604 271.108 546.882 259.183 546.882 259.183L535.987 246.307L522.359 220.873C511.772 253.033 494.089 282.4 470.619 306.803C432.943 344.439 358.661 399.903 343.844 430.606C329.027 461.309 324.788 454.891 329.74 476.681Z" fill="#363A5A"/>
<path d="M453.741 568.276C453.378 568.283 453.02 568.187 452.711 567.998L424.701 550.606C419.393 551.993 391.621 558.054 367.534 543.237C341.387 527.153 328.352 479.097 327.917 477.077C324.43 461.706 325.342 459.566 331.443 449.345C335.345 443.011 338.915 436.479 342.139 429.774C352.083 409.213 387.422 378.272 421.651 348.599C439.558 332.989 456.474 318.252 469.191 305.376C492.375 281.191 509.886 252.149 520.456 220.358C520.574 219.982 520.797 219.648 521.099 219.396C521.401 219.143 521.769 218.982 522.159 218.932C522.549 218.893 522.941 218.97 523.286 219.153C523.631 219.336 523.915 219.618 524.101 219.962L537.65 245.238L548.069 257.598C559.213 262.011 570.123 266.996 580.753 272.534C584.913 275.624 587.052 286.796 589.469 318.529C591.45 344.399 568.551 414.403 567.6 417.374C567.518 417.571 567.412 417.758 567.283 417.928L455.365 567.523C455.17 567.765 454.922 567.958 454.641 568.089C454.359 568.219 454.051 568.283 453.741 568.276ZM425.018 546.486C425.398 546.487 425.769 546.597 426.088 546.803L453.265 563.68L563.916 415.789C565.619 410.639 587.409 343.013 585.547 318.807C584.517 305.772 582.457 278.674 578.376 275.664C567.895 270.219 557.13 265.339 546.128 261.045C545.838 260.92 545.58 260.73 545.375 260.49L534.48 247.615L534.243 247.258L522.793 225.865C511.892 256.585 494.579 284.634 472.004 308.15C459.049 321.104 442.093 335.882 424.107 351.53C390.234 381.085 355.173 411.629 345.586 431.438C340.951 441.025 337.346 447.007 334.731 451.247C329.026 460.715 328.432 461.745 331.641 475.968C332.077 477.473 345.11 524.657 369.594 539.751C394.077 554.845 424.186 546.526 424.503 546.446L425.018 546.486Z" fill="#363A5A"/>
<path d="M548.069 135.974C542.04 136.053 536.061 134.865 530.519 132.487C530.046 132.256 529.685 131.847 529.514 131.349C529.343 130.851 529.377 130.306 529.608 129.833C529.839 129.36 530.249 128.998 530.746 128.827C531.244 128.657 531.789 128.691 532.262 128.922C533.134 129.357 554.012 139.103 577.584 121.592C578.013 121.292 578.541 121.169 579.059 121.25C579.576 121.331 580.042 121.61 580.357 122.028C580.673 122.448 580.808 122.977 580.734 123.497C580.659 124.017 580.382 124.486 579.961 124.801C570.834 131.905 559.634 135.828 548.069 135.974Z" fill="#363A5A"/>
<path d="M489.198 369.596L483.176 432.983C483.104 433.737 483.275 434.495 483.663 435.146C484.051 435.797 484.636 436.307 485.334 436.603C486.031 436.899 486.805 436.964 487.543 436.791C488.28 436.617 488.943 436.213 489.436 435.637L530.083 386.631L489.198 369.596Z" fill="#FFE7E7"/>
<path d="M486.621 438.807C485.845 438.794 485.081 438.621 484.375 438.3C483.668 437.979 483.036 437.516 482.516 436.94C481.996 436.364 481.599 435.688 481.352 434.953C481.104 434.218 481.01 433.44 481.075 432.666L487.097 369.279C487.123 368.971 487.224 368.673 487.389 368.411C487.554 368.149 487.78 367.931 488.047 367.774C488.325 367.637 488.63 367.566 488.939 367.566C489.248 367.566 489.553 367.637 489.83 367.774L530.715 384.69C531.01 384.809 531.272 384.997 531.478 385.238C531.685 385.48 531.831 385.767 531.903 386.077C531.97 386.381 531.966 386.697 531.89 386.999C531.814 387.302 531.67 387.583 531.468 387.82L490.821 436.826C490.311 437.447 489.669 437.946 488.943 438.289C488.217 438.631 487.424 438.808 486.621 438.807ZM490.583 372.449L485.234 433.063C485.185 433.401 485.252 433.746 485.425 434.042C485.598 434.337 485.866 434.565 486.185 434.687C486.488 434.828 486.829 434.862 487.153 434.783C487.477 434.703 487.765 434.516 487.968 434.251L526.912 387.305L490.583 372.449Z" fill="#363A5A"/>
<path d="M485.709 404.974L483.055 432.706C482.983 433.46 483.154 434.217 483.542 434.868C483.93 435.519 484.515 436.03 485.213 436.325C485.91 436.621 486.684 436.687 487.421 436.514C488.159 436.34 488.822 435.936 489.314 435.36L507.221 413.729L485.709 404.974Z" fill="#363A5A"/>
<path d="M486.621 438.807C485.845 438.793 485.081 438.62 484.375 438.299C483.668 437.978 483.036 437.515 482.516 436.939C481.996 436.364 481.599 435.687 481.352 434.952C481.104 434.217 481.01 433.439 481.075 432.666L483.729 404.934C483.77 404.624 483.875 404.326 484.039 404.06C484.203 403.793 484.421 403.565 484.68 403.389C484.957 403.253 485.262 403.182 485.571 403.182C485.88 403.182 486.185 403.253 486.463 403.389L508.014 412.303C508.294 412.428 508.542 412.614 508.741 412.847C508.94 413.08 509.084 413.354 509.163 413.65C509.242 413.951 509.247 414.266 509.178 414.57C509.109 414.873 508.968 415.155 508.767 415.393L490.821 437.024C490.292 437.608 489.642 438.07 488.917 438.378C488.192 438.686 487.409 438.832 486.621 438.807ZM487.413 407.826L485.036 433.062C484.987 433.401 485.054 433.746 485.227 434.041C485.399 434.336 485.668 434.564 485.987 434.686C486.29 434.827 486.631 434.861 486.955 434.782C487.279 434.703 487.567 434.515 487.77 434.251L504.013 414.68L487.413 407.826Z" fill="#363A5A"/>
<path d="M430.922 510.197C430.796 514.35 429.711 518.417 427.752 522.082C424.727 527.021 420.531 531.138 415.535 534.068C410.538 536.998 404.897 538.651 399.109 538.879C384.451 539.513 360.918 525.806 344.556 507.186C328.194 488.566 323.361 461.309 316.111 442.332C308.861 423.356 308.188 405.093 321.777 380.649C335.365 356.205 365.157 365.04 365.157 365.04C365.157 365.04 386.432 434.805 395.464 452.752C404.497 470.698 430.922 510.197 430.922 510.197Z" fill="#FFE7E7"/>
<path d="M398.079 541.058C382.866 541.058 359.412 527.351 342.971 508.731C330.571 494.627 324.708 475.849 319.518 459.289C317.735 453.544 316.032 448.117 314.209 443.244C305.771 421.137 307.514 402.2 319.954 379.856C334.216 354.343 365.315 363.257 365.632 363.336C365.949 363.435 366.236 363.61 366.471 363.844C366.705 364.079 366.88 364.367 366.979 364.683C367.177 365.356 388.333 434.449 397.167 452.078C406.002 469.708 432.189 508.691 432.466 509.087C432.666 509.383 432.788 509.723 432.823 510.078C432.747 514.645 431.579 519.128 429.416 523.151C426.233 528.401 421.799 532.781 416.511 535.899C411.222 539.017 405.243 540.776 399.109 541.019L398.079 541.058ZM352.638 365.594C346.745 365.31 340.89 366.676 335.732 369.539C330.574 372.401 326.317 376.647 323.44 381.798C311.555 403.27 309.812 420.662 317.894 441.857C319.795 446.809 321.499 452.316 323.321 458.1C328.392 474.304 334.097 492.646 345.943 506.076C361.789 523.944 383.856 537.097 397.999 537.097H398.95C404.393 536.856 409.695 535.286 414.391 532.524C419.087 529.761 423.035 525.89 425.89 521.25C427.612 517.986 428.624 514.395 428.861 510.712C425.573 505.839 402.12 470.738 393.602 453.782C385.084 436.826 366.306 375.934 363.493 366.822C359.964 365.979 356.345 365.566 352.717 365.594H352.638Z" fill="#363A5A"/>
<path d="M385.083 535.195C384.753 535.191 384.428 535.106 384.138 534.947C383.848 534.788 383.601 534.561 383.42 534.284C375.021 521.29 376.645 518.834 377.16 518.002C377.493 517.523 377.961 517.154 378.504 516.942C379.047 516.73 379.642 516.685 380.211 516.813C384.172 517.447 398.316 516.06 403.981 511.544C410.518 506.433 411.587 505.918 417.292 510.118C421.498 513.417 425.469 517.005 429.177 520.854C429.363 521.038 429.51 521.257 429.611 521.499C429.711 521.74 429.763 521.999 429.763 522.261C429.763 522.522 429.711 522.781 429.611 523.022C429.51 523.264 429.363 523.483 429.177 523.667C428.997 523.851 428.781 523.998 428.543 524.098C428.305 524.198 428.049 524.25 427.791 524.25C427.532 524.25 427.277 524.198 427.039 524.098C426.801 523.998 426.585 523.851 426.404 523.667C422.899 520.001 419.154 516.573 415.193 513.406C411.667 510.791 411.667 510.791 406.635 514.753C400.296 519.666 386.827 521.29 380.884 520.933C382.459 524.897 384.451 528.682 386.827 532.224C387.11 532.666 387.206 533.201 387.095 533.714C386.983 534.226 386.673 534.674 386.232 534.958C385.88 535.145 385.481 535.227 385.083 535.195Z" fill="#363A5A"/>
<path d="M356.166 494.826C355.84 494.826 355.519 494.742 355.235 494.583C354.95 494.423 354.712 494.193 354.542 493.915C354.29 493.541 354.177 493.092 354.22 492.644C354.263 492.196 354.461 491.777 354.779 491.458L367.18 478.979C367.553 478.606 368.058 478.396 368.586 478.396C369.113 478.396 369.619 478.606 369.992 478.979C370.365 479.352 370.575 479.858 370.575 480.385C370.575 480.913 370.365 481.419 369.992 481.792L364.565 487.219C370.339 484.908 375.974 482.262 381.442 479.296C381.883 479.013 382.419 478.917 382.931 479.028C383.444 479.139 383.891 479.45 384.175 479.89C384.319 480.11 384.417 480.356 384.463 480.614C384.509 480.872 384.502 481.137 384.443 481.392C384.383 481.648 384.273 481.889 384.118 482.1C383.963 482.312 383.767 482.49 383.541 482.624C374.918 487.218 366.028 491.293 356.919 494.826C356.671 494.885 356.413 494.885 356.166 494.826Z" fill="#363A5A"/>
<path d="M424.067 283.033C424.067 283.033 399.583 268.454 377.715 293.254C355.846 318.054 358.619 340.794 370.465 382.551C382.31 424.307 395.78 460.359 404.456 471.016C413.132 481.673 430.168 514.793 449.58 514C449.58 514 482.146 503.423 487.771 484.842C493.397 466.262 483.057 459.368 483.057 459.368L469.151 434.251L463.724 414.443C463.724 414.443 445.381 371.181 439.953 348.48C434.526 325.78 424.067 283.033 424.067 283.033Z" fill="#FFE7E7"/>
<path d="M448.707 515.981C432.861 515.981 419.43 496.172 409.605 481.554C406.991 477.592 404.772 474.423 402.95 472.164C394.392 461.745 381.239 427.556 368.562 382.986C355.884 338.417 354.339 316.588 376.208 291.867C398.909 266.155 424.818 281.091 425.056 281.249C425.285 281.38 425.484 281.556 425.641 281.768C425.797 281.979 425.909 282.221 425.967 282.478C425.967 282.913 436.109 325.423 441.576 347.885C447.044 370.348 465.347 413.095 465.347 413.531L470.774 433.34L484.363 457.863C486.462 459.487 494.901 467.45 489.473 485.278C483.61 504.611 451.362 515.268 449.856 515.704C449.685 515.722 449.512 515.722 449.341 515.704L448.707 515.981ZM406.951 280.616C401.591 280.735 396.325 282.04 391.53 284.438C386.734 286.835 382.53 290.266 379.219 294.482C358.578 317.816 360.322 339.368 372.405 381.917C384.765 425.495 397.958 459.764 406.04 469.668C407.981 472.046 410.279 475.413 412.933 479.335C421.807 492.488 435.277 512.178 449.104 512.019C452.114 510.989 480.797 500.808 485.789 484.287C490.781 467.767 482.184 461.309 481.827 461.032C481.559 460.869 481.34 460.636 481.193 460.359L467.288 435.241C467.266 435.097 467.266 434.95 467.288 434.805L461.86 414.997C461.86 414.997 443.478 371.418 438.09 348.955C433.059 328.275 424.145 290.599 422.679 284.419C417.811 281.925 412.421 280.622 406.951 280.616Z" fill="#363A5A"/>
<path d="M423.037 454.218C422.586 454.22 422.147 454.068 421.794 453.787C421.441 453.506 421.195 453.113 421.095 452.673C420.989 452.153 421.092 451.613 421.381 451.168C421.67 450.723 422.123 450.41 422.641 450.296C429.88 447.733 436.869 444.511 443.519 440.669C443.748 440.544 443.999 440.464 444.258 440.436C444.518 440.408 444.78 440.432 445.03 440.505C445.281 440.579 445.514 440.701 445.717 440.865C445.92 441.029 446.088 441.232 446.213 441.461C446.459 441.921 446.518 442.458 446.378 442.96C446.238 443.462 445.909 443.89 445.46 444.155C438.43 448.144 431.059 451.499 423.433 454.178L423.037 454.218Z" fill="#363A5A"/>
<path d="M411.904 449.742C411.544 449.73 411.191 449.635 410.874 449.464C410.436 449.179 410.122 448.738 409.997 448.231C409.872 447.723 409.945 447.187 410.2 446.731C414.162 440.075 429.217 436.47 430.92 436.074C431.173 436.003 431.437 435.986 431.697 436.023C431.957 436.059 432.206 436.149 432.429 436.287C432.652 436.425 432.845 436.607 432.994 436.823C433.143 437.038 433.247 437.282 433.297 437.54C433.416 438.049 433.329 438.585 433.054 439.03C432.78 439.476 432.34 439.794 431.831 439.917C427.87 440.868 416.301 444.354 413.607 448.791C413.427 449.08 413.176 449.319 412.878 449.486C412.58 449.652 412.245 449.74 411.904 449.742Z" fill="#363A5A"/>
<path d="M449.265 505.998C446.727 506.106 444.232 505.321 442.213 503.779C441.141 502.779 440.321 501.54 439.818 500.164C439.316 498.787 439.145 497.311 439.321 495.856C439.876 484.327 464.478 482.069 467.053 481.871C467.312 481.838 467.575 481.858 467.826 481.932C468.077 482.005 468.31 482.129 468.511 482.296C468.712 482.463 468.876 482.67 468.993 482.904C469.11 483.137 469.178 483.393 469.192 483.654C469.214 483.914 469.184 484.176 469.104 484.424C469.024 484.673 468.896 484.904 468.726 485.102C468.557 485.301 468.35 485.465 468.117 485.583C467.884 485.702 467.63 485.773 467.37 485.793C461.19 486.268 443.6 489.2 443.085 496.054C442.963 496.896 443.035 497.755 443.296 498.565C443.557 499.376 444 500.116 444.59 500.729C446.549 501.915 448.892 502.299 451.127 501.798C451.382 501.746 451.645 501.745 451.9 501.794C452.155 501.844 452.399 501.943 452.616 502.087C452.833 502.23 453.019 502.415 453.165 502.63C453.311 502.846 453.412 503.088 453.464 503.343C453.522 503.596 453.529 503.857 453.485 504.113C453.44 504.368 453.345 504.612 453.204 504.829C453.064 505.047 452.882 505.235 452.668 505.381C452.454 505.527 452.213 505.629 451.959 505.681C451.074 505.876 450.171 505.983 449.265 505.998Z" fill="#363A5A"/>
<path d="M522.396 265.047C526.247 250.614 526.247 235.425 522.396 220.992C515.899 197.42 502.588 186.05 487.018 186.724C471.449 187.397 446.648 186.724 435.952 216.397C425.255 246.07 424.859 279.23 424.067 304.981C423.274 330.732 428.94 355.215 434.842 364.129C440.745 373.043 475.173 428.507 479.095 434.766C483.017 441.026 496.843 442.254 512.135 435.202C527.428 428.15 536.857 412.105 536.341 400.22C535.826 388.335 516.929 330.573 516.929 330.573C519.368 323.384 520.898 315.917 521.485 308.348C522.719 293.949 523.024 279.485 522.396 265.047Z" fill="#FFE7E7"/>
<path d="M492.369 441.977C485.476 441.977 480.008 439.917 477.433 435.796C476.483 434.331 473.828 430.092 470.263 424.347C458.853 406.044 437.658 372.013 433.181 365.238C427.12 356.047 421.296 330.969 422.088 304.901V301.138C422.801 275.862 423.673 244.406 433.973 215.723C444.512 186.248 468.401 185.416 484.208 184.822H486.823C504.056 184.069 517.724 197.103 524.181 220.477C528.086 235.158 528.086 250.604 524.181 265.284C524.801 279.671 524.484 294.082 523.231 308.427C522.533 315.906 521.046 323.289 518.794 330.454C521.012 337.308 537.651 388.652 538.127 400.141C538.642 412.264 529.292 429.339 512.772 436.985C506.4 440.072 499.446 441.774 492.369 441.977ZM488.209 188.665H487.06H484.446C468.836 189.219 447.443 190.012 437.777 216.951C427.753 245 426.882 276.139 426.169 301.138V304.901C425.456 330.217 430.883 354.264 436.588 362.941C441.104 369.755 462.339 403.825 473.749 422.128L480.88 433.578C484.129 438.728 496.727 440.075 511.425 433.261C526.123 426.447 534.957 410.996 534.482 400.181C534.007 388.692 515.307 331.484 515.109 330.89C514.952 330.428 514.952 329.926 515.109 329.464C517.476 322.465 518.967 315.199 519.546 307.833C520.74 293.591 521.044 279.287 520.458 265.007C520.397 264.787 520.397 264.554 520.458 264.333C524.183 250.261 524.183 235.461 520.458 221.389C514.673 200.55 502.986 188.665 488.209 188.665Z" fill="#363A5A"/>
<path d="M524.3 421.058C523.944 421.055 523.596 420.958 523.29 420.777C522.984 420.597 522.731 420.338 522.557 420.028C516.456 409.054 497.756 381.917 484.366 388.612C468.123 396.773 471.649 411.075 471.807 411.709C471.938 412.234 471.856 412.79 471.577 413.254C471.298 413.719 470.847 414.053 470.321 414.185C469.796 414.316 469.24 414.233 468.776 413.955C468.311 413.676 467.977 413.224 467.845 412.699C466.688 407.094 467.517 401.26 470.192 396.2C472.867 391.139 477.22 387.168 482.504 384.967C501.956 375.221 524.934 416.265 526.083 418.008C526.325 418.472 526.379 419.012 526.231 419.515C526.083 420.017 525.746 420.443 525.29 420.702C524.998 420.908 524.656 421.031 524.3 421.058Z" fill="#363A5A"/>
<path d="M443.915 342.814C443.568 342.796 443.23 342.702 442.924 342.537C442.472 342.265 442.144 341.826 442.011 341.315C441.877 340.805 441.95 340.262 442.211 339.803C447.037 332.64 454.122 327.298 462.337 324.63C462.831 324.441 463.379 324.456 463.862 324.671C464.345 324.887 464.723 325.285 464.912 325.779C465.101 326.273 465.086 326.821 464.871 327.304C464.655 327.787 464.257 328.165 463.763 328.354C456.389 330.688 450.013 335.432 445.658 341.824C445.479 342.126 445.224 342.377 444.918 342.55C444.612 342.724 444.267 342.815 443.915 342.814Z" fill="#363A5A"/>
<path d="M473.35 325.303C472.825 325.366 472.296 325.218 471.88 324.891C471.464 324.564 471.194 324.086 471.131 323.56C471.068 323.035 471.217 322.506 471.543 322.09C471.87 321.674 472.349 321.405 472.875 321.342C475.731 320.634 478.629 320.105 481.551 319.757C482.076 319.704 482.601 319.863 483.009 320.197C483.418 320.531 483.677 321.014 483.73 321.54C483.782 322.065 483.624 322.59 483.29 322.998C482.955 323.407 482.472 323.666 481.947 323.719C479.281 324.082 476.637 324.585 474.024 325.224L473.35 325.303Z" fill="#363A5A"/>
<path d="M455.878 343.211C455.617 343.253 455.352 343.243 455.096 343.182C454.839 343.12 454.597 343.01 454.384 342.855C454.171 342.701 453.99 342.506 453.852 342.281C453.714 342.057 453.622 341.807 453.58 341.547C453.538 341.287 453.548 341.021 453.609 340.765C453.67 340.509 453.781 340.267 453.936 340.054C454.09 339.84 454.285 339.659 454.51 339.521C454.734 339.383 454.984 339.291 455.244 339.249C462.888 336.666 470.265 333.349 477.271 329.345C477.487 329.199 477.729 329.098 477.985 329.046C478.24 328.994 478.503 328.993 478.758 329.042C479.014 329.092 479.257 329.191 479.475 329.335C479.692 329.479 479.879 329.664 480.024 329.88C480.17 330.096 480.272 330.338 480.324 330.594C480.376 330.849 480.377 331.112 480.327 331.367C480.277 331.623 480.178 331.866 480.034 332.084C479.89 332.301 479.705 332.488 479.489 332.633C472.211 336.871 464.51 340.337 456.512 342.973C456.317 343.092 456.102 343.173 455.878 343.211Z" fill="#363A5A"/>
<path d="M430.723 635.863C430.723 635.863 439.28 556.628 461.703 500.61C484.127 444.591 515.147 419.474 525.764 409.847C533.878 402.06 541.487 393.763 548.544 385.007L566.372 350.342C566.372 350.342 568.511 292.422 567.758 275.069C567.006 257.717 570.967 220.834 594.817 177.611C618.666 134.389 635.979 130.903 646.834 126.783C657.689 122.662 680.905 129.952 687.679 138.668C694.454 147.383 663.909 210.295 665.018 231.372C666.128 252.448 659.512 296.74 657.491 336.278C655.471 375.816 658.006 395.704 651.192 457.07C644.378 518.437 637.247 571.524 637.247 571.524" fill="#FFE7E7"/>
<path d="M430.723 637.843H430.485C429.966 637.784 429.491 637.521 429.165 637.113C428.838 636.705 428.686 636.184 428.742 635.664C428.742 634.872 437.616 555.479 459.841 499.896C480.957 447.087 509.798 421.415 522.119 410.441L524.417 408.381C532.412 400.714 539.914 392.55 546.88 383.937L564.391 349.827C564.391 344.439 566.49 291.431 565.777 275.109C565.342 264.452 565.976 225.746 593.113 176.621C615.576 135.934 632.453 129.833 643.625 125.792L646.121 124.881C657.491 120.563 681.776 127.654 689.264 137.598C693.226 142.827 688.155 158.635 679.478 184.069C673.14 202.61 666.563 221.745 666.999 231.609C666.843 249.327 665.719 267.022 663.632 284.617C662.087 300.939 660.343 319.48 659.67 336.674C659.036 349.55 658.838 360.444 658.68 371.141C658.402 399.955 656.564 428.733 653.173 457.348C646.438 518.001 639.267 571.366 639.188 571.881C639.119 572.401 638.846 572.872 638.431 573.191C638.015 573.51 637.489 573.652 636.969 573.584C636.454 573.506 635.989 573.231 635.672 572.818C635.354 572.404 635.209 571.884 635.266 571.366C635.266 570.811 642.516 517.526 649.211 456.912C652.546 428.334 654.319 399.595 654.52 370.824C654.52 360.167 654.876 349.153 655.55 336.238C656.421 318.965 658.165 300.385 659.71 284.023C661.761 266.598 662.872 249.075 663.037 231.53C662.602 221.15 669.257 201.619 675.715 182.722C681.657 165.37 689.026 143.778 686.134 139.935C679.637 131.457 657.253 124.881 647.507 128.565L644.972 129.476C634.355 133.438 618.31 139.103 596.56 178.483C569.937 226.736 569.303 264.492 569.739 274.911C570.452 292.184 568.353 349.787 568.353 350.183C568.321 350.472 568.24 350.753 568.115 351.015L550.327 386.037L550.089 386.393C542.971 395.233 535.282 403.597 527.071 411.431L524.734 413.531C512.651 424.307 484.325 449.543 463.526 501.481C441.498 556.589 432.783 635.427 432.664 636.179C432.597 636.645 432.363 637.07 432.006 637.376C431.649 637.682 431.193 637.848 430.723 637.843Z" fill="#363A5A"/>
<path d="M659.75 205.224C652.065 205.224 640.299 201.262 635.069 193.973C627.661 183.831 644.498 143.897 649.688 137.32C655.868 129.397 675.835 131.219 678.054 131.457C678.314 131.482 678.567 131.558 678.798 131.681C679.029 131.804 679.234 131.972 679.399 132.175C679.565 132.377 679.689 132.611 679.764 132.862C679.839 133.113 679.864 133.376 679.836 133.636C679.817 133.895 679.745 134.147 679.626 134.378C679.507 134.609 679.343 134.813 679.143 134.98C678.944 135.146 678.713 135.27 678.465 135.346C678.216 135.421 677.955 135.446 677.697 135.419C672.151 134.864 656.898 134.547 652.817 139.777C647.152 146.947 633.009 184.227 638.278 191.635C644.102 199.559 659.236 202.491 663.078 200.787C663.557 200.573 664.1 200.556 664.59 200.742C665.08 200.928 665.477 201.3 665.693 201.777C665.805 202.013 665.868 202.269 665.878 202.53C665.888 202.791 665.846 203.051 665.754 203.295C665.661 203.539 665.52 203.762 665.34 203.951C665.159 204.139 664.943 204.289 664.703 204.392C663.125 205.001 661.44 205.284 659.75 205.224Z" fill="#363A5A"/>
<path d="M632.731 266.513C632.282 266.514 631.846 266.364 631.494 266.085C631.142 265.806 630.895 265.416 630.793 264.979C630.692 264.541 630.742 264.082 630.936 263.677C631.13 263.272 631.456 262.945 631.86 262.749C639.149 259.263 656.066 261.442 656.818 261.56C657.331 261.639 657.792 261.915 658.103 262.33C658.415 262.745 658.551 263.265 658.482 263.779C658.413 264.299 658.141 264.77 657.725 265.089C657.309 265.409 656.784 265.55 656.264 265.483C651.708 264.888 638.753 263.858 633.603 266.314C633.328 266.436 633.032 266.503 632.731 266.513Z" fill="#363A5A"/>
<path d="M643.031 276.733C636.232 276.72 629.503 275.374 623.222 272.772C622.957 272.688 622.712 272.55 622.503 272.365C622.295 272.18 622.128 271.954 622.013 271.701C621.898 271.447 621.838 271.172 621.836 270.894C621.834 270.616 621.891 270.34 622.003 270.085C622.115 269.83 622.28 269.602 622.486 269.415C622.692 269.228 622.936 269.087 623.2 269C623.465 268.913 623.744 268.883 624.021 268.912C624.298 268.941 624.566 269.027 624.807 269.167C633.239 272.656 642.51 273.593 651.469 271.861C651.729 271.795 652 271.782 652.265 271.822C652.53 271.861 652.785 271.953 653.015 272.091C653.245 272.229 653.445 272.41 653.605 272.626C653.765 272.841 653.88 273.086 653.945 273.346C654.01 273.606 654.024 273.877 653.984 274.142C653.945 274.407 653.853 274.662 653.715 274.892C653.577 275.122 653.395 275.322 653.18 275.482C652.965 275.642 652.72 275.757 652.46 275.822C649.368 276.521 646.2 276.827 643.031 276.733Z" fill="#363A5A"/>
<path d="M636.059 301.652C621.876 301.652 617.439 293.253 617.202 292.817C616.977 292.348 616.942 291.81 617.105 291.315C617.267 290.821 617.614 290.408 618.073 290.163C618.541 289.928 619.083 289.888 619.58 290.051C620.078 290.214 620.49 290.568 620.728 291.034C620.965 291.431 625.917 300.344 643.745 296.898C643.998 296.84 644.26 296.835 644.515 296.883C644.77 296.93 645.012 297.029 645.228 297.174C645.443 297.319 645.626 297.506 645.766 297.724C645.907 297.942 646.001 298.187 646.043 298.443C646.095 298.698 646.096 298.961 646.047 299.216C645.997 299.471 645.898 299.715 645.755 299.932C645.611 300.149 645.426 300.335 645.211 300.481C644.995 300.627 644.753 300.728 644.498 300.78C641.718 301.333 638.893 301.625 636.059 301.652Z" fill="#363A5A"/>
</svg>
