<svg width="1000" height="1000" viewBox="0 0 1000 1000" fill="none" xmlns="http://www.w3.org/2000/svg">
<path d="M274.964 551.347C217.008 551.347 170.133 598.222 170.133 656.178C170.133 714.133 217.008 761.009 274.964 761.009C332.919 761.009 379.795 714.133 379.795 656.178V551.347H274.964ZM320.987 656.178C320.987 681.533 300.319 702.201 274.964 702.201C249.608 702.201 228.94 681.533 228.94 656.178C228.94 630.822 249.608 610.154 274.964 610.154H320.987V656.178Z" fill="#FB9437"/>
<g opacity="0.4">
<path opacity="0.7" d="M179.932 666.405C179.932 608.449 226.808 561.574 284.763 561.574H377.662V547.085H272.831C214.876 547.085 168 593.961 168 651.916C168 680.681 179.506 706.675 198.256 725.639C186.75 708.806 179.932 688.351 179.932 666.405Z" fill="#FFCB92"/>
</g>
<path d="M280.521 551.347C279.456 551.347 272.851 551.347 271.785 551.347H295.436C290.322 551.347 288.192 559.869 283.504 587.782C281.587 599.075 262.197 598.648 252.183 605.893C240.464 614.203 229.81 632.74 229.81 648.294L230.449 645.737C229.597 642.328 230.449 649.359 230.449 645.737C234.924 626.348 251.543 611.859 271.998 610.367C272.424 610.367 272.851 610.367 273.064 610.367C273.703 610.367 274.555 610.367 275.194 610.367H321.218V656.391C321.218 679.616 303.959 698.792 281.373 701.988C281.373 702.201 281.373 702.201 281.373 702.414C287.126 723.508 267.737 743.324 246.856 736.719C206.585 723.934 174.625 684.729 170.789 646.163C170.363 649.573 170.363 653.195 170.363 656.604C170.363 714.559 217.239 761.435 275.194 761.435C292.453 761.435 308.86 757.173 323.135 749.716C324.414 749.077 325.479 748.438 326.758 747.798C331.658 745.028 336.133 741.832 340.607 738.423C341.673 737.571 342.525 736.932 343.377 736.079C343.59 735.866 343.803 735.653 344.016 735.653C344.869 734.801 345.721 734.162 346.573 733.31C346.786 733.097 346.999 732.883 347.212 732.67C348.065 731.818 348.917 730.966 349.769 730.114C349.982 729.9 350.409 729.474 350.835 729.261C352.965 728.622 354.67 727.344 355.096 725.426C355.735 723.295 357.014 721.804 358.292 720.312C358.931 719.46 359.357 718.821 359.997 717.968C360.423 717.542 360.636 716.903 361.062 716.477C361.488 715.838 362.127 714.985 362.554 714.346C362.98 713.707 363.193 713.281 363.619 712.642C364.045 712.002 364.471 711.15 364.897 710.511C365.324 709.872 365.75 709.232 365.963 708.593C366.602 707.528 367.241 706.463 367.667 705.397C368.093 704.545 368.52 703.693 369.159 702.627C369.372 701.988 369.798 701.349 370.011 700.71C370.437 699.857 370.65 699.218 371.076 698.366C371.29 697.727 371.716 697.087 371.929 696.448C372.355 695.596 372.568 694.744 372.994 693.891C373.207 693.252 373.42 692.613 373.633 691.974C374.059 691.121 374.273 690.056 374.486 689.204C374.699 688.565 374.912 687.925 375.125 687.499C375.551 686.221 375.764 684.942 376.19 683.664C376.19 683.451 376.403 683.238 376.403 682.812C376.829 681.32 377.042 679.829 377.469 678.124C377.682 677.698 377.682 677.059 377.682 676.633C377.895 675.567 378.108 674.502 378.321 673.436C378.321 672.797 378.534 672.158 378.534 671.519C378.747 670.454 378.747 669.388 378.96 668.323C378.96 667.684 379.173 667.044 379.173 666.405C379.173 665.34 379.386 664.061 379.386 662.996C379.386 662.57 379.386 661.931 379.386 661.505C379.386 659.8 379.599 658.095 379.599 656.604V635.51V551.347H280.521Z" fill="#FA8128"/>
<path d="M274.964 551.347C217.008 551.347 170.133 598.222 170.133 656.178C170.133 714.133 217.008 761.009 274.964 761.009C332.919 761.009 379.795 714.133 379.795 656.178V551.347H274.964ZM320.987 656.178C320.987 681.533 300.319 702.201 274.964 702.201C249.608 702.201 228.94 681.533 228.94 656.178C228.94 630.822 249.608 610.154 274.964 610.154H320.987V656.178Z" stroke="#474747" stroke-width="13" stroke-miterlimit="10" stroke-linecap="round" stroke-linejoin="round"/>
<g opacity="0.7">
<path opacity="0.7" d="M688.127 743.749H618.879V674.075L653.61 635.083L688.127 674.075V743.749Z" fill="#A9A9A9" stroke="#FB9437" stroke-width="6" stroke-miterlimit="10" stroke-linecap="round" stroke-linejoin="round"/>
<path opacity="0.7" d="M653.609 509.371V635.083" stroke="#FB9437" stroke-width="6" stroke-miterlimit="10" stroke-linecap="round" stroke-linejoin="round"/>
</g>
<path d="M274.964 551.347C217.008 551.347 170.133 598.222 170.133 656.178C170.133 714.133 217.008 761.009 274.964 761.009C332.919 761.009 379.795 714.133 379.795 656.178V551.347H274.964ZM320.987 656.178C320.987 681.533 300.319 702.201 274.964 702.201C249.608 702.201 228.94 681.533 228.94 656.178C228.94 630.822 249.608 610.154 274.964 610.154H320.987V656.178Z" fill="#FB9437"/>
<path d="M538.326 857.53C413.467 857.53 312.258 756.321 312.258 631.461V509.371H764.608V631.461C764.608 756.321 663.186 857.53 538.326 857.53Z" fill="#FDBA61"/>
<path d="M441.606 631.461V509.371H312.059V631.461C312.059 756.321 413.267 857.53 538.127 857.53C560.713 857.53 582.446 854.333 602.901 848.154C509.789 820.242 441.606 733.735 441.606 631.461Z" fill="#FCA649"/>
<path d="M380.015 631.461V509.371H312.258V631.461C312.258 756.321 413.467 857.53 538.326 857.53C549.832 857.53 561.125 856.677 572.205 854.973C463.538 838.779 380.015 744.815 380.015 631.461Z" fill="#FB9437"/>
<path opacity="0.7" d="M764.608 511.076H312.258V526.204H764.608V511.076Z" fill="#FFCB92"/>
<path d="M538.326 857.53C413.467 857.53 312.258 756.321 312.258 631.461V509.371H764.608V631.461C764.608 756.321 663.186 857.53 538.326 857.53Z" stroke="#474747" stroke-width="6" stroke-miterlimit="10" stroke-linecap="round" stroke-linejoin="round"/>
<path d="M675.346 730.965H606.098V661.291L640.828 622.299L675.346 661.291V730.965Z" fill="#D51C29"/>
<path d="M675.346 730.965H606.098V661.291L640.828 622.299L675.346 661.291V730.965Z" fill="#6AB36F" stroke="#474747" stroke-width="6" stroke-miterlimit="10" stroke-linecap="round" stroke-linejoin="round"/>
<path d="M618.882 674.075L652.76 635.935L640.828 622.299L606.098 661.291V730.965H618.882V674.075Z" fill="#88CE8E"/>
<path d="M640.82 509.371V622.299" stroke="#474747" stroke-width="6" stroke-miterlimit="10" stroke-linecap="round" stroke-linejoin="round"/>
<path d="M516.18 161C499.56 184.864 489.759 224.282 490.185 246.229C491.89 327.196 546.223 327.409 555.172 382.807C557.516 397.509 552.828 421.16 538.339 458.874" stroke="#474747" stroke-width="6" stroke-miterlimit="10" stroke-linecap="round" stroke-linejoin="round"/>
<path d="M579.867 234.297C573.688 245.803 563.461 273.289 602.027 319.099C643.789 368.532 633.988 419.243 620.564 459.087" stroke="#474747" stroke-width="6" stroke-miterlimit="10" stroke-linecap="round" stroke-linejoin="round"/>
<path d="M412.407 255.178C389.822 309.298 423.274 345.307 460.561 384.299C489.752 414.981 460.348 464.627 450.76 474.854" stroke="#474747" stroke-width="6" stroke-miterlimit="10" stroke-linecap="round" stroke-linejoin="round"/>
<path d="M723.918 549.216V636.149" stroke="#474747" stroke-width="6" stroke-miterlimit="10" stroke-linecap="round" stroke-linejoin="round"/>
<path d="M675.346 730.965H606.098V661.291L640.828 622.299L675.346 661.291V730.965Z" stroke="#474747" stroke-width="6" stroke-miterlimit="10" stroke-linecap="round" stroke-linejoin="round"/>
</svg>
