<svg width="1000" height="1000" viewBox="0 0 1000 1000" fill="none" xmlns="http://www.w3.org/2000/svg">
<path d="M840.997 240.756C840.997 240.756 637.65 78.2912 402.679 184.635C167.707 290.978 183.069 581.333 183.069 581.333C183.069 581.333 223.009 550.077 285.152 571.092C285.152 571.092 296.663 483.756 389.775 505.549C389.775 505.549 453.147 402.524 551.051 447.544C551.051 447.544 584.437 352.015 706.306 382.492C706.101 382.451 749.728 274.387 840.997 240.756Z" fill="#00CBE9"/>
<g opacity="0.4">
<path d="M840.997 240.756C840.997 240.756 637.65 78.2912 402.679 184.635C167.707 290.978 183.069 581.333 183.069 581.333C183.069 581.333 223.009 550.077 285.152 571.092C285.152 571.092 296.663 483.756 389.775 505.549C389.775 505.549 453.147 402.524 551.051 447.544C551.051 447.544 584.437 352.015 706.306 382.492C706.101 382.451 749.728 274.387 840.997 240.756Z" fill="black"/>
</g>
<path d="M713.385 841.143C704.517 839.847 696.133 836.286 689.043 830.804C681.954 825.321 676.398 818.103 672.912 809.846L467.394 329.703C466.889 328.535 466.869 327.214 467.337 326.031C467.806 324.848 468.725 323.9 469.893 323.394C471.061 322.889 472.382 322.869 473.565 323.337C474.748 323.806 475.697 324.725 476.202 325.893L681.761 806.2C683.932 811.476 687.137 816.264 691.187 820.283C695.237 824.302 700.051 827.469 705.344 829.599C710.637 831.729 716.302 832.778 722.007 832.685C727.712 832.592 733.34 831.359 738.561 829.057C743.781 826.756 748.489 823.433 752.406 819.284C756.323 815.136 759.37 810.246 761.368 804.902C763.366 799.557 764.274 793.867 764.04 788.167C763.806 782.466 762.433 776.87 760.003 771.708L753.653 757.739C753.384 757.166 753.231 756.546 753.201 755.914C753.172 755.282 753.268 754.65 753.483 754.054C753.698 753.459 754.028 752.912 754.454 752.444C754.88 751.976 755.395 751.597 755.968 751.328C756.541 751.059 757.161 750.906 757.793 750.877C758.425 750.847 759.057 750.943 759.652 751.158C760.248 751.373 760.795 751.703 761.263 752.129C761.73 752.556 762.11 753.07 762.379 753.643L768.728 767.612C771.663 774.064 773.257 781.045 773.411 788.132C773.566 795.219 772.278 802.263 769.627 808.837C766.976 815.412 763.017 821.378 757.989 826.375C752.962 831.372 746.971 835.295 740.381 837.906C731.819 841.321 722.512 842.437 713.385 841.143Z" fill="#363A5A"/>
<path d="M840.999 240.797C810.56 239.863 780.376 246.613 753.234 260.423C726.092 274.234 702.867 294.661 685.703 319.817C685.703 319.817 582.596 296.017 538.232 376.716C538.232 376.716 419.435 345.42 377.283 453.033C377.283 453.033 281.099 435.418 262.583 522.672C262.583 522.672 197.04 515.708 182.948 581.374C182.948 581.374 167.505 303.144 390.064 190.615C625.281 71.6549 840.999 240.797 840.999 240.797Z" fill="#00CBE9"/>
<path d="M387.072 192.131C386.102 192.948 385.06 193.675 383.958 194.302C381.91 195.695 378.756 197.579 375.028 200.447C364.274 208.232 354.251 216.98 345.083 226.582C331.467 240.775 319.27 256.265 308.666 272.831C302.493 282.662 296.885 292.838 291.87 303.308C286.62 314.592 282.238 326.26 278.762 338.21C265.039 387.736 262.048 434.517 260.656 468.067C260.041 484.903 259.836 498.544 259.713 507.966C259.713 512.472 259.713 516.159 259.509 518.821C259.531 520.082 259.449 521.343 259.263 522.59C259.077 521.343 258.994 520.082 259.017 518.821C259.017 516.077 259.017 512.472 258.73 507.966C258.73 498.544 258.485 484.903 258.73 468.026C259.673 434.394 262.376 387.367 276.181 337.513C279.708 325.432 284.159 313.641 289.495 302.243C294.58 291.702 300.284 281.47 306.577 271.602C317.333 254.955 329.755 239.445 343.649 225.312C353.004 215.775 363.266 207.172 374.291 199.627C377.265 197.541 380.356 195.627 383.549 193.892C384.66 193.186 385.84 192.596 387.072 192.131Z" fill="#263238"/>
<path d="M387.07 192.131C387.07 192.131 384.326 194.794 380.27 200.324C374.687 208.136 370.526 216.873 367.981 226.132C364.32 239.832 362.096 253.877 361.345 268.038C360.034 284.096 359.092 301.834 358.928 320.432C358.665 352.278 361.146 384.089 366.342 415.51C368.35 427.553 370.439 437.221 371.791 443.898C372.446 447.011 372.979 449.551 373.429 451.599C373.658 452.484 373.795 453.39 373.839 454.303C373.419 453.489 373.116 452.62 372.938 451.722C372.364 449.715 371.668 447.175 370.808 444.103C369.128 437.508 366.711 427.717 364.581 415.838C358.84 384.435 356.097 352.558 356.388 320.636C356.388 301.916 357.576 284.137 359.01 268.038C359.878 253.678 362.337 239.458 366.342 225.64C369.06 216.269 373.506 207.488 379.451 199.751C381.075 197.665 382.885 195.732 384.858 193.975C386.251 192.664 386.989 192.049 387.07 192.131Z" fill="#263238"/>
<path d="M396.5 187.379C397.271 187.647 398.001 188.019 398.671 188.485C400.064 189.263 402.112 190.41 404.611 192.049C411.841 196.556 418.803 201.48 425.462 206.796C435.356 214.675 444.54 223.406 452.908 232.89C463.111 244.509 472.488 256.829 480.968 269.758C496.306 293.255 510.205 317.66 522.588 342.839C527.381 352.424 531.191 360.289 533.731 365.697L536.639 372.005C537.035 372.71 537.325 373.469 537.499 374.258C536.966 373.657 536.525 372.981 536.188 372.251L532.87 366.147L520.991 343.658C508.211 318.78 494.155 294.579 478.879 271.151C470.451 258.279 461.201 245.964 451.187 234.283C442.96 224.813 433.973 216.031 424.315 208.025C416.122 201.225 409.035 196.145 404.078 192.745C401.452 191.103 398.922 189.311 396.5 187.379Z" fill="#263238"/>
<path d="M396.5 187.379C397.552 186.847 398.648 186.408 399.777 186.068C401.948 185.29 405.102 184.061 409.281 182.75C421.094 178.984 433.209 176.242 445.493 174.557C463.775 171.975 482.361 172.502 500.467 176.114C522.546 180.896 543.839 188.771 563.716 199.505C610.714 225.017 650.808 261.568 680.547 306.012C683.046 309.617 684.643 312.566 685.995 314.492C686.643 315.472 687.218 316.499 687.715 317.564C686.899 316.711 686.172 315.778 685.544 314.778C684.193 312.935 682.349 310.068 679.768 306.586C674.689 299.499 667.11 289.34 656.91 277.542C630.488 246.611 598.537 220.87 562.692 201.635C543.036 190.995 521.998 183.137 500.181 178.285C482.311 174.623 463.961 173.917 445.862 176.196C433.579 177.756 421.432 180.249 409.527 183.652C405.43 184.84 402.112 185.905 399.9 186.519C398.799 186.922 397.66 187.21 396.5 187.379Z" fill="#263238"/>
</svg>
