<svg width="1000" height="1000" viewBox="0 0 1000 1000" fill="none" xmlns="http://www.w3.org/2000/svg">
<path d="M373.009 816.006H699.176C788.407 782.524 828.617 716.842 828.617 631.776C828.617 626.49 828.297 621.043 827.976 615.756C783.281 622.965 736.342 627.13 687.801 627.931C674.665 672.147 633.654 704.187 585.113 704.187H471.371C442.856 704.187 419.787 681.278 419.787 652.923V644.592H416.743C388.228 644.592 365.159 621.363 365.159 593.008V568.017C322.866 561.929 284.258 552.157 249.815 539.341C245.009 557.283 242.286 576.027 242.286 595.251C242.125 700.822 283.617 778.679 373.009 816.006Z" fill="#FE4C4C"/>
<path d="M364.998 592.848V567.856C322.706 561.769 284.097 551.997 249.654 539.181C244.848 557.123 242.125 575.866 242.125 595.09C242.125 602.139 242.285 608.868 242.606 615.756L393.994 639.466C376.853 630.975 364.998 613.193 364.998 592.848Z" fill="#E5556A"/>
<path d="M629.007 694.734C615.551 700.822 600.812 704.026 585.113 704.026H471.371C460.317 704.026 450.064 700.502 441.574 694.734H257.504C276.728 750.003 314.695 791.655 373.008 816.006H699.175C764.857 791.335 803.946 749.202 819.966 694.734H629.007Z" fill="#FE4C4C"/>
<path opacity="0.38" d="M348.34 567.856V595.251C348.34 626.49 373.651 653.563 404.89 653.563H408.255V661.093C408.255 692.332 433.566 717.483 464.805 717.483H589.761C642.947 717.483 688.124 682.239 702.382 633.859C745.475 633.058 787.608 629.854 828.139 624.567C827.978 621.684 827.818 618.64 827.658 615.756C782.962 622.965 736.024 627.13 687.483 627.931C674.347 672.147 633.335 704.187 584.795 704.187H471.053C442.537 704.187 419.469 681.278 419.469 652.923V644.592H416.425C387.909 644.592 364.84 621.363 364.84 593.008V568.017C322.548 561.929 283.94 552.157 249.497 539.341C248.856 541.423 248.375 543.506 247.895 545.589C278.973 555.04 312.455 562.73 348.34 567.856Z" fill="#EA8B98"/>
<path d="M364.998 592.848V567.856C322.706 561.769 284.097 551.997 249.654 539.181C244.848 557.123 242.125 575.866 242.125 595.09C242.125 602.139 242.285 608.868 242.606 615.756L393.994 639.466C376.853 630.975 364.998 613.193 364.998 592.848Z" stroke="#282828" stroke-width="4" stroke-miterlimit="10" stroke-linecap="round" stroke-linejoin="round"/>
<path opacity="0.22" d="M338.723 604.062H294.188V648.597H338.723V604.062Z" stroke="#282828" stroke-width="6" stroke-miterlimit="10" stroke-linecap="round" stroke-linejoin="round"/>
<path d="M746.758 694.734H628.851C615.394 700.822 600.656 704.026 584.956 704.026H471.214C460.161 704.026 449.908 700.502 441.417 694.734H372.211" stroke="#282828" stroke-width="4" stroke-miterlimit="10" stroke-linecap="round" stroke-linejoin="round"/>
<path d="M357.148 694.734H257.504C276.728 750.003 314.695 791.655 373.008 816.006H699.175C764.857 791.335 803.946 749.202 819.966 694.734H761.493" stroke="#282828" stroke-width="4" stroke-miterlimit="10" stroke-linecap="round" stroke-linejoin="round"/>
<path d="M289.707 754.17C310.373 780.443 338.087 801.269 373.011 816.007H699.178C738.427 801.269 768.064 780.283 789.21 754.17H289.707Z" fill="#FE4C4C"/>
<g opacity="0.25">
<path opacity="0.25" d="M827.816 615.757C819.325 617.199 810.514 618.32 801.863 619.442C802.023 622.966 802.184 626.651 802.184 630.175H701.899C701.899 640.588 710.389 648.919 720.642 648.919H801.703C798.179 699.702 779.275 742.796 742.589 775.316C721.763 793.579 694.85 800.307 667.135 800.307H412.097C390.63 800.307 369.484 797.584 351.221 786.05C285.219 744.558 254.3 673.91 254.3 582.436C254.3 580.353 255.902 569.78 256.863 563.852C257.184 561.61 259.427 560.168 261.509 560.809L335.201 578.751C341.449 580.193 347.857 577.63 351.221 572.183C351.541 571.542 351.862 571.222 351.862 570.901C352.503 565.935 257.344 546.871 258.305 542.065C255.422 541.104 252.538 539.983 249.815 539.021C245.009 556.964 242.285 575.707 242.285 594.931C242.285 700.823 283.617 778.681 373.008 816.007H672.902H699.175C701.738 815.046 704.302 814.085 706.705 812.963C707.506 812.643 708.307 812.323 709.108 812.002C710.87 811.361 712.472 810.56 714.074 809.759C714.875 809.439 715.836 808.958 716.637 808.638C718.239 807.837 719.841 807.196 721.283 806.395C722.084 806.075 722.885 805.594 723.686 805.274C725.448 804.312 727.21 803.511 728.972 802.55C729.453 802.23 729.934 802.07 730.414 801.749C732.657 800.628 734.74 799.346 736.822 798.065C737.463 797.744 738.104 797.264 738.745 796.943C740.186 795.982 741.788 795.181 743.23 794.22C744.031 793.739 744.832 793.259 745.473 792.778C746.755 791.977 748.036 791.176 749.318 790.215C750.119 789.734 750.76 789.254 751.561 788.613C752.842 787.652 754.124 786.851 755.405 785.889C756.046 785.409 756.687 784.928 757.328 784.448C759.09 783.006 761.012 781.724 762.614 780.282C763.095 779.962 763.415 779.482 763.896 779.161C765.178 778.04 766.619 776.918 767.901 775.797C768.542 775.156 769.183 774.676 769.823 774.035C770.945 773.074 771.906 772.112 772.867 771.151C773.508 770.51 774.149 769.87 774.789 769.229C775.751 768.268 776.712 767.306 777.673 766.345C778.314 765.704 778.955 765.064 779.435 764.423C780.557 763.141 781.838 761.86 782.96 760.738C813.718 726.455 828.136 682.4 828.136 631.457C828.457 626.491 828.296 621.044 827.816 615.757Z" fill="#3A121A"/>
</g>
<path d="M743.556 754.17H724.012" stroke="#282828" stroke-width="4" stroke-miterlimit="10" stroke-linecap="round" stroke-linejoin="round"/>
<path d="M708.469 754.17H289.707C310.373 780.443 338.087 801.269 373.011 816.007H699.178C738.427 801.269 768.064 780.283 789.21 754.17H753.646" stroke="#282828" stroke-width="4" stroke-miterlimit="10" stroke-linecap="round" stroke-linejoin="round"/>
<path d="M666.015 164.473C624.042 139.802 582.23 182.575 540.258 157.744C540.258 175.526 540.258 193.469 540.258 211.251C582.23 231.596 624.042 184.338 666.015 204.523C656.883 192.988 647.752 184.498 638.62 177.93C647.752 171.361 656.883 166.395 666.015 164.473Z" fill="#13623C"/>
<path opacity="0.38" d="M563.811 165.436C555.961 164.635 548.111 162.392 540.422 157.746C540.422 175.528 540.422 193.471 540.422 211.253C548.272 215.098 556.121 216.539 563.811 216.379V165.436Z" fill="#3D3D3D"/>
<path d="M540.258 147.492V704.027" stroke="#282828" stroke-width="6" stroke-miterlimit="10" stroke-linecap="round" stroke-linejoin="round"/>
<path d="M629.17 670.225C569.896 670.225 510.782 670.225 451.508 670.225C429.081 613.674 429.081 550.716 451.508 494.325C510.782 494.325 569.896 494.325 629.17 494.325C606.742 550.876 606.742 613.674 629.17 670.225Z" fill="#D8D8D9"/>
<path d="M561.726 544.948C561.726 527.006 559.003 510.025 554.197 494.325C519.914 494.325 485.631 494.325 451.508 494.325C429.081 550.876 429.081 613.834 451.508 670.225C467.208 670.225 483.068 670.225 498.767 670.225C535.774 648.918 561.726 600.858 561.726 544.948Z" fill="white"/>
<path d="M629.17 670.225C569.896 670.225 510.782 670.225 451.508 670.225C429.081 613.674 429.081 550.716 451.508 494.325C510.782 494.325 569.896 494.325 629.17 494.325C606.742 550.876 606.742 613.674 629.17 670.225Z" stroke="#282828" stroke-width="6" stroke-miterlimit="10" stroke-linecap="round" stroke-linejoin="round"/>
<path d="M609.791 469.814C563.493 469.814 517.196 469.814 470.898 469.814C458.883 439.696 458.883 406.054 470.898 375.937C517.196 375.937 563.493 375.937 609.791 375.937C597.776 406.054 597.776 439.696 609.791 469.814Z" fill="#D8D8D9"/>
<path d="M561.72 395.641C561.72 388.913 560.919 382.184 559.317 375.937C529.84 375.937 500.363 375.937 471.046 375.937C459.031 406.054 459.031 439.696 471.046 469.814C484.503 469.814 497.8 469.814 511.257 469.814C540.733 457.959 561.72 429.283 561.72 395.641Z" fill="white"/>
<path d="M609.791 469.814C563.493 469.814 517.196 469.814 470.898 469.814C458.883 439.696 458.883 406.054 470.898 375.937C517.196 375.937 563.493 375.937 609.791 375.937C597.776 406.054 597.776 439.696 609.791 469.814Z" stroke="#282828" stroke-width="6" stroke-miterlimit="10" stroke-linecap="round" stroke-linejoin="round"/>
<path d="M589.274 351.426C558.035 351.426 526.956 351.426 495.717 351.426C488.188 332.363 488.188 311.216 495.717 292.152C526.956 292.152 558.035 292.152 589.274 292.152C581.745 311.216 581.745 332.363 589.274 351.426Z" fill="#D8D8D9"/>
<path d="M561.72 292.152C539.772 292.152 517.665 292.152 495.717 292.152C488.188 311.216 488.188 332.363 495.717 351.426C504.689 351.426 513.66 351.426 522.471 351.426C554.511 347.421 569.57 315.702 561.72 292.152Z" fill="white"/>
<path d="M589.274 351.426C558.035 351.426 526.956 351.426 495.717 351.426C488.188 332.363 488.188 311.216 495.717 292.152C526.956 292.152 558.035 292.152 589.274 292.152C581.745 311.216 581.745 332.363 589.274 351.426Z" stroke="#282828" stroke-width="6" stroke-miterlimit="10" stroke-linecap="round" stroke-linejoin="round"/>
<g opacity="0.28">
<g opacity="0.28">
<path opacity="0.28" d="M454.391 777.88C463.063 777.88 470.091 770.85 470.091 762.18C470.091 753.51 463.063 746.48 454.391 746.48C445.721 746.48 438.691 753.51 438.691 762.18C438.691 770.85 445.721 777.88 454.391 777.88Z" fill="#FFFFF3"/>
<path opacity="0.28" d="M454.391 777.88C463.063 777.88 470.091 770.85 470.091 762.18C470.091 753.51 463.063 746.48 454.391 746.48C445.721 746.48 438.691 753.51 438.691 762.18C438.691 770.85 445.721 777.88 454.391 777.88Z" stroke="#282828" stroke-width="6" stroke-miterlimit="10" stroke-linecap="round" stroke-linejoin="round"/>
</g>
<g opacity="0.28">
<path opacity="0.28" d="M527.926 777.88C536.596 777.88 543.626 770.85 543.626 762.18C543.626 753.51 536.596 746.48 527.926 746.48C519.255 746.48 512.227 753.51 512.227 762.18C512.227 770.85 519.255 777.88 527.926 777.88Z" fill="#FFFFF3"/>
<path opacity="0.28" d="M527.926 777.88C536.596 777.88 543.626 770.85 543.626 762.18C543.626 753.51 536.596 746.48 527.926 746.48C519.255 746.48 512.227 753.51 512.227 762.18C512.227 770.85 519.255 777.88 527.926 777.88Z" stroke="#282828" stroke-width="6" stroke-miterlimit="10" stroke-linecap="round" stroke-linejoin="round"/>
</g>
<g opacity="0.28">
<path opacity="0.28" d="M601.621 777.88C610.291 777.88 617.321 770.85 617.321 762.18C617.321 753.51 610.291 746.48 601.621 746.48C592.95 746.48 585.922 753.51 585.922 762.18C585.922 770.85 592.95 777.88 601.621 777.88Z" fill="#FFFFF3"/>
<path opacity="0.28" d="M601.621 777.88C610.291 777.88 617.321 770.85 617.321 762.18C617.321 753.51 610.291 746.48 601.621 746.48C592.95 746.48 585.922 753.51 585.922 762.18C585.922 770.85 592.95 777.88 601.621 777.88Z" stroke="#282828" stroke-width="6" stroke-miterlimit="10" stroke-linecap="round" stroke-linejoin="round"/>
</g>
<g opacity="0.28">
<path opacity="0.28" d="M675.313 777.88C683.983 777.88 691.012 770.85 691.012 762.18C691.012 753.51 683.983 746.48 675.313 746.48C666.641 746.48 659.613 753.51 659.613 762.18C659.613 770.85 666.641 777.88 675.313 777.88Z" fill="#FFFFF3"/>
<path opacity="0.28" d="M675.313 777.88C683.983 777.88 691.012 770.85 691.012 762.18C691.012 753.51 683.983 746.48 675.313 746.48C666.641 746.48 659.613 753.51 659.613 762.18C659.613 770.85 666.641 777.88 675.313 777.88Z" stroke="#282828" stroke-width="6" stroke-miterlimit="10" stroke-linecap="round" stroke-linejoin="round"/>
</g>
<g opacity="0.28">
<path opacity="0.28" d="M380.7 777.88C389.371 777.88 396.399 770.85 396.399 762.18C396.399 753.51 389.371 746.48 380.7 746.48C372.03 746.48 365 753.51 365 762.18C365 770.85 372.03 777.88 380.7 777.88Z" fill="#FFFFF3"/>
<path opacity="0.28" d="M380.7 777.88C389.371 777.88 396.399 770.85 396.399 762.18C396.399 753.51 389.371 746.48 380.7 746.48C372.03 746.48 365 753.51 365 762.18C365 770.85 372.03 777.88 380.7 777.88Z" stroke="#282828" stroke-width="6" stroke-miterlimit="10" stroke-linecap="round" stroke-linejoin="round"/>
</g>
</g>
<path d="M451.188 769.869C459.859 769.869 466.887 762.839 466.887 754.169C466.887 745.499 459.859 738.47 451.188 738.47C442.518 738.47 435.488 745.499 435.488 754.169C435.488 762.839 442.518 769.869 451.188 769.869Z" fill="#FFFFF3"/>
<path d="M451.188 769.869C459.859 769.869 466.887 762.839 466.887 754.169C466.887 745.499 459.859 738.47 451.188 738.47C442.518 738.47 435.488 745.499 435.488 754.169C435.488 762.839 442.518 769.869 451.188 769.869Z" stroke="#282828" stroke-width="6" stroke-miterlimit="10" stroke-linecap="round" stroke-linejoin="round"/>
<path d="M524.719 769.869C533.389 769.869 540.419 762.839 540.419 754.169C540.419 745.499 533.389 738.47 524.719 738.47C516.047 738.47 509.02 745.499 509.02 754.169C509.02 762.839 516.047 769.869 524.719 769.869Z" fill="#FFFFF3"/>
<path d="M524.719 769.869C533.389 769.869 540.419 762.839 540.419 754.169C540.419 745.499 533.389 738.47 524.719 738.47C516.047 738.47 509.02 745.499 509.02 754.169C509.02 762.839 516.047 769.869 524.719 769.869Z" stroke="#282828" stroke-width="6" stroke-miterlimit="10" stroke-linecap="round" stroke-linejoin="round"/>
<path d="M598.411 769.869C607.081 769.869 614.11 762.839 614.11 754.169C614.11 745.499 607.081 738.47 598.411 738.47C589.739 738.47 582.711 745.499 582.711 754.169C582.711 762.839 589.739 769.869 598.411 769.869Z" fill="#FFFFF3"/>
<path d="M598.411 769.869C607.081 769.869 614.11 762.839 614.11 754.169C614.11 745.499 607.081 738.47 598.411 738.47C589.739 738.47 582.711 745.499 582.711 754.169C582.711 762.839 589.739 769.869 598.411 769.869Z" stroke="#282828" stroke-width="6" stroke-miterlimit="10" stroke-linecap="round" stroke-linejoin="round"/>
<path d="M672.102 769.869C680.772 769.869 687.801 762.839 687.801 754.169C687.801 745.499 680.772 738.47 672.102 738.47C663.43 738.47 656.402 745.499 656.402 754.169C656.402 762.839 663.43 769.869 672.102 769.869Z" fill="#FFFFF3"/>
<path d="M672.102 769.869C680.772 769.869 687.801 762.839 687.801 754.169C687.801 745.499 680.772 738.47 672.102 738.47C663.43 738.47 656.402 745.499 656.402 754.169C656.402 762.839 663.43 769.869 672.102 769.869Z" stroke="#282828" stroke-width="6" stroke-miterlimit="10" stroke-linecap="round" stroke-linejoin="round"/>
<path d="M377.496 769.869C386.168 769.869 393.196 762.839 393.196 754.169C393.196 745.499 386.168 738.47 377.496 738.47C368.826 738.47 361.797 745.499 361.797 754.169C361.797 762.839 368.826 769.869 377.496 769.869Z" fill="#FFFFF3"/>
<path d="M377.496 769.869C386.168 769.869 393.196 762.839 393.196 754.169C393.196 745.499 386.168 738.47 377.496 738.47C368.826 738.47 361.797 745.499 361.797 754.169C361.797 762.839 368.826 769.869 377.496 769.869Z" fill="#FFFFF3"/>
<path d="M377.496 769.869C386.168 769.869 393.196 762.839 393.196 754.169C393.196 745.499 386.168 738.47 377.496 738.47C368.826 738.47 361.797 745.499 361.797 754.169C361.797 762.839 368.826 769.869 377.496 769.869Z" stroke="#282828" stroke-width="6" stroke-miterlimit="10" stroke-linecap="round" stroke-linejoin="round"/>
<path d="M753.477 674.229C762.149 674.229 769.176 667.2 769.176 658.53C769.176 649.858 762.149 642.83 753.477 642.83C744.807 642.83 737.777 649.858 737.777 658.53C737.777 667.2 744.807 674.229 753.477 674.229Z" fill="#FFFFF3"/>
<path d="M753.477 674.229C762.149 674.229 769.176 667.2 769.176 658.53C769.176 649.858 762.149 642.83 753.477 642.83C744.807 642.83 737.777 649.858 737.777 658.53C737.777 667.2 744.807 674.229 753.477 674.229Z" stroke="#282828" stroke-width="6" stroke-miterlimit="10" stroke-linecap="round" stroke-linejoin="round"/>
<path d="M373.009 816.006H699.176C788.407 782.524 828.617 716.842 828.617 631.776C828.617 626.49 828.297 621.043 827.976 615.756C783.281 622.965 736.342 627.13 687.801 627.931C674.665 672.147 633.654 704.187 585.113 704.187H471.371C442.856 704.187 419.787 681.278 419.787 652.923V644.592H416.743C388.228 644.592 365.159 621.363 365.159 593.008V568.017C322.866 561.929 284.258 552.157 249.815 539.341C245.009 557.283 242.286 576.027 242.286 595.251C242.125 700.822 283.617 778.679 373.009 816.006Z" stroke="#282828" stroke-width="6" stroke-miterlimit="10" stroke-linecap="round" stroke-linejoin="round"/>
<path d="M848.001 552.156H687.641V627.931H848.001V552.156Z" fill="#F9AA68"/>
<path d="M687.641 552.156C687.641 560.487 694.369 567.215 702.699 567.215H828.456V608.386C828.456 619.12 837.267 627.931 848.001 627.931V552.156H687.641Z" fill="#F28D41"/>
<path d="M848.001 552.156H687.641V627.931H848.001V552.156Z" stroke="#282828" stroke-width="6" stroke-miterlimit="10" stroke-linecap="round" stroke-linejoin="round"/>
<path d="M753.48 627.932H725.926V596.053C725.926 588.523 732.013 582.275 739.703 582.275C747.232 582.275 753.48 588.363 753.48 596.053V627.932Z" fill="#894532"/>
<path d="M809.715 627.932H782.16V596.053C782.16 588.523 788.248 582.275 795.937 582.275C803.467 582.275 809.715 588.363 809.715 596.053V627.932Z" fill="#894532"/>
<path d="M753.48 627.932H725.926V596.053C725.926 588.523 732.013 582.275 739.703 582.275C747.232 582.275 753.48 588.363 753.48 596.053V627.932Z" stroke="#282828" stroke-width="6" stroke-miterlimit="10" stroke-linecap="round" stroke-linejoin="round"/>
<path d="M809.715 627.932H782.16V596.053C782.16 588.523 788.248 582.275 795.937 582.275C803.467 582.275 809.715 588.363 809.715 596.053V627.932Z" stroke="#282828" stroke-width="6" stroke-miterlimit="10" stroke-linecap="round" stroke-linejoin="round"/>
<path d="M364.995 550.716L200.79 510.986L195.664 532.773L364.995 573.624V550.716Z" fill="#F9AA68"/>
<path d="M364.995 550.716L200.79 510.986L195.664 532.773L364.995 573.624V550.716Z" stroke="#282828" stroke-width="6" stroke-miterlimit="10" stroke-linecap="round" stroke-linejoin="round"/>
<path d="M763.41 315.702V552.157" stroke="#383838" stroke-width="6" stroke-miterlimit="10" stroke-linecap="round" stroke-linejoin="round"/>
<path d="M819.965 522.84C782.318 522.84 744.671 522.84 706.864 522.84C692.446 486.475 692.446 446.105 706.864 409.739C744.511 409.739 782.158 409.739 819.965 409.739C805.547 446.105 805.547 486.475 819.965 522.84Z" fill="#D8D8D9"/>
<path d="M780.556 425.759C780.556 420.312 780.236 414.866 779.595 409.739C755.405 409.739 731.215 409.739 706.864 409.739C692.446 446.105 692.446 486.475 706.864 522.84C714.874 522.84 722.884 522.84 730.894 522.84C760.371 504.097 780.556 467.732 780.556 425.759Z" fill="white"/>
<path d="M807.946 389.874C778.309 389.874 748.672 389.874 718.875 389.874C711.505 371.291 711.505 350.625 718.875 332.202C748.512 332.202 778.149 332.202 807.946 332.202C800.577 350.785 800.577 371.291 807.946 389.874Z" fill="#D8D8D9"/>
<path d="M779.43 332.202C759.245 332.202 739.06 332.202 718.875 332.202C711.505 350.785 711.505 371.451 718.875 389.874C729.127 389.874 739.22 389.874 749.473 389.874C766.614 375.777 777.988 355.271 779.43 332.202Z" fill="white"/>
<path d="M819.965 522.84C782.318 522.84 744.671 522.84 706.864 522.84C692.446 486.475 692.446 446.105 706.864 409.739C744.511 409.739 782.158 409.739 819.965 409.739C805.547 446.105 805.547 486.475 819.965 522.84Z" stroke="#282828" stroke-width="6" stroke-miterlimit="10" stroke-linecap="round" stroke-linejoin="round"/>
<path d="M807.946 389.874C778.309 389.874 748.672 389.874 718.875 389.874C711.505 371.291 711.505 350.625 718.875 332.202C748.512 332.202 778.149 332.202 807.946 332.202C800.577 350.785 800.577 371.291 807.946 389.874Z" stroke="#282828" stroke-width="6" stroke-miterlimit="10" stroke-linecap="round" stroke-linejoin="round"/>
<path d="M306.039 326.274V536.457" stroke="#383838" stroke-width="6" stroke-miterlimit="10" stroke-linecap="round" stroke-linejoin="round"/>
<path d="M377.499 494.325C329.919 494.325 282.18 494.325 234.6 494.325C216.498 448.348 216.498 397.244 234.6 351.427C282.18 351.427 329.919 351.427 377.499 351.427C359.236 397.244 359.236 448.348 377.499 494.325Z" fill="#D8D8D9"/>
<path d="M328.317 390.195C328.317 376.578 325.434 363.442 320.468 351.427C291.792 351.427 263.276 351.427 234.6 351.427C216.498 397.404 216.498 448.508 234.6 494.325C238.125 494.325 241.649 494.325 245.174 494.325C293.554 479.426 328.317 438.415 328.317 390.195Z" fill="white"/>
<path d="M377.499 494.325C329.919 494.325 282.18 494.325 234.6 494.325C216.498 448.348 216.498 397.244 234.6 351.427C282.18 351.427 329.919 351.427 377.499 351.427C359.236 397.244 359.236 448.348 377.499 494.325Z" stroke="#282828" stroke-width="6" stroke-miterlimit="10" stroke-linecap="round" stroke-linejoin="round"/>
<path d="M195.663 520.277L114.602 495.606" stroke="#282828" stroke-width="6" stroke-miterlimit="10" stroke-linecap="round" stroke-linejoin="round"/>
<path d="M332.805 596.052H288.27V640.587H332.805V596.052Z" fill="#894532"/>
<path d="M332.805 596.052H288.27V640.587H332.805V596.052Z" stroke="#282828" stroke-width="6" stroke-miterlimit="10" stroke-linecap="round" stroke-linejoin="round"/>
<path d="M143.125 504.257C143.125 504.257 289.548 402.21 306.048 332.202C372.051 332.202 535.775 279.016 538.018 245.214C551.955 280.298 620.681 342.295 763.419 315.542" stroke="#383838" stroke-miterlimit="10"/>
<path d="M554.669 230.956H521.508V259.472H554.669V230.956Z" fill="#F9AA68"/>
<path d="M554.669 230.956H521.508V259.472H554.669V230.956Z" stroke="#282828" stroke-width="6" stroke-miterlimit="10" stroke-linecap="round" stroke-linejoin="round"/>
</svg>
