<svg width="1000" height="1000" viewBox="0 0 1000 1000" fill="none" xmlns="http://www.w3.org/2000/svg">
<path d="M800.298 473.744L170.935 473.743L168.002 45.3241L800.298 473.744Z" fill="#DC1D3B"/>
<path d="M830.645 875.097L170.967 875.097L170.966 450.415L260.981 464.54L830.645 875.097Z" fill="#DC1D3B"/>
<path d="M183.301 52.5928L807.106 476.31H284.522L833 876.487H183.301" stroke="#243F8D" stroke-width="15" stroke-linecap="round"/>
<rect x="168" y="43.1768" width="18.8319" height="928.646" rx="9.41593" fill="#243F8D"/>
<path d="M408.109 272.69C408.109 320.793 369.114 369.792 321.011 369.792C272.909 369.792 233.914 320.793 233.914 272.69C239.296 281.498 272.909 346.087 321.011 346.087C369.114 346.087 403.705 278.562 408.109 272.69Z" fill="white"/>
<path d="M276.284 319.181L268.634 324.478L300.412 354.491H358.673L371.032 324.478L365.147 319.181L380.448 307.411L361.616 302.115L371.032 285.048L352.788 286.814V269.159L337.488 276.81L332.78 259.743L320.421 273.867L308.063 259.743L305.12 278.575L287.465 269.159L289.819 286.814L268.634 285.048L280.992 302.115L262.16 307.411L276.284 319.181Z" fill="white"/>
<path d="M385.155 612.84L350.434 637.557L336.31 599.894L319.832 637.557L285.699 612.84L289.819 654.035L248.036 649.327L276.283 682.283L236.266 699.938L276.283 717.593L248.036 749.96L289.819 746.429L285.699 787.624L319.832 762.907L336.31 801.748L353.376 762.907L385.155 787.624L381.036 746.429L423.407 749.96L398.102 717.593L434.589 699.938L398.102 682.283L423.407 649.327L381.036 654.035L385.155 612.84Z" fill="white"/>
</svg>
