<svg width="1000" height="1000" viewBox="0 0 1000 1000" fill="none" xmlns="http://www.w3.org/2000/svg">
<path d="M200 529.391C200 363.696 347.072 277.699 500 277.699C652.928 277.699 800 363.696 800 529.391C800 695.085 665.69 829.408 500 829.408C334.31 829.408 200 695.086 200 529.391Z" fill="#F46A6A" stroke="#363A5A" stroke-width="16"/>
<circle cx="351" cy="424" r="32" fill="white"/>
<path d="M579.167 330.959C549.501 337.293 486.367 359.559 471.167 397.959C455.967 436.359 478.834 369.293 492.167 330.959C465.478 319.954 415.26 300.681 393.592 296.987C385.271 298.358 380.704 298.849 384.167 296.959C385.704 296.121 389.009 296.206 393.592 296.987C411.697 294.003 447.576 286.848 457.167 290.959C471.167 296.959 410.168 240.96 409.168 218.96C408.168 196.96 465.167 278.96 492.167 284.96C519.168 290.959 480.167 230.959 492.167 192.959C504.168 154.959 489.168 236.959 516.168 250.959C537.768 262.159 542.501 282.293 542.168 290.959L579.167 296.959L690.168 250.959C690.168 252.626 684.368 261.76 661.168 284.96C637.968 308.159 612.835 317.292 603.168 318.959C612.835 329.626 637.968 350.159 661.168 346.959C684.368 343.759 694.168 345.626 696.168 346.959C677.835 352.292 637.368 361.359 622.168 354.959C606.968 348.559 587.167 336.293 579.167 330.959Z" fill="#6CB455" stroke="#363A5A" stroke-width="6"/>
<path d="M571 189.753C571 179.948 563.052 172 553.247 172C541.712 172 533.241 182.828 536.016 194.024L550.359 251.886C551.811 257.744 551.522 263.898 549.527 269.593L538.591 300.815C534.793 311.656 542.84 323 554.327 323C563.535 323 571 315.535 571 306.327V189.753Z" fill="#6CB455" stroke="#363A5A" stroke-width="4"/>
</svg>
