<svg width="1000" height="1000" viewBox="0 0 1000 1000" fill="none" xmlns="http://www.w3.org/2000/svg">
<path d="M477.006 251.928L230.173 183.681C230.364 182.927 230.71 182.287 231.193 181.716C232.002 180.76 233.292 179.888 235.192 179.113C239.037 177.546 244.75 176.62 252.137 175.806C255.1 175.48 258.305 175.174 261.719 174.848C275.122 173.57 291.736 171.986 309.51 167.637C353.577 156.857 413.676 150.579 477.007 150.176C540.334 149.773 601.766 155.276 648.213 165.486C669.07 170.071 693.699 170.47 714.759 170.811C717.487 170.856 720.155 170.899 722.747 170.95C734.126 171.175 743.981 171.552 751.187 172.785C754.796 173.403 757.587 174.212 759.529 175.235C760.433 175.711 761.099 176.203 761.576 176.704L477.006 251.928Z" fill="#946542" stroke="#363A5A" stroke-width="4"/>
<path d="M674 180C674 185.24 669.852 190.771 660.969 196.199C652.202 201.555 639.382 206.451 623.365 210.591C591.359 218.862 547.035 224 498 224C448.965 224 404.641 218.862 372.635 210.591C356.618 206.451 343.798 201.555 335.031 196.199C326.148 190.771 322 185.24 322 180C322 174.76 326.148 169.229 335.031 163.801C343.798 158.445 356.618 153.549 372.635 149.409C404.641 141.138 448.965 136 498 136C547.035 136 591.359 141.138 623.365 149.409C639.382 153.549 652.202 158.445 660.969 163.801C669.852 169.229 674 174.76 674 180Z" fill="#B58058" stroke="#363A5A" stroke-width="4"/>
<path d="M487.608 102C492.226 94 503.774 94 508.392 102L527.445 135C532.064 143 526.29 153 517.053 153H478.947C469.71 153 463.936 143 468.555 135L487.608 102Z" fill="#946542" stroke="#363A5A" stroke-width="4"/>
<path d="M319.499 293V271L236.499 208.5L227.5 180C436.552 225.778 553.516 224.892 762.5 180V208.5L679.5 271V293L744.205 349.13C755.843 359.225 762.615 373.812 762.816 389.217L768 787C768 787 757.718 802.186 750 811C711.686 854.754 691.5 854 617 878C542.5 902 399.5 875 347.5 865.5C295.5 856 269.5 818.5 250.5 801.5C231.5 784.5 237.999 393 236.499 365C235.299 342.6 291.333 307.667 319.499 293Z" fill="#B58058" stroke="#363A5A" stroke-width="4"/>
<path d="M344.978 305.655V284.112L273.726 222.909L262.5 188.5C438 226 539 222.909 722.5 191L725.278 222.909L654.026 284.112V305.655L709.517 360.565C719.616 370.558 725.369 384.127 725.532 398.333L730 789.405C730 789.405 721.173 804.276 714.548 812.907C681.656 855.753 664.327 855.015 600.372 878.517C536.416 902.019 413.656 875.579 369.016 866.276C324.376 856.973 302.056 820.251 285.745 803.604C269.434 786.957 275.013 403.58 273.726 376.161C272.696 354.226 320.798 320.018 344.978 305.655Z" fill="#946542"/>
<path d="M239 412C442.04 453.98 562.444 455.406 765.5 412" stroke="#363A5A" stroke-width="4"/>
<path d="M239 444C442.04 485.98 559.944 483.406 763 440" stroke="#363A5A" stroke-width="4"/>
<path d="M239 550C442.04 591.98 560.944 588.406 764 545" stroke="#363A5A" stroke-width="4"/>
<path d="M239 582C442.04 623.98 560.444 620.906 763.5 577.5" stroke="#363A5A" stroke-width="4"/>
<path d="M239 724C442.04 765.98 560.944 762.406 764 719" stroke="#363A5A" stroke-width="4"/>
<path d="M239 756C442.04 797.98 560.444 794.906 763.5 751.5" stroke="#363A5A" stroke-width="4"/>
</svg>
