<svg width="1000" height="1000" viewBox="0 0 1000 1000" fill="none" xmlns="http://www.w3.org/2000/svg">
<path d="M763.252 251.622L769.395 251.934L770.09 238.209L763.947 237.898L763.252 251.622Z" fill="#C7C7C7"/>
<path d="M665.227 274.38C664.378 290.979 708.332 306.703 763.405 309.482C818.477 312.261 863.77 301.067 864.619 284.468C865.468 267.869 821.668 249.212 766.596 246.432C711.524 243.653 666.05 257.781 665.227 274.38Z" fill="#2F7CC2"/>
<path opacity="0.2" d="M665.227 274.38C664.378 290.979 708.332 306.703 763.405 309.482C818.477 312.261 863.77 301.067 864.619 284.468C865.468 267.869 821.668 249.212 766.596 246.432C711.524 243.653 666.05 257.781 665.227 274.38Z" fill="black"/>
<path d="M665.689 304.747C667.027 321.32 712.655 331.177 767.598 326.776C822.542 322.376 866.033 305.365 864.721 288.818C863.408 272.27 817.755 262.388 762.812 266.789C707.868 271.189 664.377 288.174 665.689 304.747Z" fill="#2F7CC2"/>
<path opacity="0.1" d="M665.689 304.747C667.027 321.32 712.655 331.177 767.598 326.776C822.542 322.376 866.033 305.365 864.721 288.818C863.408 272.27 817.755 262.388 762.812 266.789C707.868 271.189 664.377 288.174 665.689 304.747Z" fill="black"/>
<path d="M760.754 706.671H769.658V307.141L765.206 305.442L760.754 307.141V706.671Z" fill="#C7C7C7"/>
<path d="M755.609 717.479H774.807L771.874 703.582H758.543L755.609 717.479Z" fill="#263238"/>
<path d="M754.141 418.623C754.156 420.808 754.818 422.94 756.043 424.749C757.268 426.559 759.002 427.965 761.025 428.791C763.048 429.617 765.271 429.825 767.412 429.389C769.554 428.954 771.518 427.894 773.058 426.343C774.598 424.792 775.644 422.82 776.065 420.676C776.486 418.532 776.262 416.311 775.422 414.293C774.583 412.275 773.164 410.552 771.346 409.339C769.528 408.127 767.392 407.48 765.207 407.479C762.262 407.493 759.444 408.674 757.369 410.763C755.295 412.852 754.134 415.678 754.141 418.623Z" fill="#263238"/>
<path d="M860.241 679.031L867.293 673.756L769.012 540.939L761.961 546.215L860.241 679.031Z" fill="#C7C7C7"/>
<path d="M857.668 686.443H876.866L868.065 672.546H854.734L857.668 686.443Z" fill="#263238"/>
<path d="M670.169 679.031L663.117 673.756L761.398 540.939L768.449 546.215L670.169 679.031Z" fill="#C7C7C7"/>
<path d="M672.741 686.443H653.543L662.344 672.546H675.675L672.741 686.443Z" fill="#263238"/>
<path d="M348.28 541.223L350.235 406.657C350.235 406.657 322.905 384.474 247.091 384.474C171.277 384.474 148.219 403.208 148.219 403.208L146.031 541.223H348.28Z" fill="#2F7CC2"/>
<path opacity="0.1" d="M348.28 541.223L350.235 406.657C350.235 406.657 322.905 384.474 247.091 384.474C171.277 384.474 148.219 403.208 148.219 403.208L146.031 541.223H348.28Z" fill="black"/>
<path opacity="0.1" d="M349.849 434.218L348.254 541.222H209.621L349.849 434.218Z" fill="black"/>
<path d="M247.089 565.387C302.959 565.387 348.251 554.568 348.251 541.222C348.251 527.877 302.959 517.058 247.089 517.058C191.218 517.058 145.926 527.877 145.926 541.222C145.926 554.568 191.218 565.387 247.089 565.387Z" fill="#EBEBEB"/>
<path d="M352.188 413.193L354.891 398.061C353.321 397.238 320.277 379.841 247.371 377.036C175.314 374.257 143.867 392.914 142.297 393.841L143.995 409.564C144.33 409.359 179.535 389.26 246.805 391.859C315.954 394.535 351.854 413.013 352.188 413.193Z" fill="#A6A6A6"/>
<path d="M348.127 542.484L351.241 525.628C349.671 524.804 320.359 509.132 247.376 506.327C175.319 503.548 146.007 523.337 144.438 524.341L145.904 541.3C146.239 541.094 179.514 518.654 246.784 521.227C315.959 523.852 347.792 542.304 348.127 542.484Z" fill="#A6A6A6"/>
<path d="M304.352 518.576H308.289V394.818H304.352V518.576Z" fill="#A6A6A6"/>
<path d="M300.848 395.797C300.843 396.882 301.16 397.944 301.759 398.849C302.358 399.754 303.212 400.46 304.214 400.879C305.215 401.298 306.318 401.41 307.383 401.202C308.448 400.993 309.427 400.473 310.196 399.707C310.965 398.942 311.49 397.965 311.703 396.901C311.917 395.837 311.81 394.734 311.396 393.731C310.982 392.728 310.279 391.87 309.377 391.266C308.475 390.663 307.414 390.341 306.329 390.341C304.88 390.341 303.489 390.915 302.462 391.937C301.435 392.96 300.855 394.347 300.848 395.797Z" fill="#C7C7C7"/>
<path d="M306.329 521.304C309.356 521.304 311.811 518.85 311.811 515.822C311.811 512.795 309.356 510.341 306.329 510.341C303.302 510.341 300.848 512.795 300.848 515.822C300.848 518.85 303.302 521.304 306.329 521.304Z" fill="#C7C7C7"/>
<path d="M185.149 514.098H189.086L189.086 390.34H185.149L185.149 514.098Z" fill="#A6A6A6"/>
<path d="M181.676 394.072C181.671 395.157 181.988 396.219 182.587 397.124C183.186 398.029 184.041 398.736 185.042 399.154C186.043 399.573 187.146 399.686 188.211 399.477C189.276 399.268 190.255 398.748 191.024 397.983C191.793 397.217 192.318 396.241 192.532 395.177C192.745 394.113 192.638 393.009 192.224 392.006C191.81 391.003 191.107 390.145 190.205 389.542C189.303 388.938 188.243 388.616 187.157 388.616C185.708 388.616 184.318 389.19 183.29 390.213C182.263 391.235 181.683 392.623 181.676 394.072Z" fill="#C7C7C7"/>
<path d="M181.676 514.098C181.671 515.184 181.988 516.246 182.587 517.151C183.186 518.055 184.041 518.762 185.042 519.181C186.043 519.6 187.146 519.712 188.211 519.503C189.276 519.295 190.255 518.775 191.024 518.009C191.793 517.244 192.318 516.267 192.532 515.203C192.745 514.139 192.638 513.035 192.224 512.032C191.81 511.029 191.107 510.172 190.205 509.568C189.303 508.965 188.243 508.643 187.157 508.643C185.708 508.643 184.318 509.217 183.29 510.239C182.263 511.261 181.683 512.649 181.676 514.098Z" fill="#C7C7C7"/>
<path d="M156.738 492.97C156.738 495.372 157.451 497.721 158.785 499.718C160.12 501.716 162.017 503.273 164.237 504.192C166.456 505.111 168.899 505.352 171.255 504.883C173.611 504.415 175.775 503.258 177.474 501.559C179.173 499.86 180.33 497.696 180.798 495.34C181.267 492.983 181.027 490.541 180.107 488.322C179.188 486.102 177.631 484.205 175.633 482.87C173.636 481.536 171.287 480.823 168.885 480.823C167.29 480.823 165.71 481.137 164.237 481.748C162.763 482.358 161.424 483.253 160.296 484.381C159.168 485.509 158.273 486.848 157.663 488.322C157.052 489.795 156.738 491.375 156.738 492.97Z" fill="#C7C7C7"/>
<path d="M163.916 711.945H173.875L173.875 492.866H163.916L163.916 711.945Z" fill="#C7C7C7"/>
<path d="M158.125 723.989H179.613L176.345 708.497H161.419L158.125 723.989Z" fill="#263238"/>
<path d="M316.832 492.97C316.832 495.372 317.544 497.721 318.879 499.718C320.214 501.716 322.111 503.273 324.33 504.192C326.55 505.111 328.992 505.352 331.349 504.883C333.705 504.415 335.869 503.258 337.568 501.559C339.267 499.86 340.423 497.696 340.892 495.34C341.361 492.983 341.12 490.541 340.201 488.322C339.282 486.102 337.725 484.205 335.727 482.87C333.73 481.536 331.381 480.823 328.979 480.823C325.757 480.823 322.668 482.103 320.39 484.381C318.112 486.659 316.832 489.748 316.832 492.97Z" fill="#C7C7C7"/>
<path d="M323.986 711.945H333.945V492.866H323.986V711.945Z" fill="#C7C7C7"/>
<path d="M318.223 723.989H339.711L336.443 708.497H321.517L318.223 723.989Z" fill="#263238"/>
<path d="M712.477 404.031L713.815 312.93C713.815 312.93 695.312 297.901 643.997 297.901C592.682 297.901 577.087 310.589 577.087 310.589L575.414 404.031H712.477Z" fill="#2F7CC2"/>
<path opacity="0.1" d="M712.477 404.031L713.815 312.93C713.815 312.93 695.312 297.901 643.997 297.901C592.682 297.901 577.087 310.589 577.087 310.589L575.414 404.031H712.477Z" fill="black"/>
<path d="M575.414 404.031C575.414 413.064 606.09 420.373 643.92 420.373C681.75 420.373 712.399 413.064 712.399 404.031C712.399 394.998 681.75 387.664 643.92 387.664C606.09 387.664 575.414 394.998 575.414 404.031Z" fill="#EBEBEB"/>
<path d="M715.15 317.357L716.951 307.063C715.896 306.523 693.533 294.736 644.174 292.832C595.458 290.953 574.098 303.589 573.043 304.207L574.201 314.861C574.407 314.732 598.263 301.118 643.685 302.868C690.599 304.721 714.892 317.228 715.15 317.357Z" fill="#A6A6A6"/>
<path d="M712.398 404.88L714.482 393.454C713.427 392.914 693.534 382.311 644.175 380.407C595.46 378.528 575.567 391.936 574.512 392.554L575.49 404.031C575.721 403.903 598.265 388.59 643.789 390.443C690.601 392.245 712.141 404.752 712.398 404.88Z" fill="#A6A6A6"/>
<path d="M642.66 381.693H645.336V297.927H642.66V381.693Z" fill="#A6A6A6"/>
<path d="M640.293 300.192C640.293 300.925 640.51 301.642 640.918 302.251C641.325 302.86 641.903 303.335 642.581 303.616C643.258 303.896 644.003 303.97 644.722 303.827C645.441 303.684 646.101 303.331 646.619 302.813C647.137 302.294 647.49 301.634 647.633 300.915C647.776 300.196 647.703 299.451 647.422 298.774C647.142 298.097 646.667 297.518 646.058 297.111C645.448 296.704 644.732 296.486 643.999 296.486C643.016 296.486 642.073 296.877 641.378 297.572C640.683 298.267 640.293 299.209 640.293 300.192Z" fill="#C7C7C7"/>
<path d="M640.293 381.693C640.293 382.426 640.51 383.142 640.918 383.752C641.325 384.361 641.903 384.836 642.581 385.117C643.258 385.397 644.003 385.471 644.722 385.328C645.441 385.185 646.101 384.832 646.619 384.313C647.137 383.795 647.49 383.135 647.633 382.416C647.776 381.697 647.703 380.952 647.422 380.275C647.142 379.598 646.667 379.019 646.058 378.612C645.448 378.205 644.732 377.987 643.999 377.987C643.016 377.987 642.073 378.378 641.378 379.073C640.683 379.768 640.293 380.71 640.293 381.693Z" fill="#C7C7C7"/>
<path d="M694.796 390.701H697.473V306.935H694.796V390.701Z" fill="#A6A6A6"/>
<path d="M692.43 307.68C692.43 308.413 692.647 309.13 693.054 309.739C693.461 310.349 694.04 310.824 694.717 311.104C695.395 311.385 696.14 311.458 696.858 311.315C697.577 311.172 698.238 310.819 698.756 310.301C699.274 309.783 699.627 309.122 699.77 308.403C699.913 307.685 699.84 306.94 699.559 306.262C699.279 305.585 698.804 305.006 698.194 304.599C697.585 304.192 696.869 303.975 696.136 303.975C695.648 303.971 695.165 304.065 694.713 304.25C694.262 304.435 693.852 304.708 693.508 305.052C693.163 305.397 692.89 305.807 692.705 306.258C692.52 306.709 692.426 307.193 692.43 307.68Z" fill="#C7C7C7"/>
<path d="M692.43 388.848C692.43 389.581 692.647 390.298 693.054 390.907C693.461 391.517 694.04 391.992 694.717 392.272C695.395 392.553 696.14 392.626 696.858 392.483C697.577 392.34 698.238 391.987 698.756 391.469C699.274 390.95 699.627 390.29 699.77 389.571C699.913 388.852 699.84 388.107 699.559 387.43C699.279 386.753 698.804 386.174 698.194 385.767C697.585 385.36 696.868 385.143 696.135 385.143C695.153 385.143 694.21 385.533 693.515 386.228C692.82 386.923 692.43 387.866 692.43 388.848Z" fill="#C7C7C7"/>
<path d="M589.98 387.664H592.656V303.898H589.98V387.664Z" fill="#A6A6A6"/>
<path d="M591.319 310.125C593.366 310.125 595.025 308.466 595.025 306.42C595.025 304.373 593.366 302.714 591.319 302.714C589.272 302.714 587.613 304.373 587.613 306.42C587.613 308.466 589.272 310.125 591.319 310.125Z" fill="#C7C7C7"/>
<path d="M591.319 391.37C593.366 391.37 595.025 389.71 595.025 387.664C595.025 385.617 593.366 383.958 591.319 383.958C589.272 383.958 587.613 385.617 587.613 387.664C587.613 389.71 589.272 391.37 591.319 391.37Z" fill="#C7C7C7"/>
<path d="M680.691 360.18C680.686 362.584 681.395 364.936 682.728 366.938C684.061 368.939 685.957 370.5 688.178 371.423C690.399 372.345 692.843 372.588 695.202 372.12C697.56 371.652 699.727 370.495 701.427 368.794C703.127 367.094 704.285 364.927 704.753 362.569C705.221 360.21 704.978 357.766 704.055 355.545C703.133 353.325 701.572 351.428 699.571 350.095C697.569 348.762 695.217 348.054 692.812 348.059C689.598 348.059 686.515 349.336 684.242 351.609C681.968 353.882 680.691 356.965 680.691 360.18Z" fill="#C7C7C7"/>
<path d="M687.845 710.865H697.805V360.18H687.845V710.865Z" fill="#C7C7C7"/>
<path d="M682.082 722.884H703.57L700.276 707.417H685.35L682.082 722.884Z" fill="#263238"/>
<path d="M583.133 360.18C583.128 362.584 583.836 364.936 585.169 366.938C586.502 368.939 588.399 370.5 590.619 371.423C592.84 372.345 595.284 372.588 597.643 372.12C600.002 371.652 602.168 370.495 603.869 368.794C605.569 367.094 606.726 364.927 607.194 362.569C607.662 360.21 607.419 357.766 606.497 355.545C605.574 353.325 604.013 351.428 602.012 350.095C600.01 348.762 597.658 348.054 595.254 348.059C592.039 348.059 588.956 349.336 586.683 351.609C584.41 353.882 583.133 356.965 583.133 360.18Z" fill="#C7C7C7"/>
<path d="M590.185 710.865H600.145V360.18H590.185V710.865Z" fill="#C7C7C7"/>
<path d="M584.418 722.884H605.906L602.612 707.417H587.686L584.418 722.884Z" fill="#263238"/>
<path d="M635.194 553.241C641.902 553.241 647.34 547.802 647.34 541.094C647.34 534.386 641.902 528.947 635.194 528.947C628.485 528.947 623.047 534.386 623.047 541.094C623.047 547.802 628.485 553.241 635.194 553.241Z" fill="#C7C7C7"/>
<path d="M630.205 710.865H640.164V541.094H630.205V710.865Z" fill="#C7C7C7"/>
<path d="M624.438 722.884H645.926L642.658 707.417H627.732L624.438 722.884Z" fill="#263238"/>
<path d="M573.019 384.37L445.272 399.116C445.272 399.116 339.477 453.931 346.477 551.439C353.477 648.948 447.82 690.406 451.629 689.094C455.438 687.781 584.188 698.024 584.188 698.024L573.019 384.37Z" fill="#2F7CC2"/>
<path d="M715.247 540.914C715.247 627.09 656.341 696.498 584.188 696.498C512.035 696.498 453.129 627.09 453.129 540.914C453.129 454.739 512.035 385.33 584.188 385.33C656.341 385.33 715.247 454.739 715.247 540.914Z" fill="#E9E6E6" stroke="#363A5A" stroke-width="3"/>
<path d="M555.159 696.428H568.233C517.535 686.366 462.257 634.794 459.298 540.682C456.39 447.574 523.634 390.083 573.019 384.37H562.339C507.19 390.752 440.743 438.413 443.96 541.171C447.177 643.93 498.672 685.208 555.159 696.428Z" fill="#A6A6A6"/>
<path d="M351.445 540.296V545.392H442.417V540.296H351.445Z" fill="#A6A6A6"/>
<path d="M438.069 535.767C436.67 535.767 435.301 536.182 434.137 536.959C432.974 537.737 432.067 538.842 431.531 540.135C430.995 541.428 430.855 542.851 431.128 544.224C431.401 545.597 432.075 546.858 433.065 547.848C434.055 548.838 435.316 549.512 436.689 549.785C438.061 550.058 439.484 549.918 440.777 549.382C442.071 548.846 443.176 547.939 443.954 546.775C444.731 545.612 445.146 544.243 445.146 542.844C445.146 540.967 444.401 539.167 443.073 537.839C441.746 536.512 439.946 535.767 438.069 535.767Z" fill="#C7C7C7"/>
<path d="M351.522 535.767C350.123 535.767 348.754 536.182 347.591 536.959C346.427 537.737 345.52 538.842 344.984 540.135C344.448 541.428 344.308 542.851 344.581 544.224C344.854 545.597 345.528 546.858 346.518 547.848C347.508 548.838 348.769 549.512 350.142 549.785C351.515 550.058 352.937 549.918 354.231 549.382C355.524 548.846 356.629 547.939 357.407 546.775C358.184 545.612 358.599 544.243 358.599 542.844C358.599 540.967 357.854 539.167 356.527 537.839C355.199 536.512 353.399 535.767 351.522 535.767Z" fill="#C7C7C7"/>
<path d="M401.191 433.24V438.335H472.991V433.24H401.191Z" fill="#A6A6A6"/>
<path d="M468.64 428.633C467.24 428.633 465.872 429.048 464.708 429.826C463.544 430.603 462.637 431.708 462.101 433.002C461.566 434.295 461.425 435.718 461.698 437.09C461.972 438.463 462.646 439.724 463.635 440.714C464.625 441.704 465.886 442.378 467.259 442.651C468.632 442.924 470.055 442.784 471.348 442.248C472.641 441.713 473.746 440.805 474.524 439.642C475.301 438.478 475.717 437.11 475.717 435.71C475.717 433.833 474.971 432.033 473.644 430.706C472.317 429.378 470.517 428.633 468.64 428.633Z" fill="#C7C7C7"/>
<path d="M401.19 428.633C399.791 428.633 398.422 429.048 397.259 429.826C396.095 430.603 395.188 431.708 394.652 433.002C394.116 434.295 393.976 435.718 394.249 437.09C394.522 438.463 395.196 439.724 396.186 440.714C397.176 441.704 398.437 442.378 399.81 442.651C401.182 442.924 402.605 442.784 403.899 442.248C405.192 441.713 406.297 440.805 407.075 439.642C407.852 438.478 408.267 437.11 408.267 435.71C408.267 433.833 407.522 432.033 406.194 430.706C404.867 429.378 403.067 428.633 401.19 428.633Z" fill="#C7C7C7"/>
<path d="M419.617 664.877V669.973H491.417V664.877H419.617Z" fill="#A6A6A6"/>
<path d="M487.175 674.497C491.083 674.448 494.211 671.239 494.161 667.331C494.111 663.422 490.903 660.295 486.994 660.344C483.086 660.394 479.958 663.603 480.008 667.511C480.058 671.419 483.267 674.547 487.175 674.497Z" fill="#C7C7C7"/>
<path d="M419.616 660.245C418.216 660.245 416.848 660.66 415.684 661.438C414.52 662.215 413.613 663.321 413.078 664.614C412.542 665.907 412.402 667.33 412.675 668.703C412.948 670.076 413.622 671.337 414.612 672.326C415.602 673.316 416.863 673.99 418.235 674.263C419.608 674.536 421.031 674.396 422.324 673.86C423.618 673.325 424.723 672.418 425.5 671.254C426.278 670.09 426.693 668.722 426.693 667.322C426.693 665.445 425.947 663.645 424.62 662.318C423.293 660.991 421.493 660.245 419.616 660.245Z" fill="#C7C7C7"/>
<path d="M402.246 541.094C402.246 543.496 402.959 545.845 404.293 547.842C405.628 549.84 407.525 551.397 409.745 552.316C411.964 553.235 414.406 553.476 416.763 553.007C419.119 552.539 421.283 551.382 422.982 549.683C424.681 547.984 425.837 545.82 426.306 543.464C426.775 541.107 426.534 538.665 425.615 536.446C424.696 534.226 423.139 532.329 421.141 530.994C419.144 529.66 416.795 528.947 414.393 528.947C411.171 528.947 408.082 530.227 405.804 532.505C403.526 534.783 402.246 537.872 402.246 541.094Z" fill="#C7C7C7"/>
<path d="M409.424 710.865H419.383V541.094H409.424V710.865Z" fill="#C7C7C7"/>
<path d="M403.637 722.884H425.151L421.857 707.417H406.931L403.637 722.884Z" fill="#263238"/>
<path d="M244.314 260.329H251.211V245.017H244.314V260.329Z" fill="#C7C7C7"/>
<path d="M135.918 291.159C135.918 309.688 185.998 324.614 247.761 324.614C309.524 324.614 359.603 309.611 359.603 291.159C359.603 272.707 309.524 254.358 247.761 254.358C185.998 254.358 135.918 272.656 135.918 291.159Z" fill="#2F7CC2"/>
<path opacity="0.2" d="M135.918 291.159C135.918 309.688 185.998 324.614 247.761 324.614C309.524 324.614 359.603 309.611 359.603 291.159C359.603 272.707 309.524 254.358 247.761 254.358C185.998 254.358 135.918 272.656 135.918 291.159Z" fill="black"/>
<path d="M135.918 301.556C135.918 320.059 185.998 335.011 247.761 335.011C309.524 335.011 359.603 320.007 359.603 301.556C359.603 283.104 309.524 268.101 247.761 268.101C185.998 268.101 135.918 283.052 135.918 301.556Z" fill="#2F7CC2"/>
<path opacity="0.1" d="M135.918 301.556C135.918 320.059 185.998 335.011 247.761 335.011C309.524 335.011 359.603 320.007 359.603 301.556C359.603 283.104 309.524 268.101 247.761 268.101C185.998 268.101 135.918 283.052 135.918 301.556Z" fill="black"/>
<path d="M242.793 749.981H252.752V305.03L247.76 303.177L242.793 305.03V749.981Z" fill="#C7C7C7"/>
<path d="M237.004 762H258.518L255.224 746.508H240.298L237.004 762Z" fill="#263238"/>
<path d="M235.383 429.174C235.383 431.622 236.109 434.016 237.469 436.051C238.829 438.087 240.762 439.674 243.024 440.61C245.286 441.547 247.775 441.792 250.176 441.315C252.577 440.837 254.783 439.658 256.514 437.927C258.245 436.196 259.424 433.99 259.902 431.589C260.379 429.188 260.134 426.699 259.197 424.437C258.26 422.175 256.674 420.242 254.638 418.882C252.603 417.522 250.209 416.796 247.761 416.796C244.478 416.796 241.33 418.1 239.008 420.421C236.687 422.743 235.383 425.891 235.383 429.174Z" fill="#263238"/>
<path d="M252.039 565.453L244.133 571.338L354.225 719.253L362.131 713.368L252.039 565.453Z" fill="#C7C7C7"/>
<path d="M351.342 727.438H372.857L362.975 711.972H348.074L351.342 727.438Z" fill="#263238"/>
<path d="M243.49 565.337L133.398 713.252L141.305 719.137L251.397 571.222L243.49 565.337Z" fill="#C7C7C7"/>
<path d="M144.178 727.438H122.664L132.546 711.972H147.447L144.178 727.438Z" fill="#263238"/>
</svg>
