<svg width="1000" height="1000" viewBox="0 0 1000 1000" fill="none" xmlns="http://www.w3.org/2000/svg">
<path d="M726.532 524.326V712.624C726.529 728.436 722.753 744.019 715.519 758.079C708.284 772.138 697.8 784.269 684.936 793.463C668.092 805.477 647.918 811.932 627.229 811.928H375.623C356.785 811.942 338.332 806.593 322.421 796.507L313.736 790.906C299.618 781.963 287.984 769.602 279.911 754.968C271.839 740.334 267.589 723.899 267.555 707.187V524.326H726.532Z" fill="#363A5A"/>
<path d="M267.548 569.654H140V591.812L213.656 603.134C224.43 604.636 234.65 608.839 243.363 615.353C252.076 621.867 259 630.479 263.49 640.388C266.072 646.15 267.453 652.377 267.548 658.69C267.548 658.69 293.52 658.284 297.943 627.24C297.943 626.631 298.146 626.022 298.227 625.413C299.691 614.194 297.581 602.798 292.198 592.846C286.814 582.894 278.43 574.893 268.238 569.979L267.548 569.654Z" fill="#455A64"/>
<path d="M726.523 569.816H854.152V592.055L780.496 603.377C769.686 604.868 759.431 609.08 750.694 615.617C741.956 622.154 735.021 630.803 730.54 640.753C727.958 646.515 726.577 652.742 726.482 659.055C726.482 659.055 700.551 658.649 696.087 627.645L695.843 625.778C694.379 614.559 696.489 603.163 701.873 593.211C707.257 583.259 715.641 575.258 725.833 570.344L726.523 569.816Z" fill="#455A64"/>
<path d="M726.526 569.817C725.935 570.257 725.311 570.65 724.659 570.994C722.806 571.99 721.017 573.101 719.302 574.321C712.775 578.886 707.33 584.829 703.354 591.731C697.143 602.384 694.86 614.876 696.901 627.037C697.746 634.468 700.687 641.506 705.383 647.328C710.773 653.512 718.385 657.318 726.566 657.919L725.593 658.853C725.696 651.348 727.544 643.971 730.99 637.304C734.477 630.168 739.347 623.795 745.315 618.555C751.588 613.022 758.842 608.713 766.702 605.853C774.837 603.202 783.23 601.42 791.741 600.537L854.114 591L853.262 591.974C853.262 584.386 853.262 577 853.262 569.817L854.236 570.791L762.319 570.426L736.063 570.142H729.042C728.233 570.233 727.416 570.233 726.607 570.142H729.001H735.941L762.116 569.857L854.236 569.492H855.21V570.466C855.21 577.649 855.21 585.035 855.21 592.624V593.516H854.358L791.984 603.134C783.612 604.011 775.356 605.766 767.351 608.369C759.777 611.099 752.783 615.229 746.735 620.544C741.048 625.341 736.409 631.257 733.106 637.925C729.804 644.592 727.909 651.868 727.54 659.299V660.314H726.607C722.289 660.008 718.075 658.842 714.214 656.883C710.353 654.925 706.923 652.214 704.125 648.91C699.264 642.84 696.25 635.501 695.44 627.767C693.461 615.277 695.946 602.489 702.461 591.65C706.589 584.675 712.269 578.746 719.059 574.321C720.835 573.149 722.693 572.104 724.619 571.197C725.208 570.676 725.847 570.214 726.526 569.817Z" fill="#363A5A"/>
<path d="M718.311 529.355C717.989 529.605 717.634 529.81 717.256 529.964L714.091 531.547L701.916 537.512L693.029 541.773C689.742 543.275 686.049 544.655 682.153 546.237C674.321 549.322 665.555 553.258 655.41 556.342L639.624 561.618C634.105 563.403 628.22 564.743 622.214 566.406C610.243 569.937 597.135 572.331 583.418 575.172C553.432 580.363 523.069 583.078 492.637 583.288C462.205 583.098 431.84 580.383 401.856 575.172C388.14 572.372 375.032 569.937 363.06 566.447C357.054 564.743 351.17 563.403 345.651 561.618L329.865 556.383C319.719 553.299 310.954 549.362 303.081 546.319C299.023 544.695 295.533 543.316 292.246 541.855L283.358 537.594L271.184 531.628L268.018 530.045L267.004 529.437C267.402 529.509 267.786 529.647 268.14 529.843L271.387 531.222C274.349 532.602 278.529 534.469 283.805 536.823L292.773 540.881C296.06 542.301 299.753 543.6 303.649 545.182C311.522 548.104 320.287 551.959 330.473 554.922L346.26 560.035C351.738 561.78 357.622 563.079 363.588 564.702C375.56 568.152 388.627 570.465 402.343 573.224C432.215 578.35 462.452 581.064 492.759 581.34C523.067 581.067 553.303 578.352 583.175 573.224C596.891 570.465 609.958 568.111 621.93 564.661C627.896 563.038 633.78 561.74 639.258 559.995L655.045 554.881C665.19 551.919 673.996 548.064 681.828 545.101C685.887 543.559 689.417 542.22 692.745 540.84L701.673 536.782L713.928 531.182L717.175 529.761L718.311 529.355Z" fill="#455A64"/>
<path d="M718.62 544.94C718.62 544.94 718.295 545.184 717.565 545.549L714.399 547.172L702.225 553.138L693.337 557.196C690.05 558.657 686.357 560.037 682.502 561.66C674.629 564.744 665.864 568.681 655.718 571.765L639.932 577C634.413 578.785 628.569 580.125 622.563 581.829C610.389 585.36 597.443 587.754 583.727 590.595C553.754 595.786 523.405 598.5 492.986 598.711C462.555 598.503 432.192 595.788 402.205 590.595C388.448 587.754 375.341 585.36 363.369 581.829C357.363 580.165 351.479 578.826 345.96 577.04L330.173 571.805C320.028 568.721 311.262 564.785 303.43 561.701C299.372 560.118 295.841 558.738 292.554 557.237L283.789 553.219L271.614 547.253L268.449 545.671C267.718 545.306 267.353 545.103 267.394 545.062L268.53 545.468L271.776 546.888L284.194 552.489L293.163 556.547C296.491 557.926 300.143 559.266 304.079 560.808C311.912 563.77 320.718 567.585 330.863 570.588L346.649 575.661C352.128 577.406 358.012 578.704 364.018 580.327C375.949 583.777 389.057 586.131 402.733 588.89C432.619 594.015 462.868 596.729 493.189 597.006C523.498 596.749 553.735 594.035 583.605 588.89C597.281 586.131 610.348 583.817 622.32 580.368C628.285 578.745 634.17 577.446 639.689 575.701L655.434 570.588C665.62 567.585 674.386 563.77 682.259 560.808C686.317 559.266 689.847 557.926 693.135 556.506L702.103 552.448L714.521 546.848L717.768 545.468L718.62 544.94Z" fill="#455A64"/>
<path d="M357.828 816.998L358.193 807.461L632.038 811.681V816.998H357.828Z" fill="#455A64"/>
<path d="M454.218 372.914C454.461 372.914 453.974 374.862 454.218 378.352C454.688 383.271 455.991 388.074 458.073 392.556C461.373 399.268 463.945 406.316 465.743 413.577C467.017 422.925 464.665 432.407 459.169 440.076C453.974 448.396 447.765 455.254 443.707 462.437C441.729 465.784 440.188 469.371 439.121 473.11C438.302 476.357 438.069 479.724 438.431 483.052C438.835 487.95 440.88 492.569 444.235 496.16C445.59 497.35 447.013 498.461 448.496 499.488C448.496 499.488 448.009 499.488 447.116 499.041C445.871 498.439 444.711 497.675 443.666 496.769C439.902 493.196 437.517 488.412 436.93 483.255C436.429 479.723 436.608 476.128 437.457 472.663C438.473 468.714 440.015 464.92 442.043 461.382C446.101 453.955 452.351 446.975 457.383 438.859C462.622 431.628 464.941 422.686 463.876 413.82C462.148 406.687 459.757 399.731 456.734 393.042C454.716 388.384 453.601 383.385 453.447 378.311C453.443 376.946 453.593 375.585 453.893 374.253C453.929 373.792 454.038 373.34 454.218 372.914Z" fill="#363A5A"/>
<path d="M496.905 369.262C497.149 369.262 496.621 371.21 496.905 374.7C497.395 379.615 498.698 384.415 500.76 388.904C504.058 395.622 506.642 402.668 508.471 409.925C509.713 419.278 507.348 428.752 501.856 436.425C496.662 444.744 490.493 451.602 486.394 458.785C484.419 462.129 482.891 465.717 481.849 469.458C480.997 472.713 480.749 476.097 481.119 479.441C481.541 484.322 483.584 488.922 486.922 492.508C488.277 493.698 489.7 494.809 491.183 495.836C491.183 495.836 490.696 495.836 489.844 495.389C488.572 494.814 487.395 494.048 486.354 493.117C482.602 489.54 480.231 484.755 479.658 479.603C479.163 476.073 479.328 472.481 480.145 469.011C481.152 465.085 482.695 461.316 484.731 457.811C488.789 450.385 494.998 443.405 500.07 435.329C505.298 428.078 507.602 419.123 506.523 410.249C504.831 403.106 502.439 396.146 499.381 389.472C497.363 384.813 496.248 379.815 496.093 374.741C496.09 373.375 496.24 372.014 496.54 370.682C496.662 369.709 496.824 369.222 496.905 369.262Z" fill="#363A5A"/>
<path d="M539.458 365.691C539.701 365.691 539.214 367.639 539.458 371.129C540.02 376.068 541.391 380.88 543.516 385.373C546.806 392.077 549.377 399.109 551.186 406.354C552.427 415.707 550.062 425.182 544.571 432.854C539.376 441.173 533.208 448.031 529.15 455.214C527.163 458.557 525.621 462.145 524.564 465.887C523.723 469.144 523.489 472.528 523.874 475.87C524.285 480.747 526.313 485.346 529.637 488.938C531 490.135 532.437 491.247 533.938 492.265C533.938 492.265 533.411 492.265 532.559 491.819C531.297 491.224 530.123 490.46 529.069 489.546C525.317 485.969 522.946 481.185 522.373 476.033C521.877 472.502 522.043 468.911 522.86 465.441C523.895 461.537 525.437 457.785 527.445 454.281C531.504 446.814 537.753 439.834 542.785 431.758C548.005 424.502 550.321 415.556 549.278 406.679C547.556 399.539 545.15 392.581 542.095 385.901C540.097 381.237 538.983 376.241 538.808 371.17C538.814 369.803 538.978 368.441 539.295 367.112C539.214 366.138 539.458 365.691 539.458 365.691Z" fill="#363A5A"/>
<path d="M465.765 268.902C497.125 221.46 561.007 208.422 608.449 239.782L773.646 348.977C821.088 380.336 834.126 444.218 802.767 491.66L465.765 268.902Z" fill="#363A5A"/>
<circle cx="699.035" cy="280.662" r="32.9766" fill="#D9D9D9" stroke="#363A5A" stroke-width="7"/>
<line x1="514.741" y1="243.766" x2="797.799" y2="427.608" stroke="white"/>
</svg>
