<svg width="1000" height="1000" viewBox="0 0 1000 1000" fill="none" xmlns="http://www.w3.org/2000/svg">
<path d="M508.471 249.914H490.996V827.438H508.471V249.914Z" fill="#363A5A"/>
<path opacity="0.2" d="M508.471 249.914H490.996V827.438H508.471V249.914Z" fill="white"/>
<path opacity="0.6" d="M508.471 249.914H490.996V827.438H508.471V249.914Z" fill="white"/>
<path d="M508.218 255.975H491.248C489.672 255.975 488.395 257.252 488.395 258.828V258.879C488.395 260.455 489.672 261.732 491.248 261.732H508.218C509.794 261.732 511.071 260.455 511.071 258.879V258.828C511.071 257.252 509.794 255.975 508.218 255.975Z" fill="#363A5A"/>
<path opacity="0.3" d="M508.218 255.975H491.248C489.672 255.975 488.395 257.252 488.395 258.828V258.879C488.395 260.455 489.672 261.732 491.248 261.732H508.218C509.794 261.732 511.071 260.455 511.071 258.879V258.828C511.071 257.252 509.794 255.975 508.218 255.975Z" fill="white"/>
<path d="M510.01 256.733C511.134 254.874 511.728 252.743 511.727 250.571C511.801 248.948 511.546 247.326 510.976 245.805C510.406 244.283 509.534 242.893 508.412 241.718C507.289 240.543 505.94 239.607 504.446 238.968C502.952 238.329 501.344 238 499.719 238C498.095 238 496.486 238.329 494.993 238.968C493.499 239.607 492.15 240.543 491.027 241.718C489.905 242.893 489.032 244.283 488.463 245.805C487.893 247.326 487.637 248.948 487.712 250.571C487.711 252.743 488.305 254.874 489.429 256.733H510.01Z" fill="#363A5A"/>
<path opacity="0.4" d="M510.01 256.733C511.134 254.874 511.728 252.743 511.727 250.571C511.801 248.948 511.546 247.326 510.976 245.805C510.406 244.283 509.534 242.893 508.412 241.718C507.289 240.543 505.94 239.607 504.446 238.968C502.952 238.329 501.344 238 499.719 238C498.095 238 496.486 238.329 494.993 238.968C493.499 239.607 492.15 240.543 491.027 241.718C489.905 242.893 489.032 244.283 488.463 245.805C487.893 247.326 487.637 248.948 487.712 250.571C487.711 252.743 488.305 254.874 489.429 256.733H510.01Z" fill="white"/>
<path d="M514.354 818.271H485.086C482.958 822.315 479.765 825.702 475.854 828.065C471.942 830.428 467.459 831.678 462.889 831.681H450.895V850.115H548.546V831.681H536.551C531.98 831.681 527.497 830.432 523.584 828.068C519.672 825.705 516.481 822.317 514.354 818.271Z" fill="#363A5A"/>
<path opacity="0.4" d="M514.354 818.271H485.086C482.958 822.315 479.765 825.702 475.854 828.065C471.942 830.428 467.459 831.678 462.889 831.681H450.895V850.115H548.546V831.681H536.551C531.98 831.681 527.497 830.432 523.584 828.068C519.672 825.705 516.481 822.317 514.354 818.271Z" fill="white"/>
<path opacity="0.2" d="M548.546 831.681H450.895V850.115H548.546V831.681Z" fill="black"/>
<path d="M426.577 836.529H572.865C574.432 836.529 575.935 837.152 577.043 838.26C578.151 839.368 578.774 840.871 578.774 842.438V852.363H420.668V842.438C420.668 840.871 421.291 839.368 422.399 838.26C423.507 837.152 425.01 836.529 426.577 836.529Z" fill="#363A5A"/>
<path opacity="0.4" d="M426.577 836.529H572.865C574.432 836.529 575.935 837.152 577.043 838.26C578.151 839.368 578.774 840.871 578.774 842.438V852.363H420.668V842.438C420.668 840.871 421.291 839.368 422.399 838.26C423.507 837.152 425.01 836.529 426.577 836.529Z" fill="white"/>
<path d="M371.701 452.414L297.914 332.111V317.465C297.914 317.13 297.781 316.809 297.544 316.572C297.307 316.335 296.986 316.202 296.651 316.202C296.316 316.202 295.995 316.335 295.758 316.572C295.522 316.809 295.388 317.13 295.388 317.465V332.111L221.601 452.414C221.509 452.554 221.447 452.711 221.418 452.875C221.388 453.04 221.393 453.209 221.43 453.372C221.468 453.534 221.539 453.688 221.637 453.823C221.736 453.958 221.861 454.071 222.005 454.156C222.294 454.326 222.638 454.375 222.963 454.295C223.288 454.215 223.57 454.011 223.747 453.727L295.388 336.934V452.49C295.388 452.825 295.522 453.146 295.758 453.383C295.995 453.619 296.316 453.752 296.651 453.752C296.986 453.752 297.307 453.619 297.544 453.383C297.781 453.146 297.914 452.825 297.914 452.49V336.934L369.555 453.727C369.668 453.913 369.828 454.067 370.018 454.173C370.208 454.279 370.423 454.334 370.641 454.333C370.872 454.338 371.1 454.277 371.297 454.156C371.439 454.069 371.561 453.954 371.658 453.819C371.755 453.684 371.824 453.531 371.861 453.369C371.899 453.207 371.904 453.039 371.876 452.876C371.849 452.712 371.79 452.555 371.701 452.414Z" fill="#263238"/>
<path opacity="0.6" d="M371.701 452.414L297.914 332.111V317.465C297.914 317.13 297.781 316.809 297.544 316.572C297.307 316.335 296.986 316.202 296.651 316.202C296.316 316.202 295.995 316.335 295.758 316.572C295.522 316.809 295.388 317.13 295.388 317.465V332.111L221.601 452.414C221.509 452.554 221.447 452.711 221.418 452.875C221.388 453.04 221.393 453.209 221.43 453.372C221.468 453.534 221.539 453.688 221.637 453.823C221.736 453.958 221.861 454.071 222.005 454.156C222.294 454.326 222.638 454.375 222.963 454.295C223.288 454.215 223.57 454.011 223.747 453.727L295.388 336.934V452.49C295.388 452.825 295.522 453.146 295.758 453.383C295.995 453.619 296.316 453.752 296.651 453.752C296.986 453.752 297.307 453.619 297.544 453.383C297.781 453.146 297.914 452.825 297.914 452.49V336.934L369.555 453.727C369.668 453.913 369.828 454.067 370.018 454.173C370.208 454.279 370.423 454.334 370.641 454.333C370.872 454.338 371.1 454.277 371.297 454.156C371.439 454.069 371.561 453.954 371.658 453.819C371.755 453.684 371.824 453.531 371.861 453.369C371.899 453.207 371.904 453.039 371.876 452.876C371.849 452.712 371.79 452.555 371.701 452.414Z" fill="white"/>
<path d="M222.66 453.07C234.605 466.757 263.216 476.378 296.65 476.378C330.084 476.378 358.695 466.757 370.64 453.07H222.66Z" fill="#263238"/>
<path opacity="0.6" d="M222.66 453.07C234.605 466.757 263.216 476.378 296.65 476.378C330.084 476.378 358.695 466.757 370.64 453.07H222.66Z" fill="white"/>
<path d="M372.131 454.662H221.172C220.596 454.662 220.043 454.433 219.636 454.026C219.229 453.618 219 453.066 219 452.49C218.997 452.203 219.051 451.918 219.158 451.651C219.266 451.385 219.425 451.142 219.627 450.938C219.829 450.734 220.07 450.571 220.335 450.461C220.6 450.35 220.885 450.293 221.172 450.293H372.131C372.418 450.293 372.703 450.35 372.968 450.461C373.233 450.571 373.474 450.734 373.676 450.938C373.878 451.142 374.037 451.385 374.145 451.651C374.253 451.918 374.306 452.203 374.303 452.49C374.303 453.066 374.074 453.618 373.667 454.026C373.26 454.433 372.707 454.662 372.131 454.662Z" fill="#263238"/>
<path opacity="0.2" d="M372.131 454.662H221.172C220.596 454.662 220.043 454.433 219.636 454.026C219.229 453.618 219 453.066 219 452.49C218.997 452.203 219.051 451.918 219.158 451.651C219.266 451.385 219.425 451.142 219.627 450.938C219.829 450.734 220.07 450.571 220.335 450.461C220.6 450.35 220.885 450.293 221.172 450.293H372.131C372.418 450.293 372.703 450.35 372.968 450.461C373.233 450.571 373.474 450.734 373.676 450.938C373.878 451.142 374.037 451.385 374.145 451.651C374.253 451.918 374.306 452.203 374.303 452.49C374.303 453.066 374.074 453.618 373.667 454.026C373.26 454.433 372.707 454.662 372.131 454.662Z" fill="white"/>
<path d="M777.839 452.414L704.178 332.111V317.465C704.178 317.13 704.044 316.809 703.808 316.572C703.571 316.335 703.25 316.202 702.915 316.202C702.58 316.202 702.259 316.335 702.022 316.572C701.785 316.809 701.652 317.13 701.652 317.465V332.111L627.839 452.414C627.665 452.702 627.613 453.047 627.693 453.374C627.774 453.701 627.981 453.982 628.269 454.156C628.557 454.331 628.902 454.383 629.229 454.303C629.555 454.222 629.837 454.015 630.011 453.727L701.652 336.934V452.49C701.652 452.825 701.785 453.146 702.022 453.383C702.259 453.619 702.58 453.752 702.915 453.752C703.25 453.752 703.571 453.619 703.808 453.383C704.044 453.146 704.178 452.825 704.178 452.49V336.934L775.819 453.727C775.932 453.913 776.092 454.067 776.282 454.173C776.472 454.279 776.687 454.334 776.905 454.333C777.076 454.344 777.249 454.318 777.41 454.257C777.567 454.172 777.705 454.055 777.814 453.913C777.922 453.77 777.999 453.607 778.04 453.433C778.081 453.258 778.084 453.077 778.049 452.902C778.014 452.726 777.943 452.56 777.839 452.414Z" fill="#263238"/>
<path opacity="0.6" d="M777.839 452.414L704.178 332.111V317.465C704.178 317.13 704.044 316.809 703.808 316.572C703.571 316.335 703.25 316.202 702.915 316.202C702.58 316.202 702.259 316.335 702.022 316.572C701.785 316.809 701.652 317.13 701.652 317.465V332.111L627.839 452.414C627.665 452.702 627.613 453.047 627.693 453.374C627.774 453.701 627.981 453.982 628.269 454.156C628.557 454.331 628.902 454.383 629.229 454.303C629.555 454.222 629.837 454.015 630.011 453.727L701.652 336.934V452.49C701.652 452.825 701.785 453.146 702.022 453.383C702.259 453.619 702.58 453.752 702.915 453.752C703.25 453.752 703.571 453.619 703.808 453.383C704.044 453.146 704.178 452.825 704.178 452.49V336.934L775.819 453.727C775.932 453.913 776.092 454.067 776.282 454.173C776.472 454.279 776.687 454.334 776.905 454.333C777.076 454.344 777.249 454.318 777.41 454.257C777.567 454.172 777.705 454.055 777.814 453.913C777.922 453.77 777.999 453.607 778.04 453.433C778.081 453.258 778.084 453.077 778.049 452.902C778.014 452.726 777.943 452.56 777.839 452.414Z" fill="white"/>
<path d="M628.797 453.07C640.741 466.757 669.352 476.378 702.787 476.378C736.221 476.378 764.832 466.757 776.776 453.07H628.797Z" fill="#263238"/>
<path opacity="0.6" d="M628.797 453.07C640.741 466.757 669.352 476.378 702.787 476.378C736.221 476.378 764.832 466.757 776.776 453.07H628.797Z" fill="white"/>
<path d="M778.268 454.662H627.309C626.733 454.662 626.18 454.433 625.773 454.026C625.366 453.618 625.137 453.066 625.137 452.49C625.134 452.203 625.187 451.918 625.295 451.651C625.403 451.385 625.562 451.142 625.764 450.938C625.966 450.734 626.206 450.571 626.472 450.461C626.737 450.35 627.021 450.293 627.309 450.293H778.268C778.555 450.293 778.84 450.35 779.105 450.461C779.37 450.571 779.61 450.734 779.812 450.938C780.014 451.142 780.174 451.385 780.282 451.651C780.389 451.918 780.443 452.203 780.44 452.49C780.44 452.775 780.383 453.058 780.274 453.321C780.165 453.585 780.005 453.824 779.804 454.026C779.602 454.227 779.362 454.387 779.099 454.496C778.835 454.606 778.553 454.662 778.268 454.662Z" fill="#263238"/>
<path opacity="0.2" d="M778.268 454.662H627.309C626.733 454.662 626.18 454.433 625.773 454.026C625.366 453.618 625.137 453.066 625.137 452.49C625.134 452.203 625.187 451.918 625.295 451.651C625.403 451.385 625.562 451.142 625.764 450.938C625.966 450.734 626.206 450.571 626.472 450.461C626.737 450.35 627.021 450.293 627.309 450.293H778.268C778.555 450.293 778.84 450.35 779.105 450.461C779.37 450.571 779.61 450.734 779.812 450.938C780.014 451.142 780.174 451.385 780.282 451.651C780.389 451.918 780.443 452.203 780.44 452.49C780.44 452.775 780.383 453.058 780.274 453.321C780.165 453.585 780.005 453.824 779.804 454.026C779.602 454.227 779.362 454.387 779.099 454.496C778.835 454.606 778.553 454.662 778.268 454.662Z" fill="white"/>
<path d="M442.485 276.203C425.013 279.762 407.748 284.272 390.768 289.713C373.899 294.965 357.359 300.874 340.894 305.723C332.876 308.191 324.678 310.031 316.374 311.228C311.009 312.038 305.552 312.038 300.187 311.228C300.187 311.001 302.182 303.324 295.137 300.596C285.036 296.682 276.425 313.854 288.95 320.243C297.969 324.138 307.843 325.634 317.611 324.586C326.67 323.807 335.653 322.321 344.48 320.142C361.829 316.026 378.571 311.051 395.364 306.809C411.958 302.479 428.776 299.057 445.742 296.556C454.16 295.395 462.577 294.553 470.995 294.031C479.429 293.526 487.838 293.425 496.247 293.602V270.218C487.182 270.521 478.167 271.127 469.177 272.162C460.187 273.198 451.273 274.511 442.485 276.203Z" fill="#363A5A"/>
<path d="M704.353 300.495C697.257 303.222 699.303 310.899 699.303 311.127C693.937 311.937 688.481 311.937 683.116 311.127C674.804 309.93 666.597 308.09 658.57 305.621C642.131 300.773 625.591 294.864 608.722 289.611C591.742 284.171 574.477 279.661 557.005 276.101C548.217 274.409 539.328 272.995 530.338 271.935C521.349 270.874 512.359 270.293 503.293 269.99V293.374C511.677 293.197 520.086 293.374 528.545 293.803C537.005 294.233 545.389 295.192 553.798 296.329C570.807 298.823 587.667 302.246 604.303 306.581C621.096 310.823 637.838 315.798 655.187 319.914C664.013 322.094 672.997 323.58 682.055 324.359C691.824 325.404 701.697 323.908 710.717 320.015C723.065 313.753 714.555 296.581 704.353 300.495Z" fill="#363A5A"/>
<g opacity="0.5">
<path d="M442.485 276.203C425.013 279.762 407.748 284.272 390.768 289.713C373.899 294.965 357.359 300.874 340.894 305.723C332.876 308.191 324.678 310.031 316.374 311.228C311.009 312.038 305.552 312.038 300.187 311.228C300.187 311.001 302.182 303.324 295.137 300.596C285.036 296.682 276.425 313.854 288.95 320.243C297.969 324.138 307.843 325.634 317.611 324.586C326.67 323.807 335.653 322.321 344.48 320.142C361.829 316.026 378.571 311.051 395.364 306.809C411.958 302.479 428.776 299.057 445.742 296.556C454.16 295.395 462.577 294.553 470.995 294.031C479.429 293.526 487.838 293.425 496.247 293.602V270.218C487.182 270.521 478.167 271.127 469.177 272.162C460.187 273.198 451.273 274.511 442.485 276.203Z" fill="white"/>
<path d="M704.353 300.495C697.257 303.222 699.303 310.899 699.303 311.127C693.937 311.937 688.481 311.937 683.116 311.127C674.804 309.93 666.597 308.09 658.57 305.621C642.131 300.773 625.591 294.864 608.722 289.611C591.742 284.171 574.477 279.661 557.005 276.101C548.217 274.409 539.328 272.995 530.338 271.935C521.349 270.874 512.359 270.293 503.293 269.99V293.374C511.677 293.197 520.086 293.374 528.545 293.803C537.005 294.233 545.389 295.192 553.798 296.329C570.807 298.823 587.667 302.246 604.303 306.581C621.096 310.823 637.838 315.798 655.187 319.914C664.013 322.094 672.997 323.58 682.055 324.359C691.824 325.404 701.697 323.908 710.717 320.015C723.065 313.753 714.555 296.581 704.353 300.495Z" fill="white"/>
</g>
<path d="M523.746 266.025H475.691C473.236 266.025 471.246 268.015 471.246 270.47V292.944C471.246 295.399 473.236 297.389 475.691 297.389H523.746C526.201 297.389 528.19 295.399 528.19 292.944V270.47C528.19 268.015 526.201 266.025 523.746 266.025Z" fill="#363A5A"/>
<path opacity="0.6" d="M523.746 266.025H475.691C473.236 266.025 471.246 268.015 471.246 270.47V292.944C471.246 295.399 473.236 297.389 475.691 297.389H523.746C526.201 297.389 528.19 295.399 528.19 292.944V270.47C528.19 268.015 526.201 266.025 523.746 266.025Z" fill="white"/>
<path opacity="0.2" d="M499.706 293.399C505.968 293.399 511.044 288.175 511.044 281.732C511.044 275.289 505.968 270.065 499.706 270.065C493.444 270.065 488.367 275.289 488.367 281.732C488.367 288.175 493.444 293.399 499.706 293.399Z" fill="white"/>
<path opacity="0.2" d="M505.767 281.732C505.732 282.923 505.348 284.077 504.661 285.05C503.974 286.023 503.016 286.772 501.906 287.204C500.796 287.636 499.583 287.731 498.419 287.477C497.256 287.224 496.192 286.633 495.362 285.779C494.532 284.925 493.972 283.845 493.753 282.675C493.533 281.504 493.663 280.295 494.126 279.197C494.59 278.1 495.366 277.164 496.358 276.506C497.351 275.847 498.515 275.496 499.706 275.495C500.514 275.505 501.313 275.674 502.055 275.993C502.797 276.313 503.469 276.775 504.033 277.355C504.596 277.934 505.039 278.619 505.336 279.371C505.634 280.122 505.78 280.924 505.767 281.732Z" fill="white"/>
</svg>
