<svg width="1000" height="1000" viewBox="0 0 1000 1000" fill="none" xmlns="http://www.w3.org/2000/svg">
<mask id="path-1-inside-1_148_3148" fill="white">
<path fill-rule="evenodd" clip-rule="evenodd" d="M499.714 183.067L538.844 259.669L505.059 298.551C517.312 300.837 526.586 311.587 526.586 324.503C526.586 336.625 518.417 346.839 507.283 349.939C514.18 359.027 519.044 378.831 519.044 386.735C519.044 387.452 519.004 388.285 518.926 389.214C523.605 391.571 528.128 394.59 532.498 397.506C544.66 405.621 555.641 412.949 565.532 403.058C579.961 388.629 589.126 369.921 591.793 349.917C592.036 348.095 592.611 346.362 593.456 344.804C591.757 342.35 590.761 339.372 590.761 336.161C590.761 328.889 595.868 322.809 602.691 321.313L583.157 298.832L605.687 254.728L628.217 298.832L608.765 321.218C615.821 322.534 621.163 328.724 621.163 336.161C621.163 340.512 619.335 344.437 616.404 347.208C616.534 348.084 616.557 348.995 616.459 349.93C613.671 376.446 601.88 401.353 582.854 420.379C563.838 439.396 538.945 451.185 512.444 453.98V865.732C512.444 873.023 506.534 878.933 499.243 878.933C491.953 878.933 486.043 873.023 486.043 865.732V453.767C460.242 450.625 436.072 438.948 417.503 420.379C398.478 401.353 386.686 376.446 383.899 349.93C383.818 349.164 383.819 348.414 383.893 347.686C380.655 344.899 378.604 340.769 378.604 336.161C378.604 328.889 383.711 322.809 390.534 321.313L371 298.832L393.53 254.728L416.06 298.832L396.608 321.218C403.664 322.534 409.006 328.724 409.006 336.161C409.006 339.166 408.134 341.966 406.63 344.325C407.623 346.004 408.297 347.906 408.565 349.917C411.231 369.921 420.396 388.629 434.825 403.058C444.875 413.107 457.951 405.382 471.944 397.115L471.945 397.115C475.155 395.219 478.414 393.294 481.695 391.548C481.454 389.65 481.327 388.01 481.327 386.735C481.327 378.831 486.19 359.028 493.088 349.94C481.954 346.84 473.783 336.625 473.783 324.503C473.783 311.87 482.656 301.31 494.51 298.713L460.583 259.669L499.714 183.067Z"/>
</mask>
<path fill-rule="evenodd" clip-rule="evenodd" d="M499.714 183.067L538.844 259.669L505.059 298.551C517.312 300.837 526.586 311.587 526.586 324.503C526.586 336.625 518.417 346.839 507.283 349.939C514.18 359.027 519.044 378.831 519.044 386.735C519.044 387.452 519.004 388.285 518.926 389.214C523.605 391.571 528.128 394.59 532.498 397.506C544.66 405.621 555.641 412.949 565.532 403.058C579.961 388.629 589.126 369.921 591.793 349.917C592.036 348.095 592.611 346.362 593.456 344.804C591.757 342.35 590.761 339.372 590.761 336.161C590.761 328.889 595.868 322.809 602.691 321.313L583.157 298.832L605.687 254.728L628.217 298.832L608.765 321.218C615.821 322.534 621.163 328.724 621.163 336.161C621.163 340.512 619.335 344.437 616.404 347.208C616.534 348.084 616.557 348.995 616.459 349.93C613.671 376.446 601.88 401.353 582.854 420.379C563.838 439.396 538.945 451.185 512.444 453.98V865.732C512.444 873.023 506.534 878.933 499.243 878.933C491.953 878.933 486.043 873.023 486.043 865.732V453.767C460.242 450.625 436.072 438.948 417.503 420.379C398.478 401.353 386.686 376.446 383.899 349.93C383.818 349.164 383.819 348.414 383.893 347.686C380.655 344.899 378.604 340.769 378.604 336.161C378.604 328.889 383.711 322.809 390.534 321.313L371 298.832L393.53 254.728L416.06 298.832L396.608 321.218C403.664 322.534 409.006 328.724 409.006 336.161C409.006 339.166 408.134 341.966 406.63 344.325C407.623 346.004 408.297 347.906 408.565 349.917C411.231 369.921 420.396 388.629 434.825 403.058C444.875 413.107 457.951 405.382 471.944 397.115L471.945 397.115C475.155 395.219 478.414 393.294 481.695 391.548C481.454 389.65 481.327 388.01 481.327 386.735C481.327 378.831 486.19 359.028 493.088 349.94C481.954 346.84 473.783 336.625 473.783 324.503C473.783 311.87 482.656 301.31 494.51 298.713L460.583 259.669L499.714 183.067Z" fill="#FFA403"/>
<path d="M538.844 259.669L541.109 261.637L542.437 260.108L541.516 258.304L538.844 259.669ZM499.714 183.067L502.385 181.702L499.714 176.472L497.042 181.702L499.714 183.067ZM505.059 298.551L502.794 296.583L499.357 300.538L504.508 301.5L505.059 298.551ZM507.283 349.939L506.478 347.049L502.223 348.234L504.893 351.753L507.283 349.939ZM518.926 389.214L515.936 388.964L515.767 390.982L517.576 391.893L518.926 389.214ZM532.498 397.506L530.833 400.001L532.498 397.506ZM591.793 349.917L594.766 350.313V350.313L591.793 349.917ZM593.456 344.804L596.093 346.234L596.972 344.613L595.922 343.096L593.456 344.804ZM602.691 321.313L603.334 324.243L608.271 323.161L604.956 319.345L602.691 321.313ZM583.157 298.832L580.486 297.468L579.564 299.271L580.893 300.8L583.157 298.832ZM605.687 254.728L608.359 253.363L605.687 248.133L603.015 253.363L605.687 254.728ZM628.217 298.832L630.481 300.8L631.81 299.271L630.888 297.468L628.217 298.832ZM608.765 321.218L606.5 319.25L603.063 323.207L608.215 324.167L608.765 321.218ZM616.404 347.208L614.343 345.028L613.207 346.102L613.437 347.648L616.404 347.208ZM616.459 349.93L619.442 350.244V350.244L616.459 349.93ZM582.854 420.379L580.733 418.258V418.258L582.854 420.379ZM512.444 453.98L512.129 450.996L509.444 451.279V453.98H512.444ZM486.043 453.767H489.043V451.11L486.405 450.789L486.043 453.767ZM417.503 420.379L419.625 418.258H419.625L417.503 420.379ZM383.899 349.93L380.915 350.244H380.915L383.899 349.93ZM383.893 347.686L386.878 347.991L387.037 346.434L385.85 345.413L383.893 347.686ZM390.534 321.313L391.177 324.243L396.114 323.161L392.799 319.345L390.534 321.313ZM371 298.832L368.328 297.468L367.407 299.271L368.735 300.8L371 298.832ZM393.53 254.728L396.201 253.363L393.53 248.133L390.858 253.363L393.53 254.728ZM416.06 298.832L418.324 300.8L419.653 299.271L418.731 297.468L416.06 298.832ZM396.608 321.218L394.343 319.25L390.905 323.207L396.058 324.167L396.608 321.218ZM406.63 344.325L404.101 342.711L403.109 344.266L404.048 345.852L406.63 344.325ZM408.565 349.917L411.538 349.521H411.538L408.565 349.917ZM434.825 403.058L436.946 400.936L434.825 403.058ZM471.944 397.115L473.47 399.698L473.509 399.676L473.546 399.652L471.944 397.115ZM471.945 397.115L470.419 394.532L470.381 394.555L470.343 394.579L471.945 397.115ZM481.695 391.548L483.104 394.197L484.932 393.224L484.671 391.17L481.695 391.548ZM493.088 349.94L495.477 351.753L498.148 348.234L493.892 347.05L493.088 349.94ZM494.51 298.713L495.152 301.644L500.09 300.562L496.774 296.745L494.51 298.713ZM460.583 259.669L457.911 258.304L456.99 260.108L458.318 261.637L460.583 259.669ZM541.516 258.304L502.385 181.702L497.042 184.432L536.173 261.034L541.516 258.304ZM507.323 300.518L541.109 261.637L536.58 257.701L502.794 296.583L507.323 300.518ZM529.586 324.503C529.586 310.116 519.256 298.148 505.609 295.601L504.508 301.5C515.367 303.526 523.586 313.058 523.586 324.503H529.586ZM508.088 352.829C520.485 349.377 529.586 338.007 529.586 324.503H523.586C523.586 335.243 516.348 344.301 506.478 347.049L508.088 352.829ZM522.044 386.735C522.044 382.368 520.74 375.126 518.628 367.936C516.52 360.757 513.457 353.111 509.673 348.126L504.893 351.753C508.007 355.855 510.824 362.655 512.871 369.627C514.916 376.586 516.044 383.198 516.044 386.735H522.044ZM521.915 389.465C521.998 388.477 522.044 387.557 522.044 386.735H516.044C516.044 387.347 516.009 388.093 515.936 388.964L521.915 389.465ZM534.164 395.01C529.822 392.113 525.146 388.989 520.275 386.535L517.576 391.893C522.064 394.154 526.434 397.066 530.833 400.001L534.164 395.01ZM563.411 400.936C561.281 403.067 559.233 404.139 557.261 404.575C555.267 405.016 553.114 404.859 550.709 404.155C545.742 402.702 540.371 399.152 534.164 395.01L530.833 400.001C536.788 403.975 542.987 408.147 549.024 409.914C552.121 410.82 555.329 411.147 558.556 410.434C561.804 409.715 564.838 407.994 567.654 405.179L563.411 400.936ZM588.819 349.521C586.239 368.875 577.371 386.976 563.411 400.936L567.654 405.179C582.551 390.282 592.014 370.967 594.766 350.313L588.819 349.521ZM590.818 343.374C589.802 345.249 589.111 347.332 588.819 349.521L594.766 350.313C594.96 348.859 595.42 347.476 596.093 346.234L590.818 343.374ZM587.761 336.161C587.761 340.001 588.954 343.572 590.989 346.512L595.922 343.096C594.559 341.128 593.761 338.742 593.761 336.161H587.761ZM602.049 318.383C593.878 320.174 587.761 327.45 587.761 336.161H593.761C593.761 330.328 597.858 325.444 603.334 324.243L602.049 318.383ZM580.893 300.8L600.427 323.281L604.956 319.345L585.422 296.865L580.893 300.8ZM603.015 253.363L580.486 297.468L585.829 300.197L608.359 256.093L603.015 253.363ZM630.888 297.468L608.359 253.363L603.015 256.093L625.545 300.197L630.888 297.468ZM611.029 323.186L630.481 300.8L625.952 296.865L606.5 319.25L611.029 323.186ZM624.163 336.161C624.163 327.252 617.765 319.844 609.315 318.269L608.215 324.167C613.877 325.223 618.163 330.195 618.163 336.161H624.163ZM618.466 349.387C621.97 346.073 624.163 341.371 624.163 336.161H618.163C618.163 339.654 616.699 342.8 614.343 345.028L618.466 349.387ZM619.442 350.244C619.567 349.058 619.539 347.894 619.372 346.767L613.437 347.648C613.53 348.274 613.547 348.932 613.475 349.617L619.442 350.244ZM584.975 422.501C604.489 402.987 616.583 377.44 619.442 350.244L613.475 349.617C610.759 375.452 599.27 399.72 580.733 418.258L584.975 422.501ZM512.759 456.963C539.94 454.097 565.471 442.005 584.975 422.501L580.733 418.258C562.204 436.786 537.95 448.273 512.129 450.996L512.759 456.963ZM509.444 453.98V865.732H515.444V453.98H509.444ZM509.444 865.732C509.444 871.366 504.877 875.933 499.243 875.933V881.933C508.191 881.933 515.444 874.68 515.444 865.732H509.444ZM499.243 875.933C493.61 875.933 489.043 871.366 489.043 865.732H483.043C483.043 874.68 490.296 881.933 499.243 881.933V875.933ZM489.043 865.732V453.767H483.043V865.732H489.043ZM415.382 422.501C434.427 441.545 459.218 453.523 485.68 456.745L486.405 450.789C461.267 447.728 437.716 436.35 419.625 418.258L415.382 422.501ZM380.915 350.244C383.774 377.44 395.868 402.987 415.382 422.501L419.625 418.258C401.087 399.72 389.598 375.452 386.882 349.617L380.915 350.244ZM380.909 347.382C380.813 348.316 380.813 349.273 380.915 350.244L386.882 349.617C386.823 349.056 386.824 348.513 386.878 347.991L380.909 347.382ZM375.604 336.161C375.604 341.679 378.064 346.627 381.936 349.96L385.85 345.413C383.246 343.171 381.604 339.859 381.604 336.161H375.604ZM389.892 318.383C381.721 320.174 375.604 327.45 375.604 336.161H381.604C381.604 330.328 385.701 325.444 391.177 324.243L389.892 318.383ZM368.735 300.8L388.27 323.281L392.799 319.345L373.265 296.865L368.735 300.8ZM390.858 253.363L368.328 297.468L373.672 300.197L396.201 256.093L390.858 253.363ZM418.731 297.468L396.201 253.363L390.858 256.093L413.388 300.197L418.731 297.468ZM398.872 323.186L418.324 300.8L413.795 296.865L394.343 319.25L398.872 323.186ZM412.006 336.161C412.006 327.252 405.608 319.844 397.158 318.269L396.058 324.167C401.72 325.223 406.006 330.195 406.006 336.161H412.006ZM409.159 345.938C410.962 343.112 412.006 339.754 412.006 336.161H406.006C406.006 338.577 405.307 340.821 404.101 342.711L409.159 345.938ZM411.538 349.521C411.216 347.105 410.408 344.818 409.212 342.797L404.048 345.852C404.839 347.189 405.377 348.708 405.591 350.313L411.538 349.521ZM436.946 400.936C422.986 386.976 414.118 368.875 411.538 349.521L405.591 350.313C408.344 370.967 417.807 390.282 432.704 405.179L436.946 400.936ZM470.419 394.532C463.31 398.732 456.92 402.481 451.118 404.061C448.276 404.834 445.748 405.033 443.473 404.587C441.241 404.15 439.067 403.057 436.946 400.936L432.704 405.179C435.608 408.084 438.837 409.793 442.32 410.475C445.761 411.15 449.261 410.785 452.694 409.85C459.441 408.013 466.586 403.766 473.47 399.698L470.419 394.532ZM470.343 394.579L470.343 394.579L473.546 399.652L473.547 399.652L470.343 394.579ZM480.286 388.9C476.935 390.682 473.619 392.642 470.419 394.532L473.471 399.698C476.691 397.796 479.892 395.905 483.104 394.197L480.286 388.9ZM478.327 386.735C478.327 388.184 478.469 389.961 478.719 391.926L484.671 391.17C484.438 389.34 484.327 387.836 484.327 386.735H478.327ZM490.698 348.126C486.914 353.112 483.851 360.757 481.743 367.936C479.631 375.126 478.327 382.368 478.327 386.735H484.327C484.327 383.198 485.455 376.586 487.499 369.627C489.547 362.656 492.364 355.856 495.477 351.753L490.698 348.126ZM470.783 324.503C470.783 338.007 479.885 349.378 492.283 352.83L493.892 347.05C484.022 344.301 476.783 335.244 476.783 324.503H470.783ZM493.868 295.783C480.666 298.674 470.783 310.431 470.783 324.503H476.783C476.783 313.309 484.646 303.945 495.152 301.644L493.868 295.783ZM458.318 261.637L492.245 300.681L496.774 296.745L462.847 257.701L458.318 261.637ZM497.042 181.702L457.911 258.304L463.255 261.034L502.385 184.432L497.042 181.702Z" fill="#363A5A" mask="url(#path-1-inside-1_148_3148)"/>
</svg>
