<svg width="1000" height="1000" viewBox="0 0 1000 1000" fill="none" xmlns="http://www.w3.org/2000/svg">
<path d="M763.843 333.573C762.234 334.158 757.335 314.963 738.652 290.393C727.697 276.143 714.842 263.46 700.445 252.698C691.991 246.343 683.014 240.716 673.609 235.88C663.387 230.746 652.89 226.181 642.165 222.206C620.228 213.723 598.291 206.374 579.645 195.772C560.998 185.169 546.045 173.103 536.465 159.868C528.28 149.708 523.827 137.048 523.852 124.001C523.852 121.734 523.852 119.723 524.364 118.005C524.875 116.286 525.168 114.897 525.497 113.764C526.155 111.497 526.667 110.363 526.996 110.473C527.325 110.583 527.435 111.789 527.398 114.129C527.398 115.25 527.325 116.64 527.179 118.297C527.179 119.943 527.435 121.953 527.581 123.928C528.892 135.757 533.849 146.887 541.767 155.773C551.236 167.473 566.08 178.551 583.849 188.13C601.618 197.709 623.153 204.766 645.566 213.358C656.64 217.471 667.457 222.244 677.959 227.653C687.759 232.908 697.07 239.026 705.783 245.934C720.565 257.483 733.488 271.232 744.1 286.701C751.278 297.056 756.999 308.35 761.101 320.264C761.722 322.385 762.307 324.249 762.819 325.931C763.331 327.613 763.477 329.003 763.697 330.136C764.062 332.257 764.135 333.463 763.843 333.573Z" fill="#263238"/>
<path d="M798.946 623.654C800.225 624.166 792.84 644.494 777.411 675.608C769.696 691.147 760.336 709.538 748.746 729.5C742.587 740.136 735.333 750.098 727.102 759.225C718.138 768.965 708.007 777.561 696.938 784.818C685.88 791.983 674.104 797.975 661.802 802.697C650.066 807.413 638.695 811.289 628.019 815.238C618.017 818.802 608.248 822.991 598.77 827.778C590.651 831.997 583.044 837.137 576.102 843.098C566.04 851.836 557.973 862.634 552.446 874.76L549.814 880.537C549.192 882.255 548.607 883.718 548.132 884.888C547.145 887.228 546.487 888.544 546.158 888.544C545.829 888.544 545.902 887.118 546.158 884.559C546.377 883.279 546.633 881.707 547.035 879.842L548.9 873.554C550.831 867.84 553.343 862.339 556.395 857.137C560.568 850.248 565.619 843.931 571.422 838.345C578.491 831.62 586.377 825.81 594.895 821.051C604.554 815.752 614.572 811.134 624.875 807.231C646.264 798.675 670.358 791.253 691.673 777.067C702.114 770.211 711.699 762.135 720.228 753.01C728.124 744.414 735.165 735.072 741.251 725.113C753.024 705.699 763.005 687.637 771.451 672.574C788.343 642.301 797.776 623.179 798.946 623.654Z" fill="#263238"/>
<path d="M544.731 882.364L153.703 484.17L524.841 113.361L527.4 115.921L158.822 484.207L547.363 879.805L544.731 882.364Z" fill="#455A64"/>
<path d="M774.814 491.849H211.763C210.915 491.849 210.075 491.681 209.292 491.355C208.509 491.03 207.798 490.553 207.2 489.951C206.602 489.35 206.129 488.636 205.808 487.851C205.486 487.066 205.323 486.225 205.328 485.377C205.328 483.671 206.006 482.034 207.213 480.827C208.42 479.62 210.056 478.942 211.763 478.942H774.814C775.662 478.938 776.503 479.101 777.287 479.422C778.072 479.743 778.786 480.216 779.387 480.814C779.989 481.412 780.466 482.123 780.792 482.906C781.117 483.689 781.285 484.529 781.285 485.377C781.285 487.094 780.603 488.74 779.39 489.953C778.176 491.167 776.53 491.849 774.814 491.849Z" fill="#455A64"/>
<path d="M790.898 472.179C791.301 472.617 845.997 483.549 845.997 483.549L794.811 498.43L790.898 472.179Z" fill="#455A64"/>
<path d="M292.639 479.052C292.639 479.052 273.627 462.417 256.078 460.442C245.875 459.256 235.569 459.256 225.366 460.442L231.216 472.581L214.178 459.565H175.203V479.052H292.639Z" fill="#263238"/>
<path d="M294.395 487.205C294.395 487.205 275.383 503.877 257.833 505.815C247.63 507.001 237.324 507.001 227.121 505.815L232.971 493.677L215.897 506.692H176.922V487.205H294.395Z" fill="#263238"/>
<path d="M753.348 303.664L724.391 343.882C724.391 343.882 753.348 396.787 753.348 455.286C753.348 513.785 751.593 589.431 748.083 602.557C744.573 615.682 724.391 663.066 724.391 663.066L762.122 700.761L798.94 623.616C798.94 623.616 780.659 615.719 781.39 596.414C782.122 577.11 790.165 534.259 812.943 509.653V493.859C812.943 493.859 787.533 454.408 784.9 426.366C782.268 398.323 777.88 388.67 791.043 376.386C791.043 376.386 760.367 320.3 753.348 303.628" fill="#263238"/>
</svg>
