<svg width="1000" height="1000" viewBox="0 0 1000 1000" fill="none" xmlns="http://www.w3.org/2000/svg">
<path d="M495.92 915.02C638.603 915.02 754.27 894.783 754.27 869.82C754.27 844.857 638.603 824.62 495.92 824.62C353.237 824.62 237.57 844.857 237.57 869.82C237.57 894.783 353.237 915.02 495.92 915.02Z" fill="#E4E8EC"/>
<path d="M437.45 272.51L362 511L270.18 573.79L284.56 731L443.23 646C459.184 637.457 472.528 624.754 481.845 609.239C491.162 593.725 496.105 575.977 496.15 557.88L496.84 281.38C496.844 277.392 496.062 273.442 494.538 269.756C493.015 266.071 490.78 262.721 487.961 259.9C485.143 257.078 481.796 254.84 478.111 253.313C474.427 251.786 470.478 251 466.49 251C459.983 250.999 453.648 253.089 448.42 256.962C443.191 260.834 439.345 266.285 437.45 272.51Z" fill="#FFC195"/>
<path d="M466.492 251C459.413 251 452.557 253.477 447.112 258C455.079 258.142 462.672 261.411 468.249 267.103C473.826 272.794 476.942 280.451 476.922 288.42L476.232 564.92C476.187 583.017 471.244 600.765 461.927 616.279C452.61 631.794 439.266 644.497 423.312 653.04L284.242 727.51L284.562 731L443.232 646C459.186 637.457 472.53 624.754 481.847 609.239C491.164 593.725 496.107 575.977 496.152 557.88L496.842 281.38C496.846 277.392 496.064 273.442 494.54 269.756C493.017 266.071 490.782 262.721 487.963 259.9C485.145 257.078 481.798 254.84 478.113 253.313C474.429 251.786 470.48 251 466.492 251Z" fill="#FFA688"/>
<path d="M437.45 272.51L362 511L270.18 573.79L284.56 731L443.23 646C459.184 637.457 472.528 624.754 481.845 609.239C491.162 593.725 496.105 575.977 496.15 557.88L496.84 281.38C496.844 277.392 496.062 273.442 494.538 269.756C493.015 266.071 490.78 262.721 487.961 259.9C485.143 257.078 481.796 254.84 478.111 253.313C474.427 251.786 470.478 251 466.49 251C459.983 250.999 453.648 253.089 448.42 256.962C443.191 260.834 439.345 266.285 437.45 272.51Z" stroke="#171819" stroke-width="6" stroke-linecap="round" stroke-linejoin="round"/>
<path d="M341.34 545.79L364.4 615.35C369.336 630.228 371.703 645.838 371.4 661.51L370.48 709.86C370.383 714.584 368.932 719.182 366.3 723.106C363.668 727.031 359.964 730.118 355.63 732L202.63 798.42L149.18 583.12L299.56 525.93C303.6 524.39 307.91 523.685 312.23 523.857C316.55 524.029 320.79 525.075 324.694 526.931C328.599 528.787 332.087 531.415 334.948 534.656C337.809 537.898 339.983 541.685 341.34 545.79Z" fill="#FFDC00"/>
<path d="M364.4 615.35L341.34 545.79C339.517 540.293 336.236 535.393 331.848 531.614C327.459 527.835 322.127 525.317 316.42 524.33L335.71 582.51C340.642 597.385 343.009 612.991 342.71 628.66L341.77 677C341.682 681.725 340.237 686.325 337.607 690.253C334.978 694.18 331.275 697.268 326.94 699.15L192.5 757.54L202.66 798.43L355.66 732.01C359.994 730.126 363.696 727.037 366.327 723.11C368.957 719.184 370.406 714.585 370.5 709.86L371.42 661.51C371.717 645.836 369.343 630.227 364.4 615.35Z" fill="#FF9770"/>
<path d="M341.34 545.79L364.4 615.35C369.336 630.228 371.703 645.838 371.4 661.51L370.48 709.86C370.383 714.584 368.932 719.182 366.3 723.106C363.668 727.031 359.964 730.118 355.63 732L202.63 798.42L149.18 583.12L299.56 525.93C303.6 524.39 307.91 523.685 312.23 523.857C316.55 524.029 320.79 525.075 324.694 526.931C328.599 528.787 332.087 531.415 334.948 534.656C337.809 537.898 339.983 541.685 341.34 545.79Z" stroke="#171819" stroke-width="6" stroke-linecap="round" stroke-linejoin="round"/>
<path d="M472.226 391.85C468.671 391.853 465.16 392.646 461.949 394.171C458.737 395.696 455.905 397.916 453.656 400.67C459.86 400.908 465.731 403.541 470.035 408.017C474.339 412.492 476.741 418.461 476.736 424.67V533H496.206V415.83C496.201 409.472 493.673 403.375 489.177 398.879C484.681 394.383 478.584 391.855 472.226 391.85Z" fill="#FFA688"/>
<path d="M420.812 514.94L449.062 409.65C450.428 404.547 453.437 400.036 457.626 396.818C461.815 393.6 466.95 391.853 472.233 391.85C478.598 391.85 484.702 394.379 489.203 398.879C493.703 403.38 496.233 409.485 496.233 415.85V533" stroke="#171819" stroke-width="6" stroke-linecap="round" stroke-linejoin="round"/>
<path d="M556.244 272.51L631.694 511L723.514 573.79L709.134 731L550.464 646C534.51 637.457 521.166 624.754 511.849 609.239C502.532 593.725 497.589 575.977 497.544 557.88L496.844 281.38C496.843 277.392 497.627 273.442 499.152 269.757C500.677 266.072 502.913 262.723 505.732 259.902C508.551 257.081 511.899 254.843 515.583 253.316C519.267 251.788 523.216 251.001 527.204 251C533.711 250.999 540.046 253.089 545.275 256.962C550.503 260.834 554.349 266.285 556.244 272.51Z" fill="#FFC195"/>
<path d="M527.204 251C534.283 251 541.139 253.477 546.584 258C538.616 258.142 531.022 261.411 525.443 267.102C519.864 272.794 516.747 280.45 516.764 288.42L517.464 564.92C517.509 583.017 522.452 600.765 531.769 616.279C541.086 631.794 554.43 644.497 570.384 653.04L709.454 727.5L709.134 730.99L550.464 645.99C534.51 637.447 521.166 624.744 511.849 609.229C502.532 593.715 497.589 575.967 497.544 557.87L496.844 281.37C496.844 273.317 500.042 265.594 505.736 259.899C511.429 254.204 519.151 251.003 527.204 251Z" fill="#FFA688"/>
<path d="M556.244 272.51L631.694 511L723.514 573.79L709.134 731L550.464 646C534.51 637.457 521.166 624.754 511.849 609.239C502.532 593.725 497.589 575.977 497.544 557.88L496.844 281.38C496.843 277.392 497.627 273.442 499.152 269.757C500.677 266.072 502.913 262.723 505.732 259.902C508.551 257.081 511.899 254.843 515.583 253.316C519.267 251.788 523.216 251.001 527.204 251C533.711 250.999 540.046 253.089 545.275 256.962C550.503 260.834 554.349 266.285 556.244 272.51Z" stroke="#171819" stroke-width="6" stroke-linecap="round" stroke-linejoin="round"/>
<path d="M652.351 545.79L629.291 615.35C624.36 630.229 621.993 645.838 622.291 661.51L623.221 709.86C623.317 714.583 624.766 719.18 627.397 723.104C630.027 727.029 633.728 730.116 638.061 732L791.061 798.42L844.511 583.12L694.101 525.94C690.064 524.405 685.757 523.703 681.441 523.877C677.125 524.05 672.889 525.096 668.988 526.951C665.087 528.806 661.602 531.431 658.742 534.669C655.883 537.906 653.709 541.689 652.351 545.79Z" fill="#FFDC00"/>
<path d="M629.29 615.35L652.35 545.79C654.173 540.293 657.454 535.393 661.842 531.614C666.231 527.835 671.564 525.317 677.271 524.33L658 582.51C653.069 597.385 650.701 612.991 651 628.66L651.93 677.01C652.018 681.735 653.464 686.335 656.094 690.263C658.723 694.19 662.426 697.278 666.761 699.16L801.191 757.54L791.001 798.43L638.06 732C633.726 730.116 630.025 727.027 627.394 723.1C624.764 719.174 623.314 714.575 623.22 709.85L622.29 661.5C621.993 645.831 624.36 630.226 629.29 615.35Z" fill="#FF9770"/>
<path d="M652.351 545.79L629.291 615.35C624.36 630.229 621.993 645.838 622.291 661.51L623.221 709.86C623.317 714.583 624.766 719.18 627.397 723.104C630.027 727.029 633.728 730.116 638.061 732L791.061 798.42L844.511 583.12L694.101 525.94C690.064 524.405 685.757 523.703 681.441 523.877C677.125 524.05 672.889 525.096 668.988 526.951C665.087 528.806 661.602 531.431 658.742 534.669C655.883 537.906 653.709 541.689 652.351 545.79Z" stroke="#171819" stroke-width="6" stroke-linecap="round" stroke-linejoin="round"/>
<path d="M521.457 391.85C525.007 391.857 528.512 392.652 531.718 394.177C534.924 395.703 537.751 397.92 539.997 400.67C533.793 400.908 527.922 403.541 523.618 408.017C519.314 412.492 516.912 418.461 516.917 424.67V533H497.477V415.83C497.482 409.472 500.01 403.375 504.506 398.879C509.002 394.383 515.099 391.855 521.457 391.85Z" fill="#FFA688"/>
<path d="M572.881 514.94L544.631 409.65C543.266 404.547 540.256 400.036 536.067 396.818C531.878 393.6 526.744 391.853 521.461 391.85C515.096 391.85 508.991 394.379 504.49 398.879C499.99 403.38 497.461 409.485 497.461 415.85V533" stroke="#171819" stroke-width="6" stroke-linecap="round" stroke-linejoin="round"/>
</svg>
