<svg width="1000" height="1000" viewBox="0 0 1000 1000" fill="none" xmlns="http://www.w3.org/2000/svg">
<path d="M466.505 702.594H465.511C464.647 702.324 463.923 701.725 463.497 700.927C463.07 700.128 462.975 699.194 463.231 698.326L487.671 618.924C488.479 616.238 488.206 613.343 486.911 610.855L474.34 586.649C474.129 586.255 473.999 585.823 473.959 585.378C473.919 584.933 473.968 584.484 474.104 584.059C474.241 583.633 474.461 583.24 474.753 582.901C475.044 582.563 475.401 582.286 475.802 582.088C476.593 581.674 477.516 581.589 478.37 581.852C479.224 582.115 479.94 582.704 480.362 583.492L492.933 607.756C493.995 609.76 494.651 611.954 494.861 614.212C495.072 616.469 494.834 618.747 494.161 620.912L469.721 700.08C469.522 700.786 469.103 701.411 468.525 701.864C467.946 702.316 467.239 702.571 466.505 702.594Z" fill="#37474F"/>
<path d="M434.99 720.076H434.405C433.964 720.006 433.542 719.848 433.164 719.611C432.785 719.375 432.458 719.065 432.202 718.699C431.946 718.334 431.765 717.921 431.672 717.484C431.578 717.048 431.573 716.597 431.657 716.159C432.207 712.257 433.69 708.546 435.98 705.34C438.271 702.133 441.3 699.527 444.813 697.741C448.339 695.882 452.216 694.782 456.194 694.51C460.171 694.238 464.161 694.801 467.908 696.162C468.726 696.555 469.356 697.253 469.662 698.107C469.969 698.961 469.927 699.9 469.545 700.723C469.165 701.536 468.477 702.166 467.633 702.473C466.789 702.779 465.857 702.739 465.043 702.36C462.251 701.426 459.297 701.069 456.363 701.31C453.428 701.551 450.573 702.386 447.97 703.764C445.386 705.078 443.159 706.998 441.479 709.36C439.799 711.722 438.716 714.456 438.323 717.328C438.173 718.102 437.759 718.8 437.15 719.302C436.542 719.803 435.778 720.077 434.99 720.076Z" fill="#37474F"/>
<path d="M446.744 732.063C445.923 732.059 445.131 731.762 444.51 731.226C443.888 730.69 443.478 729.95 443.353 729.139C442.797 724.838 443.111 720.468 444.276 716.29C445.441 712.111 447.434 708.21 450.135 704.816C452.05 702.275 454.475 700.161 457.254 698.611C460.033 697.06 463.104 696.107 466.273 695.812C467.172 695.75 468.06 696.048 468.739 696.64C469.419 697.232 469.836 698.07 469.898 698.969C469.96 699.869 469.662 700.756 469.07 701.436C468.478 702.116 467.64 702.532 466.741 702.594C464.511 702.83 462.356 703.529 460.412 704.646C458.469 705.764 456.781 707.276 455.456 709.084C453.347 711.75 451.787 714.807 450.863 718.078C449.94 721.349 449.673 724.77 450.077 728.145C450.143 728.587 450.121 729.037 450.013 729.471C449.905 729.904 449.712 730.311 449.446 730.67C449.18 731.029 448.845 731.331 448.462 731.56C448.079 731.789 447.654 731.94 447.212 732.004L446.744 732.063Z" fill="#37474F"/>
<path d="M463.874 734.109C463.301 734.114 462.736 733.972 462.234 733.695C461.732 733.419 461.31 733.017 461.009 732.53C456.946 724.111 455.934 714.542 458.144 705.459C458.545 703.507 459.365 701.666 460.545 700.061C461.726 698.456 463.241 697.126 464.985 696.162C465.387 695.963 465.825 695.847 466.273 695.819C466.721 695.791 467.171 695.852 467.595 695.999C468.019 696.145 468.41 696.375 468.745 696.674C469.08 696.973 469.352 697.336 469.545 697.741C469.743 698.139 469.859 698.573 469.886 699.017C469.914 699.46 469.852 699.905 469.705 700.325C469.558 700.744 469.328 701.13 469.03 701.46C468.731 701.789 468.37 702.055 467.967 702.243C467.111 702.818 466.379 703.559 465.817 704.423C465.254 705.287 464.872 706.256 464.692 707.271C463.062 714.493 463.758 722.045 466.68 728.847C466.93 729.222 467.103 729.643 467.188 730.085C467.273 730.527 467.269 730.982 467.177 731.423C467.084 731.864 466.905 732.282 466.649 732.653C466.393 733.024 466.066 733.34 465.686 733.583C465.14 733.918 464.514 734.099 463.874 734.109Z" fill="#37474F"/>
<path d="M476.797 710.663C476.351 710.633 475.915 710.516 475.515 710.317C475.115 710.119 474.758 709.843 474.465 709.506C474.171 709.17 473.947 708.778 473.806 708.354C473.664 707.931 473.608 707.483 473.639 707.038C473.693 706.506 473.62 705.97 473.427 705.472C473.234 704.974 472.926 704.529 472.528 704.173C471.037 702.952 469.127 702.364 467.208 702.536C466.746 702.659 466.264 702.683 465.793 702.607C465.321 702.531 464.871 702.356 464.472 702.094C464.072 701.832 463.733 701.489 463.476 701.086C463.218 700.684 463.049 700.232 462.978 699.759C462.908 699.287 462.938 698.805 463.067 698.345C463.196 697.885 463.42 697.458 463.725 697.091C464.031 696.723 464.41 696.425 464.839 696.214C465.268 696.004 465.736 695.887 466.214 695.87C468.169 695.608 470.157 695.771 472.044 696.346C473.93 696.921 475.671 697.895 477.148 699.203C478.285 700.25 479.17 701.54 479.738 702.978C480.305 704.416 480.539 705.964 480.422 707.505C480.392 707.951 480.275 708.387 480.076 708.787C479.878 709.187 479.602 709.544 479.265 709.837C478.929 710.131 478.537 710.355 478.113 710.496C477.69 710.638 477.242 710.695 476.797 710.663Z" fill="#37474F"/>
<path d="M385.349 655.702C385.02 655.762 384.683 655.762 384.355 655.702C383.491 655.432 382.767 654.833 382.341 654.034C381.914 653.236 381.818 652.302 382.074 651.433L406.515 572.149C406.929 570.83 407.076 569.442 406.945 568.067C406.814 566.691 406.41 565.355 405.754 564.138L393.008 539.874C392.599 539.075 392.522 538.146 392.796 537.291C393.07 536.436 393.672 535.725 394.47 535.313C394.864 535.102 395.296 534.973 395.741 534.932C396.186 534.892 396.634 534.941 397.06 535.077C397.485 535.214 397.879 535.434 398.218 535.726C398.556 536.017 398.833 536.374 399.031 536.775L411.66 560.981C413.749 565.046 414.168 569.767 412.829 574.137L388.389 653.304C388.195 653.971 387.798 654.56 387.253 654.99C386.708 655.419 386.042 655.668 385.349 655.702Z" fill="#37474F"/>
<path d="M353.834 673.184H353.249C352.808 673.113 352.386 672.955 352.008 672.719C351.629 672.482 351.302 672.172 351.046 671.806C350.789 671.441 350.609 671.028 350.516 670.592C350.422 670.155 350.417 669.704 350.501 669.266C351.066 665.362 352.562 661.651 354.862 658.446C357.161 655.24 360.198 652.635 363.715 650.848C367.246 648.999 371.125 647.909 375.102 647.647C379.079 647.385 383.067 647.958 386.81 649.328C387.624 649.716 388.251 650.411 388.553 651.261C388.854 652.111 388.806 653.045 388.418 653.859C388.031 654.674 387.335 655.3 386.486 655.602C385.636 655.903 384.701 655.855 383.887 655.467C381.094 654.533 378.141 654.176 375.206 654.417C372.272 654.659 369.416 655.493 366.814 656.871C364.236 658.192 362.014 660.115 360.335 662.476C358.656 664.837 357.569 667.567 357.166 670.435C357.028 671.215 356.616 671.919 356.005 672.423C355.395 672.926 354.625 673.196 353.834 673.184Z" fill="#37474F"/>
<path d="M365.589 685.17C364.783 685.166 364.006 684.876 363.395 684.351C362.785 683.826 362.381 683.101 362.256 682.305C361.677 677.998 361.975 673.618 363.13 669.428C364.286 665.239 366.275 661.326 368.98 657.924C370.895 655.382 373.32 653.269 376.098 651.718C378.877 650.168 381.949 649.214 385.117 648.919C386.017 648.857 386.904 649.155 387.584 649.747C388.264 650.339 388.681 651.177 388.743 652.077C388.805 652.976 388.507 653.863 387.915 654.543C387.323 655.223 386.485 655.64 385.585 655.702C383.356 655.937 381.2 656.636 379.257 657.754C377.313 658.871 375.625 660.383 374.301 662.192C370.059 667.585 368.125 674.438 368.922 681.253C368.996 681.691 368.983 682.14 368.881 682.573C368.78 683.006 368.593 683.414 368.332 683.774C368.07 684.133 367.739 684.437 367.359 684.667C366.978 684.897 366.555 685.048 366.115 685.112L365.589 685.17Z" fill="#37474F"/>
<path d="M382.717 687.216C382.151 687.222 381.592 687.086 381.091 686.821C380.591 686.555 380.165 686.169 379.852 685.696C375.79 677.256 374.778 667.669 376.987 658.566C377.403 656.612 378.234 654.771 379.424 653.167C380.615 651.562 382.137 650.233 383.887 649.27C384.694 648.887 385.619 648.838 386.462 649.133C387.305 649.429 387.998 650.045 388.389 650.848C388.588 651.251 388.704 651.689 388.732 652.137C388.76 652.585 388.699 653.034 388.552 653.459C388.406 653.883 388.176 654.274 387.877 654.608C387.578 654.943 387.215 655.215 386.81 655.409C385.963 655.979 385.237 656.713 384.675 657.566C384.113 658.419 383.726 659.375 383.536 660.379C381.893 667.619 382.589 675.193 385.524 682.013C385.772 682.383 385.944 682.799 386.028 683.237C386.113 683.675 386.108 684.125 386.016 684.562C385.923 684.998 385.744 685.411 385.489 685.777C385.233 686.142 384.907 686.453 384.53 686.69C383.99 687.04 383.36 687.223 382.717 687.216Z" fill="#37474F"/>
<path d="M395.699 663.829H395.406C394.963 663.799 394.53 663.682 394.133 663.483C393.736 663.283 393.382 663.007 393.093 662.669C392.805 662.331 392.586 661.939 392.451 661.516C392.316 661.092 392.268 660.646 392.308 660.204C392.354 659.676 392.272 659.145 392.068 658.657C391.865 658.168 391.545 657.736 391.138 657.397C390.41 656.776 389.562 656.31 388.647 656.028C387.732 655.747 386.769 655.655 385.817 655.76C385.376 655.825 384.926 655.803 384.493 655.694C384.06 655.586 383.653 655.393 383.295 655.127C382.936 654.861 382.634 654.527 382.404 654.144C382.175 653.761 382.024 653.337 381.958 652.895C381.893 652.454 381.915 652.004 382.024 651.571C382.133 651.138 382.326 650.731 382.592 650.372C382.858 650.014 383.192 649.711 383.575 649.482C383.958 649.253 384.382 649.101 384.823 649.036C386.783 648.774 388.776 648.942 390.664 649.527C392.552 650.113 394.29 651.103 395.757 652.427C396.898 653.471 397.786 654.762 398.353 656.2C398.921 657.639 399.153 659.188 399.031 660.73C398.959 661.568 398.578 662.349 397.962 662.922C397.346 663.494 396.54 663.817 395.699 663.829Z" fill="#37474F"/>
<path d="M650.569 466.904C650.569 466.904 772.945 446.966 806.507 440.943C840.068 434.921 861 429.249 861 429.249C861 429.249 852.815 401.769 819.37 382.065C821.592 379.024 820.422 369.552 801.244 354.584C780.312 338.212 760.316 331.956 755.814 340.961C754.82 336.049 732.426 325.583 721.667 322.601C710.909 319.619 633.203 425.975 633.203 425.975L650.569 466.904Z" fill="#E0E0E0"/>
<path opacity="0.25" d="M650.569 466.904C650.569 466.904 772.945 446.966 806.507 440.943C840.068 434.921 861 429.249 861 429.249C861 429.249 852.815 401.769 819.37 382.065C821.592 379.024 820.422 369.552 801.244 354.584C780.312 338.212 760.316 331.956 755.814 340.961C754.82 336.049 732.426 325.583 721.667 322.601C710.909 319.619 633.203 425.975 633.203 425.975L650.569 466.904Z" fill="black"/>
<path d="M819.369 382.123C821.591 379.083 820.422 369.611 801.244 354.642C780.312 338.271 760.315 332.015 755.813 341.019C754.819 336.107 732.425 325.641 721.667 322.66C718.919 321.899 711.844 328.506 702.781 338.154C719.913 340.727 737.863 350.491 738.74 355.695C758.97 352.011 794.344 381.071 799.139 393.817C810.833 393.817 835.215 423.929 838.313 434.745C852.755 431.588 861 429.308 861 429.308C861 429.308 852.814 401.827 819.369 382.123Z" fill="#263238"/>
<path opacity="0.25" d="M650.565 466.904C650.565 466.904 772.942 446.966 806.504 440.943C840.065 434.921 860.997 429.249 860.997 429.249C860.997 429.249 852.811 401.769 819.367 382.064C805.744 395.395 683.016 439.423 644.66 452.988L650.565 466.904Z" fill="black"/>
<path opacity="0.25" d="M639.343 440.475C656.883 425.566 739.501 354.701 755.814 341.077C754.82 336.166 732.426 325.7 721.667 322.718C710.909 319.736 633.203 425.975 633.203 425.975L639.343 440.475Z" fill="black"/>
<path d="M576.953 362.126C518.016 337.16 431.949 330.553 399.615 342.714C367.282 354.876 359.564 376.919 371.141 394.577C382.718 412.235 576.953 362.126 576.953 362.126Z" fill="#E0E0E0"/>
<path opacity="0.25" d="M576.953 362.126C518.016 337.16 431.949 330.553 399.615 342.714C367.282 354.876 359.564 376.919 371.141 394.577C382.718 412.235 576.953 362.126 576.953 362.126Z" fill="black"/>
<path d="M383.83 371.657C348.748 368.675 333.604 347.977 318.987 330.728C303.2 312.018 285.952 277.579 255.548 268.809C242.786 264.716 229.161 264.12 216.091 267.081C203.021 270.043 190.984 276.454 181.233 285.648C160.593 303.657 154.22 335.347 163.692 344.585L200.411 382.24C214.662 397.205 227.429 413.516 238.533 430.945C255.782 461.291 263.616 488.947 278.994 521.28C291.919 549.084 312.224 572.808 337.699 589.87C363.174 606.933 392.842 616.679 423.472 618.047C499.833 622.023 540.762 595.303 540.762 595.303C590.831 566.152 629.539 520.889 650.567 466.904C683.427 378.732 627.18 371.949 591.455 364.524C555.73 357.098 516.848 357.683 472.937 360.782C429.027 363.88 409.615 373.82 383.83 371.657Z" fill="#E0E0E0"/>
<path opacity="0.15" d="M383.83 371.657C348.748 368.675 333.604 347.977 318.987 330.728C303.2 312.018 285.952 277.579 255.548 268.809C242.786 264.716 229.161 264.12 216.091 267.081C203.021 270.043 190.984 276.454 181.233 285.648C160.593 303.657 154.22 335.347 163.692 344.585L200.411 382.24C214.662 397.205 227.429 413.516 238.533 430.945C255.782 461.291 263.616 488.947 278.994 521.28C291.919 549.084 312.224 572.808 337.699 589.87C363.174 606.933 392.842 616.679 423.472 618.047C499.833 622.023 540.762 595.303 540.762 595.303C590.831 566.152 629.539 520.889 650.567 466.904C683.427 378.732 627.18 371.949 591.455 364.524C555.73 357.098 516.848 357.683 472.937 360.782C429.027 363.88 409.615 373.82 383.83 371.657Z" fill="black"/>
<path d="M373.715 533.208C348.632 572.148 311.562 566.302 310.1 566.302C302.557 558.573 295.854 550.067 290.104 540.926C289.11 539.406 288.174 537.885 287.297 536.307C286.42 534.728 285.426 533.149 284.549 531.571C282.678 528.238 280.866 524.788 279.229 521.222C263.851 488.888 255.841 461.232 238.709 430.945C233.268 421.808 227.151 413.091 220.408 404.867C212.851 396.515 203.11 390.439 192.284 387.327L163.927 344.468C154.221 335.23 160.594 303.54 181.468 285.531C191.226 276.351 203.272 269.962 216.345 267.03C229.418 264.099 243.038 264.733 255.782 268.867C286.186 277.579 303.493 312.018 319.222 330.728C333.839 347.977 348.456 368.675 384.064 371.657H387.865C391.139 371.657 394.355 371.657 397.454 371.657C414.001 420.128 399.266 493.566 373.715 533.208Z" fill="#363A5A"/>
<path d="M373.717 533.208C348.633 572.149 311.564 566.302 310.102 566.302C302.559 558.573 295.856 550.067 290.105 540.926C289.111 539.406 288.176 537.886 287.299 536.307C286.422 534.728 285.428 533.149 284.551 531.571C292.737 538.938 331.326 543.674 360.21 501.693C389.094 459.712 391.258 379.96 383.598 371.715H387.399H391.141C393.129 371.715 395.058 371.715 396.988 371.715C414.002 420.128 399.268 493.566 373.717 533.208Z" fill="white"/>
<path d="M213.16 335.698L212.868 335.347C212.721 334.811 212.721 334.246 212.868 333.71C212.883 332.239 213.019 330.773 213.277 329.325C213.623 327.921 214.26 326.606 215.148 325.466C216.781 323.782 219.002 322.797 221.346 322.718C223.09 322.539 224.849 322.843 226.433 323.595C228.07 324.355 228.947 325.933 230.175 327.161C231.403 328.389 232.397 329.559 231.695 331.313L231.11 332.541C231.077 332.93 231.077 333.321 231.11 333.71C230.94 335.032 230.502 336.305 229.824 337.452C228.998 338.664 227.863 339.633 226.537 340.26C225.211 340.887 223.742 341.149 222.281 341.019C221.071 341.041 219.869 340.802 218.759 340.317C217.649 339.833 216.657 339.115 215.85 338.212C215.375 337.582 214.868 336.977 214.33 336.399C213.922 336.196 213.531 335.962 213.16 335.698Z" fill="white"/>
<path d="M222.279 336.867C224.959 336.867 227.132 334.695 227.132 332.015C227.132 329.334 224.959 327.162 222.279 327.162C219.599 327.162 217.426 329.334 217.426 332.015C217.426 334.695 219.599 336.867 222.279 336.867Z" fill="#37474F"/>
<path d="M227.133 329.033C227.133 329.529 226.935 330.005 226.585 330.356C226.234 330.706 225.758 330.904 225.262 330.904C224.765 330.904 224.289 330.706 223.939 330.356C223.588 330.005 223.391 329.529 223.391 329.033C223.391 328.536 223.588 328.06 223.939 327.71C224.289 327.359 224.765 327.162 225.262 327.162C225.758 327.162 226.234 327.359 226.585 327.71C226.935 328.06 227.133 328.536 227.133 329.033Z" fill="#FAFAFA"/>
<path d="M611.686 549.696C648.697 525.373 674.599 470.996 687.696 437.903C700.793 404.809 704.36 387.911 692.199 390.425C717.34 343.65 717.457 326.401 705.88 330.904C723.421 281.438 729.268 268.4 709.038 280.211C688.807 292.021 656.006 327.571 591.69 364.699C527.373 401.827 545.849 563.378 611.686 549.696Z" fill="#363A5A"/>
<path d="M611.685 549.696C617.478 545.819 622.899 541.415 627.881 536.541C626.037 532.853 623.354 529.648 620.046 527.186C622.191 525.051 623.892 522.513 625.053 519.719C626.215 516.924 626.812 513.928 626.812 510.902C626.812 507.876 626.215 504.88 625.053 502.085C623.892 499.291 622.191 496.753 620.046 494.618C623.869 491.483 626.986 487.576 629.192 483.153C631.399 478.729 632.646 473.889 632.851 468.95C633.144 461.758 629.519 453.105 622.385 452.52C628.068 448.069 631.951 441.715 633.319 434.628C633.904 427.495 627.472 419.602 620.69 421.356C623.493 418.179 625.63 414.473 626.976 410.456C628.322 406.438 628.848 402.192 628.525 397.968C627.989 393.771 625.954 389.908 622.795 387.093C619.636 384.278 615.566 382.7 611.334 382.649C613.517 379.305 614.765 375.438 614.95 371.449C615.135 367.461 614.25 363.495 612.387 359.963C611.307 357.989 609.904 356.21 608.236 354.701C602.915 358.033 597.419 361.366 591.572 364.757C527.138 401.827 545.849 563.378 611.685 549.696Z" fill="#263238"/>
<path d="M516.322 394.46C534.681 385.748 579.644 357.858 591.455 364.699C603.266 371.54 596.834 386.508 591.455 393.407C619.696 393.407 611.042 416.211 596.659 431.413C623.379 428.606 614.609 448.544 603.207 459.946C627.297 459.946 617.298 492.279 599.231 502.687C622.21 496.197 612.738 522.742 598.12 534.845C627.647 531.805 613.556 578.229 540.996 595.186C509.948 580.51 488.841 459.01 516.322 394.46Z" fill="#E0E0E0"/>
<path opacity="0.25" d="M516.322 394.46C534.681 385.748 579.644 357.858 591.455 364.699C603.266 371.54 596.834 386.508 591.455 393.407C619.696 393.407 611.042 416.211 596.659 431.413C623.379 428.606 614.609 448.544 603.207 459.946C627.297 459.946 617.298 492.279 599.231 502.687C622.21 496.197 612.738 522.742 598.12 534.845C627.647 531.805 613.556 578.229 540.996 595.186C509.948 580.51 488.841 459.01 516.322 394.46Z" fill="black"/>
<path d="M569.763 582.205C573.856 572.148 571.985 558.525 562.279 553.672C568.672 547.685 573.302 540.062 575.668 531.629C577.188 523.034 572.16 512.685 563.507 511.808C568.252 508.457 572.28 504.192 575.353 499.261C578.426 494.331 580.481 488.836 581.398 483.099C582.355 477.952 581.744 472.635 579.644 467.839C578.549 465.469 576.837 463.436 574.687 461.955C572.537 460.474 570.029 459.598 567.424 459.419C570.813 457.095 573.607 454.004 575.578 450.398C577.549 446.791 578.641 442.77 578.767 438.663C578.747 434.552 577.284 430.58 574.634 427.438C571.984 424.296 568.315 422.185 564.267 421.472C567.79 417.647 569.855 412.704 570.101 407.509C570.347 402.314 568.757 397.198 565.611 393.056C562.808 389.546 559.32 386.643 555.36 384.522C551.4 382.401 547.05 381.108 542.574 380.719C532.284 386.098 522.695 391.478 516.322 394.46C488.841 458.776 509.948 580.509 540.996 595.185C550.044 593.123 558.904 590.306 567.482 586.766C568.358 585.306 569.121 583.781 569.763 582.205Z" fill="#263238"/>
<path d="M451.477 428.665C419.085 454.625 381.723 512.861 425.341 564.606C457.616 602.962 516.378 605.126 540.877 595.186C565.376 585.246 566.253 563.028 543.566 564.606C574.672 541.745 563.972 515.141 545.262 520.111C573.971 491.169 573.152 463.688 551.109 469.126C570.345 443.75 561.283 424.221 548.127 430.887C563.505 397.091 543.449 385.28 515.969 394.46C492.496 401.666 470.609 413.274 451.477 428.665Z" fill="#E0E0E0"/>
<path opacity="0.25" d="M455.571 431.822C425.284 460.179 392.6 509.878 425.459 564.43C457.735 602.786 516.496 604.95 540.995 595.01C565.494 585.07 566.371 562.852 543.685 564.43C574.79 541.569 564.091 514.965 545.38 519.935C574.089 490.993 573.27 463.512 551.227 468.95C570.464 443.574 561.401 424.045 548.245 430.711C563.623 396.915 543.568 385.105 516.087 394.284C493.883 403.178 473.404 415.881 455.571 431.822Z" fill="black"/>
<path d="M148.547 399.313C159.247 399.605 180.647 391.419 192.282 387.326C203.917 383.234 208.303 376.451 207.66 365.751C196.726 360.547 154.511 383.526 148.547 399.313Z" fill="#37474F"/>
<path d="M173.632 336.867C168.838 338.212 153.987 352.596 145.216 373.294C140.578 383.836 138.726 395.392 139.837 406.855C150.051 397.498 161.044 389.028 172.697 381.538C196.085 367.681 211.521 366.277 212.982 361.775C215.263 354.7 203.51 353.706 194.564 345.17C188.951 339.849 180.532 334.938 173.632 336.867Z" fill="#363A5A"/>
<path d="M194.563 345.17C188.716 339.849 180.53 334.938 173.631 336.867C170.064 337.92 160.709 346.339 152.523 359.261C157.61 357.215 162.229 356.045 166.264 361.834C170.298 367.622 183.103 362.243 192.341 359.729C201.579 357.215 209.882 356.221 212.981 361.775C215.261 354.7 203.509 353.706 194.563 345.17Z" fill="#FAFAFA"/>
</svg>
