<svg width="1000" height="1000" viewBox="0 0 1000 1000" fill="none" xmlns="http://www.w3.org/2000/svg">
<path d="M500.36 822.49C687.386 822.49 839.001 734.951 839.001 626.967C839.001 518.983 687.386 431.444 500.36 431.444C313.334 431.444 161.719 518.983 161.719 626.967C161.719 734.951 313.334 822.49 500.36 822.49Z" fill="#FAFAFA"/>
<path d="M610.181 667.257C688.995 667.257 752.886 630.367 752.886 584.861C752.886 539.354 688.995 502.464 610.181 502.464C531.368 502.464 467.477 539.354 467.477 584.861C467.477 630.367 531.368 667.257 610.181 667.257Z" fill="#E0E0E0"/>
<path d="M444.561 767.396C525.129 767.396 590.442 729.686 590.442 683.168C590.442 636.65 525.129 598.94 444.561 598.94C363.993 598.94 298.68 636.65 298.68 683.168C298.68 729.686 363.993 767.396 444.561 767.396Z" fill="#E0E0E0"/>
<path d="M402.572 646.439C486.632 646.439 554.776 607.095 554.776 558.562C554.776 510.029 486.632 470.685 402.572 470.685C318.511 470.685 250.367 510.029 250.367 558.562C250.367 607.095 318.511 646.439 402.572 646.439Z" fill="#E0E0E0"/>
<path d="M511.081 336.091C498.346 319.042 483.572 307.252 478.342 286.243C473.112 265.234 478.77 239.202 462.223 218.577C445.676 197.952 420.589 195.558 398.841 190.136C377.094 184.714 369.086 183.384 369.086 183.384C369.086 183.384 388.485 185.881 403.791 183.621C419.097 181.36 444.908 165.7 470.6 191.835C496.292 217.971 496.75 218.695 507.373 227.604C517.996 236.513 550.898 254.582 547.264 295.684C543.629 336.786 540.497 354.101 527.289 382.852C527.348 382.867 518.912 346.581 511.081 336.091Z" fill="#13623C"/>
<path d="M516.845 451.877C513.55 436.276 519.09 430.528 525.798 407.436C531.988 386.132 523.434 356.465 511.023 336.091C516.239 345.562 520.316 373.234 516.446 397.685C512.575 422.137 508.689 433.217 516.845 451.877Z" fill="#13623C"/>
<path d="M369.086 183.384C403.067 193.638 431.138 205.812 447.271 220.32C459.962 231.8 474.028 247.135 475.431 262.619C475.431 262.619 482.124 233.543 459.859 213.361C437.594 193.18 393.094 186.679 369.086 183.384Z" fill="#13623C"/>
<path d="M531.397 272.074C531.449 278.884 530.955 285.687 529.919 292.418C529.267 296.994 528.349 301.527 527.171 305.996C527.171 305.745 527.053 305.479 526.979 305.228C525.017 298.512 522.664 291.916 519.932 285.475C519.938 285.435 519.938 285.395 519.932 285.356C517.261 279.072 514.273 272.928 510.979 266.948C511.33 264.655 511.498 262.338 511.481 260.018C511.481 257.684 511.555 255.365 511.481 253.045C511.407 250.725 511.156 248.45 510.831 246.19C510.44 243.783 509.872 241.407 509.132 239.083C509.043 238.803 508.674 238.699 508.733 239.083C509.029 241.299 509.132 243.589 509.354 245.82C509.575 248.051 509.723 250.356 509.782 252.631C509.841 254.907 509.782 257.182 509.664 259.472C509.575 260.861 509.383 262.249 509.191 263.638C500.763 249.1 490.931 235.422 479.835 222.802C469.035 210.392 457.481 197.834 441.421 191.614C441.156 191.51 441.2 192.012 441.421 192.101C447.903 195.416 453.911 199.585 459.284 204.497C464.23 209.221 468.883 214.244 473.216 219.537C483.238 231.29 492.397 243.753 500.622 256.827C505.782 265.101 510.378 273.715 514.377 282.608C503.492 277.959 494.025 270.524 486.926 261.053C486.631 260.669 486.394 261.141 486.586 261.452C490.128 267.111 494.627 272.11 499.883 276.226C504.659 280.046 509.983 283.124 515.677 285.356C520.592 296.728 524.306 308.582 526.758 320.726C524.024 319.337 521.247 318.052 518.602 316.53C514.889 314.385 511.303 312.027 507.861 309.468C501.229 304.69 495.179 299.152 489.837 292.965C489.63 292.714 489.527 293.128 489.645 293.29C494.35 299.652 499.807 305.421 505.896 310.473C512.19 315.525 519.504 320.563 527.304 323.415C528.176 328.157 528.929 332.944 529.358 337.79C530.596 351.095 530.1 364.504 527.881 377.681C527.659 378.922 527.423 380.163 527.201 381.404C527.408 382.261 527.526 382.793 527.526 382.793C529.461 378.582 531.146 374.637 532.682 370.811C532.83 369.747 533.007 368.668 533.125 367.59C533.879 360.654 534.156 353.673 533.953 346.699C533.552 334.851 531.868 323.081 528.929 311.595C530.598 305.388 531.749 299.053 532.372 292.655C532.91 285.798 532.781 278.906 531.988 272.074C531.796 271.941 531.397 271.764 531.397 272.074Z" fill="#37474F"/>
<path d="M542.305 733.135C554.597 737.316 571.277 729.249 583.215 722.586C595.152 715.923 623.282 709.215 637.244 705.876C651.206 702.537 663.69 699.582 680.267 683.907C696.844 668.231 726.215 668.911 744.195 680.376C755.251 687.641 764.305 697.568 770.523 709.245C770.523 709.245 773.478 687.586 745.407 672.235C745.407 672.235 730.751 642.465 690.564 643.322C650.378 644.179 619.249 660.49 600.308 678.145C581.368 695.8 573.611 712.791 564.023 723.354C561.306 726.434 557.963 728.9 554.218 730.586C550.473 732.273 546.412 733.141 542.305 733.135Z" fill="#13623C"/>
<path d="M648.531 702.922C639.622 703.102 630.716 702.424 621.937 700.897C606.912 698.356 601.578 708.285 583.199 722.571C595.122 715.908 623.267 709.201 637.229 705.862C641.085 704.946 644.808 704.059 648.531 702.922Z" fill="#13623C"/>
<path d="M692.868 655.437C702.221 654.91 711.589 656.127 720.496 659.027C729.457 661.988 737.85 666.449 745.317 672.22C738.132 665.995 729.891 661.106 720.984 657.786C711.987 654.563 702.465 653.06 692.913 653.353C683.255 653.749 673.704 655.52 664.546 658.613C656.504 661.119 648.637 664.155 640.996 667.699C644.808 662.218 650.23 657.845 655.46 654.033C655.652 653.9 655.829 653.324 655.46 653.472C647.984 656.426 642.651 662.646 637.908 669.162C637.79 669.236 637.657 669.28 637.524 669.354C628.795 673.96 620.587 679.493 613.043 685.857C609.985 688.368 607 690.939 604.031 693.525C605.168 690.969 605.966 688.191 606.986 685.709C608.792 681.074 611.414 676.801 614.727 673.092C614.919 672.885 614.919 672.338 614.565 672.619C610.55 675.785 607.382 679.896 605.346 684.586C604.385 686.906 603.661 689.329 602.686 691.648C602.202 692.861 601.593 694.019 600.869 695.105C600.234 696.051 599.584 697.1 598.904 698.178C596.274 700.675 593.689 703.231 591.192 705.846C584.351 712.908 577.585 720.133 569.385 725.245C565.359 727.851 560.967 729.842 556.354 731.155C551.768 732.41 547.043 733.09 542.289 733.179C551.991 733.684 561.631 731.359 570.035 726.486C578.56 721.463 585.622 714.297 592.61 707.427C596.127 703.985 599.628 700.557 603.277 697.336L607.178 694.012C607.266 694.012 607.325 694.012 607.458 694.012C610.192 693.495 615.318 692.697 618.066 692.357C620.534 692.047 623.001 691.693 625.453 691.471C630.226 691.057 635.026 691.057 639.799 691.471C640.006 691.471 640.42 690.998 640.154 690.85C635.943 688.442 630.743 688.767 626.015 689.033C623.459 689.181 620.903 689.24 618.347 689.314C616.338 689.314 614.314 689.58 612.304 689.654L614.476 687.866C618.845 684.3 623.402 680.971 628.128 677.893C641.986 676.298 657.455 685.827 670.618 677.657C670.781 677.554 670.914 677.051 670.618 677.199C658.016 683.375 646.152 675.397 633.565 674.554C635.204 673.609 636.844 672.678 638.529 671.821C642.311 669.856 646.182 668.128 650.112 666.517C651.725 666.624 653.346 666.51 654.928 666.177C657.196 665.946 659.476 665.862 661.754 665.926C665.576 665.92 669.393 666.197 673.174 666.754C676.868 667.359 680.562 667.98 684.181 668.748C688.318 669.635 692.307 670.226 696.518 669.132C696.725 669.132 697.153 668.453 696.784 668.423C692.51 668.147 688.271 667.474 684.122 666.414C680.044 665.335 676.174 663.725 671.978 663.06C668.24 662.433 664.441 662.254 660.661 662.528C662.138 662.011 663.615 661.494 665.093 661.051C674.063 657.963 683.403 656.075 692.868 655.437Z" fill="#37474F"/>
<path d="M304.16 333.874C273.755 339.341 233.436 361.753 223.153 416.773C223.153 416.773 203.858 467.655 241.399 531.081C284.422 603.741 356.048 605.367 395.332 610.345C462.999 618.944 463.693 604.096 485.707 575.877C499.003 558.887 528.715 512.348 528.774 458.791C528.833 405.234 509.227 345.014 441.266 316.795C383.291 292.728 353.861 306.099 339.885 317.711C329.513 326.295 322.732 330.535 304.16 333.874Z" fill="#F80202" fill-opacity="0.48"/>
<path opacity="0.2" d="M304.16 333.874C273.755 339.341 233.436 361.753 223.153 416.773C223.153 416.773 203.858 467.655 241.399 531.081C284.422 603.741 356.048 605.367 395.332 610.345C462.999 618.944 463.693 604.096 485.707 575.877C499.003 558.887 528.715 512.348 528.774 458.791C528.833 405.234 509.227 345.014 441.266 316.795C383.291 292.728 353.861 306.099 339.885 317.711C329.513 326.295 322.732 330.535 304.16 333.874Z" fill="white"/>
<path opacity="0.7" d="M528.776 458.791C528.787 451.388 528.397 443.99 527.609 436.629C519.454 405.603 497.41 353.11 456.884 331.983C394.02 299.228 352.696 331.466 333.519 354.44C316.056 375.346 286.7 373.794 282.061 388.864C281.809 389.056 281.543 389.233 281.292 389.44C281.041 389.647 280.834 391.45 281.588 390.918C285.538 388.239 289.975 386.362 294.648 385.392C296.221 385.032 297.815 384.77 299.42 384.609C305.463 383.929 311.639 382.6 317.622 381.462C322.875 380.499 328.036 379.085 333.047 377.237C335.859 375.989 338.442 374.276 340.685 372.169L341.172 371.682C344.497 368.727 347.747 365.255 350.702 362.389C382.274 334.672 417.334 332.84 455.067 357.188C485.502 376.823 509.289 412.813 517.119 451.152C524.525 486.304 518.646 522.954 500.616 554.026C508.169 541.151 514.396 527.543 519.202 513.411C519.321 512.909 519.424 512.407 519.542 511.934C525.443 494.827 528.561 476.885 528.776 458.791Z" fill="#F80202" fill-opacity="0.48"/>
<path opacity="0.2" d="M519.29 513.397C514.483 527.529 508.256 541.137 500.704 554.012C518.734 522.94 524.613 486.29 517.207 451.138C509.347 412.799 485.56 376.809 455.155 357.174C417.421 332.87 382.362 334.658 350.789 362.374C347.834 365.241 344.584 368.713 341.26 371.667L340.772 372.155C338.529 374.262 335.947 375.975 333.134 377.223C328.123 379.071 322.963 380.485 317.71 381.448C311.8 382.586 305.551 383.915 299.508 384.595C297.902 384.756 296.309 385.018 294.736 385.378C290.063 386.348 285.625 388.225 281.675 390.904C280.922 391.421 280.922 389.766 281.38 389.426C286.091 385.977 291.263 383.207 296.745 381.197C297.74 380.767 298.761 380.402 299.803 380.104C304.039 378.88 308.346 377.923 312.701 377.237C316.764 376.454 320.783 375.612 324.728 374.445C326.926 373.835 329.091 373.11 331.213 372.273C333.755 371.298 337.36 368.624 341.127 365.699C344.894 362.773 349.149 359.198 352.429 356.834C384.076 331.467 419.889 330.551 456.957 354.441C488.116 374.519 512.449 411.292 520.487 450.473C524.742 471.279 524.334 492.769 519.29 513.397Z" fill="black"/>
<path opacity="0.4" d="M421.203 555.932C411.423 556.759 401.376 556.36 392.069 553.243C375.063 547.54 362.047 533.135 354.276 516.972C341.895 491.191 341.526 461.288 328.835 435.64C315.641 409.046 282.828 393.105 253.87 402.427C253.087 402.678 252.393 402.944 251.55 403.225C231.044 410.775 217.924 430.897 218.175 452.748C218.441 473.166 223.376 500.676 241.371 531.052C279.976 596.266 341.644 604.258 382.273 608.809C401.864 606.933 421.011 602.545 437.499 592.158C443.971 588.081 450.117 582.91 452.274 575.197C453.429 571.367 453.042 567.237 451.195 563.688C445.832 553.79 432.181 555.016 421.203 555.932Z" fill="#F80202" fill-opacity="0.48"/>
<path opacity="0.5" d="M446.763 599.989C441.149 600.447 424.07 598.718 404.878 594.212C382.347 588.908 360.482 589.381 335.587 583.515C280.922 570.647 236.703 534.524 223.805 490.438C227.89 504.665 233.805 518.302 241.401 531.008C284.424 603.668 356.049 605.293 395.334 610.272C463 618.87 463.695 604.022 485.708 575.803C488.072 572.76 490.983 568.756 494.159 563.984C490.303 568.889 470.919 598.039 446.763 599.989Z" fill="#F80202" fill-opacity="0.48"/>
<path opacity="0.05" d="M446.763 599.989C441.149 600.447 424.07 598.718 404.878 594.212C382.347 588.908 360.482 589.381 335.587 583.515C280.922 570.647 236.703 534.524 223.805 490.438C227.89 504.665 233.805 518.302 241.401 531.008C284.424 603.668 356.049 605.293 395.334 610.272C463 618.87 463.695 604.022 485.708 575.803C488.072 572.76 490.983 568.756 494.159 563.984C490.303 568.889 470.919 598.039 446.763 599.989Z" fill="black"/>
<path opacity="0.1" d="M474.167 392.026C470.341 382.839 463.931 374.961 455.713 369.348C422.191 346.167 365.014 347.467 344.744 387.756C342.906 391.051 341.892 394.741 341.789 398.512C341.966 408.101 351.54 415.266 360.996 416.596C370.451 417.925 380.01 415.015 389.362 412.917C402.659 409.962 416.503 408.603 429.918 411.011C443.333 413.419 458.432 423.185 471.537 416.699C480.446 412.296 477.136 399.458 474.167 392.026ZM476.146 426.672C474.397 427.682 472.964 429.161 472.01 430.942C471.442 432.016 471.085 433.19 470.961 434.399C470.854 436.124 471.175 437.849 471.894 439.421C472.613 440.993 473.708 442.363 475.083 443.411C476.942 444.854 479.129 445.814 481.449 446.205C483.769 446.597 486.15 446.409 488.379 445.657C490.28 445.209 491.956 444.089 493.096 442.503C494.236 440.918 494.765 438.973 494.585 437.029C494.603 434.868 494.041 432.742 492.958 430.873C491.875 429.004 490.309 427.46 488.426 426.402C486.542 425.344 484.409 424.811 482.249 424.858C480.089 424.906 477.982 425.532 476.146 426.672Z" fill="white"/>
<path opacity="0.15" d="M470.902 390.268C468.76 385.378 465.096 381.566 461.225 377.843C455.669 372.217 449.168 367.612 442.018 364.236C430.395 359.281 417.847 356.868 405.216 357.159C398.094 357.263 389.717 357.573 383.778 361.754C383.468 361.961 383.246 362.818 383.778 362.936C387.295 363.49 390.863 363.654 394.416 363.424C397.991 363.424 401.566 363.261 405.156 363.32C411.613 363.42 418.045 364.143 424.363 365.477C429.996 366.767 435.503 368.552 440.822 370.811C446.156 372.903 451.281 375.495 456.128 378.552C461.52 382.128 465.45 386.974 470.385 390.992C470.813 391.347 470.991 390.49 470.902 390.268Z" fill="white"/>
<path d="M337.213 338.883C335.574 347.986 336.916 357.375 341.04 365.654C337.272 368.609 333.653 371.253 331.126 372.228C329.004 373.065 326.839 373.79 324.64 374.4C324.64 374.267 324.507 373.529 324.02 369.525C323.399 364.62 318.302 363.615 310.826 369.525C306.921 372.817 303.211 376.334 299.716 380.059C297.618 382.216 296.377 383.516 294.649 385.348C290.94 389.308 288 392.809 286.774 393.932C284.425 396.089 277.747 396.798 273.137 391.272C266.725 383.619 271.217 377.769 271.217 377.769C271.217 377.769 284.927 368.387 293.142 361.517C301.356 354.647 317.386 342.089 321.715 336.135C326.044 330.181 323.606 326.96 320.578 325.32C317.918 323.843 315.865 320.607 320.578 318.79C325.29 316.973 331.097 310.797 336.519 302.051C341.941 293.304 344.098 287.276 347.319 287.276C350.54 287.276 349.033 294.102 353.524 296.702C358.016 299.303 367.427 295.077 363.63 300.115C359.833 305.153 339.09 329.531 337.213 338.883Z" fill="#363A5A"/>
<path d="M271.215 377.769C271.215 377.769 266.783 383.679 273.136 391.273C277.745 396.798 284.423 396.089 286.772 393.932C292.889 387.239 279.459 371.963 271.215 377.769Z" fill="#37474F"/>
<path d="M329.084 369.096C327.208 367.619 327.902 362.182 324.652 361C321.401 359.818 314.782 365.536 310.055 370.16L310.823 369.51C318.299 363.6 323.396 364.605 324.016 369.51C324.504 373.514 324.593 374.253 324.637 374.386C326.835 373.775 329 373.05 331.123 372.214C333.664 371.239 337.269 368.564 341.036 365.639C341.036 365.654 330.975 370.633 329.084 369.096Z" fill="#37474F"/>
<path d="M317.711 340.567C317.711 340.567 327.831 333.18 327.905 329.147C327.979 325.113 324.153 324.596 321.744 324.271C319.336 323.946 317.77 321.745 318.169 320.474C316.987 322.217 318.612 324.271 320.577 325.335C323.606 326.975 326.058 330.21 321.715 336.15C320.496 337.723 319.158 339.2 317.711 340.567Z" fill="#37474F"/>
<path d="M353.525 296.644C350.999 295.166 350.349 292.389 349.713 290.217C350.169 294.971 349.779 299.768 348.561 304.385C347.571 309.084 349.063 310.295 353.126 307.163C357.189 304.031 365.123 298.091 363.261 300.529L363.631 300.056C367.398 295.018 357.972 299.214 353.525 296.644Z" fill="#37474F"/>
<path d="M257.165 393.74C237.294 411.055 207.494 458.333 195.098 484.705C182.703 511.077 189.188 559.507 194.433 578.492C199.678 597.477 221.027 630.896 236.51 640.426C251.994 649.955 262.425 657.475 266.059 658.155C269.694 658.835 270.181 650.325 279.179 640.648C288.176 630.97 296.819 605.086 297.661 569.731C298.503 534.376 288.486 516.662 278.558 482.947C268.63 449.232 263.592 413.582 263.68 401.024C263.725 387.86 262.986 388.672 257.165 393.74Z" fill="#13623C"/>
<path d="M276.048 608.07C275.244 606.588 274.356 605.152 273.389 603.771C269.605 598.189 265.475 592.85 261.023 587.785C252.788 578.462 243.944 569.697 234.547 561.546C234.399 560.32 234.222 559.094 234.089 557.867C233.045 548.447 232.488 538.979 232.42 529.501C236.844 532.042 241.116 534.839 245.214 537.878C250.55 541.847 255.679 546.088 260.579 550.584C265.539 555.031 270.221 559.777 274.6 564.796C279.055 569.767 283.014 575.16 286.42 580.9C283.618 574.758 280.081 568.978 275.886 563.688C271.74 558.379 267.27 553.331 262.5 548.574C257.662 543.842 252.525 539.425 247.12 535.351C242.46 531.799 237.519 528.632 232.346 525.881C232.346 525.526 232.346 525.172 232.346 524.817C232.346 514.712 232.922 504.606 233.912 494.545C237.99 497.115 242.023 499.79 245.997 502.523C251.094 506.098 256.162 509.733 261.008 513.648C265.936 517.452 270.633 521.547 275.073 525.911C279.591 530.228 283.633 535.017 287.129 540.197C284.228 534.586 280.602 529.38 276.344 524.714C272.133 520.043 267.638 515.637 262.884 511.52C253.944 503.96 244.43 497.103 234.429 491.014C235.414 481.982 236.773 472.999 238.507 464.065C243.84 468.202 249.1 472.502 254.256 476.889C260.372 482.106 266.216 487.634 271.764 493.451C269.489 490.096 267.022 486.875 264.376 483.804C261.658 480.79 258.861 477.835 255.985 474.939C250.675 469.797 245.071 464.968 239.201 460.475L239.511 458.909C240.989 451.877 242.762 444.874 244.756 437.959C247.933 440.574 251.065 443.308 254.153 446.07C256.029 447.769 257.905 449.483 259.752 451.241C261.599 452.999 263.416 454.787 265.307 456.545C263.971 454.339 262.521 452.204 260.964 450.148C259.368 448.109 257.713 446.129 255.955 444.238C252.752 440.829 249.321 437.64 245.687 434.694C246.47 432.109 247.297 429.523 248.169 426.967C251.73 416.463 255.305 405.559 261.348 396.133C254.094 404.673 249.809 415.488 245.214 425.83C244.062 428.578 242.969 431.37 241.934 434.162C238.019 436.488 234.267 439.08 230.706 441.919C228.782 443.432 226.947 445.055 225.21 446.78C223.463 448.504 221.876 450.383 220.467 452.394C224.184 449.331 228.093 446.509 232.169 443.943C234.828 442.214 237.546 440.545 240.25 438.89C238.093 445.14 236.172 451.463 234.547 457.86C234.326 458.688 234.148 459.53 233.941 460.357C228.196 464.41 222.764 468.89 217.69 473.757C214.927 476.446 212.268 479.239 209.756 482.164C207.29 485.122 205.052 488.263 203.063 491.56C208.024 485.782 213.46 480.43 219.315 475.56C223.747 471.955 228.18 468.483 232.819 465.218C230.849 473.925 229.312 482.711 228.209 491.575C225.387 493.895 222.698 496.318 220.113 498.874C216.892 502.096 213.863 505.505 211.041 509.083C208.179 512.616 205.572 516.348 203.241 520.252C200.909 524.143 198.903 528.22 197.242 532.441C199.381 528.48 201.764 524.655 204.378 520.991C206.974 517.346 209.766 513.844 212.74 510.501C217.386 505.308 222.392 500.45 227.722 495.963C226.655 505.546 226.073 515.176 225.978 524.817C225.978 525.467 225.978 526.117 225.978 526.767C223.143 529.58 220.608 532.679 218.414 536.016C215.708 540.108 213.317 544.4 211.263 548.855C209.164 553.256 207.334 557.781 205.782 562.403C204.19 567.006 203.067 571.758 202.428 576.586C203.588 571.896 205.135 567.31 207.052 562.876C208.958 558.443 210.953 554.011 213.243 549.845C215.494 545.621 218.006 541.54 220.763 537.627C222.378 535.352 224.139 533.185 226.037 531.141C226.236 541.944 227.139 552.722 228.741 563.408C227.351 566.415 226.156 569.509 225.166 572.671C223.8 577.037 222.681 581.477 221.812 585.968C220.955 590.4 220.187 594.995 219.758 599.545C219.251 604.097 219.113 608.682 219.344 613.256C219.533 608.702 220.026 604.166 220.822 599.678C221.575 595.246 222.403 590.725 223.467 586.308C224.53 581.89 225.816 577.547 227.219 573.262C227.899 571.268 228.697 569.303 229.435 567.352C230.804 575.574 232.634 583.713 234.917 591.73C240.963 613.479 251.036 633.901 264.613 651.935C258.915 642.363 253.976 632.36 249.839 622.017C245.684 611.76 242.32 601.2 239.777 590.43C237.812 582.023 236.202 573.528 235.05 564.988C238.61 568.195 242.126 571.474 245.598 574.784C250.385 579.482 255.113 584.225 259.545 589.159C264.081 594.062 268.338 599.217 272.295 604.598C276.152 609.991 279.919 615.635 281.396 622.209C280.955 618.87 279.956 615.629 278.442 612.621C277.738 611.056 276.939 609.536 276.048 608.07Z" fill="#37474F"/>
<path d="M261.097 396.65C262.574 393.267 270.597 378.67 273.448 376.484C275.103 375.213 277.215 373.529 279.003 372.288C280.791 371.047 282.785 369.584 284.529 368.254C286.272 366.925 280.85 368.417 279.003 369.052C276.823 369.84 274.721 370.83 272.724 372.007C269.42 373.94 266.86 376.926 265.455 380.487C263.269 385.156 261.57 387.963 257.595 396.03C253.621 404.097 251.686 408.662 244.121 428.341C244.239 428.415 247.268 429.021 249.263 423.658C252.737 414.457 256.687 405.442 261.097 396.65Z" fill="#37474F"/>
<path d="M713.91 480.908C677.743 434.724 640.541 410.627 616.814 405.323C596.13 400.152 591.062 406.21 577.366 403.432C563.671 400.654 542.337 389.367 519.51 395.513C512.243 396.975 505.503 400.363 499.994 405.323C486.859 416.02 476.931 435.256 471.686 468.852C468.233 491.619 470.648 514.89 478.701 536.462C486.755 558.035 500.181 577.195 517.708 592.129C583.099 646.986 651.622 632.359 671.744 629.242C698.028 625.179 708.68 619.831 721.977 602.042C725.757 597.908 729.242 593.515 732.408 588.893C744.005 572.228 757.066 536.046 713.91 480.908Z" fill="#F80202" fill-opacity="0.48"/>
<path opacity="0.15" d="M671.745 629.242C698.028 625.179 708.68 619.831 721.977 602.043C725.757 597.909 729.242 593.515 732.408 588.894C734.115 586.435 735.645 583.857 736.988 581.182L735.51 573.662C735.51 573.662 702.505 615.384 683.564 614.749C664.623 614.114 625.797 622.594 587.265 614.276C514.96 598.689 485.589 547.437 477.315 532.102L477.227 532.338C485.006 555.608 499.006 576.306 517.708 592.189C583.099 646.986 651.622 632.36 671.745 629.242Z" fill="#13623C"/>
<path d="M713.911 480.909C672.543 428.12 629.905 404.186 607.536 404.186H607.182C594.151 404.334 592.807 412.297 591.92 417.571C591.789 418.962 591.44 420.323 590.886 421.605C590.723 421.927 590.467 422.193 590.151 422.367C589.834 422.541 589.472 422.616 589.113 422.58H589.01C586.439 422.58 581.386 418.857 576.052 414.912C564.469 406.343 548.617 394.597 528.287 394.597C521.377 394.526 514.558 396.186 508.455 399.428C502.351 402.669 497.157 407.388 493.346 413.154C485.471 425.313 479.695 447.903 496.951 486.508C521.949 542.414 580.721 582.334 627.378 601.053C659.527 613.951 680.108 616.551 691.469 616.551C695.195 616.693 698.923 616.295 702.535 615.369C712.803 612.09 721.742 604.171 732.409 588.879C744.006 572.229 757.067 536.046 713.911 480.909ZM728.789 586.382C718.831 600.625 710.321 608.293 701.176 611.218C700.969 611.218 680.137 617.526 628.989 597.005C583.115 578.611 525.391 539.385 500.911 484.721C488.072 456.029 486.698 431.459 496.995 415.547C500.406 410.394 505.055 406.179 510.517 403.288C515.979 400.397 522.079 398.923 528.258 399C547.139 399 562.327 410.243 573.423 418.443C580.071 423.363 584.976 426.983 588.95 426.983H589.275C594.801 426.746 595.614 421.886 596.219 418.325C597.076 413.154 597.83 408.707 607.197 408.603H607.477C625.354 408.603 667.269 428.504 710.454 483.642C751.881 536.534 739.707 570.707 728.789 586.382Z" fill="#F80202" fill-opacity="0.48"/>
<path opacity="0.25" d="M713.911 480.909C672.543 428.12 629.905 404.186 607.536 404.186H607.182C594.151 404.334 592.807 412.297 591.92 417.571C591.789 418.962 591.44 420.323 590.886 421.605C590.723 421.927 590.467 422.193 590.151 422.367C589.834 422.541 589.472 422.616 589.113 422.58H589.01C586.439 422.58 581.386 418.857 576.052 414.912C564.469 406.343 548.617 394.597 528.287 394.597C521.377 394.526 514.558 396.186 508.455 399.428C502.351 402.669 497.157 407.388 493.346 413.154C485.471 425.313 479.695 447.903 496.951 486.508C521.949 542.414 580.721 582.334 627.378 601.053C659.527 613.951 680.108 616.551 691.469 616.551C695.195 616.693 698.923 616.295 702.535 615.369C712.803 612.09 721.742 604.171 732.409 588.879C744.006 572.229 757.067 536.046 713.911 480.909ZM728.789 586.382C718.831 600.625 710.321 608.293 701.176 611.218C700.969 611.218 680.137 617.526 628.989 597.005C583.115 578.611 525.391 539.385 500.911 484.721C488.072 456.029 486.698 431.459 496.995 415.547C500.406 410.394 505.055 406.179 510.517 403.288C515.979 400.397 522.079 398.923 528.258 399C547.139 399 562.327 410.243 573.423 418.443C580.071 423.363 584.976 426.983 588.95 426.983H589.275C594.801 426.746 595.614 421.886 596.219 418.325C597.076 413.154 597.83 408.707 607.197 408.603H607.477C625.354 408.603 667.269 428.504 710.454 483.642C751.881 536.534 739.707 570.707 728.789 586.382Z" fill="white"/>
<path d="M728.79 586.382C718.832 600.624 710.322 608.292 701.176 611.218C700.97 611.218 680.138 617.526 628.989 597.005C583.115 578.611 525.392 539.385 500.911 484.72C488.072 456.029 486.698 431.459 496.996 415.547C500.407 410.394 505.056 406.179 510.518 403.288C515.979 400.397 522.079 398.923 528.258 399C547.14 399 562.328 410.243 573.423 418.443C580.072 423.363 584.977 426.982 588.951 426.982H589.276C594.802 426.746 595.614 421.885 596.22 418.325C597.077 413.154 597.83 408.707 607.197 408.603H607.478C625.355 408.603 667.27 428.504 710.455 483.642C751.882 536.534 739.708 570.707 728.79 586.382Z" fill="#F80202" fill-opacity="0.48"/>
<path opacity="0.85" d="M728.79 586.382C718.832 600.624 710.322 608.292 701.176 611.218C700.97 611.218 680.138 617.526 628.989 597.005C583.115 578.611 525.392 539.385 500.911 484.72C488.072 456.029 486.698 431.459 496.996 415.547C500.407 410.394 505.056 406.179 510.518 403.288C515.979 400.397 522.079 398.923 528.258 399C547.14 399 562.328 410.243 573.423 418.443C580.072 423.363 584.977 426.982 588.951 426.982H589.276C594.802 426.746 595.614 421.885 596.22 418.325C597.077 413.154 597.83 408.707 607.197 408.603H607.478C625.355 408.603 667.27 428.504 710.455 483.642C751.882 536.534 739.708 570.707 728.79 586.382Z" fill="white"/>
<path opacity="0.2" d="M637.509 553.436C638.827 553.989 640.076 554.693 641.232 555.534C644.069 557.631 646.196 560.616 649.151 562.522C653.451 565.27 658.119 564.413 662.965 564.176C666.644 563.999 670.559 564.28 673.529 566.437C675.317 567.737 676.632 569.628 678.537 570.721C682.97 573.248 687.092 573.469 690.77 577.444C689.707 576.291 690.77 573.174 690.77 571.77C690.77 569.229 689.382 566.732 688.673 564.383C687.664 560.983 687.387 557.408 687.86 553.894C688.328 551.748 688.57 549.559 688.584 547.363C688.17 545.002 687.511 542.689 686.619 540.464C684.831 534.436 687.609 528.024 686.959 521.907C686.104 515.637 683.549 509.721 679.572 504.799C676.543 500.884 672.835 497.249 671.461 492.492C670.888 489.744 670.508 486.96 670.323 484.159C669.462 478.353 666.685 473.002 662.433 468.956C657.366 464.169 650.141 461.067 647.659 454.551C647.039 452.926 646.773 451.168 646.182 449.513C643.877 443.087 637.199 439.334 630.728 437.162C623.562 434.769 615.038 433.705 610.177 427.5C608.256 425.032 605.257 424.368 603.307 422.225C600.5 419.152 600.839 413.169 605.154 411.514C607.724 410.524 611.344 410.864 613.073 409.135C611.264 408.805 609.43 408.632 607.591 408.618H607.311C597.944 408.722 597.19 413.169 596.333 418.34C595.728 421.9 594.856 426.761 589.389 426.997H589.005C585.031 426.997 580.141 423.378 573.478 418.458C571.882 417.276 570.198 416.035 568.439 414.779C568.302 415.732 568.424 416.705 568.794 417.594C569.163 418.483 569.765 419.256 570.537 419.832C572.281 421.073 575.088 421.679 575.162 423.821C575.162 425.032 574.216 426.067 574.172 427.278C574.054 430.735 579.771 432.021 576.285 435.862C574.904 437.093 573.332 438.091 571.631 438.817C568.861 440.437 566.625 442.832 565.197 445.706C563.769 448.58 563.212 451.808 563.594 454.995C564.258 459.826 567.095 464.288 567.021 469.163C567.021 473.595 564.436 477.747 564.17 482.209C564.069 484.016 564.337 485.825 564.96 487.524C565.582 489.224 566.545 490.778 567.789 492.093C570.375 494.811 574.113 496.392 576.152 499.48C578.885 503.661 577.806 509.172 578.811 514.062C579.302 516.409 580.279 518.627 581.678 520.573C583.078 522.52 584.869 524.152 586.937 525.364C591.088 527.773 596.2 528.393 599.924 531.407C604.252 534.894 605.833 540.863 609.822 544.704C616.84 551.544 628.6 549.639 637.509 553.436Z" fill="#F80202" fill-opacity="0.48"/>
<path opacity="0.2" d="M683.564 546.625C684.259 551.973 680.196 556.258 680.432 561.857C677.684 559.308 674.164 557.748 670.43 557.425C668.008 557.445 665.589 557.287 663.191 556.952C660.531 556.317 658.271 554.81 655.493 554.662C652.08 554.485 648.697 555.238 645.432 553.835C641.679 552.21 639.345 548.294 635.71 546.448C631.411 544.231 626.151 545.251 621.542 543.803C619.665 543.197 617.94 542.195 616.485 540.865C615.029 539.534 613.877 537.906 613.106 536.091C612.205 533.919 611.85 531.496 610.609 529.487C607.373 524.271 599.898 524.079 594.697 520.814C592.879 519.644 591.34 518.088 590.188 516.258C589.037 514.428 588.302 512.367 588.034 510.221C587.635 506.646 588.521 502.745 586.763 499.598C585.005 496.451 581.282 495.166 578.608 492.773C577.02 491.332 575.818 489.519 575.108 487.496C574.399 485.474 574.205 483.306 574.545 481.19C575.106 477.836 577.042 474.63 576.539 471.247C576.141 468.558 574.249 466.341 573.363 463.771C571.147 457.418 575.756 451.818 578.903 446.78C581.105 443.264 582.464 439.216 585.035 435.951C586.628 433.927 588.757 432.391 591.181 431.518C593.853 430.677 596.665 430.375 599.455 430.628C602.244 430.882 604.956 431.687 607.432 432.996C614.687 436.571 617.597 444.047 623.906 448.435C630.214 452.823 638.399 453.739 644.708 458.26C647.288 460.129 649.435 462.533 651.002 465.307C654.355 471.217 654.858 478.708 658.995 484.174C661.491 487.454 665.082 489.729 667.933 492.713C671.669 496.655 674.018 501.707 674.626 507.104C674.665 509.427 675.023 511.733 675.69 513.959C677.167 517.697 681.171 519.972 682.766 523.68C685.086 529.058 681.614 535.249 682.368 541.055C682.515 542.828 683.239 544.689 683.564 546.625Z" fill="#F80202" fill-opacity="0.48"/>
<path d="M679.236 530.949C681.733 521.257 684.894 506.423 676.709 481.573C668.524 456.723 654.238 442.554 635.962 432.729C617.686 422.904 601.42 423.525 587.724 432.36C579.199 439.186 577.53 474.673 595.835 505.271C613.387 534.598 639.611 542.798 660.842 544.925C668.362 545.679 675.202 547.378 676.591 549.357C675.01 542.606 677.522 539.296 679.192 531.008L679.236 530.949Z" fill="#B16668"/>
<path d="M679.444 515.776C678.409 515.997 677.966 516.913 677.301 517.682C676.637 518.45 675.617 519.647 674.701 520.548C672.927 522.421 670.868 524.002 668.599 525.231C666.332 526.42 663.739 526.84 661.212 526.428C658.834 526.014 656.529 525.143 654.061 525.409C651.941 525.807 649.906 526.572 648.048 527.669C645.35 529.004 642.319 529.518 639.332 529.146C633.771 528.619 628.39 526.901 623.553 524.108C623.301 523.961 623.08 524.507 623.272 524.67C627.908 528.362 633.402 530.821 639.243 531.821C641.786 532.32 644.413 532.193 646.896 531.451C649.23 530.653 651.328 529.191 653.81 528.733C656.603 528.201 659.232 529.412 661.951 529.9C664.454 530.339 667.031 530.004 669.338 528.94C671.905 527.735 674.134 525.913 675.824 523.636C677.301 521.685 679.591 518.923 679.843 516.455C679.857 516.219 679.813 515.702 679.444 515.776Z" fill="#9A4A4D"/>
<path d="M677.818 497.205C677.729 496.481 676.976 497.057 677.02 497.574C677.449 503.75 674.39 512.777 666.87 512.437C663.679 512.304 660.96 510.649 657.769 511.565C655.125 512.304 653.012 514.077 650.618 515.318C647.977 516.656 645.015 517.234 642.064 516.988C638.849 516.81 635.664 516.279 632.564 515.407C627.763 513.929 621.956 512.452 619.267 507.798C619.016 507.384 618.706 508.182 618.765 508.418C620.139 513.087 625.192 514.904 629.225 516.736C634.382 519.071 639.641 521.435 645.477 521.169C647.999 521.041 650.462 520.354 652.687 519.159C654.933 517.933 656.957 516.071 659.468 515.392C662.32 514.609 665.038 516.352 667.919 516.071C670.8 515.791 671.879 513.87 673.607 511.831C675.279 509.815 676.515 507.475 677.24 504.958C677.964 502.441 678.161 499.801 677.818 497.205Z" fill="#9A4A4D"/>
<path d="M643.823 505.02C643.508 504.724 643.135 504.495 642.729 504.348C642.323 504.2 641.89 504.138 641.459 504.163C640.454 504.06 639.435 504.163 638.43 504.163C636.755 504.267 635.076 504.031 633.495 503.469C632.193 502.777 630.834 502.199 629.432 501.74C628.074 501.38 626.671 501.216 625.266 501.253C624.838 501.253 624.69 502.39 625.148 502.435C626.754 502.639 628.241 503.39 629.359 504.562C630.741 505.791 632.312 506.789 634.012 507.517C635.661 508.31 637.556 508.421 639.287 507.827C640.048 507.535 640.828 507.293 641.621 507.103C642.404 506.911 643.32 507.103 643.837 506.394C643.987 506.196 644.067 505.953 644.065 505.704C644.062 505.456 643.977 505.215 643.823 505.02Z" fill="#9A4A4D"/>
<path d="M662.792 499.539C661.152 498.386 659.231 498.815 657.355 498.549C656.643 498.476 655.952 498.271 655.316 497.943C654.607 497.559 654.001 497.027 653.307 496.643C651.808 495.95 650.101 495.855 648.535 496.377C646.969 496.717 645.432 497.175 643.925 497.662C643.526 497.795 643.364 498.815 643.925 498.726C645.534 498.367 647.188 498.258 648.83 498.401C650.658 498.726 652.367 499.531 653.78 500.736C655.211 501.878 656.96 502.549 658.788 502.656C659.568 502.696 660.349 502.661 661.122 502.553C661.573 502.519 662.003 502.35 662.356 502.068C662.71 501.786 662.97 501.404 663.102 500.972C663.199 500.729 663.221 500.463 663.165 500.208C663.11 499.953 662.98 499.72 662.792 499.539Z" fill="#9A4A4D"/>
<path d="M670.841 487.277C670.634 486.656 670.295 487.38 670.191 487.631C669.76 488.468 669.106 489.169 668.3 489.655C667.67 490.113 666.985 490.49 666.261 490.778C665.48 491.089 664.631 491.189 663.799 491.07C662.967 490.951 662.181 490.616 661.519 490.099C661.411 489.99 661.278 489.91 661.131 489.868C660.984 489.826 660.828 489.822 660.68 489.858C660.531 489.894 660.394 489.967 660.282 490.072C660.17 490.176 660.087 490.307 660.041 490.453C659.926 490.827 659.914 491.225 660.008 491.605C660.102 491.985 660.297 492.333 660.573 492.61C661.233 493.298 662.035 493.834 662.923 494.181C663.81 494.528 664.763 494.677 665.715 494.62C666.592 494.589 667.453 494.372 668.241 493.984C669.061 493.502 669.719 492.787 670.132 491.931C670.648 490.93 670.921 489.821 670.93 488.695C670.974 488.221 670.945 487.742 670.841 487.277Z" fill="#9A4A4D"/>
<path d="M670.577 537.612C669.865 536.835 668.979 536.237 667.992 535.869C665.348 534.734 662.518 534.098 659.644 533.992C658.233 533.889 656.815 533.889 655.404 533.992C651.474 534.406 647.559 536.386 643.762 535.307C646.214 537.346 649.671 537.464 652.877 537.198C654.838 536.961 656.812 536.842 658.787 536.844C661.729 536.764 664.661 537.235 667.43 538.232C668.378 538.761 669.447 539.036 670.533 539.03C670.626 539.026 670.717 539.003 670.801 538.963C670.885 538.922 670.96 538.865 671.02 538.794C671.077 538.676 671.101 538.544 671.088 538.414C671.075 538.284 671.026 538.159 670.946 538.055C670.839 537.895 670.715 537.746 670.577 537.612Z" fill="#9A4A4D"/>
<path d="M630.244 523.606C628.767 522.72 627.6 521.567 626.211 520.651C624.822 519.735 623.079 518.612 621.542 517.563C619.111 516.118 616.825 514.441 614.717 512.555C612.678 510.457 612.013 507.768 610.802 505.168C609.612 502.822 608.223 500.583 606.65 498.475C605.133 496.438 603.756 494.301 602.528 492.078C601.288 489.517 600.546 486.745 600.341 483.908C599.78 478.544 598.628 473.3 594.107 469.916C593.87 469.739 593.649 470.286 593.826 470.463C596.411 472.975 596.515 476.904 596.411 480.303C596.225 483.43 596.509 486.567 597.253 489.61C598.731 494.693 602.232 498.652 605.04 503.011C606.357 505.289 607.551 507.636 608.615 510.043C609.904 512.544 611.712 514.74 613.919 516.485C616.33 518.373 618.953 519.974 621.734 521.257C623.057 521.955 624.43 522.553 625.842 523.045C627.245 523.458 628.708 523.576 630.112 524.005C630.274 524.034 630.377 523.695 630.244 523.606Z" fill="#9A4A4D"/>
<path d="M651.595 470.05C650.658 468.726 650.143 467.15 650.118 465.529C650.197 463.967 650.38 462.412 650.665 460.875C651.728 453.916 647.089 448.568 641.135 445.849C639.756 445.345 638.457 444.643 637.279 443.766C636.324 442.744 635.459 441.642 634.694 440.471C632.657 437.929 630.077 435.875 627.144 434.458C621.352 431.636 614.408 431.636 608.1 431.607C607.878 431.607 607.716 432.183 607.952 432.213C614.394 433.276 620.702 434.296 626.39 437.679C628.838 439.068 630.912 441.03 632.433 443.397C633.871 445.977 636.054 448.063 638.697 449.38C641.017 450.503 643.41 451.301 644.991 453.458C646.766 455.972 647.635 459.014 647.459 462.086C647.184 464.729 647.623 467.397 648.729 469.813C649.763 471.763 652.231 473.994 651.92 476.358C651.92 476.728 652.201 476.89 652.437 476.595C654.166 474.378 652.822 472.088 651.595 470.05Z" fill="#9A4A4D"/>
<path d="M659.038 483.036C654.753 482.682 651.902 485.873 648.563 487.868C646.567 489.071 644.232 489.59 641.914 489.345C639.7 489.011 637.461 488.867 635.222 488.917C630.642 489.301 626.52 491.354 622.072 492.27C618.29 493.053 613.016 492.98 610.401 489.685C610.253 489.493 610.017 489.98 610.105 490.128C615.306 498.579 625.544 494.28 633.168 492.788C635.579 492.349 638.047 492.324 640.466 492.714C642.638 493.179 644.884 493.179 647.056 492.714C649.715 491.931 650.572 489.183 652.493 487.454C654.505 485.883 656.685 484.54 658.993 483.45C659.112 483.45 659.259 483.051 659.038 483.036Z" fill="#9A4A4D"/>
<path d="M668.317 474.29C667.898 472.812 667.328 471.382 666.618 470.02C665.924 468.543 665.333 466.977 664.727 465.455C663.958 463.015 662.875 460.686 661.506 458.526C661.226 458.127 660.886 458.939 661.048 459.22C662.344 461.832 663.141 464.663 663.398 467.567C663.782 470.064 665.185 472.192 665.658 474.644C665.85 475.605 665.761 476.713 664.668 477.038C663.472 477.188 662.257 477.077 661.107 476.713C660.566 476.559 659.993 476.558 659.45 476.709C658.908 476.86 658.418 477.158 658.034 477.57C657.496 478.284 657.253 479.178 657.355 480.067C657.355 480.332 657.517 480.717 657.872 480.525C659.108 480.078 660.447 479.996 661.728 480.288C662.973 480.682 664.287 480.808 665.584 480.657C668.495 480.052 668.908 476.728 668.317 474.29Z" fill="#9A4A4D"/>
<path d="M658.446 470.005C658.286 469.581 658.177 469.14 658.121 468.69C658.121 468.173 657.988 468.129 658.003 467.848C658.042 467.532 658.111 467.22 658.21 466.917C658.672 465.373 658.738 463.737 658.402 462.16C658.229 461.307 657.951 460.478 657.575 459.693C657.219 459.093 656.787 458.542 656.289 458.053C655.949 457.624 655.639 458.496 655.802 458.792C656.465 460.106 656.587 461.628 656.142 463.032C655.509 464.396 655.124 465.862 655.004 467.361C655.215 468.96 655.997 470.429 657.205 471.497C657.789 472.032 658.205 472.725 658.402 473.492C658.402 473.654 658.609 473.581 658.653 473.492C659.041 472.347 658.967 471.096 658.446 470.005Z" fill="#9A4A4D"/>
<path d="M653.912 450.651C653.737 449.886 653.443 449.153 653.041 448.479L652.583 447.814C652.302 447.386 652.036 446.957 651.741 446.529C651.143 445.572 650.371 444.735 649.465 444.062C648.584 443.497 647.642 443.031 646.658 442.673C646.13 442.441 645.587 442.244 645.033 442.082C644.458 441.976 643.875 441.922 643.29 441.919C643.157 441.919 643.068 442.2 643.157 442.274C643.629 442.675 644.122 443.05 644.634 443.397C645.107 443.707 645.654 443.958 646.112 444.254C647.206 444.941 648.201 445.776 649.066 446.736C649.765 447.509 650.37 448.362 650.869 449.277C651.445 450.252 652.243 451.833 653.587 451.508C653.927 451.419 654.016 450.947 653.912 450.651Z" fill="#9A4A4D"/>
<path d="M591.962 476.639C590.751 472.901 589.318 469.059 589.584 465.07C589.864 460.83 591.77 456.9 592.213 452.675C592.759 448.714 592.441 444.682 591.283 440.855C591.283 440.619 591.002 440.855 591.031 441.047C591.944 445.229 591.76 449.575 590.5 453.665C589.214 457.211 587.545 460.786 587.323 464.612C587.275 467.944 587.846 471.255 589.007 474.378C590.457 478.652 591.631 483.015 592.524 487.439C592.627 487.941 593.144 487.852 593.277 487.439C594.282 483.878 593.011 479.963 591.962 476.639Z" fill="#9A4A4D"/>
<path d="M641.232 482.401C638.904 482.867 636.485 482.417 634.481 481.145C632.621 480.248 630.662 479.573 628.645 479.135C625.69 478.471 622.602 478.943 619.632 478.426C617.52 478.057 614.314 477.643 612.777 475.974C611.241 474.304 611.3 471.541 610.591 469.577C609.841 467.26 608.441 465.209 606.557 463.667C604.991 462.352 602.79 461.362 601.888 459.441C601.054 457.207 600.814 454.793 601.194 452.438C601.608 447.489 602.347 441.284 598.343 437.487C597.693 436.866 597.279 438.388 597.693 438.876C601.179 442.909 598.077 448.76 597.456 453.34C596.97 455.946 597.317 458.639 598.446 461.037C599.718 463.136 601.445 464.923 603.499 466.267C604.37 466.899 605.105 467.699 605.661 468.62C606.216 469.542 606.582 470.565 606.734 471.63C607.136 473.991 608.071 476.23 609.468 478.175C613.191 482.785 619.81 482.962 625.202 482.46C626.602 482.359 627.983 482.076 629.31 481.618C630.872 481.199 632.53 481.329 634.008 481.987C636.224 482.652 639.001 483.908 641.262 482.844C641.321 482.77 641.439 482.356 641.232 482.401Z" fill="#9A4A4D"/>
<path d="M645.312 471.705C644.847 471.632 644.371 471.677 643.928 471.834C643.484 471.991 643.087 472.257 642.771 472.606C642.638 472.768 642.535 472.946 642.387 473.108C642.239 473.271 642.239 473.182 642.136 473.197C640.87 473.424 639.571 473.379 638.324 473.064C637.007 472.512 635.628 472.12 634.217 471.897C633.002 472.065 631.823 472.434 630.73 472.99C630.405 473.212 630.331 474.246 630.878 473.98C631.21 473.788 631.587 473.687 631.971 473.687C632.355 473.687 632.732 473.788 633.065 473.98C633.758 474.314 634.433 474.684 635.089 475.088C635.833 475.624 636.608 476.117 637.408 476.565C638.13 476.93 638.894 477.203 639.683 477.378C640.456 477.538 641.243 477.617 642.033 477.614C642.824 477.701 643.624 477.646 644.396 477.452C645.044 477.22 645.602 476.791 645.992 476.226C646.405 475.624 646.636 474.916 646.657 474.187C646.796 473.679 646.734 473.138 646.484 472.675C646.233 472.213 645.813 471.865 645.312 471.705Z" fill="#9A4A4D"/>
<path d="M640.185 462.278C640.274 460.664 640.155 459.045 639.83 457.462C638.811 453.635 635.9 451.552 632.443 450.252C630.422 449.464 628.69 448.078 627.479 446.278C626.499 444.913 625.295 443.724 623.918 442.761C621.288 441.107 617.477 441.136 615.349 438.698C615.054 438.344 614.729 439.083 614.906 439.349C615.754 440.539 616.907 441.478 618.245 442.067C619.935 442.611 621.498 443.49 622.84 444.653C624.317 446.352 624.893 448.745 626.223 450.562C627.377 452.103 628.902 453.328 630.655 454.123C632.098 454.563 633.456 455.242 634.674 456.132C635.349 457.101 635.808 458.205 636.018 459.368C636.55 461.185 636.92 463.046 637.629 464.805C638.057 465.839 638.899 468.04 640.362 467.759C640.731 467.759 640.835 467.095 640.82 466.814C640.717 465.322 640.199 463.859 640.185 462.278Z" fill="#9A4A4D"/>
<path d="M624.042 472.473C622.565 470.995 620.674 469.902 620.216 467.716C619.817 465.824 620.038 463.86 619.61 461.983C618.842 458.718 616.655 456.783 613.848 455.084C612.685 454.521 611.654 453.72 610.819 452.734C609.889 451.257 610.258 449.189 610.051 447.563C609.811 446.069 609.485 444.589 609.076 443.131C608.783 441.723 608.114 440.421 607.14 439.364C607.14 439.364 606.978 439.482 607.007 439.541C608.176 441.395 608.589 443.627 608.16 445.776C607.486 447.588 607.18 449.517 607.259 451.449C607.584 454.995 610.214 456.945 612.947 458.718C614.217 459.545 615.591 460.284 615.99 461.85C616.434 463.638 616.123 465.559 616.433 467.376C616.803 469.192 617.621 470.887 618.813 472.306C620.006 473.726 621.534 474.824 623.259 475.502C625.047 476.166 624.766 473.226 624.042 472.473Z" fill="#9A4A4D"/>
<path d="M632.39 466.563L632.183 465.987C632.119 465.812 632.04 465.644 631.946 465.484C631.688 465.022 631.407 464.574 631.104 464.14C630.695 463.464 630.372 462.739 630.144 461.983C629.777 460.86 629.2 459.818 628.445 458.91C627.957 458.41 627.361 458.031 626.701 457.802C625.567 457.336 624.495 456.73 623.51 455.999C622.997 455.583 622.558 455.083 622.21 454.522C621.991 454.108 621.739 453.713 621.457 453.34L620.777 452.601C620.777 452.601 620.703 452.601 620.703 452.69C620.741 453.35 620.87 454.001 621.087 454.625C621.369 455.275 621.726 455.89 622.151 456.457C623.122 457.519 624.253 458.421 625.505 459.131C626.056 459.474 626.473 459.996 626.687 460.609C626.65 460.992 626.586 461.372 626.495 461.746C626.504 462.316 626.588 462.883 626.746 463.431C626.976 464.501 627.415 465.516 628.039 466.416C628.663 467.316 629.458 468.084 630.38 468.675C630.57 468.783 630.783 468.841 631.001 468.844C631.219 468.847 631.434 468.796 631.626 468.694C631.819 468.593 631.983 468.444 632.103 468.263C632.224 468.082 632.297 467.873 632.316 467.656C632.356 467.146 632.254 466.634 632.02 466.179L632.39 466.563Z" fill="#9A4A4D"/>
<path d="M618.707 502.878C618.707 502.878 618.707 502.878 618.633 502.715L618.485 502.464H618.412L618.16 502.154C618.16 502.154 618.16 502.154 618.16 502.036C618.049 501.861 617.92 501.698 617.776 501.548L617.643 501.327C617.526 501.163 617.422 500.99 617.333 500.81C617.126 500.455 616.949 500.086 616.712 499.746C616.283 499.132 615.716 498.626 615.058 498.268C614.435 497.948 613.782 497.69 613.108 497.5C612.799 497.399 612.498 497.275 612.206 497.131L611.822 496.924L611.556 496.747C611.423 496.673 611.261 496.643 611.128 496.584C610.699 496.392 610.463 497.042 610.537 497.367C610.661 497.944 610.973 498.463 611.423 498.845C611.724 499.11 612.045 499.352 612.384 499.569L613.536 500.322L613.787 500.485L613.891 500.573C614.068 500.709 614.236 500.857 614.393 501.016C614.319 500.943 614.393 501.12 614.496 501.179V501.297C614.6 501.504 614.718 501.681 614.821 501.873L614.94 502.11L614.836 501.932L614.94 502.124C615.073 502.405 615.22 502.686 615.368 502.967C615.606 503.44 615.91 503.878 616.269 504.267C616.507 504.533 616.802 504.741 617.132 504.877C617.462 505.012 617.819 505.072 618.175 505.05C618.648 505.05 618.87 504.37 618.899 504.001C618.945 503.616 618.878 503.226 618.707 502.878Z" fill="#9A4A4D"/>
<path d="M616.226 487.646C615.807 487.122 615.309 486.668 614.748 486.301C614.064 485.809 613.43 485.25 612.857 484.632C612.249 484.126 611.56 483.726 610.818 483.45C610.08 483.095 609.341 482.8 608.573 482.489C607.634 482.232 606.759 481.785 606.002 481.175C605.239 480.189 604.758 479.014 604.613 477.776C604.539 477.451 604.229 477.776 604.214 477.983C603.939 479.495 604.03 481.05 604.48 482.519C605.252 484.002 606.524 485.164 608.07 485.799C608.735 486.183 609.415 486.582 610.109 486.907C610.769 487.313 611.486 487.617 612.237 487.808C612.807 487.771 613.38 487.771 613.95 487.808C614.351 487.946 614.761 488.054 615.177 488.133C615.471 488.163 615.768 488.163 616.063 488.133C616.27 488.089 616.329 487.764 616.226 487.646Z" fill="#9A4A4D"/>
<path d="M667.681 521.109L667.075 520.903C666.835 520.73 666.564 520.605 666.277 520.533L665.317 520.297C664.422 520.023 663.501 519.845 662.569 519.765C661.792 519.589 660.984 519.614 660.22 519.839C659.61 520.074 659.092 520.498 658.742 521.05C658.661 521.251 658.627 521.468 658.645 521.683C658.663 521.899 658.732 522.107 658.846 522.291C659.525 522.969 660.355 523.475 661.269 523.769C661.872 523.917 662.497 523.962 663.116 523.902H663.943C664.393 523.833 664.831 523.699 665.243 523.503C665.494 523.37 665.657 523.193 665.878 523.06L666.484 522.676C666.68 522.582 666.855 522.452 667.001 522.291C667.169 522.067 667.374 521.872 667.607 521.715C667.799 521.612 667.902 521.198 667.681 521.109Z" fill="#9A4A4D"/>
<path d="M644.887 524.596C644.691 524.473 644.468 524.401 644.237 524.389C644.014 524.399 643.792 524.424 643.572 524.463L642.272 524.537C641.399 524.567 640.525 524.537 639.657 524.449C638.8 524.375 637.943 524.286 637.086 524.153C636.687 524.153 636.273 524.005 635.874 523.917C635.476 523.828 635.224 523.68 634.899 523.917C634.883 523.941 634.875 523.969 634.875 523.998C634.875 524.027 634.883 524.055 634.899 524.079C635.032 524.449 635.372 524.508 635.727 524.655C636.081 524.803 636.525 524.966 636.938 525.099C637.799 525.41 638.69 525.628 639.598 525.749C640.499 525.871 641.407 525.936 642.316 525.941H643.587C643.808 525.956 644.03 525.956 644.251 525.941C644.498 525.871 644.722 525.739 644.902 525.557C645.02 525.305 645.153 524.729 644.887 524.596Z" fill="#9A4A4D"/>
<path d="M673.681 499.864C673.371 499.406 672.676 499.036 672.204 499.613C671.564 500.565 671.066 501.605 670.726 502.7C670.532 503.599 670.176 504.455 669.677 505.227C669.072 505.895 668.308 506.401 667.456 506.698C666.604 506.995 665.692 507.073 664.802 506.926C664.491 506.926 664.285 507.546 664.595 507.635C665.501 507.891 666.455 507.926 667.378 507.739C668.3 507.551 669.165 507.146 669.899 506.556C670.698 505.994 671.38 505.281 671.908 504.459C672.347 503.521 672.925 502.654 673.622 501.888C674.198 501.415 674.006 500.381 673.681 499.864Z" fill="#9A4A4D"/>
<path d="M653.852 507.945C652.877 507.561 651.887 508.551 651.104 509.039C650.321 509.526 649.494 510.043 648.651 510.516C647.803 510.944 646.911 511.281 645.992 511.521C645.046 511.757 644.071 511.89 643.141 512.156C642.86 512.23 642.594 512.895 642.919 513.057C644.84 514.047 647.218 513.368 649.095 512.599C650.047 512.219 650.967 511.759 651.843 511.225C652.773 510.664 653.852 510.147 654.118 508.994C654.192 508.669 654.207 508.078 653.852 507.945Z" fill="#9A4A4D"/>
<path opacity="0.2" d="M675.456 528.186C670.625 532.486 658.303 538.381 623.215 518.598C588.126 498.815 581.847 460.668 583.221 440.723C579.438 454.625 581.566 481.441 595.838 505.271C613.39 534.598 639.614 542.798 660.845 544.926C668.365 545.679 675.205 547.378 676.594 549.358C675.013 542.606 677.525 539.297 679.194 531.008C681.602 522.439 682.423 513.501 681.617 504.636C682.09 513.397 680.923 523.34 675.456 528.186Z" fill="#13623C"/>
<path d="M632.03 352.461C641.235 345.96 654.369 338.189 665.11 340.642C675.851 343.094 683.061 347.128 688.749 365.256C694.437 383.384 712.077 403.388 724.207 396.355C695.9 409.49 678.126 413.375 655.182 406.697C632.237 400.019 611.509 363.763 595.405 371.535C579.301 379.306 579.862 392.219 579.862 392.219C579.862 392.219 572.268 373.706 583.556 367.797C594.843 361.887 620.24 362.301 632.03 352.461Z" fill="#13623C"/>
<path d="M694.907 400.995C691.952 400.108 688.997 399.665 686.205 398.483C683.4 397.315 680.713 395.88 678.182 394.199C672.893 390.603 667.854 386.655 663.098 382.379C658.311 378.243 653.376 374.18 648.324 370.323C643.28 366.171 637.473 363.044 631.23 361.119C628.141 360.259 624.932 359.91 621.73 360.085C618.214 360.307 614.239 361.001 612.215 364.163C611.536 365.226 612.777 367.649 614.151 367.383C616.854 366.896 619.425 365.906 622.143 365.507C624.989 365.09 627.886 365.185 630.698 365.788C636.74 367.014 642.177 370.338 647.127 373.899C657.321 381.286 666.762 389.855 677.665 396.178C680.336 397.759 683.145 399.094 686.057 400.168C688.807 401.327 691.76 401.925 694.744 401.926C695.128 401.911 695.276 401.098 694.907 400.995Z" fill="#37474F"/>
<path d="M585.951 418.443C581.208 404.186 578.829 392.795 592.599 385.186C606.369 377.577 621.586 372.362 632.032 352.416C623.802 355.948 612.929 352.417 601.464 354.707C591.462 347.659 581.474 350.274 578.829 347.659C575.325 351.854 572.682 356.699 571.052 361.916C569.422 367.133 568.837 372.621 569.33 378.065C570.748 397.109 585.951 418.443 585.951 418.443Z" fill="#13623C"/>
<path d="M596.754 371.534C601.984 369.052 607.096 366.408 610.627 361.621C610.819 361.34 610.627 360.483 610.258 360.912C603.092 368.535 591.672 369.436 584.093 376.321C584.624 375.001 585.215 373.701 585.865 372.421C588.146 367.972 591.084 363.892 594.582 360.321C596.335 358.531 598.216 356.871 600.211 355.356L601.275 354.633C600.28 353.948 599.244 353.327 598.172 352.771C596.134 354.239 594.235 355.891 592.499 357.706C589.106 361.282 586.245 365.327 584.004 369.717L583.236 368.742C582.866 368.24 582.527 367.708 582.201 367.176C581.553 366.097 580.975 364.977 580.473 363.822C579.475 361.633 578.856 359.29 578.641 356.893C578.641 356.479 578.212 356.745 578.198 357.026C578.012 359.861 578.353 362.706 579.202 365.418C579.649 366.762 580.249 368.051 580.99 369.259C581.33 369.835 581.714 370.397 582.113 370.943C582.345 371.3 582.607 371.636 582.896 371.948C580.769 376.54 579.369 381.434 578.744 386.456C578.124 391.849 577.651 397.818 579.586 403.018C579.734 403.402 580.089 403.018 580.089 402.752C580.089 397.375 579.778 392.056 580.887 386.752C581.226 385.141 581.64 383.561 582.098 381.995L582.172 381.862C582.533 381.235 582.948 380.642 583.413 380.089C585.173 378.2 587.222 376.604 589.485 375.361C591.835 373.952 594.262 372.674 596.754 371.534Z" fill="#37474F"/>
<path d="M332.087 614.276C320.206 630.38 313.141 649.526 311.713 669.488C311.182 680.229 331.053 719.425 396.015 733.918C460.978 748.412 524.123 717.164 545.236 700.307L332.087 614.276Z" fill="#F80202" fill-opacity="0.48"/>
<path opacity="0.1" d="M332.087 614.276C320.206 630.38 313.141 649.526 311.713 669.488C311.182 680.229 331.053 719.425 396.015 733.918C460.978 748.412 524.123 717.164 545.236 700.307L332.087 614.276Z" fill="white"/>
<path opacity="0.1" d="M352.328 684.735C344.581 676.557 338.679 666.812 335.022 656.158C331.364 645.505 330.036 634.19 331.127 622.978C331.348 620.925 331.57 618.649 330.314 617.069L330.225 616.98C319.458 632.522 313.064 650.673 311.713 669.532C311.447 674.984 316.441 687.764 329.915 700.927C340.331 707.059 351.929 710.575 363.453 707.857C365 707.638 366.414 706.86 367.427 705.67C368.904 703.395 367.427 700.351 365.639 698.283C361.635 693.319 356.701 689.285 352.328 684.735Z" fill="white"/>
<path opacity="0.4" d="M533.475 695.579C510.693 704.325 484.572 705.374 460.357 700.721C446.307 698.017 431.666 693.614 418.059 698.017C417.941 704.813 425.52 709.836 425.756 716.588C426.037 724.389 416.892 728.925 409.15 729.885C392.558 731.998 376.646 727.447 360.602 721.848C371.921 727.206 383.818 731.246 396.06 733.889C461.067 748.382 524.168 717.135 545.28 700.277L533.475 695.579Z" fill="#F80202" fill-opacity="0.48"/>
<path opacity="0.05" d="M533.475 695.579C510.693 704.325 484.572 705.374 460.357 700.721C446.307 698.017 431.666 693.614 418.059 698.017C417.941 704.813 425.52 709.836 425.756 716.588C426.037 724.389 416.892 728.925 409.15 729.885C392.558 731.998 376.646 727.447 360.602 721.848C371.921 727.206 383.818 731.246 396.06 733.889C461.067 748.382 524.168 717.135 545.28 700.277L533.475 695.579Z" fill="black"/>
<path d="M542.238 564.975C519.796 549.358 501.091 546.98 491.828 546.98C489.73 546.942 487.634 547.096 485.564 547.438C482.609 547.438 478.989 558.548 476.581 559.449C475.717 559.63 474.886 559.939 474.114 560.365C472.341 561.754 473.537 564.945 472.016 566.615C471.223 567.259 470.323 567.759 469.356 568.092C466.401 569.569 465.352 573.145 464.422 576.277C463.491 579.409 461.88 582.97 458.689 583.664C457.614 583.743 456.56 584.002 455.572 584.432C453.725 585.644 454.331 588.569 453.223 590.505C451.258 593.917 445.451 592.322 442.674 595.129C440.857 596.976 440.812 600.374 438.493 601.57C437.797 601.882 437.039 602.029 436.277 601.999C435.582 601.999 434.873 601.925 434.164 601.925C433.667 601.921 433.171 601.975 432.687 602.088C428.712 603.077 427.264 609.238 423.172 609.327H423.068C419.936 609.327 417.159 605.589 414.44 605.589C413.949 605.58 413.464 605.702 413.037 605.944C411.101 606.993 410.806 609.977 408.782 610.834C408.451 610.979 408.094 611.054 407.733 611.056C406.004 611.056 404.349 609.357 403.552 607.643C402.606 605.604 402 603.122 400.08 601.925C397.243 600.167 392.53 601.851 390.816 598.97C390.392 597.915 390.089 596.814 389.915 595.69C389.28 593.755 386.561 593.105 383.326 593.105C378.861 593.274 374.432 593.973 370.132 595.188C356.436 599.103 332.133 614.247 332.133 614.247C343.686 657.979 405.561 716.573 468.278 718.213C470.627 718.213 472.932 718.302 475.177 718.302C532.664 718.302 553.924 698.179 570.604 671.172C587.875 643.145 582.01 592.676 542.238 564.975ZM568.078 669.606C550.63 697.854 528.985 715.406 475.133 715.406C472.902 715.406 470.612 715.406 468.322 715.318C440.251 714.564 409.86 701.947 382.823 679.771C359.288 660.446 341.751 636.63 335.546 615.606C341.455 612.031 359.953 601.142 371.004 598.01C375.045 596.874 379.205 596.214 383.4 596.045C384.711 595.903 386.035 596.128 387.226 596.695C387.307 596.961 387.366 597.232 387.403 597.508C387.552 598.542 387.882 599.543 388.378 600.462C390.137 603.417 393.298 603.654 395.618 603.831C396.628 603.843 397.628 604.033 398.573 604.392C399.38 605.217 399.965 606.234 400.272 607.347C400.493 607.864 400.7 608.381 400.937 608.825C402.03 611.174 404.482 613.922 407.762 613.922C408.52 613.925 409.27 613.769 409.964 613.464C411.546 612.665 412.815 611.359 413.569 609.755C413.796 609.272 414.101 608.828 414.47 608.441C415.342 608.735 416.16 609.169 416.893 609.726C418.671 611.143 420.832 611.997 423.098 612.178H423.261C426.777 612.105 428.86 609.563 430.5 607.539C431.519 606.283 432.494 605.102 433.455 604.865C433.712 604.811 433.975 604.786 434.238 604.791H435.169H436.351C437.587 604.828 438.814 604.564 439.926 604.023C441.758 602.897 443.118 601.143 443.752 599.088C444.006 598.35 444.375 597.657 444.846 597.035C445.923 596.354 447.151 595.948 448.421 595.853C450.948 595.41 454.08 594.819 455.808 591.819C456.397 590.689 456.782 589.464 456.946 588.2C457.016 587.698 457.129 587.204 457.286 586.722C457.478 586.722 457.818 586.634 458.083 586.604C458.349 586.575 458.94 586.486 459.428 586.368C464.835 585.082 466.667 578.981 467.303 576.838C468.1 574.164 468.943 571.387 470.715 570.485L471.351 570.219C472.433 569.849 473.414 569.232 474.217 568.417C475.304 567.069 475.903 565.392 475.916 563.66C475.951 563.268 476.005 562.879 476.079 562.493L476.507 562.374C476.903 562.28 477.293 562.161 477.674 562.02C479.669 561.281 480.939 559.065 482.978 555.268C483.862 553.458 484.931 551.745 486.169 550.156C488.056 549.861 489.963 549.727 491.872 549.757C500.737 549.757 518.791 552.032 540.627 567.235C558.153 579.336 570.443 597.628 575.022 618.428C578.981 637.103 576.411 656.161 568.078 669.606Z" fill="#F80202" fill-opacity="0.48"/>
<path opacity="0.25" d="M542.238 564.975C519.796 549.358 501.091 546.98 491.828 546.98C489.73 546.942 487.634 547.096 485.564 547.438C482.609 547.438 478.989 558.548 476.581 559.449C475.717 559.63 474.886 559.939 474.114 560.365C472.341 561.754 473.537 564.945 472.016 566.615C471.223 567.259 470.323 567.759 469.356 568.092C466.401 569.569 465.352 573.145 464.422 576.277C463.491 579.409 461.88 582.97 458.689 583.664C457.614 583.743 456.56 584.002 455.572 584.432C453.725 585.644 454.331 588.569 453.223 590.505C451.258 593.917 445.451 592.322 442.674 595.129C440.857 596.976 440.812 600.374 438.493 601.57C437.797 601.882 437.039 602.029 436.277 601.999C435.582 601.999 434.873 601.925 434.164 601.925C433.667 601.921 433.171 601.975 432.687 602.088C428.712 603.077 427.264 609.238 423.172 609.327H423.068C419.936 609.327 417.159 605.589 414.44 605.589C413.949 605.58 413.464 605.702 413.037 605.944C411.101 606.993 410.806 609.977 408.782 610.834C408.451 610.979 408.094 611.054 407.733 611.056C406.004 611.056 404.349 609.357 403.552 607.643C402.606 605.604 402 603.122 400.08 601.925C397.243 600.167 392.53 601.851 390.816 598.97C390.392 597.915 390.089 596.814 389.915 595.69C389.28 593.755 386.561 593.105 383.326 593.105C378.861 593.274 374.432 593.973 370.132 595.188C356.436 599.103 332.133 614.247 332.133 614.247C343.686 657.979 405.561 716.573 468.278 718.213C470.627 718.213 472.932 718.302 475.177 718.302C532.664 718.302 553.924 698.179 570.604 671.172C587.875 643.145 582.01 592.676 542.238 564.975ZM568.078 669.606C550.63 697.854 528.985 715.406 475.133 715.406C472.902 715.406 470.612 715.406 468.322 715.318C440.251 714.564 409.86 701.947 382.823 679.771C359.288 660.446 341.751 636.63 335.546 615.606C341.455 612.031 359.953 601.142 371.004 598.01C375.045 596.874 379.205 596.214 383.4 596.045C384.711 595.903 386.035 596.128 387.226 596.695C387.307 596.961 387.366 597.232 387.403 597.508C387.552 598.542 387.882 599.543 388.378 600.462C390.137 603.417 393.298 603.654 395.618 603.831C396.628 603.843 397.628 604.033 398.573 604.392C399.38 605.217 399.965 606.234 400.272 607.347C400.493 607.864 400.7 608.381 400.937 608.825C402.03 611.174 404.482 613.922 407.762 613.922C408.52 613.925 409.27 613.769 409.964 613.464C411.546 612.665 412.815 611.359 413.569 609.755C413.796 609.272 414.101 608.828 414.47 608.441C415.342 608.735 416.16 609.169 416.893 609.726C418.671 611.143 420.832 611.997 423.098 612.178H423.261C426.777 612.105 428.86 609.563 430.5 607.539C431.519 606.283 432.494 605.102 433.455 604.865C433.712 604.811 433.975 604.786 434.238 604.791H435.169H436.351C437.587 604.828 438.814 604.564 439.926 604.023C441.758 602.897 443.118 601.143 443.752 599.088C444.006 598.35 444.375 597.657 444.846 597.035C445.923 596.354 447.151 595.948 448.421 595.853C450.948 595.41 454.08 594.819 455.808 591.819C456.397 590.689 456.782 589.464 456.946 588.2C457.016 587.698 457.129 587.204 457.286 586.722C457.478 586.722 457.818 586.634 458.083 586.604C458.349 586.575 458.94 586.486 459.428 586.368C464.835 585.082 466.667 578.981 467.303 576.838C468.1 574.164 468.943 571.387 470.715 570.485L471.351 570.219C472.433 569.849 473.414 569.232 474.217 568.417C475.304 567.069 475.903 565.392 475.916 563.66C475.951 563.268 476.005 562.879 476.079 562.493L476.507 562.374C476.903 562.28 477.293 562.161 477.674 562.02C479.669 561.281 480.939 559.065 482.978 555.268C483.862 553.458 484.931 551.745 486.169 550.156C488.056 549.861 489.963 549.727 491.872 549.757C500.737 549.757 518.791 552.032 540.627 567.235C558.153 579.336 570.443 597.628 575.022 618.428C578.981 637.103 576.411 656.161 568.078 669.606Z" fill="white"/>
<path d="M568.078 669.606C550.629 697.855 528.985 715.406 475.133 715.406C472.902 715.406 470.612 715.406 468.322 715.318C440.251 714.564 409.86 701.947 382.823 679.771C359.288 660.446 341.75 636.63 335.545 615.606C335.013 613.966 334.747 612.858 334.703 612.651C341.292 608.692 359.125 598.291 370.161 595.159C374.461 593.944 378.89 593.245 383.355 593.075C386.59 593.075 389.265 593.725 389.944 595.661C390.119 596.785 390.421 597.885 390.845 598.941C392.559 601.807 397.272 600.123 400.109 601.896C400.538 602.175 400.922 602.519 401.246 602.915L401.424 603.137L401.572 603.403C402.68 605.752 403.581 611.44 406.861 611.44C407.629 611.44 409.254 613.804 409.963 613.493C411.545 612.695 412.814 611.389 413.568 609.785C413.796 609.301 414.1 608.857 414.469 608.47C415.341 608.764 416.16 609.198 416.892 609.756C418.671 611.173 420.831 612.026 423.098 612.208H423.26C426.776 612.134 428.86 609.593 430.5 607.569C431.519 606.313 432.494 605.131 433.454 604.895C433.712 604.841 433.974 604.816 434.237 604.821H435.168H436.35C437.586 604.858 438.813 604.594 439.926 604.053C441.757 602.926 443.117 601.173 443.752 599.118C444.006 598.38 444.375 597.687 444.845 597.064C445.922 596.384 447.15 595.978 448.421 595.883C450.947 595.439 454.079 594.848 455.808 591.849C456.397 590.719 456.782 589.493 456.945 588.229C457.015 587.728 457.129 587.234 457.285 586.752C457.477 586.752 457.817 586.663 458.083 586.634C458.349 586.604 458.94 586.516 459.428 586.397C464.835 585.112 466.667 579.01 467.302 576.868C468.1 574.194 468.942 571.416 470.715 570.515L471.35 570.249C472.432 569.878 473.414 569.261 474.217 568.447C475.304 567.098 475.903 565.422 475.916 563.689C475.95 563.298 476.004 562.908 476.078 562.522L476.507 562.404C476.902 562.31 477.292 562.191 477.674 562.049C479.668 561.311 480.939 559.095 482.978 555.298C483.82 553.746 483.48 550.865 486.169 550.186C488.055 549.891 489.963 549.757 491.872 549.787C500.736 549.787 518.791 552.062 540.627 567.265C558.153 579.366 570.442 597.658 575.021 618.458C578.981 637.103 576.41 656.162 568.078 669.606Z" fill="#F80202" fill-opacity="0.48"/>
<path opacity="0.85" d="M568.078 669.606C550.629 697.855 528.985 715.406 475.133 715.406C472.902 715.406 470.612 715.406 468.322 715.318C440.251 714.564 409.86 701.947 382.823 679.771C359.288 660.446 341.75 636.63 335.545 615.606C335.013 613.966 334.747 612.858 334.703 612.651C341.292 608.692 359.125 598.291 370.161 595.159C374.461 593.944 378.89 593.245 383.355 593.075C386.59 593.075 389.265 593.725 389.944 595.661C390.119 596.785 390.421 597.885 390.845 598.941C392.559 601.807 397.272 600.123 400.109 601.896C400.538 602.175 400.922 602.519 401.246 602.915L401.424 603.137L401.572 603.403C402.68 605.752 403.581 611.44 406.861 611.44C407.629 611.44 409.254 613.804 409.963 613.493C411.545 612.695 412.814 611.389 413.568 609.785C413.796 609.301 414.1 608.857 414.469 608.47C415.341 608.764 416.16 609.198 416.892 609.756C418.671 611.173 420.831 612.026 423.098 612.208H423.26C426.776 612.134 428.86 609.593 430.5 607.569C431.519 606.313 432.494 605.131 433.454 604.895C433.712 604.841 433.974 604.816 434.237 604.821H435.168H436.35C437.586 604.858 438.813 604.594 439.926 604.053C441.757 602.926 443.117 601.173 443.752 599.118C444.006 598.38 444.375 597.687 444.845 597.064C445.922 596.384 447.15 595.978 448.421 595.883C450.947 595.439 454.079 594.848 455.808 591.849C456.397 590.719 456.782 589.493 456.945 588.229C457.015 587.728 457.129 587.234 457.285 586.752C457.477 586.752 457.817 586.663 458.083 586.634C458.349 586.604 458.94 586.516 459.428 586.397C464.835 585.112 466.667 579.01 467.302 576.868C468.1 574.194 468.942 571.416 470.715 570.515L471.35 570.249C472.432 569.878 473.414 569.261 474.217 568.447C475.304 567.098 475.903 565.422 475.916 563.689C475.95 563.298 476.004 562.908 476.078 562.522L476.507 562.404C476.902 562.31 477.292 562.191 477.674 562.049C479.668 561.311 480.939 559.095 482.978 555.298C483.82 553.746 483.48 550.865 486.169 550.186C488.055 549.891 489.963 549.757 491.872 549.787C500.736 549.787 518.791 552.062 540.627 567.265C558.153 579.366 570.442 597.658 575.021 618.458C578.981 637.103 576.41 656.162 568.078 669.606Z" fill="white"/>
<path opacity="0.2" d="M483.642 603.122C486.597 598.69 483.45 592.145 486.227 587.565C488 584.61 491.974 583.059 492.536 579.69C493.097 576.322 489.581 573.219 489.359 569.673C489.241 567.398 490.526 565.241 490.763 563.01C491.044 560.247 489.729 557.588 488.414 555.135C487.586 553.584 486.7 552.033 485.754 550.526C483.45 551.427 483.686 554.027 482.888 555.505C480.849 559.331 479.579 561.518 477.584 562.257C477.203 562.398 476.813 562.517 476.417 562.611L475.989 562.729C475.915 563.116 475.861 563.505 475.826 563.897C475.813 565.629 475.214 567.306 474.127 568.654C473.324 569.469 472.343 570.086 471.261 570.456L470.626 570.722C468.853 571.624 468.01 574.401 467.213 577.075C466.577 579.173 464.745 585.319 459.338 586.605C458.85 586.723 458.392 586.782 457.994 586.841C457.595 586.9 457.388 586.915 457.196 586.959C457.039 587.441 456.926 587.935 456.856 588.437C456.692 589.701 456.307 590.926 455.718 592.056C453.975 595.011 450.843 595.647 448.331 596.09C447.061 596.185 445.833 596.591 444.756 597.272C444.285 597.894 443.916 598.587 443.662 599.325C443.028 601.38 441.668 603.134 439.836 604.26C438.724 604.801 437.497 605.065 436.261 605.028H435.079H434.148C433.885 605.023 433.622 605.048 433.365 605.102C432.434 605.338 431.459 606.579 430.41 607.776C428.77 609.8 426.687 612.341 423.171 612.415H423.008C420.742 612.234 418.581 611.38 416.803 609.963C416.07 609.406 415.252 608.972 414.38 608.677C414.011 609.064 413.706 609.508 413.479 609.992C412.725 611.596 411.456 612.902 409.874 613.701C409.165 614.011 407.539 611.647 406.771 611.647C403.491 611.647 402.59 605.959 401.482 603.61L401.379 603.122L401.201 602.901C400.877 602.504 400.493 602.161 400.064 601.881C397.227 600.123 392.514 601.807 390.8 598.926C390.376 597.871 390.073 596.771 389.899 595.647C389.728 595.217 389.467 594.83 389.133 594.512C388.799 594.193 388.4 593.95 387.963 593.8C388.097 594.238 388.097 594.706 387.963 595.144C387.586 596.051 386.955 596.831 386.146 597.39C383.443 599.695 380.813 603.373 382.453 606.535C384.506 610.495 390.608 609.239 394.42 611.529C399.221 614.41 399 621.871 403.284 625.476C408.47 629.834 416.581 626.082 423.052 627.928C426.775 628.992 429.686 631.799 433.04 633.69C436.394 635.581 441.062 636.424 443.825 633.69C445.229 632.331 445.834 630.351 447.075 628.844C450.03 625.269 455.452 625.417 460.091 625.668C464.731 625.919 470.3 625.491 472.591 621.457C474.555 617.985 473.122 613.272 475.279 609.904C477.23 606.934 481.558 606.077 483.642 603.122Z" fill="#F80202" fill-opacity="0.48"/>
<g opacity="0.5">
<path d="M481.468 639.023C478.794 633.025 474.731 627.411 470.964 622.048C468.803 618.944 466.444 615.983 463.902 613.183C461.764 610.597 459.335 608.267 456.662 606.239C456.221 605.868 455.652 605.682 455.077 605.72C454.501 605.759 453.962 606.019 453.574 606.446C453.296 606.982 453.207 607.597 453.323 608.19C453.438 608.782 453.751 609.319 454.21 609.711C456.648 612.489 459.868 614.735 462.513 617.32C464.803 619.536 467.063 621.752 469.25 624.116C471.357 626.315 473.331 628.639 475.16 631.075C477.199 633.838 478.986 636.778 481.069 639.541C481.321 639.91 481.572 639.245 481.468 639.023Z" fill="#F80202" fill-opacity="0.48"/>
<path d="M511.756 595.971C498.504 590.417 484.312 587.449 469.945 587.225C466.192 587.121 468.054 592.558 471.082 592.484C478.623 592.23 486.172 592.635 493.643 593.696C499.552 594.597 505.595 595.868 511.446 597.286C511.978 597.419 512.184 596.163 511.756 595.971Z" fill="#F80202" fill-opacity="0.48"/>
<path d="M431.222 609.726C429.32 611.892 427.747 614.326 426.553 616.951C425.076 619.684 423.776 622.506 422.549 625.372C420.112 631.06 418.398 637.014 416.433 642.865C416.359 643.101 416.58 643.308 416.699 643.042C419.107 637.753 421.737 632.582 424.499 627.485C425.888 624.914 427.366 622.402 428.932 619.979C430.498 617.556 432.729 615.222 434.132 612.592C434.974 611.129 432.729 608.278 431.222 609.726Z" fill="#F80202" fill-opacity="0.48"/>
<path d="M485.752 610.376C483.965 609.032 482.265 607.643 480.345 606.476C478.424 605.309 476.282 604.053 474.184 602.959C469.908 600.779 465.39 599.108 460.725 597.98C458.449 597.419 459.114 601.689 461.124 602.014C465.455 602.76 469.726 603.822 473.903 605.19C475.969 605.833 477.988 606.618 479.946 607.539C481.881 608.455 483.891 609.327 485.737 610.42C485.752 610.509 485.767 610.376 485.752 610.376Z" fill="#F80202" fill-opacity="0.48"/>
<path d="M502.075 571.993C501.499 571.993 500.982 571.727 500.421 571.653C499.695 571.623 498.969 571.653 498.249 571.741C496.771 571.845 495.368 572.037 493.949 572.258C491.262 572.671 488.603 573.249 485.986 573.987C483.288 574.692 480.638 575.57 478.052 576.617C475.165 577.635 472.454 579.095 470.015 580.946C468.538 582.29 471.005 585.378 472.719 584.551C474.876 583.531 476.841 581.95 478.968 580.813C481.102 579.603 483.297 578.503 485.543 577.518C487.788 576.604 490.087 575.829 492.428 575.199C493.595 574.874 494.792 574.578 495.973 574.327L497.776 573.958L498.795 573.766C499.892 573.68 500.962 573.379 501.942 572.879C502.223 572.82 502.459 572.007 502.075 571.993Z" fill="#F80202" fill-opacity="0.48"/>
<path d="M442.655 609.859C442.133 614.919 441.98 620.01 442.197 625.092C442.301 629.906 442.89 634.697 443.955 639.393C444.059 639.851 444.487 639.29 444.458 639.039C443.943 634.195 443.687 629.327 443.689 624.456C443.813 619.898 444.307 615.357 445.167 610.879C445.462 609.195 442.921 607.555 442.655 609.859Z" fill="#F80202" fill-opacity="0.48"/>
<path d="M421.204 612.651C414.097 614.853 406.814 618.871 401.997 624.648C401.997 624.737 401.923 625.032 402.086 624.899C405.007 622.642 408.094 620.608 411.32 618.812C414.576 617.127 418.023 615.843 421.588 614.986C422.755 614.705 422.415 612.282 421.204 612.651Z" fill="#F80202" fill-opacity="0.48"/>
</g>
<path d="M482.724 576.883C483.536 574.622 481.631 572.273 481.631 569.865C481.631 565.861 486.757 563.039 486.284 559.065C485.96 557.787 485.463 556.559 484.807 555.416C484.303 554.17 484.057 552.835 484.085 551.491C484.113 550.148 484.414 548.824 484.97 547.6C484.97 547.6 484.97 547.6 484.97 547.526C482.103 548.59 478.75 558.607 476.46 559.449C475.6 559.627 474.773 559.936 474.007 560.365C472.219 561.739 473.416 564.945 471.894 566.615C471.1 567.257 470.2 567.757 469.235 568.092C466.28 569.57 465.246 573.13 464.3 576.277C463.355 579.424 461.759 582.97 458.568 583.664C457.493 583.741 456.438 584.001 455.451 584.433C453.604 585.659 454.209 588.569 453.101 590.49C451.122 593.918 445.33 592.322 442.567 595.129C440.735 596.976 440.691 600.359 438.371 601.556C436.628 602.472 434.471 601.63 432.565 602.088C428.576 603.078 427.128 609.224 423.036 609.327C419.313 609.416 416.166 604.171 412.901 605.944C410.965 606.993 410.67 609.977 408.646 610.849C406.622 611.721 404.376 609.697 403.416 607.643C402.857 606.194 402.185 604.791 401.406 603.447C401.776 606.683 402.677 609.815 405.188 611.706C406.55 612.465 407.84 613.346 409.045 614.336C410.3 615.68 410.729 617.719 412.206 618.768C414.555 620.497 417.835 618.857 420.746 619.004C423.346 619.123 425.621 620.703 427.985 621.841C430.349 622.979 433.348 623.599 435.372 622.003C436.569 621.073 437.219 619.551 438.475 618.694C440.543 617.217 443.336 618.177 445.729 618.93C448.123 619.684 451.24 619.994 452.703 617.955C454.165 615.916 453.175 612.489 455.229 611.071C456.706 610.022 458.775 610.849 460.592 610.701C461.557 610.614 462.477 610.25 463.239 609.652C464.002 609.055 464.576 608.249 464.891 607.333C465.955 604.068 463.842 599.547 466.664 597.611C468.023 596.666 469.944 596.991 471.407 596.208C473.652 595.011 473.904 591.923 473.652 589.397C473.401 586.87 473.002 583.989 474.687 582.083C476.962 579.69 481.631 579.941 482.724 576.883Z" fill="#F80202" fill-opacity="0.48"/>
<path opacity="0.4" d="M482.724 576.883C483.536 574.622 481.631 572.273 481.631 569.865C481.631 565.861 486.757 563.039 486.284 559.065C485.96 557.787 485.463 556.559 484.807 555.416C484.303 554.17 484.057 552.835 484.085 551.491C484.113 550.148 484.414 548.824 484.97 547.6C484.97 547.6 484.97 547.6 484.97 547.526C482.103 548.59 478.75 558.607 476.46 559.449C475.6 559.627 474.773 559.936 474.007 560.365C472.219 561.739 473.416 564.945 471.894 566.615C471.1 567.257 470.2 567.757 469.235 568.092C466.28 569.57 465.246 573.13 464.3 576.277C463.355 579.424 461.759 582.97 458.568 583.664C457.493 583.741 456.438 584.001 455.451 584.433C453.604 585.659 454.209 588.569 453.101 590.49C451.122 593.918 445.33 592.322 442.567 595.129C440.735 596.976 440.691 600.359 438.371 601.556C436.628 602.472 434.471 601.63 432.565 602.088C428.576 603.078 427.128 609.224 423.036 609.327C419.313 609.416 416.166 604.171 412.901 605.944C410.965 606.993 410.67 609.977 408.646 610.849C406.622 611.721 404.376 609.697 403.416 607.643C402.857 606.194 402.185 604.791 401.406 603.447C401.776 606.683 402.677 609.815 405.188 611.706C406.55 612.465 407.84 613.346 409.045 614.336C410.3 615.68 410.729 617.719 412.206 618.768C414.555 620.497 417.835 618.857 420.746 619.004C423.346 619.123 425.621 620.703 427.985 621.841C430.349 622.979 433.348 623.599 435.372 622.003C436.569 621.073 437.219 619.551 438.475 618.694C440.543 617.217 443.336 618.177 445.729 618.93C448.123 619.684 451.24 619.994 452.703 617.955C454.165 615.916 453.175 612.489 455.229 611.071C456.706 610.022 458.775 610.849 460.592 610.701C461.557 610.614 462.477 610.25 463.239 609.652C464.002 609.055 464.576 608.249 464.891 607.333C465.955 604.068 463.842 599.547 466.664 597.611C468.023 596.666 469.944 596.991 471.407 596.208C473.652 595.011 473.904 591.923 473.652 589.397C473.401 586.87 473.002 583.989 474.687 582.083C476.962 579.69 481.631 579.941 482.724 576.883Z" fill="white"/>
<path d="M476.553 559.449C475.637 559.833 474.514 559.922 473.879 560.705C473.342 561.545 473.079 562.53 473.126 563.526C473.149 564.592 472.883 565.643 472.357 566.57C471.634 567.355 470.717 567.936 469.698 568.254C467.978 569.217 466.693 570.804 466.108 572.686C465.34 574.504 464.97 576.498 464.231 578.463C463.593 580.554 462.285 582.376 460.508 583.649C459.551 584.201 458.479 584.525 457.376 584.595C456.964 584.597 456.558 584.701 456.195 584.897C455.832 585.093 455.522 585.374 455.293 585.717C454.912 586.549 454.667 587.437 454.569 588.347C454.444 589.481 454.021 590.562 453.343 591.479C452.556 592.351 451.527 592.968 450.388 593.252C449.382 593.536 448.361 593.763 447.33 593.932C445.365 594.272 443.488 594.789 442.528 596.311C442.038 597.153 441.613 598.032 441.257 598.94C440.865 599.999 440.221 600.947 439.381 601.703C438.437 602.402 437.273 602.738 436.101 602.649C435.118 602.575 434.13 602.575 433.146 602.649C431.373 602.87 429.999 604.377 428.714 605.899C428.059 606.706 427.358 607.476 426.616 608.204C425.8 608.979 424.771 609.494 423.661 609.681C422.56 609.823 421.443 609.611 420.47 609.076C419.55 608.593 418.666 608.045 417.825 607.436C417.041 606.834 416.182 606.338 415.27 605.958C414.824 605.8 414.348 605.752 413.88 605.816C413.412 605.88 412.967 606.056 412.581 606.328C411.015 607.465 410.616 609.962 408.621 610.76C410.527 609.77 410.675 607.376 412.344 605.973C412.772 605.636 413.275 605.407 413.81 605.307C414.345 605.206 414.897 605.237 415.417 605.397C416.413 605.727 417.358 606.195 418.224 606.786C419.909 607.834 421.696 609.061 423.514 608.706C425.331 608.352 426.542 606.638 427.798 605.086C428.426 604.242 429.133 603.461 429.911 602.752C430.739 601.994 431.762 601.482 432.866 601.275C433.908 601.202 434.955 601.202 435.998 601.275C436.871 601.352 437.742 601.111 438.45 600.595C439.765 599.502 440.076 597.345 441.257 595.468C441.898 594.504 442.807 593.749 443.873 593.297C444.865 592.888 445.901 592.595 446.96 592.425C448.94 592.056 451.023 591.804 452.102 590.504C452.64 589.779 452.972 588.921 453.062 588.022C453.19 586.934 453.5 585.876 453.978 584.89C454.31 584.348 454.786 583.908 455.352 583.619C455.881 583.383 456.445 583.234 457.022 583.176C457.954 583.13 458.863 582.872 459.681 582.423C461.227 581.296 462.392 579.724 463.02 577.917C463.773 576.099 464.217 574.075 465.074 572.169C465.881 570.185 467.405 568.576 469.343 567.663C470.287 567.43 471.156 566.963 471.87 566.304C472.378 565.47 472.658 564.517 472.682 563.541C472.694 562.479 473.035 561.447 473.657 560.586C474.5 559.759 475.622 559.759 476.553 559.449Z" fill="#F80202" fill-opacity="0.48"/>
<path opacity="0.15" d="M476.553 559.449C475.637 559.833 474.514 559.922 473.879 560.705C473.342 561.545 473.079 562.53 473.126 563.526C473.149 564.592 472.883 565.643 472.357 566.57C471.634 567.355 470.717 567.936 469.698 568.254C467.978 569.217 466.693 570.804 466.108 572.686C465.34 574.504 464.97 576.498 464.231 578.463C463.593 580.554 462.285 582.376 460.508 583.649C459.551 584.201 458.479 584.525 457.376 584.595C456.964 584.597 456.558 584.701 456.195 584.897C455.832 585.093 455.522 585.374 455.293 585.717C454.912 586.549 454.667 587.437 454.569 588.347C454.444 589.481 454.021 590.562 453.343 591.479C452.556 592.351 451.527 592.968 450.388 593.252C449.382 593.536 448.361 593.763 447.33 593.932C445.365 594.272 443.488 594.789 442.528 596.311C442.038 597.153 441.613 598.032 441.257 598.94C440.865 599.999 440.221 600.947 439.381 601.703C438.437 602.402 437.273 602.738 436.101 602.649C435.118 602.575 434.13 602.575 433.146 602.649C431.373 602.87 429.999 604.377 428.714 605.899C428.059 606.706 427.358 607.476 426.616 608.204C425.8 608.979 424.771 609.494 423.661 609.681C422.56 609.823 421.443 609.611 420.47 609.076C419.55 608.593 418.666 608.045 417.825 607.436C417.041 606.834 416.182 606.338 415.27 605.958C414.824 605.8 414.348 605.752 413.88 605.816C413.412 605.88 412.967 606.056 412.581 606.328C411.015 607.465 410.616 609.962 408.621 610.76C410.527 609.77 410.675 607.376 412.344 605.973C412.772 605.636 413.275 605.407 413.81 605.307C414.345 605.206 414.897 605.237 415.417 605.397C416.413 605.727 417.358 606.195 418.224 606.786C419.909 607.834 421.696 609.061 423.514 608.706C425.331 608.352 426.542 606.638 427.798 605.086C428.426 604.242 429.133 603.461 429.911 602.752C430.739 601.994 431.762 601.482 432.866 601.275C433.908 601.202 434.955 601.202 435.998 601.275C436.871 601.352 437.742 601.111 438.45 600.595C439.765 599.502 440.076 597.345 441.257 595.468C441.898 594.504 442.807 593.749 443.873 593.297C444.865 592.888 445.901 592.595 446.96 592.425C448.94 592.056 451.023 591.804 452.102 590.504C452.64 589.779 452.972 588.921 453.062 588.022C453.19 586.934 453.5 585.876 453.978 584.89C454.31 584.348 454.786 583.908 455.352 583.619C455.881 583.383 456.445 583.234 457.022 583.176C457.954 583.13 458.863 582.872 459.681 582.423C461.227 581.296 462.392 579.724 463.02 577.917C463.773 576.099 464.217 574.075 465.074 572.169C465.881 570.185 467.405 568.576 469.343 567.663C470.287 567.43 471.156 566.963 471.87 566.304C472.378 565.47 472.658 564.517 472.682 563.541C472.694 562.479 473.035 561.447 473.657 560.586C474.5 559.759 475.622 559.759 476.553 559.449Z" fill="black"/>
<path opacity="0.7" d="M447.087 618.694C444.132 617.955 441.901 615.547 438.813 616.965C435.992 618.28 432.904 622.032 429.535 620.747C426.167 619.462 424.202 617.305 420.449 617.792C417.686 618.132 410.713 621.116 410.668 615.768C410.668 615.428 410.314 615.65 410.299 615.872C409.989 619.107 413.047 621.043 415.913 621.264C418.558 621.471 421.542 620.732 424.069 621.634C425.842 622.269 427.304 623.599 429.048 624.323C429.795 624.688 430.61 624.895 431.442 624.93C432.273 624.966 433.103 624.829 433.879 624.529C435.394 623.564 436.663 622.259 437.587 620.718C439.227 618.649 441.03 618.073 443.364 619.373C444.679 620.097 445.92 621.057 447.205 619.875C447.486 619.595 447.53 618.812 447.087 618.694ZM454.829 604.082C454.834 603.877 454.785 603.675 454.686 603.496C454.588 603.317 454.443 603.167 454.267 603.062C453.558 602.752 453.159 603.062 452.421 603.062C451.731 603.143 451.032 603.114 450.352 602.974C448.875 602.708 447.397 602.117 445.92 601.925C442.152 601.437 440.956 604.126 439.73 607.125C439.432 607.972 438.906 608.719 438.21 609.285C437.513 609.851 436.674 610.213 435.785 610.331C434.667 610.266 433.561 610.068 432.49 609.74C431.687 609.679 430.879 609.743 430.097 609.932C426.181 610.686 422.089 616.197 417.878 613.744C417.686 613.641 417.524 614.143 417.657 614.261C420.951 617.098 424.66 614.128 427.792 612.695C428.485 612.278 429.268 612.034 430.075 611.982C430.883 611.931 431.691 612.074 432.431 612.4C433.249 612.845 434.124 613.178 435.031 613.39C435.923 613.535 436.835 613.487 437.707 613.25C438.578 613.013 439.389 612.592 440.084 612.016C441.275 610.731 442.133 609.173 442.581 607.48C443.482 605.338 444.989 604.953 447.131 605.411C449.274 605.869 455.036 608.1 454.829 604.082ZM471.849 594.257C471.465 594.685 471.066 594.73 470.608 594.996C470.15 595.262 470.12 595.38 469.839 595.527C469.066 595.791 468.245 595.887 467.431 595.808C466.765 595.853 466.123 596.071 465.568 596.442C465.013 596.813 464.566 597.323 464.27 597.921C462.526 601.083 463.915 605.072 462.969 608.425C461.817 612.503 457.267 608.425 454.77 609.903C453.807 610.636 453.128 611.68 452.849 612.858C452.446 614.384 452.41 615.984 452.746 617.526C452.746 617.97 453.218 617.526 453.204 617.29C453.085 615.251 452.938 612.636 455.464 612.193C456.942 611.927 458.552 613.301 460.059 613.67C460.722 613.852 461.419 613.873 462.093 613.732C462.766 613.591 463.396 613.291 463.93 612.858C464.422 612.257 464.787 611.561 465 610.814C465.213 610.067 465.272 609.284 465.171 608.514C465.171 606.889 465.171 605.264 465.171 603.624C465.171 601.984 465.008 599.974 466.412 598.955C467.49 598.157 469.056 598.748 470.297 598.231C470.937 597.904 471.467 597.396 471.821 596.772C472.175 596.147 472.339 595.432 472.292 594.715C472.381 594.257 472.115 593.873 471.849 594.257ZM479.236 567.84C479.147 567.722 479.044 567.973 479.044 568.033C479.138 569.286 478.877 570.541 478.29 571.652C477.568 572.867 476.49 573.831 475.203 574.415C473.449 575.092 471.733 575.862 470.061 576.72C469.28 577.111 468.595 577.67 468.056 578.357C467.517 579.044 467.137 579.842 466.944 580.694C466.703 582.456 466.653 584.24 466.796 586.013C466.796 590.445 462.009 589.219 459.143 590.549C456.277 591.878 455.819 595.956 457.207 598.615C457.4 598.985 457.725 598.29 457.665 598.083C457.03 595.971 459.054 594.301 460.901 593.74C462.497 593.252 464.196 593.37 465.806 592.927C469.78 591.863 469.766 588.126 469.47 584.713C469.343 583.671 469.44 582.615 469.753 581.614C470.067 580.613 470.59 579.69 471.287 578.906C472.711 577.508 474.243 576.224 475.867 575.065C477.143 574.202 478.216 573.073 479.014 571.756C479.421 571.18 479.663 570.504 479.712 569.8C479.762 569.097 479.617 568.394 479.295 567.767L479.236 567.84Z" fill="#F80202" fill-opacity="0.48"/>
</svg>
