<svg width="1000" height="1000" viewBox="0 0 1000 1000" fill="none" xmlns="http://www.w3.org/2000/svg">
<path d="M860.501 544.976L874.851 536.64C875.332 536.298 875.893 536.088 876.48 536.028C877.067 535.968 877.659 536.061 878.199 536.298L881.616 538.28C882.09 538.631 882.465 539.098 882.704 539.637C882.944 540.176 883.04 540.768 882.983 541.355V575.522C882.891 577.162 882.417 578.758 881.598 580.182C880.78 581.606 879.639 582.818 878.268 583.722L863.917 592.059C863.413 592.367 862.834 592.53 862.243 592.53C861.652 592.53 861.073 592.367 860.569 592.059L857.152 590.077C856.678 589.726 856.303 589.259 856.064 588.72C855.825 588.181 855.729 587.589 855.785 587.002V552.835C855.918 551.252 856.412 549.72 857.229 548.357C858.047 546.995 859.166 545.838 860.501 544.976Z" fill="#FAFAFA"/>
<path d="M855.785 553.108V587.275C855.729 587.862 855.825 588.454 856.064 588.993C856.303 589.532 856.678 590 857.152 590.351L860.501 592.332C860.05 591.98 859.695 591.52 859.468 590.995C859.241 590.469 859.15 589.895 859.202 589.326V555.158C859.264 553.52 859.733 551.922 860.569 550.511L857.152 548.461C856.324 549.876 855.855 551.471 855.785 553.108Z" fill="#E0E0E0"/>
<path d="M878.268 583.996L863.918 592.332C861.322 593.836 859.203 592.333 859.203 589.599V555.432C859.295 553.792 859.769 552.196 860.587 550.772C861.406 549.348 862.547 548.136 863.918 547.232L878.268 538.895C880.865 537.392 882.984 538.895 882.984 541.628V575.796C882.892 577.436 882.418 579.031 881.599 580.455C880.78 581.879 879.64 583.092 878.268 583.996Z" fill="#F5F5F5"/>
<path d="M859.68 612.56C859.414 612.577 859.152 612.502 858.935 612.348C858.718 612.194 858.561 611.971 858.489 611.715C858.417 611.459 858.435 611.186 858.539 610.942C858.644 610.698 858.83 610.497 859.065 610.373L869.041 604.565C869.232 604.472 869.392 604.326 869.501 604.144C869.611 603.962 869.665 603.752 869.656 603.54V565.819C869.656 565.511 869.779 565.215 869.997 564.998C870.215 564.78 870.51 564.657 870.818 564.657C870.976 564.648 871.135 564.671 871.284 564.725C871.433 564.779 871.569 564.864 871.684 564.972C871.799 565.081 871.891 565.212 871.954 565.358C872.016 565.504 872.049 565.661 872.048 565.819V603.745C872.046 604.377 871.882 604.998 871.571 605.549C871.259 606.099 870.812 606.56 870.271 606.888L860.295 612.628C860.088 612.669 859.873 612.646 859.68 612.56Z" fill="#263238"/>
<path d="M554.293 778.271L594.816 759.479C594.816 759.479 591.672 721.417 564.885 730.505C538.098 739.594 554.293 778.271 554.293 778.271Z" fill="#FFA403"/>
<g opacity="0.5">
<path d="M554.293 778.271L594.816 759.479C594.816 759.479 591.672 721.417 564.885 730.505C538.098 739.594 554.293 778.271 554.293 778.271Z" fill="black"/>
</g>
<path d="M576.569 773.488L567.891 756.131L588.391 744.172C592.381 742.244 596.817 741.43 601.231 741.815C605.646 742.2 609.874 743.77 613.47 746.359C633.97 758.181 650.576 788.726 650.576 814.694C650.576 828.361 645.997 837.791 638.685 842.027L617.365 854.328L608.14 836.082C598.888 828.352 591.315 818.812 585.886 808.047C580.457 797.283 577.286 785.522 576.569 773.488Z" fill="#263238"/>
<path d="M554.977 784.148C555.425 795.923 558.212 807.491 563.174 818.179C568.137 828.867 575.176 838.46 583.882 846.401C586.425 848.593 589.171 850.537 592.082 852.209C612.583 864.031 629.188 852.688 629.188 826.926C628.381 805.982 620.256 785.985 606.228 770.413C602.266 765.911 597.661 762.019 592.561 758.864C571.445 747.248 554.977 758.318 554.977 784.148Z" fill="#37474F"/>
<path d="M591.945 774.581C578.893 767.064 568.301 774.581 568.301 792.143C568.459 800.935 570.681 809.566 574.788 817.341C578.895 825.116 584.772 831.817 591.945 836.902C604.997 844.419 615.52 836.902 615.52 819.409C615.375 810.612 613.167 801.973 609.072 794.187C604.977 786.401 599.11 779.685 591.945 774.581Z" fill="#455A64"/>
<path d="M591.945 789.41C585.111 785.446 579.645 789.41 579.645 798.498C579.739 803.062 580.901 807.54 583.037 811.575C585.173 815.609 588.224 819.088 591.945 821.732C598.778 825.627 604.177 821.732 604.177 812.643C604.1 808.083 602.954 803.605 600.829 799.569C598.704 795.533 595.661 792.053 591.945 789.41Z" fill="#E0E0E0"/>
<path d="M588.186 789.205C587.335 788.706 586.414 788.338 585.453 788.111C582.036 789.068 579.781 792.758 579.781 798.498C580.012 805.224 582.408 811.695 586.615 816.949C587.071 817.351 587.576 817.696 588.118 817.974C594.132 821.459 598.983 817.974 598.983 809.842C598.92 805.798 597.91 801.825 596.036 798.241C594.161 794.657 591.472 791.563 588.186 789.205Z" fill="#F5F5F5"/>
<path d="M554.977 784.148C555.425 795.923 558.212 807.491 563.174 818.179C568.137 828.867 575.176 838.46 583.882 846.401C572.374 833.393 564.273 817.731 560.307 800.822C557.163 785.993 558.393 764.604 571.104 759.206C583.814 753.808 600.761 765.219 606.091 770.345C602.13 765.842 597.524 761.951 592.424 758.796C571.445 747.247 554.977 758.318 554.977 784.148Z" fill="#455A64"/>
<path d="M679.276 840.046C679.332 841.081 679.11 842.113 678.633 843.034C678.156 843.955 677.441 844.731 676.562 845.282C675.683 845.833 674.673 846.139 673.636 846.167C672.599 846.196 671.574 845.946 670.666 845.444L643.332 829.454C643.568 828.331 643.683 827.185 643.674 826.037C642.823 810.544 638.31 795.473 630.506 782.062C622.702 768.651 611.828 757.282 598.778 748.887C596.469 747.519 594.045 746.353 591.535 745.403C590.441 744.993 589.416 744.582 588.391 744.309C568.916 738.364 554.224 750.254 554.224 774.581V778.203L503.656 749.024V470.971L569.052 508.691L635.269 557.346L671.144 725.654L679.276 840.046Z" fill="#E0E0E0"/>
<path d="M679.276 840.046C679.332 841.081 679.11 842.113 678.633 843.034C678.156 843.955 677.441 844.731 676.562 845.282C675.683 845.833 674.673 846.139 673.636 846.167C672.599 846.196 671.574 845.946 670.666 845.444L643.332 829.454C643.568 828.331 643.683 827.185 643.674 826.037C642.823 810.544 638.31 795.473 630.506 782.062C622.702 768.651 611.828 757.281 598.778 748.887C596.469 747.519 594.045 746.353 591.535 745.402C590.441 744.992 589.416 744.582 588.391 744.309C568.916 738.364 554.224 750.254 554.224 774.581V778.203L503.656 749.024V664.357L673.946 762.623L679.276 840.046Z" fill="#FFA403"/>
<path opacity="0.2" d="M679.276 840.046C679.332 841.081 679.11 842.113 678.633 843.034C678.156 843.955 677.441 844.731 676.562 845.282C675.683 845.833 674.673 846.139 673.636 846.167C672.599 846.196 671.574 845.946 670.666 845.444L643.332 829.454C643.568 828.331 643.683 827.185 643.674 826.037C642.823 810.544 638.31 795.473 630.506 782.062C622.702 768.651 611.828 757.281 598.778 748.887C596.469 747.519 594.045 746.353 591.535 745.402C590.441 744.992 589.416 744.582 588.391 744.309C568.916 738.364 554.224 750.254 554.224 774.581V778.203L503.656 749.024V664.357L673.946 762.623L679.276 840.046Z" fill="black"/>
<path d="M622.833 696.885C620.318 695.247 618.226 693.038 616.729 690.436C615.233 687.835 614.374 684.916 614.223 681.919V577.162C614.223 571.627 616.273 568.689 618.733 570.329L623.311 573.745C626.706 576.56 629.102 580.394 630.145 584.679L654.95 709.116C655.702 712.875 653.583 714.378 650.303 712.465L622.833 696.885Z" fill="#455A64"/>
<path d="M618.457 575.591L620.781 577.368C623.374 579.547 625.215 582.488 626.042 585.773L650.438 708.023L624.949 693.263C623.013 692.027 621.388 690.36 620.203 688.392C619.017 686.424 618.303 684.209 618.116 681.919V577.162C618.077 576.639 618.077 576.114 618.116 575.591M616.954 569.987C615.109 569.987 613.879 572.789 613.879 577.162V681.919C614.03 684.917 614.889 687.835 616.386 690.437C617.882 693.038 619.974 695.248 622.489 696.885L649.823 712.738C650.604 713.229 651.498 713.511 652.42 713.558C654.128 713.558 655.016 712.055 654.47 709.39L629.664 584.953C628.622 580.668 626.225 576.834 622.831 574.019L618.252 570.602C617.856 570.243 617.351 570.026 616.817 569.987H616.954Z" fill="#37474F"/>
<path d="M511.309 503.361V628.687C511.368 629.841 511.703 630.965 512.286 631.963C512.868 632.962 513.681 633.807 514.657 634.427L519.03 636.955L594.609 680.621C596.454 681.646 597.957 680.621 597.957 678.639V559.464C597.9 558.271 597.597 557.104 597.068 556.034C596.539 554.964 595.794 554.014 594.882 553.245L569.598 533.77C567.89 532.472 565.02 530.558 563.175 529.465L522.174 505.889L515.34 501.994L514.315 501.448C512.812 500.354 511.309 501.243 511.309 503.361Z" fill="#37474F"/>
<path d="M519.031 628.072L590.236 669.141V560.01L566.524 540.33L519.031 512.859V628.072Z" fill="#455A64"/>
<path d="M511.309 537.528V546.685L519.03 551.127L590.235 592.264L597.957 596.706V587.618L590.235 583.176L519.03 542.038L511.309 537.528Z" fill="#37474F"/>
<path d="M545.612 739.525V746.359C545.612 747.794 544.587 748.34 543.357 747.657L516.775 732.145C516.121 731.733 515.576 731.171 515.183 730.505C514.791 729.839 514.564 729.09 514.52 728.318V721.485C514.52 720.118 515.545 719.503 516.775 720.255L543.698 735.767C544.269 736.219 544.735 736.788 545.066 737.437C545.396 738.086 545.582 738.798 545.612 739.525Z" fill="white"/>
<path d="M671.416 725.585L673.466 724.902C740.844 701.668 806.718 667.227 859.541 618.71C862.343 616.113 863.846 614.61 864.051 614.405L872.115 728.797C872.117 729.854 871.856 730.895 871.355 731.826C870.854 732.756 870.129 733.547 869.245 734.127C813.074 781.961 747.404 817.29 676.404 845.376C677.337 844.849 678.102 844.069 678.61 843.126C679.118 842.182 679.348 841.114 679.274 840.046L671.211 725.654L671.416 725.585Z" fill="#FFA403"/>
<g opacity="0.3">
<path d="M671.42 725.585L673.47 724.902C740.848 701.668 806.722 667.227 859.545 618.71C862.347 616.113 863.85 614.61 864.055 614.405L872.119 728.797C872.121 729.854 871.86 730.895 871.359 731.826C870.858 732.756 870.132 733.547 869.249 734.127C813.077 781.961 747.408 817.29 676.408 845.376C677.341 844.849 678.106 844.069 678.614 843.126C679.122 842.182 679.352 841.114 679.278 840.046L671.215 725.654L671.42 725.585Z" fill="white"/>
</g>
<path d="M864.052 614.336C838.512 638.456 810.207 659.467 779.727 676.931C745.217 696.534 708.929 712.824 671.348 725.585L635.336 557.277L755.946 487.576L811.298 455.595L828.245 445.823L864.052 614.336Z" fill="#455A64"/>
<g opacity="0.1">
<path d="M823.119 491.334L825.784 489.831L847.378 598.073C848.13 601.831 846.011 603.334 842.731 601.421L815.397 585.567C812.884 583.922 810.791 581.712 809.284 579.113C807.778 576.515 806.899 573.6 806.719 570.602V500.901L823.119 491.334Z" fill="white"/>
<path d="M748.02 534.726L762.78 526.253L791.617 509.579V565.477C791.617 568.825 789.294 570.124 786.424 568.484L744.33 544.225V543.541C744.006 541.872 744.183 540.144 744.84 538.575C745.496 537.006 746.603 535.667 748.02 534.726Z" fill="white"/>
</g>
<path d="M828.108 446.028L811.161 455.8L755.946 487.576L635.336 557.277L671.348 725.654L673.398 724.97C740.776 701.736 806.651 667.296 859.473 618.778C862.275 616.182 863.779 614.678 863.984 614.473L828.108 446.028ZM768.998 672.079C768.866 672.827 768.66 673.559 768.383 674.266C767.741 675.85 766.586 677.173 765.103 678.024C758.27 681.851 750.89 685.541 743.988 688.889C730.321 695.723 716.039 701.873 702.235 707.477C695.402 710.142 687.407 713.353 681.735 715.472C681.045 715.774 680.294 715.913 679.541 715.879C678.788 715.844 678.053 715.638 677.393 715.275C676.733 714.912 676.165 714.402 675.733 713.784C675.301 713.167 675.016 712.458 674.902 711.713L650.506 597.048C650.221 595.358 650.438 593.623 651.13 592.055C651.823 590.488 652.96 589.159 654.401 588.233L732.576 543.132C733.17 542.664 733.879 542.363 734.628 542.262C735.378 542.16 736.141 542.261 736.838 542.554C737.536 542.847 738.142 543.321 738.594 543.927C739.046 544.534 739.328 545.25 739.41 546.002L763.805 645.634L769.408 669.004C769.44 669.231 769.44 669.461 769.408 669.687C769.441 669.799 769.441 669.918 769.408 670.029V670.712C769.335 671.185 769.197 671.645 768.998 672.079ZM837.948 629.507C823.704 641.094 808.83 651.884 793.394 661.829C789.294 664.494 785.057 667.091 780.615 669.756C779.989 670.242 779.239 670.542 778.45 670.623C777.662 670.704 776.866 670.562 776.154 670.213C775.442 669.864 774.843 669.322 774.423 668.65C774.004 667.977 773.782 667.2 773.782 666.408L768.178 642.969L743.988 543.542C743.663 541.868 743.855 540.135 744.539 538.572C745.222 537.01 746.365 535.693 747.815 534.795L762.575 526.253L822.914 491.334L825.579 489.831C826.159 489.483 826.816 489.287 827.49 489.259C828.165 489.232 828.836 489.374 829.441 489.673C830.047 489.973 830.567 490.419 830.955 490.972C831.343 491.525 831.586 492.166 831.661 492.838L855.92 606.751C856.368 609.558 855.76 612.431 854.212 614.815C853.963 615.094 853.734 615.391 853.528 615.703L852.777 616.455C847.925 620.828 842.8 625.202 837.538 629.507H837.948Z" fill="#F5F5F5"/>
<path d="M651.328 580.921L825.171 480.742C826.294 480.026 827.182 478.998 827.729 477.784C828.275 476.57 828.455 475.223 828.246 473.909L825.103 458.26C825.059 457.718 824.872 457.197 824.561 456.751C824.251 456.304 823.827 455.948 823.334 455.719C822.841 455.49 822.295 455.396 821.754 455.446C821.212 455.496 820.694 455.689 820.251 456.005L646.613 555.91C645.49 556.626 644.601 557.654 644.055 558.868C643.509 560.082 643.329 561.429 643.538 562.744L646.681 578.392C646.719 578.918 646.889 579.425 647.174 579.867C647.459 580.31 647.851 580.674 648.314 580.926C648.776 581.177 649.295 581.309 649.821 581.308C650.348 581.307 650.866 581.174 651.328 580.921Z" fill="#455A64"/>
<path d="M768.932 669.756C769.257 671.41 769.064 673.124 768.379 674.665C767.694 676.206 766.551 677.498 765.105 678.366C738.122 692.81 710.148 705.324 681.395 715.813C680.705 716.115 679.954 716.254 679.202 716.22C678.449 716.186 677.714 715.979 677.054 715.616C676.393 715.253 675.825 714.743 675.393 714.125C674.961 713.508 674.677 712.8 674.562 712.055L673.332 705.973C690.211 693.673 731.28 664.357 762.782 646.18H763.124L768.932 669.756Z" fill="#37474F"/>
<path d="M854.689 614.678C854.245 615.276 853.766 615.846 853.254 616.387C830.728 636.396 806.387 654.262 780.546 669.756C779.971 670.161 779.3 670.412 778.6 670.483C777.899 670.554 777.192 670.443 776.547 670.162C775.901 669.88 775.339 669.437 774.915 668.876C774.49 668.314 774.217 667.652 774.123 666.954L768.383 642.969C792.936 629.466 818.475 617.839 844.781 608.187L854.689 614.678Z" fill="#37474F"/>
<path d="M874.986 724.082C874.986 723.74 874.371 724.082 874.03 724.082C873.688 724.082 847.926 760.162 790.935 794.261C760.425 811.813 726.958 823.625 692.191 829.112C670.119 831.094 643.059 807.792 643.059 807.792L646.749 805.058C646.749 805.058 672.443 824.465 685.494 824.465C696.701 824.465 736.882 819.408 791.413 788.589C822.531 771.822 849.645 748.509 870.886 720.255C871.858 720.449 872.756 720.909 873.48 721.585C874.205 722.261 874.726 723.126 874.986 724.082Z" fill="#37474F"/>
<path d="M874.03 724.355C874.03 724.355 847.926 760.436 790.935 794.466C760.427 812.008 726.958 823.797 692.191 829.249C670.119 831.23 643.059 807.928 643.059 807.928V830.205C643.059 830.205 670.392 853.576 692.191 851.526C726.958 846.038 760.425 834.226 790.935 816.675C847.926 782.508 874.03 746.564 874.03 746.564C878.54 738.979 876.695 719.913 874.03 724.355Z" fill="#455A64"/>
<path d="M705.857 757.702C707.756 757.309 709.716 757.323 711.609 757.745C713.501 758.167 715.282 758.987 716.833 760.151C718.385 761.314 719.671 762.794 720.606 764.493C721.541 766.191 722.104 768.07 722.257 770.003C722.693 774.275 721.591 778.563 719.149 782.095C716.706 785.628 713.083 788.173 708.932 789.273C707.027 789.753 705.038 789.801 703.112 789.414C701.185 789.026 699.37 788.214 697.798 787.035C696.226 785.856 694.938 784.34 694.026 782.6C693.115 780.859 692.605 778.936 692.532 776.973C692.191 772.717 693.331 768.474 695.76 764.963C698.188 761.451 701.755 758.886 705.857 757.702Z" fill="white"/>
<path d="M850.521 674.949C847.872 678.227 845.903 682.001 844.73 686.049C843.557 690.097 843.202 694.338 843.687 698.525C844.712 706.656 849.359 709.185 854.006 704.196C859.125 697.456 861.56 689.055 860.839 680.621C860.088 672.557 855.509 670.029 850.521 674.949Z" fill="white"/>
<path d="M736.198 747.248C751.937 742.199 767.028 735.318 781.162 726.747C783.417 725.449 785.194 726.747 785.194 729.071V732.351C785.087 733.722 784.668 735.05 783.969 736.235C783.271 737.419 782.31 738.428 781.162 739.184C766.998 747.609 751.911 754.373 736.198 759.343C735.669 759.541 735.099 759.602 734.54 759.52C733.981 759.438 733.452 759.217 733.002 758.876C732.552 758.535 732.196 758.086 731.966 757.57C731.736 757.054 731.64 756.489 731.688 755.926V752.646C731.879 751.422 732.4 750.273 733.195 749.322C733.989 748.371 735.027 747.654 736.198 747.248Z" fill="#37474F"/>
<path d="M834.053 693.605V696.953C833.915 699.891 832.641 702.659 830.5 704.675C819.718 713.692 808.448 722.109 796.743 729.89C794.624 731.325 792.848 730.369 792.848 727.772V724.492C792.931 723.065 793.322 721.672 793.994 720.41C794.667 719.147 795.604 718.046 796.743 717.18C808.448 709.399 819.718 700.982 830.5 691.965C832.482 690.325 834.053 691.008 834.053 693.605Z" fill="#37474F"/>
<path d="M736.198 770.14C751.926 765.062 767.014 758.183 781.162 749.639C783.417 748.341 785.194 749.639 785.194 751.963V755.243C785.087 756.614 784.668 757.942 783.969 759.126C783.271 760.311 782.31 761.32 781.162 762.076C766.998 770.501 751.911 777.265 736.198 782.235C735.669 782.433 735.099 782.494 734.54 782.412C733.981 782.33 733.452 782.109 733.002 781.768C732.552 781.427 732.196 780.978 731.966 780.462C731.736 779.946 731.64 779.381 731.688 778.818V775.538C731.879 774.314 732.4 773.165 733.195 772.214C733.989 771.263 735.027 770.546 736.198 770.14Z" fill="#37474F"/>
<path d="M834.053 716.702V719.913C833.897 722.866 832.628 725.65 830.5 727.703C819.701 736.699 808.432 745.115 796.743 752.919C794.624 754.354 792.848 753.329 792.848 750.732V747.247C793.013 745.884 793.463 744.571 794.169 743.393C794.876 742.216 795.823 741.201 796.948 740.414C808.637 732.61 819.906 724.193 830.705 715.198C832.482 713.08 834.053 714.105 834.053 716.702Z" fill="#37474F"/>
<path d="M828.111 446.028L635.339 557.277L569.123 508.691L503.727 470.97L696.567 359.653L761.826 397.306L828.111 446.028Z" fill="#FFA403"/>
<path opacity="0.3" d="M828.111 446.028L635.339 557.277L569.123 508.691L503.727 470.97L696.567 359.653L761.826 397.306L828.111 446.028Z" fill="white"/>
<path d="M623.582 679.733L637.932 671.396C638.443 671.109 639.02 670.958 639.606 670.958C640.193 670.958 640.769 671.109 641.281 671.396L644.697 673.446C645.187 673.782 645.574 674.247 645.816 674.79C646.057 675.333 646.143 675.932 646.064 676.521V710.689C645.989 712.323 645.522 713.916 644.701 715.331C643.88 716.747 642.73 717.944 641.349 718.82L626.999 727.157C626.531 727.499 625.981 727.71 625.405 727.77C624.829 727.83 624.247 727.737 623.719 727.499L620.302 725.449C619.799 725.121 619.399 724.66 619.145 724.116C618.891 723.573 618.795 722.969 618.867 722.374V688.206C618.904 686.517 619.353 684.862 620.175 683.386C620.996 681.909 622.166 680.655 623.582 679.733Z" fill="#FAFAFA"/>
<path d="M618.867 687.865V722.032C618.795 722.628 618.891 723.231 619.145 723.775C619.399 724.318 619.799 724.78 620.302 725.107L623.582 727.089C623.153 726.722 622.817 726.257 622.603 725.734C622.389 725.212 622.303 724.645 622.352 724.082V689.915C622.389 688.272 622.86 686.669 623.719 685.268L620.302 683.287C619.419 684.655 618.923 686.237 618.867 687.865Z" fill="#E0E0E0"/>
<path d="M641.35 718.752L627 727.089C624.404 728.592 622.285 727.089 622.285 724.356V690.188C622.376 688.558 622.851 686.971 623.67 685.558C624.489 684.146 625.63 682.946 627 682.056L641.35 673.72C644.016 672.216 646.066 673.72 646.066 676.453V710.62C645.991 712.255 645.523 713.847 644.703 715.263C643.882 716.679 642.732 717.875 641.35 718.752Z" fill="#F5F5F5"/>
<path d="M654.196 724.492C655.598 725.402 656.763 726.632 657.595 728.082C658.426 729.532 658.901 731.159 658.979 732.829C658.979 735.972 656.861 737.202 654.196 735.63C652.785 734.724 651.609 733.496 650.766 732.046C649.922 730.597 649.435 728.968 649.344 727.293C649.344 724.15 651.531 722.92 654.196 724.492Z" fill="#37474F"/>
<path d="M637.182 740.414C636.556 740.427 635.94 740.261 635.406 739.936C634.866 739.624 634.417 739.176 634.106 738.636C633.794 738.096 633.629 737.484 633.629 736.861V702.146C633.629 701.82 633.758 701.508 633.989 701.277C634.22 701.046 634.533 700.917 634.859 700.917C635.173 700.934 635.469 701.071 635.685 701.3C635.901 701.529 636.021 701.832 636.021 702.146V737.134C636.021 737.344 636.078 737.551 636.186 737.731C636.294 737.912 636.45 738.06 636.636 738.159C636.816 738.249 637.015 738.296 637.216 738.296C637.418 738.296 637.617 738.249 637.797 738.159L653.583 729.002C653.865 728.854 654.193 728.821 654.499 728.91C654.805 728.999 655.064 729.204 655.223 729.48C655.305 729.618 655.359 729.771 655.38 729.93C655.4 730.089 655.388 730.251 655.343 730.405C655.298 730.559 655.222 730.702 655.119 730.825C655.015 730.949 654.888 731.049 654.744 731.12L639.027 740.209C638.44 740.433 637.805 740.504 637.182 740.414Z" fill="#263238"/>
<path d="M696.499 359.653L330.089 148.158C323.856 144.559 316.785 142.665 309.588 142.665C302.391 142.665 295.321 144.559 289.088 148.158L137.317 235.763C131.09 239.358 125.918 244.527 122.32 250.752C118.722 256.977 116.824 264.038 116.816 271.228V502.063C116.836 509.241 118.739 516.288 122.337 522.5C125.935 528.712 131.1 533.871 137.317 537.46L503.727 749.297V470.834L696.499 359.653Z" fill="#FFA403"/>
<path opacity="0.3" d="M696.499 359.653L330.089 148.158C323.856 144.559 316.785 142.665 309.588 142.665C302.391 142.665 295.321 144.559 289.088 148.158L137.317 235.763C131.09 239.358 125.918 244.527 122.32 250.752C118.722 256.977 116.824 264.038 116.816 271.228V502.063C116.836 509.241 118.739 516.288 122.337 522.5C125.935 528.712 131.1 533.871 137.317 537.46L503.727 749.297V470.834L696.499 359.653Z" fill="white"/>
<path d="M187.817 566.639L228.339 547.915C228.339 547.915 225.196 509.784 198.409 518.941C171.621 528.098 187.817 566.639 187.817 566.639Z" fill="#FFA403"/>
<g opacity="0.5">
<path d="M187.817 566.639L228.339 547.915C228.339 547.915 225.196 509.784 198.409 518.941C171.621 528.098 187.817 566.639 187.817 566.639Z" fill="black"/>
</g>
<path d="M210.093 561.856L201.414 544.567L221.914 532.54C225.915 530.644 230.351 529.853 234.761 530.249C239.171 530.646 243.395 532.215 246.993 534.795C267.494 546.617 284.099 577.094 284.099 603.13C284.099 616.797 279.521 626.159 272.209 630.464L250.888 642.696L241.663 624.245C232.454 616.522 224.908 607.011 219.481 596.287C214.055 585.563 210.861 573.85 210.093 561.856Z" fill="#263238"/>
<path d="M188.773 572.516C189.213 584.302 191.995 595.884 196.958 606.584C201.921 617.284 208.965 626.888 217.679 634.837C220.204 637.041 222.926 639.008 225.811 640.714C246.311 652.536 262.916 641.192 262.916 615.362C262.099 594.441 253.975 574.468 239.956 558.917C236.009 554.4 231.401 550.507 226.289 547.369C205.105 535.41 188.773 546.754 188.773 572.516Z" fill="#37474F"/>
<path d="M225.605 562.744C212.553 555.227 201.961 563.085 201.961 580.237C202.119 589.038 204.341 597.68 208.447 605.465C212.554 613.251 218.43 619.964 225.605 625.065C238.657 632.582 249.18 624.723 249.18 607.503C249.03 598.717 246.819 590.09 242.724 582.315C238.629 574.541 232.765 567.837 225.605 562.744Z" fill="#455A64"/>
<path d="M225.607 577.777C218.773 573.882 213.375 577.777 213.375 586.866C213.457 591.435 214.605 595.921 216.729 599.967C218.853 604.012 221.893 607.506 225.607 610.168C232.44 614.063 237.839 610.168 237.839 601.011C237.757 596.452 236.608 591.976 234.484 587.941C232.36 583.906 229.319 580.425 225.607 577.777Z" fill="#E0E0E0"/>
<path d="M221.712 577.641C220.86 577.142 219.939 576.774 218.978 576.547C215.63 577.436 213.375 581.194 213.375 586.866C213.586 593.616 215.984 600.115 220.208 605.385C220.683 605.743 221.186 606.063 221.712 606.341C227.725 609.826 232.577 606.341 232.577 598.278C232.506 594.228 231.486 590.251 229.599 586.667C227.712 583.083 225.011 579.991 221.712 577.641Z" fill="#F5F5F5"/>
<path d="M188.773 572.516C189.213 584.302 191.995 595.884 196.958 606.584C201.921 617.284 208.965 626.888 217.679 634.837C206.185 621.819 198.086 606.161 194.104 589.258C190.96 574.361 192.19 553.04 204.969 547.642C217.747 542.244 234.558 553.587 239.888 558.781C235.941 554.264 231.333 550.37 226.221 547.232C205.105 535.41 188.773 546.754 188.773 572.516Z" fill="#455A64"/>
<path d="M116.887 271.912V502.131C116.918 509.298 118.827 516.331 122.424 522.53C126.021 528.729 131.18 533.877 137.387 537.46L187.955 566.639V562.744C187.955 538.485 202.51 526.595 222.122 532.54C223.196 532.823 224.247 533.189 225.265 533.633C227.776 534.584 230.2 535.75 232.509 537.118C245.499 545.536 256.314 556.908 264.069 570.305C271.824 583.702 276.3 598.743 277.131 614.2C277.137 615.37 277.022 616.538 276.79 617.685L503.934 748.819V470.834L137.934 259.748C135.801 258.509 133.379 257.855 130.912 257.852C128.445 257.849 126.022 258.497 123.886 259.731C121.75 260.966 119.978 262.742 118.749 264.881C117.52 267.02 116.878 269.445 116.887 271.912Z" fill="#E0E0E0"/>
<path d="M503.727 664.426V749.024L276.583 617.89C276.815 616.743 276.93 615.575 276.924 614.405C276.093 598.948 271.617 583.907 263.862 570.51C256.107 557.113 245.292 545.742 232.302 537.323C229.992 535.955 227.569 534.789 225.058 533.838C224.04 533.394 222.989 533.028 221.915 532.745C202.371 526.8 187.748 538.69 187.748 562.949V566.639L137.18 537.46C130.973 533.877 125.814 528.729 122.217 522.53C118.62 516.331 116.711 509.298 116.68 502.131V441.04L503.727 664.426Z" fill="#FFA403"/>
<path opacity="0.2" d="M503.727 664.426V749.024L276.583 617.89C276.815 616.743 276.93 615.575 276.924 614.405C276.093 598.948 271.617 583.907 263.862 570.51C256.107 557.113 245.292 545.742 232.302 537.323C229.992 535.955 227.569 534.789 225.058 533.838C224.04 533.394 222.989 533.028 221.915 532.745C202.371 526.8 187.748 538.69 187.748 562.949V566.639L137.18 537.46C130.973 533.877 125.814 528.729 122.217 522.53C118.62 516.331 116.711 509.298 116.68 502.131V441.04L503.727 664.426Z" fill="black"/>
<path d="M564.683 321.455L419.609 237.676L380.043 260.5V263.37L525.117 347.148L564.683 324.256V321.455Z" fill="#FFA403"/>
<path d="M380.043 260.5L525.117 344.278L564.683 321.455L419.609 237.676L380.043 260.5Z" fill="#FFA403"/>
<path opacity="0.4" d="M380.043 260.5L525.117 344.278L564.683 321.454L419.609 238.701L380.043 260.5Z" fill="white"/>
<path opacity="0.15" d="M380.043 260.5L525.117 344.278V347.148L380.043 263.37V260.5Z" fill="black"/>
<path d="M525.117 344.278L564.683 321.455V324.256L525.117 347.148V344.278Z" fill="#FFA403"/>
<path d="M525.117 344.347L380.042 260.568L340.477 283.392V290.977L485.551 370.04L525.117 347.148V344.347Z" fill="#EBEBEB"/>
<path d="M340.477 283.392L485.551 367.17L525.117 344.347L380.042 260.568L340.477 283.392Z" fill="#FFA403"/>
<path opacity="0.6" d="M340.477 283.392L485.551 367.17L525.117 344.347L380.042 260.568L340.477 283.392Z" fill="white"/>
<path d="M485.551 367.17L525.117 344.346V347.148L485.551 370.04V367.17Z" fill="#FFA403"/>
<path opacity="0.3" d="M485.551 367.17L525.117 344.346V347.148L485.551 370.04V367.17Z" fill="white"/>
<path d="M485.55 367.102L340.408 283.324L300.91 306.216V309.018L445.985 392.796L485.55 369.972V367.102Z" fill="#FFA403"/>
<path d="M300.91 306.216L445.985 389.994L485.55 367.102L340.408 283.324L300.91 306.216Z" fill="#FFA403"/>
<path opacity="0.4" d="M302.891 306.216L445.983 389.994L485.549 367.102L340.406 283.324L302.891 306.216Z" fill="white"/>
<path opacity="0.15" d="M300.91 306.216L445.985 389.994V392.796L300.91 309.017V306.216Z" fill="white"/>
<path d="M445.984 389.994L485.55 367.102V369.972L445.984 392.796V389.994Z" fill="#FFA403"/>
<path d="M482.61 357.74L508.372 342.843C509.944 341.955 510.764 340.93 510.217 340.657C508.858 340.501 507.49 340.867 506.39 341.682L480.56 356.579C478.988 357.467 478.168 358.424 478.783 358.765C479.398 359.107 481.311 358.492 482.61 357.74Z" fill="#455A64"/>
<path d="M471.61 350.906L497.372 336.078C498.944 335.121 499.764 334.165 499.217 333.823C497.854 333.737 496.502 334.123 495.39 334.916L469.56 349.813C467.988 350.701 467.168 351.658 467.783 352C469.145 352.075 470.493 351.69 471.61 350.906Z" fill="#455A64"/>
<path d="M460.333 344.551L486.095 329.654C487.666 328.766 488.486 327.809 487.94 327.468C486.58 327.312 485.213 327.678 484.113 328.493L458.283 343.39C456.711 344.278 455.891 345.303 456.506 345.576C457.121 345.85 458.761 345.44 460.333 344.551Z" fill="#455A64"/>
<path d="M449.059 338.06L474.821 323.163C476.393 322.274 477.213 321.249 476.666 320.976C476.12 320.703 474.343 320.976 472.84 322.001L447.009 337.24C445.437 338.128 444.617 339.085 445.232 339.426C445.847 339.768 447.487 338.948 449.059 338.06Z" fill="#455A64"/>
<path d="M437.786 331.499L463.548 316.671C465.119 315.714 465.939 314.757 465.393 314.416C464.03 314.335 462.681 314.721 461.566 315.509L435.736 330.406C434.164 331.294 433.344 332.251 433.959 332.593C435.325 332.703 436.684 332.314 437.786 331.499Z" fill="#455A64"/>
<path d="M426.508 325.008L452.27 310.111C453.842 309.222 454.662 308.266 454.115 307.924C453.569 307.582 451.792 307.924 450.289 308.949L424.458 323.573C422.887 324.461 422.067 325.486 422.682 325.759C423.297 326.033 424.937 325.896 426.508 325.008Z" fill="#455A64"/>
<path d="M415.235 318.516L440.997 303.619C442.569 302.731 443.389 301.706 442.842 301.433C442.295 301.159 440.519 301.433 439.015 302.458L413.185 317.354C411.613 318.243 410.793 319.268 411.408 319.541C412.023 319.815 413.663 319.405 415.235 318.516Z" fill="#455A64"/>
<path d="M403.957 312.024L429.72 297.127C431.291 296.239 432.111 295.214 431.565 294.94C431.018 294.667 429.241 294.94 427.738 295.965L401.907 310.862C400.336 311.751 399.516 312.707 400.131 313.049C401.486 313.155 402.837 312.793 403.957 312.024Z" fill="#455A64"/>
<path d="M392.684 305.464L418.446 290.567C420.018 289.679 420.838 288.722 420.291 288.38C418.925 288.264 417.563 288.653 416.465 289.474L390.634 304.302C389.062 305.259 388.242 306.216 388.857 306.557C390.219 306.632 391.567 306.247 392.684 305.464Z" fill="#455A64"/>
<path d="M381.407 298.972L407.237 284.075C408.741 283.187 409.561 282.23 409.014 281.888C408.467 281.547 406.691 281.888 405.187 282.913L379.357 297.81C377.785 298.699 376.965 299.724 377.58 299.997C378.195 300.27 380.108 299.86 381.407 298.972Z" fill="#455A64"/>
<path d="M370.133 292.481L395.964 277.584C397.467 276.695 398.287 275.67 397.74 275.397C397.194 275.124 395.417 275.397 393.914 276.422L368.083 291.319C366.512 292.207 365.692 293.164 366.307 293.506C366.922 293.847 368.562 293.369 370.133 292.481Z" fill="#455A64"/>
<path d="M358.856 285.92L384.686 271.023C386.19 270.135 387.01 269.178 386.463 268.837C385.097 268.72 383.735 269.109 382.636 269.93L356.806 284.759C355.234 285.715 354.414 286.672 355.029 287.013C356.391 287.088 357.739 286.703 358.856 285.92Z" fill="#455A64"/>
<path d="M493.27 618.232V492.974C493.216 491.809 492.883 490.674 492.301 489.664C491.718 488.653 490.903 487.797 489.922 487.166L331.044 395.392C329.199 394.299 327.695 395.392 327.695 397.306V522.631C327.766 523.793 328.105 524.922 328.686 525.93C329.267 526.938 330.074 527.797 331.044 528.44L489.922 620.145C491.767 621.238 493.27 620.35 493.27 618.232Z" fill="#37474F"/>
<path d="M485.549 493.521L335.418 406.873V522.016L485.549 608.665V493.521Z" fill="#455A64"/>
<path d="M414.347 443.5L406.625 438.99V572.037L414.347 576.547V443.5Z" fill="#37474F"/>
<path d="M493.27 527.142V536.23L327.695 440.63V431.542L493.27 527.142Z" fill="#37474F"/>
<path d="M309.932 512.381V387.124C309.878 385.959 309.545 384.824 308.963 383.813C308.38 382.803 307.565 381.947 306.584 381.316L147.774 289.406C145.929 288.312 144.426 289.406 144.426 291.319V416.645C144.496 417.806 144.835 418.935 145.417 419.943C145.998 420.951 146.805 421.81 147.774 422.453L306.652 514.158C308.429 515.32 309.932 514.5 309.932 512.381Z" fill="#37474F"/>
<path d="M302.141 387.671L152.078 301.022V416.166L302.141 502.815V387.671Z" fill="#455A64"/>
<path d="M231.003 337.65L223.281 333.14V466.187L231.003 470.697V337.65Z" fill="#37474F"/>
<path d="M309.93 421.291V430.38L144.355 334.779V325.691L309.93 421.291Z" fill="#37474F"/>
<path d="M179.137 527.962V534.795C179.137 536.23 178.112 536.777 176.882 536.094L149.958 520.513C149.305 520.101 148.759 519.539 148.367 518.873C147.975 518.208 147.747 517.458 147.703 516.687V509.853C147.703 508.418 148.728 507.871 149.958 508.555L176.882 524.135C177.528 524.555 178.068 525.12 178.459 525.784C178.85 526.447 179.082 527.193 179.137 527.962Z" fill="white"/>
<g opacity="0.2">
<path d="M356.671 651.989L294.692 616.25C294.643 616.143 294.617 616.026 294.617 615.908C294.617 615.791 294.643 615.674 294.692 615.567V572.653C294.648 572.556 294.626 572.451 294.626 572.345C294.626 572.239 294.648 572.134 294.692 572.038C294.806 571.972 294.936 571.937 295.068 571.937C295.2 571.937 295.329 571.972 295.443 572.038L357.423 607.777C357.472 607.884 357.497 608 357.497 608.118C357.497 608.236 357.472 608.353 357.423 608.46V651.579C357.466 651.676 357.489 651.781 357.489 651.887C357.489 651.993 357.466 652.097 357.423 652.194H357.013L356.671 651.989ZM295.853 574.019V615.02L356.261 649.871V608.87L295.853 574.019Z" fill="black"/>
</g>
<path opacity="0.3" d="M327.013 598.073L325.441 596.911V625.817L327.286 626.91L327.013 598.073ZM337.605 604.223L335.76 603.13V632.035L337.605 633.128V604.223ZM348.265 610.373L346.352 609.28V637.912L348.197 639.005L348.265 610.373ZM342.935 607.298L341.09 606.205V635.11L342.935 636.204V607.298ZM332.343 601.148L330.43 600.054V628.96L332.275 630.053L332.343 601.148ZM303.848 584.748V613.653L305.693 614.746V585.841L303.848 584.748ZM310.681 588.916L308.836 587.823V616.66L310.681 617.821V588.916ZM321.341 594.998L319.428 593.973V622.81L321.273 623.972L321.341 594.998ZM316.011 591.991L314.098 590.898V619.735L315.943 620.897L316.011 591.991Z" fill="black"/>
</svg>
