<svg width="1000" height="1000" viewBox="0 0 1000 1000" fill="none" xmlns="http://www.w3.org/2000/svg">
<path opacity="0.2" d="M261.631 805.856C261.631 805.856 231.429 754.976 252.368 733.622C273.307 712.268 274.637 689.989 261.631 614.748C248.624 539.508 234.434 452.087 272.716 431.812C310.998 411.537 300.602 400.976 325.285 328.048C349.969 255.12 387.659 324.039 417.565 283.335C447.471 242.631 443.53 153.052 491.468 141.951C539.407 130.85 549.359 220.352 584.734 232.533C620.108 244.713 653.71 191.829 677.26 234.537C700.81 277.245 685.734 389.104 709.432 423.64C733.13 458.177 753.774 466.349 751.36 539.276C748.946 612.204 736.185 642.963 751.36 716.199C766.535 789.436 726.726 825.283 726.726 825.283L261.631 805.856Z" fill="#FFB127"/>
<path d="M478.413 197.302C552.316 289.811 525.218 448.232 525.218 448.232C525.218 448.232 559.411 441.833 555.962 365.668C552.513 289.502 577.837 275.78 577.837 275.78C577.837 275.78 558.13 300.835 577.837 343.466C597.545 386.097 636.959 435.975 615.232 502.427C615.232 502.427 646.074 492.097 649.966 442.373C653.859 392.65 640.113 362.739 640.113 362.739C640.113 362.739 712.242 459.179 675.192 592.237C675.192 592.237 712.882 576.819 716.134 522.393C716.134 522.393 759.244 626.697 700.516 717.51C631.54 823.972 491.026 808.785 491.026 808.785C491.026 808.785 362.928 829.831 297.056 731.694C266.509 686.288 256.803 559.859 286.66 493.33C286.66 493.33 263.947 605.343 334.106 641.961C334.106 641.961 308.437 595.706 323.07 503.737C334.106 434.356 378.004 380.392 351.645 343.235C351.645 343.235 381.551 343.235 378.94 404.907C376.969 452.087 392.587 474.289 392.587 474.289C392.587 474.289 376.969 437.902 402.441 404.907C427.913 371.912 472.6 332.75 460.874 271C467.971 282.467 473.164 296.481 475.998 311.815C478.833 327.149 479.222 343.337 477.132 358.961C483.944 345.896 489.043 330.857 492.137 314.706C495.231 298.555 496.26 281.607 495.165 264.833C492.248 240.918 486.572 218.033 478.413 197.302Z" fill="#FFB127"/>
<path opacity="0.2" d="M507.679 358.344C516.299 408.853 516.299 462.017 507.679 512.526C507.679 512.526 577.641 482.306 575.867 408.299C575.867 408.299 595.574 448.232 582.371 491.403C586.716 483.921 589.933 475.008 591.784 465.321C593.634 455.635 594.071 445.421 593.062 435.435C593.062 435.435 617.45 483.694 589.514 541.358C589.514 541.358 649.277 549.067 657.751 491.403C657.751 491.403 674.65 590.156 627.205 638.877C627.205 638.877 685.046 631.168 705.197 592.623C707.087 619.688 702.946 646.943 693.475 669.783C684.005 692.622 669.784 709.644 653.219 717.972C653.219 717.972 689.727 707.951 705.591 672.489C705.591 672.489 666.915 801.076 491.125 801.076C315.335 801.076 293.164 679.89 293.164 679.89C293.164 679.89 318.488 736.397 362.14 739.712C362.14 739.712 315.335 725.296 298.485 654.373C298.485 654.373 332.973 700.627 379.039 683.204C379.039 683.204 348.493 666.553 344.551 596.709C340.61 526.865 366.623 463.65 366.623 463.65C366.623 463.65 359.48 520.158 392.637 543.439C392.637 543.439 378.349 517.999 379.63 490.247C383.465 500.655 389.283 508.927 396.271 513.903C403.26 518.88 411.067 520.312 418.602 517.999C418.602 517.999 404.314 501.348 408.748 455.864C413.182 410.381 458.017 417.319 465.949 370.525C465.949 370.525 471.122 403.751 460.086 430.347C460.086 430.347 499.501 372.76 499.944 308.39C505.974 352.019 502.829 397.53 490.977 438.133C501.742 414.926 507.583 387.02 507.679 358.344Z" fill="#FAFAFA"/>
<path opacity="0.2" d="M513.491 779.645C540.624 786.021 568.355 779.438 593.059 760.757H576.554C576.554 760.757 612.915 744.183 608.382 696.464C603.849 648.745 593.059 634.406 593.059 634.406C593.059 634.406 599.908 679.889 573.943 692.07C577.041 685.232 579.066 677.348 579.854 669.058C580.641 660.767 580.169 652.303 578.476 644.351C573.303 614.439 554.876 606.653 555.96 571.191C555.96 571.191 542.756 594.319 546.106 615.518C542.539 612.864 539.468 608.817 537.19 603.767C534.912 598.718 533.503 592.835 533.099 586.687C531.818 565.641 546.747 541.28 546.747 541.28C546.747 541.28 502.405 527.944 496.739 611.124C496.739 611.124 472.105 550.994 487.625 503.968C487.625 503.968 473.337 526.402 472.006 550.994C469.76 541.877 469.297 531.922 470.676 522.393C470.676 522.393 421.408 555.156 447.323 642.963C447.323 642.963 427.221 613.36 426.532 596.708C426.532 596.708 395.345 697.62 452.545 720.902C452.545 720.902 424.61 733.082 407.711 708.644C411.628 727.001 419.125 742.974 429.147 754.314C439.17 765.654 451.213 771.79 463.581 771.858C463.581 771.858 436.287 777.409 425.251 769.7C425.152 769.7 468.016 807.397 513.491 779.645Z" fill="#FAFAFA"/>
<rect x="194" y="700.449" width="611.686" height="158.123" fill="#363A5A"/>
<line x1="237.652" y1="778.51" x2="751.632" y2="778.51" stroke="#E9E9E9" stroke-width="2" stroke-linecap="round"/>
<line x1="299.109" y1="778.51" x2="299.109" y2="717.053" stroke="#E9E9E9" stroke-width="2" stroke-linecap="round"/>
<line x1="407.301" y1="841.447" x2="407.301" y2="779.99" stroke="#E9E9E9" stroke-width="2" stroke-linecap="round"/>
<line x1="541.496" y1="778.51" x2="541.496" y2="717.053" stroke="#E9E9E9" stroke-width="2" stroke-linecap="round"/>
<line x1="682.973" y1="841.447" x2="682.973" y2="779.99" stroke="#E9E9E9" stroke-width="2" stroke-linecap="round"/>
</svg>
