<svg width="1000" height="1000" viewBox="0 0 1000 1000" fill="none" xmlns="http://www.w3.org/2000/svg">
<path d="M455 188.5C479.9 179.9 507.2 179.9 532.1 188.6C520.8 174.9 507.7 163.4 493.5 154C479.3 163.4 466.2 174.9 455 188.5Z" fill="#601B23"/>
<path d="M455 188.5C479.9 179.9 507.2 179.9 532.1 188.6C520.8 174.9 507.7 163.4 493.5 154C479.3 163.4 466.2 174.9 455 188.5Z" stroke="#601B23" stroke-width="6" stroke-miterlimit="10" stroke-linecap="round" stroke-linejoin="round"/>
<path d="M535.4 576.9C535.4 595.5 531.5 613.3 524.3 631.4C524.1 632 523.8 632.6 523.5 633.3C516.3 650.5 506 667.7 493.5 677.8C480.6 667.4 470.1 649.5 462.8 631.8C462.7 631.7 462.7 631.6 462.6 631.4C455.4 613.3 451.5 595.5 451.5 576.9C451.5 571.2 451.9 565.6 452.6 559.8C455 540.4 468.2 517 484.7 514.5C484.9 514.5 485.1 514.4 485.3 514.4C490.5 513.8 495.8 513.8 501 514.3C501.2 514.3 501.5 514.3 501.7 514.4C518.5 516.5 532 540.2 534.4 559.8C535 565.6 535.4 571.2 535.4 576.9Z" fill="#F4A045"/>
<path d="M535.4 576.9C535.4 595.5 531.5 613.3 524.3 631.4C524.1 632 523.8 632.6 523.5 633.3C516.3 650.5 506 667.7 493.5 677.8C480.6 667.4 470.1 649.5 462.8 631.8C462.7 631.7 462.7 631.6 462.6 631.4C455.4 613.3 451.5 595.5 451.5 576.9C451.5 571.2 451.9 565.6 452.6 559.8C455 540.4 468.2 517 484.7 514.5C484.9 514.5 485.1 514.4 485.3 514.4C490.5 513.8 495.8 513.8 501 514.3C501.2 514.3 501.5 514.3 501.7 514.4C518.5 516.5 532 540.2 534.4 559.8C535 565.6 535.4 571.2 535.4 576.9Z" stroke="#601B23" stroke-width="6" stroke-miterlimit="10" stroke-linecap="round" stroke-linejoin="round"/>
<path d="M972.164 780.588C965.781 766.882 968.699 719.75 940.177 705.346C927.288 698.838 916.518 699.013 903.742 699.013C865.888 699.013 832.576 718.485 813.271 747.883C803.24 743.157 792.073 740.604 780.243 740.604C775.038 740.604 770.023 741.077 765.196 742.117C765.196 741.644 765.196 741.172 765.196 740.604C765.196 716.5 748.162 696.367 725.544 691.546C716.838 661.77 689.393 639.935 656.744 639.935C629.584 639.935 605.925 655.059 593.812 677.272C585.389 669.427 574.127 664.512 561.73 664.512C554.633 664.512 547.913 666.118 541.857 668.86C534.475 657.422 527.945 645.417 522.362 632.751C508.545 601.558 500.88 566.772 500.88 530.286C500.88 526.977 500.974 523.763 501.069 520.455C502.678 478.202 514.507 438.596 534.286 404H452.426C472.205 438.596 484.035 478.297 485.643 520.55C485.738 523.763 485.833 526.977 485.833 530.191C485.833 566.111 478.357 600.423 464.918 631.428C456.117 651.656 444.856 670.561 431.323 687.67C419.872 673.491 402.364 664.512 382.775 664.512C363.091 664.512 345.583 673.586 334.132 687.765C324.953 682.377 314.354 679.257 302.903 679.257C284.543 679.257 267.982 687.387 256.721 700.148C240.065 675.476 211.864 659.218 179.877 659.218C128.774 659.218 87.3237 700.62 87.3237 751.664C87.3237 751.947 87.3237 752.231 87.3237 752.515C52.6872 770.096 28.3659 805.071 26 846H249.339H707.279H972.164C972.164 846 978.546 794.295 972.164 780.588Z" fill="#EEEEEE"/>
<path d="M488.9 514.2C479.5 515.4 472 528.6 470.6 539.5C470.2 542.7 470 545.8 470 549C470 559.4 472.2 569.3 476.2 579.4C480.2 589.3 486.2 599.4 493.4 605.2C500.7 599.4 506.6 589.3 510.6 579.4C514.6 569.3 516.8 559.4 516.8 549C516.8 545.8 516.6 542.7 516.2 539.5C514.8 528.5 507.3 515.4 497.9 514.2C495 513.9 491.9 513.9 488.9 514.2Z" fill="#E36535"/>
<path d="M488.9 514.2C479.5 515.4 472 528.6 470.6 539.5C470.2 542.7 470 545.8 470 549C470 559.4 472.2 569.3 476.2 579.4C480.2 589.3 486.2 599.4 493.4 605.2C500.7 599.4 506.6 589.3 510.6 579.4C514.6 569.3 516.8 559.4 516.8 549C516.8 545.8 516.6 542.7 516.2 539.5C514.8 528.5 507.3 515.4 497.9 514.2C495 513.9 491.9 513.9 488.9 514.2Z" stroke="#601B23" stroke-width="6" stroke-miterlimit="10" stroke-linecap="round" stroke-linejoin="round"/>
<path d="M372.795 361.5L340.195 374.2V312.3L440.295 234.2V351.3L416.095 364C403.195 357.2 387.495 355.8 372.795 361.5Z" fill="#F9C59B"/>
<path d="M329.6 390.4C319.4 375.6 313.5 358.1 313.5 339.4C313.5 315.7 322.8 294 338.3 277.3C353.8 294 363.2 315.7 363.3 339.4C363.3 358.2 357.4 375.6 347.3 390.4H329.6Z" fill="#F4A15D"/>
<path opacity="0.72" d="M340.195 374.2L372.595 361.6C372.995 353 372.395 344.2 370.795 335.4C368.395 322.2 363.895 309.8 357.695 298.6L340.195 312.3V374.2Z" fill="#F48551"/>
<path opacity="0.23" d="M344.395 329.6L440.395 254.8V234.2L340.195 312.2V374.2L344.395 372.6V329.6Z" fill="#F4A15D"/>
<path opacity="0.72" d="M400.5 358.7C406 359.6 411.2 361.4 416.1 364L440.3 351.3V234.2L398.1 267.1C396 279.8 395 293.1 395 306.8C395.1 324.9 397 342.4 400.5 358.7Z" fill="#F48551"/>
<path d="M372.795 361.5L340.195 374.2V312.3L440.295 234.2V351.3L416.095 364C403.195 357.2 387.495 355.8 372.795 361.5Z" stroke="#601B23" stroke-width="6" stroke-miterlimit="10" stroke-linecap="round" stroke-linejoin="round"/>
<path d="M329.6 390.4C319.4 375.6 313.5 358.1 313.5 339.4C313.5 315.7 322.8 294 338.3 277.3C353.8 294 363.2 315.7 363.3 339.4C363.3 358.2 357.4 375.6 347.3 390.4H329.6Z" fill="#F4A15D"/>
<path opacity="0.23" d="M336.797 277.3C337.997 278.6 339.197 280 340.297 281.4C329.897 297.4 323.897 316.2 323.797 336.2C323.797 356 326.797 374.5 336.997 390.5H327.797C317.697 375.7 311.797 358.2 311.797 339.5C311.897 315.7 321.297 294 336.797 277.3Z" fill="#F4A15D"/>
<path opacity="0.32" d="M336.797 277.3C337.197 277.7 337.597 278.2 337.997 278.7C326.297 296 319.597 316.3 319.497 338.1C319.497 357 324.597 374.8 333.497 390.5H327.797C317.697 375.7 311.797 358.2 311.797 339.5C311.897 315.7 321.297 294 336.797 277.3Z" fill="#F4A15D"/>
<path opacity="0.37" d="M363.297 339.4C363.297 315.7 353.897 294.1 338.297 277.3C337.097 278.6 335.897 280 334.797 281.4C345.197 297.4 351.197 316.2 351.297 336.2C351.297 356 345.497 374.5 335.297 390.5H347.297C357.397 375.6 363.297 358.1 363.297 339.4Z" fill="#F48551"/>
<path opacity="0.72" d="M363.294 339.4C363.294 315.7 353.894 294.1 338.294 277.3C337.894 277.7 337.494 278.2 337.094 278.7C348.794 296 355.494 316.3 355.594 338.1C355.594 357 350.494 374.8 341.594 390.5H347.294C357.394 375.6 363.294 358.1 363.294 339.4Z" fill="#F48551"/>
<path opacity="0.37" d="M338.297 277.3C337.097 278.6 335.897 280 334.797 281.4C345.197 297.4 351.197 316.2 351.297 336.2C351.297 356 345.497 374.5 335.297 390.5H347.297C357.397 375.7 363.297 358.2 363.297 339.5C363.197 315.7 353.797 294 338.297 277.3Z" fill="#F48551"/>
<path opacity="0.72" d="M338.294 277.3C337.894 277.7 337.494 278.2 337.094 278.7C348.794 296 355.494 316.3 355.594 338.1C355.594 357 350.494 374.8 341.594 390.5H347.294C357.394 375.7 363.294 358.2 363.294 339.5C363.194 315.7 353.794 294 338.294 277.3Z" fill="#F48551"/>
<path d="M349.697 295.3C345.997 288.8 341.597 282.8 336.497 277.2C331.397 282.7 326.997 288.8 323.297 295.3H349.697Z" fill="#601B23"/>
<path d="M329.6 390.4C319.4 375.6 313.5 358.1 313.5 339.4C313.5 315.7 322.8 294 338.3 277.3C353.8 294 363.2 315.7 363.3 339.4C363.3 358.2 357.4 375.6 347.3 390.4H329.6Z" stroke="#601B23" stroke-width="6" stroke-miterlimit="10" stroke-linecap="round" stroke-linejoin="round"/>
<path d="M459.499 467.6C459.499 467.6 447.399 470.2 429.999 487.6C423.699 493.9 413.799 506.7 406.499 516.4C403.499 520.4 397.099 518.4 396.999 513.4L394.599 406.9C394.099 403.9 394.899 400.8 396.799 398.5L422.999 365.9L459.499 467.6Z" fill="#F4A15D"/>
<path opacity="0.32" d="M396.799 515.5C402.499 514.7 406.799 509.8 406.899 504L407.999 405C407.499 402 408.299 398.9 410.199 396.6L426.599 376.1L422.899 365.9L396.799 398.4C394.899 400.8 394.099 403.8 394.599 406.8L396.799 515.5Z" fill="#F4A15D"/>
<path opacity="0.72" d="M459.5 467.6L423 365.9L408.5 384C416.3 414 428.6 444.5 445.2 474.9C454 468.8 459.5 467.6 459.5 467.6Z" fill="#F48551"/>
<path d="M459.499 467.6C459.499 467.6 447.399 470.2 429.999 487.6C423.699 493.9 413.799 506.7 406.499 516.4C403.499 520.4 397.099 518.4 396.999 513.4L394.599 406.9C394.099 403.9 394.899 400.8 396.799 398.5L422.999 365.9L459.499 467.6Z" stroke="#601B23" stroke-width="6" stroke-miterlimit="10" stroke-linecap="round" stroke-linejoin="round"/>
<path d="M320.094 377.2H352.994" stroke="#601B23" stroke-width="4" stroke-miterlimit="10" stroke-linecap="round" stroke-linejoin="round"/>
<path d="M329.6 390.4C319.4 375.6 313.5 358.1 313.5 339.4C313.5 315.7 322.8 294 338.3 277.3C353.8 294 363.2 315.7 363.3 339.4C363.3 358.2 357.4 375.6 347.3 390.4H329.6Z" fill="#F4A15D"/>
<path d="M329.6 390.4C319.4 375.6 313.5 358.1 313.5 339.4C313.5 315.7 322.8 294 338.3 277.3C353.8 294 363.2 315.7 363.3 339.4C363.3 358.2 357.4 375.6 347.3 390.4H329.6Z" fill="#F4A15D"/>
<path opacity="0.23" d="M336.797 277.3C337.997 278.6 339.197 280 340.297 281.4C329.897 297.4 323.897 316.2 323.797 336.2C323.797 356 326.797 374.5 336.997 390.5H327.797C317.697 375.7 311.797 358.2 311.797 339.5C311.897 315.7 321.297 294 336.797 277.3Z" fill="#F4A15D"/>
<path opacity="0.32" d="M336.797 277.3C337.197 277.7 337.597 278.2 337.997 278.7C326.297 296 319.597 316.3 319.497 338.1C319.497 357 324.597 374.8 333.497 390.5H327.797C317.697 375.7 311.797 358.2 311.797 339.5C311.897 315.7 321.297 294 336.797 277.3Z" fill="#F4A15D"/>
<path opacity="0.37" d="M363.297 339.4C363.297 315.7 353.897 294.1 338.297 277.3C337.097 278.6 335.897 280 334.797 281.4C345.197 297.4 351.197 316.2 351.297 336.2C351.297 356 345.497 374.5 335.297 390.5H347.297C357.397 375.6 363.297 358.1 363.297 339.4Z" fill="#F48551"/>
<path opacity="0.72" d="M363.294 339.4C363.294 315.7 353.894 294.1 338.294 277.3C337.894 277.7 337.494 278.2 337.094 278.7C348.794 296 355.494 316.3 355.594 338.1C355.594 357 350.494 374.8 341.594 390.5H347.294C357.394 375.6 363.294 358.1 363.294 339.4Z" fill="#F48551"/>
<path opacity="0.37" d="M338.297 277.3C337.097 278.6 335.897 280 334.797 281.4C345.197 297.4 351.197 316.2 351.297 336.2C351.297 356 345.497 374.5 335.297 390.5H347.297C357.397 375.7 363.297 358.2 363.297 339.5C363.197 315.7 353.797 294 338.297 277.3Z" fill="#F48551"/>
<path opacity="0.72" d="M338.294 277.3C337.894 277.7 337.494 278.2 337.094 278.7C348.794 296 355.494 316.3 355.594 338.1C355.594 357 350.494 374.8 341.594 390.5H347.294C357.394 375.7 363.294 358.2 363.294 339.5C363.194 315.7 353.794 294 338.294 277.3Z" fill="#F48551"/>
<path d="M351.494 295.3C347.794 288.8 343.394 282.8 338.294 277.2C333.194 282.7 328.794 288.8 325.094 295.3H351.494Z" fill="#601B23"/>
<path d="M329.6 390.4C319.4 375.6 313.5 358.1 313.5 339.4C313.5 315.7 322.8 294 338.3 277.3C353.8 294 363.2 315.7 363.3 339.4C363.3 358.2 357.4 375.6 347.3 390.4H329.6Z" stroke="#601B23" stroke-width="6" stroke-miterlimit="10" stroke-linecap="round" stroke-linejoin="round"/>
<path d="M320.094 377.2H352.994" stroke="#601B23" stroke-width="4" stroke-miterlimit="10" stroke-linecap="round" stroke-linejoin="round"/>
<path d="M608.297 361.5L640.897 374.2V312.3L540.797 234.2V351.3L564.997 364C577.897 357.2 593.597 355.8 608.297 361.5Z" fill="#F9C59B"/>
<path opacity="0.72" d="M640.895 374.2L608.495 361.6C608.095 353 608.695 344.2 610.295 335.4C612.695 322.2 617.195 309.8 623.395 298.6L640.895 312.3V374.2Z" fill="#F48551"/>
<path opacity="0.23" d="M636.797 329.6L540.797 254.8V234.2L640.897 312.2V374.2L636.797 372.6V329.6Z" fill="#F4A15D"/>
<path opacity="0.72" d="M580.597 358.7C575.097 359.6 569.897 361.4 564.997 364L540.797 351.3V234.2L582.997 267.1C585.097 279.8 586.097 293.1 586.097 306.8C586.097 324.9 584.197 342.4 580.597 358.7Z" fill="#F48551"/>
<path d="M608.297 361.5L640.897 374.2V312.3L540.797 234.2V351.3L564.997 364C577.897 357.2 593.597 355.8 608.297 361.5Z" stroke="#601B23" stroke-width="6" stroke-miterlimit="10" stroke-linecap="round" stroke-linejoin="round"/>
<path d="M521.695 467.6C521.695 467.6 533.795 470.2 551.195 487.6C557.495 493.9 567.395 506.7 574.695 516.4C577.695 520.4 584.095 518.4 584.195 513.4L586.595 406.9C587.095 403.9 586.295 400.8 584.395 398.5L558.195 365.9L521.695 467.6Z" fill="#F4A15D"/>
<path opacity="0.72" d="M584.3 515.5C578.6 514.7 574.3 509.8 574.2 504L573.1 405C573.6 402 572.8 398.9 570.9 396.6L554.5 376.1L558.2 365.9L584.4 398.5C586.3 400.9 587.1 403.9 586.6 406.9L584.3 515.5Z" fill="#F48551"/>
<path opacity="0.72" d="M521.695 467.6L558.195 365.9L572.695 384C564.895 414 552.595 444.5 535.995 474.9C527.195 468.8 521.695 467.6 521.695 467.6Z" fill="#F48551"/>
<path d="M521.695 467.6C521.695 467.6 533.795 470.2 551.195 487.6C557.495 493.9 567.395 506.7 574.695 516.4C577.695 520.4 584.095 518.4 584.195 513.4L586.595 406.9C587.095 403.9 586.295 400.8 584.395 398.5L558.195 365.9L521.695 467.6Z" stroke="#601B23" stroke-width="6" stroke-miterlimit="10" stroke-linecap="round" stroke-linejoin="round"/>
<path d="M521.198 524.8C522.298 512.9 520.698 501.7 500.698 472.2C497.398 467.5 489.498 467.5 486.198 472.2C466.198 501.8 464.598 513 465.698 524.8C465.898 526.3 468.598 528 470.298 527.4C481.798 521.5 505.098 521.5 516.598 527.4C518.298 528 520.998 526.4 521.198 524.8Z" fill="#4E8280"/>
<g opacity="0.32">
<g opacity="0.32">
<g opacity="0.32">
<path opacity="0.32" d="M475.798 524.8C474.698 512.9 476.298 501.7 496.298 472.2C496.898 471.3 497.698 470.6 498.498 470.1C494.698 467.6 488.898 468.3 486.198 472.2C466.198 501.8 464.598 513 465.698 524.8C465.898 526.3 468.598 528 470.298 527.4C471.998 526.6 473.898 525.8 475.898 525.2C475.898 525.1 475.798 525 475.798 524.8Z" fill="#F4A15D"/>
</g>
<g opacity="0.32">
<path opacity="0.32" d="M498.496 523.2C505.396 523.7 511.896 525.1 516.596 527.4C518.096 528 520.496 526.6 521.096 525.2C514.496 523.3 506.296 522.6 498.496 523.2Z" fill="#F4A15D"/>
</g>
</g>
</g>
<path d="M489.697 472.2C489.397 471.8 489.097 471.5 488.797 471.2C492.497 467.5 499.397 467.9 502.397 472.2C522.397 501.8 523.997 513 522.897 524.8C522.697 526.3 519.997 528 518.297 527.4C515.997 526.2 513.197 525.3 510.197 524.6C511.297 512.8 509.597 501.6 489.697 472.2Z" fill="#37605D"/>
<path d="M521.198 524.8C522.298 512.9 520.698 501.7 500.698 472.2C497.398 467.5 489.498 467.5 486.198 472.2C466.198 501.8 464.598 513 465.698 524.8C465.898 526.3 468.598 528 470.298 527.4C481.798 521.5 505.098 521.5 516.598 527.4C518.298 528 520.998 526.4 521.198 524.8Z" stroke="#601B23" stroke-width="6" stroke-miterlimit="10" stroke-linecap="round" stroke-linejoin="round"/>
<path d="M515.997 488.9C563.097 411.8 580.197 336.1 569.597 273C560.397 218.2 530.797 178.7 493.397 154C455.997 178.7 426.397 218.2 417.197 273C406.597 336.1 423.797 411.8 470.797 488.9H515.997Z" fill="#F4A15D"/>
<path opacity="0.23" d="M452.997 274.101C458.997 224.501 474.597 185.101 495.597 155.601C494.897 155.101 494.097 154.601 493.397 154.101C455.997 178.801 426.397 218.301 417.197 273.101C406.597 336.201 423.797 411.901 470.797 489.001H480.297C454.197 411.901 445.397 337.801 452.997 274.101Z" fill="#F4A15D"/>
<path opacity="0.37" d="M569.595 273.001C560.495 218.601 531.295 179.301 494.195 154.601C501.095 165.701 509.895 181.701 517.295 202.001C530.795 238.901 532.295 269.301 533.095 288.401C536.695 374.301 503.795 469.301 496.895 489.001H515.995C563.095 411.801 580.195 336.101 569.595 273.001Z" fill="#F48551"/>
<path opacity="0.72" d="M569.6 273C560.4 218.2 530.8 178.7 493.4 154C492.4 154.6 491.5 155.3 490.5 155.9C504.7 167 515.5 178.9 523.7 190.3C597.3 292.7 526.7 446 517 466.3C516.6 452.5 514.8 435.4 509.7 416.3C506.4 404.1 502.4 393.4 498.4 384.3C496.9 418.2 495.4 452.1 493.9 486H506.3C506 487 505.7 487.9 505.3 488.9H515.8C563.1 411.8 580.2 336.1 569.6 273Z" fill="#F48551"/>
<path opacity="0.32" d="M429.799 290.4C431.199 274.4 436.399 222.4 468.499 179.7C473.599 173 481.199 163.9 480.599 163.4C479.699 162.6 462.099 178.5 449.599 195.4C433.899 216.5 422.399 242.4 417.299 273C406.699 336.1 423.899 411.8 470.899 488.9H474.999C462.099 463.2 453.599 440 447.799 421.7C443.999 409.4 437.299 387.6 433.099 358.4C430.399 338.8 427.399 317.8 429.799 290.4Z" fill="#F4A15D"/>
<path opacity="0.72" d="M498.794 311C513.816 311 525.994 298.822 525.994 283.8C525.994 268.778 513.816 256.6 498.794 256.6C483.772 256.6 471.594 268.778 471.594 283.8C471.594 298.822 483.772 311 498.794 311Z" fill="#F48551" stroke="#F48551" stroke-width="6" stroke-miterlimit="10" stroke-linecap="round" stroke-linejoin="round"/>
<path d="M515.997 488.9C563.097 411.8 580.197 336.1 569.597 273C560.397 218.2 530.797 178.7 493.397 154C455.997 178.7 426.397 218.2 417.197 273C406.597 336.1 423.797 411.8 470.797 488.9H515.997Z" stroke="#601B23" stroke-width="6" stroke-miterlimit="10" stroke-linecap="round" stroke-linejoin="round"/>
<path d="M520.257 283.959C522.663 269.13 512.594 255.159 497.765 252.752C482.937 250.345 468.965 260.415 466.559 275.244C464.152 290.072 474.222 304.044 489.05 306.45C503.879 308.857 517.85 298.787 520.257 283.959Z" fill="#ABCFD8"/>
<path opacity="0.93" d="M489.697 294.5C498.754 294.5 506.097 287.157 506.097 278.1C506.097 269.043 498.754 261.7 489.697 261.7C480.64 261.7 473.297 269.043 473.297 278.1C473.297 287.157 480.64 294.5 489.697 294.5Z" fill="#E2F0F2"/>
<path d="M520.257 283.959C522.663 269.13 512.594 255.159 497.765 252.752C482.937 250.345 468.965 260.415 466.559 275.244C464.152 290.072 474.222 304.044 489.05 306.45C503.879 308.857 517.85 298.787 520.257 283.959Z" stroke="#601B23" stroke-width="6" stroke-miterlimit="10" stroke-linecap="round" stroke-linejoin="round"/>
<path d="M493.396 535.7C494.496 535.7 495.396 534.5 495.496 532.9L502.996 410.5C503.796 397.9 499.796 386.2 493.896 383.4C493.496 383.2 493.096 383.2 492.796 383.4C486.896 386.1 482.895 397.8 483.695 410.5L491.195 532.9C491.395 534.5 492.396 535.7 493.396 535.7Z" fill="#BC1D4E"/>
<path opacity="0.74" d="M493.396 535.7C494.496 535.7 495.396 534.5 495.496 532.9L502.996 410.5C503.796 397.9 499.796 386.2 493.896 383.4C493.496 383.2 493.096 383.2 492.796 383.4C486.896 386.1 482.895 397.8 483.695 410.5L491.195 532.9C491.395 534.5 492.396 535.7 493.396 535.7Z" fill="#F48551"/>
<g opacity="0.53">
<g opacity="0.53">
<g opacity="0.53">
<path opacity="0.53" d="M492.897 383.4C486.997 386.1 482.997 397.8 483.797 410.5L491.297 532.9C491.397 534.2 491.997 535.3 492.797 535.6V383.4H492.897Z" fill="#F4A15D"/>
</g>
<g opacity="0.53">
<path opacity="0.53" d="M492.898 383.4H493.998C493.598 383.2 493.198 383.2 492.898 383.4Z" fill="#F4A15D"/>
</g>
</g>
</g>
<path d="M493.396 535.7C494.496 535.7 495.396 534.5 495.496 532.9L502.996 410.5C503.796 397.9 499.796 386.2 493.896 383.4C493.496 383.2 493.096 383.2 492.796 383.4C486.896 386.1 482.895 397.8 483.695 410.5L491.195 532.9C491.395 534.5 492.396 535.7 493.396 535.7Z" stroke="#601B23" stroke-width="6" stroke-miterlimit="10" stroke-linecap="round" stroke-linejoin="round"/>
<path d="M640.194 390.4C629.994 375.6 624.094 358.1 624.094 339.4C624.094 315.7 633.394 294 648.894 277.3C664.394 294 673.794 315.7 673.894 339.4C673.894 358.2 667.994 375.6 657.894 390.4H640.194Z" fill="#F4A15D"/>
<path d="M640.194 390.4C629.994 375.6 624.094 358.1 624.094 339.4C624.094 315.7 633.394 294 648.894 277.3C664.394 294 673.794 315.7 673.894 339.4C673.894 358.2 667.994 375.6 657.894 390.4H640.194Z" fill="#F4A15D"/>
<path opacity="0.23" d="M647.5 277.3C648.7 278.6 649.9 280 651 281.4C640.6 297.4 634.6 316.2 634.5 336.2C634.5 356 637.5 374.5 647.7 390.5H638.5C628.4 375.7 622.5 358.2 622.5 339.5C622.5 315.7 631.9 294 647.5 277.3Z" fill="#F4A15D"/>
<path opacity="0.32" d="M647.5 277.3C647.9 277.7 648.3 278.2 648.7 278.7C637 296 630.3 316.3 630.2 338.1C630.2 357 635.3 374.8 644.2 390.5H638.5C628.4 375.7 622.5 358.2 622.5 339.5C622.5 315.7 631.9 294 647.5 277.3Z" fill="#F4A15D"/>
<path opacity="0.37" d="M673.898 339.4C673.898 315.7 664.498 294.1 648.898 277.3C647.698 278.6 646.498 280 645.398 281.4C655.798 297.4 661.798 316.2 661.898 336.2C661.898 356 656.098 374.5 645.898 390.5H657.898C667.998 375.6 673.898 358.1 673.898 339.4Z" fill="#F48551"/>
<path opacity="0.72" d="M673.895 339.4C673.895 315.7 664.495 294.1 648.895 277.3C648.495 277.7 648.095 278.2 647.695 278.7C659.395 296 666.095 316.3 666.195 338.1C666.195 357 661.095 374.8 652.195 390.5H657.895C667.995 375.6 673.895 358.1 673.895 339.4Z" fill="#F48551"/>
<path opacity="0.37" d="M648.898 277.3C647.698 278.6 646.498 280 645.398 281.4C655.798 297.4 661.798 316.2 661.898 336.2C661.898 356 656.098 374.5 645.898 390.5H657.898C667.998 375.7 673.898 358.2 673.898 339.5C673.898 315.7 664.498 294 648.898 277.3Z" fill="#F48551"/>
<path opacity="0.72" d="M648.895 277.3C648.495 277.7 648.095 278.2 647.695 278.7C659.395 296 666.095 316.3 666.195 338.1C666.195 357 661.095 374.8 652.195 390.5H657.895C667.995 375.7 673.895 358.2 673.895 339.5C673.895 315.7 664.495 294 648.895 277.3Z" fill="#F48551"/>
<path d="M662.197 295.3C658.497 288.8 654.097 282.8 648.997 277.2C643.897 282.7 639.497 288.8 635.797 295.3H662.197Z" fill="#601B23"/>
<path d="M640.194 390.4C629.994 375.6 624.094 358.1 624.094 339.4C624.094 315.7 633.394 294 648.894 277.3C664.394 294 673.794 315.7 673.894 339.4C673.894 358.2 667.994 375.6 657.894 390.4H640.194Z" stroke="#601B23" stroke-width="6" stroke-miterlimit="10" stroke-linecap="round" stroke-linejoin="round"/>
<path d="M632.594 377.2H665.494" stroke="#601B23" stroke-width="4" stroke-miterlimit="10" stroke-linecap="round" stroke-linejoin="round"/>
<path opacity="0.41" d="M462.594 185.1C462.594 185.1 469.394 174.4 492.494 156.4C481.794 170.9 479.694 180 478.994 180.7C472.194 182 462.594 185.1 462.594 185.1Z" fill="#EEEEEE"/>
</svg>
