<svg width="1000" height="1000" viewBox="0 0 1000 1000" fill="none" xmlns="http://www.w3.org/2000/svg">
<path d="M337 884C337 862.4 378.333 851.667 399 849L405 857C392.667 856.779 366.8 860.271 362 876C357.765 889.878 335.573 908.242 321.25 918.403C319.316 920.016 317.498 921.215 316 922C317.569 920.967 319.339 919.758 321.25 918.403C328.351 912.478 337 900.978 337 884Z" fill="black" fill-opacity="0.6"/>
<path d="M593 895.008C593 873.408 551.667 862.675 531 860.008L525 868.008C537.333 867.788 563.2 871.279 568 887.008C572.235 900.887 594.427 919.25 608.75 929.411C610.684 931.024 612.502 932.224 614 933.008C612.431 931.975 610.661 930.766 608.75 929.411C601.649 923.486 593 911.986 593 895.008Z" fill="black" fill-opacity="0.6"/>
<path d="M383.224 902.591C372.743 883.705 403.676 854.263 420.453 841.903L429.581 845.987C418.69 851.779 397.767 867.383 401.202 883.465C404.233 897.655 393.739 924.481 386.146 940.315C385.238 942.663 384.23 944.595 383.301 946.008C384.172 944.343 385.133 942.427 386.146 940.315C389.48 931.689 391.462 917.436 383.224 902.591Z" fill="black" fill-opacity="0.6"/>
<path d="M427.345 901.6C416.864 882.713 447.797 853.271 464.574 840.912L473.702 844.995C462.811 850.787 441.888 866.391 445.323 882.474C448.354 896.664 437.86 923.489 430.267 939.323C429.359 941.672 428.351 943.603 427.422 945.016C428.293 943.351 429.254 941.435 430.267 939.323C433.601 930.697 435.584 916.445 427.345 901.6Z" fill="black" fill-opacity="0.6"/>
<path d="M470.345 894.6C459.864 875.713 490.797 846.271 507.574 833.912L516.702 837.995C505.811 843.787 484.888 859.391 488.323 875.474C491.354 889.664 480.86 916.489 473.267 932.323C472.359 934.672 471.351 936.603 470.422 938.016C471.293 936.351 472.254 934.435 473.267 932.323C476.601 923.697 478.584 909.445 470.345 894.6Z" fill="black" fill-opacity="0.6"/>
<path d="M511.345 913.6C500.864 894.713 531.797 865.271 548.574 852.912L557.702 856.995C546.811 862.787 525.888 878.391 529.323 894.474C532.354 908.664 521.86 935.489 514.267 951.323C513.359 953.672 512.351 955.603 511.422 957.016C512.293 955.351 513.254 953.435 514.267 951.323C517.601 942.697 519.584 928.445 511.345 913.6Z" fill="black" fill-opacity="0.6"/>
<path d="M627.897 906.6C638.378 887.713 607.445 858.271 590.668 845.912L581.54 849.995C592.431 855.787 613.355 871.391 609.919 887.474C606.888 901.664 617.382 928.489 624.975 944.323C625.883 946.672 626.891 948.603 627.82 950.016C626.949 948.351 625.988 946.435 624.975 944.323C621.641 935.697 619.659 921.445 627.897 906.6Z" fill="black" fill-opacity="0.6"/>
<path d="M493 141C505.223 147.876 511.245 161.104 513.766 175.156C513.682 167.191 513.452 158.929 513 151C511.542 125.4 533.726 68.3333 545 43C558.333 59 551.256 93.6514 545 151C539 206 545 248 545 263H449L429 43C439.667 69.6667 467.4 126.6 493 141Z" fill="#13623C" stroke="black"/>
<mask id="path-9-inside-1_144_3460" fill="white">
<path fill-rule="evenodd" clip-rule="evenodd" d="M445 198L514.5 254L544 198V315.03C631.594 366.523 797 480.155 797 604C797 620.127 795.633 635.553 793.022 650.266C783.933 771.564 712.623 866 626 866C609.872 866 594.275 862.726 579.512 856.615C554.025 879.063 524.061 892 492 892C458.383 892 427.072 877.777 400.81 853.281C397.41 852.46 394.03 851.592 390.671 850.677C384.863 851.552 378.968 852 373 852C318.762 852 270.528 814.977 239.811 757.518C206.899 717.2 187 665.811 187 604C187 476.922 360.018 360.596 445 311.125V198Z"/>
</mask>
<path fill-rule="evenodd" clip-rule="evenodd" d="M445 198L514.5 254L544 198V315.03C631.594 366.523 797 480.155 797 604C797 620.127 795.633 635.553 793.022 650.266C783.933 771.564 712.623 866 626 866C609.872 866 594.275 862.726 579.512 856.615C554.025 879.063 524.061 892 492 892C458.383 892 427.072 877.777 400.81 853.281C397.41 852.46 394.03 851.592 390.671 850.677C384.863 851.552 378.968 852 373 852C318.762 852 270.528 814.977 239.811 757.518C206.899 717.2 187 665.811 187 604C187 476.922 360.018 360.596 445 311.125V198Z" fill="#FFF5F5"/>
<path d="M514.5 254L510.735 258.672L516.411 263.245L519.808 256.796L514.5 254ZM445 198L448.765 193.328L439 185.46V198H445ZM544 198H550L538.692 195.204L544 198ZM544 315.03H538V318.463L540.959 320.202L544 315.03ZM793.022 650.266L787.114 649.217L787.061 649.516L787.039 649.817L793.022 650.266ZM579.512 856.615L581.807 851.072L578.352 849.642L575.546 852.113L579.512 856.615ZM400.81 853.281L404.902 848.893L403.75 847.819L402.219 847.449L400.81 853.281ZM390.671 850.677L392.247 844.888L391.027 844.556L389.777 844.744L390.671 850.677ZM239.811 757.518L245.103 754.689L244.828 754.175L244.459 753.723L239.811 757.518ZM187 604H181H187ZM445 311.125L448.019 316.31L451 314.575V311.125H445ZM518.265 249.328L448.765 193.328L441.235 202.672L510.735 258.672L518.265 249.328ZM538.692 195.204L509.192 251.204L519.808 256.796L549.308 200.796L538.692 195.204ZM550 315.03V198H538V315.03H550ZM540.959 320.202C584.583 345.847 647.376 386.852 699.187 436.707C751.221 486.775 791 544.643 791 604H803C803 539.512 760.075 478.641 707.508 428.059C654.718 377.264 591.011 335.706 547.041 309.858L540.959 320.202ZM791 604C791 619.786 789.662 634.862 787.114 649.217L798.93 651.314C801.604 636.245 803 620.467 803 604H791ZM787.039 649.817C782.569 709.471 762.811 762.247 733.829 799.964C704.846 837.682 666.97 860 626 860V872C671.653 872 712.743 847.1 743.344 807.276C773.945 767.451 794.386 712.359 799.005 650.714L787.039 649.817ZM626 860C610.699 860 595.88 856.897 581.807 851.072L577.217 862.159C592.671 868.556 609.045 872 626 872V860ZM575.546 852.113C550.96 873.767 522.361 886 492 886V898C525.761 898 557.089 884.359 583.478 861.118L575.546 852.113ZM492 886C460.171 886 430.268 872.553 404.902 848.893L396.717 857.669C423.877 883.002 456.595 898 492 898V886ZM402.219 847.449C398.875 846.641 395.55 845.787 392.247 844.888L389.095 856.467C392.51 857.396 395.946 858.279 399.401 859.113L402.219 847.449ZM389.777 844.744C384.263 845.574 378.667 846 373 846V858C379.269 858 385.463 857.529 391.564 856.61L389.777 844.744ZM373 846C321.73 846 275.187 810.965 245.103 754.689L234.52 760.346C265.869 818.989 315.795 858 373 858V846ZM244.459 753.723C212.428 714.485 193 664.439 193 604H181C181 667.182 201.369 719.914 235.163 761.312L244.459 753.723ZM193 604C193 543.065 234.634 483.725 288.263 432.811C341.652 382.124 405.698 340.947 448.019 316.31L441.981 305.939C399.32 330.774 334.366 372.495 280.001 424.109C225.875 475.495 181 537.857 181 604H193ZM439 198V311.125H451V198H439Z" fill="black" fill-opacity="0.6" mask="url(#path-9-inside-1_144_3460)"/>
<path d="M401.336 850C345.336 762.667 274.758 593 312.759 497C350.76 401 407.003 365.667 418.336 355" stroke="black" stroke-opacity="0.6" stroke-width="6"/>
<path d="M578.997 854.5C634.997 767.167 695.998 606 657.997 510C619.996 414 555.331 360.667 543.998 350" stroke="black" stroke-opacity="0.6" stroke-width="6"/>
<path d="M661.244 617.278C658.213 723.273 597.892 811.35 584.643 810.971C571.394 810.592 599.093 725.388 602.124 619.393C605.155 513.397 582.369 426.749 595.619 427.128C608.868 427.507 664.275 511.283 661.244 617.278Z" fill="#FBDFDF"/>
<path d="M765.413 720.796C738.382 790.406 677.571 834.604 668.87 831.225C660.169 827.846 698.659 777.854 725.689 708.244C752.72 638.635 758.055 575.768 766.756 579.147C775.457 582.526 792.443 651.187 765.413 720.796Z" fill="#FBDFDF"/>
<path d="M240.974 693.63C268.005 763.239 328.815 807.437 337.517 804.058C346.218 800.679 307.728 750.687 280.697 681.078C253.667 611.469 248.332 548.602 239.631 551.981C230.93 555.359 213.944 624.02 240.974 693.63Z" fill="#FBDFDF"/>
<path d="M561.294 626.171C580.621 698.3 557.68 769.89 548.664 772.306C539.648 774.722 541.158 711.647 521.831 639.519C502.504 567.39 469.659 513.52 478.675 511.105C487.691 508.689 541.967 554.043 561.294 626.171Z" fill="#FBDFDF"/>
</svg>
