<svg width="1000" height="1000" viewBox="0 0 1000 1000" fill="none" xmlns="http://www.w3.org/2000/svg">
<rect width="824" height="31" transform="matrix(-1 0 0 1 916 774)" fill="#363A5A"/>
<path d="M278.004 315.67C278.004 315.67 222.683 288.422 194.506 336.641C166.329 384.859 185.175 775 185.175 775H261.85L278.004 315.67Z" fill="#D0C8C8" stroke="#363A5A" stroke-width="4" stroke-linecap="round" stroke-linejoin="round"/>
<path d="M727.004 315.67C727.004 315.67 782.325 288.422 810.502 336.641C838.679 384.859 819.833 775 819.833 775H743.158L727.004 315.67Z" fill="#D0C8C8" stroke="#363A5A" stroke-width="4" stroke-linecap="round" stroke-linejoin="round"/>
<path d="M277.392 316H735.653C749.905 316 761.499 328.613 762.201 344.546L778.004 779H235.004L250.807 344.546C251.398 328.798 263.103 316 277.392 316Z" fill="#D0C8C8" stroke="#363A5A" stroke-width="4" stroke-linecap="round" stroke-linejoin="round"/>
<path d="M474.182 387.094C474.182 387.094 385.455 438.642 360.289 452.541C335.123 466.439 317.477 473.389 317.477 483.316V740.041H717.704C717.704 740.041 733.532 502.4 731 495.5C728.468 488.6 569.213 387.094 561.023 384.587C552.833 382.08 474.182 387.094 474.182 387.094Z" fill="#263238" stroke="#363A5A" stroke-linecap="round" stroke-linejoin="round"/>
<path d="M716.556 497.113C716.556 497.113 724.169 490.182 731.1 501.26C738.031 512.338 803.054 647.923 804.445 661.075C805.837 674.227 798.988 674.227 801.717 682.522C804.445 690.817 830.094 737.095 825.947 750.329C821.799 763.562 805.018 780.616 798.115 781.298C791.211 781.981 650.769 781.298 650.769 781.298C640.314 778.836 630.917 773.1 623.947 764.927C613.551 751.775 585.883 715.129 585.883 708.881C585.883 702.632 616.334 680.531 622.555 673.6C628.777 666.669 648.15 667.379 650.933 665.414C653.716 663.449 688.206 583.692 696.637 562.818C701.883 549.467 706.276 535.796 709.789 521.889" fill="#263238"/>
<path d="M716.556 497.113C716.556 497.113 724.169 490.182 731.1 501.26C738.031 512.338 803.054 647.923 804.445 661.075C805.837 674.227 798.988 674.227 801.717 682.522C804.445 690.817 830.094 737.095 825.947 750.329C821.799 763.562 805.018 780.616 798.115 781.298C791.211 781.981 650.769 781.298 650.769 781.298C640.314 778.836 630.917 773.1 623.947 764.927C613.551 751.775 585.883 715.129 585.883 708.881C585.883 702.632 616.334 680.531 622.555 673.6C628.777 666.669 648.15 667.379 650.933 665.414C653.716 663.449 688.206 583.692 696.637 562.818C701.883 549.467 706.276 535.796 709.789 521.889" stroke="#263238" stroke-linecap="round" stroke-linejoin="round"/>
<path d="M623.919 764.845C623.919 764.845 575.595 713.792 585.718 700.668C595.842 687.543 642.556 667.16 642.556 667.16L699.393 538.915" stroke="#808080" stroke-linecap="round" stroke-linejoin="round"/>
<path d="M650.852 665.223C650.852 665.223 668.833 672.836 677.838 680.449C686.842 688.062 748.4 709.509 785.072 710.191" stroke="#808080" stroke-linecap="round" stroke-linejoin="round"/>
<path d="M678.484 663.148C678.484 663.148 733.821 674.908 783.645 648.604" stroke="#808080" stroke-linecap="round" stroke-linejoin="round"/>
<path d="M716.564 524.782C716.564 524.782 709.66 584.266 704.121 604.349" stroke="#808080" stroke-linecap="round" stroke-linejoin="round"/>
<path d="M731.781 531.686C733.173 533.76 748.399 593.953 748.399 617.474" stroke="#808080" stroke-linecap="round" stroke-linejoin="round"/>
<path d="M318.07 479.104C318.07 479.104 289.011 487.426 282.789 496.403C276.568 505.381 217.739 581.509 212.909 593.269C208.08 605.03 226.034 645.113 226.034 652.071C226.034 659.029 167.287 739.933 173.454 757.232C179.62 774.532 201.149 780.753 201.149 780.753H404.677C404.677 780.753 420.585 748.255 437.202 736.495C453.819 724.734 462.114 727.49 466.262 721.269C470.409 715.048 464.87 703.97 451.036 697.039C437.202 690.108 398.456 675.592 398.456 675.592C398.456 675.592 408.142 669.371 401.184 664.541C394.226 659.711 367.295 646.532 364.539 642.385C361.783 638.237 335.479 569.067 327.157 535.832" fill="#263238"/>
<path d="M318.07 479.104C318.07 479.104 289.011 487.426 282.789 496.403C276.568 505.381 217.739 581.509 212.909 593.269C208.08 605.03 226.034 645.113 226.034 652.071C226.034 659.029 167.287 739.933 173.454 757.232C179.62 774.532 201.149 780.753 201.149 780.753H404.677C404.677 780.753 420.585 748.255 437.202 736.495C453.819 724.734 462.114 727.49 466.262 721.269C470.409 715.048 464.87 703.97 451.036 697.039C437.202 690.108 398.456 675.592 398.456 675.592C398.456 675.592 408.142 669.371 401.184 664.541C394.226 659.711 367.295 646.532 364.539 642.385C361.783 638.237 335.479 569.067 327.157 535.832" stroke="#263238" stroke-linecap="round" stroke-linejoin="round"/>
<path d="M460.458 722.523C460.458 722.523 478.74 710.135 464.851 703.586C450.962 697.037 403.648 678.81 403.648 678.81C403.648 678.81 413.826 665.685 406.541 662.793C399.255 659.901 364.465 642.383 364.465 642.383L322.035 521.423" stroke="#808080" stroke-linecap="round" stroke-linejoin="round"/>
<path d="M230.871 609.178C230.871 609.178 328.419 635.482 313.194 637.555C297.968 639.629 251.636 637.555 246.097 638.92" stroke="#808080" stroke-linecap="round" stroke-linejoin="round"/>
<path d="M390.728 665.223C390.728 665.223 287.04 683.914 295.226 685.988C303.412 688.062 387.235 677.666 387.235 677.666" stroke="#808080" stroke-linecap="round" stroke-linejoin="round"/>
<path d="M303.489 515.773C303.489 515.773 294.512 589.118 294.512 607.1" stroke="#808080" stroke-linecap="round" stroke-linejoin="round"/>
<path d="M293.172 513.701C293.172 513.701 273.117 558.668 271.043 577.359" stroke="#808080" stroke-linecap="round" stroke-linejoin="round"/>
<path d="M349.152 515.097H484.055" stroke="#808080" stroke-linecap="round" stroke-linejoin="round"/>
<path d="M576.793 515.773H688.857" stroke="#808080" stroke-linecap="round" stroke-linejoin="round"/>
<path d="M512.509 555.917L496.574 680.451" stroke="#808080" stroke-linecap="round" stroke-linejoin="round"/>
<path d="M519.41 575.288V680.449" stroke="#808080" stroke-linecap="round" stroke-linejoin="round"/>
<path d="M532.516 555.917L545.668 688.064" stroke="#808080" stroke-linecap="round" stroke-linejoin="round"/>
<path d="M462.345 372.88C462.345 372.88 459.617 431.409 465.92 459.241C472.223 487.073 513.807 559.136 525.158 549.886C536.509 540.636 575.829 462.816 577.248 442.842C578.666 422.869 577.984 372.88 577.984 372.88C577.984 372.88 538.719 397.138 512.306 390.726C495.129 386.359 478.402 380.384 462.345 372.88Z" fill="#FCD0D0" stroke="#263238" stroke-linecap="round" stroke-linejoin="round"/>
<path d="M461.758 393.754C474.937 405.515 492.564 416.784 499.058 418.094C508.881 420.058 533.439 419.813 541.297 415.911C554.113 409.375 566.425 401.896 578.133 393.536C578.133 381.776 577.97 372.88 577.97 372.88C577.97 372.88 538.705 397.138 512.292 390.726C495.115 386.359 478.387 380.384 462.331 372.88C462.331 372.88 461.949 381.53 461.758 393.754Z" fill="#FCD0D0"/>
<path d="M578.153 404.121C570.431 421.311 546.829 467.998 519.433 465.679C495.285 463.605 473.047 432.662 461.832 414.708C462.159 430.561 463.224 447.588 465.925 459.239C472.337 487.071 513.73 559.161 525.163 549.884C536.596 540.607 575.834 462.814 577.253 442.84C577.908 433.617 578.126 418.173 578.153 404.121Z" fill="white" stroke="#263238" stroke-linecap="round" stroke-linejoin="round"/>
<path d="M521.602 467.427C519.965 467.618 521.111 465.818 519.446 465.681C517.782 465.545 519.01 467.373 517.563 467.073L500.182 487.073L514.453 504.919L502.338 523.501C502.338 523.501 500.919 525.329 499.445 527.402C510.114 543.119 520.319 553.843 525.176 549.886C529.406 546.448 537.455 533.515 545.996 517.77L530.879 505.655L540.866 489.284L521.602 467.427Z" fill="#FE4C4C" stroke="#263238" stroke-linecap="round" stroke-linejoin="round"/>
<path d="M486.621 502.078L519.446 465.678L554.427 502.078" stroke="#263238" stroke-linecap="round" stroke-linejoin="round"/>
<path d="M447.034 309.004C447.034 309.004 440.076 295.716 433.718 296.289C427.361 296.862 419.83 307.203 428.507 324.639C437.184 342.075 445.861 341.42 446.434 334.489C447.007 327.559 447.034 309.004 447.034 309.004Z" fill="#FCD0D0" stroke="#263238" stroke-linecap="round" stroke-linejoin="round"/>
<path d="M430.877 319.587C430.877 319.587 427.247 304.443 434.533 305.943C441.818 307.444 447.576 318.986 447.576 318.986C447.576 318.986 432.186 304.579 430.877 319.587Z" fill="#263238"/>
<path d="M587.734 309.004C587.734 309.004 594.665 295.716 601.05 296.289C607.435 296.862 614.911 307.203 606.234 324.639C597.557 342.075 588.88 341.42 588.307 334.489C587.734 327.559 587.734 309.004 587.734 309.004Z" fill="#FCD0D0" stroke="#263238" stroke-linecap="round" stroke-linejoin="round"/>
<path d="M589.012 319.588C589.012 319.588 602.655 299.233 604.674 307.582C605.373 309.717 605.641 311.969 605.463 314.208C605.285 316.447 604.664 318.628 603.637 320.625C603.637 320.625 602.819 303.68 589.012 319.588Z" fill="#263238"/>
<path d="M452.073 227.717C452.073 227.717 440.312 348.35 447.189 363.084C454.065 377.819 489.318 402.54 499.032 404.505C508.746 406.469 533.413 406.224 541.271 402.322C549.13 398.42 587.358 377.764 591.287 366.031C595.216 354.298 583.456 241.442 578.544 226.872C573.633 212.301 541.271 202.314 511.83 202.314C482.388 202.314 455.02 218.877 452.073 227.717Z" fill="#FCD0D0" stroke="#263238" stroke-linecap="round" stroke-linejoin="round"/>
<path d="M464.328 234.431C464.328 234.431 487.822 262.29 515.79 268.402C543.758 274.514 573.091 263.709 573.091 263.709L464.328 234.431Z" fill="#263238" stroke="#263238" stroke-linecap="round" stroke-linejoin="round"/>
<path d="M529.111 293.691C529.111 293.691 524.473 307.007 524.473 308.726C524.473 310.445 526.792 335.357 526.792 335.357" stroke="#363A5A" stroke-width="2" stroke-linecap="round" stroke-linejoin="round"/>
<path d="M477.688 350.026C478.288 346.561 501.426 337.284 501.426 337.284C501.426 337.284 493.895 342.495 498.534 344.242C503.173 345.988 515.315 354.665 519.353 352.919C523.392 351.172 539.627 343.096 540.2 340.776C540.773 338.457 537.881 333.818 537.881 333.818C537.881 333.818 555.835 346.561 557.554 351.172" stroke="#363A5A" stroke-width="2" stroke-linecap="round" stroke-linejoin="round"/>
<path d="M501.404 273.724C501.404 273.724 485.796 265.047 477.692 270.832C469.588 276.616 471.307 280.082 473.626 280.082C475.946 280.082 479.984 274.87 485.196 274.87C490.407 274.87 499.685 280.082 501.404 273.724Z" fill="#363A5A" stroke="#263238" stroke-linecap="round" stroke-linejoin="round"/>
<path d="M537.836 278.509C537.836 278.509 553.444 269.832 561.548 275.617C569.652 281.402 567.933 284.867 565.613 284.867C563.294 284.867 559.228 279.655 554.044 279.655C548.86 279.655 539.446 284.867 537.836 278.509Z" fill="#363A5A" stroke="#263238" stroke-linecap="round" stroke-linejoin="round"/>
<path d="M487.815 306.68C490.211 306.68 492.154 303.834 492.154 300.322C492.154 296.811 490.211 293.965 487.815 293.965C485.419 293.965 483.477 296.811 483.477 300.322C483.477 303.834 485.419 306.68 487.815 306.68Z" fill="#263238"/>
<path d="M543.971 306.68C546.367 306.68 548.31 303.834 548.31 300.322C548.31 296.811 546.367 293.965 543.971 293.965C541.575 293.965 539.633 296.811 539.633 300.322C539.633 303.834 541.575 306.68 543.971 306.68Z" fill="#263238"/>
<path d="M484.312 362.316C484.312 362.316 491.243 370.501 495.227 372.139C499.211 373.776 533.428 375.031 543.824 372.712C546.756 372.101 549.434 370.612 551.5 368.443C553.567 366.274 554.924 363.528 555.393 360.569" stroke="#363A5A" stroke-width="2" stroke-linecap="round" stroke-linejoin="round"/>
<path d="M497.469 306.109C497.469 306.109 496.869 316.533 477.195 321.171" stroke="#363A5A" stroke-width="2" stroke-linecap="round" stroke-linejoin="round"/>
<path d="M536.688 307.284C536.688 307.284 543.345 316.753 560.126 317.926" stroke="#363A5A" stroke-width="2" stroke-linecap="round" stroke-linejoin="round"/>
<path d="M569.736 264.987C569.736 264.987 566.789 275.902 571.701 281.659C576.612 287.417 580.541 291.455 580.541 291.455C580.541 291.455 579.559 310.092 585.426 310.092C591.292 310.092 589.355 301.278 589.355 301.278L586.408 256.256L569.736 264.987Z" fill="#343030" stroke="#263238" stroke-linecap="round" stroke-linejoin="round"/>
<path d="M460.85 232.628C460.85 232.628 493.674 261.088 528 266C562.326 270.912 590.323 267.937 594.252 257.131C598.181 246.326 603.229 218.576 567.921 204.851C532.612 191.126 489.8 189.216 465.761 206.133C462.074 208.544 458.947 211.718 456.594 215.442C454.24 219.166 452.714 223.352 452.118 227.717C452.118 227.717 443.305 230.664 443.305 238.631V306.192H450.181C450.181 306.192 448.216 282.644 457.03 277.732C465.843 272.821 472.719 262.043 472.719 254.184C472.719 246.326 460.85 232.628 460.85 232.628Z" fill="#343030" stroke="#263238" stroke-linecap="round" stroke-linejoin="round"/>
<path d="M466.02 736.166C466.02 736.166 525.477 756.221 535.136 759.659C544.796 763.097 567.634 776.249 567.634 780.397C567.634 784.544 566.952 785.254 562.804 785.254H506.813C503.348 785.254 444.055 785.963 441.19 784.217C437.394 782.698 433.426 781.654 429.375 781.106C429.375 781.106 440.426 738.24 466.02 736.166Z" fill="#FCD0D0" stroke="#263238" stroke-linecap="round" stroke-linejoin="round"/>
<path d="M484.027 773.496C484.027 773.496 510.986 778.953 521.355 785.256L484.027 773.496Z" fill="#FCD0D0"/>
<path d="M484.027 773.496C484.027 773.496 510.986 778.953 521.355 785.256" stroke="#263238" stroke-linecap="round" stroke-linejoin="round"/>
<path d="M497.828 762.443C497.828 762.443 529.644 774.886 537.939 785.255L497.828 762.443Z" fill="#FCD0D0"/>
<path d="M497.828 762.443C497.828 762.443 529.644 774.886 537.939 785.255" stroke="#263238" stroke-linecap="round" stroke-linejoin="round"/>
<path d="M515.77 758.979C515.77 758.979 546.876 772.814 555.853 783.864L515.77 758.979Z" fill="#FCD0D0"/>
<path d="M515.77 758.979C515.77 758.979 546.876 772.814 555.853 783.864" stroke="#263238" stroke-linecap="round" stroke-linejoin="round"/>
<path d="M450.91 721.953L475.113 735.787C475.113 735.787 450.91 748.257 443.98 760.699C437.049 773.142 432.219 782.829 432.219 782.829H404.688C404.688 782.829 406.625 744.683 450.91 721.953Z" fill="white" stroke="#263238" stroke-linecap="round" stroke-linejoin="round"/>
<path d="M579.066 740.508C579.066 740.508 576.637 734.832 579.584 731.53C582.531 728.229 607.771 723.345 618.467 730.303C629.163 737.261 639.368 764.738 638.904 773.033C638.44 781.328 608.398 785.148 598.93 781.219C589.462 777.289 579.066 740.508 579.066 740.508Z" fill="white" stroke="#263238" stroke-linecap="round" stroke-linejoin="round"/>
<path d="M585.62 735.35L570.94 737.288C570.94 737.288 487.498 730.439 482.45 733.604C477.403 736.769 438.602 785.857 438.602 785.857L486.243 788.586C486.243 788.586 526.027 771.45 529.492 771.641C532.957 771.832 549.138 779.69 561.471 781.791C573.805 783.892 604.01 777.426 604.01 777.426C604.01 777.426 607.258 769.24 601.282 753.687C595.306 738.133 585.62 735.35 585.62 735.35Z" fill="#FCD0D0" stroke="#263238" stroke-linecap="round" stroke-linejoin="round"/>
<path d="M474.535 787.901C474.535 787.901 509.543 757.34 514.537 754.857L474.535 787.901Z" fill="#FCD0D0"/>
<path d="M474.535 787.901C474.535 787.901 509.543 757.34 514.537 754.857" stroke="#263238" stroke-linecap="round" stroke-linejoin="round"/>
<path d="M497.592 747.654L461.465 785.773" stroke="#263238" stroke-linecap="round" stroke-linejoin="round"/>
<path d="M484.096 742.036L448.297 786.404" stroke="#263238" stroke-linecap="round" stroke-linejoin="round"/>
</svg>
