<svg width="1000" height="1000" viewBox="0 0 1000 1000" fill="none" xmlns="http://www.w3.org/2000/svg">
<mask id="path-1-inside-1_144_3928" fill="white">
<path fill-rule="evenodd" clip-rule="evenodd" d="M881.449 422.058C871.795 425.276 842.281 454.15 801.96 493.596C702.645 590.759 537.769 752.061 442.656 752.061C364.374 752.061 289.432 711.29 243.954 649.699C241.847 648.494 223.499 637.846 203.348 621.061C196.877 617.94 116 577.98 116 530.713C116 489.828 164.503 454.892 180.96 444.215C192.984 428.412 204.436 417.75 207.913 414.641C236.474 308.778 338.876 238.664 442.656 247.798C570.811 259.078 914.88 410.914 881.449 422.058Z"/>
</mask>
<path fill-rule="evenodd" clip-rule="evenodd" d="M881.449 422.058C871.795 425.276 842.281 454.15 801.96 493.596C702.645 590.759 537.769 752.061 442.656 752.061C364.374 752.061 289.432 711.29 243.954 649.699C241.847 648.494 223.499 637.846 203.348 621.061C196.877 617.94 116 577.98 116 530.713C116 489.828 164.503 454.892 180.96 444.215C192.984 428.412 204.436 417.75 207.913 414.641C236.474 308.778 338.876 238.664 442.656 247.798C570.811 259.078 914.88 410.914 881.449 422.058Z" fill="#F0F0F0"/>
<path d="M801.96 493.596L793.569 485.019L801.96 493.596ZM881.449 422.058L877.654 410.674V410.674L881.449 422.058ZM243.954 649.699L253.608 642.571L252.106 640.537L249.911 639.282L243.954 649.699ZM203.348 621.061L211.029 611.841L209.893 610.895L208.562 610.253L203.348 621.061ZM180.96 444.215L187.491 454.282L189.244 453.144L190.509 451.481L180.96 444.215ZM207.913 414.641L215.912 423.586L218.57 421.209L219.498 417.767L207.913 414.641ZM442.656 247.798L441.604 259.752L442.656 247.798ZM810.352 502.174C830.564 482.401 847.873 465.469 861.335 453.067C868.072 446.862 873.675 441.948 878.089 438.443C880.296 436.691 882.072 435.397 883.448 434.504C884.953 433.527 885.47 433.367 885.243 433.442L877.654 410.674C872.965 412.237 867.782 415.981 863.163 419.649C858.068 423.696 851.963 429.07 845.074 435.416C831.285 448.118 813.677 465.346 793.569 485.019L810.352 502.174ZM442.656 764.061C469.46 764.061 499.743 752.83 530.721 735.864C561.96 718.756 595.198 695.086 628.233 668.631C694.3 615.725 760.769 550.682 810.352 502.174L793.569 485.019C743.836 533.673 678.21 597.862 613.232 649.898C580.744 675.914 548.723 698.642 519.193 714.814C489.403 731.129 463.409 740.061 442.656 740.061V764.061ZM234.3 656.827C281.884 721.269 360.309 764.061 442.656 764.061V740.061C368.44 740.061 296.98 701.311 253.608 642.571L234.3 656.827ZM195.668 630.281C216.568 647.691 235.579 658.733 237.997 660.116L249.911 639.282C248.116 638.255 230.43 628.002 211.029 611.841L195.668 630.281ZM208.562 610.253C205.607 608.828 184.644 598.484 164.596 582.955C154.569 575.188 145.188 566.44 138.404 557.22C131.589 547.959 128 539.06 128 530.713H104C104 545.999 110.52 559.82 119.073 571.444C127.655 583.107 138.898 593.407 149.899 601.928C171.907 618.976 194.618 630.173 198.135 631.869L208.562 610.253ZM128 530.713C128 514.886 137.563 498.792 151.077 484.329C164.31 470.166 179.639 459.376 187.491 454.282L174.428 434.148C165.824 439.731 148.673 451.747 133.54 467.943C118.689 483.838 104 505.655 104 530.713H128ZM199.913 405.697C196.08 409.124 184.042 420.347 171.41 436.948L190.509 451.481C201.926 436.477 212.792 426.376 215.912 423.586L199.913 405.697ZM443.708 235.844C334.072 226.195 226.388 300.093 196.327 411.516L219.498 417.767C246.56 317.463 343.679 251.133 441.604 259.752L443.708 235.844ZM885.243 433.442C887.679 432.63 891.716 430.724 894.099 426.228C896.669 421.375 895.704 416.645 894.526 413.799C893.401 411.082 891.664 408.898 890.232 407.337C888.7 405.666 886.904 404.052 885.01 402.515C877.623 396.522 865.579 389.191 850.72 381.158C820.671 364.915 776.386 344.364 727.262 323.902C678.093 303.421 623.796 282.912 573.657 266.794C523.753 250.751 477.155 238.788 443.708 235.844L441.604 259.752C472.235 262.448 516.704 273.695 566.312 289.642C615.685 305.514 669.344 325.775 718.033 346.057C766.767 366.356 810.24 386.559 839.307 402.271C854.005 410.217 864.358 416.665 869.889 421.152C871.224 422.235 872.064 423.035 872.541 423.555C873.118 424.184 872.76 423.968 872.35 422.978C871.887 421.858 870.972 418.615 872.891 414.992C874.622 411.724 877.308 410.789 877.654 410.674L885.243 433.442Z" fill="#263238" mask="url(#path-1-inside-1_144_3928)"/>
<path d="M688.975 323.801C697.435 325.338 705.323 329.131 711.807 334.777C728.703 346.872 741.759 363.575 749.415 382.891C757.071 402.207 759.004 423.32 754.982 443.705C754.086 452.238 750.923 460.375 745.82 467.272C745.102 466.6 748.093 457.852 749.58 442.691C752.049 423.258 749.553 403.517 742.327 385.309C735.1 367.102 723.378 351.023 708.254 338.573C697.104 329.1 688.515 324.91 688.975 323.801Z" fill="#263238"/>
<path d="M209.685 417.597C222.758 418.287 235.402 422.493 246.285 429.77C274.135 444.778 297.075 467.487 312.364 495.183C327.653 522.88 334.644 554.393 332.502 585.956C332.795 599.016 329.588 611.916 323.211 623.317C321.997 622.441 324.827 608.651 324.148 585.466C324.128 555.641 316.552 526.307 302.126 500.202C287.699 474.098 266.894 452.075 241.651 436.189C222.984 424.031 209.203 419.36 209.685 417.597Z" fill="#263238"/>
<path d="M186.623 452.343C194.692 453.301 202.352 456.419 208.797 461.367C225.436 471.792 238.723 486.787 247.068 504.561C255.413 522.335 258.464 542.136 255.856 561.597C255.508 569.698 252.998 577.557 248.586 584.359C247.869 583.767 250.182 575.341 250.702 560.955C251.9 542.482 248.398 524.007 240.523 507.254C232.648 490.502 220.655 476.018 205.667 465.154C194.598 456.867 186.253 453.415 186.623 452.343Z" fill="#263238"/>
<path d="M144.076 488.828C148.382 488.833 152.607 489.999 156.305 492.204C165.708 496.659 173.63 503.728 179.123 512.565C184.617 521.402 187.449 531.633 187.283 542.037C187.602 546.322 186.768 550.614 184.867 554.467C184.453 554.2 185.148 549.622 184.531 542.019C184.017 532.223 181.029 522.716 175.846 514.388C170.663 506.059 163.454 499.179 154.893 494.391C148.554 490.715 143.948 489.416 144.076 488.828Z" fill="#263238"/>
<path d="M623.306 595.569C629.977 614.592 565.581 682.796 488.969 709.66C412.356 736.525 352.539 711.877 345.869 692.854C339.198 673.832 417.627 687.393 494.239 660.528C570.851 633.663 616.636 576.546 623.306 595.569Z" fill="#E1E1E1"/>
<path d="M277.323 363.18C274.97 343.159 352.713 290.673 433.343 281.197C513.974 271.721 566.961 308.843 569.314 328.864C571.667 348.884 498.096 318.515 417.465 327.991C336.834 337.467 279.676 383.2 277.323 363.18Z" fill="#E1E1E1"/>
<path d="M336.348 464.511C345.906 390.917 400.977 338.81 482.077 342.547C563.177 346.284 729.351 435.9 728.423 456.037C727.495 476.174 560.885 626.41 479.785 622.673C398.685 618.936 325.609 547.2 336.348 464.511Z" fill="#E1E1E1"/>
</svg>
