<svg width="1000" height="1000" viewBox="0 0 1000 1000" fill="none" xmlns="http://www.w3.org/2000/svg">
<path d="M200 513.391C200 347.697 324.832 207.334 500 261.7C693.289 197.267 800 347.697 800 513.391C800 679.086 667.114 860.581 500 813.408C332.886 860.581 200 679.086 200 513.391Z" fill="#F46A6A" stroke="#363A5A" stroke-width="16"/>
<path d="M299.883 575.026C311.586 625.394 338.404 662.199 321.074 666.226C303.744 670.253 280.208 632.686 268.504 582.318C256.801 531.95 261.363 487.854 278.693 483.827C296.023 479.8 288.18 524.658 299.883 575.026Z" fill="#F8C8C8" stroke="#413D51" stroke-width="4"/>
<path d="M406.428 222.248C397.918 222.702 389.489 224.144 381.312 226.547C381.238 229.431 381.243 232.332 381.397 235.263C382.267 251.805 386.871 267.936 394.864 282.444C402.858 296.953 414.032 309.463 427.55 319.036C441.067 328.611 456.578 334.999 472.916 337.723C489.255 340.446 505.998 339.435 521.89 334.765C521.964 331.881 521.961 328.979 521.806 326.048C520.269 296.983 507.251 269.718 485.613 250.252C463.976 230.785 435.492 220.712 406.428 222.248Z" fill="#98DA4F" stroke="#363A5A" stroke-width="6" stroke-linecap="round" stroke-linejoin="round"/>
<path d="M602.099 200.004C600.453 192.739 597.968 185.691 594.694 179C592.198 179.362 589.699 179.793 587.198 180.358C573.077 183.547 559.861 189.891 548.541 198.917C537.222 207.942 528.093 219.413 521.839 232.469C515.585 245.526 512.368 259.83 512.431 274.308C512.493 288.785 515.832 303.06 522.199 316.062C524.694 315.701 527.194 315.27 529.695 314.704C541.98 311.927 553.598 306.759 563.886 299.492C574.173 292.224 582.929 283.002 589.651 272.351C596.375 261.7 600.935 249.829 603.071 237.416C605.206 225.003 604.877 212.291 602.099 200.004Z" fill="#98DA4F" stroke="#363A5A" stroke-width="6" stroke-linecap="round" stroke-linejoin="round"/>
<mask id="mask0_144_4867" style="mask-type:alpha" maskUnits="userSpaceOnUse" x="509" y="175" width="99" height="145">
<path d="M602.099 200.004C600.453 192.739 597.968 185.691 594.694 179C592.198 179.362 589.699 179.793 587.198 180.358C573.077 183.547 559.861 189.891 548.541 198.917C537.222 207.942 528.093 219.413 521.839 232.469C515.585 245.526 512.368 259.83 512.431 274.308C512.493 288.785 515.832 303.06 522.199 316.062C524.694 315.701 527.194 315.27 529.695 314.704C541.98 311.927 553.598 306.759 563.886 299.492C574.173 292.224 582.929 283.002 589.651 272.351C596.375 261.7 600.935 249.829 603.071 237.416C605.206 225.003 604.877 212.291 602.099 200.004Z" fill="#98DA4F" stroke="#363A5A" stroke-width="6" stroke-linecap="round" stroke-linejoin="round"/>
</mask>
<g mask="url(#mask0_144_4867)">
<path d="M602.099 200.004C600.453 192.739 595.947 188.711 592.673 182.02C590.177 182.382 592.673 196.115 592.673 200.004C592.673 223.801 592.073 214.74 587.543 238.399C581.096 259.038 584.116 248.97 563.885 276.153C555.037 288.041 561.465 279.173 548.378 294.778C527.74 310.383 515.832 303.06 522.198 316.062C524.694 315.701 527.193 315.27 529.694 314.704C541.979 311.927 553.597 306.758 563.885 299.492C574.173 292.224 582.928 283.002 589.651 272.351C596.375 261.7 600.934 249.829 603.07 237.415C605.206 225.003 604.876 212.29 602.099 200.004Z" fill="#6DB023"/>
</g>
<path d="M566.226 231.494C566.226 231.494 543.617 260.69 522.199 316.062" stroke="#363A5A" stroke-width="6" stroke-linecap="round" stroke-linejoin="round"/>
<path d="M428.305 264.717C428.305 264.717 492.642 326.285 521.883 334.765" stroke="#363A5A" stroke-width="6" stroke-linecap="round" stroke-linejoin="round"/>
<mask id="mask1_144_4867" style="mask-type:alpha" maskUnits="userSpaceOnUse" x="380" y="222" width="135" height="117">
<path d="M386.02 252.041C384.447 244.53 383.73 236.879 383.884 229.241C386.313 228.558 388.775 227.938 391.295 227.443C405.522 224.649 420.26 225.196 434.403 229.043C448.546 232.89 461.726 239.937 472.955 249.655C484.185 259.373 493.172 271.512 499.243 285.158C505.313 298.804 511.879 318.693 511.576 333.539C509.147 334.223 503.116 334.052 500.596 334.545C488.217 336.973 474.704 335.651 462.247 333.035C449.789 330.418 438.631 322.263 427.992 315C417.352 307.738 408.17 298.44 400.968 287.637C393.767 276.835 388.687 264.74 386.02 252.041Z" fill="#98DA4F" stroke="#363A5A" stroke-width="6" stroke-linecap="round" stroke-linejoin="round"/>
</mask>
<g mask="url(#mask1_144_4867)">
<path d="M386.799 253.5C385.142 246.238 384.727 236.283 384.785 228.834C387.192 228.082 394.962 248.096 396.644 251.603C406.934 273.06 403.557 264.631 417.872 284.004C432.61 299.825 425.533 292.054 455.529 307.815C468.647 314.708 459.017 309.491 477.565 317.903C503.018 333.538 498.488 332.028 511.575 334.042C509.169 334.795 501.491 335.484 498.991 336.055C486.714 338.864 478.188 335.138 465.77 333.035C453.351 330.93 440.755 324.599 430.088 317.903C419.419 311.206 410.74 300.101 403.446 289.832C396.154 279.563 389.607 265.78 386.799 253.5Z" fill="#6DB023"/>
</g>
<path d="M428.523 346.627C503.129 377.155 544.044 376.7 614.765 331.022" stroke="#363A5A" stroke-width="9" stroke-linecap="round"/>
<path d="M499.785 230.657C497.787 218.355 507.284 207.189 519.748 207.189C531.78 207.189 541.151 217.63 539.855 229.592L531.292 308.646C530.904 312.232 531.207 315.859 532.184 319.33L536.421 334.374C539.362 344.819 531.513 355.184 520.662 355.184C508.944 355.184 501.02 343.235 505.58 332.441L510.554 320.666C512.373 316.359 512.941 311.626 512.191 307.012L499.785 230.657Z" fill="#363A5A"/>
</svg>
