<svg width="1000" height="1000" viewBox="0 0 1000 1000" fill="none" xmlns="http://www.w3.org/2000/svg">
<path d="M612.914 426.609C612.914 426.609 691.71 534.953 715.25 558.296C738.79 581.639 740.957 596.808 727.266 625.864C709.495 661.628 688.841 695.886 665.51 728.298C653.1 742.776 631.234 768.877 635.962 772.719C640.69 776.56 664.525 774.393 668.268 771.734C673.408 764.075 677.638 755.845 680.875 747.209C681.861 747.664 682.94 747.884 684.026 747.85C685.112 747.816 686.175 747.529 687.131 747.013C688.086 746.497 688.909 745.766 689.533 744.876C690.157 743.987 690.565 742.964 690.725 741.89C692.793 732.73 731.403 668.413 745.98 641.13C760.557 613.847 780.551 590.504 790.204 573.268C799.856 556.031 804.584 552.485 792.174 533.87C779.764 515.254 724.607 436.754 723.228 433.011C721.849 429.269 612.914 426.609 612.914 426.609Z" fill="#F4A15D"/>
<path d="M647.976 779.613C642.625 780.086 637.252 778.991 632.512 776.462C631.145 775.249 630.298 773.556 630.148 771.734C630.148 766.317 634.975 756.27 661.765 725.146C684.783 693.059 705.172 659.165 722.733 623.795C735.636 596.512 733.37 583.708 711.702 561.744C688.457 538.105 612.124 433.701 608.874 429.466C608.414 428.691 608.172 427.806 608.172 426.905C608.172 426.004 608.414 425.12 608.874 424.344C609.361 423.571 610.027 422.925 610.815 422.463C611.604 422 612.492 421.733 613.404 421.685C727.461 424.246 728.15 427.299 729.135 431.534C730.12 435.77 753.759 468.076 770.601 492.404C781.928 508.852 792.369 523.824 796.899 530.718C809.211 549.432 806.749 556.031 797.884 570.608L795.126 575.435C790.891 582.92 785.277 591.292 778.185 600.846C768.24 614.431 759.129 628.607 750.903 643.297C745.584 653.147 737.113 668.019 728.347 683.286C716.621 702.597 705.872 722.486 696.14 742.875C695.828 744.733 695.087 746.493 693.975 748.015C692.864 749.537 691.413 750.778 689.738 751.641C687.96 752.493 685.991 752.867 684.025 752.725C681.122 761.03 676.788 768.763 671.221 775.575C663.848 778.561 655.923 779.938 647.976 779.613ZM640.49 769.764C648.809 770.651 657.219 770.017 665.311 767.892C669.524 760.796 673.116 753.348 676.047 745.633C676.299 745.013 676.673 744.449 677.147 743.975C677.621 743.502 678.184 743.128 678.805 742.875C680.071 742.381 681.478 742.381 682.745 742.875C683.506 743.162 684.347 743.162 685.108 742.875C685.664 742.279 686.009 741.518 686.093 740.708C695.784 719.218 706.94 698.42 719.483 678.46C728.15 663.292 736.522 648.911 741.841 639.062C750.229 623.97 759.572 609.428 769.813 595.527C776.413 586.17 782.125 578.094 786.065 571.002L788.921 566.078C796.407 553.175 797.687 550.909 788.33 536.529C783.701 529.635 773.359 514.663 762.032 498.313C732.977 456.256 723.423 442.172 720.369 436.754C711.308 434.982 666.099 433.012 622.761 431.83C641.574 457.34 699.685 535.544 718.793 554.948C743.318 579.867 746.273 597.005 731.696 628.129C713.683 664.249 692.801 698.866 669.251 731.647C658.221 743.089 648.569 755.782 640.49 769.468V769.764Z" fill="#263238"/>
<path d="M425.975 484.327C425.975 484.327 427.846 504.617 427.846 550.614C427.846 596.611 423.217 604.983 428.733 622.515C434.752 649.703 436.019 677.728 432.476 705.349C428.733 731.154 414.943 767.991 415.83 773.507C416.716 779.022 429.619 779.121 434.248 776.363C438.878 773.605 445.28 754.202 449.909 720.123C454.538 686.044 459.758 587.451 459.758 587.451L477.29 472.311L425.975 484.327Z" fill="#F4A15D"/>
<path d="M425.778 783.06C422.709 783.105 419.662 782.536 416.815 781.386C415.356 780.773 414.066 779.817 413.054 778.6C412.043 777.383 411.339 775.94 411.004 774.393C411.469 765.905 413.333 757.552 416.52 749.671C421.168 734.922 424.853 719.886 427.551 704.659C430.994 677.765 429.795 650.48 424.005 623.992C420.906 612.811 420.102 601.118 421.641 589.618C422.232 580.655 422.922 568.343 422.922 550.22C422.922 505.011 421.05 484.622 421.05 484.425C420.947 483.226 421.278 482.029 421.983 481.052C422.688 480.076 423.72 479.386 424.892 479.107L476.404 467.189C477.199 467.003 478.026 467.014 478.816 467.22C479.605 467.426 480.333 467.821 480.935 468.371C481.521 468.914 481.962 469.595 482.22 470.351C482.478 471.108 482.544 471.916 482.412 472.705L464.979 587.845C464.979 591.39 459.365 686.339 455.129 720.418C452.963 736.374 446.856 774.295 437.105 780.106C433.661 782.084 429.75 783.104 425.778 783.06ZM431.195 488.168C431.786 496.343 432.771 516.239 432.771 550.614C432.771 568.638 432.082 581.147 431.491 590.011C430.011 600.313 430.682 610.81 433.461 620.84C439.653 648.771 440.953 677.564 437.302 705.939C434.54 721.601 430.757 737.065 425.975 752.232C423.773 758.935 422.029 765.779 420.755 772.719C424.432 773.515 428.26 773.241 431.786 771.931C433.461 770.453 439.863 757.452 445.083 719.236C449.614 685.748 454.932 588.042 454.932 587.057L471.381 478.713L431.195 488.168Z" fill="#263238"/>
<path d="M206.723 561.744C206.723 561.744 191.063 577.404 181.016 590.209C173.023 600.756 169.487 614.018 171.167 627.144C171.167 640.933 172.94 669.496 172.94 680.528C172.94 691.559 175.698 712.736 175.698 728.396C175.698 744.057 172.053 745.928 179.44 750.557C185.259 752.891 191.695 753.188 197.704 751.4C203.712 749.612 208.939 745.844 212.535 740.708C216.612 732.738 219.911 724.393 222.384 715.789C230.494 703.673 237.295 690.73 242.674 677.179C248.19 660.534 255.577 640.244 255.577 640.244C255.577 640.244 280.397 578.586 315.461 543.621C350.525 508.655 378.104 497.525 396.522 495.654C414.94 493.783 444.39 495.654 458.18 494.768C471.969 493.881 504.275 475.069 530.967 456.946C557.659 438.823 566.425 437.739 627.196 439.315C687.967 440.891 697.225 437.542 697.225 437.542C697.225 437.542 736.623 484.721 764.694 497.427C792.765 510.133 818.176 532.983 863.188 576.222C908.2 619.461 917.36 715.887 918.739 732.533C919.648 743.521 917.786 754.561 913.322 764.642C910.269 775.575 910.17 779.219 919.33 779.515C928.49 779.81 934.991 779.022 937.059 771.734C937.778 766.457 939.81 761.444 942.969 757.156C947.795 749.868 954.296 748.194 949.962 738.837C935.601 694.658 923.601 649.747 914.011 604.293C909.284 574.745 902.98 533.082 897.661 527.369C880.071 514.123 864.103 498.85 850.089 481.865C827.829 453.597 812.365 443.058 825.367 405.63C833.507 380.974 838.537 355.397 840.338 329.494C840.338 329.494 845.558 374.801 847.331 378.741C849.104 382.681 869.984 360.027 863.484 328.509C856.983 296.991 813.449 270.003 813.449 270.003C774.116 249.834 732.958 233.443 690.528 221.052C625.62 203.618 497.183 237.993 470.491 251.782C443.799 265.571 395.833 263.798 371.012 296.991C346.191 330.183 269.661 476.546 258.63 494.965C247.599 513.383 206.723 561.744 206.723 561.744Z" fill="#F4A15D"/>
<path d="M922.286 783.75H919.135C917.125 783.919 915.104 783.625 913.226 782.891C911.348 782.156 909.663 781.002 908.3 779.515C905.247 775.378 906.429 769.666 908.3 762.574C908.99 759.816 909.876 757.452 910.566 755.285C913.523 747.986 914.574 740.055 913.619 732.238C912.043 713.819 902.194 619.659 859.447 579.079C812.761 534.658 789.418 513.876 762.529 501.761C735.64 489.646 703.432 452.514 695.159 442.664C672.446 444.944 649.585 445.372 626.803 443.945C565.441 442.27 558.547 443.945 533.628 460.787C508.709 477.63 474.039 498.314 458.378 499.397C452.37 499.397 443.505 499.397 434.247 499.397C421.541 499.397 407.259 499.397 396.819 500.086C380.764 501.662 354.27 511.019 318.713 546.576C284.831 580.458 260.207 641.032 259.616 641.623C259.616 641.623 252.328 661.322 246.911 678.164C241.542 692.006 234.672 705.217 226.424 717.562C223.751 726.232 220.289 734.639 216.082 742.678C211.884 749.079 205.556 753.788 198.218 755.969C190.881 758.151 183.008 757.664 175.995 754.596C168.312 749.77 168.805 745.239 169.396 738.837C169.802 735.339 169.999 731.819 169.987 728.298C169.987 720.024 169.199 709.781 168.509 700.818C167.82 691.855 167.229 685.65 167.229 680.43C167.229 675.21 167.229 666.246 166.441 656.693C165.653 647.139 165.456 634.433 165.456 627.144C163.823 612.905 167.816 598.591 176.586 587.254C186.435 574.745 200.914 560.069 202.588 558.395C204.263 556.721 243.168 510.231 253.608 492.798C256.76 487.676 265.231 471.917 276.065 451.923C304.825 398.736 348.261 318.463 366.286 294.332C384.31 270.201 411.298 264.094 435.724 257.987C446.624 255.872 457.259 252.57 467.44 248.138C492.26 235.334 622.568 198.891 691.022 217.014C733.807 229.06 775.359 245.12 815.125 264.98C817.291 266.261 860.826 293.642 867.721 326.835C874.024 357.663 856.689 380.711 849.499 383.075C848.151 383.606 846.65 383.594 845.31 383.043C843.97 382.493 842.895 381.445 842.309 380.12C841.077 376.003 840.22 371.784 839.748 367.513C837.391 380.86 834.1 394.025 829.899 406.911C819.458 436.459 828.126 447.195 845.264 468.076C847.923 471.227 850.78 474.773 853.734 478.516C865.136 493.041 878.38 506.02 893.132 517.126C895.898 519.114 898.5 521.321 900.913 523.725C906.035 529.142 910.172 550.515 917.46 596.414L918.544 603.21C928.042 648.226 939.911 692.708 954.1 736.473C955.821 739.515 956.399 743.072 955.731 746.502C955.063 749.933 953.192 753.013 950.456 755.187C949.122 756.527 947.903 757.976 946.812 759.521C944.659 762.098 943.201 765.184 942.576 768.483C942.576 769.567 941.985 770.946 941.493 772.719C938.833 782.47 929.477 783.75 922.286 783.75ZM916.377 773.901C916.377 773.901 917.657 773.901 919.43 773.901C929.28 773.901 931.348 772.916 932.234 769.666C932.644 768.374 932.973 767.058 933.219 765.726C934.156 761.346 936.076 757.237 938.834 753.709C940.172 751.705 941.688 749.826 943.364 748.095C946.615 744.549 947.107 744.057 945.334 740.314C930.811 695.685 918.679 650.313 908.99 604.392L907.906 597.596C904.459 575.73 898.057 534.953 893.92 530.029C891.802 528.055 889.565 526.213 887.223 524.513C871.848 512.882 858.014 499.346 846.052 484.229C843.195 480.486 840.339 477.137 837.68 474.379C820.148 453.006 808.132 438.921 820.64 403.759C828.606 379.577 833.536 354.498 835.316 329.1C835.316 327.794 835.835 326.541 836.758 325.618C837.682 324.694 838.935 324.175 840.241 324.175C841.547 324.175 842.799 324.694 843.723 325.618C844.647 326.541 845.165 327.794 845.165 329.1C846.938 344.465 849.105 361.209 850.583 370.271C854.636 364.365 857.435 357.69 858.807 350.66C860.179 343.63 860.095 336.392 858.561 329.396C852.552 299.847 811.185 274.337 810.692 274.14C771.667 254.69 730.911 238.928 688.953 227.06C627 210.513 500.534 242.918 472.266 257.495C461.409 262.4 450.047 266.099 438.384 268.526C414.548 274.534 389.826 280.641 374.461 301.226C356.83 324.668 311.917 407.797 285.028 457.537C273.701 478.418 265.329 493.487 262.374 498.806C251.244 517.323 211.945 563.812 210.369 565.782C210.369 565.782 194.807 581.344 184.958 593.853C177.6 603.517 174.345 615.689 175.896 627.735C175.896 634.827 175.896 646.055 176.881 657.283C177.866 668.512 177.669 676.194 177.669 681.513C177.669 686.832 178.26 693.529 178.851 701.212C179.639 710.372 180.427 720.911 180.427 729.48C180.443 733.329 180.246 737.176 179.836 741.004C179.836 745.83 179.836 745.83 181.806 747.406C186.478 749.071 191.566 749.164 196.295 747.67C201.025 746.176 205.137 743.178 208.005 739.132C212.033 731.515 215.331 723.535 217.855 715.296C218.024 714.809 218.256 714.346 218.544 713.918C226.33 702.088 232.929 689.518 238.243 676.391C243.759 659.746 251.146 639.357 251.146 639.357C252.229 636.698 276.853 576.223 312.212 540.863C349.739 503.337 378.598 493.29 396.228 491.616C409.041 490.643 421.898 490.38 434.739 490.828C443.801 490.828 452.468 490.828 458.083 490.828C469.015 490.139 497.973 474.872 528.408 453.893C556.281 434.686 565.835 433.701 627.493 435.376C684.718 437.05 695.454 433.997 695.946 433.898C696.882 433.611 697.879 433.597 698.822 433.859C699.764 434.121 700.612 434.647 701.265 435.376C701.265 435.868 740.072 481.865 766.961 493.98C793.85 506.094 819.064 527.862 866.637 572.775C910.861 614.832 921.597 705.447 923.764 732.336C924.861 741.479 923.677 750.75 920.317 759.323C919.627 761.392 918.839 763.559 918.15 766.12C917.271 768.87 916.709 771.712 916.475 774.59L916.377 773.901Z" fill="#263238"/>
<path d="M378.99 388.492C378.99 388.492 367.958 421.685 388.248 438.232C408.538 454.779 457.194 477.63 458.179 494.472C459.164 511.315 447.148 575.533 449.019 598.581C450.335 612.033 450.96 625.545 450.891 639.062C447.954 677.377 443.022 715.513 436.116 753.315C433.295 762.828 429.602 772.059 425.085 780.894C431.171 781.881 437.346 782.212 443.503 781.879C449.906 780.894 455.421 765.233 455.421 765.233C455.421 765.233 463.793 765.233 465.271 752.33C466.748 739.428 468.029 662.996 475.12 639.948C482.212 616.901 505.555 529.438 511.071 502.056C516.586 474.675 513.828 461.477 529.489 441.187" fill="#F4A15D"/>
<path d="M439.072 787C434.129 786.897 429.195 786.503 424.298 785.819C423.528 785.683 422.799 785.373 422.167 784.912C421.536 784.451 421.018 783.851 420.654 783.159C420.291 782.459 420.102 781.682 420.102 780.894C420.102 780.105 420.291 779.328 420.654 778.628C424.92 770.035 428.478 761.108 431.291 751.936C438.034 714.579 442.899 676.907 445.868 639.062C445.941 625.676 445.317 612.296 443.997 598.975C444.109 577.99 445.855 557.046 449.217 536.332C451.336 522.564 452.684 508.687 453.256 494.768C453.256 486.1 429.124 471.228 411.888 460.295C402.593 454.725 393.616 448.642 384.999 442.073C362.345 423.556 373.771 388.492 374.263 387.015C374.452 386.393 374.765 385.816 375.183 385.318C375.601 384.82 376.115 384.412 376.694 384.118C377.274 383.823 377.907 383.649 378.555 383.605C379.204 383.561 379.854 383.649 380.468 383.863C381.693 384.29 382.705 385.175 383.293 386.331C383.88 387.488 383.998 388.827 383.62 390.068C383.62 390.068 373.771 420.306 391.204 434.489C399.509 440.807 408.157 446.66 417.108 452.021C440.353 466.697 462.317 480.486 463.006 494.177C462.592 508.727 461.244 523.236 458.968 537.613C455.761 557.649 454.049 577.896 453.846 598.187C455.161 611.772 455.785 625.414 455.718 639.062C452.78 677.844 447.783 716.443 440.747 754.694C438.488 762.258 435.724 769.662 432.473 776.856C435.749 777.171 439.047 777.171 442.323 776.856C446.178 773.26 448.943 768.652 450.301 763.559C450.641 762.596 451.266 761.76 452.093 761.162C452.92 760.564 453.909 760.232 454.93 760.21C454.93 760.21 459.067 759.619 460.249 751.542C460.741 747.898 461.234 737.556 461.825 725.639C463.302 696.09 465.272 655.018 470.492 638.372C477.978 615.325 500.927 527.763 506.344 500.48C507.723 493.29 508.609 487.184 509.397 481.57C510.237 465.618 515.904 450.298 525.649 437.641C526.475 436.698 527.629 436.105 528.877 435.984C530.124 435.862 531.371 436.221 532.364 436.987C533.356 437.754 534.019 438.869 534.217 440.107C534.415 441.345 534.133 442.612 533.43 443.649C524.754 455.013 519.77 468.763 519.148 483.047C518.36 488.76 517.474 495.162 515.996 502.746C510.579 530.029 487.335 618.181 479.947 641.524C475.023 656.889 472.954 698.651 471.674 726.23C470.984 739.428 470.591 748.883 470 753.02C469.918 756.567 468.802 760.012 466.79 762.934C464.778 765.856 461.957 768.127 458.673 769.468C456.309 775.28 451.089 785.622 443.702 786.705C442.165 786.888 440.62 786.987 439.072 787Z" fill="#263238"/>
<path d="M172.542 551.993C172.158 541.276 168.44 530.947 161.905 522.445C153.139 514.171 150.184 521.854 140.728 508.261C131.273 494.669 91.4812 456.453 86.5565 465.909C81.6318 475.364 86.5565 475.266 97.1939 487.676C107.831 500.086 130.091 518.899 124.871 521.854C119.651 524.808 88.9204 540.666 73.6537 541.553C58.3871 542.439 45.9769 542.143 50.0152 549.826C52.0184 553.871 54.835 557.459 58.2886 560.365C58.2886 560.365 44.204 571.593 50.6061 578.094C57.0082 584.594 63.6073 582.132 81.8288 567.457C96.179 553.961 113.531 544.07 132.455 538.598C150.775 534.461 160.132 539.188 160.723 548.447C161.314 557.705 171.951 558.494 172.542 551.993Z" fill="#263238"/>
<path d="M57.7014 586.269C55.7091 586.222 53.7471 585.77 51.9352 584.941C50.1233 584.111 48.4994 582.921 47.1625 581.443C46.1018 580.371 45.2742 579.092 44.7318 577.685C44.1894 576.278 43.944 574.774 44.0107 573.268C44.8417 568.208 47.3789 563.586 51.2008 560.168C49.0995 557.63 47.2522 554.892 45.6851 551.993C44.9339 550.672 44.539 549.179 44.539 547.659C44.539 546.14 44.9339 544.646 45.6851 543.325C48.5415 538.105 55.5346 537.613 67.2554 536.923H73.6575C89.9232 533.175 105.575 527.14 120.147 518.997C115.777 513.679 111.107 508.615 106.161 503.829C101.63 499.298 97.1977 494.768 93.8489 490.828C90.5 486.888 89.0226 485.608 87.2497 483.736C81.5371 478.024 77.4004 473.887 82.5221 464.038C83.1447 462.857 84.0607 461.856 85.1819 461.132C86.3031 460.407 87.5918 459.983 88.9241 459.901C102.91 459.014 138.762 496.639 145.164 505.898C149.498 512.103 151.567 512.595 154.423 513.285C158.686 514.048 162.608 516.113 165.651 519.194C173.407 528.875 177.705 540.87 177.865 553.273C177.688 555.59 176.63 557.75 174.907 559.308C173.184 560.866 170.928 561.702 168.606 561.645C165.346 561.473 162.27 560.082 159.989 557.746C157.708 555.41 156.389 552.301 156.294 549.038C156.283 548.237 156.092 547.449 155.733 546.733C155.375 546.017 154.86 545.391 154.226 544.901C152.552 543.621 147.233 541.158 134.035 544.113C117.586 547.856 104.486 556.425 85.4769 571.987C74.1501 579.965 65.384 586.269 57.7014 586.269ZM54.8452 548.053C56.4277 551.197 58.6013 554.006 61.2472 556.327C61.8404 556.787 62.3204 557.377 62.6507 558.051C62.9809 558.725 63.1526 559.466 63.1526 560.217C63.1526 560.968 62.9809 561.709 62.6507 562.383C62.3204 563.057 61.8404 563.647 61.2472 564.108C57.8559 566.602 55.2568 570.022 53.7617 573.957C56.8151 577.306 58.9819 579.473 78.6808 563.615C93.673 549.805 111.683 539.687 131.277 534.067C135.884 532.465 140.78 531.864 145.638 532.306C150.496 532.748 155.203 534.221 159.446 536.628C161.252 537.933 162.74 539.63 163.797 541.591C164.855 543.553 165.455 545.728 165.553 547.955C165.545 548.519 165.665 549.078 165.904 549.59C166.142 550.102 166.494 550.553 166.932 550.909H167.523C167.042 541.797 163.891 533.028 158.461 525.695C156.619 523.836 154.243 522.597 151.665 522.149C148.482 521.466 145.486 520.099 142.884 518.144C140.282 516.188 138.136 513.69 136.595 510.822C127.731 498.018 98.6751 471.425 90.2046 469.159C89.0227 471.819 89.6137 472.311 93.7504 476.546C95.7203 478.516 98.0842 480.978 100.842 484.13C103.6 487.282 108.328 492.305 112.661 496.639C126.155 510.231 131.178 515.845 130.39 521.066C130.261 522.055 129.899 522.999 129.334 523.821C128.769 524.643 128.017 525.319 127.14 525.793C127.14 525.793 91.7805 545.492 73.8545 546.477H67.3538C63.1549 546.735 58.9768 547.261 54.8452 548.053Z" fill="#263238"/>
<path d="M188.209 600.354C183.876 593.3 181.845 585.073 182.397 576.813C183.222 571.278 182.858 565.631 181.33 560.247C179.801 554.863 177.143 549.867 173.533 545.591C168.7 541.351 162.814 538.493 156.493 537.317C148.119 523.618 138.667 510.609 128.226 498.412C116.997 487.282 105.769 484.327 108.527 494.374C111.285 504.42 129.801 519.687 136.795 530.817C143.788 541.947 139.158 541.454 132.658 546.773C126.157 552.091 120.937 557.903 112.959 557.903C104.981 557.903 87.6458 535.544 85.8729 548.546C84.1 561.547 95.7224 562.63 93.5555 566.767C91.3886 570.904 59.378 591.489 61.7419 601.536C64.1057 611.582 74.7431 602.717 95.3285 588.534C115.914 574.351 144.576 558.986 156.001 558.986C167.426 558.986 167.722 561.941 165.358 577.897C162.994 593.853 162.403 618.476 170.086 621.431C177.768 624.386 182.496 617.295 184.269 613.158" fill="#F4A15D"/>
<path d="M172.544 627.144C170.725 627.153 168.921 626.819 167.225 626.159C153.633 620.939 158.361 584.496 159.444 576.912C160.324 572.77 160.557 568.518 160.134 564.305C158.455 563.74 156.676 563.539 154.914 563.714C146.148 563.714 119.554 576.813 96.999 592.277L90.4984 596.808C76.1182 606.657 68.1401 612.37 61.6394 609.809C60.1195 609.151 58.7903 608.12 57.7746 606.811C56.7588 605.503 56.0894 603.959 55.8283 602.323C53.7599 593.262 65.1853 583.117 80.3535 570.805C82.5203 569.131 84.9827 567.063 86.6571 565.585C84.0227 563.461 82.0101 560.665 80.8314 557.493C79.6527 554.321 79.3514 550.89 79.9594 547.561C79.9936 545.938 80.4826 544.358 81.3706 543C82.2587 541.642 83.5102 540.56 84.9827 539.878C90.3014 537.613 95.9155 541.848 102.318 546.674C105.254 549.197 108.58 551.226 112.167 552.682C117.509 551.978 122.411 549.352 125.956 545.295L129.108 542.636L132.851 539.878L135.018 538.302C135.018 538.302 134.427 536.825 132.161 533.18C128.526 528.09 124.509 523.283 120.145 518.8C112.854 512.262 107.102 504.189 103.303 495.161C102.506 493.184 102.424 490.99 103.071 488.958C103.718 486.926 105.054 485.184 106.848 484.032C113.546 480.388 123.986 487.085 131.571 494.669C141.932 506.521 151.258 519.241 159.444 532.688C165.949 534.129 171.961 537.254 176.878 541.749C180.891 546.554 183.843 552.154 185.54 558.179C187.238 564.205 187.642 570.522 186.727 576.715C186.228 583.869 187.984 591 191.751 597.103C192.521 598.161 192.84 599.482 192.637 600.775C192.434 602.068 191.725 603.227 190.667 603.998C189.609 604.769 188.288 605.087 186.995 604.884C185.702 604.681 184.543 603.972 183.773 602.914C178.725 595.003 176.343 585.684 176.976 576.321C177.682 571.463 177.391 566.513 176.121 561.771C174.851 557.03 172.629 552.597 169.589 548.742C165.436 545.238 160.449 542.864 155.111 541.848C154.417 541.748 153.756 541.493 153.176 541.1C152.596 540.708 152.112 540.189 151.762 539.583C143.568 526.245 134.347 513.567 124.183 501.662C120.917 498.112 116.963 495.264 112.561 493.29C116.26 500.327 121.122 506.687 126.941 512.103C131.785 517.003 136.2 522.308 140.139 527.96C147.034 538.992 144.867 543.325 138.071 547.659C137.086 548.349 136.003 549.038 134.919 549.925L131.964 552.485C126.742 558.231 119.516 561.757 111.773 562.335C105.935 561.288 100.546 558.508 96.3095 554.357C94.4381 552.978 91.5818 550.811 89.612 549.629C89.393 551.301 89.635 553.002 90.312 554.547C90.989 556.092 92.0752 557.422 93.4532 558.395C95.0449 559.416 96.249 560.941 96.8737 562.726C97.4984 564.511 97.5078 566.453 96.9004 568.244C95.9155 570.51 93.4532 572.578 86.4601 578.094C81.1414 582.329 65.0868 595.429 65.3823 599.763C65.3286 600.056 65.3286 600.356 65.3823 600.649C72.0511 597.03 78.4384 592.914 84.4902 588.337L91.0893 583.806C108.129 572.086 140.337 553.47 154.52 553.47C156.804 553.174 159.125 553.382 161.321 554.08C163.516 554.777 165.531 555.948 167.225 557.509C170.87 561.645 170.279 568.047 168.801 577.995C165.748 598.679 167.718 614.438 170.476 616.31C173.234 618.181 177.272 612.862 178.257 610.597C178.504 610.004 178.866 609.467 179.324 609.016C179.781 608.565 180.324 608.21 180.92 607.971C181.516 607.733 182.154 607.616 182.796 607.627C183.438 607.638 184.071 607.777 184.659 608.036C185.255 608.293 185.795 608.665 186.247 609.132C186.699 609.598 187.054 610.15 187.292 610.754C187.53 611.358 187.646 612.003 187.634 612.653C187.621 613.302 187.481 613.942 187.22 614.537C186.328 617.872 184.45 620.86 181.831 623.109C179.212 625.359 175.976 626.765 172.544 627.144Z" fill="#263238"/>
<path d="M196.086 649.797C196.086 649.797 188.403 641.524 183.774 648.025C179.145 654.525 183.774 661.518 188.994 657.874C191.681 655.484 194.063 652.771 196.086 649.797Z" fill="#263238"/>
<path d="M186.136 663.587C183.985 663.579 181.914 662.772 180.325 661.322C178.255 659.174 177.051 656.338 176.942 653.358C176.833 650.378 177.827 647.461 179.734 645.168C180.577 643.849 181.723 642.75 183.076 641.962C184.43 641.174 185.951 640.72 187.515 640.638C189.836 640.738 192.114 641.305 194.212 642.303C196.31 643.301 198.186 644.711 199.728 646.449C200.443 647.285 200.876 648.325 200.965 649.422C201.053 650.519 200.793 651.616 200.221 652.555C197.862 655.677 195.189 658.549 192.243 661.124C190.583 662.674 188.406 663.551 186.136 663.587ZM188.204 650.487C187.683 651.132 187.283 651.867 187.023 652.654L189.091 650.684C188.829 650.512 188.514 650.442 188.204 650.487Z" fill="#263238"/>
<path d="M207.905 593.065C202.852 585.394 199.567 576.695 198.29 567.599C197.012 558.502 197.773 549.235 200.518 540.469C209.678 510.133 224.452 502.746 224.452 502.746C224.452 502.746 247.5 534.953 244.151 549.727C240.402 562.595 235.795 575.198 230.362 587.451" fill="#F4A15D"/>
<path d="M207.903 597.989C207.137 597.997 206.381 597.823 205.695 597.48C205.01 597.138 204.417 596.637 203.964 596.02C198.413 587.754 194.795 578.343 193.38 568.488C191.965 558.632 192.788 548.584 195.788 539.09C205.638 507.079 221.594 498.707 222.284 498.313C223.336 497.793 224.539 497.666 225.677 497.955C226.815 498.244 227.812 498.93 228.489 499.889C230.951 503.336 252.718 534.461 248.187 550.909C244.328 564.069 239.623 576.965 234.103 589.519C233.567 590.721 232.576 591.66 231.348 592.131C230.12 592.602 228.754 592.566 227.553 592.031C226.351 591.495 225.412 590.504 224.94 589.276C224.469 588.048 224.506 586.682 225.041 585.481C230.376 573.48 234.916 561.142 238.633 548.545C240.702 540.37 230.951 521.952 222.874 509.739C214.098 518.673 207.875 529.793 204.85 541.946C202.312 549.962 201.588 558.441 202.729 566.771C203.871 575.101 206.849 583.073 211.449 590.11C212.208 591.164 212.529 592.47 212.345 593.756C212.162 595.041 211.488 596.206 210.464 597.005C209.705 597.54 208.825 597.878 207.903 597.989Z" fill="#263238"/>
<path d="M218.738 585.973C217.879 585.968 217.036 585.738 216.293 585.306C215.55 584.874 214.932 584.255 214.503 583.511C213.715 582.23 196.774 552.485 208.692 525.596C209.227 524.395 210.218 523.455 211.446 522.984C212.675 522.513 214.04 522.549 215.241 523.085C216.443 523.62 217.383 524.611 217.854 525.84C218.325 527.068 218.289 528.433 217.753 529.634C207.904 551.894 222.875 578.291 222.973 578.882C223.306 579.435 223.525 580.05 223.616 580.69C223.707 581.33 223.669 581.981 223.504 582.606C223.339 583.23 223.049 583.815 222.654 584.326C222.258 584.837 221.764 585.263 221.2 585.58C220.431 585.934 219.579 586.07 218.738 585.973Z" fill="#263238"/>
<circle cx="8.61826" cy="8.61826" r="8.61826" transform="matrix(-1 0 0 1 627.145 277.266)" fill="#FA8423"/>
<circle cx="8.61826" cy="8.61826" r="8.61826" transform="matrix(-1 0 0 1 511.414 294.502)" fill="#FA8423"/>
<circle cx="8.61826" cy="8.61826" r="8.61826" transform="matrix(-1 0 0 1 587.75 341.287)" fill="#FA8423"/>
<circle cx="8.61826" cy="8.61826" r="8.61826" transform="matrix(-1 0 0 1 424 388.072)" fill="#FA8423"/>
<circle cx="8.61826" cy="8.61826" r="8.61826" transform="matrix(-1 0 0 1 715.793 379.454)" fill="#FA8423"/>
<circle cx="8.61826" cy="8.61826" r="8.61826" transform="matrix(-1 0 0 1 714.559 285.884)" fill="#FA8423"/>
</svg>
